<?xml version="1.0" encoding="utf-8" standalone="no"?>
<!DOCTYPE svg PUBLIC "-//W3C//DTD SVG 1.1//EN"
  "http://www.w3.org/Graphics/SVG/1.1/DTD/svg11.dtd">
<!-- Created with matplotlib (https://matplotlib.org/) -->
<svg height="264.672687pt" version="1.1" viewBox="0 0 498.167 264.672687" width="498.167pt" xmlns="http://www.w3.org/2000/svg" xmlns:xlink="http://www.w3.org/1999/xlink">
 <defs>
  <style type="text/css">
*{stroke-linecap:butt;stroke-linejoin:round;}
  </style>
 </defs>
 <g id="figure_1">
  <g id="patch_1">
   <path d="M 0 264.672687 
L 498.167 264.672687 
L 498.167 0 
L 0 0 
z
" style="fill:#ffffff;stroke:#ffffff;stroke-linejoin:miter;"/>
  </g>
  <g id="axes_1">
   <g id="patch_2">
    <path d="M 44.567 228.96 
L 490.967 228.96 
L 490.967 7.2 
L 44.567 7.2 
z
" style="fill:#ffffff;stroke:#7f7f7f;stroke-linejoin:miter;"/>
   </g>
   <g id="matplotlib.axis_1">
    <g id="xtick_1">
     <g id="line2d_1">
      <path clip-path="url(#pf913dfff65)" d="M 64.857909 228.96 
L 64.857909 7.2 
" style="fill:none;stroke:#e5e5e5;stroke-width:0.8;"/>
     </g>
     <g id="line2d_2">
      <path d="M 64.857909 228.96 
" style="fill:none;stroke:#000000;stroke-width:1.5;"/>
      <defs>
       <path d="M 0 0 
L 0 2.75 
" id="m5c99d972b0" style="stroke:#000000;"/>
      </defs>
      <g>
       <use style="stroke:#000000;" x="64.857909" xlink:href="#m5c99d972b0" y="228.96"/>
      </g>
     </g>
     <g id="text_1">
      <!-- 1 -->
      <defs>
       <path d="M 12.40625 8.296875 
L 28.515625 8.296875 
L 28.515625 63.921875 
L 10.984375 60.40625 
L 10.984375 69.390625 
L 28.421875 72.90625 
L 38.28125 72.90625 
L 38.28125 8.296875 
L 54.390625 8.296875 
L 54.390625 0 
L 12.40625 0 
z
" id="DejaVuSans-49"/>
      </defs>
      <g transform="translate(62.058409 240.596625)scale(0.088 -0.088)">
       <use xlink:href="#DejaVuSans-49"/>
      </g>
     </g>
    </g>
    <g id="xtick_2">
     <g id="line2d_3">
      <path clip-path="url(#pf913dfff65)" d="M 200.130636 228.96 
L 200.130636 7.2 
" style="fill:none;stroke:#e5e5e5;stroke-width:0.8;"/>
     </g>
     <g id="line2d_4">
      <path d="M 200.130636 228.96 
" style="fill:none;stroke:#000000;stroke-width:1.5;"/>
      <g>
       <use style="stroke:#000000;" x="200.130636" xlink:href="#m5c99d972b0" y="228.96"/>
      </g>
     </g>
     <g id="text_2">
      <!-- 2 -->
      <defs>
       <path d="M 19.1875 8.296875 
L 53.609375 8.296875 
L 53.609375 0 
L 7.328125 0 
L 7.328125 8.296875 
Q 12.9375 14.109375 22.625 23.890625 
Q 32.328125 33.6875 34.8125 36.53125 
Q 39.546875 41.84375 41.421875 45.53125 
Q 43.3125 49.21875 43.3125 52.78125 
Q 43.3125 58.59375 39.234375 62.25 
Q 35.15625 65.921875 28.609375 65.921875 
Q 23.96875 65.921875 18.8125 64.3125 
Q 13.671875 62.703125 7.8125 59.421875 
L 7.8125 69.390625 
Q 13.765625 71.78125 18.9375 73 
Q 24.125 74.21875 28.421875 74.21875 
Q 39.75 74.21875 46.484375 68.546875 
Q 53.21875 62.890625 53.21875 53.421875 
Q 53.21875 48.921875 51.53125 44.890625 
Q 49.859375 40.875 45.40625 35.40625 
Q 44.1875 33.984375 37.640625 27.21875 
Q 31.109375 20.453125 19.1875 8.296875 
z
" id="DejaVuSans-50"/>
      </defs>
      <g transform="translate(197.331136 240.596625)scale(0.088 -0.088)">
       <use xlink:href="#DejaVuSans-50"/>
      </g>
     </g>
    </g>
    <g id="xtick_3">
     <g id="line2d_5">
      <path clip-path="url(#pf913dfff65)" d="M 335.403364 228.96 
L 335.403364 7.2 
" style="fill:none;stroke:#e5e5e5;stroke-width:0.8;"/>
     </g>
     <g id="line2d_6">
      <path d="M 335.403364 228.96 
" style="fill:none;stroke:#000000;stroke-width:1.5;"/>
      <g>
       <use style="stroke:#000000;" x="335.403364" xlink:href="#m5c99d972b0" y="228.96"/>
      </g>
     </g>
     <g id="text_3">
      <!-- 3 -->
      <defs>
       <path d="M 40.578125 39.3125 
Q 47.65625 37.796875 51.625 33 
Q 55.609375 28.21875 55.609375 21.1875 
Q 55.609375 10.40625 48.1875 4.484375 
Q 40.765625 -1.421875 27.09375 -1.421875 
Q 22.515625 -1.421875 17.65625 -0.515625 
Q 12.796875 0.390625 7.625 2.203125 
L 7.625 11.71875 
Q 11.71875 9.328125 16.59375 8.109375 
Q 21.484375 6.890625 26.8125 6.890625 
Q 36.078125 6.890625 40.9375 10.546875 
Q 45.796875 14.203125 45.796875 21.1875 
Q 45.796875 27.640625 41.28125 31.265625 
Q 36.765625 34.90625 28.71875 34.90625 
L 20.21875 34.90625 
L 20.21875 43.015625 
L 29.109375 43.015625 
Q 36.375 43.015625 40.234375 45.921875 
Q 44.09375 48.828125 44.09375 54.296875 
Q 44.09375 59.90625 40.109375 62.90625 
Q 36.140625 65.921875 28.71875 65.921875 
Q 24.65625 65.921875 20.015625 65.03125 
Q 15.375 64.15625 9.8125 62.3125 
L 9.8125 71.09375 
Q 15.4375 72.65625 20.34375 73.4375 
Q 25.25 74.21875 29.59375 74.21875 
Q 40.828125 74.21875 47.359375 69.109375 
Q 53.90625 64.015625 53.90625 55.328125 
Q 53.90625 49.265625 50.4375 45.09375 
Q 46.96875 40.921875 40.578125 39.3125 
z
" id="DejaVuSans-51"/>
      </defs>
      <g transform="translate(332.603864 240.596625)scale(0.088 -0.088)">
       <use xlink:href="#DejaVuSans-51"/>
      </g>
     </g>
    </g>
    <g id="xtick_4">
     <g id="line2d_7">
      <path clip-path="url(#pf913dfff65)" d="M 470.676091 228.96 
L 470.676091 7.2 
" style="fill:none;stroke:#e5e5e5;stroke-width:0.8;"/>
     </g>
     <g id="line2d_8">
      <path d="M 470.676091 228.96 
" style="fill:none;stroke:#000000;stroke-width:1.5;"/>
      <g>
       <use style="stroke:#000000;" x="470.676091" xlink:href="#m5c99d972b0" y="228.96"/>
      </g>
     </g>
     <g id="text_4">
      <!-- 4 -->
      <defs>
       <path d="M 37.796875 64.3125 
L 12.890625 25.390625 
L 37.796875 25.390625 
z
M 35.203125 72.90625 
L 47.609375 72.90625 
L 47.609375 25.390625 
L 58.015625 25.390625 
L 58.015625 17.1875 
L 47.609375 17.1875 
L 47.609375 0 
L 37.796875 0 
L 37.796875 17.1875 
L 4.890625 17.1875 
L 4.890625 26.703125 
z
" id="DejaVuSans-52"/>
      </defs>
      <g transform="translate(467.876591 240.596625)scale(0.088 -0.088)">
       <use xlink:href="#DejaVuSans-52"/>
      </g>
     </g>
    </g>
    <g id="xtick_5">
     <g id="line2d_9">
      <path clip-path="url(#pf913dfff65)" d="M 132.494273 228.96 
L 132.494273 7.2 
" style="fill:none;stroke:#fafafa;"/>
     </g>
     <g id="line2d_10">
      <path d="M 132.494273 228.96 
" style="fill:none;stroke:#000000;stroke-width:1.5;"/>
      <defs>
       <path d="M 0 0 
L 0 1.375 
" id="m99b3d573b1" style="stroke:#000000;"/>
      </defs>
      <g>
       <use style="stroke:#000000;" x="132.494273" xlink:href="#m99b3d573b1" y="228.96"/>
      </g>
     </g>
    </g>
    <g id="xtick_6">
     <g id="line2d_11">
      <path clip-path="url(#pf913dfff65)" d="M 267.767 228.96 
L 267.767 7.2 
" style="fill:none;stroke:#fafafa;"/>
     </g>
     <g id="line2d_12">
      <path d="M 267.767 228.96 
" style="fill:none;stroke:#000000;stroke-width:1.5;"/>
      <g>
       <use style="stroke:#000000;" x="267.767" xlink:href="#m99b3d573b1" y="228.96"/>
      </g>
     </g>
    </g>
    <g id="xtick_7">
     <g id="line2d_13">
      <path clip-path="url(#pf913dfff65)" d="M 403.039727 228.96 
L 403.039727 7.2 
" style="fill:none;stroke:#fafafa;"/>
     </g>
     <g id="line2d_14">
      <path d="M 403.039727 228.96 
" style="fill:none;stroke:#000000;stroke-width:1.5;"/>
      <g>
       <use style="stroke:#000000;" x="403.039727" xlink:href="#m99b3d573b1" y="228.96"/>
      </g>
     </g>
    </g>
    <g id="text_5">
     <!-- Resolution -->
     <defs>
      <path d="M 44.390625 34.1875 
Q 47.5625 33.109375 50.5625 29.59375 
Q 53.5625 26.078125 56.59375 19.921875 
L 66.609375 0 
L 56 0 
L 46.6875 18.703125 
Q 43.0625 26.03125 39.671875 28.421875 
Q 36.28125 30.8125 30.421875 30.8125 
L 19.671875 30.8125 
L 19.671875 0 
L 9.8125 0 
L 9.8125 72.90625 
L 32.078125 72.90625 
Q 44.578125 72.90625 50.734375 67.671875 
Q 56.890625 62.453125 56.890625 51.90625 
Q 56.890625 45.015625 53.6875 40.46875 
Q 50.484375 35.9375 44.390625 34.1875 
z
M 19.671875 64.796875 
L 19.671875 38.921875 
L 32.078125 38.921875 
Q 39.203125 38.921875 42.84375 42.21875 
Q 46.484375 45.515625 46.484375 51.90625 
Q 46.484375 58.296875 42.84375 61.546875 
Q 39.203125 64.796875 32.078125 64.796875 
z
" id="DejaVuSans-82"/>
      <path d="M 56.203125 29.59375 
L 56.203125 25.203125 
L 14.890625 25.203125 
Q 15.484375 15.921875 20.484375 11.0625 
Q 25.484375 6.203125 34.421875 6.203125 
Q 39.59375 6.203125 44.453125 7.46875 
Q 49.3125 8.734375 54.109375 11.28125 
L 54.109375 2.78125 
Q 49.265625 0.734375 44.1875 -0.34375 
Q 39.109375 -1.421875 33.890625 -1.421875 
Q 20.796875 -1.421875 13.15625 6.1875 
Q 5.515625 13.8125 5.515625 26.8125 
Q 5.515625 40.234375 12.765625 48.109375 
Q 20.015625 56 32.328125 56 
Q 43.359375 56 49.78125 48.890625 
Q 56.203125 41.796875 56.203125 29.59375 
z
M 47.21875 32.234375 
Q 47.125 39.59375 43.09375 43.984375 
Q 39.0625 48.390625 32.421875 48.390625 
Q 24.90625 48.390625 20.390625 44.140625 
Q 15.875 39.890625 15.1875 32.171875 
z
" id="DejaVuSans-101"/>
      <path d="M 44.28125 53.078125 
L 44.28125 44.578125 
Q 40.484375 46.53125 36.375 47.5 
Q 32.28125 48.484375 27.875 48.484375 
Q 21.1875 48.484375 17.84375 46.4375 
Q 14.5 44.390625 14.5 40.28125 
Q 14.5 37.15625 16.890625 35.375 
Q 19.28125 33.59375 26.515625 31.984375 
L 29.59375 31.296875 
Q 39.15625 29.25 43.1875 25.515625 
Q 47.21875 21.78125 47.21875 15.09375 
Q 47.21875 7.46875 41.1875 3.015625 
Q 35.15625 -1.421875 24.609375 -1.421875 
Q 20.21875 -1.421875 15.453125 -0.5625 
Q 10.6875 0.296875 5.421875 2 
L 5.421875 11.28125 
Q 10.40625 8.6875 15.234375 7.390625 
Q 20.0625 6.109375 24.8125 6.109375 
Q 31.15625 6.109375 34.5625 8.28125 
Q 37.984375 10.453125 37.984375 14.40625 
Q 37.984375 18.0625 35.515625 20.015625 
Q 33.0625 21.96875 24.703125 23.78125 
L 21.578125 24.515625 
Q 13.234375 26.265625 9.515625 29.90625 
Q 5.8125 33.546875 5.8125 39.890625 
Q 5.8125 47.609375 11.28125 51.796875 
Q 16.75 56 26.8125 56 
Q 31.78125 56 36.171875 55.265625 
Q 40.578125 54.546875 44.28125 53.078125 
z
" id="DejaVuSans-115"/>
      <path d="M 30.609375 48.390625 
Q 23.390625 48.390625 19.1875 42.75 
Q 14.984375 37.109375 14.984375 27.296875 
Q 14.984375 17.484375 19.15625 11.84375 
Q 23.34375 6.203125 30.609375 6.203125 
Q 37.796875 6.203125 41.984375 11.859375 
Q 46.1875 17.53125 46.1875 27.296875 
Q 46.1875 37.015625 41.984375 42.703125 
Q 37.796875 48.390625 30.609375 48.390625 
z
M 30.609375 56 
Q 42.328125 56 49.015625 48.375 
Q 55.71875 40.765625 55.71875 27.296875 
Q 55.71875 13.875 49.015625 6.21875 
Q 42.328125 -1.421875 30.609375 -1.421875 
Q 18.84375 -1.421875 12.171875 6.21875 
Q 5.515625 13.875 5.515625 27.296875 
Q 5.515625 40.765625 12.171875 48.375 
Q 18.84375 56 30.609375 56 
z
" id="DejaVuSans-111"/>
      <path d="M 9.421875 75.984375 
L 18.40625 75.984375 
L 18.40625 0 
L 9.421875 0 
z
" id="DejaVuSans-108"/>
      <path d="M 8.5 21.578125 
L 8.5 54.6875 
L 17.484375 54.6875 
L 17.484375 21.921875 
Q 17.484375 14.15625 20.5 10.265625 
Q 23.53125 6.390625 29.59375 6.390625 
Q 36.859375 6.390625 41.078125 11.03125 
Q 45.3125 15.671875 45.3125 23.6875 
L 45.3125 54.6875 
L 54.296875 54.6875 
L 54.296875 0 
L 45.3125 0 
L 45.3125 8.40625 
Q 42.046875 3.421875 37.71875 1 
Q 33.40625 -1.421875 27.6875 -1.421875 
Q 18.265625 -1.421875 13.375 4.4375 
Q 8.5 10.296875 8.5 21.578125 
z
M 31.109375 56 
z
" id="DejaVuSans-117"/>
      <path d="M 18.3125 70.21875 
L 18.3125 54.6875 
L 36.8125 54.6875 
L 36.8125 47.703125 
L 18.3125 47.703125 
L 18.3125 18.015625 
Q 18.3125 11.328125 20.140625 9.421875 
Q 21.96875 7.515625 27.59375 7.515625 
L 36.8125 7.515625 
L 36.8125 0 
L 27.59375 0 
Q 17.1875 0 13.234375 3.875 
Q 9.28125 7.765625 9.28125 18.015625 
L 9.28125 47.703125 
L 2.6875 47.703125 
L 2.6875 54.6875 
L 9.28125 54.6875 
L 9.28125 70.21875 
z
" id="DejaVuSans-116"/>
      <path d="M 9.421875 54.6875 
L 18.40625 54.6875 
L 18.40625 0 
L 9.421875 0 
z
M 9.421875 75.984375 
L 18.40625 75.984375 
L 18.40625 64.59375 
L 9.421875 64.59375 
z
" id="DejaVuSans-105"/>
      <path d="M 54.890625 33.015625 
L 54.890625 0 
L 45.90625 0 
L 45.90625 32.71875 
Q 45.90625 40.484375 42.875 44.328125 
Q 39.84375 48.1875 33.796875 48.1875 
Q 26.515625 48.1875 22.3125 43.546875 
Q 18.109375 38.921875 18.109375 30.90625 
L 18.109375 0 
L 9.078125 0 
L 9.078125 54.6875 
L 18.109375 54.6875 
L 18.109375 46.1875 
Q 21.34375 51.125 25.703125 53.5625 
Q 30.078125 56 35.796875 56 
Q 45.21875 56 50.046875 50.171875 
Q 54.890625 44.34375 54.890625 33.015625 
z
" id="DejaVuSans-110"/>
     </defs>
     <g transform="translate(231.585438 255.185031)scale(0.11 -0.11)">
      <use xlink:href="#DejaVuSans-82"/>
      <use x="69.419922" xlink:href="#DejaVuSans-101"/>
      <use x="130.943359" xlink:href="#DejaVuSans-115"/>
      <use x="183.042969" xlink:href="#DejaVuSans-111"/>
      <use x="244.224609" xlink:href="#DejaVuSans-108"/>
      <use x="272.007812" xlink:href="#DejaVuSans-117"/>
      <use x="335.386719" xlink:href="#DejaVuSans-116"/>
      <use x="374.595703" xlink:href="#DejaVuSans-105"/>
      <use x="402.378906" xlink:href="#DejaVuSans-111"/>
      <use x="463.560547" xlink:href="#DejaVuSans-110"/>
     </g>
    </g>
   </g>
   <g id="matplotlib.axis_2">
    <g id="ytick_1">
     <g id="line2d_15">
      <path clip-path="url(#pf913dfff65)" d="M 44.567 218.88 
L 490.967 218.88 
" style="fill:none;stroke:#e5e5e5;stroke-width:0.8;"/>
     </g>
     <g id="line2d_16">
      <path d="M 44.567 218.88 
" style="fill:none;stroke:#000000;stroke-width:1.5;"/>
      <defs>
       <path d="M 0 0 
L -2.75 0 
" id="m5a6eee1ee4" style="stroke:#000000;"/>
      </defs>
      <g>
       <use style="stroke:#000000;" x="44.567" xlink:href="#m5a6eee1ee4" y="218.88"/>
      </g>
     </g>
     <g id="text_6">
      <!-- 0 -->
      <defs>
       <path d="M 31.78125 66.40625 
Q 24.171875 66.40625 20.328125 58.90625 
Q 16.5 51.421875 16.5 36.375 
Q 16.5 21.390625 20.328125 13.890625 
Q 24.171875 6.390625 31.78125 6.390625 
Q 39.453125 6.390625 43.28125 13.890625 
Q 47.125 21.390625 47.125 36.375 
Q 47.125 51.421875 43.28125 58.90625 
Q 39.453125 66.40625 31.78125 66.40625 
z
M 31.78125 74.21875 
Q 44.046875 74.21875 50.515625 64.515625 
Q 56.984375 54.828125 56.984375 36.375 
Q 56.984375 17.96875 50.515625 8.265625 
Q 44.046875 -1.421875 31.78125 -1.421875 
Q 19.53125 -1.421875 13.0625 8.265625 
Q 6.59375 17.96875 6.59375 36.375 
Q 6.59375 54.828125 13.0625 64.515625 
Q 19.53125 74.21875 31.78125 74.21875 
z
" id="DejaVuSans-48"/>
      </defs>
      <g transform="translate(34.018 221.30825)scale(0.088 -0.088)">
       <use xlink:href="#DejaVuSans-48"/>
      </g>
     </g>
    </g>
    <g id="ytick_2">
     <g id="line2d_17">
      <path clip-path="url(#pf913dfff65)" d="M 44.567 168.48 
L 490.967 168.48 
" style="fill:none;stroke:#e5e5e5;stroke-width:0.8;"/>
     </g>
     <g id="line2d_18">
      <path d="M 44.567 168.48 
" style="fill:none;stroke:#000000;stroke-width:1.5;"/>
      <g>
       <use style="stroke:#000000;" x="44.567" xlink:href="#m5a6eee1ee4" y="168.48"/>
      </g>
     </g>
     <g id="text_7">
      <!-- 25 -->
      <defs>
       <path d="M 10.796875 72.90625 
L 49.515625 72.90625 
L 49.515625 64.59375 
L 19.828125 64.59375 
L 19.828125 46.734375 
Q 21.96875 47.46875 24.109375 47.828125 
Q 26.265625 48.1875 28.421875 48.1875 
Q 40.625 48.1875 47.75 41.5 
Q 54.890625 34.8125 54.890625 23.390625 
Q 54.890625 11.625 47.5625 5.09375 
Q 40.234375 -1.421875 26.90625 -1.421875 
Q 22.3125 -1.421875 17.546875 -0.640625 
Q 12.796875 0.140625 7.71875 1.703125 
L 7.71875 11.625 
Q 12.109375 9.234375 16.796875 8.0625 
Q 21.484375 6.890625 26.703125 6.890625 
Q 35.15625 6.890625 40.078125 11.328125 
Q 45.015625 15.765625 45.015625 23.390625 
Q 45.015625 31 40.078125 35.4375 
Q 35.15625 39.890625 26.703125 39.890625 
Q 22.75 39.890625 18.8125 39.015625 
Q 14.890625 38.140625 10.796875 36.28125 
z
" id="DejaVuSans-53"/>
      </defs>
      <g transform="translate(28.419 170.90825)scale(0.088 -0.088)">
       <use xlink:href="#DejaVuSans-50"/>
       <use x="63.623047" xlink:href="#DejaVuSans-53"/>
      </g>
     </g>
    </g>
    <g id="ytick_3">
     <g id="line2d_19">
      <path clip-path="url(#pf913dfff65)" d="M 44.567 118.08 
L 490.967 118.08 
" style="fill:none;stroke:#e5e5e5;stroke-width:0.8;"/>
     </g>
     <g id="line2d_20">
      <path d="M 44.567 118.08 
" style="fill:none;stroke:#000000;stroke-width:1.5;"/>
      <g>
       <use style="stroke:#000000;" x="44.567" xlink:href="#m5a6eee1ee4" y="118.08"/>
      </g>
     </g>
     <g id="text_8">
      <!-- 50 -->
      <g transform="translate(28.419 120.50825)scale(0.088 -0.088)">
       <use xlink:href="#DejaVuSans-53"/>
       <use x="63.623047" xlink:href="#DejaVuSans-48"/>
      </g>
     </g>
    </g>
    <g id="ytick_4">
     <g id="line2d_21">
      <path clip-path="url(#pf913dfff65)" d="M 44.567 67.68 
L 490.967 67.68 
" style="fill:none;stroke:#e5e5e5;stroke-width:0.8;"/>
     </g>
     <g id="line2d_22">
      <path d="M 44.567 67.68 
" style="fill:none;stroke:#000000;stroke-width:1.5;"/>
      <g>
       <use style="stroke:#000000;" x="44.567" xlink:href="#m5a6eee1ee4" y="67.68"/>
      </g>
     </g>
     <g id="text_9">
      <!-- 75 -->
      <defs>
       <path d="M 8.203125 72.90625 
L 55.078125 72.90625 
L 55.078125 68.703125 
L 28.609375 0 
L 18.3125 0 
L 43.21875 64.59375 
L 8.203125 64.59375 
z
" id="DejaVuSans-55"/>
      </defs>
      <g transform="translate(28.419 70.10825)scale(0.088 -0.088)">
       <use xlink:href="#DejaVuSans-55"/>
       <use x="63.623047" xlink:href="#DejaVuSans-53"/>
      </g>
     </g>
    </g>
    <g id="ytick_5">
     <g id="line2d_23">
      <path clip-path="url(#pf913dfff65)" d="M 44.567 17.28 
L 490.967 17.28 
" style="fill:none;stroke:#e5e5e5;stroke-width:0.8;"/>
     </g>
     <g id="line2d_24">
      <path d="M 44.567 17.28 
" style="fill:none;stroke:#000000;stroke-width:1.5;"/>
      <g>
       <use style="stroke:#000000;" x="44.567" xlink:href="#m5a6eee1ee4" y="17.28"/>
      </g>
     </g>
     <g id="text_10">
      <!-- 100 -->
      <g transform="translate(22.82 19.70825)scale(0.088 -0.088)">
       <use xlink:href="#DejaVuSans-49"/>
       <use x="63.623047" xlink:href="#DejaVuSans-48"/>
       <use x="127.246094" xlink:href="#DejaVuSans-48"/>
      </g>
     </g>
    </g>
    <g id="ytick_6">
     <g id="line2d_25">
      <path clip-path="url(#pf913dfff65)" d="M 44.567 193.68 
L 490.967 193.68 
" style="fill:none;stroke:#fafafa;"/>
     </g>
     <g id="line2d_26">
      <path d="M 44.567 193.68 
" style="fill:none;stroke:#000000;stroke-width:1.5;"/>
      <defs>
       <path d="M 0 0 
L -1.375 0 
" id="m69c94e19e3" style="stroke:#000000;"/>
      </defs>
      <g>
       <use style="stroke:#000000;" x="44.567" xlink:href="#m69c94e19e3" y="193.68"/>
      </g>
     </g>
    </g>
    <g id="ytick_7">
     <g id="line2d_27">
      <path clip-path="url(#pf913dfff65)" d="M 44.567 143.28 
L 490.967 143.28 
" style="fill:none;stroke:#fafafa;"/>
     </g>
     <g id="line2d_28">
      <path d="M 44.567 143.28 
" style="fill:none;stroke:#000000;stroke-width:1.5;"/>
      <g>
       <use style="stroke:#000000;" x="44.567" xlink:href="#m69c94e19e3" y="143.28"/>
      </g>
     </g>
    </g>
    <g id="ytick_8">
     <g id="line2d_29">
      <path clip-path="url(#pf913dfff65)" d="M 44.567 92.88 
L 490.967 92.88 
" style="fill:none;stroke:#fafafa;"/>
     </g>
     <g id="line2d_30">
      <path d="M 44.567 92.88 
" style="fill:none;stroke:#000000;stroke-width:1.5;"/>
      <g>
       <use style="stroke:#000000;" x="44.567" xlink:href="#m69c94e19e3" y="92.88"/>
      </g>
     </g>
    </g>
    <g id="ytick_9">
     <g id="line2d_31">
      <path clip-path="url(#pf913dfff65)" d="M 44.567 42.48 
L 490.967 42.48 
" style="fill:none;stroke:#fafafa;"/>
     </g>
     <g id="line2d_32">
      <path d="M 44.567 42.48 
" style="fill:none;stroke:#000000;stroke-width:1.5;"/>
      <g>
       <use style="stroke:#000000;" x="44.567" xlink:href="#m69c94e19e3" y="42.48"/>
      </g>
     </g>
    </g>
    <g id="text_11">
     <!-- $P_{Q1}(t,d)$ [%] -->
     <defs>
      <path d="M 16.890625 72.90625 
L 39.703125 72.90625 
Q 49.65625 72.90625 54.875 68.265625 
Q 60.109375 63.625 60.109375 54.6875 
Q 60.109375 42.671875 52.390625 35.984375 
Q 44.671875 29.296875 30.71875 29.296875 
L 18.3125 29.296875 
L 12.59375 0 
L 2.6875 0 
z
M 25.203125 64.796875 
L 19.921875 37.40625 
L 32.328125 37.40625 
Q 40.71875 37.40625 45.203125 41.703125 
Q 49.703125 46 49.703125 54 
Q 49.703125 59.125 46.65625 61.953125 
Q 43.609375 64.796875 38.09375 64.796875 
z
" id="DejaVuSans-Oblique-80"/>
      <path d="M 36.078125 -1.3125 
Q 35.546875 -1.375 34.953125 -1.390625 
Q 34.375 -1.421875 33.203125 -1.421875 
Q 19.53125 -1.421875 11.8125 6.421875 
Q 4.109375 14.265625 4.109375 28.078125 
Q 4.109375 36.234375 7.0625 44.4375 
Q 10.015625 52.640625 15.28125 59.1875 
Q 21.390625 66.703125 29.03125 70.453125 
Q 36.671875 74.21875 45.90625 74.21875 
Q 59.28125 74.21875 66.984375 66.328125 
Q 74.703125 58.453125 74.703125 44.828125 
Q 74.703125 30.125 66.640625 17.921875 
Q 58.59375 5.71875 45.609375 0.6875 
L 55.515625 -12.890625 
L 44.484375 -12.890625 
z
M 45.609375 66.21875 
Q 37.5 66.21875 31.296875 62.28125 
Q 25.09375 58.34375 20.515625 50.296875 
Q 17.578125 45.171875 16.03125 39.40625 
Q 14.5 33.640625 14.5 27.78125 
Q 14.5 17.625 19.359375 12.109375 
Q 24.21875 6.59375 33.109375 6.59375 
Q 41.109375 6.59375 47.375 10.5625 
Q 53.65625 14.546875 58.109375 22.40625 
Q 61.078125 27.6875 62.640625 33.46875 
Q 64.203125 39.265625 64.203125 45.015625 
Q 64.203125 55.125 59.3125 60.671875 
Q 54.4375 66.21875 45.609375 66.21875 
z
" id="DejaVuSans-Oblique-81"/>
      <path d="M 31 75.875 
Q 24.46875 64.65625 21.28125 53.65625 
Q 18.109375 42.671875 18.109375 31.390625 
Q 18.109375 20.125 21.3125 9.0625 
Q 24.515625 -2 31 -13.1875 
L 23.1875 -13.1875 
Q 15.875 -1.703125 12.234375 9.375 
Q 8.59375 20.453125 8.59375 31.390625 
Q 8.59375 42.28125 12.203125 53.3125 
Q 15.828125 64.359375 23.1875 75.875 
z
" id="DejaVuSans-40"/>
      <path d="M 42.28125 54.6875 
L 40.921875 47.703125 
L 23 47.703125 
L 17.1875 18.015625 
Q 16.890625 16.359375 16.75 15.234375 
Q 16.609375 14.109375 16.609375 13.484375 
Q 16.609375 10.359375 18.484375 8.9375 
Q 20.359375 7.515625 24.515625 7.515625 
L 33.59375 7.515625 
L 32.078125 0 
L 23.484375 0 
Q 15.484375 0 11.546875 3.125 
Q 7.625 6.25 7.625 12.59375 
Q 7.625 13.71875 7.765625 15.0625 
Q 7.90625 16.40625 8.203125 18.015625 
L 14.015625 47.703125 
L 6.390625 47.703125 
L 7.8125 54.6875 
L 15.28125 54.6875 
L 18.3125 70.21875 
L 27.296875 70.21875 
L 24.3125 54.6875 
z
" id="DejaVuSans-Oblique-116"/>
      <path d="M 11.71875 12.40625 
L 22.015625 12.40625 
L 22.015625 4 
L 14.015625 -11.625 
L 7.71875 -11.625 
L 11.71875 4 
z
" id="DejaVuSans-44"/>
      <path d="M 41.796875 8.203125 
Q 38.1875 3.46875 33.25 1.015625 
Q 28.328125 -1.421875 22.3125 -1.421875 
Q 14.109375 -1.421875 9.34375 4.171875 
Q 4.59375 9.765625 4.59375 19.484375 
Q 4.59375 27.59375 7.46875 34.9375 
Q 10.359375 42.28125 15.828125 48.09375 
Q 19.4375 51.953125 23.96875 53.96875 
Q 28.515625 56 33.5 56 
Q 38.765625 56 42.796875 53.453125 
Q 46.828125 50.921875 49.03125 46.1875 
L 54.890625 75.984375 
L 63.921875 75.984375 
L 49.125 0 
L 40.09375 0 
z
M 13.921875 21.09375 
Q 13.921875 14.015625 17.109375 10.0625 
Q 20.3125 6.109375 25.984375 6.109375 
Q 30.171875 6.109375 33.765625 8.125 
Q 37.359375 10.15625 40.09375 14.109375 
Q 42.96875 18.21875 44.625 23.578125 
Q 46.296875 28.953125 46.296875 34.1875 
Q 46.296875 40.96875 43.09375 44.765625 
Q 39.890625 48.578125 34.28125 48.578125 
Q 30.03125 48.578125 26.359375 46.578125 
Q 22.703125 44.578125 20.125 40.828125 
Q 17.28125 36.765625 15.59375 31.390625 
Q 13.921875 26.03125 13.921875 21.09375 
z
" id="DejaVuSans-Oblique-100"/>
      <path d="M 8.015625 75.875 
L 15.828125 75.875 
Q 23.140625 64.359375 26.78125 53.3125 
Q 30.421875 42.28125 30.421875 31.390625 
Q 30.421875 20.453125 26.78125 9.375 
Q 23.140625 -1.703125 15.828125 -13.1875 
L 8.015625 -13.1875 
Q 14.5 -2 17.703125 9.0625 
Q 20.90625 20.125 20.90625 31.390625 
Q 20.90625 42.671875 17.703125 53.65625 
Q 14.5 64.65625 8.015625 75.875 
z
" id="DejaVuSans-41"/>
      <path id="DejaVuSans-32"/>
      <path d="M 8.59375 75.984375 
L 29.296875 75.984375 
L 29.296875 69 
L 17.578125 69 
L 17.578125 -6.203125 
L 29.296875 -6.203125 
L 29.296875 -13.1875 
L 8.59375 -13.1875 
z
" id="DejaVuSans-91"/>
      <path d="M 72.703125 32.078125 
Q 68.453125 32.078125 66.03125 28.46875 
Q 63.625 24.859375 63.625 18.40625 
Q 63.625 12.0625 66.03125 8.421875 
Q 68.453125 4.78125 72.703125 4.78125 
Q 76.859375 4.78125 79.265625 8.421875 
Q 81.6875 12.0625 81.6875 18.40625 
Q 81.6875 24.8125 79.265625 28.4375 
Q 76.859375 32.078125 72.703125 32.078125 
z
M 72.703125 38.28125 
Q 80.421875 38.28125 84.953125 32.90625 
Q 89.5 27.546875 89.5 18.40625 
Q 89.5 9.28125 84.9375 3.921875 
Q 80.375 -1.421875 72.703125 -1.421875 
Q 64.890625 -1.421875 60.34375 3.921875 
Q 55.8125 9.28125 55.8125 18.40625 
Q 55.8125 27.59375 60.375 32.9375 
Q 64.9375 38.28125 72.703125 38.28125 
z
M 22.3125 68.015625 
Q 18.109375 68.015625 15.6875 64.375 
Q 13.28125 60.75 13.28125 54.390625 
Q 13.28125 47.953125 15.671875 44.328125 
Q 18.0625 40.71875 22.3125 40.71875 
Q 26.5625 40.71875 28.96875 44.328125 
Q 31.390625 47.953125 31.390625 54.390625 
Q 31.390625 60.6875 28.953125 64.34375 
Q 26.515625 68.015625 22.3125 68.015625 
z
M 66.40625 74.21875 
L 74.21875 74.21875 
L 28.609375 -1.421875 
L 20.796875 -1.421875 
z
M 22.3125 74.21875 
Q 30.03125 74.21875 34.609375 68.875 
Q 39.203125 63.53125 39.203125 54.390625 
Q 39.203125 45.171875 34.640625 39.84375 
Q 30.078125 34.515625 22.3125 34.515625 
Q 14.546875 34.515625 10.03125 39.859375 
Q 5.515625 45.21875 5.515625 54.390625 
Q 5.515625 63.484375 10.046875 68.84375 
Q 14.59375 74.21875 22.3125 74.21875 
z
" id="DejaVuSans-37"/>
      <path d="M 30.421875 75.984375 
L 30.421875 -13.1875 
L 9.71875 -13.1875 
L 9.71875 -6.203125 
L 21.390625 -6.203125 
L 21.390625 69 
L 9.71875 69 
L 9.71875 75.984375 
z
" id="DejaVuSans-93"/>
     </defs>
     <g transform="translate(15.56 149.64)rotate(-90)scale(0.11 -0.11)">
      <use transform="translate(0 0.015625)" xlink:href="#DejaVuSans-Oblique-80"/>
      <use transform="translate(60.302734 -16.390625)scale(0.7)" xlink:href="#DejaVuSans-Oblique-81"/>
      <use transform="translate(115.400391 -16.390625)scale(0.7)" xlink:href="#DejaVuSans-49"/>
      <use transform="translate(162.670898 0.015625)" xlink:href="#DejaVuSans-40"/>
      <use transform="translate(201.68457 0.015625)" xlink:href="#DejaVuSans-Oblique-116"/>
      <use transform="translate(240.893555 0.015625)" xlink:href="#DejaVuSans-44"/>
      <use transform="translate(292.163086 0.015625)" xlink:href="#DejaVuSans-Oblique-100"/>
      <use transform="translate(355.639648 0.015625)" xlink:href="#DejaVuSans-41"/>
      <use transform="translate(394.65332 0.015625)" xlink:href="#DejaVuSans-32"/>
      <use transform="translate(426.44043 0.015625)" xlink:href="#DejaVuSans-91"/>
      <use transform="translate(465.454102 0.015625)" xlink:href="#DejaVuSans-37"/>
      <use transform="translate(560.473633 0.015625)" xlink:href="#DejaVuSans-93"/>
     </g>
    </g>
   </g>
   <g id="PathCollection_1">
    <path clip-path="url(#pf913dfff65)" d="M 64.857909 108.889553 
C 65.327969 108.889553 65.77884 108.702796 66.111223 108.370413 
C 66.443606 108.03803 66.630363 107.587159 66.630363 107.117099 
C 66.630363 106.647038 66.443606 106.196167 66.111223 105.863785 
C 65.77884 105.531402 65.327969 105.344645 64.857909 105.344645 
C 64.387849 105.344645 63.936978 105.531402 63.604595 105.863785 
C 63.272212 106.196167 63.085455 106.647038 63.085455 107.117099 
C 63.085455 107.587159 63.272212 108.03803 63.604595 108.370413 
C 63.936978 108.702796 64.387849 108.889553 64.857909 108.889553 
z
" style="stroke:#000000;stroke-width:0.886227;"/>
    <path clip-path="url(#pf913dfff65)" d="M 78.385182 108.986111 
C 78.855242 108.986111 79.306113 108.799354 79.638496 108.466971 
C 79.970879 108.134589 80.157636 107.683717 80.157636 107.213657 
C 80.157636 106.743597 79.970879 106.292726 79.638496 105.960343 
C 79.306113 105.62796 78.855242 105.441203 78.385182 105.441203 
C 77.915122 105.441203 77.46425 105.62796 77.131868 105.960343 
C 76.799485 106.292726 76.612728 106.743597 76.612728 107.213657 
C 76.612728 107.683717 76.799485 108.134589 77.131868 108.466971 
C 77.46425 108.799354 77.915122 108.986111 78.385182 108.986111 
z
" style="stroke:#000000;stroke-width:0.886227;"/>
    <path clip-path="url(#pf913dfff65)" d="M 91.912455 103.132597 
C 92.382515 103.132597 92.833386 102.94584 93.165769 102.613457 
C 93.498151 102.281074 93.684908 101.830203 93.684908 101.360143 
C 93.684908 100.890083 93.498151 100.439212 93.165769 100.106829 
C 92.833386 99.774446 92.382515 99.587689 91.912455 99.587689 
C 91.442394 99.587689 90.991523 99.774446 90.65914 100.106829 
C 90.326758 100.439212 90.140001 100.890083 90.140001 101.360143 
C 90.140001 101.830203 90.326758 102.281074 90.65914 102.613457 
C 90.991523 102.94584 91.442394 103.132597 91.912455 103.132597 
z
" style="stroke:#000000;stroke-width:0.886227;"/>
    <path clip-path="url(#pf913dfff65)" d="M 105.439727 105.606566 
C 105.909788 105.606566 106.360659 105.419809 106.693041 105.087426 
C 107.025424 104.755043 107.212181 104.304172 107.212181 103.834112 
C 107.212181 103.364052 107.025424 102.913181 106.693041 102.580798 
C 106.360659 102.248415 105.909788 102.061658 105.439727 102.061658 
C 104.969667 102.061658 104.518796 102.248415 104.186413 102.580798 
C 103.85403 102.913181 103.667273 103.364052 103.667273 103.834112 
C 103.667273 104.304172 103.85403 104.755043 104.186413 105.087426 
C 104.518796 105.419809 104.969667 105.606566 105.439727 105.606566 
z
" style="stroke:#000000;stroke-width:0.886227;"/>
    <path clip-path="url(#pf913dfff65)" d="M 118.967 102.163152 
C 119.43706 102.163152 119.887931 101.976395 120.220314 101.644012 
C 120.552697 101.311629 120.739454 100.860758 120.739454 100.390698 
C 120.739454 99.920637 120.552697 99.469766 120.220314 99.137384 
C 119.887931 98.805001 119.43706 98.618244 118.967 98.618244 
C 118.49694 98.618244 118.046069 98.805001 117.713686 99.137384 
C 117.381303 99.469766 117.194546 99.920637 117.194546 100.390698 
C 117.194546 100.860758 117.381303 101.311629 117.713686 101.644012 
C 118.046069 101.976395 118.49694 102.163152 118.967 102.163152 
z
" style="stroke:#000000;stroke-width:0.886227;"/>
    <path clip-path="url(#pf913dfff65)" d="M 132.494273 102.113397 
C 132.964333 102.113397 133.415204 101.92664 133.747587 101.594258 
C 134.07997 101.261875 134.266727 100.811004 134.266727 100.340944 
C 134.266727 99.870883 134.07997 99.420012 133.747587 99.087629 
C 133.415204 98.755247 132.964333 98.56849 132.494273 98.56849 
C 132.024212 98.56849 131.573341 98.755247 131.240959 99.087629 
C 130.908576 99.420012 130.721819 99.870883 130.721819 100.340944 
C 130.721819 100.811004 130.908576 101.261875 131.240959 101.594258 
C 131.573341 101.92664 132.024212 102.113397 132.494273 102.113397 
z
" style="stroke:#000000;stroke-width:0.886227;"/>
    <path clip-path="url(#pf913dfff65)" d="M 146.021545 101.950173 
C 146.491606 101.950173 146.942477 101.763416 147.27486 101.431033 
C 147.607242 101.098651 147.793999 100.64778 147.793999 100.177719 
C 147.793999 99.707659 147.607242 99.256788 147.27486 98.924405 
C 146.942477 98.592022 146.491606 98.405265 146.021545 98.405265 
C 145.551485 98.405265 145.100614 98.592022 144.768231 98.924405 
C 144.435849 99.256788 144.249092 99.707659 144.249092 100.177719 
C 144.249092 100.64778 144.435849 101.098651 144.768231 101.431033 
C 145.100614 101.763416 145.551485 101.950173 146.021545 101.950173 
z
" style="stroke:#000000;stroke-width:0.886227;"/>
    <path clip-path="url(#pf913dfff65)" d="M 159.548818 102.136667 
C 160.018878 102.136667 160.46975 101.94991 160.802132 101.617527 
C 161.134515 101.285144 161.321272 100.834273 161.321272 100.364213 
C 161.321272 99.894153 161.134515 99.443281 160.802132 99.110899 
C 160.46975 98.778516 160.018878 98.591759 159.548818 98.591759 
C 159.078758 98.591759 158.627887 98.778516 158.295504 99.110899 
C 157.963121 99.443281 157.776364 99.894153 157.776364 100.364213 
C 157.776364 100.834273 157.963121 101.285144 158.295504 101.617527 
C 158.627887 101.94991 159.078758 102.136667 159.548818 102.136667 
z
" style="stroke:#000000;stroke-width:0.886227;"/>
    <path clip-path="url(#pf913dfff65)" d="M 173.076091 103.452604 
C 173.546151 103.452604 173.997022 103.265847 174.329405 102.933464 
C 174.661788 102.601082 174.848545 102.15021 174.848545 101.68015 
C 174.848545 101.21009 174.661788 100.759219 174.329405 100.426836 
C 173.997022 100.094453 173.546151 99.907696 173.076091 99.907696 
C 172.606031 99.907696 172.15516 100.094453 171.822777 100.426836 
C 171.490394 100.759219 171.303637 101.21009 171.303637 101.68015 
C 171.303637 102.15021 171.490394 102.601082 171.822777 102.933464 
C 172.15516 103.265847 172.606031 103.452604 173.076091 103.452604 
z
" style="stroke:#000000;stroke-width:0.886227;"/>
    <path clip-path="url(#pf913dfff65)" d="M 186.603364 101.485121 
C 187.073424 101.485121 187.524295 101.298364 187.856678 100.965982 
C 188.189061 100.633599 188.375817 100.182728 188.375817 99.712667 
C 188.375817 99.242607 188.189061 98.791736 187.856678 98.459353 
C 187.524295 98.12697 187.073424 97.940214 186.603364 97.940214 
C 186.133303 97.940214 185.682432 98.12697 185.350049 98.459353 
C 185.017667 98.791736 184.83091 99.242607 184.83091 99.712667 
C 184.83091 100.182728 185.017667 100.633599 185.350049 100.965982 
C 185.682432 101.298364 186.133303 101.485121 186.603364 101.485121 
z
" style="stroke:#000000;stroke-width:0.886227;"/>
    <path clip-path="url(#pf913dfff65)" d="M 200.130636 102.64316 
C 200.600697 102.64316 201.051568 102.456403 201.383951 102.12402 
C 201.716333 101.791637 201.90309 101.340766 201.90309 100.870706 
C 201.90309 100.400646 201.716333 99.949775 201.383951 99.617392 
C 201.051568 99.285009 200.600697 99.098252 200.130636 99.098252 
C 199.660576 99.098252 199.209705 99.285009 198.877322 99.617392 
C 198.544939 99.949775 198.358183 100.400646 198.358183 100.870706 
C 198.358183 101.340766 198.544939 101.791637 198.877322 102.12402 
C 199.209705 102.456403 199.660576 102.64316 200.130636 102.64316 
z
" style="stroke:#000000;stroke-width:0.886227;"/>
    <path clip-path="url(#pf913dfff65)" d="M 213.657909 102.660493 
C 214.127969 102.660493 214.57884 102.473737 214.911223 102.141354 
C 215.243606 101.808971 215.430363 101.3581 215.430363 100.88804 
C 215.430363 100.417979 215.243606 99.967108 214.911223 99.634726 
C 214.57884 99.302343 214.127969 99.115586 213.657909 99.115586 
C 213.187849 99.115586 212.736978 99.302343 212.404595 99.634726 
C 212.072212 99.967108 211.885455 100.417979 211.885455 100.88804 
C 211.885455 101.3581 212.072212 101.808971 212.404595 102.141354 
C 212.736978 102.473737 213.187849 102.660493 213.657909 102.660493 
z
" style="stroke:#000000;stroke-width:0.886227;"/>
    <path clip-path="url(#pf913dfff65)" d="M 227.185182 102.43155 
C 227.655242 102.43155 228.106113 102.244794 228.438496 101.912411 
C 228.770879 101.580028 228.957636 101.129157 228.957636 100.659097 
C 228.957636 100.189036 228.770879 99.738165 228.438496 99.405782 
C 228.106113 99.0734 227.655242 98.886643 227.185182 98.886643 
C 226.715122 98.886643 226.26425 99.0734 225.931868 99.405782 
C 225.599485 99.738165 225.412728 100.189036 225.412728 100.659097 
C 225.412728 101.129157 225.599485 101.580028 225.931868 101.912411 
C 226.26425 102.244794 226.715122 102.43155 227.185182 102.43155 
z
" style="stroke:#000000;stroke-width:0.886227;"/>
    <path clip-path="url(#pf913dfff65)" d="M 240.712455 102.848654 
C 241.182515 102.848654 241.633386 102.661897 241.965769 102.329515 
C 242.298151 101.997132 242.484908 101.546261 242.484908 101.0762 
C 242.484908 100.60614 242.298151 100.155269 241.965769 99.822886 
C 241.633386 99.490503 241.182515 99.303747 240.712455 99.303747 
C 240.242394 99.303747 239.791523 99.490503 239.45914 99.822886 
C 239.126758 100.155269 238.940001 100.60614 238.940001 101.0762 
C 238.940001 101.546261 239.126758 101.997132 239.45914 102.329515 
C 239.791523 102.661897 240.242394 102.848654 240.712455 102.848654 
z
" style="stroke:#000000;stroke-width:0.886227;"/>
    <path clip-path="url(#pf913dfff65)" d="M 254.239727 101.718068 
C 254.709788 101.718068 255.160659 101.531311 255.493041 101.198928 
C 255.825424 100.866546 256.012181 100.415675 256.012181 99.945614 
C 256.012181 99.475554 255.825424 99.024683 255.493041 98.6923 
C 255.160659 98.359917 254.709788 98.17316 254.239727 98.17316 
C 253.769667 98.17316 253.318796 98.359917 252.986413 98.6923 
C 252.65403 99.024683 252.467273 99.475554 252.467273 99.945614 
C 252.467273 100.415675 252.65403 100.866546 252.986413 101.198928 
C 253.318796 101.531311 253.769667 101.718068 254.239727 101.718068 
z
" style="stroke:#000000;stroke-width:0.886227;"/>
    <path clip-path="url(#pf913dfff65)" d="M 267.767 104.082902 
C 268.23706 104.082902 268.687931 103.896145 269.020314 103.563762 
C 269.352697 103.231379 269.539454 102.780508 269.539454 102.310448 
C 269.539454 101.840388 269.352697 101.389517 269.020314 101.057134 
C 268.687931 100.724751 268.23706 100.537994 267.767 100.537994 
C 267.29694 100.537994 266.846069 100.724751 266.513686 101.057134 
C 266.181303 101.389517 265.994546 101.840388 265.994546 102.310448 
C 265.994546 102.780508 266.181303 103.231379 266.513686 103.563762 
C 266.846069 103.896145 267.29694 104.082902 267.767 104.082902 
z
" style="stroke:#000000;stroke-width:0.886227;"/>
    <path clip-path="url(#pf913dfff65)" d="M 281.294273 102.435812 
C 281.764333 102.435812 282.215204 102.249055 282.547587 101.916672 
C 282.87997 101.584289 283.066727 101.133418 283.066727 100.663358 
C 283.066727 100.193298 282.87997 99.742427 282.547587 99.410044 
C 282.215204 99.077661 281.764333 98.890904 281.294273 98.890904 
C 280.824212 98.890904 280.373341 99.077661 280.040959 99.410044 
C 279.708576 99.742427 279.521819 100.193298 279.521819 100.663358 
C 279.521819 101.133418 279.708576 101.584289 280.040959 101.916672 
C 280.373341 102.249055 280.824212 102.435812 281.294273 102.435812 
z
" style="stroke:#000000;stroke-width:0.886227;"/>
    <path clip-path="url(#pf913dfff65)" d="M 294.821545 100.345048 
C 295.291606 100.345048 295.742477 100.158292 296.07486 99.825909 
C 296.407242 99.493526 296.593999 99.042655 296.593999 98.572595 
C 296.593999 98.102534 296.407242 97.651663 296.07486 97.31928 
C 295.742477 96.986898 295.291606 96.800141 294.821545 96.800141 
C 294.351485 96.800141 293.900614 96.986898 293.568231 97.31928 
C 293.235849 97.651663 293.049092 98.102534 293.049092 98.572595 
C 293.049092 99.042655 293.235849 99.493526 293.568231 99.825909 
C 293.900614 100.158292 294.351485 100.345048 294.821545 100.345048 
z
" style="stroke:#000000;stroke-width:0.886227;"/>
    <path clip-path="url(#pf913dfff65)" d="M 308.348818 101.91354 
C 308.818878 101.91354 309.26975 101.726783 309.602132 101.3944 
C 309.934515 101.062017 310.121272 100.611146 310.121272 100.141086 
C 310.121272 99.671025 309.934515 99.220154 309.602132 98.887772 
C 309.26975 98.555389 308.818878 98.368632 308.348818 98.368632 
C 307.878758 98.368632 307.427887 98.555389 307.095504 98.887772 
C 306.763121 99.220154 306.576364 99.671025 306.576364 100.141086 
C 306.576364 100.611146 306.763121 101.062017 307.095504 101.3944 
C 307.427887 101.726783 307.878758 101.91354 308.348818 101.91354 
z
" style="stroke:#000000;stroke-width:0.886227;"/>
    <path clip-path="url(#pf913dfff65)" d="M 321.876091 102.908491 
C 322.346151 102.908491 322.797022 102.721735 323.129405 102.389352 
C 323.461788 102.056969 323.648545 101.606098 323.648545 101.136038 
C 323.648545 100.665977 323.461788 100.215106 323.129405 99.882723 
C 322.797022 99.550341 322.346151 99.363584 321.876091 99.363584 
C 321.406031 99.363584 320.95516 99.550341 320.622777 99.882723 
C 320.290394 100.215106 320.103637 100.665977 320.103637 101.136038 
C 320.103637 101.606098 320.290394 102.056969 320.622777 102.389352 
C 320.95516 102.721735 321.406031 102.908491 321.876091 102.908491 
z
" style="stroke:#000000;stroke-width:0.886227;"/>
    <path clip-path="url(#pf913dfff65)" d="M 335.403364 97.911756 
C 335.873424 97.911756 336.324295 97.724999 336.656678 97.392616 
C 336.989061 97.060233 337.175817 96.609362 337.175817 96.139302 
C 337.175817 95.669242 336.989061 95.21837 336.656678 94.885988 
C 336.324295 94.553605 335.873424 94.366848 335.403364 94.366848 
C 334.933303 94.366848 334.482432 94.553605 334.150049 94.885988 
C 333.817667 95.21837 333.63091 95.669242 333.63091 96.139302 
C 333.63091 96.609362 333.817667 97.060233 334.150049 97.392616 
C 334.482432 97.724999 334.933303 97.911756 335.403364 97.911756 
z
" style="stroke:#000000;stroke-width:0.886227;"/>
    <path clip-path="url(#pf913dfff65)" d="M 348.930636 98.015839 
C 349.400697 98.015839 349.851568 97.829082 350.183951 97.496699 
C 350.516333 97.164317 350.70309 96.713446 350.70309 96.243385 
C 350.70309 95.773325 350.516333 95.322454 350.183951 94.990071 
C 349.851568 94.657688 349.400697 94.470931 348.930636 94.470931 
C 348.460576 94.470931 348.009705 94.657688 347.677322 94.990071 
C 347.344939 95.322454 347.158183 95.773325 347.158183 96.243385 
C 347.158183 96.713446 347.344939 97.164317 347.677322 97.496699 
C 348.009705 97.829082 348.460576 98.015839 348.930636 98.015839 
z
" style="stroke:#000000;stroke-width:0.886227;"/>
    <path clip-path="url(#pf913dfff65)" d="M 362.457909 98.996345 
C 362.927969 98.996345 363.37884 98.809588 363.711223 98.477205 
C 364.043606 98.144822 364.230363 97.693951 364.230363 97.223891 
C 364.230363 96.753831 364.043606 96.302959 363.711223 95.970577 
C 363.37884 95.638194 362.927969 95.451437 362.457909 95.451437 
C 361.987849 95.451437 361.536978 95.638194 361.204595 95.970577 
C 360.872212 96.302959 360.685455 96.753831 360.685455 97.223891 
C 360.685455 97.693951 360.872212 98.144822 361.204595 98.477205 
C 361.536978 98.809588 361.987849 98.996345 362.457909 98.996345 
z
" style="stroke:#000000;stroke-width:0.886227;"/>
    <path clip-path="url(#pf913dfff65)" d="M 375.985182 98.11315 
C 376.455242 98.11315 376.906113 97.926393 377.238496 97.59401 
C 377.570879 97.261627 377.757636 96.810756 377.757636 96.340696 
C 377.757636 95.870636 377.570879 95.419764 377.238496 95.087382 
C 376.906113 94.754999 376.455242 94.568242 375.985182 94.568242 
C 375.515122 94.568242 375.06425 94.754999 374.731868 95.087382 
C 374.399485 95.419764 374.212728 95.870636 374.212728 96.340696 
C 374.212728 96.810756 374.399485 97.261627 374.731868 97.59401 
C 375.06425 97.926393 375.515122 98.11315 375.985182 98.11315 
z
" style="stroke:#000000;stroke-width:0.886227;"/>
    <path clip-path="url(#pf913dfff65)" d="M 389.512455 103.067517 
C 389.982515 103.067517 390.433386 102.88076 390.765769 102.548378 
C 391.098151 102.215995 391.284908 101.765124 391.284908 101.295064 
C 391.284908 100.825003 391.098151 100.374132 390.765769 100.041749 
C 390.433386 99.709367 389.982515 99.52261 389.512455 99.52261 
C 389.042394 99.52261 388.591523 99.709367 388.25914 100.041749 
C 387.926758 100.374132 387.740001 100.825003 387.740001 101.295064 
C 387.740001 101.765124 387.926758 102.215995 388.25914 102.548378 
C 388.591523 102.88076 389.042394 103.067517 389.512455 103.067517 
z
" style="stroke:#000000;stroke-width:0.886227;"/>
    <path clip-path="url(#pf913dfff65)" d="M 403.039727 100.181905 
C 403.509788 100.181905 403.960659 99.995149 404.293041 99.662766 
C 404.625424 99.330383 404.812181 98.879512 404.812181 98.409452 
C 404.812181 97.939391 404.625424 97.48852 404.293041 97.156137 
C 403.960659 96.823755 403.509788 96.636998 403.039727 96.636998 
C 402.569667 96.636998 402.118796 96.823755 401.786413 97.156137 
C 401.45403 97.48852 401.267273 97.939391 401.267273 98.409452 
C 401.267273 98.879512 401.45403 99.330383 401.786413 99.662766 
C 402.118796 99.995149 402.569667 100.181905 403.039727 100.181905 
z
" style="stroke:#000000;stroke-width:0.886227;"/>
    <path clip-path="url(#pf913dfff65)" d="M 416.567 94.925632 
C 417.03706 94.925632 417.487931 94.738875 417.820314 94.406492 
C 418.152697 94.07411 418.339454 93.623238 418.339454 93.153178 
C 418.339454 92.683118 418.152697 92.232247 417.820314 91.899864 
C 417.487931 91.567481 417.03706 91.380724 416.567 91.380724 
C 416.09694 91.380724 415.646069 91.567481 415.313686 91.899864 
C 414.981303 92.232247 414.794546 92.683118 414.794546 93.153178 
C 414.794546 93.623238 414.981303 94.07411 415.313686 94.406492 
C 415.646069 94.738875 416.09694 94.925632 416.567 94.925632 
z
" style="stroke:#000000;stroke-width:0.886227;"/>
    <path clip-path="url(#pf913dfff65)" d="M 430.094273 98.754943 
C 430.564333 98.754943 431.015204 98.568186 431.347587 98.235803 
C 431.67997 97.90342 431.866727 97.452549 431.866727 96.982489 
C 431.866727 96.512428 431.67997 96.061557 431.347587 95.729175 
C 431.015204 95.396792 430.564333 95.210035 430.094273 95.210035 
C 429.624212 95.210035 429.173341 95.396792 428.840959 95.729175 
C 428.508576 96.061557 428.321819 96.512428 428.321819 96.982489 
C 428.321819 97.452549 428.508576 97.90342 428.840959 98.235803 
C 429.173341 98.568186 429.624212 98.754943 430.094273 98.754943 
z
" style="stroke:#000000;stroke-width:0.886227;"/>
    <path clip-path="url(#pf913dfff65)" d="M 443.621545 103.116256 
C 444.091606 103.116256 444.542477 102.929499 444.87486 102.597117 
C 445.207242 102.264734 445.393999 101.813863 445.393999 101.343802 
C 445.393999 100.873742 445.207242 100.422871 444.87486 100.090488 
C 444.542477 99.758105 444.091606 99.571349 443.621545 99.571349 
C 443.151485 99.571349 442.700614 99.758105 442.368231 100.090488 
C 442.035849 100.422871 441.849092 100.873742 441.849092 101.343802 
C 441.849092 101.813863 442.035849 102.264734 442.368231 102.597117 
C 442.700614 102.929499 443.151485 103.116256 443.621545 103.116256 
z
" style="stroke:#000000;stroke-width:0.886227;"/>
    <path clip-path="url(#pf913dfff65)" d="M 457.148818 101.851529 
C 457.618878 101.851529 458.06975 101.664772 458.402132 101.332389 
C 458.734515 101.000006 458.921272 100.549135 458.921272 100.079075 
C 458.921272 99.609015 458.734515 99.158144 458.402132 98.825761 
C 458.06975 98.493378 457.618878 98.306621 457.148818 98.306621 
C 456.678758 98.306621 456.227887 98.493378 455.895504 98.825761 
C 455.563121 99.158144 455.376364 99.609015 455.376364 100.079075 
C 455.376364 100.549135 455.563121 101.000006 455.895504 101.332389 
C 456.227887 101.664772 456.678758 101.851529 457.148818 101.851529 
z
" style="stroke:#000000;stroke-width:0.886227;"/>
    <path clip-path="url(#pf913dfff65)" d="M 470.676091 101.318739 
C 471.146151 101.318739 471.597022 101.131982 471.929405 100.799599 
C 472.261788 100.467216 472.448545 100.016345 472.448545 99.546285 
C 472.448545 99.076225 472.261788 98.625354 471.929405 98.292971 
C 471.597022 97.960588 471.146151 97.773831 470.676091 97.773831 
C 470.206031 97.773831 469.75516 97.960588 469.422777 98.292971 
C 469.090394 98.625354 468.903637 99.076225 468.903637 99.546285 
C 468.903637 100.016345 469.090394 100.467216 469.422777 100.799599 
C 469.75516 101.131982 470.206031 101.318739 470.676091 101.318739 
z
" style="stroke:#000000;stroke-width:0.886227;"/>
   </g>
   <g id="line2d_33">
    <path clip-path="url(#pf913dfff65)" d="M 64.857909 107.117099 
L 78.385182 107.213657 
L 91.912455 101.360143 
L 105.439727 103.834112 
L 118.967 100.390698 
L 132.494273 100.340944 
L 146.021545 100.177719 
L 159.548818 100.364213 
L 173.076091 101.68015 
L 186.603364 99.712667 
L 200.130636 100.870706 
L 213.657909 100.88804 
L 227.185182 100.659097 
L 240.712455 101.0762 
L 254.239727 99.945614 
L 267.767 102.310448 
L 281.294273 100.663358 
L 294.821545 98.572595 
L 308.348818 100.141086 
L 321.876091 101.136038 
L 335.403364 96.139302 
L 348.930636 96.243385 
L 362.457909 97.223891 
L 375.985182 96.340696 
L 389.512455 101.295064 
L 403.039727 98.409452 
L 416.567 93.153178 
L 430.094273 96.982489 
L 443.621545 101.343802 
L 457.148818 100.079075 
L 470.676091 99.546285 
" style="fill:none;stroke:#000000;stroke-width:0.886227;"/>
   </g>
  </g>
 </g>
 <defs>
  <clipPath id="pf913dfff65">
   <rect height="221.76" width="446.4" x="44.567" y="7.2"/>
  </clipPath>
 </defs>
</svg>
