<?xml version="1.0" encoding="utf-8" standalone="no"?>
<!DOCTYPE svg PUBLIC "-//W3C//DTD SVG 1.1//EN"
  "http://www.w3.org/Graphics/SVG/1.1/DTD/svg11.dtd">
<!-- Created with matplotlib (https://matplotlib.org/) -->
<svg height="264.672687pt" version="1.1" viewBox="0 0 498.167 264.672687" width="498.167pt" xmlns="http://www.w3.org/2000/svg" xmlns:xlink="http://www.w3.org/1999/xlink">
 <defs>
  <style type="text/css">
*{stroke-linecap:butt;stroke-linejoin:round;}
  </style>
 </defs>
 <g id="figure_1">
  <g id="patch_1">
   <path d="M 0 264.672687 
L 498.167 264.672687 
L 498.167 0 
L 0 0 
z
" style="fill:#ffffff;stroke:#ffffff;stroke-linejoin:miter;"/>
  </g>
  <g id="axes_1">
   <g id="patch_2">
    <path d="M 44.567 228.96 
L 490.967 228.96 
L 490.967 7.2 
L 44.567 7.2 
z
" style="fill:#ffffff;stroke:#7f7f7f;stroke-linejoin:miter;"/>
   </g>
   <g id="matplotlib.axis_1">
    <g id="xtick_1">
     <g id="line2d_1">
      <path clip-path="url(#p91c54d7df9)" d="M 64.857909 228.96 
L 64.857909 7.2 
" style="fill:none;stroke:#e5e5e5;stroke-width:0.8;"/>
     </g>
     <g id="line2d_2">
      <path d="M 64.857909 228.96 
" style="fill:none;stroke:#000000;stroke-width:1.5;"/>
      <defs>
       <path d="M 0 0 
L 0 2.75 
" id="m7feb65724d" style="stroke:#000000;"/>
      </defs>
      <g>
       <use style="stroke:#000000;" x="64.857909" xlink:href="#m7feb65724d" y="228.96"/>
      </g>
     </g>
     <g id="text_1">
      <!-- 1970 -->
      <defs>
       <path d="M 12.40625 8.296875 
L 28.515625 8.296875 
L 28.515625 63.921875 
L 10.984375 60.40625 
L 10.984375 69.390625 
L 28.421875 72.90625 
L 38.28125 72.90625 
L 38.28125 8.296875 
L 54.390625 8.296875 
L 54.390625 0 
L 12.40625 0 
z
" id="DejaVuSans-49"/>
       <path d="M 10.984375 1.515625 
L 10.984375 10.5 
Q 14.703125 8.734375 18.5 7.8125 
Q 22.3125 6.890625 25.984375 6.890625 
Q 35.75 6.890625 40.890625 13.453125 
Q 46.046875 20.015625 46.78125 33.40625 
Q 43.953125 29.203125 39.59375 26.953125 
Q 35.25 24.703125 29.984375 24.703125 
Q 19.046875 24.703125 12.671875 31.3125 
Q 6.296875 37.9375 6.296875 49.421875 
Q 6.296875 60.640625 12.9375 67.421875 
Q 19.578125 74.21875 30.609375 74.21875 
Q 43.265625 74.21875 49.921875 64.515625 
Q 56.59375 54.828125 56.59375 36.375 
Q 56.59375 19.140625 48.40625 8.859375 
Q 40.234375 -1.421875 26.421875 -1.421875 
Q 22.703125 -1.421875 18.890625 -0.6875 
Q 15.09375 0.046875 10.984375 1.515625 
z
M 30.609375 32.421875 
Q 37.25 32.421875 41.125 36.953125 
Q 45.015625 41.5 45.015625 49.421875 
Q 45.015625 57.28125 41.125 61.84375 
Q 37.25 66.40625 30.609375 66.40625 
Q 23.96875 66.40625 20.09375 61.84375 
Q 16.21875 57.28125 16.21875 49.421875 
Q 16.21875 41.5 20.09375 36.953125 
Q 23.96875 32.421875 30.609375 32.421875 
z
" id="DejaVuSans-57"/>
       <path d="M 8.203125 72.90625 
L 55.078125 72.90625 
L 55.078125 68.703125 
L 28.609375 0 
L 18.3125 0 
L 43.21875 64.59375 
L 8.203125 64.59375 
z
" id="DejaVuSans-55"/>
       <path d="M 31.78125 66.40625 
Q 24.171875 66.40625 20.328125 58.90625 
Q 16.5 51.421875 16.5 36.375 
Q 16.5 21.390625 20.328125 13.890625 
Q 24.171875 6.390625 31.78125 6.390625 
Q 39.453125 6.390625 43.28125 13.890625 
Q 47.125 21.390625 47.125 36.375 
Q 47.125 51.421875 43.28125 58.90625 
Q 39.453125 66.40625 31.78125 66.40625 
z
M 31.78125 74.21875 
Q 44.046875 74.21875 50.515625 64.515625 
Q 56.984375 54.828125 56.984375 36.375 
Q 56.984375 17.96875 50.515625 8.265625 
Q 44.046875 -1.421875 31.78125 -1.421875 
Q 19.53125 -1.421875 13.0625 8.265625 
Q 6.59375 17.96875 6.59375 36.375 
Q 6.59375 54.828125 13.0625 64.515625 
Q 19.53125 74.21875 31.78125 74.21875 
z
" id="DejaVuSans-48"/>
      </defs>
      <g transform="translate(53.659909 240.596625)scale(0.088 -0.088)">
       <use xlink:href="#DejaVuSans-49"/>
       <use x="63.623047" xlink:href="#DejaVuSans-57"/>
       <use x="127.246094" xlink:href="#DejaVuSans-55"/>
       <use x="190.869141" xlink:href="#DejaVuSans-48"/>
      </g>
     </g>
    </g>
    <g id="xtick_2">
     <g id="line2d_3">
      <path clip-path="url(#p91c54d7df9)" d="M 146.021545 228.96 
L 146.021545 7.2 
" style="fill:none;stroke:#e5e5e5;stroke-width:0.8;"/>
     </g>
     <g id="line2d_4">
      <path d="M 146.021545 228.96 
" style="fill:none;stroke:#000000;stroke-width:1.5;"/>
      <g>
       <use style="stroke:#000000;" x="146.021545" xlink:href="#m7feb65724d" y="228.96"/>
      </g>
     </g>
     <g id="text_2">
      <!-- 1980 -->
      <defs>
       <path d="M 31.78125 34.625 
Q 24.75 34.625 20.71875 30.859375 
Q 16.703125 27.09375 16.703125 20.515625 
Q 16.703125 13.921875 20.71875 10.15625 
Q 24.75 6.390625 31.78125 6.390625 
Q 38.8125 6.390625 42.859375 10.171875 
Q 46.921875 13.96875 46.921875 20.515625 
Q 46.921875 27.09375 42.890625 30.859375 
Q 38.875 34.625 31.78125 34.625 
z
M 21.921875 38.8125 
Q 15.578125 40.375 12.03125 44.71875 
Q 8.5 49.078125 8.5 55.328125 
Q 8.5 64.0625 14.71875 69.140625 
Q 20.953125 74.21875 31.78125 74.21875 
Q 42.671875 74.21875 48.875 69.140625 
Q 55.078125 64.0625 55.078125 55.328125 
Q 55.078125 49.078125 51.53125 44.71875 
Q 48 40.375 41.703125 38.8125 
Q 48.828125 37.15625 52.796875 32.3125 
Q 56.78125 27.484375 56.78125 20.515625 
Q 56.78125 9.90625 50.3125 4.234375 
Q 43.84375 -1.421875 31.78125 -1.421875 
Q 19.734375 -1.421875 13.25 4.234375 
Q 6.78125 9.90625 6.78125 20.515625 
Q 6.78125 27.484375 10.78125 32.3125 
Q 14.796875 37.15625 21.921875 38.8125 
z
M 18.3125 54.390625 
Q 18.3125 48.734375 21.84375 45.5625 
Q 25.390625 42.390625 31.78125 42.390625 
Q 38.140625 42.390625 41.71875 45.5625 
Q 45.3125 48.734375 45.3125 54.390625 
Q 45.3125 60.0625 41.71875 63.234375 
Q 38.140625 66.40625 31.78125 66.40625 
Q 25.390625 66.40625 21.84375 63.234375 
Q 18.3125 60.0625 18.3125 54.390625 
z
" id="DejaVuSans-56"/>
      </defs>
      <g transform="translate(134.823545 240.596625)scale(0.088 -0.088)">
       <use xlink:href="#DejaVuSans-49"/>
       <use x="63.623047" xlink:href="#DejaVuSans-57"/>
       <use x="127.246094" xlink:href="#DejaVuSans-56"/>
       <use x="190.869141" xlink:href="#DejaVuSans-48"/>
      </g>
     </g>
    </g>
    <g id="xtick_3">
     <g id="line2d_5">
      <path clip-path="url(#p91c54d7df9)" d="M 227.185182 228.96 
L 227.185182 7.2 
" style="fill:none;stroke:#e5e5e5;stroke-width:0.8;"/>
     </g>
     <g id="line2d_6">
      <path d="M 227.185182 228.96 
" style="fill:none;stroke:#000000;stroke-width:1.5;"/>
      <g>
       <use style="stroke:#000000;" x="227.185182" xlink:href="#m7feb65724d" y="228.96"/>
      </g>
     </g>
     <g id="text_3">
      <!-- 1990 -->
      <g transform="translate(215.987182 240.596625)scale(0.088 -0.088)">
       <use xlink:href="#DejaVuSans-49"/>
       <use x="63.623047" xlink:href="#DejaVuSans-57"/>
       <use x="127.246094" xlink:href="#DejaVuSans-57"/>
       <use x="190.869141" xlink:href="#DejaVuSans-48"/>
      </g>
     </g>
    </g>
    <g id="xtick_4">
     <g id="line2d_7">
      <path clip-path="url(#p91c54d7df9)" d="M 308.348818 228.96 
L 308.348818 7.2 
" style="fill:none;stroke:#e5e5e5;stroke-width:0.8;"/>
     </g>
     <g id="line2d_8">
      <path d="M 308.348818 228.96 
" style="fill:none;stroke:#000000;stroke-width:1.5;"/>
      <g>
       <use style="stroke:#000000;" x="308.348818" xlink:href="#m7feb65724d" y="228.96"/>
      </g>
     </g>
     <g id="text_4">
      <!-- 2000 -->
      <defs>
       <path d="M 19.1875 8.296875 
L 53.609375 8.296875 
L 53.609375 0 
L 7.328125 0 
L 7.328125 8.296875 
Q 12.9375 14.109375 22.625 23.890625 
Q 32.328125 33.6875 34.8125 36.53125 
Q 39.546875 41.84375 41.421875 45.53125 
Q 43.3125 49.21875 43.3125 52.78125 
Q 43.3125 58.59375 39.234375 62.25 
Q 35.15625 65.921875 28.609375 65.921875 
Q 23.96875 65.921875 18.8125 64.3125 
Q 13.671875 62.703125 7.8125 59.421875 
L 7.8125 69.390625 
Q 13.765625 71.78125 18.9375 73 
Q 24.125 74.21875 28.421875 74.21875 
Q 39.75 74.21875 46.484375 68.546875 
Q 53.21875 62.890625 53.21875 53.421875 
Q 53.21875 48.921875 51.53125 44.890625 
Q 49.859375 40.875 45.40625 35.40625 
Q 44.1875 33.984375 37.640625 27.21875 
Q 31.109375 20.453125 19.1875 8.296875 
z
" id="DejaVuSans-50"/>
      </defs>
      <g transform="translate(297.150818 240.596625)scale(0.088 -0.088)">
       <use xlink:href="#DejaVuSans-50"/>
       <use x="63.623047" xlink:href="#DejaVuSans-48"/>
       <use x="127.246094" xlink:href="#DejaVuSans-48"/>
       <use x="190.869141" xlink:href="#DejaVuSans-48"/>
      </g>
     </g>
    </g>
    <g id="xtick_5">
     <g id="line2d_9">
      <path clip-path="url(#p91c54d7df9)" d="M 389.512455 228.96 
L 389.512455 7.2 
" style="fill:none;stroke:#e5e5e5;stroke-width:0.8;"/>
     </g>
     <g id="line2d_10">
      <path d="M 389.512455 228.96 
" style="fill:none;stroke:#000000;stroke-width:1.5;"/>
      <g>
       <use style="stroke:#000000;" x="389.512455" xlink:href="#m7feb65724d" y="228.96"/>
      </g>
     </g>
     <g id="text_5">
      <!-- 2010 -->
      <g transform="translate(378.314455 240.596625)scale(0.088 -0.088)">
       <use xlink:href="#DejaVuSans-50"/>
       <use x="63.623047" xlink:href="#DejaVuSans-48"/>
       <use x="127.246094" xlink:href="#DejaVuSans-49"/>
       <use x="190.869141" xlink:href="#DejaVuSans-48"/>
      </g>
     </g>
    </g>
    <g id="xtick_6">
     <g id="line2d_11">
      <path clip-path="url(#p91c54d7df9)" d="M 470.676091 228.96 
L 470.676091 7.2 
" style="fill:none;stroke:#e5e5e5;stroke-width:0.8;"/>
     </g>
     <g id="line2d_12">
      <path d="M 470.676091 228.96 
" style="fill:none;stroke:#000000;stroke-width:1.5;"/>
      <g>
       <use style="stroke:#000000;" x="470.676091" xlink:href="#m7feb65724d" y="228.96"/>
      </g>
     </g>
     <g id="text_6">
      <!-- 2020 -->
      <g transform="translate(459.478091 240.596625)scale(0.088 -0.088)">
       <use xlink:href="#DejaVuSans-50"/>
       <use x="63.623047" xlink:href="#DejaVuSans-48"/>
       <use x="127.246094" xlink:href="#DejaVuSans-50"/>
       <use x="190.869141" xlink:href="#DejaVuSans-48"/>
      </g>
     </g>
    </g>
    <g id="xtick_7">
     <g id="line2d_13">
      <path clip-path="url(#p91c54d7df9)" d="M 105.439727 228.96 
L 105.439727 7.2 
" style="fill:none;stroke:#fafafa;"/>
     </g>
     <g id="line2d_14">
      <path d="M 105.439727 228.96 
" style="fill:none;stroke:#000000;stroke-width:1.5;"/>
      <defs>
       <path d="M 0 0 
L 0 1.375 
" id="me2a937076d" style="stroke:#000000;"/>
      </defs>
      <g>
       <use style="stroke:#000000;" x="105.439727" xlink:href="#me2a937076d" y="228.96"/>
      </g>
     </g>
    </g>
    <g id="xtick_8">
     <g id="line2d_15">
      <path clip-path="url(#p91c54d7df9)" d="M 186.603364 228.96 
L 186.603364 7.2 
" style="fill:none;stroke:#fafafa;"/>
     </g>
     <g id="line2d_16">
      <path d="M 186.603364 228.96 
" style="fill:none;stroke:#000000;stroke-width:1.5;"/>
      <g>
       <use style="stroke:#000000;" x="186.603364" xlink:href="#me2a937076d" y="228.96"/>
      </g>
     </g>
    </g>
    <g id="xtick_9">
     <g id="line2d_17">
      <path clip-path="url(#p91c54d7df9)" d="M 267.767 228.96 
L 267.767 7.2 
" style="fill:none;stroke:#fafafa;"/>
     </g>
     <g id="line2d_18">
      <path d="M 267.767 228.96 
" style="fill:none;stroke:#000000;stroke-width:1.5;"/>
      <g>
       <use style="stroke:#000000;" x="267.767" xlink:href="#me2a937076d" y="228.96"/>
      </g>
     </g>
    </g>
    <g id="xtick_10">
     <g id="line2d_19">
      <path clip-path="url(#p91c54d7df9)" d="M 348.930636 228.96 
L 348.930636 7.2 
" style="fill:none;stroke:#fafafa;"/>
     </g>
     <g id="line2d_20">
      <path d="M 348.930636 228.96 
" style="fill:none;stroke:#000000;stroke-width:1.5;"/>
      <g>
       <use style="stroke:#000000;" x="348.930636" xlink:href="#me2a937076d" y="228.96"/>
      </g>
     </g>
    </g>
    <g id="xtick_11">
     <g id="line2d_21">
      <path clip-path="url(#p91c54d7df9)" d="M 430.094273 228.96 
L 430.094273 7.2 
" style="fill:none;stroke:#fafafa;"/>
     </g>
     <g id="line2d_22">
      <path d="M 430.094273 228.96 
" style="fill:none;stroke:#000000;stroke-width:1.5;"/>
      <g>
       <use style="stroke:#000000;" x="430.094273" xlink:href="#me2a937076d" y="228.96"/>
      </g>
     </g>
    </g>
    <g id="text_7">
     <!-- Year -->
     <defs>
      <path d="M -0.203125 72.90625 
L 10.40625 72.90625 
L 30.609375 42.921875 
L 50.6875 72.90625 
L 61.28125 72.90625 
L 35.5 34.71875 
L 35.5 0 
L 25.59375 0 
L 25.59375 34.71875 
z
" id="DejaVuSans-89"/>
      <path d="M 56.203125 29.59375 
L 56.203125 25.203125 
L 14.890625 25.203125 
Q 15.484375 15.921875 20.484375 11.0625 
Q 25.484375 6.203125 34.421875 6.203125 
Q 39.59375 6.203125 44.453125 7.46875 
Q 49.3125 8.734375 54.109375 11.28125 
L 54.109375 2.78125 
Q 49.265625 0.734375 44.1875 -0.34375 
Q 39.109375 -1.421875 33.890625 -1.421875 
Q 20.796875 -1.421875 13.15625 6.1875 
Q 5.515625 13.8125 5.515625 26.8125 
Q 5.515625 40.234375 12.765625 48.109375 
Q 20.015625 56 32.328125 56 
Q 43.359375 56 49.78125 48.890625 
Q 56.203125 41.796875 56.203125 29.59375 
z
M 47.21875 32.234375 
Q 47.125 39.59375 43.09375 43.984375 
Q 39.0625 48.390625 32.421875 48.390625 
Q 24.90625 48.390625 20.390625 44.140625 
Q 15.875 39.890625 15.1875 32.171875 
z
" id="DejaVuSans-101"/>
      <path d="M 34.28125 27.484375 
Q 23.390625 27.484375 19.1875 25 
Q 14.984375 22.515625 14.984375 16.5 
Q 14.984375 11.71875 18.140625 8.90625 
Q 21.296875 6.109375 26.703125 6.109375 
Q 34.1875 6.109375 38.703125 11.40625 
Q 43.21875 16.703125 43.21875 25.484375 
L 43.21875 27.484375 
z
M 52.203125 31.203125 
L 52.203125 0 
L 43.21875 0 
L 43.21875 8.296875 
Q 40.140625 3.328125 35.546875 0.953125 
Q 30.953125 -1.421875 24.3125 -1.421875 
Q 15.921875 -1.421875 10.953125 3.296875 
Q 6 8.015625 6 15.921875 
Q 6 25.140625 12.171875 29.828125 
Q 18.359375 34.515625 30.609375 34.515625 
L 43.21875 34.515625 
L 43.21875 35.40625 
Q 43.21875 41.609375 39.140625 45 
Q 35.0625 48.390625 27.6875 48.390625 
Q 23 48.390625 18.546875 47.265625 
Q 14.109375 46.140625 10.015625 43.890625 
L 10.015625 52.203125 
Q 14.9375 54.109375 19.578125 55.046875 
Q 24.21875 56 28.609375 56 
Q 40.484375 56 46.34375 49.84375 
Q 52.203125 43.703125 52.203125 31.203125 
z
" id="DejaVuSans-97"/>
      <path d="M 41.109375 46.296875 
Q 39.59375 47.171875 37.8125 47.578125 
Q 36.03125 48 33.890625 48 
Q 26.265625 48 22.1875 43.046875 
Q 18.109375 38.09375 18.109375 28.8125 
L 18.109375 0 
L 9.078125 0 
L 9.078125 54.6875 
L 18.109375 54.6875 
L 18.109375 46.1875 
Q 20.953125 51.171875 25.484375 53.578125 
Q 30.03125 56 36.53125 56 
Q 37.453125 56 38.578125 55.875 
Q 39.703125 55.765625 41.0625 55.515625 
z
" id="DejaVuSans-114"/>
     </defs>
     <g transform="translate(248.203172 255.185031)scale(0.11 -0.11)">
      <use xlink:href="#DejaVuSans-89"/>
      <use x="60.880859" xlink:href="#DejaVuSans-101"/>
      <use x="122.404297" xlink:href="#DejaVuSans-97"/>
      <use x="183.683594" xlink:href="#DejaVuSans-114"/>
     </g>
    </g>
   </g>
   <g id="matplotlib.axis_2">
    <g id="ytick_1">
     <g id="line2d_23">
      <path clip-path="url(#p91c54d7df9)" d="M 44.567 218.88 
L 490.967 218.88 
" style="fill:none;stroke:#e5e5e5;stroke-width:0.8;"/>
     </g>
     <g id="line2d_24">
      <path d="M 44.567 218.88 
" style="fill:none;stroke:#000000;stroke-width:1.5;"/>
      <defs>
       <path d="M 0 0 
L -2.75 0 
" id="m93d0e73a0c" style="stroke:#000000;"/>
      </defs>
      <g>
       <use style="stroke:#000000;" x="44.567" xlink:href="#m93d0e73a0c" y="218.88"/>
      </g>
     </g>
     <g id="text_8">
      <!-- 0 -->
      <g transform="translate(34.018 221.30825)scale(0.088 -0.088)">
       <use xlink:href="#DejaVuSans-48"/>
      </g>
     </g>
    </g>
    <g id="ytick_2">
     <g id="line2d_25">
      <path clip-path="url(#p91c54d7df9)" d="M 44.567 168.48 
L 490.967 168.48 
" style="fill:none;stroke:#e5e5e5;stroke-width:0.8;"/>
     </g>
     <g id="line2d_26">
      <path d="M 44.567 168.48 
" style="fill:none;stroke:#000000;stroke-width:1.5;"/>
      <g>
       <use style="stroke:#000000;" x="44.567" xlink:href="#m93d0e73a0c" y="168.48"/>
      </g>
     </g>
     <g id="text_9">
      <!-- 25 -->
      <defs>
       <path d="M 10.796875 72.90625 
L 49.515625 72.90625 
L 49.515625 64.59375 
L 19.828125 64.59375 
L 19.828125 46.734375 
Q 21.96875 47.46875 24.109375 47.828125 
Q 26.265625 48.1875 28.421875 48.1875 
Q 40.625 48.1875 47.75 41.5 
Q 54.890625 34.8125 54.890625 23.390625 
Q 54.890625 11.625 47.5625 5.09375 
Q 40.234375 -1.421875 26.90625 -1.421875 
Q 22.3125 -1.421875 17.546875 -0.640625 
Q 12.796875 0.140625 7.71875 1.703125 
L 7.71875 11.625 
Q 12.109375 9.234375 16.796875 8.0625 
Q 21.484375 6.890625 26.703125 6.890625 
Q 35.15625 6.890625 40.078125 11.328125 
Q 45.015625 15.765625 45.015625 23.390625 
Q 45.015625 31 40.078125 35.4375 
Q 35.15625 39.890625 26.703125 39.890625 
Q 22.75 39.890625 18.8125 39.015625 
Q 14.890625 38.140625 10.796875 36.28125 
z
" id="DejaVuSans-53"/>
      </defs>
      <g transform="translate(28.419 170.90825)scale(0.088 -0.088)">
       <use xlink:href="#DejaVuSans-50"/>
       <use x="63.623047" xlink:href="#DejaVuSans-53"/>
      </g>
     </g>
    </g>
    <g id="ytick_3">
     <g id="line2d_27">
      <path clip-path="url(#p91c54d7df9)" d="M 44.567 118.08 
L 490.967 118.08 
" style="fill:none;stroke:#e5e5e5;stroke-width:0.8;"/>
     </g>
     <g id="line2d_28">
      <path d="M 44.567 118.08 
" style="fill:none;stroke:#000000;stroke-width:1.5;"/>
      <g>
       <use style="stroke:#000000;" x="44.567" xlink:href="#m93d0e73a0c" y="118.08"/>
      </g>
     </g>
     <g id="text_10">
      <!-- 50 -->
      <g transform="translate(28.419 120.50825)scale(0.088 -0.088)">
       <use xlink:href="#DejaVuSans-53"/>
       <use x="63.623047" xlink:href="#DejaVuSans-48"/>
      </g>
     </g>
    </g>
    <g id="ytick_4">
     <g id="line2d_29">
      <path clip-path="url(#p91c54d7df9)" d="M 44.567 67.68 
L 490.967 67.68 
" style="fill:none;stroke:#e5e5e5;stroke-width:0.8;"/>
     </g>
     <g id="line2d_30">
      <path d="M 44.567 67.68 
" style="fill:none;stroke:#000000;stroke-width:1.5;"/>
      <g>
       <use style="stroke:#000000;" x="44.567" xlink:href="#m93d0e73a0c" y="67.68"/>
      </g>
     </g>
     <g id="text_11">
      <!-- 75 -->
      <g transform="translate(28.419 70.10825)scale(0.088 -0.088)">
       <use xlink:href="#DejaVuSans-55"/>
       <use x="63.623047" xlink:href="#DejaVuSans-53"/>
      </g>
     </g>
    </g>
    <g id="ytick_5">
     <g id="line2d_31">
      <path clip-path="url(#p91c54d7df9)" d="M 44.567 17.28 
L 490.967 17.28 
" style="fill:none;stroke:#e5e5e5;stroke-width:0.8;"/>
     </g>
     <g id="line2d_32">
      <path d="M 44.567 17.28 
" style="fill:none;stroke:#000000;stroke-width:1.5;"/>
      <g>
       <use style="stroke:#000000;" x="44.567" xlink:href="#m93d0e73a0c" y="17.28"/>
      </g>
     </g>
     <g id="text_12">
      <!-- 100 -->
      <g transform="translate(22.82 19.70825)scale(0.088 -0.088)">
       <use xlink:href="#DejaVuSans-49"/>
       <use x="63.623047" xlink:href="#DejaVuSans-48"/>
       <use x="127.246094" xlink:href="#DejaVuSans-48"/>
      </g>
     </g>
    </g>
    <g id="ytick_6">
     <g id="line2d_33">
      <path clip-path="url(#p91c54d7df9)" d="M 44.567 193.68 
L 490.967 193.68 
" style="fill:none;stroke:#fafafa;"/>
     </g>
     <g id="line2d_34">
      <path d="M 44.567 193.68 
" style="fill:none;stroke:#000000;stroke-width:1.5;"/>
      <defs>
       <path d="M 0 0 
L -1.375 0 
" id="m575ff4a5cb" style="stroke:#000000;"/>
      </defs>
      <g>
       <use style="stroke:#000000;" x="44.567" xlink:href="#m575ff4a5cb" y="193.68"/>
      </g>
     </g>
    </g>
    <g id="ytick_7">
     <g id="line2d_35">
      <path clip-path="url(#p91c54d7df9)" d="M 44.567 143.28 
L 490.967 143.28 
" style="fill:none;stroke:#fafafa;"/>
     </g>
     <g id="line2d_36">
      <path d="M 44.567 143.28 
" style="fill:none;stroke:#000000;stroke-width:1.5;"/>
      <g>
       <use style="stroke:#000000;" x="44.567" xlink:href="#m575ff4a5cb" y="143.28"/>
      </g>
     </g>
    </g>
    <g id="ytick_8">
     <g id="line2d_37">
      <path clip-path="url(#p91c54d7df9)" d="M 44.567 92.88 
L 490.967 92.88 
" style="fill:none;stroke:#fafafa;"/>
     </g>
     <g id="line2d_38">
      <path d="M 44.567 92.88 
" style="fill:none;stroke:#000000;stroke-width:1.5;"/>
      <g>
       <use style="stroke:#000000;" x="44.567" xlink:href="#m575ff4a5cb" y="92.88"/>
      </g>
     </g>
    </g>
    <g id="ytick_9">
     <g id="line2d_39">
      <path clip-path="url(#p91c54d7df9)" d="M 44.567 42.48 
L 490.967 42.48 
" style="fill:none;stroke:#fafafa;"/>
     </g>
     <g id="line2d_40">
      <path d="M 44.567 42.48 
" style="fill:none;stroke:#000000;stroke-width:1.5;"/>
      <g>
       <use style="stroke:#000000;" x="44.567" xlink:href="#m575ff4a5cb" y="42.48"/>
      </g>
     </g>
    </g>
    <g id="text_13">
     <!-- $P_{Q1}(t,d)$ [%] -->
     <defs>
      <path d="M 16.890625 72.90625 
L 39.703125 72.90625 
Q 49.65625 72.90625 54.875 68.265625 
Q 60.109375 63.625 60.109375 54.6875 
Q 60.109375 42.671875 52.390625 35.984375 
Q 44.671875 29.296875 30.71875 29.296875 
L 18.3125 29.296875 
L 12.59375 0 
L 2.6875 0 
z
M 25.203125 64.796875 
L 19.921875 37.40625 
L 32.328125 37.40625 
Q 40.71875 37.40625 45.203125 41.703125 
Q 49.703125 46 49.703125 54 
Q 49.703125 59.125 46.65625 61.953125 
Q 43.609375 64.796875 38.09375 64.796875 
z
" id="DejaVuSans-Oblique-80"/>
      <path d="M 36.078125 -1.3125 
Q 35.546875 -1.375 34.953125 -1.390625 
Q 34.375 -1.421875 33.203125 -1.421875 
Q 19.53125 -1.421875 11.8125 6.421875 
Q 4.109375 14.265625 4.109375 28.078125 
Q 4.109375 36.234375 7.0625 44.4375 
Q 10.015625 52.640625 15.28125 59.1875 
Q 21.390625 66.703125 29.03125 70.453125 
Q 36.671875 74.21875 45.90625 74.21875 
Q 59.28125 74.21875 66.984375 66.328125 
Q 74.703125 58.453125 74.703125 44.828125 
Q 74.703125 30.125 66.640625 17.921875 
Q 58.59375 5.71875 45.609375 0.6875 
L 55.515625 -12.890625 
L 44.484375 -12.890625 
z
M 45.609375 66.21875 
Q 37.5 66.21875 31.296875 62.28125 
Q 25.09375 58.34375 20.515625 50.296875 
Q 17.578125 45.171875 16.03125 39.40625 
Q 14.5 33.640625 14.5 27.78125 
Q 14.5 17.625 19.359375 12.109375 
Q 24.21875 6.59375 33.109375 6.59375 
Q 41.109375 6.59375 47.375 10.5625 
Q 53.65625 14.546875 58.109375 22.40625 
Q 61.078125 27.6875 62.640625 33.46875 
Q 64.203125 39.265625 64.203125 45.015625 
Q 64.203125 55.125 59.3125 60.671875 
Q 54.4375 66.21875 45.609375 66.21875 
z
" id="DejaVuSans-Oblique-81"/>
      <path d="M 31 75.875 
Q 24.46875 64.65625 21.28125 53.65625 
Q 18.109375 42.671875 18.109375 31.390625 
Q 18.109375 20.125 21.3125 9.0625 
Q 24.515625 -2 31 -13.1875 
L 23.1875 -13.1875 
Q 15.875 -1.703125 12.234375 9.375 
Q 8.59375 20.453125 8.59375 31.390625 
Q 8.59375 42.28125 12.203125 53.3125 
Q 15.828125 64.359375 23.1875 75.875 
z
" id="DejaVuSans-40"/>
      <path d="M 42.28125 54.6875 
L 40.921875 47.703125 
L 23 47.703125 
L 17.1875 18.015625 
Q 16.890625 16.359375 16.75 15.234375 
Q 16.609375 14.109375 16.609375 13.484375 
Q 16.609375 10.359375 18.484375 8.9375 
Q 20.359375 7.515625 24.515625 7.515625 
L 33.59375 7.515625 
L 32.078125 0 
L 23.484375 0 
Q 15.484375 0 11.546875 3.125 
Q 7.625 6.25 7.625 12.59375 
Q 7.625 13.71875 7.765625 15.0625 
Q 7.90625 16.40625 8.203125 18.015625 
L 14.015625 47.703125 
L 6.390625 47.703125 
L 7.8125 54.6875 
L 15.28125 54.6875 
L 18.3125 70.21875 
L 27.296875 70.21875 
L 24.3125 54.6875 
z
" id="DejaVuSans-Oblique-116"/>
      <path d="M 11.71875 12.40625 
L 22.015625 12.40625 
L 22.015625 4 
L 14.015625 -11.625 
L 7.71875 -11.625 
L 11.71875 4 
z
" id="DejaVuSans-44"/>
      <path d="M 41.796875 8.203125 
Q 38.1875 3.46875 33.25 1.015625 
Q 28.328125 -1.421875 22.3125 -1.421875 
Q 14.109375 -1.421875 9.34375 4.171875 
Q 4.59375 9.765625 4.59375 19.484375 
Q 4.59375 27.59375 7.46875 34.9375 
Q 10.359375 42.28125 15.828125 48.09375 
Q 19.4375 51.953125 23.96875 53.96875 
Q 28.515625 56 33.5 56 
Q 38.765625 56 42.796875 53.453125 
Q 46.828125 50.921875 49.03125 46.1875 
L 54.890625 75.984375 
L 63.921875 75.984375 
L 49.125 0 
L 40.09375 0 
z
M 13.921875 21.09375 
Q 13.921875 14.015625 17.109375 10.0625 
Q 20.3125 6.109375 25.984375 6.109375 
Q 30.171875 6.109375 33.765625 8.125 
Q 37.359375 10.15625 40.09375 14.109375 
Q 42.96875 18.21875 44.625 23.578125 
Q 46.296875 28.953125 46.296875 34.1875 
Q 46.296875 40.96875 43.09375 44.765625 
Q 39.890625 48.578125 34.28125 48.578125 
Q 30.03125 48.578125 26.359375 46.578125 
Q 22.703125 44.578125 20.125 40.828125 
Q 17.28125 36.765625 15.59375 31.390625 
Q 13.921875 26.03125 13.921875 21.09375 
z
" id="DejaVuSans-Oblique-100"/>
      <path d="M 8.015625 75.875 
L 15.828125 75.875 
Q 23.140625 64.359375 26.78125 53.3125 
Q 30.421875 42.28125 30.421875 31.390625 
Q 30.421875 20.453125 26.78125 9.375 
Q 23.140625 -1.703125 15.828125 -13.1875 
L 8.015625 -13.1875 
Q 14.5 -2 17.703125 9.0625 
Q 20.90625 20.125 20.90625 31.390625 
Q 20.90625 42.671875 17.703125 53.65625 
Q 14.5 64.65625 8.015625 75.875 
z
" id="DejaVuSans-41"/>
      <path id="DejaVuSans-32"/>
      <path d="M 8.59375 75.984375 
L 29.296875 75.984375 
L 29.296875 69 
L 17.578125 69 
L 17.578125 -6.203125 
L 29.296875 -6.203125 
L 29.296875 -13.1875 
L 8.59375 -13.1875 
z
" id="DejaVuSans-91"/>
      <path d="M 72.703125 32.078125 
Q 68.453125 32.078125 66.03125 28.46875 
Q 63.625 24.859375 63.625 18.40625 
Q 63.625 12.0625 66.03125 8.421875 
Q 68.453125 4.78125 72.703125 4.78125 
Q 76.859375 4.78125 79.265625 8.421875 
Q 81.6875 12.0625 81.6875 18.40625 
Q 81.6875 24.8125 79.265625 28.4375 
Q 76.859375 32.078125 72.703125 32.078125 
z
M 72.703125 38.28125 
Q 80.421875 38.28125 84.953125 32.90625 
Q 89.5 27.546875 89.5 18.40625 
Q 89.5 9.28125 84.9375 3.921875 
Q 80.375 -1.421875 72.703125 -1.421875 
Q 64.890625 -1.421875 60.34375 3.921875 
Q 55.8125 9.28125 55.8125 18.40625 
Q 55.8125 27.59375 60.375 32.9375 
Q 64.9375 38.28125 72.703125 38.28125 
z
M 22.3125 68.015625 
Q 18.109375 68.015625 15.6875 64.375 
Q 13.28125 60.75 13.28125 54.390625 
Q 13.28125 47.953125 15.671875 44.328125 
Q 18.0625 40.71875 22.3125 40.71875 
Q 26.5625 40.71875 28.96875 44.328125 
Q 31.390625 47.953125 31.390625 54.390625 
Q 31.390625 60.6875 28.953125 64.34375 
Q 26.515625 68.015625 22.3125 68.015625 
z
M 66.40625 74.21875 
L 74.21875 74.21875 
L 28.609375 -1.421875 
L 20.796875 -1.421875 
z
M 22.3125 74.21875 
Q 30.03125 74.21875 34.609375 68.875 
Q 39.203125 63.53125 39.203125 54.390625 
Q 39.203125 45.171875 34.640625 39.84375 
Q 30.078125 34.515625 22.3125 34.515625 
Q 14.546875 34.515625 10.03125 39.859375 
Q 5.515625 45.21875 5.515625 54.390625 
Q 5.515625 63.484375 10.046875 68.84375 
Q 14.59375 74.21875 22.3125 74.21875 
z
" id="DejaVuSans-37"/>
      <path d="M 30.421875 75.984375 
L 30.421875 -13.1875 
L 9.71875 -13.1875 
L 9.71875 -6.203125 
L 21.390625 -6.203125 
L 21.390625 69 
L 9.71875 69 
L 9.71875 75.984375 
z
" id="DejaVuSans-93"/>
     </defs>
     <g transform="translate(15.56 149.64)rotate(-90)scale(0.11 -0.11)">
      <use transform="translate(0 0.015625)" xlink:href="#DejaVuSans-Oblique-80"/>
      <use transform="translate(60.302734 -16.390625)scale(0.7)" xlink:href="#DejaVuSans-Oblique-81"/>
      <use transform="translate(115.400391 -16.390625)scale(0.7)" xlink:href="#DejaVuSans-49"/>
      <use transform="translate(162.670898 0.015625)" xlink:href="#DejaVuSans-40"/>
      <use transform="translate(201.68457 0.015625)" xlink:href="#DejaVuSans-Oblique-116"/>
      <use transform="translate(240.893555 0.015625)" xlink:href="#DejaVuSans-44"/>
      <use transform="translate(292.163086 0.015625)" xlink:href="#DejaVuSans-Oblique-100"/>
      <use transform="translate(355.639648 0.015625)" xlink:href="#DejaVuSans-41"/>
      <use transform="translate(394.65332 0.015625)" xlink:href="#DejaVuSans-32"/>
      <use transform="translate(426.44043 0.015625)" xlink:href="#DejaVuSans-91"/>
      <use transform="translate(465.454102 0.015625)" xlink:href="#DejaVuSans-37"/>
      <use transform="translate(560.473633 0.015625)" xlink:href="#DejaVuSans-93"/>
     </g>
    </g>
   </g>
   <g id="PathCollection_1">
    <path clip-path="url(#p91c54d7df9)" d="M 81.090636 19.052454 
C 81.560697 19.052454 82.011568 18.865697 82.343951 18.533314 
C 82.676333 18.200931 82.86309 17.75006 82.86309 17.28 
C 82.86309 16.80994 82.676333 16.359069 82.343951 16.026686 
C 82.011568 15.694303 81.560697 15.507546 81.090636 15.507546 
C 80.620576 15.507546 80.169705 15.694303 79.837322 16.026686 
C 79.504939 16.359069 79.318183 16.80994 79.318183 17.28 
C 79.318183 17.75006 79.504939 18.200931 79.837322 18.533314 
C 80.169705 18.865697 80.620576 19.052454 81.090636 19.052454 
z
" style="stroke:#000000;stroke-width:0.886227;"/>
    <path clip-path="url(#p91c54d7df9)" d="M 89.207 19.052454 
C 89.67706 19.052454 90.127931 18.865697 90.460314 18.533314 
C 90.792697 18.200931 90.979454 17.75006 90.979454 17.28 
C 90.979454 16.80994 90.792697 16.359069 90.460314 16.026686 
C 90.127931 15.694303 89.67706 15.507546 89.207 15.507546 
C 88.73694 15.507546 88.286069 15.694303 87.953686 16.026686 
C 87.621303 16.359069 87.434546 16.80994 87.434546 17.28 
C 87.434546 17.75006 87.621303 18.200931 87.953686 18.533314 
C 88.286069 18.865697 88.73694 19.052454 89.207 19.052454 
z
" style="stroke:#000000;stroke-width:0.886227;"/>
    <path clip-path="url(#p91c54d7df9)" d="M 97.323364 19.052454 
C 97.793424 19.052454 98.244295 18.865697 98.576678 18.533314 
C 98.909061 18.200931 99.095817 17.75006 99.095817 17.28 
C 99.095817 16.80994 98.909061 16.359069 98.576678 16.026686 
C 98.244295 15.694303 97.793424 15.507546 97.323364 15.507546 
C 96.853303 15.507546 96.402432 15.694303 96.070049 16.026686 
C 95.737667 16.359069 95.55091 16.80994 95.55091 17.28 
C 95.55091 17.75006 95.737667 18.200931 96.070049 18.533314 
C 96.402432 18.865697 96.853303 19.052454 97.323364 19.052454 
z
" style="stroke:#000000;stroke-width:0.886227;"/>
    <path clip-path="url(#p91c54d7df9)" d="M 105.439727 103.703363 
C 105.909788 103.703363 106.360659 103.516606 106.693041 103.184223 
C 107.025424 102.85184 107.212181 102.400969 107.212181 101.930909 
C 107.212181 101.460849 107.025424 101.009978 106.693041 100.677595 
C 106.360659 100.345212 105.909788 100.158455 105.439727 100.158455 
C 104.969667 100.158455 104.518796 100.345212 104.186413 100.677595 
C 103.85403 101.009978 103.667273 101.460849 103.667273 101.930909 
C 103.667273 102.400969 103.85403 102.85184 104.186413 103.184223 
C 104.518796 103.516606 104.969667 103.703363 105.439727 103.703363 
z
" style="stroke:#000000;stroke-width:0.886227;"/>
    <path clip-path="url(#p91c54d7df9)" d="M 113.556091 93.444326 
C 114.026151 93.444326 114.477022 93.257569 114.809405 92.925186 
C 115.141788 92.592803 115.328545 92.141932 115.328545 91.671872 
C 115.328545 91.201811 115.141788 90.75094 114.809405 90.418558 
C 114.477022 90.086175 114.026151 89.899418 113.556091 89.899418 
C 113.086031 89.899418 112.63516 90.086175 112.302777 90.418558 
C 111.970394 90.75094 111.783637 91.201811 111.783637 91.671872 
C 111.783637 92.141932 111.970394 92.592803 112.302777 92.925186 
C 112.63516 93.257569 113.086031 93.444326 113.556091 93.444326 
z
" style="stroke:#000000;stroke-width:0.886227;"/>
    <path clip-path="url(#p91c54d7df9)" d="M 121.672455 67.902454 
C 122.142515 67.902454 122.593386 67.715697 122.925769 67.383314 
C 123.258151 67.050931 123.444908 66.60006 123.444908 66.13 
C 123.444908 65.65994 123.258151 65.209069 122.925769 64.876686 
C 122.593386 64.544303 122.142515 64.357546 121.672455 64.357546 
C 121.202394 64.357546 120.751523 64.544303 120.41914 64.876686 
C 120.086758 65.209069 119.900001 65.65994 119.900001 66.13 
C 119.900001 66.60006 120.086758 67.050931 120.41914 67.383314 
C 120.751523 67.715697 121.202394 67.902454 121.672455 67.902454 
z
" style="stroke:#000000;stroke-width:0.886227;"/>
    <path clip-path="url(#p91c54d7df9)" d="M 129.788818 44.252454 
C 130.258878 44.252454 130.70975 44.065697 131.042132 43.733314 
C 131.374515 43.400931 131.561272 42.95006 131.561272 42.48 
C 131.561272 42.00994 131.374515 41.559069 131.042132 41.226686 
C 130.70975 40.894303 130.258878 40.707546 129.788818 40.707546 
C 129.318758 40.707546 128.867887 40.894303 128.535504 41.226686 
C 128.203121 41.559069 128.016364 42.00994 128.016364 42.48 
C 128.016364 42.95006 128.203121 43.400931 128.535504 43.733314 
C 128.867887 44.065697 129.318758 44.252454 129.788818 44.252454 
z
" style="stroke:#000000;stroke-width:0.886227;"/>
    <path clip-path="url(#p91c54d7df9)" d="M 137.905182 83.254692 
C 138.375242 83.254692 138.826113 83.067935 139.158496 82.735552 
C 139.490879 82.403169 139.677636 81.952298 139.677636 81.482238 
C 139.677636 81.012178 139.490879 80.561306 139.158496 80.228924 
C 138.826113 79.896541 138.375242 79.709784 137.905182 79.709784 
C 137.435122 79.709784 136.98425 79.896541 136.651868 80.228924 
C 136.319485 80.561306 136.132728 81.012178 136.132728 81.482238 
C 136.132728 81.952298 136.319485 82.403169 136.651868 82.735552 
C 136.98425 83.067935 137.435122 83.254692 137.905182 83.254692 
z
" style="stroke:#000000;stroke-width:0.886227;"/>
    <path clip-path="url(#p91c54d7df9)" d="M 146.021545 98.912454 
C 146.491606 98.912454 146.942477 98.725697 147.27486 98.393314 
C 147.607242 98.060931 147.793999 97.61006 147.793999 97.14 
C 147.793999 96.66994 147.607242 96.219069 147.27486 95.886686 
C 146.942477 95.554303 146.491606 95.367546 146.021545 95.367546 
C 145.551485 95.367546 145.100614 95.554303 144.768231 95.886686 
C 144.435849 96.219069 144.249092 96.66994 144.249092 97.14 
C 144.249092 97.61006 144.435849 98.060931 144.768231 98.393314 
C 145.100614 98.725697 145.551485 98.912454 146.021545 98.912454 
z
" style="stroke:#000000;stroke-width:0.886227;"/>
    <path clip-path="url(#p91c54d7df9)" d="M 154.137909 46.377545 
C 154.607969 46.377545 155.05884 46.190788 155.391223 45.858405 
C 155.723606 45.526022 155.910363 45.075151 155.910363 44.605091 
C 155.910363 44.135031 155.723606 43.68416 155.391223 43.351777 
C 155.05884 43.019394 154.607969 42.832637 154.137909 42.832637 
C 153.667849 42.832637 153.216978 43.019394 152.884595 43.351777 
C 152.552212 43.68416 152.365455 44.135031 152.365455 44.605091 
C 152.365455 45.075151 152.552212 45.526022 152.884595 45.858405 
C 153.216978 46.190788 153.667849 46.377545 154.137909 46.377545 
z
" style="stroke:#000000;stroke-width:0.886227;"/>
    <path clip-path="url(#p91c54d7df9)" d="M 162.254273 75.284489 
C 162.724333 75.284489 163.175204 75.097732 163.507587 74.765349 
C 163.83997 74.432966 164.026727 73.982095 164.026727 73.512035 
C 164.026727 73.041975 163.83997 72.591104 163.507587 72.258721 
C 163.175204 71.926338 162.724333 71.739581 162.254273 71.739581 
C 161.784212 71.739581 161.333341 71.926338 161.000959 72.258721 
C 160.668576 72.591104 160.481819 73.041975 160.481819 73.512035 
C 160.481819 73.982095 160.668576 74.432966 161.000959 74.765349 
C 161.333341 75.097732 161.784212 75.284489 162.254273 75.284489 
z
" style="stroke:#000000;stroke-width:0.886227;"/>
    <path clip-path="url(#p91c54d7df9)" d="M 170.370636 81.554676 
C 170.840697 81.554676 171.291568 81.367919 171.623951 81.035536 
C 171.956333 80.703154 172.14309 80.252282 172.14309 79.782222 
C 172.14309 79.312162 171.956333 78.861291 171.623951 78.528908 
C 171.291568 78.196525 170.840697 78.009768 170.370636 78.009768 
C 169.900576 78.009768 169.449705 78.196525 169.117322 78.528908 
C 168.784939 78.861291 168.598183 79.312162 168.598183 79.782222 
C 168.598183 80.252282 168.784939 80.703154 169.117322 81.035536 
C 169.449705 81.367919 169.900576 81.554676 170.370636 81.554676 
z
" style="stroke:#000000;stroke-width:0.886227;"/>
    <path clip-path="url(#p91c54d7df9)" d="M 178.487 85.61861 
C 178.95706 85.61861 179.407931 85.431854 179.740314 85.099471 
C 180.072697 84.767088 180.259454 84.316217 180.259454 83.846157 
C 180.259454 83.376096 180.072697 82.925225 179.740314 82.592842 
C 179.407931 82.26046 178.95706 82.073703 178.487 82.073703 
C 178.01694 82.073703 177.566069 82.26046 177.233686 82.592842 
C 176.901303 82.925225 176.714546 83.376096 176.714546 83.846157 
C 176.714546 84.316217 176.901303 84.767088 177.233686 85.099471 
C 177.566069 85.431854 178.01694 85.61861 178.487 85.61861 
z
" style="stroke:#000000;stroke-width:0.886227;"/>
    <path clip-path="url(#p91c54d7df9)" d="M 186.603364 102.783739 
C 187.073424 102.783739 187.524295 102.596982 187.856678 102.2646 
C 188.189061 101.932217 188.375817 101.481346 188.375817 101.011285 
C 188.375817 100.541225 188.189061 100.090354 187.856678 99.757971 
C 187.524295 99.425588 187.073424 99.238832 186.603364 99.238832 
C 186.133303 99.238832 185.682432 99.425588 185.350049 99.757971 
C 185.017667 100.090354 184.83091 100.541225 184.83091 101.011285 
C 184.83091 101.481346 185.017667 101.932217 185.350049 102.2646 
C 185.682432 102.596982 186.133303 102.783739 186.603364 102.783739 
z
" style="stroke:#000000;stroke-width:0.886227;"/>
    <path clip-path="url(#p91c54d7df9)" d="M 194.719727 105.364642 
C 195.189788 105.364642 195.640659 105.177886 195.973041 104.845503 
C 196.305424 104.51312 196.492181 104.062249 196.492181 103.592189 
C 196.492181 103.122128 196.305424 102.671257 195.973041 102.338874 
C 195.640659 102.006492 195.189788 101.819735 194.719727 101.819735 
C 194.249667 101.819735 193.798796 102.006492 193.466413 102.338874 
C 193.13403 102.671257 192.947273 103.122128 192.947273 103.592189 
C 192.947273 104.062249 193.13403 104.51312 193.466413 104.845503 
C 193.798796 105.177886 194.249667 105.364642 194.719727 105.364642 
z
" style="stroke:#000000;stroke-width:0.886227;"/>
    <path clip-path="url(#p91c54d7df9)" d="M 202.836091 91.115193 
C 203.306151 91.115193 203.757022 90.928436 204.089405 90.596054 
C 204.421788 90.263671 204.608545 89.8128 204.608545 89.342739 
C 204.608545 88.872679 204.421788 88.421808 204.089405 88.089425 
C 203.757022 87.757042 203.306151 87.570286 202.836091 87.570286 
C 202.366031 87.570286 201.91516 87.757042 201.582777 88.089425 
C 201.250394 88.421808 201.063637 88.872679 201.063637 89.342739 
C 201.063637 89.8128 201.250394 90.263671 201.582777 90.596054 
C 201.91516 90.928436 202.366031 91.115193 202.836091 91.115193 
z
" style="stroke:#000000;stroke-width:0.886227;"/>
    <path clip-path="url(#p91c54d7df9)" d="M 210.952455 105.379861 
C 211.422515 105.379861 211.873386 105.193104 212.205769 104.860721 
C 212.538151 104.528338 212.724908 104.077467 212.724908 103.607407 
C 212.724908 103.137347 212.538151 102.686476 212.205769 102.354093 
C 211.873386 102.02171 211.422515 101.834953 210.952455 101.834953 
C 210.482394 101.834953 210.031523 102.02171 209.69914 102.354093 
C 209.366758 102.686476 209.180001 103.137347 209.180001 103.607407 
C 209.180001 104.077467 209.366758 104.528338 209.69914 104.860721 
C 210.031523 105.193104 210.482394 105.379861 210.952455 105.379861 
z
" style="stroke:#000000;stroke-width:0.886227;"/>
    <path clip-path="url(#p91c54d7df9)" d="M 219.068818 102.26742 
C 219.538878 102.26742 219.98975 102.080663 220.322132 101.748281 
C 220.654515 101.415898 220.841272 100.965027 220.841272 100.494967 
C 220.841272 100.024906 220.654515 99.574035 220.322132 99.241652 
C 219.98975 98.90927 219.538878 98.722513 219.068818 98.722513 
C 218.598758 98.722513 218.147887 98.90927 217.815504 99.241652 
C 217.483121 99.574035 217.296364 100.024906 217.296364 100.494967 
C 217.296364 100.965027 217.483121 101.415898 217.815504 101.748281 
C 218.147887 102.080663 218.598758 102.26742 219.068818 102.26742 
z
" style="stroke:#000000;stroke-width:0.886227;"/>
    <path clip-path="url(#p91c54d7df9)" d="M 227.185182 102.678088 
C 227.655242 102.678088 228.106113 102.491331 228.438496 102.158948 
C 228.770879 101.826565 228.957636 101.375694 228.957636 100.905634 
C 228.957636 100.435574 228.770879 99.984703 228.438496 99.65232 
C 228.106113 99.319937 227.655242 99.13318 227.185182 99.13318 
C 226.715122 99.13318 226.26425 99.319937 225.931868 99.65232 
C 225.599485 99.984703 225.412728 100.435574 225.412728 100.905634 
C 225.412728 101.375694 225.599485 101.826565 225.931868 102.158948 
C 226.26425 102.491331 226.715122 102.678088 227.185182 102.678088 
z
" style="stroke:#000000;stroke-width:0.886227;"/>
    <path clip-path="url(#p91c54d7df9)" d="M 235.301545 99.841419 
C 235.771606 99.841419 236.222477 99.654662 236.55486 99.322279 
C 236.887242 98.989896 237.073999 98.539025 237.073999 98.068965 
C 237.073999 97.598904 236.887242 97.148033 236.55486 96.815651 
C 236.222477 96.483268 235.771606 96.296511 235.301545 96.296511 
C 234.831485 96.296511 234.380614 96.483268 234.048231 96.815651 
C 233.715849 97.148033 233.529092 97.598904 233.529092 98.068965 
C 233.529092 98.539025 233.715849 98.989896 234.048231 99.322279 
C 234.380614 99.654662 234.831485 99.841419 235.301545 99.841419 
z
" style="stroke:#000000;stroke-width:0.886227;"/>
    <path clip-path="url(#p91c54d7df9)" d="M 243.417909 99.464354 
C 243.887969 99.464354 244.33884 99.277597 244.671223 98.945214 
C 245.003606 98.612832 245.190363 98.161961 245.190363 97.6919 
C 245.190363 97.22184 245.003606 96.770969 244.671223 96.438586 
C 244.33884 96.106203 243.887969 95.919446 243.417909 95.919446 
C 242.947849 95.919446 242.496978 96.106203 242.164595 96.438586 
C 241.832212 96.770969 241.645455 97.22184 241.645455 97.6919 
C 241.645455 98.161961 241.832212 98.612832 242.164595 98.945214 
C 242.496978 99.277597 242.947849 99.464354 243.417909 99.464354 
z
" style="stroke:#000000;stroke-width:0.886227;"/>
    <path clip-path="url(#p91c54d7df9)" d="M 251.534273 106.555428 
C 252.004333 106.555428 252.455204 106.368671 252.787587 106.036288 
C 253.11997 105.703905 253.306727 105.253034 253.306727 104.782974 
C 253.306727 104.312914 253.11997 103.862043 252.787587 103.52966 
C 252.455204 103.197277 252.004333 103.01052 251.534273 103.01052 
C 251.064212 103.01052 250.613341 103.197277 250.280959 103.52966 
C 249.948576 103.862043 249.761819 104.312914 249.761819 104.782974 
C 249.761819 105.253034 249.948576 105.703905 250.280959 106.036288 
C 250.613341 106.368671 251.064212 106.555428 251.534273 106.555428 
z
" style="stroke:#000000;stroke-width:0.886227;"/>
    <path clip-path="url(#p91c54d7df9)" d="M 259.650636 109.445152 
C 260.120697 109.445152 260.571568 109.258395 260.903951 108.926012 
C 261.236333 108.593629 261.42309 108.142758 261.42309 107.672698 
C 261.42309 107.202638 261.236333 106.751767 260.903951 106.419384 
C 260.571568 106.087001 260.120697 105.900244 259.650636 105.900244 
C 259.180576 105.900244 258.729705 106.087001 258.397322 106.419384 
C 258.064939 106.751767 257.878183 107.202638 257.878183 107.672698 
C 257.878183 108.142758 258.064939 108.593629 258.397322 108.926012 
C 258.729705 109.258395 259.180576 109.445152 259.650636 109.445152 
z
" style="stroke:#000000;stroke-width:0.886227;"/>
    <path clip-path="url(#p91c54d7df9)" d="M 267.767 101.958389 
C 268.23706 101.958389 268.687931 101.771632 269.020314 101.439249 
C 269.352697 101.106866 269.539454 100.655995 269.539454 100.185935 
C 269.539454 99.715875 269.352697 99.265004 269.020314 98.932621 
C 268.687931 98.600238 268.23706 98.413481 267.767 98.413481 
C 267.29694 98.413481 266.846069 98.600238 266.513686 98.932621 
C 266.181303 99.265004 265.994546 99.715875 265.994546 100.185935 
C 265.994546 100.655995 266.181303 101.106866 266.513686 101.439249 
C 266.846069 101.771632 267.29694 101.958389 267.767 101.958389 
z
" style="stroke:#000000;stroke-width:0.886227;"/>
    <path clip-path="url(#p91c54d7df9)" d="M 275.883364 113.46827 
C 276.353424 113.46827 276.804295 113.281513 277.136678 112.94913 
C 277.469061 112.616748 277.655817 112.165877 277.655817 111.695816 
C 277.655817 111.225756 277.469061 110.774885 277.136678 110.442502 
C 276.804295 110.110119 276.353424 109.923362 275.883364 109.923362 
C 275.413303 109.923362 274.962432 110.110119 274.630049 110.442502 
C 274.297667 110.774885 274.11091 111.225756 274.11091 111.695816 
C 274.11091 112.165877 274.297667 112.616748 274.630049 112.94913 
C 274.962432 113.281513 275.413303 113.46827 275.883364 113.46827 
z
" style="stroke:#000000;stroke-width:0.886227;"/>
    <path clip-path="url(#p91c54d7df9)" d="M 283.999727 116.665201 
C 284.469788 116.665201 284.920659 116.478444 285.253041 116.146061 
C 285.585424 115.813678 285.772181 115.362807 285.772181 114.892747 
C 285.772181 114.422687 285.585424 113.971816 285.253041 113.639433 
C 284.920659 113.30705 284.469788 113.120293 283.999727 113.120293 
C 283.529667 113.120293 283.078796 113.30705 282.746413 113.639433 
C 282.41403 113.971816 282.227273 114.422687 282.227273 114.892747 
C 282.227273 115.362807 282.41403 115.813678 282.746413 116.146061 
C 283.078796 116.478444 283.529667 116.665201 283.999727 116.665201 
z
" style="stroke:#000000;stroke-width:0.886227;"/>
    <path clip-path="url(#p91c54d7df9)" d="M 292.116091 118.43061 
C 292.586151 118.43061 293.037022 118.243853 293.369405 117.911471 
C 293.701788 117.579088 293.888545 117.128217 293.888545 116.658157 
C 293.888545 116.188096 293.701788 115.737225 293.369405 115.404842 
C 293.037022 115.07246 292.586151 114.885703 292.116091 114.885703 
C 291.646031 114.885703 291.19516 115.07246 290.862777 115.404842 
C 290.530394 115.737225 290.343637 116.188096 290.343637 116.658157 
C 290.343637 117.128217 290.530394 117.579088 290.862777 117.911471 
C 291.19516 118.243853 291.646031 118.43061 292.116091 118.43061 
z
" style="stroke:#000000;stroke-width:0.886227;"/>
    <path clip-path="url(#p91c54d7df9)" d="M 300.232455 122.635833 
C 300.702515 122.635833 301.153386 122.449076 301.485769 122.116693 
C 301.818151 121.78431 302.004908 121.333439 302.004908 120.863379 
C 302.004908 120.393319 301.818151 119.942448 301.485769 119.610065 
C 301.153386 119.277682 300.702515 119.090925 300.232455 119.090925 
C 299.762394 119.090925 299.311523 119.277682 298.97914 119.610065 
C 298.646758 119.942448 298.460001 120.393319 298.460001 120.863379 
C 298.460001 121.333439 298.646758 121.78431 298.97914 122.116693 
C 299.311523 122.449076 299.762394 122.635833 300.232455 122.635833 
z
" style="stroke:#000000;stroke-width:0.886227;"/>
    <path clip-path="url(#p91c54d7df9)" d="M 308.348818 128.4588 
C 308.818878 128.4588 309.26975 128.272043 309.602132 127.93966 
C 309.934515 127.607277 310.121272 127.156406 310.121272 126.686346 
C 310.121272 126.216286 309.934515 125.765415 309.602132 125.433032 
C 309.26975 125.100649 308.818878 124.913892 308.348818 124.913892 
C 307.878758 124.913892 307.427887 125.100649 307.095504 125.433032 
C 306.763121 125.765415 306.576364 126.216286 306.576364 126.686346 
C 306.576364 127.156406 306.763121 127.607277 307.095504 127.93966 
C 307.427887 128.272043 307.878758 128.4588 308.348818 128.4588 
z
" style="stroke:#000000;stroke-width:0.886227;"/>
    <path clip-path="url(#p91c54d7df9)" d="M 316.465182 122.992292 
C 316.935242 122.992292 317.386113 122.805535 317.718496 122.473152 
C 318.050879 122.140769 318.237636 121.689898 318.237636 121.219838 
C 318.237636 120.749778 318.050879 120.298906 317.718496 119.966524 
C 317.386113 119.634141 316.935242 119.447384 316.465182 119.447384 
C 315.995122 119.447384 315.54425 119.634141 315.211868 119.966524 
C 314.879485 120.298906 314.692728 120.749778 314.692728 121.219838 
C 314.692728 121.689898 314.879485 122.140769 315.211868 122.473152 
C 315.54425 122.805535 315.995122 122.992292 316.465182 122.992292 
z
" style="stroke:#000000;stroke-width:0.886227;"/>
    <path clip-path="url(#p91c54d7df9)" d="M 324.581545 122.331222 
C 325.051606 122.331222 325.502477 122.144465 325.83486 121.812083 
C 326.167242 121.4797 326.353999 121.028829 326.353999 120.558768 
C 326.353999 120.088708 326.167242 119.637837 325.83486 119.305454 
C 325.502477 118.973072 325.051606 118.786315 324.581545 118.786315 
C 324.111485 118.786315 323.660614 118.973072 323.328231 119.305454 
C 322.995849 119.637837 322.809092 120.088708 322.809092 120.558768 
C 322.809092 121.028829 322.995849 121.4797 323.328231 121.812083 
C 323.660614 122.144465 324.111485 122.331222 324.581545 122.331222 
z
" style="stroke:#000000;stroke-width:0.886227;"/>
    <path clip-path="url(#p91c54d7df9)" d="M 332.697909 119.36124 
C 333.167969 119.36124 333.61884 119.174483 333.951223 118.8421 
C 334.283606 118.509717 334.470363 118.058846 334.470363 117.588786 
C 334.470363 117.118726 334.283606 116.667854 333.951223 116.335472 
C 333.61884 116.003089 333.167969 115.816332 332.697909 115.816332 
C 332.227849 115.816332 331.776978 116.003089 331.444595 116.335472 
C 331.112212 116.667854 330.925455 117.118726 330.925455 117.588786 
C 330.925455 118.058846 331.112212 118.509717 331.444595 118.8421 
C 331.776978 119.174483 332.227849 119.36124 332.697909 119.36124 
z
" style="stroke:#000000;stroke-width:0.886227;"/>
    <path clip-path="url(#p91c54d7df9)" d="M 340.814273 116.381445 
C 341.284333 116.381445 341.735204 116.194689 342.067587 115.862306 
C 342.39997 115.529923 342.586727 115.079052 342.586727 114.608992 
C 342.586727 114.138931 342.39997 113.68806 342.067587 113.355678 
C 341.735204 113.023295 341.284333 112.836538 340.814273 112.836538 
C 340.344212 112.836538 339.893341 113.023295 339.560959 113.355678 
C 339.228576 113.68806 339.041819 114.138931 339.041819 114.608992 
C 339.041819 115.079052 339.228576 115.529923 339.560959 115.862306 
C 339.893341 116.194689 340.344212 116.381445 340.814273 116.381445 
z
" style="stroke:#000000;stroke-width:0.886227;"/>
    <path clip-path="url(#p91c54d7df9)" d="M 348.930636 116.125639 
C 349.400697 116.125639 349.851568 115.938882 350.183951 115.606499 
C 350.516333 115.274116 350.70309 114.823245 350.70309 114.353185 
C 350.70309 113.883124 350.516333 113.432253 350.183951 113.099871 
C 349.851568 112.767488 349.400697 112.580731 348.930636 112.580731 
C 348.460576 112.580731 348.009705 112.767488 347.677322 113.099871 
C 347.344939 113.432253 347.158183 113.883124 347.158183 114.353185 
C 347.158183 114.823245 347.344939 115.274116 347.677322 115.606499 
C 348.009705 115.938882 348.460576 116.125639 348.930636 116.125639 
z
" style="stroke:#000000;stroke-width:0.886227;"/>
    <path clip-path="url(#p91c54d7df9)" d="M 357.047 114.568568 
C 357.51706 114.568568 357.967931 114.381811 358.300314 114.049428 
C 358.632697 113.717045 358.819454 113.266174 358.819454 112.796114 
C 358.819454 112.326054 358.632697 111.875183 358.300314 111.5428 
C 357.967931 111.210417 357.51706 111.02366 357.047 111.02366 
C 356.57694 111.02366 356.126069 111.210417 355.793686 111.5428 
C 355.461303 111.875183 355.274546 112.326054 355.274546 112.796114 
C 355.274546 113.266174 355.461303 113.717045 355.793686 114.049428 
C 356.126069 114.381811 356.57694 114.568568 357.047 114.568568 
z
" style="stroke:#000000;stroke-width:0.886227;"/>
    <path clip-path="url(#p91c54d7df9)" d="M 365.163364 112.466995 
C 365.633424 112.466995 366.084295 112.280238 366.416678 111.947855 
C 366.749061 111.615472 366.935817 111.164601 366.935817 110.694541 
C 366.935817 110.224481 366.749061 109.77361 366.416678 109.441227 
C 366.084295 109.108844 365.633424 108.922087 365.163364 108.922087 
C 364.693303 108.922087 364.242432 109.108844 363.910049 109.441227 
C 363.577667 109.77361 363.39091 110.224481 363.39091 110.694541 
C 363.39091 111.164601 363.577667 111.615472 363.910049 111.947855 
C 364.242432 112.280238 364.693303 112.466995 365.163364 112.466995 
z
" style="stroke:#000000;stroke-width:0.886227;"/>
    <path clip-path="url(#p91c54d7df9)" d="M 373.279727 111.463037 
C 373.749788 111.463037 374.200659 111.27628 374.533041 110.943897 
C 374.865424 110.611514 375.052181 110.160643 375.052181 109.690583 
C 375.052181 109.220523 374.865424 108.769652 374.533041 108.437269 
C 374.200659 108.104886 373.749788 107.918129 373.279727 107.918129 
C 372.809667 107.918129 372.358796 108.104886 372.026413 108.437269 
C 371.69403 108.769652 371.507273 109.220523 371.507273 109.690583 
C 371.507273 110.160643 371.69403 110.611514 372.026413 110.943897 
C 372.358796 111.27628 372.809667 111.463037 373.279727 111.463037 
z
" style="stroke:#000000;stroke-width:0.886227;"/>
    <path clip-path="url(#p91c54d7df9)" d="M 381.396091 108.904072 
C 381.866151 108.904072 382.317022 108.717316 382.649405 108.384933 
C 382.981788 108.05255 383.168545 107.601679 383.168545 107.131619 
C 383.168545 106.661558 382.981788 106.210687 382.649405 105.878304 
C 382.317022 105.545922 381.866151 105.359165 381.396091 105.359165 
C 380.926031 105.359165 380.47516 105.545922 380.142777 105.878304 
C 379.810394 106.210687 379.623637 106.661558 379.623637 107.131619 
C 379.623637 107.601679 379.810394 108.05255 380.142777 108.384933 
C 380.47516 108.717316 380.926031 108.904072 381.396091 108.904072 
z
" style="stroke:#000000;stroke-width:0.886227;"/>
    <path clip-path="url(#p91c54d7df9)" d="M 389.512455 101.635147 
C 389.982515 101.635147 390.433386 101.44839 390.765769 101.116007 
C 391.098151 100.783625 391.284908 100.332753 391.284908 99.862693 
C 391.284908 99.392633 391.098151 98.941762 390.765769 98.609379 
C 390.433386 98.276996 389.982515 98.090239 389.512455 98.090239 
C 389.042394 98.090239 388.591523 98.276996 388.25914 98.609379 
C 387.926758 98.941762 387.740001 99.392633 387.740001 99.862693 
C 387.740001 100.332753 387.926758 100.783625 388.25914 101.116007 
C 388.591523 101.44839 389.042394 101.635147 389.512455 101.635147 
z
" style="stroke:#000000;stroke-width:0.886227;"/>
    <path clip-path="url(#p91c54d7df9)" d="M 397.628818 98.530305 
C 398.098878 98.530305 398.54975 98.343548 398.882132 98.011165 
C 399.214515 97.678782 399.401272 97.227911 399.401272 96.757851 
C 399.401272 96.287791 399.214515 95.836919 398.882132 95.504537 
C 398.54975 95.172154 398.098878 94.985397 397.628818 94.985397 
C 397.158758 94.985397 396.707887 95.172154 396.375504 95.504537 
C 396.043121 95.836919 395.856364 96.287791 395.856364 96.757851 
C 395.856364 97.227911 396.043121 97.678782 396.375504 98.011165 
C 396.707887 98.343548 397.158758 98.530305 397.628818 98.530305 
z
" style="stroke:#000000;stroke-width:0.886227;"/>
    <path clip-path="url(#p91c54d7df9)" d="M 405.745182 95.987866 
C 406.215242 95.987866 406.666113 95.801109 406.998496 95.468726 
C 407.330879 95.136343 407.517636 94.685472 407.517636 94.215412 
C 407.517636 93.745352 407.330879 93.294481 406.998496 92.962098 
C 406.666113 92.629715 406.215242 92.442958 405.745182 92.442958 
C 405.275122 92.442958 404.82425 92.629715 404.491868 92.962098 
C 404.159485 93.294481 403.972728 93.745352 403.972728 94.215412 
C 403.972728 94.685472 404.159485 95.136343 404.491868 95.468726 
C 404.82425 95.801109 405.275122 95.987866 405.745182 95.987866 
z
" style="stroke:#000000;stroke-width:0.886227;"/>
    <path clip-path="url(#p91c54d7df9)" d="M 413.861545 92.49838 
C 414.331606 92.49838 414.782477 92.311623 415.11486 91.97924 
C 415.447242 91.646857 415.633999 91.195986 415.633999 90.725926 
C 415.633999 90.255866 415.447242 89.804995 415.11486 89.472612 
C 414.782477 89.140229 414.331606 88.953472 413.861545 88.953472 
C 413.391485 88.953472 412.940614 89.140229 412.608231 89.472612 
C 412.275849 89.804995 412.089092 90.255866 412.089092 90.725926 
C 412.089092 91.195986 412.275849 91.646857 412.608231 91.97924 
C 412.940614 92.311623 413.391485 92.49838 413.861545 92.49838 
z
" style="stroke:#000000;stroke-width:0.886227;"/>
    <path clip-path="url(#p91c54d7df9)" d="M 421.977909 88.84968 
C 422.447969 88.84968 422.89884 88.662923 423.231223 88.33054 
C 423.563606 87.998157 423.750363 87.547286 423.750363 87.077226 
C 423.750363 86.607166 423.563606 86.156295 423.231223 85.823912 
C 422.89884 85.491529 422.447969 85.304772 421.977909 85.304772 
C 421.507849 85.304772 421.056978 85.491529 420.724595 85.823912 
C 420.392212 86.156295 420.205455 86.607166 420.205455 87.077226 
C 420.205455 87.547286 420.392212 87.998157 420.724595 88.33054 
C 421.056978 88.662923 421.507849 88.84968 421.977909 88.84968 
z
" style="stroke:#000000;stroke-width:0.886227;"/>
    <path clip-path="url(#p91c54d7df9)" d="M 430.094273 88.176783 
C 430.564333 88.176783 431.015204 87.990027 431.347587 87.657644 
C 431.67997 87.325261 431.866727 86.87439 431.866727 86.40433 
C 431.866727 85.934269 431.67997 85.483398 431.347587 85.151015 
C 431.015204 84.818633 430.564333 84.631876 430.094273 84.631876 
C 429.624212 84.631876 429.173341 84.818633 428.840959 85.151015 
C 428.508576 85.483398 428.321819 85.934269 428.321819 86.40433 
C 428.321819 86.87439 428.508576 87.325261 428.840959 87.657644 
C 429.173341 87.990027 429.624212 88.176783 430.094273 88.176783 
z
" style="stroke:#000000;stroke-width:0.886227;"/>
    <path clip-path="url(#p91c54d7df9)" d="M 438.210636 85.94176 
C 438.680697 85.94176 439.131568 85.755003 439.463951 85.42262 
C 439.796333 85.090237 439.98309 84.639366 439.98309 84.169306 
C 439.98309 83.699246 439.796333 83.248375 439.463951 82.915992 
C 439.131568 82.583609 438.680697 82.396852 438.210636 82.396852 
C 437.740576 82.396852 437.289705 82.583609 436.957322 82.915992 
C 436.624939 83.248375 436.438183 83.699246 436.438183 84.169306 
C 436.438183 84.639366 436.624939 85.090237 436.957322 85.42262 
C 437.289705 85.755003 437.740576 85.94176 438.210636 85.94176 
z
" style="stroke:#000000;stroke-width:0.886227;"/>
    <path clip-path="url(#p91c54d7df9)" d="M 446.327 95.924283 
C 446.79706 95.924283 447.247931 95.737526 447.580314 95.405143 
C 447.912697 95.072761 448.099454 94.621889 448.099454 94.151829 
C 448.099454 93.681769 447.912697 93.230898 447.580314 92.898515 
C 447.247931 92.566132 446.79706 92.379375 446.327 92.379375 
C 445.85694 92.379375 445.406069 92.566132 445.073686 92.898515 
C 444.741303 93.230898 444.554546 93.681769 444.554546 94.151829 
C 444.554546 94.621889 444.741303 95.072761 445.073686 95.405143 
C 445.406069 95.737526 445.85694 95.924283 446.327 95.924283 
z
" style="stroke:#000000;stroke-width:0.886227;"/>
    <path clip-path="url(#p91c54d7df9)" d="M 454.443364 98.412505 
C 454.913424 98.412505 455.364295 98.225748 455.696678 97.893366 
C 456.029061 97.560983 456.215817 97.110112 456.215817 96.640051 
C 456.215817 96.169991 456.029061 95.71912 455.696678 95.386737 
C 455.364295 95.054355 454.913424 94.867598 454.443364 94.867598 
C 453.973303 94.867598 453.522432 95.054355 453.190049 95.386737 
C 452.857667 95.71912 452.67091 96.169991 452.67091 96.640051 
C 452.67091 97.110112 452.857667 97.560983 453.190049 97.893366 
C 453.522432 98.225748 453.973303 98.412505 454.443364 98.412505 
z
" style="stroke:#000000;stroke-width:0.886227;"/>
    <path clip-path="url(#p91c54d7df9)" d="M 462.559727 99.644894 
C 463.029788 99.644894 463.480659 99.458138 463.813041 99.125755 
C 464.145424 98.793372 464.332181 98.342501 464.332181 97.872441 
C 464.332181 97.40238 464.145424 96.951509 463.813041 96.619126 
C 463.480659 96.286744 463.029788 96.099987 462.559727 96.099987 
C 462.089667 96.099987 461.638796 96.286744 461.306413 96.619126 
C 460.97403 96.951509 460.787273 97.40238 460.787273 97.872441 
C 460.787273 98.342501 460.97403 98.793372 461.306413 99.125755 
C 461.638796 99.458138 462.089667 99.644894 462.559727 99.644894 
z
" style="stroke:#000000;stroke-width:0.886227;"/>
   </g>
   <g id="line2d_41">
    <path clip-path="url(#p91c54d7df9)" d="M 81.090636 17.28 
L 89.207 17.28 
L 97.323364 17.28 
L 105.439727 101.930909 
L 113.556091 91.671872 
L 121.672455 66.13 
L 129.788818 42.48 
L 137.905182 81.482238 
L 146.021545 97.14 
L 154.137909 44.605091 
L 162.254273 73.512035 
L 170.370636 79.782222 
L 178.487 83.846157 
L 186.603364 101.011285 
L 194.719727 103.592189 
L 202.836091 89.342739 
L 210.952455 103.607407 
L 219.068818 100.494967 
L 227.185182 100.905634 
L 235.301545 98.068965 
L 243.417909 97.6919 
L 251.534273 104.782974 
L 259.650636 107.672698 
L 267.767 100.185935 
L 275.883364 111.695816 
L 283.999727 114.892747 
L 292.116091 116.658157 
L 300.232455 120.863379 
L 308.348818 126.686346 
L 316.465182 121.219838 
L 324.581545 120.558768 
L 332.697909 117.588786 
L 340.814273 114.608992 
L 348.930636 114.353185 
L 357.047 112.796114 
L 365.163364 110.694541 
L 373.279727 109.690583 
L 381.396091 107.131619 
L 389.512455 99.862693 
L 397.628818 96.757851 
L 405.745182 94.215412 
L 413.861545 90.725926 
L 421.977909 87.077226 
L 430.094273 86.40433 
L 438.210636 84.169306 
L 446.327 94.151829 
L 454.443364 96.640051 
L 462.559727 97.872441 
" style="fill:none;stroke:#000000;stroke-width:0.886227;"/>
   </g>
  </g>
 </g>
 <defs>
  <clipPath id="p91c54d7df9">
   <rect height="221.76" width="446.4" x="44.567" y="7.2"/>
  </clipPath>
 </defs>
</svg>
