<?xml version="1.0" encoding="utf-8" standalone="no"?>
<!DOCTYPE svg PUBLIC "-//W3C//DTD SVG 1.1//EN"
  "http://www.w3.org/Graphics/SVG/1.1/DTD/svg11.dtd">
<!-- Created with matplotlib (https://matplotlib.org/) -->
<svg height="264.672687pt" version="1.1" viewBox="0 0 498.167 264.672687" width="498.167pt" xmlns="http://www.w3.org/2000/svg" xmlns:xlink="http://www.w3.org/1999/xlink">
 <defs>
  <style type="text/css">
*{stroke-linecap:butt;stroke-linejoin:round;}
  </style>
 </defs>
 <g id="figure_1">
  <g id="patch_1">
   <path d="M 0 264.672687 
L 498.167 264.672687 
L 498.167 0 
L 0 0 
z
" style="fill:#ffffff;stroke:#ffffff;stroke-linejoin:miter;"/>
  </g>
  <g id="axes_1">
   <g id="patch_2">
    <path d="M 44.567 228.96 
L 490.967 228.96 
L 490.967 7.2 
L 44.567 7.2 
z
" style="fill:#ffffff;stroke:#7f7f7f;stroke-linejoin:miter;"/>
   </g>
   <g id="matplotlib.axis_1">
    <g id="xtick_1">
     <g id="line2d_1">
      <path clip-path="url(#p97472193ad)" d="M 64.857909 228.96 
L 64.857909 7.2 
" style="fill:none;stroke:#e5e5e5;stroke-width:0.8;"/>
     </g>
     <g id="line2d_2">
      <path d="M 64.857909 228.96 
" style="fill:none;stroke:#000000;stroke-width:1.5;"/>
      <defs>
       <path d="M 0 0 
L 0 2.75 
" id="m24e97c700c" style="stroke:#000000;"/>
      </defs>
      <g>
       <use style="stroke:#000000;" x="64.857909" xlink:href="#m24e97c700c" y="228.96"/>
      </g>
     </g>
     <g id="text_1">
      <!-- 1 -->
      <defs>
       <path d="M 12.40625 8.296875 
L 28.515625 8.296875 
L 28.515625 63.921875 
L 10.984375 60.40625 
L 10.984375 69.390625 
L 28.421875 72.90625 
L 38.28125 72.90625 
L 38.28125 8.296875 
L 54.390625 8.296875 
L 54.390625 0 
L 12.40625 0 
z
" id="DejaVuSans-49"/>
      </defs>
      <g transform="translate(62.058409 240.596625)scale(0.088 -0.088)">
       <use xlink:href="#DejaVuSans-49"/>
      </g>
     </g>
    </g>
    <g id="xtick_2">
     <g id="line2d_3">
      <path clip-path="url(#p97472193ad)" d="M 200.130636 228.96 
L 200.130636 7.2 
" style="fill:none;stroke:#e5e5e5;stroke-width:0.8;"/>
     </g>
     <g id="line2d_4">
      <path d="M 200.130636 228.96 
" style="fill:none;stroke:#000000;stroke-width:1.5;"/>
      <g>
       <use style="stroke:#000000;" x="200.130636" xlink:href="#m24e97c700c" y="228.96"/>
      </g>
     </g>
     <g id="text_2">
      <!-- 2 -->
      <defs>
       <path d="M 19.1875 8.296875 
L 53.609375 8.296875 
L 53.609375 0 
L 7.328125 0 
L 7.328125 8.296875 
Q 12.9375 14.109375 22.625 23.890625 
Q 32.328125 33.6875 34.8125 36.53125 
Q 39.546875 41.84375 41.421875 45.53125 
Q 43.3125 49.21875 43.3125 52.78125 
Q 43.3125 58.59375 39.234375 62.25 
Q 35.15625 65.921875 28.609375 65.921875 
Q 23.96875 65.921875 18.8125 64.3125 
Q 13.671875 62.703125 7.8125 59.421875 
L 7.8125 69.390625 
Q 13.765625 71.78125 18.9375 73 
Q 24.125 74.21875 28.421875 74.21875 
Q 39.75 74.21875 46.484375 68.546875 
Q 53.21875 62.890625 53.21875 53.421875 
Q 53.21875 48.921875 51.53125 44.890625 
Q 49.859375 40.875 45.40625 35.40625 
Q 44.1875 33.984375 37.640625 27.21875 
Q 31.109375 20.453125 19.1875 8.296875 
z
" id="DejaVuSans-50"/>
      </defs>
      <g transform="translate(197.331136 240.596625)scale(0.088 -0.088)">
       <use xlink:href="#DejaVuSans-50"/>
      </g>
     </g>
    </g>
    <g id="xtick_3">
     <g id="line2d_5">
      <path clip-path="url(#p97472193ad)" d="M 335.403364 228.96 
L 335.403364 7.2 
" style="fill:none;stroke:#e5e5e5;stroke-width:0.8;"/>
     </g>
     <g id="line2d_6">
      <path d="M 335.403364 228.96 
" style="fill:none;stroke:#000000;stroke-width:1.5;"/>
      <g>
       <use style="stroke:#000000;" x="335.403364" xlink:href="#m24e97c700c" y="228.96"/>
      </g>
     </g>
     <g id="text_3">
      <!-- 3 -->
      <defs>
       <path d="M 40.578125 39.3125 
Q 47.65625 37.796875 51.625 33 
Q 55.609375 28.21875 55.609375 21.1875 
Q 55.609375 10.40625 48.1875 4.484375 
Q 40.765625 -1.421875 27.09375 -1.421875 
Q 22.515625 -1.421875 17.65625 -0.515625 
Q 12.796875 0.390625 7.625 2.203125 
L 7.625 11.71875 
Q 11.71875 9.328125 16.59375 8.109375 
Q 21.484375 6.890625 26.8125 6.890625 
Q 36.078125 6.890625 40.9375 10.546875 
Q 45.796875 14.203125 45.796875 21.1875 
Q 45.796875 27.640625 41.28125 31.265625 
Q 36.765625 34.90625 28.71875 34.90625 
L 20.21875 34.90625 
L 20.21875 43.015625 
L 29.109375 43.015625 
Q 36.375 43.015625 40.234375 45.921875 
Q 44.09375 48.828125 44.09375 54.296875 
Q 44.09375 59.90625 40.109375 62.90625 
Q 36.140625 65.921875 28.71875 65.921875 
Q 24.65625 65.921875 20.015625 65.03125 
Q 15.375 64.15625 9.8125 62.3125 
L 9.8125 71.09375 
Q 15.4375 72.65625 20.34375 73.4375 
Q 25.25 74.21875 29.59375 74.21875 
Q 40.828125 74.21875 47.359375 69.109375 
Q 53.90625 64.015625 53.90625 55.328125 
Q 53.90625 49.265625 50.4375 45.09375 
Q 46.96875 40.921875 40.578125 39.3125 
z
" id="DejaVuSans-51"/>
      </defs>
      <g transform="translate(332.603864 240.596625)scale(0.088 -0.088)">
       <use xlink:href="#DejaVuSans-51"/>
      </g>
     </g>
    </g>
    <g id="xtick_4">
     <g id="line2d_7">
      <path clip-path="url(#p97472193ad)" d="M 470.676091 228.96 
L 470.676091 7.2 
" style="fill:none;stroke:#e5e5e5;stroke-width:0.8;"/>
     </g>
     <g id="line2d_8">
      <path d="M 470.676091 228.96 
" style="fill:none;stroke:#000000;stroke-width:1.5;"/>
      <g>
       <use style="stroke:#000000;" x="470.676091" xlink:href="#m24e97c700c" y="228.96"/>
      </g>
     </g>
     <g id="text_4">
      <!-- 4 -->
      <defs>
       <path d="M 37.796875 64.3125 
L 12.890625 25.390625 
L 37.796875 25.390625 
z
M 35.203125 72.90625 
L 47.609375 72.90625 
L 47.609375 25.390625 
L 58.015625 25.390625 
L 58.015625 17.1875 
L 47.609375 17.1875 
L 47.609375 0 
L 37.796875 0 
L 37.796875 17.1875 
L 4.890625 17.1875 
L 4.890625 26.703125 
z
" id="DejaVuSans-52"/>
      </defs>
      <g transform="translate(467.876591 240.596625)scale(0.088 -0.088)">
       <use xlink:href="#DejaVuSans-52"/>
      </g>
     </g>
    </g>
    <g id="xtick_5">
     <g id="line2d_9">
      <path clip-path="url(#p97472193ad)" d="M 132.494273 228.96 
L 132.494273 7.2 
" style="fill:none;stroke:#fafafa;"/>
     </g>
     <g id="line2d_10">
      <path d="M 132.494273 228.96 
" style="fill:none;stroke:#000000;stroke-width:1.5;"/>
      <defs>
       <path d="M 0 0 
L 0 1.375 
" id="madb0c59e24" style="stroke:#000000;"/>
      </defs>
      <g>
       <use style="stroke:#000000;" x="132.494273" xlink:href="#madb0c59e24" y="228.96"/>
      </g>
     </g>
    </g>
    <g id="xtick_6">
     <g id="line2d_11">
      <path clip-path="url(#p97472193ad)" d="M 267.767 228.96 
L 267.767 7.2 
" style="fill:none;stroke:#fafafa;"/>
     </g>
     <g id="line2d_12">
      <path d="M 267.767 228.96 
" style="fill:none;stroke:#000000;stroke-width:1.5;"/>
      <g>
       <use style="stroke:#000000;" x="267.767" xlink:href="#madb0c59e24" y="228.96"/>
      </g>
     </g>
    </g>
    <g id="xtick_7">
     <g id="line2d_13">
      <path clip-path="url(#p97472193ad)" d="M 403.039727 228.96 
L 403.039727 7.2 
" style="fill:none;stroke:#fafafa;"/>
     </g>
     <g id="line2d_14">
      <path d="M 403.039727 228.96 
" style="fill:none;stroke:#000000;stroke-width:1.5;"/>
      <g>
       <use style="stroke:#000000;" x="403.039727" xlink:href="#madb0c59e24" y="228.96"/>
      </g>
     </g>
    </g>
    <g id="text_5">
     <!-- Resolution -->
     <defs>
      <path d="M 44.390625 34.1875 
Q 47.5625 33.109375 50.5625 29.59375 
Q 53.5625 26.078125 56.59375 19.921875 
L 66.609375 0 
L 56 0 
L 46.6875 18.703125 
Q 43.0625 26.03125 39.671875 28.421875 
Q 36.28125 30.8125 30.421875 30.8125 
L 19.671875 30.8125 
L 19.671875 0 
L 9.8125 0 
L 9.8125 72.90625 
L 32.078125 72.90625 
Q 44.578125 72.90625 50.734375 67.671875 
Q 56.890625 62.453125 56.890625 51.90625 
Q 56.890625 45.015625 53.6875 40.46875 
Q 50.484375 35.9375 44.390625 34.1875 
z
M 19.671875 64.796875 
L 19.671875 38.921875 
L 32.078125 38.921875 
Q 39.203125 38.921875 42.84375 42.21875 
Q 46.484375 45.515625 46.484375 51.90625 
Q 46.484375 58.296875 42.84375 61.546875 
Q 39.203125 64.796875 32.078125 64.796875 
z
" id="DejaVuSans-82"/>
      <path d="M 56.203125 29.59375 
L 56.203125 25.203125 
L 14.890625 25.203125 
Q 15.484375 15.921875 20.484375 11.0625 
Q 25.484375 6.203125 34.421875 6.203125 
Q 39.59375 6.203125 44.453125 7.46875 
Q 49.3125 8.734375 54.109375 11.28125 
L 54.109375 2.78125 
Q 49.265625 0.734375 44.1875 -0.34375 
Q 39.109375 -1.421875 33.890625 -1.421875 
Q 20.796875 -1.421875 13.15625 6.1875 
Q 5.515625 13.8125 5.515625 26.8125 
Q 5.515625 40.234375 12.765625 48.109375 
Q 20.015625 56 32.328125 56 
Q 43.359375 56 49.78125 48.890625 
Q 56.203125 41.796875 56.203125 29.59375 
z
M 47.21875 32.234375 
Q 47.125 39.59375 43.09375 43.984375 
Q 39.0625 48.390625 32.421875 48.390625 
Q 24.90625 48.390625 20.390625 44.140625 
Q 15.875 39.890625 15.1875 32.171875 
z
" id="DejaVuSans-101"/>
      <path d="M 44.28125 53.078125 
L 44.28125 44.578125 
Q 40.484375 46.53125 36.375 47.5 
Q 32.28125 48.484375 27.875 48.484375 
Q 21.1875 48.484375 17.84375 46.4375 
Q 14.5 44.390625 14.5 40.28125 
Q 14.5 37.15625 16.890625 35.375 
Q 19.28125 33.59375 26.515625 31.984375 
L 29.59375 31.296875 
Q 39.15625 29.25 43.1875 25.515625 
Q 47.21875 21.78125 47.21875 15.09375 
Q 47.21875 7.46875 41.1875 3.015625 
Q 35.15625 -1.421875 24.609375 -1.421875 
Q 20.21875 -1.421875 15.453125 -0.5625 
Q 10.6875 0.296875 5.421875 2 
L 5.421875 11.28125 
Q 10.40625 8.6875 15.234375 7.390625 
Q 20.0625 6.109375 24.8125 6.109375 
Q 31.15625 6.109375 34.5625 8.28125 
Q 37.984375 10.453125 37.984375 14.40625 
Q 37.984375 18.0625 35.515625 20.015625 
Q 33.0625 21.96875 24.703125 23.78125 
L 21.578125 24.515625 
Q 13.234375 26.265625 9.515625 29.90625 
Q 5.8125 33.546875 5.8125 39.890625 
Q 5.8125 47.609375 11.28125 51.796875 
Q 16.75 56 26.8125 56 
Q 31.78125 56 36.171875 55.265625 
Q 40.578125 54.546875 44.28125 53.078125 
z
" id="DejaVuSans-115"/>
      <path d="M 30.609375 48.390625 
Q 23.390625 48.390625 19.1875 42.75 
Q 14.984375 37.109375 14.984375 27.296875 
Q 14.984375 17.484375 19.15625 11.84375 
Q 23.34375 6.203125 30.609375 6.203125 
Q 37.796875 6.203125 41.984375 11.859375 
Q 46.1875 17.53125 46.1875 27.296875 
Q 46.1875 37.015625 41.984375 42.703125 
Q 37.796875 48.390625 30.609375 48.390625 
z
M 30.609375 56 
Q 42.328125 56 49.015625 48.375 
Q 55.71875 40.765625 55.71875 27.296875 
Q 55.71875 13.875 49.015625 6.21875 
Q 42.328125 -1.421875 30.609375 -1.421875 
Q 18.84375 -1.421875 12.171875 6.21875 
Q 5.515625 13.875 5.515625 27.296875 
Q 5.515625 40.765625 12.171875 48.375 
Q 18.84375 56 30.609375 56 
z
" id="DejaVuSans-111"/>
      <path d="M 9.421875 75.984375 
L 18.40625 75.984375 
L 18.40625 0 
L 9.421875 0 
z
" id="DejaVuSans-108"/>
      <path d="M 8.5 21.578125 
L 8.5 54.6875 
L 17.484375 54.6875 
L 17.484375 21.921875 
Q 17.484375 14.15625 20.5 10.265625 
Q 23.53125 6.390625 29.59375 6.390625 
Q 36.859375 6.390625 41.078125 11.03125 
Q 45.3125 15.671875 45.3125 23.6875 
L 45.3125 54.6875 
L 54.296875 54.6875 
L 54.296875 0 
L 45.3125 0 
L 45.3125 8.40625 
Q 42.046875 3.421875 37.71875 1 
Q 33.40625 -1.421875 27.6875 -1.421875 
Q 18.265625 -1.421875 13.375 4.4375 
Q 8.5 10.296875 8.5 21.578125 
z
M 31.109375 56 
z
" id="DejaVuSans-117"/>
      <path d="M 18.3125 70.21875 
L 18.3125 54.6875 
L 36.8125 54.6875 
L 36.8125 47.703125 
L 18.3125 47.703125 
L 18.3125 18.015625 
Q 18.3125 11.328125 20.140625 9.421875 
Q 21.96875 7.515625 27.59375 7.515625 
L 36.8125 7.515625 
L 36.8125 0 
L 27.59375 0 
Q 17.1875 0 13.234375 3.875 
Q 9.28125 7.765625 9.28125 18.015625 
L 9.28125 47.703125 
L 2.6875 47.703125 
L 2.6875 54.6875 
L 9.28125 54.6875 
L 9.28125 70.21875 
z
" id="DejaVuSans-116"/>
      <path d="M 9.421875 54.6875 
L 18.40625 54.6875 
L 18.40625 0 
L 9.421875 0 
z
M 9.421875 75.984375 
L 18.40625 75.984375 
L 18.40625 64.59375 
L 9.421875 64.59375 
z
" id="DejaVuSans-105"/>
      <path d="M 54.890625 33.015625 
L 54.890625 0 
L 45.90625 0 
L 45.90625 32.71875 
Q 45.90625 40.484375 42.875 44.328125 
Q 39.84375 48.1875 33.796875 48.1875 
Q 26.515625 48.1875 22.3125 43.546875 
Q 18.109375 38.921875 18.109375 30.90625 
L 18.109375 0 
L 9.078125 0 
L 9.078125 54.6875 
L 18.109375 54.6875 
L 18.109375 46.1875 
Q 21.34375 51.125 25.703125 53.5625 
Q 30.078125 56 35.796875 56 
Q 45.21875 56 50.046875 50.171875 
Q 54.890625 44.34375 54.890625 33.015625 
z
" id="DejaVuSans-110"/>
     </defs>
     <g transform="translate(231.585438 255.185031)scale(0.11 -0.11)">
      <use xlink:href="#DejaVuSans-82"/>
      <use x="69.419922" xlink:href="#DejaVuSans-101"/>
      <use x="130.943359" xlink:href="#DejaVuSans-115"/>
      <use x="183.042969" xlink:href="#DejaVuSans-111"/>
      <use x="244.224609" xlink:href="#DejaVuSans-108"/>
      <use x="272.007812" xlink:href="#DejaVuSans-117"/>
      <use x="335.386719" xlink:href="#DejaVuSans-116"/>
      <use x="374.595703" xlink:href="#DejaVuSans-105"/>
      <use x="402.378906" xlink:href="#DejaVuSans-111"/>
      <use x="463.560547" xlink:href="#DejaVuSans-110"/>
     </g>
    </g>
   </g>
   <g id="matplotlib.axis_2">
    <g id="ytick_1">
     <g id="line2d_15">
      <path clip-path="url(#p97472193ad)" d="M 44.567 218.88 
L 490.967 218.88 
" style="fill:none;stroke:#e5e5e5;stroke-width:0.8;"/>
     </g>
     <g id="line2d_16">
      <path d="M 44.567 218.88 
" style="fill:none;stroke:#000000;stroke-width:1.5;"/>
      <defs>
       <path d="M 0 0 
L -2.75 0 
" id="ma0d91ef7b9" style="stroke:#000000;"/>
      </defs>
      <g>
       <use style="stroke:#000000;" x="44.567" xlink:href="#ma0d91ef7b9" y="218.88"/>
      </g>
     </g>
     <g id="text_6">
      <!-- 0 -->
      <defs>
       <path d="M 31.78125 66.40625 
Q 24.171875 66.40625 20.328125 58.90625 
Q 16.5 51.421875 16.5 36.375 
Q 16.5 21.390625 20.328125 13.890625 
Q 24.171875 6.390625 31.78125 6.390625 
Q 39.453125 6.390625 43.28125 13.890625 
Q 47.125 21.390625 47.125 36.375 
Q 47.125 51.421875 43.28125 58.90625 
Q 39.453125 66.40625 31.78125 66.40625 
z
M 31.78125 74.21875 
Q 44.046875 74.21875 50.515625 64.515625 
Q 56.984375 54.828125 56.984375 36.375 
Q 56.984375 17.96875 50.515625 8.265625 
Q 44.046875 -1.421875 31.78125 -1.421875 
Q 19.53125 -1.421875 13.0625 8.265625 
Q 6.59375 17.96875 6.59375 36.375 
Q 6.59375 54.828125 13.0625 64.515625 
Q 19.53125 74.21875 31.78125 74.21875 
z
" id="DejaVuSans-48"/>
      </defs>
      <g transform="translate(34.018 221.30825)scale(0.088 -0.088)">
       <use xlink:href="#DejaVuSans-48"/>
      </g>
     </g>
    </g>
    <g id="ytick_2">
     <g id="line2d_17">
      <path clip-path="url(#p97472193ad)" d="M 44.567 168.48 
L 490.967 168.48 
" style="fill:none;stroke:#e5e5e5;stroke-width:0.8;"/>
     </g>
     <g id="line2d_18">
      <path d="M 44.567 168.48 
" style="fill:none;stroke:#000000;stroke-width:1.5;"/>
      <g>
       <use style="stroke:#000000;" x="44.567" xlink:href="#ma0d91ef7b9" y="168.48"/>
      </g>
     </g>
     <g id="text_7">
      <!-- 25 -->
      <defs>
       <path d="M 10.796875 72.90625 
L 49.515625 72.90625 
L 49.515625 64.59375 
L 19.828125 64.59375 
L 19.828125 46.734375 
Q 21.96875 47.46875 24.109375 47.828125 
Q 26.265625 48.1875 28.421875 48.1875 
Q 40.625 48.1875 47.75 41.5 
Q 54.890625 34.8125 54.890625 23.390625 
Q 54.890625 11.625 47.5625 5.09375 
Q 40.234375 -1.421875 26.90625 -1.421875 
Q 22.3125 -1.421875 17.546875 -0.640625 
Q 12.796875 0.140625 7.71875 1.703125 
L 7.71875 11.625 
Q 12.109375 9.234375 16.796875 8.0625 
Q 21.484375 6.890625 26.703125 6.890625 
Q 35.15625 6.890625 40.078125 11.328125 
Q 45.015625 15.765625 45.015625 23.390625 
Q 45.015625 31 40.078125 35.4375 
Q 35.15625 39.890625 26.703125 39.890625 
Q 22.75 39.890625 18.8125 39.015625 
Q 14.890625 38.140625 10.796875 36.28125 
z
" id="DejaVuSans-53"/>
      </defs>
      <g transform="translate(28.419 170.90825)scale(0.088 -0.088)">
       <use xlink:href="#DejaVuSans-50"/>
       <use x="63.623047" xlink:href="#DejaVuSans-53"/>
      </g>
     </g>
    </g>
    <g id="ytick_3">
     <g id="line2d_19">
      <path clip-path="url(#p97472193ad)" d="M 44.567 118.08 
L 490.967 118.08 
" style="fill:none;stroke:#e5e5e5;stroke-width:0.8;"/>
     </g>
     <g id="line2d_20">
      <path d="M 44.567 118.08 
" style="fill:none;stroke:#000000;stroke-width:1.5;"/>
      <g>
       <use style="stroke:#000000;" x="44.567" xlink:href="#ma0d91ef7b9" y="118.08"/>
      </g>
     </g>
     <g id="text_8">
      <!-- 50 -->
      <g transform="translate(28.419 120.50825)scale(0.088 -0.088)">
       <use xlink:href="#DejaVuSans-53"/>
       <use x="63.623047" xlink:href="#DejaVuSans-48"/>
      </g>
     </g>
    </g>
    <g id="ytick_4">
     <g id="line2d_21">
      <path clip-path="url(#p97472193ad)" d="M 44.567 67.68 
L 490.967 67.68 
" style="fill:none;stroke:#e5e5e5;stroke-width:0.8;"/>
     </g>
     <g id="line2d_22">
      <path d="M 44.567 67.68 
" style="fill:none;stroke:#000000;stroke-width:1.5;"/>
      <g>
       <use style="stroke:#000000;" x="44.567" xlink:href="#ma0d91ef7b9" y="67.68"/>
      </g>
     </g>
     <g id="text_9">
      <!-- 75 -->
      <defs>
       <path d="M 8.203125 72.90625 
L 55.078125 72.90625 
L 55.078125 68.703125 
L 28.609375 0 
L 18.3125 0 
L 43.21875 64.59375 
L 8.203125 64.59375 
z
" id="DejaVuSans-55"/>
      </defs>
      <g transform="translate(28.419 70.10825)scale(0.088 -0.088)">
       <use xlink:href="#DejaVuSans-55"/>
       <use x="63.623047" xlink:href="#DejaVuSans-53"/>
      </g>
     </g>
    </g>
    <g id="ytick_5">
     <g id="line2d_23">
      <path clip-path="url(#p97472193ad)" d="M 44.567 17.28 
L 490.967 17.28 
" style="fill:none;stroke:#e5e5e5;stroke-width:0.8;"/>
     </g>
     <g id="line2d_24">
      <path d="M 44.567 17.28 
" style="fill:none;stroke:#000000;stroke-width:1.5;"/>
      <g>
       <use style="stroke:#000000;" x="44.567" xlink:href="#ma0d91ef7b9" y="17.28"/>
      </g>
     </g>
     <g id="text_10">
      <!-- 100 -->
      <g transform="translate(22.82 19.70825)scale(0.088 -0.088)">
       <use xlink:href="#DejaVuSans-49"/>
       <use x="63.623047" xlink:href="#DejaVuSans-48"/>
       <use x="127.246094" xlink:href="#DejaVuSans-48"/>
      </g>
     </g>
    </g>
    <g id="ytick_6">
     <g id="line2d_25">
      <path clip-path="url(#p97472193ad)" d="M 44.567 193.68 
L 490.967 193.68 
" style="fill:none;stroke:#fafafa;"/>
     </g>
     <g id="line2d_26">
      <path d="M 44.567 193.68 
" style="fill:none;stroke:#000000;stroke-width:1.5;"/>
      <defs>
       <path d="M 0 0 
L -1.375 0 
" id="m42cdf429f9" style="stroke:#000000;"/>
      </defs>
      <g>
       <use style="stroke:#000000;" x="44.567" xlink:href="#m42cdf429f9" y="193.68"/>
      </g>
     </g>
    </g>
    <g id="ytick_7">
     <g id="line2d_27">
      <path clip-path="url(#p97472193ad)" d="M 44.567 143.28 
L 490.967 143.28 
" style="fill:none;stroke:#fafafa;"/>
     </g>
     <g id="line2d_28">
      <path d="M 44.567 143.28 
" style="fill:none;stroke:#000000;stroke-width:1.5;"/>
      <g>
       <use style="stroke:#000000;" x="44.567" xlink:href="#m42cdf429f9" y="143.28"/>
      </g>
     </g>
    </g>
    <g id="ytick_8">
     <g id="line2d_29">
      <path clip-path="url(#p97472193ad)" d="M 44.567 92.88 
L 490.967 92.88 
" style="fill:none;stroke:#fafafa;"/>
     </g>
     <g id="line2d_30">
      <path d="M 44.567 92.88 
" style="fill:none;stroke:#000000;stroke-width:1.5;"/>
      <g>
       <use style="stroke:#000000;" x="44.567" xlink:href="#m42cdf429f9" y="92.88"/>
      </g>
     </g>
    </g>
    <g id="ytick_9">
     <g id="line2d_31">
      <path clip-path="url(#p97472193ad)" d="M 44.567 42.48 
L 490.967 42.48 
" style="fill:none;stroke:#fafafa;"/>
     </g>
     <g id="line2d_32">
      <path d="M 44.567 42.48 
" style="fill:none;stroke:#000000;stroke-width:1.5;"/>
      <g>
       <use style="stroke:#000000;" x="44.567" xlink:href="#m42cdf429f9" y="42.48"/>
      </g>
     </g>
    </g>
    <g id="text_11">
     <!-- $P_{Q1}(t,d)$ [%] -->
     <defs>
      <path d="M 16.890625 72.90625 
L 39.703125 72.90625 
Q 49.65625 72.90625 54.875 68.265625 
Q 60.109375 63.625 60.109375 54.6875 
Q 60.109375 42.671875 52.390625 35.984375 
Q 44.671875 29.296875 30.71875 29.296875 
L 18.3125 29.296875 
L 12.59375 0 
L 2.6875 0 
z
M 25.203125 64.796875 
L 19.921875 37.40625 
L 32.328125 37.40625 
Q 40.71875 37.40625 45.203125 41.703125 
Q 49.703125 46 49.703125 54 
Q 49.703125 59.125 46.65625 61.953125 
Q 43.609375 64.796875 38.09375 64.796875 
z
" id="DejaVuSans-Oblique-80"/>
      <path d="M 36.078125 -1.3125 
Q 35.546875 -1.375 34.953125 -1.390625 
Q 34.375 -1.421875 33.203125 -1.421875 
Q 19.53125 -1.421875 11.8125 6.421875 
Q 4.109375 14.265625 4.109375 28.078125 
Q 4.109375 36.234375 7.0625 44.4375 
Q 10.015625 52.640625 15.28125 59.1875 
Q 21.390625 66.703125 29.03125 70.453125 
Q 36.671875 74.21875 45.90625 74.21875 
Q 59.28125 74.21875 66.984375 66.328125 
Q 74.703125 58.453125 74.703125 44.828125 
Q 74.703125 30.125 66.640625 17.921875 
Q 58.59375 5.71875 45.609375 0.6875 
L 55.515625 -12.890625 
L 44.484375 -12.890625 
z
M 45.609375 66.21875 
Q 37.5 66.21875 31.296875 62.28125 
Q 25.09375 58.34375 20.515625 50.296875 
Q 17.578125 45.171875 16.03125 39.40625 
Q 14.5 33.640625 14.5 27.78125 
Q 14.5 17.625 19.359375 12.109375 
Q 24.21875 6.59375 33.109375 6.59375 
Q 41.109375 6.59375 47.375 10.5625 
Q 53.65625 14.546875 58.109375 22.40625 
Q 61.078125 27.6875 62.640625 33.46875 
Q 64.203125 39.265625 64.203125 45.015625 
Q 64.203125 55.125 59.3125 60.671875 
Q 54.4375 66.21875 45.609375 66.21875 
z
" id="DejaVuSans-Oblique-81"/>
      <path d="M 31 75.875 
Q 24.46875 64.65625 21.28125 53.65625 
Q 18.109375 42.671875 18.109375 31.390625 
Q 18.109375 20.125 21.3125 9.0625 
Q 24.515625 -2 31 -13.1875 
L 23.1875 -13.1875 
Q 15.875 -1.703125 12.234375 9.375 
Q 8.59375 20.453125 8.59375 31.390625 
Q 8.59375 42.28125 12.203125 53.3125 
Q 15.828125 64.359375 23.1875 75.875 
z
" id="DejaVuSans-40"/>
      <path d="M 42.28125 54.6875 
L 40.921875 47.703125 
L 23 47.703125 
L 17.1875 18.015625 
Q 16.890625 16.359375 16.75 15.234375 
Q 16.609375 14.109375 16.609375 13.484375 
Q 16.609375 10.359375 18.484375 8.9375 
Q 20.359375 7.515625 24.515625 7.515625 
L 33.59375 7.515625 
L 32.078125 0 
L 23.484375 0 
Q 15.484375 0 11.546875 3.125 
Q 7.625 6.25 7.625 12.59375 
Q 7.625 13.71875 7.765625 15.0625 
Q 7.90625 16.40625 8.203125 18.015625 
L 14.015625 47.703125 
L 6.390625 47.703125 
L 7.8125 54.6875 
L 15.28125 54.6875 
L 18.3125 70.21875 
L 27.296875 70.21875 
L 24.3125 54.6875 
z
" id="DejaVuSans-Oblique-116"/>
      <path d="M 11.71875 12.40625 
L 22.015625 12.40625 
L 22.015625 4 
L 14.015625 -11.625 
L 7.71875 -11.625 
L 11.71875 4 
z
" id="DejaVuSans-44"/>
      <path d="M 41.796875 8.203125 
Q 38.1875 3.46875 33.25 1.015625 
Q 28.328125 -1.421875 22.3125 -1.421875 
Q 14.109375 -1.421875 9.34375 4.171875 
Q 4.59375 9.765625 4.59375 19.484375 
Q 4.59375 27.59375 7.46875 34.9375 
Q 10.359375 42.28125 15.828125 48.09375 
Q 19.4375 51.953125 23.96875 53.96875 
Q 28.515625 56 33.5 56 
Q 38.765625 56 42.796875 53.453125 
Q 46.828125 50.921875 49.03125 46.1875 
L 54.890625 75.984375 
L 63.921875 75.984375 
L 49.125 0 
L 40.09375 0 
z
M 13.921875 21.09375 
Q 13.921875 14.015625 17.109375 10.0625 
Q 20.3125 6.109375 25.984375 6.109375 
Q 30.171875 6.109375 33.765625 8.125 
Q 37.359375 10.15625 40.09375 14.109375 
Q 42.96875 18.21875 44.625 23.578125 
Q 46.296875 28.953125 46.296875 34.1875 
Q 46.296875 40.96875 43.09375 44.765625 
Q 39.890625 48.578125 34.28125 48.578125 
Q 30.03125 48.578125 26.359375 46.578125 
Q 22.703125 44.578125 20.125 40.828125 
Q 17.28125 36.765625 15.59375 31.390625 
Q 13.921875 26.03125 13.921875 21.09375 
z
" id="DejaVuSans-Oblique-100"/>
      <path d="M 8.015625 75.875 
L 15.828125 75.875 
Q 23.140625 64.359375 26.78125 53.3125 
Q 30.421875 42.28125 30.421875 31.390625 
Q 30.421875 20.453125 26.78125 9.375 
Q 23.140625 -1.703125 15.828125 -13.1875 
L 8.015625 -13.1875 
Q 14.5 -2 17.703125 9.0625 
Q 20.90625 20.125 20.90625 31.390625 
Q 20.90625 42.671875 17.703125 53.65625 
Q 14.5 64.65625 8.015625 75.875 
z
" id="DejaVuSans-41"/>
      <path id="DejaVuSans-32"/>
      <path d="M 8.59375 75.984375 
L 29.296875 75.984375 
L 29.296875 69 
L 17.578125 69 
L 17.578125 -6.203125 
L 29.296875 -6.203125 
L 29.296875 -13.1875 
L 8.59375 -13.1875 
z
" id="DejaVuSans-91"/>
      <path d="M 72.703125 32.078125 
Q 68.453125 32.078125 66.03125 28.46875 
Q 63.625 24.859375 63.625 18.40625 
Q 63.625 12.0625 66.03125 8.421875 
Q 68.453125 4.78125 72.703125 4.78125 
Q 76.859375 4.78125 79.265625 8.421875 
Q 81.6875 12.0625 81.6875 18.40625 
Q 81.6875 24.8125 79.265625 28.4375 
Q 76.859375 32.078125 72.703125 32.078125 
z
M 72.703125 38.28125 
Q 80.421875 38.28125 84.953125 32.90625 
Q 89.5 27.546875 89.5 18.40625 
Q 89.5 9.28125 84.9375 3.921875 
Q 80.375 -1.421875 72.703125 -1.421875 
Q 64.890625 -1.421875 60.34375 3.921875 
Q 55.8125 9.28125 55.8125 18.40625 
Q 55.8125 27.59375 60.375 32.9375 
Q 64.9375 38.28125 72.703125 38.28125 
z
M 22.3125 68.015625 
Q 18.109375 68.015625 15.6875 64.375 
Q 13.28125 60.75 13.28125 54.390625 
Q 13.28125 47.953125 15.671875 44.328125 
Q 18.0625 40.71875 22.3125 40.71875 
Q 26.5625 40.71875 28.96875 44.328125 
Q 31.390625 47.953125 31.390625 54.390625 
Q 31.390625 60.6875 28.953125 64.34375 
Q 26.515625 68.015625 22.3125 68.015625 
z
M 66.40625 74.21875 
L 74.21875 74.21875 
L 28.609375 -1.421875 
L 20.796875 -1.421875 
z
M 22.3125 74.21875 
Q 30.03125 74.21875 34.609375 68.875 
Q 39.203125 63.53125 39.203125 54.390625 
Q 39.203125 45.171875 34.640625 39.84375 
Q 30.078125 34.515625 22.3125 34.515625 
Q 14.546875 34.515625 10.03125 39.859375 
Q 5.515625 45.21875 5.515625 54.390625 
Q 5.515625 63.484375 10.046875 68.84375 
Q 14.59375 74.21875 22.3125 74.21875 
z
" id="DejaVuSans-37"/>
      <path d="M 30.421875 75.984375 
L 30.421875 -13.1875 
L 9.71875 -13.1875 
L 9.71875 -6.203125 
L 21.390625 -6.203125 
L 21.390625 69 
L 9.71875 69 
L 9.71875 75.984375 
z
" id="DejaVuSans-93"/>
     </defs>
     <g transform="translate(15.56 149.64)rotate(-90)scale(0.11 -0.11)">
      <use transform="translate(0 0.015625)" xlink:href="#DejaVuSans-Oblique-80"/>
      <use transform="translate(60.302734 -16.390625)scale(0.7)" xlink:href="#DejaVuSans-Oblique-81"/>
      <use transform="translate(115.400391 -16.390625)scale(0.7)" xlink:href="#DejaVuSans-49"/>
      <use transform="translate(162.670898 0.015625)" xlink:href="#DejaVuSans-40"/>
      <use transform="translate(201.68457 0.015625)" xlink:href="#DejaVuSans-Oblique-116"/>
      <use transform="translate(240.893555 0.015625)" xlink:href="#DejaVuSans-44"/>
      <use transform="translate(292.163086 0.015625)" xlink:href="#DejaVuSans-Oblique-100"/>
      <use transform="translate(355.639648 0.015625)" xlink:href="#DejaVuSans-41"/>
      <use transform="translate(394.65332 0.015625)" xlink:href="#DejaVuSans-32"/>
      <use transform="translate(426.44043 0.015625)" xlink:href="#DejaVuSans-91"/>
      <use transform="translate(465.454102 0.015625)" xlink:href="#DejaVuSans-37"/>
      <use transform="translate(560.473633 0.015625)" xlink:href="#DejaVuSans-93"/>
     </g>
    </g>
   </g>
   <g id="PathCollection_1">
    <path clip-path="url(#p97472193ad)" d="M 64.857909 108.835309 
C 65.327969 108.835309 65.77884 108.648552 66.111223 108.316169 
C 66.443606 107.983786 66.630363 107.532915 66.630363 107.062855 
C 66.630363 106.592795 66.443606 106.141924 66.111223 105.809541 
C 65.77884 105.477158 65.327969 105.290401 64.857909 105.290401 
C 64.387849 105.290401 63.936978 105.477158 63.604595 105.809541 
C 63.272212 106.141924 63.085455 106.592795 63.085455 107.062855 
C 63.085455 107.532915 63.272212 107.983786 63.604595 108.316169 
C 63.936978 108.648552 64.387849 108.835309 64.857909 108.835309 
z
" style="stroke:#000000;stroke-width:0.886227;"/>
    <path clip-path="url(#p97472193ad)" d="M 78.385182 109.100177 
C 78.855242 109.100177 79.306113 108.91342 79.638496 108.581037 
C 79.970879 108.248655 80.157636 107.797783 80.157636 107.327723 
C 80.157636 106.857663 79.970879 106.406792 79.638496 106.074409 
C 79.306113 105.742026 78.855242 105.555269 78.385182 105.555269 
C 77.915122 105.555269 77.46425 105.742026 77.131868 106.074409 
C 76.799485 106.406792 76.612728 106.857663 76.612728 107.327723 
C 76.612728 107.797783 76.799485 108.248655 77.131868 108.581037 
C 77.46425 108.91342 77.915122 109.100177 78.385182 109.100177 
z
" style="stroke:#000000;stroke-width:0.886227;"/>
    <path clip-path="url(#p97472193ad)" d="M 91.912455 103.199808 
C 92.382515 103.199808 92.833386 103.013051 93.165769 102.680668 
C 93.498151 102.348285 93.684908 101.897414 93.684908 101.427354 
C 93.684908 100.957293 93.498151 100.506422 93.165769 100.17404 
C 92.833386 99.841657 92.382515 99.6549 91.912455 99.6549 
C 91.442394 99.6549 90.991523 99.841657 90.65914 100.17404 
C 90.326758 100.506422 90.140001 100.957293 90.140001 101.427354 
C 90.140001 101.897414 90.326758 102.348285 90.65914 102.680668 
C 90.991523 103.013051 91.442394 103.199808 91.912455 103.199808 
z
" style="stroke:#000000;stroke-width:0.886227;"/>
    <path clip-path="url(#p97472193ad)" d="M 105.439727 105.577702 
C 105.909788 105.577702 106.360659 105.390945 106.693041 105.058562 
C 107.025424 104.726179 107.212181 104.275308 107.212181 103.805248 
C 107.212181 103.335188 107.025424 102.884317 106.693041 102.551934 
C 106.360659 102.219551 105.909788 102.032794 105.439727 102.032794 
C 104.969667 102.032794 104.518796 102.219551 104.186413 102.551934 
C 103.85403 102.884317 103.667273 103.335188 103.667273 103.805248 
C 103.667273 104.275308 103.85403 104.726179 104.186413 105.058562 
C 104.518796 105.390945 104.969667 105.577702 105.439727 105.577702 
z
" style="stroke:#000000;stroke-width:0.886227;"/>
    <path clip-path="url(#p97472193ad)" d="M 118.967 102.082817 
C 119.43706 102.082817 119.887931 101.89606 120.220314 101.563677 
C 120.552697 101.231294 120.739454 100.780423 120.739454 100.310363 
C 120.739454 99.840303 120.552697 99.389432 120.220314 99.057049 
C 119.887931 98.724666 119.43706 98.537909 118.967 98.537909 
C 118.49694 98.537909 118.046069 98.724666 117.713686 99.057049 
C 117.381303 99.389432 117.194546 99.840303 117.194546 100.310363 
C 117.194546 100.780423 117.381303 101.231294 117.713686 101.563677 
C 118.046069 101.89606 118.49694 102.082817 118.967 102.082817 
z
" style="stroke:#000000;stroke-width:0.886227;"/>
    <path clip-path="url(#p97472193ad)" d="M 132.494273 102.044512 
C 132.964333 102.044512 133.415204 101.857755 133.747587 101.525372 
C 134.07997 101.19299 134.266727 100.742119 134.266727 100.272058 
C 134.266727 99.801998 134.07997 99.351127 133.747587 99.018744 
C 133.415204 98.686361 132.964333 98.499604 132.494273 98.499604 
C 132.024212 98.499604 131.573341 98.686361 131.240959 99.018744 
C 130.908576 99.351127 130.721819 99.801998 130.721819 100.272058 
C 130.721819 100.742119 130.908576 101.19299 131.240959 101.525372 
C 131.573341 101.857755 132.024212 102.044512 132.494273 102.044512 
z
" style="stroke:#000000;stroke-width:0.886227;"/>
    <path clip-path="url(#p97472193ad)" d="M 146.021545 101.983116 
C 146.491606 101.983116 146.942477 101.796359 147.27486 101.463976 
C 147.607242 101.131594 147.793999 100.680723 147.793999 100.210662 
C 147.793999 99.740602 147.607242 99.289731 147.27486 98.957348 
C 146.942477 98.624965 146.491606 98.438208 146.021545 98.438208 
C 145.551485 98.438208 145.100614 98.624965 144.768231 98.957348 
C 144.435849 99.289731 144.249092 99.740602 144.249092 100.210662 
C 144.249092 100.680723 144.435849 101.131594 144.768231 101.463976 
C 145.100614 101.796359 145.551485 101.983116 146.021545 101.983116 
z
" style="stroke:#000000;stroke-width:0.886227;"/>
    <path clip-path="url(#p97472193ad)" d="M 159.548818 102.175813 
C 160.018878 102.175813 160.46975 101.989056 160.802132 101.656673 
C 161.134515 101.324291 161.321272 100.87342 161.321272 100.403359 
C 161.321272 99.933299 161.134515 99.482428 160.802132 99.150045 
C 160.46975 98.817662 160.018878 98.630905 159.548818 98.630905 
C 159.078758 98.630905 158.627887 98.817662 158.295504 99.150045 
C 157.963121 99.482428 157.776364 99.933299 157.776364 100.403359 
C 157.776364 100.87342 157.963121 101.324291 158.295504 101.656673 
C 158.627887 101.989056 159.078758 102.175813 159.548818 102.175813 
z
" style="stroke:#000000;stroke-width:0.886227;"/>
    <path clip-path="url(#p97472193ad)" d="M 173.076091 103.454377 
C 173.546151 103.454377 173.997022 103.26762 174.329405 102.935237 
C 174.661788 102.602854 174.848545 102.151983 174.848545 101.681923 
C 174.848545 101.211863 174.661788 100.760991 174.329405 100.428609 
C 173.997022 100.096226 173.546151 99.909469 173.076091 99.909469 
C 172.606031 99.909469 172.15516 100.096226 171.822777 100.428609 
C 171.490394 100.760991 171.303637 101.211863 171.303637 101.681923 
C 171.303637 102.151983 171.490394 102.602854 171.822777 102.935237 
C 172.15516 103.26762 172.606031 103.454377 173.076091 103.454377 
z
" style="stroke:#000000;stroke-width:0.886227;"/>
    <path clip-path="url(#p97472193ad)" d="M 186.603364 101.570538 
C 187.073424 101.570538 187.524295 101.383781 187.856678 101.051398 
C 188.189061 100.719015 188.375817 100.268144 188.375817 99.798084 
C 188.375817 99.328024 188.189061 98.877152 187.856678 98.54477 
C 187.524295 98.212387 187.073424 98.02563 186.603364 98.02563 
C 186.133303 98.02563 185.682432 98.212387 185.350049 98.54477 
C 185.017667 98.877152 184.83091 99.328024 184.83091 99.798084 
C 184.83091 100.268144 185.017667 100.719015 185.350049 101.051398 
C 185.682432 101.383781 186.133303 101.570538 186.603364 101.570538 
z
" style="stroke:#000000;stroke-width:0.886227;"/>
    <path clip-path="url(#p97472193ad)" d="M 200.130636 102.636251 
C 200.600697 102.636251 201.051568 102.449494 201.383951 102.117111 
C 201.716333 101.784729 201.90309 101.333858 201.90309 100.863797 
C 201.90309 100.393737 201.716333 99.942866 201.383951 99.610483 
C 201.051568 99.2781 200.600697 99.091343 200.130636 99.091343 
C 199.660576 99.091343 199.209705 99.2781 198.877322 99.610483 
C 198.544939 99.942866 198.358183 100.393737 198.358183 100.863797 
C 198.358183 101.333858 198.544939 101.784729 198.877322 102.117111 
C 199.209705 102.449494 199.660576 102.636251 200.130636 102.636251 
z
" style="stroke:#000000;stroke-width:0.886227;"/>
    <path clip-path="url(#p97472193ad)" d="M 213.657909 102.653716 
C 214.127969 102.653716 214.57884 102.466959 214.911223 102.134577 
C 215.243606 101.802194 215.430363 101.351323 215.430363 100.881263 
C 215.430363 100.411202 215.243606 99.960331 214.911223 99.627948 
C 214.57884 99.295566 214.127969 99.108809 213.657909 99.108809 
C 213.187849 99.108809 212.736978 99.295566 212.404595 99.627948 
C 212.072212 99.960331 211.885455 100.411202 211.885455 100.881263 
C 211.885455 101.351323 212.072212 101.802194 212.404595 102.134577 
C 212.736978 102.466959 213.187849 102.653716 213.657909 102.653716 
z
" style="stroke:#000000;stroke-width:0.886227;"/>
    <path clip-path="url(#p97472193ad)" d="M 227.185182 102.461003 
C 227.655242 102.461003 228.106113 102.274246 228.438496 101.941863 
C 228.770879 101.60948 228.957636 101.158609 228.957636 100.688549 
C 228.957636 100.218489 228.770879 99.767618 228.438496 99.435235 
C 228.106113 99.102852 227.655242 98.916095 227.185182 98.916095 
C 226.715122 98.916095 226.26425 99.102852 225.931868 99.435235 
C 225.599485 99.767618 225.412728 100.218489 225.412728 100.688549 
C 225.412728 101.158609 225.599485 101.60948 225.931868 101.941863 
C 226.26425 102.274246 226.715122 102.461003 227.185182 102.461003 
z
" style="stroke:#000000;stroke-width:0.886227;"/>
    <path clip-path="url(#p97472193ad)" d="M 240.712455 102.896546 
C 241.182515 102.896546 241.633386 102.709789 241.965769 102.377407 
C 242.298151 102.045024 242.484908 101.594153 242.484908 101.124093 
C 242.484908 100.654032 242.298151 100.203161 241.965769 99.870778 
C 241.633386 99.538396 241.182515 99.351639 240.712455 99.351639 
C 240.242394 99.351639 239.791523 99.538396 239.45914 99.870778 
C 239.126758 100.203161 238.940001 100.654032 238.940001 101.124093 
C 238.940001 101.594153 239.126758 102.045024 239.45914 102.377407 
C 239.791523 102.709789 240.242394 102.896546 240.712455 102.896546 
z
" style="stroke:#000000;stroke-width:0.886227;"/>
    <path clip-path="url(#p97472193ad)" d="M 254.239727 101.702105 
C 254.709788 101.702105 255.160659 101.515348 255.493041 101.182966 
C 255.825424 100.850583 256.012181 100.399712 256.012181 99.929652 
C 256.012181 99.459591 255.825424 99.00872 255.493041 98.676337 
C 255.160659 98.343955 254.709788 98.157198 254.239727 98.157198 
C 253.769667 98.157198 253.318796 98.343955 252.986413 98.676337 
C 252.65403 99.00872 252.467273 99.459591 252.467273 99.929652 
C 252.467273 100.399712 252.65403 100.850583 252.986413 101.182966 
C 253.318796 101.515348 253.769667 101.702105 254.239727 101.702105 
z
" style="stroke:#000000;stroke-width:0.886227;"/>
    <path clip-path="url(#p97472193ad)" d="M 267.767 104.111411 
C 268.23706 104.111411 268.687931 103.924655 269.020314 103.592272 
C 269.352697 103.259889 269.539454 102.809018 269.539454 102.338958 
C 269.539454 101.868897 269.352697 101.418026 269.020314 101.085643 
C 268.687931 100.753261 268.23706 100.566504 267.767 100.566504 
C 267.29694 100.566504 266.846069 100.753261 266.513686 101.085643 
C 266.181303 101.418026 265.994546 101.868897 265.994546 102.338958 
C 265.994546 102.809018 266.181303 103.259889 266.513686 103.592272 
C 266.846069 103.924655 267.29694 104.111411 267.767 104.111411 
z
" style="stroke:#000000;stroke-width:0.886227;"/>
    <path clip-path="url(#p97472193ad)" d="M 281.294273 102.344414 
C 281.764333 102.344414 282.215204 102.157657 282.547587 101.825274 
C 282.87997 101.492891 283.066727 101.04202 283.066727 100.57196 
C 283.066727 100.1019 282.87997 99.651029 282.547587 99.318646 
C 282.215204 98.986263 281.764333 98.799506 281.294273 98.799506 
C 280.824212 98.799506 280.373341 98.986263 280.040959 99.318646 
C 279.708576 99.651029 279.521819 100.1019 279.521819 100.57196 
C 279.521819 101.04202 279.708576 101.492891 280.040959 101.825274 
C 280.373341 102.157657 280.824212 102.344414 281.294273 102.344414 
z
" style="stroke:#000000;stroke-width:0.886227;"/>
    <path clip-path="url(#p97472193ad)" d="M 294.821545 100.369344 
C 295.291606 100.369344 295.742477 100.182587 296.07486 99.850204 
C 296.407242 99.517821 296.593999 99.06695 296.593999 98.59689 
C 296.593999 98.126829 296.407242 97.675958 296.07486 97.343576 
C 295.742477 97.011193 295.291606 96.824436 294.821545 96.824436 
C 294.351485 96.824436 293.900614 97.011193 293.568231 97.343576 
C 293.235849 97.675958 293.049092 98.126829 293.049092 98.59689 
C 293.049092 99.06695 293.235849 99.517821 293.568231 99.850204 
C 293.900614 100.182587 294.351485 100.369344 294.821545 100.369344 
z
" style="stroke:#000000;stroke-width:0.886227;"/>
    <path clip-path="url(#p97472193ad)" d="M 308.348818 101.998338 
C 308.818878 101.998338 309.26975 101.811581 309.602132 101.479198 
C 309.934515 101.146815 310.121272 100.695944 310.121272 100.225884 
C 310.121272 99.755824 309.934515 99.304953 309.602132 98.97257 
C 309.26975 98.640187 308.818878 98.45343 308.348818 98.45343 
C 307.878758 98.45343 307.427887 98.640187 307.095504 98.97257 
C 306.763121 99.304953 306.576364 99.755824 306.576364 100.225884 
C 306.576364 100.695944 306.763121 101.146815 307.095504 101.479198 
C 307.427887 101.811581 307.878758 101.998338 308.348818 101.998338 
z
" style="stroke:#000000;stroke-width:0.886227;"/>
    <path clip-path="url(#p97472193ad)" d="M 321.876091 102.872673 
C 322.346151 102.872673 322.797022 102.685916 323.129405 102.353533 
C 323.461788 102.02115 323.648545 101.570279 323.648545 101.100219 
C 323.648545 100.630159 323.461788 100.179288 323.129405 99.846905 
C 322.797022 99.514522 322.346151 99.327765 321.876091 99.327765 
C 321.406031 99.327765 320.95516 99.514522 320.622777 99.846905 
C 320.290394 100.179288 320.103637 100.630159 320.103637 101.100219 
C 320.103637 101.570279 320.290394 102.02115 320.622777 102.353533 
C 320.95516 102.685916 321.406031 102.872673 321.876091 102.872673 
z
" style="stroke:#000000;stroke-width:0.886227;"/>
    <path clip-path="url(#p97472193ad)" d="M 335.403364 97.845479 
C 335.873424 97.845479 336.324295 97.658722 336.656678 97.326339 
C 336.989061 96.993956 337.175817 96.543085 337.175817 96.073025 
C 337.175817 95.602965 336.989061 95.152094 336.656678 94.819711 
C 336.324295 94.487328 335.873424 94.300571 335.403364 94.300571 
C 334.933303 94.300571 334.482432 94.487328 334.150049 94.819711 
C 333.817667 95.152094 333.63091 95.602965 333.63091 96.073025 
C 333.63091 96.543085 333.817667 96.993956 334.150049 97.326339 
C 334.482432 97.658722 334.933303 97.845479 335.403364 97.845479 
z
" style="stroke:#000000;stroke-width:0.886227;"/>
    <path clip-path="url(#p97472193ad)" d="M 348.930636 98.317758 
C 349.400697 98.317758 349.851568 98.131001 350.183951 97.798618 
C 350.516333 97.466235 350.70309 97.015364 350.70309 96.545304 
C 350.70309 96.075243 350.516333 95.624372 350.183951 95.29199 
C 349.851568 94.959607 349.400697 94.77285 348.930636 94.77285 
C 348.460576 94.77285 348.009705 94.959607 347.677322 95.29199 
C 347.344939 95.624372 347.158183 96.075243 347.158183 96.545304 
C 347.158183 97.015364 347.344939 97.466235 347.677322 97.798618 
C 348.009705 98.131001 348.460576 98.317758 348.930636 98.317758 
z
" style="stroke:#000000;stroke-width:0.886227;"/>
    <path clip-path="url(#p97472193ad)" d="M 362.457909 98.964774 
C 362.927969 98.964774 363.37884 98.778017 363.711223 98.445634 
C 364.043606 98.113251 364.230363 97.66238 364.230363 97.19232 
C 364.230363 96.72226 364.043606 96.271389 363.711223 95.939006 
C 363.37884 95.606623 362.927969 95.419866 362.457909 95.419866 
C 361.987849 95.419866 361.536978 95.606623 361.204595 95.939006 
C 360.872212 96.271389 360.685455 96.72226 360.685455 97.19232 
C 360.685455 97.66238 360.872212 98.113251 361.204595 98.445634 
C 361.536978 98.778017 361.987849 98.964774 362.457909 98.964774 
z
" style="stroke:#000000;stroke-width:0.886227;"/>
    <path clip-path="url(#p97472193ad)" d="M 375.985182 98.431596 
C 376.455242 98.431596 376.906113 98.244839 377.238496 97.912456 
C 377.570879 97.580074 377.757636 97.129203 377.757636 96.659142 
C 377.757636 96.189082 377.570879 95.738211 377.238496 95.405828 
C 376.906113 95.073445 376.455242 94.886688 375.985182 94.886688 
C 375.515122 94.886688 375.06425 95.073445 374.731868 95.405828 
C 374.399485 95.738211 374.212728 96.189082 374.212728 96.659142 
C 374.212728 97.129203 374.399485 97.580074 374.731868 97.912456 
C 375.06425 98.244839 375.515122 98.431596 375.985182 98.431596 
z
" style="stroke:#000000;stroke-width:0.886227;"/>
    <path clip-path="url(#p97472193ad)" d="M 389.512455 103.121091 
C 389.982515 103.121091 390.433386 102.934334 390.765769 102.601951 
C 391.098151 102.269568 391.284908 101.818697 391.284908 101.348637 
C 391.284908 100.878577 391.098151 100.427706 390.765769 100.095323 
C 390.433386 99.76294 389.982515 99.576183 389.512455 99.576183 
C 389.042394 99.576183 388.591523 99.76294 388.25914 100.095323 
C 387.926758 100.427706 387.740001 100.878577 387.740001 101.348637 
C 387.740001 101.818697 387.926758 102.269568 388.25914 102.601951 
C 388.591523 102.934334 389.042394 103.121091 389.512455 103.121091 
z
" style="stroke:#000000;stroke-width:0.886227;"/>
    <path clip-path="url(#p97472193ad)" d="M 403.039727 100.231325 
C 403.509788 100.231325 403.960659 100.044568 404.293041 99.712185 
C 404.625424 99.379803 404.812181 98.928932 404.812181 98.458871 
C 404.812181 97.988811 404.625424 97.53794 404.293041 97.205557 
C 403.960659 96.873174 403.509788 96.686417 403.039727 96.686417 
C 402.569667 96.686417 402.118796 96.873174 401.786413 97.205557 
C 401.45403 97.53794 401.267273 97.988811 401.267273 98.458871 
C 401.267273 98.928932 401.45403 99.379803 401.786413 99.712185 
C 402.118796 100.044568 402.569667 100.231325 403.039727 100.231325 
z
" style="stroke:#000000;stroke-width:0.886227;"/>
    <path clip-path="url(#p97472193ad)" d="M 416.567 95.037144 
C 417.03706 95.037144 417.487931 94.850387 417.820314 94.518004 
C 418.152697 94.185622 418.339454 93.734751 418.339454 93.26469 
C 418.339454 92.79463 418.152697 92.343759 417.820314 92.011376 
C 417.487931 91.678993 417.03706 91.492236 416.567 91.492236 
C 416.09694 91.492236 415.646069 91.678993 415.313686 92.011376 
C 414.981303 92.343759 414.794546 92.79463 414.794546 93.26469 
C 414.794546 93.734751 414.981303 94.185622 415.313686 94.518004 
C 415.646069 94.850387 416.09694 95.037144 416.567 95.037144 
z
" style="stroke:#000000;stroke-width:0.886227;"/>
    <path clip-path="url(#p97472193ad)" d="M 430.094273 98.003639 
C 430.564333 98.003639 431.015204 97.816882 431.347587 97.484499 
C 431.67997 97.152116 431.866727 96.701245 431.866727 96.231185 
C 431.866727 95.761125 431.67997 95.310254 431.347587 94.977871 
C 431.015204 94.645488 430.564333 94.458731 430.094273 94.458731 
C 429.624212 94.458731 429.173341 94.645488 428.840959 94.977871 
C 428.508576 95.310254 428.321819 95.761125 428.321819 96.231185 
C 428.321819 96.701245 428.508576 97.152116 428.840959 97.484499 
C 429.173341 97.816882 429.624212 98.003639 430.094273 98.003639 
z
" style="stroke:#000000;stroke-width:0.886227;"/>
    <path clip-path="url(#p97472193ad)" d="M 443.621545 102.699634 
C 444.091606 102.699634 444.542477 102.512877 444.87486 102.180495 
C 445.207242 101.848112 445.393999 101.397241 445.393999 100.92718 
C 445.393999 100.45712 445.207242 100.006249 444.87486 99.673866 
C 444.542477 99.341483 444.091606 99.154727 443.621545 99.154727 
C 443.151485 99.154727 442.700614 99.341483 442.368231 99.673866 
C 442.035849 100.006249 441.849092 100.45712 441.849092 100.92718 
C 441.849092 101.397241 442.035849 101.848112 442.368231 102.180495 
C 442.700614 102.512877 443.151485 102.699634 443.621545 102.699634 
z
" style="stroke:#000000;stroke-width:0.886227;"/>
    <path clip-path="url(#p97472193ad)" d="M 457.148818 101.952154 
C 457.618878 101.952154 458.06975 101.765397 458.402132 101.433014 
C 458.734515 101.100631 458.921272 100.64976 458.921272 100.1797 
C 458.921272 99.709639 458.734515 99.258768 458.402132 98.926386 
C 458.06975 98.594003 457.618878 98.407246 457.148818 98.407246 
C 456.678758 98.407246 456.227887 98.594003 455.895504 98.926386 
C 455.563121 99.258768 455.376364 99.709639 455.376364 100.1797 
C 455.376364 100.64976 455.563121 101.100631 455.895504 101.433014 
C 456.227887 101.765397 456.678758 101.952154 457.148818 101.952154 
z
" style="stroke:#000000;stroke-width:0.886227;"/>
    <path clip-path="url(#p97472193ad)" d="M 470.676091 101.559729 
C 471.146151 101.559729 471.597022 101.372972 471.929405 101.040589 
C 472.261788 100.708207 472.448545 100.257336 472.448545 99.787275 
C 472.448545 99.317215 472.261788 98.866344 471.929405 98.533961 
C 471.597022 98.201578 471.146151 98.014821 470.676091 98.014821 
C 470.206031 98.014821 469.75516 98.201578 469.422777 98.533961 
C 469.090394 98.866344 468.903637 99.317215 468.903637 99.787275 
C 468.903637 100.257336 469.090394 100.708207 469.422777 101.040589 
C 469.75516 101.372972 470.206031 101.559729 470.676091 101.559729 
z
" style="stroke:#000000;stroke-width:0.886227;"/>
   </g>
   <g id="line2d_33">
    <path clip-path="url(#p97472193ad)" d="M 64.857909 107.062855 
L 78.385182 107.327723 
L 91.912455 101.427354 
L 105.439727 103.805248 
L 118.967 100.310363 
L 132.494273 100.272058 
L 146.021545 100.210662 
L 159.548818 100.403359 
L 173.076091 101.681923 
L 186.603364 99.798084 
L 200.130636 100.863797 
L 213.657909 100.881263 
L 227.185182 100.688549 
L 240.712455 101.124093 
L 254.239727 99.929652 
L 267.767 102.338958 
L 281.294273 100.57196 
L 294.821545 98.59689 
L 308.348818 100.225884 
L 321.876091 101.100219 
L 335.403364 96.073025 
L 348.930636 96.545304 
L 362.457909 97.19232 
L 375.985182 96.659142 
L 389.512455 101.348637 
L 403.039727 98.458871 
L 416.567 93.26469 
L 430.094273 96.231185 
L 443.621545 100.92718 
L 457.148818 100.1797 
L 470.676091 99.787275 
" style="fill:none;stroke:#000000;stroke-width:0.886227;"/>
   </g>
  </g>
 </g>
 <defs>
  <clipPath id="p97472193ad">
   <rect height="221.76" width="446.4" x="44.567" y="7.2"/>
  </clipPath>
 </defs>
</svg>
