<?xml version="1.0" encoding="utf-8" standalone="no"?>
<!DOCTYPE svg PUBLIC "-//W3C//DTD SVG 1.1//EN"
  "http://www.w3.org/Graphics/SVG/1.1/DTD/svg11.dtd">
<!-- Created with matplotlib (https://matplotlib.org/) -->
<svg height="264.672687pt" version="1.1" viewBox="0 0 498.167 264.672687" width="498.167pt" xmlns="http://www.w3.org/2000/svg" xmlns:xlink="http://www.w3.org/1999/xlink">
 <defs>
  <style type="text/css">
*{stroke-linecap:butt;stroke-linejoin:round;}
  </style>
 </defs>
 <g id="figure_1">
  <g id="patch_1">
   <path d="M 0 264.672687 
L 498.167 264.672687 
L 498.167 0 
L 0 0 
z
" style="fill:#ffffff;stroke:#ffffff;stroke-linejoin:miter;"/>
  </g>
  <g id="axes_1">
   <g id="patch_2">
    <path d="M 44.567 228.96 
L 490.967 228.96 
L 490.967 7.2 
L 44.567 7.2 
z
" style="fill:#ffffff;stroke:#7f7f7f;stroke-linejoin:miter;"/>
   </g>
   <g id="matplotlib.axis_1">
    <g id="xtick_1">
     <g id="line2d_1">
      <path clip-path="url(#p7d29b96145)" d="M 64.857909 228.96 
L 64.857909 7.2 
" style="fill:none;stroke:#e5e5e5;stroke-width:0.8;"/>
     </g>
     <g id="line2d_2">
      <path d="M 64.857909 228.96 
" style="fill:none;stroke:#000000;stroke-width:1.5;"/>
      <defs>
       <path d="M 0 0 
L 0 2.75 
" id="md29d83d532" style="stroke:#000000;"/>
      </defs>
      <g>
       <use style="stroke:#000000;" x="64.857909" xlink:href="#md29d83d532" y="228.96"/>
      </g>
     </g>
     <g id="text_1">
      <!-- 1 -->
      <defs>
       <path d="M 12.40625 8.296875 
L 28.515625 8.296875 
L 28.515625 63.921875 
L 10.984375 60.40625 
L 10.984375 69.390625 
L 28.421875 72.90625 
L 38.28125 72.90625 
L 38.28125 8.296875 
L 54.390625 8.296875 
L 54.390625 0 
L 12.40625 0 
z
" id="DejaVuSans-49"/>
      </defs>
      <g transform="translate(62.058409 240.596625)scale(0.088 -0.088)">
       <use xlink:href="#DejaVuSans-49"/>
      </g>
     </g>
    </g>
    <g id="xtick_2">
     <g id="line2d_3">
      <path clip-path="url(#p7d29b96145)" d="M 200.130636 228.96 
L 200.130636 7.2 
" style="fill:none;stroke:#e5e5e5;stroke-width:0.8;"/>
     </g>
     <g id="line2d_4">
      <path d="M 200.130636 228.96 
" style="fill:none;stroke:#000000;stroke-width:1.5;"/>
      <g>
       <use style="stroke:#000000;" x="200.130636" xlink:href="#md29d83d532" y="228.96"/>
      </g>
     </g>
     <g id="text_2">
      <!-- 2 -->
      <defs>
       <path d="M 19.1875 8.296875 
L 53.609375 8.296875 
L 53.609375 0 
L 7.328125 0 
L 7.328125 8.296875 
Q 12.9375 14.109375 22.625 23.890625 
Q 32.328125 33.6875 34.8125 36.53125 
Q 39.546875 41.84375 41.421875 45.53125 
Q 43.3125 49.21875 43.3125 52.78125 
Q 43.3125 58.59375 39.234375 62.25 
Q 35.15625 65.921875 28.609375 65.921875 
Q 23.96875 65.921875 18.8125 64.3125 
Q 13.671875 62.703125 7.8125 59.421875 
L 7.8125 69.390625 
Q 13.765625 71.78125 18.9375 73 
Q 24.125 74.21875 28.421875 74.21875 
Q 39.75 74.21875 46.484375 68.546875 
Q 53.21875 62.890625 53.21875 53.421875 
Q 53.21875 48.921875 51.53125 44.890625 
Q 49.859375 40.875 45.40625 35.40625 
Q 44.1875 33.984375 37.640625 27.21875 
Q 31.109375 20.453125 19.1875 8.296875 
z
" id="DejaVuSans-50"/>
      </defs>
      <g transform="translate(197.331136 240.596625)scale(0.088 -0.088)">
       <use xlink:href="#DejaVuSans-50"/>
      </g>
     </g>
    </g>
    <g id="xtick_3">
     <g id="line2d_5">
      <path clip-path="url(#p7d29b96145)" d="M 335.403364 228.96 
L 335.403364 7.2 
" style="fill:none;stroke:#e5e5e5;stroke-width:0.8;"/>
     </g>
     <g id="line2d_6">
      <path d="M 335.403364 228.96 
" style="fill:none;stroke:#000000;stroke-width:1.5;"/>
      <g>
       <use style="stroke:#000000;" x="335.403364" xlink:href="#md29d83d532" y="228.96"/>
      </g>
     </g>
     <g id="text_3">
      <!-- 3 -->
      <defs>
       <path d="M 40.578125 39.3125 
Q 47.65625 37.796875 51.625 33 
Q 55.609375 28.21875 55.609375 21.1875 
Q 55.609375 10.40625 48.1875 4.484375 
Q 40.765625 -1.421875 27.09375 -1.421875 
Q 22.515625 -1.421875 17.65625 -0.515625 
Q 12.796875 0.390625 7.625 2.203125 
L 7.625 11.71875 
Q 11.71875 9.328125 16.59375 8.109375 
Q 21.484375 6.890625 26.8125 6.890625 
Q 36.078125 6.890625 40.9375 10.546875 
Q 45.796875 14.203125 45.796875 21.1875 
Q 45.796875 27.640625 41.28125 31.265625 
Q 36.765625 34.90625 28.71875 34.90625 
L 20.21875 34.90625 
L 20.21875 43.015625 
L 29.109375 43.015625 
Q 36.375 43.015625 40.234375 45.921875 
Q 44.09375 48.828125 44.09375 54.296875 
Q 44.09375 59.90625 40.109375 62.90625 
Q 36.140625 65.921875 28.71875 65.921875 
Q 24.65625 65.921875 20.015625 65.03125 
Q 15.375 64.15625 9.8125 62.3125 
L 9.8125 71.09375 
Q 15.4375 72.65625 20.34375 73.4375 
Q 25.25 74.21875 29.59375 74.21875 
Q 40.828125 74.21875 47.359375 69.109375 
Q 53.90625 64.015625 53.90625 55.328125 
Q 53.90625 49.265625 50.4375 45.09375 
Q 46.96875 40.921875 40.578125 39.3125 
z
" id="DejaVuSans-51"/>
      </defs>
      <g transform="translate(332.603864 240.596625)scale(0.088 -0.088)">
       <use xlink:href="#DejaVuSans-51"/>
      </g>
     </g>
    </g>
    <g id="xtick_4">
     <g id="line2d_7">
      <path clip-path="url(#p7d29b96145)" d="M 470.676091 228.96 
L 470.676091 7.2 
" style="fill:none;stroke:#e5e5e5;stroke-width:0.8;"/>
     </g>
     <g id="line2d_8">
      <path d="M 470.676091 228.96 
" style="fill:none;stroke:#000000;stroke-width:1.5;"/>
      <g>
       <use style="stroke:#000000;" x="470.676091" xlink:href="#md29d83d532" y="228.96"/>
      </g>
     </g>
     <g id="text_4">
      <!-- 4 -->
      <defs>
       <path d="M 37.796875 64.3125 
L 12.890625 25.390625 
L 37.796875 25.390625 
z
M 35.203125 72.90625 
L 47.609375 72.90625 
L 47.609375 25.390625 
L 58.015625 25.390625 
L 58.015625 17.1875 
L 47.609375 17.1875 
L 47.609375 0 
L 37.796875 0 
L 37.796875 17.1875 
L 4.890625 17.1875 
L 4.890625 26.703125 
z
" id="DejaVuSans-52"/>
      </defs>
      <g transform="translate(467.876591 240.596625)scale(0.088 -0.088)">
       <use xlink:href="#DejaVuSans-52"/>
      </g>
     </g>
    </g>
    <g id="xtick_5">
     <g id="line2d_9">
      <path clip-path="url(#p7d29b96145)" d="M 132.494273 228.96 
L 132.494273 7.2 
" style="fill:none;stroke:#fafafa;"/>
     </g>
     <g id="line2d_10">
      <path d="M 132.494273 228.96 
" style="fill:none;stroke:#000000;stroke-width:1.5;"/>
      <defs>
       <path d="M 0 0 
L 0 1.375 
" id="m12ce30a2f0" style="stroke:#000000;"/>
      </defs>
      <g>
       <use style="stroke:#000000;" x="132.494273" xlink:href="#m12ce30a2f0" y="228.96"/>
      </g>
     </g>
    </g>
    <g id="xtick_6">
     <g id="line2d_11">
      <path clip-path="url(#p7d29b96145)" d="M 267.767 228.96 
L 267.767 7.2 
" style="fill:none;stroke:#fafafa;"/>
     </g>
     <g id="line2d_12">
      <path d="M 267.767 228.96 
" style="fill:none;stroke:#000000;stroke-width:1.5;"/>
      <g>
       <use style="stroke:#000000;" x="267.767" xlink:href="#m12ce30a2f0" y="228.96"/>
      </g>
     </g>
    </g>
    <g id="xtick_7">
     <g id="line2d_13">
      <path clip-path="url(#p7d29b96145)" d="M 403.039727 228.96 
L 403.039727 7.2 
" style="fill:none;stroke:#fafafa;"/>
     </g>
     <g id="line2d_14">
      <path d="M 403.039727 228.96 
" style="fill:none;stroke:#000000;stroke-width:1.5;"/>
      <g>
       <use style="stroke:#000000;" x="403.039727" xlink:href="#m12ce30a2f0" y="228.96"/>
      </g>
     </g>
    </g>
    <g id="text_5">
     <!-- Resolution -->
     <defs>
      <path d="M 44.390625 34.1875 
Q 47.5625 33.109375 50.5625 29.59375 
Q 53.5625 26.078125 56.59375 19.921875 
L 66.609375 0 
L 56 0 
L 46.6875 18.703125 
Q 43.0625 26.03125 39.671875 28.421875 
Q 36.28125 30.8125 30.421875 30.8125 
L 19.671875 30.8125 
L 19.671875 0 
L 9.8125 0 
L 9.8125 72.90625 
L 32.078125 72.90625 
Q 44.578125 72.90625 50.734375 67.671875 
Q 56.890625 62.453125 56.890625 51.90625 
Q 56.890625 45.015625 53.6875 40.46875 
Q 50.484375 35.9375 44.390625 34.1875 
z
M 19.671875 64.796875 
L 19.671875 38.921875 
L 32.078125 38.921875 
Q 39.203125 38.921875 42.84375 42.21875 
Q 46.484375 45.515625 46.484375 51.90625 
Q 46.484375 58.296875 42.84375 61.546875 
Q 39.203125 64.796875 32.078125 64.796875 
z
" id="DejaVuSans-82"/>
      <path d="M 56.203125 29.59375 
L 56.203125 25.203125 
L 14.890625 25.203125 
Q 15.484375 15.921875 20.484375 11.0625 
Q 25.484375 6.203125 34.421875 6.203125 
Q 39.59375 6.203125 44.453125 7.46875 
Q 49.3125 8.734375 54.109375 11.28125 
L 54.109375 2.78125 
Q 49.265625 0.734375 44.1875 -0.34375 
Q 39.109375 -1.421875 33.890625 -1.421875 
Q 20.796875 -1.421875 13.15625 6.1875 
Q 5.515625 13.8125 5.515625 26.8125 
Q 5.515625 40.234375 12.765625 48.109375 
Q 20.015625 56 32.328125 56 
Q 43.359375 56 49.78125 48.890625 
Q 56.203125 41.796875 56.203125 29.59375 
z
M 47.21875 32.234375 
Q 47.125 39.59375 43.09375 43.984375 
Q 39.0625 48.390625 32.421875 48.390625 
Q 24.90625 48.390625 20.390625 44.140625 
Q 15.875 39.890625 15.1875 32.171875 
z
" id="DejaVuSans-101"/>
      <path d="M 44.28125 53.078125 
L 44.28125 44.578125 
Q 40.484375 46.53125 36.375 47.5 
Q 32.28125 48.484375 27.875 48.484375 
Q 21.1875 48.484375 17.84375 46.4375 
Q 14.5 44.390625 14.5 40.28125 
Q 14.5 37.15625 16.890625 35.375 
Q 19.28125 33.59375 26.515625 31.984375 
L 29.59375 31.296875 
Q 39.15625 29.25 43.1875 25.515625 
Q 47.21875 21.78125 47.21875 15.09375 
Q 47.21875 7.46875 41.1875 3.015625 
Q 35.15625 -1.421875 24.609375 -1.421875 
Q 20.21875 -1.421875 15.453125 -0.5625 
Q 10.6875 0.296875 5.421875 2 
L 5.421875 11.28125 
Q 10.40625 8.6875 15.234375 7.390625 
Q 20.0625 6.109375 24.8125 6.109375 
Q 31.15625 6.109375 34.5625 8.28125 
Q 37.984375 10.453125 37.984375 14.40625 
Q 37.984375 18.0625 35.515625 20.015625 
Q 33.0625 21.96875 24.703125 23.78125 
L 21.578125 24.515625 
Q 13.234375 26.265625 9.515625 29.90625 
Q 5.8125 33.546875 5.8125 39.890625 
Q 5.8125 47.609375 11.28125 51.796875 
Q 16.75 56 26.8125 56 
Q 31.78125 56 36.171875 55.265625 
Q 40.578125 54.546875 44.28125 53.078125 
z
" id="DejaVuSans-115"/>
      <path d="M 30.609375 48.390625 
Q 23.390625 48.390625 19.1875 42.75 
Q 14.984375 37.109375 14.984375 27.296875 
Q 14.984375 17.484375 19.15625 11.84375 
Q 23.34375 6.203125 30.609375 6.203125 
Q 37.796875 6.203125 41.984375 11.859375 
Q 46.1875 17.53125 46.1875 27.296875 
Q 46.1875 37.015625 41.984375 42.703125 
Q 37.796875 48.390625 30.609375 48.390625 
z
M 30.609375 56 
Q 42.328125 56 49.015625 48.375 
Q 55.71875 40.765625 55.71875 27.296875 
Q 55.71875 13.875 49.015625 6.21875 
Q 42.328125 -1.421875 30.609375 -1.421875 
Q 18.84375 -1.421875 12.171875 6.21875 
Q 5.515625 13.875 5.515625 27.296875 
Q 5.515625 40.765625 12.171875 48.375 
Q 18.84375 56 30.609375 56 
z
" id="DejaVuSans-111"/>
      <path d="M 9.421875 75.984375 
L 18.40625 75.984375 
L 18.40625 0 
L 9.421875 0 
z
" id="DejaVuSans-108"/>
      <path d="M 8.5 21.578125 
L 8.5 54.6875 
L 17.484375 54.6875 
L 17.484375 21.921875 
Q 17.484375 14.15625 20.5 10.265625 
Q 23.53125 6.390625 29.59375 6.390625 
Q 36.859375 6.390625 41.078125 11.03125 
Q 45.3125 15.671875 45.3125 23.6875 
L 45.3125 54.6875 
L 54.296875 54.6875 
L 54.296875 0 
L 45.3125 0 
L 45.3125 8.40625 
Q 42.046875 3.421875 37.71875 1 
Q 33.40625 -1.421875 27.6875 -1.421875 
Q 18.265625 -1.421875 13.375 4.4375 
Q 8.5 10.296875 8.5 21.578125 
z
M 31.109375 56 
z
" id="DejaVuSans-117"/>
      <path d="M 18.3125 70.21875 
L 18.3125 54.6875 
L 36.8125 54.6875 
L 36.8125 47.703125 
L 18.3125 47.703125 
L 18.3125 18.015625 
Q 18.3125 11.328125 20.140625 9.421875 
Q 21.96875 7.515625 27.59375 7.515625 
L 36.8125 7.515625 
L 36.8125 0 
L 27.59375 0 
Q 17.1875 0 13.234375 3.875 
Q 9.28125 7.765625 9.28125 18.015625 
L 9.28125 47.703125 
L 2.6875 47.703125 
L 2.6875 54.6875 
L 9.28125 54.6875 
L 9.28125 70.21875 
z
" id="DejaVuSans-116"/>
      <path d="M 9.421875 54.6875 
L 18.40625 54.6875 
L 18.40625 0 
L 9.421875 0 
z
M 9.421875 75.984375 
L 18.40625 75.984375 
L 18.40625 64.59375 
L 9.421875 64.59375 
z
" id="DejaVuSans-105"/>
      <path d="M 54.890625 33.015625 
L 54.890625 0 
L 45.90625 0 
L 45.90625 32.71875 
Q 45.90625 40.484375 42.875 44.328125 
Q 39.84375 48.1875 33.796875 48.1875 
Q 26.515625 48.1875 22.3125 43.546875 
Q 18.109375 38.921875 18.109375 30.90625 
L 18.109375 0 
L 9.078125 0 
L 9.078125 54.6875 
L 18.109375 54.6875 
L 18.109375 46.1875 
Q 21.34375 51.125 25.703125 53.5625 
Q 30.078125 56 35.796875 56 
Q 45.21875 56 50.046875 50.171875 
Q 54.890625 44.34375 54.890625 33.015625 
z
" id="DejaVuSans-110"/>
     </defs>
     <g transform="translate(231.585438 255.185031)scale(0.11 -0.11)">
      <use xlink:href="#DejaVuSans-82"/>
      <use x="69.419922" xlink:href="#DejaVuSans-101"/>
      <use x="130.943359" xlink:href="#DejaVuSans-115"/>
      <use x="183.042969" xlink:href="#DejaVuSans-111"/>
      <use x="244.224609" xlink:href="#DejaVuSans-108"/>
      <use x="272.007812" xlink:href="#DejaVuSans-117"/>
      <use x="335.386719" xlink:href="#DejaVuSans-116"/>
      <use x="374.595703" xlink:href="#DejaVuSans-105"/>
      <use x="402.378906" xlink:href="#DejaVuSans-111"/>
      <use x="463.560547" xlink:href="#DejaVuSans-110"/>
     </g>
    </g>
   </g>
   <g id="matplotlib.axis_2">
    <g id="ytick_1">
     <g id="line2d_15">
      <path clip-path="url(#p7d29b96145)" d="M 44.567 218.88 
L 490.967 218.88 
" style="fill:none;stroke:#e5e5e5;stroke-width:0.8;"/>
     </g>
     <g id="line2d_16">
      <path d="M 44.567 218.88 
" style="fill:none;stroke:#000000;stroke-width:1.5;"/>
      <defs>
       <path d="M 0 0 
L -2.75 0 
" id="m7a4fb5349e" style="stroke:#000000;"/>
      </defs>
      <g>
       <use style="stroke:#000000;" x="44.567" xlink:href="#m7a4fb5349e" y="218.88"/>
      </g>
     </g>
     <g id="text_6">
      <!-- 0 -->
      <defs>
       <path d="M 31.78125 66.40625 
Q 24.171875 66.40625 20.328125 58.90625 
Q 16.5 51.421875 16.5 36.375 
Q 16.5 21.390625 20.328125 13.890625 
Q 24.171875 6.390625 31.78125 6.390625 
Q 39.453125 6.390625 43.28125 13.890625 
Q 47.125 21.390625 47.125 36.375 
Q 47.125 51.421875 43.28125 58.90625 
Q 39.453125 66.40625 31.78125 66.40625 
z
M 31.78125 74.21875 
Q 44.046875 74.21875 50.515625 64.515625 
Q 56.984375 54.828125 56.984375 36.375 
Q 56.984375 17.96875 50.515625 8.265625 
Q 44.046875 -1.421875 31.78125 -1.421875 
Q 19.53125 -1.421875 13.0625 8.265625 
Q 6.59375 17.96875 6.59375 36.375 
Q 6.59375 54.828125 13.0625 64.515625 
Q 19.53125 74.21875 31.78125 74.21875 
z
" id="DejaVuSans-48"/>
      </defs>
      <g transform="translate(34.018 221.30825)scale(0.088 -0.088)">
       <use xlink:href="#DejaVuSans-48"/>
      </g>
     </g>
    </g>
    <g id="ytick_2">
     <g id="line2d_17">
      <path clip-path="url(#p7d29b96145)" d="M 44.567 168.48 
L 490.967 168.48 
" style="fill:none;stroke:#e5e5e5;stroke-width:0.8;"/>
     </g>
     <g id="line2d_18">
      <path d="M 44.567 168.48 
" style="fill:none;stroke:#000000;stroke-width:1.5;"/>
      <g>
       <use style="stroke:#000000;" x="44.567" xlink:href="#m7a4fb5349e" y="168.48"/>
      </g>
     </g>
     <g id="text_7">
      <!-- 25 -->
      <defs>
       <path d="M 10.796875 72.90625 
L 49.515625 72.90625 
L 49.515625 64.59375 
L 19.828125 64.59375 
L 19.828125 46.734375 
Q 21.96875 47.46875 24.109375 47.828125 
Q 26.265625 48.1875 28.421875 48.1875 
Q 40.625 48.1875 47.75 41.5 
Q 54.890625 34.8125 54.890625 23.390625 
Q 54.890625 11.625 47.5625 5.09375 
Q 40.234375 -1.421875 26.90625 -1.421875 
Q 22.3125 -1.421875 17.546875 -0.640625 
Q 12.796875 0.140625 7.71875 1.703125 
L 7.71875 11.625 
Q 12.109375 9.234375 16.796875 8.0625 
Q 21.484375 6.890625 26.703125 6.890625 
Q 35.15625 6.890625 40.078125 11.328125 
Q 45.015625 15.765625 45.015625 23.390625 
Q 45.015625 31 40.078125 35.4375 
Q 35.15625 39.890625 26.703125 39.890625 
Q 22.75 39.890625 18.8125 39.015625 
Q 14.890625 38.140625 10.796875 36.28125 
z
" id="DejaVuSans-53"/>
      </defs>
      <g transform="translate(28.419 170.90825)scale(0.088 -0.088)">
       <use xlink:href="#DejaVuSans-50"/>
       <use x="63.623047" xlink:href="#DejaVuSans-53"/>
      </g>
     </g>
    </g>
    <g id="ytick_3">
     <g id="line2d_19">
      <path clip-path="url(#p7d29b96145)" d="M 44.567 118.08 
L 490.967 118.08 
" style="fill:none;stroke:#e5e5e5;stroke-width:0.8;"/>
     </g>
     <g id="line2d_20">
      <path d="M 44.567 118.08 
" style="fill:none;stroke:#000000;stroke-width:1.5;"/>
      <g>
       <use style="stroke:#000000;" x="44.567" xlink:href="#m7a4fb5349e" y="118.08"/>
      </g>
     </g>
     <g id="text_8">
      <!-- 50 -->
      <g transform="translate(28.419 120.50825)scale(0.088 -0.088)">
       <use xlink:href="#DejaVuSans-53"/>
       <use x="63.623047" xlink:href="#DejaVuSans-48"/>
      </g>
     </g>
    </g>
    <g id="ytick_4">
     <g id="line2d_21">
      <path clip-path="url(#p7d29b96145)" d="M 44.567 67.68 
L 490.967 67.68 
" style="fill:none;stroke:#e5e5e5;stroke-width:0.8;"/>
     </g>
     <g id="line2d_22">
      <path d="M 44.567 67.68 
" style="fill:none;stroke:#000000;stroke-width:1.5;"/>
      <g>
       <use style="stroke:#000000;" x="44.567" xlink:href="#m7a4fb5349e" y="67.68"/>
      </g>
     </g>
     <g id="text_9">
      <!-- 75 -->
      <defs>
       <path d="M 8.203125 72.90625 
L 55.078125 72.90625 
L 55.078125 68.703125 
L 28.609375 0 
L 18.3125 0 
L 43.21875 64.59375 
L 8.203125 64.59375 
z
" id="DejaVuSans-55"/>
      </defs>
      <g transform="translate(28.419 70.10825)scale(0.088 -0.088)">
       <use xlink:href="#DejaVuSans-55"/>
       <use x="63.623047" xlink:href="#DejaVuSans-53"/>
      </g>
     </g>
    </g>
    <g id="ytick_5">
     <g id="line2d_23">
      <path clip-path="url(#p7d29b96145)" d="M 44.567 17.28 
L 490.967 17.28 
" style="fill:none;stroke:#e5e5e5;stroke-width:0.8;"/>
     </g>
     <g id="line2d_24">
      <path d="M 44.567 17.28 
" style="fill:none;stroke:#000000;stroke-width:1.5;"/>
      <g>
       <use style="stroke:#000000;" x="44.567" xlink:href="#m7a4fb5349e" y="17.28"/>
      </g>
     </g>
     <g id="text_10">
      <!-- 100 -->
      <g transform="translate(22.82 19.70825)scale(0.088 -0.088)">
       <use xlink:href="#DejaVuSans-49"/>
       <use x="63.623047" xlink:href="#DejaVuSans-48"/>
       <use x="127.246094" xlink:href="#DejaVuSans-48"/>
      </g>
     </g>
    </g>
    <g id="ytick_6">
     <g id="line2d_25">
      <path clip-path="url(#p7d29b96145)" d="M 44.567 193.68 
L 490.967 193.68 
" style="fill:none;stroke:#fafafa;"/>
     </g>
     <g id="line2d_26">
      <path d="M 44.567 193.68 
" style="fill:none;stroke:#000000;stroke-width:1.5;"/>
      <defs>
       <path d="M 0 0 
L -1.375 0 
" id="m1e78ccd89b" style="stroke:#000000;"/>
      </defs>
      <g>
       <use style="stroke:#000000;" x="44.567" xlink:href="#m1e78ccd89b" y="193.68"/>
      </g>
     </g>
    </g>
    <g id="ytick_7">
     <g id="line2d_27">
      <path clip-path="url(#p7d29b96145)" d="M 44.567 143.28 
L 490.967 143.28 
" style="fill:none;stroke:#fafafa;"/>
     </g>
     <g id="line2d_28">
      <path d="M 44.567 143.28 
" style="fill:none;stroke:#000000;stroke-width:1.5;"/>
      <g>
       <use style="stroke:#000000;" x="44.567" xlink:href="#m1e78ccd89b" y="143.28"/>
      </g>
     </g>
    </g>
    <g id="ytick_8">
     <g id="line2d_29">
      <path clip-path="url(#p7d29b96145)" d="M 44.567 92.88 
L 490.967 92.88 
" style="fill:none;stroke:#fafafa;"/>
     </g>
     <g id="line2d_30">
      <path d="M 44.567 92.88 
" style="fill:none;stroke:#000000;stroke-width:1.5;"/>
      <g>
       <use style="stroke:#000000;" x="44.567" xlink:href="#m1e78ccd89b" y="92.88"/>
      </g>
     </g>
    </g>
    <g id="ytick_9">
     <g id="line2d_31">
      <path clip-path="url(#p7d29b96145)" d="M 44.567 42.48 
L 490.967 42.48 
" style="fill:none;stroke:#fafafa;"/>
     </g>
     <g id="line2d_32">
      <path d="M 44.567 42.48 
" style="fill:none;stroke:#000000;stroke-width:1.5;"/>
      <g>
       <use style="stroke:#000000;" x="44.567" xlink:href="#m1e78ccd89b" y="42.48"/>
      </g>
     </g>
    </g>
    <g id="text_11">
     <!-- $P_{Q1}(t)$ [%] -->
     <defs>
      <path d="M 16.890625 72.90625 
L 39.703125 72.90625 
Q 49.65625 72.90625 54.875 68.265625 
Q 60.109375 63.625 60.109375 54.6875 
Q 60.109375 42.671875 52.390625 35.984375 
Q 44.671875 29.296875 30.71875 29.296875 
L 18.3125 29.296875 
L 12.59375 0 
L 2.6875 0 
z
M 25.203125 64.796875 
L 19.921875 37.40625 
L 32.328125 37.40625 
Q 40.71875 37.40625 45.203125 41.703125 
Q 49.703125 46 49.703125 54 
Q 49.703125 59.125 46.65625 61.953125 
Q 43.609375 64.796875 38.09375 64.796875 
z
" id="DejaVuSans-Oblique-80"/>
      <path d="M 36.078125 -1.3125 
Q 35.546875 -1.375 34.953125 -1.390625 
Q 34.375 -1.421875 33.203125 -1.421875 
Q 19.53125 -1.421875 11.8125 6.421875 
Q 4.109375 14.265625 4.109375 28.078125 
Q 4.109375 36.234375 7.0625 44.4375 
Q 10.015625 52.640625 15.28125 59.1875 
Q 21.390625 66.703125 29.03125 70.453125 
Q 36.671875 74.21875 45.90625 74.21875 
Q 59.28125 74.21875 66.984375 66.328125 
Q 74.703125 58.453125 74.703125 44.828125 
Q 74.703125 30.125 66.640625 17.921875 
Q 58.59375 5.71875 45.609375 0.6875 
L 55.515625 -12.890625 
L 44.484375 -12.890625 
z
M 45.609375 66.21875 
Q 37.5 66.21875 31.296875 62.28125 
Q 25.09375 58.34375 20.515625 50.296875 
Q 17.578125 45.171875 16.03125 39.40625 
Q 14.5 33.640625 14.5 27.78125 
Q 14.5 17.625 19.359375 12.109375 
Q 24.21875 6.59375 33.109375 6.59375 
Q 41.109375 6.59375 47.375 10.5625 
Q 53.65625 14.546875 58.109375 22.40625 
Q 61.078125 27.6875 62.640625 33.46875 
Q 64.203125 39.265625 64.203125 45.015625 
Q 64.203125 55.125 59.3125 60.671875 
Q 54.4375 66.21875 45.609375 66.21875 
z
" id="DejaVuSans-Oblique-81"/>
      <path d="M 31 75.875 
Q 24.46875 64.65625 21.28125 53.65625 
Q 18.109375 42.671875 18.109375 31.390625 
Q 18.109375 20.125 21.3125 9.0625 
Q 24.515625 -2 31 -13.1875 
L 23.1875 -13.1875 
Q 15.875 -1.703125 12.234375 9.375 
Q 8.59375 20.453125 8.59375 31.390625 
Q 8.59375 42.28125 12.203125 53.3125 
Q 15.828125 64.359375 23.1875 75.875 
z
" id="DejaVuSans-40"/>
      <path d="M 42.28125 54.6875 
L 40.921875 47.703125 
L 23 47.703125 
L 17.1875 18.015625 
Q 16.890625 16.359375 16.75 15.234375 
Q 16.609375 14.109375 16.609375 13.484375 
Q 16.609375 10.359375 18.484375 8.9375 
Q 20.359375 7.515625 24.515625 7.515625 
L 33.59375 7.515625 
L 32.078125 0 
L 23.484375 0 
Q 15.484375 0 11.546875 3.125 
Q 7.625 6.25 7.625 12.59375 
Q 7.625 13.71875 7.765625 15.0625 
Q 7.90625 16.40625 8.203125 18.015625 
L 14.015625 47.703125 
L 6.390625 47.703125 
L 7.8125 54.6875 
L 15.28125 54.6875 
L 18.3125 70.21875 
L 27.296875 70.21875 
L 24.3125 54.6875 
z
" id="DejaVuSans-Oblique-116"/>
      <path d="M 8.015625 75.875 
L 15.828125 75.875 
Q 23.140625 64.359375 26.78125 53.3125 
Q 30.421875 42.28125 30.421875 31.390625 
Q 30.421875 20.453125 26.78125 9.375 
Q 23.140625 -1.703125 15.828125 -13.1875 
L 8.015625 -13.1875 
Q 14.5 -2 17.703125 9.0625 
Q 20.90625 20.125 20.90625 31.390625 
Q 20.90625 42.671875 17.703125 53.65625 
Q 14.5 64.65625 8.015625 75.875 
z
" id="DejaVuSans-41"/>
      <path id="DejaVuSans-32"/>
      <path d="M 8.59375 75.984375 
L 29.296875 75.984375 
L 29.296875 69 
L 17.578125 69 
L 17.578125 -6.203125 
L 29.296875 -6.203125 
L 29.296875 -13.1875 
L 8.59375 -13.1875 
z
" id="DejaVuSans-91"/>
      <path d="M 72.703125 32.078125 
Q 68.453125 32.078125 66.03125 28.46875 
Q 63.625 24.859375 63.625 18.40625 
Q 63.625 12.0625 66.03125 8.421875 
Q 68.453125 4.78125 72.703125 4.78125 
Q 76.859375 4.78125 79.265625 8.421875 
Q 81.6875 12.0625 81.6875 18.40625 
Q 81.6875 24.8125 79.265625 28.4375 
Q 76.859375 32.078125 72.703125 32.078125 
z
M 72.703125 38.28125 
Q 80.421875 38.28125 84.953125 32.90625 
Q 89.5 27.546875 89.5 18.40625 
Q 89.5 9.28125 84.9375 3.921875 
Q 80.375 -1.421875 72.703125 -1.421875 
Q 64.890625 -1.421875 60.34375 3.921875 
Q 55.8125 9.28125 55.8125 18.40625 
Q 55.8125 27.59375 60.375 32.9375 
Q 64.9375 38.28125 72.703125 38.28125 
z
M 22.3125 68.015625 
Q 18.109375 68.015625 15.6875 64.375 
Q 13.28125 60.75 13.28125 54.390625 
Q 13.28125 47.953125 15.671875 44.328125 
Q 18.0625 40.71875 22.3125 40.71875 
Q 26.5625 40.71875 28.96875 44.328125 
Q 31.390625 47.953125 31.390625 54.390625 
Q 31.390625 60.6875 28.953125 64.34375 
Q 26.515625 68.015625 22.3125 68.015625 
z
M 66.40625 74.21875 
L 74.21875 74.21875 
L 28.609375 -1.421875 
L 20.796875 -1.421875 
z
M 22.3125 74.21875 
Q 30.03125 74.21875 34.609375 68.875 
Q 39.203125 63.53125 39.203125 54.390625 
Q 39.203125 45.171875 34.640625 39.84375 
Q 30.078125 34.515625 22.3125 34.515625 
Q 14.546875 34.515625 10.03125 39.859375 
Q 5.515625 45.21875 5.515625 54.390625 
Q 5.515625 63.484375 10.046875 68.84375 
Q 14.59375 74.21875 22.3125 74.21875 
z
" id="DejaVuSans-37"/>
      <path d="M 30.421875 75.984375 
L 30.421875 -13.1875 
L 9.71875 -13.1875 
L 9.71875 -6.203125 
L 21.390625 -6.203125 
L 21.390625 69 
L 9.71875 69 
L 9.71875 75.984375 
z
" id="DejaVuSans-93"/>
     </defs>
     <g transform="translate(15.56 143.315)rotate(-90)scale(0.11 -0.11)">
      <use transform="translate(0 0.015625)" xlink:href="#DejaVuSans-Oblique-80"/>
      <use transform="translate(60.302734 -16.390625)scale(0.7)" xlink:href="#DejaVuSans-Oblique-81"/>
      <use transform="translate(115.400391 -16.390625)scale(0.7)" xlink:href="#DejaVuSans-49"/>
      <use transform="translate(162.670898 0.015625)" xlink:href="#DejaVuSans-40"/>
      <use transform="translate(201.68457 0.015625)" xlink:href="#DejaVuSans-Oblique-116"/>
      <use transform="translate(240.893555 0.015625)" xlink:href="#DejaVuSans-41"/>
      <use transform="translate(279.907227 0.015625)" xlink:href="#DejaVuSans-32"/>
      <use transform="translate(311.694336 0.015625)" xlink:href="#DejaVuSans-91"/>
      <use transform="translate(350.708008 0.015625)" xlink:href="#DejaVuSans-37"/>
      <use transform="translate(445.727539 0.015625)" xlink:href="#DejaVuSans-93"/>
     </g>
    </g>
   </g>
   <g id="PathCollection_1">
    <path clip-path="url(#p7d29b96145)" d="M 64.857909 45.128675 
C 65.327969 45.128675 65.77884 44.941918 66.111223 44.609535 
C 66.443606 44.277153 66.630363 43.826281 66.630363 43.356221 
C 66.630363 42.886161 66.443606 42.43529 66.111223 42.102907 
C 65.77884 41.770524 65.327969 41.583767 64.857909 41.583767 
C 64.387849 41.583767 63.936978 41.770524 63.604595 42.102907 
C 63.272212 42.43529 63.085455 42.886161 63.085455 43.356221 
C 63.085455 43.826281 63.272212 44.277153 63.604595 44.609535 
C 63.936978 44.941918 64.387849 45.128675 64.857909 45.128675 
z
" style="stroke:#000000;stroke-width:0.886227;"/>
    <path clip-path="url(#p7d29b96145)" d="M 78.385182 46.709379 
C 78.855242 46.709379 79.306113 46.522622 79.638496 46.19024 
C 79.970879 45.857857 80.157636 45.406986 80.157636 44.936925 
C 80.157636 44.466865 79.970879 44.015994 79.638496 43.683611 
C 79.306113 43.351228 78.855242 43.164472 78.385182 43.164472 
C 77.915122 43.164472 77.46425 43.351228 77.131868 43.683611 
C 76.799485 44.015994 76.612728 44.466865 76.612728 44.936925 
C 76.612728 45.406986 76.799485 45.857857 77.131868 46.19024 
C 77.46425 46.522622 77.915122 46.709379 78.385182 46.709379 
z
" style="stroke:#000000;stroke-width:0.886227;"/>
    <path clip-path="url(#p7d29b96145)" d="M 91.912455 51.184149 
C 92.382515 51.184149 92.833386 50.997392 93.165769 50.665009 
C 93.498151 50.332626 93.684908 49.881755 93.684908 49.411695 
C 93.684908 48.941635 93.498151 48.490764 93.165769 48.158381 
C 92.833386 47.825998 92.382515 47.639241 91.912455 47.639241 
C 91.442394 47.639241 90.991523 47.825998 90.65914 48.158381 
C 90.326758 48.490764 90.140001 48.941635 90.140001 49.411695 
C 90.140001 49.881755 90.326758 50.332626 90.65914 50.665009 
C 90.991523 50.997392 91.442394 51.184149 91.912455 51.184149 
z
" style="stroke:#000000;stroke-width:0.886227;"/>
    <path clip-path="url(#p7d29b96145)" d="M 105.439727 52.438504 
C 105.909788 52.438504 106.360659 52.251747 106.693041 51.919364 
C 107.025424 51.586982 107.212181 51.13611 107.212181 50.66605 
C 107.212181 50.19599 107.025424 49.745119 106.693041 49.412736 
C 106.360659 49.080353 105.909788 48.893596 105.439727 48.893596 
C 104.969667 48.893596 104.518796 49.080353 104.186413 49.412736 
C 103.85403 49.745119 103.667273 50.19599 103.667273 50.66605 
C 103.667273 51.13611 103.85403 51.586982 104.186413 51.919364 
C 104.518796 52.251747 104.969667 52.438504 105.439727 52.438504 
z
" style="stroke:#000000;stroke-width:0.886227;"/>
    <path clip-path="url(#p7d29b96145)" d="M 118.967 58.87125 
C 119.43706 58.87125 119.887931 58.684493 120.220314 58.35211 
C 120.552697 58.019728 120.739454 57.568856 120.739454 57.098796 
C 120.739454 56.628736 120.552697 56.177865 120.220314 55.845482 
C 119.887931 55.513099 119.43706 55.326342 118.967 55.326342 
C 118.49694 55.326342 118.046069 55.513099 117.713686 55.845482 
C 117.381303 56.177865 117.194546 56.628736 117.194546 57.098796 
C 117.194546 57.568856 117.381303 58.019728 117.713686 58.35211 
C 118.046069 58.684493 118.49694 58.87125 118.967 58.87125 
z
" style="stroke:#000000;stroke-width:0.886227;"/>
    <path clip-path="url(#p7d29b96145)" d="M 132.494273 65.042803 
C 132.964333 65.042803 133.415204 64.856046 133.747587 64.523663 
C 134.07997 64.19128 134.266727 63.740409 134.266727 63.270349 
C 134.266727 62.800289 134.07997 62.349417 133.747587 62.017035 
C 133.415204 61.684652 132.964333 61.497895 132.494273 61.497895 
C 132.024212 61.497895 131.573341 61.684652 131.240959 62.017035 
C 130.908576 62.349417 130.721819 62.800289 130.721819 63.270349 
C 130.721819 63.740409 130.908576 64.19128 131.240959 64.523663 
C 131.573341 64.856046 132.024212 65.042803 132.494273 65.042803 
z
" style="stroke:#000000;stroke-width:0.886227;"/>
    <path clip-path="url(#p7d29b96145)" d="M 146.021545 68.989062 
C 146.491606 68.989062 146.942477 68.802305 147.27486 68.469922 
C 147.607242 68.137539 147.793999 67.686668 147.793999 67.216608 
C 147.793999 66.746548 147.607242 66.295677 147.27486 65.963294 
C 146.942477 65.630911 146.491606 65.444154 146.021545 65.444154 
C 145.551485 65.444154 145.100614 65.630911 144.768231 65.963294 
C 144.435849 66.295677 144.249092 66.746548 144.249092 67.216608 
C 144.249092 67.686668 144.435849 68.137539 144.768231 68.469922 
C 145.100614 68.802305 145.551485 68.989062 146.021545 68.989062 
z
" style="stroke:#000000;stroke-width:0.886227;"/>
    <path clip-path="url(#p7d29b96145)" d="M 159.548818 76.214574 
C 160.018878 76.214574 160.46975 76.027817 160.802132 75.695434 
C 161.134515 75.363051 161.321272 74.91218 161.321272 74.44212 
C 161.321272 73.97206 161.134515 73.521189 160.802132 73.188806 
C 160.46975 72.856423 160.018878 72.669666 159.548818 72.669666 
C 159.078758 72.669666 158.627887 72.856423 158.295504 73.188806 
C 157.963121 73.521189 157.776364 73.97206 157.776364 74.44212 
C 157.776364 74.91218 157.963121 75.363051 158.295504 75.695434 
C 158.627887 76.027817 159.078758 76.214574 159.548818 76.214574 
z
" style="stroke:#000000;stroke-width:0.886227;"/>
    <path clip-path="url(#p7d29b96145)" d="M 173.076091 78.55331 
C 173.546151 78.55331 173.997022 78.366553 174.329405 78.03417 
C 174.661788 77.701788 174.848545 77.250917 174.848545 76.780856 
C 174.848545 76.310796 174.661788 75.859925 174.329405 75.527542 
C 173.997022 75.195159 173.546151 75.008402 173.076091 75.008402 
C 172.606031 75.008402 172.15516 75.195159 171.822777 75.527542 
C 171.490394 75.859925 171.303637 76.310796 171.303637 76.780856 
C 171.303637 77.250917 171.490394 77.701788 171.822777 78.03417 
C 172.15516 78.366553 172.606031 78.55331 173.076091 78.55331 
z
" style="stroke:#000000;stroke-width:0.886227;"/>
    <path clip-path="url(#p7d29b96145)" d="M 186.603364 90.391256 
C 187.073424 90.391256 187.524295 90.204499 187.856678 89.872117 
C 188.189061 89.539734 188.375817 89.088863 188.375817 88.618803 
C 188.375817 88.148742 188.189061 87.697871 187.856678 87.365488 
C 187.524295 87.033106 187.073424 86.846349 186.603364 86.846349 
C 186.133303 86.846349 185.682432 87.033106 185.350049 87.365488 
C 185.017667 87.697871 184.83091 88.148742 184.83091 88.618803 
C 184.83091 89.088863 185.017667 89.539734 185.350049 89.872117 
C 185.682432 90.204499 186.133303 90.391256 186.603364 90.391256 
z
" style="stroke:#000000;stroke-width:0.886227;"/>
    <path clip-path="url(#p7d29b96145)" d="M 200.130636 99.189768 
C 200.600697 99.189768 201.051568 99.003011 201.383951 98.670628 
C 201.716333 98.338246 201.90309 97.887375 201.90309 97.417314 
C 201.90309 96.947254 201.716333 96.496383 201.383951 96.164 
C 201.051568 95.831617 200.600697 95.64486 200.130636 95.64486 
C 199.660576 95.64486 199.209705 95.831617 198.877322 96.164 
C 198.544939 96.496383 198.358183 96.947254 198.358183 97.417314 
C 198.358183 97.887375 198.544939 98.338246 198.877322 98.670628 
C 199.209705 99.003011 199.660576 99.189768 200.130636 99.189768 
z
" style="stroke:#000000;stroke-width:0.886227;"/>
    <path clip-path="url(#p7d29b96145)" d="M 213.657909 107.442936 
C 214.127969 107.442936 214.57884 107.256179 214.911223 106.923796 
C 215.243606 106.591413 215.430363 106.140542 215.430363 105.670482 
C 215.430363 105.200422 215.243606 104.749551 214.911223 104.417168 
C 214.57884 104.084785 214.127969 103.898028 213.657909 103.898028 
C 213.187849 103.898028 212.736978 104.084785 212.404595 104.417168 
C 212.072212 104.749551 211.885455 105.200422 211.885455 105.670482 
C 211.885455 106.140542 212.072212 106.591413 212.404595 106.923796 
C 212.736978 107.256179 213.187849 107.442936 213.657909 107.442936 
z
" style="stroke:#000000;stroke-width:0.886227;"/>
    <path clip-path="url(#p7d29b96145)" d="M 227.185182 112.889468 
C 227.655242 112.889468 228.106113 112.702711 228.438496 112.370329 
C 228.770879 112.037946 228.957636 111.587075 228.957636 111.117014 
C 228.957636 110.646954 228.770879 110.196083 228.438496 109.8637 
C 228.106113 109.531317 227.655242 109.344561 227.185182 109.344561 
C 226.715122 109.344561 226.26425 109.531317 225.931868 109.8637 
C 225.599485 110.196083 225.412728 110.646954 225.412728 111.117014 
C 225.412728 111.587075 225.599485 112.037946 225.931868 112.370329 
C 226.26425 112.702711 226.715122 112.889468 227.185182 112.889468 
z
" style="stroke:#000000;stroke-width:0.886227;"/>
    <path clip-path="url(#p7d29b96145)" d="M 240.712455 125.400137 
C 241.182515 125.400137 241.633386 125.21338 241.965769 124.880997 
C 242.298151 124.548615 242.484908 124.097744 242.484908 123.627683 
C 242.484908 123.157623 242.298151 122.706752 241.965769 122.374369 
C 241.633386 122.041986 241.182515 121.855229 240.712455 121.855229 
C 240.242394 121.855229 239.791523 122.041986 239.45914 122.374369 
C 239.126758 122.706752 238.940001 123.157623 238.940001 123.627683 
C 238.940001 124.097744 239.126758 124.548615 239.45914 124.880997 
C 239.791523 125.21338 240.242394 125.400137 240.712455 125.400137 
z
" style="stroke:#000000;stroke-width:0.886227;"/>
    <path clip-path="url(#p7d29b96145)" d="M 254.239727 126.278938 
C 254.709788 126.278938 255.160659 126.092181 255.493041 125.759799 
C 255.825424 125.427416 256.012181 124.976545 256.012181 124.506484 
C 256.012181 124.036424 255.825424 123.585553 255.493041 123.25317 
C 255.160659 122.920788 254.709788 122.734031 254.239727 122.734031 
C 253.769667 122.734031 253.318796 122.920788 252.986413 123.25317 
C 252.65403 123.585553 252.467273 124.036424 252.467273 124.506484 
C 252.467273 124.976545 252.65403 125.427416 252.986413 125.759799 
C 253.318796 126.092181 253.769667 126.278938 254.239727 126.278938 
z
" style="stroke:#000000;stroke-width:0.886227;"/>
    <path clip-path="url(#p7d29b96145)" d="M 267.767 135.139043 
C 268.23706 135.139043 268.687931 134.952286 269.020314 134.619904 
C 269.352697 134.287521 269.539454 133.83665 269.539454 133.36659 
C 269.539454 132.896529 269.352697 132.445658 269.020314 132.113275 
C 268.687931 131.780893 268.23706 131.594136 267.767 131.594136 
C 267.29694 131.594136 266.846069 131.780893 266.513686 132.113275 
C 266.181303 132.445658 265.994546 132.896529 265.994546 133.36659 
C 265.994546 133.83665 266.181303 134.287521 266.513686 134.619904 
C 266.846069 134.952286 267.29694 135.139043 267.767 135.139043 
z
" style="stroke:#000000;stroke-width:0.886227;"/>
    <path clip-path="url(#p7d29b96145)" d="M 281.294273 134.389419 
C 281.764333 134.389419 282.215204 134.202662 282.547587 133.870279 
C 282.87997 133.537896 283.066727 133.087025 283.066727 132.616965 
C 283.066727 132.146905 282.87997 131.696034 282.547587 131.363651 
C 282.215204 131.031268 281.764333 130.844511 281.294273 130.844511 
C 280.824212 130.844511 280.373341 131.031268 280.040959 131.363651 
C 279.708576 131.696034 279.521819 132.146905 279.521819 132.616965 
C 279.521819 133.087025 279.708576 133.537896 280.040959 133.870279 
C 280.373341 134.202662 280.824212 134.389419 281.294273 134.389419 
z
" style="stroke:#000000;stroke-width:0.886227;"/>
    <path clip-path="url(#p7d29b96145)" d="M 294.821545 141.654437 
C 295.291606 141.654437 295.742477 141.46768 296.07486 141.135297 
C 296.407242 140.802914 296.593999 140.352043 296.593999 139.881983 
C 296.593999 139.411923 296.407242 138.961052 296.07486 138.628669 
C 295.742477 138.296286 295.291606 138.109529 294.821545 138.109529 
C 294.351485 138.109529 293.900614 138.296286 293.568231 138.628669 
C 293.235849 138.961052 293.049092 139.411923 293.049092 139.881983 
C 293.049092 140.352043 293.235849 140.802914 293.568231 141.135297 
C 293.900614 141.46768 294.351485 141.654437 294.821545 141.654437 
z
" style="stroke:#000000;stroke-width:0.886227;"/>
    <path clip-path="url(#p7d29b96145)" d="M 308.348818 142.843245 
C 308.818878 142.843245 309.26975 142.656488 309.602132 142.324105 
C 309.934515 141.991722 310.121272 141.540851 310.121272 141.070791 
C 310.121272 140.600731 309.934515 140.14986 309.602132 139.817477 
C 309.26975 139.485094 308.818878 139.298337 308.348818 139.298337 
C 307.878758 139.298337 307.427887 139.485094 307.095504 139.817477 
C 306.763121 140.14986 306.576364 140.600731 306.576364 141.070791 
C 306.576364 141.540851 306.763121 141.991722 307.095504 142.324105 
C 307.427887 142.656488 307.878758 142.843245 308.348818 142.843245 
z
" style="stroke:#000000;stroke-width:0.886227;"/>
    <path clip-path="url(#p7d29b96145)" d="M 321.876091 148.725413 
C 322.346151 148.725413 322.797022 148.538656 323.129405 148.206273 
C 323.461788 147.873891 323.648545 147.423019 323.648545 146.952959 
C 323.648545 146.482899 323.461788 146.032028 323.129405 145.699645 
C 322.797022 145.367262 322.346151 145.180505 321.876091 145.180505 
C 321.406031 145.180505 320.95516 145.367262 320.622777 145.699645 
C 320.290394 146.032028 320.103637 146.482899 320.103637 146.952959 
C 320.103637 147.423019 320.290394 147.873891 320.622777 148.206273 
C 320.95516 148.538656 321.406031 148.725413 321.876091 148.725413 
z
" style="stroke:#000000;stroke-width:0.886227;"/>
    <path clip-path="url(#p7d29b96145)" d="M 335.403364 141.151917 
C 335.873424 141.151917 336.324295 140.96516 336.656678 140.632777 
C 336.989061 140.300394 337.175817 139.849523 337.175817 139.379463 
C 337.175817 138.909403 336.989061 138.458531 336.656678 138.126149 
C 336.324295 137.793766 335.873424 137.607009 335.403364 137.607009 
C 334.933303 137.607009 334.482432 137.793766 334.150049 138.126149 
C 333.817667 138.458531 333.63091 138.909403 333.63091 139.379463 
C 333.63091 139.849523 333.817667 140.300394 334.150049 140.632777 
C 334.482432 140.96516 334.933303 141.151917 335.403364 141.151917 
z
" style="stroke:#000000;stroke-width:0.886227;"/>
    <path clip-path="url(#p7d29b96145)" d="M 348.930636 141.894518 
C 349.400697 141.894518 349.851568 141.707761 350.183951 141.375379 
C 350.516333 141.042996 350.70309 140.592125 350.70309 140.122065 
C 350.70309 139.652004 350.516333 139.201133 350.183951 138.86875 
C 349.851568 138.536368 349.400697 138.349611 348.930636 138.349611 
C 348.460576 138.349611 348.009705 138.536368 347.677322 138.86875 
C 347.344939 139.201133 347.158183 139.652004 347.158183 140.122065 
C 347.158183 140.592125 347.344939 141.042996 347.677322 141.375379 
C 348.009705 141.707761 348.460576 141.894518 348.930636 141.894518 
z
" style="stroke:#000000;stroke-width:0.886227;"/>
    <path clip-path="url(#p7d29b96145)" d="M 362.457909 149.497786 
C 362.927969 149.497786 363.37884 149.311029 363.711223 148.978646 
C 364.043606 148.646263 364.230363 148.195392 364.230363 147.725332 
C 364.230363 147.255271 364.043606 146.8044 363.711223 146.472018 
C 363.37884 146.139635 362.927969 145.952878 362.457909 145.952878 
C 361.987849 145.952878 361.536978 146.139635 361.204595 146.472018 
C 360.872212 146.8044 360.685455 147.255271 360.685455 147.725332 
C 360.685455 148.195392 360.872212 148.646263 361.204595 148.978646 
C 361.536978 149.311029 361.987849 149.497786 362.457909 149.497786 
z
" style="stroke:#000000;stroke-width:0.886227;"/>
    <path clip-path="url(#p7d29b96145)" d="M 375.985182 157.268633 
C 376.455242 157.268633 376.906113 157.081876 377.238496 156.749494 
C 377.570879 156.417111 377.757636 155.96624 377.757636 155.496179 
C 377.757636 155.026119 377.570879 154.575248 377.238496 154.242865 
C 376.906113 153.910483 376.455242 153.723726 375.985182 153.723726 
C 375.515122 153.723726 375.06425 153.910483 374.731868 154.242865 
C 374.399485 154.575248 374.212728 155.026119 374.212728 155.496179 
C 374.212728 155.96624 374.399485 156.417111 374.731868 156.749494 
C 375.06425 157.081876 375.515122 157.268633 375.985182 157.268633 
z
" style="stroke:#000000;stroke-width:0.886227;"/>
    <path clip-path="url(#p7d29b96145)" d="M 389.512455 167.046442 
C 389.982515 167.046442 390.433386 166.859685 390.765769 166.527302 
C 391.098151 166.194919 391.284908 165.744048 391.284908 165.273988 
C 391.284908 164.803928 391.098151 164.353057 390.765769 164.020674 
C 390.433386 163.688291 389.982515 163.501534 389.512455 163.501534 
C 389.042394 163.501534 388.591523 163.688291 388.25914 164.020674 
C 387.926758 164.353057 387.740001 164.803928 387.740001 165.273988 
C 387.740001 165.744048 387.926758 166.194919 388.25914 166.527302 
C 388.591523 166.859685 389.042394 167.046442 389.512455 167.046442 
z
" style="stroke:#000000;stroke-width:0.886227;"/>
    <path clip-path="url(#p7d29b96145)" d="M 403.039727 159.373084 
C 403.509788 159.373084 403.960659 159.186327 404.293041 158.853945 
C 404.625424 158.521562 404.812181 158.070691 404.812181 157.600631 
C 404.812181 157.13057 404.625424 156.679699 404.293041 156.347316 
C 403.960659 156.014934 403.509788 155.828177 403.039727 155.828177 
C 402.569667 155.828177 402.118796 156.014934 401.786413 156.347316 
C 401.45403 156.679699 401.267273 157.13057 401.267273 157.600631 
C 401.267273 158.070691 401.45403 158.521562 401.786413 158.853945 
C 402.118796 159.186327 402.569667 159.373084 403.039727 159.373084 
z
" style="stroke:#000000;stroke-width:0.886227;"/>
    <path clip-path="url(#p7d29b96145)" d="M 416.567 158.596528 
C 417.03706 158.596528 417.487931 158.409771 417.820314 158.077388 
C 418.152697 157.745005 418.339454 157.294134 418.339454 156.824074 
C 418.339454 156.354014 418.152697 155.903143 417.820314 155.57076 
C 417.487931 155.238377 417.03706 155.05162 416.567 155.05162 
C 416.09694 155.05162 415.646069 155.238377 415.313686 155.57076 
C 414.981303 155.903143 414.794546 156.354014 414.794546 156.824074 
C 414.794546 157.294134 414.981303 157.745005 415.313686 158.077388 
C 415.646069 158.409771 416.09694 158.596528 416.567 158.596528 
z
" style="stroke:#000000;stroke-width:0.886227;"/>
    <path clip-path="url(#p7d29b96145)" d="M 430.094273 166.226799 
C 430.564333 166.226799 431.015204 166.040043 431.347587 165.70766 
C 431.67997 165.375277 431.866727 164.924406 431.866727 164.454346 
C 431.866727 163.984285 431.67997 163.533414 431.347587 163.201031 
C 431.015204 162.868649 430.564333 162.681892 430.094273 162.681892 
C 429.624212 162.681892 429.173341 162.868649 428.840959 163.201031 
C 428.508576 163.533414 428.321819 163.984285 428.321819 164.454346 
C 428.321819 164.924406 428.508576 165.375277 428.840959 165.70766 
C 429.173341 166.040043 429.624212 166.226799 430.094273 166.226799 
z
" style="stroke:#000000;stroke-width:0.886227;"/>
    <path clip-path="url(#p7d29b96145)" d="M 443.621545 166.759862 
C 444.091606 166.759862 444.542477 166.573105 444.87486 166.240722 
C 445.207242 165.908339 445.393999 165.457468 445.393999 164.987408 
C 445.393999 164.517347 445.207242 164.066476 444.87486 163.734094 
C 444.542477 163.401711 444.091606 163.214954 443.621545 163.214954 
C 443.151485 163.214954 442.700614 163.401711 442.368231 163.734094 
C 442.035849 164.066476 441.849092 164.517347 441.849092 164.987408 
C 441.849092 165.457468 442.035849 165.908339 442.368231 166.240722 
C 442.700614 166.573105 443.151485 166.759862 443.621545 166.759862 
z
" style="stroke:#000000;stroke-width:0.886227;"/>
    <path clip-path="url(#p7d29b96145)" d="M 457.148818 172.75601 
C 457.618878 172.75601 458.06975 172.569253 458.402132 172.23687 
C 458.734515 171.904487 458.921272 171.453616 458.921272 170.983556 
C 458.921272 170.513496 458.734515 170.062624 458.402132 169.730242 
C 458.06975 169.397859 457.618878 169.211102 457.148818 169.211102 
C 456.678758 169.211102 456.227887 169.397859 455.895504 169.730242 
C 455.563121 170.062624 455.376364 170.513496 455.376364 170.983556 
C 455.376364 171.453616 455.563121 171.904487 455.895504 172.23687 
C 456.227887 172.569253 456.678758 172.75601 457.148818 172.75601 
z
" style="stroke:#000000;stroke-width:0.886227;"/>
    <path clip-path="url(#p7d29b96145)" d="M 470.676091 164.908199 
C 471.146151 164.908199 471.597022 164.721442 471.929405 164.389059 
C 472.261788 164.056677 472.448545 163.605806 472.448545 163.135745 
C 472.448545 162.665685 472.261788 162.214814 471.929405 161.882431 
C 471.597022 161.550048 471.146151 161.363292 470.676091 161.363292 
C 470.206031 161.363292 469.75516 161.550048 469.422777 161.882431 
C 469.090394 162.214814 468.903637 162.665685 468.903637 163.135745 
C 468.903637 163.605806 469.090394 164.056677 469.422777 164.389059 
C 469.75516 164.721442 470.206031 164.908199 470.676091 164.908199 
z
" style="stroke:#000000;stroke-width:0.886227;"/>
   </g>
   <g id="line2d_33">
    <path clip-path="url(#p7d29b96145)" d="M 64.857909 43.356221 
L 78.385182 44.936925 
L 91.912455 49.411695 
L 105.439727 50.66605 
L 118.967 57.098796 
L 132.494273 63.270349 
L 146.021545 67.216608 
L 159.548818 74.44212 
L 173.076091 76.780856 
L 186.603364 88.618803 
L 200.130636 97.417314 
L 213.657909 105.670482 
L 227.185182 111.117014 
L 240.712455 123.627683 
L 254.239727 124.506484 
L 267.767 133.36659 
L 281.294273 132.616965 
L 294.821545 139.881983 
L 308.348818 141.070791 
L 321.876091 146.952959 
L 335.403364 139.379463 
L 348.930636 140.122065 
L 362.457909 147.725332 
L 375.985182 155.496179 
L 389.512455 165.273988 
L 403.039727 157.600631 
L 416.567 156.824074 
L 430.094273 164.454346 
L 443.621545 164.987408 
L 457.148818 170.983556 
L 470.676091 163.135745 
" style="fill:none;stroke:#000000;stroke-width:0.886227;"/>
   </g>
  </g>
 </g>
 <defs>
  <clipPath id="p7d29b96145">
   <rect height="221.76" width="446.4" x="44.567" y="7.2"/>
  </clipPath>
 </defs>
</svg>
