<?xml version="1.0" encoding="utf-8" standalone="no"?>
<!DOCTYPE svg PUBLIC "-//W3C//DTD SVG 1.1//EN"
  "http://www.w3.org/Graphics/SVG/1.1/DTD/svg11.dtd">
<!-- Created with matplotlib (https://matplotlib.org/) -->
<svg height="264.672687pt" version="1.1" viewBox="0 0 498.167 264.672687" width="498.167pt" xmlns="http://www.w3.org/2000/svg" xmlns:xlink="http://www.w3.org/1999/xlink">
 <defs>
  <style type="text/css">
*{stroke-linecap:butt;stroke-linejoin:round;}
  </style>
 </defs>
 <g id="figure_1">
  <g id="patch_1">
   <path d="M 0 264.672687 
L 498.167 264.672687 
L 498.167 0 
L 0 0 
z
" style="fill:#ffffff;stroke:#ffffff;stroke-linejoin:miter;"/>
  </g>
  <g id="axes_1">
   <g id="patch_2">
    <path d="M 44.567 228.96 
L 490.967 228.96 
L 490.967 7.2 
L 44.567 7.2 
z
" style="fill:#ffffff;stroke:#7f7f7f;stroke-linejoin:miter;"/>
   </g>
   <g id="matplotlib.axis_1">
    <g id="xtick_1">
     <g id="line2d_1">
      <path clip-path="url(#p5253805395)" d="M 64.857909 228.96 
L 64.857909 7.2 
" style="fill:none;stroke:#e5e5e5;stroke-width:0.8;"/>
     </g>
     <g id="line2d_2">
      <path d="M 64.857909 228.96 
" style="fill:none;stroke:#000000;stroke-width:1.5;"/>
      <defs>
       <path d="M 0 0 
L 0 2.75 
" id="m8fe036c6bc" style="stroke:#000000;"/>
      </defs>
      <g>
       <use style="stroke:#000000;" x="64.857909" xlink:href="#m8fe036c6bc" y="228.96"/>
      </g>
     </g>
     <g id="text_1">
      <!-- 1970 -->
      <defs>
       <path d="M 12.40625 8.296875 
L 28.515625 8.296875 
L 28.515625 63.921875 
L 10.984375 60.40625 
L 10.984375 69.390625 
L 28.421875 72.90625 
L 38.28125 72.90625 
L 38.28125 8.296875 
L 54.390625 8.296875 
L 54.390625 0 
L 12.40625 0 
z
" id="DejaVuSans-49"/>
       <path d="M 10.984375 1.515625 
L 10.984375 10.5 
Q 14.703125 8.734375 18.5 7.8125 
Q 22.3125 6.890625 25.984375 6.890625 
Q 35.75 6.890625 40.890625 13.453125 
Q 46.046875 20.015625 46.78125 33.40625 
Q 43.953125 29.203125 39.59375 26.953125 
Q 35.25 24.703125 29.984375 24.703125 
Q 19.046875 24.703125 12.671875 31.3125 
Q 6.296875 37.9375 6.296875 49.421875 
Q 6.296875 60.640625 12.9375 67.421875 
Q 19.578125 74.21875 30.609375 74.21875 
Q 43.265625 74.21875 49.921875 64.515625 
Q 56.59375 54.828125 56.59375 36.375 
Q 56.59375 19.140625 48.40625 8.859375 
Q 40.234375 -1.421875 26.421875 -1.421875 
Q 22.703125 -1.421875 18.890625 -0.6875 
Q 15.09375 0.046875 10.984375 1.515625 
z
M 30.609375 32.421875 
Q 37.25 32.421875 41.125 36.953125 
Q 45.015625 41.5 45.015625 49.421875 
Q 45.015625 57.28125 41.125 61.84375 
Q 37.25 66.40625 30.609375 66.40625 
Q 23.96875 66.40625 20.09375 61.84375 
Q 16.21875 57.28125 16.21875 49.421875 
Q 16.21875 41.5 20.09375 36.953125 
Q 23.96875 32.421875 30.609375 32.421875 
z
" id="DejaVuSans-57"/>
       <path d="M 8.203125 72.90625 
L 55.078125 72.90625 
L 55.078125 68.703125 
L 28.609375 0 
L 18.3125 0 
L 43.21875 64.59375 
L 8.203125 64.59375 
z
" id="DejaVuSans-55"/>
       <path d="M 31.78125 66.40625 
Q 24.171875 66.40625 20.328125 58.90625 
Q 16.5 51.421875 16.5 36.375 
Q 16.5 21.390625 20.328125 13.890625 
Q 24.171875 6.390625 31.78125 6.390625 
Q 39.453125 6.390625 43.28125 13.890625 
Q 47.125 21.390625 47.125 36.375 
Q 47.125 51.421875 43.28125 58.90625 
Q 39.453125 66.40625 31.78125 66.40625 
z
M 31.78125 74.21875 
Q 44.046875 74.21875 50.515625 64.515625 
Q 56.984375 54.828125 56.984375 36.375 
Q 56.984375 17.96875 50.515625 8.265625 
Q 44.046875 -1.421875 31.78125 -1.421875 
Q 19.53125 -1.421875 13.0625 8.265625 
Q 6.59375 17.96875 6.59375 36.375 
Q 6.59375 54.828125 13.0625 64.515625 
Q 19.53125 74.21875 31.78125 74.21875 
z
" id="DejaVuSans-48"/>
      </defs>
      <g transform="translate(53.659909 240.596625)scale(0.088 -0.088)">
       <use xlink:href="#DejaVuSans-49"/>
       <use x="63.623047" xlink:href="#DejaVuSans-57"/>
       <use x="127.246094" xlink:href="#DejaVuSans-55"/>
       <use x="190.869141" xlink:href="#DejaVuSans-48"/>
      </g>
     </g>
    </g>
    <g id="xtick_2">
     <g id="line2d_3">
      <path clip-path="url(#p5253805395)" d="M 146.021545 228.96 
L 146.021545 7.2 
" style="fill:none;stroke:#e5e5e5;stroke-width:0.8;"/>
     </g>
     <g id="line2d_4">
      <path d="M 146.021545 228.96 
" style="fill:none;stroke:#000000;stroke-width:1.5;"/>
      <g>
       <use style="stroke:#000000;" x="146.021545" xlink:href="#m8fe036c6bc" y="228.96"/>
      </g>
     </g>
     <g id="text_2">
      <!-- 1980 -->
      <defs>
       <path d="M 31.78125 34.625 
Q 24.75 34.625 20.71875 30.859375 
Q 16.703125 27.09375 16.703125 20.515625 
Q 16.703125 13.921875 20.71875 10.15625 
Q 24.75 6.390625 31.78125 6.390625 
Q 38.8125 6.390625 42.859375 10.171875 
Q 46.921875 13.96875 46.921875 20.515625 
Q 46.921875 27.09375 42.890625 30.859375 
Q 38.875 34.625 31.78125 34.625 
z
M 21.921875 38.8125 
Q 15.578125 40.375 12.03125 44.71875 
Q 8.5 49.078125 8.5 55.328125 
Q 8.5 64.0625 14.71875 69.140625 
Q 20.953125 74.21875 31.78125 74.21875 
Q 42.671875 74.21875 48.875 69.140625 
Q 55.078125 64.0625 55.078125 55.328125 
Q 55.078125 49.078125 51.53125 44.71875 
Q 48 40.375 41.703125 38.8125 
Q 48.828125 37.15625 52.796875 32.3125 
Q 56.78125 27.484375 56.78125 20.515625 
Q 56.78125 9.90625 50.3125 4.234375 
Q 43.84375 -1.421875 31.78125 -1.421875 
Q 19.734375 -1.421875 13.25 4.234375 
Q 6.78125 9.90625 6.78125 20.515625 
Q 6.78125 27.484375 10.78125 32.3125 
Q 14.796875 37.15625 21.921875 38.8125 
z
M 18.3125 54.390625 
Q 18.3125 48.734375 21.84375 45.5625 
Q 25.390625 42.390625 31.78125 42.390625 
Q 38.140625 42.390625 41.71875 45.5625 
Q 45.3125 48.734375 45.3125 54.390625 
Q 45.3125 60.0625 41.71875 63.234375 
Q 38.140625 66.40625 31.78125 66.40625 
Q 25.390625 66.40625 21.84375 63.234375 
Q 18.3125 60.0625 18.3125 54.390625 
z
" id="DejaVuSans-56"/>
      </defs>
      <g transform="translate(134.823545 240.596625)scale(0.088 -0.088)">
       <use xlink:href="#DejaVuSans-49"/>
       <use x="63.623047" xlink:href="#DejaVuSans-57"/>
       <use x="127.246094" xlink:href="#DejaVuSans-56"/>
       <use x="190.869141" xlink:href="#DejaVuSans-48"/>
      </g>
     </g>
    </g>
    <g id="xtick_3">
     <g id="line2d_5">
      <path clip-path="url(#p5253805395)" d="M 227.185182 228.96 
L 227.185182 7.2 
" style="fill:none;stroke:#e5e5e5;stroke-width:0.8;"/>
     </g>
     <g id="line2d_6">
      <path d="M 227.185182 228.96 
" style="fill:none;stroke:#000000;stroke-width:1.5;"/>
      <g>
       <use style="stroke:#000000;" x="227.185182" xlink:href="#m8fe036c6bc" y="228.96"/>
      </g>
     </g>
     <g id="text_3">
      <!-- 1990 -->
      <g transform="translate(215.987182 240.596625)scale(0.088 -0.088)">
       <use xlink:href="#DejaVuSans-49"/>
       <use x="63.623047" xlink:href="#DejaVuSans-57"/>
       <use x="127.246094" xlink:href="#DejaVuSans-57"/>
       <use x="190.869141" xlink:href="#DejaVuSans-48"/>
      </g>
     </g>
    </g>
    <g id="xtick_4">
     <g id="line2d_7">
      <path clip-path="url(#p5253805395)" d="M 308.348818 228.96 
L 308.348818 7.2 
" style="fill:none;stroke:#e5e5e5;stroke-width:0.8;"/>
     </g>
     <g id="line2d_8">
      <path d="M 308.348818 228.96 
" style="fill:none;stroke:#000000;stroke-width:1.5;"/>
      <g>
       <use style="stroke:#000000;" x="308.348818" xlink:href="#m8fe036c6bc" y="228.96"/>
      </g>
     </g>
     <g id="text_4">
      <!-- 2000 -->
      <defs>
       <path d="M 19.1875 8.296875 
L 53.609375 8.296875 
L 53.609375 0 
L 7.328125 0 
L 7.328125 8.296875 
Q 12.9375 14.109375 22.625 23.890625 
Q 32.328125 33.6875 34.8125 36.53125 
Q 39.546875 41.84375 41.421875 45.53125 
Q 43.3125 49.21875 43.3125 52.78125 
Q 43.3125 58.59375 39.234375 62.25 
Q 35.15625 65.921875 28.609375 65.921875 
Q 23.96875 65.921875 18.8125 64.3125 
Q 13.671875 62.703125 7.8125 59.421875 
L 7.8125 69.390625 
Q 13.765625 71.78125 18.9375 73 
Q 24.125 74.21875 28.421875 74.21875 
Q 39.75 74.21875 46.484375 68.546875 
Q 53.21875 62.890625 53.21875 53.421875 
Q 53.21875 48.921875 51.53125 44.890625 
Q 49.859375 40.875 45.40625 35.40625 
Q 44.1875 33.984375 37.640625 27.21875 
Q 31.109375 20.453125 19.1875 8.296875 
z
" id="DejaVuSans-50"/>
      </defs>
      <g transform="translate(297.150818 240.596625)scale(0.088 -0.088)">
       <use xlink:href="#DejaVuSans-50"/>
       <use x="63.623047" xlink:href="#DejaVuSans-48"/>
       <use x="127.246094" xlink:href="#DejaVuSans-48"/>
       <use x="190.869141" xlink:href="#DejaVuSans-48"/>
      </g>
     </g>
    </g>
    <g id="xtick_5">
     <g id="line2d_9">
      <path clip-path="url(#p5253805395)" d="M 389.512455 228.96 
L 389.512455 7.2 
" style="fill:none;stroke:#e5e5e5;stroke-width:0.8;"/>
     </g>
     <g id="line2d_10">
      <path d="M 389.512455 228.96 
" style="fill:none;stroke:#000000;stroke-width:1.5;"/>
      <g>
       <use style="stroke:#000000;" x="389.512455" xlink:href="#m8fe036c6bc" y="228.96"/>
      </g>
     </g>
     <g id="text_5">
      <!-- 2010 -->
      <g transform="translate(378.314455 240.596625)scale(0.088 -0.088)">
       <use xlink:href="#DejaVuSans-50"/>
       <use x="63.623047" xlink:href="#DejaVuSans-48"/>
       <use x="127.246094" xlink:href="#DejaVuSans-49"/>
       <use x="190.869141" xlink:href="#DejaVuSans-48"/>
      </g>
     </g>
    </g>
    <g id="xtick_6">
     <g id="line2d_11">
      <path clip-path="url(#p5253805395)" d="M 470.676091 228.96 
L 470.676091 7.2 
" style="fill:none;stroke:#e5e5e5;stroke-width:0.8;"/>
     </g>
     <g id="line2d_12">
      <path d="M 470.676091 228.96 
" style="fill:none;stroke:#000000;stroke-width:1.5;"/>
      <g>
       <use style="stroke:#000000;" x="470.676091" xlink:href="#m8fe036c6bc" y="228.96"/>
      </g>
     </g>
     <g id="text_6">
      <!-- 2020 -->
      <g transform="translate(459.478091 240.596625)scale(0.088 -0.088)">
       <use xlink:href="#DejaVuSans-50"/>
       <use x="63.623047" xlink:href="#DejaVuSans-48"/>
       <use x="127.246094" xlink:href="#DejaVuSans-50"/>
       <use x="190.869141" xlink:href="#DejaVuSans-48"/>
      </g>
     </g>
    </g>
    <g id="xtick_7">
     <g id="line2d_13">
      <path clip-path="url(#p5253805395)" d="M 105.439727 228.96 
L 105.439727 7.2 
" style="fill:none;stroke:#fafafa;"/>
     </g>
     <g id="line2d_14">
      <path d="M 105.439727 228.96 
" style="fill:none;stroke:#000000;stroke-width:1.5;"/>
      <defs>
       <path d="M 0 0 
L 0 1.375 
" id="m7c292f2b48" style="stroke:#000000;"/>
      </defs>
      <g>
       <use style="stroke:#000000;" x="105.439727" xlink:href="#m7c292f2b48" y="228.96"/>
      </g>
     </g>
    </g>
    <g id="xtick_8">
     <g id="line2d_15">
      <path clip-path="url(#p5253805395)" d="M 186.603364 228.96 
L 186.603364 7.2 
" style="fill:none;stroke:#fafafa;"/>
     </g>
     <g id="line2d_16">
      <path d="M 186.603364 228.96 
" style="fill:none;stroke:#000000;stroke-width:1.5;"/>
      <g>
       <use style="stroke:#000000;" x="186.603364" xlink:href="#m7c292f2b48" y="228.96"/>
      </g>
     </g>
    </g>
    <g id="xtick_9">
     <g id="line2d_17">
      <path clip-path="url(#p5253805395)" d="M 267.767 228.96 
L 267.767 7.2 
" style="fill:none;stroke:#fafafa;"/>
     </g>
     <g id="line2d_18">
      <path d="M 267.767 228.96 
" style="fill:none;stroke:#000000;stroke-width:1.5;"/>
      <g>
       <use style="stroke:#000000;" x="267.767" xlink:href="#m7c292f2b48" y="228.96"/>
      </g>
     </g>
    </g>
    <g id="xtick_10">
     <g id="line2d_19">
      <path clip-path="url(#p5253805395)" d="M 348.930636 228.96 
L 348.930636 7.2 
" style="fill:none;stroke:#fafafa;"/>
     </g>
     <g id="line2d_20">
      <path d="M 348.930636 228.96 
" style="fill:none;stroke:#000000;stroke-width:1.5;"/>
      <g>
       <use style="stroke:#000000;" x="348.930636" xlink:href="#m7c292f2b48" y="228.96"/>
      </g>
     </g>
    </g>
    <g id="xtick_11">
     <g id="line2d_21">
      <path clip-path="url(#p5253805395)" d="M 430.094273 228.96 
L 430.094273 7.2 
" style="fill:none;stroke:#fafafa;"/>
     </g>
     <g id="line2d_22">
      <path d="M 430.094273 228.96 
" style="fill:none;stroke:#000000;stroke-width:1.5;"/>
      <g>
       <use style="stroke:#000000;" x="430.094273" xlink:href="#m7c292f2b48" y="228.96"/>
      </g>
     </g>
    </g>
    <g id="text_7">
     <!-- Year -->
     <defs>
      <path d="M -0.203125 72.90625 
L 10.40625 72.90625 
L 30.609375 42.921875 
L 50.6875 72.90625 
L 61.28125 72.90625 
L 35.5 34.71875 
L 35.5 0 
L 25.59375 0 
L 25.59375 34.71875 
z
" id="DejaVuSans-89"/>
      <path d="M 56.203125 29.59375 
L 56.203125 25.203125 
L 14.890625 25.203125 
Q 15.484375 15.921875 20.484375 11.0625 
Q 25.484375 6.203125 34.421875 6.203125 
Q 39.59375 6.203125 44.453125 7.46875 
Q 49.3125 8.734375 54.109375 11.28125 
L 54.109375 2.78125 
Q 49.265625 0.734375 44.1875 -0.34375 
Q 39.109375 -1.421875 33.890625 -1.421875 
Q 20.796875 -1.421875 13.15625 6.1875 
Q 5.515625 13.8125 5.515625 26.8125 
Q 5.515625 40.234375 12.765625 48.109375 
Q 20.015625 56 32.328125 56 
Q 43.359375 56 49.78125 48.890625 
Q 56.203125 41.796875 56.203125 29.59375 
z
M 47.21875 32.234375 
Q 47.125 39.59375 43.09375 43.984375 
Q 39.0625 48.390625 32.421875 48.390625 
Q 24.90625 48.390625 20.390625 44.140625 
Q 15.875 39.890625 15.1875 32.171875 
z
" id="DejaVuSans-101"/>
      <path d="M 34.28125 27.484375 
Q 23.390625 27.484375 19.1875 25 
Q 14.984375 22.515625 14.984375 16.5 
Q 14.984375 11.71875 18.140625 8.90625 
Q 21.296875 6.109375 26.703125 6.109375 
Q 34.1875 6.109375 38.703125 11.40625 
Q 43.21875 16.703125 43.21875 25.484375 
L 43.21875 27.484375 
z
M 52.203125 31.203125 
L 52.203125 0 
L 43.21875 0 
L 43.21875 8.296875 
Q 40.140625 3.328125 35.546875 0.953125 
Q 30.953125 -1.421875 24.3125 -1.421875 
Q 15.921875 -1.421875 10.953125 3.296875 
Q 6 8.015625 6 15.921875 
Q 6 25.140625 12.171875 29.828125 
Q 18.359375 34.515625 30.609375 34.515625 
L 43.21875 34.515625 
L 43.21875 35.40625 
Q 43.21875 41.609375 39.140625 45 
Q 35.0625 48.390625 27.6875 48.390625 
Q 23 48.390625 18.546875 47.265625 
Q 14.109375 46.140625 10.015625 43.890625 
L 10.015625 52.203125 
Q 14.9375 54.109375 19.578125 55.046875 
Q 24.21875 56 28.609375 56 
Q 40.484375 56 46.34375 49.84375 
Q 52.203125 43.703125 52.203125 31.203125 
z
" id="DejaVuSans-97"/>
      <path d="M 41.109375 46.296875 
Q 39.59375 47.171875 37.8125 47.578125 
Q 36.03125 48 33.890625 48 
Q 26.265625 48 22.1875 43.046875 
Q 18.109375 38.09375 18.109375 28.8125 
L 18.109375 0 
L 9.078125 0 
L 9.078125 54.6875 
L 18.109375 54.6875 
L 18.109375 46.1875 
Q 20.953125 51.171875 25.484375 53.578125 
Q 30.03125 56 36.53125 56 
Q 37.453125 56 38.578125 55.875 
Q 39.703125 55.765625 41.0625 55.515625 
z
" id="DejaVuSans-114"/>
     </defs>
     <g transform="translate(248.203172 255.185031)scale(0.11 -0.11)">
      <use xlink:href="#DejaVuSans-89"/>
      <use x="60.880859" xlink:href="#DejaVuSans-101"/>
      <use x="122.404297" xlink:href="#DejaVuSans-97"/>
      <use x="183.683594" xlink:href="#DejaVuSans-114"/>
     </g>
    </g>
   </g>
   <g id="matplotlib.axis_2">
    <g id="ytick_1">
     <g id="line2d_23">
      <path clip-path="url(#p5253805395)" d="M 44.567 218.88 
L 490.967 218.88 
" style="fill:none;stroke:#e5e5e5;stroke-width:0.8;"/>
     </g>
     <g id="line2d_24">
      <path d="M 44.567 218.88 
" style="fill:none;stroke:#000000;stroke-width:1.5;"/>
      <defs>
       <path d="M 0 0 
L -2.75 0 
" id="m4472e67049" style="stroke:#000000;"/>
      </defs>
      <g>
       <use style="stroke:#000000;" x="44.567" xlink:href="#m4472e67049" y="218.88"/>
      </g>
     </g>
     <g id="text_8">
      <!-- 0 -->
      <g transform="translate(34.018 221.30825)scale(0.088 -0.088)">
       <use xlink:href="#DejaVuSans-48"/>
      </g>
     </g>
    </g>
    <g id="ytick_2">
     <g id="line2d_25">
      <path clip-path="url(#p5253805395)" d="M 44.567 168.48 
L 490.967 168.48 
" style="fill:none;stroke:#e5e5e5;stroke-width:0.8;"/>
     </g>
     <g id="line2d_26">
      <path d="M 44.567 168.48 
" style="fill:none;stroke:#000000;stroke-width:1.5;"/>
      <g>
       <use style="stroke:#000000;" x="44.567" xlink:href="#m4472e67049" y="168.48"/>
      </g>
     </g>
     <g id="text_9">
      <!-- 25 -->
      <defs>
       <path d="M 10.796875 72.90625 
L 49.515625 72.90625 
L 49.515625 64.59375 
L 19.828125 64.59375 
L 19.828125 46.734375 
Q 21.96875 47.46875 24.109375 47.828125 
Q 26.265625 48.1875 28.421875 48.1875 
Q 40.625 48.1875 47.75 41.5 
Q 54.890625 34.8125 54.890625 23.390625 
Q 54.890625 11.625 47.5625 5.09375 
Q 40.234375 -1.421875 26.90625 -1.421875 
Q 22.3125 -1.421875 17.546875 -0.640625 
Q 12.796875 0.140625 7.71875 1.703125 
L 7.71875 11.625 
Q 12.109375 9.234375 16.796875 8.0625 
Q 21.484375 6.890625 26.703125 6.890625 
Q 35.15625 6.890625 40.078125 11.328125 
Q 45.015625 15.765625 45.015625 23.390625 
Q 45.015625 31 40.078125 35.4375 
Q 35.15625 39.890625 26.703125 39.890625 
Q 22.75 39.890625 18.8125 39.015625 
Q 14.890625 38.140625 10.796875 36.28125 
z
" id="DejaVuSans-53"/>
      </defs>
      <g transform="translate(28.419 170.90825)scale(0.088 -0.088)">
       <use xlink:href="#DejaVuSans-50"/>
       <use x="63.623047" xlink:href="#DejaVuSans-53"/>
      </g>
     </g>
    </g>
    <g id="ytick_3">
     <g id="line2d_27">
      <path clip-path="url(#p5253805395)" d="M 44.567 118.08 
L 490.967 118.08 
" style="fill:none;stroke:#e5e5e5;stroke-width:0.8;"/>
     </g>
     <g id="line2d_28">
      <path d="M 44.567 118.08 
" style="fill:none;stroke:#000000;stroke-width:1.5;"/>
      <g>
       <use style="stroke:#000000;" x="44.567" xlink:href="#m4472e67049" y="118.08"/>
      </g>
     </g>
     <g id="text_10">
      <!-- 50 -->
      <g transform="translate(28.419 120.50825)scale(0.088 -0.088)">
       <use xlink:href="#DejaVuSans-53"/>
       <use x="63.623047" xlink:href="#DejaVuSans-48"/>
      </g>
     </g>
    </g>
    <g id="ytick_4">
     <g id="line2d_29">
      <path clip-path="url(#p5253805395)" d="M 44.567 67.68 
L 490.967 67.68 
" style="fill:none;stroke:#e5e5e5;stroke-width:0.8;"/>
     </g>
     <g id="line2d_30">
      <path d="M 44.567 67.68 
" style="fill:none;stroke:#000000;stroke-width:1.5;"/>
      <g>
       <use style="stroke:#000000;" x="44.567" xlink:href="#m4472e67049" y="67.68"/>
      </g>
     </g>
     <g id="text_11">
      <!-- 75 -->
      <g transform="translate(28.419 70.10825)scale(0.088 -0.088)">
       <use xlink:href="#DejaVuSans-55"/>
       <use x="63.623047" xlink:href="#DejaVuSans-53"/>
      </g>
     </g>
    </g>
    <g id="ytick_5">
     <g id="line2d_31">
      <path clip-path="url(#p5253805395)" d="M 44.567 17.28 
L 490.967 17.28 
" style="fill:none;stroke:#e5e5e5;stroke-width:0.8;"/>
     </g>
     <g id="line2d_32">
      <path d="M 44.567 17.28 
" style="fill:none;stroke:#000000;stroke-width:1.5;"/>
      <g>
       <use style="stroke:#000000;" x="44.567" xlink:href="#m4472e67049" y="17.28"/>
      </g>
     </g>
     <g id="text_12">
      <!-- 100 -->
      <g transform="translate(22.82 19.70825)scale(0.088 -0.088)">
       <use xlink:href="#DejaVuSans-49"/>
       <use x="63.623047" xlink:href="#DejaVuSans-48"/>
       <use x="127.246094" xlink:href="#DejaVuSans-48"/>
      </g>
     </g>
    </g>
    <g id="ytick_6">
     <g id="line2d_33">
      <path clip-path="url(#p5253805395)" d="M 44.567 193.68 
L 490.967 193.68 
" style="fill:none;stroke:#fafafa;"/>
     </g>
     <g id="line2d_34">
      <path d="M 44.567 193.68 
" style="fill:none;stroke:#000000;stroke-width:1.5;"/>
      <defs>
       <path d="M 0 0 
L -1.375 0 
" id="m87309dbc10" style="stroke:#000000;"/>
      </defs>
      <g>
       <use style="stroke:#000000;" x="44.567" xlink:href="#m87309dbc10" y="193.68"/>
      </g>
     </g>
    </g>
    <g id="ytick_7">
     <g id="line2d_35">
      <path clip-path="url(#p5253805395)" d="M 44.567 143.28 
L 490.967 143.28 
" style="fill:none;stroke:#fafafa;"/>
     </g>
     <g id="line2d_36">
      <path d="M 44.567 143.28 
" style="fill:none;stroke:#000000;stroke-width:1.5;"/>
      <g>
       <use style="stroke:#000000;" x="44.567" xlink:href="#m87309dbc10" y="143.28"/>
      </g>
     </g>
    </g>
    <g id="ytick_8">
     <g id="line2d_37">
      <path clip-path="url(#p5253805395)" d="M 44.567 92.88 
L 490.967 92.88 
" style="fill:none;stroke:#fafafa;"/>
     </g>
     <g id="line2d_38">
      <path d="M 44.567 92.88 
" style="fill:none;stroke:#000000;stroke-width:1.5;"/>
      <g>
       <use style="stroke:#000000;" x="44.567" xlink:href="#m87309dbc10" y="92.88"/>
      </g>
     </g>
    </g>
    <g id="ytick_9">
     <g id="line2d_39">
      <path clip-path="url(#p5253805395)" d="M 44.567 42.48 
L 490.967 42.48 
" style="fill:none;stroke:#fafafa;"/>
     </g>
     <g id="line2d_40">
      <path d="M 44.567 42.48 
" style="fill:none;stroke:#000000;stroke-width:1.5;"/>
      <g>
       <use style="stroke:#000000;" x="44.567" xlink:href="#m87309dbc10" y="42.48"/>
      </g>
     </g>
    </g>
    <g id="text_13">
     <!-- $P_{Q1}(t)$ [%] -->
     <defs>
      <path d="M 16.890625 72.90625 
L 39.703125 72.90625 
Q 49.65625 72.90625 54.875 68.265625 
Q 60.109375 63.625 60.109375 54.6875 
Q 60.109375 42.671875 52.390625 35.984375 
Q 44.671875 29.296875 30.71875 29.296875 
L 18.3125 29.296875 
L 12.59375 0 
L 2.6875 0 
z
M 25.203125 64.796875 
L 19.921875 37.40625 
L 32.328125 37.40625 
Q 40.71875 37.40625 45.203125 41.703125 
Q 49.703125 46 49.703125 54 
Q 49.703125 59.125 46.65625 61.953125 
Q 43.609375 64.796875 38.09375 64.796875 
z
" id="DejaVuSans-Oblique-80"/>
      <path d="M 36.078125 -1.3125 
Q 35.546875 -1.375 34.953125 -1.390625 
Q 34.375 -1.421875 33.203125 -1.421875 
Q 19.53125 -1.421875 11.8125 6.421875 
Q 4.109375 14.265625 4.109375 28.078125 
Q 4.109375 36.234375 7.0625 44.4375 
Q 10.015625 52.640625 15.28125 59.1875 
Q 21.390625 66.703125 29.03125 70.453125 
Q 36.671875 74.21875 45.90625 74.21875 
Q 59.28125 74.21875 66.984375 66.328125 
Q 74.703125 58.453125 74.703125 44.828125 
Q 74.703125 30.125 66.640625 17.921875 
Q 58.59375 5.71875 45.609375 0.6875 
L 55.515625 -12.890625 
L 44.484375 -12.890625 
z
M 45.609375 66.21875 
Q 37.5 66.21875 31.296875 62.28125 
Q 25.09375 58.34375 20.515625 50.296875 
Q 17.578125 45.171875 16.03125 39.40625 
Q 14.5 33.640625 14.5 27.78125 
Q 14.5 17.625 19.359375 12.109375 
Q 24.21875 6.59375 33.109375 6.59375 
Q 41.109375 6.59375 47.375 10.5625 
Q 53.65625 14.546875 58.109375 22.40625 
Q 61.078125 27.6875 62.640625 33.46875 
Q 64.203125 39.265625 64.203125 45.015625 
Q 64.203125 55.125 59.3125 60.671875 
Q 54.4375 66.21875 45.609375 66.21875 
z
" id="DejaVuSans-Oblique-81"/>
      <path d="M 31 75.875 
Q 24.46875 64.65625 21.28125 53.65625 
Q 18.109375 42.671875 18.109375 31.390625 
Q 18.109375 20.125 21.3125 9.0625 
Q 24.515625 -2 31 -13.1875 
L 23.1875 -13.1875 
Q 15.875 -1.703125 12.234375 9.375 
Q 8.59375 20.453125 8.59375 31.390625 
Q 8.59375 42.28125 12.203125 53.3125 
Q 15.828125 64.359375 23.1875 75.875 
z
" id="DejaVuSans-40"/>
      <path d="M 42.28125 54.6875 
L 40.921875 47.703125 
L 23 47.703125 
L 17.1875 18.015625 
Q 16.890625 16.359375 16.75 15.234375 
Q 16.609375 14.109375 16.609375 13.484375 
Q 16.609375 10.359375 18.484375 8.9375 
Q 20.359375 7.515625 24.515625 7.515625 
L 33.59375 7.515625 
L 32.078125 0 
L 23.484375 0 
Q 15.484375 0 11.546875 3.125 
Q 7.625 6.25 7.625 12.59375 
Q 7.625 13.71875 7.765625 15.0625 
Q 7.90625 16.40625 8.203125 18.015625 
L 14.015625 47.703125 
L 6.390625 47.703125 
L 7.8125 54.6875 
L 15.28125 54.6875 
L 18.3125 70.21875 
L 27.296875 70.21875 
L 24.3125 54.6875 
z
" id="DejaVuSans-Oblique-116"/>
      <path d="M 8.015625 75.875 
L 15.828125 75.875 
Q 23.140625 64.359375 26.78125 53.3125 
Q 30.421875 42.28125 30.421875 31.390625 
Q 30.421875 20.453125 26.78125 9.375 
Q 23.140625 -1.703125 15.828125 -13.1875 
L 8.015625 -13.1875 
Q 14.5 -2 17.703125 9.0625 
Q 20.90625 20.125 20.90625 31.390625 
Q 20.90625 42.671875 17.703125 53.65625 
Q 14.5 64.65625 8.015625 75.875 
z
" id="DejaVuSans-41"/>
      <path id="DejaVuSans-32"/>
      <path d="M 8.59375 75.984375 
L 29.296875 75.984375 
L 29.296875 69 
L 17.578125 69 
L 17.578125 -6.203125 
L 29.296875 -6.203125 
L 29.296875 -13.1875 
L 8.59375 -13.1875 
z
" id="DejaVuSans-91"/>
      <path d="M 72.703125 32.078125 
Q 68.453125 32.078125 66.03125 28.46875 
Q 63.625 24.859375 63.625 18.40625 
Q 63.625 12.0625 66.03125 8.421875 
Q 68.453125 4.78125 72.703125 4.78125 
Q 76.859375 4.78125 79.265625 8.421875 
Q 81.6875 12.0625 81.6875 18.40625 
Q 81.6875 24.8125 79.265625 28.4375 
Q 76.859375 32.078125 72.703125 32.078125 
z
M 72.703125 38.28125 
Q 80.421875 38.28125 84.953125 32.90625 
Q 89.5 27.546875 89.5 18.40625 
Q 89.5 9.28125 84.9375 3.921875 
Q 80.375 -1.421875 72.703125 -1.421875 
Q 64.890625 -1.421875 60.34375 3.921875 
Q 55.8125 9.28125 55.8125 18.40625 
Q 55.8125 27.59375 60.375 32.9375 
Q 64.9375 38.28125 72.703125 38.28125 
z
M 22.3125 68.015625 
Q 18.109375 68.015625 15.6875 64.375 
Q 13.28125 60.75 13.28125 54.390625 
Q 13.28125 47.953125 15.671875 44.328125 
Q 18.0625 40.71875 22.3125 40.71875 
Q 26.5625 40.71875 28.96875 44.328125 
Q 31.390625 47.953125 31.390625 54.390625 
Q 31.390625 60.6875 28.953125 64.34375 
Q 26.515625 68.015625 22.3125 68.015625 
z
M 66.40625 74.21875 
L 74.21875 74.21875 
L 28.609375 -1.421875 
L 20.796875 -1.421875 
z
M 22.3125 74.21875 
Q 30.03125 74.21875 34.609375 68.875 
Q 39.203125 63.53125 39.203125 54.390625 
Q 39.203125 45.171875 34.640625 39.84375 
Q 30.078125 34.515625 22.3125 34.515625 
Q 14.546875 34.515625 10.03125 39.859375 
Q 5.515625 45.21875 5.515625 54.390625 
Q 5.515625 63.484375 10.046875 68.84375 
Q 14.59375 74.21875 22.3125 74.21875 
z
" id="DejaVuSans-37"/>
      <path d="M 30.421875 75.984375 
L 30.421875 -13.1875 
L 9.71875 -13.1875 
L 9.71875 -6.203125 
L 21.390625 -6.203125 
L 21.390625 69 
L 9.71875 69 
L 9.71875 75.984375 
z
" id="DejaVuSans-93"/>
     </defs>
     <g transform="translate(15.56 143.315)rotate(-90)scale(0.11 -0.11)">
      <use transform="translate(0 0.015625)" xlink:href="#DejaVuSans-Oblique-80"/>
      <use transform="translate(60.302734 -16.390625)scale(0.7)" xlink:href="#DejaVuSans-Oblique-81"/>
      <use transform="translate(115.400391 -16.390625)scale(0.7)" xlink:href="#DejaVuSans-49"/>
      <use transform="translate(162.670898 0.015625)" xlink:href="#DejaVuSans-40"/>
      <use transform="translate(201.68457 0.015625)" xlink:href="#DejaVuSans-Oblique-116"/>
      <use transform="translate(240.893555 0.015625)" xlink:href="#DejaVuSans-41"/>
      <use transform="translate(279.907227 0.015625)" xlink:href="#DejaVuSans-32"/>
      <use transform="translate(311.694336 0.015625)" xlink:href="#DejaVuSans-91"/>
      <use transform="translate(350.708008 0.015625)" xlink:href="#DejaVuSans-37"/>
      <use transform="translate(445.727539 0.015625)" xlink:href="#DejaVuSans-93"/>
     </g>
    </g>
   </g>
   <g id="PathCollection_1">
    <path clip-path="url(#p5253805395)" d="M 81.090636 19.052454 
C 81.560697 19.052454 82.011568 18.865697 82.343951 18.533314 
C 82.676333 18.200931 82.86309 17.75006 82.86309 17.28 
C 82.86309 16.80994 82.676333 16.359069 82.343951 16.026686 
C 82.011568 15.694303 81.560697 15.507546 81.090636 15.507546 
C 80.620576 15.507546 80.169705 15.694303 79.837322 16.026686 
C 79.504939 16.359069 79.318183 16.80994 79.318183 17.28 
C 79.318183 17.75006 79.504939 18.200931 79.837322 18.533314 
C 80.169705 18.865697 80.620576 19.052454 81.090636 19.052454 
z
" style="stroke:#000000;stroke-width:0.886227;"/>
    <path clip-path="url(#p5253805395)" d="M 89.207 52.652454 
C 89.67706 52.652454 90.127931 52.465697 90.460314 52.133314 
C 90.792697 51.800931 90.979454 51.35006 90.979454 50.88 
C 90.979454 50.40994 90.792697 49.959069 90.460314 49.626686 
C 90.127931 49.294303 89.67706 49.107546 89.207 49.107546 
C 88.73694 49.107546 88.286069 49.294303 87.953686 49.626686 
C 87.621303 49.959069 87.434546 50.40994 87.434546 50.88 
C 87.434546 51.35006 87.621303 51.800931 87.953686 52.133314 
C 88.286069 52.465697 88.73694 52.652454 89.207 52.652454 
z
" style="stroke:#000000;stroke-width:0.886227;"/>
    <path clip-path="url(#p5253805395)" d="M 97.323364 170.252454 
C 97.793424 170.252454 98.244295 170.065697 98.576678 169.733314 
C 98.909061 169.400931 99.095817 168.95006 99.095817 168.48 
C 99.095817 168.00994 98.909061 167.559069 98.576678 167.226686 
C 98.244295 166.894303 97.793424 166.707546 97.323364 166.707546 
C 96.853303 166.707546 96.402432 166.894303 96.070049 167.226686 
C 95.737667 167.559069 95.55091 168.00994 95.55091 168.48 
C 95.55091 168.95006 95.737667 169.400931 96.070049 169.733314 
C 96.402432 170.065697 96.853303 170.252454 97.323364 170.252454 
z
" style="stroke:#000000;stroke-width:0.886227;"/>
    <path clip-path="url(#p5253805395)" d="M 105.439727 110.656268 
C 105.909788 110.656268 106.360659 110.469511 106.693041 110.137129 
C 107.025424 109.804746 107.212181 109.353875 107.212181 108.883814 
C 107.212181 108.413754 107.025424 107.962883 106.693041 107.6305 
C 106.360659 107.298117 105.909788 107.111361 105.439727 107.111361 
C 104.969667 107.111361 104.518796 107.298117 104.186413 107.6305 
C 103.85403 107.962883 103.667273 108.413754 103.667273 108.883814 
C 103.667273 109.353875 103.85403 109.804746 104.186413 110.137129 
C 104.518796 110.469511 104.969667 110.656268 105.439727 110.656268 
z
" style="stroke:#000000;stroke-width:0.886227;"/>
    <path clip-path="url(#p5253805395)" d="M 113.556091 121.839624 
C 114.026151 121.839624 114.477022 121.652867 114.809405 121.320484 
C 115.141788 120.988101 115.328545 120.53723 115.328545 120.06717 
C 115.328545 119.59711 115.141788 119.146239 114.809405 118.813856 
C 114.477022 118.481473 114.026151 118.294716 113.556091 118.294716 
C 113.086031 118.294716 112.63516 118.481473 112.302777 118.813856 
C 111.970394 119.146239 111.783637 119.59711 111.783637 120.06717 
C 111.783637 120.53723 111.970394 120.988101 112.302777 121.320484 
C 112.63516 121.652867 113.086031 121.839624 113.556091 121.839624 
z
" style="stroke:#000000;stroke-width:0.886227;"/>
    <path clip-path="url(#p5253805395)" d="M 121.672455 96.371114 
C 122.142515 96.371114 122.593386 96.184357 122.925769 95.851974 
C 123.258151 95.519591 123.444908 95.06872 123.444908 94.59866 
C 123.444908 94.128599 123.258151 93.677728 122.925769 93.345346 
C 122.593386 93.012963 122.142515 92.826206 121.672455 92.826206 
C 121.202394 92.826206 120.751523 93.012963 120.41914 93.345346 
C 120.086758 93.677728 119.900001 94.128599 119.900001 94.59866 
C 119.900001 95.06872 120.086758 95.519591 120.41914 95.851974 
C 120.751523 96.184357 121.202394 96.371114 121.672455 96.371114 
z
" style="stroke:#000000;stroke-width:0.886227;"/>
    <path clip-path="url(#p5253805395)" d="M 129.788818 119.340259 
C 130.258878 119.340259 130.70975 119.153502 131.042132 118.821119 
C 131.374515 118.488736 131.561272 118.037865 131.561272 117.567805 
C 131.561272 117.097745 131.374515 116.646874 131.042132 116.314491 
C 130.70975 115.982108 130.258878 115.795351 129.788818 115.795351 
C 129.318758 115.795351 128.867887 115.982108 128.535504 116.314491 
C 128.203121 116.646874 128.016364 117.097745 128.016364 117.567805 
C 128.016364 118.037865 128.203121 118.488736 128.535504 118.821119 
C 128.867887 119.153502 129.318758 119.340259 129.788818 119.340259 
z
" style="stroke:#000000;stroke-width:0.886227;"/>
    <path clip-path="url(#p5253805395)" d="M 137.905182 76.381358 
C 138.375242 76.381358 138.826113 76.194601 139.158496 75.862218 
C 139.490879 75.529836 139.677636 75.078964 139.677636 74.608904 
C 139.677636 74.138844 139.490879 73.687973 139.158496 73.35559 
C 138.826113 73.023207 138.375242 72.83645 137.905182 72.83645 
C 137.435122 72.83645 136.98425 73.023207 136.651868 73.35559 
C 136.319485 73.687973 136.132728 74.138844 136.132728 74.608904 
C 136.132728 75.078964 136.319485 75.529836 136.651868 75.862218 
C 136.98425 76.194601 137.435122 76.381358 137.905182 76.381358 
z
" style="stroke:#000000;stroke-width:0.886227;"/>
    <path clip-path="url(#p5253805395)" d="M 146.021545 130.65544 
C 146.491606 130.65544 146.942477 130.468683 147.27486 130.1363 
C 147.607242 129.803918 147.793999 129.353047 147.793999 128.882986 
C 147.793999 128.412926 147.607242 127.962055 147.27486 127.629672 
C 146.942477 127.297289 146.491606 127.110532 146.021545 127.110532 
C 145.551485 127.110532 145.100614 127.297289 144.768231 127.629672 
C 144.435849 127.962055 144.249092 128.412926 144.249092 128.882986 
C 144.249092 129.353047 144.435849 129.803918 144.768231 130.1363 
C 145.100614 130.468683 145.551485 130.65544 146.021545 130.65544 
z
" style="stroke:#000000;stroke-width:0.886227;"/>
    <path clip-path="url(#p5253805395)" d="M 154.137909 65.744947 
C 154.607969 65.744947 155.05884 65.55819 155.391223 65.225807 
C 155.723606 64.893424 155.910363 64.442553 155.910363 63.972493 
C 155.910363 63.502433 155.723606 63.051562 155.391223 62.719179 
C 155.05884 62.386796 154.607969 62.200039 154.137909 62.200039 
C 153.667849 62.200039 153.216978 62.386796 152.884595 62.719179 
C 152.552212 63.051562 152.365455 63.502433 152.365455 63.972493 
C 152.365455 64.442553 152.552212 64.893424 152.884595 65.225807 
C 153.216978 65.55819 153.667849 65.744947 154.137909 65.744947 
z
" style="stroke:#000000;stroke-width:0.886227;"/>
    <path clip-path="url(#p5253805395)" d="M 162.254273 85.364582 
C 162.724333 85.364582 163.175204 85.177826 163.507587 84.845443 
C 163.83997 84.51306 164.026727 84.062189 164.026727 83.592129 
C 164.026727 83.122068 163.83997 82.671197 163.507587 82.338814 
C 163.175204 82.006432 162.724333 81.819675 162.254273 81.819675 
C 161.784212 81.819675 161.333341 82.006432 161.000959 82.338814 
C 160.668576 82.671197 160.481819 83.122068 160.481819 83.592129 
C 160.481819 84.062189 160.668576 84.51306 161.000959 84.845443 
C 161.333341 85.177826 161.784212 85.364582 162.254273 85.364582 
z
" style="stroke:#000000;stroke-width:0.886227;"/>
    <path clip-path="url(#p5253805395)" d="M 170.370636 90.810299 
C 170.840697 90.810299 171.291568 90.623542 171.623951 90.291159 
C 171.956333 89.958776 172.14309 89.507905 172.14309 89.037845 
C 172.14309 88.567785 171.956333 88.116914 171.623951 87.784531 
C 171.291568 87.452148 170.840697 87.265391 170.370636 87.265391 
C 169.900576 87.265391 169.449705 87.452148 169.117322 87.784531 
C 168.784939 88.116914 168.598183 88.567785 168.598183 89.037845 
C 168.598183 89.507905 168.784939 89.958776 169.117322 90.291159 
C 169.449705 90.623542 169.900576 90.810299 170.370636 90.810299 
z
" style="stroke:#000000;stroke-width:0.886227;"/>
    <path clip-path="url(#p5253805395)" d="M 178.487 101.969997 
C 178.95706 101.969997 179.407931 101.78324 179.740314 101.450857 
C 180.072697 101.118474 180.259454 100.667603 180.259454 100.197543 
C 180.259454 99.727483 180.072697 99.276612 179.740314 98.944229 
C 179.407931 98.611846 178.95706 98.425089 178.487 98.425089 
C 178.01694 98.425089 177.566069 98.611846 177.233686 98.944229 
C 176.901303 99.276612 176.714546 99.727483 176.714546 100.197543 
C 176.714546 100.667603 176.901303 101.118474 177.233686 101.450857 
C 177.566069 101.78324 178.01694 101.969997 178.487 101.969997 
z
" style="stroke:#000000;stroke-width:0.886227;"/>
    <path clip-path="url(#p5253805395)" d="M 186.603364 88.639254 
C 187.073424 88.639254 187.524295 88.452497 187.856678 88.120115 
C 188.189061 87.787732 188.375817 87.336861 188.375817 86.866801 
C 188.375817 86.39674 188.189061 85.945869 187.856678 85.613486 
C 187.524295 85.281104 187.073424 85.094347 186.603364 85.094347 
C 186.133303 85.094347 185.682432 85.281104 185.350049 85.613486 
C 185.017667 85.945869 184.83091 86.39674 184.83091 86.866801 
C 184.83091 87.336861 185.017667 87.787732 185.350049 88.120115 
C 185.682432 88.452497 186.133303 88.639254 186.603364 88.639254 
z
" style="stroke:#000000;stroke-width:0.886227;"/>
    <path clip-path="url(#p5253805395)" d="M 194.719727 111.410945 
C 195.189788 111.410945 195.640659 111.224188 195.973041 110.891805 
C 196.305424 110.559422 196.492181 110.108551 196.492181 109.638491 
C 196.492181 109.168431 196.305424 108.71756 195.973041 108.385177 
C 195.640659 108.052794 195.189788 107.866037 194.719727 107.866037 
C 194.249667 107.866037 193.798796 108.052794 193.466413 108.385177 
C 193.13403 108.71756 192.947273 109.168431 192.947273 109.638491 
C 192.947273 110.108551 193.13403 110.559422 193.466413 110.891805 
C 193.798796 111.224188 194.249667 111.410945 194.719727 111.410945 
z
" style="stroke:#000000;stroke-width:0.886227;"/>
    <path clip-path="url(#p5253805395)" d="M 202.836091 97.592633 
C 203.306151 97.592633 203.757022 97.405876 204.089405 97.073494 
C 204.421788 96.741111 204.608545 96.29024 204.608545 95.820179 
C 204.608545 95.350119 204.421788 94.899248 204.089405 94.566865 
C 203.757022 94.234483 203.306151 94.047726 202.836091 94.047726 
C 202.366031 94.047726 201.91516 94.234483 201.582777 94.566865 
C 201.250394 94.899248 201.063637 95.350119 201.063637 95.820179 
C 201.063637 96.29024 201.250394 96.741111 201.582777 97.073494 
C 201.91516 97.405876 202.366031 97.592633 202.836091 97.592633 
z
" style="stroke:#000000;stroke-width:0.886227;"/>
    <path clip-path="url(#p5253805395)" d="M 210.952455 118.791354 
C 211.422515 118.791354 211.873386 118.604597 212.205769 118.272214 
C 212.538151 117.939831 212.724908 117.48896 212.724908 117.0189 
C 212.724908 116.548839 212.538151 116.097968 212.205769 115.765586 
C 211.873386 115.433203 211.422515 115.246446 210.952455 115.246446 
C 210.482394 115.246446 210.031523 115.433203 209.69914 115.765586 
C 209.366758 116.097968 209.180001 116.548839 209.180001 117.0189 
C 209.180001 117.48896 209.366758 117.939831 209.69914 118.272214 
C 210.031523 118.604597 210.482394 118.791354 210.952455 118.791354 
z
" style="stroke:#000000;stroke-width:0.886227;"/>
    <path clip-path="url(#p5253805395)" d="M 219.068818 112.317119 
C 219.538878 112.317119 219.98975 112.130362 220.322132 111.79798 
C 220.654515 111.465597 220.841272 111.014726 220.841272 110.544665 
C 220.841272 110.074605 220.654515 109.623734 220.322132 109.291351 
C 219.98975 108.958968 219.538878 108.772212 219.068818 108.772212 
C 218.598758 108.772212 218.147887 108.958968 217.815504 109.291351 
C 217.483121 109.623734 217.296364 110.074605 217.296364 110.544665 
C 217.296364 111.014726 217.483121 111.465597 217.815504 111.79798 
C 218.147887 112.130362 218.598758 112.317119 219.068818 112.317119 
z
" style="stroke:#000000;stroke-width:0.886227;"/>
    <path clip-path="url(#p5253805395)" d="M 227.185182 105.950421 
C 227.655242 105.950421 228.106113 105.763664 228.438496 105.431282 
C 228.770879 105.098899 228.957636 104.648028 228.957636 104.177967 
C 228.957636 103.707907 228.770879 103.257036 228.438496 102.924653 
C 228.106113 102.59227 227.655242 102.405514 227.185182 102.405514 
C 226.715122 102.405514 226.26425 102.59227 225.931868 102.924653 
C 225.599485 103.257036 225.412728 103.707907 225.412728 104.177967 
C 225.412728 104.648028 225.599485 105.098899 225.931868 105.431282 
C 226.26425 105.763664 226.715122 105.950421 227.185182 105.950421 
z
" style="stroke:#000000;stroke-width:0.886227;"/>
    <path clip-path="url(#p5253805395)" d="M 235.301545 102.427305 
C 235.771606 102.427305 236.222477 102.240549 236.55486 101.908166 
C 236.887242 101.575783 237.073999 101.124912 237.073999 100.654852 
C 237.073999 100.184791 236.887242 99.73392 236.55486 99.401537 
C 236.222477 99.069155 235.771606 98.882398 235.301545 98.882398 
C 234.831485 98.882398 234.380614 99.069155 234.048231 99.401537 
C 233.715849 99.73392 233.529092 100.184791 233.529092 100.654852 
C 233.529092 101.124912 233.715849 101.575783 234.048231 101.908166 
C 234.380614 102.240549 234.831485 102.427305 235.301545 102.427305 
z
" style="stroke:#000000;stroke-width:0.886227;"/>
    <path clip-path="url(#p5253805395)" d="M 243.417909 105.569361 
C 243.887969 105.569361 244.33884 105.382604 244.671223 105.050222 
C 245.003606 104.717839 245.190363 104.266968 245.190363 103.796907 
C 245.190363 103.326847 245.003606 102.875976 244.671223 102.543593 
C 244.33884 102.211211 243.887969 102.024454 243.417909 102.024454 
C 242.947849 102.024454 242.496978 102.211211 242.164595 102.543593 
C 241.832212 102.875976 241.645455 103.326847 241.645455 103.796907 
C 241.645455 104.266968 241.832212 104.717839 242.164595 105.050222 
C 242.496978 105.382604 242.947849 105.569361 243.417909 105.569361 
z
" style="stroke:#000000;stroke-width:0.886227;"/>
    <path clip-path="url(#p5253805395)" d="M 251.534273 113.179996 
C 252.004333 113.179996 252.455204 112.993239 252.787587 112.660856 
C 253.11997 112.328473 253.306727 111.877602 253.306727 111.407542 
C 253.306727 110.937481 253.11997 110.48661 252.787587 110.154228 
C 252.455204 109.821845 252.004333 109.635088 251.534273 109.635088 
C 251.064212 109.635088 250.613341 109.821845 250.280959 110.154228 
C 249.948576 110.48661 249.761819 110.937481 249.761819 111.407542 
C 249.761819 111.877602 249.948576 112.328473 250.280959 112.660856 
C 250.613341 112.993239 251.064212 113.179996 251.534273 113.179996 
z
" style="stroke:#000000;stroke-width:0.886227;"/>
    <path clip-path="url(#p5253805395)" d="M 259.650636 112.367206 
C 260.120697 112.367206 260.571568 112.180449 260.903951 111.848066 
C 261.236333 111.515683 261.42309 111.064812 261.42309 110.594752 
C 261.42309 110.124691 261.236333 109.67382 260.903951 109.341438 
C 260.571568 109.009055 260.120697 108.822298 259.650636 108.822298 
C 259.180576 108.822298 258.729705 109.009055 258.397322 109.341438 
C 258.064939 109.67382 257.878183 110.124691 257.878183 110.594752 
C 257.878183 111.064812 258.064939 111.515683 258.397322 111.848066 
C 258.729705 112.180449 259.180576 112.367206 259.650636 112.367206 
z
" style="stroke:#000000;stroke-width:0.886227;"/>
    <path clip-path="url(#p5253805395)" d="M 267.767 108.382012 
C 268.23706 108.382012 268.687931 108.195255 269.020314 107.862872 
C 269.352697 107.530489 269.539454 107.079618 269.539454 106.609558 
C 269.539454 106.139498 269.352697 105.688626 269.020314 105.356244 
C 268.687931 105.023861 268.23706 104.837104 267.767 104.837104 
C 267.29694 104.837104 266.846069 105.023861 266.513686 105.356244 
C 266.181303 105.688626 265.994546 106.139498 265.994546 106.609558 
C 265.994546 107.079618 266.181303 107.530489 266.513686 107.862872 
C 266.846069 108.195255 267.29694 108.382012 267.767 108.382012 
z
" style="stroke:#000000;stroke-width:0.886227;"/>
    <path clip-path="url(#p5253805395)" d="M 275.883364 119.722632 
C 276.353424 119.722632 276.804295 119.535876 277.136678 119.203493 
C 277.469061 118.87111 277.655817 118.420239 277.655817 117.950179 
C 277.655817 117.480118 277.469061 117.029247 277.136678 116.696864 
C 276.804295 116.364482 276.353424 116.177725 275.883364 116.177725 
C 275.413303 116.177725 274.962432 116.364482 274.630049 116.696864 
C 274.297667 117.029247 274.11091 117.480118 274.11091 117.950179 
C 274.11091 118.420239 274.297667 118.87111 274.630049 119.203493 
C 274.962432 119.535876 275.413303 119.722632 275.883364 119.722632 
z
" style="stroke:#000000;stroke-width:0.886227;"/>
    <path clip-path="url(#p5253805395)" d="M 283.999727 118.477383 
C 284.469788 118.477383 284.920659 118.290626 285.253041 117.958243 
C 285.585424 117.625861 285.772181 117.17499 285.772181 116.704929 
C 285.772181 116.234869 285.585424 115.783998 285.253041 115.451615 
C 284.920659 115.119232 284.469788 114.932475 283.999727 114.932475 
C 283.529667 114.932475 283.078796 115.119232 282.746413 115.451615 
C 282.41403 115.783998 282.227273 116.234869 282.227273 116.704929 
C 282.227273 117.17499 282.41403 117.625861 282.746413 117.958243 
C 283.078796 118.290626 283.529667 118.477383 283.999727 118.477383 
z
" style="stroke:#000000;stroke-width:0.886227;"/>
    <path clip-path="url(#p5253805395)" d="M 292.116091 119.862057 
C 292.586151 119.862057 293.037022 119.6753 293.369405 119.342917 
C 293.701788 119.010534 293.888545 118.559663 293.888545 118.089603 
C 293.888545 117.619543 293.701788 117.168671 293.369405 116.836289 
C 293.037022 116.503906 292.586151 116.317149 292.116091 116.317149 
C 291.646031 116.317149 291.19516 116.503906 290.862777 116.836289 
C 290.530394 117.168671 290.343637 117.619543 290.343637 118.089603 
C 290.343637 118.559663 290.530394 119.010534 290.862777 119.342917 
C 291.19516 119.6753 291.646031 119.862057 292.116091 119.862057 
z
" style="stroke:#000000;stroke-width:0.886227;"/>
    <path clip-path="url(#p5253805395)" d="M 300.232455 120.997187 
C 300.702515 120.997187 301.153386 120.81043 301.485769 120.478047 
C 301.818151 120.145664 302.004908 119.694793 302.004908 119.224733 
C 302.004908 118.754673 301.818151 118.303802 301.485769 117.971419 
C 301.153386 117.639036 300.702515 117.452279 300.232455 117.452279 
C 299.762394 117.452279 299.311523 117.639036 298.97914 117.971419 
C 298.646758 118.303802 298.460001 118.754673 298.460001 119.224733 
C 298.460001 119.694793 298.646758 120.145664 298.97914 120.478047 
C 299.311523 120.81043 299.762394 120.997187 300.232455 120.997187 
z
" style="stroke:#000000;stroke-width:0.886227;"/>
    <path clip-path="url(#p5253805395)" d="M 308.348818 125.086882 
C 308.818878 125.086882 309.26975 124.900125 309.602132 124.567742 
C 309.934515 124.235359 310.121272 123.784488 310.121272 123.314428 
C 310.121272 122.844367 309.934515 122.393496 309.602132 122.061114 
C 309.26975 121.728731 308.818878 121.541974 308.348818 121.541974 
C 307.878758 121.541974 307.427887 121.728731 307.095504 122.061114 
C 306.763121 122.393496 306.576364 122.844367 306.576364 123.314428 
C 306.576364 123.784488 306.763121 124.235359 307.095504 124.567742 
C 307.427887 124.900125 307.878758 125.086882 308.348818 125.086882 
z
" style="stroke:#000000;stroke-width:0.886227;"/>
    <path clip-path="url(#p5253805395)" d="M 316.465182 120.717569 
C 316.935242 120.717569 317.386113 120.530812 317.718496 120.198429 
C 318.050879 119.866046 318.237636 119.415175 318.237636 118.945115 
C 318.237636 118.475055 318.050879 118.024184 317.718496 117.691801 
C 317.386113 117.359418 316.935242 117.172661 316.465182 117.172661 
C 315.995122 117.172661 315.54425 117.359418 315.211868 117.691801 
C 314.879485 118.024184 314.692728 118.475055 314.692728 118.945115 
C 314.692728 119.415175 314.879485 119.866046 315.211868 120.198429 
C 315.54425 120.530812 315.995122 120.717569 316.465182 120.717569 
z
" style="stroke:#000000;stroke-width:0.886227;"/>
    <path clip-path="url(#p5253805395)" d="M 324.581545 119.580689 
C 325.051606 119.580689 325.502477 119.393932 325.83486 119.061549 
C 326.167242 118.729166 326.353999 118.278295 326.353999 117.808235 
C 326.353999 117.338175 326.167242 116.887304 325.83486 116.554921 
C 325.502477 116.222538 325.051606 116.035781 324.581545 116.035781 
C 324.111485 116.035781 323.660614 116.222538 323.328231 116.554921 
C 322.995849 116.887304 322.809092 117.338175 322.809092 117.808235 
C 322.809092 118.278295 322.995849 118.729166 323.328231 119.061549 
C 323.660614 119.393932 324.111485 119.580689 324.581545 119.580689 
z
" style="stroke:#000000;stroke-width:0.886227;"/>
    <path clip-path="url(#p5253805395)" d="M 332.697909 117.746535 
C 333.167969 117.746535 333.61884 117.559778 333.951223 117.227395 
C 334.283606 116.895012 334.470363 116.444141 334.470363 115.974081 
C 334.470363 115.504021 334.283606 115.053149 333.951223 114.720767 
C 333.61884 114.388384 333.167969 114.201627 332.697909 114.201627 
C 332.227849 114.201627 331.776978 114.388384 331.444595 114.720767 
C 331.112212 115.053149 330.925455 115.504021 330.925455 115.974081 
C 330.925455 116.444141 331.112212 116.895012 331.444595 117.227395 
C 331.776978 117.559778 332.227849 117.746535 332.697909 117.746535 
z
" style="stroke:#000000;stroke-width:0.886227;"/>
    <path clip-path="url(#p5253805395)" d="M 340.814273 116.380395 
C 341.284333 116.380395 341.735204 116.193638 342.067587 115.861255 
C 342.39997 115.528872 342.586727 115.078001 342.586727 114.607941 
C 342.586727 114.137881 342.39997 113.68701 342.067587 113.354627 
C 341.735204 113.022244 341.284333 112.835487 340.814273 112.835487 
C 340.344212 112.835487 339.893341 113.022244 339.560959 113.354627 
C 339.228576 113.68701 339.041819 114.137881 339.041819 114.607941 
C 339.041819 115.078001 339.228576 115.528872 339.560959 115.861255 
C 339.893341 116.193638 340.344212 116.380395 340.814273 116.380395 
z
" style="stroke:#000000;stroke-width:0.886227;"/>
    <path clip-path="url(#p5253805395)" d="M 348.930636 115.593647 
C 349.400697 115.593647 349.851568 115.40689 350.183951 115.074507 
C 350.516333 114.742125 350.70309 114.291253 350.70309 113.821193 
C 350.70309 113.351133 350.516333 112.900262 350.183951 112.567879 
C 349.851568 112.235496 349.400697 112.048739 348.930636 112.048739 
C 348.460576 112.048739 348.009705 112.235496 347.677322 112.567879 
C 347.344939 112.900262 347.158183 113.351133 347.158183 113.821193 
C 347.158183 114.291253 347.344939 114.742125 347.677322 115.074507 
C 348.009705 115.40689 348.460576 115.593647 348.930636 115.593647 
z
" style="stroke:#000000;stroke-width:0.886227;"/>
    <path clip-path="url(#p5253805395)" d="M 357.047 114.399973 
C 357.51706 114.399973 357.967931 114.213216 358.300314 113.880833 
C 358.632697 113.54845 358.819454 113.097579 358.819454 112.627519 
C 358.819454 112.157458 358.632697 111.706587 358.300314 111.374205 
C 357.967931 111.041822 357.51706 110.855065 357.047 110.855065 
C 356.57694 110.855065 356.126069 111.041822 355.793686 111.374205 
C 355.461303 111.706587 355.274546 112.157458 355.274546 112.627519 
C 355.274546 113.097579 355.461303 113.54845 355.793686 113.880833 
C 356.126069 114.213216 356.57694 114.399973 357.047 114.399973 
z
" style="stroke:#000000;stroke-width:0.886227;"/>
    <path clip-path="url(#p5253805395)" d="M 365.163364 112.154702 
C 365.633424 112.154702 366.084295 111.967945 366.416678 111.635562 
C 366.749061 111.303179 366.935817 110.852308 366.935817 110.382248 
C 366.935817 109.912188 366.749061 109.461317 366.416678 109.128934 
C 366.084295 108.796551 365.633424 108.609794 365.163364 108.609794 
C 364.693303 108.609794 364.242432 108.796551 363.910049 109.128934 
C 363.577667 109.461317 363.39091 109.912188 363.39091 110.382248 
C 363.39091 110.852308 363.577667 111.303179 363.910049 111.635562 
C 364.242432 111.967945 364.693303 112.154702 365.163364 112.154702 
z
" style="stroke:#000000;stroke-width:0.886227;"/>
    <path clip-path="url(#p5253805395)" d="M 373.279727 113.373116 
C 373.749788 113.373116 374.200659 113.186359 374.533041 112.853976 
C 374.865424 112.521593 375.052181 112.070722 375.052181 111.600662 
C 375.052181 111.130602 374.865424 110.679731 374.533041 110.347348 
C 374.200659 110.014965 373.749788 109.828208 373.279727 109.828208 
C 372.809667 109.828208 372.358796 110.014965 372.026413 110.347348 
C 371.69403 110.679731 371.507273 111.130602 371.507273 111.600662 
C 371.507273 112.070722 371.69403 112.521593 372.026413 112.853976 
C 372.358796 113.186359 372.809667 113.373116 373.279727 113.373116 
z
" style="stroke:#000000;stroke-width:0.886227;"/>
    <path clip-path="url(#p5253805395)" d="M 381.396091 111.405162 
C 381.866151 111.405162 382.317022 111.218406 382.649405 110.886023 
C 382.981788 110.55364 383.168545 110.102769 383.168545 109.632709 
C 383.168545 109.162648 382.981788 108.711777 382.649405 108.379394 
C 382.317022 108.047012 381.866151 107.860255 381.396091 107.860255 
C 380.926031 107.860255 380.47516 108.047012 380.142777 108.379394 
C 379.810394 108.711777 379.623637 109.162648 379.623637 109.632709 
C 379.623637 110.102769 379.810394 110.55364 380.142777 110.886023 
C 380.47516 111.218406 380.926031 111.405162 381.396091 111.405162 
z
" style="stroke:#000000;stroke-width:0.886227;"/>
    <path clip-path="url(#p5253805395)" d="M 389.512455 103.807289 
C 389.982515 103.807289 390.433386 103.620532 390.765769 103.28815 
C 391.098151 102.955767 391.284908 102.504896 391.284908 102.034835 
C 391.284908 101.564775 391.098151 101.113904 390.765769 100.781521 
C 390.433386 100.449139 389.982515 100.262382 389.512455 100.262382 
C 389.042394 100.262382 388.591523 100.449139 388.25914 100.781521 
C 387.926758 101.113904 387.740001 101.564775 387.740001 102.034835 
C 387.740001 102.504896 387.926758 102.955767 388.25914 103.28815 
C 388.591523 103.620532 389.042394 103.807289 389.512455 103.807289 
z
" style="stroke:#000000;stroke-width:0.886227;"/>
    <path clip-path="url(#p5253805395)" d="M 397.628818 101.886073 
C 398.098878 101.886073 398.54975 101.699316 398.882132 101.366933 
C 399.214515 101.03455 399.401272 100.583679 399.401272 100.113619 
C 399.401272 99.643559 399.214515 99.192688 398.882132 98.860305 
C 398.54975 98.527922 398.098878 98.341165 397.628818 98.341165 
C 397.158758 98.341165 396.707887 98.527922 396.375504 98.860305 
C 396.043121 99.192688 395.856364 99.643559 395.856364 100.113619 
C 395.856364 100.583679 396.043121 101.03455 396.375504 101.366933 
C 396.707887 101.699316 397.158758 101.886073 397.628818 101.886073 
z
" style="stroke:#000000;stroke-width:0.886227;"/>
    <path clip-path="url(#p5253805395)" d="M 405.745182 99.408696 
C 406.215242 99.408696 406.666113 99.221939 406.998496 98.889557 
C 407.330879 98.557174 407.517636 98.106303 407.517636 97.636243 
C 407.517636 97.166182 407.330879 96.715311 406.998496 96.382928 
C 406.666113 96.050546 406.215242 95.863789 405.745182 95.863789 
C 405.275122 95.863789 404.82425 96.050546 404.491868 96.382928 
C 404.159485 96.715311 403.972728 97.166182 403.972728 97.636243 
C 403.972728 98.106303 404.159485 98.557174 404.491868 98.889557 
C 404.82425 99.221939 405.275122 99.408696 405.745182 99.408696 
z
" style="stroke:#000000;stroke-width:0.886227;"/>
    <path clip-path="url(#p5253805395)" d="M 413.861545 95.933394 
C 414.331606 95.933394 414.782477 95.746637 415.11486 95.414254 
C 415.447242 95.081871 415.633999 94.631 415.633999 94.16094 
C 415.633999 93.69088 415.447242 93.240008 415.11486 92.907626 
C 414.782477 92.575243 414.331606 92.388486 413.861545 92.388486 
C 413.391485 92.388486 412.940614 92.575243 412.608231 92.907626 
C 412.275849 93.240008 412.089092 93.69088 412.089092 94.16094 
C 412.089092 94.631 412.275849 95.081871 412.608231 95.414254 
C 412.940614 95.746637 413.391485 95.933394 413.861545 95.933394 
z
" style="stroke:#000000;stroke-width:0.886227;"/>
    <path clip-path="url(#p5253805395)" d="M 421.977909 92.924562 
C 422.447969 92.924562 422.89884 92.737805 423.231223 92.405422 
C 423.563606 92.07304 423.750363 91.622169 423.750363 91.152108 
C 423.750363 90.682048 423.563606 90.231177 423.231223 89.898794 
C 422.89884 89.566411 422.447969 89.379654 421.977909 89.379654 
C 421.507849 89.379654 421.056978 89.566411 420.724595 89.898794 
C 420.392212 90.231177 420.205455 90.682048 420.205455 91.152108 
C 420.205455 91.622169 420.392212 92.07304 420.724595 92.405422 
C 421.056978 92.737805 421.507849 92.924562 421.977909 92.924562 
z
" style="stroke:#000000;stroke-width:0.886227;"/>
    <path clip-path="url(#p5253805395)" d="M 430.094273 92.912518 
C 430.564333 92.912518 431.015204 92.725762 431.347587 92.393379 
C 431.67997 92.060996 431.866727 91.610125 431.866727 91.140065 
C 431.866727 90.670004 431.67997 90.219133 431.347587 89.886751 
C 431.015204 89.554368 430.564333 89.367611 430.094273 89.367611 
C 429.624212 89.367611 429.173341 89.554368 428.840959 89.886751 
C 428.508576 90.219133 428.321819 90.670004 428.321819 91.140065 
C 428.321819 91.610125 428.508576 92.060996 428.840959 92.393379 
C 429.173341 92.725762 429.624212 92.912518 430.094273 92.912518 
z
" style="stroke:#000000;stroke-width:0.886227;"/>
    <path clip-path="url(#p5253805395)" d="M 438.210636 89.191862 
C 438.680697 89.191862 439.131568 89.005105 439.463951 88.672722 
C 439.796333 88.340339 439.98309 87.889468 439.98309 87.419408 
C 439.98309 86.949347 439.796333 86.498476 439.463951 86.166094 
C 439.131568 85.833711 438.680697 85.646954 438.210636 85.646954 
C 437.740576 85.646954 437.289705 85.833711 436.957322 86.166094 
C 436.624939 86.498476 436.438183 86.949347 436.438183 87.419408 
C 436.438183 87.889468 436.624939 88.340339 436.957322 88.672722 
C 437.289705 89.005105 437.740576 89.191862 438.210636 89.191862 
z
" style="stroke:#000000;stroke-width:0.886227;"/>
    <path clip-path="url(#p5253805395)" d="M 446.327 95.561037 
C 446.79706 95.561037 447.247931 95.37428 447.580314 95.041897 
C 447.912697 94.709514 448.099454 94.258643 448.099454 93.788583 
C 448.099454 93.318523 447.912697 92.867651 447.580314 92.535269 
C 447.247931 92.202886 446.79706 92.016129 446.327 92.016129 
C 445.85694 92.016129 445.406069 92.202886 445.073686 92.535269 
C 444.741303 92.867651 444.554546 93.318523 444.554546 93.788583 
C 444.554546 94.258643 444.741303 94.709514 445.073686 95.041897 
C 445.406069 95.37428 445.85694 95.561037 446.327 95.561037 
z
" style="stroke:#000000;stroke-width:0.886227;"/>
    <path clip-path="url(#p5253805395)" d="M 454.443364 99.993541 
C 454.913424 99.993541 455.364295 99.806784 455.696678 99.474401 
C 456.029061 99.142019 456.215817 98.691147 456.215817 98.221087 
C 456.215817 97.751027 456.029061 97.300156 455.696678 96.967773 
C 455.364295 96.63539 454.913424 96.448633 454.443364 96.448633 
C 453.973303 96.448633 453.522432 96.63539 453.190049 96.967773 
C 452.857667 97.300156 452.67091 97.751027 452.67091 98.221087 
C 452.67091 98.691147 452.857667 99.142019 453.190049 99.474401 
C 453.522432 99.806784 453.973303 99.993541 454.443364 99.993541 
z
" style="stroke:#000000;stroke-width:0.886227;"/>
    <path clip-path="url(#p5253805395)" d="M 462.559727 100.970622 
C 463.029788 100.970622 463.480659 100.783865 463.813041 100.451483 
C 464.145424 100.1191 464.332181 99.668229 464.332181 99.198168 
C 464.332181 98.728108 464.145424 98.277237 463.813041 97.944854 
C 463.480659 97.612472 463.029788 97.425715 462.559727 97.425715 
C 462.089667 97.425715 461.638796 97.612472 461.306413 97.944854 
C 460.97403 98.277237 460.787273 98.728108 460.787273 99.198168 
C 460.787273 99.668229 460.97403 100.1191 461.306413 100.451483 
C 461.638796 100.783865 462.089667 100.970622 462.559727 100.970622 
z
" style="stroke:#000000;stroke-width:0.886227;"/>
   </g>
   <g id="line2d_41">
    <path clip-path="url(#p5253805395)" d="M 81.090636 17.28 
L 89.207 50.88 
L 97.323364 168.48 
L 105.439727 108.883814 
L 113.556091 120.06717 
L 121.672455 94.59866 
L 129.788818 117.567805 
L 137.905182 74.608904 
L 146.021545 128.882986 
L 154.137909 63.972493 
L 162.254273 83.592129 
L 170.370636 89.037845 
L 178.487 100.197543 
L 186.603364 86.866801 
L 194.719727 109.638491 
L 202.836091 95.820179 
L 210.952455 117.0189 
L 219.068818 110.544665 
L 227.185182 104.177967 
L 235.301545 100.654852 
L 243.417909 103.796907 
L 251.534273 111.407542 
L 259.650636 110.594752 
L 267.767 106.609558 
L 275.883364 117.950179 
L 283.999727 116.704929 
L 292.116091 118.089603 
L 300.232455 119.224733 
L 308.348818 123.314428 
L 316.465182 118.945115 
L 324.581545 117.808235 
L 332.697909 115.974081 
L 340.814273 114.607941 
L 348.930636 113.821193 
L 357.047 112.627519 
L 365.163364 110.382248 
L 373.279727 111.600662 
L 381.396091 109.632709 
L 389.512455 102.034835 
L 397.628818 100.113619 
L 405.745182 97.636243 
L 413.861545 94.16094 
L 421.977909 91.152108 
L 430.094273 91.140065 
L 438.210636 87.419408 
L 446.327 93.788583 
L 454.443364 98.221087 
L 462.559727 99.198168 
" style="fill:none;stroke:#000000;stroke-width:0.886227;"/>
   </g>
  </g>
 </g>
 <defs>
  <clipPath id="p5253805395">
   <rect height="221.76" width="446.4" x="44.567" y="7.2"/>
  </clipPath>
 </defs>
</svg>
