<?xml version="1.0" encoding="utf-8" standalone="no"?>
<!DOCTYPE svg PUBLIC "-//W3C//DTD SVG 1.1//EN"
  "http://www.w3.org/Graphics/SVG/1.1/DTD/svg11.dtd">
<!-- Created with matplotlib (https://matplotlib.org/) -->
<svg height="327.158625pt" version="1.1" viewBox="0 0 502.164812 327.158625" width="502.164812pt" xmlns="http://www.w3.org/2000/svg" xmlns:xlink="http://www.w3.org/1999/xlink">
 <defs>
  <style type="text/css">
*{stroke-linecap:butt;stroke-linejoin:round;}
  </style>
 </defs>
 <g id="figure_1">
  <g id="patch_1">
   <path d="M 0 327.158625 
L 502.164812 327.158625 
L 502.164812 0 
L 0 0 
z
" style="fill:#ffffff;stroke:#ffffff;stroke-linejoin:miter;"/>
  </g>
  <g id="axes_1">
   <g id="patch_2">
    <path d="M 48.564813 291.445937 
L 494.964812 291.445937 
L 494.964812 69.685937 
L 48.564813 69.685937 
z
" style="fill:#ffffff;stroke:#7f7f7f;stroke-linejoin:miter;"/>
   </g>
   <g id="matplotlib.axis_1">
    <g id="xtick_1">
     <g id="line2d_1">
      <path clip-path="url(#p701aff15b4)" d="M 90.214573 291.445937 
L 90.214573 69.685937 
" style="fill:none;stroke:#e5e5e5;stroke-width:0.8;"/>
     </g>
     <g id="line2d_2">
      <path d="M 90.214573 291.445937 
" style="fill:none;stroke:#000000;stroke-width:1.5;"/>
      <defs>
       <path d="M 0 0 
L 0 2.75 
" id="m211f5239d5" style="stroke:#000000;"/>
      </defs>
      <g>
       <use style="stroke:#000000;" x="90.214573" xlink:href="#m211f5239d5" y="291.445937"/>
      </g>
     </g>
     <g id="text_1">
      <!-- 2000 -->
      <defs>
       <path d="M 19.1875 8.296875 
L 53.609375 8.296875 
L 53.609375 0 
L 7.328125 0 
L 7.328125 8.296875 
Q 12.9375 14.109375 22.625 23.890625 
Q 32.328125 33.6875 34.8125 36.53125 
Q 39.546875 41.84375 41.421875 45.53125 
Q 43.3125 49.21875 43.3125 52.78125 
Q 43.3125 58.59375 39.234375 62.25 
Q 35.15625 65.921875 28.609375 65.921875 
Q 23.96875 65.921875 18.8125 64.3125 
Q 13.671875 62.703125 7.8125 59.421875 
L 7.8125 69.390625 
Q 13.765625 71.78125 18.9375 73 
Q 24.125 74.21875 28.421875 74.21875 
Q 39.75 74.21875 46.484375 68.546875 
Q 53.21875 62.890625 53.21875 53.421875 
Q 53.21875 48.921875 51.53125 44.890625 
Q 49.859375 40.875 45.40625 35.40625 
Q 44.1875 33.984375 37.640625 27.21875 
Q 31.109375 20.453125 19.1875 8.296875 
z
" id="DejaVuSans-50"/>
       <path d="M 31.78125 66.40625 
Q 24.171875 66.40625 20.328125 58.90625 
Q 16.5 51.421875 16.5 36.375 
Q 16.5 21.390625 20.328125 13.890625 
Q 24.171875 6.390625 31.78125 6.390625 
Q 39.453125 6.390625 43.28125 13.890625 
Q 47.125 21.390625 47.125 36.375 
Q 47.125 51.421875 43.28125 58.90625 
Q 39.453125 66.40625 31.78125 66.40625 
z
M 31.78125 74.21875 
Q 44.046875 74.21875 50.515625 64.515625 
Q 56.984375 54.828125 56.984375 36.375 
Q 56.984375 17.96875 50.515625 8.265625 
Q 44.046875 -1.421875 31.78125 -1.421875 
Q 19.53125 -1.421875 13.0625 8.265625 
Q 6.59375 17.96875 6.59375 36.375 
Q 6.59375 54.828125 13.0625 64.515625 
Q 19.53125 74.21875 31.78125 74.21875 
z
" id="DejaVuSans-48"/>
      </defs>
      <g transform="translate(79.016573 303.082562)scale(0.088 -0.088)">
       <use xlink:href="#DejaVuSans-50"/>
       <use x="63.623047" xlink:href="#DejaVuSans-48"/>
       <use x="127.246094" xlink:href="#DejaVuSans-48"/>
       <use x="190.869141" xlink:href="#DejaVuSans-48"/>
      </g>
     </g>
    </g>
    <g id="xtick_2">
     <g id="line2d_3">
      <path clip-path="url(#p701aff15b4)" d="M 197.008832 291.445937 
L 197.008832 69.685937 
" style="fill:none;stroke:#e5e5e5;stroke-width:0.8;"/>
     </g>
     <g id="line2d_4">
      <path d="M 197.008832 291.445937 
" style="fill:none;stroke:#000000;stroke-width:1.5;"/>
      <g>
       <use style="stroke:#000000;" x="197.008832" xlink:href="#m211f5239d5" y="291.445937"/>
      </g>
     </g>
     <g id="text_2">
      <!-- 2005 -->
      <defs>
       <path d="M 10.796875 72.90625 
L 49.515625 72.90625 
L 49.515625 64.59375 
L 19.828125 64.59375 
L 19.828125 46.734375 
Q 21.96875 47.46875 24.109375 47.828125 
Q 26.265625 48.1875 28.421875 48.1875 
Q 40.625 48.1875 47.75 41.5 
Q 54.890625 34.8125 54.890625 23.390625 
Q 54.890625 11.625 47.5625 5.09375 
Q 40.234375 -1.421875 26.90625 -1.421875 
Q 22.3125 -1.421875 17.546875 -0.640625 
Q 12.796875 0.140625 7.71875 1.703125 
L 7.71875 11.625 
Q 12.109375 9.234375 16.796875 8.0625 
Q 21.484375 6.890625 26.703125 6.890625 
Q 35.15625 6.890625 40.078125 11.328125 
Q 45.015625 15.765625 45.015625 23.390625 
Q 45.015625 31 40.078125 35.4375 
Q 35.15625 39.890625 26.703125 39.890625 
Q 22.75 39.890625 18.8125 39.015625 
Q 14.890625 38.140625 10.796875 36.28125 
z
" id="DejaVuSans-53"/>
      </defs>
      <g transform="translate(185.810832 303.082562)scale(0.088 -0.088)">
       <use xlink:href="#DejaVuSans-50"/>
       <use x="63.623047" xlink:href="#DejaVuSans-48"/>
       <use x="127.246094" xlink:href="#DejaVuSans-48"/>
       <use x="190.869141" xlink:href="#DejaVuSans-53"/>
      </g>
     </g>
    </g>
    <g id="xtick_3">
     <g id="line2d_5">
      <path clip-path="url(#p701aff15b4)" d="M 303.80309 291.445937 
L 303.80309 69.685937 
" style="fill:none;stroke:#e5e5e5;stroke-width:0.8;"/>
     </g>
     <g id="line2d_6">
      <path d="M 303.80309 291.445937 
" style="fill:none;stroke:#000000;stroke-width:1.5;"/>
      <g>
       <use style="stroke:#000000;" x="303.80309" xlink:href="#m211f5239d5" y="291.445937"/>
      </g>
     </g>
     <g id="text_3">
      <!-- 2010 -->
      <defs>
       <path d="M 12.40625 8.296875 
L 28.515625 8.296875 
L 28.515625 63.921875 
L 10.984375 60.40625 
L 10.984375 69.390625 
L 28.421875 72.90625 
L 38.28125 72.90625 
L 38.28125 8.296875 
L 54.390625 8.296875 
L 54.390625 0 
L 12.40625 0 
z
" id="DejaVuSans-49"/>
      </defs>
      <g transform="translate(292.60509 303.082562)scale(0.088 -0.088)">
       <use xlink:href="#DejaVuSans-50"/>
       <use x="63.623047" xlink:href="#DejaVuSans-48"/>
       <use x="127.246094" xlink:href="#DejaVuSans-49"/>
       <use x="190.869141" xlink:href="#DejaVuSans-48"/>
      </g>
     </g>
    </g>
    <g id="xtick_4">
     <g id="line2d_7">
      <path clip-path="url(#p701aff15b4)" d="M 410.597348 291.445937 
L 410.597348 69.685937 
" style="fill:none;stroke:#e5e5e5;stroke-width:0.8;"/>
     </g>
     <g id="line2d_8">
      <path d="M 410.597348 291.445937 
" style="fill:none;stroke:#000000;stroke-width:1.5;"/>
      <g>
       <use style="stroke:#000000;" x="410.597348" xlink:href="#m211f5239d5" y="291.445937"/>
      </g>
     </g>
     <g id="text_4">
      <!-- 2015 -->
      <g transform="translate(399.399348 303.082562)scale(0.088 -0.088)">
       <use xlink:href="#DejaVuSans-50"/>
       <use x="63.623047" xlink:href="#DejaVuSans-48"/>
       <use x="127.246094" xlink:href="#DejaVuSans-49"/>
       <use x="190.869141" xlink:href="#DejaVuSans-53"/>
      </g>
     </g>
    </g>
    <g id="xtick_5">
     <g id="line2d_9">
      <path clip-path="url(#p701aff15b4)" d="M 143.611702 291.445937 
L 143.611702 69.685937 
" style="fill:none;stroke:#fafafa;"/>
     </g>
     <g id="line2d_10">
      <path d="M 143.611702 291.445937 
" style="fill:none;stroke:#000000;stroke-width:1.5;"/>
      <defs>
       <path d="M 0 0 
L 0 1.375 
" id="me6697ab6c4" style="stroke:#000000;"/>
      </defs>
      <g>
       <use style="stroke:#000000;" x="143.611702" xlink:href="#me6697ab6c4" y="291.445937"/>
      </g>
     </g>
    </g>
    <g id="xtick_6">
     <g id="line2d_11">
      <path clip-path="url(#p701aff15b4)" d="M 250.405961 291.445937 
L 250.405961 69.685937 
" style="fill:none;stroke:#fafafa;"/>
     </g>
     <g id="line2d_12">
      <path d="M 250.405961 291.445937 
" style="fill:none;stroke:#000000;stroke-width:1.5;"/>
      <g>
       <use style="stroke:#000000;" x="250.405961" xlink:href="#me6697ab6c4" y="291.445937"/>
      </g>
     </g>
    </g>
    <g id="xtick_7">
     <g id="line2d_13">
      <path clip-path="url(#p701aff15b4)" d="M 357.200219 291.445937 
L 357.200219 69.685937 
" style="fill:none;stroke:#fafafa;"/>
     </g>
     <g id="line2d_14">
      <path d="M 357.200219 291.445937 
" style="fill:none;stroke:#000000;stroke-width:1.5;"/>
      <g>
       <use style="stroke:#000000;" x="357.200219" xlink:href="#me6697ab6c4" y="291.445937"/>
      </g>
     </g>
    </g>
    <g id="xtick_8">
     <g id="line2d_15">
      <path clip-path="url(#p701aff15b4)" d="M 463.994478 291.445937 
L 463.994478 69.685937 
" style="fill:none;stroke:#fafafa;"/>
     </g>
     <g id="line2d_16">
      <path d="M 463.994478 291.445937 
" style="fill:none;stroke:#000000;stroke-width:1.5;"/>
      <g>
       <use style="stroke:#000000;" x="463.994478" xlink:href="#me6697ab6c4" y="291.445937"/>
      </g>
     </g>
    </g>
    <g id="text_5">
     <!-- Year -->
     <defs>
      <path d="M -0.203125 72.90625 
L 10.40625 72.90625 
L 30.609375 42.921875 
L 50.6875 72.90625 
L 61.28125 72.90625 
L 35.5 34.71875 
L 35.5 0 
L 25.59375 0 
L 25.59375 34.71875 
z
" id="DejaVuSans-89"/>
      <path d="M 56.203125 29.59375 
L 56.203125 25.203125 
L 14.890625 25.203125 
Q 15.484375 15.921875 20.484375 11.0625 
Q 25.484375 6.203125 34.421875 6.203125 
Q 39.59375 6.203125 44.453125 7.46875 
Q 49.3125 8.734375 54.109375 11.28125 
L 54.109375 2.78125 
Q 49.265625 0.734375 44.1875 -0.34375 
Q 39.109375 -1.421875 33.890625 -1.421875 
Q 20.796875 -1.421875 13.15625 6.1875 
Q 5.515625 13.8125 5.515625 26.8125 
Q 5.515625 40.234375 12.765625 48.109375 
Q 20.015625 56 32.328125 56 
Q 43.359375 56 49.78125 48.890625 
Q 56.203125 41.796875 56.203125 29.59375 
z
M 47.21875 32.234375 
Q 47.125 39.59375 43.09375 43.984375 
Q 39.0625 48.390625 32.421875 48.390625 
Q 24.90625 48.390625 20.390625 44.140625 
Q 15.875 39.890625 15.1875 32.171875 
z
" id="DejaVuSans-101"/>
      <path d="M 34.28125 27.484375 
Q 23.390625 27.484375 19.1875 25 
Q 14.984375 22.515625 14.984375 16.5 
Q 14.984375 11.71875 18.140625 8.90625 
Q 21.296875 6.109375 26.703125 6.109375 
Q 34.1875 6.109375 38.703125 11.40625 
Q 43.21875 16.703125 43.21875 25.484375 
L 43.21875 27.484375 
z
M 52.203125 31.203125 
L 52.203125 0 
L 43.21875 0 
L 43.21875 8.296875 
Q 40.140625 3.328125 35.546875 0.953125 
Q 30.953125 -1.421875 24.3125 -1.421875 
Q 15.921875 -1.421875 10.953125 3.296875 
Q 6 8.015625 6 15.921875 
Q 6 25.140625 12.171875 29.828125 
Q 18.359375 34.515625 30.609375 34.515625 
L 43.21875 34.515625 
L 43.21875 35.40625 
Q 43.21875 41.609375 39.140625 45 
Q 35.0625 48.390625 27.6875 48.390625 
Q 23 48.390625 18.546875 47.265625 
Q 14.109375 46.140625 10.015625 43.890625 
L 10.015625 52.203125 
Q 14.9375 54.109375 19.578125 55.046875 
Q 24.21875 56 28.609375 56 
Q 40.484375 56 46.34375 49.84375 
Q 52.203125 43.703125 52.203125 31.203125 
z
" id="DejaVuSans-97"/>
      <path d="M 41.109375 46.296875 
Q 39.59375 47.171875 37.8125 47.578125 
Q 36.03125 48 33.890625 48 
Q 26.265625 48 22.1875 43.046875 
Q 18.109375 38.09375 18.109375 28.8125 
L 18.109375 0 
L 9.078125 0 
L 9.078125 54.6875 
L 18.109375 54.6875 
L 18.109375 46.1875 
Q 20.953125 51.171875 25.484375 53.578125 
Q 30.03125 56 36.53125 56 
Q 37.453125 56 38.578125 55.875 
Q 39.703125 55.765625 41.0625 55.515625 
z
" id="DejaVuSans-114"/>
     </defs>
     <g transform="translate(252.200984 317.670969)scale(0.11 -0.11)">
      <use xlink:href="#DejaVuSans-89"/>
      <use x="60.880859" xlink:href="#DejaVuSans-101"/>
      <use x="122.404297" xlink:href="#DejaVuSans-97"/>
      <use x="183.683594" xlink:href="#DejaVuSans-114"/>
     </g>
    </g>
   </g>
   <g id="matplotlib.axis_2">
    <g id="ytick_1">
     <g id="line2d_17">
      <path clip-path="url(#p701aff15b4)" d="M 48.564813 281.365937 
L 494.964812 281.365937 
" style="fill:none;stroke:#e5e5e5;stroke-width:0.8;"/>
     </g>
     <g id="line2d_18">
      <path d="M 48.564813 281.365937 
" style="fill:none;stroke:#000000;stroke-width:1.5;"/>
      <defs>
       <path d="M 0 0 
L -2.75 0 
" id="m21b9558ee5" style="stroke:#000000;"/>
      </defs>
      <g>
       <use style="stroke:#000000;" x="48.564813" xlink:href="#m21b9558ee5" y="281.365937"/>
      </g>
     </g>
     <g id="text_6">
      <!-- −1 -->
      <defs>
       <path d="M 10.59375 35.5 
L 73.1875 35.5 
L 73.1875 27.203125 
L 10.59375 27.203125 
z
" id="DejaVuSans-8722"/>
      </defs>
      <g transform="translate(30.641688 283.794187)scale(0.088 -0.088)">
       <use xlink:href="#DejaVuSans-8722"/>
       <use x="83.789062" xlink:href="#DejaVuSans-49"/>
      </g>
     </g>
    </g>
    <g id="ytick_2">
     <g id="line2d_19">
      <path clip-path="url(#p701aff15b4)" d="M 48.564813 230.965937 
L 494.964812 230.965937 
" style="fill:none;stroke:#e5e5e5;stroke-width:0.8;"/>
     </g>
     <g id="line2d_20">
      <path d="M 48.564813 230.965937 
" style="fill:none;stroke:#000000;stroke-width:1.5;"/>
      <g>
       <use style="stroke:#000000;" x="48.564813" xlink:href="#m21b9558ee5" y="230.965937"/>
      </g>
     </g>
     <g id="text_7">
      <!-- −0.5 -->
      <defs>
       <path d="M 10.6875 12.40625 
L 21 12.40625 
L 21 0 
L 10.6875 0 
z
" id="DejaVuSans-46"/>
      </defs>
      <g transform="translate(22.245938 233.394187)scale(0.088 -0.088)">
       <use xlink:href="#DejaVuSans-8722"/>
       <use x="83.789062" xlink:href="#DejaVuSans-48"/>
       <use x="147.412109" xlink:href="#DejaVuSans-46"/>
       <use x="179.199219" xlink:href="#DejaVuSans-53"/>
      </g>
     </g>
    </g>
    <g id="ytick_3">
     <g id="line2d_21">
      <path clip-path="url(#p701aff15b4)" d="M 48.564813 180.565937 
L 494.964812 180.565937 
" style="fill:none;stroke:#e5e5e5;stroke-width:0.8;"/>
     </g>
     <g id="line2d_22">
      <path d="M 48.564813 180.565937 
" style="fill:none;stroke:#000000;stroke-width:1.5;"/>
      <g>
       <use style="stroke:#000000;" x="48.564813" xlink:href="#m21b9558ee5" y="180.565937"/>
      </g>
     </g>
     <g id="text_8">
      <!-- 0 -->
      <g transform="translate(38.015813 182.994187)scale(0.088 -0.088)">
       <use xlink:href="#DejaVuSans-48"/>
      </g>
     </g>
    </g>
    <g id="ytick_4">
     <g id="line2d_23">
      <path clip-path="url(#p701aff15b4)" d="M 48.564813 130.165937 
L 494.964812 130.165937 
" style="fill:none;stroke:#e5e5e5;stroke-width:0.8;"/>
     </g>
     <g id="line2d_24">
      <path d="M 48.564813 130.165937 
" style="fill:none;stroke:#000000;stroke-width:1.5;"/>
      <g>
       <use style="stroke:#000000;" x="48.564813" xlink:href="#m21b9558ee5" y="130.165937"/>
      </g>
     </g>
     <g id="text_9">
      <!-- 0.5 -->
      <g transform="translate(29.620063 132.594187)scale(0.088 -0.088)">
       <use xlink:href="#DejaVuSans-48"/>
       <use x="63.623047" xlink:href="#DejaVuSans-46"/>
       <use x="95.410156" xlink:href="#DejaVuSans-53"/>
      </g>
     </g>
    </g>
    <g id="ytick_5">
     <g id="line2d_25">
      <path clip-path="url(#p701aff15b4)" d="M 48.564813 79.765937 
L 494.964812 79.765937 
" style="fill:none;stroke:#e5e5e5;stroke-width:0.8;"/>
     </g>
     <g id="line2d_26">
      <path d="M 48.564813 79.765937 
" style="fill:none;stroke:#000000;stroke-width:1.5;"/>
      <g>
       <use style="stroke:#000000;" x="48.564813" xlink:href="#m21b9558ee5" y="79.765937"/>
      </g>
     </g>
     <g id="text_10">
      <!-- 1 -->
      <g transform="translate(38.015813 82.194187)scale(0.088 -0.088)">
       <use xlink:href="#DejaVuSans-49"/>
      </g>
     </g>
    </g>
    <g id="ytick_6">
     <g id="line2d_27">
      <path clip-path="url(#p701aff15b4)" d="M 48.564813 256.165937 
L 494.964812 256.165937 
" style="fill:none;stroke:#fafafa;"/>
     </g>
     <g id="line2d_28">
      <path d="M 48.564813 256.165937 
" style="fill:none;stroke:#000000;stroke-width:1.5;"/>
      <defs>
       <path d="M 0 0 
L -1.375 0 
" id="m0919e031a8" style="stroke:#000000;"/>
      </defs>
      <g>
       <use style="stroke:#000000;" x="48.564813" xlink:href="#m0919e031a8" y="256.165937"/>
      </g>
     </g>
    </g>
    <g id="ytick_7">
     <g id="line2d_29">
      <path clip-path="url(#p701aff15b4)" d="M 48.564813 205.765937 
L 494.964812 205.765937 
" style="fill:none;stroke:#fafafa;"/>
     </g>
     <g id="line2d_30">
      <path d="M 48.564813 205.765937 
" style="fill:none;stroke:#000000;stroke-width:1.5;"/>
      <g>
       <use style="stroke:#000000;" x="48.564813" xlink:href="#m0919e031a8" y="205.765937"/>
      </g>
     </g>
    </g>
    <g id="ytick_8">
     <g id="line2d_31">
      <path clip-path="url(#p701aff15b4)" d="M 48.564813 155.365937 
L 494.964812 155.365937 
" style="fill:none;stroke:#fafafa;"/>
     </g>
     <g id="line2d_32">
      <path d="M 48.564813 155.365937 
" style="fill:none;stroke:#000000;stroke-width:1.5;"/>
      <g>
       <use style="stroke:#000000;" x="48.564813" xlink:href="#m0919e031a8" y="155.365937"/>
      </g>
     </g>
    </g>
    <g id="ytick_9">
     <g id="line2d_33">
      <path clip-path="url(#p701aff15b4)" d="M 48.564813 104.965937 
L 494.964812 104.965937 
" style="fill:none;stroke:#fafafa;"/>
     </g>
     <g id="line2d_34">
      <path d="M 48.564813 104.965937 
" style="fill:none;stroke:#000000;stroke-width:1.5;"/>
      <g>
       <use style="stroke:#000000;" x="48.564813" xlink:href="#m0919e031a8" y="104.965937"/>
      </g>
     </g>
    </g>
    <g id="text_11">
     <!-- Spearman's rank correlation -->
     <defs>
      <path d="M 53.515625 70.515625 
L 53.515625 60.890625 
Q 47.90625 63.578125 42.921875 64.890625 
Q 37.9375 66.21875 33.296875 66.21875 
Q 25.25 66.21875 20.875 63.09375 
Q 16.5 59.96875 16.5 54.203125 
Q 16.5 49.359375 19.40625 46.890625 
Q 22.3125 44.4375 30.421875 42.921875 
L 36.375 41.703125 
Q 47.40625 39.59375 52.65625 34.296875 
Q 57.90625 29 57.90625 20.125 
Q 57.90625 9.515625 50.796875 4.046875 
Q 43.703125 -1.421875 29.984375 -1.421875 
Q 24.8125 -1.421875 18.96875 -0.25 
Q 13.140625 0.921875 6.890625 3.21875 
L 6.890625 13.375 
Q 12.890625 10.015625 18.65625 8.296875 
Q 24.421875 6.59375 29.984375 6.59375 
Q 38.421875 6.59375 43.015625 9.90625 
Q 47.609375 13.234375 47.609375 19.390625 
Q 47.609375 24.75 44.3125 27.78125 
Q 41.015625 30.8125 33.5 32.328125 
L 27.484375 33.5 
Q 16.453125 35.6875 11.515625 40.375 
Q 6.59375 45.0625 6.59375 53.421875 
Q 6.59375 63.09375 13.40625 68.65625 
Q 20.21875 74.21875 32.171875 74.21875 
Q 37.3125 74.21875 42.625 73.28125 
Q 47.953125 72.359375 53.515625 70.515625 
z
" id="DejaVuSans-83"/>
      <path d="M 18.109375 8.203125 
L 18.109375 -20.796875 
L 9.078125 -20.796875 
L 9.078125 54.6875 
L 18.109375 54.6875 
L 18.109375 46.390625 
Q 20.953125 51.265625 25.265625 53.625 
Q 29.59375 56 35.59375 56 
Q 45.5625 56 51.78125 48.09375 
Q 58.015625 40.1875 58.015625 27.296875 
Q 58.015625 14.40625 51.78125 6.484375 
Q 45.5625 -1.421875 35.59375 -1.421875 
Q 29.59375 -1.421875 25.265625 0.953125 
Q 20.953125 3.328125 18.109375 8.203125 
z
M 48.6875 27.296875 
Q 48.6875 37.203125 44.609375 42.84375 
Q 40.53125 48.484375 33.40625 48.484375 
Q 26.265625 48.484375 22.1875 42.84375 
Q 18.109375 37.203125 18.109375 27.296875 
Q 18.109375 17.390625 22.1875 11.75 
Q 26.265625 6.109375 33.40625 6.109375 
Q 40.53125 6.109375 44.609375 11.75 
Q 48.6875 17.390625 48.6875 27.296875 
z
" id="DejaVuSans-112"/>
      <path d="M 52 44.1875 
Q 55.375 50.25 60.0625 53.125 
Q 64.75 56 71.09375 56 
Q 79.640625 56 84.28125 50.015625 
Q 88.921875 44.046875 88.921875 33.015625 
L 88.921875 0 
L 79.890625 0 
L 79.890625 32.71875 
Q 79.890625 40.578125 77.09375 44.375 
Q 74.3125 48.1875 68.609375 48.1875 
Q 61.625 48.1875 57.5625 43.546875 
Q 53.515625 38.921875 53.515625 30.90625 
L 53.515625 0 
L 44.484375 0 
L 44.484375 32.71875 
Q 44.484375 40.625 41.703125 44.40625 
Q 38.921875 48.1875 33.109375 48.1875 
Q 26.21875 48.1875 22.15625 43.53125 
Q 18.109375 38.875 18.109375 30.90625 
L 18.109375 0 
L 9.078125 0 
L 9.078125 54.6875 
L 18.109375 54.6875 
L 18.109375 46.1875 
Q 21.1875 51.21875 25.484375 53.609375 
Q 29.78125 56 35.6875 56 
Q 41.65625 56 45.828125 52.96875 
Q 50 49.953125 52 44.1875 
z
" id="DejaVuSans-109"/>
      <path d="M 54.890625 33.015625 
L 54.890625 0 
L 45.90625 0 
L 45.90625 32.71875 
Q 45.90625 40.484375 42.875 44.328125 
Q 39.84375 48.1875 33.796875 48.1875 
Q 26.515625 48.1875 22.3125 43.546875 
Q 18.109375 38.921875 18.109375 30.90625 
L 18.109375 0 
L 9.078125 0 
L 9.078125 54.6875 
L 18.109375 54.6875 
L 18.109375 46.1875 
Q 21.34375 51.125 25.703125 53.5625 
Q 30.078125 56 35.796875 56 
Q 45.21875 56 50.046875 50.171875 
Q 54.890625 44.34375 54.890625 33.015625 
z
" id="DejaVuSans-110"/>
      <path d="M 17.921875 72.90625 
L 17.921875 45.796875 
L 9.625 45.796875 
L 9.625 72.90625 
z
" id="DejaVuSans-39"/>
      <path d="M 44.28125 53.078125 
L 44.28125 44.578125 
Q 40.484375 46.53125 36.375 47.5 
Q 32.28125 48.484375 27.875 48.484375 
Q 21.1875 48.484375 17.84375 46.4375 
Q 14.5 44.390625 14.5 40.28125 
Q 14.5 37.15625 16.890625 35.375 
Q 19.28125 33.59375 26.515625 31.984375 
L 29.59375 31.296875 
Q 39.15625 29.25 43.1875 25.515625 
Q 47.21875 21.78125 47.21875 15.09375 
Q 47.21875 7.46875 41.1875 3.015625 
Q 35.15625 -1.421875 24.609375 -1.421875 
Q 20.21875 -1.421875 15.453125 -0.5625 
Q 10.6875 0.296875 5.421875 2 
L 5.421875 11.28125 
Q 10.40625 8.6875 15.234375 7.390625 
Q 20.0625 6.109375 24.8125 6.109375 
Q 31.15625 6.109375 34.5625 8.28125 
Q 37.984375 10.453125 37.984375 14.40625 
Q 37.984375 18.0625 35.515625 20.015625 
Q 33.0625 21.96875 24.703125 23.78125 
L 21.578125 24.515625 
Q 13.234375 26.265625 9.515625 29.90625 
Q 5.8125 33.546875 5.8125 39.890625 
Q 5.8125 47.609375 11.28125 51.796875 
Q 16.75 56 26.8125 56 
Q 31.78125 56 36.171875 55.265625 
Q 40.578125 54.546875 44.28125 53.078125 
z
" id="DejaVuSans-115"/>
      <path id="DejaVuSans-32"/>
      <path d="M 9.078125 75.984375 
L 18.109375 75.984375 
L 18.109375 31.109375 
L 44.921875 54.6875 
L 56.390625 54.6875 
L 27.390625 29.109375 
L 57.625 0 
L 45.90625 0 
L 18.109375 26.703125 
L 18.109375 0 
L 9.078125 0 
z
" id="DejaVuSans-107"/>
      <path d="M 48.78125 52.59375 
L 48.78125 44.1875 
Q 44.96875 46.296875 41.140625 47.34375 
Q 37.3125 48.390625 33.40625 48.390625 
Q 24.65625 48.390625 19.8125 42.84375 
Q 14.984375 37.3125 14.984375 27.296875 
Q 14.984375 17.28125 19.8125 11.734375 
Q 24.65625 6.203125 33.40625 6.203125 
Q 37.3125 6.203125 41.140625 7.25 
Q 44.96875 8.296875 48.78125 10.40625 
L 48.78125 2.09375 
Q 45.015625 0.34375 40.984375 -0.53125 
Q 36.96875 -1.421875 32.421875 -1.421875 
Q 20.0625 -1.421875 12.78125 6.34375 
Q 5.515625 14.109375 5.515625 27.296875 
Q 5.515625 40.671875 12.859375 48.328125 
Q 20.21875 56 33.015625 56 
Q 37.15625 56 41.109375 55.140625 
Q 45.0625 54.296875 48.78125 52.59375 
z
" id="DejaVuSans-99"/>
      <path d="M 30.609375 48.390625 
Q 23.390625 48.390625 19.1875 42.75 
Q 14.984375 37.109375 14.984375 27.296875 
Q 14.984375 17.484375 19.15625 11.84375 
Q 23.34375 6.203125 30.609375 6.203125 
Q 37.796875 6.203125 41.984375 11.859375 
Q 46.1875 17.53125 46.1875 27.296875 
Q 46.1875 37.015625 41.984375 42.703125 
Q 37.796875 48.390625 30.609375 48.390625 
z
M 30.609375 56 
Q 42.328125 56 49.015625 48.375 
Q 55.71875 40.765625 55.71875 27.296875 
Q 55.71875 13.875 49.015625 6.21875 
Q 42.328125 -1.421875 30.609375 -1.421875 
Q 18.84375 -1.421875 12.171875 6.21875 
Q 5.515625 13.875 5.515625 27.296875 
Q 5.515625 40.765625 12.171875 48.375 
Q 18.84375 56 30.609375 56 
z
" id="DejaVuSans-111"/>
      <path d="M 9.421875 75.984375 
L 18.40625 75.984375 
L 18.40625 0 
L 9.421875 0 
z
" id="DejaVuSans-108"/>
      <path d="M 18.3125 70.21875 
L 18.3125 54.6875 
L 36.8125 54.6875 
L 36.8125 47.703125 
L 18.3125 47.703125 
L 18.3125 18.015625 
Q 18.3125 11.328125 20.140625 9.421875 
Q 21.96875 7.515625 27.59375 7.515625 
L 36.8125 7.515625 
L 36.8125 0 
L 27.59375 0 
Q 17.1875 0 13.234375 3.875 
Q 9.28125 7.765625 9.28125 18.015625 
L 9.28125 47.703125 
L 2.6875 47.703125 
L 2.6875 54.6875 
L 9.28125 54.6875 
L 9.28125 70.21875 
z
" id="DejaVuSans-116"/>
      <path d="M 9.421875 54.6875 
L 18.40625 54.6875 
L 18.40625 0 
L 9.421875 0 
z
M 9.421875 75.984375 
L 18.40625 75.984375 
L 18.40625 64.59375 
L 9.421875 64.59375 
z
" id="DejaVuSans-105"/>
     </defs>
     <g transform="translate(15.558281 257.238828)rotate(-90)scale(0.11 -0.11)">
      <use xlink:href="#DejaVuSans-83"/>
      <use x="63.476562" xlink:href="#DejaVuSans-112"/>
      <use x="126.953125" xlink:href="#DejaVuSans-101"/>
      <use x="188.476562" xlink:href="#DejaVuSans-97"/>
      <use x="249.755859" xlink:href="#DejaVuSans-114"/>
      <use x="290.853516" xlink:href="#DejaVuSans-109"/>
      <use x="388.265625" xlink:href="#DejaVuSans-97"/>
      <use x="449.544922" xlink:href="#DejaVuSans-110"/>
      <use x="512.923828" xlink:href="#DejaVuSans-39"/>
      <use x="540.414062" xlink:href="#DejaVuSans-115"/>
      <use x="592.513672" xlink:href="#DejaVuSans-32"/>
      <use x="624.300781" xlink:href="#DejaVuSans-114"/>
      <use x="665.414062" xlink:href="#DejaVuSans-97"/>
      <use x="726.693359" xlink:href="#DejaVuSans-110"/>
      <use x="790.072266" xlink:href="#DejaVuSans-107"/>
      <use x="847.982422" xlink:href="#DejaVuSans-32"/>
      <use x="879.769531" xlink:href="#DejaVuSans-99"/>
      <use x="934.75" xlink:href="#DejaVuSans-111"/>
      <use x="995.931641" xlink:href="#DejaVuSans-114"/>
      <use x="1037.029297" xlink:href="#DejaVuSans-114"/>
      <use x="1078.111328" xlink:href="#DejaVuSans-101"/>
      <use x="1139.634766" xlink:href="#DejaVuSans-108"/>
      <use x="1167.417969" xlink:href="#DejaVuSans-97"/>
      <use x="1228.697266" xlink:href="#DejaVuSans-116"/>
      <use x="1267.90625" xlink:href="#DejaVuSans-105"/>
      <use x="1295.689453" xlink:href="#DejaVuSans-111"/>
      <use x="1356.871094" xlink:href="#DejaVuSans-110"/>
     </g>
    </g>
   </g>
   <g id="PathCollection_1">
    <path clip-path="url(#p701aff15b4)" d="M 68.855722 220.357606 
C 69.325782 220.357606 69.776653 220.170849 70.109036 219.838466 
C 70.441419 219.506083 70.628175 219.055212 70.628175 218.585152 
C 70.628175 218.115092 70.441419 217.664221 70.109036 217.331838 
C 69.776653 216.999455 69.325782 216.812698 68.855722 216.812698 
C 68.385661 216.812698 67.93479 216.999455 67.602407 217.331838 
C 67.270025 217.664221 67.083268 218.115092 67.083268 218.585152 
C 67.083268 219.055212 67.270025 219.506083 67.602407 219.838466 
C 67.93479 220.170849 68.385661 220.357606 68.855722 220.357606 
z
" style="fill:#4ab668;stroke:#4ab668;stroke-width:0.886227;"/>
    <path clip-path="url(#p701aff15b4)" d="M 68.855722 212.680967 
C 69.325782 212.680967 69.776653 212.49421 70.109036 212.161827 
C 70.441419 211.829445 70.628175 211.378574 70.628175 210.908513 
C 70.628175 210.438453 70.441419 209.987582 70.109036 209.655199 
C 69.776653 209.322816 69.325782 209.136059 68.855722 209.136059 
C 68.385661 209.136059 67.93479 209.322816 67.602407 209.655199 
C 67.270025 209.987582 67.083268 210.438453 67.083268 210.908513 
C 67.083268 211.378574 67.270025 211.829445 67.602407 212.161827 
C 67.93479 212.49421 68.385661 212.680967 68.855722 212.680967 
z
" style="fill:#0091cc;stroke:#0091cc;stroke-width:0.886227;"/>
    <path clip-path="url(#p701aff15b4)" d="M 90.214573 234.962521 
C 90.684634 234.962521 91.135505 234.775764 91.467887 234.443381 
C 91.80027 234.110998 91.987027 233.660127 91.987027 233.190067 
C 91.987027 232.720007 91.80027 232.269136 91.467887 231.936753 
C 91.135505 231.60437 90.684634 231.417613 90.214573 231.417613 
C 89.744513 231.417613 89.293642 231.60437 88.961259 231.936753 
C 88.628876 232.269136 88.442119 232.720007 88.442119 233.190067 
C 88.442119 233.660127 88.628876 234.110998 88.961259 234.443381 
C 89.293642 234.775764 89.744513 234.962521 90.214573 234.962521 
z
" style="fill:#4ab668;stroke:#4ab668;stroke-width:0.886227;"/>
    <path clip-path="url(#p701aff15b4)" d="M 90.214573 230.922359 
C 90.684634 230.922359 91.135505 230.735602 91.467887 230.403219 
C 91.80027 230.070836 91.987027 229.619965 91.987027 229.149905 
C 91.987027 228.679845 91.80027 228.228974 91.467887 227.896591 
C 91.135505 227.564208 90.684634 227.377451 90.214573 227.377451 
C 89.744513 227.377451 89.293642 227.564208 88.961259 227.896591 
C 88.628876 228.228974 88.442119 228.679845 88.442119 229.149905 
C 88.442119 229.619965 88.628876 230.070836 88.961259 230.403219 
C 89.293642 230.735602 89.744513 230.922359 90.214573 230.922359 
z
" style="fill:#0091cc;stroke:#0091cc;stroke-width:0.886227;"/>
    <path clip-path="url(#p701aff15b4)" d="M 111.573425 202.100538 
C 112.043485 202.100538 112.494356 201.913781 112.826739 201.581398 
C 113.159122 201.249015 113.345879 200.798144 113.345879 200.328084 
C 113.345879 199.858023 113.159122 199.407152 112.826739 199.07477 
C 112.494356 198.742387 112.043485 198.55563 111.573425 198.55563 
C 111.103365 198.55563 110.652494 198.742387 110.320111 199.07477 
C 109.987728 199.407152 109.800971 199.858023 109.800971 200.328084 
C 109.800971 200.798144 109.987728 201.249015 110.320111 201.581398 
C 110.652494 201.913781 111.103365 202.100538 111.573425 202.100538 
z
" style="fill:#4ab668;stroke:#4ab668;stroke-width:0.886227;"/>
    <path clip-path="url(#p701aff15b4)" d="M 111.573425 194.789973 
C 112.043485 194.789973 112.494356 194.603216 112.826739 194.270834 
C 113.159122 193.938451 113.345879 193.48758 113.345879 193.017519 
C 113.345879 192.547459 113.159122 192.096588 112.826739 191.764205 
C 112.494356 191.431822 112.043485 191.245066 111.573425 191.245066 
C 111.103365 191.245066 110.652494 191.431822 110.320111 191.764205 
C 109.987728 192.096588 109.800971 192.547459 109.800971 193.017519 
C 109.800971 193.48758 109.987728 193.938451 110.320111 194.270834 
C 110.652494 194.603216 111.103365 194.789973 111.573425 194.789973 
z
" style="fill:#0091cc;stroke:#0091cc;stroke-width:0.886227;"/>
    <path clip-path="url(#p701aff15b4)" d="M 132.932277 229.738946 
C 133.402337 229.738946 133.853208 229.552189 134.185591 229.219807 
C 134.517974 228.887424 134.70473 228.436553 134.70473 227.966493 
C 134.70473 227.496432 134.517974 227.045561 134.185591 226.713178 
C 133.853208 226.380796 133.402337 226.194039 132.932277 226.194039 
C 132.462216 226.194039 132.011345 226.380796 131.678962 226.713178 
C 131.34658 227.045561 131.159823 227.496432 131.159823 227.966493 
C 131.159823 228.436553 131.34658 228.887424 131.678962 229.219807 
C 132.011345 229.552189 132.462216 229.738946 132.932277 229.738946 
z
" style="fill:#4ab668;stroke:#4ab668;stroke-width:0.886227;"/>
    <path clip-path="url(#p701aff15b4)" d="M 132.932277 220.12829 
C 133.402337 220.12829 133.853208 219.941533 134.185591 219.60915 
C 134.517974 219.276767 134.70473 218.825896 134.70473 218.355836 
C 134.70473 217.885775 134.517974 217.434904 134.185591 217.102522 
C 133.853208 216.770139 133.402337 216.583382 132.932277 216.583382 
C 132.462216 216.583382 132.011345 216.770139 131.678962 217.102522 
C 131.34658 217.434904 131.159823 217.885775 131.159823 218.355836 
C 131.159823 218.825896 131.34658 219.276767 131.678962 219.60915 
C 132.011345 219.941533 132.462216 220.12829 132.932277 220.12829 
z
" style="fill:#0091cc;stroke:#0091cc;stroke-width:0.886227;"/>
    <path clip-path="url(#p701aff15b4)" d="M 154.291128 231.32241 
C 154.761189 231.32241 155.21206 231.135653 155.544442 230.80327 
C 155.876825 230.470887 156.063582 230.020016 156.063582 229.549956 
C 156.063582 229.079895 155.876825 228.629024 155.544442 228.296642 
C 155.21206 227.964259 154.761189 227.777502 154.291128 227.777502 
C 153.821068 227.777502 153.370197 227.964259 153.037814 228.296642 
C 152.705431 228.629024 152.518674 229.079895 152.518674 229.549956 
C 152.518674 230.020016 152.705431 230.470887 153.037814 230.80327 
C 153.370197 231.135653 153.821068 231.32241 154.291128 231.32241 
z
" style="fill:#4ab668;stroke:#4ab668;stroke-width:0.886227;"/>
    <path clip-path="url(#p701aff15b4)" d="M 154.291128 222.502668 
C 154.761189 222.502668 155.21206 222.315911 155.544442 221.983528 
C 155.876825 221.651145 156.063582 221.200274 156.063582 220.730214 
C 156.063582 220.260154 155.876825 219.809283 155.544442 219.4769 
C 155.21206 219.144517 154.761189 218.95776 154.291128 218.95776 
C 153.821068 218.95776 153.370197 219.144517 153.037814 219.4769 
C 152.705431 219.809283 152.518674 220.260154 152.518674 220.730214 
C 152.518674 221.200274 152.705431 221.651145 153.037814 221.983528 
C 153.370197 222.315911 153.821068 222.502668 154.291128 222.502668 
z
" style="fill:#0091cc;stroke:#0091cc;stroke-width:0.886227;"/>
    <path clip-path="url(#p701aff15b4)" d="M 175.64998 214.53703 
C 176.12004 214.53703 176.570911 214.350273 176.903294 214.01789 
C 177.235677 213.685507 177.422434 213.234636 177.422434 212.764576 
C 177.422434 212.294516 177.235677 211.843645 176.903294 211.511262 
C 176.570911 211.178879 176.12004 210.992122 175.64998 210.992122 
C 175.17992 210.992122 174.729049 211.178879 174.396666 211.511262 
C 174.064283 211.843645 173.877526 212.294516 173.877526 212.764576 
C 173.877526 213.234636 174.064283 213.685507 174.396666 214.01789 
C 174.729049 214.350273 175.17992 214.53703 175.64998 214.53703 
z
" style="fill:#4ab668;stroke:#4ab668;stroke-width:0.886227;"/>
    <path clip-path="url(#p701aff15b4)" d="M 175.64998 210.531806 
C 176.12004 210.531806 176.570911 210.345049 176.903294 210.012666 
C 177.235677 209.680284 177.422434 209.229412 177.422434 208.759352 
C 177.422434 208.289292 177.235677 207.838421 176.903294 207.506038 
C 176.570911 207.173655 176.12004 206.986898 175.64998 206.986898 
C 175.17992 206.986898 174.729049 207.173655 174.396666 207.506038 
C 174.064283 207.838421 173.877526 208.289292 173.877526 208.759352 
C 173.877526 209.229412 174.064283 209.680284 174.396666 210.012666 
C 174.729049 210.345049 175.17992 210.531806 175.64998 210.531806 
z
" style="fill:#0091cc;stroke:#0091cc;stroke-width:0.886227;"/>
    <path clip-path="url(#p701aff15b4)" d="M 197.008832 203.048097 
C 197.478892 203.048097 197.929763 202.86134 198.262146 202.528957 
C 198.594529 202.196575 198.781285 201.745704 198.781285 201.275643 
C 198.781285 200.805583 198.594529 200.354712 198.262146 200.022329 
C 197.929763 199.689946 197.478892 199.503189 197.008832 199.503189 
C 196.538771 199.503189 196.0879 199.689946 195.755518 200.022329 
C 195.423135 200.354712 195.236378 200.805583 195.236378 201.275643 
C 195.236378 201.745704 195.423135 202.196575 195.755518 202.528957 
C 196.0879 202.86134 196.538771 203.048097 197.008832 203.048097 
z
" style="fill:#4ab668;stroke:#4ab668;stroke-width:0.886227;"/>
    <path clip-path="url(#p701aff15b4)" d="M 197.008832 205.711194 
C 197.478892 205.711194 197.929763 205.524438 198.262146 205.192055 
C 198.594529 204.859672 198.781285 204.408801 198.781285 203.938741 
C 198.781285 203.46868 198.594529 203.017809 198.262146 202.685426 
C 197.929763 202.353044 197.478892 202.166287 197.008832 202.166287 
C 196.538771 202.166287 196.0879 202.353044 195.755518 202.685426 
C 195.423135 203.017809 195.236378 203.46868 195.236378 203.938741 
C 195.236378 204.408801 195.423135 204.859672 195.755518 205.192055 
C 196.0879 205.524438 196.538771 205.711194 197.008832 205.711194 
z
" style="fill:#0091cc;stroke:#0091cc;stroke-width:0.886227;"/>
    <path clip-path="url(#p701aff15b4)" d="M 218.367683 187.69855 
C 218.837744 187.69855 219.288615 187.511793 219.620997 187.179411 
C 219.95338 186.847028 220.140137 186.396157 220.140137 185.926096 
C 220.140137 185.456036 219.95338 185.005165 219.620997 184.672782 
C 219.288615 184.340399 218.837744 184.153643 218.367683 184.153643 
C 217.897623 184.153643 217.446752 184.340399 217.114369 184.672782 
C 216.781986 185.005165 216.595229 185.456036 216.595229 185.926096 
C 216.595229 186.396157 216.781986 186.847028 217.114369 187.179411 
C 217.446752 187.511793 217.897623 187.69855 218.367683 187.69855 
z
" style="fill:#4ab668;stroke:#4ab668;stroke-width:0.886227;"/>
    <path clip-path="url(#p701aff15b4)" d="M 218.367683 187.35493 
C 218.837744 187.35493 219.288615 187.168173 219.620997 186.83579 
C 219.95338 186.503407 220.140137 186.052536 220.140137 185.582476 
C 220.140137 185.112415 219.95338 184.661544 219.620997 184.329162 
C 219.288615 183.996779 218.837744 183.810022 218.367683 183.810022 
C 217.897623 183.810022 217.446752 183.996779 217.114369 184.329162 
C 216.781986 184.661544 216.595229 185.112415 216.595229 185.582476 
C 216.595229 186.052536 216.781986 186.503407 217.114369 186.83579 
C 217.446752 187.168173 217.897623 187.35493 218.367683 187.35493 
z
" style="fill:#0091cc;stroke:#0091cc;stroke-width:0.886227;"/>
    <path clip-path="url(#p701aff15b4)" d="M 239.726535 200.534201 
C 240.196595 200.534201 240.647466 200.347444 240.979849 200.015061 
C 241.312232 199.682678 241.498989 199.231807 241.498989 198.761747 
C 241.498989 198.291687 241.312232 197.840816 240.979849 197.508433 
C 240.647466 197.17605 240.196595 196.989293 239.726535 196.989293 
C 239.256475 196.989293 238.805604 197.17605 238.473221 197.508433 
C 238.140838 197.840816 237.954081 198.291687 237.954081 198.761747 
C 237.954081 199.231807 238.140838 199.682678 238.473221 200.015061 
C 238.805604 200.347444 239.256475 200.534201 239.726535 200.534201 
z
" style="fill:#4ab668;stroke:#4ab668;stroke-width:0.886227;"/>
    <path clip-path="url(#p701aff15b4)" d="M 239.726535 198.357375 
C 240.196595 198.357375 240.647466 198.170618 240.979849 197.838235 
C 241.312232 197.505852 241.498989 197.054981 241.498989 196.584921 
C 241.498989 196.11486 241.312232 195.663989 240.979849 195.331607 
C 240.647466 194.999224 240.196595 194.812467 239.726535 194.812467 
C 239.256475 194.812467 238.805604 194.999224 238.473221 195.331607 
C 238.140838 195.663989 237.954081 196.11486 237.954081 196.584921 
C 237.954081 197.054981 238.140838 197.505852 238.473221 197.838235 
C 238.805604 198.170618 239.256475 198.357375 239.726535 198.357375 
z
" style="fill:#0091cc;stroke:#0091cc;stroke-width:0.886227;"/>
    <path clip-path="url(#p701aff15b4)" d="M 261.085387 192.62734 
C 261.555447 192.62734 262.006318 192.440583 262.338701 192.1082 
C 262.671084 191.775817 262.857841 191.324946 262.857841 190.854886 
C 262.857841 190.384826 262.671084 189.933955 262.338701 189.601572 
C 262.006318 189.269189 261.555447 189.082432 261.085387 189.082432 
C 260.615326 189.082432 260.164455 189.269189 259.832073 189.601572 
C 259.49969 189.933955 259.312933 190.384826 259.312933 190.854886 
C 259.312933 191.324946 259.49969 191.775817 259.832073 192.1082 
C 260.164455 192.440583 260.615326 192.62734 261.085387 192.62734 
z
" style="fill:#4ab668;stroke:#4ab668;stroke-width:0.886227;"/>
    <path clip-path="url(#p701aff15b4)" d="M 261.085387 192.774325 
C 261.555447 192.774325 262.006318 192.587568 262.338701 192.255185 
C 262.671084 191.922802 262.857841 191.471931 262.857841 191.001871 
C 262.857841 190.531811 262.671084 190.08094 262.338701 189.748557 
C 262.006318 189.416174 261.555447 189.229417 261.085387 189.229417 
C 260.615326 189.229417 260.164455 189.416174 259.832073 189.748557 
C 259.49969 190.08094 259.312933 190.531811 259.312933 191.001871 
C 259.312933 191.471931 259.49969 191.922802 259.832073 192.255185 
C 260.164455 192.587568 260.615326 192.774325 261.085387 192.774325 
z
" style="fill:#0091cc;stroke:#0091cc;stroke-width:0.886227;"/>
    <path clip-path="url(#p701aff15b4)" d="M 282.444238 194.333307 
C 282.914299 194.333307 283.36517 194.146551 283.697552 193.814168 
C 284.029935 193.481785 284.216692 193.030914 284.216692 192.560854 
C 284.216692 192.090793 284.029935 191.639922 283.697552 191.307539 
C 283.36517 190.975157 282.914299 190.7884 282.444238 190.7884 
C 281.974178 190.7884 281.523307 190.975157 281.190924 191.307539 
C 280.858541 191.639922 280.671784 192.090793 280.671784 192.560854 
C 280.671784 193.030914 280.858541 193.481785 281.190924 193.814168 
C 281.523307 194.146551 281.974178 194.333307 282.444238 194.333307 
z
" style="fill:#4ab668;stroke:#4ab668;stroke-width:0.886227;"/>
    <path clip-path="url(#p701aff15b4)" d="M 282.444238 194.617594 
C 282.914299 194.617594 283.36517 194.430838 283.697552 194.098455 
C 284.029935 193.766072 284.216692 193.315201 284.216692 192.845141 
C 284.216692 192.37508 284.029935 191.924209 283.697552 191.591826 
C 283.36517 191.259444 282.914299 191.072687 282.444238 191.072687 
C 281.974178 191.072687 281.523307 191.259444 281.190924 191.591826 
C 280.858541 191.924209 280.671784 192.37508 280.671784 192.845141 
C 280.671784 193.315201 280.858541 193.766072 281.190924 194.098455 
C 281.523307 194.430838 281.974178 194.617594 282.444238 194.617594 
z
" style="fill:#0091cc;stroke:#0091cc;stroke-width:0.886227;"/>
    <path clip-path="url(#p701aff15b4)" d="M 303.80309 203.961208 
C 304.27315 203.961208 304.724021 203.774451 305.056404 203.442068 
C 305.388787 203.109685 305.575544 202.658814 305.575544 202.188754 
C 305.575544 201.718694 305.388787 201.267823 305.056404 200.93544 
C 304.724021 200.603057 304.27315 200.4163 303.80309 200.4163 
C 303.33303 200.4163 302.882159 200.603057 302.549776 200.93544 
C 302.217393 201.267823 302.030636 201.718694 302.030636 202.188754 
C 302.030636 202.658814 302.217393 203.109685 302.549776 203.442068 
C 302.882159 203.774451 303.33303 203.961208 303.80309 203.961208 
z
" style="fill:#4ab668;stroke:#4ab668;stroke-width:0.886227;"/>
    <path clip-path="url(#p701aff15b4)" d="M 303.80309 202.932866 
C 304.27315 202.932866 304.724021 202.746109 305.056404 202.413726 
C 305.388787 202.081343 305.575544 201.630472 305.575544 201.160412 
C 305.575544 200.690352 305.388787 200.239481 305.056404 199.907098 
C 304.724021 199.574715 304.27315 199.387958 303.80309 199.387958 
C 303.33303 199.387958 302.882159 199.574715 302.549776 199.907098 
C 302.217393 200.239481 302.030636 200.690352 302.030636 201.160412 
C 302.030636 201.630472 302.217393 202.081343 302.549776 202.413726 
C 302.882159 202.746109 303.33303 202.932866 303.80309 202.932866 
z
" style="fill:#0091cc;stroke:#0091cc;stroke-width:0.886227;"/>
    <path clip-path="url(#p701aff15b4)" d="M 325.161942 193.739597 
C 325.632002 193.739597 326.082873 193.55284 326.415256 193.220457 
C 326.747639 192.888074 326.934396 192.437203 326.934396 191.967143 
C 326.934396 191.497083 326.747639 191.046211 326.415256 190.713829 
C 326.082873 190.381446 325.632002 190.194689 325.161942 190.194689 
C 324.691881 190.194689 324.24101 190.381446 323.908628 190.713829 
C 323.576245 191.046211 323.389488 191.497083 323.389488 191.967143 
C 323.389488 192.437203 323.576245 192.888074 323.908628 193.220457 
C 324.24101 193.55284 324.691881 193.739597 325.161942 193.739597 
z
" style="fill:#4ab668;stroke:#4ab668;stroke-width:0.886227;"/>
    <path clip-path="url(#p701aff15b4)" d="M 325.161942 193.671667 
C 325.632002 193.671667 326.082873 193.48491 326.415256 193.152527 
C 326.747639 192.820144 326.934396 192.369273 326.934396 191.899213 
C 326.934396 191.429153 326.747639 190.978282 326.415256 190.645899 
C 326.082873 190.313516 325.632002 190.126759 325.161942 190.126759 
C 324.691881 190.126759 324.24101 190.313516 323.908628 190.645899 
C 323.576245 190.978282 323.389488 191.429153 323.389488 191.899213 
C 323.389488 192.369273 323.576245 192.820144 323.908628 193.152527 
C 324.24101 193.48491 324.691881 193.671667 325.161942 193.671667 
z
" style="fill:#0091cc;stroke:#0091cc;stroke-width:0.886227;"/>
    <path clip-path="url(#p701aff15b4)" d="M 346.520793 191.323791 
C 346.990854 191.323791 347.441725 191.137034 347.774107 190.804651 
C 348.10649 190.472268 348.293247 190.021397 348.293247 189.551337 
C 348.293247 189.081277 348.10649 188.630405 347.774107 188.298023 
C 347.441725 187.96564 346.990854 187.778883 346.520793 187.778883 
C 346.050733 187.778883 345.599862 187.96564 345.267479 188.298023 
C 344.935096 188.630405 344.74834 189.081277 344.74834 189.551337 
C 344.74834 190.021397 344.935096 190.472268 345.267479 190.804651 
C 345.599862 191.137034 346.050733 191.323791 346.520793 191.323791 
z
" style="fill:#4ab668;stroke:#4ab668;stroke-width:0.886227;"/>
    <path clip-path="url(#p701aff15b4)" d="M 346.520793 190.703496 
C 346.990854 190.703496 347.441725 190.516739 347.774107 190.184356 
C 348.10649 189.851973 348.293247 189.401102 348.293247 188.931042 
C 348.293247 188.460982 348.10649 188.010111 347.774107 187.677728 
C 347.441725 187.345345 346.990854 187.158588 346.520793 187.158588 
C 346.050733 187.158588 345.599862 187.345345 345.267479 187.677728 
C 344.935096 188.010111 344.74834 188.460982 344.74834 188.931042 
C 344.74834 189.401102 344.935096 189.851973 345.267479 190.184356 
C 345.599862 190.516739 346.050733 190.703496 346.520793 190.703496 
z
" style="fill:#0091cc;stroke:#0091cc;stroke-width:0.886227;"/>
    <path clip-path="url(#p701aff15b4)" d="M 367.879645 183.541102 
C 368.349705 183.541102 368.800576 183.354345 369.132959 183.021962 
C 369.465342 182.68958 369.652099 182.238708 369.652099 181.768648 
C 369.652099 181.298588 369.465342 180.847717 369.132959 180.515334 
C 368.800576 180.182951 368.349705 179.996194 367.879645 179.996194 
C 367.409585 179.996194 366.958714 180.182951 366.626331 180.515334 
C 366.293948 180.847717 366.107191 181.298588 366.107191 181.768648 
C 366.107191 182.238708 366.293948 182.68958 366.626331 183.021962 
C 366.958714 183.354345 367.409585 183.541102 367.879645 183.541102 
z
" style="fill:#4ab668;stroke:#4ab668;stroke-width:0.886227;"/>
    <path clip-path="url(#p701aff15b4)" d="M 367.879645 188.052858 
C 368.349705 188.052858 368.800576 187.866101 369.132959 187.533718 
C 369.465342 187.201335 369.652099 186.750464 369.652099 186.280404 
C 369.652099 185.810344 369.465342 185.359473 369.132959 185.02709 
C 368.800576 184.694707 368.349705 184.50795 367.879645 184.50795 
C 367.409585 184.50795 366.958714 184.694707 366.626331 185.02709 
C 366.293948 185.359473 366.107191 185.810344 366.107191 186.280404 
C 366.107191 186.750464 366.293948 187.201335 366.626331 187.533718 
C 366.958714 187.866101 367.409585 188.052858 367.879645 188.052858 
z
" style="fill:#0091cc;stroke:#0091cc;stroke-width:0.886227;"/>
    <path clip-path="url(#p701aff15b4)" d="M 389.238497 185.555072 
C 389.708557 185.555072 390.159428 185.368315 390.491811 185.035933 
C 390.824194 184.70355 391.010951 184.252679 391.010951 183.782618 
C 391.010951 183.312558 390.824194 182.861687 390.491811 182.529304 
C 390.159428 182.196922 389.708557 182.010165 389.238497 182.010165 
C 388.768436 182.010165 388.317565 182.196922 387.985183 182.529304 
C 387.6528 182.861687 387.466043 183.312558 387.466043 183.782618 
C 387.466043 184.252679 387.6528 184.70355 387.985183 185.035933 
C 388.317565 185.368315 388.768436 185.555072 389.238497 185.555072 
z
" style="fill:#4ab668;stroke:#4ab668;stroke-width:0.886227;"/>
    <path clip-path="url(#p701aff15b4)" d="M 389.238497 184.977377 
C 389.708557 184.977377 390.159428 184.79062 390.491811 184.458237 
C 390.824194 184.125855 391.010951 183.674983 391.010951 183.204923 
C 391.010951 182.734863 390.824194 182.283992 390.491811 181.951609 
C 390.159428 181.619226 389.708557 181.432469 389.238497 181.432469 
C 388.768436 181.432469 388.317565 181.619226 387.985183 181.951609 
C 387.6528 182.283992 387.466043 182.734863 387.466043 183.204923 
C 387.466043 183.674983 387.6528 184.125855 387.985183 184.458237 
C 388.317565 184.79062 388.768436 184.977377 389.238497 184.977377 
z
" style="fill:#0091cc;stroke:#0091cc;stroke-width:0.886227;"/>
    <path clip-path="url(#p701aff15b4)" d="M 410.597348 186.421149 
C 411.067409 186.421149 411.51828 186.234392 411.850663 185.902009 
C 412.183045 185.569626 412.369802 185.118755 412.369802 184.648695 
C 412.369802 184.178635 412.183045 183.727763 411.850663 183.395381 
C 411.51828 183.062998 411.067409 182.876241 410.597348 182.876241 
C 410.127288 182.876241 409.676417 183.062998 409.344034 183.395381 
C 409.011651 183.727763 408.824895 184.178635 408.824895 184.648695 
C 408.824895 185.118755 409.011651 185.569626 409.344034 185.902009 
C 409.676417 186.234392 410.127288 186.421149 410.597348 186.421149 
z
" style="fill:#4ab668;stroke:#4ab668;stroke-width:0.886227;"/>
    <path clip-path="url(#p701aff15b4)" d="M 410.597348 186.999377 
C 411.067409 186.999377 411.51828 186.81262 411.850663 186.480238 
C 412.183045 186.147855 412.369802 185.696984 412.369802 185.226924 
C 412.369802 184.756863 412.183045 184.305992 411.850663 183.973609 
C 411.51828 183.641227 411.067409 183.45447 410.597348 183.45447 
C 410.127288 183.45447 409.676417 183.641227 409.344034 183.973609 
C 409.011651 184.305992 408.824895 184.756863 408.824895 185.226924 
C 408.824895 185.696984 409.011651 186.147855 409.344034 186.480238 
C 409.676417 186.81262 410.127288 186.999377 410.597348 186.999377 
z
" style="fill:#0091cc;stroke:#0091cc;stroke-width:0.886227;"/>
    <path clip-path="url(#p701aff15b4)" d="M 431.9562 185.259762 
C 432.42626 185.259762 432.877131 185.073006 433.209514 184.740623 
C 433.541897 184.40824 433.728654 183.957369 433.728654 183.487309 
C 433.728654 183.017248 433.541897 182.566377 433.209514 182.233994 
C 432.877131 181.901612 432.42626 181.714855 431.9562 181.714855 
C 431.48614 181.714855 431.035269 181.901612 430.702886 182.233994 
C 430.370503 182.566377 430.183746 183.017248 430.183746 183.487309 
C 430.183746 183.957369 430.370503 184.40824 430.702886 184.740623 
C 431.035269 185.073006 431.48614 185.259762 431.9562 185.259762 
z
" style="fill:#4ab668;stroke:#4ab668;stroke-width:0.886227;"/>
    <path clip-path="url(#p701aff15b4)" d="M 431.9562 188.817561 
C 432.42626 188.817561 432.877131 188.630804 433.209514 188.298421 
C 433.541897 187.966038 433.728654 187.515167 433.728654 187.045107 
C 433.728654 186.575047 433.541897 186.124176 433.209514 185.791793 
C 432.877131 185.45941 432.42626 185.272653 431.9562 185.272653 
C 431.48614 185.272653 431.035269 185.45941 430.702886 185.791793 
C 430.370503 186.124176 430.183746 186.575047 430.183746 187.045107 
C 430.183746 187.515167 430.370503 187.966038 430.702886 188.298421 
C 431.035269 188.630804 431.48614 188.817561 431.9562 188.817561 
z
" style="fill:#0091cc;stroke:#0091cc;stroke-width:0.886227;"/>
    <path clip-path="url(#p701aff15b4)" d="M 453.315052 195.500875 
C 453.785112 195.500875 454.235983 195.314118 454.568366 194.981735 
C 454.900749 194.649352 455.087506 194.198481 455.087506 193.728421 
C 455.087506 193.258361 454.900749 192.807489 454.568366 192.475107 
C 454.235983 192.142724 453.785112 191.955967 453.315052 191.955967 
C 452.844991 191.955967 452.39412 192.142724 452.061738 192.475107 
C 451.729355 192.807489 451.542598 193.258361 451.542598 193.728421 
C 451.542598 194.198481 451.729355 194.649352 452.061738 194.981735 
C 452.39412 195.314118 452.844991 195.500875 453.315052 195.500875 
z
" style="fill:#4ab668;stroke:#4ab668;stroke-width:0.886227;"/>
    <path clip-path="url(#p701aff15b4)" d="M 453.315052 193.241254 
C 453.785112 193.241254 454.235983 193.054497 454.568366 192.722114 
C 454.900749 192.389732 455.087506 191.938861 455.087506 191.4688 
C 455.087506 190.99874 454.900749 190.547869 454.568366 190.215486 
C 454.235983 189.883103 453.785112 189.696346 453.315052 189.696346 
C 452.844991 189.696346 452.39412 189.883103 452.061738 190.215486 
C 451.729355 190.547869 451.542598 190.99874 451.542598 191.4688 
C 451.542598 191.938861 451.729355 192.389732 452.061738 192.722114 
C 452.39412 193.054497 452.844991 193.241254 453.315052 193.241254 
z
" style="fill:#0091cc;stroke:#0091cc;stroke-width:0.886227;"/>
    <path clip-path="url(#p701aff15b4)" d="M 474.673903 176.740065 
C 475.143964 176.740065 475.594835 176.553308 475.927218 176.220925 
C 476.2596 175.888542 476.446357 175.437671 476.446357 174.967611 
C 476.446357 174.497551 476.2596 174.046679 475.927218 173.714297 
C 475.594835 173.381914 475.143964 173.195157 474.673903 173.195157 
C 474.203843 173.195157 473.752972 173.381914 473.420589 173.714297 
C 473.088206 174.046679 472.90145 174.497551 472.90145 174.967611 
C 472.90145 175.437671 473.088206 175.888542 473.420589 176.220925 
C 473.752972 176.553308 474.203843 176.740065 474.673903 176.740065 
z
" style="fill:#4ab668;stroke:#4ab668;stroke-width:0.886227;"/>
    <path clip-path="url(#p701aff15b4)" d="M 474.673903 173.263947 
C 475.143964 173.263947 475.594835 173.07719 475.927218 172.744807 
C 476.2596 172.412425 476.446357 171.961554 476.446357 171.491493 
C 476.446357 171.021433 476.2596 170.570562 475.927218 170.238179 
C 475.594835 169.905796 475.143964 169.719039 474.673903 169.719039 
C 474.203843 169.719039 473.752972 169.905796 473.420589 170.238179 
C 473.088206 170.570562 472.90145 171.021433 472.90145 171.491493 
C 472.90145 171.961554 473.088206 172.412425 473.420589 172.744807 
C 473.752972 173.07719 474.203843 173.263947 474.673903 173.263947 
z
" style="fill:#0091cc;stroke:#0091cc;stroke-width:0.886227;"/>
   </g>
   <g id="line2d_35">
    <path clip-path="url(#p701aff15b4)" d="M 68.855722 218.585152 
L 90.214573 233.190067 
L 111.573425 200.328084 
L 132.932277 227.966493 
L 154.291128 229.549956 
L 175.64998 212.764576 
L 197.008832 201.275643 
L 218.367683 185.926096 
L 239.726535 198.761747 
L 261.085387 190.854886 
L 282.444238 192.560854 
L 303.80309 202.188754 
L 325.161942 191.967143 
L 346.520793 189.551337 
L 367.879645 181.768648 
L 389.238497 183.782618 
L 410.597348 184.648695 
L 431.9562 183.487309 
L 453.315052 193.728421 
L 474.673903 174.967611 
" style="fill:none;stroke:#4ab668;stroke-width:0.886227;"/>
   </g>
   <g id="line2d_36">
    <path clip-path="url(#p701aff15b4)" d="M 68.855722 210.908513 
L 90.214573 229.149905 
L 111.573425 193.017519 
L 132.932277 218.355836 
L 154.291128 220.730214 
L 175.64998 208.759352 
L 197.008832 203.938741 
L 218.367683 185.582476 
L 239.726535 196.584921 
L 261.085387 191.001871 
L 282.444238 192.845141 
L 303.80309 201.160412 
L 325.161942 191.899213 
L 346.520793 188.931042 
L 367.879645 186.280404 
L 389.238497 183.204923 
L 410.597348 185.226924 
L 431.9562 187.045107 
L 453.315052 191.4688 
L 474.673903 171.491493 
" style="fill:none;stroke:#0091cc;stroke-dasharray:3.27904,1.417963;stroke-dashoffset:0;stroke-width:0.886227;"/>
   </g>
   <g id="patch_3">
    <path d="M 85.5835 62.485937 
L 443.546125 62.485937 
L 443.546125 7.2 
L 85.5835 7.2 
z
" style="fill:#ffffff;"/>
   </g>
   <g id="text_12">
    <!-- Metric -->
    <defs>
     <path d="M 9.8125 72.90625 
L 24.515625 72.90625 
L 43.109375 23.296875 
L 61.8125 72.90625 
L 76.515625 72.90625 
L 76.515625 0 
L 66.890625 0 
L 66.890625 64.015625 
L 48.09375 14.015625 
L 38.1875 14.015625 
L 19.390625 64.015625 
L 19.390625 0 
L 9.8125 0 
z
" id="DejaVuSans-77"/>
    </defs>
    <g transform="translate(97.7835 30.793594)scale(0.11 -0.11)">
     <use xlink:href="#DejaVuSans-77"/>
     <use x="86.279297" xlink:href="#DejaVuSans-101"/>
     <use x="147.802734" xlink:href="#DejaVuSans-116"/>
     <use x="187.011719" xlink:href="#DejaVuSans-114"/>
     <use x="228.125" xlink:href="#DejaVuSans-105"/>
     <use x="255.908203" xlink:href="#DejaVuSans-99"/>
    </g>
   </g>
   <g id="patch_4">
    <path clip-path="url(#p7c06ec8381)" d="M 97.7835 50.285937 
L 113.6235 50.285937 
L 113.6235 34.445937 
L 97.7835 34.445937 
z
" style="fill:#f2f2f2;stroke:#cccccc;stroke-linejoin:miter;"/>
   </g>
   <g id="line2d_37">
    <path clip-path="url(#p7c06ec8381)" d="M 105.7035 42.365937 
" style="fill:none;stroke:#4c72b0;stroke-linecap:square;stroke-width:1.5;"/>
    <defs>
     <path d="M 0 1.772454 
C 0.47006 1.772454 0.920931 1.585697 1.253314 1.253314 
C 1.585697 0.920931 1.772454 0.47006 1.772454 0 
C 1.772454 -0.47006 1.585697 -0.920931 1.253314 -1.253314 
C 0.920931 -1.585697 0.47006 -1.772454 0 -1.772454 
C -0.47006 -1.772454 -0.920931 -1.585697 -1.253314 -1.253314 
C -1.585697 -0.920931 -1.772454 -0.47006 -1.772454 0 
C -1.772454 0.47006 -1.585697 0.920931 -1.253314 1.253314 
C -0.920931 1.585697 -0.47006 1.772454 0 1.772454 
z
" id="m222ea47d64" style="stroke:#4ab668;stroke-width:0.886227;"/>
    </defs>
    <g clip-path="url(#p7c06ec8381)">
     <use style="fill:#4ab668;stroke:#4ab668;stroke-width:0.886227;" x="105.7035" xlink:href="#m222ea47d64" y="42.365937"/>
    </g>
   </g>
   <g id="line2d_38">
    <path clip-path="url(#p7c06ec8381)" d="M 97.7835 42.365937 
L 113.6235 42.365937 
" style="fill:none;stroke:#4ab668;stroke-width:0.886227;"/>
   </g>
   <g id="text_13">
    <!-- Impact per paper (IPP) -->
    <defs>
     <path d="M 9.8125 72.90625 
L 19.671875 72.90625 
L 19.671875 0 
L 9.8125 0 
z
" id="DejaVuSans-73"/>
     <path d="M 31 75.875 
Q 24.46875 64.65625 21.28125 53.65625 
Q 18.109375 42.671875 18.109375 31.390625 
Q 18.109375 20.125 21.3125 9.0625 
Q 24.515625 -2 31 -13.1875 
L 23.1875 -13.1875 
Q 15.875 -1.703125 12.234375 9.375 
Q 8.59375 20.453125 8.59375 31.390625 
Q 8.59375 42.28125 12.203125 53.3125 
Q 15.828125 64.359375 23.1875 75.875 
z
" id="DejaVuSans-40"/>
     <path d="M 19.671875 64.796875 
L 19.671875 37.40625 
L 32.078125 37.40625 
Q 38.96875 37.40625 42.71875 40.96875 
Q 46.484375 44.53125 46.484375 51.125 
Q 46.484375 57.671875 42.71875 61.234375 
Q 38.96875 64.796875 32.078125 64.796875 
z
M 9.8125 72.90625 
L 32.078125 72.90625 
Q 44.34375 72.90625 50.609375 67.359375 
Q 56.890625 61.8125 56.890625 51.125 
Q 56.890625 40.328125 50.609375 34.8125 
Q 44.34375 29.296875 32.078125 29.296875 
L 19.671875 29.296875 
L 19.671875 0 
L 9.8125 0 
z
" id="DejaVuSans-80"/>
     <path d="M 8.015625 75.875 
L 15.828125 75.875 
Q 23.140625 64.359375 26.78125 53.3125 
Q 30.421875 42.28125 30.421875 31.390625 
Q 30.421875 20.453125 26.78125 9.375 
Q 23.140625 -1.703125 15.828125 -13.1875 
L 8.015625 -13.1875 
Q 14.5 -2 17.703125 9.0625 
Q 20.90625 20.125 20.90625 31.390625 
Q 20.90625 42.671875 17.703125 53.65625 
Q 14.5 64.65625 8.015625 75.875 
z
" id="DejaVuSans-41"/>
    </defs>
    <g transform="translate(116.6235 44.794187)scale(0.088 -0.088)">
     <use xlink:href="#DejaVuSans-73"/>
     <use x="29.492188" xlink:href="#DejaVuSans-109"/>
     <use x="126.904297" xlink:href="#DejaVuSans-112"/>
     <use x="190.380859" xlink:href="#DejaVuSans-97"/>
     <use x="251.660156" xlink:href="#DejaVuSans-99"/>
     <use x="306.640625" xlink:href="#DejaVuSans-116"/>
     <use x="345.849609" xlink:href="#DejaVuSans-32"/>
     <use x="377.636719" xlink:href="#DejaVuSans-112"/>
     <use x="441.113281" xlink:href="#DejaVuSans-101"/>
     <use x="502.636719" xlink:href="#DejaVuSans-114"/>
     <use x="543.75" xlink:href="#DejaVuSans-32"/>
     <use x="575.537109" xlink:href="#DejaVuSans-112"/>
     <use x="639.013672" xlink:href="#DejaVuSans-97"/>
     <use x="700.292969" xlink:href="#DejaVuSans-112"/>
     <use x="763.769531" xlink:href="#DejaVuSans-101"/>
     <use x="825.292969" xlink:href="#DejaVuSans-114"/>
     <use x="866.40625" xlink:href="#DejaVuSans-32"/>
     <use x="898.193359" xlink:href="#DejaVuSans-40"/>
     <use x="937.207031" xlink:href="#DejaVuSans-73"/>
     <use x="966.699219" xlink:href="#DejaVuSans-80"/>
     <use x="1027.001953" xlink:href="#DejaVuSans-80"/>
     <use x="1087.304688" xlink:href="#DejaVuSans-41"/>
    </g>
   </g>
   <g id="patch_5">
    <path clip-path="url(#pdc2e2ebe1f)" d="M 220.74175 50.285937 
L 236.58175 50.285937 
L 236.58175 34.445937 
L 220.74175 34.445937 
z
" style="fill:#f2f2f2;stroke:#cccccc;stroke-linejoin:miter;"/>
   </g>
   <g id="line2d_39">
    <path clip-path="url(#pdc2e2ebe1f)" d="M 228.66175 42.365937 
" style="fill:none;stroke:#4c72b0;stroke-linecap:square;stroke-width:1.5;"/>
    <defs>
     <path d="M 0 1.772454 
C 0.47006 1.772454 0.920931 1.585697 1.253314 1.253314 
C 1.585697 0.920931 1.772454 0.47006 1.772454 0 
C 1.772454 -0.47006 1.585697 -0.920931 1.253314 -1.253314 
C 0.920931 -1.585697 0.47006 -1.772454 0 -1.772454 
C -0.47006 -1.772454 -0.920931 -1.585697 -1.253314 -1.253314 
C -1.585697 -0.920931 -1.772454 -0.47006 -1.772454 0 
C -1.772454 0.47006 -1.585697 0.920931 -1.253314 1.253314 
C -0.920931 1.585697 -0.47006 1.772454 0 1.772454 
z
" id="m69790fab72" style="stroke:#0091cc;stroke-width:0.886227;"/>
    </defs>
    <g clip-path="url(#pdc2e2ebe1f)">
     <use style="fill:#0091cc;stroke:#0091cc;stroke-width:0.886227;" x="228.66175" xlink:href="#m69790fab72" y="42.365937"/>
    </g>
   </g>
   <g id="line2d_40">
    <path clip-path="url(#pdc2e2ebe1f)" d="M 220.74175 42.365937 
L 236.58175 42.365937 
" style="fill:none;stroke:#0091cc;stroke-dasharray:3.27904,1.417963;stroke-dashoffset:0;stroke-width:0.886227;"/>
   </g>
   <g id="text_14">
    <!-- Source Normalized Impact per Paper (SNIP) -->
    <defs>
     <path d="M 8.5 21.578125 
L 8.5 54.6875 
L 17.484375 54.6875 
L 17.484375 21.921875 
Q 17.484375 14.15625 20.5 10.265625 
Q 23.53125 6.390625 29.59375 6.390625 
Q 36.859375 6.390625 41.078125 11.03125 
Q 45.3125 15.671875 45.3125 23.6875 
L 45.3125 54.6875 
L 54.296875 54.6875 
L 54.296875 0 
L 45.3125 0 
L 45.3125 8.40625 
Q 42.046875 3.421875 37.71875 1 
Q 33.40625 -1.421875 27.6875 -1.421875 
Q 18.265625 -1.421875 13.375 4.4375 
Q 8.5 10.296875 8.5 21.578125 
z
M 31.109375 56 
z
" id="DejaVuSans-117"/>
     <path d="M 9.8125 72.90625 
L 23.09375 72.90625 
L 55.421875 11.921875 
L 55.421875 72.90625 
L 64.984375 72.90625 
L 64.984375 0 
L 51.703125 0 
L 19.390625 60.984375 
L 19.390625 0 
L 9.8125 0 
z
" id="DejaVuSans-78"/>
     <path d="M 5.515625 54.6875 
L 48.1875 54.6875 
L 48.1875 46.484375 
L 14.40625 7.171875 
L 48.1875 7.171875 
L 48.1875 0 
L 4.296875 0 
L 4.296875 8.203125 
L 38.09375 47.515625 
L 5.515625 47.515625 
z
" id="DejaVuSans-122"/>
     <path d="M 45.40625 46.390625 
L 45.40625 75.984375 
L 54.390625 75.984375 
L 54.390625 0 
L 45.40625 0 
L 45.40625 8.203125 
Q 42.578125 3.328125 38.25 0.953125 
Q 33.9375 -1.421875 27.875 -1.421875 
Q 17.96875 -1.421875 11.734375 6.484375 
Q 5.515625 14.40625 5.515625 27.296875 
Q 5.515625 40.1875 11.734375 48.09375 
Q 17.96875 56 27.875 56 
Q 33.9375 56 38.25 53.625 
Q 42.578125 51.265625 45.40625 46.390625 
z
M 14.796875 27.296875 
Q 14.796875 17.390625 18.875 11.75 
Q 22.953125 6.109375 30.078125 6.109375 
Q 37.203125 6.109375 41.296875 11.75 
Q 45.40625 17.390625 45.40625 27.296875 
Q 45.40625 37.203125 41.296875 42.84375 
Q 37.203125 48.484375 30.078125 48.484375 
Q 22.953125 48.484375 18.875 42.84375 
Q 14.796875 37.203125 14.796875 27.296875 
z
" id="DejaVuSans-100"/>
    </defs>
    <g transform="translate(239.58175 44.794187)scale(0.088 -0.088)">
     <use xlink:href="#DejaVuSans-83"/>
     <use x="63.476562" xlink:href="#DejaVuSans-111"/>
     <use x="124.658203" xlink:href="#DejaVuSans-117"/>
     <use x="188.037109" xlink:href="#DejaVuSans-114"/>
     <use x="229.119141" xlink:href="#DejaVuSans-99"/>
     <use x="284.099609" xlink:href="#DejaVuSans-101"/>
     <use x="345.623047" xlink:href="#DejaVuSans-32"/>
     <use x="377.410156" xlink:href="#DejaVuSans-78"/>
     <use x="452.214844" xlink:href="#DejaVuSans-111"/>
     <use x="513.396484" xlink:href="#DejaVuSans-114"/>
     <use x="554.494141" xlink:href="#DejaVuSans-109"/>
     <use x="651.90625" xlink:href="#DejaVuSans-97"/>
     <use x="713.185547" xlink:href="#DejaVuSans-108"/>
     <use x="740.96875" xlink:href="#DejaVuSans-105"/>
     <use x="768.751953" xlink:href="#DejaVuSans-122"/>
     <use x="821.242188" xlink:href="#DejaVuSans-101"/>
     <use x="882.765625" xlink:href="#DejaVuSans-100"/>
     <use x="946.242188" xlink:href="#DejaVuSans-32"/>
     <use x="978.029297" xlink:href="#DejaVuSans-73"/>
     <use x="1007.521484" xlink:href="#DejaVuSans-109"/>
     <use x="1104.933594" xlink:href="#DejaVuSans-112"/>
     <use x="1168.410156" xlink:href="#DejaVuSans-97"/>
     <use x="1229.689453" xlink:href="#DejaVuSans-99"/>
     <use x="1284.669922" xlink:href="#DejaVuSans-116"/>
     <use x="1323.878906" xlink:href="#DejaVuSans-32"/>
     <use x="1355.666016" xlink:href="#DejaVuSans-112"/>
     <use x="1419.142578" xlink:href="#DejaVuSans-101"/>
     <use x="1480.666016" xlink:href="#DejaVuSans-114"/>
     <use x="1521.779297" xlink:href="#DejaVuSans-32"/>
     <use x="1553.566406" xlink:href="#DejaVuSans-80"/>
     <use x="1613.806641" xlink:href="#DejaVuSans-97"/>
     <use x="1675.085938" xlink:href="#DejaVuSans-112"/>
     <use x="1738.5625" xlink:href="#DejaVuSans-101"/>
     <use x="1800.085938" xlink:href="#DejaVuSans-114"/>
     <use x="1841.199219" xlink:href="#DejaVuSans-32"/>
     <use x="1872.986328" xlink:href="#DejaVuSans-40"/>
     <use x="1912" xlink:href="#DejaVuSans-83"/>
     <use x="1975.476562" xlink:href="#DejaVuSans-78"/>
     <use x="2050.28125" xlink:href="#DejaVuSans-73"/>
     <use x="2079.773438" xlink:href="#DejaVuSans-80"/>
     <use x="2140.076172" xlink:href="#DejaVuSans-41"/>
    </g>
   </g>
  </g>
 </g>
 <defs>
  <clipPath id="p701aff15b4">
   <rect height="221.76" width="446.4" x="48.564813" y="69.685937"/>
  </clipPath>
  <clipPath id="p7c06ec8381">
   <path d="M 97.7835 50.285937 
L 97.7835 34.445937 
L 113.6235 34.445937 
L 113.6235 50.285937 
"/>
  </clipPath>
  <clipPath id="pdc2e2ebe1f">
   <path d="M 220.74175 50.285937 
L 220.74175 34.445937 
L 236.58175 34.445937 
L 236.58175 50.285937 
"/>
  </clipPath>
 </defs>
</svg>
