<?xml version="1.0" encoding="utf-8" standalone="no"?>
<!DOCTYPE svg PUBLIC "-//W3C//DTD SVG 1.1//EN"
  "http://www.w3.org/Graphics/SVG/1.1/DTD/svg11.dtd">
<!-- Created with matplotlib (https://matplotlib.org/) -->
<svg height="270.673125pt" version="1.1" viewBox="0 0 521.407187 270.673125" width="521.407187pt" xmlns="http://www.w3.org/2000/svg" xmlns:xlink="http://www.w3.org/1999/xlink">
 <defs>
  <style type="text/css">
*{stroke-linecap:butt;stroke-linejoin:round;}
  </style>
 </defs>
 <g id="figure_1">
  <g id="patch_1">
   <path d="M 0 270.673125 
L 521.407187 270.673125 
L 521.407187 0 
L 0 0 
z
" style="fill:#ffffff;stroke:#ffffff;stroke-linejoin:miter;"/>
  </g>
  <g id="axes_1">
   <g id="patch_2">
    <path d="M 59.23875 228.96 
L 505.63875 228.96 
L 505.63875 7.2 
L 59.23875 7.2 
z
" style="fill:#ffffff;"/>
   </g>
   <g id="matplotlib.axis_1">
    <g id="xtick_1">
     <g id="line2d_1">
      <path d="M 100.888511 228.96 
" style="fill:none;stroke:#000000;stroke-width:1.5;"/>
      <defs>
       <path d="M 0 0 
L 0 2.75 
" id="m36ad824b83" style="stroke:#000000;"/>
      </defs>
      <g>
       <use style="stroke:#000000;" x="100.888511" xlink:href="#m36ad824b83" y="228.96"/>
      </g>
     </g>
     <g id="text_1">
      <!-- 2000 -->
      <defs>
       <path d="M 19.1875 8.296875 
L 53.609375 8.296875 
L 53.609375 0 
L 7.328125 0 
L 7.328125 8.296875 
Q 12.9375 14.109375 22.625 23.890625 
Q 32.328125 33.6875 34.8125 36.53125 
Q 39.546875 41.84375 41.421875 45.53125 
Q 43.3125 49.21875 43.3125 52.78125 
Q 43.3125 58.59375 39.234375 62.25 
Q 35.15625 65.921875 28.609375 65.921875 
Q 23.96875 65.921875 18.8125 64.3125 
Q 13.671875 62.703125 7.8125 59.421875 
L 7.8125 69.390625 
Q 13.765625 71.78125 18.9375 73 
Q 24.125 74.21875 28.421875 74.21875 
Q 39.75 74.21875 46.484375 68.546875 
Q 53.21875 62.890625 53.21875 53.421875 
Q 53.21875 48.921875 51.53125 44.890625 
Q 49.859375 40.875 45.40625 35.40625 
Q 44.1875 33.984375 37.640625 27.21875 
Q 31.109375 20.453125 19.1875 8.296875 
z
" id="DejaVuSans-50"/>
       <path d="M 31.78125 66.40625 
Q 24.171875 66.40625 20.328125 58.90625 
Q 16.5 51.421875 16.5 36.375 
Q 16.5 21.390625 20.328125 13.890625 
Q 24.171875 6.390625 31.78125 6.390625 
Q 39.453125 6.390625 43.28125 13.890625 
Q 47.125 21.390625 47.125 36.375 
Q 47.125 51.421875 43.28125 58.90625 
Q 39.453125 66.40625 31.78125 66.40625 
z
M 31.78125 74.21875 
Q 44.046875 74.21875 50.515625 64.515625 
Q 56.984375 54.828125 56.984375 36.375 
Q 56.984375 17.96875 50.515625 8.265625 
Q 44.046875 -1.421875 31.78125 -1.421875 
Q 19.53125 -1.421875 13.0625 8.265625 
Q 6.59375 17.96875 6.59375 36.375 
Q 6.59375 54.828125 13.0625 64.515625 
Q 19.53125 74.21875 31.78125 74.21875 
z
" id="DejaVuSans-48"/>
      </defs>
      <g transform="translate(85.618511 243.028125)scale(0.12 -0.12)">
       <use xlink:href="#DejaVuSans-50"/>
       <use x="63.623047" xlink:href="#DejaVuSans-48"/>
       <use x="127.246094" xlink:href="#DejaVuSans-48"/>
       <use x="190.869141" xlink:href="#DejaVuSans-48"/>
      </g>
     </g>
    </g>
    <g id="xtick_2">
     <g id="line2d_2">
      <path d="M 207.682769 228.96 
" style="fill:none;stroke:#000000;stroke-width:1.5;"/>
      <g>
       <use style="stroke:#000000;" x="207.682769" xlink:href="#m36ad824b83" y="228.96"/>
      </g>
     </g>
     <g id="text_2">
      <!-- 2005 -->
      <defs>
       <path d="M 10.796875 72.90625 
L 49.515625 72.90625 
L 49.515625 64.59375 
L 19.828125 64.59375 
L 19.828125 46.734375 
Q 21.96875 47.46875 24.109375 47.828125 
Q 26.265625 48.1875 28.421875 48.1875 
Q 40.625 48.1875 47.75 41.5 
Q 54.890625 34.8125 54.890625 23.390625 
Q 54.890625 11.625 47.5625 5.09375 
Q 40.234375 -1.421875 26.90625 -1.421875 
Q 22.3125 -1.421875 17.546875 -0.640625 
Q 12.796875 0.140625 7.71875 1.703125 
L 7.71875 11.625 
Q 12.109375 9.234375 16.796875 8.0625 
Q 21.484375 6.890625 26.703125 6.890625 
Q 35.15625 6.890625 40.078125 11.328125 
Q 45.015625 15.765625 45.015625 23.390625 
Q 45.015625 31 40.078125 35.4375 
Q 35.15625 39.890625 26.703125 39.890625 
Q 22.75 39.890625 18.8125 39.015625 
Q 14.890625 38.140625 10.796875 36.28125 
z
" id="DejaVuSans-53"/>
      </defs>
      <g transform="translate(192.412769 243.028125)scale(0.12 -0.12)">
       <use xlink:href="#DejaVuSans-50"/>
       <use x="63.623047" xlink:href="#DejaVuSans-48"/>
       <use x="127.246094" xlink:href="#DejaVuSans-48"/>
       <use x="190.869141" xlink:href="#DejaVuSans-53"/>
      </g>
     </g>
    </g>
    <g id="xtick_3">
     <g id="line2d_3">
      <path d="M 314.477028 228.96 
" style="fill:none;stroke:#000000;stroke-width:1.5;"/>
      <g>
       <use style="stroke:#000000;" x="314.477028" xlink:href="#m36ad824b83" y="228.96"/>
      </g>
     </g>
     <g id="text_3">
      <!-- 2010 -->
      <defs>
       <path d="M 12.40625 8.296875 
L 28.515625 8.296875 
L 28.515625 63.921875 
L 10.984375 60.40625 
L 10.984375 69.390625 
L 28.421875 72.90625 
L 38.28125 72.90625 
L 38.28125 8.296875 
L 54.390625 8.296875 
L 54.390625 0 
L 12.40625 0 
z
" id="DejaVuSans-49"/>
      </defs>
      <g transform="translate(299.207028 243.028125)scale(0.12 -0.12)">
       <use xlink:href="#DejaVuSans-50"/>
       <use x="63.623047" xlink:href="#DejaVuSans-48"/>
       <use x="127.246094" xlink:href="#DejaVuSans-49"/>
       <use x="190.869141" xlink:href="#DejaVuSans-48"/>
      </g>
     </g>
    </g>
    <g id="xtick_4">
     <g id="line2d_4">
      <path d="M 421.271286 228.96 
" style="fill:none;stroke:#000000;stroke-width:1.5;"/>
      <g>
       <use style="stroke:#000000;" x="421.271286" xlink:href="#m36ad824b83" y="228.96"/>
      </g>
     </g>
     <g id="text_4">
      <!-- 2015 -->
      <g transform="translate(406.001286 243.028125)scale(0.12 -0.12)">
       <use xlink:href="#DejaVuSans-50"/>
       <use x="63.623047" xlink:href="#DejaVuSans-48"/>
       <use x="127.246094" xlink:href="#DejaVuSans-49"/>
       <use x="190.869141" xlink:href="#DejaVuSans-53"/>
      </g>
     </g>
    </g>
    <g id="xtick_5">
     <g id="line2d_5">
      <path d="M 154.28564 228.96 
" style="fill:none;stroke:#000000;stroke-width:1.5;"/>
      <defs>
       <path d="M 0 0 
L 0 1.375 
" id="m98b90b5c18" style="stroke:#000000;"/>
      </defs>
      <g>
       <use style="stroke:#000000;" x="154.28564" xlink:href="#m98b90b5c18" y="228.96"/>
      </g>
     </g>
    </g>
    <g id="xtick_6">
     <g id="line2d_6">
      <path d="M 261.079898 228.96 
" style="fill:none;stroke:#000000;stroke-width:1.5;"/>
      <g>
       <use style="stroke:#000000;" x="261.079898" xlink:href="#m98b90b5c18" y="228.96"/>
      </g>
     </g>
    </g>
    <g id="xtick_7">
     <g id="line2d_7">
      <path d="M 367.874157 228.96 
" style="fill:none;stroke:#000000;stroke-width:1.5;"/>
      <g>
       <use style="stroke:#000000;" x="367.874157" xlink:href="#m98b90b5c18" y="228.96"/>
      </g>
     </g>
    </g>
    <g id="xtick_8">
     <g id="line2d_8">
      <path d="M 474.668415 228.96 
" style="fill:none;stroke:#000000;stroke-width:1.5;"/>
      <g>
       <use style="stroke:#000000;" x="474.668415" xlink:href="#m98b90b5c18" y="228.96"/>
      </g>
     </g>
    </g>
    <g id="text_5">
     <!-- Year -->
     <defs>
      <path d="M -0.203125 72.90625 
L 10.40625 72.90625 
L 30.609375 42.921875 
L 50.6875 72.90625 
L 61.28125 72.90625 
L 35.5 34.71875 
L 35.5 0 
L 25.59375 0 
L 25.59375 34.71875 
z
" id="DejaVuSans-89"/>
      <path d="M 56.203125 29.59375 
L 56.203125 25.203125 
L 14.890625 25.203125 
Q 15.484375 15.921875 20.484375 11.0625 
Q 25.484375 6.203125 34.421875 6.203125 
Q 39.59375 6.203125 44.453125 7.46875 
Q 49.3125 8.734375 54.109375 11.28125 
L 54.109375 2.78125 
Q 49.265625 0.734375 44.1875 -0.34375 
Q 39.109375 -1.421875 33.890625 -1.421875 
Q 20.796875 -1.421875 13.15625 6.1875 
Q 5.515625 13.8125 5.515625 26.8125 
Q 5.515625 40.234375 12.765625 48.109375 
Q 20.015625 56 32.328125 56 
Q 43.359375 56 49.78125 48.890625 
Q 56.203125 41.796875 56.203125 29.59375 
z
M 47.21875 32.234375 
Q 47.125 39.59375 43.09375 43.984375 
Q 39.0625 48.390625 32.421875 48.390625 
Q 24.90625 48.390625 20.390625 44.140625 
Q 15.875 39.890625 15.1875 32.171875 
z
" id="DejaVuSans-101"/>
      <path d="M 34.28125 27.484375 
Q 23.390625 27.484375 19.1875 25 
Q 14.984375 22.515625 14.984375 16.5 
Q 14.984375 11.71875 18.140625 8.90625 
Q 21.296875 6.109375 26.703125 6.109375 
Q 34.1875 6.109375 38.703125 11.40625 
Q 43.21875 16.703125 43.21875 25.484375 
L 43.21875 27.484375 
z
M 52.203125 31.203125 
L 52.203125 0 
L 43.21875 0 
L 43.21875 8.296875 
Q 40.140625 3.328125 35.546875 0.953125 
Q 30.953125 -1.421875 24.3125 -1.421875 
Q 15.921875 -1.421875 10.953125 3.296875 
Q 6 8.015625 6 15.921875 
Q 6 25.140625 12.171875 29.828125 
Q 18.359375 34.515625 30.609375 34.515625 
L 43.21875 34.515625 
L 43.21875 35.40625 
Q 43.21875 41.609375 39.140625 45 
Q 35.0625 48.390625 27.6875 48.390625 
Q 23 48.390625 18.546875 47.265625 
Q 14.109375 46.140625 10.015625 43.890625 
L 10.015625 52.203125 
Q 14.9375 54.109375 19.578125 55.046875 
Q 24.21875 56 28.609375 56 
Q 40.484375 56 46.34375 49.84375 
Q 52.203125 43.703125 52.203125 31.203125 
z
" id="DejaVuSans-97"/>
      <path d="M 41.109375 46.296875 
Q 39.59375 47.171875 37.8125 47.578125 
Q 36.03125 48 33.890625 48 
Q 26.265625 48 22.1875 43.046875 
Q 18.109375 38.09375 18.109375 28.8125 
L 18.109375 0 
L 9.078125 0 
L 9.078125 54.6875 
L 18.109375 54.6875 
L 18.109375 46.1875 
Q 20.953125 51.171875 25.484375 53.578125 
Q 30.03125 56 36.53125 56 
Q 37.453125 56 38.578125 55.875 
Q 39.703125 55.765625 41.0625 55.515625 
z
" id="DejaVuSans-114"/>
     </defs>
     <g transform="translate(259.502969 260.561562)scale(0.14 -0.14)">
      <use xlink:href="#DejaVuSans-89"/>
      <use x="60.880859" xlink:href="#DejaVuSans-101"/>
      <use x="122.404297" xlink:href="#DejaVuSans-97"/>
      <use x="183.683594" xlink:href="#DejaVuSans-114"/>
     </g>
    </g>
   </g>
   <g id="matplotlib.axis_2">
    <g id="ytick_1">
     <g id="line2d_9">
      <path d="M 59.23875 218.88 
" style="fill:none;stroke:#000000;stroke-width:1.5;"/>
      <defs>
       <path d="M 0 0 
L -2.75 0 
" id="md1928769b5" style="stroke:#000000;"/>
      </defs>
      <g>
       <use style="stroke:#000000;" x="59.23875" xlink:href="#md1928769b5" y="218.88"/>
      </g>
     </g>
     <g id="text_6">
      <!-- −1 -->
      <defs>
       <path d="M 10.59375 35.5 
L 73.1875 35.5 
L 73.1875 27.203125 
L 10.59375 27.203125 
z
" id="DejaVuSans-8722"/>
      </defs>
      <g transform="translate(36.598125 222.19125)scale(0.12 -0.12)">
       <use xlink:href="#DejaVuSans-8722"/>
       <use x="83.789062" xlink:href="#DejaVuSans-49"/>
      </g>
     </g>
    </g>
    <g id="ytick_2">
     <g id="line2d_10">
      <path d="M 59.23875 168.48 
" style="fill:none;stroke:#000000;stroke-width:1.5;"/>
      <g>
       <use style="stroke:#000000;" x="59.23875" xlink:href="#md1928769b5" y="168.48"/>
      </g>
     </g>
     <g id="text_7">
      <!-- −0.5 -->
      <defs>
       <path d="M 10.6875 12.40625 
L 21 12.40625 
L 21 0 
L 10.6875 0 
z
" id="DejaVuSans-46"/>
      </defs>
      <g transform="translate(25.149375 171.79125)scale(0.12 -0.12)">
       <use xlink:href="#DejaVuSans-8722"/>
       <use x="83.789062" xlink:href="#DejaVuSans-48"/>
       <use x="147.412109" xlink:href="#DejaVuSans-46"/>
       <use x="179.199219" xlink:href="#DejaVuSans-53"/>
      </g>
     </g>
    </g>
    <g id="ytick_3">
     <g id="line2d_11">
      <path d="M 59.23875 118.08 
" style="fill:none;stroke:#000000;stroke-width:1.5;"/>
      <g>
       <use style="stroke:#000000;" x="59.23875" xlink:href="#md1928769b5" y="118.08"/>
      </g>
     </g>
     <g id="text_8">
      <!-- 0 -->
      <g transform="translate(46.65375 121.39125)scale(0.12 -0.12)">
       <use xlink:href="#DejaVuSans-48"/>
      </g>
     </g>
    </g>
    <g id="ytick_4">
     <g id="line2d_12">
      <path d="M 59.23875 67.68 
" style="fill:none;stroke:#000000;stroke-width:1.5;"/>
      <g>
       <use style="stroke:#000000;" x="59.23875" xlink:href="#md1928769b5" y="67.68"/>
      </g>
     </g>
     <g id="text_9">
      <!-- 0.5 -->
      <g transform="translate(35.205 70.99125)scale(0.12 -0.12)">
       <use xlink:href="#DejaVuSans-48"/>
       <use x="63.623047" xlink:href="#DejaVuSans-46"/>
       <use x="95.410156" xlink:href="#DejaVuSans-53"/>
      </g>
     </g>
    </g>
    <g id="ytick_5">
     <g id="line2d_13">
      <path d="M 59.23875 17.28 
" style="fill:none;stroke:#000000;stroke-width:1.5;"/>
      <g>
       <use style="stroke:#000000;" x="59.23875" xlink:href="#md1928769b5" y="17.28"/>
      </g>
     </g>
     <g id="text_10">
      <!-- 1 -->
      <g transform="translate(46.65375 20.59125)scale(0.12 -0.12)">
       <use xlink:href="#DejaVuSans-49"/>
      </g>
     </g>
    </g>
    <g id="ytick_6">
     <g id="line2d_14">
      <path d="M 59.23875 193.68 
" style="fill:none;stroke:#000000;stroke-width:1.5;"/>
      <defs>
       <path d="M 0 0 
L -1.375 0 
" id="mb5c5ef6d46" style="stroke:#000000;"/>
      </defs>
      <g>
       <use style="stroke:#000000;" x="59.23875" xlink:href="#mb5c5ef6d46" y="193.68"/>
      </g>
     </g>
    </g>
    <g id="ytick_7">
     <g id="line2d_15">
      <path d="M 59.23875 143.28 
" style="fill:none;stroke:#000000;stroke-width:1.5;"/>
      <g>
       <use style="stroke:#000000;" x="59.23875" xlink:href="#mb5c5ef6d46" y="143.28"/>
      </g>
     </g>
    </g>
    <g id="ytick_8">
     <g id="line2d_16">
      <path d="M 59.23875 92.88 
" style="fill:none;stroke:#000000;stroke-width:1.5;"/>
      <g>
       <use style="stroke:#000000;" x="59.23875" xlink:href="#mb5c5ef6d46" y="92.88"/>
      </g>
     </g>
    </g>
    <g id="ytick_9">
     <g id="line2d_17">
      <path d="M 59.23875 42.48 
" style="fill:none;stroke:#000000;stroke-width:1.5;"/>
      <g>
       <use style="stroke:#000000;" x="59.23875" xlink:href="#mb5c5ef6d46" y="42.48"/>
      </g>
     </g>
    </g>
    <g id="text_11">
     <!-- Spearman's rank correlation -->
     <defs>
      <path d="M 53.515625 70.515625 
L 53.515625 60.890625 
Q 47.90625 63.578125 42.921875 64.890625 
Q 37.9375 66.21875 33.296875 66.21875 
Q 25.25 66.21875 20.875 63.09375 
Q 16.5 59.96875 16.5 54.203125 
Q 16.5 49.359375 19.40625 46.890625 
Q 22.3125 44.4375 30.421875 42.921875 
L 36.375 41.703125 
Q 47.40625 39.59375 52.65625 34.296875 
Q 57.90625 29 57.90625 20.125 
Q 57.90625 9.515625 50.796875 4.046875 
Q 43.703125 -1.421875 29.984375 -1.421875 
Q 24.8125 -1.421875 18.96875 -0.25 
Q 13.140625 0.921875 6.890625 3.21875 
L 6.890625 13.375 
Q 12.890625 10.015625 18.65625 8.296875 
Q 24.421875 6.59375 29.984375 6.59375 
Q 38.421875 6.59375 43.015625 9.90625 
Q 47.609375 13.234375 47.609375 19.390625 
Q 47.609375 24.75 44.3125 27.78125 
Q 41.015625 30.8125 33.5 32.328125 
L 27.484375 33.5 
Q 16.453125 35.6875 11.515625 40.375 
Q 6.59375 45.0625 6.59375 53.421875 
Q 6.59375 63.09375 13.40625 68.65625 
Q 20.21875 74.21875 32.171875 74.21875 
Q 37.3125 74.21875 42.625 73.28125 
Q 47.953125 72.359375 53.515625 70.515625 
z
" id="DejaVuSans-83"/>
      <path d="M 18.109375 8.203125 
L 18.109375 -20.796875 
L 9.078125 -20.796875 
L 9.078125 54.6875 
L 18.109375 54.6875 
L 18.109375 46.390625 
Q 20.953125 51.265625 25.265625 53.625 
Q 29.59375 56 35.59375 56 
Q 45.5625 56 51.78125 48.09375 
Q 58.015625 40.1875 58.015625 27.296875 
Q 58.015625 14.40625 51.78125 6.484375 
Q 45.5625 -1.421875 35.59375 -1.421875 
Q 29.59375 -1.421875 25.265625 0.953125 
Q 20.953125 3.328125 18.109375 8.203125 
z
M 48.6875 27.296875 
Q 48.6875 37.203125 44.609375 42.84375 
Q 40.53125 48.484375 33.40625 48.484375 
Q 26.265625 48.484375 22.1875 42.84375 
Q 18.109375 37.203125 18.109375 27.296875 
Q 18.109375 17.390625 22.1875 11.75 
Q 26.265625 6.109375 33.40625 6.109375 
Q 40.53125 6.109375 44.609375 11.75 
Q 48.6875 17.390625 48.6875 27.296875 
z
" id="DejaVuSans-112"/>
      <path d="M 52 44.1875 
Q 55.375 50.25 60.0625 53.125 
Q 64.75 56 71.09375 56 
Q 79.640625 56 84.28125 50.015625 
Q 88.921875 44.046875 88.921875 33.015625 
L 88.921875 0 
L 79.890625 0 
L 79.890625 32.71875 
Q 79.890625 40.578125 77.09375 44.375 
Q 74.3125 48.1875 68.609375 48.1875 
Q 61.625 48.1875 57.5625 43.546875 
Q 53.515625 38.921875 53.515625 30.90625 
L 53.515625 0 
L 44.484375 0 
L 44.484375 32.71875 
Q 44.484375 40.625 41.703125 44.40625 
Q 38.921875 48.1875 33.109375 48.1875 
Q 26.21875 48.1875 22.15625 43.53125 
Q 18.109375 38.875 18.109375 30.90625 
L 18.109375 0 
L 9.078125 0 
L 9.078125 54.6875 
L 18.109375 54.6875 
L 18.109375 46.1875 
Q 21.1875 51.21875 25.484375 53.609375 
Q 29.78125 56 35.6875 56 
Q 41.65625 56 45.828125 52.96875 
Q 50 49.953125 52 44.1875 
z
" id="DejaVuSans-109"/>
      <path d="M 54.890625 33.015625 
L 54.890625 0 
L 45.90625 0 
L 45.90625 32.71875 
Q 45.90625 40.484375 42.875 44.328125 
Q 39.84375 48.1875 33.796875 48.1875 
Q 26.515625 48.1875 22.3125 43.546875 
Q 18.109375 38.921875 18.109375 30.90625 
L 18.109375 0 
L 9.078125 0 
L 9.078125 54.6875 
L 18.109375 54.6875 
L 18.109375 46.1875 
Q 21.34375 51.125 25.703125 53.5625 
Q 30.078125 56 35.796875 56 
Q 45.21875 56 50.046875 50.171875 
Q 54.890625 44.34375 54.890625 33.015625 
z
" id="DejaVuSans-110"/>
      <path d="M 17.921875 72.90625 
L 17.921875 45.796875 
L 9.625 45.796875 
L 9.625 72.90625 
z
" id="DejaVuSans-39"/>
      <path d="M 44.28125 53.078125 
L 44.28125 44.578125 
Q 40.484375 46.53125 36.375 47.5 
Q 32.28125 48.484375 27.875 48.484375 
Q 21.1875 48.484375 17.84375 46.4375 
Q 14.5 44.390625 14.5 40.28125 
Q 14.5 37.15625 16.890625 35.375 
Q 19.28125 33.59375 26.515625 31.984375 
L 29.59375 31.296875 
Q 39.15625 29.25 43.1875 25.515625 
Q 47.21875 21.78125 47.21875 15.09375 
Q 47.21875 7.46875 41.1875 3.015625 
Q 35.15625 -1.421875 24.609375 -1.421875 
Q 20.21875 -1.421875 15.453125 -0.5625 
Q 10.6875 0.296875 5.421875 2 
L 5.421875 11.28125 
Q 10.40625 8.6875 15.234375 7.390625 
Q 20.0625 6.109375 24.8125 6.109375 
Q 31.15625 6.109375 34.5625 8.28125 
Q 37.984375 10.453125 37.984375 14.40625 
Q 37.984375 18.0625 35.515625 20.015625 
Q 33.0625 21.96875 24.703125 23.78125 
L 21.578125 24.515625 
Q 13.234375 26.265625 9.515625 29.90625 
Q 5.8125 33.546875 5.8125 39.890625 
Q 5.8125 47.609375 11.28125 51.796875 
Q 16.75 56 26.8125 56 
Q 31.78125 56 36.171875 55.265625 
Q 40.578125 54.546875 44.28125 53.078125 
z
" id="DejaVuSans-115"/>
      <path id="DejaVuSans-32"/>
      <path d="M 9.078125 75.984375 
L 18.109375 75.984375 
L 18.109375 31.109375 
L 44.921875 54.6875 
L 56.390625 54.6875 
L 27.390625 29.109375 
L 57.625 0 
L 45.90625 0 
L 18.109375 26.703125 
L 18.109375 0 
L 9.078125 0 
z
" id="DejaVuSans-107"/>
      <path d="M 48.78125 52.59375 
L 48.78125 44.1875 
Q 44.96875 46.296875 41.140625 47.34375 
Q 37.3125 48.390625 33.40625 48.390625 
Q 24.65625 48.390625 19.8125 42.84375 
Q 14.984375 37.3125 14.984375 27.296875 
Q 14.984375 17.28125 19.8125 11.734375 
Q 24.65625 6.203125 33.40625 6.203125 
Q 37.3125 6.203125 41.140625 7.25 
Q 44.96875 8.296875 48.78125 10.40625 
L 48.78125 2.09375 
Q 45.015625 0.34375 40.984375 -0.53125 
Q 36.96875 -1.421875 32.421875 -1.421875 
Q 20.0625 -1.421875 12.78125 6.34375 
Q 5.515625 14.109375 5.515625 27.296875 
Q 5.515625 40.671875 12.859375 48.328125 
Q 20.21875 56 33.015625 56 
Q 37.15625 56 41.109375 55.140625 
Q 45.0625 54.296875 48.78125 52.59375 
z
" id="DejaVuSans-99"/>
      <path d="M 30.609375 48.390625 
Q 23.390625 48.390625 19.1875 42.75 
Q 14.984375 37.109375 14.984375 27.296875 
Q 14.984375 17.484375 19.15625 11.84375 
Q 23.34375 6.203125 30.609375 6.203125 
Q 37.796875 6.203125 41.984375 11.859375 
Q 46.1875 17.53125 46.1875 27.296875 
Q 46.1875 37.015625 41.984375 42.703125 
Q 37.796875 48.390625 30.609375 48.390625 
z
M 30.609375 56 
Q 42.328125 56 49.015625 48.375 
Q 55.71875 40.765625 55.71875 27.296875 
Q 55.71875 13.875 49.015625 6.21875 
Q 42.328125 -1.421875 30.609375 -1.421875 
Q 18.84375 -1.421875 12.171875 6.21875 
Q 5.515625 13.875 5.515625 27.296875 
Q 5.515625 40.765625 12.171875 48.375 
Q 18.84375 56 30.609375 56 
z
" id="DejaVuSans-111"/>
      <path d="M 9.421875 75.984375 
L 18.40625 75.984375 
L 18.40625 0 
L 9.421875 0 
z
" id="DejaVuSans-108"/>
      <path d="M 18.3125 70.21875 
L 18.3125 54.6875 
L 36.8125 54.6875 
L 36.8125 47.703125 
L 18.3125 47.703125 
L 18.3125 18.015625 
Q 18.3125 11.328125 20.140625 9.421875 
Q 21.96875 7.515625 27.59375 7.515625 
L 36.8125 7.515625 
L 36.8125 0 
L 27.59375 0 
Q 17.1875 0 13.234375 3.875 
Q 9.28125 7.765625 9.28125 18.015625 
L 9.28125 47.703125 
L 2.6875 47.703125 
L 2.6875 54.6875 
L 9.28125 54.6875 
L 9.28125 70.21875 
z
" id="DejaVuSans-116"/>
      <path d="M 9.421875 54.6875 
L 18.40625 54.6875 
L 18.40625 0 
L 9.421875 0 
z
M 9.421875 75.984375 
L 18.40625 75.984375 
L 18.40625 64.59375 
L 9.421875 64.59375 
z
" id="DejaVuSans-105"/>
     </defs>
     <g transform="translate(17.837813 216.056406)rotate(-90)scale(0.14 -0.14)">
      <use xlink:href="#DejaVuSans-83"/>
      <use x="63.476562" xlink:href="#DejaVuSans-112"/>
      <use x="126.953125" xlink:href="#DejaVuSans-101"/>
      <use x="188.476562" xlink:href="#DejaVuSans-97"/>
      <use x="249.755859" xlink:href="#DejaVuSans-114"/>
      <use x="290.853516" xlink:href="#DejaVuSans-109"/>
      <use x="388.265625" xlink:href="#DejaVuSans-97"/>
      <use x="449.544922" xlink:href="#DejaVuSans-110"/>
      <use x="512.923828" xlink:href="#DejaVuSans-39"/>
      <use x="540.414062" xlink:href="#DejaVuSans-115"/>
      <use x="592.513672" xlink:href="#DejaVuSans-32"/>
      <use x="624.300781" xlink:href="#DejaVuSans-114"/>
      <use x="665.414062" xlink:href="#DejaVuSans-97"/>
      <use x="726.693359" xlink:href="#DejaVuSans-110"/>
      <use x="790.072266" xlink:href="#DejaVuSans-107"/>
      <use x="847.982422" xlink:href="#DejaVuSans-32"/>
      <use x="879.769531" xlink:href="#DejaVuSans-99"/>
      <use x="934.75" xlink:href="#DejaVuSans-111"/>
      <use x="995.931641" xlink:href="#DejaVuSans-114"/>
      <use x="1037.029297" xlink:href="#DejaVuSans-114"/>
      <use x="1078.111328" xlink:href="#DejaVuSans-101"/>
      <use x="1139.634766" xlink:href="#DejaVuSans-108"/>
      <use x="1167.417969" xlink:href="#DejaVuSans-97"/>
      <use x="1228.697266" xlink:href="#DejaVuSans-116"/>
      <use x="1267.90625" xlink:href="#DejaVuSans-105"/>
      <use x="1295.689453" xlink:href="#DejaVuSans-111"/>
      <use x="1356.871094" xlink:href="#DejaVuSans-110"/>
     </g>
    </g>
   </g>
   <g id="PathCollection_1">
    <path clip-path="url(#p15e3cc0ccf)" d="M 79.529659 157.871668 
C 79.999719 157.871668 80.45059 157.684911 80.782973 157.352528 
C 81.115356 157.020146 81.302113 156.569275 81.302113 156.099214 
C 81.302113 155.629154 81.115356 155.178283 80.782973 154.8459 
C 80.45059 154.513517 79.999719 154.326761 79.529659 154.326761 
C 79.059599 154.326761 78.608728 154.513517 78.276345 154.8459 
C 77.943962 155.178283 77.757205 155.629154 77.757205 156.099214 
C 77.757205 156.569275 77.943962 157.020146 78.276345 157.352528 
C 78.608728 157.684911 79.059599 157.871668 79.529659 157.871668 
z
" style="fill:#4ab668;stroke:#4ab668;stroke-width:0.886227;"/>
    <path clip-path="url(#p15e3cc0ccf)" d="M 79.529659 150.19503 
C 79.999719 150.19503 80.45059 150.008273 80.782973 149.67589 
C 81.115356 149.343507 81.302113 148.892636 81.302113 148.422576 
C 81.302113 147.952516 81.115356 147.501644 80.782973 147.169262 
C 80.45059 146.836879 79.999719 146.650122 79.529659 146.650122 
C 79.059599 146.650122 78.608728 146.836879 78.276345 147.169262 
C 77.943962 147.501644 77.757205 147.952516 77.757205 148.422576 
C 77.757205 148.892636 77.943962 149.343507 78.276345 149.67589 
C 78.608728 150.008273 79.059599 150.19503 79.529659 150.19503 
z
" style="fill:#0091cc;stroke:#0091cc;stroke-width:0.886227;"/>
    <path clip-path="url(#p15e3cc0ccf)" d="M 100.888511 172.476583 
C 101.358571 172.476583 101.809442 172.289826 102.141825 171.957444 
C 102.474208 171.625061 102.660965 171.17419 102.660965 170.70413 
C 102.660965 170.234069 102.474208 169.783198 102.141825 169.450815 
C 101.809442 169.118433 101.358571 168.931676 100.888511 168.931676 
C 100.418451 168.931676 99.967579 169.118433 99.635197 169.450815 
C 99.302814 169.783198 99.116057 170.234069 99.116057 170.70413 
C 99.116057 171.17419 99.302814 171.625061 99.635197 171.957444 
C 99.967579 172.289826 100.418451 172.476583 100.888511 172.476583 
z
" style="fill:#4ab668;stroke:#4ab668;stroke-width:0.886227;"/>
    <path clip-path="url(#p15e3cc0ccf)" d="M 100.888511 168.436421 
C 101.358571 168.436421 101.809442 168.249665 102.141825 167.917282 
C 102.474208 167.584899 102.660965 167.134028 102.660965 166.663968 
C 102.660965 166.193907 102.474208 165.743036 102.141825 165.410653 
C 101.809442 165.078271 101.358571 164.891514 100.888511 164.891514 
C 100.418451 164.891514 99.967579 165.078271 99.635197 165.410653 
C 99.302814 165.743036 99.116057 166.193907 99.116057 166.663968 
C 99.116057 167.134028 99.302814 167.584899 99.635197 167.917282 
C 99.967579 168.249665 100.418451 168.436421 100.888511 168.436421 
z
" style="fill:#0091cc;stroke:#0091cc;stroke-width:0.886227;"/>
    <path clip-path="url(#p15e3cc0ccf)" d="M 122.247362 139.6146 
C 122.717423 139.6146 123.168294 139.427843 123.500677 139.09546 
C 123.833059 138.763078 124.019816 138.312206 124.019816 137.842146 
C 124.019816 137.372086 123.833059 136.921215 123.500677 136.588832 
C 123.168294 136.256449 122.717423 136.069692 122.247362 136.069692 
C 121.777302 136.069692 121.326431 136.256449 120.994048 136.588832 
C 120.661666 136.921215 120.474909 137.372086 120.474909 137.842146 
C 120.474909 138.312206 120.661666 138.763078 120.994048 139.09546 
C 121.326431 139.427843 121.777302 139.6146 122.247362 139.6146 
z
" style="fill:#4ab668;stroke:#4ab668;stroke-width:0.886227;"/>
    <path clip-path="url(#p15e3cc0ccf)" d="M 122.247362 132.304036 
C 122.717423 132.304036 123.168294 132.117279 123.500677 131.784896 
C 123.833059 131.452513 124.019816 131.001642 124.019816 130.531582 
C 124.019816 130.061522 123.833059 129.610651 123.500677 129.278268 
C 123.168294 128.945885 122.717423 128.759128 122.247362 128.759128 
C 121.777302 128.759128 121.326431 128.945885 120.994048 129.278268 
C 120.661666 129.610651 120.474909 130.061522 120.474909 130.531582 
C 120.474909 131.001642 120.661666 131.452513 120.994048 131.784896 
C 121.326431 132.117279 121.777302 132.304036 122.247362 132.304036 
z
" style="fill:#0091cc;stroke:#0091cc;stroke-width:0.886227;"/>
    <path clip-path="url(#p15e3cc0ccf)" d="M 143.606214 167.253009 
C 144.076274 167.253009 144.527145 167.066252 144.859528 166.733869 
C 145.191911 166.401486 145.378668 165.950615 145.378668 165.480555 
C 145.378668 165.010495 145.191911 164.559624 144.859528 164.227241 
C 144.527145 163.894858 144.076274 163.708101 143.606214 163.708101 
C 143.136154 163.708101 142.685283 163.894858 142.3529 164.227241 
C 142.020517 164.559624 141.83376 165.010495 141.83376 165.480555 
C 141.83376 165.950615 142.020517 166.401486 142.3529 166.733869 
C 142.685283 167.066252 143.136154 167.253009 143.606214 167.253009 
z
" style="fill:#4ab668;stroke:#4ab668;stroke-width:0.886227;"/>
    <path clip-path="url(#p15e3cc0ccf)" d="M 143.606214 157.642352 
C 144.076274 157.642352 144.527145 157.455595 144.859528 157.123212 
C 145.191911 156.79083 145.378668 156.339958 145.378668 155.869898 
C 145.378668 155.399838 145.191911 154.948967 144.859528 154.616584 
C 144.527145 154.284201 144.076274 154.097444 143.606214 154.097444 
C 143.136154 154.097444 142.685283 154.284201 142.3529 154.616584 
C 142.020517 154.948967 141.83376 155.399838 141.83376 155.869898 
C 141.83376 156.339958 142.020517 156.79083 142.3529 157.123212 
C 142.685283 157.455595 143.136154 157.642352 143.606214 157.642352 
z
" style="fill:#0091cc;stroke:#0091cc;stroke-width:0.886227;"/>
    <path clip-path="url(#p15e3cc0ccf)" d="M 164.965066 168.836472 
C 165.435126 168.836472 165.885997 168.649715 166.21838 168.317332 
C 166.550763 167.98495 166.73752 167.534078 166.73752 167.064018 
C 166.73752 166.593958 166.550763 166.143087 166.21838 165.810704 
C 165.885997 165.478321 165.435126 165.291564 164.965066 165.291564 
C 164.495006 165.291564 164.044134 165.478321 163.711752 165.810704 
C 163.379369 166.143087 163.192612 166.593958 163.192612 167.064018 
C 163.192612 167.534078 163.379369 167.98495 163.711752 168.317332 
C 164.044134 168.649715 164.495006 168.836472 164.965066 168.836472 
z
" style="fill:#4ab668;stroke:#4ab668;stroke-width:0.886227;"/>
    <path clip-path="url(#p15e3cc0ccf)" d="M 164.965066 160.01673 
C 165.435126 160.01673 165.885997 159.829973 166.21838 159.497591 
C 166.550763 159.165208 166.73752 158.714337 166.73752 158.244277 
C 166.73752 157.774216 166.550763 157.323345 166.21838 156.990962 
C 165.885997 156.65858 165.435126 156.471823 164.965066 156.471823 
C 164.495006 156.471823 164.044134 156.65858 163.711752 156.990962 
C 163.379369 157.323345 163.192612 157.774216 163.192612 158.244277 
C 163.192612 158.714337 163.379369 159.165208 163.711752 159.497591 
C 164.044134 159.829973 164.495006 160.01673 164.965066 160.01673 
z
" style="fill:#0091cc;stroke:#0091cc;stroke-width:0.886227;"/>
    <path clip-path="url(#p15e3cc0ccf)" d="M 186.323917 152.051092 
C 186.793978 152.051092 187.244849 151.864335 187.577232 151.531953 
C 187.909614 151.19957 188.096371 150.748699 188.096371 150.278638 
C 188.096371 149.808578 187.909614 149.357707 187.577232 149.025324 
C 187.244849 148.692942 186.793978 148.506185 186.323917 148.506185 
C 185.853857 148.506185 185.402986 148.692942 185.070603 149.025324 
C 184.738221 149.357707 184.551464 149.808578 184.551464 150.278638 
C 184.551464 150.748699 184.738221 151.19957 185.070603 151.531953 
C 185.402986 151.864335 185.853857 152.051092 186.323917 152.051092 
z
" style="fill:#4ab668;stroke:#4ab668;stroke-width:0.886227;"/>
    <path clip-path="url(#p15e3cc0ccf)" d="M 186.323917 148.045869 
C 186.793978 148.045869 187.244849 147.859112 187.577232 147.526729 
C 187.909614 147.194346 188.096371 146.743475 188.096371 146.273415 
C 188.096371 145.803354 187.909614 145.352483 187.577232 145.020101 
C 187.244849 144.687718 186.793978 144.500961 186.323917 144.500961 
C 185.853857 144.500961 185.402986 144.687718 185.070603 145.020101 
C 184.738221 145.352483 184.551464 145.803354 184.551464 146.273415 
C 184.551464 146.743475 184.738221 147.194346 185.070603 147.526729 
C 185.402986 147.859112 185.853857 148.045869 186.323917 148.045869 
z
" style="fill:#0091cc;stroke:#0091cc;stroke-width:0.886227;"/>
    <path clip-path="url(#p15e3cc0ccf)" d="M 207.682769 140.56216 
C 208.152829 140.56216 208.6037 140.375403 208.936083 140.04302 
C 209.268466 139.710637 209.455223 139.259766 209.455223 138.789706 
C 209.455223 138.319646 209.268466 137.868774 208.936083 137.536392 
C 208.6037 137.204009 208.152829 137.017252 207.682769 137.017252 
C 207.212709 137.017252 206.761838 137.204009 206.429455 137.536392 
C 206.097072 137.868774 205.910315 138.319646 205.910315 138.789706 
C 205.910315 139.259766 206.097072 139.710637 206.429455 140.04302 
C 206.761838 140.375403 207.212709 140.56216 207.682769 140.56216 
z
" style="fill:#4ab668;stroke:#4ab668;stroke-width:0.886227;"/>
    <path clip-path="url(#p15e3cc0ccf)" d="M 207.682769 143.225257 
C 208.152829 143.225257 208.6037 143.0385 208.936083 142.706117 
C 209.268466 142.373734 209.455223 141.922863 209.455223 141.452803 
C 209.455223 140.982743 209.268466 140.531872 208.936083 140.199489 
C 208.6037 139.867106 208.152829 139.680349 207.682769 139.680349 
C 207.212709 139.680349 206.761838 139.867106 206.429455 140.199489 
C 206.097072 140.531872 205.910315 140.982743 205.910315 141.452803 
C 205.910315 141.922863 206.097072 142.373734 206.429455 142.706117 
C 206.761838 143.0385 207.212709 143.225257 207.682769 143.225257 
z
" style="fill:#0091cc;stroke:#0091cc;stroke-width:0.886227;"/>
    <path clip-path="url(#p15e3cc0ccf)" d="M 229.041621 125.212613 
C 229.511681 125.212613 229.962552 125.025856 230.294935 124.693473 
C 230.627318 124.36109 230.814075 123.910219 230.814075 123.440159 
C 230.814075 122.970099 230.627318 122.519228 230.294935 122.186845 
C 229.962552 121.854462 229.511681 121.667705 229.041621 121.667705 
C 228.571561 121.667705 228.120689 121.854462 227.788307 122.186845 
C 227.455924 122.519228 227.269167 122.970099 227.269167 123.440159 
C 227.269167 123.910219 227.455924 124.36109 227.788307 124.693473 
C 228.120689 125.025856 228.571561 125.212613 229.041621 125.212613 
z
" style="fill:#4ab668;stroke:#4ab668;stroke-width:0.886227;"/>
    <path clip-path="url(#p15e3cc0ccf)" d="M 229.041621 124.868992 
C 229.511681 124.868992 229.962552 124.682235 230.294935 124.349852 
C 230.627318 124.01747 230.814075 123.566598 230.814075 123.096538 
C 230.814075 122.626478 230.627318 122.175607 230.294935 121.843224 
C 229.962552 121.510841 229.511681 121.324084 229.041621 121.324084 
C 228.571561 121.324084 228.120689 121.510841 227.788307 121.843224 
C 227.455924 122.175607 227.269167 122.626478 227.269167 123.096538 
C 227.269167 123.566598 227.455924 124.01747 227.788307 124.349852 
C 228.120689 124.682235 228.571561 124.868992 229.041621 124.868992 
z
" style="fill:#0091cc;stroke:#0091cc;stroke-width:0.886227;"/>
    <path clip-path="url(#p15e3cc0ccf)" d="M 250.400472 138.048263 
C 250.870533 138.048263 251.321404 137.861506 251.653787 137.529124 
C 251.986169 137.196741 252.172926 136.74587 252.172926 136.275809 
C 252.172926 135.805749 251.986169 135.354878 251.653787 135.022495 
C 251.321404 134.690113 250.870533 134.503356 250.400472 134.503356 
C 249.930412 134.503356 249.479541 134.690113 249.147158 135.022495 
C 248.814776 135.354878 248.628019 135.805749 248.628019 136.275809 
C 248.628019 136.74587 248.814776 137.196741 249.147158 137.529124 
C 249.479541 137.861506 249.930412 138.048263 250.400472 138.048263 
z
" style="fill:#4ab668;stroke:#4ab668;stroke-width:0.886227;"/>
    <path clip-path="url(#p15e3cc0ccf)" d="M 250.400472 135.871437 
C 250.870533 135.871437 251.321404 135.68468 251.653787 135.352297 
C 251.986169 135.019915 252.172926 134.569043 252.172926 134.098983 
C 252.172926 133.628923 251.986169 133.178052 251.653787 132.845669 
C 251.321404 132.513286 250.870533 132.326529 250.400472 132.326529 
C 249.930412 132.326529 249.479541 132.513286 249.147158 132.845669 
C 248.814776 133.178052 248.628019 133.628923 248.628019 134.098983 
C 248.628019 134.569043 248.814776 135.019915 249.147158 135.352297 
C 249.479541 135.68468 249.930412 135.871437 250.400472 135.871437 
z
" style="fill:#0091cc;stroke:#0091cc;stroke-width:0.886227;"/>
    <path clip-path="url(#p15e3cc0ccf)" d="M 271.759324 130.141402 
C 272.229384 130.141402 272.680256 129.954645 273.012638 129.622263 
C 273.345021 129.28988 273.531778 128.839009 273.531778 128.368948 
C 273.531778 127.898888 273.345021 127.448017 273.012638 127.115634 
C 272.680256 126.783251 272.229384 126.596495 271.759324 126.596495 
C 271.289264 126.596495 270.838393 126.783251 270.50601 127.115634 
C 270.173627 127.448017 269.98687 127.898888 269.98687 128.368948 
C 269.98687 128.839009 270.173627 129.28988 270.50601 129.622263 
C 270.838393 129.954645 271.289264 130.141402 271.759324 130.141402 
z
" style="fill:#4ab668;stroke:#4ab668;stroke-width:0.886227;"/>
    <path clip-path="url(#p15e3cc0ccf)" d="M 271.759324 130.288387 
C 272.229384 130.288387 272.680256 130.10163 273.012638 129.769247 
C 273.345021 129.436865 273.531778 128.985994 273.531778 128.515933 
C 273.531778 128.045873 273.345021 127.595002 273.012638 127.262619 
C 272.680256 126.930236 272.229384 126.74348 271.759324 126.74348 
C 271.289264 126.74348 270.838393 126.930236 270.50601 127.262619 
C 270.173627 127.595002 269.98687 128.045873 269.98687 128.515933 
C 269.98687 128.985994 270.173627 129.436865 270.50601 129.769247 
C 270.838393 130.10163 271.289264 130.288387 271.759324 130.288387 
z
" style="fill:#0091cc;stroke:#0091cc;stroke-width:0.886227;"/>
    <path clip-path="url(#p15e3cc0ccf)" d="M 293.118176 131.84737 
C 293.588236 131.84737 294.039107 131.660613 294.37149 131.32823 
C 294.703873 130.995847 294.89063 130.544976 294.89063 130.074916 
C 294.89063 129.604856 294.703873 129.153985 294.37149 128.821602 
C 294.039107 128.489219 293.588236 128.302462 293.118176 128.302462 
C 292.648116 128.302462 292.197244 128.489219 291.864862 128.821602 
C 291.532479 129.153985 291.345722 129.604856 291.345722 130.074916 
C 291.345722 130.544976 291.532479 130.995847 291.864862 131.32823 
C 292.197244 131.660613 292.648116 131.84737 293.118176 131.84737 
z
" style="fill:#4ab668;stroke:#4ab668;stroke-width:0.886227;"/>
    <path clip-path="url(#p15e3cc0ccf)" d="M 293.118176 132.131657 
C 293.588236 132.131657 294.039107 131.9449 294.37149 131.612517 
C 294.703873 131.280134 294.89063 130.829263 294.89063 130.359203 
C 294.89063 129.889143 294.703873 129.438272 294.37149 129.105889 
C 294.039107 128.773506 293.588236 128.586749 293.118176 128.586749 
C 292.648116 128.586749 292.197244 128.773506 291.864862 129.105889 
C 291.532479 129.438272 291.345722 129.889143 291.345722 130.359203 
C 291.345722 130.829263 291.532479 131.280134 291.864862 131.612517 
C 292.197244 131.9449 292.648116 132.131657 293.118176 132.131657 
z
" style="fill:#0091cc;stroke:#0091cc;stroke-width:0.886227;"/>
    <path clip-path="url(#p15e3cc0ccf)" d="M 314.477028 141.47527 
C 314.947088 141.47527 315.397959 141.288513 315.730342 140.956131 
C 316.062724 140.623748 316.249481 140.172877 316.249481 139.702816 
C 316.249481 139.232756 316.062724 138.781885 315.730342 138.449502 
C 315.397959 138.117119 314.947088 137.930363 314.477028 137.930363 
C 314.006967 137.930363 313.556096 138.117119 313.223713 138.449502 
C 312.891331 138.781885 312.704574 139.232756 312.704574 139.702816 
C 312.704574 140.172877 312.891331 140.623748 313.223713 140.956131 
C 313.556096 141.288513 314.006967 141.47527 314.477028 141.47527 
z
" style="fill:#4ab668;stroke:#4ab668;stroke-width:0.886227;"/>
    <path clip-path="url(#p15e3cc0ccf)" d="M 314.477028 140.446928 
C 314.947088 140.446928 315.397959 140.260171 315.730342 139.927789 
C 316.062724 139.595406 316.249481 139.144535 316.249481 138.674475 
C 316.249481 138.204414 316.062724 137.753543 315.730342 137.42116 
C 315.397959 137.088778 314.947088 136.902021 314.477028 136.902021 
C 314.006967 136.902021 313.556096 137.088778 313.223713 137.42116 
C 312.891331 137.753543 312.704574 138.204414 312.704574 138.674475 
C 312.704574 139.144535 312.891331 139.595406 313.223713 139.927789 
C 313.556096 140.260171 314.006967 140.446928 314.477028 140.446928 
z
" style="fill:#0091cc;stroke:#0091cc;stroke-width:0.886227;"/>
    <path clip-path="url(#p15e3cc0ccf)" d="M 335.835879 131.253659 
C 336.305939 131.253659 336.756811 131.066902 337.089193 130.734519 
C 337.421576 130.402137 337.608333 129.951266 337.608333 129.481205 
C 337.608333 129.011145 337.421576 128.560274 337.089193 128.227891 
C 336.756811 127.895508 336.305939 127.708751 335.835879 127.708751 
C 335.365819 127.708751 334.914948 127.895508 334.582565 128.227891 
C 334.250182 128.560274 334.063425 129.011145 334.063425 129.481205 
C 334.063425 129.951266 334.250182 130.402137 334.582565 130.734519 
C 334.914948 131.066902 335.365819 131.253659 335.835879 131.253659 
z
" style="fill:#4ab668;stroke:#4ab668;stroke-width:0.886227;"/>
    <path clip-path="url(#p15e3cc0ccf)" d="M 335.835879 131.18573 
C 336.305939 131.18573 336.756811 130.998973 337.089193 130.66659 
C 337.421576 130.334207 337.608333 129.883336 337.608333 129.413276 
C 337.608333 128.943215 337.421576 128.492344 337.089193 128.159962 
C 336.756811 127.827579 336.305939 127.640822 335.835879 127.640822 
C 335.365819 127.640822 334.914948 127.827579 334.582565 128.159962 
C 334.250182 128.492344 334.063425 128.943215 334.063425 129.413276 
C 334.063425 129.883336 334.250182 130.334207 334.582565 130.66659 
C 334.914948 130.998973 335.365819 131.18573 335.835879 131.18573 
z
" style="fill:#0091cc;stroke:#0091cc;stroke-width:0.886227;"/>
    <path clip-path="url(#p15e3cc0ccf)" d="M 357.194731 128.837853 
C 357.664791 128.837853 358.115662 128.651096 358.448045 128.318713 
C 358.780428 127.986331 358.967185 127.53546 358.967185 127.065399 
C 358.967185 126.595339 358.780428 126.144468 358.448045 125.812085 
C 358.115662 125.479702 357.664791 125.292945 357.194731 125.292945 
C 356.724671 125.292945 356.2738 125.479702 355.941417 125.812085 
C 355.609034 126.144468 355.422277 126.595339 355.422277 127.065399 
C 355.422277 127.53546 355.609034 127.986331 355.941417 128.318713 
C 356.2738 128.651096 356.724671 128.837853 357.194731 128.837853 
z
" style="fill:#4ab668;stroke:#4ab668;stroke-width:0.886227;"/>
    <path clip-path="url(#p15e3cc0ccf)" d="M 357.194731 128.217558 
C 357.664791 128.217558 358.115662 128.030801 358.448045 127.698419 
C 358.780428 127.366036 358.967185 126.915165 358.967185 126.445105 
C 358.967185 125.975044 358.780428 125.524173 358.448045 125.19179 
C 358.115662 124.859408 357.664791 124.672651 357.194731 124.672651 
C 356.724671 124.672651 356.2738 124.859408 355.941417 125.19179 
C 355.609034 125.524173 355.422277 125.975044 355.422277 126.445105 
C 355.422277 126.915165 355.609034 127.366036 355.941417 127.698419 
C 356.2738 128.030801 356.724671 128.217558 357.194731 128.217558 
z
" style="fill:#0091cc;stroke:#0091cc;stroke-width:0.886227;"/>
    <path clip-path="url(#p15e3cc0ccf)" d="M 378.553583 121.055165 
C 379.023643 121.055165 379.474514 120.868408 379.806897 120.536025 
C 380.139279 120.203642 380.326036 119.752771 380.326036 119.282711 
C 380.326036 118.81265 380.139279 118.361779 379.806897 118.029397 
C 379.474514 117.697014 379.023643 117.510257 378.553583 117.510257 
C 378.083522 117.510257 377.632651 117.697014 377.300268 118.029397 
C 376.967886 118.361779 376.781129 118.81265 376.781129 119.282711 
C 376.781129 119.752771 376.967886 120.203642 377.300268 120.536025 
C 377.632651 120.868408 378.083522 121.055165 378.553583 121.055165 
z
" style="fill:#4ab668;stroke:#4ab668;stroke-width:0.886227;"/>
    <path clip-path="url(#p15e3cc0ccf)" d="M 378.553583 125.56692 
C 379.023643 125.56692 379.474514 125.380163 379.806897 125.047781 
C 380.139279 124.715398 380.326036 124.264527 380.326036 123.794467 
C 380.326036 123.324406 380.139279 122.873535 379.806897 122.541152 
C 379.474514 122.20877 379.023643 122.022013 378.553583 122.022013 
C 378.083522 122.022013 377.632651 122.20877 377.300268 122.541152 
C 376.967886 122.873535 376.781129 123.324406 376.781129 123.794467 
C 376.781129 124.264527 376.967886 124.715398 377.300268 125.047781 
C 377.632651 125.380163 378.083522 125.56692 378.553583 125.56692 
z
" style="fill:#0091cc;stroke:#0091cc;stroke-width:0.886227;"/>
    <path clip-path="url(#p15e3cc0ccf)" d="M 399.912434 123.069135 
C 400.382494 123.069135 400.833366 122.882378 401.165748 122.549995 
C 401.498131 122.217612 401.684888 121.766741 401.684888 121.296681 
C 401.684888 120.826621 401.498131 120.37575 401.165748 120.043367 
C 400.833366 119.710984 400.382494 119.524227 399.912434 119.524227 
C 399.442374 119.524227 398.991503 119.710984 398.65912 120.043367 
C 398.326737 120.37575 398.13998 120.826621 398.13998 121.296681 
C 398.13998 121.766741 398.326737 122.217612 398.65912 122.549995 
C 398.991503 122.882378 399.442374 123.069135 399.912434 123.069135 
z
" style="fill:#4ab668;stroke:#4ab668;stroke-width:0.886227;"/>
    <path clip-path="url(#p15e3cc0ccf)" d="M 399.912434 122.49144 
C 400.382494 122.49144 400.833366 122.304683 401.165748 121.9723 
C 401.498131 121.639917 401.684888 121.189046 401.684888 120.718986 
C 401.684888 120.248925 401.498131 119.798054 401.165748 119.465672 
C 400.833366 119.133289 400.382494 118.946532 399.912434 118.946532 
C 399.442374 118.946532 398.991503 119.133289 398.65912 119.465672 
C 398.326737 119.798054 398.13998 120.248925 398.13998 120.718986 
C 398.13998 121.189046 398.326737 121.639917 398.65912 121.9723 
C 398.991503 122.304683 399.442374 122.49144 399.912434 122.49144 
z
" style="fill:#0091cc;stroke:#0091cc;stroke-width:0.886227;"/>
    <path clip-path="url(#p15e3cc0ccf)" d="M 421.271286 123.935211 
C 421.741346 123.935211 422.192217 123.748454 422.5246 123.416071 
C 422.856983 123.083689 423.04374 122.632818 423.04374 122.162757 
C 423.04374 121.692697 422.856983 121.241826 422.5246 120.909443 
C 422.192217 120.57706 421.741346 120.390303 421.271286 120.390303 
C 420.801226 120.390303 420.350355 120.57706 420.017972 120.909443 
C 419.685589 121.241826 419.498832 121.692697 419.498832 122.162757 
C 419.498832 122.632818 419.685589 123.083689 420.017972 123.416071 
C 420.350355 123.748454 420.801226 123.935211 421.271286 123.935211 
z
" style="fill:#4ab668;stroke:#4ab668;stroke-width:0.886227;"/>
    <path clip-path="url(#p15e3cc0ccf)" d="M 421.271286 124.51344 
C 421.741346 124.51344 422.192217 124.326683 422.5246 123.9943 
C 422.856983 123.661917 423.04374 123.211046 423.04374 122.740986 
C 423.04374 122.270926 422.856983 121.820055 422.5246 121.487672 
C 422.192217 121.155289 421.741346 120.968532 421.271286 120.968532 
C 420.801226 120.968532 420.350355 121.155289 420.017972 121.487672 
C 419.685589 121.820055 419.498832 122.270926 419.498832 122.740986 
C 419.498832 123.211046 419.685589 123.661917 420.017972 123.9943 
C 420.350355 124.326683 420.801226 124.51344 421.271286 124.51344 
z
" style="fill:#0091cc;stroke:#0091cc;stroke-width:0.886227;"/>
    <path clip-path="url(#p15e3cc0ccf)" d="M 442.630138 122.773825 
C 443.100198 122.773825 443.551069 122.587068 443.883452 122.254685 
C 444.215834 121.922302 444.402591 121.471431 444.402591 121.001371 
C 444.402591 120.531311 444.215834 120.08044 443.883452 119.748057 
C 443.551069 119.415674 443.100198 119.228917 442.630138 119.228917 
C 442.160077 119.228917 441.709206 119.415674 441.376823 119.748057 
C 441.044441 120.08044 440.857684 120.531311 440.857684 121.001371 
C 440.857684 121.471431 441.044441 121.922302 441.376823 122.254685 
C 441.709206 122.587068 442.160077 122.773825 442.630138 122.773825 
z
" style="fill:#4ab668;stroke:#4ab668;stroke-width:0.886227;"/>
    <path clip-path="url(#p15e3cc0ccf)" d="M 442.630138 126.331623 
C 443.100198 126.331623 443.551069 126.144866 443.883452 125.812483 
C 444.215834 125.480101 444.402591 125.02923 444.402591 124.559169 
C 444.402591 124.089109 444.215834 123.638238 443.883452 123.305855 
C 443.551069 122.973472 443.100198 122.786716 442.630138 122.786716 
C 442.160077 122.786716 441.709206 122.973472 441.376823 123.305855 
C 441.044441 123.638238 440.857684 124.089109 440.857684 124.559169 
C 440.857684 125.02923 441.044441 125.480101 441.376823 125.812483 
C 441.709206 126.144866 442.160077 126.331623 442.630138 126.331623 
z
" style="fill:#0091cc;stroke:#0091cc;stroke-width:0.886227;"/>
    <path clip-path="url(#p15e3cc0ccf)" d="M 463.988989 133.014937 
C 464.459049 133.014937 464.909921 132.82818 465.242303 132.495797 
C 465.574686 132.163415 465.761443 131.712544 465.761443 131.242483 
C 465.761443 130.772423 465.574686 130.321552 465.242303 129.989169 
C 464.909921 129.656786 464.459049 129.470029 463.988989 129.470029 
C 463.518929 129.470029 463.068058 129.656786 462.735675 129.989169 
C 462.403292 130.321552 462.216535 130.772423 462.216535 131.242483 
C 462.216535 131.712544 462.403292 132.163415 462.735675 132.495797 
C 463.068058 132.82818 463.518929 133.014937 463.988989 133.014937 
z
" style="fill:#4ab668;stroke:#4ab668;stroke-width:0.886227;"/>
    <path clip-path="url(#p15e3cc0ccf)" d="M 463.988989 130.755317 
C 464.459049 130.755317 464.909921 130.56856 465.242303 130.236177 
C 465.574686 129.903794 465.761443 129.452923 465.761443 128.982863 
C 465.761443 128.512803 465.574686 128.061931 465.242303 127.729549 
C 464.909921 127.397166 464.459049 127.210409 463.988989 127.210409 
C 463.518929 127.210409 463.068058 127.397166 462.735675 127.729549 
C 462.403292 128.061931 462.216535 128.512803 462.216535 128.982863 
C 462.216535 129.452923 462.403292 129.903794 462.735675 130.236177 
C 463.068058 130.56856 463.518929 130.755317 463.988989 130.755317 
z
" style="fill:#0091cc;stroke:#0091cc;stroke-width:0.886227;"/>
    <path clip-path="url(#p15e3cc0ccf)" d="M 485.347841 114.254127 
C 485.817901 114.254127 486.268772 114.06737 486.601155 113.734987 
C 486.933538 113.402605 487.120295 112.951734 487.120295 112.481673 
C 487.120295 112.011613 486.933538 111.560742 486.601155 111.228359 
C 486.268772 110.895976 485.817901 110.709219 485.347841 110.709219 
C 484.877781 110.709219 484.42691 110.895976 484.094527 111.228359 
C 483.762144 111.560742 483.575387 112.011613 483.575387 112.481673 
C 483.575387 112.951734 483.762144 113.402605 484.094527 113.734987 
C 484.42691 114.06737 484.877781 114.254127 485.347841 114.254127 
z
" style="fill:#4ab668;stroke:#4ab668;stroke-width:0.886227;"/>
    <path clip-path="url(#p15e3cc0ccf)" d="M 485.347841 110.77801 
C 485.817901 110.77801 486.268772 110.591253 486.601155 110.25887 
C 486.933538 109.926487 487.120295 109.475616 487.120295 109.005556 
C 487.120295 108.535496 486.933538 108.084624 486.601155 107.752242 
C 486.268772 107.419859 485.817901 107.233102 485.347841 107.233102 
C 484.877781 107.233102 484.42691 107.419859 484.094527 107.752242 
C 483.762144 108.084624 483.575387 108.535496 483.575387 109.005556 
C 483.575387 109.475616 483.762144 109.926487 484.094527 110.25887 
C 484.42691 110.591253 484.877781 110.77801 485.347841 110.77801 
z
" style="fill:#0091cc;stroke:#0091cc;stroke-width:0.886227;"/>
   </g>
   <g id="line2d_18">
    <path clip-path="url(#p15e3cc0ccf)" d="M 79.529659 156.099214 
L 100.888511 170.70413 
L 122.247362 137.842146 
L 143.606214 165.480555 
L 164.965066 167.064018 
L 186.323917 150.278638 
L 207.682769 138.789706 
L 229.041621 123.440159 
L 250.400472 136.275809 
L 271.759324 128.368948 
L 293.118176 130.074916 
L 314.477028 139.702816 
L 335.835879 129.481205 
L 357.194731 127.065399 
L 378.553583 119.282711 
L 399.912434 121.296681 
L 421.271286 122.162757 
L 442.630138 121.001371 
L 463.988989 131.242483 
L 485.347841 112.481673 
" style="fill:none;stroke:#4ab668;stroke-width:0.886227;"/>
   </g>
   <g id="line2d_19">
    <path clip-path="url(#p15e3cc0ccf)" d="M 79.529659 148.422576 
L 100.888511 166.663968 
L 122.247362 130.531582 
L 143.606214 155.869898 
L 164.965066 158.244277 
L 186.323917 146.273415 
L 207.682769 141.452803 
L 229.041621 123.096538 
L 250.400472 134.098983 
L 271.759324 128.515933 
L 293.118176 130.359203 
L 314.477028 138.674475 
L 335.835879 129.413276 
L 357.194731 126.445105 
L 378.553583 123.794467 
L 399.912434 120.718986 
L 421.271286 122.740986 
L 442.630138 124.559169 
L 463.988989 128.982863 
L 485.347841 109.005556 
" style="fill:none;stroke:#0091cc;stroke-width:0.886227;"/>
   </g>
   <g id="patch_3">
    <path d="M 59.23875 228.96 
L 59.23875 7.2 
" style="fill:none;stroke:#000000;stroke-linecap:square;stroke-linejoin:miter;"/>
   </g>
   <g id="patch_4">
    <path d="M 59.23875 228.96 
L 505.63875 228.96 
" style="fill:none;stroke:#000000;stroke-linecap:square;stroke-linejoin:miter;"/>
   </g>
   <g id="LineCollection_1">
    <path clip-path="url(#p15e3cc0ccf)" d="M 59.23875 118.08 
L 505.63875 118.08 
" style="fill:none;stroke:#808080;stroke-dasharray:3.27904,1.417963;stroke-dashoffset:0;stroke-width:0.886227;"/>
   </g>
   <g id="patch_5">
    <path d="M 209.070313 226.854687 
L 514.207188 226.854687 
L 514.207188 150.425312 
L 209.070313 150.425312 
z
" style="fill:#ffffff;"/>
   </g>
   <g id="text_12">
    <!-- Journal metric -->
    <defs>
     <path d="M 9.8125 72.90625 
L 19.671875 72.90625 
L 19.671875 5.078125 
Q 19.671875 -8.109375 14.671875 -14.0625 
Q 9.671875 -20.015625 -1.421875 -20.015625 
L -5.171875 -20.015625 
L -5.171875 -11.71875 
L -2.09375 -11.71875 
Q 4.4375 -11.71875 7.125 -8.046875 
Q 9.8125 -4.390625 9.8125 5.078125 
z
" id="DejaVuSans-74"/>
     <path d="M 8.5 21.578125 
L 8.5 54.6875 
L 17.484375 54.6875 
L 17.484375 21.921875 
Q 17.484375 14.15625 20.5 10.265625 
Q 23.53125 6.390625 29.59375 6.390625 
Q 36.859375 6.390625 41.078125 11.03125 
Q 45.3125 15.671875 45.3125 23.6875 
L 45.3125 54.6875 
L 54.296875 54.6875 
L 54.296875 0 
L 45.3125 0 
L 45.3125 8.40625 
Q 42.046875 3.421875 37.71875 1 
Q 33.40625 -1.421875 27.6875 -1.421875 
Q 18.265625 -1.421875 13.375 4.4375 
Q 8.5 10.296875 8.5 21.578125 
z
M 31.109375 56 
z
" id="DejaVuSans-117"/>
    </defs>
    <g transform="translate(221.470313 177.32625)scale(0.14 -0.14)">
     <use xlink:href="#DejaVuSans-74"/>
     <use x="29.492188" xlink:href="#DejaVuSans-111"/>
     <use x="90.673828" xlink:href="#DejaVuSans-117"/>
     <use x="154.052734" xlink:href="#DejaVuSans-114"/>
     <use x="195.150391" xlink:href="#DejaVuSans-110"/>
     <use x="258.529297" xlink:href="#DejaVuSans-97"/>
     <use x="319.808594" xlink:href="#DejaVuSans-108"/>
     <use x="347.591797" xlink:href="#DejaVuSans-32"/>
     <use x="379.378906" xlink:href="#DejaVuSans-109"/>
     <use x="476.791016" xlink:href="#DejaVuSans-101"/>
     <use x="538.314453" xlink:href="#DejaVuSans-116"/>
     <use x="577.523438" xlink:href="#DejaVuSans-114"/>
     <use x="618.636719" xlink:href="#DejaVuSans-105"/>
     <use x="646.419922" xlink:href="#DejaVuSans-99"/>
    </g>
   </g>
   <g id="patch_6">
    <path clip-path="url(#pa5d83bc587)" d="M 221.470313 196.614687 
L 237.310313 196.614687 
L 237.310313 180.774687 
L 221.470313 180.774687 
z
" style="fill:none;"/>
   </g>
   <g id="line2d_20">
    <path clip-path="url(#pa5d83bc587)" d="M 229.390313 188.694687 
" style="fill:none;stroke:#4c72b0;stroke-linecap:square;stroke-width:1.5;"/>
    <defs>
     <path d="M 0 1.772454 
C 0.47006 1.772454 0.920931 1.585697 1.253314 1.253314 
C 1.585697 0.920931 1.772454 0.47006 1.772454 0 
C 1.772454 -0.47006 1.585697 -0.920931 1.253314 -1.253314 
C 0.920931 -1.585697 0.47006 -1.772454 0 -1.772454 
C -0.47006 -1.772454 -0.920931 -1.585697 -1.253314 -1.253314 
C -1.585697 -0.920931 -1.772454 -0.47006 -1.772454 0 
C -1.772454 0.47006 -1.585697 0.920931 -1.253314 1.253314 
C -0.920931 1.585697 -0.47006 1.772454 0 1.772454 
z
" id="m19907a0379" style="stroke:#4ab668;stroke-width:0.886227;"/>
    </defs>
    <g clip-path="url(#pa5d83bc587)">
     <use style="fill:#4ab668;stroke:#4ab668;stroke-width:0.886227;" x="229.390313" xlink:href="#m19907a0379" y="188.694687"/>
    </g>
   </g>
   <g id="line2d_21">
    <path clip-path="url(#pa5d83bc587)" d="M 221.470313 188.694687 
L 237.310313 188.694687 
" style="fill:none;stroke:#4ab668;stroke-width:0.886227;"/>
   </g>
   <g id="text_13">
    <!-- Impact Per Publication (IPP) -->
    <defs>
     <path d="M 9.8125 72.90625 
L 19.671875 72.90625 
L 19.671875 0 
L 9.8125 0 
z
" id="DejaVuSans-73"/>
     <path d="M 19.671875 64.796875 
L 19.671875 37.40625 
L 32.078125 37.40625 
Q 38.96875 37.40625 42.71875 40.96875 
Q 46.484375 44.53125 46.484375 51.125 
Q 46.484375 57.671875 42.71875 61.234375 
Q 38.96875 64.796875 32.078125 64.796875 
z
M 9.8125 72.90625 
L 32.078125 72.90625 
Q 44.34375 72.90625 50.609375 67.359375 
Q 56.890625 61.8125 56.890625 51.125 
Q 56.890625 40.328125 50.609375 34.8125 
Q 44.34375 29.296875 32.078125 29.296875 
L 19.671875 29.296875 
L 19.671875 0 
L 9.8125 0 
z
" id="DejaVuSans-80"/>
     <path d="M 48.6875 27.296875 
Q 48.6875 37.203125 44.609375 42.84375 
Q 40.53125 48.484375 33.40625 48.484375 
Q 26.265625 48.484375 22.1875 42.84375 
Q 18.109375 37.203125 18.109375 27.296875 
Q 18.109375 17.390625 22.1875 11.75 
Q 26.265625 6.109375 33.40625 6.109375 
Q 40.53125 6.109375 44.609375 11.75 
Q 48.6875 17.390625 48.6875 27.296875 
z
M 18.109375 46.390625 
Q 20.953125 51.265625 25.265625 53.625 
Q 29.59375 56 35.59375 56 
Q 45.5625 56 51.78125 48.09375 
Q 58.015625 40.1875 58.015625 27.296875 
Q 58.015625 14.40625 51.78125 6.484375 
Q 45.5625 -1.421875 35.59375 -1.421875 
Q 29.59375 -1.421875 25.265625 0.953125 
Q 20.953125 3.328125 18.109375 8.203125 
L 18.109375 0 
L 9.078125 0 
L 9.078125 75.984375 
L 18.109375 75.984375 
z
" id="DejaVuSans-98"/>
     <path d="M 31 75.875 
Q 24.46875 64.65625 21.28125 53.65625 
Q 18.109375 42.671875 18.109375 31.390625 
Q 18.109375 20.125 21.3125 9.0625 
Q 24.515625 -2 31 -13.1875 
L 23.1875 -13.1875 
Q 15.875 -1.703125 12.234375 9.375 
Q 8.59375 20.453125 8.59375 31.390625 
Q 8.59375 42.28125 12.203125 53.3125 
Q 15.828125 64.359375 23.1875 75.875 
z
" id="DejaVuSans-40"/>
     <path d="M 8.015625 75.875 
L 15.828125 75.875 
Q 23.140625 64.359375 26.78125 53.3125 
Q 30.421875 42.28125 30.421875 31.390625 
Q 30.421875 20.453125 26.78125 9.375 
Q 23.140625 -1.703125 15.828125 -13.1875 
L 8.015625 -13.1875 
Q 14.5 -2 17.703125 9.0625 
Q 20.90625 20.125 20.90625 31.390625 
Q 20.90625 42.671875 17.703125 53.65625 
Q 14.5 64.65625 8.015625 75.875 
z
" id="DejaVuSans-41"/>
    </defs>
    <g transform="translate(240.310313 192.005937)scale(0.12 -0.12)">
     <use xlink:href="#DejaVuSans-73"/>
     <use x="29.492188" xlink:href="#DejaVuSans-109"/>
     <use x="126.904297" xlink:href="#DejaVuSans-112"/>
     <use x="190.380859" xlink:href="#DejaVuSans-97"/>
     <use x="251.660156" xlink:href="#DejaVuSans-99"/>
     <use x="306.640625" xlink:href="#DejaVuSans-116"/>
     <use x="345.849609" xlink:href="#DejaVuSans-32"/>
     <use x="377.636719" xlink:href="#DejaVuSans-80"/>
     <use x="437.892578" xlink:href="#DejaVuSans-101"/>
     <use x="499.416016" xlink:href="#DejaVuSans-114"/>
     <use x="540.529297" xlink:href="#DejaVuSans-32"/>
     <use x="572.316406" xlink:href="#DejaVuSans-80"/>
     <use x="632.603516" xlink:href="#DejaVuSans-117"/>
     <use x="695.982422" xlink:href="#DejaVuSans-98"/>
     <use x="759.458984" xlink:href="#DejaVuSans-108"/>
     <use x="787.242188" xlink:href="#DejaVuSans-105"/>
     <use x="815.025391" xlink:href="#DejaVuSans-99"/>
     <use x="870.005859" xlink:href="#DejaVuSans-97"/>
     <use x="931.285156" xlink:href="#DejaVuSans-116"/>
     <use x="970.494141" xlink:href="#DejaVuSans-105"/>
     <use x="998.277344" xlink:href="#DejaVuSans-111"/>
     <use x="1059.458984" xlink:href="#DejaVuSans-110"/>
     <use x="1122.837891" xlink:href="#DejaVuSans-32"/>
     <use x="1154.625" xlink:href="#DejaVuSans-40"/>
     <use x="1193.638672" xlink:href="#DejaVuSans-73"/>
     <use x="1223.130859" xlink:href="#DejaVuSans-80"/>
     <use x="1283.433594" xlink:href="#DejaVuSans-80"/>
     <use x="1343.736328" xlink:href="#DejaVuSans-41"/>
    </g>
   </g>
   <g id="patch_7">
    <path clip-path="url(#pbcfefd30e3)" d="M 221.470313 214.454687 
L 237.310313 214.454687 
L 237.310313 198.614687 
L 221.470313 198.614687 
z
" style="fill:none;"/>
   </g>
   <g id="line2d_22">
    <path clip-path="url(#pbcfefd30e3)" d="M 229.390313 206.534687 
" style="fill:none;stroke:#4c72b0;stroke-linecap:square;stroke-width:1.5;"/>
    <defs>
     <path d="M 0 1.772454 
C 0.47006 1.772454 0.920931 1.585697 1.253314 1.253314 
C 1.585697 0.920931 1.772454 0.47006 1.772454 0 
C 1.772454 -0.47006 1.585697 -0.920931 1.253314 -1.253314 
C 0.920931 -1.585697 0.47006 -1.772454 0 -1.772454 
C -0.47006 -1.772454 -0.920931 -1.585697 -1.253314 -1.253314 
C -1.585697 -0.920931 -1.772454 -0.47006 -1.772454 0 
C -1.772454 0.47006 -1.585697 0.920931 -1.253314 1.253314 
C -0.920931 1.585697 -0.47006 1.772454 0 1.772454 
z
" id="m9c2f210817" style="stroke:#0091cc;stroke-width:0.886227;"/>
    </defs>
    <g clip-path="url(#pbcfefd30e3)">
     <use style="fill:#0091cc;stroke:#0091cc;stroke-width:0.886227;" x="229.390313" xlink:href="#m9c2f210817" y="206.534687"/>
    </g>
   </g>
   <g id="line2d_23">
    <path clip-path="url(#pbcfefd30e3)" d="M 221.470313 206.534687 
L 237.310313 206.534687 
" style="fill:none;stroke:#0091cc;stroke-width:0.886227;"/>
   </g>
   <g id="text_14">
    <!-- Source Normalized Impact per Paper (SNIP) -->
    <defs>
     <path d="M 9.8125 72.90625 
L 23.09375 72.90625 
L 55.421875 11.921875 
L 55.421875 72.90625 
L 64.984375 72.90625 
L 64.984375 0 
L 51.703125 0 
L 19.390625 60.984375 
L 19.390625 0 
L 9.8125 0 
z
" id="DejaVuSans-78"/>
     <path d="M 5.515625 54.6875 
L 48.1875 54.6875 
L 48.1875 46.484375 
L 14.40625 7.171875 
L 48.1875 7.171875 
L 48.1875 0 
L 4.296875 0 
L 4.296875 8.203125 
L 38.09375 47.515625 
L 5.515625 47.515625 
z
" id="DejaVuSans-122"/>
     <path d="M 45.40625 46.390625 
L 45.40625 75.984375 
L 54.390625 75.984375 
L 54.390625 0 
L 45.40625 0 
L 45.40625 8.203125 
Q 42.578125 3.328125 38.25 0.953125 
Q 33.9375 -1.421875 27.875 -1.421875 
Q 17.96875 -1.421875 11.734375 6.484375 
Q 5.515625 14.40625 5.515625 27.296875 
Q 5.515625 40.1875 11.734375 48.09375 
Q 17.96875 56 27.875 56 
Q 33.9375 56 38.25 53.625 
Q 42.578125 51.265625 45.40625 46.390625 
z
M 14.796875 27.296875 
Q 14.796875 17.390625 18.875 11.75 
Q 22.953125 6.109375 30.078125 6.109375 
Q 37.203125 6.109375 41.296875 11.75 
Q 45.40625 17.390625 45.40625 27.296875 
Q 45.40625 37.203125 41.296875 42.84375 
Q 37.203125 48.484375 30.078125 48.484375 
Q 22.953125 48.484375 18.875 42.84375 
Q 14.796875 37.203125 14.796875 27.296875 
z
" id="DejaVuSans-100"/>
    </defs>
    <g transform="translate(240.310313 209.845937)scale(0.12 -0.12)">
     <use xlink:href="#DejaVuSans-83"/>
     <use x="63.476562" xlink:href="#DejaVuSans-111"/>
     <use x="124.658203" xlink:href="#DejaVuSans-117"/>
     <use x="188.037109" xlink:href="#DejaVuSans-114"/>
     <use x="229.119141" xlink:href="#DejaVuSans-99"/>
     <use x="284.099609" xlink:href="#DejaVuSans-101"/>
     <use x="345.623047" xlink:href="#DejaVuSans-32"/>
     <use x="377.410156" xlink:href="#DejaVuSans-78"/>
     <use x="452.214844" xlink:href="#DejaVuSans-111"/>
     <use x="513.396484" xlink:href="#DejaVuSans-114"/>
     <use x="554.494141" xlink:href="#DejaVuSans-109"/>
     <use x="651.90625" xlink:href="#DejaVuSans-97"/>
     <use x="713.185547" xlink:href="#DejaVuSans-108"/>
     <use x="740.96875" xlink:href="#DejaVuSans-105"/>
     <use x="768.751953" xlink:href="#DejaVuSans-122"/>
     <use x="821.242188" xlink:href="#DejaVuSans-101"/>
     <use x="882.765625" xlink:href="#DejaVuSans-100"/>
     <use x="946.242188" xlink:href="#DejaVuSans-32"/>
     <use x="978.029297" xlink:href="#DejaVuSans-73"/>
     <use x="1007.521484" xlink:href="#DejaVuSans-109"/>
     <use x="1104.933594" xlink:href="#DejaVuSans-112"/>
     <use x="1168.410156" xlink:href="#DejaVuSans-97"/>
     <use x="1229.689453" xlink:href="#DejaVuSans-99"/>
     <use x="1284.669922" xlink:href="#DejaVuSans-116"/>
     <use x="1323.878906" xlink:href="#DejaVuSans-32"/>
     <use x="1355.666016" xlink:href="#DejaVuSans-112"/>
     <use x="1419.142578" xlink:href="#DejaVuSans-101"/>
     <use x="1480.666016" xlink:href="#DejaVuSans-114"/>
     <use x="1521.779297" xlink:href="#DejaVuSans-32"/>
     <use x="1553.566406" xlink:href="#DejaVuSans-80"/>
     <use x="1613.806641" xlink:href="#DejaVuSans-97"/>
     <use x="1675.085938" xlink:href="#DejaVuSans-112"/>
     <use x="1738.5625" xlink:href="#DejaVuSans-101"/>
     <use x="1800.085938" xlink:href="#DejaVuSans-114"/>
     <use x="1841.199219" xlink:href="#DejaVuSans-32"/>
     <use x="1872.986328" xlink:href="#DejaVuSans-40"/>
     <use x="1912" xlink:href="#DejaVuSans-83"/>
     <use x="1975.476562" xlink:href="#DejaVuSans-78"/>
     <use x="2050.28125" xlink:href="#DejaVuSans-73"/>
     <use x="2079.773438" xlink:href="#DejaVuSans-80"/>
     <use x="2140.076172" xlink:href="#DejaVuSans-41"/>
    </g>
   </g>
  </g>
 </g>
 <defs>
  <clipPath id="p15e3cc0ccf">
   <rect height="221.76" width="446.4" x="59.23875" y="7.2"/>
  </clipPath>
  <clipPath id="pa5d83bc587">
   <path d="M 221.470313 196.614687 
L 221.470313 180.774687 
L 237.310313 180.774687 
L 237.310313 196.614687 
"/>
  </clipPath>
  <clipPath id="pbcfefd30e3">
   <path d="M 221.470313 214.454687 
L 221.470313 198.614687 
L 237.310313 198.614687 
L 237.310313 214.454687 
"/>
  </clipPath>
 </defs>
</svg>
