<?xml version="1.0" encoding="utf-8" standalone="no"?>
<!DOCTYPE svg PUBLIC "-//W3C//DTD SVG 1.1//EN"
  "http://www.w3.org/Graphics/SVG/1.1/DTD/svg11.dtd">
<!-- Created with matplotlib (https://matplotlib.org/) -->
<svg height="312.112687pt" version="1.1" viewBox="0 0 502.164812 312.112687" width="502.164812pt" xmlns="http://www.w3.org/2000/svg" xmlns:xlink="http://www.w3.org/1999/xlink">
 <defs>
  <style type="text/css">
*{stroke-linecap:butt;stroke-linejoin:round;}
  </style>
 </defs>
 <g id="figure_1">
  <g id="patch_1">
   <path d="M 0 312.112687 
L 502.164812 312.112687 
L 502.164812 0 
L 0 0 
z
" style="fill:#ffffff;stroke:#ffffff;stroke-linejoin:miter;"/>
  </g>
  <g id="axes_1">
   <g id="patch_2">
    <path d="M 48.564813 276.4 
L 494.964812 276.4 
L 494.964812 54.64 
L 48.564813 54.64 
z
" style="fill:#ffffff;stroke:#7f7f7f;stroke-linejoin:miter;"/>
   </g>
   <g id="matplotlib.axis_1">
    <g id="xtick_1">
     <g id="line2d_1">
      <path clip-path="url(#p4abbf7b6d0)" d="M 90.214573 276.4 
L 90.214573 54.64 
" style="fill:none;stroke:#e5e5e5;stroke-width:0.8;"/>
     </g>
     <g id="line2d_2">
      <path d="M 90.214573 276.4 
" style="fill:none;stroke:#000000;stroke-width:1.5;"/>
      <defs>
       <path d="M 0 0 
L 0 2.75 
" id="m86bd72e529" style="stroke:#000000;"/>
      </defs>
      <g>
       <use style="stroke:#000000;" x="90.214573" xlink:href="#m86bd72e529" y="276.4"/>
      </g>
     </g>
     <g id="text_1">
      <!-- 2000 -->
      <defs>
       <path d="M 19.1875 8.296875 
L 53.609375 8.296875 
L 53.609375 0 
L 7.328125 0 
L 7.328125 8.296875 
Q 12.9375 14.109375 22.625 23.890625 
Q 32.328125 33.6875 34.8125 36.53125 
Q 39.546875 41.84375 41.421875 45.53125 
Q 43.3125 49.21875 43.3125 52.78125 
Q 43.3125 58.59375 39.234375 62.25 
Q 35.15625 65.921875 28.609375 65.921875 
Q 23.96875 65.921875 18.8125 64.3125 
Q 13.671875 62.703125 7.8125 59.421875 
L 7.8125 69.390625 
Q 13.765625 71.78125 18.9375 73 
Q 24.125 74.21875 28.421875 74.21875 
Q 39.75 74.21875 46.484375 68.546875 
Q 53.21875 62.890625 53.21875 53.421875 
Q 53.21875 48.921875 51.53125 44.890625 
Q 49.859375 40.875 45.40625 35.40625 
Q 44.1875 33.984375 37.640625 27.21875 
Q 31.109375 20.453125 19.1875 8.296875 
z
" id="DejaVuSans-50"/>
       <path d="M 31.78125 66.40625 
Q 24.171875 66.40625 20.328125 58.90625 
Q 16.5 51.421875 16.5 36.375 
Q 16.5 21.390625 20.328125 13.890625 
Q 24.171875 6.390625 31.78125 6.390625 
Q 39.453125 6.390625 43.28125 13.890625 
Q 47.125 21.390625 47.125 36.375 
Q 47.125 51.421875 43.28125 58.90625 
Q 39.453125 66.40625 31.78125 66.40625 
z
M 31.78125 74.21875 
Q 44.046875 74.21875 50.515625 64.515625 
Q 56.984375 54.828125 56.984375 36.375 
Q 56.984375 17.96875 50.515625 8.265625 
Q 44.046875 -1.421875 31.78125 -1.421875 
Q 19.53125 -1.421875 13.0625 8.265625 
Q 6.59375 17.96875 6.59375 36.375 
Q 6.59375 54.828125 13.0625 64.515625 
Q 19.53125 74.21875 31.78125 74.21875 
z
" id="DejaVuSans-48"/>
      </defs>
      <g transform="translate(79.016573 288.036625)scale(0.088 -0.088)">
       <use xlink:href="#DejaVuSans-50"/>
       <use x="63.623047" xlink:href="#DejaVuSans-48"/>
       <use x="127.246094" xlink:href="#DejaVuSans-48"/>
       <use x="190.869141" xlink:href="#DejaVuSans-48"/>
      </g>
     </g>
    </g>
    <g id="xtick_2">
     <g id="line2d_3">
      <path clip-path="url(#p4abbf7b6d0)" d="M 197.008832 276.4 
L 197.008832 54.64 
" style="fill:none;stroke:#e5e5e5;stroke-width:0.8;"/>
     </g>
     <g id="line2d_4">
      <path d="M 197.008832 276.4 
" style="fill:none;stroke:#000000;stroke-width:1.5;"/>
      <g>
       <use style="stroke:#000000;" x="197.008832" xlink:href="#m86bd72e529" y="276.4"/>
      </g>
     </g>
     <g id="text_2">
      <!-- 2005 -->
      <defs>
       <path d="M 10.796875 72.90625 
L 49.515625 72.90625 
L 49.515625 64.59375 
L 19.828125 64.59375 
L 19.828125 46.734375 
Q 21.96875 47.46875 24.109375 47.828125 
Q 26.265625 48.1875 28.421875 48.1875 
Q 40.625 48.1875 47.75 41.5 
Q 54.890625 34.8125 54.890625 23.390625 
Q 54.890625 11.625 47.5625 5.09375 
Q 40.234375 -1.421875 26.90625 -1.421875 
Q 22.3125 -1.421875 17.546875 -0.640625 
Q 12.796875 0.140625 7.71875 1.703125 
L 7.71875 11.625 
Q 12.109375 9.234375 16.796875 8.0625 
Q 21.484375 6.890625 26.703125 6.890625 
Q 35.15625 6.890625 40.078125 11.328125 
Q 45.015625 15.765625 45.015625 23.390625 
Q 45.015625 31 40.078125 35.4375 
Q 35.15625 39.890625 26.703125 39.890625 
Q 22.75 39.890625 18.8125 39.015625 
Q 14.890625 38.140625 10.796875 36.28125 
z
" id="DejaVuSans-53"/>
      </defs>
      <g transform="translate(185.810832 288.036625)scale(0.088 -0.088)">
       <use xlink:href="#DejaVuSans-50"/>
       <use x="63.623047" xlink:href="#DejaVuSans-48"/>
       <use x="127.246094" xlink:href="#DejaVuSans-48"/>
       <use x="190.869141" xlink:href="#DejaVuSans-53"/>
      </g>
     </g>
    </g>
    <g id="xtick_3">
     <g id="line2d_5">
      <path clip-path="url(#p4abbf7b6d0)" d="M 303.80309 276.4 
L 303.80309 54.64 
" style="fill:none;stroke:#e5e5e5;stroke-width:0.8;"/>
     </g>
     <g id="line2d_6">
      <path d="M 303.80309 276.4 
" style="fill:none;stroke:#000000;stroke-width:1.5;"/>
      <g>
       <use style="stroke:#000000;" x="303.80309" xlink:href="#m86bd72e529" y="276.4"/>
      </g>
     </g>
     <g id="text_3">
      <!-- 2010 -->
      <defs>
       <path d="M 12.40625 8.296875 
L 28.515625 8.296875 
L 28.515625 63.921875 
L 10.984375 60.40625 
L 10.984375 69.390625 
L 28.421875 72.90625 
L 38.28125 72.90625 
L 38.28125 8.296875 
L 54.390625 8.296875 
L 54.390625 0 
L 12.40625 0 
z
" id="DejaVuSans-49"/>
      </defs>
      <g transform="translate(292.60509 288.036625)scale(0.088 -0.088)">
       <use xlink:href="#DejaVuSans-50"/>
       <use x="63.623047" xlink:href="#DejaVuSans-48"/>
       <use x="127.246094" xlink:href="#DejaVuSans-49"/>
       <use x="190.869141" xlink:href="#DejaVuSans-48"/>
      </g>
     </g>
    </g>
    <g id="xtick_4">
     <g id="line2d_7">
      <path clip-path="url(#p4abbf7b6d0)" d="M 410.597348 276.4 
L 410.597348 54.64 
" style="fill:none;stroke:#e5e5e5;stroke-width:0.8;"/>
     </g>
     <g id="line2d_8">
      <path d="M 410.597348 276.4 
" style="fill:none;stroke:#000000;stroke-width:1.5;"/>
      <g>
       <use style="stroke:#000000;" x="410.597348" xlink:href="#m86bd72e529" y="276.4"/>
      </g>
     </g>
     <g id="text_4">
      <!-- 2015 -->
      <g transform="translate(399.399348 288.036625)scale(0.088 -0.088)">
       <use xlink:href="#DejaVuSans-50"/>
       <use x="63.623047" xlink:href="#DejaVuSans-48"/>
       <use x="127.246094" xlink:href="#DejaVuSans-49"/>
       <use x="190.869141" xlink:href="#DejaVuSans-53"/>
      </g>
     </g>
    </g>
    <g id="xtick_5">
     <g id="line2d_9">
      <path clip-path="url(#p4abbf7b6d0)" d="M 143.611702 276.4 
L 143.611702 54.64 
" style="fill:none;stroke:#fafafa;"/>
     </g>
     <g id="line2d_10">
      <path d="M 143.611702 276.4 
" style="fill:none;stroke:#000000;stroke-width:1.5;"/>
      <defs>
       <path d="M 0 0 
L 0 1.375 
" id="mc026a3d4a2" style="stroke:#000000;"/>
      </defs>
      <g>
       <use style="stroke:#000000;" x="143.611702" xlink:href="#mc026a3d4a2" y="276.4"/>
      </g>
     </g>
    </g>
    <g id="xtick_6">
     <g id="line2d_11">
      <path clip-path="url(#p4abbf7b6d0)" d="M 250.405961 276.4 
L 250.405961 54.64 
" style="fill:none;stroke:#fafafa;"/>
     </g>
     <g id="line2d_12">
      <path d="M 250.405961 276.4 
" style="fill:none;stroke:#000000;stroke-width:1.5;"/>
      <g>
       <use style="stroke:#000000;" x="250.405961" xlink:href="#mc026a3d4a2" y="276.4"/>
      </g>
     </g>
    </g>
    <g id="xtick_7">
     <g id="line2d_13">
      <path clip-path="url(#p4abbf7b6d0)" d="M 357.200219 276.4 
L 357.200219 54.64 
" style="fill:none;stroke:#fafafa;"/>
     </g>
     <g id="line2d_14">
      <path d="M 357.200219 276.4 
" style="fill:none;stroke:#000000;stroke-width:1.5;"/>
      <g>
       <use style="stroke:#000000;" x="357.200219" xlink:href="#mc026a3d4a2" y="276.4"/>
      </g>
     </g>
    </g>
    <g id="xtick_8">
     <g id="line2d_15">
      <path clip-path="url(#p4abbf7b6d0)" d="M 463.994478 276.4 
L 463.994478 54.64 
" style="fill:none;stroke:#fafafa;"/>
     </g>
     <g id="line2d_16">
      <path d="M 463.994478 276.4 
" style="fill:none;stroke:#000000;stroke-width:1.5;"/>
      <g>
       <use style="stroke:#000000;" x="463.994478" xlink:href="#mc026a3d4a2" y="276.4"/>
      </g>
     </g>
    </g>
    <g id="text_5">
     <!-- Year -->
     <defs>
      <path d="M -0.203125 72.90625 
L 10.40625 72.90625 
L 30.609375 42.921875 
L 50.6875 72.90625 
L 61.28125 72.90625 
L 35.5 34.71875 
L 35.5 0 
L 25.59375 0 
L 25.59375 34.71875 
z
" id="DejaVuSans-89"/>
      <path d="M 56.203125 29.59375 
L 56.203125 25.203125 
L 14.890625 25.203125 
Q 15.484375 15.921875 20.484375 11.0625 
Q 25.484375 6.203125 34.421875 6.203125 
Q 39.59375 6.203125 44.453125 7.46875 
Q 49.3125 8.734375 54.109375 11.28125 
L 54.109375 2.78125 
Q 49.265625 0.734375 44.1875 -0.34375 
Q 39.109375 -1.421875 33.890625 -1.421875 
Q 20.796875 -1.421875 13.15625 6.1875 
Q 5.515625 13.8125 5.515625 26.8125 
Q 5.515625 40.234375 12.765625 48.109375 
Q 20.015625 56 32.328125 56 
Q 43.359375 56 49.78125 48.890625 
Q 56.203125 41.796875 56.203125 29.59375 
z
M 47.21875 32.234375 
Q 47.125 39.59375 43.09375 43.984375 
Q 39.0625 48.390625 32.421875 48.390625 
Q 24.90625 48.390625 20.390625 44.140625 
Q 15.875 39.890625 15.1875 32.171875 
z
" id="DejaVuSans-101"/>
      <path d="M 34.28125 27.484375 
Q 23.390625 27.484375 19.1875 25 
Q 14.984375 22.515625 14.984375 16.5 
Q 14.984375 11.71875 18.140625 8.90625 
Q 21.296875 6.109375 26.703125 6.109375 
Q 34.1875 6.109375 38.703125 11.40625 
Q 43.21875 16.703125 43.21875 25.484375 
L 43.21875 27.484375 
z
M 52.203125 31.203125 
L 52.203125 0 
L 43.21875 0 
L 43.21875 8.296875 
Q 40.140625 3.328125 35.546875 0.953125 
Q 30.953125 -1.421875 24.3125 -1.421875 
Q 15.921875 -1.421875 10.953125 3.296875 
Q 6 8.015625 6 15.921875 
Q 6 25.140625 12.171875 29.828125 
Q 18.359375 34.515625 30.609375 34.515625 
L 43.21875 34.515625 
L 43.21875 35.40625 
Q 43.21875 41.609375 39.140625 45 
Q 35.0625 48.390625 27.6875 48.390625 
Q 23 48.390625 18.546875 47.265625 
Q 14.109375 46.140625 10.015625 43.890625 
L 10.015625 52.203125 
Q 14.9375 54.109375 19.578125 55.046875 
Q 24.21875 56 28.609375 56 
Q 40.484375 56 46.34375 49.84375 
Q 52.203125 43.703125 52.203125 31.203125 
z
" id="DejaVuSans-97"/>
      <path d="M 41.109375 46.296875 
Q 39.59375 47.171875 37.8125 47.578125 
Q 36.03125 48 33.890625 48 
Q 26.265625 48 22.1875 43.046875 
Q 18.109375 38.09375 18.109375 28.8125 
L 18.109375 0 
L 9.078125 0 
L 9.078125 54.6875 
L 18.109375 54.6875 
L 18.109375 46.1875 
Q 20.953125 51.171875 25.484375 53.578125 
Q 30.03125 56 36.53125 56 
Q 37.453125 56 38.578125 55.875 
Q 39.703125 55.765625 41.0625 55.515625 
z
" id="DejaVuSans-114"/>
     </defs>
     <g transform="translate(252.200984 302.625031)scale(0.11 -0.11)">
      <use xlink:href="#DejaVuSans-89"/>
      <use x="60.880859" xlink:href="#DejaVuSans-101"/>
      <use x="122.404297" xlink:href="#DejaVuSans-97"/>
      <use x="183.683594" xlink:href="#DejaVuSans-114"/>
     </g>
    </g>
   </g>
   <g id="matplotlib.axis_2">
    <g id="ytick_1">
     <g id="line2d_17">
      <path clip-path="url(#p4abbf7b6d0)" d="M 48.564813 266.32 
L 494.964812 266.32 
" style="fill:none;stroke:#e5e5e5;stroke-width:0.8;"/>
     </g>
     <g id="line2d_18">
      <path d="M 48.564813 266.32 
" style="fill:none;stroke:#000000;stroke-width:1.5;"/>
      <defs>
       <path d="M 0 0 
L -2.75 0 
" id="md0e3c34515" style="stroke:#000000;"/>
      </defs>
      <g>
       <use style="stroke:#000000;" x="48.564813" xlink:href="#md0e3c34515" y="266.32"/>
      </g>
     </g>
     <g id="text_6">
      <!-- −1 -->
      <defs>
       <path d="M 10.59375 35.5 
L 73.1875 35.5 
L 73.1875 27.203125 
L 10.59375 27.203125 
z
" id="DejaVuSans-8722"/>
      </defs>
      <g transform="translate(30.641688 268.74825)scale(0.088 -0.088)">
       <use xlink:href="#DejaVuSans-8722"/>
       <use x="83.789062" xlink:href="#DejaVuSans-49"/>
      </g>
     </g>
    </g>
    <g id="ytick_2">
     <g id="line2d_19">
      <path clip-path="url(#p4abbf7b6d0)" d="M 48.564813 215.92 
L 494.964812 215.92 
" style="fill:none;stroke:#e5e5e5;stroke-width:0.8;"/>
     </g>
     <g id="line2d_20">
      <path d="M 48.564813 215.92 
" style="fill:none;stroke:#000000;stroke-width:1.5;"/>
      <g>
       <use style="stroke:#000000;" x="48.564813" xlink:href="#md0e3c34515" y="215.92"/>
      </g>
     </g>
     <g id="text_7">
      <!-- −0.5 -->
      <defs>
       <path d="M 10.6875 12.40625 
L 21 12.40625 
L 21 0 
L 10.6875 0 
z
" id="DejaVuSans-46"/>
      </defs>
      <g transform="translate(22.245938 218.34825)scale(0.088 -0.088)">
       <use xlink:href="#DejaVuSans-8722"/>
       <use x="83.789062" xlink:href="#DejaVuSans-48"/>
       <use x="147.412109" xlink:href="#DejaVuSans-46"/>
       <use x="179.199219" xlink:href="#DejaVuSans-53"/>
      </g>
     </g>
    </g>
    <g id="ytick_3">
     <g id="line2d_21">
      <path clip-path="url(#p4abbf7b6d0)" d="M 48.564813 165.52 
L 494.964812 165.52 
" style="fill:none;stroke:#e5e5e5;stroke-width:0.8;"/>
     </g>
     <g id="line2d_22">
      <path d="M 48.564813 165.52 
" style="fill:none;stroke:#000000;stroke-width:1.5;"/>
      <g>
       <use style="stroke:#000000;" x="48.564813" xlink:href="#md0e3c34515" y="165.52"/>
      </g>
     </g>
     <g id="text_8">
      <!-- 0 -->
      <g transform="translate(38.015813 167.94825)scale(0.088 -0.088)">
       <use xlink:href="#DejaVuSans-48"/>
      </g>
     </g>
    </g>
    <g id="ytick_4">
     <g id="line2d_23">
      <path clip-path="url(#p4abbf7b6d0)" d="M 48.564813 115.12 
L 494.964812 115.12 
" style="fill:none;stroke:#e5e5e5;stroke-width:0.8;"/>
     </g>
     <g id="line2d_24">
      <path d="M 48.564813 115.12 
" style="fill:none;stroke:#000000;stroke-width:1.5;"/>
      <g>
       <use style="stroke:#000000;" x="48.564813" xlink:href="#md0e3c34515" y="115.12"/>
      </g>
     </g>
     <g id="text_9">
      <!-- 0.5 -->
      <g transform="translate(29.620063 117.54825)scale(0.088 -0.088)">
       <use xlink:href="#DejaVuSans-48"/>
       <use x="63.623047" xlink:href="#DejaVuSans-46"/>
       <use x="95.410156" xlink:href="#DejaVuSans-53"/>
      </g>
     </g>
    </g>
    <g id="ytick_5">
     <g id="line2d_25">
      <path clip-path="url(#p4abbf7b6d0)" d="M 48.564813 64.72 
L 494.964812 64.72 
" style="fill:none;stroke:#e5e5e5;stroke-width:0.8;"/>
     </g>
     <g id="line2d_26">
      <path d="M 48.564813 64.72 
" style="fill:none;stroke:#000000;stroke-width:1.5;"/>
      <g>
       <use style="stroke:#000000;" x="48.564813" xlink:href="#md0e3c34515" y="64.72"/>
      </g>
     </g>
     <g id="text_10">
      <!-- 1 -->
      <g transform="translate(38.015813 67.14825)scale(0.088 -0.088)">
       <use xlink:href="#DejaVuSans-49"/>
      </g>
     </g>
    </g>
    <g id="ytick_6">
     <g id="line2d_27">
      <path clip-path="url(#p4abbf7b6d0)" d="M 48.564813 241.12 
L 494.964812 241.12 
" style="fill:none;stroke:#fafafa;"/>
     </g>
     <g id="line2d_28">
      <path d="M 48.564813 241.12 
" style="fill:none;stroke:#000000;stroke-width:1.5;"/>
      <defs>
       <path d="M 0 0 
L -1.375 0 
" id="m4c898e10ec" style="stroke:#000000;"/>
      </defs>
      <g>
       <use style="stroke:#000000;" x="48.564813" xlink:href="#m4c898e10ec" y="241.12"/>
      </g>
     </g>
    </g>
    <g id="ytick_7">
     <g id="line2d_29">
      <path clip-path="url(#p4abbf7b6d0)" d="M 48.564813 190.72 
L 494.964812 190.72 
" style="fill:none;stroke:#fafafa;"/>
     </g>
     <g id="line2d_30">
      <path d="M 48.564813 190.72 
" style="fill:none;stroke:#000000;stroke-width:1.5;"/>
      <g>
       <use style="stroke:#000000;" x="48.564813" xlink:href="#m4c898e10ec" y="190.72"/>
      </g>
     </g>
    </g>
    <g id="ytick_8">
     <g id="line2d_31">
      <path clip-path="url(#p4abbf7b6d0)" d="M 48.564813 140.32 
L 494.964812 140.32 
" style="fill:none;stroke:#fafafa;"/>
     </g>
     <g id="line2d_32">
      <path d="M 48.564813 140.32 
" style="fill:none;stroke:#000000;stroke-width:1.5;"/>
      <g>
       <use style="stroke:#000000;" x="48.564813" xlink:href="#m4c898e10ec" y="140.32"/>
      </g>
     </g>
    </g>
    <g id="ytick_9">
     <g id="line2d_33">
      <path clip-path="url(#p4abbf7b6d0)" d="M 48.564813 89.92 
L 494.964812 89.92 
" style="fill:none;stroke:#fafafa;"/>
     </g>
     <g id="line2d_34">
      <path d="M 48.564813 89.92 
" style="fill:none;stroke:#000000;stroke-width:1.5;"/>
      <g>
       <use style="stroke:#000000;" x="48.564813" xlink:href="#m4c898e10ec" y="89.92"/>
      </g>
     </g>
    </g>
    <g id="text_11">
     <!-- Spearman's rank correlation -->
     <defs>
      <path d="M 53.515625 70.515625 
L 53.515625 60.890625 
Q 47.90625 63.578125 42.921875 64.890625 
Q 37.9375 66.21875 33.296875 66.21875 
Q 25.25 66.21875 20.875 63.09375 
Q 16.5 59.96875 16.5 54.203125 
Q 16.5 49.359375 19.40625 46.890625 
Q 22.3125 44.4375 30.421875 42.921875 
L 36.375 41.703125 
Q 47.40625 39.59375 52.65625 34.296875 
Q 57.90625 29 57.90625 20.125 
Q 57.90625 9.515625 50.796875 4.046875 
Q 43.703125 -1.421875 29.984375 -1.421875 
Q 24.8125 -1.421875 18.96875 -0.25 
Q 13.140625 0.921875 6.890625 3.21875 
L 6.890625 13.375 
Q 12.890625 10.015625 18.65625 8.296875 
Q 24.421875 6.59375 29.984375 6.59375 
Q 38.421875 6.59375 43.015625 9.90625 
Q 47.609375 13.234375 47.609375 19.390625 
Q 47.609375 24.75 44.3125 27.78125 
Q 41.015625 30.8125 33.5 32.328125 
L 27.484375 33.5 
Q 16.453125 35.6875 11.515625 40.375 
Q 6.59375 45.0625 6.59375 53.421875 
Q 6.59375 63.09375 13.40625 68.65625 
Q 20.21875 74.21875 32.171875 74.21875 
Q 37.3125 74.21875 42.625 73.28125 
Q 47.953125 72.359375 53.515625 70.515625 
z
" id="DejaVuSans-83"/>
      <path d="M 18.109375 8.203125 
L 18.109375 -20.796875 
L 9.078125 -20.796875 
L 9.078125 54.6875 
L 18.109375 54.6875 
L 18.109375 46.390625 
Q 20.953125 51.265625 25.265625 53.625 
Q 29.59375 56 35.59375 56 
Q 45.5625 56 51.78125 48.09375 
Q 58.015625 40.1875 58.015625 27.296875 
Q 58.015625 14.40625 51.78125 6.484375 
Q 45.5625 -1.421875 35.59375 -1.421875 
Q 29.59375 -1.421875 25.265625 0.953125 
Q 20.953125 3.328125 18.109375 8.203125 
z
M 48.6875 27.296875 
Q 48.6875 37.203125 44.609375 42.84375 
Q 40.53125 48.484375 33.40625 48.484375 
Q 26.265625 48.484375 22.1875 42.84375 
Q 18.109375 37.203125 18.109375 27.296875 
Q 18.109375 17.390625 22.1875 11.75 
Q 26.265625 6.109375 33.40625 6.109375 
Q 40.53125 6.109375 44.609375 11.75 
Q 48.6875 17.390625 48.6875 27.296875 
z
" id="DejaVuSans-112"/>
      <path d="M 52 44.1875 
Q 55.375 50.25 60.0625 53.125 
Q 64.75 56 71.09375 56 
Q 79.640625 56 84.28125 50.015625 
Q 88.921875 44.046875 88.921875 33.015625 
L 88.921875 0 
L 79.890625 0 
L 79.890625 32.71875 
Q 79.890625 40.578125 77.09375 44.375 
Q 74.3125 48.1875 68.609375 48.1875 
Q 61.625 48.1875 57.5625 43.546875 
Q 53.515625 38.921875 53.515625 30.90625 
L 53.515625 0 
L 44.484375 0 
L 44.484375 32.71875 
Q 44.484375 40.625 41.703125 44.40625 
Q 38.921875 48.1875 33.109375 48.1875 
Q 26.21875 48.1875 22.15625 43.53125 
Q 18.109375 38.875 18.109375 30.90625 
L 18.109375 0 
L 9.078125 0 
L 9.078125 54.6875 
L 18.109375 54.6875 
L 18.109375 46.1875 
Q 21.1875 51.21875 25.484375 53.609375 
Q 29.78125 56 35.6875 56 
Q 41.65625 56 45.828125 52.96875 
Q 50 49.953125 52 44.1875 
z
" id="DejaVuSans-109"/>
      <path d="M 54.890625 33.015625 
L 54.890625 0 
L 45.90625 0 
L 45.90625 32.71875 
Q 45.90625 40.484375 42.875 44.328125 
Q 39.84375 48.1875 33.796875 48.1875 
Q 26.515625 48.1875 22.3125 43.546875 
Q 18.109375 38.921875 18.109375 30.90625 
L 18.109375 0 
L 9.078125 0 
L 9.078125 54.6875 
L 18.109375 54.6875 
L 18.109375 46.1875 
Q 21.34375 51.125 25.703125 53.5625 
Q 30.078125 56 35.796875 56 
Q 45.21875 56 50.046875 50.171875 
Q 54.890625 44.34375 54.890625 33.015625 
z
" id="DejaVuSans-110"/>
      <path d="M 17.921875 72.90625 
L 17.921875 45.796875 
L 9.625 45.796875 
L 9.625 72.90625 
z
" id="DejaVuSans-39"/>
      <path d="M 44.28125 53.078125 
L 44.28125 44.578125 
Q 40.484375 46.53125 36.375 47.5 
Q 32.28125 48.484375 27.875 48.484375 
Q 21.1875 48.484375 17.84375 46.4375 
Q 14.5 44.390625 14.5 40.28125 
Q 14.5 37.15625 16.890625 35.375 
Q 19.28125 33.59375 26.515625 31.984375 
L 29.59375 31.296875 
Q 39.15625 29.25 43.1875 25.515625 
Q 47.21875 21.78125 47.21875 15.09375 
Q 47.21875 7.46875 41.1875 3.015625 
Q 35.15625 -1.421875 24.609375 -1.421875 
Q 20.21875 -1.421875 15.453125 -0.5625 
Q 10.6875 0.296875 5.421875 2 
L 5.421875 11.28125 
Q 10.40625 8.6875 15.234375 7.390625 
Q 20.0625 6.109375 24.8125 6.109375 
Q 31.15625 6.109375 34.5625 8.28125 
Q 37.984375 10.453125 37.984375 14.40625 
Q 37.984375 18.0625 35.515625 20.015625 
Q 33.0625 21.96875 24.703125 23.78125 
L 21.578125 24.515625 
Q 13.234375 26.265625 9.515625 29.90625 
Q 5.8125 33.546875 5.8125 39.890625 
Q 5.8125 47.609375 11.28125 51.796875 
Q 16.75 56 26.8125 56 
Q 31.78125 56 36.171875 55.265625 
Q 40.578125 54.546875 44.28125 53.078125 
z
" id="DejaVuSans-115"/>
      <path id="DejaVuSans-32"/>
      <path d="M 9.078125 75.984375 
L 18.109375 75.984375 
L 18.109375 31.109375 
L 44.921875 54.6875 
L 56.390625 54.6875 
L 27.390625 29.109375 
L 57.625 0 
L 45.90625 0 
L 18.109375 26.703125 
L 18.109375 0 
L 9.078125 0 
z
" id="DejaVuSans-107"/>
      <path d="M 48.78125 52.59375 
L 48.78125 44.1875 
Q 44.96875 46.296875 41.140625 47.34375 
Q 37.3125 48.390625 33.40625 48.390625 
Q 24.65625 48.390625 19.8125 42.84375 
Q 14.984375 37.3125 14.984375 27.296875 
Q 14.984375 17.28125 19.8125 11.734375 
Q 24.65625 6.203125 33.40625 6.203125 
Q 37.3125 6.203125 41.140625 7.25 
Q 44.96875 8.296875 48.78125 10.40625 
L 48.78125 2.09375 
Q 45.015625 0.34375 40.984375 -0.53125 
Q 36.96875 -1.421875 32.421875 -1.421875 
Q 20.0625 -1.421875 12.78125 6.34375 
Q 5.515625 14.109375 5.515625 27.296875 
Q 5.515625 40.671875 12.859375 48.328125 
Q 20.21875 56 33.015625 56 
Q 37.15625 56 41.109375 55.140625 
Q 45.0625 54.296875 48.78125 52.59375 
z
" id="DejaVuSans-99"/>
      <path d="M 30.609375 48.390625 
Q 23.390625 48.390625 19.1875 42.75 
Q 14.984375 37.109375 14.984375 27.296875 
Q 14.984375 17.484375 19.15625 11.84375 
Q 23.34375 6.203125 30.609375 6.203125 
Q 37.796875 6.203125 41.984375 11.859375 
Q 46.1875 17.53125 46.1875 27.296875 
Q 46.1875 37.015625 41.984375 42.703125 
Q 37.796875 48.390625 30.609375 48.390625 
z
M 30.609375 56 
Q 42.328125 56 49.015625 48.375 
Q 55.71875 40.765625 55.71875 27.296875 
Q 55.71875 13.875 49.015625 6.21875 
Q 42.328125 -1.421875 30.609375 -1.421875 
Q 18.84375 -1.421875 12.171875 6.21875 
Q 5.515625 13.875 5.515625 27.296875 
Q 5.515625 40.765625 12.171875 48.375 
Q 18.84375 56 30.609375 56 
z
" id="DejaVuSans-111"/>
      <path d="M 9.421875 75.984375 
L 18.40625 75.984375 
L 18.40625 0 
L 9.421875 0 
z
" id="DejaVuSans-108"/>
      <path d="M 18.3125 70.21875 
L 18.3125 54.6875 
L 36.8125 54.6875 
L 36.8125 47.703125 
L 18.3125 47.703125 
L 18.3125 18.015625 
Q 18.3125 11.328125 20.140625 9.421875 
Q 21.96875 7.515625 27.59375 7.515625 
L 36.8125 7.515625 
L 36.8125 0 
L 27.59375 0 
Q 17.1875 0 13.234375 3.875 
Q 9.28125 7.765625 9.28125 18.015625 
L 9.28125 47.703125 
L 2.6875 47.703125 
L 2.6875 54.6875 
L 9.28125 54.6875 
L 9.28125 70.21875 
z
" id="DejaVuSans-116"/>
      <path d="M 9.421875 54.6875 
L 18.40625 54.6875 
L 18.40625 0 
L 9.421875 0 
z
M 9.421875 75.984375 
L 18.40625 75.984375 
L 18.40625 64.59375 
L 9.421875 64.59375 
z
" id="DejaVuSans-105"/>
     </defs>
     <g transform="translate(15.558281 242.192891)rotate(-90)scale(0.11 -0.11)">
      <use xlink:href="#DejaVuSans-83"/>
      <use x="63.476562" xlink:href="#DejaVuSans-112"/>
      <use x="126.953125" xlink:href="#DejaVuSans-101"/>
      <use x="188.476562" xlink:href="#DejaVuSans-97"/>
      <use x="249.755859" xlink:href="#DejaVuSans-114"/>
      <use x="290.853516" xlink:href="#DejaVuSans-109"/>
      <use x="388.265625" xlink:href="#DejaVuSans-97"/>
      <use x="449.544922" xlink:href="#DejaVuSans-110"/>
      <use x="512.923828" xlink:href="#DejaVuSans-39"/>
      <use x="540.414062" xlink:href="#DejaVuSans-115"/>
      <use x="592.513672" xlink:href="#DejaVuSans-32"/>
      <use x="624.300781" xlink:href="#DejaVuSans-114"/>
      <use x="665.414062" xlink:href="#DejaVuSans-97"/>
      <use x="726.693359" xlink:href="#DejaVuSans-110"/>
      <use x="790.072266" xlink:href="#DejaVuSans-107"/>
      <use x="847.982422" xlink:href="#DejaVuSans-32"/>
      <use x="879.769531" xlink:href="#DejaVuSans-99"/>
      <use x="934.75" xlink:href="#DejaVuSans-111"/>
      <use x="995.931641" xlink:href="#DejaVuSans-114"/>
      <use x="1037.029297" xlink:href="#DejaVuSans-114"/>
      <use x="1078.111328" xlink:href="#DejaVuSans-101"/>
      <use x="1139.634766" xlink:href="#DejaVuSans-108"/>
      <use x="1167.417969" xlink:href="#DejaVuSans-97"/>
      <use x="1228.697266" xlink:href="#DejaVuSans-116"/>
      <use x="1267.90625" xlink:href="#DejaVuSans-105"/>
      <use x="1295.689453" xlink:href="#DejaVuSans-111"/>
      <use x="1356.871094" xlink:href="#DejaVuSans-110"/>
     </g>
    </g>
   </g>
   <g id="PathCollection_1">
    <path clip-path="url(#p4abbf7b6d0)" d="M 68.855722 205.311668 
C 69.325782 205.311668 69.776653 205.124911 70.109036 204.792528 
C 70.441419 204.460146 70.628175 204.009275 70.628175 203.539214 
C 70.628175 203.069154 70.441419 202.618283 70.109036 202.2859 
C 69.776653 201.953517 69.325782 201.766761 68.855722 201.766761 
C 68.385661 201.766761 67.93479 201.953517 67.602407 202.2859 
C 67.270025 202.618283 67.083268 203.069154 67.083268 203.539214 
C 67.083268 204.009275 67.270025 204.460146 67.602407 204.792528 
C 67.93479 205.124911 68.385661 205.311668 68.855722 205.311668 
z
" style="fill:#ee3377;stroke:#ee3377;stroke-width:0.886227;"/>
    <path clip-path="url(#p4abbf7b6d0)" d="M 68.855722 197.63503 
C 69.325782 197.63503 69.776653 197.448273 70.109036 197.11589 
C 70.441419 196.783507 70.628175 196.332636 70.628175 195.862576 
C 70.628175 195.392516 70.441419 194.941644 70.109036 194.609262 
C 69.776653 194.276879 69.325782 194.090122 68.855722 194.090122 
C 68.385661 194.090122 67.93479 194.276879 67.602407 194.609262 
C 67.270025 194.941644 67.083268 195.392516 67.083268 195.862576 
C 67.083268 196.332636 67.270025 196.783507 67.602407 197.11589 
C 67.93479 197.448273 68.385661 197.63503 68.855722 197.63503 
z
" style="fill:#33bbee;stroke:#33bbee;stroke-width:0.886227;"/>
    <path clip-path="url(#p4abbf7b6d0)" d="M 90.214573 219.916583 
C 90.684634 219.916583 91.135505 219.729826 91.467887 219.397444 
C 91.80027 219.065061 91.987027 218.61419 91.987027 218.14413 
C 91.987027 217.674069 91.80027 217.223198 91.467887 216.890815 
C 91.135505 216.558433 90.684634 216.371676 90.214573 216.371676 
C 89.744513 216.371676 89.293642 216.558433 88.961259 216.890815 
C 88.628876 217.223198 88.442119 217.674069 88.442119 218.14413 
C 88.442119 218.61419 88.628876 219.065061 88.961259 219.397444 
C 89.293642 219.729826 89.744513 219.916583 90.214573 219.916583 
z
" style="fill:#ee3377;stroke:#ee3377;stroke-width:0.886227;"/>
    <path clip-path="url(#p4abbf7b6d0)" d="M 90.214573 215.876421 
C 90.684634 215.876421 91.135505 215.689665 91.467887 215.357282 
C 91.80027 215.024899 91.987027 214.574028 91.987027 214.103968 
C 91.987027 213.633907 91.80027 213.183036 91.467887 212.850653 
C 91.135505 212.518271 90.684634 212.331514 90.214573 212.331514 
C 89.744513 212.331514 89.293642 212.518271 88.961259 212.850653 
C 88.628876 213.183036 88.442119 213.633907 88.442119 214.103968 
C 88.442119 214.574028 88.628876 215.024899 88.961259 215.357282 
C 89.293642 215.689665 89.744513 215.876421 90.214573 215.876421 
z
" style="fill:#33bbee;stroke:#33bbee;stroke-width:0.886227;"/>
    <path clip-path="url(#p4abbf7b6d0)" d="M 111.573425 187.0546 
C 112.043485 187.0546 112.494356 186.867843 112.826739 186.53546 
C 113.159122 186.203078 113.345879 185.752206 113.345879 185.282146 
C 113.345879 184.812086 113.159122 184.361215 112.826739 184.028832 
C 112.494356 183.696449 112.043485 183.509692 111.573425 183.509692 
C 111.103365 183.509692 110.652494 183.696449 110.320111 184.028832 
C 109.987728 184.361215 109.800971 184.812086 109.800971 185.282146 
C 109.800971 185.752206 109.987728 186.203078 110.320111 186.53546 
C 110.652494 186.867843 111.103365 187.0546 111.573425 187.0546 
z
" style="fill:#ee3377;stroke:#ee3377;stroke-width:0.886227;"/>
    <path clip-path="url(#p4abbf7b6d0)" d="M 111.573425 179.744036 
C 112.043485 179.744036 112.494356 179.557279 112.826739 179.224896 
C 113.159122 178.892513 113.345879 178.441642 113.345879 177.971582 
C 113.345879 177.501522 113.159122 177.050651 112.826739 176.718268 
C 112.494356 176.385885 112.043485 176.199128 111.573425 176.199128 
C 111.103365 176.199128 110.652494 176.385885 110.320111 176.718268 
C 109.987728 177.050651 109.800971 177.501522 109.800971 177.971582 
C 109.800971 178.441642 109.987728 178.892513 110.320111 179.224896 
C 110.652494 179.557279 111.103365 179.744036 111.573425 179.744036 
z
" style="fill:#33bbee;stroke:#33bbee;stroke-width:0.886227;"/>
    <path clip-path="url(#p4abbf7b6d0)" d="M 132.932277 214.693009 
C 133.402337 214.693009 133.853208 214.506252 134.185591 214.173869 
C 134.517974 213.841486 134.70473 213.390615 134.70473 212.920555 
C 134.70473 212.450495 134.517974 211.999624 134.185591 211.667241 
C 133.853208 211.334858 133.402337 211.148101 132.932277 211.148101 
C 132.462216 211.148101 132.011345 211.334858 131.678962 211.667241 
C 131.34658 211.999624 131.159823 212.450495 131.159823 212.920555 
C 131.159823 213.390615 131.34658 213.841486 131.678962 214.173869 
C 132.011345 214.506252 132.462216 214.693009 132.932277 214.693009 
z
" style="fill:#ee3377;stroke:#ee3377;stroke-width:0.886227;"/>
    <path clip-path="url(#p4abbf7b6d0)" d="M 132.932277 205.082352 
C 133.402337 205.082352 133.853208 204.895595 134.185591 204.563212 
C 134.517974 204.23083 134.70473 203.779958 134.70473 203.309898 
C 134.70473 202.839838 134.517974 202.388967 134.185591 202.056584 
C 133.853208 201.724201 133.402337 201.537444 132.932277 201.537444 
C 132.462216 201.537444 132.011345 201.724201 131.678962 202.056584 
C 131.34658 202.388967 131.159823 202.839838 131.159823 203.309898 
C 131.159823 203.779958 131.34658 204.23083 131.678962 204.563212 
C 132.011345 204.895595 132.462216 205.082352 132.932277 205.082352 
z
" style="fill:#33bbee;stroke:#33bbee;stroke-width:0.886227;"/>
    <path clip-path="url(#p4abbf7b6d0)" d="M 154.291128 216.276472 
C 154.761189 216.276472 155.21206 216.089715 155.544442 215.757332 
C 155.876825 215.42495 156.063582 214.974078 156.063582 214.504018 
C 156.063582 214.033958 155.876825 213.583087 155.544442 213.250704 
C 155.21206 212.918321 154.761189 212.731564 154.291128 212.731564 
C 153.821068 212.731564 153.370197 212.918321 153.037814 213.250704 
C 152.705431 213.583087 152.518674 214.033958 152.518674 214.504018 
C 152.518674 214.974078 152.705431 215.42495 153.037814 215.757332 
C 153.370197 216.089715 153.821068 216.276472 154.291128 216.276472 
z
" style="fill:#ee3377;stroke:#ee3377;stroke-width:0.886227;"/>
    <path clip-path="url(#p4abbf7b6d0)" d="M 154.291128 207.45673 
C 154.761189 207.45673 155.21206 207.269973 155.544442 206.937591 
C 155.876825 206.605208 156.063582 206.154337 156.063582 205.684277 
C 156.063582 205.214216 155.876825 204.763345 155.544442 204.430962 
C 155.21206 204.09858 154.761189 203.911823 154.291128 203.911823 
C 153.821068 203.911823 153.370197 204.09858 153.037814 204.430962 
C 152.705431 204.763345 152.518674 205.214216 152.518674 205.684277 
C 152.518674 206.154337 152.705431 206.605208 153.037814 206.937591 
C 153.370197 207.269973 153.821068 207.45673 154.291128 207.45673 
z
" style="fill:#33bbee;stroke:#33bbee;stroke-width:0.886227;"/>
    <path clip-path="url(#p4abbf7b6d0)" d="M 175.64998 199.491092 
C 176.12004 199.491092 176.570911 199.304335 176.903294 198.971953 
C 177.235677 198.63957 177.422434 198.188699 177.422434 197.718638 
C 177.422434 197.248578 177.235677 196.797707 176.903294 196.465324 
C 176.570911 196.132942 176.12004 195.946185 175.64998 195.946185 
C 175.17992 195.946185 174.729049 196.132942 174.396666 196.465324 
C 174.064283 196.797707 173.877526 197.248578 173.877526 197.718638 
C 173.877526 198.188699 174.064283 198.63957 174.396666 198.971953 
C 174.729049 199.304335 175.17992 199.491092 175.64998 199.491092 
z
" style="fill:#ee3377;stroke:#ee3377;stroke-width:0.886227;"/>
    <path clip-path="url(#p4abbf7b6d0)" d="M 175.64998 195.485869 
C 176.12004 195.485869 176.570911 195.299112 176.903294 194.966729 
C 177.235677 194.634346 177.422434 194.183475 177.422434 193.713415 
C 177.422434 193.243354 177.235677 192.792483 176.903294 192.460101 
C 176.570911 192.127718 176.12004 191.940961 175.64998 191.940961 
C 175.17992 191.940961 174.729049 192.127718 174.396666 192.460101 
C 174.064283 192.792483 173.877526 193.243354 173.877526 193.713415 
C 173.877526 194.183475 174.064283 194.634346 174.396666 194.966729 
C 174.729049 195.299112 175.17992 195.485869 175.64998 195.485869 
z
" style="fill:#33bbee;stroke:#33bbee;stroke-width:0.886227;"/>
    <path clip-path="url(#p4abbf7b6d0)" d="M 197.008832 188.00216 
C 197.478892 188.00216 197.929763 187.815403 198.262146 187.48302 
C 198.594529 187.150637 198.781285 186.699766 198.781285 186.229706 
C 198.781285 185.759646 198.594529 185.308774 198.262146 184.976392 
C 197.929763 184.644009 197.478892 184.457252 197.008832 184.457252 
C 196.538771 184.457252 196.0879 184.644009 195.755518 184.976392 
C 195.423135 185.308774 195.236378 185.759646 195.236378 186.229706 
C 195.236378 186.699766 195.423135 187.150637 195.755518 187.48302 
C 196.0879 187.815403 196.538771 188.00216 197.008832 188.00216 
z
" style="fill:#ee3377;stroke:#ee3377;stroke-width:0.886227;"/>
    <path clip-path="url(#p4abbf7b6d0)" d="M 197.008832 190.665257 
C 197.478892 190.665257 197.929763 190.4785 198.262146 190.146117 
C 198.594529 189.813734 198.781285 189.362863 198.781285 188.892803 
C 198.781285 188.422743 198.594529 187.971872 198.262146 187.639489 
C 197.929763 187.307106 197.478892 187.120349 197.008832 187.120349 
C 196.538771 187.120349 196.0879 187.307106 195.755518 187.639489 
C 195.423135 187.971872 195.236378 188.422743 195.236378 188.892803 
C 195.236378 189.362863 195.423135 189.813734 195.755518 190.146117 
C 196.0879 190.4785 196.538771 190.665257 197.008832 190.665257 
z
" style="fill:#33bbee;stroke:#33bbee;stroke-width:0.886227;"/>
    <path clip-path="url(#p4abbf7b6d0)" d="M 218.367683 172.652613 
C 218.837744 172.652613 219.288615 172.465856 219.620997 172.133473 
C 219.95338 171.80109 220.140137 171.350219 220.140137 170.880159 
C 220.140137 170.410099 219.95338 169.959228 219.620997 169.626845 
C 219.288615 169.294462 218.837744 169.107705 218.367683 169.107705 
C 217.897623 169.107705 217.446752 169.294462 217.114369 169.626845 
C 216.781986 169.959228 216.595229 170.410099 216.595229 170.880159 
C 216.595229 171.350219 216.781986 171.80109 217.114369 172.133473 
C 217.446752 172.465856 217.897623 172.652613 218.367683 172.652613 
z
" style="fill:#ee3377;stroke:#ee3377;stroke-width:0.886227;"/>
    <path clip-path="url(#p4abbf7b6d0)" d="M 218.367683 172.308992 
C 218.837744 172.308992 219.288615 172.122235 219.620997 171.789852 
C 219.95338 171.45747 220.140137 171.006598 220.140137 170.536538 
C 220.140137 170.066478 219.95338 169.615607 219.620997 169.283224 
C 219.288615 168.950841 218.837744 168.764084 218.367683 168.764084 
C 217.897623 168.764084 217.446752 168.950841 217.114369 169.283224 
C 216.781986 169.615607 216.595229 170.066478 216.595229 170.536538 
C 216.595229 171.006598 216.781986 171.45747 217.114369 171.789852 
C 217.446752 172.122235 217.897623 172.308992 218.367683 172.308992 
z
" style="fill:#33bbee;stroke:#33bbee;stroke-width:0.886227;"/>
    <path clip-path="url(#p4abbf7b6d0)" d="M 239.726535 185.488263 
C 240.196595 185.488263 240.647466 185.301506 240.979849 184.969124 
C 241.312232 184.636741 241.498989 184.18587 241.498989 183.715809 
C 241.498989 183.245749 241.312232 182.794878 240.979849 182.462495 
C 240.647466 182.130113 240.196595 181.943356 239.726535 181.943356 
C 239.256475 181.943356 238.805604 182.130113 238.473221 182.462495 
C 238.140838 182.794878 237.954081 183.245749 237.954081 183.715809 
C 237.954081 184.18587 238.140838 184.636741 238.473221 184.969124 
C 238.805604 185.301506 239.256475 185.488263 239.726535 185.488263 
z
" style="fill:#ee3377;stroke:#ee3377;stroke-width:0.886227;"/>
    <path clip-path="url(#p4abbf7b6d0)" d="M 239.726535 183.311437 
C 240.196595 183.311437 240.647466 183.12468 240.979849 182.792297 
C 241.312232 182.459915 241.498989 182.009043 241.498989 181.538983 
C 241.498989 181.068923 241.312232 180.618052 240.979849 180.285669 
C 240.647466 179.953286 240.196595 179.766529 239.726535 179.766529 
C 239.256475 179.766529 238.805604 179.953286 238.473221 180.285669 
C 238.140838 180.618052 237.954081 181.068923 237.954081 181.538983 
C 237.954081 182.009043 238.140838 182.459915 238.473221 182.792297 
C 238.805604 183.12468 239.256475 183.311437 239.726535 183.311437 
z
" style="fill:#33bbee;stroke:#33bbee;stroke-width:0.886227;"/>
    <path clip-path="url(#p4abbf7b6d0)" d="M 261.085387 177.581402 
C 261.555447 177.581402 262.006318 177.394645 262.338701 177.062263 
C 262.671084 176.72988 262.857841 176.279009 262.857841 175.808948 
C 262.857841 175.338888 262.671084 174.888017 262.338701 174.555634 
C 262.006318 174.223251 261.555447 174.036495 261.085387 174.036495 
C 260.615326 174.036495 260.164455 174.223251 259.832073 174.555634 
C 259.49969 174.888017 259.312933 175.338888 259.312933 175.808948 
C 259.312933 176.279009 259.49969 176.72988 259.832073 177.062263 
C 260.164455 177.394645 260.615326 177.581402 261.085387 177.581402 
z
" style="fill:#ee3377;stroke:#ee3377;stroke-width:0.886227;"/>
    <path clip-path="url(#p4abbf7b6d0)" d="M 261.085387 177.728387 
C 261.555447 177.728387 262.006318 177.54163 262.338701 177.209247 
C 262.671084 176.876865 262.857841 176.425994 262.857841 175.955933 
C 262.857841 175.485873 262.671084 175.035002 262.338701 174.702619 
C 262.006318 174.370236 261.555447 174.18348 261.085387 174.18348 
C 260.615326 174.18348 260.164455 174.370236 259.832073 174.702619 
C 259.49969 175.035002 259.312933 175.485873 259.312933 175.955933 
C 259.312933 176.425994 259.49969 176.876865 259.832073 177.209247 
C 260.164455 177.54163 260.615326 177.728387 261.085387 177.728387 
z
" style="fill:#33bbee;stroke:#33bbee;stroke-width:0.886227;"/>
    <path clip-path="url(#p4abbf7b6d0)" d="M 282.444238 179.28737 
C 282.914299 179.28737 283.36517 179.100613 283.697552 178.76823 
C 284.029935 178.435847 284.216692 177.984976 284.216692 177.514916 
C 284.216692 177.044856 284.029935 176.593985 283.697552 176.261602 
C 283.36517 175.929219 282.914299 175.742462 282.444238 175.742462 
C 281.974178 175.742462 281.523307 175.929219 281.190924 176.261602 
C 280.858541 176.593985 280.671784 177.044856 280.671784 177.514916 
C 280.671784 177.984976 280.858541 178.435847 281.190924 178.76823 
C 281.523307 179.100613 281.974178 179.28737 282.444238 179.28737 
z
" style="fill:#ee3377;stroke:#ee3377;stroke-width:0.886227;"/>
    <path clip-path="url(#p4abbf7b6d0)" d="M 282.444238 179.571657 
C 282.914299 179.571657 283.36517 179.3849 283.697552 179.052517 
C 284.029935 178.720134 284.216692 178.269263 284.216692 177.799203 
C 284.216692 177.329143 284.029935 176.878272 283.697552 176.545889 
C 283.36517 176.213506 282.914299 176.026749 282.444238 176.026749 
C 281.974178 176.026749 281.523307 176.213506 281.190924 176.545889 
C 280.858541 176.878272 280.671784 177.329143 280.671784 177.799203 
C 280.671784 178.269263 280.858541 178.720134 281.190924 179.052517 
C 281.523307 179.3849 281.974178 179.571657 282.444238 179.571657 
z
" style="fill:#33bbee;stroke:#33bbee;stroke-width:0.886227;"/>
    <path clip-path="url(#p4abbf7b6d0)" d="M 303.80309 188.91527 
C 304.27315 188.91527 304.724021 188.728513 305.056404 188.396131 
C 305.388787 188.063748 305.575544 187.612877 305.575544 187.142816 
C 305.575544 186.672756 305.388787 186.221885 305.056404 185.889502 
C 304.724021 185.557119 304.27315 185.370363 303.80309 185.370363 
C 303.33303 185.370363 302.882159 185.557119 302.549776 185.889502 
C 302.217393 186.221885 302.030636 186.672756 302.030636 187.142816 
C 302.030636 187.612877 302.217393 188.063748 302.549776 188.396131 
C 302.882159 188.728513 303.33303 188.91527 303.80309 188.91527 
z
" style="fill:#ee3377;stroke:#ee3377;stroke-width:0.886227;"/>
    <path clip-path="url(#p4abbf7b6d0)" d="M 303.80309 187.886928 
C 304.27315 187.886928 304.724021 187.700171 305.056404 187.367789 
C 305.388787 187.035406 305.575544 186.584535 305.575544 186.114475 
C 305.575544 185.644414 305.388787 185.193543 305.056404 184.86116 
C 304.724021 184.528778 304.27315 184.342021 303.80309 184.342021 
C 303.33303 184.342021 302.882159 184.528778 302.549776 184.86116 
C 302.217393 185.193543 302.030636 185.644414 302.030636 186.114475 
C 302.030636 186.584535 302.217393 187.035406 302.549776 187.367789 
C 302.882159 187.700171 303.33303 187.886928 303.80309 187.886928 
z
" style="fill:#33bbee;stroke:#33bbee;stroke-width:0.886227;"/>
    <path clip-path="url(#p4abbf7b6d0)" d="M 325.161942 178.693659 
C 325.632002 178.693659 326.082873 178.506902 326.415256 178.174519 
C 326.747639 177.842137 326.934396 177.391266 326.934396 176.921205 
C 326.934396 176.451145 326.747639 176.000274 326.415256 175.667891 
C 326.082873 175.335508 325.632002 175.148751 325.161942 175.148751 
C 324.691881 175.148751 324.24101 175.335508 323.908628 175.667891 
C 323.576245 176.000274 323.389488 176.451145 323.389488 176.921205 
C 323.389488 177.391266 323.576245 177.842137 323.908628 178.174519 
C 324.24101 178.506902 324.691881 178.693659 325.161942 178.693659 
z
" style="fill:#ee3377;stroke:#ee3377;stroke-width:0.886227;"/>
    <path clip-path="url(#p4abbf7b6d0)" d="M 325.161942 178.62573 
C 325.632002 178.62573 326.082873 178.438973 326.415256 178.10659 
C 326.747639 177.774207 326.934396 177.323336 326.934396 176.853276 
C 326.934396 176.383215 326.747639 175.932344 326.415256 175.599962 
C 326.082873 175.267579 325.632002 175.080822 325.161942 175.080822 
C 324.691881 175.080822 324.24101 175.267579 323.908628 175.599962 
C 323.576245 175.932344 323.389488 176.383215 323.389488 176.853276 
C 323.389488 177.323336 323.576245 177.774207 323.908628 178.10659 
C 324.24101 178.438973 324.691881 178.62573 325.161942 178.62573 
z
" style="fill:#33bbee;stroke:#33bbee;stroke-width:0.886227;"/>
    <path clip-path="url(#p4abbf7b6d0)" d="M 346.520793 176.277853 
C 346.990854 176.277853 347.441725 176.091096 347.774107 175.758713 
C 348.10649 175.426331 348.293247 174.97546 348.293247 174.505399 
C 348.293247 174.035339 348.10649 173.584468 347.774107 173.252085 
C 347.441725 172.919702 346.990854 172.732945 346.520793 172.732945 
C 346.050733 172.732945 345.599862 172.919702 345.267479 173.252085 
C 344.935096 173.584468 344.74834 174.035339 344.74834 174.505399 
C 344.74834 174.97546 344.935096 175.426331 345.267479 175.758713 
C 345.599862 176.091096 346.050733 176.277853 346.520793 176.277853 
z
" style="fill:#ee3377;stroke:#ee3377;stroke-width:0.886227;"/>
    <path clip-path="url(#p4abbf7b6d0)" d="M 346.520793 175.657558 
C 346.990854 175.657558 347.441725 175.470801 347.774107 175.138419 
C 348.10649 174.806036 348.293247 174.355165 348.293247 173.885105 
C 348.293247 173.415044 348.10649 172.964173 347.774107 172.63179 
C 347.441725 172.299408 346.990854 172.112651 346.520793 172.112651 
C 346.050733 172.112651 345.599862 172.299408 345.267479 172.63179 
C 344.935096 172.964173 344.74834 173.415044 344.74834 173.885105 
C 344.74834 174.355165 344.935096 174.806036 345.267479 175.138419 
C 345.599862 175.470801 346.050733 175.657558 346.520793 175.657558 
z
" style="fill:#33bbee;stroke:#33bbee;stroke-width:0.886227;"/>
    <path clip-path="url(#p4abbf7b6d0)" d="M 367.879645 168.495165 
C 368.349705 168.495165 368.800576 168.308408 369.132959 167.976025 
C 369.465342 167.643642 369.652099 167.192771 369.652099 166.722711 
C 369.652099 166.25265 369.465342 165.801779 369.132959 165.469397 
C 368.800576 165.137014 368.349705 164.950257 367.879645 164.950257 
C 367.409585 164.950257 366.958714 165.137014 366.626331 165.469397 
C 366.293948 165.801779 366.107191 166.25265 366.107191 166.722711 
C 366.107191 167.192771 366.293948 167.643642 366.626331 167.976025 
C 366.958714 168.308408 367.409585 168.495165 367.879645 168.495165 
z
" style="fill:#ee3377;stroke:#ee3377;stroke-width:0.886227;"/>
    <path clip-path="url(#p4abbf7b6d0)" d="M 367.879645 173.00692 
C 368.349705 173.00692 368.800576 172.820163 369.132959 172.487781 
C 369.465342 172.155398 369.652099 171.704527 369.652099 171.234467 
C 369.652099 170.764406 369.465342 170.313535 369.132959 169.981152 
C 368.800576 169.64877 368.349705 169.462013 367.879645 169.462013 
C 367.409585 169.462013 366.958714 169.64877 366.626331 169.981152 
C 366.293948 170.313535 366.107191 170.764406 366.107191 171.234467 
C 366.107191 171.704527 366.293948 172.155398 366.626331 172.487781 
C 366.958714 172.820163 367.409585 173.00692 367.879645 173.00692 
z
" style="fill:#33bbee;stroke:#33bbee;stroke-width:0.886227;"/>
    <path clip-path="url(#p4abbf7b6d0)" d="M 389.238497 170.509135 
C 389.708557 170.509135 390.159428 170.322378 390.491811 169.989995 
C 390.824194 169.657612 391.010951 169.206741 391.010951 168.736681 
C 391.010951 168.266621 390.824194 167.81575 390.491811 167.483367 
C 390.159428 167.150984 389.708557 166.964227 389.238497 166.964227 
C 388.768436 166.964227 388.317565 167.150984 387.985183 167.483367 
C 387.6528 167.81575 387.466043 168.266621 387.466043 168.736681 
C 387.466043 169.206741 387.6528 169.657612 387.985183 169.989995 
C 388.317565 170.322378 388.768436 170.509135 389.238497 170.509135 
z
" style="fill:#ee3377;stroke:#ee3377;stroke-width:0.886227;"/>
    <path clip-path="url(#p4abbf7b6d0)" d="M 389.238497 169.93144 
C 389.708557 169.93144 390.159428 169.744683 390.491811 169.4123 
C 390.824194 169.079917 391.010951 168.629046 391.010951 168.158986 
C 391.010951 167.688925 390.824194 167.238054 390.491811 166.905672 
C 390.159428 166.573289 389.708557 166.386532 389.238497 166.386532 
C 388.768436 166.386532 388.317565 166.573289 387.985183 166.905672 
C 387.6528 167.238054 387.466043 167.688925 387.466043 168.158986 
C 387.466043 168.629046 387.6528 169.079917 387.985183 169.4123 
C 388.317565 169.744683 388.768436 169.93144 389.238497 169.93144 
z
" style="fill:#33bbee;stroke:#33bbee;stroke-width:0.886227;"/>
    <path clip-path="url(#p4abbf7b6d0)" d="M 410.597348 171.375211 
C 411.067409 171.375211 411.51828 171.188454 411.850663 170.856071 
C 412.183045 170.523689 412.369802 170.072818 412.369802 169.602757 
C 412.369802 169.132697 412.183045 168.681826 411.850663 168.349443 
C 411.51828 168.01706 411.067409 167.830303 410.597348 167.830303 
C 410.127288 167.830303 409.676417 168.01706 409.344034 168.349443 
C 409.011651 168.681826 408.824895 169.132697 408.824895 169.602757 
C 408.824895 170.072818 409.011651 170.523689 409.344034 170.856071 
C 409.676417 171.188454 410.127288 171.375211 410.597348 171.375211 
z
" style="fill:#ee3377;stroke:#ee3377;stroke-width:0.886227;"/>
    <path clip-path="url(#p4abbf7b6d0)" d="M 410.597348 171.95344 
C 411.067409 171.95344 411.51828 171.766683 411.850663 171.4343 
C 412.183045 171.101917 412.369802 170.651046 412.369802 170.180986 
C 412.369802 169.710926 412.183045 169.260055 411.850663 168.927672 
C 411.51828 168.595289 411.067409 168.408532 410.597348 168.408532 
C 410.127288 168.408532 409.676417 168.595289 409.344034 168.927672 
C 409.011651 169.260055 408.824895 169.710926 408.824895 170.180986 
C 408.824895 170.651046 409.011651 171.101917 409.344034 171.4343 
C 409.676417 171.766683 410.127288 171.95344 410.597348 171.95344 
z
" style="fill:#33bbee;stroke:#33bbee;stroke-width:0.886227;"/>
    <path clip-path="url(#p4abbf7b6d0)" d="M 431.9562 170.213825 
C 432.42626 170.213825 432.877131 170.027068 433.209514 169.694685 
C 433.541897 169.362302 433.728654 168.911431 433.728654 168.441371 
C 433.728654 167.971311 433.541897 167.52044 433.209514 167.188057 
C 432.877131 166.855674 432.42626 166.668917 431.9562 166.668917 
C 431.48614 166.668917 431.035269 166.855674 430.702886 167.188057 
C 430.370503 167.52044 430.183746 167.971311 430.183746 168.441371 
C 430.183746 168.911431 430.370503 169.362302 430.702886 169.694685 
C 431.035269 170.027068 431.48614 170.213825 431.9562 170.213825 
z
" style="fill:#ee3377;stroke:#ee3377;stroke-width:0.886227;"/>
    <path clip-path="url(#p4abbf7b6d0)" d="M 431.9562 173.771623 
C 432.42626 173.771623 432.877131 173.584866 433.209514 173.252483 
C 433.541897 172.920101 433.728654 172.46923 433.728654 171.999169 
C 433.728654 171.529109 433.541897 171.078238 433.209514 170.745855 
C 432.877131 170.413472 432.42626 170.226716 431.9562 170.226716 
C 431.48614 170.226716 431.035269 170.413472 430.702886 170.745855 
C 430.370503 171.078238 430.183746 171.529109 430.183746 171.999169 
C 430.183746 172.46923 430.370503 172.920101 430.702886 173.252483 
C 431.035269 173.584866 431.48614 173.771623 431.9562 173.771623 
z
" style="fill:#33bbee;stroke:#33bbee;stroke-width:0.886227;"/>
    <path clip-path="url(#p4abbf7b6d0)" d="M 453.315052 180.454937 
C 453.785112 180.454937 454.235983 180.26818 454.568366 179.935797 
C 454.900749 179.603415 455.087506 179.152544 455.087506 178.682483 
C 455.087506 178.212423 454.900749 177.761552 454.568366 177.429169 
C 454.235983 177.096786 453.785112 176.910029 453.315052 176.910029 
C 452.844991 176.910029 452.39412 177.096786 452.061738 177.429169 
C 451.729355 177.761552 451.542598 178.212423 451.542598 178.682483 
C 451.542598 179.152544 451.729355 179.603415 452.061738 179.935797 
C 452.39412 180.26818 452.844991 180.454937 453.315052 180.454937 
z
" style="fill:#ee3377;stroke:#ee3377;stroke-width:0.886227;"/>
    <path clip-path="url(#p4abbf7b6d0)" d="M 453.315052 178.195317 
C 453.785112 178.195317 454.235983 178.00856 454.568366 177.676177 
C 454.900749 177.343794 455.087506 176.892923 455.087506 176.422863 
C 455.087506 175.952803 454.900749 175.501931 454.568366 175.169549 
C 454.235983 174.837166 453.785112 174.650409 453.315052 174.650409 
C 452.844991 174.650409 452.39412 174.837166 452.061738 175.169549 
C 451.729355 175.501931 451.542598 175.952803 451.542598 176.422863 
C 451.542598 176.892923 451.729355 177.343794 452.061738 177.676177 
C 452.39412 178.00856 452.844991 178.195317 453.315052 178.195317 
z
" style="fill:#33bbee;stroke:#33bbee;stroke-width:0.886227;"/>
    <path clip-path="url(#p4abbf7b6d0)" d="M 474.673903 161.694127 
C 475.143964 161.694127 475.594835 161.50737 475.927218 161.174987 
C 476.2596 160.842605 476.446357 160.391734 476.446357 159.921673 
C 476.446357 159.451613 476.2596 159.000742 475.927218 158.668359 
C 475.594835 158.335976 475.143964 158.149219 474.673903 158.149219 
C 474.203843 158.149219 473.752972 158.335976 473.420589 158.668359 
C 473.088206 159.000742 472.90145 159.451613 472.90145 159.921673 
C 472.90145 160.391734 473.088206 160.842605 473.420589 161.174987 
C 473.752972 161.50737 474.203843 161.694127 474.673903 161.694127 
z
" style="fill:#ee3377;stroke:#ee3377;stroke-width:0.886227;"/>
    <path clip-path="url(#p4abbf7b6d0)" d="M 474.673903 158.21801 
C 475.143964 158.21801 475.594835 158.031253 475.927218 157.69887 
C 476.2596 157.366487 476.446357 156.915616 476.446357 156.445556 
C 476.446357 155.975496 476.2596 155.524624 475.927218 155.192242 
C 475.594835 154.859859 475.143964 154.673102 474.673903 154.673102 
C 474.203843 154.673102 473.752972 154.859859 473.420589 155.192242 
C 473.088206 155.524624 472.90145 155.975496 472.90145 156.445556 
C 472.90145 156.915616 473.088206 157.366487 473.420589 157.69887 
C 473.752972 158.031253 474.203843 158.21801 474.673903 158.21801 
z
" style="fill:#33bbee;stroke:#33bbee;stroke-width:0.886227;"/>
   </g>
   <g id="line2d_35">
    <path clip-path="url(#p4abbf7b6d0)" d="M 68.855722 203.539214 
L 90.214573 218.14413 
L 111.573425 185.282146 
L 132.932277 212.920555 
L 154.291128 214.504018 
L 175.64998 197.718638 
L 197.008832 186.229706 
L 218.367683 170.880159 
L 239.726535 183.715809 
L 261.085387 175.808948 
L 282.444238 177.514916 
L 303.80309 187.142816 
L 325.161942 176.921205 
L 346.520793 174.505399 
L 367.879645 166.722711 
L 389.238497 168.736681 
L 410.597348 169.602757 
L 431.9562 168.441371 
L 453.315052 178.682483 
L 474.673903 159.921673 
" style="fill:none;stroke:#ee3377;stroke-width:0.886227;"/>
   </g>
   <g id="line2d_36">
    <path clip-path="url(#p4abbf7b6d0)" d="M 68.855722 195.862576 
L 90.214573 214.103968 
L 111.573425 177.971582 
L 132.932277 203.309898 
L 154.291128 205.684277 
L 175.64998 193.713415 
L 197.008832 188.892803 
L 218.367683 170.536538 
L 239.726535 181.538983 
L 261.085387 175.955933 
L 282.444238 177.799203 
L 303.80309 186.114475 
L 325.161942 176.853276 
L 346.520793 173.885105 
L 367.879645 171.234467 
L 389.238497 168.158986 
L 410.597348 170.180986 
L 431.9562 171.999169 
L 453.315052 176.422863 
L 474.673903 156.445556 
" style="fill:none;stroke:#33bbee;stroke-dasharray:3.27904,1.417963;stroke-dashoffset:0;stroke-width:0.886227;"/>
   </g>
   <g id="patch_3">
    <path d="M 85.5835 47.44 
L 443.546125 47.44 
L 443.546125 7.2 
L 85.5835 7.2 
z
" style="fill:#ffffff;"/>
   </g>
   <g id="patch_4">
    <path clip-path="url(#p655d2c6c8b)" d="M 97.7835 35.24 
L 113.6235 35.24 
L 113.6235 19.4 
L 97.7835 19.4 
z
" style="fill:#f2f2f2;stroke:#cccccc;stroke-linejoin:miter;"/>
   </g>
   <g id="line2d_37">
    <path clip-path="url(#p655d2c6c8b)" d="M 105.7035 27.32 
" style="fill:none;stroke:#4c72b0;stroke-linecap:square;stroke-width:1.5;"/>
    <defs>
     <path d="M 0 1.772454 
C 0.47006 1.772454 0.920931 1.585697 1.253314 1.253314 
C 1.585697 0.920931 1.772454 0.47006 1.772454 0 
C 1.772454 -0.47006 1.585697 -0.920931 1.253314 -1.253314 
C 0.920931 -1.585697 0.47006 -1.772454 0 -1.772454 
C -0.47006 -1.772454 -0.920931 -1.585697 -1.253314 -1.253314 
C -1.585697 -0.920931 -1.772454 -0.47006 -1.772454 0 
C -1.772454 0.47006 -1.585697 0.920931 -1.253314 1.253314 
C -0.920931 1.585697 -0.47006 1.772454 0 1.772454 
z
" id="m85adbd8552" style="stroke:#ee3377;stroke-width:0.886227;"/>
    </defs>
    <g clip-path="url(#p655d2c6c8b)">
     <use style="fill:#ee3377;stroke:#ee3377;stroke-width:0.886227;" x="105.7035" xlink:href="#m85adbd8552" y="27.32"/>
    </g>
   </g>
   <g id="line2d_38">
    <path clip-path="url(#p655d2c6c8b)" d="M 97.7835 27.32 
L 113.6235 27.32 
" style="fill:none;stroke:#ee3377;stroke-width:0.886227;"/>
   </g>
   <g id="text_12">
    <!-- Impact per paper (IPP) -->
    <defs>
     <path d="M 9.8125 72.90625 
L 19.671875 72.90625 
L 19.671875 0 
L 9.8125 0 
z
" id="DejaVuSans-73"/>
     <path d="M 31 75.875 
Q 24.46875 64.65625 21.28125 53.65625 
Q 18.109375 42.671875 18.109375 31.390625 
Q 18.109375 20.125 21.3125 9.0625 
Q 24.515625 -2 31 -13.1875 
L 23.1875 -13.1875 
Q 15.875 -1.703125 12.234375 9.375 
Q 8.59375 20.453125 8.59375 31.390625 
Q 8.59375 42.28125 12.203125 53.3125 
Q 15.828125 64.359375 23.1875 75.875 
z
" id="DejaVuSans-40"/>
     <path d="M 19.671875 64.796875 
L 19.671875 37.40625 
L 32.078125 37.40625 
Q 38.96875 37.40625 42.71875 40.96875 
Q 46.484375 44.53125 46.484375 51.125 
Q 46.484375 57.671875 42.71875 61.234375 
Q 38.96875 64.796875 32.078125 64.796875 
z
M 9.8125 72.90625 
L 32.078125 72.90625 
Q 44.34375 72.90625 50.609375 67.359375 
Q 56.890625 61.8125 56.890625 51.125 
Q 56.890625 40.328125 50.609375 34.8125 
Q 44.34375 29.296875 32.078125 29.296875 
L 19.671875 29.296875 
L 19.671875 0 
L 9.8125 0 
z
" id="DejaVuSans-80"/>
     <path d="M 8.015625 75.875 
L 15.828125 75.875 
Q 23.140625 64.359375 26.78125 53.3125 
Q 30.421875 42.28125 30.421875 31.390625 
Q 30.421875 20.453125 26.78125 9.375 
Q 23.140625 -1.703125 15.828125 -13.1875 
L 8.015625 -13.1875 
Q 14.5 -2 17.703125 9.0625 
Q 20.90625 20.125 20.90625 31.390625 
Q 20.90625 42.671875 17.703125 53.65625 
Q 14.5 64.65625 8.015625 75.875 
z
" id="DejaVuSans-41"/>
    </defs>
    <g transform="translate(116.6235 29.74825)scale(0.088 -0.088)">
     <use xlink:href="#DejaVuSans-73"/>
     <use x="29.492188" xlink:href="#DejaVuSans-109"/>
     <use x="126.904297" xlink:href="#DejaVuSans-112"/>
     <use x="190.380859" xlink:href="#DejaVuSans-97"/>
     <use x="251.660156" xlink:href="#DejaVuSans-99"/>
     <use x="306.640625" xlink:href="#DejaVuSans-116"/>
     <use x="345.849609" xlink:href="#DejaVuSans-32"/>
     <use x="377.636719" xlink:href="#DejaVuSans-112"/>
     <use x="441.113281" xlink:href="#DejaVuSans-101"/>
     <use x="502.636719" xlink:href="#DejaVuSans-114"/>
     <use x="543.75" xlink:href="#DejaVuSans-32"/>
     <use x="575.537109" xlink:href="#DejaVuSans-112"/>
     <use x="639.013672" xlink:href="#DejaVuSans-97"/>
     <use x="700.292969" xlink:href="#DejaVuSans-112"/>
     <use x="763.769531" xlink:href="#DejaVuSans-101"/>
     <use x="825.292969" xlink:href="#DejaVuSans-114"/>
     <use x="866.40625" xlink:href="#DejaVuSans-32"/>
     <use x="898.193359" xlink:href="#DejaVuSans-40"/>
     <use x="937.207031" xlink:href="#DejaVuSans-73"/>
     <use x="966.699219" xlink:href="#DejaVuSans-80"/>
     <use x="1027.001953" xlink:href="#DejaVuSans-80"/>
     <use x="1087.304688" xlink:href="#DejaVuSans-41"/>
    </g>
   </g>
   <g id="patch_5">
    <path clip-path="url(#p5639603df1)" d="M 220.74175 35.24 
L 236.58175 35.24 
L 236.58175 19.4 
L 220.74175 19.4 
z
" style="fill:#f2f2f2;stroke:#cccccc;stroke-linejoin:miter;"/>
   </g>
   <g id="line2d_39">
    <path clip-path="url(#p5639603df1)" d="M 228.66175 27.32 
" style="fill:none;stroke:#4c72b0;stroke-linecap:square;stroke-width:1.5;"/>
    <defs>
     <path d="M 0 1.772454 
C 0.47006 1.772454 0.920931 1.585697 1.253314 1.253314 
C 1.585697 0.920931 1.772454 0.47006 1.772454 0 
C 1.772454 -0.47006 1.585697 -0.920931 1.253314 -1.253314 
C 0.920931 -1.585697 0.47006 -1.772454 0 -1.772454 
C -0.47006 -1.772454 -0.920931 -1.585697 -1.253314 -1.253314 
C -1.585697 -0.920931 -1.772454 -0.47006 -1.772454 0 
C -1.772454 0.47006 -1.585697 0.920931 -1.253314 1.253314 
C -0.920931 1.585697 -0.47006 1.772454 0 1.772454 
z
" id="m17378dbd56" style="stroke:#33bbee;stroke-width:0.886227;"/>
    </defs>
    <g clip-path="url(#p5639603df1)">
     <use style="fill:#33bbee;stroke:#33bbee;stroke-width:0.886227;" x="228.66175" xlink:href="#m17378dbd56" y="27.32"/>
    </g>
   </g>
   <g id="line2d_40">
    <path clip-path="url(#p5639603df1)" d="M 220.74175 27.32 
L 236.58175 27.32 
" style="fill:none;stroke:#33bbee;stroke-dasharray:3.27904,1.417963;stroke-dashoffset:0;stroke-width:0.886227;"/>
   </g>
   <g id="text_13">
    <!-- Source Normalized Impact per Paper (SNIP) -->
    <defs>
     <path d="M 8.5 21.578125 
L 8.5 54.6875 
L 17.484375 54.6875 
L 17.484375 21.921875 
Q 17.484375 14.15625 20.5 10.265625 
Q 23.53125 6.390625 29.59375 6.390625 
Q 36.859375 6.390625 41.078125 11.03125 
Q 45.3125 15.671875 45.3125 23.6875 
L 45.3125 54.6875 
L 54.296875 54.6875 
L 54.296875 0 
L 45.3125 0 
L 45.3125 8.40625 
Q 42.046875 3.421875 37.71875 1 
Q 33.40625 -1.421875 27.6875 -1.421875 
Q 18.265625 -1.421875 13.375 4.4375 
Q 8.5 10.296875 8.5 21.578125 
z
M 31.109375 56 
z
" id="DejaVuSans-117"/>
     <path d="M 9.8125 72.90625 
L 23.09375 72.90625 
L 55.421875 11.921875 
L 55.421875 72.90625 
L 64.984375 72.90625 
L 64.984375 0 
L 51.703125 0 
L 19.390625 60.984375 
L 19.390625 0 
L 9.8125 0 
z
" id="DejaVuSans-78"/>
     <path d="M 5.515625 54.6875 
L 48.1875 54.6875 
L 48.1875 46.484375 
L 14.40625 7.171875 
L 48.1875 7.171875 
L 48.1875 0 
L 4.296875 0 
L 4.296875 8.203125 
L 38.09375 47.515625 
L 5.515625 47.515625 
z
" id="DejaVuSans-122"/>
     <path d="M 45.40625 46.390625 
L 45.40625 75.984375 
L 54.390625 75.984375 
L 54.390625 0 
L 45.40625 0 
L 45.40625 8.203125 
Q 42.578125 3.328125 38.25 0.953125 
Q 33.9375 -1.421875 27.875 -1.421875 
Q 17.96875 -1.421875 11.734375 6.484375 
Q 5.515625 14.40625 5.515625 27.296875 
Q 5.515625 40.1875 11.734375 48.09375 
Q 17.96875 56 27.875 56 
Q 33.9375 56 38.25 53.625 
Q 42.578125 51.265625 45.40625 46.390625 
z
M 14.796875 27.296875 
Q 14.796875 17.390625 18.875 11.75 
Q 22.953125 6.109375 30.078125 6.109375 
Q 37.203125 6.109375 41.296875 11.75 
Q 45.40625 17.390625 45.40625 27.296875 
Q 45.40625 37.203125 41.296875 42.84375 
Q 37.203125 48.484375 30.078125 48.484375 
Q 22.953125 48.484375 18.875 42.84375 
Q 14.796875 37.203125 14.796875 27.296875 
z
" id="DejaVuSans-100"/>
    </defs>
    <g transform="translate(239.58175 29.74825)scale(0.088 -0.088)">
     <use xlink:href="#DejaVuSans-83"/>
     <use x="63.476562" xlink:href="#DejaVuSans-111"/>
     <use x="124.658203" xlink:href="#DejaVuSans-117"/>
     <use x="188.037109" xlink:href="#DejaVuSans-114"/>
     <use x="229.119141" xlink:href="#DejaVuSans-99"/>
     <use x="284.099609" xlink:href="#DejaVuSans-101"/>
     <use x="345.623047" xlink:href="#DejaVuSans-32"/>
     <use x="377.410156" xlink:href="#DejaVuSans-78"/>
     <use x="452.214844" xlink:href="#DejaVuSans-111"/>
     <use x="513.396484" xlink:href="#DejaVuSans-114"/>
     <use x="554.494141" xlink:href="#DejaVuSans-109"/>
     <use x="651.90625" xlink:href="#DejaVuSans-97"/>
     <use x="713.185547" xlink:href="#DejaVuSans-108"/>
     <use x="740.96875" xlink:href="#DejaVuSans-105"/>
     <use x="768.751953" xlink:href="#DejaVuSans-122"/>
     <use x="821.242188" xlink:href="#DejaVuSans-101"/>
     <use x="882.765625" xlink:href="#DejaVuSans-100"/>
     <use x="946.242188" xlink:href="#DejaVuSans-32"/>
     <use x="978.029297" xlink:href="#DejaVuSans-73"/>
     <use x="1007.521484" xlink:href="#DejaVuSans-109"/>
     <use x="1104.933594" xlink:href="#DejaVuSans-112"/>
     <use x="1168.410156" xlink:href="#DejaVuSans-97"/>
     <use x="1229.689453" xlink:href="#DejaVuSans-99"/>
     <use x="1284.669922" xlink:href="#DejaVuSans-116"/>
     <use x="1323.878906" xlink:href="#DejaVuSans-32"/>
     <use x="1355.666016" xlink:href="#DejaVuSans-112"/>
     <use x="1419.142578" xlink:href="#DejaVuSans-101"/>
     <use x="1480.666016" xlink:href="#DejaVuSans-114"/>
     <use x="1521.779297" xlink:href="#DejaVuSans-32"/>
     <use x="1553.566406" xlink:href="#DejaVuSans-80"/>
     <use x="1613.806641" xlink:href="#DejaVuSans-97"/>
     <use x="1675.085938" xlink:href="#DejaVuSans-112"/>
     <use x="1738.5625" xlink:href="#DejaVuSans-101"/>
     <use x="1800.085938" xlink:href="#DejaVuSans-114"/>
     <use x="1841.199219" xlink:href="#DejaVuSans-32"/>
     <use x="1872.986328" xlink:href="#DejaVuSans-40"/>
     <use x="1912" xlink:href="#DejaVuSans-83"/>
     <use x="1975.476562" xlink:href="#DejaVuSans-78"/>
     <use x="2050.28125" xlink:href="#DejaVuSans-73"/>
     <use x="2079.773438" xlink:href="#DejaVuSans-80"/>
     <use x="2140.076172" xlink:href="#DejaVuSans-41"/>
    </g>
   </g>
  </g>
 </g>
 <defs>
  <clipPath id="p4abbf7b6d0">
   <rect height="221.76" width="446.4" x="48.564813" y="54.64"/>
  </clipPath>
  <clipPath id="p655d2c6c8b">
   <path d="M 97.7835 35.24 
L 97.7835 19.4 
L 113.6235 19.4 
L 113.6235 35.24 
"/>
  </clipPath>
  <clipPath id="p5639603df1">
   <path d="M 220.74175 35.24 
L 220.74175 19.4 
L 236.58175 19.4 
L 236.58175 35.24 
"/>
  </clipPath>
 </defs>
</svg>
