<?xml version="1.0" encoding="utf-8" standalone="no"?>
<!DOCTYPE svg PUBLIC "-//W3C//DTD SVG 1.1//EN"
  "http://www.w3.org/Graphics/SVG/1.1/DTD/svg11.dtd">
<!-- Created with matplotlib (https://matplotlib.org/) -->
<svg height="264.672687pt" version="1.1" viewBox="0 0 744.369188 264.672687" width="744.369188pt" xmlns="http://www.w3.org/2000/svg" xmlns:xlink="http://www.w3.org/1999/xlink">
 <defs>
  <style type="text/css">
*{stroke-linecap:butt;stroke-linejoin:round;}
  </style>
 </defs>
 <g id="figure_1">
  <g id="patch_1">
   <path d="M 0 264.672687 
L 744.369188 264.672687 
L 744.369188 0 
L 0 0 
z
" style="fill:#ffffff;stroke:#ffffff;stroke-linejoin:miter;"/>
  </g>
  <g id="axes_1">
   <g id="patch_2">
    <path d="M 48.564813 228.96 
L 494.964812 228.96 
L 494.964812 7.2 
L 48.564813 7.2 
z
" style="fill:#ffffff;"/>
   </g>
   <g id="matplotlib.axis_1">
    <g id="xtick_1">
     <g id="line2d_1">
      <path d="M 90.214573 228.96 
" style="fill:none;stroke:#000000;stroke-width:1.5;"/>
      <defs>
       <path d="M 0 0 
L 0 2.75 
" id="me1308c6f63" style="stroke:#000000;"/>
      </defs>
      <g>
       <use style="stroke:#000000;" x="90.214573" xlink:href="#me1308c6f63" y="228.96"/>
      </g>
     </g>
     <g id="text_1">
      <!-- 2000 -->
      <defs>
       <path d="M 19.1875 8.296875 
L 53.609375 8.296875 
L 53.609375 0 
L 7.328125 0 
L 7.328125 8.296875 
Q 12.9375 14.109375 22.625 23.890625 
Q 32.328125 33.6875 34.8125 36.53125 
Q 39.546875 41.84375 41.421875 45.53125 
Q 43.3125 49.21875 43.3125 52.78125 
Q 43.3125 58.59375 39.234375 62.25 
Q 35.15625 65.921875 28.609375 65.921875 
Q 23.96875 65.921875 18.8125 64.3125 
Q 13.671875 62.703125 7.8125 59.421875 
L 7.8125 69.390625 
Q 13.765625 71.78125 18.9375 73 
Q 24.125 74.21875 28.421875 74.21875 
Q 39.75 74.21875 46.484375 68.546875 
Q 53.21875 62.890625 53.21875 53.421875 
Q 53.21875 48.921875 51.53125 44.890625 
Q 49.859375 40.875 45.40625 35.40625 
Q 44.1875 33.984375 37.640625 27.21875 
Q 31.109375 20.453125 19.1875 8.296875 
z
" id="DejaVuSans-50"/>
       <path d="M 31.78125 66.40625 
Q 24.171875 66.40625 20.328125 58.90625 
Q 16.5 51.421875 16.5 36.375 
Q 16.5 21.390625 20.328125 13.890625 
Q 24.171875 6.390625 31.78125 6.390625 
Q 39.453125 6.390625 43.28125 13.890625 
Q 47.125 21.390625 47.125 36.375 
Q 47.125 51.421875 43.28125 58.90625 
Q 39.453125 66.40625 31.78125 66.40625 
z
M 31.78125 74.21875 
Q 44.046875 74.21875 50.515625 64.515625 
Q 56.984375 54.828125 56.984375 36.375 
Q 56.984375 17.96875 50.515625 8.265625 
Q 44.046875 -1.421875 31.78125 -1.421875 
Q 19.53125 -1.421875 13.0625 8.265625 
Q 6.59375 17.96875 6.59375 36.375 
Q 6.59375 54.828125 13.0625 64.515625 
Q 19.53125 74.21875 31.78125 74.21875 
z
" id="DejaVuSans-48"/>
      </defs>
      <g transform="translate(79.016573 240.596625)scale(0.088 -0.088)">
       <use xlink:href="#DejaVuSans-50"/>
       <use x="63.623047" xlink:href="#DejaVuSans-48"/>
       <use x="127.246094" xlink:href="#DejaVuSans-48"/>
       <use x="190.869141" xlink:href="#DejaVuSans-48"/>
      </g>
     </g>
    </g>
    <g id="xtick_2">
     <g id="line2d_2">
      <path d="M 197.008832 228.96 
" style="fill:none;stroke:#000000;stroke-width:1.5;"/>
      <g>
       <use style="stroke:#000000;" x="197.008832" xlink:href="#me1308c6f63" y="228.96"/>
      </g>
     </g>
     <g id="text_2">
      <!-- 2005 -->
      <defs>
       <path d="M 10.796875 72.90625 
L 49.515625 72.90625 
L 49.515625 64.59375 
L 19.828125 64.59375 
L 19.828125 46.734375 
Q 21.96875 47.46875 24.109375 47.828125 
Q 26.265625 48.1875 28.421875 48.1875 
Q 40.625 48.1875 47.75 41.5 
Q 54.890625 34.8125 54.890625 23.390625 
Q 54.890625 11.625 47.5625 5.09375 
Q 40.234375 -1.421875 26.90625 -1.421875 
Q 22.3125 -1.421875 17.546875 -0.640625 
Q 12.796875 0.140625 7.71875 1.703125 
L 7.71875 11.625 
Q 12.109375 9.234375 16.796875 8.0625 
Q 21.484375 6.890625 26.703125 6.890625 
Q 35.15625 6.890625 40.078125 11.328125 
Q 45.015625 15.765625 45.015625 23.390625 
Q 45.015625 31 40.078125 35.4375 
Q 35.15625 39.890625 26.703125 39.890625 
Q 22.75 39.890625 18.8125 39.015625 
Q 14.890625 38.140625 10.796875 36.28125 
z
" id="DejaVuSans-53"/>
      </defs>
      <g transform="translate(185.810832 240.596625)scale(0.088 -0.088)">
       <use xlink:href="#DejaVuSans-50"/>
       <use x="63.623047" xlink:href="#DejaVuSans-48"/>
       <use x="127.246094" xlink:href="#DejaVuSans-48"/>
       <use x="190.869141" xlink:href="#DejaVuSans-53"/>
      </g>
     </g>
    </g>
    <g id="xtick_3">
     <g id="line2d_3">
      <path d="M 303.80309 228.96 
" style="fill:none;stroke:#000000;stroke-width:1.5;"/>
      <g>
       <use style="stroke:#000000;" x="303.80309" xlink:href="#me1308c6f63" y="228.96"/>
      </g>
     </g>
     <g id="text_3">
      <!-- 2010 -->
      <defs>
       <path d="M 12.40625 8.296875 
L 28.515625 8.296875 
L 28.515625 63.921875 
L 10.984375 60.40625 
L 10.984375 69.390625 
L 28.421875 72.90625 
L 38.28125 72.90625 
L 38.28125 8.296875 
L 54.390625 8.296875 
L 54.390625 0 
L 12.40625 0 
z
" id="DejaVuSans-49"/>
      </defs>
      <g transform="translate(292.60509 240.596625)scale(0.088 -0.088)">
       <use xlink:href="#DejaVuSans-50"/>
       <use x="63.623047" xlink:href="#DejaVuSans-48"/>
       <use x="127.246094" xlink:href="#DejaVuSans-49"/>
       <use x="190.869141" xlink:href="#DejaVuSans-48"/>
      </g>
     </g>
    </g>
    <g id="xtick_4">
     <g id="line2d_4">
      <path d="M 410.597348 228.96 
" style="fill:none;stroke:#000000;stroke-width:1.5;"/>
      <g>
       <use style="stroke:#000000;" x="410.597348" xlink:href="#me1308c6f63" y="228.96"/>
      </g>
     </g>
     <g id="text_4">
      <!-- 2015 -->
      <g transform="translate(399.399348 240.596625)scale(0.088 -0.088)">
       <use xlink:href="#DejaVuSans-50"/>
       <use x="63.623047" xlink:href="#DejaVuSans-48"/>
       <use x="127.246094" xlink:href="#DejaVuSans-49"/>
       <use x="190.869141" xlink:href="#DejaVuSans-53"/>
      </g>
     </g>
    </g>
    <g id="xtick_5">
     <g id="line2d_5">
      <path d="M 143.611702 228.96 
" style="fill:none;stroke:#000000;stroke-width:1.5;"/>
      <defs>
       <path d="M 0 0 
L 0 1.375 
" id="mfdca1b10df" style="stroke:#000000;"/>
      </defs>
      <g>
       <use style="stroke:#000000;" x="143.611702" xlink:href="#mfdca1b10df" y="228.96"/>
      </g>
     </g>
    </g>
    <g id="xtick_6">
     <g id="line2d_6">
      <path d="M 250.405961 228.96 
" style="fill:none;stroke:#000000;stroke-width:1.5;"/>
      <g>
       <use style="stroke:#000000;" x="250.405961" xlink:href="#mfdca1b10df" y="228.96"/>
      </g>
     </g>
    </g>
    <g id="xtick_7">
     <g id="line2d_7">
      <path d="M 357.200219 228.96 
" style="fill:none;stroke:#000000;stroke-width:1.5;"/>
      <g>
       <use style="stroke:#000000;" x="357.200219" xlink:href="#mfdca1b10df" y="228.96"/>
      </g>
     </g>
    </g>
    <g id="xtick_8">
     <g id="line2d_8">
      <path d="M 463.994478 228.96 
" style="fill:none;stroke:#000000;stroke-width:1.5;"/>
      <g>
       <use style="stroke:#000000;" x="463.994478" xlink:href="#mfdca1b10df" y="228.96"/>
      </g>
     </g>
    </g>
    <g id="text_5">
     <!-- Year -->
     <defs>
      <path d="M -0.203125 72.90625 
L 10.40625 72.90625 
L 30.609375 42.921875 
L 50.6875 72.90625 
L 61.28125 72.90625 
L 35.5 34.71875 
L 35.5 0 
L 25.59375 0 
L 25.59375 34.71875 
z
" id="DejaVuSans-89"/>
      <path d="M 56.203125 29.59375 
L 56.203125 25.203125 
L 14.890625 25.203125 
Q 15.484375 15.921875 20.484375 11.0625 
Q 25.484375 6.203125 34.421875 6.203125 
Q 39.59375 6.203125 44.453125 7.46875 
Q 49.3125 8.734375 54.109375 11.28125 
L 54.109375 2.78125 
Q 49.265625 0.734375 44.1875 -0.34375 
Q 39.109375 -1.421875 33.890625 -1.421875 
Q 20.796875 -1.421875 13.15625 6.1875 
Q 5.515625 13.8125 5.515625 26.8125 
Q 5.515625 40.234375 12.765625 48.109375 
Q 20.015625 56 32.328125 56 
Q 43.359375 56 49.78125 48.890625 
Q 56.203125 41.796875 56.203125 29.59375 
z
M 47.21875 32.234375 
Q 47.125 39.59375 43.09375 43.984375 
Q 39.0625 48.390625 32.421875 48.390625 
Q 24.90625 48.390625 20.390625 44.140625 
Q 15.875 39.890625 15.1875 32.171875 
z
" id="DejaVuSans-101"/>
      <path d="M 34.28125 27.484375 
Q 23.390625 27.484375 19.1875 25 
Q 14.984375 22.515625 14.984375 16.5 
Q 14.984375 11.71875 18.140625 8.90625 
Q 21.296875 6.109375 26.703125 6.109375 
Q 34.1875 6.109375 38.703125 11.40625 
Q 43.21875 16.703125 43.21875 25.484375 
L 43.21875 27.484375 
z
M 52.203125 31.203125 
L 52.203125 0 
L 43.21875 0 
L 43.21875 8.296875 
Q 40.140625 3.328125 35.546875 0.953125 
Q 30.953125 -1.421875 24.3125 -1.421875 
Q 15.921875 -1.421875 10.953125 3.296875 
Q 6 8.015625 6 15.921875 
Q 6 25.140625 12.171875 29.828125 
Q 18.359375 34.515625 30.609375 34.515625 
L 43.21875 34.515625 
L 43.21875 35.40625 
Q 43.21875 41.609375 39.140625 45 
Q 35.0625 48.390625 27.6875 48.390625 
Q 23 48.390625 18.546875 47.265625 
Q 14.109375 46.140625 10.015625 43.890625 
L 10.015625 52.203125 
Q 14.9375 54.109375 19.578125 55.046875 
Q 24.21875 56 28.609375 56 
Q 40.484375 56 46.34375 49.84375 
Q 52.203125 43.703125 52.203125 31.203125 
z
" id="DejaVuSans-97"/>
      <path d="M 41.109375 46.296875 
Q 39.59375 47.171875 37.8125 47.578125 
Q 36.03125 48 33.890625 48 
Q 26.265625 48 22.1875 43.046875 
Q 18.109375 38.09375 18.109375 28.8125 
L 18.109375 0 
L 9.078125 0 
L 9.078125 54.6875 
L 18.109375 54.6875 
L 18.109375 46.1875 
Q 20.953125 51.171875 25.484375 53.578125 
Q 30.03125 56 36.53125 56 
Q 37.453125 56 38.578125 55.875 
Q 39.703125 55.765625 41.0625 55.515625 
z
" id="DejaVuSans-114"/>
     </defs>
     <g transform="translate(252.200984 255.185031)scale(0.11 -0.11)">
      <use xlink:href="#DejaVuSans-89"/>
      <use x="60.880859" xlink:href="#DejaVuSans-101"/>
      <use x="122.404297" xlink:href="#DejaVuSans-97"/>
      <use x="183.683594" xlink:href="#DejaVuSans-114"/>
     </g>
    </g>
   </g>
   <g id="matplotlib.axis_2">
    <g id="ytick_1">
     <g id="line2d_9">
      <path d="M 48.564813 218.88 
" style="fill:none;stroke:#000000;stroke-width:1.5;"/>
      <defs>
       <path d="M 0 0 
L -2.75 0 
" id="md3b615b011" style="stroke:#000000;"/>
      </defs>
      <g>
       <use style="stroke:#000000;" x="48.564813" xlink:href="#md3b615b011" y="218.88"/>
      </g>
     </g>
     <g id="text_6">
      <!-- −1 -->
      <defs>
       <path d="M 10.59375 35.5 
L 73.1875 35.5 
L 73.1875 27.203125 
L 10.59375 27.203125 
z
" id="DejaVuSans-8722"/>
      </defs>
      <g transform="translate(30.641688 221.30825)scale(0.088 -0.088)">
       <use xlink:href="#DejaVuSans-8722"/>
       <use x="83.789062" xlink:href="#DejaVuSans-49"/>
      </g>
     </g>
    </g>
    <g id="ytick_2">
     <g id="line2d_10">
      <path d="M 48.564813 168.48 
" style="fill:none;stroke:#000000;stroke-width:1.5;"/>
      <g>
       <use style="stroke:#000000;" x="48.564813" xlink:href="#md3b615b011" y="168.48"/>
      </g>
     </g>
     <g id="text_7">
      <!-- −0.5 -->
      <defs>
       <path d="M 10.6875 12.40625 
L 21 12.40625 
L 21 0 
L 10.6875 0 
z
" id="DejaVuSans-46"/>
      </defs>
      <g transform="translate(22.245938 170.90825)scale(0.088 -0.088)">
       <use xlink:href="#DejaVuSans-8722"/>
       <use x="83.789062" xlink:href="#DejaVuSans-48"/>
       <use x="147.412109" xlink:href="#DejaVuSans-46"/>
       <use x="179.199219" xlink:href="#DejaVuSans-53"/>
      </g>
     </g>
    </g>
    <g id="ytick_3">
     <g id="line2d_11">
      <path d="M 48.564813 118.08 
" style="fill:none;stroke:#000000;stroke-width:1.5;"/>
      <g>
       <use style="stroke:#000000;" x="48.564813" xlink:href="#md3b615b011" y="118.08"/>
      </g>
     </g>
     <g id="text_8">
      <!-- 0 -->
      <g transform="translate(38.015813 120.50825)scale(0.088 -0.088)">
       <use xlink:href="#DejaVuSans-48"/>
      </g>
     </g>
    </g>
    <g id="ytick_4">
     <g id="line2d_12">
      <path d="M 48.564813 67.68 
" style="fill:none;stroke:#000000;stroke-width:1.5;"/>
      <g>
       <use style="stroke:#000000;" x="48.564813" xlink:href="#md3b615b011" y="67.68"/>
      </g>
     </g>
     <g id="text_9">
      <!-- 0.5 -->
      <g transform="translate(29.620063 70.10825)scale(0.088 -0.088)">
       <use xlink:href="#DejaVuSans-48"/>
       <use x="63.623047" xlink:href="#DejaVuSans-46"/>
       <use x="95.410156" xlink:href="#DejaVuSans-53"/>
      </g>
     </g>
    </g>
    <g id="ytick_5">
     <g id="line2d_13">
      <path d="M 48.564813 17.28 
" style="fill:none;stroke:#000000;stroke-width:1.5;"/>
      <g>
       <use style="stroke:#000000;" x="48.564813" xlink:href="#md3b615b011" y="17.28"/>
      </g>
     </g>
     <g id="text_10">
      <!-- 1 -->
      <g transform="translate(38.015813 19.70825)scale(0.088 -0.088)">
       <use xlink:href="#DejaVuSans-49"/>
      </g>
     </g>
    </g>
    <g id="ytick_6">
     <g id="line2d_14">
      <path d="M 48.564813 193.68 
" style="fill:none;stroke:#000000;stroke-width:1.5;"/>
      <defs>
       <path d="M 0 0 
L -1.375 0 
" id="mf0a288c26b" style="stroke:#000000;"/>
      </defs>
      <g>
       <use style="stroke:#000000;" x="48.564813" xlink:href="#mf0a288c26b" y="193.68"/>
      </g>
     </g>
    </g>
    <g id="ytick_7">
     <g id="line2d_15">
      <path d="M 48.564813 143.28 
" style="fill:none;stroke:#000000;stroke-width:1.5;"/>
      <g>
       <use style="stroke:#000000;" x="48.564813" xlink:href="#mf0a288c26b" y="143.28"/>
      </g>
     </g>
    </g>
    <g id="ytick_8">
     <g id="line2d_16">
      <path d="M 48.564813 92.88 
" style="fill:none;stroke:#000000;stroke-width:1.5;"/>
      <g>
       <use style="stroke:#000000;" x="48.564813" xlink:href="#mf0a288c26b" y="92.88"/>
      </g>
     </g>
    </g>
    <g id="ytick_9">
     <g id="line2d_17">
      <path d="M 48.564813 42.48 
" style="fill:none;stroke:#000000;stroke-width:1.5;"/>
      <g>
       <use style="stroke:#000000;" x="48.564813" xlink:href="#mf0a288c26b" y="42.48"/>
      </g>
     </g>
    </g>
    <g id="text_11">
     <!-- Spearman's rank correlation -->
     <defs>
      <path d="M 53.515625 70.515625 
L 53.515625 60.890625 
Q 47.90625 63.578125 42.921875 64.890625 
Q 37.9375 66.21875 33.296875 66.21875 
Q 25.25 66.21875 20.875 63.09375 
Q 16.5 59.96875 16.5 54.203125 
Q 16.5 49.359375 19.40625 46.890625 
Q 22.3125 44.4375 30.421875 42.921875 
L 36.375 41.703125 
Q 47.40625 39.59375 52.65625 34.296875 
Q 57.90625 29 57.90625 20.125 
Q 57.90625 9.515625 50.796875 4.046875 
Q 43.703125 -1.421875 29.984375 -1.421875 
Q 24.8125 -1.421875 18.96875 -0.25 
Q 13.140625 0.921875 6.890625 3.21875 
L 6.890625 13.375 
Q 12.890625 10.015625 18.65625 8.296875 
Q 24.421875 6.59375 29.984375 6.59375 
Q 38.421875 6.59375 43.015625 9.90625 
Q 47.609375 13.234375 47.609375 19.390625 
Q 47.609375 24.75 44.3125 27.78125 
Q 41.015625 30.8125 33.5 32.328125 
L 27.484375 33.5 
Q 16.453125 35.6875 11.515625 40.375 
Q 6.59375 45.0625 6.59375 53.421875 
Q 6.59375 63.09375 13.40625 68.65625 
Q 20.21875 74.21875 32.171875 74.21875 
Q 37.3125 74.21875 42.625 73.28125 
Q 47.953125 72.359375 53.515625 70.515625 
z
" id="DejaVuSans-83"/>
      <path d="M 18.109375 8.203125 
L 18.109375 -20.796875 
L 9.078125 -20.796875 
L 9.078125 54.6875 
L 18.109375 54.6875 
L 18.109375 46.390625 
Q 20.953125 51.265625 25.265625 53.625 
Q 29.59375 56 35.59375 56 
Q 45.5625 56 51.78125 48.09375 
Q 58.015625 40.1875 58.015625 27.296875 
Q 58.015625 14.40625 51.78125 6.484375 
Q 45.5625 -1.421875 35.59375 -1.421875 
Q 29.59375 -1.421875 25.265625 0.953125 
Q 20.953125 3.328125 18.109375 8.203125 
z
M 48.6875 27.296875 
Q 48.6875 37.203125 44.609375 42.84375 
Q 40.53125 48.484375 33.40625 48.484375 
Q 26.265625 48.484375 22.1875 42.84375 
Q 18.109375 37.203125 18.109375 27.296875 
Q 18.109375 17.390625 22.1875 11.75 
Q 26.265625 6.109375 33.40625 6.109375 
Q 40.53125 6.109375 44.609375 11.75 
Q 48.6875 17.390625 48.6875 27.296875 
z
" id="DejaVuSans-112"/>
      <path d="M 52 44.1875 
Q 55.375 50.25 60.0625 53.125 
Q 64.75 56 71.09375 56 
Q 79.640625 56 84.28125 50.015625 
Q 88.921875 44.046875 88.921875 33.015625 
L 88.921875 0 
L 79.890625 0 
L 79.890625 32.71875 
Q 79.890625 40.578125 77.09375 44.375 
Q 74.3125 48.1875 68.609375 48.1875 
Q 61.625 48.1875 57.5625 43.546875 
Q 53.515625 38.921875 53.515625 30.90625 
L 53.515625 0 
L 44.484375 0 
L 44.484375 32.71875 
Q 44.484375 40.625 41.703125 44.40625 
Q 38.921875 48.1875 33.109375 48.1875 
Q 26.21875 48.1875 22.15625 43.53125 
Q 18.109375 38.875 18.109375 30.90625 
L 18.109375 0 
L 9.078125 0 
L 9.078125 54.6875 
L 18.109375 54.6875 
L 18.109375 46.1875 
Q 21.1875 51.21875 25.484375 53.609375 
Q 29.78125 56 35.6875 56 
Q 41.65625 56 45.828125 52.96875 
Q 50 49.953125 52 44.1875 
z
" id="DejaVuSans-109"/>
      <path d="M 54.890625 33.015625 
L 54.890625 0 
L 45.90625 0 
L 45.90625 32.71875 
Q 45.90625 40.484375 42.875 44.328125 
Q 39.84375 48.1875 33.796875 48.1875 
Q 26.515625 48.1875 22.3125 43.546875 
Q 18.109375 38.921875 18.109375 30.90625 
L 18.109375 0 
L 9.078125 0 
L 9.078125 54.6875 
L 18.109375 54.6875 
L 18.109375 46.1875 
Q 21.34375 51.125 25.703125 53.5625 
Q 30.078125 56 35.796875 56 
Q 45.21875 56 50.046875 50.171875 
Q 54.890625 44.34375 54.890625 33.015625 
z
" id="DejaVuSans-110"/>
      <path d="M 17.921875 72.90625 
L 17.921875 45.796875 
L 9.625 45.796875 
L 9.625 72.90625 
z
" id="DejaVuSans-39"/>
      <path d="M 44.28125 53.078125 
L 44.28125 44.578125 
Q 40.484375 46.53125 36.375 47.5 
Q 32.28125 48.484375 27.875 48.484375 
Q 21.1875 48.484375 17.84375 46.4375 
Q 14.5 44.390625 14.5 40.28125 
Q 14.5 37.15625 16.890625 35.375 
Q 19.28125 33.59375 26.515625 31.984375 
L 29.59375 31.296875 
Q 39.15625 29.25 43.1875 25.515625 
Q 47.21875 21.78125 47.21875 15.09375 
Q 47.21875 7.46875 41.1875 3.015625 
Q 35.15625 -1.421875 24.609375 -1.421875 
Q 20.21875 -1.421875 15.453125 -0.5625 
Q 10.6875 0.296875 5.421875 2 
L 5.421875 11.28125 
Q 10.40625 8.6875 15.234375 7.390625 
Q 20.0625 6.109375 24.8125 6.109375 
Q 31.15625 6.109375 34.5625 8.28125 
Q 37.984375 10.453125 37.984375 14.40625 
Q 37.984375 18.0625 35.515625 20.015625 
Q 33.0625 21.96875 24.703125 23.78125 
L 21.578125 24.515625 
Q 13.234375 26.265625 9.515625 29.90625 
Q 5.8125 33.546875 5.8125 39.890625 
Q 5.8125 47.609375 11.28125 51.796875 
Q 16.75 56 26.8125 56 
Q 31.78125 56 36.171875 55.265625 
Q 40.578125 54.546875 44.28125 53.078125 
z
" id="DejaVuSans-115"/>
      <path id="DejaVuSans-32"/>
      <path d="M 9.078125 75.984375 
L 18.109375 75.984375 
L 18.109375 31.109375 
L 44.921875 54.6875 
L 56.390625 54.6875 
L 27.390625 29.109375 
L 57.625 0 
L 45.90625 0 
L 18.109375 26.703125 
L 18.109375 0 
L 9.078125 0 
z
" id="DejaVuSans-107"/>
      <path d="M 48.78125 52.59375 
L 48.78125 44.1875 
Q 44.96875 46.296875 41.140625 47.34375 
Q 37.3125 48.390625 33.40625 48.390625 
Q 24.65625 48.390625 19.8125 42.84375 
Q 14.984375 37.3125 14.984375 27.296875 
Q 14.984375 17.28125 19.8125 11.734375 
Q 24.65625 6.203125 33.40625 6.203125 
Q 37.3125 6.203125 41.140625 7.25 
Q 44.96875 8.296875 48.78125 10.40625 
L 48.78125 2.09375 
Q 45.015625 0.34375 40.984375 -0.53125 
Q 36.96875 -1.421875 32.421875 -1.421875 
Q 20.0625 -1.421875 12.78125 6.34375 
Q 5.515625 14.109375 5.515625 27.296875 
Q 5.515625 40.671875 12.859375 48.328125 
Q 20.21875 56 33.015625 56 
Q 37.15625 56 41.109375 55.140625 
Q 45.0625 54.296875 48.78125 52.59375 
z
" id="DejaVuSans-99"/>
      <path d="M 30.609375 48.390625 
Q 23.390625 48.390625 19.1875 42.75 
Q 14.984375 37.109375 14.984375 27.296875 
Q 14.984375 17.484375 19.15625 11.84375 
Q 23.34375 6.203125 30.609375 6.203125 
Q 37.796875 6.203125 41.984375 11.859375 
Q 46.1875 17.53125 46.1875 27.296875 
Q 46.1875 37.015625 41.984375 42.703125 
Q 37.796875 48.390625 30.609375 48.390625 
z
M 30.609375 56 
Q 42.328125 56 49.015625 48.375 
Q 55.71875 40.765625 55.71875 27.296875 
Q 55.71875 13.875 49.015625 6.21875 
Q 42.328125 -1.421875 30.609375 -1.421875 
Q 18.84375 -1.421875 12.171875 6.21875 
Q 5.515625 13.875 5.515625 27.296875 
Q 5.515625 40.765625 12.171875 48.375 
Q 18.84375 56 30.609375 56 
z
" id="DejaVuSans-111"/>
      <path d="M 9.421875 75.984375 
L 18.40625 75.984375 
L 18.40625 0 
L 9.421875 0 
z
" id="DejaVuSans-108"/>
      <path d="M 18.3125 70.21875 
L 18.3125 54.6875 
L 36.8125 54.6875 
L 36.8125 47.703125 
L 18.3125 47.703125 
L 18.3125 18.015625 
Q 18.3125 11.328125 20.140625 9.421875 
Q 21.96875 7.515625 27.59375 7.515625 
L 36.8125 7.515625 
L 36.8125 0 
L 27.59375 0 
Q 17.1875 0 13.234375 3.875 
Q 9.28125 7.765625 9.28125 18.015625 
L 9.28125 47.703125 
L 2.6875 47.703125 
L 2.6875 54.6875 
L 9.28125 54.6875 
L 9.28125 70.21875 
z
" id="DejaVuSans-116"/>
      <path d="M 9.421875 54.6875 
L 18.40625 54.6875 
L 18.40625 0 
L 9.421875 0 
z
M 9.421875 75.984375 
L 18.40625 75.984375 
L 18.40625 64.59375 
L 9.421875 64.59375 
z
" id="DejaVuSans-105"/>
     </defs>
     <g transform="translate(15.558281 194.752891)rotate(-90)scale(0.11 -0.11)">
      <use xlink:href="#DejaVuSans-83"/>
      <use x="63.476562" xlink:href="#DejaVuSans-112"/>
      <use x="126.953125" xlink:href="#DejaVuSans-101"/>
      <use x="188.476562" xlink:href="#DejaVuSans-97"/>
      <use x="249.755859" xlink:href="#DejaVuSans-114"/>
      <use x="290.853516" xlink:href="#DejaVuSans-109"/>
      <use x="388.265625" xlink:href="#DejaVuSans-97"/>
      <use x="449.544922" xlink:href="#DejaVuSans-110"/>
      <use x="512.923828" xlink:href="#DejaVuSans-39"/>
      <use x="540.414062" xlink:href="#DejaVuSans-115"/>
      <use x="592.513672" xlink:href="#DejaVuSans-32"/>
      <use x="624.300781" xlink:href="#DejaVuSans-114"/>
      <use x="665.414062" xlink:href="#DejaVuSans-97"/>
      <use x="726.693359" xlink:href="#DejaVuSans-110"/>
      <use x="790.072266" xlink:href="#DejaVuSans-107"/>
      <use x="847.982422" xlink:href="#DejaVuSans-32"/>
      <use x="879.769531" xlink:href="#DejaVuSans-99"/>
      <use x="934.75" xlink:href="#DejaVuSans-111"/>
      <use x="995.931641" xlink:href="#DejaVuSans-114"/>
      <use x="1037.029297" xlink:href="#DejaVuSans-114"/>
      <use x="1078.111328" xlink:href="#DejaVuSans-101"/>
      <use x="1139.634766" xlink:href="#DejaVuSans-108"/>
      <use x="1167.417969" xlink:href="#DejaVuSans-97"/>
      <use x="1228.697266" xlink:href="#DejaVuSans-116"/>
      <use x="1267.90625" xlink:href="#DejaVuSans-105"/>
      <use x="1295.689453" xlink:href="#DejaVuSans-111"/>
      <use x="1356.871094" xlink:href="#DejaVuSans-110"/>
     </g>
    </g>
   </g>
   <g id="PathCollection_1">
    <path clip-path="url(#pe21a47d3ba)" d="M 68.855722 157.871668 
C 69.325782 157.871668 69.776653 157.684911 70.109036 157.352528 
C 70.441419 157.020146 70.628175 156.569275 70.628175 156.099214 
C 70.628175 155.629154 70.441419 155.178283 70.109036 154.8459 
C 69.776653 154.513517 69.325782 154.326761 68.855722 154.326761 
C 68.385661 154.326761 67.93479 154.513517 67.602407 154.8459 
C 67.270025 155.178283 67.083268 155.629154 67.083268 156.099214 
C 67.083268 156.569275 67.270025 157.020146 67.602407 157.352528 
C 67.93479 157.684911 68.385661 157.871668 68.855722 157.871668 
z
" style="fill:#4ab668;stroke:#4ab668;stroke-width:0.886227;"/>
    <path clip-path="url(#pe21a47d3ba)" d="M 68.855722 150.19503 
C 69.325782 150.19503 69.776653 150.008273 70.109036 149.67589 
C 70.441419 149.343507 70.628175 148.892636 70.628175 148.422576 
C 70.628175 147.952516 70.441419 147.501644 70.109036 147.169262 
C 69.776653 146.836879 69.325782 146.650122 68.855722 146.650122 
C 68.385661 146.650122 67.93479 146.836879 67.602407 147.169262 
C 67.270025 147.501644 67.083268 147.952516 67.083268 148.422576 
C 67.083268 148.892636 67.270025 149.343507 67.602407 149.67589 
C 67.93479 150.008273 68.385661 150.19503 68.855722 150.19503 
z
" style="fill:#0091cc;stroke:#0091cc;stroke-width:0.886227;"/>
    <path clip-path="url(#pe21a47d3ba)" d="M 90.214573 172.476583 
C 90.684634 172.476583 91.135505 172.289826 91.467887 171.957444 
C 91.80027 171.625061 91.987027 171.17419 91.987027 170.70413 
C 91.987027 170.234069 91.80027 169.783198 91.467887 169.450815 
C 91.135505 169.118433 90.684634 168.931676 90.214573 168.931676 
C 89.744513 168.931676 89.293642 169.118433 88.961259 169.450815 
C 88.628876 169.783198 88.442119 170.234069 88.442119 170.70413 
C 88.442119 171.17419 88.628876 171.625061 88.961259 171.957444 
C 89.293642 172.289826 89.744513 172.476583 90.214573 172.476583 
z
" style="fill:#4ab668;stroke:#4ab668;stroke-width:0.886227;"/>
    <path clip-path="url(#pe21a47d3ba)" d="M 90.214573 168.436421 
C 90.684634 168.436421 91.135505 168.249665 91.467887 167.917282 
C 91.80027 167.584899 91.987027 167.134028 91.987027 166.663968 
C 91.987027 166.193907 91.80027 165.743036 91.467887 165.410653 
C 91.135505 165.078271 90.684634 164.891514 90.214573 164.891514 
C 89.744513 164.891514 89.293642 165.078271 88.961259 165.410653 
C 88.628876 165.743036 88.442119 166.193907 88.442119 166.663968 
C 88.442119 167.134028 88.628876 167.584899 88.961259 167.917282 
C 89.293642 168.249665 89.744513 168.436421 90.214573 168.436421 
z
" style="fill:#0091cc;stroke:#0091cc;stroke-width:0.886227;"/>
    <path clip-path="url(#pe21a47d3ba)" d="M 111.573425 139.6146 
C 112.043485 139.6146 112.494356 139.427843 112.826739 139.09546 
C 113.159122 138.763078 113.345879 138.312206 113.345879 137.842146 
C 113.345879 137.372086 113.159122 136.921215 112.826739 136.588832 
C 112.494356 136.256449 112.043485 136.069692 111.573425 136.069692 
C 111.103365 136.069692 110.652494 136.256449 110.320111 136.588832 
C 109.987728 136.921215 109.800971 137.372086 109.800971 137.842146 
C 109.800971 138.312206 109.987728 138.763078 110.320111 139.09546 
C 110.652494 139.427843 111.103365 139.6146 111.573425 139.6146 
z
" style="fill:#4ab668;stroke:#4ab668;stroke-width:0.886227;"/>
    <path clip-path="url(#pe21a47d3ba)" d="M 111.573425 132.304036 
C 112.043485 132.304036 112.494356 132.117279 112.826739 131.784896 
C 113.159122 131.452513 113.345879 131.001642 113.345879 130.531582 
C 113.345879 130.061522 113.159122 129.610651 112.826739 129.278268 
C 112.494356 128.945885 112.043485 128.759128 111.573425 128.759128 
C 111.103365 128.759128 110.652494 128.945885 110.320111 129.278268 
C 109.987728 129.610651 109.800971 130.061522 109.800971 130.531582 
C 109.800971 131.001642 109.987728 131.452513 110.320111 131.784896 
C 110.652494 132.117279 111.103365 132.304036 111.573425 132.304036 
z
" style="fill:#0091cc;stroke:#0091cc;stroke-width:0.886227;"/>
    <path clip-path="url(#pe21a47d3ba)" d="M 132.932277 167.253009 
C 133.402337 167.253009 133.853208 167.066252 134.185591 166.733869 
C 134.517974 166.401486 134.70473 165.950615 134.70473 165.480555 
C 134.70473 165.010495 134.517974 164.559624 134.185591 164.227241 
C 133.853208 163.894858 133.402337 163.708101 132.932277 163.708101 
C 132.462216 163.708101 132.011345 163.894858 131.678962 164.227241 
C 131.34658 164.559624 131.159823 165.010495 131.159823 165.480555 
C 131.159823 165.950615 131.34658 166.401486 131.678962 166.733869 
C 132.011345 167.066252 132.462216 167.253009 132.932277 167.253009 
z
" style="fill:#4ab668;stroke:#4ab668;stroke-width:0.886227;"/>
    <path clip-path="url(#pe21a47d3ba)" d="M 132.932277 157.642352 
C 133.402337 157.642352 133.853208 157.455595 134.185591 157.123212 
C 134.517974 156.79083 134.70473 156.339958 134.70473 155.869898 
C 134.70473 155.399838 134.517974 154.948967 134.185591 154.616584 
C 133.853208 154.284201 133.402337 154.097444 132.932277 154.097444 
C 132.462216 154.097444 132.011345 154.284201 131.678962 154.616584 
C 131.34658 154.948967 131.159823 155.399838 131.159823 155.869898 
C 131.159823 156.339958 131.34658 156.79083 131.678962 157.123212 
C 132.011345 157.455595 132.462216 157.642352 132.932277 157.642352 
z
" style="fill:#0091cc;stroke:#0091cc;stroke-width:0.886227;"/>
    <path clip-path="url(#pe21a47d3ba)" d="M 154.291128 168.836472 
C 154.761189 168.836472 155.21206 168.649715 155.544442 168.317332 
C 155.876825 167.98495 156.063582 167.534078 156.063582 167.064018 
C 156.063582 166.593958 155.876825 166.143087 155.544442 165.810704 
C 155.21206 165.478321 154.761189 165.291564 154.291128 165.291564 
C 153.821068 165.291564 153.370197 165.478321 153.037814 165.810704 
C 152.705431 166.143087 152.518674 166.593958 152.518674 167.064018 
C 152.518674 167.534078 152.705431 167.98495 153.037814 168.317332 
C 153.370197 168.649715 153.821068 168.836472 154.291128 168.836472 
z
" style="fill:#4ab668;stroke:#4ab668;stroke-width:0.886227;"/>
    <path clip-path="url(#pe21a47d3ba)" d="M 154.291128 160.01673 
C 154.761189 160.01673 155.21206 159.829973 155.544442 159.497591 
C 155.876825 159.165208 156.063582 158.714337 156.063582 158.244277 
C 156.063582 157.774216 155.876825 157.323345 155.544442 156.990962 
C 155.21206 156.65858 154.761189 156.471823 154.291128 156.471823 
C 153.821068 156.471823 153.370197 156.65858 153.037814 156.990962 
C 152.705431 157.323345 152.518674 157.774216 152.518674 158.244277 
C 152.518674 158.714337 152.705431 159.165208 153.037814 159.497591 
C 153.370197 159.829973 153.821068 160.01673 154.291128 160.01673 
z
" style="fill:#0091cc;stroke:#0091cc;stroke-width:0.886227;"/>
    <path clip-path="url(#pe21a47d3ba)" d="M 175.64998 152.051092 
C 176.12004 152.051092 176.570911 151.864335 176.903294 151.531953 
C 177.235677 151.19957 177.422434 150.748699 177.422434 150.278638 
C 177.422434 149.808578 177.235677 149.357707 176.903294 149.025324 
C 176.570911 148.692942 176.12004 148.506185 175.64998 148.506185 
C 175.17992 148.506185 174.729049 148.692942 174.396666 149.025324 
C 174.064283 149.357707 173.877526 149.808578 173.877526 150.278638 
C 173.877526 150.748699 174.064283 151.19957 174.396666 151.531953 
C 174.729049 151.864335 175.17992 152.051092 175.64998 152.051092 
z
" style="fill:#4ab668;stroke:#4ab668;stroke-width:0.886227;"/>
    <path clip-path="url(#pe21a47d3ba)" d="M 175.64998 148.045869 
C 176.12004 148.045869 176.570911 147.859112 176.903294 147.526729 
C 177.235677 147.194346 177.422434 146.743475 177.422434 146.273415 
C 177.422434 145.803354 177.235677 145.352483 176.903294 145.020101 
C 176.570911 144.687718 176.12004 144.500961 175.64998 144.500961 
C 175.17992 144.500961 174.729049 144.687718 174.396666 145.020101 
C 174.064283 145.352483 173.877526 145.803354 173.877526 146.273415 
C 173.877526 146.743475 174.064283 147.194346 174.396666 147.526729 
C 174.729049 147.859112 175.17992 148.045869 175.64998 148.045869 
z
" style="fill:#0091cc;stroke:#0091cc;stroke-width:0.886227;"/>
    <path clip-path="url(#pe21a47d3ba)" d="M 197.008832 140.56216 
C 197.478892 140.56216 197.929763 140.375403 198.262146 140.04302 
C 198.594529 139.710637 198.781285 139.259766 198.781285 138.789706 
C 198.781285 138.319646 198.594529 137.868774 198.262146 137.536392 
C 197.929763 137.204009 197.478892 137.017252 197.008832 137.017252 
C 196.538771 137.017252 196.0879 137.204009 195.755518 137.536392 
C 195.423135 137.868774 195.236378 138.319646 195.236378 138.789706 
C 195.236378 139.259766 195.423135 139.710637 195.755518 140.04302 
C 196.0879 140.375403 196.538771 140.56216 197.008832 140.56216 
z
" style="fill:#4ab668;stroke:#4ab668;stroke-width:0.886227;"/>
    <path clip-path="url(#pe21a47d3ba)" d="M 197.008832 143.225257 
C 197.478892 143.225257 197.929763 143.0385 198.262146 142.706117 
C 198.594529 142.373734 198.781285 141.922863 198.781285 141.452803 
C 198.781285 140.982743 198.594529 140.531872 198.262146 140.199489 
C 197.929763 139.867106 197.478892 139.680349 197.008832 139.680349 
C 196.538771 139.680349 196.0879 139.867106 195.755518 140.199489 
C 195.423135 140.531872 195.236378 140.982743 195.236378 141.452803 
C 195.236378 141.922863 195.423135 142.373734 195.755518 142.706117 
C 196.0879 143.0385 196.538771 143.225257 197.008832 143.225257 
z
" style="fill:#0091cc;stroke:#0091cc;stroke-width:0.886227;"/>
    <path clip-path="url(#pe21a47d3ba)" d="M 218.367683 125.212613 
C 218.837744 125.212613 219.288615 125.025856 219.620997 124.693473 
C 219.95338 124.36109 220.140137 123.910219 220.140137 123.440159 
C 220.140137 122.970099 219.95338 122.519228 219.620997 122.186845 
C 219.288615 121.854462 218.837744 121.667705 218.367683 121.667705 
C 217.897623 121.667705 217.446752 121.854462 217.114369 122.186845 
C 216.781986 122.519228 216.595229 122.970099 216.595229 123.440159 
C 216.595229 123.910219 216.781986 124.36109 217.114369 124.693473 
C 217.446752 125.025856 217.897623 125.212613 218.367683 125.212613 
z
" style="fill:#4ab668;stroke:#4ab668;stroke-width:0.886227;"/>
    <path clip-path="url(#pe21a47d3ba)" d="M 218.367683 124.868992 
C 218.837744 124.868992 219.288615 124.682235 219.620997 124.349852 
C 219.95338 124.01747 220.140137 123.566598 220.140137 123.096538 
C 220.140137 122.626478 219.95338 122.175607 219.620997 121.843224 
C 219.288615 121.510841 218.837744 121.324084 218.367683 121.324084 
C 217.897623 121.324084 217.446752 121.510841 217.114369 121.843224 
C 216.781986 122.175607 216.595229 122.626478 216.595229 123.096538 
C 216.595229 123.566598 216.781986 124.01747 217.114369 124.349852 
C 217.446752 124.682235 217.897623 124.868992 218.367683 124.868992 
z
" style="fill:#0091cc;stroke:#0091cc;stroke-width:0.886227;"/>
    <path clip-path="url(#pe21a47d3ba)" d="M 239.726535 138.048263 
C 240.196595 138.048263 240.647466 137.861506 240.979849 137.529124 
C 241.312232 137.196741 241.498989 136.74587 241.498989 136.275809 
C 241.498989 135.805749 241.312232 135.354878 240.979849 135.022495 
C 240.647466 134.690113 240.196595 134.503356 239.726535 134.503356 
C 239.256475 134.503356 238.805604 134.690113 238.473221 135.022495 
C 238.140838 135.354878 237.954081 135.805749 237.954081 136.275809 
C 237.954081 136.74587 238.140838 137.196741 238.473221 137.529124 
C 238.805604 137.861506 239.256475 138.048263 239.726535 138.048263 
z
" style="fill:#4ab668;stroke:#4ab668;stroke-width:0.886227;"/>
    <path clip-path="url(#pe21a47d3ba)" d="M 239.726535 135.871437 
C 240.196595 135.871437 240.647466 135.68468 240.979849 135.352297 
C 241.312232 135.019915 241.498989 134.569043 241.498989 134.098983 
C 241.498989 133.628923 241.312232 133.178052 240.979849 132.845669 
C 240.647466 132.513286 240.196595 132.326529 239.726535 132.326529 
C 239.256475 132.326529 238.805604 132.513286 238.473221 132.845669 
C 238.140838 133.178052 237.954081 133.628923 237.954081 134.098983 
C 237.954081 134.569043 238.140838 135.019915 238.473221 135.352297 
C 238.805604 135.68468 239.256475 135.871437 239.726535 135.871437 
z
" style="fill:#0091cc;stroke:#0091cc;stroke-width:0.886227;"/>
    <path clip-path="url(#pe21a47d3ba)" d="M 261.085387 130.141402 
C 261.555447 130.141402 262.006318 129.954645 262.338701 129.622263 
C 262.671084 129.28988 262.857841 128.839009 262.857841 128.368948 
C 262.857841 127.898888 262.671084 127.448017 262.338701 127.115634 
C 262.006318 126.783251 261.555447 126.596495 261.085387 126.596495 
C 260.615326 126.596495 260.164455 126.783251 259.832073 127.115634 
C 259.49969 127.448017 259.312933 127.898888 259.312933 128.368948 
C 259.312933 128.839009 259.49969 129.28988 259.832073 129.622263 
C 260.164455 129.954645 260.615326 130.141402 261.085387 130.141402 
z
" style="fill:#4ab668;stroke:#4ab668;stroke-width:0.886227;"/>
    <path clip-path="url(#pe21a47d3ba)" d="M 261.085387 130.288387 
C 261.555447 130.288387 262.006318 130.10163 262.338701 129.769247 
C 262.671084 129.436865 262.857841 128.985994 262.857841 128.515933 
C 262.857841 128.045873 262.671084 127.595002 262.338701 127.262619 
C 262.006318 126.930236 261.555447 126.74348 261.085387 126.74348 
C 260.615326 126.74348 260.164455 126.930236 259.832073 127.262619 
C 259.49969 127.595002 259.312933 128.045873 259.312933 128.515933 
C 259.312933 128.985994 259.49969 129.436865 259.832073 129.769247 
C 260.164455 130.10163 260.615326 130.288387 261.085387 130.288387 
z
" style="fill:#0091cc;stroke:#0091cc;stroke-width:0.886227;"/>
    <path clip-path="url(#pe21a47d3ba)" d="M 282.444238 131.84737 
C 282.914299 131.84737 283.36517 131.660613 283.697552 131.32823 
C 284.029935 130.995847 284.216692 130.544976 284.216692 130.074916 
C 284.216692 129.604856 284.029935 129.153985 283.697552 128.821602 
C 283.36517 128.489219 282.914299 128.302462 282.444238 128.302462 
C 281.974178 128.302462 281.523307 128.489219 281.190924 128.821602 
C 280.858541 129.153985 280.671784 129.604856 280.671784 130.074916 
C 280.671784 130.544976 280.858541 130.995847 281.190924 131.32823 
C 281.523307 131.660613 281.974178 131.84737 282.444238 131.84737 
z
" style="fill:#4ab668;stroke:#4ab668;stroke-width:0.886227;"/>
    <path clip-path="url(#pe21a47d3ba)" d="M 282.444238 132.131657 
C 282.914299 132.131657 283.36517 131.9449 283.697552 131.612517 
C 284.029935 131.280134 284.216692 130.829263 284.216692 130.359203 
C 284.216692 129.889143 284.029935 129.438272 283.697552 129.105889 
C 283.36517 128.773506 282.914299 128.586749 282.444238 128.586749 
C 281.974178 128.586749 281.523307 128.773506 281.190924 129.105889 
C 280.858541 129.438272 280.671784 129.889143 280.671784 130.359203 
C 280.671784 130.829263 280.858541 131.280134 281.190924 131.612517 
C 281.523307 131.9449 281.974178 132.131657 282.444238 132.131657 
z
" style="fill:#0091cc;stroke:#0091cc;stroke-width:0.886227;"/>
    <path clip-path="url(#pe21a47d3ba)" d="M 303.80309 141.47527 
C 304.27315 141.47527 304.724021 141.288513 305.056404 140.956131 
C 305.388787 140.623748 305.575544 140.172877 305.575544 139.702816 
C 305.575544 139.232756 305.388787 138.781885 305.056404 138.449502 
C 304.724021 138.117119 304.27315 137.930363 303.80309 137.930363 
C 303.33303 137.930363 302.882159 138.117119 302.549776 138.449502 
C 302.217393 138.781885 302.030636 139.232756 302.030636 139.702816 
C 302.030636 140.172877 302.217393 140.623748 302.549776 140.956131 
C 302.882159 141.288513 303.33303 141.47527 303.80309 141.47527 
z
" style="fill:#4ab668;stroke:#4ab668;stroke-width:0.886227;"/>
    <path clip-path="url(#pe21a47d3ba)" d="M 303.80309 140.446928 
C 304.27315 140.446928 304.724021 140.260171 305.056404 139.927789 
C 305.388787 139.595406 305.575544 139.144535 305.575544 138.674475 
C 305.575544 138.204414 305.388787 137.753543 305.056404 137.42116 
C 304.724021 137.088778 304.27315 136.902021 303.80309 136.902021 
C 303.33303 136.902021 302.882159 137.088778 302.549776 137.42116 
C 302.217393 137.753543 302.030636 138.204414 302.030636 138.674475 
C 302.030636 139.144535 302.217393 139.595406 302.549776 139.927789 
C 302.882159 140.260171 303.33303 140.446928 303.80309 140.446928 
z
" style="fill:#0091cc;stroke:#0091cc;stroke-width:0.886227;"/>
    <path clip-path="url(#pe21a47d3ba)" d="M 325.161942 131.253659 
C 325.632002 131.253659 326.082873 131.066902 326.415256 130.734519 
C 326.747639 130.402137 326.934396 129.951266 326.934396 129.481205 
C 326.934396 129.011145 326.747639 128.560274 326.415256 128.227891 
C 326.082873 127.895508 325.632002 127.708751 325.161942 127.708751 
C 324.691881 127.708751 324.24101 127.895508 323.908628 128.227891 
C 323.576245 128.560274 323.389488 129.011145 323.389488 129.481205 
C 323.389488 129.951266 323.576245 130.402137 323.908628 130.734519 
C 324.24101 131.066902 324.691881 131.253659 325.161942 131.253659 
z
" style="fill:#4ab668;stroke:#4ab668;stroke-width:0.886227;"/>
    <path clip-path="url(#pe21a47d3ba)" d="M 325.161942 131.18573 
C 325.632002 131.18573 326.082873 130.998973 326.415256 130.66659 
C 326.747639 130.334207 326.934396 129.883336 326.934396 129.413276 
C 326.934396 128.943215 326.747639 128.492344 326.415256 128.159962 
C 326.082873 127.827579 325.632002 127.640822 325.161942 127.640822 
C 324.691881 127.640822 324.24101 127.827579 323.908628 128.159962 
C 323.576245 128.492344 323.389488 128.943215 323.389488 129.413276 
C 323.389488 129.883336 323.576245 130.334207 323.908628 130.66659 
C 324.24101 130.998973 324.691881 131.18573 325.161942 131.18573 
z
" style="fill:#0091cc;stroke:#0091cc;stroke-width:0.886227;"/>
    <path clip-path="url(#pe21a47d3ba)" d="M 346.520793 128.837853 
C 346.990854 128.837853 347.441725 128.651096 347.774107 128.318713 
C 348.10649 127.986331 348.293247 127.53546 348.293247 127.065399 
C 348.293247 126.595339 348.10649 126.144468 347.774107 125.812085 
C 347.441725 125.479702 346.990854 125.292945 346.520793 125.292945 
C 346.050733 125.292945 345.599862 125.479702 345.267479 125.812085 
C 344.935096 126.144468 344.74834 126.595339 344.74834 127.065399 
C 344.74834 127.53546 344.935096 127.986331 345.267479 128.318713 
C 345.599862 128.651096 346.050733 128.837853 346.520793 128.837853 
z
" style="fill:#4ab668;stroke:#4ab668;stroke-width:0.886227;"/>
    <path clip-path="url(#pe21a47d3ba)" d="M 346.520793 128.217558 
C 346.990854 128.217558 347.441725 128.030801 347.774107 127.698419 
C 348.10649 127.366036 348.293247 126.915165 348.293247 126.445105 
C 348.293247 125.975044 348.10649 125.524173 347.774107 125.19179 
C 347.441725 124.859408 346.990854 124.672651 346.520793 124.672651 
C 346.050733 124.672651 345.599862 124.859408 345.267479 125.19179 
C 344.935096 125.524173 344.74834 125.975044 344.74834 126.445105 
C 344.74834 126.915165 344.935096 127.366036 345.267479 127.698419 
C 345.599862 128.030801 346.050733 128.217558 346.520793 128.217558 
z
" style="fill:#0091cc;stroke:#0091cc;stroke-width:0.886227;"/>
    <path clip-path="url(#pe21a47d3ba)" d="M 367.879645 121.055165 
C 368.349705 121.055165 368.800576 120.868408 369.132959 120.536025 
C 369.465342 120.203642 369.652099 119.752771 369.652099 119.282711 
C 369.652099 118.81265 369.465342 118.361779 369.132959 118.029397 
C 368.800576 117.697014 368.349705 117.510257 367.879645 117.510257 
C 367.409585 117.510257 366.958714 117.697014 366.626331 118.029397 
C 366.293948 118.361779 366.107191 118.81265 366.107191 119.282711 
C 366.107191 119.752771 366.293948 120.203642 366.626331 120.536025 
C 366.958714 120.868408 367.409585 121.055165 367.879645 121.055165 
z
" style="fill:#4ab668;stroke:#4ab668;stroke-width:0.886227;"/>
    <path clip-path="url(#pe21a47d3ba)" d="M 367.879645 125.56692 
C 368.349705 125.56692 368.800576 125.380163 369.132959 125.047781 
C 369.465342 124.715398 369.652099 124.264527 369.652099 123.794467 
C 369.652099 123.324406 369.465342 122.873535 369.132959 122.541152 
C 368.800576 122.20877 368.349705 122.022013 367.879645 122.022013 
C 367.409585 122.022013 366.958714 122.20877 366.626331 122.541152 
C 366.293948 122.873535 366.107191 123.324406 366.107191 123.794467 
C 366.107191 124.264527 366.293948 124.715398 366.626331 125.047781 
C 366.958714 125.380163 367.409585 125.56692 367.879645 125.56692 
z
" style="fill:#0091cc;stroke:#0091cc;stroke-width:0.886227;"/>
    <path clip-path="url(#pe21a47d3ba)" d="M 389.238497 123.069135 
C 389.708557 123.069135 390.159428 122.882378 390.491811 122.549995 
C 390.824194 122.217612 391.010951 121.766741 391.010951 121.296681 
C 391.010951 120.826621 390.824194 120.37575 390.491811 120.043367 
C 390.159428 119.710984 389.708557 119.524227 389.238497 119.524227 
C 388.768436 119.524227 388.317565 119.710984 387.985183 120.043367 
C 387.6528 120.37575 387.466043 120.826621 387.466043 121.296681 
C 387.466043 121.766741 387.6528 122.217612 387.985183 122.549995 
C 388.317565 122.882378 388.768436 123.069135 389.238497 123.069135 
z
" style="fill:#4ab668;stroke:#4ab668;stroke-width:0.886227;"/>
    <path clip-path="url(#pe21a47d3ba)" d="M 389.238497 122.49144 
C 389.708557 122.49144 390.159428 122.304683 390.491811 121.9723 
C 390.824194 121.639917 391.010951 121.189046 391.010951 120.718986 
C 391.010951 120.248925 390.824194 119.798054 390.491811 119.465672 
C 390.159428 119.133289 389.708557 118.946532 389.238497 118.946532 
C 388.768436 118.946532 388.317565 119.133289 387.985183 119.465672 
C 387.6528 119.798054 387.466043 120.248925 387.466043 120.718986 
C 387.466043 121.189046 387.6528 121.639917 387.985183 121.9723 
C 388.317565 122.304683 388.768436 122.49144 389.238497 122.49144 
z
" style="fill:#0091cc;stroke:#0091cc;stroke-width:0.886227;"/>
    <path clip-path="url(#pe21a47d3ba)" d="M 410.597348 123.935211 
C 411.067409 123.935211 411.51828 123.748454 411.850663 123.416071 
C 412.183045 123.083689 412.369802 122.632818 412.369802 122.162757 
C 412.369802 121.692697 412.183045 121.241826 411.850663 120.909443 
C 411.51828 120.57706 411.067409 120.390303 410.597348 120.390303 
C 410.127288 120.390303 409.676417 120.57706 409.344034 120.909443 
C 409.011651 121.241826 408.824895 121.692697 408.824895 122.162757 
C 408.824895 122.632818 409.011651 123.083689 409.344034 123.416071 
C 409.676417 123.748454 410.127288 123.935211 410.597348 123.935211 
z
" style="fill:#4ab668;stroke:#4ab668;stroke-width:0.886227;"/>
    <path clip-path="url(#pe21a47d3ba)" d="M 410.597348 124.51344 
C 411.067409 124.51344 411.51828 124.326683 411.850663 123.9943 
C 412.183045 123.661917 412.369802 123.211046 412.369802 122.740986 
C 412.369802 122.270926 412.183045 121.820055 411.850663 121.487672 
C 411.51828 121.155289 411.067409 120.968532 410.597348 120.968532 
C 410.127288 120.968532 409.676417 121.155289 409.344034 121.487672 
C 409.011651 121.820055 408.824895 122.270926 408.824895 122.740986 
C 408.824895 123.211046 409.011651 123.661917 409.344034 123.9943 
C 409.676417 124.326683 410.127288 124.51344 410.597348 124.51344 
z
" style="fill:#0091cc;stroke:#0091cc;stroke-width:0.886227;"/>
    <path clip-path="url(#pe21a47d3ba)" d="M 431.9562 122.773825 
C 432.42626 122.773825 432.877131 122.587068 433.209514 122.254685 
C 433.541897 121.922302 433.728654 121.471431 433.728654 121.001371 
C 433.728654 120.531311 433.541897 120.08044 433.209514 119.748057 
C 432.877131 119.415674 432.42626 119.228917 431.9562 119.228917 
C 431.48614 119.228917 431.035269 119.415674 430.702886 119.748057 
C 430.370503 120.08044 430.183746 120.531311 430.183746 121.001371 
C 430.183746 121.471431 430.370503 121.922302 430.702886 122.254685 
C 431.035269 122.587068 431.48614 122.773825 431.9562 122.773825 
z
" style="fill:#4ab668;stroke:#4ab668;stroke-width:0.886227;"/>
    <path clip-path="url(#pe21a47d3ba)" d="M 431.9562 126.331623 
C 432.42626 126.331623 432.877131 126.144866 433.209514 125.812483 
C 433.541897 125.480101 433.728654 125.02923 433.728654 124.559169 
C 433.728654 124.089109 433.541897 123.638238 433.209514 123.305855 
C 432.877131 122.973472 432.42626 122.786716 431.9562 122.786716 
C 431.48614 122.786716 431.035269 122.973472 430.702886 123.305855 
C 430.370503 123.638238 430.183746 124.089109 430.183746 124.559169 
C 430.183746 125.02923 430.370503 125.480101 430.702886 125.812483 
C 431.035269 126.144866 431.48614 126.331623 431.9562 126.331623 
z
" style="fill:#0091cc;stroke:#0091cc;stroke-width:0.886227;"/>
    <path clip-path="url(#pe21a47d3ba)" d="M 453.315052 133.014937 
C 453.785112 133.014937 454.235983 132.82818 454.568366 132.495797 
C 454.900749 132.163415 455.087506 131.712544 455.087506 131.242483 
C 455.087506 130.772423 454.900749 130.321552 454.568366 129.989169 
C 454.235983 129.656786 453.785112 129.470029 453.315052 129.470029 
C 452.844991 129.470029 452.39412 129.656786 452.061738 129.989169 
C 451.729355 130.321552 451.542598 130.772423 451.542598 131.242483 
C 451.542598 131.712544 451.729355 132.163415 452.061738 132.495797 
C 452.39412 132.82818 452.844991 133.014937 453.315052 133.014937 
z
" style="fill:#4ab668;stroke:#4ab668;stroke-width:0.886227;"/>
    <path clip-path="url(#pe21a47d3ba)" d="M 453.315052 130.755317 
C 453.785112 130.755317 454.235983 130.56856 454.568366 130.236177 
C 454.900749 129.903794 455.087506 129.452923 455.087506 128.982863 
C 455.087506 128.512803 454.900749 128.061931 454.568366 127.729549 
C 454.235983 127.397166 453.785112 127.210409 453.315052 127.210409 
C 452.844991 127.210409 452.39412 127.397166 452.061738 127.729549 
C 451.729355 128.061931 451.542598 128.512803 451.542598 128.982863 
C 451.542598 129.452923 451.729355 129.903794 452.061738 130.236177 
C 452.39412 130.56856 452.844991 130.755317 453.315052 130.755317 
z
" style="fill:#0091cc;stroke:#0091cc;stroke-width:0.886227;"/>
    <path clip-path="url(#pe21a47d3ba)" d="M 474.673903 114.254127 
C 475.143964 114.254127 475.594835 114.06737 475.927218 113.734987 
C 476.2596 113.402605 476.446357 112.951734 476.446357 112.481673 
C 476.446357 112.011613 476.2596 111.560742 475.927218 111.228359 
C 475.594835 110.895976 475.143964 110.709219 474.673903 110.709219 
C 474.203843 110.709219 473.752972 110.895976 473.420589 111.228359 
C 473.088206 111.560742 472.90145 112.011613 472.90145 112.481673 
C 472.90145 112.951734 473.088206 113.402605 473.420589 113.734987 
C 473.752972 114.06737 474.203843 114.254127 474.673903 114.254127 
z
" style="fill:#4ab668;stroke:#4ab668;stroke-width:0.886227;"/>
    <path clip-path="url(#pe21a47d3ba)" d="M 474.673903 110.77801 
C 475.143964 110.77801 475.594835 110.591253 475.927218 110.25887 
C 476.2596 109.926487 476.446357 109.475616 476.446357 109.005556 
C 476.446357 108.535496 476.2596 108.084624 475.927218 107.752242 
C 475.594835 107.419859 475.143964 107.233102 474.673903 107.233102 
C 474.203843 107.233102 473.752972 107.419859 473.420589 107.752242 
C 473.088206 108.084624 472.90145 108.535496 472.90145 109.005556 
C 472.90145 109.475616 473.088206 109.926487 473.420589 110.25887 
C 473.752972 110.591253 474.203843 110.77801 474.673903 110.77801 
z
" style="fill:#0091cc;stroke:#0091cc;stroke-width:0.886227;"/>
   </g>
   <g id="line2d_18">
    <path clip-path="url(#pe21a47d3ba)" d="M 68.855722 156.099214 
L 90.214573 170.70413 
L 111.573425 137.842146 
L 132.932277 165.480555 
L 154.291128 167.064018 
L 175.64998 150.278638 
L 197.008832 138.789706 
L 218.367683 123.440159 
L 239.726535 136.275809 
L 261.085387 128.368948 
L 282.444238 130.074916 
L 303.80309 139.702816 
L 325.161942 129.481205 
L 346.520793 127.065399 
L 367.879645 119.282711 
L 389.238497 121.296681 
L 410.597348 122.162757 
L 431.9562 121.001371 
L 453.315052 131.242483 
L 474.673903 112.481673 
" style="fill:none;stroke:#4ab668;stroke-width:0.886227;"/>
   </g>
   <g id="line2d_19">
    <path clip-path="url(#pe21a47d3ba)" d="M 68.855722 148.422576 
L 90.214573 166.663968 
L 111.573425 130.531582 
L 132.932277 155.869898 
L 154.291128 158.244277 
L 175.64998 146.273415 
L 197.008832 141.452803 
L 218.367683 123.096538 
L 239.726535 134.098983 
L 261.085387 128.515933 
L 282.444238 130.359203 
L 303.80309 138.674475 
L 325.161942 129.413276 
L 346.520793 126.445105 
L 367.879645 123.794467 
L 389.238497 120.718986 
L 410.597348 122.740986 
L 431.9562 124.559169 
L 453.315052 128.982863 
L 474.673903 109.005556 
" style="fill:none;stroke:#0091cc;stroke-dasharray:3.27904,1.417963;stroke-dashoffset:0;stroke-width:0.886227;"/>
   </g>
   <g id="patch_3">
    <path d="M 48.564813 228.96 
L 48.564813 7.2 
" style="fill:none;stroke:#000000;stroke-linecap:square;stroke-linejoin:miter;"/>
   </g>
   <g id="patch_4">
    <path d="M 48.564813 228.96 
L 494.964813 228.96 
" style="fill:none;stroke:#000000;stroke-linecap:square;stroke-linejoin:miter;"/>
   </g>
   <g id="patch_5">
    <path d="M 502.164813 153.202969 
L 737.169188 153.202969 
L 737.169188 80.077031 
L 502.164813 80.077031 
z
" style="fill:#ffffff;"/>
   </g>
   <g id="text_12">
    <!-- Journal metric -->
    <defs>
     <path d="M 9.8125 72.90625 
L 19.671875 72.90625 
L 19.671875 5.078125 
Q 19.671875 -8.109375 14.671875 -14.0625 
Q 9.671875 -20.015625 -1.421875 -20.015625 
L -5.171875 -20.015625 
L -5.171875 -11.71875 
L -2.09375 -11.71875 
Q 4.4375 -11.71875 7.125 -8.046875 
Q 9.8125 -4.390625 9.8125 5.078125 
z
" id="DejaVuSans-74"/>
     <path d="M 8.5 21.578125 
L 8.5 54.6875 
L 17.484375 54.6875 
L 17.484375 21.921875 
Q 17.484375 14.15625 20.5 10.265625 
Q 23.53125 6.390625 29.59375 6.390625 
Q 36.859375 6.390625 41.078125 11.03125 
Q 45.3125 15.671875 45.3125 23.6875 
L 45.3125 54.6875 
L 54.296875 54.6875 
L 54.296875 0 
L 45.3125 0 
L 45.3125 8.40625 
Q 42.046875 3.421875 37.71875 1 
Q 33.40625 -1.421875 27.6875 -1.421875 
Q 18.265625 -1.421875 13.375 4.4375 
Q 8.5 10.296875 8.5 21.578125 
z
M 31.109375 56 
z
" id="DejaVuSans-117"/>
    </defs>
    <g transform="translate(514.364813 103.670625)scale(0.11 -0.11)">
     <use xlink:href="#DejaVuSans-74"/>
     <use x="29.492188" xlink:href="#DejaVuSans-111"/>
     <use x="90.673828" xlink:href="#DejaVuSans-117"/>
     <use x="154.052734" xlink:href="#DejaVuSans-114"/>
     <use x="195.150391" xlink:href="#DejaVuSans-110"/>
     <use x="258.529297" xlink:href="#DejaVuSans-97"/>
     <use x="319.808594" xlink:href="#DejaVuSans-108"/>
     <use x="347.591797" xlink:href="#DejaVuSans-32"/>
     <use x="379.378906" xlink:href="#DejaVuSans-109"/>
     <use x="476.791016" xlink:href="#DejaVuSans-101"/>
     <use x="538.314453" xlink:href="#DejaVuSans-116"/>
     <use x="577.523438" xlink:href="#DejaVuSans-114"/>
     <use x="618.636719" xlink:href="#DejaVuSans-105"/>
     <use x="646.419922" xlink:href="#DejaVuSans-99"/>
    </g>
   </g>
   <g id="patch_6">
    <path clip-path="url(#pb73901820a)" d="M 514.364813 123.162969 
L 530.204813 123.162969 
L 530.204813 107.322969 
L 514.364813 107.322969 
z
" style="fill:none;"/>
   </g>
   <g id="line2d_20">
    <path clip-path="url(#pb73901820a)" d="M 522.284813 115.242969 
" style="fill:none;stroke:#4c72b0;stroke-linecap:square;stroke-width:1.5;"/>
    <defs>
     <path d="M 0 1.772454 
C 0.47006 1.772454 0.920931 1.585697 1.253314 1.253314 
C 1.585697 0.920931 1.772454 0.47006 1.772454 0 
C 1.772454 -0.47006 1.585697 -0.920931 1.253314 -1.253314 
C 0.920931 -1.585697 0.47006 -1.772454 0 -1.772454 
C -0.47006 -1.772454 -0.920931 -1.585697 -1.253314 -1.253314 
C -1.585697 -0.920931 -1.772454 -0.47006 -1.772454 0 
C -1.772454 0.47006 -1.585697 0.920931 -1.253314 1.253314 
C -0.920931 1.585697 -0.47006 1.772454 0 1.772454 
z
" id="m86125b70f1" style="stroke:#4ab668;stroke-width:0.886227;"/>
    </defs>
    <g clip-path="url(#pb73901820a)">
     <use style="fill:#4ab668;stroke:#4ab668;stroke-width:0.886227;" x="522.284813" xlink:href="#m86125b70f1" y="115.242969"/>
    </g>
   </g>
   <g id="line2d_21">
    <path clip-path="url(#pb73901820a)" d="M 514.364813 115.242969 
L 530.204813 115.242969 
" style="fill:none;stroke:#4ab668;stroke-width:0.886227;"/>
   </g>
   <g id="text_13">
    <!-- Impact per paper (IPP) -->
    <defs>
     <path d="M 9.8125 72.90625 
L 19.671875 72.90625 
L 19.671875 0 
L 9.8125 0 
z
" id="DejaVuSans-73"/>
     <path d="M 31 75.875 
Q 24.46875 64.65625 21.28125 53.65625 
Q 18.109375 42.671875 18.109375 31.390625 
Q 18.109375 20.125 21.3125 9.0625 
Q 24.515625 -2 31 -13.1875 
L 23.1875 -13.1875 
Q 15.875 -1.703125 12.234375 9.375 
Q 8.59375 20.453125 8.59375 31.390625 
Q 8.59375 42.28125 12.203125 53.3125 
Q 15.828125 64.359375 23.1875 75.875 
z
" id="DejaVuSans-40"/>
     <path d="M 19.671875 64.796875 
L 19.671875 37.40625 
L 32.078125 37.40625 
Q 38.96875 37.40625 42.71875 40.96875 
Q 46.484375 44.53125 46.484375 51.125 
Q 46.484375 57.671875 42.71875 61.234375 
Q 38.96875 64.796875 32.078125 64.796875 
z
M 9.8125 72.90625 
L 32.078125 72.90625 
Q 44.34375 72.90625 50.609375 67.359375 
Q 56.890625 61.8125 56.890625 51.125 
Q 56.890625 40.328125 50.609375 34.8125 
Q 44.34375 29.296875 32.078125 29.296875 
L 19.671875 29.296875 
L 19.671875 0 
L 9.8125 0 
z
" id="DejaVuSans-80"/>
     <path d="M 8.015625 75.875 
L 15.828125 75.875 
Q 23.140625 64.359375 26.78125 53.3125 
Q 30.421875 42.28125 30.421875 31.390625 
Q 30.421875 20.453125 26.78125 9.375 
Q 23.140625 -1.703125 15.828125 -13.1875 
L 8.015625 -13.1875 
Q 14.5 -2 17.703125 9.0625 
Q 20.90625 20.125 20.90625 31.390625 
Q 20.90625 42.671875 17.703125 53.65625 
Q 14.5 64.65625 8.015625 75.875 
z
" id="DejaVuSans-41"/>
    </defs>
    <g transform="translate(533.204813 117.671219)scale(0.088 -0.088)">
     <use xlink:href="#DejaVuSans-73"/>
     <use x="29.492188" xlink:href="#DejaVuSans-109"/>
     <use x="126.904297" xlink:href="#DejaVuSans-112"/>
     <use x="190.380859" xlink:href="#DejaVuSans-97"/>
     <use x="251.660156" xlink:href="#DejaVuSans-99"/>
     <use x="306.640625" xlink:href="#DejaVuSans-116"/>
     <use x="345.849609" xlink:href="#DejaVuSans-32"/>
     <use x="377.636719" xlink:href="#DejaVuSans-112"/>
     <use x="441.113281" xlink:href="#DejaVuSans-101"/>
     <use x="502.636719" xlink:href="#DejaVuSans-114"/>
     <use x="543.75" xlink:href="#DejaVuSans-32"/>
     <use x="575.537109" xlink:href="#DejaVuSans-112"/>
     <use x="639.013672" xlink:href="#DejaVuSans-97"/>
     <use x="700.292969" xlink:href="#DejaVuSans-112"/>
     <use x="763.769531" xlink:href="#DejaVuSans-101"/>
     <use x="825.292969" xlink:href="#DejaVuSans-114"/>
     <use x="866.40625" xlink:href="#DejaVuSans-32"/>
     <use x="898.193359" xlink:href="#DejaVuSans-40"/>
     <use x="937.207031" xlink:href="#DejaVuSans-73"/>
     <use x="966.699219" xlink:href="#DejaVuSans-80"/>
     <use x="1027.001953" xlink:href="#DejaVuSans-80"/>
     <use x="1087.304688" xlink:href="#DejaVuSans-41"/>
    </g>
   </g>
   <g id="patch_7">
    <path clip-path="url(#pbc82a008e6)" d="M 514.364813 141.002969 
L 530.204813 141.002969 
L 530.204813 125.162969 
L 514.364813 125.162969 
z
" style="fill:none;"/>
   </g>
   <g id="line2d_22">
    <path clip-path="url(#pbc82a008e6)" d="M 522.284813 133.082969 
" style="fill:none;stroke:#4c72b0;stroke-linecap:square;stroke-width:1.5;"/>
    <defs>
     <path d="M 0 1.772454 
C 0.47006 1.772454 0.920931 1.585697 1.253314 1.253314 
C 1.585697 0.920931 1.772454 0.47006 1.772454 0 
C 1.772454 -0.47006 1.585697 -0.920931 1.253314 -1.253314 
C 0.920931 -1.585697 0.47006 -1.772454 0 -1.772454 
C -0.47006 -1.772454 -0.920931 -1.585697 -1.253314 -1.253314 
C -1.585697 -0.920931 -1.772454 -0.47006 -1.772454 0 
C -1.772454 0.47006 -1.585697 0.920931 -1.253314 1.253314 
C -0.920931 1.585697 -0.47006 1.772454 0 1.772454 
z
" id="md538e21680" style="stroke:#0091cc;stroke-width:0.886227;"/>
    </defs>
    <g clip-path="url(#pbc82a008e6)">
     <use style="fill:#0091cc;stroke:#0091cc;stroke-width:0.886227;" x="522.284813" xlink:href="#md538e21680" y="133.082969"/>
    </g>
   </g>
   <g id="line2d_23">
    <path clip-path="url(#pbc82a008e6)" d="M 514.364813 133.082969 
L 530.204813 133.082969 
" style="fill:none;stroke:#0091cc;stroke-dasharray:3.27904,1.417963;stroke-dashoffset:0;stroke-width:0.886227;"/>
   </g>
   <g id="text_14">
    <!-- Source Normalized Impact per Paper (SNIP) -->
    <defs>
     <path d="M 9.8125 72.90625 
L 23.09375 72.90625 
L 55.421875 11.921875 
L 55.421875 72.90625 
L 64.984375 72.90625 
L 64.984375 0 
L 51.703125 0 
L 19.390625 60.984375 
L 19.390625 0 
L 9.8125 0 
z
" id="DejaVuSans-78"/>
     <path d="M 5.515625 54.6875 
L 48.1875 54.6875 
L 48.1875 46.484375 
L 14.40625 7.171875 
L 48.1875 7.171875 
L 48.1875 0 
L 4.296875 0 
L 4.296875 8.203125 
L 38.09375 47.515625 
L 5.515625 47.515625 
z
" id="DejaVuSans-122"/>
     <path d="M 45.40625 46.390625 
L 45.40625 75.984375 
L 54.390625 75.984375 
L 54.390625 0 
L 45.40625 0 
L 45.40625 8.203125 
Q 42.578125 3.328125 38.25 0.953125 
Q 33.9375 -1.421875 27.875 -1.421875 
Q 17.96875 -1.421875 11.734375 6.484375 
Q 5.515625 14.40625 5.515625 27.296875 
Q 5.515625 40.1875 11.734375 48.09375 
Q 17.96875 56 27.875 56 
Q 33.9375 56 38.25 53.625 
Q 42.578125 51.265625 45.40625 46.390625 
z
M 14.796875 27.296875 
Q 14.796875 17.390625 18.875 11.75 
Q 22.953125 6.109375 30.078125 6.109375 
Q 37.203125 6.109375 41.296875 11.75 
Q 45.40625 17.390625 45.40625 27.296875 
Q 45.40625 37.203125 41.296875 42.84375 
Q 37.203125 48.484375 30.078125 48.484375 
Q 22.953125 48.484375 18.875 42.84375 
Q 14.796875 37.203125 14.796875 27.296875 
z
" id="DejaVuSans-100"/>
    </defs>
    <g transform="translate(533.204813 135.511219)scale(0.088 -0.088)">
     <use xlink:href="#DejaVuSans-83"/>
     <use x="63.476562" xlink:href="#DejaVuSans-111"/>
     <use x="124.658203" xlink:href="#DejaVuSans-117"/>
     <use x="188.037109" xlink:href="#DejaVuSans-114"/>
     <use x="229.119141" xlink:href="#DejaVuSans-99"/>
     <use x="284.099609" xlink:href="#DejaVuSans-101"/>
     <use x="345.623047" xlink:href="#DejaVuSans-32"/>
     <use x="377.410156" xlink:href="#DejaVuSans-78"/>
     <use x="452.214844" xlink:href="#DejaVuSans-111"/>
     <use x="513.396484" xlink:href="#DejaVuSans-114"/>
     <use x="554.494141" xlink:href="#DejaVuSans-109"/>
     <use x="651.90625" xlink:href="#DejaVuSans-97"/>
     <use x="713.185547" xlink:href="#DejaVuSans-108"/>
     <use x="740.96875" xlink:href="#DejaVuSans-105"/>
     <use x="768.751953" xlink:href="#DejaVuSans-122"/>
     <use x="821.242188" xlink:href="#DejaVuSans-101"/>
     <use x="882.765625" xlink:href="#DejaVuSans-100"/>
     <use x="946.242188" xlink:href="#DejaVuSans-32"/>
     <use x="978.029297" xlink:href="#DejaVuSans-73"/>
     <use x="1007.521484" xlink:href="#DejaVuSans-109"/>
     <use x="1104.933594" xlink:href="#DejaVuSans-112"/>
     <use x="1168.410156" xlink:href="#DejaVuSans-97"/>
     <use x="1229.689453" xlink:href="#DejaVuSans-99"/>
     <use x="1284.669922" xlink:href="#DejaVuSans-116"/>
     <use x="1323.878906" xlink:href="#DejaVuSans-32"/>
     <use x="1355.666016" xlink:href="#DejaVuSans-112"/>
     <use x="1419.142578" xlink:href="#DejaVuSans-101"/>
     <use x="1480.666016" xlink:href="#DejaVuSans-114"/>
     <use x="1521.779297" xlink:href="#DejaVuSans-32"/>
     <use x="1553.566406" xlink:href="#DejaVuSans-80"/>
     <use x="1613.806641" xlink:href="#DejaVuSans-97"/>
     <use x="1675.085938" xlink:href="#DejaVuSans-112"/>
     <use x="1738.5625" xlink:href="#DejaVuSans-101"/>
     <use x="1800.085938" xlink:href="#DejaVuSans-114"/>
     <use x="1841.199219" xlink:href="#DejaVuSans-32"/>
     <use x="1872.986328" xlink:href="#DejaVuSans-40"/>
     <use x="1912" xlink:href="#DejaVuSans-83"/>
     <use x="1975.476562" xlink:href="#DejaVuSans-78"/>
     <use x="2050.28125" xlink:href="#DejaVuSans-73"/>
     <use x="2079.773438" xlink:href="#DejaVuSans-80"/>
     <use x="2140.076172" xlink:href="#DejaVuSans-41"/>
    </g>
   </g>
  </g>
 </g>
 <defs>
  <clipPath id="pe21a47d3ba">
   <rect height="221.76" width="446.4" x="48.564813" y="7.2"/>
  </clipPath>
  <clipPath id="pb73901820a">
   <path d="M 514.364813 123.162969 
L 514.364813 107.322969 
L 530.204813 107.322969 
L 530.204813 123.162969 
"/>
  </clipPath>
  <clipPath id="pbc82a008e6">
   <path d="M 514.364813 141.002969 
L 514.364813 125.162969 
L 530.204813 125.162969 
L 530.204813 141.002969 
"/>
  </clipPath>
 </defs>
</svg>
