<?xml version="1.0" encoding="utf-8" standalone="no"?>
<!DOCTYPE svg PUBLIC "-//W3C//DTD SVG 1.1//EN"
  "http://www.w3.org/Graphics/SVG/1.1/DTD/svg11.dtd">
<svg xmlns:xlink="http://www.w3.org/1999/xlink" width="520.90375pt" height="270.673125pt" viewBox="0 0 520.90375 270.673125" xmlns="http://www.w3.org/2000/svg" version="1.1">
 <metadata>
  <rdf:RDF xmlns:dc="http://purl.org/dc/elements/1.1/" xmlns:cc="http://creativecommons.org/ns#" xmlns:rdf="http://www.w3.org/1999/02/22-rdf-syntax-ns#">
   <cc:Work>
    <dc:type rdf:resource="http://purl.org/dc/dcmitype/StillImage"/>
    <dc:date>2023-11-24T12:13:04.901377</dc:date>
    <dc:format>image/svg+xml</dc:format>
    <dc:creator>
     <cc:Agent>
      <dc:title>Matplotlib v3.5.2, https://matplotlib.org/</dc:title>
     </cc:Agent>
    </dc:creator>
   </cc:Work>
  </rdf:RDF>
 </metadata>
 <defs>
  <style type="text/css">*{stroke-linejoin: round; stroke-linecap: butt}</style>
 </defs>
 <g id="figure_1">
  <g id="patch_1">
   <path d="M 0 270.673125 
L 520.90375 270.673125 
L 520.90375 0 
L 0 0 
z
" style="fill: #ffffff; stroke: #ffffff; stroke-linejoin: miter"/>
  </g>
  <g id="axes_1">
   <g id="patch_2">
    <path d="M 59.23875 228.96 
L 505.63875 228.96 
L 505.63875 7.2 
L 59.23875 7.2 
z
" style="fill: #ffffff"/>
   </g>
   <g id="matplotlib.axis_1">
    <g id="xtick_1">
     <g id="line2d_1">
      <path d="M 98.854334 228.96 
" style="fill: none; stroke: #333333; stroke-width: 1.5"/>
      <defs>
       <path id="mdfec341504" d="M 0 0 
L 0 2.75 
" style="stroke: #000000"/>
      </defs>
      <g>
       <use xlink:href="#mdfec341504" x="98.854334" y="228.96" style="fill: #333333; stroke: #000000"/>
      </g>
     </g>
     <g id="text_1">
      <!-- 2000 -->
      <g transform="translate(83.584334 243.028125)scale(0.12 -0.12)">
       <defs>
        <path id="DejaVuSans-32" d="M 1228 531 
L 3431 531 
L 3431 0 
L 469 0 
L 469 531 
Q 828 903 1448 1529 
Q 2069 2156 2228 2338 
Q 2531 2678 2651 2914 
Q 2772 3150 2772 3378 
Q 2772 3750 2511 3984 
Q 2250 4219 1831 4219 
Q 1534 4219 1204 4116 
Q 875 4013 500 3803 
L 500 4441 
Q 881 4594 1212 4672 
Q 1544 4750 1819 4750 
Q 2544 4750 2975 4387 
Q 3406 4025 3406 3419 
Q 3406 3131 3298 2873 
Q 3191 2616 2906 2266 
Q 2828 2175 2409 1742 
Q 1991 1309 1228 531 
z
" transform="scale(0.015625)"/>
        <path id="DejaVuSans-30" d="M 2034 4250 
Q 1547 4250 1301 3770 
Q 1056 3291 1056 2328 
Q 1056 1369 1301 889 
Q 1547 409 2034 409 
Q 2525 409 2770 889 
Q 3016 1369 3016 2328 
Q 3016 3291 2770 3770 
Q 2525 4250 2034 4250 
z
M 2034 4750 
Q 2819 4750 3233 4129 
Q 3647 3509 3647 2328 
Q 3647 1150 3233 529 
Q 2819 -91 2034 -91 
Q 1250 -91 836 529 
Q 422 1150 422 2328 
Q 422 3509 836 4129 
Q 1250 4750 2034 4750 
z
" transform="scale(0.015625)"/>
       </defs>
       <use xlink:href="#DejaVuSans-32"/>
       <use xlink:href="#DejaVuSans-30" x="63.623047"/>
       <use xlink:href="#DejaVuSans-30" x="127.246094"/>
       <use xlink:href="#DejaVuSans-30" x="190.869141"/>
      </g>
     </g>
    </g>
    <g id="xtick_2">
     <g id="line2d_2">
      <path d="M 195.477711 228.96 
" style="fill: none; stroke: #333333; stroke-width: 1.5"/>
      <g>
       <use xlink:href="#mdfec341504" x="195.477711" y="228.96" style="fill: #333333; stroke: #000000"/>
      </g>
     </g>
     <g id="text_2">
      <!-- 2005 -->
      <g transform="translate(180.207711 243.028125)scale(0.12 -0.12)">
       <defs>
        <path id="DejaVuSans-35" d="M 691 4666 
L 3169 4666 
L 3169 4134 
L 1269 4134 
L 1269 2991 
Q 1406 3038 1543 3061 
Q 1681 3084 1819 3084 
Q 2600 3084 3056 2656 
Q 3513 2228 3513 1497 
Q 3513 744 3044 326 
Q 2575 -91 1722 -91 
Q 1428 -91 1123 -41 
Q 819 9 494 109 
L 494 744 
Q 775 591 1075 516 
Q 1375 441 1709 441 
Q 2250 441 2565 725 
Q 2881 1009 2881 1497 
Q 2881 1984 2565 2268 
Q 2250 2553 1709 2553 
Q 1456 2553 1204 2497 
Q 953 2441 691 2322 
L 691 4666 
z
" transform="scale(0.015625)"/>
       </defs>
       <use xlink:href="#DejaVuSans-32"/>
       <use xlink:href="#DejaVuSans-30" x="63.623047"/>
       <use xlink:href="#DejaVuSans-30" x="127.246094"/>
       <use xlink:href="#DejaVuSans-35" x="190.869141"/>
      </g>
     </g>
    </g>
    <g id="xtick_3">
     <g id="line2d_3">
      <path d="M 292.101088 228.96 
" style="fill: none; stroke: #333333; stroke-width: 1.5"/>
      <g>
       <use xlink:href="#mdfec341504" x="292.101088" y="228.96" style="fill: #333333; stroke: #000000"/>
      </g>
     </g>
     <g id="text_3">
      <!-- 2010 -->
      <g transform="translate(276.831088 243.028125)scale(0.12 -0.12)">
       <defs>
        <path id="DejaVuSans-31" d="M 794 531 
L 1825 531 
L 1825 4091 
L 703 3866 
L 703 4441 
L 1819 4666 
L 2450 4666 
L 2450 531 
L 3481 531 
L 3481 0 
L 794 0 
L 794 531 
z
" transform="scale(0.015625)"/>
       </defs>
       <use xlink:href="#DejaVuSans-32"/>
       <use xlink:href="#DejaVuSans-30" x="63.623047"/>
       <use xlink:href="#DejaVuSans-31" x="127.246094"/>
       <use xlink:href="#DejaVuSans-30" x="190.869141"/>
      </g>
     </g>
    </g>
    <g id="xtick_4">
     <g id="line2d_4">
      <path d="M 388.724464 228.96 
" style="fill: none; stroke: #333333; stroke-width: 1.5"/>
      <g>
       <use xlink:href="#mdfec341504" x="388.724464" y="228.96" style="fill: #333333; stroke: #000000"/>
      </g>
     </g>
     <g id="text_4">
      <!-- 2015 -->
      <g transform="translate(373.454464 243.028125)scale(0.12 -0.12)">
       <use xlink:href="#DejaVuSans-32"/>
       <use xlink:href="#DejaVuSans-30" x="63.623047"/>
       <use xlink:href="#DejaVuSans-31" x="127.246094"/>
       <use xlink:href="#DejaVuSans-35" x="190.869141"/>
      </g>
     </g>
    </g>
    <g id="xtick_5">
     <g id="line2d_5">
      <path d="M 485.347841 228.96 
" style="fill: none; stroke: #333333; stroke-width: 1.5"/>
      <g>
       <use xlink:href="#mdfec341504" x="485.347841" y="228.96" style="fill: #333333; stroke: #000000"/>
      </g>
     </g>
     <g id="text_5">
      <!-- 2020 -->
      <g transform="translate(470.077841 243.028125)scale(0.12 -0.12)">
       <use xlink:href="#DejaVuSans-32"/>
       <use xlink:href="#DejaVuSans-30" x="63.623047"/>
       <use xlink:href="#DejaVuSans-32" x="127.246094"/>
       <use xlink:href="#DejaVuSans-30" x="190.869141"/>
      </g>
     </g>
    </g>
    <g id="xtick_6"/>
    <g id="xtick_7"/>
    <g id="xtick_8"/>
    <g id="xtick_9"/>
    <g id="text_6">
     <!-- Year -->
     <g transform="translate(260.41625 260.561562)scale(0.14 -0.14)">
      <defs>
       <path id="DejaVuSans-59" d="M -13 4666 
L 666 4666 
L 1959 2747 
L 3244 4666 
L 3922 4666 
L 2272 2222 
L 2272 0 
L 1638 0 
L 1638 2222 
L -13 4666 
z
" transform="scale(0.015625)"/>
       <path id="DejaVuSans-65" d="M 3597 1894 
L 3597 1613 
L 953 1613 
Q 991 1019 1311 708 
Q 1631 397 2203 397 
Q 2534 397 2845 478 
Q 3156 559 3463 722 
L 3463 178 
Q 3153 47 2828 -22 
Q 2503 -91 2169 -91 
Q 1331 -91 842 396 
Q 353 884 353 1716 
Q 353 2575 817 3079 
Q 1281 3584 2069 3584 
Q 2775 3584 3186 3129 
Q 3597 2675 3597 1894 
z
M 3022 2063 
Q 3016 2534 2758 2815 
Q 2500 3097 2075 3097 
Q 1594 3097 1305 2825 
Q 1016 2553 972 2059 
L 3022 2063 
z
" transform="scale(0.015625)"/>
       <path id="DejaVuSans-61" d="M 2194 1759 
Q 1497 1759 1228 1600 
Q 959 1441 959 1056 
Q 959 750 1161 570 
Q 1363 391 1709 391 
Q 2188 391 2477 730 
Q 2766 1069 2766 1631 
L 2766 1759 
L 2194 1759 
z
M 3341 1997 
L 3341 0 
L 2766 0 
L 2766 531 
Q 2569 213 2275 61 
Q 1981 -91 1556 -91 
Q 1019 -91 701 211 
Q 384 513 384 1019 
Q 384 1609 779 1909 
Q 1175 2209 1959 2209 
L 2766 2209 
L 2766 2266 
Q 2766 2663 2505 2880 
Q 2244 3097 1772 3097 
Q 1472 3097 1187 3025 
Q 903 2953 641 2809 
L 641 3341 
Q 956 3463 1253 3523 
Q 1550 3584 1831 3584 
Q 2591 3584 2966 3190 
Q 3341 2797 3341 1997 
z
" transform="scale(0.015625)"/>
       <path id="DejaVuSans-72" d="M 2631 2963 
Q 2534 3019 2420 3045 
Q 2306 3072 2169 3072 
Q 1681 3072 1420 2755 
Q 1159 2438 1159 1844 
L 1159 0 
L 581 0 
L 581 3500 
L 1159 3500 
L 1159 2956 
Q 1341 3275 1631 3429 
Q 1922 3584 2338 3584 
Q 2397 3584 2469 3576 
Q 2541 3569 2628 3553 
L 2631 2963 
z
" transform="scale(0.015625)"/>
      </defs>
      <use xlink:href="#DejaVuSans-59"/>
      <use xlink:href="#DejaVuSans-65" x="47.833984"/>
      <use xlink:href="#DejaVuSans-61" x="109.357422"/>
      <use xlink:href="#DejaVuSans-72" x="170.636719"/>
     </g>
    </g>
   </g>
   <g id="matplotlib.axis_2">
    <g id="ytick_1">
     <g id="line2d_6">
      <path d="M 59.23875 218.88 
" style="fill: none; stroke: #333333; stroke-width: 1.5"/>
      <defs>
       <path id="mb16d97fd26" d="M 0 0 
L -2.75 0 
" style="stroke: #000000"/>
      </defs>
      <g>
       <use xlink:href="#mb16d97fd26" x="59.23875" y="218.88" style="fill: #333333; stroke: #000000"/>
      </g>
     </g>
     <g id="text_7">
      <!-- −1 -->
      <g transform="translate(36.598125 222.19125)scale(0.12 -0.12)">
       <defs>
        <path id="DejaVuSans-2212" d="M 678 2272 
L 4684 2272 
L 4684 1741 
L 678 1741 
L 678 2272 
z
" transform="scale(0.015625)"/>
       </defs>
       <use xlink:href="#DejaVuSans-2212"/>
       <use xlink:href="#DejaVuSans-31" x="83.789062"/>
      </g>
     </g>
    </g>
    <g id="ytick_2">
     <g id="line2d_7">
      <path d="M 59.23875 168.48 
" style="fill: none; stroke: #333333; stroke-width: 1.5"/>
      <g>
       <use xlink:href="#mb16d97fd26" x="59.23875" y="168.48" style="fill: #333333; stroke: #000000"/>
      </g>
     </g>
     <g id="text_8">
      <!-- −0.5 -->
      <g transform="translate(25.149375 171.79125)scale(0.12 -0.12)">
       <defs>
        <path id="DejaVuSans-2e" d="M 684 794 
L 1344 794 
L 1344 0 
L 684 0 
L 684 794 
z
" transform="scale(0.015625)"/>
       </defs>
       <use xlink:href="#DejaVuSans-2212"/>
       <use xlink:href="#DejaVuSans-30" x="83.789062"/>
       <use xlink:href="#DejaVuSans-2e" x="147.412109"/>
       <use xlink:href="#DejaVuSans-35" x="179.199219"/>
      </g>
     </g>
    </g>
    <g id="ytick_3">
     <g id="line2d_8">
      <path d="M 59.23875 118.08 
" style="fill: none; stroke: #333333; stroke-width: 1.5"/>
      <g>
       <use xlink:href="#mb16d97fd26" x="59.23875" y="118.08" style="fill: #333333; stroke: #000000"/>
      </g>
     </g>
     <g id="text_9">
      <!-- 0 -->
      <g transform="translate(46.65375 121.39125)scale(0.12 -0.12)">
       <use xlink:href="#DejaVuSans-30"/>
      </g>
     </g>
    </g>
    <g id="ytick_4">
     <g id="line2d_9">
      <path d="M 59.23875 67.68 
" style="fill: none; stroke: #333333; stroke-width: 1.5"/>
      <g>
       <use xlink:href="#mb16d97fd26" x="59.23875" y="67.68" style="fill: #333333; stroke: #000000"/>
      </g>
     </g>
     <g id="text_10">
      <!-- 0.5 -->
      <g transform="translate(35.205 70.99125)scale(0.12 -0.12)">
       <use xlink:href="#DejaVuSans-30"/>
       <use xlink:href="#DejaVuSans-2e" x="63.623047"/>
       <use xlink:href="#DejaVuSans-35" x="95.410156"/>
      </g>
     </g>
    </g>
    <g id="ytick_5">
     <g id="line2d_10">
      <path d="M 59.23875 17.28 
" style="fill: none; stroke: #333333; stroke-width: 1.5"/>
      <g>
       <use xlink:href="#mb16d97fd26" x="59.23875" y="17.28" style="fill: #333333; stroke: #000000"/>
      </g>
     </g>
     <g id="text_11">
      <!-- 1 -->
      <g transform="translate(46.65375 20.59125)scale(0.12 -0.12)">
       <use xlink:href="#DejaVuSans-31"/>
      </g>
     </g>
    </g>
    <g id="ytick_6"/>
    <g id="ytick_7"/>
    <g id="ytick_8"/>
    <g id="ytick_9"/>
    <g id="text_12">
     <!-- Spearman's rank correlation -->
     <g transform="translate(17.837813 215.658281)rotate(-90)scale(0.14 -0.14)">
      <defs>
       <path id="DejaVuSans-53" d="M 3425 4513 
L 3425 3897 
Q 3066 4069 2747 4153 
Q 2428 4238 2131 4238 
Q 1616 4238 1336 4038 
Q 1056 3838 1056 3469 
Q 1056 3159 1242 3001 
Q 1428 2844 1947 2747 
L 2328 2669 
Q 3034 2534 3370 2195 
Q 3706 1856 3706 1288 
Q 3706 609 3251 259 
Q 2797 -91 1919 -91 
Q 1588 -91 1214 -16 
Q 841 59 441 206 
L 441 856 
Q 825 641 1194 531 
Q 1563 422 1919 422 
Q 2459 422 2753 634 
Q 3047 847 3047 1241 
Q 3047 1584 2836 1778 
Q 2625 1972 2144 2069 
L 1759 2144 
Q 1053 2284 737 2584 
Q 422 2884 422 3419 
Q 422 4038 858 4394 
Q 1294 4750 2059 4750 
Q 2388 4750 2728 4690 
Q 3069 4631 3425 4513 
z
" transform="scale(0.015625)"/>
       <path id="DejaVuSans-70" d="M 1159 525 
L 1159 -1331 
L 581 -1331 
L 581 3500 
L 1159 3500 
L 1159 2969 
Q 1341 3281 1617 3432 
Q 1894 3584 2278 3584 
Q 2916 3584 3314 3078 
Q 3713 2572 3713 1747 
Q 3713 922 3314 415 
Q 2916 -91 2278 -91 
Q 1894 -91 1617 61 
Q 1341 213 1159 525 
z
M 3116 1747 
Q 3116 2381 2855 2742 
Q 2594 3103 2138 3103 
Q 1681 3103 1420 2742 
Q 1159 2381 1159 1747 
Q 1159 1113 1420 752 
Q 1681 391 2138 391 
Q 2594 391 2855 752 
Q 3116 1113 3116 1747 
z
" transform="scale(0.015625)"/>
       <path id="DejaVuSans-6d" d="M 3328 2828 
Q 3544 3216 3844 3400 
Q 4144 3584 4550 3584 
Q 5097 3584 5394 3201 
Q 5691 2819 5691 2113 
L 5691 0 
L 5113 0 
L 5113 2094 
Q 5113 2597 4934 2840 
Q 4756 3084 4391 3084 
Q 3944 3084 3684 2787 
Q 3425 2491 3425 1978 
L 3425 0 
L 2847 0 
L 2847 2094 
Q 2847 2600 2669 2842 
Q 2491 3084 2119 3084 
Q 1678 3084 1418 2786 
Q 1159 2488 1159 1978 
L 1159 0 
L 581 0 
L 581 3500 
L 1159 3500 
L 1159 2956 
Q 1356 3278 1631 3431 
Q 1906 3584 2284 3584 
Q 2666 3584 2933 3390 
Q 3200 3197 3328 2828 
z
" transform="scale(0.015625)"/>
       <path id="DejaVuSans-6e" d="M 3513 2113 
L 3513 0 
L 2938 0 
L 2938 2094 
Q 2938 2591 2744 2837 
Q 2550 3084 2163 3084 
Q 1697 3084 1428 2787 
Q 1159 2491 1159 1978 
L 1159 0 
L 581 0 
L 581 3500 
L 1159 3500 
L 1159 2956 
Q 1366 3272 1645 3428 
Q 1925 3584 2291 3584 
Q 2894 3584 3203 3211 
Q 3513 2838 3513 2113 
z
" transform="scale(0.015625)"/>
       <path id="DejaVuSans-27" d="M 1147 4666 
L 1147 2931 
L 616 2931 
L 616 4666 
L 1147 4666 
z
" transform="scale(0.015625)"/>
       <path id="DejaVuSans-73" d="M 2834 3397 
L 2834 2853 
Q 2591 2978 2328 3040 
Q 2066 3103 1784 3103 
Q 1356 3103 1142 2972 
Q 928 2841 928 2578 
Q 928 2378 1081 2264 
Q 1234 2150 1697 2047 
L 1894 2003 
Q 2506 1872 2764 1633 
Q 3022 1394 3022 966 
Q 3022 478 2636 193 
Q 2250 -91 1575 -91 
Q 1294 -91 989 -36 
Q 684 19 347 128 
L 347 722 
Q 666 556 975 473 
Q 1284 391 1588 391 
Q 1994 391 2212 530 
Q 2431 669 2431 922 
Q 2431 1156 2273 1281 
Q 2116 1406 1581 1522 
L 1381 1569 
Q 847 1681 609 1914 
Q 372 2147 372 2553 
Q 372 3047 722 3315 
Q 1072 3584 1716 3584 
Q 2034 3584 2315 3537 
Q 2597 3491 2834 3397 
z
" transform="scale(0.015625)"/>
       <path id="DejaVuSans-20" transform="scale(0.015625)"/>
       <path id="DejaVuSans-6b" d="M 581 4863 
L 1159 4863 
L 1159 1991 
L 2875 3500 
L 3609 3500 
L 1753 1863 
L 3688 0 
L 2938 0 
L 1159 1709 
L 1159 0 
L 581 0 
L 581 4863 
z
" transform="scale(0.015625)"/>
       <path id="DejaVuSans-63" d="M 3122 3366 
L 3122 2828 
Q 2878 2963 2633 3030 
Q 2388 3097 2138 3097 
Q 1578 3097 1268 2742 
Q 959 2388 959 1747 
Q 959 1106 1268 751 
Q 1578 397 2138 397 
Q 2388 397 2633 464 
Q 2878 531 3122 666 
L 3122 134 
Q 2881 22 2623 -34 
Q 2366 -91 2075 -91 
Q 1284 -91 818 406 
Q 353 903 353 1747 
Q 353 2603 823 3093 
Q 1294 3584 2113 3584 
Q 2378 3584 2631 3529 
Q 2884 3475 3122 3366 
z
" transform="scale(0.015625)"/>
       <path id="DejaVuSans-6f" d="M 1959 3097 
Q 1497 3097 1228 2736 
Q 959 2375 959 1747 
Q 959 1119 1226 758 
Q 1494 397 1959 397 
Q 2419 397 2687 759 
Q 2956 1122 2956 1747 
Q 2956 2369 2687 2733 
Q 2419 3097 1959 3097 
z
M 1959 3584 
Q 2709 3584 3137 3096 
Q 3566 2609 3566 1747 
Q 3566 888 3137 398 
Q 2709 -91 1959 -91 
Q 1206 -91 779 398 
Q 353 888 353 1747 
Q 353 2609 779 3096 
Q 1206 3584 1959 3584 
z
" transform="scale(0.015625)"/>
       <path id="DejaVuSans-6c" d="M 603 4863 
L 1178 4863 
L 1178 0 
L 603 0 
L 603 4863 
z
" transform="scale(0.015625)"/>
       <path id="DejaVuSans-74" d="M 1172 4494 
L 1172 3500 
L 2356 3500 
L 2356 3053 
L 1172 3053 
L 1172 1153 
Q 1172 725 1289 603 
Q 1406 481 1766 481 
L 2356 481 
L 2356 0 
L 1766 0 
Q 1100 0 847 248 
Q 594 497 594 1153 
L 594 3053 
L 172 3053 
L 172 3500 
L 594 3500 
L 594 4494 
L 1172 4494 
z
" transform="scale(0.015625)"/>
       <path id="DejaVuSans-69" d="M 603 3500 
L 1178 3500 
L 1178 0 
L 603 0 
L 603 3500 
z
M 603 4863 
L 1178 4863 
L 1178 4134 
L 603 4134 
L 603 4863 
z
" transform="scale(0.015625)"/>
      </defs>
      <use xlink:href="#DejaVuSans-53"/>
      <use xlink:href="#DejaVuSans-70" x="63.476562"/>
      <use xlink:href="#DejaVuSans-65" x="126.953125"/>
      <use xlink:href="#DejaVuSans-61" x="188.476562"/>
      <use xlink:href="#DejaVuSans-72" x="249.755859"/>
      <use xlink:href="#DejaVuSans-6d" x="289.119141"/>
      <use xlink:href="#DejaVuSans-61" x="386.53125"/>
      <use xlink:href="#DejaVuSans-6e" x="447.810547"/>
      <use xlink:href="#DejaVuSans-27" x="511.189453"/>
      <use xlink:href="#DejaVuSans-73" x="538.679688"/>
      <use xlink:href="#DejaVuSans-20" x="590.779297"/>
      <use xlink:href="#DejaVuSans-72" x="622.566406"/>
      <use xlink:href="#DejaVuSans-61" x="663.679688"/>
      <use xlink:href="#DejaVuSans-6e" x="724.958984"/>
      <use xlink:href="#DejaVuSans-6b" x="788.337891"/>
      <use xlink:href="#DejaVuSans-20" x="846.248047"/>
      <use xlink:href="#DejaVuSans-63" x="878.035156"/>
      <use xlink:href="#DejaVuSans-6f" x="933.015625"/>
      <use xlink:href="#DejaVuSans-72" x="994.197266"/>
      <use xlink:href="#DejaVuSans-72" x="1033.560547"/>
      <use xlink:href="#DejaVuSans-65" x="1072.423828"/>
      <use xlink:href="#DejaVuSans-6c" x="1133.947266"/>
      <use xlink:href="#DejaVuSans-61" x="1161.730469"/>
      <use xlink:href="#DejaVuSans-74" x="1223.009766"/>
      <use xlink:href="#DejaVuSans-69" x="1262.21875"/>
      <use xlink:href="#DejaVuSans-6f" x="1290.001953"/>
      <use xlink:href="#DejaVuSans-6e" x="1351.183594"/>
     </g>
    </g>
   </g>
   <g id="PathCollection_1">
    <path d="M 79.529659 147.01132 
C 79.999719 147.01132 80.45059 146.824563 80.782973 146.492181 
C 81.115356 146.159798 81.302113 145.708927 81.302113 145.238866 
C 81.302113 144.768806 81.115356 144.317935 80.782973 143.985552 
C 80.45059 143.653169 79.999719 143.466413 79.529659 143.466413 
C 79.059599 143.466413 78.608728 143.653169 78.276345 143.985552 
C 77.943962 144.317935 77.757205 144.768806 77.757205 145.238866 
C 77.757205 145.708927 77.943962 146.159798 78.276345 146.492181 
C 78.608728 146.824563 79.059599 147.01132 79.529659 147.01132 
z
" clip-path="url(#p8550c324e5)" style="fill: #4ab668; stroke: #4ab668; stroke-width: 0.886227"/>
    <path d="M 79.529659 141.29796 
C 79.999719 141.29796 80.45059 141.111203 80.782973 140.77882 
C 81.115356 140.446437 81.302113 139.995566 81.302113 139.525506 
C 81.302113 139.055446 81.115356 138.604575 80.782973 138.272192 
C 80.45059 137.939809 79.999719 137.753052 79.529659 137.753052 
C 79.059599 137.753052 78.608728 137.939809 78.276345 138.272192 
C 77.943962 138.604575 77.757205 139.055446 77.757205 139.525506 
C 77.757205 139.995566 77.943962 140.446437 78.276345 140.77882 
C 78.608728 141.111203 79.059599 141.29796 79.529659 141.29796 
z
" clip-path="url(#p8550c324e5)" style="fill: #0091cc; stroke: #0091cc; stroke-width: 0.886227"/>
    <path d="M 98.854334 179.537866 
C 99.324395 179.537866 99.775266 179.351109 100.107649 179.018726 
C 100.440031 178.686344 100.626788 178.235473 100.626788 177.765412 
C 100.626788 177.295352 100.440031 176.844481 100.107649 176.512098 
C 99.775266 176.179715 99.324395 175.992958 98.854334 175.992958 
C 98.384274 175.992958 97.933403 176.179715 97.60102 176.512098 
C 97.268637 176.844481 97.081881 177.295352 97.081881 177.765412 
C 97.081881 178.235473 97.268637 178.686344 97.60102 179.018726 
C 97.933403 179.351109 98.384274 179.537866 98.854334 179.537866 
z
" clip-path="url(#p8550c324e5)" style="fill: #4ab668; stroke: #4ab668; stroke-width: 0.886227"/>
    <path d="M 98.854334 174.392834 
C 99.324395 174.392834 99.775266 174.206077 100.107649 173.873695 
C 100.440031 173.541312 100.626788 173.090441 100.626788 172.620381 
C 100.626788 172.15032 100.440031 171.699449 100.107649 171.367066 
C 99.775266 171.034684 99.324395 170.847927 98.854334 170.847927 
C 98.384274 170.847927 97.933403 171.034684 97.60102 171.367066 
C 97.268637 171.699449 97.081881 172.15032 97.081881 172.620381 
C 97.081881 173.090441 97.268637 173.541312 97.60102 173.873695 
C 97.933403 174.206077 98.384274 174.392834 98.854334 174.392834 
z
" clip-path="url(#p8550c324e5)" style="fill: #0091cc; stroke: #0091cc; stroke-width: 0.886227"/>
    <path d="M 118.17901 140.970995 
C 118.64907 140.970995 119.099941 140.784238 119.432324 140.451855 
C 119.764707 140.119472 119.951464 139.668601 119.951464 139.198541 
C 119.951464 138.728481 119.764707 138.27761 119.432324 137.945227 
C 119.099941 137.612844 118.64907 137.426087 118.17901 137.426087 
C 117.708949 137.426087 117.258078 137.612844 116.925696 137.945227 
C 116.593313 138.27761 116.406556 138.728481 116.406556 139.198541 
C 116.406556 139.668601 116.593313 140.119472 116.925696 140.451855 
C 117.258078 140.784238 117.708949 140.970995 118.17901 140.970995 
z
" clip-path="url(#p8550c324e5)" style="fill: #4ab668; stroke: #4ab668; stroke-width: 0.886227"/>
    <path d="M 118.17901 131.341816 
C 118.64907 131.341816 119.099941 131.155059 119.432324 130.822676 
C 119.764707 130.490293 119.951464 130.039422 119.951464 129.569362 
C 119.951464 129.099301 119.764707 128.64843 119.432324 128.316048 
C 119.099941 127.983665 118.64907 127.796908 118.17901 127.796908 
C 117.708949 127.796908 117.258078 127.983665 116.925696 128.316048 
C 116.593313 128.64843 116.406556 129.099301 116.406556 129.569362 
C 116.406556 130.039422 116.593313 130.490293 116.925696 130.822676 
C 117.258078 131.155059 117.708949 131.341816 118.17901 131.341816 
z
" clip-path="url(#p8550c324e5)" style="fill: #0091cc; stroke: #0091cc; stroke-width: 0.886227"/>
    <path d="M 137.503685 169.553101 
C 137.973745 169.553101 138.424616 169.366344 138.756999 169.033962 
C 139.089382 168.701579 139.276139 168.250708 139.276139 167.780648 
C 139.276139 167.310587 139.089382 166.859716 138.756999 166.527333 
C 138.424616 166.194951 137.973745 166.008194 137.503685 166.008194 
C 137.033625 166.008194 136.582754 166.194951 136.250371 166.527333 
C 135.917988 166.859716 135.731231 167.310587 135.731231 167.780648 
C 135.731231 168.250708 135.917988 168.701579 136.250371 169.033962 
C 136.582754 169.366344 137.033625 169.553101 137.503685 169.553101 
z
" clip-path="url(#p8550c324e5)" style="fill: #4ab668; stroke: #4ab668; stroke-width: 0.886227"/>
    <path d="M 137.503685 164.109808 
C 137.973745 164.109808 138.424616 163.923051 138.756999 163.590668 
C 139.089382 163.258286 139.276139 162.807415 139.276139 162.337354 
C 139.276139 161.867294 139.089382 161.416423 138.756999 161.08404 
C 138.424616 160.751657 137.973745 160.5649 137.503685 160.5649 
C 137.033625 160.5649 136.582754 160.751657 136.250371 161.08404 
C 135.917988 161.416423 135.731231 161.867294 135.731231 162.337354 
C 135.731231 162.807415 135.917988 163.258286 136.250371 163.590668 
C 136.582754 163.923051 137.033625 164.109808 137.503685 164.109808 
z
" clip-path="url(#p8550c324e5)" style="fill: #0091cc; stroke: #0091cc; stroke-width: 0.886227"/>
    <path d="M 156.82836 167.716105 
C 157.298421 167.716105 157.749292 167.529348 158.081675 167.196965 
C 158.414057 166.864582 158.600814 166.413711 158.600814 165.943651 
C 158.600814 165.473591 158.414057 165.022719 158.081675 164.690337 
C 157.749292 164.357954 157.298421 164.171197 156.82836 164.171197 
C 156.3583 164.171197 155.907429 164.357954 155.575046 164.690337 
C 155.242663 165.022719 155.055907 165.473591 155.055907 165.943651 
C 155.055907 166.413711 155.242663 166.864582 155.575046 167.196965 
C 155.907429 167.529348 156.3583 167.716105 156.82836 167.716105 
z
" clip-path="url(#p8550c324e5)" style="fill: #4ab668; stroke: #4ab668; stroke-width: 0.886227"/>
    <path d="M 156.82836 160.21016 
C 157.298421 160.21016 157.749292 160.023403 158.081675 159.691021 
C 158.414057 159.358638 158.600814 158.907767 158.600814 158.437707 
C 158.600814 157.967646 158.414057 157.516775 158.081675 157.184392 
C 157.749292 156.85201 157.298421 156.665253 156.82836 156.665253 
C 156.3583 156.665253 155.907429 156.85201 155.575046 157.184392 
C 155.242663 157.516775 155.055907 157.967646 155.055907 158.437707 
C 155.055907 158.907767 155.242663 159.358638 155.575046 159.691021 
C 155.907429 160.023403 156.3583 160.21016 156.82836 160.21016 
z
" clip-path="url(#p8550c324e5)" style="fill: #0091cc; stroke: #0091cc; stroke-width: 0.886227"/>
    <path d="M 176.153036 157.050513 
C 176.623096 157.050513 177.073967 156.863756 177.40635 156.531374 
C 177.738733 156.198991 177.92549 155.74812 177.92549 155.278059 
C 177.92549 154.807999 177.738733 154.357128 177.40635 154.024745 
C 177.073967 153.692362 176.623096 153.505606 176.153036 153.505606 
C 175.682975 153.505606 175.232104 153.692362 174.899722 154.024745 
C 174.567339 154.357128 174.380582 154.807999 174.380582 155.278059 
C 174.380582 155.74812 174.567339 156.198991 174.899722 156.531374 
C 175.232104 156.863756 175.682975 157.050513 176.153036 157.050513 
z
" clip-path="url(#p8550c324e5)" style="fill: #4ab668; stroke: #4ab668; stroke-width: 0.886227"/>
    <path d="M 176.153036 151.953018 
C 176.623096 151.953018 177.073967 151.766261 177.40635 151.433878 
C 177.738733 151.101495 177.92549 150.650624 177.92549 150.180564 
C 177.92549 149.710504 177.738733 149.259633 177.40635 148.92725 
C 177.073967 148.594867 176.623096 148.40811 176.153036 148.40811 
C 175.682975 148.40811 175.232104 148.594867 174.899722 148.92725 
C 174.567339 149.259633 174.380582 149.710504 174.380582 150.180564 
C 174.380582 150.650624 174.567339 151.101495 174.899722 151.433878 
C 175.232104 151.766261 175.682975 151.953018 176.153036 151.953018 
z
" clip-path="url(#p8550c324e5)" style="fill: #0091cc; stroke: #0091cc; stroke-width: 0.886227"/>
    <path d="M 195.477711 148.72641 
C 195.947771 148.72641 196.398642 148.539653 196.731025 148.20727 
C 197.063408 147.874887 197.250165 147.424016 197.250165 146.953956 
C 197.250165 146.483896 197.063408 146.033025 196.731025 145.700642 
C 196.398642 145.368259 195.947771 145.181502 195.477711 145.181502 
C 195.007651 145.181502 194.55678 145.368259 194.224397 145.700642 
C 193.892014 146.033025 193.705257 146.483896 193.705257 146.953956 
C 193.705257 147.424016 193.892014 147.874887 194.224397 148.20727 
C 194.55678 148.539653 195.007651 148.72641 195.477711 148.72641 
z
" clip-path="url(#p8550c324e5)" style="fill: #4ab668; stroke: #4ab668; stroke-width: 0.886227"/>
    <path d="M 195.477711 146.919998 
C 195.947771 146.919998 196.398642 146.733241 196.731025 146.400858 
C 197.063408 146.068475 197.250165 145.617604 197.250165 145.147544 
C 197.250165 144.677484 197.063408 144.226612 196.731025 143.89423 
C 196.398642 143.561847 195.947771 143.37509 195.477711 143.37509 
C 195.007651 143.37509 194.55678 143.561847 194.224397 143.89423 
C 193.892014 144.226612 193.705257 144.677484 193.705257 145.147544 
C 193.705257 145.617604 193.892014 146.068475 194.224397 146.400858 
C 194.55678 146.733241 195.007651 146.919998 195.477711 146.919998 
z
" clip-path="url(#p8550c324e5)" style="fill: #0091cc; stroke: #0091cc; stroke-width: 0.886227"/>
    <path d="M 214.802386 127.813452 
C 215.272447 127.813452 215.723318 127.626695 216.055701 127.294312 
C 216.388083 126.961929 216.57484 126.511058 216.57484 126.040998 
C 216.57484 125.570938 216.388083 125.120067 216.055701 124.787684 
C 215.723318 124.455301 215.272447 124.268544 214.802386 124.268544 
C 214.332326 124.268544 213.881455 124.455301 213.549072 124.787684 
C 213.216689 125.120067 213.029933 125.570938 213.029933 126.040998 
C 213.029933 126.511058 213.216689 126.961929 213.549072 127.294312 
C 213.881455 127.626695 214.332326 127.813452 214.802386 127.813452 
z
" clip-path="url(#p8550c324e5)" style="fill: #4ab668; stroke: #4ab668; stroke-width: 0.886227"/>
    <path d="M 214.802386 127.339234 
C 215.272447 127.339234 215.723318 127.152477 216.055701 126.820094 
C 216.388083 126.487711 216.57484 126.03684 216.57484 125.56678 
C 216.57484 125.09672 216.388083 124.645849 216.055701 124.313466 
C 215.723318 123.981083 215.272447 123.794326 214.802386 123.794326 
C 214.332326 123.794326 213.881455 123.981083 213.549072 124.313466 
C 213.216689 124.645849 213.029933 125.09672 213.029933 125.56678 
C 213.029933 126.03684 213.216689 126.487711 213.549072 126.820094 
C 213.881455 127.152477 214.332326 127.339234 214.802386 127.339234 
z
" clip-path="url(#p8550c324e5)" style="fill: #0091cc; stroke: #0091cc; stroke-width: 0.886227"/>
    <path d="M 234.127062 133.288371 
C 234.597122 133.288371 235.047993 133.101614 235.380376 132.769231 
C 235.712759 132.436848 235.899516 131.985977 235.899516 131.515917 
C 235.899516 131.045856 235.712759 130.594985 235.380376 130.262603 
C 235.047993 129.93022 234.597122 129.743463 234.127062 129.743463 
C 233.657001 129.743463 233.20613 129.93022 232.873748 130.262603 
C 232.541365 130.594985 232.354608 131.045856 232.354608 131.515917 
C 232.354608 131.985977 232.541365 132.436848 232.873748 132.769231 
C 233.20613 133.101614 233.657001 133.288371 234.127062 133.288371 
z
" clip-path="url(#p8550c324e5)" style="fill: #4ab668; stroke: #4ab668; stroke-width: 0.886227"/>
    <path d="M 234.127062 136.965139 
C 234.597122 136.965139 235.047993 136.778382 235.380376 136.445999 
C 235.712759 136.113617 235.899516 135.662745 235.899516 135.192685 
C 235.899516 134.722625 235.712759 134.271754 235.380376 133.939371 
C 235.047993 133.606988 234.597122 133.420231 234.127062 133.420231 
C 233.657001 133.420231 233.20613 133.606988 232.873748 133.939371 
C 232.541365 134.271754 232.354608 134.722625 232.354608 135.192685 
C 232.354608 135.662745 232.541365 136.113617 232.873748 136.445999 
C 233.20613 136.778382 233.657001 136.965139 234.127062 136.965139 
z
" clip-path="url(#p8550c324e5)" style="fill: #0091cc; stroke: #0091cc; stroke-width: 0.886227"/>
    <path d="M 253.451737 125.809361 
C 253.921797 125.809361 254.372668 125.622604 254.705051 125.290221 
C 255.037434 124.957839 255.224191 124.506968 255.224191 124.036907 
C 255.224191 123.566847 255.037434 123.115976 254.705051 122.783593 
C 254.372668 122.45121 253.921797 122.264453 253.451737 122.264453 
C 252.981677 122.264453 252.530806 122.45121 252.198423 122.783593 
C 251.86604 123.115976 251.679283 123.566847 251.679283 124.036907 
C 251.679283 124.506968 251.86604 124.957839 252.198423 125.290221 
C 252.530806 125.622604 252.981677 125.809361 253.451737 125.809361 
z
" clip-path="url(#p8550c324e5)" style="fill: #4ab668; stroke: #4ab668; stroke-width: 0.886227"/>
    <path d="M 253.451737 124.444839 
C 253.921797 124.444839 254.372668 124.258082 254.705051 123.925699 
C 255.037434 123.593317 255.224191 123.142446 255.224191 122.672385 
C 255.224191 122.202325 255.037434 121.751454 254.705051 121.419071 
C 254.372668 121.086688 253.921797 120.899931 253.451737 120.899931 
C 252.981677 120.899931 252.530806 121.086688 252.198423 121.419071 
C 251.86604 121.751454 251.679283 122.202325 251.679283 122.672385 
C 251.679283 123.142446 251.86604 123.593317 252.198423 123.925699 
C 252.530806 124.258082 252.981677 124.444839 253.451737 124.444839 
z
" clip-path="url(#p8550c324e5)" style="fill: #0091cc; stroke: #0091cc; stroke-width: 0.886227"/>
    <path d="M 272.776412 129.962949 
C 273.246473 129.962949 273.697344 129.776192 274.029726 129.443809 
C 274.362109 129.111426 274.548866 128.660555 274.548866 128.190495 
C 274.548866 127.720434 274.362109 127.269563 274.029726 126.937181 
C 273.697344 126.604798 273.246473 126.418041 272.776412 126.418041 
C 272.306352 126.418041 271.855481 126.604798 271.523098 126.937181 
C 271.190715 127.269563 271.003958 127.720434 271.003958 128.190495 
C 271.003958 128.660555 271.190715 129.111426 271.523098 129.443809 
C 271.855481 129.776192 272.306352 129.962949 272.776412 129.962949 
z
" clip-path="url(#p8550c324e5)" style="fill: #4ab668; stroke: #4ab668; stroke-width: 0.886227"/>
    <path d="M 272.776412 125.223782 
C 273.246473 125.223782 273.697344 125.037025 274.029726 124.704642 
C 274.362109 124.372259 274.548866 123.921388 274.548866 123.451328 
C 274.548866 122.981268 274.362109 122.530397 274.029726 122.198014 
C 273.697344 121.865631 273.246473 121.678874 272.776412 121.678874 
C 272.306352 121.678874 271.855481 121.865631 271.523098 122.198014 
C 271.190715 122.530397 271.003958 122.981268 271.003958 123.451328 
C 271.003958 123.921388 271.190715 124.372259 271.523098 124.704642 
C 271.855481 125.037025 272.306352 125.223782 272.776412 125.223782 
z
" clip-path="url(#p8550c324e5)" style="fill: #0091cc; stroke: #0091cc; stroke-width: 0.886227"/>
    <path d="M 292.101088 140.582025 
C 292.571148 140.582025 293.022019 140.395268 293.354402 140.062885 
C 293.686785 139.730503 293.873542 139.279632 293.873542 138.809571 
C 293.873542 138.339511 293.686785 137.88864 293.354402 137.556257 
C 293.022019 137.223874 292.571148 137.037118 292.101088 137.037118 
C 291.631027 137.037118 291.180156 137.223874 290.847774 137.556257 
C 290.515391 137.88864 290.328634 138.339511 290.328634 138.809571 
C 290.328634 139.279632 290.515391 139.730503 290.847774 140.062885 
C 291.180156 140.395268 291.631027 140.582025 292.101088 140.582025 
z
" clip-path="url(#p8550c324e5)" style="fill: #4ab668; stroke: #4ab668; stroke-width: 0.886227"/>
    <path d="M 292.101088 140.044702 
C 292.571148 140.044702 293.022019 139.857945 293.354402 139.525562 
C 293.686785 139.193179 293.873542 138.742308 293.873542 138.272248 
C 293.873542 137.802188 293.686785 137.351317 293.354402 137.018934 
C 293.022019 136.686551 292.571148 136.499794 292.101088 136.499794 
C 291.631027 136.499794 291.180156 136.686551 290.847774 137.018934 
C 290.515391 137.351317 290.328634 137.802188 290.328634 138.272248 
C 290.328634 138.742308 290.515391 139.193179 290.847774 139.525562 
C 291.180156 139.857945 291.631027 140.044702 292.101088 140.044702 
z
" clip-path="url(#p8550c324e5)" style="fill: #0091cc; stroke: #0091cc; stroke-width: 0.886227"/>
    <path d="M 311.425763 136.022347 
C 311.895823 136.022347 312.346694 135.83559 312.679077 135.503207 
C 313.01146 135.170825 313.198217 134.719953 313.198217 134.249893 
C 313.198217 133.779833 313.01146 133.328962 312.679077 132.996579 
C 312.346694 132.664196 311.895823 132.477439 311.425763 132.477439 
C 310.955703 132.477439 310.504832 132.664196 310.172449 132.996579 
C 309.840066 133.328962 309.653309 133.779833 309.653309 134.249893 
C 309.653309 134.719953 309.840066 135.170825 310.172449 135.503207 
C 310.504832 135.83559 310.955703 136.022347 311.425763 136.022347 
z
" clip-path="url(#p8550c324e5)" style="fill: #4ab668; stroke: #4ab668; stroke-width: 0.886227"/>
    <path d="M 311.425763 135.187844 
C 311.895823 135.187844 312.346694 135.001087 312.679077 134.668704 
C 313.01146 134.336322 313.198217 133.885451 313.198217 133.41539 
C 313.198217 132.94533 313.01146 132.494459 312.679077 132.162076 
C 312.346694 131.829693 311.895823 131.642936 311.425763 131.642936 
C 310.955703 131.642936 310.504832 131.829693 310.172449 132.162076 
C 309.840066 132.494459 309.653309 132.94533 309.653309 133.41539 
C 309.653309 133.885451 309.840066 134.336322 310.172449 134.668704 
C 310.504832 135.001087 310.955703 135.187844 311.425763 135.187844 
z
" clip-path="url(#p8550c324e5)" style="fill: #0091cc; stroke: #0091cc; stroke-width: 0.886227"/>
    <path d="M 330.750438 122.487198 
C 331.220499 122.487198 331.67137 122.300442 332.003752 121.968059 
C 332.336135 121.635676 332.522892 121.184805 332.522892 120.714745 
C 332.522892 120.244684 332.336135 119.793813 332.003752 119.461431 
C 331.67137 119.129048 331.220499 118.942291 330.750438 118.942291 
C 330.280378 118.942291 329.829507 119.129048 329.497124 119.461431 
C 329.164741 119.793813 328.977984 120.244684 328.977984 120.714745 
C 328.977984 121.184805 329.164741 121.635676 329.497124 121.968059 
C 329.829507 122.300442 330.280378 122.487198 330.750438 122.487198 
z
" clip-path="url(#p8550c324e5)" style="fill: #4ab668; stroke: #4ab668; stroke-width: 0.886227"/>
    <path d="M 330.750438 127.317617 
C 331.220499 127.317617 331.67137 127.13086 332.003752 126.798477 
C 332.336135 126.466094 332.522892 126.015223 332.522892 125.545163 
C 332.522892 125.075102 332.336135 124.624231 332.003752 124.291849 
C 331.67137 123.959466 331.220499 123.772709 330.750438 123.772709 
C 330.280378 123.772709 329.829507 123.959466 329.497124 124.291849 
C 329.164741 124.624231 328.977984 125.075102 328.977984 125.545163 
C 328.977984 126.015223 329.164741 126.466094 329.497124 126.798477 
C 329.829507 127.13086 330.280378 127.317617 330.750438 127.317617 
z
" clip-path="url(#p8550c324e5)" style="fill: #0091cc; stroke: #0091cc; stroke-width: 0.886227"/>
    <path d="M 350.075114 121.389142 
C 350.545174 121.389142 350.996045 121.202385 351.328428 120.870002 
C 351.660811 120.537619 351.847567 120.086748 351.847567 119.616688 
C 351.847567 119.146628 351.660811 118.695757 351.328428 118.363374 
C 350.996045 118.030991 350.545174 117.844234 350.075114 117.844234 
C 349.605053 117.844234 349.154182 118.030991 348.821799 118.363374 
C 348.489417 118.695757 348.30266 119.146628 348.30266 119.616688 
C 348.30266 120.086748 348.489417 120.537619 348.821799 120.870002 
C 349.154182 121.202385 349.605053 121.389142 350.075114 121.389142 
z
" clip-path="url(#p8550c324e5)" style="fill: #4ab668; stroke: #4ab668; stroke-width: 0.886227"/>
    <path d="M 350.075114 122.013895 
C 350.545174 122.013895 350.996045 121.827139 351.328428 121.494756 
C 351.660811 121.162373 351.847567 120.711502 351.847567 120.241442 
C 351.847567 119.771381 351.660811 119.32051 351.328428 118.988127 
C 350.996045 118.655745 350.545174 118.468988 350.075114 118.468988 
C 349.605053 118.468988 349.154182 118.655745 348.821799 118.988127 
C 348.489417 119.32051 348.30266 119.771381 348.30266 120.241442 
C 348.30266 120.711502 348.489417 121.162373 348.821799 121.494756 
C 349.154182 121.827139 349.605053 122.013895 350.075114 122.013895 
z
" clip-path="url(#p8550c324e5)" style="fill: #0091cc; stroke: #0091cc; stroke-width: 0.886227"/>
    <path d="M 369.399789 124.372761 
C 369.869849 124.372761 370.32072 124.186004 370.653103 123.853621 
C 370.985486 123.521238 371.172243 123.070367 371.172243 122.600307 
C 371.172243 122.130247 370.985486 121.679375 370.653103 121.346993 
C 370.32072 121.01461 369.869849 120.827853 369.399789 120.827853 
C 368.929729 120.827853 368.478858 121.01461 368.146475 121.346993 
C 367.814092 121.679375 367.627335 122.130247 367.627335 122.600307 
C 367.627335 123.070367 367.814092 123.521238 368.146475 123.853621 
C 368.478858 124.186004 368.929729 124.372761 369.399789 124.372761 
z
" clip-path="url(#p8550c324e5)" style="fill: #4ab668; stroke: #4ab668; stroke-width: 0.886227"/>
    <path d="M 369.399789 124.165506 
C 369.869849 124.165506 370.32072 123.978749 370.653103 123.646366 
C 370.985486 123.313983 371.172243 122.863112 371.172243 122.393052 
C 371.172243 121.922991 370.985486 121.47212 370.653103 121.139738 
C 370.32072 120.807355 369.869849 120.620598 369.399789 120.620598 
C 368.929729 120.620598 368.478858 120.807355 368.146475 121.139738 
C 367.814092 121.47212 367.627335 121.922991 367.627335 122.393052 
C 367.627335 122.863112 367.814092 123.313983 368.146475 123.646366 
C 368.478858 123.978749 368.929729 124.165506 369.399789 124.165506 
z
" clip-path="url(#p8550c324e5)" style="fill: #0091cc; stroke: #0091cc; stroke-width: 0.886227"/>
    <path d="M 388.724464 129.203118 
C 389.194525 129.203118 389.645396 129.016361 389.977778 128.683979 
C 390.310161 128.351596 390.496918 127.900725 390.496918 127.430664 
C 390.496918 126.960604 390.310161 126.509733 389.977778 126.17735 
C 389.645396 125.844968 389.194525 125.658211 388.724464 125.658211 
C 388.254404 125.658211 387.803533 125.844968 387.47115 126.17735 
C 387.138767 126.509733 386.95201 126.960604 386.95201 127.430664 
C 386.95201 127.900725 387.138767 128.351596 387.47115 128.683979 
C 387.803533 129.016361 388.254404 129.203118 388.724464 129.203118 
z
" clip-path="url(#p8550c324e5)" style="fill: #4ab668; stroke: #4ab668; stroke-width: 0.886227"/>
    <path d="M 388.724464 127.669338 
C 389.194525 127.669338 389.645396 127.482581 389.977778 127.150198 
C 390.310161 126.817815 390.496918 126.366944 390.496918 125.896884 
C 390.496918 125.426823 390.310161 124.975952 389.977778 124.64357 
C 389.645396 124.311187 389.194525 124.12443 388.724464 124.12443 
C 388.254404 124.12443 387.803533 124.311187 387.47115 124.64357 
C 387.138767 124.975952 386.95201 125.426823 386.95201 125.896884 
C 386.95201 126.366944 387.138767 126.817815 387.47115 127.150198 
C 387.803533 127.482581 388.254404 127.669338 388.724464 127.669338 
z
" clip-path="url(#p8550c324e5)" style="fill: #0091cc; stroke: #0091cc; stroke-width: 0.886227"/>
    <path d="M 408.04914 126.389778 
C 408.5192 126.389778 408.970071 126.203021 409.302454 125.870638 
C 409.634837 125.538256 409.821593 125.087385 409.821593 124.617324 
C 409.821593 124.147264 409.634837 123.696393 409.302454 123.36401 
C 408.970071 123.031627 408.5192 122.84487 408.04914 122.84487 
C 407.579079 122.84487 407.128208 123.031627 406.795825 123.36401 
C 406.463443 123.696393 406.276686 124.147264 406.276686 124.617324 
C 406.276686 125.087385 406.463443 125.538256 406.795825 125.870638 
C 407.128208 126.203021 407.579079 126.389778 408.04914 126.389778 
z
" clip-path="url(#p8550c324e5)" style="fill: #4ab668; stroke: #4ab668; stroke-width: 0.886227"/>
    <path d="M 408.04914 130.861131 
C 408.5192 130.861131 408.970071 130.674374 409.302454 130.341991 
C 409.634837 130.009608 409.821593 129.558737 409.821593 129.088677 
C 409.821593 128.618617 409.634837 128.167746 409.302454 127.835363 
C 408.970071 127.50298 408.5192 127.316223 408.04914 127.316223 
C 407.579079 127.316223 407.128208 127.50298 406.795825 127.835363 
C 406.463443 128.167746 406.276686 128.618617 406.276686 129.088677 
C 406.276686 129.558737 406.463443 130.009608 406.795825 130.341991 
C 407.128208 130.674374 407.579079 130.861131 408.04914 130.861131 
z
" clip-path="url(#p8550c324e5)" style="fill: #0091cc; stroke: #0091cc; stroke-width: 0.886227"/>
    <path d="M 427.373815 133.473664 
C 427.843875 133.473664 428.294746 133.286907 428.627129 132.954525 
C 428.959512 132.622142 429.146269 132.171271 429.146269 131.70121 
C 429.146269 131.23115 428.959512 130.780279 428.627129 130.447896 
C 428.294746 130.115513 427.843875 129.928757 427.373815 129.928757 
C 426.903755 129.928757 426.452884 130.115513 426.120501 130.447896 
C 425.788118 130.780279 425.601361 131.23115 425.601361 131.70121 
C 425.601361 132.171271 425.788118 132.622142 426.120501 132.954525 
C 426.452884 133.286907 426.903755 133.473664 427.373815 133.473664 
z
" clip-path="url(#p8550c324e5)" style="fill: #4ab668; stroke: #4ab668; stroke-width: 0.886227"/>
    <path d="M 427.373815 131.465266 
C 427.843875 131.465266 428.294746 131.278509 428.627129 130.946126 
C 428.959512 130.613744 429.146269 130.162873 429.146269 129.692812 
C 429.146269 129.222752 428.959512 128.771881 428.627129 128.439498 
C 428.294746 128.107115 427.843875 127.920358 427.373815 127.920358 
C 426.903755 127.920358 426.452884 128.107115 426.120501 128.439498 
C 425.788118 128.771881 425.601361 129.222752 425.601361 129.692812 
C 425.601361 130.162873 425.788118 130.613744 426.120501 130.946126 
C 426.452884 131.278509 426.903755 131.465266 427.373815 131.465266 
z
" clip-path="url(#p8550c324e5)" style="fill: #0091cc; stroke: #0091cc; stroke-width: 0.886227"/>
    <path d="M 446.69849 111.984426 
C 447.168551 111.984426 447.619422 111.797669 447.951804 111.465286 
C 448.284187 111.132903 448.470944 110.682032 448.470944 110.211972 
C 448.470944 109.741912 448.284187 109.29104 447.951804 108.958658 
C 447.619422 108.626275 447.168551 108.439518 446.69849 108.439518 
C 446.22843 108.439518 445.777559 108.626275 445.445176 108.958658 
C 445.112793 109.29104 444.926036 109.741912 444.926036 110.211972 
C 444.926036 110.682032 445.112793 111.132903 445.445176 111.465286 
C 445.777559 111.797669 446.22843 111.984426 446.69849 111.984426 
z
" clip-path="url(#p8550c324e5)" style="fill: #4ab668; stroke: #4ab668; stroke-width: 0.886227"/>
    <path d="M 446.69849 110.76163 
C 447.168551 110.76163 447.619422 110.574873 447.951804 110.24249 
C 448.284187 109.910108 448.470944 109.459236 448.470944 108.989176 
C 448.470944 108.519116 448.284187 108.068245 447.951804 107.735862 
C 447.619422 107.403479 447.168551 107.216722 446.69849 107.216722 
C 446.22843 107.216722 445.777559 107.403479 445.445176 107.735862 
C 445.112793 108.068245 444.926036 108.519116 444.926036 108.989176 
C 444.926036 109.459236 445.112793 109.910108 445.445176 110.24249 
C 445.777559 110.574873 446.22843 110.76163 446.69849 110.76163 
z
" clip-path="url(#p8550c324e5)" style="fill: #0091cc; stroke: #0091cc; stroke-width: 0.886227"/>
    <path d="M 466.023166 128.547813 
C 466.493226 128.547813 466.944097 128.361056 467.27648 128.028673 
C 467.608863 127.696291 467.795619 127.24542 467.795619 126.775359 
C 467.795619 126.305299 467.608863 125.854428 467.27648 125.522045 
C 466.944097 125.189662 466.493226 125.002905 466.023166 125.002905 
C 465.553105 125.002905 465.102234 125.189662 464.769851 125.522045 
C 464.437469 125.854428 464.250712 126.305299 464.250712 126.775359 
C 464.250712 127.24542 464.437469 127.696291 464.769851 128.028673 
C 465.102234 128.361056 465.553105 128.547813 466.023166 128.547813 
z
" clip-path="url(#p8550c324e5)" style="fill: #4ab668; stroke: #4ab668; stroke-width: 0.886227"/>
    <path d="M 466.023166 130.783451 
C 466.493226 130.783451 466.944097 130.596694 467.27648 130.264311 
C 467.608863 129.931928 467.795619 129.481057 467.795619 129.010997 
C 467.795619 128.540936 467.608863 128.090065 467.27648 127.757683 
C 466.944097 127.4253 466.493226 127.238543 466.023166 127.238543 
C 465.553105 127.238543 465.102234 127.4253 464.769851 127.757683 
C 464.437469 128.090065 464.250712 128.540936 464.250712 129.010997 
C 464.250712 129.481057 464.437469 129.931928 464.769851 130.264311 
C 465.102234 130.596694 465.553105 130.783451 466.023166 130.783451 
z
" clip-path="url(#p8550c324e5)" style="fill: #0091cc; stroke: #0091cc; stroke-width: 0.886227"/>
    <path d="M 485.347841 139.945959 
C 485.817901 139.945959 486.268772 139.759202 486.601155 139.426819 
C 486.933538 139.094436 487.120295 138.643565 487.120295 138.173505 
C 487.120295 137.703444 486.933538 137.252573 486.601155 136.920191 
C 486.268772 136.587808 485.817901 136.401051 485.347841 136.401051 
C 484.877781 136.401051 484.42691 136.587808 484.094527 136.920191 
C 483.762144 137.252573 483.575387 137.703444 483.575387 138.173505 
C 483.575387 138.643565 483.762144 139.094436 484.094527 139.426819 
C 484.42691 139.759202 484.877781 139.945959 485.347841 139.945959 
z
" clip-path="url(#p8550c324e5)" style="fill: #4ab668; stroke: #4ab668; stroke-width: 0.886227"/>
    <path d="M 485.347841 138.110751 
C 485.817901 138.110751 486.268772 137.923994 486.601155 137.591612 
C 486.933538 137.259229 487.120295 136.808358 487.120295 136.338297 
C 487.120295 135.868237 486.933538 135.417366 486.601155 135.084983 
C 486.268772 134.752601 485.817901 134.565844 485.347841 134.565844 
C 484.877781 134.565844 484.42691 134.752601 484.094527 135.084983 
C 483.762144 135.417366 483.575387 135.868237 483.575387 136.338297 
C 483.575387 136.808358 483.762144 137.259229 484.094527 137.591612 
C 484.42691 137.923994 484.877781 138.110751 485.347841 138.110751 
z
" clip-path="url(#p8550c324e5)" style="fill: #0091cc; stroke: #0091cc; stroke-width: 0.886227"/>
   </g>
   <g id="line2d_11">
    <path d="M 79.529659 145.238866 
L 98.854334 177.765412 
L 118.17901 139.198541 
L 137.503685 167.780648 
L 156.82836 165.943651 
L 176.153036 155.278059 
L 195.477711 146.953956 
L 214.802386 126.040998 
L 234.127062 131.515917 
L 253.451737 124.036907 
L 272.776412 128.190495 
L 292.101088 138.809571 
L 311.425763 134.249893 
L 330.750438 120.714745 
L 350.075114 119.616688 
L 369.399789 122.600307 
L 388.724464 127.430664 
L 408.04914 124.617324 
L 427.373815 131.70121 
L 446.69849 110.211972 
L 466.023166 126.775359 
L 485.347841 138.173505 
" clip-path="url(#p8550c324e5)" style="fill: none; stroke: #4ab668; stroke-width: 0.886227"/>
   </g>
   <g id="line2d_12">
    <path d="M 79.529659 139.525506 
L 98.854334 172.620381 
L 118.17901 129.569362 
L 137.503685 162.337354 
L 156.82836 158.437707 
L 176.153036 150.180564 
L 195.477711 145.147544 
L 214.802386 125.56678 
L 234.127062 135.192685 
L 253.451737 122.672385 
L 272.776412 123.451328 
L 292.101088 138.272248 
L 311.425763 133.41539 
L 330.750438 125.545163 
L 350.075114 120.241442 
L 369.399789 122.393052 
L 388.724464 125.896884 
L 408.04914 129.088677 
L 427.373815 129.692812 
L 446.69849 108.989176 
L 466.023166 129.010997 
L 485.347841 136.338297 
" clip-path="url(#p8550c324e5)" style="fill: none; stroke: #0091cc; stroke-width: 0.886227"/>
   </g>
   <g id="patch_3">
    <path d="M 59.23875 228.96 
L 59.23875 7.2 
" style="fill: none; stroke: #000000; stroke-linejoin: miter; stroke-linecap: square"/>
   </g>
   <g id="patch_4">
    <path d="M 59.23875 228.96 
L 505.63875 228.96 
" style="fill: none; stroke: #000000; stroke-linejoin: miter; stroke-linecap: square"/>
   </g>
   <g id="LineCollection_1">
    <path d="M 59.23875 118.08 
L 505.63875 118.08 
" clip-path="url(#p8550c324e5)" style="fill: none; stroke-dasharray: 3.27904,1.417963; stroke-dashoffset: 0; stroke: #808080; stroke-width: 0.886227"/>
   </g>
   <g id="patch_5">
    <path d="M 209.57375 226.854687 
L 513.70375 226.854687 
L 513.70375 150.425312 
L 209.57375 150.425312 
z
" style="fill: #ffffff"/>
   </g>
   <g id="text_13">
    <!-- Journal metric -->
    <g transform="translate(221.97375 177.32625)scale(0.14 -0.14)">
     <defs>
      <path id="DejaVuSans-4a" d="M 628 4666 
L 1259 4666 
L 1259 325 
Q 1259 -519 939 -900 
Q 619 -1281 -91 -1281 
L -331 -1281 
L -331 -750 
L -134 -750 
Q 284 -750 456 -515 
Q 628 -281 628 325 
L 628 4666 
z
" transform="scale(0.015625)"/>
      <path id="DejaVuSans-75" d="M 544 1381 
L 544 3500 
L 1119 3500 
L 1119 1403 
Q 1119 906 1312 657 
Q 1506 409 1894 409 
Q 2359 409 2629 706 
Q 2900 1003 2900 1516 
L 2900 3500 
L 3475 3500 
L 3475 0 
L 2900 0 
L 2900 538 
Q 2691 219 2414 64 
Q 2138 -91 1772 -91 
Q 1169 -91 856 284 
Q 544 659 544 1381 
z
M 1991 3584 
L 1991 3584 
z
" transform="scale(0.015625)"/>
     </defs>
     <use xlink:href="#DejaVuSans-4a"/>
     <use xlink:href="#DejaVuSans-6f" x="29.492188"/>
     <use xlink:href="#DejaVuSans-75" x="90.673828"/>
     <use xlink:href="#DejaVuSans-72" x="154.052734"/>
     <use xlink:href="#DejaVuSans-6e" x="193.416016"/>
     <use xlink:href="#DejaVuSans-61" x="256.794922"/>
     <use xlink:href="#DejaVuSans-6c" x="318.074219"/>
     <use xlink:href="#DejaVuSans-20" x="345.857422"/>
     <use xlink:href="#DejaVuSans-6d" x="377.644531"/>
     <use xlink:href="#DejaVuSans-65" x="475.056641"/>
     <use xlink:href="#DejaVuSans-74" x="536.580078"/>
     <use xlink:href="#DejaVuSans-72" x="575.789062"/>
     <use xlink:href="#DejaVuSans-69" x="616.902344"/>
     <use xlink:href="#DejaVuSans-63" x="644.685547"/>
    </g>
   </g>
   <g id="patch_6">
    <path d="M 221.97375 196.614687 
L 237.81375 196.614687 
L 237.81375 180.774687 
L 221.97375 180.774687 
L 221.97375 196.614687 
z
" clip-path="url(#pe3a54c30f2)" style="fill: none"/>
   </g>
   <g id="line2d_13">
    <path d="M 229.89375 188.694687 
" clip-path="url(#pe3a54c30f2)" style="fill: none; stroke: #4c72b0; stroke-width: 1.5; stroke-linecap: square"/>
    <defs>
     <path id="m818fa5169a" d="M 0 1.772454 
C 0.47006 1.772454 0.920931 1.585697 1.253314 1.253314 
C 1.585697 0.920931 1.772454 0.47006 1.772454 0 
C 1.772454 -0.47006 1.585697 -0.920931 1.253314 -1.253314 
C 0.920931 -1.585697 0.47006 -1.772454 0 -1.772454 
C -0.47006 -1.772454 -0.920931 -1.585697 -1.253314 -1.253314 
C -1.585697 -0.920931 -1.772454 -0.47006 -1.772454 0 
C -1.772454 0.47006 -1.585697 0.920931 -1.253314 1.253314 
C -0.920931 1.585697 -0.47006 1.772454 0 1.772454 
z
" style="stroke: #4ab668; stroke-width: 0.886227"/>
    </defs>
    <g clip-path="url(#pe3a54c30f2)">
     <use xlink:href="#m818fa5169a" x="229.89375" y="188.694687" style="fill: #4ab668; stroke: #4ab668; stroke-width: 0.886227"/>
    </g>
   </g>
   <g id="line2d_14">
    <path d="M 221.97375 188.694687 
L 237.81375 188.694687 
" clip-path="url(#pe3a54c30f2)" style="fill: none; stroke: #4ab668; stroke-width: 0.886227"/>
   </g>
   <g id="text_14">
    <!-- Impact Per Publication (IPP) -->
    <g transform="translate(240.81375 192.005937)scale(0.12 -0.12)">
     <defs>
      <path id="DejaVuSans-49" d="M 628 4666 
L 1259 4666 
L 1259 0 
L 628 0 
L 628 4666 
z
" transform="scale(0.015625)"/>
      <path id="DejaVuSans-50" d="M 1259 4147 
L 1259 2394 
L 2053 2394 
Q 2494 2394 2734 2622 
Q 2975 2850 2975 3272 
Q 2975 3691 2734 3919 
Q 2494 4147 2053 4147 
L 1259 4147 
z
M 628 4666 
L 2053 4666 
Q 2838 4666 3239 4311 
Q 3641 3956 3641 3272 
Q 3641 2581 3239 2228 
Q 2838 1875 2053 1875 
L 1259 1875 
L 1259 0 
L 628 0 
L 628 4666 
z
" transform="scale(0.015625)"/>
      <path id="DejaVuSans-62" d="M 3116 1747 
Q 3116 2381 2855 2742 
Q 2594 3103 2138 3103 
Q 1681 3103 1420 2742 
Q 1159 2381 1159 1747 
Q 1159 1113 1420 752 
Q 1681 391 2138 391 
Q 2594 391 2855 752 
Q 3116 1113 3116 1747 
z
M 1159 2969 
Q 1341 3281 1617 3432 
Q 1894 3584 2278 3584 
Q 2916 3584 3314 3078 
Q 3713 2572 3713 1747 
Q 3713 922 3314 415 
Q 2916 -91 2278 -91 
Q 1894 -91 1617 61 
Q 1341 213 1159 525 
L 1159 0 
L 581 0 
L 581 4863 
L 1159 4863 
L 1159 2969 
z
" transform="scale(0.015625)"/>
      <path id="DejaVuSans-28" d="M 1984 4856 
Q 1566 4138 1362 3434 
Q 1159 2731 1159 2009 
Q 1159 1288 1364 580 
Q 1569 -128 1984 -844 
L 1484 -844 
Q 1016 -109 783 600 
Q 550 1309 550 2009 
Q 550 2706 781 3412 
Q 1013 4119 1484 4856 
L 1984 4856 
z
" transform="scale(0.015625)"/>
      <path id="DejaVuSans-29" d="M 513 4856 
L 1013 4856 
Q 1481 4119 1714 3412 
Q 1947 2706 1947 2009 
Q 1947 1309 1714 600 
Q 1481 -109 1013 -844 
L 513 -844 
Q 928 -128 1133 580 
Q 1338 1288 1338 2009 
Q 1338 2731 1133 3434 
Q 928 4138 513 4856 
z
" transform="scale(0.015625)"/>
     </defs>
     <use xlink:href="#DejaVuSans-49"/>
     <use xlink:href="#DejaVuSans-6d" x="29.492188"/>
     <use xlink:href="#DejaVuSans-70" x="126.904297"/>
     <use xlink:href="#DejaVuSans-61" x="190.380859"/>
     <use xlink:href="#DejaVuSans-63" x="251.660156"/>
     <use xlink:href="#DejaVuSans-74" x="306.640625"/>
     <use xlink:href="#DejaVuSans-20" x="345.849609"/>
     <use xlink:href="#DejaVuSans-50" x="377.636719"/>
     <use xlink:href="#DejaVuSans-65" x="434.314453"/>
     <use xlink:href="#DejaVuSans-72" x="495.837891"/>
     <use xlink:href="#DejaVuSans-20" x="536.951172"/>
     <use xlink:href="#DejaVuSans-50" x="568.738281"/>
     <use xlink:href="#DejaVuSans-75" x="627.291016"/>
     <use xlink:href="#DejaVuSans-62" x="690.669922"/>
     <use xlink:href="#DejaVuSans-6c" x="754.146484"/>
     <use xlink:href="#DejaVuSans-69" x="781.929688"/>
     <use xlink:href="#DejaVuSans-63" x="809.712891"/>
     <use xlink:href="#DejaVuSans-61" x="864.693359"/>
     <use xlink:href="#DejaVuSans-74" x="925.972656"/>
     <use xlink:href="#DejaVuSans-69" x="965.181641"/>
     <use xlink:href="#DejaVuSans-6f" x="992.964844"/>
     <use xlink:href="#DejaVuSans-6e" x="1054.146484"/>
     <use xlink:href="#DejaVuSans-20" x="1117.525391"/>
     <use xlink:href="#DejaVuSans-28" x="1149.3125"/>
     <use xlink:href="#DejaVuSans-49" x="1188.326172"/>
     <use xlink:href="#DejaVuSans-50" x="1217.818359"/>
     <use xlink:href="#DejaVuSans-50" x="1278.121094"/>
     <use xlink:href="#DejaVuSans-29" x="1338.423828"/>
    </g>
   </g>
   <g id="patch_7">
    <path d="M 221.97375 214.454687 
L 237.81375 214.454687 
L 237.81375 198.614687 
L 221.97375 198.614687 
L 221.97375 214.454687 
z
" clip-path="url(#pb1e932ba9f)" style="fill: none"/>
   </g>
   <g id="line2d_15">
    <path d="M 229.89375 206.534687 
" clip-path="url(#pb1e932ba9f)" style="fill: none; stroke: #4c72b0; stroke-width: 1.5; stroke-linecap: square"/>
    <defs>
     <path id="me538155a02" d="M 0 1.772454 
C 0.47006 1.772454 0.920931 1.585697 1.253314 1.253314 
C 1.585697 0.920931 1.772454 0.47006 1.772454 0 
C 1.772454 -0.47006 1.585697 -0.920931 1.253314 -1.253314 
C 0.920931 -1.585697 0.47006 -1.772454 0 -1.772454 
C -0.47006 -1.772454 -0.920931 -1.585697 -1.253314 -1.253314 
C -1.585697 -0.920931 -1.772454 -0.47006 -1.772454 0 
C -1.772454 0.47006 -1.585697 0.920931 -1.253314 1.253314 
C -0.920931 1.585697 -0.47006 1.772454 0 1.772454 
z
" style="stroke: #0091cc; stroke-width: 0.886227"/>
    </defs>
    <g clip-path="url(#pb1e932ba9f)">
     <use xlink:href="#me538155a02" x="229.89375" y="206.534687" style="fill: #0091cc; stroke: #0091cc; stroke-width: 0.886227"/>
    </g>
   </g>
   <g id="line2d_16">
    <path d="M 221.97375 206.534687 
L 237.81375 206.534687 
" clip-path="url(#pb1e932ba9f)" style="fill: none; stroke: #0091cc; stroke-width: 0.886227"/>
   </g>
   <g id="text_15">
    <!-- Source Normalized Impact per Paper (SNIP) -->
    <g transform="translate(240.81375 209.845937)scale(0.12 -0.12)">
     <defs>
      <path id="DejaVuSans-4e" d="M 628 4666 
L 1478 4666 
L 3547 763 
L 3547 4666 
L 4159 4666 
L 4159 0 
L 3309 0 
L 1241 3903 
L 1241 0 
L 628 0 
L 628 4666 
z
" transform="scale(0.015625)"/>
      <path id="DejaVuSans-7a" d="M 353 3500 
L 3084 3500 
L 3084 2975 
L 922 459 
L 3084 459 
L 3084 0 
L 275 0 
L 275 525 
L 2438 3041 
L 353 3041 
L 353 3500 
z
" transform="scale(0.015625)"/>
      <path id="DejaVuSans-64" d="M 2906 2969 
L 2906 4863 
L 3481 4863 
L 3481 0 
L 2906 0 
L 2906 525 
Q 2725 213 2448 61 
Q 2172 -91 1784 -91 
Q 1150 -91 751 415 
Q 353 922 353 1747 
Q 353 2572 751 3078 
Q 1150 3584 1784 3584 
Q 2172 3584 2448 3432 
Q 2725 3281 2906 2969 
z
M 947 1747 
Q 947 1113 1208 752 
Q 1469 391 1925 391 
Q 2381 391 2643 752 
Q 2906 1113 2906 1747 
Q 2906 2381 2643 2742 
Q 2381 3103 1925 3103 
Q 1469 3103 1208 2742 
Q 947 2381 947 1747 
z
" transform="scale(0.015625)"/>
     </defs>
     <use xlink:href="#DejaVuSans-53"/>
     <use xlink:href="#DejaVuSans-6f" x="63.476562"/>
     <use xlink:href="#DejaVuSans-75" x="124.658203"/>
     <use xlink:href="#DejaVuSans-72" x="188.037109"/>
     <use xlink:href="#DejaVuSans-63" x="226.900391"/>
     <use xlink:href="#DejaVuSans-65" x="281.880859"/>
     <use xlink:href="#DejaVuSans-20" x="343.404297"/>
     <use xlink:href="#DejaVuSans-4e" x="375.191406"/>
     <use xlink:href="#DejaVuSans-6f" x="449.996094"/>
     <use xlink:href="#DejaVuSans-72" x="511.177734"/>
     <use xlink:href="#DejaVuSans-6d" x="550.541016"/>
     <use xlink:href="#DejaVuSans-61" x="647.953125"/>
     <use xlink:href="#DejaVuSans-6c" x="709.232422"/>
     <use xlink:href="#DejaVuSans-69" x="737.015625"/>
     <use xlink:href="#DejaVuSans-7a" x="764.798828"/>
     <use xlink:href="#DejaVuSans-65" x="817.289062"/>
     <use xlink:href="#DejaVuSans-64" x="878.8125"/>
     <use xlink:href="#DejaVuSans-20" x="942.289062"/>
     <use xlink:href="#DejaVuSans-49" x="974.076172"/>
     <use xlink:href="#DejaVuSans-6d" x="1003.568359"/>
     <use xlink:href="#DejaVuSans-70" x="1100.980469"/>
     <use xlink:href="#DejaVuSans-61" x="1164.457031"/>
     <use xlink:href="#DejaVuSans-63" x="1225.736328"/>
     <use xlink:href="#DejaVuSans-74" x="1280.716797"/>
     <use xlink:href="#DejaVuSans-20" x="1319.925781"/>
     <use xlink:href="#DejaVuSans-70" x="1351.712891"/>
     <use xlink:href="#DejaVuSans-65" x="1415.189453"/>
     <use xlink:href="#DejaVuSans-72" x="1476.712891"/>
     <use xlink:href="#DejaVuSans-20" x="1517.826172"/>
     <use xlink:href="#DejaVuSans-50" x="1549.613281"/>
     <use xlink:href="#DejaVuSans-61" x="1605.416016"/>
     <use xlink:href="#DejaVuSans-70" x="1666.695312"/>
     <use xlink:href="#DejaVuSans-65" x="1730.171875"/>
     <use xlink:href="#DejaVuSans-72" x="1791.695312"/>
     <use xlink:href="#DejaVuSans-20" x="1832.808594"/>
     <use xlink:href="#DejaVuSans-28" x="1864.595703"/>
     <use xlink:href="#DejaVuSans-53" x="1903.609375"/>
     <use xlink:href="#DejaVuSans-4e" x="1967.085938"/>
     <use xlink:href="#DejaVuSans-49" x="2041.890625"/>
     <use xlink:href="#DejaVuSans-50" x="2071.382812"/>
     <use xlink:href="#DejaVuSans-29" x="2131.685547"/>
    </g>
   </g>
  </g>
 </g>
 <defs>
  <clipPath id="p8550c324e5">
   <rect x="59.23875" y="7.2" width="446.4" height="221.76"/>
  </clipPath>
  <clipPath id="pe3a54c30f2">
   <path d="M 221.97375 196.614687 
L 221.97375 180.774687 
L 237.81375 180.774687 
L 237.81375 196.614687 
"/>
  </clipPath>
  <clipPath id="pb1e932ba9f">
   <path d="M 221.97375 214.454687 
L 221.97375 198.614687 
L 237.81375 198.614687 
L 237.81375 214.454687 
"/>
  </clipPath>
 </defs>
</svg>
