<?xml version="1.0" encoding="utf-8" standalone="no"?>
<!DOCTYPE svg PUBLIC "-//W3C//DTD SVG 1.1//EN"
  "http://www.w3.org/Graphics/SVG/1.1/DTD/svg11.dtd">
<!-- Created with matplotlib (https://matplotlib.org/) -->
<svg height="264.672687pt" version="1.1" viewBox="0 0 498.167 264.672687" width="498.167pt" xmlns="http://www.w3.org/2000/svg" xmlns:xlink="http://www.w3.org/1999/xlink">
 <defs>
  <style type="text/css">
*{stroke-linecap:butt;stroke-linejoin:round;}
  </style>
 </defs>
 <g id="figure_1">
  <g id="patch_1">
   <path d="M 0 264.672687 
L 498.167 264.672687 
L 498.167 0 
L 0 0 
z
" style="fill:#ffffff;stroke:#ffffff;stroke-linejoin:miter;"/>
  </g>
  <g id="axes_1">
   <g id="patch_2">
    <path d="M 44.567 228.96 
L 490.967 228.96 
L 490.967 7.2 
L 44.567 7.2 
z
" style="fill:#ffffff;stroke:#7f7f7f;stroke-linejoin:miter;"/>
   </g>
   <g id="matplotlib.axis_1">
    <g id="xtick_1">
     <g id="line2d_1">
      <path clip-path="url(#pac0743285e)" d="M 64.857909 228.96 
L 64.857909 7.2 
" style="fill:none;stroke:#e5e5e5;stroke-width:0.8;"/>
     </g>
     <g id="line2d_2">
      <path d="M 64.857909 228.96 
" style="fill:none;stroke:#000000;stroke-width:1.5;"/>
      <defs>
       <path d="M 0 0 
L 0 2.75 
" id="m6bfe3fd122" style="stroke:#000000;"/>
      </defs>
      <g>
       <use style="stroke:#000000;" x="64.857909" xlink:href="#m6bfe3fd122" y="228.96"/>
      </g>
     </g>
     <g id="text_1">
      <!-- 1970 -->
      <defs>
       <path d="M 12.40625 8.296875 
L 28.515625 8.296875 
L 28.515625 63.921875 
L 10.984375 60.40625 
L 10.984375 69.390625 
L 28.421875 72.90625 
L 38.28125 72.90625 
L 38.28125 8.296875 
L 54.390625 8.296875 
L 54.390625 0 
L 12.40625 0 
z
" id="DejaVuSans-49"/>
       <path d="M 10.984375 1.515625 
L 10.984375 10.5 
Q 14.703125 8.734375 18.5 7.8125 
Q 22.3125 6.890625 25.984375 6.890625 
Q 35.75 6.890625 40.890625 13.453125 
Q 46.046875 20.015625 46.78125 33.40625 
Q 43.953125 29.203125 39.59375 26.953125 
Q 35.25 24.703125 29.984375 24.703125 
Q 19.046875 24.703125 12.671875 31.3125 
Q 6.296875 37.9375 6.296875 49.421875 
Q 6.296875 60.640625 12.9375 67.421875 
Q 19.578125 74.21875 30.609375 74.21875 
Q 43.265625 74.21875 49.921875 64.515625 
Q 56.59375 54.828125 56.59375 36.375 
Q 56.59375 19.140625 48.40625 8.859375 
Q 40.234375 -1.421875 26.421875 -1.421875 
Q 22.703125 -1.421875 18.890625 -0.6875 
Q 15.09375 0.046875 10.984375 1.515625 
z
M 30.609375 32.421875 
Q 37.25 32.421875 41.125 36.953125 
Q 45.015625 41.5 45.015625 49.421875 
Q 45.015625 57.28125 41.125 61.84375 
Q 37.25 66.40625 30.609375 66.40625 
Q 23.96875 66.40625 20.09375 61.84375 
Q 16.21875 57.28125 16.21875 49.421875 
Q 16.21875 41.5 20.09375 36.953125 
Q 23.96875 32.421875 30.609375 32.421875 
z
" id="DejaVuSans-57"/>
       <path d="M 8.203125 72.90625 
L 55.078125 72.90625 
L 55.078125 68.703125 
L 28.609375 0 
L 18.3125 0 
L 43.21875 64.59375 
L 8.203125 64.59375 
z
" id="DejaVuSans-55"/>
       <path d="M 31.78125 66.40625 
Q 24.171875 66.40625 20.328125 58.90625 
Q 16.5 51.421875 16.5 36.375 
Q 16.5 21.390625 20.328125 13.890625 
Q 24.171875 6.390625 31.78125 6.390625 
Q 39.453125 6.390625 43.28125 13.890625 
Q 47.125 21.390625 47.125 36.375 
Q 47.125 51.421875 43.28125 58.90625 
Q 39.453125 66.40625 31.78125 66.40625 
z
M 31.78125 74.21875 
Q 44.046875 74.21875 50.515625 64.515625 
Q 56.984375 54.828125 56.984375 36.375 
Q 56.984375 17.96875 50.515625 8.265625 
Q 44.046875 -1.421875 31.78125 -1.421875 
Q 19.53125 -1.421875 13.0625 8.265625 
Q 6.59375 17.96875 6.59375 36.375 
Q 6.59375 54.828125 13.0625 64.515625 
Q 19.53125 74.21875 31.78125 74.21875 
z
" id="DejaVuSans-48"/>
      </defs>
      <g transform="translate(53.659909 240.596625)scale(0.088 -0.088)">
       <use xlink:href="#DejaVuSans-49"/>
       <use x="63.623047" xlink:href="#DejaVuSans-57"/>
       <use x="127.246094" xlink:href="#DejaVuSans-55"/>
       <use x="190.869141" xlink:href="#DejaVuSans-48"/>
      </g>
     </g>
    </g>
    <g id="xtick_2">
     <g id="line2d_3">
      <path clip-path="url(#pac0743285e)" d="M 146.021545 228.96 
L 146.021545 7.2 
" style="fill:none;stroke:#e5e5e5;stroke-width:0.8;"/>
     </g>
     <g id="line2d_4">
      <path d="M 146.021545 228.96 
" style="fill:none;stroke:#000000;stroke-width:1.5;"/>
      <g>
       <use style="stroke:#000000;" x="146.021545" xlink:href="#m6bfe3fd122" y="228.96"/>
      </g>
     </g>
     <g id="text_2">
      <!-- 1980 -->
      <defs>
       <path d="M 31.78125 34.625 
Q 24.75 34.625 20.71875 30.859375 
Q 16.703125 27.09375 16.703125 20.515625 
Q 16.703125 13.921875 20.71875 10.15625 
Q 24.75 6.390625 31.78125 6.390625 
Q 38.8125 6.390625 42.859375 10.171875 
Q 46.921875 13.96875 46.921875 20.515625 
Q 46.921875 27.09375 42.890625 30.859375 
Q 38.875 34.625 31.78125 34.625 
z
M 21.921875 38.8125 
Q 15.578125 40.375 12.03125 44.71875 
Q 8.5 49.078125 8.5 55.328125 
Q 8.5 64.0625 14.71875 69.140625 
Q 20.953125 74.21875 31.78125 74.21875 
Q 42.671875 74.21875 48.875 69.140625 
Q 55.078125 64.0625 55.078125 55.328125 
Q 55.078125 49.078125 51.53125 44.71875 
Q 48 40.375 41.703125 38.8125 
Q 48.828125 37.15625 52.796875 32.3125 
Q 56.78125 27.484375 56.78125 20.515625 
Q 56.78125 9.90625 50.3125 4.234375 
Q 43.84375 -1.421875 31.78125 -1.421875 
Q 19.734375 -1.421875 13.25 4.234375 
Q 6.78125 9.90625 6.78125 20.515625 
Q 6.78125 27.484375 10.78125 32.3125 
Q 14.796875 37.15625 21.921875 38.8125 
z
M 18.3125 54.390625 
Q 18.3125 48.734375 21.84375 45.5625 
Q 25.390625 42.390625 31.78125 42.390625 
Q 38.140625 42.390625 41.71875 45.5625 
Q 45.3125 48.734375 45.3125 54.390625 
Q 45.3125 60.0625 41.71875 63.234375 
Q 38.140625 66.40625 31.78125 66.40625 
Q 25.390625 66.40625 21.84375 63.234375 
Q 18.3125 60.0625 18.3125 54.390625 
z
" id="DejaVuSans-56"/>
      </defs>
      <g transform="translate(134.823545 240.596625)scale(0.088 -0.088)">
       <use xlink:href="#DejaVuSans-49"/>
       <use x="63.623047" xlink:href="#DejaVuSans-57"/>
       <use x="127.246094" xlink:href="#DejaVuSans-56"/>
       <use x="190.869141" xlink:href="#DejaVuSans-48"/>
      </g>
     </g>
    </g>
    <g id="xtick_3">
     <g id="line2d_5">
      <path clip-path="url(#pac0743285e)" d="M 227.185182 228.96 
L 227.185182 7.2 
" style="fill:none;stroke:#e5e5e5;stroke-width:0.8;"/>
     </g>
     <g id="line2d_6">
      <path d="M 227.185182 228.96 
" style="fill:none;stroke:#000000;stroke-width:1.5;"/>
      <g>
       <use style="stroke:#000000;" x="227.185182" xlink:href="#m6bfe3fd122" y="228.96"/>
      </g>
     </g>
     <g id="text_3">
      <!-- 1990 -->
      <g transform="translate(215.987182 240.596625)scale(0.088 -0.088)">
       <use xlink:href="#DejaVuSans-49"/>
       <use x="63.623047" xlink:href="#DejaVuSans-57"/>
       <use x="127.246094" xlink:href="#DejaVuSans-57"/>
       <use x="190.869141" xlink:href="#DejaVuSans-48"/>
      </g>
     </g>
    </g>
    <g id="xtick_4">
     <g id="line2d_7">
      <path clip-path="url(#pac0743285e)" d="M 308.348818 228.96 
L 308.348818 7.2 
" style="fill:none;stroke:#e5e5e5;stroke-width:0.8;"/>
     </g>
     <g id="line2d_8">
      <path d="M 308.348818 228.96 
" style="fill:none;stroke:#000000;stroke-width:1.5;"/>
      <g>
       <use style="stroke:#000000;" x="308.348818" xlink:href="#m6bfe3fd122" y="228.96"/>
      </g>
     </g>
     <g id="text_4">
      <!-- 2000 -->
      <defs>
       <path d="M 19.1875 8.296875 
L 53.609375 8.296875 
L 53.609375 0 
L 7.328125 0 
L 7.328125 8.296875 
Q 12.9375 14.109375 22.625 23.890625 
Q 32.328125 33.6875 34.8125 36.53125 
Q 39.546875 41.84375 41.421875 45.53125 
Q 43.3125 49.21875 43.3125 52.78125 
Q 43.3125 58.59375 39.234375 62.25 
Q 35.15625 65.921875 28.609375 65.921875 
Q 23.96875 65.921875 18.8125 64.3125 
Q 13.671875 62.703125 7.8125 59.421875 
L 7.8125 69.390625 
Q 13.765625 71.78125 18.9375 73 
Q 24.125 74.21875 28.421875 74.21875 
Q 39.75 74.21875 46.484375 68.546875 
Q 53.21875 62.890625 53.21875 53.421875 
Q 53.21875 48.921875 51.53125 44.890625 
Q 49.859375 40.875 45.40625 35.40625 
Q 44.1875 33.984375 37.640625 27.21875 
Q 31.109375 20.453125 19.1875 8.296875 
z
" id="DejaVuSans-50"/>
      </defs>
      <g transform="translate(297.150818 240.596625)scale(0.088 -0.088)">
       <use xlink:href="#DejaVuSans-50"/>
       <use x="63.623047" xlink:href="#DejaVuSans-48"/>
       <use x="127.246094" xlink:href="#DejaVuSans-48"/>
       <use x="190.869141" xlink:href="#DejaVuSans-48"/>
      </g>
     </g>
    </g>
    <g id="xtick_5">
     <g id="line2d_9">
      <path clip-path="url(#pac0743285e)" d="M 389.512455 228.96 
L 389.512455 7.2 
" style="fill:none;stroke:#e5e5e5;stroke-width:0.8;"/>
     </g>
     <g id="line2d_10">
      <path d="M 389.512455 228.96 
" style="fill:none;stroke:#000000;stroke-width:1.5;"/>
      <g>
       <use style="stroke:#000000;" x="389.512455" xlink:href="#m6bfe3fd122" y="228.96"/>
      </g>
     </g>
     <g id="text_5">
      <!-- 2010 -->
      <g transform="translate(378.314455 240.596625)scale(0.088 -0.088)">
       <use xlink:href="#DejaVuSans-50"/>
       <use x="63.623047" xlink:href="#DejaVuSans-48"/>
       <use x="127.246094" xlink:href="#DejaVuSans-49"/>
       <use x="190.869141" xlink:href="#DejaVuSans-48"/>
      </g>
     </g>
    </g>
    <g id="xtick_6">
     <g id="line2d_11">
      <path clip-path="url(#pac0743285e)" d="M 470.676091 228.96 
L 470.676091 7.2 
" style="fill:none;stroke:#e5e5e5;stroke-width:0.8;"/>
     </g>
     <g id="line2d_12">
      <path d="M 470.676091 228.96 
" style="fill:none;stroke:#000000;stroke-width:1.5;"/>
      <g>
       <use style="stroke:#000000;" x="470.676091" xlink:href="#m6bfe3fd122" y="228.96"/>
      </g>
     </g>
     <g id="text_6">
      <!-- 2020 -->
      <g transform="translate(459.478091 240.596625)scale(0.088 -0.088)">
       <use xlink:href="#DejaVuSans-50"/>
       <use x="63.623047" xlink:href="#DejaVuSans-48"/>
       <use x="127.246094" xlink:href="#DejaVuSans-50"/>
       <use x="190.869141" xlink:href="#DejaVuSans-48"/>
      </g>
     </g>
    </g>
    <g id="xtick_7">
     <g id="line2d_13">
      <path clip-path="url(#pac0743285e)" d="M 105.439727 228.96 
L 105.439727 7.2 
" style="fill:none;stroke:#fafafa;"/>
     </g>
     <g id="line2d_14">
      <path d="M 105.439727 228.96 
" style="fill:none;stroke:#000000;stroke-width:1.5;"/>
      <defs>
       <path d="M 0 0 
L 0 1.375 
" id="mcc1b3cb2f9" style="stroke:#000000;"/>
      </defs>
      <g>
       <use style="stroke:#000000;" x="105.439727" xlink:href="#mcc1b3cb2f9" y="228.96"/>
      </g>
     </g>
    </g>
    <g id="xtick_8">
     <g id="line2d_15">
      <path clip-path="url(#pac0743285e)" d="M 186.603364 228.96 
L 186.603364 7.2 
" style="fill:none;stroke:#fafafa;"/>
     </g>
     <g id="line2d_16">
      <path d="M 186.603364 228.96 
" style="fill:none;stroke:#000000;stroke-width:1.5;"/>
      <g>
       <use style="stroke:#000000;" x="186.603364" xlink:href="#mcc1b3cb2f9" y="228.96"/>
      </g>
     </g>
    </g>
    <g id="xtick_9">
     <g id="line2d_17">
      <path clip-path="url(#pac0743285e)" d="M 267.767 228.96 
L 267.767 7.2 
" style="fill:none;stroke:#fafafa;"/>
     </g>
     <g id="line2d_18">
      <path d="M 267.767 228.96 
" style="fill:none;stroke:#000000;stroke-width:1.5;"/>
      <g>
       <use style="stroke:#000000;" x="267.767" xlink:href="#mcc1b3cb2f9" y="228.96"/>
      </g>
     </g>
    </g>
    <g id="xtick_10">
     <g id="line2d_19">
      <path clip-path="url(#pac0743285e)" d="M 348.930636 228.96 
L 348.930636 7.2 
" style="fill:none;stroke:#fafafa;"/>
     </g>
     <g id="line2d_20">
      <path d="M 348.930636 228.96 
" style="fill:none;stroke:#000000;stroke-width:1.5;"/>
      <g>
       <use style="stroke:#000000;" x="348.930636" xlink:href="#mcc1b3cb2f9" y="228.96"/>
      </g>
     </g>
    </g>
    <g id="xtick_11">
     <g id="line2d_21">
      <path clip-path="url(#pac0743285e)" d="M 430.094273 228.96 
L 430.094273 7.2 
" style="fill:none;stroke:#fafafa;"/>
     </g>
     <g id="line2d_22">
      <path d="M 430.094273 228.96 
" style="fill:none;stroke:#000000;stroke-width:1.5;"/>
      <g>
       <use style="stroke:#000000;" x="430.094273" xlink:href="#mcc1b3cb2f9" y="228.96"/>
      </g>
     </g>
    </g>
    <g id="text_7">
     <!-- Year -->
     <defs>
      <path d="M -0.203125 72.90625 
L 10.40625 72.90625 
L 30.609375 42.921875 
L 50.6875 72.90625 
L 61.28125 72.90625 
L 35.5 34.71875 
L 35.5 0 
L 25.59375 0 
L 25.59375 34.71875 
z
" id="DejaVuSans-89"/>
      <path d="M 56.203125 29.59375 
L 56.203125 25.203125 
L 14.890625 25.203125 
Q 15.484375 15.921875 20.484375 11.0625 
Q 25.484375 6.203125 34.421875 6.203125 
Q 39.59375 6.203125 44.453125 7.46875 
Q 49.3125 8.734375 54.109375 11.28125 
L 54.109375 2.78125 
Q 49.265625 0.734375 44.1875 -0.34375 
Q 39.109375 -1.421875 33.890625 -1.421875 
Q 20.796875 -1.421875 13.15625 6.1875 
Q 5.515625 13.8125 5.515625 26.8125 
Q 5.515625 40.234375 12.765625 48.109375 
Q 20.015625 56 32.328125 56 
Q 43.359375 56 49.78125 48.890625 
Q 56.203125 41.796875 56.203125 29.59375 
z
M 47.21875 32.234375 
Q 47.125 39.59375 43.09375 43.984375 
Q 39.0625 48.390625 32.421875 48.390625 
Q 24.90625 48.390625 20.390625 44.140625 
Q 15.875 39.890625 15.1875 32.171875 
z
" id="DejaVuSans-101"/>
      <path d="M 34.28125 27.484375 
Q 23.390625 27.484375 19.1875 25 
Q 14.984375 22.515625 14.984375 16.5 
Q 14.984375 11.71875 18.140625 8.90625 
Q 21.296875 6.109375 26.703125 6.109375 
Q 34.1875 6.109375 38.703125 11.40625 
Q 43.21875 16.703125 43.21875 25.484375 
L 43.21875 27.484375 
z
M 52.203125 31.203125 
L 52.203125 0 
L 43.21875 0 
L 43.21875 8.296875 
Q 40.140625 3.328125 35.546875 0.953125 
Q 30.953125 -1.421875 24.3125 -1.421875 
Q 15.921875 -1.421875 10.953125 3.296875 
Q 6 8.015625 6 15.921875 
Q 6 25.140625 12.171875 29.828125 
Q 18.359375 34.515625 30.609375 34.515625 
L 43.21875 34.515625 
L 43.21875 35.40625 
Q 43.21875 41.609375 39.140625 45 
Q 35.0625 48.390625 27.6875 48.390625 
Q 23 48.390625 18.546875 47.265625 
Q 14.109375 46.140625 10.015625 43.890625 
L 10.015625 52.203125 
Q 14.9375 54.109375 19.578125 55.046875 
Q 24.21875 56 28.609375 56 
Q 40.484375 56 46.34375 49.84375 
Q 52.203125 43.703125 52.203125 31.203125 
z
" id="DejaVuSans-97"/>
      <path d="M 41.109375 46.296875 
Q 39.59375 47.171875 37.8125 47.578125 
Q 36.03125 48 33.890625 48 
Q 26.265625 48 22.1875 43.046875 
Q 18.109375 38.09375 18.109375 28.8125 
L 18.109375 0 
L 9.078125 0 
L 9.078125 54.6875 
L 18.109375 54.6875 
L 18.109375 46.1875 
Q 20.953125 51.171875 25.484375 53.578125 
Q 30.03125 56 36.53125 56 
Q 37.453125 56 38.578125 55.875 
Q 39.703125 55.765625 41.0625 55.515625 
z
" id="DejaVuSans-114"/>
     </defs>
     <g transform="translate(248.203172 255.185031)scale(0.11 -0.11)">
      <use xlink:href="#DejaVuSans-89"/>
      <use x="60.880859" xlink:href="#DejaVuSans-101"/>
      <use x="122.404297" xlink:href="#DejaVuSans-97"/>
      <use x="183.683594" xlink:href="#DejaVuSans-114"/>
     </g>
    </g>
   </g>
   <g id="matplotlib.axis_2">
    <g id="ytick_1">
     <g id="line2d_23">
      <path clip-path="url(#pac0743285e)" d="M 44.567 218.88 
L 490.967 218.88 
" style="fill:none;stroke:#e5e5e5;stroke-width:0.8;"/>
     </g>
     <g id="line2d_24">
      <path d="M 44.567 218.88 
" style="fill:none;stroke:#000000;stroke-width:1.5;"/>
      <defs>
       <path d="M 0 0 
L -2.75 0 
" id="m6744a7b4c1" style="stroke:#000000;"/>
      </defs>
      <g>
       <use style="stroke:#000000;" x="44.567" xlink:href="#m6744a7b4c1" y="218.88"/>
      </g>
     </g>
     <g id="text_8">
      <!-- 0 -->
      <g transform="translate(34.018 221.30825)scale(0.088 -0.088)">
       <use xlink:href="#DejaVuSans-48"/>
      </g>
     </g>
    </g>
    <g id="ytick_2">
     <g id="line2d_25">
      <path clip-path="url(#pac0743285e)" d="M 44.567 168.48 
L 490.967 168.48 
" style="fill:none;stroke:#e5e5e5;stroke-width:0.8;"/>
     </g>
     <g id="line2d_26">
      <path d="M 44.567 168.48 
" style="fill:none;stroke:#000000;stroke-width:1.5;"/>
      <g>
       <use style="stroke:#000000;" x="44.567" xlink:href="#m6744a7b4c1" y="168.48"/>
      </g>
     </g>
     <g id="text_9">
      <!-- 25 -->
      <defs>
       <path d="M 10.796875 72.90625 
L 49.515625 72.90625 
L 49.515625 64.59375 
L 19.828125 64.59375 
L 19.828125 46.734375 
Q 21.96875 47.46875 24.109375 47.828125 
Q 26.265625 48.1875 28.421875 48.1875 
Q 40.625 48.1875 47.75 41.5 
Q 54.890625 34.8125 54.890625 23.390625 
Q 54.890625 11.625 47.5625 5.09375 
Q 40.234375 -1.421875 26.90625 -1.421875 
Q 22.3125 -1.421875 17.546875 -0.640625 
Q 12.796875 0.140625 7.71875 1.703125 
L 7.71875 11.625 
Q 12.109375 9.234375 16.796875 8.0625 
Q 21.484375 6.890625 26.703125 6.890625 
Q 35.15625 6.890625 40.078125 11.328125 
Q 45.015625 15.765625 45.015625 23.390625 
Q 45.015625 31 40.078125 35.4375 
Q 35.15625 39.890625 26.703125 39.890625 
Q 22.75 39.890625 18.8125 39.015625 
Q 14.890625 38.140625 10.796875 36.28125 
z
" id="DejaVuSans-53"/>
      </defs>
      <g transform="translate(28.419 170.90825)scale(0.088 -0.088)">
       <use xlink:href="#DejaVuSans-50"/>
       <use x="63.623047" xlink:href="#DejaVuSans-53"/>
      </g>
     </g>
    </g>
    <g id="ytick_3">
     <g id="line2d_27">
      <path clip-path="url(#pac0743285e)" d="M 44.567 118.08 
L 490.967 118.08 
" style="fill:none;stroke:#e5e5e5;stroke-width:0.8;"/>
     </g>
     <g id="line2d_28">
      <path d="M 44.567 118.08 
" style="fill:none;stroke:#000000;stroke-width:1.5;"/>
      <g>
       <use style="stroke:#000000;" x="44.567" xlink:href="#m6744a7b4c1" y="118.08"/>
      </g>
     </g>
     <g id="text_10">
      <!-- 50 -->
      <g transform="translate(28.419 120.50825)scale(0.088 -0.088)">
       <use xlink:href="#DejaVuSans-53"/>
       <use x="63.623047" xlink:href="#DejaVuSans-48"/>
      </g>
     </g>
    </g>
    <g id="ytick_4">
     <g id="line2d_29">
      <path clip-path="url(#pac0743285e)" d="M 44.567 67.68 
L 490.967 67.68 
" style="fill:none;stroke:#e5e5e5;stroke-width:0.8;"/>
     </g>
     <g id="line2d_30">
      <path d="M 44.567 67.68 
" style="fill:none;stroke:#000000;stroke-width:1.5;"/>
      <g>
       <use style="stroke:#000000;" x="44.567" xlink:href="#m6744a7b4c1" y="67.68"/>
      </g>
     </g>
     <g id="text_11">
      <!-- 75 -->
      <g transform="translate(28.419 70.10825)scale(0.088 -0.088)">
       <use xlink:href="#DejaVuSans-55"/>
       <use x="63.623047" xlink:href="#DejaVuSans-53"/>
      </g>
     </g>
    </g>
    <g id="ytick_5">
     <g id="line2d_31">
      <path clip-path="url(#pac0743285e)" d="M 44.567 17.28 
L 490.967 17.28 
" style="fill:none;stroke:#e5e5e5;stroke-width:0.8;"/>
     </g>
     <g id="line2d_32">
      <path d="M 44.567 17.28 
" style="fill:none;stroke:#000000;stroke-width:1.5;"/>
      <g>
       <use style="stroke:#000000;" x="44.567" xlink:href="#m6744a7b4c1" y="17.28"/>
      </g>
     </g>
     <g id="text_12">
      <!-- 100 -->
      <g transform="translate(22.82 19.70825)scale(0.088 -0.088)">
       <use xlink:href="#DejaVuSans-49"/>
       <use x="63.623047" xlink:href="#DejaVuSans-48"/>
       <use x="127.246094" xlink:href="#DejaVuSans-48"/>
      </g>
     </g>
    </g>
    <g id="ytick_6">
     <g id="line2d_33">
      <path clip-path="url(#pac0743285e)" d="M 44.567 193.68 
L 490.967 193.68 
" style="fill:none;stroke:#fafafa;"/>
     </g>
     <g id="line2d_34">
      <path d="M 44.567 193.68 
" style="fill:none;stroke:#000000;stroke-width:1.5;"/>
      <defs>
       <path d="M 0 0 
L -1.375 0 
" id="m2e0c0b92ab" style="stroke:#000000;"/>
      </defs>
      <g>
       <use style="stroke:#000000;" x="44.567" xlink:href="#m2e0c0b92ab" y="193.68"/>
      </g>
     </g>
    </g>
    <g id="ytick_7">
     <g id="line2d_35">
      <path clip-path="url(#pac0743285e)" d="M 44.567 143.28 
L 490.967 143.28 
" style="fill:none;stroke:#fafafa;"/>
     </g>
     <g id="line2d_36">
      <path d="M 44.567 143.28 
" style="fill:none;stroke:#000000;stroke-width:1.5;"/>
      <g>
       <use style="stroke:#000000;" x="44.567" xlink:href="#m2e0c0b92ab" y="143.28"/>
      </g>
     </g>
    </g>
    <g id="ytick_8">
     <g id="line2d_37">
      <path clip-path="url(#pac0743285e)" d="M 44.567 92.88 
L 490.967 92.88 
" style="fill:none;stroke:#fafafa;"/>
     </g>
     <g id="line2d_38">
      <path d="M 44.567 92.88 
" style="fill:none;stroke:#000000;stroke-width:1.5;"/>
      <g>
       <use style="stroke:#000000;" x="44.567" xlink:href="#m2e0c0b92ab" y="92.88"/>
      </g>
     </g>
    </g>
    <g id="ytick_9">
     <g id="line2d_39">
      <path clip-path="url(#pac0743285e)" d="M 44.567 42.48 
L 490.967 42.48 
" style="fill:none;stroke:#fafafa;"/>
     </g>
     <g id="line2d_40">
      <path d="M 44.567 42.48 
" style="fill:none;stroke:#000000;stroke-width:1.5;"/>
      <g>
       <use style="stroke:#000000;" x="44.567" xlink:href="#m2e0c0b92ab" y="42.48"/>
      </g>
     </g>
    </g>
    <g id="text_13">
     <!-- $P_{Q1n}$ [%] -->
     <defs>
      <path d="M 16.890625 72.90625 
L 39.703125 72.90625 
Q 49.65625 72.90625 54.875 68.265625 
Q 60.109375 63.625 60.109375 54.6875 
Q 60.109375 42.671875 52.390625 35.984375 
Q 44.671875 29.296875 30.71875 29.296875 
L 18.3125 29.296875 
L 12.59375 0 
L 2.6875 0 
z
M 25.203125 64.796875 
L 19.921875 37.40625 
L 32.328125 37.40625 
Q 40.71875 37.40625 45.203125 41.703125 
Q 49.703125 46 49.703125 54 
Q 49.703125 59.125 46.65625 61.953125 
Q 43.609375 64.796875 38.09375 64.796875 
z
" id="DejaVuSans-Oblique-80"/>
      <path d="M 36.078125 -1.3125 
Q 35.546875 -1.375 34.953125 -1.390625 
Q 34.375 -1.421875 33.203125 -1.421875 
Q 19.53125 -1.421875 11.8125 6.421875 
Q 4.109375 14.265625 4.109375 28.078125 
Q 4.109375 36.234375 7.0625 44.4375 
Q 10.015625 52.640625 15.28125 59.1875 
Q 21.390625 66.703125 29.03125 70.453125 
Q 36.671875 74.21875 45.90625 74.21875 
Q 59.28125 74.21875 66.984375 66.328125 
Q 74.703125 58.453125 74.703125 44.828125 
Q 74.703125 30.125 66.640625 17.921875 
Q 58.59375 5.71875 45.609375 0.6875 
L 55.515625 -12.890625 
L 44.484375 -12.890625 
z
M 45.609375 66.21875 
Q 37.5 66.21875 31.296875 62.28125 
Q 25.09375 58.34375 20.515625 50.296875 
Q 17.578125 45.171875 16.03125 39.40625 
Q 14.5 33.640625 14.5 27.78125 
Q 14.5 17.625 19.359375 12.109375 
Q 24.21875 6.59375 33.109375 6.59375 
Q 41.109375 6.59375 47.375 10.5625 
Q 53.65625 14.546875 58.109375 22.40625 
Q 61.078125 27.6875 62.640625 33.46875 
Q 64.203125 39.265625 64.203125 45.015625 
Q 64.203125 55.125 59.3125 60.671875 
Q 54.4375 66.21875 45.609375 66.21875 
z
" id="DejaVuSans-Oblique-81"/>
      <path d="M 55.71875 33.015625 
L 49.3125 0 
L 40.28125 0 
L 46.6875 32.671875 
Q 47.125 34.96875 47.359375 36.71875 
Q 47.609375 38.484375 47.609375 39.5 
Q 47.609375 43.609375 45.015625 45.890625 
Q 42.4375 48.1875 37.796875 48.1875 
Q 30.5625 48.1875 25.34375 43.375 
Q 20.125 38.578125 18.5 30.328125 
L 12.5 0 
L 3.515625 0 
L 14.109375 54.6875 
L 23.09375 54.6875 
L 21.296875 46.09375 
Q 25.046875 50.828125 30.3125 53.40625 
Q 35.59375 56 41.40625 56 
Q 48.640625 56 52.609375 52.09375 
Q 56.59375 48.1875 56.59375 41.109375 
Q 56.59375 39.359375 56.375 37.359375 
Q 56.15625 35.359375 55.71875 33.015625 
z
" id="DejaVuSans-Oblique-110"/>
      <path id="DejaVuSans-32"/>
      <path d="M 8.59375 75.984375 
L 29.296875 75.984375 
L 29.296875 69 
L 17.578125 69 
L 17.578125 -6.203125 
L 29.296875 -6.203125 
L 29.296875 -13.1875 
L 8.59375 -13.1875 
z
" id="DejaVuSans-91"/>
      <path d="M 72.703125 32.078125 
Q 68.453125 32.078125 66.03125 28.46875 
Q 63.625 24.859375 63.625 18.40625 
Q 63.625 12.0625 66.03125 8.421875 
Q 68.453125 4.78125 72.703125 4.78125 
Q 76.859375 4.78125 79.265625 8.421875 
Q 81.6875 12.0625 81.6875 18.40625 
Q 81.6875 24.8125 79.265625 28.4375 
Q 76.859375 32.078125 72.703125 32.078125 
z
M 72.703125 38.28125 
Q 80.421875 38.28125 84.953125 32.90625 
Q 89.5 27.546875 89.5 18.40625 
Q 89.5 9.28125 84.9375 3.921875 
Q 80.375 -1.421875 72.703125 -1.421875 
Q 64.890625 -1.421875 60.34375 3.921875 
Q 55.8125 9.28125 55.8125 18.40625 
Q 55.8125 27.59375 60.375 32.9375 
Q 64.9375 38.28125 72.703125 38.28125 
z
M 22.3125 68.015625 
Q 18.109375 68.015625 15.6875 64.375 
Q 13.28125 60.75 13.28125 54.390625 
Q 13.28125 47.953125 15.671875 44.328125 
Q 18.0625 40.71875 22.3125 40.71875 
Q 26.5625 40.71875 28.96875 44.328125 
Q 31.390625 47.953125 31.390625 54.390625 
Q 31.390625 60.6875 28.953125 64.34375 
Q 26.515625 68.015625 22.3125 68.015625 
z
M 66.40625 74.21875 
L 74.21875 74.21875 
L 28.609375 -1.421875 
L 20.796875 -1.421875 
z
M 22.3125 74.21875 
Q 30.03125 74.21875 34.609375 68.875 
Q 39.203125 63.53125 39.203125 54.390625 
Q 39.203125 45.171875 34.640625 39.84375 
Q 30.078125 34.515625 22.3125 34.515625 
Q 14.546875 34.515625 10.03125 39.859375 
Q 5.515625 45.21875 5.515625 54.390625 
Q 5.515625 63.484375 10.046875 68.84375 
Q 14.59375 74.21875 22.3125 74.21875 
z
" id="DejaVuSans-37"/>
      <path d="M 30.421875 75.984375 
L 30.421875 -13.1875 
L 9.71875 -13.1875 
L 9.71875 -6.203125 
L 21.390625 -6.203125 
L 21.390625 69 
L 9.71875 69 
L 9.71875 75.984375 
z
" id="DejaVuSans-93"/>
     </defs>
     <g transform="translate(15.56 139.3)rotate(-90)scale(0.11 -0.11)">
      <use transform="translate(0 0.015625)" xlink:href="#DejaVuSans-Oblique-80"/>
      <use transform="translate(60.302734 -16.390625)scale(0.7)" xlink:href="#DejaVuSans-Oblique-81"/>
      <use transform="translate(115.400391 -16.390625)scale(0.7)" xlink:href="#DejaVuSans-49"/>
      <use transform="translate(159.936523 -16.390625)scale(0.7)" xlink:href="#DejaVuSans-Oblique-110"/>
      <use transform="translate(207.036133 0.015625)" xlink:href="#DejaVuSans-32"/>
      <use transform="translate(238.823242 0.015625)" xlink:href="#DejaVuSans-91"/>
      <use transform="translate(277.836914 0.015625)" xlink:href="#DejaVuSans-37"/>
      <use transform="translate(372.856445 0.015625)" xlink:href="#DejaVuSans-93"/>
     </g>
    </g>
   </g>
   <g id="PathCollection_1">
    <path clip-path="url(#pac0743285e)" d="M 259.650636 100.239378 
C 260.120697 100.239378 260.571568 100.052622 260.903951 99.720239 
C 261.236333 99.387856 261.42309 98.936985 261.42309 98.466925 
C 261.42309 97.996864 261.236333 97.545993 260.903951 97.21361 
C 260.571568 96.881228 260.120697 96.694471 259.650636 96.694471 
C 259.180576 96.694471 258.729705 96.881228 258.397322 97.21361 
C 258.064939 97.545993 257.878183 97.996864 257.878183 98.466925 
C 257.878183 98.936985 258.064939 99.387856 258.397322 99.720239 
C 258.729705 100.052622 259.180576 100.239378 259.650636 100.239378 
z
" style="stroke:#000000;stroke-width:0.886227;"/>
    <path clip-path="url(#pac0743285e)" d="M 267.767 167.529038 
C 268.23706 167.529038 268.687931 167.342281 269.020314 167.009899 
C 269.352697 166.677516 269.539454 166.226645 269.539454 165.756584 
C 269.539454 165.286524 269.352697 164.835653 269.020314 164.50327 
C 268.687931 164.170887 268.23706 163.984131 267.767 163.984131 
C 267.29694 163.984131 266.846069 164.170887 266.513686 164.50327 
C 266.181303 164.835653 265.994546 165.286524 265.994546 165.756584 
C 265.994546 166.226645 266.181303 166.677516 266.513686 167.009899 
C 266.846069 167.342281 267.29694 167.529038 267.767 167.529038 
z
" style="stroke:#000000;stroke-width:0.886227;"/>
    <path clip-path="url(#pac0743285e)" d="M 275.883364 149.272067 
C 276.353424 149.272067 276.804295 149.08531 277.136678 148.752927 
C 277.469061 148.420544 277.655817 147.969673 277.655817 147.499613 
C 277.655817 147.029553 277.469061 146.578682 277.136678 146.246299 
C 276.804295 145.913916 276.353424 145.727159 275.883364 145.727159 
C 275.413303 145.727159 274.962432 145.913916 274.630049 146.246299 
C 274.297667 146.578682 274.11091 147.029553 274.11091 147.499613 
C 274.11091 147.969673 274.297667 148.420544 274.630049 148.752927 
C 274.962432 149.08531 275.413303 149.272067 275.883364 149.272067 
z
" style="stroke:#000000;stroke-width:0.886227;"/>
    <path clip-path="url(#pac0743285e)" d="M 283.999727 111.058 
C 284.469788 111.058 284.920659 110.871243 285.253041 110.53886 
C 285.585424 110.206477 285.772181 109.755606 285.772181 109.285546 
C 285.772181 108.815485 285.585424 108.364614 285.253041 108.032232 
C 284.920659 107.699849 284.469788 107.513092 283.999727 107.513092 
C 283.529667 107.513092 283.078796 107.699849 282.746413 108.032232 
C 282.41403 108.364614 282.227273 108.815485 282.227273 109.285546 
C 282.227273 109.755606 282.41403 110.206477 282.746413 110.53886 
C 283.078796 110.871243 283.529667 111.058 283.999727 111.058 
z
" style="stroke:#000000;stroke-width:0.886227;"/>
    <path clip-path="url(#pac0743285e)" d="M 292.116091 119.950735 
C 292.586151 119.950735 293.037022 119.763978 293.369405 119.431595 
C 293.701788 119.099212 293.888545 118.648341 293.888545 118.178281 
C 293.888545 117.708221 293.701788 117.25735 293.369405 116.924967 
C 293.037022 116.592584 292.586151 116.405827 292.116091 116.405827 
C 291.646031 116.405827 291.19516 116.592584 290.862777 116.924967 
C 290.530394 117.25735 290.343637 117.708221 290.343637 118.178281 
C 290.343637 118.648341 290.530394 119.099212 290.862777 119.431595 
C 291.19516 119.763978 291.646031 119.950735 292.116091 119.950735 
z
" style="stroke:#000000;stroke-width:0.886227;"/>
    <path clip-path="url(#pac0743285e)" d="M 300.232455 116.721992 
C 300.702515 116.721992 301.153386 116.535235 301.485769 116.202853 
C 301.818151 115.87047 302.004908 115.419599 302.004908 114.949539 
C 302.004908 114.479478 301.818151 114.028607 301.485769 113.696224 
C 301.153386 113.363842 300.702515 113.177085 300.232455 113.177085 
C 299.762394 113.177085 299.311523 113.363842 298.97914 113.696224 
C 298.646758 114.028607 298.460001 114.479478 298.460001 114.949539 
C 298.460001 115.419599 298.646758 115.87047 298.97914 116.202853 
C 299.311523 116.535235 299.762394 116.721992 300.232455 116.721992 
z
" style="stroke:#000000;stroke-width:0.886227;"/>
    <path clip-path="url(#pac0743285e)" d="M 308.348818 134.800272 
C 308.818878 134.800272 309.26975 134.613515 309.602132 134.281132 
C 309.934515 133.948749 310.121272 133.497878 310.121272 133.027818 
C 310.121272 132.557758 309.934515 132.106887 309.602132 131.774504 
C 309.26975 131.442121 308.818878 131.255364 308.348818 131.255364 
C 307.878758 131.255364 307.427887 131.442121 307.095504 131.774504 
C 306.763121 132.106887 306.576364 132.557758 306.576364 133.027818 
C 306.576364 133.497878 306.763121 133.948749 307.095504 134.281132 
C 307.427887 134.613515 307.878758 134.800272 308.348818 134.800272 
z
" style="stroke:#000000;stroke-width:0.886227;"/>
    <path clip-path="url(#pac0743285e)" d="M 316.465182 112.164128 
C 316.935242 112.164128 317.386113 111.977371 317.718496 111.644989 
C 318.050879 111.312606 318.237636 110.861735 318.237636 110.391674 
C 318.237636 109.921614 318.050879 109.470743 317.718496 109.13836 
C 317.386113 108.805978 316.935242 108.619221 316.465182 108.619221 
C 315.995122 108.619221 315.54425 108.805978 315.211868 109.13836 
C 314.879485 109.470743 314.692728 109.921614 314.692728 110.391674 
C 314.692728 110.861735 314.879485 111.312606 315.211868 111.644989 
C 315.54425 111.977371 315.995122 112.164128 316.465182 112.164128 
z
" style="stroke:#000000;stroke-width:0.886227;"/>
    <path clip-path="url(#pac0743285e)" d="M 324.581545 112.308224 
C 325.051606 112.308224 325.502477 112.121467 325.83486 111.789085 
C 326.167242 111.456702 326.353999 111.005831 326.353999 110.535771 
C 326.353999 110.06571 326.167242 109.614839 325.83486 109.282456 
C 325.502477 108.950074 325.051606 108.763317 324.581545 108.763317 
C 324.111485 108.763317 323.660614 108.950074 323.328231 109.282456 
C 322.995849 109.614839 322.809092 110.06571 322.809092 110.535771 
C 322.809092 111.005831 322.995849 111.456702 323.328231 111.789085 
C 323.660614 112.121467 324.111485 112.308224 324.581545 112.308224 
z
" style="stroke:#000000;stroke-width:0.886227;"/>
    <path clip-path="url(#pac0743285e)" d="M 332.697909 112.199265 
C 333.167969 112.199265 333.61884 112.012508 333.951223 111.680126 
C 334.283606 111.347743 334.470363 110.896872 334.470363 110.426811 
C 334.470363 109.956751 334.283606 109.50588 333.951223 109.173497 
C 333.61884 108.841114 333.167969 108.654358 332.697909 108.654358 
C 332.227849 108.654358 331.776978 108.841114 331.444595 109.173497 
C 331.112212 109.50588 330.925455 109.956751 330.925455 110.426811 
C 330.925455 110.896872 331.112212 111.347743 331.444595 111.680126 
C 331.776978 112.012508 332.227849 112.199265 332.697909 112.199265 
z
" style="stroke:#000000;stroke-width:0.886227;"/>
    <path clip-path="url(#pac0743285e)" d="M 340.814273 127.317975 
C 341.284333 127.317975 341.735204 127.131218 342.067587 126.798835 
C 342.39997 126.466452 342.586727 126.015581 342.586727 125.545521 
C 342.586727 125.075461 342.39997 124.62459 342.067587 124.292207 
C 341.735204 123.959824 341.284333 123.773067 340.814273 123.773067 
C 340.344212 123.773067 339.893341 123.959824 339.560959 124.292207 
C 339.228576 124.62459 339.041819 125.075461 339.041819 125.545521 
C 339.041819 126.015581 339.228576 126.466452 339.560959 126.798835 
C 339.893341 127.131218 340.344212 127.317975 340.814273 127.317975 
z
" style="stroke:#000000;stroke-width:0.886227;"/>
    <path clip-path="url(#pac0743285e)" d="M 348.930636 150.627901 
C 349.400697 150.627901 349.851568 150.441144 350.183951 150.108761 
C 350.516333 149.776378 350.70309 149.325507 350.70309 148.855447 
C 350.70309 148.385387 350.516333 147.934516 350.183951 147.602133 
C 349.851568 147.26975 349.400697 147.082993 348.930636 147.082993 
C 348.460576 147.082993 348.009705 147.26975 347.677322 147.602133 
C 347.344939 147.934516 347.158183 148.385387 347.158183 148.855447 
C 347.158183 149.325507 347.344939 149.776378 347.677322 150.108761 
C 348.009705 150.441144 348.460576 150.627901 348.930636 150.627901 
z
" style="stroke:#000000;stroke-width:0.886227;"/>
    <path clip-path="url(#pac0743285e)" d="M 357.047 145.74999 
C 357.51706 145.74999 357.967931 145.563233 358.300314 145.23085 
C 358.632697 144.898467 358.819454 144.447596 358.819454 143.977536 
C 358.819454 143.507476 358.632697 143.056604 358.300314 142.724222 
C 357.967931 142.391839 357.51706 142.205082 357.047 142.205082 
C 356.57694 142.205082 356.126069 142.391839 355.793686 142.724222 
C 355.461303 143.056604 355.274546 143.507476 355.274546 143.977536 
C 355.274546 144.447596 355.461303 144.898467 355.793686 145.23085 
C 356.126069 145.563233 356.57694 145.74999 357.047 145.74999 
z
" style="stroke:#000000;stroke-width:0.886227;"/>
    <path clip-path="url(#pac0743285e)" d="M 365.163364 129.064996 
C 365.633424 129.064996 366.084295 128.878239 366.416678 128.545856 
C 366.749061 128.213473 366.935817 127.762602 366.935817 127.292542 
C 366.935817 126.822481 366.749061 126.37161 366.416678 126.039228 
C 366.084295 125.706845 365.633424 125.520088 365.163364 125.520088 
C 364.693303 125.520088 364.242432 125.706845 363.910049 126.039228 
C 363.577667 126.37161 363.39091 126.822481 363.39091 127.292542 
C 363.39091 127.762602 363.577667 128.213473 363.910049 128.545856 
C 364.242432 128.878239 364.693303 129.064996 365.163364 129.064996 
z
" style="stroke:#000000;stroke-width:0.886227;"/>
    <path clip-path="url(#pac0743285e)" d="M 373.279727 122.052705 
C 373.749788 122.052705 374.200659 121.865948 374.533041 121.533565 
C 374.865424 121.201182 375.052181 120.750311 375.052181 120.280251 
C 375.052181 119.810191 374.865424 119.359319 374.533041 119.026937 
C 374.200659 118.694554 373.749788 118.507797 373.279727 118.507797 
C 372.809667 118.507797 372.358796 118.694554 372.026413 119.026937 
C 371.69403 119.359319 371.507273 119.810191 371.507273 120.280251 
C 371.507273 120.750311 371.69403 121.201182 372.026413 121.533565 
C 372.358796 121.865948 372.809667 122.052705 373.279727 122.052705 
z
" style="stroke:#000000;stroke-width:0.886227;"/>
    <path clip-path="url(#pac0743285e)" d="M 381.396091 133.000946 
C 381.866151 133.000946 382.317022 132.814189 382.649405 132.481806 
C 382.981788 132.149424 383.168545 131.698552 383.168545 131.228492 
C 383.168545 130.758432 382.981788 130.307561 382.649405 129.975178 
C 382.317022 129.642795 381.866151 129.456038 381.396091 129.456038 
C 380.926031 129.456038 380.47516 129.642795 380.142777 129.975178 
C 379.810394 130.307561 379.623637 130.758432 379.623637 131.228492 
C 379.623637 131.698552 379.810394 132.149424 380.142777 132.481806 
C 380.47516 132.814189 380.926031 133.000946 381.396091 133.000946 
z
" style="stroke:#000000;stroke-width:0.886227;"/>
    <path clip-path="url(#pac0743285e)" d="M 389.512455 106.659018 
C 389.982515 106.659018 390.433386 106.472261 390.765769 106.139879 
C 391.098151 105.807496 391.284908 105.356625 391.284908 104.886564 
C 391.284908 104.416504 391.098151 103.965633 390.765769 103.63325 
C 390.433386 103.300867 389.982515 103.114111 389.512455 103.114111 
C 389.042394 103.114111 388.591523 103.300867 388.25914 103.63325 
C 387.926758 103.965633 387.740001 104.416504 387.740001 104.886564 
C 387.740001 105.356625 387.926758 105.807496 388.25914 106.139879 
C 388.591523 106.472261 389.042394 106.659018 389.512455 106.659018 
z
" style="stroke:#000000;stroke-width:0.886227;"/>
    <path clip-path="url(#pac0743285e)" d="M 397.628818 123.3532 
C 398.098878 123.3532 398.54975 123.166443 398.882132 122.83406 
C 399.214515 122.501677 399.401272 122.050806 399.401272 121.580746 
C 399.401272 121.110686 399.214515 120.659814 398.882132 120.327432 
C 398.54975 119.995049 398.098878 119.808292 397.628818 119.808292 
C 397.158758 119.808292 396.707887 119.995049 396.375504 120.327432 
C 396.043121 120.659814 395.856364 121.110686 395.856364 121.580746 
C 395.856364 122.050806 396.043121 122.501677 396.375504 122.83406 
C 396.707887 123.166443 397.158758 123.3532 397.628818 123.3532 
z
" style="stroke:#000000;stroke-width:0.886227;"/>
    <path clip-path="url(#pac0743285e)" d="M 405.745182 126.305999 
C 406.215242 126.305999 406.666113 126.119242 406.998496 125.786859 
C 407.330879 125.454476 407.517636 125.003605 407.517636 124.533545 
C 407.517636 124.063485 407.330879 123.612614 406.998496 123.280231 
C 406.666113 122.947848 406.215242 122.761091 405.745182 122.761091 
C 405.275122 122.761091 404.82425 122.947848 404.491868 123.280231 
C 404.159485 123.612614 403.972728 124.063485 403.972728 124.533545 
C 403.972728 125.003605 404.159485 125.454476 404.491868 125.786859 
C 404.82425 126.119242 405.275122 126.305999 405.745182 126.305999 
z
" style="stroke:#000000;stroke-width:0.886227;"/>
    <path clip-path="url(#pac0743285e)" d="M 413.861545 106.926125 
C 414.331606 106.926125 414.782477 106.739368 415.11486 106.406985 
C 415.447242 106.074602 415.633999 105.623731 415.633999 105.153671 
C 415.633999 104.683611 415.447242 104.23274 415.11486 103.900357 
C 414.782477 103.567974 414.331606 103.381217 413.861545 103.381217 
C 413.391485 103.381217 412.940614 103.567974 412.608231 103.900357 
C 412.275849 104.23274 412.089092 104.683611 412.089092 105.153671 
C 412.089092 105.623731 412.275849 106.074602 412.608231 106.406985 
C 412.940614 106.739368 413.391485 106.926125 413.861545 106.926125 
z
" style="stroke:#000000;stroke-width:0.886227;"/>
    <path clip-path="url(#pac0743285e)" d="M 421.977909 98.351804 
C 422.447969 98.351804 422.89884 98.165047 423.231223 97.832665 
C 423.563606 97.500282 423.750363 97.049411 423.750363 96.57935 
C 423.750363 96.10929 423.563606 95.658419 423.231223 95.326036 
C 422.89884 94.993654 422.447969 94.806897 421.977909 94.806897 
C 421.507849 94.806897 421.056978 94.993654 420.724595 95.326036 
C 420.392212 95.658419 420.205455 96.10929 420.205455 96.57935 
C 420.205455 97.049411 420.392212 97.500282 420.724595 97.832665 
C 421.056978 98.165047 421.507849 98.351804 421.977909 98.351804 
z
" style="stroke:#000000;stroke-width:0.886227;"/>
    <path clip-path="url(#pac0743285e)" d="M 430.094273 121.603333 
C 430.564333 121.603333 431.015204 121.416576 431.347587 121.084194 
C 431.67997 120.751811 431.866727 120.30094 431.866727 119.830879 
C 431.866727 119.360819 431.67997 118.909948 431.347587 118.577565 
C 431.015204 118.245182 430.564333 118.058426 430.094273 118.058426 
C 429.624212 118.058426 429.173341 118.245182 428.840959 118.577565 
C 428.508576 118.909948 428.321819 119.360819 428.321819 119.830879 
C 428.321819 120.30094 428.508576 120.751811 428.840959 121.084194 
C 429.173341 121.416576 429.624212 121.603333 430.094273 121.603333 
z
" style="stroke:#000000;stroke-width:0.886227;"/>
    <path clip-path="url(#pac0743285e)" d="M 438.210636 101.213547 
C 438.680697 101.213547 439.131568 101.02679 439.463951 100.694407 
C 439.796333 100.362025 439.98309 99.911153 439.98309 99.441093 
C 439.98309 98.971033 439.796333 98.520162 439.463951 98.187779 
C 439.131568 97.855396 438.680697 97.668639 438.210636 97.668639 
C 437.740576 97.668639 437.289705 97.855396 436.957322 98.187779 
C 436.624939 98.520162 436.438183 98.971033 436.438183 99.441093 
C 436.438183 99.911153 436.624939 100.362025 436.957322 100.694407 
C 437.289705 101.02679 437.740576 101.213547 438.210636 101.213547 
z
" style="stroke:#000000;stroke-width:0.886227;"/>
    <path clip-path="url(#pac0743285e)" d="M 446.327 95.667257 
C 446.79706 95.667257 447.247931 95.480501 447.580314 95.148118 
C 447.912697 94.815735 448.099454 94.364864 448.099454 93.894804 
C 448.099454 93.424743 447.912697 92.973872 447.580314 92.641489 
C 447.247931 92.309107 446.79706 92.12235 446.327 92.12235 
C 445.85694 92.12235 445.406069 92.309107 445.073686 92.641489 
C 444.741303 92.973872 444.554546 93.424743 444.554546 93.894804 
C 444.554546 94.364864 444.741303 94.815735 445.073686 95.148118 
C 445.406069 95.480501 445.85694 95.667257 446.327 95.667257 
z
" style="stroke:#000000;stroke-width:0.886227;"/>
    <path clip-path="url(#pac0743285e)" d="M 454.443364 115.244136 
C 454.913424 115.244136 455.364295 115.05738 455.696678 114.724997 
C 456.029061 114.392614 456.215817 113.941743 456.215817 113.471683 
C 456.215817 113.001622 456.029061 112.550751 455.696678 112.218368 
C 455.364295 111.885986 454.913424 111.699229 454.443364 111.699229 
C 453.973303 111.699229 453.522432 111.885986 453.190049 112.218368 
C 452.857667 112.550751 452.67091 113.001622 452.67091 113.471683 
C 452.67091 113.941743 452.857667 114.392614 453.190049 114.724997 
C 453.522432 115.05738 453.973303 115.244136 454.443364 115.244136 
z
" style="stroke:#000000;stroke-width:0.886227;"/>
    <path clip-path="url(#pac0743285e)" d="M 462.559727 140.154789 
C 463.029788 140.154789 463.480659 139.968032 463.813041 139.635649 
C 464.145424 139.303266 464.332181 138.852395 464.332181 138.382335 
C 464.332181 137.912275 464.145424 137.461404 463.813041 137.129021 
C 463.480659 136.796638 463.029788 136.609881 462.559727 136.609881 
C 462.089667 136.609881 461.638796 136.796638 461.306413 137.129021 
C 460.97403 137.461404 460.787273 137.912275 460.787273 138.382335 
C 460.787273 138.852395 460.97403 139.303266 461.306413 139.635649 
C 461.638796 139.968032 462.089667 140.154789 462.559727 140.154789 
z
" style="stroke:#000000;stroke-width:0.886227;"/>
   </g>
   <g id="line2d_41">
    <path clip-path="url(#pac0743285e)" d="M 259.650636 98.466925 
L 267.767 165.756584 
L 275.883364 147.499613 
L 283.999727 109.285546 
L 292.116091 118.178281 
L 300.232455 114.949539 
L 308.348818 133.027818 
L 316.465182 110.391674 
L 324.581545 110.535771 
L 332.697909 110.426811 
L 340.814273 125.545521 
L 348.930636 148.855447 
L 357.047 143.977536 
L 365.163364 127.292542 
L 373.279727 120.280251 
L 381.396091 131.228492 
L 389.512455 104.886564 
L 397.628818 121.580746 
L 405.745182 124.533545 
L 413.861545 105.153671 
L 421.977909 96.57935 
L 430.094273 119.830879 
L 438.210636 99.441093 
L 446.327 93.894804 
L 454.443364 113.471683 
L 462.559727 138.382335 
" style="fill:none;stroke:#000000;stroke-width:0.886227;"/>
   </g>
  </g>
 </g>
 <defs>
  <clipPath id="pac0743285e">
   <rect height="221.76" width="446.4" x="44.567" y="7.2"/>
  </clipPath>
 </defs>
</svg>
