<?xml version="1.0" encoding="utf-8" standalone="no"?>
<!DOCTYPE svg PUBLIC "-//W3C//DTD SVG 1.1//EN"
  "http://www.w3.org/Graphics/SVG/1.1/DTD/svg11.dtd">
<!-- Created with matplotlib (https://matplotlib.org/) -->
<svg height="283.578058pt" version="1.1" viewBox="0 0 498.167 283.578058" width="498.167pt" xmlns="http://www.w3.org/2000/svg" xmlns:xlink="http://www.w3.org/1999/xlink">
 <defs>
  <style type="text/css">
*{stroke-linecap:butt;stroke-linejoin:round;}
  </style>
 </defs>
 <g id="figure_1">
  <g id="patch_1">
   <path d="M 0 283.578058 
L 498.167 283.578058 
L 498.167 0 
L 0 0 
z
" style="fill:#ffffff;stroke:#ffffff;stroke-linejoin:miter;"/>
  </g>
  <g id="axes_1">
   <g id="patch_2">
    <path d="M 44.567 247.865371 
L 490.967 247.865371 
L 490.967 26.105371 
L 44.567 26.105371 
z
" style="fill:#ffffff;stroke:#7f7f7f;stroke-linejoin:miter;"/>
   </g>
   <g id="matplotlib.axis_1">
    <g id="xtick_1">
     <g id="line2d_1">
      <path clip-path="url(#p72d8d36910)" d="M 64.857909 247.865371 
L 64.857909 26.105371 
" style="fill:none;stroke:#e5e5e5;stroke-width:0.8;"/>
     </g>
     <g id="line2d_2">
      <path d="M 64.857909 247.865371 
" style="fill:none;stroke:#000000;stroke-width:1.5;"/>
      <defs>
       <path d="M 0 0 
L 0 2.75 
" id="m4abaab9d59" style="stroke:#000000;"/>
      </defs>
      <g>
       <use style="stroke:#000000;" x="64.857909" xlink:href="#m4abaab9d59" y="247.865371"/>
      </g>
     </g>
     <g id="text_1">
      <!-- 1 -->
      <defs>
       <path d="M 12.40625 8.296875 
L 28.515625 8.296875 
L 28.515625 63.921875 
L 10.984375 60.40625 
L 10.984375 69.390625 
L 28.421875 72.90625 
L 38.28125 72.90625 
L 38.28125 8.296875 
L 54.390625 8.296875 
L 54.390625 0 
L 12.40625 0 
z
" id="DejaVuSans-49"/>
      </defs>
      <g style="fill:#4d4d4d;" transform="translate(62.058409 259.501996)scale(0.088 -0.088)">
       <use xlink:href="#DejaVuSans-49"/>
      </g>
     </g>
    </g>
    <g id="xtick_2">
     <g id="line2d_3">
      <path clip-path="url(#p72d8d36910)" d="M 200.130636 247.865371 
L 200.130636 26.105371 
" style="fill:none;stroke:#e5e5e5;stroke-width:0.8;"/>
     </g>
     <g id="line2d_4">
      <path d="M 200.130636 247.865371 
" style="fill:none;stroke:#000000;stroke-width:1.5;"/>
      <g>
       <use style="stroke:#000000;" x="200.130636" xlink:href="#m4abaab9d59" y="247.865371"/>
      </g>
     </g>
     <g id="text_2">
      <!-- 2 -->
      <defs>
       <path d="M 19.1875 8.296875 
L 53.609375 8.296875 
L 53.609375 0 
L 7.328125 0 
L 7.328125 8.296875 
Q 12.9375 14.109375 22.625 23.890625 
Q 32.328125 33.6875 34.8125 36.53125 
Q 39.546875 41.84375 41.421875 45.53125 
Q 43.3125 49.21875 43.3125 52.78125 
Q 43.3125 58.59375 39.234375 62.25 
Q 35.15625 65.921875 28.609375 65.921875 
Q 23.96875 65.921875 18.8125 64.3125 
Q 13.671875 62.703125 7.8125 59.421875 
L 7.8125 69.390625 
Q 13.765625 71.78125 18.9375 73 
Q 24.125 74.21875 28.421875 74.21875 
Q 39.75 74.21875 46.484375 68.546875 
Q 53.21875 62.890625 53.21875 53.421875 
Q 53.21875 48.921875 51.53125 44.890625 
Q 49.859375 40.875 45.40625 35.40625 
Q 44.1875 33.984375 37.640625 27.21875 
Q 31.109375 20.453125 19.1875 8.296875 
z
" id="DejaVuSans-50"/>
      </defs>
      <g style="fill:#4d4d4d;" transform="translate(197.331136 259.501996)scale(0.088 -0.088)">
       <use xlink:href="#DejaVuSans-50"/>
      </g>
     </g>
    </g>
    <g id="xtick_3">
     <g id="line2d_5">
      <path clip-path="url(#p72d8d36910)" d="M 335.403364 247.865371 
L 335.403364 26.105371 
" style="fill:none;stroke:#e5e5e5;stroke-width:0.8;"/>
     </g>
     <g id="line2d_6">
      <path d="M 335.403364 247.865371 
" style="fill:none;stroke:#000000;stroke-width:1.5;"/>
      <g>
       <use style="stroke:#000000;" x="335.403364" xlink:href="#m4abaab9d59" y="247.865371"/>
      </g>
     </g>
     <g id="text_3">
      <!-- 3 -->
      <defs>
       <path d="M 40.578125 39.3125 
Q 47.65625 37.796875 51.625 33 
Q 55.609375 28.21875 55.609375 21.1875 
Q 55.609375 10.40625 48.1875 4.484375 
Q 40.765625 -1.421875 27.09375 -1.421875 
Q 22.515625 -1.421875 17.65625 -0.515625 
Q 12.796875 0.390625 7.625 2.203125 
L 7.625 11.71875 
Q 11.71875 9.328125 16.59375 8.109375 
Q 21.484375 6.890625 26.8125 6.890625 
Q 36.078125 6.890625 40.9375 10.546875 
Q 45.796875 14.203125 45.796875 21.1875 
Q 45.796875 27.640625 41.28125 31.265625 
Q 36.765625 34.90625 28.71875 34.90625 
L 20.21875 34.90625 
L 20.21875 43.015625 
L 29.109375 43.015625 
Q 36.375 43.015625 40.234375 45.921875 
Q 44.09375 48.828125 44.09375 54.296875 
Q 44.09375 59.90625 40.109375 62.90625 
Q 36.140625 65.921875 28.71875 65.921875 
Q 24.65625 65.921875 20.015625 65.03125 
Q 15.375 64.15625 9.8125 62.3125 
L 9.8125 71.09375 
Q 15.4375 72.65625 20.34375 73.4375 
Q 25.25 74.21875 29.59375 74.21875 
Q 40.828125 74.21875 47.359375 69.109375 
Q 53.90625 64.015625 53.90625 55.328125 
Q 53.90625 49.265625 50.4375 45.09375 
Q 46.96875 40.921875 40.578125 39.3125 
z
" id="DejaVuSans-51"/>
      </defs>
      <g style="fill:#4d4d4d;" transform="translate(332.603864 259.501996)scale(0.088 -0.088)">
       <use xlink:href="#DejaVuSans-51"/>
      </g>
     </g>
    </g>
    <g id="xtick_4">
     <g id="line2d_7">
      <path clip-path="url(#p72d8d36910)" d="M 470.676091 247.865371 
L 470.676091 26.105371 
" style="fill:none;stroke:#e5e5e5;stroke-width:0.8;"/>
     </g>
     <g id="line2d_8">
      <path d="M 470.676091 247.865371 
" style="fill:none;stroke:#000000;stroke-width:1.5;"/>
      <g>
       <use style="stroke:#000000;" x="470.676091" xlink:href="#m4abaab9d59" y="247.865371"/>
      </g>
     </g>
     <g id="text_4">
      <!-- 4 -->
      <defs>
       <path d="M 37.796875 64.3125 
L 12.890625 25.390625 
L 37.796875 25.390625 
z
M 35.203125 72.90625 
L 47.609375 72.90625 
L 47.609375 25.390625 
L 58.015625 25.390625 
L 58.015625 17.1875 
L 47.609375 17.1875 
L 47.609375 0 
L 37.796875 0 
L 37.796875 17.1875 
L 4.890625 17.1875 
L 4.890625 26.703125 
z
" id="DejaVuSans-52"/>
      </defs>
      <g style="fill:#4d4d4d;" transform="translate(467.876591 259.501996)scale(0.088 -0.088)">
       <use xlink:href="#DejaVuSans-52"/>
      </g>
     </g>
    </g>
    <g id="xtick_5">
     <g id="line2d_9">
      <path clip-path="url(#p72d8d36910)" d="M 132.494273 247.865371 
L 132.494273 26.105371 
" style="fill:none;stroke:#fafafa;"/>
     </g>
     <g id="line2d_10">
      <path d="M 132.494273 247.865371 
" style="fill:none;stroke:#000000;stroke-width:1.5;"/>
      <defs>
       <path d="M 0 0 
L 0 1.375 
" id="m95d713f8b9" style="stroke:#000000;"/>
      </defs>
      <g>
       <use style="stroke:#000000;" x="132.494273" xlink:href="#m95d713f8b9" y="247.865371"/>
      </g>
     </g>
    </g>
    <g id="xtick_6">
     <g id="line2d_11">
      <path clip-path="url(#p72d8d36910)" d="M 267.767 247.865371 
L 267.767 26.105371 
" style="fill:none;stroke:#fafafa;"/>
     </g>
     <g id="line2d_12">
      <path d="M 267.767 247.865371 
" style="fill:none;stroke:#000000;stroke-width:1.5;"/>
      <g>
       <use style="stroke:#000000;" x="267.767" xlink:href="#m95d713f8b9" y="247.865371"/>
      </g>
     </g>
    </g>
    <g id="xtick_7">
     <g id="line2d_13">
      <path clip-path="url(#p72d8d36910)" d="M 403.039727 247.865371 
L 403.039727 26.105371 
" style="fill:none;stroke:#fafafa;"/>
     </g>
     <g id="line2d_14">
      <path d="M 403.039727 247.865371 
" style="fill:none;stroke:#000000;stroke-width:1.5;"/>
      <g>
       <use style="stroke:#000000;" x="403.039727" xlink:href="#m95d713f8b9" y="247.865371"/>
      </g>
     </g>
    </g>
    <g id="text_5">
     <!-- Resolution -->
     <defs>
      <path d="M 44.390625 34.1875 
Q 47.5625 33.109375 50.5625 29.59375 
Q 53.5625 26.078125 56.59375 19.921875 
L 66.609375 0 
L 56 0 
L 46.6875 18.703125 
Q 43.0625 26.03125 39.671875 28.421875 
Q 36.28125 30.8125 30.421875 30.8125 
L 19.671875 30.8125 
L 19.671875 0 
L 9.8125 0 
L 9.8125 72.90625 
L 32.078125 72.90625 
Q 44.578125 72.90625 50.734375 67.671875 
Q 56.890625 62.453125 56.890625 51.90625 
Q 56.890625 45.015625 53.6875 40.46875 
Q 50.484375 35.9375 44.390625 34.1875 
z
M 19.671875 64.796875 
L 19.671875 38.921875 
L 32.078125 38.921875 
Q 39.203125 38.921875 42.84375 42.21875 
Q 46.484375 45.515625 46.484375 51.90625 
Q 46.484375 58.296875 42.84375 61.546875 
Q 39.203125 64.796875 32.078125 64.796875 
z
" id="DejaVuSans-82"/>
      <path d="M 56.203125 29.59375 
L 56.203125 25.203125 
L 14.890625 25.203125 
Q 15.484375 15.921875 20.484375 11.0625 
Q 25.484375 6.203125 34.421875 6.203125 
Q 39.59375 6.203125 44.453125 7.46875 
Q 49.3125 8.734375 54.109375 11.28125 
L 54.109375 2.78125 
Q 49.265625 0.734375 44.1875 -0.34375 
Q 39.109375 -1.421875 33.890625 -1.421875 
Q 20.796875 -1.421875 13.15625 6.1875 
Q 5.515625 13.8125 5.515625 26.8125 
Q 5.515625 40.234375 12.765625 48.109375 
Q 20.015625 56 32.328125 56 
Q 43.359375 56 49.78125 48.890625 
Q 56.203125 41.796875 56.203125 29.59375 
z
M 47.21875 32.234375 
Q 47.125 39.59375 43.09375 43.984375 
Q 39.0625 48.390625 32.421875 48.390625 
Q 24.90625 48.390625 20.390625 44.140625 
Q 15.875 39.890625 15.1875 32.171875 
z
" id="DejaVuSans-101"/>
      <path d="M 44.28125 53.078125 
L 44.28125 44.578125 
Q 40.484375 46.53125 36.375 47.5 
Q 32.28125 48.484375 27.875 48.484375 
Q 21.1875 48.484375 17.84375 46.4375 
Q 14.5 44.390625 14.5 40.28125 
Q 14.5 37.15625 16.890625 35.375 
Q 19.28125 33.59375 26.515625 31.984375 
L 29.59375 31.296875 
Q 39.15625 29.25 43.1875 25.515625 
Q 47.21875 21.78125 47.21875 15.09375 
Q 47.21875 7.46875 41.1875 3.015625 
Q 35.15625 -1.421875 24.609375 -1.421875 
Q 20.21875 -1.421875 15.453125 -0.5625 
Q 10.6875 0.296875 5.421875 2 
L 5.421875 11.28125 
Q 10.40625 8.6875 15.234375 7.390625 
Q 20.0625 6.109375 24.8125 6.109375 
Q 31.15625 6.109375 34.5625 8.28125 
Q 37.984375 10.453125 37.984375 14.40625 
Q 37.984375 18.0625 35.515625 20.015625 
Q 33.0625 21.96875 24.703125 23.78125 
L 21.578125 24.515625 
Q 13.234375 26.265625 9.515625 29.90625 
Q 5.8125 33.546875 5.8125 39.890625 
Q 5.8125 47.609375 11.28125 51.796875 
Q 16.75 56 26.8125 56 
Q 31.78125 56 36.171875 55.265625 
Q 40.578125 54.546875 44.28125 53.078125 
z
" id="DejaVuSans-115"/>
      <path d="M 30.609375 48.390625 
Q 23.390625 48.390625 19.1875 42.75 
Q 14.984375 37.109375 14.984375 27.296875 
Q 14.984375 17.484375 19.15625 11.84375 
Q 23.34375 6.203125 30.609375 6.203125 
Q 37.796875 6.203125 41.984375 11.859375 
Q 46.1875 17.53125 46.1875 27.296875 
Q 46.1875 37.015625 41.984375 42.703125 
Q 37.796875 48.390625 30.609375 48.390625 
z
M 30.609375 56 
Q 42.328125 56 49.015625 48.375 
Q 55.71875 40.765625 55.71875 27.296875 
Q 55.71875 13.875 49.015625 6.21875 
Q 42.328125 -1.421875 30.609375 -1.421875 
Q 18.84375 -1.421875 12.171875 6.21875 
Q 5.515625 13.875 5.515625 27.296875 
Q 5.515625 40.765625 12.171875 48.375 
Q 18.84375 56 30.609375 56 
z
" id="DejaVuSans-111"/>
      <path d="M 9.421875 75.984375 
L 18.40625 75.984375 
L 18.40625 0 
L 9.421875 0 
z
" id="DejaVuSans-108"/>
      <path d="M 8.5 21.578125 
L 8.5 54.6875 
L 17.484375 54.6875 
L 17.484375 21.921875 
Q 17.484375 14.15625 20.5 10.265625 
Q 23.53125 6.390625 29.59375 6.390625 
Q 36.859375 6.390625 41.078125 11.03125 
Q 45.3125 15.671875 45.3125 23.6875 
L 45.3125 54.6875 
L 54.296875 54.6875 
L 54.296875 0 
L 45.3125 0 
L 45.3125 8.40625 
Q 42.046875 3.421875 37.71875 1 
Q 33.40625 -1.421875 27.6875 -1.421875 
Q 18.265625 -1.421875 13.375 4.4375 
Q 8.5 10.296875 8.5 21.578125 
z
M 31.109375 56 
z
" id="DejaVuSans-117"/>
      <path d="M 18.3125 70.21875 
L 18.3125 54.6875 
L 36.8125 54.6875 
L 36.8125 47.703125 
L 18.3125 47.703125 
L 18.3125 18.015625 
Q 18.3125 11.328125 20.140625 9.421875 
Q 21.96875 7.515625 27.59375 7.515625 
L 36.8125 7.515625 
L 36.8125 0 
L 27.59375 0 
Q 17.1875 0 13.234375 3.875 
Q 9.28125 7.765625 9.28125 18.015625 
L 9.28125 47.703125 
L 2.6875 47.703125 
L 2.6875 54.6875 
L 9.28125 54.6875 
L 9.28125 70.21875 
z
" id="DejaVuSans-116"/>
      <path d="M 9.421875 54.6875 
L 18.40625 54.6875 
L 18.40625 0 
L 9.421875 0 
z
M 9.421875 75.984375 
L 18.40625 75.984375 
L 18.40625 64.59375 
L 9.421875 64.59375 
z
" id="DejaVuSans-105"/>
      <path d="M 54.890625 33.015625 
L 54.890625 0 
L 45.90625 0 
L 45.90625 32.71875 
Q 45.90625 40.484375 42.875 44.328125 
Q 39.84375 48.1875 33.796875 48.1875 
Q 26.515625 48.1875 22.3125 43.546875 
Q 18.109375 38.921875 18.109375 30.90625 
L 18.109375 0 
L 9.078125 0 
L 9.078125 54.6875 
L 18.109375 54.6875 
L 18.109375 46.1875 
Q 21.34375 51.125 25.703125 53.5625 
Q 30.078125 56 35.796875 56 
Q 45.21875 56 50.046875 50.171875 
Q 54.890625 44.34375 54.890625 33.015625 
z
" id="DejaVuSans-110"/>
     </defs>
     <g transform="translate(231.585438 274.090402)scale(0.11 -0.11)">
      <use xlink:href="#DejaVuSans-82"/>
      <use x="69.419922" xlink:href="#DejaVuSans-101"/>
      <use x="130.943359" xlink:href="#DejaVuSans-115"/>
      <use x="183.042969" xlink:href="#DejaVuSans-111"/>
      <use x="244.224609" xlink:href="#DejaVuSans-108"/>
      <use x="272.007812" xlink:href="#DejaVuSans-117"/>
      <use x="335.386719" xlink:href="#DejaVuSans-116"/>
      <use x="374.595703" xlink:href="#DejaVuSans-105"/>
      <use x="402.378906" xlink:href="#DejaVuSans-111"/>
      <use x="463.560547" xlink:href="#DejaVuSans-110"/>
     </g>
    </g>
   </g>
   <g id="matplotlib.axis_2">
    <g id="ytick_1">
     <g id="line2d_15">
      <path clip-path="url(#p72d8d36910)" d="M 44.567 237.785371 
L 490.967 237.785371 
" style="fill:none;stroke:#e5e5e5;stroke-width:0.8;"/>
     </g>
     <g id="line2d_16">
      <path d="M 44.567 237.785371 
" style="fill:none;stroke:#000000;stroke-width:1.5;"/>
      <defs>
       <path d="M 0 0 
L -2.75 0 
" id="m2d554464e8" style="stroke:#000000;"/>
      </defs>
      <g>
       <use style="stroke:#000000;" x="44.567" xlink:href="#m2d554464e8" y="237.785371"/>
      </g>
     </g>
     <g id="text_6">
      <!-- 0 -->
      <defs>
       <path d="M 31.78125 66.40625 
Q 24.171875 66.40625 20.328125 58.90625 
Q 16.5 51.421875 16.5 36.375 
Q 16.5 21.390625 20.328125 13.890625 
Q 24.171875 6.390625 31.78125 6.390625 
Q 39.453125 6.390625 43.28125 13.890625 
Q 47.125 21.390625 47.125 36.375 
Q 47.125 51.421875 43.28125 58.90625 
Q 39.453125 66.40625 31.78125 66.40625 
z
M 31.78125 74.21875 
Q 44.046875 74.21875 50.515625 64.515625 
Q 56.984375 54.828125 56.984375 36.375 
Q 56.984375 17.96875 50.515625 8.265625 
Q 44.046875 -1.421875 31.78125 -1.421875 
Q 19.53125 -1.421875 13.0625 8.265625 
Q 6.59375 17.96875 6.59375 36.375 
Q 6.59375 54.828125 13.0625 64.515625 
Q 19.53125 74.21875 31.78125 74.21875 
z
" id="DejaVuSans-48"/>
      </defs>
      <g style="fill:#4d4d4d;" transform="translate(34.018 240.213621)scale(0.088 -0.088)">
       <use xlink:href="#DejaVuSans-48"/>
      </g>
     </g>
    </g>
    <g id="ytick_2">
     <g id="line2d_17">
      <path clip-path="url(#p72d8d36910)" d="M 44.567 187.385371 
L 490.967 187.385371 
" style="fill:none;stroke:#e5e5e5;stroke-width:0.8;"/>
     </g>
     <g id="line2d_18">
      <path d="M 44.567 187.385371 
" style="fill:none;stroke:#000000;stroke-width:1.5;"/>
      <g>
       <use style="stroke:#000000;" x="44.567" xlink:href="#m2d554464e8" y="187.385371"/>
      </g>
     </g>
     <g id="text_7">
      <!-- 25 -->
      <defs>
       <path d="M 10.796875 72.90625 
L 49.515625 72.90625 
L 49.515625 64.59375 
L 19.828125 64.59375 
L 19.828125 46.734375 
Q 21.96875 47.46875 24.109375 47.828125 
Q 26.265625 48.1875 28.421875 48.1875 
Q 40.625 48.1875 47.75 41.5 
Q 54.890625 34.8125 54.890625 23.390625 
Q 54.890625 11.625 47.5625 5.09375 
Q 40.234375 -1.421875 26.90625 -1.421875 
Q 22.3125 -1.421875 17.546875 -0.640625 
Q 12.796875 0.140625 7.71875 1.703125 
L 7.71875 11.625 
Q 12.109375 9.234375 16.796875 8.0625 
Q 21.484375 6.890625 26.703125 6.890625 
Q 35.15625 6.890625 40.078125 11.328125 
Q 45.015625 15.765625 45.015625 23.390625 
Q 45.015625 31 40.078125 35.4375 
Q 35.15625 39.890625 26.703125 39.890625 
Q 22.75 39.890625 18.8125 39.015625 
Q 14.890625 38.140625 10.796875 36.28125 
z
" id="DejaVuSans-53"/>
      </defs>
      <g style="fill:#4d4d4d;" transform="translate(28.419 189.813621)scale(0.088 -0.088)">
       <use xlink:href="#DejaVuSans-50"/>
       <use x="63.623047" xlink:href="#DejaVuSans-53"/>
      </g>
     </g>
    </g>
    <g id="ytick_3">
     <g id="line2d_19">
      <path clip-path="url(#p72d8d36910)" d="M 44.567 136.985371 
L 490.967 136.985371 
" style="fill:none;stroke:#e5e5e5;stroke-width:0.8;"/>
     </g>
     <g id="line2d_20">
      <path d="M 44.567 136.985371 
" style="fill:none;stroke:#000000;stroke-width:1.5;"/>
      <g>
       <use style="stroke:#000000;" x="44.567" xlink:href="#m2d554464e8" y="136.985371"/>
      </g>
     </g>
     <g id="text_8">
      <!-- 50 -->
      <g style="fill:#4d4d4d;" transform="translate(28.419 139.413621)scale(0.088 -0.088)">
       <use xlink:href="#DejaVuSans-53"/>
       <use x="63.623047" xlink:href="#DejaVuSans-48"/>
      </g>
     </g>
    </g>
    <g id="ytick_4">
     <g id="line2d_21">
      <path clip-path="url(#p72d8d36910)" d="M 44.567 86.585371 
L 490.967 86.585371 
" style="fill:none;stroke:#e5e5e5;stroke-width:0.8;"/>
     </g>
     <g id="line2d_22">
      <path d="M 44.567 86.585371 
" style="fill:none;stroke:#000000;stroke-width:1.5;"/>
      <g>
       <use style="stroke:#000000;" x="44.567" xlink:href="#m2d554464e8" y="86.585371"/>
      </g>
     </g>
     <g id="text_9">
      <!-- 75 -->
      <defs>
       <path d="M 8.203125 72.90625 
L 55.078125 72.90625 
L 55.078125 68.703125 
L 28.609375 0 
L 18.3125 0 
L 43.21875 64.59375 
L 8.203125 64.59375 
z
" id="DejaVuSans-55"/>
      </defs>
      <g style="fill:#4d4d4d;" transform="translate(28.419 89.013621)scale(0.088 -0.088)">
       <use xlink:href="#DejaVuSans-55"/>
       <use x="63.623047" xlink:href="#DejaVuSans-53"/>
      </g>
     </g>
    </g>
    <g id="ytick_5">
     <g id="line2d_23">
      <path clip-path="url(#p72d8d36910)" d="M 44.567 36.185371 
L 490.967 36.185371 
" style="fill:none;stroke:#e5e5e5;stroke-width:0.8;"/>
     </g>
     <g id="line2d_24">
      <path d="M 44.567 36.185371 
" style="fill:none;stroke:#000000;stroke-width:1.5;"/>
      <g>
       <use style="stroke:#000000;" x="44.567" xlink:href="#m2d554464e8" y="36.185371"/>
      </g>
     </g>
     <g id="text_10">
      <!-- 100 -->
      <g style="fill:#4d4d4d;" transform="translate(22.82 38.613621)scale(0.088 -0.088)">
       <use xlink:href="#DejaVuSans-49"/>
       <use x="63.623047" xlink:href="#DejaVuSans-48"/>
       <use x="127.246094" xlink:href="#DejaVuSans-48"/>
      </g>
     </g>
    </g>
    <g id="ytick_6">
     <g id="line2d_25">
      <path clip-path="url(#p72d8d36910)" d="M 44.567 212.585371 
L 490.967 212.585371 
" style="fill:none;stroke:#fafafa;"/>
     </g>
     <g id="line2d_26">
      <path d="M 44.567 212.585371 
" style="fill:none;stroke:#000000;stroke-width:1.5;"/>
      <defs>
       <path d="M 0 0 
L -1.375 0 
" id="m9f6edc0311" style="stroke:#000000;"/>
      </defs>
      <g>
       <use style="stroke:#000000;" x="44.567" xlink:href="#m9f6edc0311" y="212.585371"/>
      </g>
     </g>
    </g>
    <g id="ytick_7">
     <g id="line2d_27">
      <path clip-path="url(#p72d8d36910)" d="M 44.567 162.185371 
L 490.967 162.185371 
" style="fill:none;stroke:#fafafa;"/>
     </g>
     <g id="line2d_28">
      <path d="M 44.567 162.185371 
" style="fill:none;stroke:#000000;stroke-width:1.5;"/>
      <g>
       <use style="stroke:#000000;" x="44.567" xlink:href="#m9f6edc0311" y="162.185371"/>
      </g>
     </g>
    </g>
    <g id="ytick_8">
     <g id="line2d_29">
      <path clip-path="url(#p72d8d36910)" d="M 44.567 111.785371 
L 490.967 111.785371 
" style="fill:none;stroke:#fafafa;"/>
     </g>
     <g id="line2d_30">
      <path d="M 44.567 111.785371 
" style="fill:none;stroke:#000000;stroke-width:1.5;"/>
      <g>
       <use style="stroke:#000000;" x="44.567" xlink:href="#m9f6edc0311" y="111.785371"/>
      </g>
     </g>
    </g>
    <g id="ytick_9">
     <g id="line2d_31">
      <path clip-path="url(#p72d8d36910)" d="M 44.567 61.385371 
L 490.967 61.385371 
" style="fill:none;stroke:#fafafa;"/>
     </g>
     <g id="line2d_32">
      <path d="M 44.567 61.385371 
" style="fill:none;stroke:#000000;stroke-width:1.5;"/>
      <g>
       <use style="stroke:#000000;" x="44.567" xlink:href="#m9f6edc0311" y="61.385371"/>
      </g>
     </g>
    </g>
    <g id="text_11">
     <!-- $P_{Q1N}$ [%] -->
     <defs>
      <path d="M 16.890625 72.90625 
L 39.703125 72.90625 
Q 49.65625 72.90625 54.875 68.265625 
Q 60.109375 63.625 60.109375 54.6875 
Q 60.109375 42.671875 52.390625 35.984375 
Q 44.671875 29.296875 30.71875 29.296875 
L 18.3125 29.296875 
L 12.59375 0 
L 2.6875 0 
z
M 25.203125 64.796875 
L 19.921875 37.40625 
L 32.328125 37.40625 
Q 40.71875 37.40625 45.203125 41.703125 
Q 49.703125 46 49.703125 54 
Q 49.703125 59.125 46.65625 61.953125 
Q 43.609375 64.796875 38.09375 64.796875 
z
" id="DejaVuSans-Oblique-80"/>
      <path d="M 36.078125 -1.3125 
Q 35.546875 -1.375 34.953125 -1.390625 
Q 34.375 -1.421875 33.203125 -1.421875 
Q 19.53125 -1.421875 11.8125 6.421875 
Q 4.109375 14.265625 4.109375 28.078125 
Q 4.109375 36.234375 7.0625 44.4375 
Q 10.015625 52.640625 15.28125 59.1875 
Q 21.390625 66.703125 29.03125 70.453125 
Q 36.671875 74.21875 45.90625 74.21875 
Q 59.28125 74.21875 66.984375 66.328125 
Q 74.703125 58.453125 74.703125 44.828125 
Q 74.703125 30.125 66.640625 17.921875 
Q 58.59375 5.71875 45.609375 0.6875 
L 55.515625 -12.890625 
L 44.484375 -12.890625 
z
M 45.609375 66.21875 
Q 37.5 66.21875 31.296875 62.28125 
Q 25.09375 58.34375 20.515625 50.296875 
Q 17.578125 45.171875 16.03125 39.40625 
Q 14.5 33.640625 14.5 27.78125 
Q 14.5 17.625 19.359375 12.109375 
Q 24.21875 6.59375 33.109375 6.59375 
Q 41.109375 6.59375 47.375 10.5625 
Q 53.65625 14.546875 58.109375 22.40625 
Q 61.078125 27.6875 62.640625 33.46875 
Q 64.203125 39.265625 64.203125 45.015625 
Q 64.203125 55.125 59.3125 60.671875 
Q 54.4375 66.21875 45.609375 66.21875 
z
" id="DejaVuSans-Oblique-81"/>
      <path d="M 16.890625 72.90625 
L 30.171875 72.90625 
L 50.296875 10.40625 
L 62.5 72.90625 
L 72.125 72.90625 
L 57.90625 0 
L 44.578125 0 
L 24.515625 62.890625 
L 12.3125 0 
L 2.6875 0 
z
" id="DejaVuSans-Oblique-78"/>
      <path id="DejaVuSans-32"/>
      <path d="M 8.59375 75.984375 
L 29.296875 75.984375 
L 29.296875 69 
L 17.578125 69 
L 17.578125 -6.203125 
L 29.296875 -6.203125 
L 29.296875 -13.1875 
L 8.59375 -13.1875 
z
" id="DejaVuSans-91"/>
      <path d="M 72.703125 32.078125 
Q 68.453125 32.078125 66.03125 28.46875 
Q 63.625 24.859375 63.625 18.40625 
Q 63.625 12.0625 66.03125 8.421875 
Q 68.453125 4.78125 72.703125 4.78125 
Q 76.859375 4.78125 79.265625 8.421875 
Q 81.6875 12.0625 81.6875 18.40625 
Q 81.6875 24.8125 79.265625 28.4375 
Q 76.859375 32.078125 72.703125 32.078125 
z
M 72.703125 38.28125 
Q 80.421875 38.28125 84.953125 32.90625 
Q 89.5 27.546875 89.5 18.40625 
Q 89.5 9.28125 84.9375 3.921875 
Q 80.375 -1.421875 72.703125 -1.421875 
Q 64.890625 -1.421875 60.34375 3.921875 
Q 55.8125 9.28125 55.8125 18.40625 
Q 55.8125 27.59375 60.375 32.9375 
Q 64.9375 38.28125 72.703125 38.28125 
z
M 22.3125 68.015625 
Q 18.109375 68.015625 15.6875 64.375 
Q 13.28125 60.75 13.28125 54.390625 
Q 13.28125 47.953125 15.671875 44.328125 
Q 18.0625 40.71875 22.3125 40.71875 
Q 26.5625 40.71875 28.96875 44.328125 
Q 31.390625 47.953125 31.390625 54.390625 
Q 31.390625 60.6875 28.953125 64.34375 
Q 26.515625 68.015625 22.3125 68.015625 
z
M 66.40625 74.21875 
L 74.21875 74.21875 
L 28.609375 -1.421875 
L 20.796875 -1.421875 
z
M 22.3125 74.21875 
Q 30.03125 74.21875 34.609375 68.875 
Q 39.203125 63.53125 39.203125 54.390625 
Q 39.203125 45.171875 34.640625 39.84375 
Q 30.078125 34.515625 22.3125 34.515625 
Q 14.546875 34.515625 10.03125 39.859375 
Q 5.515625 45.21875 5.515625 54.390625 
Q 5.515625 63.484375 10.046875 68.84375 
Q 14.59375 74.21875 22.3125 74.21875 
z
" id="DejaVuSans-37"/>
      <path d="M 30.421875 75.984375 
L 30.421875 -13.1875 
L 9.71875 -13.1875 
L 9.71875 -6.203125 
L 21.390625 -6.203125 
L 21.390625 69 
L 9.71875 69 
L 9.71875 75.984375 
z
" id="DejaVuSans-93"/>
     </defs>
     <g transform="translate(15.56 158.645371)rotate(-90)scale(0.11 -0.11)">
      <use transform="translate(0 0.015625)" xlink:href="#DejaVuSans-Oblique-80"/>
      <use transform="translate(60.302734 -16.390625)scale(0.7)" xlink:href="#DejaVuSans-Oblique-81"/>
      <use transform="translate(115.400391 -16.390625)scale(0.7)" xlink:href="#DejaVuSans-49"/>
      <use transform="translate(159.936523 -16.390625)scale(0.7)" xlink:href="#DejaVuSans-Oblique-78"/>
      <use transform="translate(215.03418 0.015625)" xlink:href="#DejaVuSans-32"/>
      <use transform="translate(246.821289 0.015625)" xlink:href="#DejaVuSans-91"/>
      <use transform="translate(285.834961 0.015625)" xlink:href="#DejaVuSans-37"/>
      <use transform="translate(380.854492 0.015625)" xlink:href="#DejaVuSans-93"/>
     </g>
    </g>
   </g>
   <g id="PathCollection_1">
    <path clip-path="url(#p72d8d36910)" d="M 64.857909 94.181168 
C 65.327969 94.181168 65.77884 93.994411 66.111223 93.662028 
C 66.443606 93.329645 66.630363 92.878774 66.630363 92.408714 
C 66.630363 91.938654 66.443606 91.487782 66.111223 91.1554 
C 65.77884 90.823017 65.327969 90.63626 64.857909 90.63626 
C 64.387849 90.63626 63.936978 90.823017 63.604595 91.1554 
C 63.272212 91.487782 63.085455 91.938654 63.085455 92.408714 
C 63.085455 92.878774 63.272212 93.329645 63.604595 93.662028 
C 63.936978 93.994411 64.387849 94.181168 64.857909 94.181168 
z
" style="stroke:#000000;stroke-width:0.886227;"/>
    <path clip-path="url(#p72d8d36910)" d="M 78.385182 95.708629 
C 78.855242 95.708629 79.306113 95.521872 79.638496 95.189489 
C 79.970879 94.857107 80.157636 94.406236 80.157636 93.936175 
C 80.157636 93.466115 79.970879 93.015244 79.638496 92.682861 
C 79.306113 92.350478 78.855242 92.163721 78.385182 92.163721 
C 77.915122 92.163721 77.46425 92.350478 77.131868 92.682861 
C 76.799485 93.015244 76.612728 93.466115 76.612728 93.936175 
C 76.612728 94.406236 76.799485 94.857107 77.131868 95.189489 
C 77.46425 95.521872 77.915122 95.708629 78.385182 95.708629 
z
" style="stroke:#000000;stroke-width:0.886227;"/>
    <path clip-path="url(#p72d8d36910)" d="M 91.912455 92.049386 
C 92.382515 92.049386 92.833386 91.862629 93.165769 91.530247 
C 93.498151 91.197864 93.684908 90.746993 93.684908 90.276932 
C 93.684908 89.806872 93.498151 89.356001 93.165769 89.023618 
C 92.833386 88.691236 92.382515 88.504479 91.912455 88.504479 
C 91.442394 88.504479 90.991523 88.691236 90.65914 89.023618 
C 90.326758 89.356001 90.140001 89.806872 90.140001 90.276932 
C 90.140001 90.746993 90.326758 91.197864 90.65914 91.530247 
C 90.991523 91.862629 91.442394 92.049386 91.912455 92.049386 
z
" style="stroke:#000000;stroke-width:0.886227;"/>
    <path clip-path="url(#p72d8d36910)" d="M 105.439727 91.525501 
C 105.909788 91.525501 106.360659 91.338744 106.693041 91.006362 
C 107.025424 90.673979 107.212181 90.223108 107.212181 89.753047 
C 107.212181 89.282987 107.025424 88.832116 106.693041 88.499733 
C 106.360659 88.167351 105.909788 87.980594 105.439727 87.980594 
C 104.969667 87.980594 104.518796 88.167351 104.186413 88.499733 
C 103.85403 88.832116 103.667273 89.282987 103.667273 89.753047 
C 103.667273 90.223108 103.85403 90.673979 104.186413 91.006362 
C 104.518796 91.338744 104.969667 91.525501 105.439727 91.525501 
z
" style="stroke:#000000;stroke-width:0.886227;"/>
    <path clip-path="url(#p72d8d36910)" d="M 118.967 89.565855 
C 119.43706 89.565855 119.887931 89.379098 120.220314 89.046715 
C 120.552697 88.714332 120.739454 88.263461 120.739454 87.793401 
C 120.739454 87.323341 120.552697 86.87247 120.220314 86.540087 
C 119.887931 86.207704 119.43706 86.020947 118.967 86.020947 
C 118.49694 86.020947 118.046069 86.207704 117.713686 86.540087 
C 117.381303 86.87247 117.194546 87.323341 117.194546 87.793401 
C 117.194546 88.263461 117.381303 88.714332 117.713686 89.046715 
C 118.046069 89.379098 118.49694 89.565855 118.967 89.565855 
z
" style="stroke:#000000;stroke-width:0.886227;"/>
    <path clip-path="url(#p72d8d36910)" d="M 132.494273 95.700047 
C 132.964333 95.700047 133.415204 95.51329 133.747587 95.180907 
C 134.07997 94.848524 134.266727 94.397653 134.266727 93.927593 
C 134.266727 93.457533 134.07997 93.006662 133.747587 92.674279 
C 133.415204 92.341896 132.964333 92.155139 132.494273 92.155139 
C 132.024212 92.155139 131.573341 92.341896 131.240959 92.674279 
C 130.908576 93.006662 130.721819 93.457533 130.721819 93.927593 
C 130.721819 94.397653 130.908576 94.848524 131.240959 95.180907 
C 131.573341 95.51329 132.024212 95.700047 132.494273 95.700047 
z
" style="stroke:#000000;stroke-width:0.886227;"/>
    <path clip-path="url(#p72d8d36910)" d="M 146.021545 105.806951 
C 146.491606 105.806951 146.942477 105.620194 147.27486 105.287811 
C 147.607242 104.955429 147.793999 104.504558 147.793999 104.034497 
C 147.793999 103.564437 147.607242 103.113566 147.27486 102.781183 
C 146.942477 102.4488 146.491606 102.262043 146.021545 102.262043 
C 145.551485 102.262043 145.100614 102.4488 144.768231 102.781183 
C 144.435849 103.113566 144.249092 103.564437 144.249092 104.034497 
C 144.249092 104.504558 144.435849 104.955429 144.768231 105.287811 
C 145.100614 105.620194 145.551485 105.806951 146.021545 105.806951 
z
" style="stroke:#000000;stroke-width:0.886227;"/>
    <path clip-path="url(#p72d8d36910)" d="M 159.548818 118.157119 
C 160.018878 118.157119 160.46975 117.970362 160.802132 117.637979 
C 161.134515 117.305596 161.321272 116.854725 161.321272 116.384665 
C 161.321272 115.914605 161.134515 115.463734 160.802132 115.131351 
C 160.46975 114.798968 160.018878 114.612211 159.548818 114.612211 
C 159.078758 114.612211 158.627887 114.798968 158.295504 115.131351 
C 157.963121 115.463734 157.776364 115.914605 157.776364 116.384665 
C 157.776364 116.854725 157.963121 117.305596 158.295504 117.637979 
C 158.627887 117.970362 159.078758 118.157119 159.548818 118.157119 
z
" style="stroke:#000000;stroke-width:0.886227;"/>
    <path clip-path="url(#p72d8d36910)" d="M 173.076091 127.736494 
C 173.546151 127.736494 173.997022 127.549737 174.329405 127.217354 
C 174.661788 126.884972 174.848545 126.4341 174.848545 125.96404 
C 174.848545 125.49398 174.661788 125.043109 174.329405 124.710726 
C 173.997022 124.378343 173.546151 124.191586 173.076091 124.191586 
C 172.606031 124.191586 172.15516 124.378343 171.822777 124.710726 
C 171.490394 125.043109 171.303637 125.49398 171.303637 125.96404 
C 171.303637 126.4341 171.490394 126.884972 171.822777 127.217354 
C 172.15516 127.549737 172.606031 127.736494 173.076091 127.736494 
z
" style="stroke:#000000;stroke-width:0.886227;"/>
    <path clip-path="url(#p72d8d36910)" d="M 186.603364 135.857634 
C 187.073424 135.857634 187.524295 135.670877 187.856678 135.338494 
C 188.189061 135.006111 188.375817 134.55524 188.375817 134.08518 
C 188.375817 133.61512 188.189061 133.164248 187.856678 132.831866 
C 187.524295 132.499483 187.073424 132.312726 186.603364 132.312726 
C 186.133303 132.312726 185.682432 132.499483 185.350049 132.831866 
C 185.017667 133.164248 184.83091 133.61512 184.83091 134.08518 
C 184.83091 134.55524 185.017667 135.006111 185.350049 135.338494 
C 185.682432 135.670877 186.133303 135.857634 186.603364 135.857634 
z
" style="stroke:#000000;stroke-width:0.886227;"/>
    <path clip-path="url(#p72d8d36910)" d="M 200.130636 152.188971 
C 200.600697 152.188971 201.051568 152.002214 201.383951 151.669831 
C 201.716333 151.337448 201.90309 150.886577 201.90309 150.416517 
C 201.90309 149.946457 201.716333 149.495586 201.383951 149.163203 
C 201.051568 148.83082 200.600697 148.644063 200.130636 148.644063 
C 199.660576 148.644063 199.209705 148.83082 198.877322 149.163203 
C 198.544939 149.495586 198.358183 149.946457 198.358183 150.416517 
C 198.358183 150.886577 198.544939 151.337448 198.877322 151.669831 
C 199.209705 152.002214 199.660576 152.188971 200.130636 152.188971 
z
" style="stroke:#000000;stroke-width:0.886227;"/>
    <path clip-path="url(#p72d8d36910)" d="M 213.657909 143.330505 
C 214.127969 143.330505 214.57884 143.143748 214.911223 142.811366 
C 215.243606 142.478983 215.430363 142.028112 215.430363 141.558051 
C 215.430363 141.087991 215.243606 140.63712 214.911223 140.304737 
C 214.57884 139.972354 214.127969 139.785598 213.657909 139.785598 
C 213.187849 139.785598 212.736978 139.972354 212.404595 140.304737 
C 212.072212 140.63712 211.885455 141.087991 211.885455 141.558051 
C 211.885455 142.028112 212.072212 142.478983 212.404595 142.811366 
C 212.736978 143.143748 213.187849 143.330505 213.657909 143.330505 
z
" style="stroke:#000000;stroke-width:0.886227;"/>
    <path clip-path="url(#p72d8d36910)" d="M 227.185182 150.777161 
C 227.655242 150.777161 228.106113 150.590405 228.438496 150.258022 
C 228.770879 149.925639 228.957636 149.474768 228.957636 149.004708 
C 228.957636 148.534647 228.770879 148.083776 228.438496 147.751393 
C 228.106113 147.419011 227.655242 147.232254 227.185182 147.232254 
C 226.715122 147.232254 226.26425 147.419011 225.931868 147.751393 
C 225.599485 148.083776 225.412728 148.534647 225.412728 149.004708 
C 225.412728 149.474768 225.599485 149.925639 225.931868 150.258022 
C 226.26425 150.590405 226.715122 150.777161 227.185182 150.777161 
z
" style="stroke:#000000;stroke-width:0.886227;"/>
    <path clip-path="url(#p72d8d36910)" d="M 240.712455 150.73582 
C 241.182515 150.73582 241.633386 150.549063 241.965769 150.21668 
C 242.298151 149.884297 242.484908 149.433426 242.484908 148.963366 
C 242.484908 148.493306 242.298151 148.042435 241.965769 147.710052 
C 241.633386 147.377669 241.182515 147.190912 240.712455 147.190912 
C 240.242394 147.190912 239.791523 147.377669 239.45914 147.710052 
C 239.126758 148.042435 238.940001 148.493306 238.940001 148.963366 
C 238.940001 149.433426 239.126758 149.884297 239.45914 150.21668 
C 239.791523 150.549063 240.242394 150.73582 240.712455 150.73582 
z
" style="stroke:#000000;stroke-width:0.886227;"/>
    <path clip-path="url(#p72d8d36910)" d="M 254.239727 168.034241 
C 254.709788 168.034241 255.160659 167.847484 255.493041 167.515101 
C 255.825424 167.182718 256.012181 166.731847 256.012181 166.261787 
C 256.012181 165.791727 255.825424 165.340856 255.493041 165.008473 
C 255.160659 164.67609 254.709788 164.489333 254.239727 164.489333 
C 253.769667 164.489333 253.318796 164.67609 252.986413 165.008473 
C 252.65403 165.340856 252.467273 165.791727 252.467273 166.261787 
C 252.467273 166.731847 252.65403 167.182718 252.986413 167.515101 
C 253.318796 167.847484 253.769667 168.034241 254.239727 168.034241 
z
" style="stroke:#000000;stroke-width:0.886227;"/>
    <path clip-path="url(#p72d8d36910)" d="M 267.767 174.051709 
C 268.23706 174.051709 268.687931 173.864952 269.020314 173.532569 
C 269.352697 173.200186 269.539454 172.749315 269.539454 172.279255 
C 269.539454 171.809195 269.352697 171.358324 269.020314 171.025941 
C 268.687931 170.693558 268.23706 170.506801 267.767 170.506801 
C 267.29694 170.506801 266.846069 170.693558 266.513686 171.025941 
C 266.181303 171.358324 265.994546 171.809195 265.994546 172.279255 
C 265.994546 172.749315 266.181303 173.200186 266.513686 173.532569 
C 266.846069 173.864952 267.29694 174.051709 267.767 174.051709 
z
" style="stroke:#000000;stroke-width:0.886227;"/>
    <path clip-path="url(#p72d8d36910)" d="M 281.294273 159.534486 
C 281.764333 159.534486 282.215204 159.347729 282.547587 159.015346 
C 282.87997 158.682964 283.066727 158.232093 283.066727 157.762032 
C 283.066727 157.291972 282.87997 156.841101 282.547587 156.508718 
C 282.215204 156.176335 281.764333 155.989578 281.294273 155.989578 
C 280.824212 155.989578 280.373341 156.176335 280.040959 156.508718 
C 279.708576 156.841101 279.521819 157.291972 279.521819 157.762032 
C 279.521819 158.232093 279.708576 158.682964 280.040959 159.015346 
C 280.373341 159.347729 280.824212 159.534486 281.294273 159.534486 
z
" style="stroke:#000000;stroke-width:0.886227;"/>
    <path clip-path="url(#p72d8d36910)" d="M 294.821545 173.707122 
C 295.291606 173.707122 295.742477 173.520366 296.07486 173.187983 
C 296.407242 172.8556 296.593999 172.404729 296.593999 171.934669 
C 296.593999 171.464608 296.407242 171.013737 296.07486 170.681354 
C 295.742477 170.348972 295.291606 170.162215 294.821545 170.162215 
C 294.351485 170.162215 293.900614 170.348972 293.568231 170.681354 
C 293.235849 171.013737 293.049092 171.464608 293.049092 171.934669 
C 293.049092 172.404729 293.235849 172.8556 293.568231 173.187983 
C 293.900614 173.520366 294.351485 173.707122 294.821545 173.707122 
z
" style="stroke:#000000;stroke-width:0.886227;"/>
    <path clip-path="url(#p72d8d36910)" d="M 308.348818 166.4887 
C 308.818878 166.4887 309.26975 166.301943 309.602132 165.96956 
C 309.934515 165.637177 310.121272 165.186306 310.121272 164.716246 
C 310.121272 164.246185 309.934515 163.795314 309.602132 163.462932 
C 309.26975 163.130549 308.818878 162.943792 308.348818 162.943792 
C 307.878758 162.943792 307.427887 163.130549 307.095504 163.462932 
C 306.763121 163.795314 306.576364 164.246185 306.576364 164.716246 
C 306.576364 165.186306 306.763121 165.637177 307.095504 165.96956 
C 307.427887 166.301943 307.878758 166.4887 308.348818 166.4887 
z
" style="stroke:#000000;stroke-width:0.886227;"/>
    <path clip-path="url(#p72d8d36910)" d="M 321.876091 168.962694 
C 322.346151 168.962694 322.797022 168.775937 323.129405 168.443555 
C 323.461788 168.111172 323.648545 167.660301 323.648545 167.19024 
C 323.648545 166.72018 323.461788 166.269309 323.129405 165.936926 
C 322.797022 165.604544 322.346151 165.417787 321.876091 165.417787 
C 321.406031 165.417787 320.95516 165.604544 320.622777 165.936926 
C 320.290394 166.269309 320.103637 166.72018 320.103637 167.19024 
C 320.103637 167.660301 320.290394 168.111172 320.622777 168.443555 
C 320.95516 168.775937 321.406031 168.962694 321.876091 168.962694 
z
" style="stroke:#000000;stroke-width:0.886227;"/>
    <path clip-path="url(#p72d8d36910)" d="M 335.403364 160.050667 
C 335.873424 160.050667 336.324295 159.86391 336.656678 159.531527 
C 336.989061 159.199144 337.175817 158.748273 337.175817 158.278213 
C 337.175817 157.808152 336.989061 157.357281 336.656678 157.024899 
C 336.324295 156.692516 335.873424 156.505759 335.403364 156.505759 
C 334.933303 156.505759 334.482432 156.692516 334.150049 157.024899 
C 333.817667 157.357281 333.63091 157.808152 333.63091 158.278213 
C 333.63091 158.748273 333.817667 159.199144 334.150049 159.531527 
C 334.482432 159.86391 334.933303 160.050667 335.403364 160.050667 
z
" style="stroke:#000000;stroke-width:0.886227;"/>
    <path clip-path="url(#p72d8d36910)" d="M 348.930636 176.828774 
C 349.400697 176.828774 349.851568 176.642017 350.183951 176.309634 
C 350.516333 175.977252 350.70309 175.52638 350.70309 175.05632 
C 350.70309 174.58626 350.516333 174.135389 350.183951 173.803006 
C 349.851568 173.470623 349.400697 173.283866 348.930636 173.283866 
C 348.460576 173.283866 348.009705 173.470623 347.677322 173.803006 
C 347.344939 174.135389 347.158183 174.58626 347.158183 175.05632 
C 347.158183 175.52638 347.344939 175.977252 347.677322 176.309634 
C 348.009705 176.642017 348.460576 176.828774 348.930636 176.828774 
z
" style="stroke:#000000;stroke-width:0.886227;"/>
    <path clip-path="url(#p72d8d36910)" d="M 362.457909 175.5074 
C 362.927969 175.5074 363.37884 175.320643 363.711223 174.988261 
C 364.043606 174.655878 364.230363 174.205007 364.230363 173.734946 
C 364.230363 173.264886 364.043606 172.814015 363.711223 172.481632 
C 363.37884 172.14925 362.927969 171.962493 362.457909 171.962493 
C 361.987849 171.962493 361.536978 172.14925 361.204595 172.481632 
C 360.872212 172.814015 360.685455 173.264886 360.685455 173.734946 
C 360.685455 174.205007 360.872212 174.655878 361.204595 174.988261 
C 361.536978 175.320643 361.987849 175.5074 362.457909 175.5074 
z
" style="stroke:#000000;stroke-width:0.886227;"/>
    <path clip-path="url(#p72d8d36910)" d="M 375.985182 192.004491 
C 376.455242 192.004491 376.906113 191.817734 377.238496 191.485352 
C 377.570879 191.152969 377.757636 190.702098 377.757636 190.232037 
C 377.757636 189.761977 377.570879 189.311106 377.238496 188.978723 
C 376.906113 188.64634 376.455242 188.459584 375.985182 188.459584 
C 375.515122 188.459584 375.06425 188.64634 374.731868 188.978723 
C 374.399485 189.311106 374.212728 189.761977 374.212728 190.232037 
C 374.212728 190.702098 374.399485 191.152969 374.731868 191.485352 
C 375.06425 191.817734 375.515122 192.004491 375.985182 192.004491 
z
" style="stroke:#000000;stroke-width:0.886227;"/>
    <path clip-path="url(#p72d8d36910)" d="M 389.512455 188.416006 
C 389.982515 188.416006 390.433386 188.229249 390.765769 187.896867 
C 391.098151 187.564484 391.284908 187.113613 391.284908 186.643553 
C 391.284908 186.173492 391.098151 185.722621 390.765769 185.390238 
C 390.433386 185.057856 389.982515 184.871099 389.512455 184.871099 
C 389.042394 184.871099 388.591523 185.057856 388.25914 185.390238 
C 387.926758 185.722621 387.740001 186.173492 387.740001 186.643553 
C 387.740001 187.113613 387.926758 187.564484 388.25914 187.896867 
C 388.591523 188.229249 389.042394 188.416006 389.512455 188.416006 
z
" style="stroke:#000000;stroke-width:0.886227;"/>
    <path clip-path="url(#p72d8d36910)" d="M 403.039727 176.512006 
C 403.509788 176.512006 403.960659 176.325249 404.293041 175.992867 
C 404.625424 175.660484 404.812181 175.209613 404.812181 174.739553 
C 404.812181 174.269492 404.625424 173.818621 404.293041 173.486238 
C 403.960659 173.153856 403.509788 172.967099 403.039727 172.967099 
C 402.569667 172.967099 402.118796 173.153856 401.786413 173.486238 
C 401.45403 173.818621 401.267273 174.269492 401.267273 174.739553 
C 401.267273 175.209613 401.45403 175.660484 401.786413 175.992867 
C 402.118796 176.325249 402.569667 176.512006 403.039727 176.512006 
z
" style="stroke:#000000;stroke-width:0.886227;"/>
    <path clip-path="url(#p72d8d36910)" d="M 416.567 201.613582 
C 417.03706 201.613582 417.487931 201.426825 417.820314 201.094442 
C 418.152697 200.76206 418.339454 200.311189 418.339454 199.841128 
C 418.339454 199.371068 418.152697 198.920197 417.820314 198.587814 
C 417.487931 198.255431 417.03706 198.068674 416.567 198.068674 
C 416.09694 198.068674 415.646069 198.255431 415.313686 198.587814 
C 414.981303 198.920197 414.794546 199.371068 414.794546 199.841128 
C 414.794546 200.311189 414.981303 200.76206 415.313686 201.094442 
C 415.646069 201.426825 416.09694 201.613582 416.567 201.613582 
z
" style="stroke:#000000;stroke-width:0.886227;"/>
    <path clip-path="url(#p72d8d36910)" d="M 430.094273 210.896006 
C 430.564333 210.896006 431.015204 210.709249 431.347587 210.376867 
C 431.67997 210.044484 431.866727 209.593613 431.866727 209.123553 
C 431.866727 208.653492 431.67997 208.202621 431.347587 207.870238 
C 431.015204 207.537856 430.564333 207.351099 430.094273 207.351099 
C 429.624212 207.351099 429.173341 207.537856 428.840959 207.870238 
C 428.508576 208.202621 428.321819 208.653492 428.321819 209.123553 
C 428.321819 209.593613 428.508576 210.044484 428.840959 210.376867 
C 429.173341 210.709249 429.624212 210.896006 430.094273 210.896006 
z
" style="stroke:#000000;stroke-width:0.886227;"/>
    <path clip-path="url(#p72d8d36910)" d="M 443.621545 238.879037 
C 444.091606 238.879037 444.542477 238.69228 444.87486 238.359897 
C 445.207242 238.027514 445.393999 237.576643 445.393999 237.106583 
C 445.393999 236.636523 445.207242 236.185651 444.87486 235.853269 
C 444.542477 235.520886 444.091606 235.334129 443.621545 235.334129 
C 443.151485 235.334129 442.700614 235.520886 442.368231 235.853269 
C 442.035849 236.185651 441.849092 236.636523 441.849092 237.106583 
C 441.849092 237.576643 442.035849 238.027514 442.368231 238.359897 
C 442.700614 238.69228 443.151485 238.879037 443.621545 238.879037 
z
" style="stroke:#000000;stroke-width:0.886227;"/>
    <path clip-path="url(#p72d8d36910)" d="M 457.148818 161.768734 
C 457.618878 161.768734 458.06975 161.581977 458.402132 161.249594 
C 458.734515 160.917211 458.921272 160.46634 458.921272 159.99628 
C 458.921272 159.52622 458.734515 159.075348 458.402132 158.742966 
C 458.06975 158.410583 457.618878 158.223826 457.148818 158.223826 
C 456.678758 158.223826 456.227887 158.410583 455.895504 158.742966 
C 455.563121 159.075348 455.376364 159.52622 455.376364 159.99628 
C 455.376364 160.46634 455.563121 160.917211 455.895504 161.249594 
C 456.227887 161.581977 456.678758 161.768734 457.148818 161.768734 
z
" style="stroke:#000000;stroke-width:0.886227;"/>
    <path clip-path="url(#p72d8d36910)" d="M 470.676091 172.086309 
C 471.146151 172.086309 471.597022 171.899552 471.929405 171.56717 
C 472.261788 171.234787 472.448545 170.783916 472.448545 170.313856 
C 472.448545 169.843795 472.261788 169.392924 471.929405 169.060541 
C 471.597022 168.728159 471.146151 168.541402 470.676091 168.541402 
C 470.206031 168.541402 469.75516 168.728159 469.422777 169.060541 
C 469.090394 169.392924 468.903637 169.843795 468.903637 170.313856 
C 468.903637 170.783916 469.090394 171.234787 469.422777 171.56717 
C 469.75516 171.899552 470.206031 172.086309 470.676091 172.086309 
z
" style="stroke:#000000;stroke-width:0.886227;"/>
   </g>
   <g id="line2d_33">
    <path clip-path="url(#p72d8d36910)" d="M 64.857909 92.408714 
L 78.385182 93.936175 
L 91.912455 90.276932 
L 105.439727 89.753047 
L 118.967 87.793401 
L 132.494273 93.927593 
L 146.021545 104.034497 
L 159.548818 116.384665 
L 173.076091 125.96404 
L 186.603364 134.08518 
L 200.130636 150.416517 
L 213.657909 141.558051 
L 227.185182 149.004708 
L 240.712455 148.963366 
L 254.239727 166.261787 
L 267.767 172.279255 
L 281.294273 157.762032 
L 294.821545 171.934669 
L 308.348818 164.716246 
L 321.876091 167.19024 
L 335.403364 158.278213 
L 348.930636 175.05632 
L 362.457909 173.734946 
L 375.985182 190.232037 
L 389.512455 186.643553 
L 403.039727 174.739553 
L 416.567 199.841128 
L 430.094273 209.123553 
L 443.621545 237.106583 
L 457.148818 159.99628 
L 470.676091 170.313856 
" style="fill:none;stroke:#000000;stroke-width:0.886227;"/>
   </g>
  </g>
  <g id="text_12">
   <!-- Nucleic acids data without missing values -->
   <defs>
    <path d="M 9.8125 72.90625 
L 23.09375 72.90625 
L 55.421875 11.921875 
L 55.421875 72.90625 
L 64.984375 72.90625 
L 64.984375 0 
L 51.703125 0 
L 19.390625 60.984375 
L 19.390625 0 
L 9.8125 0 
z
" id="DejaVuSans-78"/>
    <path d="M 48.78125 52.59375 
L 48.78125 44.1875 
Q 44.96875 46.296875 41.140625 47.34375 
Q 37.3125 48.390625 33.40625 48.390625 
Q 24.65625 48.390625 19.8125 42.84375 
Q 14.984375 37.3125 14.984375 27.296875 
Q 14.984375 17.28125 19.8125 11.734375 
Q 24.65625 6.203125 33.40625 6.203125 
Q 37.3125 6.203125 41.140625 7.25 
Q 44.96875 8.296875 48.78125 10.40625 
L 48.78125 2.09375 
Q 45.015625 0.34375 40.984375 -0.53125 
Q 36.96875 -1.421875 32.421875 -1.421875 
Q 20.0625 -1.421875 12.78125 6.34375 
Q 5.515625 14.109375 5.515625 27.296875 
Q 5.515625 40.671875 12.859375 48.328125 
Q 20.21875 56 33.015625 56 
Q 37.15625 56 41.109375 55.140625 
Q 45.0625 54.296875 48.78125 52.59375 
z
" id="DejaVuSans-99"/>
    <path d="M 34.28125 27.484375 
Q 23.390625 27.484375 19.1875 25 
Q 14.984375 22.515625 14.984375 16.5 
Q 14.984375 11.71875 18.140625 8.90625 
Q 21.296875 6.109375 26.703125 6.109375 
Q 34.1875 6.109375 38.703125 11.40625 
Q 43.21875 16.703125 43.21875 25.484375 
L 43.21875 27.484375 
z
M 52.203125 31.203125 
L 52.203125 0 
L 43.21875 0 
L 43.21875 8.296875 
Q 40.140625 3.328125 35.546875 0.953125 
Q 30.953125 -1.421875 24.3125 -1.421875 
Q 15.921875 -1.421875 10.953125 3.296875 
Q 6 8.015625 6 15.921875 
Q 6 25.140625 12.171875 29.828125 
Q 18.359375 34.515625 30.609375 34.515625 
L 43.21875 34.515625 
L 43.21875 35.40625 
Q 43.21875 41.609375 39.140625 45 
Q 35.0625 48.390625 27.6875 48.390625 
Q 23 48.390625 18.546875 47.265625 
Q 14.109375 46.140625 10.015625 43.890625 
L 10.015625 52.203125 
Q 14.9375 54.109375 19.578125 55.046875 
Q 24.21875 56 28.609375 56 
Q 40.484375 56 46.34375 49.84375 
Q 52.203125 43.703125 52.203125 31.203125 
z
" id="DejaVuSans-97"/>
    <path d="M 45.40625 46.390625 
L 45.40625 75.984375 
L 54.390625 75.984375 
L 54.390625 0 
L 45.40625 0 
L 45.40625 8.203125 
Q 42.578125 3.328125 38.25 0.953125 
Q 33.9375 -1.421875 27.875 -1.421875 
Q 17.96875 -1.421875 11.734375 6.484375 
Q 5.515625 14.40625 5.515625 27.296875 
Q 5.515625 40.1875 11.734375 48.09375 
Q 17.96875 56 27.875 56 
Q 33.9375 56 38.25 53.625 
Q 42.578125 51.265625 45.40625 46.390625 
z
M 14.796875 27.296875 
Q 14.796875 17.390625 18.875 11.75 
Q 22.953125 6.109375 30.078125 6.109375 
Q 37.203125 6.109375 41.296875 11.75 
Q 45.40625 17.390625 45.40625 27.296875 
Q 45.40625 37.203125 41.296875 42.84375 
Q 37.203125 48.484375 30.078125 48.484375 
Q 22.953125 48.484375 18.875 42.84375 
Q 14.796875 37.203125 14.796875 27.296875 
z
" id="DejaVuSans-100"/>
    <path d="M 4.203125 54.6875 
L 13.1875 54.6875 
L 24.421875 12.015625 
L 35.59375 54.6875 
L 46.1875 54.6875 
L 57.421875 12.015625 
L 68.609375 54.6875 
L 77.59375 54.6875 
L 63.28125 0 
L 52.6875 0 
L 40.921875 44.828125 
L 29.109375 0 
L 18.5 0 
z
" id="DejaVuSans-119"/>
    <path d="M 54.890625 33.015625 
L 54.890625 0 
L 45.90625 0 
L 45.90625 32.71875 
Q 45.90625 40.484375 42.875 44.328125 
Q 39.84375 48.1875 33.796875 48.1875 
Q 26.515625 48.1875 22.3125 43.546875 
Q 18.109375 38.921875 18.109375 30.90625 
L 18.109375 0 
L 9.078125 0 
L 9.078125 75.984375 
L 18.109375 75.984375 
L 18.109375 46.1875 
Q 21.34375 51.125 25.703125 53.5625 
Q 30.078125 56 35.796875 56 
Q 45.21875 56 50.046875 50.171875 
Q 54.890625 44.34375 54.890625 33.015625 
z
" id="DejaVuSans-104"/>
    <path d="M 52 44.1875 
Q 55.375 50.25 60.0625 53.125 
Q 64.75 56 71.09375 56 
Q 79.640625 56 84.28125 50.015625 
Q 88.921875 44.046875 88.921875 33.015625 
L 88.921875 0 
L 79.890625 0 
L 79.890625 32.71875 
Q 79.890625 40.578125 77.09375 44.375 
Q 74.3125 48.1875 68.609375 48.1875 
Q 61.625 48.1875 57.5625 43.546875 
Q 53.515625 38.921875 53.515625 30.90625 
L 53.515625 0 
L 44.484375 0 
L 44.484375 32.71875 
Q 44.484375 40.625 41.703125 44.40625 
Q 38.921875 48.1875 33.109375 48.1875 
Q 26.21875 48.1875 22.15625 43.53125 
Q 18.109375 38.875 18.109375 30.90625 
L 18.109375 0 
L 9.078125 0 
L 9.078125 54.6875 
L 18.109375 54.6875 
L 18.109375 46.1875 
Q 21.1875 51.21875 25.484375 53.609375 
Q 29.78125 56 35.6875 56 
Q 41.65625 56 45.828125 52.96875 
Q 50 49.953125 52 44.1875 
z
" id="DejaVuSans-109"/>
    <path d="M 45.40625 27.984375 
Q 45.40625 37.75 41.375 43.109375 
Q 37.359375 48.484375 30.078125 48.484375 
Q 22.859375 48.484375 18.828125 43.109375 
Q 14.796875 37.75 14.796875 27.984375 
Q 14.796875 18.265625 18.828125 12.890625 
Q 22.859375 7.515625 30.078125 7.515625 
Q 37.359375 7.515625 41.375 12.890625 
Q 45.40625 18.265625 45.40625 27.984375 
z
M 54.390625 6.78125 
Q 54.390625 -7.171875 48.1875 -13.984375 
Q 42 -20.796875 29.203125 -20.796875 
Q 24.46875 -20.796875 20.265625 -20.09375 
Q 16.0625 -19.390625 12.109375 -17.921875 
L 12.109375 -9.1875 
Q 16.0625 -11.328125 19.921875 -12.34375 
Q 23.78125 -13.375 27.78125 -13.375 
Q 36.625 -13.375 41.015625 -8.765625 
Q 45.40625 -4.15625 45.40625 5.171875 
L 45.40625 9.625 
Q 42.625 4.78125 38.28125 2.390625 
Q 33.9375 0 27.875 0 
Q 17.828125 0 11.671875 7.65625 
Q 5.515625 15.328125 5.515625 27.984375 
Q 5.515625 40.671875 11.671875 48.328125 
Q 17.828125 56 27.875 56 
Q 33.9375 56 38.28125 53.609375 
Q 42.625 51.21875 45.40625 46.390625 
L 45.40625 54.6875 
L 54.390625 54.6875 
z
" id="DejaVuSans-103"/>
    <path d="M 2.984375 54.6875 
L 12.5 54.6875 
L 29.59375 8.796875 
L 46.6875 54.6875 
L 56.203125 54.6875 
L 35.6875 0 
L 23.484375 0 
z
" id="DejaVuSans-118"/>
   </defs>
   <g transform="translate(122.349594 17.229938)scale(0.132 -0.132)">
    <use xlink:href="#DejaVuSans-78"/>
    <use x="74.804688" xlink:href="#DejaVuSans-117"/>
    <use x="138.183594" xlink:href="#DejaVuSans-99"/>
    <use x="193.164062" xlink:href="#DejaVuSans-108"/>
    <use x="220.947266" xlink:href="#DejaVuSans-101"/>
    <use x="282.470703" xlink:href="#DejaVuSans-105"/>
    <use x="310.253906" xlink:href="#DejaVuSans-99"/>
    <use x="365.234375" xlink:href="#DejaVuSans-32"/>
    <use x="397.021484" xlink:href="#DejaVuSans-97"/>
    <use x="458.300781" xlink:href="#DejaVuSans-99"/>
    <use x="513.28125" xlink:href="#DejaVuSans-105"/>
    <use x="541.064453" xlink:href="#DejaVuSans-100"/>
    <use x="604.541016" xlink:href="#DejaVuSans-115"/>
    <use x="656.640625" xlink:href="#DejaVuSans-32"/>
    <use x="688.427734" xlink:href="#DejaVuSans-100"/>
    <use x="751.904297" xlink:href="#DejaVuSans-97"/>
    <use x="813.183594" xlink:href="#DejaVuSans-116"/>
    <use x="852.392578" xlink:href="#DejaVuSans-97"/>
    <use x="913.671875" xlink:href="#DejaVuSans-32"/>
    <use x="945.458984" xlink:href="#DejaVuSans-119"/>
    <use x="1027.246094" xlink:href="#DejaVuSans-105"/>
    <use x="1055.029297" xlink:href="#DejaVuSans-116"/>
    <use x="1094.238281" xlink:href="#DejaVuSans-104"/>
    <use x="1157.617188" xlink:href="#DejaVuSans-111"/>
    <use x="1218.798828" xlink:href="#DejaVuSans-117"/>
    <use x="1282.177734" xlink:href="#DejaVuSans-116"/>
    <use x="1321.386719" xlink:href="#DejaVuSans-32"/>
    <use x="1353.173828" xlink:href="#DejaVuSans-109"/>
    <use x="1450.585938" xlink:href="#DejaVuSans-105"/>
    <use x="1478.369141" xlink:href="#DejaVuSans-115"/>
    <use x="1530.46875" xlink:href="#DejaVuSans-115"/>
    <use x="1582.568359" xlink:href="#DejaVuSans-105"/>
    <use x="1610.351562" xlink:href="#DejaVuSans-110"/>
    <use x="1673.730469" xlink:href="#DejaVuSans-103"/>
    <use x="1737.207031" xlink:href="#DejaVuSans-32"/>
    <use x="1768.994141" xlink:href="#DejaVuSans-118"/>
    <use x="1828.173828" xlink:href="#DejaVuSans-97"/>
    <use x="1889.453125" xlink:href="#DejaVuSans-108"/>
    <use x="1917.236328" xlink:href="#DejaVuSans-117"/>
    <use x="1980.615234" xlink:href="#DejaVuSans-101"/>
    <use x="2042.138672" xlink:href="#DejaVuSans-115"/>
   </g>
  </g>
 </g>
 <defs>
  <clipPath id="p72d8d36910">
   <rect height="221.76" width="446.4" x="44.567" y="26.105371"/>
  </clipPath>
 </defs>
</svg>
