<?xml version="1.0" encoding="utf-8" standalone="no"?>
<!DOCTYPE svg PUBLIC "-//W3C//DTD SVG 1.1//EN"
  "http://www.w3.org/Graphics/SVG/1.1/DTD/svg11.dtd">
<!-- Created with matplotlib (https://matplotlib.org/) -->
<svg height="264.672687pt" version="1.1" viewBox="0 0 498.167 264.672687" width="498.167pt" xmlns="http://www.w3.org/2000/svg" xmlns:xlink="http://www.w3.org/1999/xlink">
 <defs>
  <style type="text/css">
*{stroke-linecap:butt;stroke-linejoin:round;}
  </style>
 </defs>
 <g id="figure_1">
  <g id="patch_1">
   <path d="M 0 264.672687 
L 498.167 264.672687 
L 498.167 0 
L 0 0 
z
" style="fill:#ffffff;stroke:#ffffff;stroke-linejoin:miter;"/>
  </g>
  <g id="axes_1">
   <g id="patch_2">
    <path d="M 44.567 228.96 
L 490.967 228.96 
L 490.967 7.2 
L 44.567 7.2 
z
" style="fill:#ffffff;"/>
   </g>
   <g id="matplotlib.axis_1">
    <g id="xtick_1">
     <g id="line2d_1">
      <path d="M 64.857909 228.96 
" style="fill:none;stroke:#000000;stroke-width:1.5;"/>
      <defs>
       <path d="M 0 0 
L 0 2.75 
" id="m2eef81cb33" style="stroke:#000000;"/>
      </defs>
      <g>
       <use style="stroke:#000000;" x="64.857909" xlink:href="#m2eef81cb33" y="228.96"/>
      </g>
     </g>
     <g id="text_1">
      <!-- 1970 -->
      <defs>
       <path d="M 12.40625 8.296875 
L 28.515625 8.296875 
L 28.515625 63.921875 
L 10.984375 60.40625 
L 10.984375 69.390625 
L 28.421875 72.90625 
L 38.28125 72.90625 
L 38.28125 8.296875 
L 54.390625 8.296875 
L 54.390625 0 
L 12.40625 0 
z
" id="DejaVuSans-49"/>
       <path d="M 10.984375 1.515625 
L 10.984375 10.5 
Q 14.703125 8.734375 18.5 7.8125 
Q 22.3125 6.890625 25.984375 6.890625 
Q 35.75 6.890625 40.890625 13.453125 
Q 46.046875 20.015625 46.78125 33.40625 
Q 43.953125 29.203125 39.59375 26.953125 
Q 35.25 24.703125 29.984375 24.703125 
Q 19.046875 24.703125 12.671875 31.3125 
Q 6.296875 37.9375 6.296875 49.421875 
Q 6.296875 60.640625 12.9375 67.421875 
Q 19.578125 74.21875 30.609375 74.21875 
Q 43.265625 74.21875 49.921875 64.515625 
Q 56.59375 54.828125 56.59375 36.375 
Q 56.59375 19.140625 48.40625 8.859375 
Q 40.234375 -1.421875 26.421875 -1.421875 
Q 22.703125 -1.421875 18.890625 -0.6875 
Q 15.09375 0.046875 10.984375 1.515625 
z
M 30.609375 32.421875 
Q 37.25 32.421875 41.125 36.953125 
Q 45.015625 41.5 45.015625 49.421875 
Q 45.015625 57.28125 41.125 61.84375 
Q 37.25 66.40625 30.609375 66.40625 
Q 23.96875 66.40625 20.09375 61.84375 
Q 16.21875 57.28125 16.21875 49.421875 
Q 16.21875 41.5 20.09375 36.953125 
Q 23.96875 32.421875 30.609375 32.421875 
z
" id="DejaVuSans-57"/>
       <path d="M 8.203125 72.90625 
L 55.078125 72.90625 
L 55.078125 68.703125 
L 28.609375 0 
L 18.3125 0 
L 43.21875 64.59375 
L 8.203125 64.59375 
z
" id="DejaVuSans-55"/>
       <path d="M 31.78125 66.40625 
Q 24.171875 66.40625 20.328125 58.90625 
Q 16.5 51.421875 16.5 36.375 
Q 16.5 21.390625 20.328125 13.890625 
Q 24.171875 6.390625 31.78125 6.390625 
Q 39.453125 6.390625 43.28125 13.890625 
Q 47.125 21.390625 47.125 36.375 
Q 47.125 51.421875 43.28125 58.90625 
Q 39.453125 66.40625 31.78125 66.40625 
z
M 31.78125 74.21875 
Q 44.046875 74.21875 50.515625 64.515625 
Q 56.984375 54.828125 56.984375 36.375 
Q 56.984375 17.96875 50.515625 8.265625 
Q 44.046875 -1.421875 31.78125 -1.421875 
Q 19.53125 -1.421875 13.0625 8.265625 
Q 6.59375 17.96875 6.59375 36.375 
Q 6.59375 54.828125 13.0625 64.515625 
Q 19.53125 74.21875 31.78125 74.21875 
z
" id="DejaVuSans-48"/>
      </defs>
      <g transform="translate(53.659909 240.596625)scale(0.088 -0.088)">
       <use xlink:href="#DejaVuSans-49"/>
       <use x="63.623047" xlink:href="#DejaVuSans-57"/>
       <use x="127.246094" xlink:href="#DejaVuSans-55"/>
       <use x="190.869141" xlink:href="#DejaVuSans-48"/>
      </g>
     </g>
    </g>
    <g id="xtick_2">
     <g id="line2d_2">
      <path d="M 146.021545 228.96 
" style="fill:none;stroke:#000000;stroke-width:1.5;"/>
      <g>
       <use style="stroke:#000000;" x="146.021545" xlink:href="#m2eef81cb33" y="228.96"/>
      </g>
     </g>
     <g id="text_2">
      <!-- 1980 -->
      <defs>
       <path d="M 31.78125 34.625 
Q 24.75 34.625 20.71875 30.859375 
Q 16.703125 27.09375 16.703125 20.515625 
Q 16.703125 13.921875 20.71875 10.15625 
Q 24.75 6.390625 31.78125 6.390625 
Q 38.8125 6.390625 42.859375 10.171875 
Q 46.921875 13.96875 46.921875 20.515625 
Q 46.921875 27.09375 42.890625 30.859375 
Q 38.875 34.625 31.78125 34.625 
z
M 21.921875 38.8125 
Q 15.578125 40.375 12.03125 44.71875 
Q 8.5 49.078125 8.5 55.328125 
Q 8.5 64.0625 14.71875 69.140625 
Q 20.953125 74.21875 31.78125 74.21875 
Q 42.671875 74.21875 48.875 69.140625 
Q 55.078125 64.0625 55.078125 55.328125 
Q 55.078125 49.078125 51.53125 44.71875 
Q 48 40.375 41.703125 38.8125 
Q 48.828125 37.15625 52.796875 32.3125 
Q 56.78125 27.484375 56.78125 20.515625 
Q 56.78125 9.90625 50.3125 4.234375 
Q 43.84375 -1.421875 31.78125 -1.421875 
Q 19.734375 -1.421875 13.25 4.234375 
Q 6.78125 9.90625 6.78125 20.515625 
Q 6.78125 27.484375 10.78125 32.3125 
Q 14.796875 37.15625 21.921875 38.8125 
z
M 18.3125 54.390625 
Q 18.3125 48.734375 21.84375 45.5625 
Q 25.390625 42.390625 31.78125 42.390625 
Q 38.140625 42.390625 41.71875 45.5625 
Q 45.3125 48.734375 45.3125 54.390625 
Q 45.3125 60.0625 41.71875 63.234375 
Q 38.140625 66.40625 31.78125 66.40625 
Q 25.390625 66.40625 21.84375 63.234375 
Q 18.3125 60.0625 18.3125 54.390625 
z
" id="DejaVuSans-56"/>
      </defs>
      <g transform="translate(134.823545 240.596625)scale(0.088 -0.088)">
       <use xlink:href="#DejaVuSans-49"/>
       <use x="63.623047" xlink:href="#DejaVuSans-57"/>
       <use x="127.246094" xlink:href="#DejaVuSans-56"/>
       <use x="190.869141" xlink:href="#DejaVuSans-48"/>
      </g>
     </g>
    </g>
    <g id="xtick_3">
     <g id="line2d_3">
      <path d="M 227.185182 228.96 
" style="fill:none;stroke:#000000;stroke-width:1.5;"/>
      <g>
       <use style="stroke:#000000;" x="227.185182" xlink:href="#m2eef81cb33" y="228.96"/>
      </g>
     </g>
     <g id="text_3">
      <!-- 1990 -->
      <g transform="translate(215.987182 240.596625)scale(0.088 -0.088)">
       <use xlink:href="#DejaVuSans-49"/>
       <use x="63.623047" xlink:href="#DejaVuSans-57"/>
       <use x="127.246094" xlink:href="#DejaVuSans-57"/>
       <use x="190.869141" xlink:href="#DejaVuSans-48"/>
      </g>
     </g>
    </g>
    <g id="xtick_4">
     <g id="line2d_4">
      <path d="M 308.348818 228.96 
" style="fill:none;stroke:#000000;stroke-width:1.5;"/>
      <g>
       <use style="stroke:#000000;" x="308.348818" xlink:href="#m2eef81cb33" y="228.96"/>
      </g>
     </g>
     <g id="text_4">
      <!-- 2000 -->
      <defs>
       <path d="M 19.1875 8.296875 
L 53.609375 8.296875 
L 53.609375 0 
L 7.328125 0 
L 7.328125 8.296875 
Q 12.9375 14.109375 22.625 23.890625 
Q 32.328125 33.6875 34.8125 36.53125 
Q 39.546875 41.84375 41.421875 45.53125 
Q 43.3125 49.21875 43.3125 52.78125 
Q 43.3125 58.59375 39.234375 62.25 
Q 35.15625 65.921875 28.609375 65.921875 
Q 23.96875 65.921875 18.8125 64.3125 
Q 13.671875 62.703125 7.8125 59.421875 
L 7.8125 69.390625 
Q 13.765625 71.78125 18.9375 73 
Q 24.125 74.21875 28.421875 74.21875 
Q 39.75 74.21875 46.484375 68.546875 
Q 53.21875 62.890625 53.21875 53.421875 
Q 53.21875 48.921875 51.53125 44.890625 
Q 49.859375 40.875 45.40625 35.40625 
Q 44.1875 33.984375 37.640625 27.21875 
Q 31.109375 20.453125 19.1875 8.296875 
z
" id="DejaVuSans-50"/>
      </defs>
      <g transform="translate(297.150818 240.596625)scale(0.088 -0.088)">
       <use xlink:href="#DejaVuSans-50"/>
       <use x="63.623047" xlink:href="#DejaVuSans-48"/>
       <use x="127.246094" xlink:href="#DejaVuSans-48"/>
       <use x="190.869141" xlink:href="#DejaVuSans-48"/>
      </g>
     </g>
    </g>
    <g id="xtick_5">
     <g id="line2d_5">
      <path d="M 389.512455 228.96 
" style="fill:none;stroke:#000000;stroke-width:1.5;"/>
      <g>
       <use style="stroke:#000000;" x="389.512455" xlink:href="#m2eef81cb33" y="228.96"/>
      </g>
     </g>
     <g id="text_5">
      <!-- 2010 -->
      <g transform="translate(378.314455 240.596625)scale(0.088 -0.088)">
       <use xlink:href="#DejaVuSans-50"/>
       <use x="63.623047" xlink:href="#DejaVuSans-48"/>
       <use x="127.246094" xlink:href="#DejaVuSans-49"/>
       <use x="190.869141" xlink:href="#DejaVuSans-48"/>
      </g>
     </g>
    </g>
    <g id="xtick_6">
     <g id="line2d_6">
      <path d="M 470.676091 228.96 
" style="fill:none;stroke:#000000;stroke-width:1.5;"/>
      <g>
       <use style="stroke:#000000;" x="470.676091" xlink:href="#m2eef81cb33" y="228.96"/>
      </g>
     </g>
     <g id="text_6">
      <!-- 2020 -->
      <g transform="translate(459.478091 240.596625)scale(0.088 -0.088)">
       <use xlink:href="#DejaVuSans-50"/>
       <use x="63.623047" xlink:href="#DejaVuSans-48"/>
       <use x="127.246094" xlink:href="#DejaVuSans-50"/>
       <use x="190.869141" xlink:href="#DejaVuSans-48"/>
      </g>
     </g>
    </g>
    <g id="xtick_7">
     <g id="line2d_7">
      <path d="M 105.439727 228.96 
" style="fill:none;stroke:#000000;stroke-width:1.5;"/>
      <defs>
       <path d="M 0 0 
L 0 1.375 
" id="m795f969665" style="stroke:#000000;"/>
      </defs>
      <g>
       <use style="stroke:#000000;" x="105.439727" xlink:href="#m795f969665" y="228.96"/>
      </g>
     </g>
    </g>
    <g id="xtick_8">
     <g id="line2d_8">
      <path d="M 186.603364 228.96 
" style="fill:none;stroke:#000000;stroke-width:1.5;"/>
      <g>
       <use style="stroke:#000000;" x="186.603364" xlink:href="#m795f969665" y="228.96"/>
      </g>
     </g>
    </g>
    <g id="xtick_9">
     <g id="line2d_9">
      <path d="M 267.767 228.96 
" style="fill:none;stroke:#000000;stroke-width:1.5;"/>
      <g>
       <use style="stroke:#000000;" x="267.767" xlink:href="#m795f969665" y="228.96"/>
      </g>
     </g>
    </g>
    <g id="xtick_10">
     <g id="line2d_10">
      <path d="M 348.930636 228.96 
" style="fill:none;stroke:#000000;stroke-width:1.5;"/>
      <g>
       <use style="stroke:#000000;" x="348.930636" xlink:href="#m795f969665" y="228.96"/>
      </g>
     </g>
    </g>
    <g id="xtick_11">
     <g id="line2d_11">
      <path d="M 430.094273 228.96 
" style="fill:none;stroke:#000000;stroke-width:1.5;"/>
      <g>
       <use style="stroke:#000000;" x="430.094273" xlink:href="#m795f969665" y="228.96"/>
      </g>
     </g>
    </g>
    <g id="text_7">
     <!-- Year -->
     <defs>
      <path d="M -0.203125 72.90625 
L 10.40625 72.90625 
L 30.609375 42.921875 
L 50.6875 72.90625 
L 61.28125 72.90625 
L 35.5 34.71875 
L 35.5 0 
L 25.59375 0 
L 25.59375 34.71875 
z
" id="DejaVuSans-89"/>
      <path d="M 56.203125 29.59375 
L 56.203125 25.203125 
L 14.890625 25.203125 
Q 15.484375 15.921875 20.484375 11.0625 
Q 25.484375 6.203125 34.421875 6.203125 
Q 39.59375 6.203125 44.453125 7.46875 
Q 49.3125 8.734375 54.109375 11.28125 
L 54.109375 2.78125 
Q 49.265625 0.734375 44.1875 -0.34375 
Q 39.109375 -1.421875 33.890625 -1.421875 
Q 20.796875 -1.421875 13.15625 6.1875 
Q 5.515625 13.8125 5.515625 26.8125 
Q 5.515625 40.234375 12.765625 48.109375 
Q 20.015625 56 32.328125 56 
Q 43.359375 56 49.78125 48.890625 
Q 56.203125 41.796875 56.203125 29.59375 
z
M 47.21875 32.234375 
Q 47.125 39.59375 43.09375 43.984375 
Q 39.0625 48.390625 32.421875 48.390625 
Q 24.90625 48.390625 20.390625 44.140625 
Q 15.875 39.890625 15.1875 32.171875 
z
" id="DejaVuSans-101"/>
      <path d="M 34.28125 27.484375 
Q 23.390625 27.484375 19.1875 25 
Q 14.984375 22.515625 14.984375 16.5 
Q 14.984375 11.71875 18.140625 8.90625 
Q 21.296875 6.109375 26.703125 6.109375 
Q 34.1875 6.109375 38.703125 11.40625 
Q 43.21875 16.703125 43.21875 25.484375 
L 43.21875 27.484375 
z
M 52.203125 31.203125 
L 52.203125 0 
L 43.21875 0 
L 43.21875 8.296875 
Q 40.140625 3.328125 35.546875 0.953125 
Q 30.953125 -1.421875 24.3125 -1.421875 
Q 15.921875 -1.421875 10.953125 3.296875 
Q 6 8.015625 6 15.921875 
Q 6 25.140625 12.171875 29.828125 
Q 18.359375 34.515625 30.609375 34.515625 
L 43.21875 34.515625 
L 43.21875 35.40625 
Q 43.21875 41.609375 39.140625 45 
Q 35.0625 48.390625 27.6875 48.390625 
Q 23 48.390625 18.546875 47.265625 
Q 14.109375 46.140625 10.015625 43.890625 
L 10.015625 52.203125 
Q 14.9375 54.109375 19.578125 55.046875 
Q 24.21875 56 28.609375 56 
Q 40.484375 56 46.34375 49.84375 
Q 52.203125 43.703125 52.203125 31.203125 
z
" id="DejaVuSans-97"/>
      <path d="M 41.109375 46.296875 
Q 39.59375 47.171875 37.8125 47.578125 
Q 36.03125 48 33.890625 48 
Q 26.265625 48 22.1875 43.046875 
Q 18.109375 38.09375 18.109375 28.8125 
L 18.109375 0 
L 9.078125 0 
L 9.078125 54.6875 
L 18.109375 54.6875 
L 18.109375 46.1875 
Q 20.953125 51.171875 25.484375 53.578125 
Q 30.03125 56 36.53125 56 
Q 37.453125 56 38.578125 55.875 
Q 39.703125 55.765625 41.0625 55.515625 
z
" id="DejaVuSans-114"/>
     </defs>
     <g transform="translate(248.203172 255.185031)scale(0.11 -0.11)">
      <use xlink:href="#DejaVuSans-89"/>
      <use x="60.880859" xlink:href="#DejaVuSans-101"/>
      <use x="122.404297" xlink:href="#DejaVuSans-97"/>
      <use x="183.683594" xlink:href="#DejaVuSans-114"/>
     </g>
    </g>
   </g>
   <g id="matplotlib.axis_2">
    <g id="ytick_1">
     <g id="line2d_12">
      <path d="M 44.567 218.88 
" style="fill:none;stroke:#000000;stroke-width:1.5;"/>
      <defs>
       <path d="M 0 0 
L -2.75 0 
" id="m5f15ed1e40" style="stroke:#000000;"/>
      </defs>
      <g>
       <use style="stroke:#000000;" x="44.567" xlink:href="#m5f15ed1e40" y="218.88"/>
      </g>
     </g>
     <g id="text_8">
      <!-- 0 -->
      <g transform="translate(34.018 221.30825)scale(0.088 -0.088)">
       <use xlink:href="#DejaVuSans-48"/>
      </g>
     </g>
    </g>
    <g id="ytick_2">
     <g id="line2d_13">
      <path d="M 44.567 168.48 
" style="fill:none;stroke:#000000;stroke-width:1.5;"/>
      <g>
       <use style="stroke:#000000;" x="44.567" xlink:href="#m5f15ed1e40" y="168.48"/>
      </g>
     </g>
     <g id="text_9">
      <!-- 25 -->
      <defs>
       <path d="M 10.796875 72.90625 
L 49.515625 72.90625 
L 49.515625 64.59375 
L 19.828125 64.59375 
L 19.828125 46.734375 
Q 21.96875 47.46875 24.109375 47.828125 
Q 26.265625 48.1875 28.421875 48.1875 
Q 40.625 48.1875 47.75 41.5 
Q 54.890625 34.8125 54.890625 23.390625 
Q 54.890625 11.625 47.5625 5.09375 
Q 40.234375 -1.421875 26.90625 -1.421875 
Q 22.3125 -1.421875 17.546875 -0.640625 
Q 12.796875 0.140625 7.71875 1.703125 
L 7.71875 11.625 
Q 12.109375 9.234375 16.796875 8.0625 
Q 21.484375 6.890625 26.703125 6.890625 
Q 35.15625 6.890625 40.078125 11.328125 
Q 45.015625 15.765625 45.015625 23.390625 
Q 45.015625 31 40.078125 35.4375 
Q 35.15625 39.890625 26.703125 39.890625 
Q 22.75 39.890625 18.8125 39.015625 
Q 14.890625 38.140625 10.796875 36.28125 
z
" id="DejaVuSans-53"/>
      </defs>
      <g transform="translate(28.419 170.90825)scale(0.088 -0.088)">
       <use xlink:href="#DejaVuSans-50"/>
       <use x="63.623047" xlink:href="#DejaVuSans-53"/>
      </g>
     </g>
    </g>
    <g id="ytick_3">
     <g id="line2d_14">
      <path d="M 44.567 118.08 
" style="fill:none;stroke:#000000;stroke-width:1.5;"/>
      <g>
       <use style="stroke:#000000;" x="44.567" xlink:href="#m5f15ed1e40" y="118.08"/>
      </g>
     </g>
     <g id="text_10">
      <!-- 50 -->
      <g transform="translate(28.419 120.50825)scale(0.088 -0.088)">
       <use xlink:href="#DejaVuSans-53"/>
       <use x="63.623047" xlink:href="#DejaVuSans-48"/>
      </g>
     </g>
    </g>
    <g id="ytick_4">
     <g id="line2d_15">
      <path d="M 44.567 67.68 
" style="fill:none;stroke:#000000;stroke-width:1.5;"/>
      <g>
       <use style="stroke:#000000;" x="44.567" xlink:href="#m5f15ed1e40" y="67.68"/>
      </g>
     </g>
     <g id="text_11">
      <!-- 75 -->
      <g transform="translate(28.419 70.10825)scale(0.088 -0.088)">
       <use xlink:href="#DejaVuSans-55"/>
       <use x="63.623047" xlink:href="#DejaVuSans-53"/>
      </g>
     </g>
    </g>
    <g id="ytick_5">
     <g id="line2d_16">
      <path d="M 44.567 17.28 
" style="fill:none;stroke:#000000;stroke-width:1.5;"/>
      <g>
       <use style="stroke:#000000;" x="44.567" xlink:href="#m5f15ed1e40" y="17.28"/>
      </g>
     </g>
     <g id="text_12">
      <!-- 100 -->
      <g transform="translate(22.82 19.70825)scale(0.088 -0.088)">
       <use xlink:href="#DejaVuSans-49"/>
       <use x="63.623047" xlink:href="#DejaVuSans-48"/>
       <use x="127.246094" xlink:href="#DejaVuSans-48"/>
      </g>
     </g>
    </g>
    <g id="ytick_6">
     <g id="line2d_17">
      <path d="M 44.567 193.68 
" style="fill:none;stroke:#000000;stroke-width:1.5;"/>
      <defs>
       <path d="M 0 0 
L -1.375 0 
" id="m94da46acc7" style="stroke:#000000;"/>
      </defs>
      <g>
       <use style="stroke:#000000;" x="44.567" xlink:href="#m94da46acc7" y="193.68"/>
      </g>
     </g>
    </g>
    <g id="ytick_7">
     <g id="line2d_18">
      <path d="M 44.567 143.28 
" style="fill:none;stroke:#000000;stroke-width:1.5;"/>
      <g>
       <use style="stroke:#000000;" x="44.567" xlink:href="#m94da46acc7" y="143.28"/>
      </g>
     </g>
    </g>
    <g id="ytick_8">
     <g id="line2d_19">
      <path d="M 44.567 92.88 
" style="fill:none;stroke:#000000;stroke-width:1.5;"/>
      <g>
       <use style="stroke:#000000;" x="44.567" xlink:href="#m94da46acc7" y="92.88"/>
      </g>
     </g>
    </g>
    <g id="ytick_9">
     <g id="line2d_20">
      <path d="M 44.567 42.48 
" style="fill:none;stroke:#000000;stroke-width:1.5;"/>
      <g>
       <use style="stroke:#000000;" x="44.567" xlink:href="#m94da46acc7" y="42.48"/>
      </g>
     </g>
    </g>
    <g id="text_13">
     <!-- $P_{Q1n}$ [%] -->
     <defs>
      <path d="M 16.890625 72.90625 
L 39.703125 72.90625 
Q 49.65625 72.90625 54.875 68.265625 
Q 60.109375 63.625 60.109375 54.6875 
Q 60.109375 42.671875 52.390625 35.984375 
Q 44.671875 29.296875 30.71875 29.296875 
L 18.3125 29.296875 
L 12.59375 0 
L 2.6875 0 
z
M 25.203125 64.796875 
L 19.921875 37.40625 
L 32.328125 37.40625 
Q 40.71875 37.40625 45.203125 41.703125 
Q 49.703125 46 49.703125 54 
Q 49.703125 59.125 46.65625 61.953125 
Q 43.609375 64.796875 38.09375 64.796875 
z
" id="DejaVuSans-Oblique-80"/>
      <path d="M 36.078125 -1.3125 
Q 35.546875 -1.375 34.953125 -1.390625 
Q 34.375 -1.421875 33.203125 -1.421875 
Q 19.53125 -1.421875 11.8125 6.421875 
Q 4.109375 14.265625 4.109375 28.078125 
Q 4.109375 36.234375 7.0625 44.4375 
Q 10.015625 52.640625 15.28125 59.1875 
Q 21.390625 66.703125 29.03125 70.453125 
Q 36.671875 74.21875 45.90625 74.21875 
Q 59.28125 74.21875 66.984375 66.328125 
Q 74.703125 58.453125 74.703125 44.828125 
Q 74.703125 30.125 66.640625 17.921875 
Q 58.59375 5.71875 45.609375 0.6875 
L 55.515625 -12.890625 
L 44.484375 -12.890625 
z
M 45.609375 66.21875 
Q 37.5 66.21875 31.296875 62.28125 
Q 25.09375 58.34375 20.515625 50.296875 
Q 17.578125 45.171875 16.03125 39.40625 
Q 14.5 33.640625 14.5 27.78125 
Q 14.5 17.625 19.359375 12.109375 
Q 24.21875 6.59375 33.109375 6.59375 
Q 41.109375 6.59375 47.375 10.5625 
Q 53.65625 14.546875 58.109375 22.40625 
Q 61.078125 27.6875 62.640625 33.46875 
Q 64.203125 39.265625 64.203125 45.015625 
Q 64.203125 55.125 59.3125 60.671875 
Q 54.4375 66.21875 45.609375 66.21875 
z
" id="DejaVuSans-Oblique-81"/>
      <path d="M 55.71875 33.015625 
L 49.3125 0 
L 40.28125 0 
L 46.6875 32.671875 
Q 47.125 34.96875 47.359375 36.71875 
Q 47.609375 38.484375 47.609375 39.5 
Q 47.609375 43.609375 45.015625 45.890625 
Q 42.4375 48.1875 37.796875 48.1875 
Q 30.5625 48.1875 25.34375 43.375 
Q 20.125 38.578125 18.5 30.328125 
L 12.5 0 
L 3.515625 0 
L 14.109375 54.6875 
L 23.09375 54.6875 
L 21.296875 46.09375 
Q 25.046875 50.828125 30.3125 53.40625 
Q 35.59375 56 41.40625 56 
Q 48.640625 56 52.609375 52.09375 
Q 56.59375 48.1875 56.59375 41.109375 
Q 56.59375 39.359375 56.375 37.359375 
Q 56.15625 35.359375 55.71875 33.015625 
z
" id="DejaVuSans-Oblique-110"/>
      <path id="DejaVuSans-32"/>
      <path d="M 8.59375 75.984375 
L 29.296875 75.984375 
L 29.296875 69 
L 17.578125 69 
L 17.578125 -6.203125 
L 29.296875 -6.203125 
L 29.296875 -13.1875 
L 8.59375 -13.1875 
z
" id="DejaVuSans-91"/>
      <path d="M 72.703125 32.078125 
Q 68.453125 32.078125 66.03125 28.46875 
Q 63.625 24.859375 63.625 18.40625 
Q 63.625 12.0625 66.03125 8.421875 
Q 68.453125 4.78125 72.703125 4.78125 
Q 76.859375 4.78125 79.265625 8.421875 
Q 81.6875 12.0625 81.6875 18.40625 
Q 81.6875 24.8125 79.265625 28.4375 
Q 76.859375 32.078125 72.703125 32.078125 
z
M 72.703125 38.28125 
Q 80.421875 38.28125 84.953125 32.90625 
Q 89.5 27.546875 89.5 18.40625 
Q 89.5 9.28125 84.9375 3.921875 
Q 80.375 -1.421875 72.703125 -1.421875 
Q 64.890625 -1.421875 60.34375 3.921875 
Q 55.8125 9.28125 55.8125 18.40625 
Q 55.8125 27.59375 60.375 32.9375 
Q 64.9375 38.28125 72.703125 38.28125 
z
M 22.3125 68.015625 
Q 18.109375 68.015625 15.6875 64.375 
Q 13.28125 60.75 13.28125 54.390625 
Q 13.28125 47.953125 15.671875 44.328125 
Q 18.0625 40.71875 22.3125 40.71875 
Q 26.5625 40.71875 28.96875 44.328125 
Q 31.390625 47.953125 31.390625 54.390625 
Q 31.390625 60.6875 28.953125 64.34375 
Q 26.515625 68.015625 22.3125 68.015625 
z
M 66.40625 74.21875 
L 74.21875 74.21875 
L 28.609375 -1.421875 
L 20.796875 -1.421875 
z
M 22.3125 74.21875 
Q 30.03125 74.21875 34.609375 68.875 
Q 39.203125 63.53125 39.203125 54.390625 
Q 39.203125 45.171875 34.640625 39.84375 
Q 30.078125 34.515625 22.3125 34.515625 
Q 14.546875 34.515625 10.03125 39.859375 
Q 5.515625 45.21875 5.515625 54.390625 
Q 5.515625 63.484375 10.046875 68.84375 
Q 14.59375 74.21875 22.3125 74.21875 
z
" id="DejaVuSans-37"/>
      <path d="M 30.421875 75.984375 
L 30.421875 -13.1875 
L 9.71875 -13.1875 
L 9.71875 -6.203125 
L 21.390625 -6.203125 
L 21.390625 69 
L 9.71875 69 
L 9.71875 75.984375 
z
" id="DejaVuSans-93"/>
     </defs>
     <g transform="translate(15.56 139.3)rotate(-90)scale(0.11 -0.11)">
      <use transform="translate(0 0.015625)" xlink:href="#DejaVuSans-Oblique-80"/>
      <use transform="translate(60.302734 -16.390625)scale(0.7)" xlink:href="#DejaVuSans-Oblique-81"/>
      <use transform="translate(115.400391 -16.390625)scale(0.7)" xlink:href="#DejaVuSans-49"/>
      <use transform="translate(159.936523 -16.390625)scale(0.7)" xlink:href="#DejaVuSans-Oblique-110"/>
      <use transform="translate(207.036133 0.015625)" xlink:href="#DejaVuSans-32"/>
      <use transform="translate(238.823242 0.015625)" xlink:href="#DejaVuSans-91"/>
      <use transform="translate(277.836914 0.015625)" xlink:href="#DejaVuSans-37"/>
      <use transform="translate(372.856445 0.015625)" xlink:href="#DejaVuSans-93"/>
     </g>
    </g>
   </g>
   <g id="LineCollection_1">
    <path clip-path="url(#pbb10947b38)" d="M 129.788818 212.598121 
L 129.788818 212.598121 
" style="fill:none;stroke:#9da0a2;stroke-width:1.32934;"/>
    <path clip-path="url(#pbb10947b38)" d="M 154.137909 195.616351 
L 154.137909 195.616351 
" style="fill:none;stroke:#9da0a2;stroke-width:1.32934;"/>
    <path clip-path="url(#pbb10947b38)" d="M 162.254273 146.140874 
L 162.254273 146.140874 
" style="fill:none;stroke:#9da0a2;stroke-width:1.32934;"/>
    <path clip-path="url(#pbb10947b38)" d="M 186.603364 180.301721 
L 186.603364 180.301721 
" style="fill:none;stroke:#9da0a2;stroke-width:1.32934;"/>
    <path clip-path="url(#pbb10947b38)" d="M 194.719727 187.252124 
L 194.719727 187.252124 
" style="fill:none;stroke:#9da0a2;stroke-width:1.32934;"/>
    <path clip-path="url(#pbb10947b38)" d="M 202.836091 203.526172 
L 202.836091 203.526172 
" style="fill:none;stroke:#9da0a2;stroke-width:1.32934;"/>
    <path clip-path="url(#pbb10947b38)" d="M 210.952455 157.710978 
L 210.952455 157.710978 
" style="fill:none;stroke:#9da0a2;stroke-width:1.32934;"/>
    <path clip-path="url(#pbb10947b38)" d="M 219.068818 157.604007 
L 219.068818 157.604007 
" style="fill:none;stroke:#9da0a2;stroke-width:1.32934;"/>
    <path clip-path="url(#pbb10947b38)" d="M 227.185182 176.575925 
L 227.185182 176.575925 
" style="fill:none;stroke:#9da0a2;stroke-width:1.32934;"/>
    <path clip-path="url(#pbb10947b38)" d="M 235.301545 148.182686 
L 235.301545 148.182686 
" style="fill:none;stroke:#9da0a2;stroke-width:1.32934;"/>
    <path clip-path="url(#pbb10947b38)" d="M 243.417909 165.374964 
L 243.417909 165.374964 
" style="fill:none;stroke:#9da0a2;stroke-width:1.32934;"/>
    <path clip-path="url(#pbb10947b38)" d="M 251.534273 146.889857 
L 251.534273 146.889857 
" style="fill:none;stroke:#9da0a2;stroke-width:1.32934;"/>
    <path clip-path="url(#pbb10947b38)" d="M 259.650636 127.903288 
L 259.650636 127.903288 
" style="fill:none;stroke:#9da0a2;stroke-width:1.32934;"/>
    <path clip-path="url(#pbb10947b38)" d="M 267.767 131.857155 
L 267.767 131.857155 
" style="fill:none;stroke:#9da0a2;stroke-width:1.32934;"/>
    <path clip-path="url(#pbb10947b38)" d="M 275.883364 123.691353 
L 275.883364 123.691353 
" style="fill:none;stroke:#9da0a2;stroke-width:1.32934;"/>
    <path clip-path="url(#pbb10947b38)" d="M 283.999727 119.944119 
L 283.999727 119.944119 
" style="fill:none;stroke:#9da0a2;stroke-width:1.32934;"/>
    <path clip-path="url(#pbb10947b38)" d="M 292.116091 122.656045 
L 292.116091 122.656045 
" style="fill:none;stroke:#9da0a2;stroke-width:1.32934;"/>
    <path clip-path="url(#pbb10947b38)" d="M 300.232455 132.336091 
L 300.232455 132.336091 
" style="fill:none;stroke:#9da0a2;stroke-width:1.32934;"/>
    <path clip-path="url(#pbb10947b38)" d="M 308.348818 143.893785 
L 308.348818 143.893785 
" style="fill:none;stroke:#9da0a2;stroke-width:1.32934;"/>
    <path clip-path="url(#pbb10947b38)" d="M 316.465182 118.597226 
L 316.465182 118.597226 
" style="fill:none;stroke:#9da0a2;stroke-width:1.32934;"/>
    <path clip-path="url(#pbb10947b38)" d="M 324.581545 130.552806 
L 324.581545 130.552806 
" style="fill:none;stroke:#9da0a2;stroke-width:1.32934;"/>
    <path clip-path="url(#pbb10947b38)" d="M 332.697909 118.321323 
L 332.697909 118.321323 
" style="fill:none;stroke:#9da0a2;stroke-width:1.32934;"/>
    <path clip-path="url(#pbb10947b38)" d="M 340.814273 129.015467 
L 340.814273 129.015467 
" style="fill:none;stroke:#9da0a2;stroke-width:1.32934;"/>
    <path clip-path="url(#pbb10947b38)" d="M 348.930636 149.753396 
L 348.930636 149.753396 
" style="fill:none;stroke:#9da0a2;stroke-width:1.32934;"/>
    <path clip-path="url(#pbb10947b38)" d="M 357.047 151.219229 
L 357.047 151.219229 
" style="fill:none;stroke:#9da0a2;stroke-width:1.32934;"/>
    <path clip-path="url(#pbb10947b38)" d="M 365.163364 125.341752 
L 365.163364 125.341752 
" style="fill:none;stroke:#9da0a2;stroke-width:1.32934;"/>
    <path clip-path="url(#pbb10947b38)" d="M 373.279727 120.182045 
L 373.279727 120.182045 
" style="fill:none;stroke:#9da0a2;stroke-width:1.32934;"/>
    <path clip-path="url(#pbb10947b38)" d="M 381.396091 131.639277 
L 381.396091 131.639277 
" style="fill:none;stroke:#9da0a2;stroke-width:1.32934;"/>
    <path clip-path="url(#pbb10947b38)" d="M 389.512455 110.386349 
L 389.512455 110.386349 
" style="fill:none;stroke:#9da0a2;stroke-width:1.32934;"/>
    <path clip-path="url(#pbb10947b38)" d="M 397.628818 122.257395 
L 397.628818 122.257395 
" style="fill:none;stroke:#9da0a2;stroke-width:1.32934;"/>
    <path clip-path="url(#pbb10947b38)" d="M 405.745182 121.387401 
L 405.745182 121.387401 
" style="fill:none;stroke:#9da0a2;stroke-width:1.32934;"/>
    <path clip-path="url(#pbb10947b38)" d="M 413.861545 106.430446 
L 413.861545 106.430446 
" style="fill:none;stroke:#9da0a2;stroke-width:1.32934;"/>
    <path clip-path="url(#pbb10947b38)" d="M 421.977909 96.101474 
L 421.977909 96.101474 
" style="fill:none;stroke:#9da0a2;stroke-width:1.32934;"/>
    <path clip-path="url(#pbb10947b38)" d="M 430.094273 122.233443 
L 430.094273 122.233443 
" style="fill:none;stroke:#9da0a2;stroke-width:1.32934;"/>
    <path clip-path="url(#pbb10947b38)" d="M 438.210636 98.923569 
L 438.210636 98.923569 
" style="fill:none;stroke:#9da0a2;stroke-width:1.32934;"/>
    <path clip-path="url(#pbb10947b38)" d="M 446.327 96.213402 
L 446.327 96.213402 
" style="fill:none;stroke:#9da0a2;stroke-width:1.32934;"/>
    <path clip-path="url(#pbb10947b38)" d="M 454.443364 111.794653 
L 454.443364 111.794653 
" style="fill:none;stroke:#9da0a2;stroke-width:1.32934;"/>
    <path clip-path="url(#pbb10947b38)" d="M 462.559727 137.926881 
L 462.559727 137.926881 
" style="fill:none;stroke:#9da0a2;stroke-width:1.32934;"/>
    <path clip-path="url(#pbb10947b38)" d="M 129.788818 165.77396 
L 129.788818 165.77396 
" style="fill:none;stroke:#9da0a2;stroke-width:1.32934;"/>
    <path clip-path="url(#pbb10947b38)" d="M 154.137909 123.013447 
L 154.137909 123.013447 
" style="fill:none;stroke:#9da0a2;stroke-width:1.32934;"/>
    <path clip-path="url(#pbb10947b38)" d="M 162.254273 131.833891 
L 162.254273 131.833891 
" style="fill:none;stroke:#9da0a2;stroke-width:1.32934;"/>
    <path clip-path="url(#pbb10947b38)" d="M 186.603364 108.207272 
L 186.603364 108.207272 
" style="fill:none;stroke:#9da0a2;stroke-width:1.32934;"/>
    <path clip-path="url(#pbb10947b38)" d="M 194.719727 119.538749 
L 194.719727 119.538749 
" style="fill:none;stroke:#9da0a2;stroke-width:1.32934;"/>
    <path clip-path="url(#pbb10947b38)" d="M 202.836091 147.833828 
L 202.836091 147.833828 
" style="fill:none;stroke:#9da0a2;stroke-width:1.32934;"/>
    <path clip-path="url(#pbb10947b38)" d="M 210.952455 125.6007 
L 210.952455 125.6007 
" style="fill:none;stroke:#9da0a2;stroke-width:1.32934;"/>
    <path clip-path="url(#pbb10947b38)" d="M 219.068818 129.020423 
L 219.068818 129.020423 
" style="fill:none;stroke:#9da0a2;stroke-width:1.32934;"/>
    <path clip-path="url(#pbb10947b38)" d="M 227.185182 149.760106 
L 227.185182 149.760106 
" style="fill:none;stroke:#9da0a2;stroke-width:1.32934;"/>
    <path clip-path="url(#pbb10947b38)" d="M 235.301545 126.425081 
L 235.301545 126.425081 
" style="fill:none;stroke:#9da0a2;stroke-width:1.32934;"/>
    <path clip-path="url(#pbb10947b38)" d="M 243.417909 148.019936 
L 243.417909 148.019936 
" style="fill:none;stroke:#9da0a2;stroke-width:1.32934;"/>
    <path clip-path="url(#pbb10947b38)" d="M 251.534273 126.619022 
L 251.534273 126.619022 
" style="fill:none;stroke:#9da0a2;stroke-width:1.32934;"/>
    <path clip-path="url(#pbb10947b38)" d="M 259.650636 107.384152 
L 259.650636 107.384152 
" style="fill:none;stroke:#9da0a2;stroke-width:1.32934;"/>
    <path clip-path="url(#pbb10947b38)" d="M 267.767 113.058358 
L 267.767 113.058358 
" style="fill:none;stroke:#9da0a2;stroke-width:1.32934;"/>
    <path clip-path="url(#pbb10947b38)" d="M 275.883364 110.711031 
L 275.883364 110.711031 
" style="fill:none;stroke:#9da0a2;stroke-width:1.32934;"/>
    <path clip-path="url(#pbb10947b38)" d="M 283.999727 104.893091 
L 283.999727 104.893091 
" style="fill:none;stroke:#9da0a2;stroke-width:1.32934;"/>
    <path clip-path="url(#pbb10947b38)" d="M 292.116091 109.349672 
L 292.116091 109.349672 
" style="fill:none;stroke:#9da0a2;stroke-width:1.32934;"/>
    <path clip-path="url(#pbb10947b38)" d="M 300.232455 119.666325 
L 300.232455 119.666325 
" style="fill:none;stroke:#9da0a2;stroke-width:1.32934;"/>
    <path clip-path="url(#pbb10947b38)" d="M 308.348818 129.300309 
L 308.348818 129.300309 
" style="fill:none;stroke:#9da0a2;stroke-width:1.32934;"/>
    <path clip-path="url(#pbb10947b38)" d="M 316.465182 104.705965 
L 316.465182 104.705965 
" style="fill:none;stroke:#9da0a2;stroke-width:1.32934;"/>
    <path clip-path="url(#pbb10947b38)" d="M 324.581545 108.749439 
L 324.581545 108.749439 
" style="fill:none;stroke:#9da0a2;stroke-width:1.32934;"/>
    <path clip-path="url(#pbb10947b38)" d="M 332.697909 103.225393 
L 332.697909 103.225393 
" style="fill:none;stroke:#9da0a2;stroke-width:1.32934;"/>
    <path clip-path="url(#pbb10947b38)" d="M 340.814273 113.821179 
L 340.814273 113.821179 
" style="fill:none;stroke:#9da0a2;stroke-width:1.32934;"/>
    <path clip-path="url(#pbb10947b38)" d="M 348.930636 139.124134 
L 348.930636 139.124134 
" style="fill:none;stroke:#9da0a2;stroke-width:1.32934;"/>
    <path clip-path="url(#pbb10947b38)" d="M 357.047 139.03596 
L 357.047 139.03596 
" style="fill:none;stroke:#9da0a2;stroke-width:1.32934;"/>
    <path clip-path="url(#pbb10947b38)" d="M 365.163364 111.007453 
L 365.163364 111.007453 
" style="fill:none;stroke:#9da0a2;stroke-width:1.32934;"/>
    <path clip-path="url(#pbb10947b38)" d="M 373.279727 108.522026 
L 373.279727 108.522026 
" style="fill:none;stroke:#9da0a2;stroke-width:1.32934;"/>
    <path clip-path="url(#pbb10947b38)" d="M 381.396091 118.673996 
L 381.396091 118.673996 
" style="fill:none;stroke:#9da0a2;stroke-width:1.32934;"/>
    <path clip-path="url(#pbb10947b38)" d="M 389.512455 96.377918 
L 389.512455 96.377918 
" style="fill:none;stroke:#9da0a2;stroke-width:1.32934;"/>
    <path clip-path="url(#pbb10947b38)" d="M 397.628818 107.890525 
L 397.628818 107.890525 
" style="fill:none;stroke:#9da0a2;stroke-width:1.32934;"/>
    <path clip-path="url(#pbb10947b38)" d="M 405.745182 111.322212 
L 405.745182 111.322212 
" style="fill:none;stroke:#9da0a2;stroke-width:1.32934;"/>
    <path clip-path="url(#pbb10947b38)" d="M 413.861545 94.05707 
L 413.861545 94.05707 
" style="fill:none;stroke:#9da0a2;stroke-width:1.32934;"/>
    <path clip-path="url(#pbb10947b38)" d="M 421.977909 85.177653 
L 421.977909 85.177653 
" style="fill:none;stroke:#9da0a2;stroke-width:1.32934;"/>
    <path clip-path="url(#pbb10947b38)" d="M 430.094273 111.864237 
L 430.094273 111.864237 
" style="fill:none;stroke:#9da0a2;stroke-width:1.32934;"/>
    <path clip-path="url(#pbb10947b38)" d="M 438.210636 87.400551 
L 438.210636 87.400551 
" style="fill:none;stroke:#9da0a2;stroke-width:1.32934;"/>
    <path clip-path="url(#pbb10947b38)" d="M 446.327 84.649772 
L 446.327 84.649772 
" style="fill:none;stroke:#9da0a2;stroke-width:1.32934;"/>
    <path clip-path="url(#pbb10947b38)" d="M 454.443364 102.238635 
L 454.443364 102.238635 
" style="fill:none;stroke:#9da0a2;stroke-width:1.32934;"/>
    <path clip-path="url(#pbb10947b38)" d="M 462.559727 119.865334 
L 462.559727 119.865334 
" style="fill:none;stroke:#9da0a2;stroke-width:1.32934;"/>
    <path clip-path="url(#pbb10947b38)" d="M 129.788818 165.77396 
L 129.788818 212.598121 
" style="fill:none;stroke:#9da0a2;stroke-width:1.32934;"/>
    <path clip-path="url(#pbb10947b38)" d="M 154.137909 123.013447 
L 154.137909 195.616351 
" style="fill:none;stroke:#9da0a2;stroke-width:1.32934;"/>
    <path clip-path="url(#pbb10947b38)" d="M 162.254273 131.833891 
L 162.254273 146.140874 
" style="fill:none;stroke:#9da0a2;stroke-width:1.32934;"/>
    <path clip-path="url(#pbb10947b38)" d="M 186.603364 108.207272 
L 186.603364 180.301721 
" style="fill:none;stroke:#9da0a2;stroke-width:1.32934;"/>
    <path clip-path="url(#pbb10947b38)" d="M 194.719727 119.538749 
L 194.719727 187.252124 
" style="fill:none;stroke:#9da0a2;stroke-width:1.32934;"/>
    <path clip-path="url(#pbb10947b38)" d="M 202.836091 147.833828 
L 202.836091 203.526172 
" style="fill:none;stroke:#9da0a2;stroke-width:1.32934;"/>
    <path clip-path="url(#pbb10947b38)" d="M 210.952455 125.6007 
L 210.952455 157.710978 
" style="fill:none;stroke:#9da0a2;stroke-width:1.32934;"/>
    <path clip-path="url(#pbb10947b38)" d="M 219.068818 129.020423 
L 219.068818 157.604007 
" style="fill:none;stroke:#9da0a2;stroke-width:1.32934;"/>
    <path clip-path="url(#pbb10947b38)" d="M 227.185182 149.760106 
L 227.185182 176.575925 
" style="fill:none;stroke:#9da0a2;stroke-width:1.32934;"/>
    <path clip-path="url(#pbb10947b38)" d="M 235.301545 126.425081 
L 235.301545 148.182686 
" style="fill:none;stroke:#9da0a2;stroke-width:1.32934;"/>
    <path clip-path="url(#pbb10947b38)" d="M 243.417909 148.019936 
L 243.417909 165.374964 
" style="fill:none;stroke:#9da0a2;stroke-width:1.32934;"/>
    <path clip-path="url(#pbb10947b38)" d="M 251.534273 126.619022 
L 251.534273 146.889857 
" style="fill:none;stroke:#9da0a2;stroke-width:1.32934;"/>
    <path clip-path="url(#pbb10947b38)" d="M 259.650636 107.384152 
L 259.650636 127.903288 
" style="fill:none;stroke:#9da0a2;stroke-width:1.32934;"/>
    <path clip-path="url(#pbb10947b38)" d="M 267.767 113.058358 
L 267.767 131.857155 
" style="fill:none;stroke:#9da0a2;stroke-width:1.32934;"/>
    <path clip-path="url(#pbb10947b38)" d="M 275.883364 110.711031 
L 275.883364 123.691353 
" style="fill:none;stroke:#9da0a2;stroke-width:1.32934;"/>
    <path clip-path="url(#pbb10947b38)" d="M 283.999727 104.893091 
L 283.999727 119.944119 
" style="fill:none;stroke:#9da0a2;stroke-width:1.32934;"/>
    <path clip-path="url(#pbb10947b38)" d="M 292.116091 109.349672 
L 292.116091 122.656045 
" style="fill:none;stroke:#9da0a2;stroke-width:1.32934;"/>
    <path clip-path="url(#pbb10947b38)" d="M 300.232455 119.666325 
L 300.232455 132.336091 
" style="fill:none;stroke:#9da0a2;stroke-width:1.32934;"/>
    <path clip-path="url(#pbb10947b38)" d="M 308.348818 129.300309 
L 308.348818 143.893785 
" style="fill:none;stroke:#9da0a2;stroke-width:1.32934;"/>
    <path clip-path="url(#pbb10947b38)" d="M 316.465182 104.705965 
L 316.465182 118.597226 
" style="fill:none;stroke:#9da0a2;stroke-width:1.32934;"/>
    <path clip-path="url(#pbb10947b38)" d="M 324.581545 108.749439 
L 324.581545 130.552806 
" style="fill:none;stroke:#9da0a2;stroke-width:1.32934;"/>
    <path clip-path="url(#pbb10947b38)" d="M 332.697909 103.225393 
L 332.697909 118.321323 
" style="fill:none;stroke:#9da0a2;stroke-width:1.32934;"/>
    <path clip-path="url(#pbb10947b38)" d="M 340.814273 113.821179 
L 340.814273 129.015467 
" style="fill:none;stroke:#9da0a2;stroke-width:1.32934;"/>
    <path clip-path="url(#pbb10947b38)" d="M 348.930636 139.124134 
L 348.930636 149.753396 
" style="fill:none;stroke:#9da0a2;stroke-width:1.32934;"/>
    <path clip-path="url(#pbb10947b38)" d="M 357.047 139.03596 
L 357.047 151.219229 
" style="fill:none;stroke:#9da0a2;stroke-width:1.32934;"/>
    <path clip-path="url(#pbb10947b38)" d="M 365.163364 111.007453 
L 365.163364 125.341752 
" style="fill:none;stroke:#9da0a2;stroke-width:1.32934;"/>
    <path clip-path="url(#pbb10947b38)" d="M 373.279727 108.522026 
L 373.279727 120.182045 
" style="fill:none;stroke:#9da0a2;stroke-width:1.32934;"/>
    <path clip-path="url(#pbb10947b38)" d="M 381.396091 118.673996 
L 381.396091 131.639277 
" style="fill:none;stroke:#9da0a2;stroke-width:1.32934;"/>
    <path clip-path="url(#pbb10947b38)" d="M 389.512455 96.377918 
L 389.512455 110.386349 
" style="fill:none;stroke:#9da0a2;stroke-width:1.32934;"/>
    <path clip-path="url(#pbb10947b38)" d="M 397.628818 107.890525 
L 397.628818 122.257395 
" style="fill:none;stroke:#9da0a2;stroke-width:1.32934;"/>
    <path clip-path="url(#pbb10947b38)" d="M 405.745182 111.322212 
L 405.745182 121.387401 
" style="fill:none;stroke:#9da0a2;stroke-width:1.32934;"/>
    <path clip-path="url(#pbb10947b38)" d="M 413.861545 94.05707 
L 413.861545 106.430446 
" style="fill:none;stroke:#9da0a2;stroke-width:1.32934;"/>
    <path clip-path="url(#pbb10947b38)" d="M 421.977909 85.177653 
L 421.977909 96.101474 
" style="fill:none;stroke:#9da0a2;stroke-width:1.32934;"/>
    <path clip-path="url(#pbb10947b38)" d="M 430.094273 111.864237 
L 430.094273 122.233443 
" style="fill:none;stroke:#9da0a2;stroke-width:1.32934;"/>
    <path clip-path="url(#pbb10947b38)" d="M 438.210636 87.400551 
L 438.210636 98.923569 
" style="fill:none;stroke:#9da0a2;stroke-width:1.32934;"/>
    <path clip-path="url(#pbb10947b38)" d="M 446.327 84.649772 
L 446.327 96.213402 
" style="fill:none;stroke:#9da0a2;stroke-width:1.32934;"/>
    <path clip-path="url(#pbb10947b38)" d="M 454.443364 102.238635 
L 454.443364 111.794653 
" style="fill:none;stroke:#9da0a2;stroke-width:1.32934;"/>
    <path clip-path="url(#pbb10947b38)" d="M 462.559727 119.865334 
L 462.559727 137.926881 
" style="fill:none;stroke:#9da0a2;stroke-width:1.32934;"/>
   </g>
   <g id="line2d_21">
    <path clip-path="url(#pbb10947b38)" d="M 121.672455 123.492081 
L 129.788818 189.18604 
L 154.137909 159.314899 
L 162.254273 138.987383 
L 170.370636 211.100134 
L 178.487 97.688054 
L 186.603364 144.254497 
L 194.719727 153.395436 
L 202.836091 175.68 
L 210.952455 141.655839 
L 219.068818 143.312215 
L 227.185182 163.168015 
L 235.301545 137.303883 
L 243.417909 156.69745 
L 251.534273 136.754439 
L 259.650636 117.64372 
L 267.767 122.457756 
L 275.883364 117.201192 
L 283.999727 112.418605 
L 292.116091 116.002858 
L 300.232455 126.001208 
L 308.348818 136.597047 
L 316.465182 111.651596 
L 324.581545 119.651123 
L 332.697909 110.773358 
L 340.814273 121.418323 
L 348.930636 144.438765 
L 357.047 145.127594 
L 365.163364 118.174603 
L 373.279727 114.352036 
L 381.396091 125.156636 
L 389.512455 103.382134 
L 397.628818 115.07396 
L 405.745182 116.354806 
L 413.861545 100.243758 
L 421.977909 90.639564 
L 430.094273 117.04884 
L 438.210636 93.16206 
L 446.327 90.431587 
L 454.443364 107.016644 
L 462.559727 128.896107 
" style="fill:none;stroke:#0077bb;stroke-width:0.886227;"/>
   </g>
   <g id="patch_3">
    <path d="M 44.567 228.96 
L 44.567 7.2 
" style="fill:none;stroke:#000000;stroke-linecap:square;stroke-linejoin:miter;"/>
   </g>
   <g id="patch_4">
    <path d="M 44.567 228.96 
L 490.967 228.96 
" style="fill:none;stroke:#000000;stroke-linecap:square;stroke-linejoin:miter;"/>
   </g>
   <g id="PathCollection_1">
    <path clip-path="url(#pbb10947b38)" d="M 121.672455 125.264534 
C 122.142515 125.264534 122.593386 125.077777 122.925769 124.745395 
C 123.258151 124.413012 123.444908 123.962141 123.444908 123.492081 
C 123.444908 123.02202 123.258151 122.571149 122.925769 122.238766 
C 122.593386 121.906384 122.142515 121.719627 121.672455 121.719627 
C 121.202394 121.719627 120.751523 121.906384 120.41914 122.238766 
C 120.086758 122.571149 119.900001 123.02202 119.900001 123.492081 
C 119.900001 123.962141 120.086758 124.413012 120.41914 124.745395 
C 120.751523 125.077777 121.202394 125.264534 121.672455 125.264534 
z
" style="fill:#0077bb;stroke:#0077bb;stroke-width:0.886227;"/>
    <path clip-path="url(#pbb10947b38)" d="M 129.788818 190.958494 
C 130.258878 190.958494 130.70975 190.771737 131.042132 190.439354 
C 131.374515 190.106972 131.561272 189.656101 131.561272 189.18604 
C 131.561272 188.71598 131.374515 188.265109 131.042132 187.932726 
C 130.70975 187.600343 130.258878 187.413586 129.788818 187.413586 
C 129.318758 187.413586 128.867887 187.600343 128.535504 187.932726 
C 128.203121 188.265109 128.016364 188.71598 128.016364 189.18604 
C 128.016364 189.656101 128.203121 190.106972 128.535504 190.439354 
C 128.867887 190.771737 129.318758 190.958494 129.788818 190.958494 
z
" style="fill:#0077bb;stroke:#0077bb;stroke-width:0.886227;"/>
    <path clip-path="url(#pbb10947b38)" d="M 154.137909 161.087353 
C 154.607969 161.087353 155.05884 160.900596 155.391223 160.568213 
C 155.723606 160.235831 155.910363 159.78496 155.910363 159.314899 
C 155.910363 158.844839 155.723606 158.393968 155.391223 158.061585 
C 155.05884 157.729202 154.607969 157.542445 154.137909 157.542445 
C 153.667849 157.542445 153.216978 157.729202 152.884595 158.061585 
C 152.552212 158.393968 152.365455 158.844839 152.365455 159.314899 
C 152.365455 159.78496 152.552212 160.235831 152.884595 160.568213 
C 153.216978 160.900596 153.667849 161.087353 154.137909 161.087353 
z
" style="fill:#0077bb;stroke:#0077bb;stroke-width:0.886227;"/>
    <path clip-path="url(#pbb10947b38)" d="M 162.254273 140.759836 
C 162.724333 140.759836 163.175204 140.573079 163.507587 140.240697 
C 163.83997 139.908314 164.026727 139.457443 164.026727 138.987383 
C 164.026727 138.517322 163.83997 138.066451 163.507587 137.734068 
C 163.175204 137.401686 162.724333 137.214929 162.254273 137.214929 
C 161.784212 137.214929 161.333341 137.401686 161.000959 137.734068 
C 160.668576 138.066451 160.481819 138.517322 160.481819 138.987383 
C 160.481819 139.457443 160.668576 139.908314 161.000959 140.240697 
C 161.333341 140.573079 161.784212 140.759836 162.254273 140.759836 
z
" style="fill:#0077bb;stroke:#0077bb;stroke-width:0.886227;"/>
    <path clip-path="url(#pbb10947b38)" d="M 170.370636 212.872588 
C 170.840697 212.872588 171.291568 212.685831 171.623951 212.353448 
C 171.956333 212.021066 172.14309 211.570194 172.14309 211.100134 
C 172.14309 210.630074 171.956333 210.179203 171.623951 209.84682 
C 171.291568 209.514437 170.840697 209.32768 170.370636 209.32768 
C 169.900576 209.32768 169.449705 209.514437 169.117322 209.84682 
C 168.784939 210.179203 168.598183 210.630074 168.598183 211.100134 
C 168.598183 211.570194 168.784939 212.021066 169.117322 212.353448 
C 169.449705 212.685831 169.900576 212.872588 170.370636 212.872588 
z
" style="fill:#0077bb;stroke:#0077bb;stroke-width:0.886227;"/>
    <path clip-path="url(#pbb10947b38)" d="M 178.487 99.460508 
C 178.95706 99.460508 179.407931 99.273751 179.740314 98.941368 
C 180.072697 98.608985 180.259454 98.158114 180.259454 97.688054 
C 180.259454 97.217993 180.072697 96.767122 179.740314 96.43474 
C 179.407931 96.102357 178.95706 95.9156 178.487 95.9156 
C 178.01694 95.9156 177.566069 96.102357 177.233686 96.43474 
C 176.901303 96.767122 176.714546 97.217993 176.714546 97.688054 
C 176.714546 98.158114 176.901303 98.608985 177.233686 98.941368 
C 177.566069 99.273751 178.01694 99.460508 178.487 99.460508 
z
" style="fill:#0077bb;stroke:#0077bb;stroke-width:0.886227;"/>
    <path clip-path="url(#pbb10947b38)" d="M 186.603364 146.02695 
C 187.073424 146.02695 187.524295 145.840194 187.856678 145.507811 
C 188.189061 145.175428 188.375817 144.724557 188.375817 144.254497 
C 188.375817 143.784436 188.189061 143.333565 187.856678 143.001183 
C 187.524295 142.6688 187.073424 142.482043 186.603364 142.482043 
C 186.133303 142.482043 185.682432 142.6688 185.350049 143.001183 
C 185.017667 143.333565 184.83091 143.784436 184.83091 144.254497 
C 184.83091 144.724557 185.017667 145.175428 185.350049 145.507811 
C 185.682432 145.840194 186.133303 146.02695 186.603364 146.02695 
z
" style="fill:#0077bb;stroke:#0077bb;stroke-width:0.886227;"/>
    <path clip-path="url(#pbb10947b38)" d="M 194.719727 155.16789 
C 195.189788 155.16789 195.640659 154.981133 195.973041 154.64875 
C 196.305424 154.316368 196.492181 153.865496 196.492181 153.395436 
C 196.492181 152.925376 196.305424 152.474505 195.973041 152.142122 
C 195.640659 151.809739 195.189788 151.622982 194.719727 151.622982 
C 194.249667 151.622982 193.798796 151.809739 193.466413 152.142122 
C 193.13403 152.474505 192.947273 152.925376 192.947273 153.395436 
C 192.947273 153.865496 193.13403 154.316368 193.466413 154.64875 
C 193.798796 154.981133 194.249667 155.16789 194.719727 155.16789 
z
" style="fill:#0077bb;stroke:#0077bb;stroke-width:0.886227;"/>
    <path clip-path="url(#pbb10947b38)" d="M 202.836091 177.452454 
C 203.306151 177.452454 203.757022 177.265697 204.089405 176.933314 
C 204.421788 176.600931 204.608545 176.15006 204.608545 175.68 
C 204.608545 175.20994 204.421788 174.759069 204.089405 174.426686 
C 203.757022 174.094303 203.306151 173.907546 202.836091 173.907546 
C 202.366031 173.907546 201.91516 174.094303 201.582777 174.426686 
C 201.250394 174.759069 201.063637 175.20994 201.063637 175.68 
C 201.063637 176.15006 201.250394 176.600931 201.582777 176.933314 
C 201.91516 177.265697 202.366031 177.452454 202.836091 177.452454 
z
" style="fill:#0077bb;stroke:#0077bb;stroke-width:0.886227;"/>
    <path clip-path="url(#pbb10947b38)" d="M 210.952455 143.428293 
C 211.422515 143.428293 211.873386 143.241536 212.205769 142.909153 
C 212.538151 142.57677 212.724908 142.125899 212.724908 141.655839 
C 212.724908 141.185779 212.538151 140.734908 212.205769 140.402525 
C 211.873386 140.070142 211.422515 139.883385 210.952455 139.883385 
C 210.482394 139.883385 210.031523 140.070142 209.69914 140.402525 
C 209.366758 140.734908 209.180001 141.185779 209.180001 141.655839 
C 209.180001 142.125899 209.366758 142.57677 209.69914 142.909153 
C 210.031523 143.241536 210.482394 143.428293 210.952455 143.428293 
z
" style="fill:#0077bb;stroke:#0077bb;stroke-width:0.886227;"/>
    <path clip-path="url(#pbb10947b38)" d="M 219.068818 145.084669 
C 219.538878 145.084669 219.98975 144.897912 220.322132 144.565529 
C 220.654515 144.233146 220.841272 143.782275 220.841272 143.312215 
C 220.841272 142.842155 220.654515 142.391283 220.322132 142.058901 
C 219.98975 141.726518 219.538878 141.539761 219.068818 141.539761 
C 218.598758 141.539761 218.147887 141.726518 217.815504 142.058901 
C 217.483121 142.391283 217.296364 142.842155 217.296364 143.312215 
C 217.296364 143.782275 217.483121 144.233146 217.815504 144.565529 
C 218.147887 144.897912 218.598758 145.084669 219.068818 145.084669 
z
" style="fill:#0077bb;stroke:#0077bb;stroke-width:0.886227;"/>
    <path clip-path="url(#pbb10947b38)" d="M 227.185182 164.940469 
C 227.655242 164.940469 228.106113 164.753712 228.438496 164.421329 
C 228.770879 164.088947 228.957636 163.638076 228.957636 163.168015 
C 228.957636 162.697955 228.770879 162.247084 228.438496 161.914701 
C 228.106113 161.582318 227.655242 161.395561 227.185182 161.395561 
C 226.715122 161.395561 226.26425 161.582318 225.931868 161.914701 
C 225.599485 162.247084 225.412728 162.697955 225.412728 163.168015 
C 225.412728 163.638076 225.599485 164.088947 225.931868 164.421329 
C 226.26425 164.753712 226.715122 164.940469 227.185182 164.940469 
z
" style="fill:#0077bb;stroke:#0077bb;stroke-width:0.886227;"/>
    <path clip-path="url(#pbb10947b38)" d="M 235.301545 139.076337 
C 235.771606 139.076337 236.222477 138.88958 236.55486 138.557197 
C 236.887242 138.224815 237.073999 137.773944 237.073999 137.303883 
C 237.073999 136.833823 236.887242 136.382952 236.55486 136.050569 
C 236.222477 135.718186 235.771606 135.53143 235.301545 135.53143 
C 234.831485 135.53143 234.380614 135.718186 234.048231 136.050569 
C 233.715849 136.382952 233.529092 136.833823 233.529092 137.303883 
C 233.529092 137.773944 233.715849 138.224815 234.048231 138.557197 
C 234.380614 138.88958 234.831485 139.076337 235.301545 139.076337 
z
" style="fill:#0077bb;stroke:#0077bb;stroke-width:0.886227;"/>
    <path clip-path="url(#pbb10947b38)" d="M 243.417909 158.469904 
C 243.887969 158.469904 244.33884 158.283147 244.671223 157.950764 
C 245.003606 157.618381 245.190363 157.16751 245.190363 156.69745 
C 245.190363 156.227389 245.003606 155.776518 244.671223 155.444136 
C 244.33884 155.111753 243.887969 154.924996 243.417909 154.924996 
C 242.947849 154.924996 242.496978 155.111753 242.164595 155.444136 
C 241.832212 155.776518 241.645455 156.227389 241.645455 156.69745 
C 241.645455 157.16751 241.832212 157.618381 242.164595 157.950764 
C 242.496978 158.283147 242.947849 158.469904 243.417909 158.469904 
z
" style="fill:#0077bb;stroke:#0077bb;stroke-width:0.886227;"/>
    <path clip-path="url(#pbb10947b38)" d="M 251.534273 138.526893 
C 252.004333 138.526893 252.455204 138.340136 252.787587 138.007753 
C 253.11997 137.67537 253.306727 137.224499 253.306727 136.754439 
C 253.306727 136.284379 253.11997 135.833508 252.787587 135.501125 
C 252.455204 135.168742 252.004333 134.981985 251.534273 134.981985 
C 251.064212 134.981985 250.613341 135.168742 250.280959 135.501125 
C 249.948576 135.833508 249.761819 136.284379 249.761819 136.754439 
C 249.761819 137.224499 249.948576 137.67537 250.280959 138.007753 
C 250.613341 138.340136 251.064212 138.526893 251.534273 138.526893 
z
" style="fill:#0077bb;stroke:#0077bb;stroke-width:0.886227;"/>
    <path clip-path="url(#pbb10947b38)" d="M 259.650636 119.416174 
C 260.120697 119.416174 260.571568 119.229417 260.903951 118.897034 
C 261.236333 118.564651 261.42309 118.11378 261.42309 117.64372 
C 261.42309 117.17366 261.236333 116.722789 260.903951 116.390406 
C 260.571568 116.058023 260.120697 115.871266 259.650636 115.871266 
C 259.180576 115.871266 258.729705 116.058023 258.397322 116.390406 
C 258.064939 116.722789 257.878183 117.17366 257.878183 117.64372 
C 257.878183 118.11378 258.064939 118.564651 258.397322 118.897034 
C 258.729705 119.229417 259.180576 119.416174 259.650636 119.416174 
z
" style="fill:#0077bb;stroke:#0077bb;stroke-width:0.886227;"/>
    <path clip-path="url(#pbb10947b38)" d="M 267.767 124.23021 
C 268.23706 124.23021 268.687931 124.043453 269.020314 123.711071 
C 269.352697 123.378688 269.539454 122.927817 269.539454 122.457756 
C 269.539454 121.987696 269.352697 121.536825 269.020314 121.204442 
C 268.687931 120.87206 268.23706 120.685303 267.767 120.685303 
C 267.29694 120.685303 266.846069 120.87206 266.513686 121.204442 
C 266.181303 121.536825 265.994546 121.987696 265.994546 122.457756 
C 265.994546 122.927817 266.181303 123.378688 266.513686 123.711071 
C 266.846069 124.043453 267.29694 124.23021 267.767 124.23021 
z
" style="fill:#0077bb;stroke:#0077bb;stroke-width:0.886227;"/>
    <path clip-path="url(#pbb10947b38)" d="M 275.883364 118.973646 
C 276.353424 118.973646 276.804295 118.786889 277.136678 118.454506 
C 277.469061 118.122123 277.655817 117.671252 277.655817 117.201192 
C 277.655817 116.731132 277.469061 116.280261 277.136678 115.947878 
C 276.804295 115.615495 276.353424 115.428738 275.883364 115.428738 
C 275.413303 115.428738 274.962432 115.615495 274.630049 115.947878 
C 274.297667 116.280261 274.11091 116.731132 274.11091 117.201192 
C 274.11091 117.671252 274.297667 118.122123 274.630049 118.454506 
C 274.962432 118.786889 275.413303 118.973646 275.883364 118.973646 
z
" style="fill:#0077bb;stroke:#0077bb;stroke-width:0.886227;"/>
    <path clip-path="url(#pbb10947b38)" d="M 283.999727 114.191059 
C 284.469788 114.191059 284.920659 114.004302 285.253041 113.671919 
C 285.585424 113.339537 285.772181 112.888665 285.772181 112.418605 
C 285.772181 111.948545 285.585424 111.497674 285.253041 111.165291 
C 284.920659 110.832908 284.469788 110.646151 283.999727 110.646151 
C 283.529667 110.646151 283.078796 110.832908 282.746413 111.165291 
C 282.41403 111.497674 282.227273 111.948545 282.227273 112.418605 
C 282.227273 112.888665 282.41403 113.339537 282.746413 113.671919 
C 283.078796 114.004302 283.529667 114.191059 283.999727 114.191059 
z
" style="fill:#0077bb;stroke:#0077bb;stroke-width:0.886227;"/>
    <path clip-path="url(#pbb10947b38)" d="M 292.116091 117.775312 
C 292.586151 117.775312 293.037022 117.588555 293.369405 117.256172 
C 293.701788 116.92379 293.888545 116.472919 293.888545 116.002858 
C 293.888545 115.532798 293.701788 115.081927 293.369405 114.749544 
C 293.037022 114.417161 292.586151 114.230404 292.116091 114.230404 
C 291.646031 114.230404 291.19516 114.417161 290.862777 114.749544 
C 290.530394 115.081927 290.343637 115.532798 290.343637 116.002858 
C 290.343637 116.472919 290.530394 116.92379 290.862777 117.256172 
C 291.19516 117.588555 291.646031 117.775312 292.116091 117.775312 
z
" style="fill:#0077bb;stroke:#0077bb;stroke-width:0.886227;"/>
    <path clip-path="url(#pbb10947b38)" d="M 300.232455 127.773662 
C 300.702515 127.773662 301.153386 127.586905 301.485769 127.254522 
C 301.818151 126.922139 302.004908 126.471268 302.004908 126.001208 
C 302.004908 125.531148 301.818151 125.080277 301.485769 124.747894 
C 301.153386 124.415511 300.702515 124.228754 300.232455 124.228754 
C 299.762394 124.228754 299.311523 124.415511 298.97914 124.747894 
C 298.646758 125.080277 298.460001 125.531148 298.460001 126.001208 
C 298.460001 126.471268 298.646758 126.922139 298.97914 127.254522 
C 299.311523 127.586905 299.762394 127.773662 300.232455 127.773662 
z
" style="fill:#0077bb;stroke:#0077bb;stroke-width:0.886227;"/>
    <path clip-path="url(#pbb10947b38)" d="M 308.348818 138.369501 
C 308.818878 138.369501 309.26975 138.182744 309.602132 137.850361 
C 309.934515 137.517978 310.121272 137.067107 310.121272 136.597047 
C 310.121272 136.126987 309.934515 135.676116 309.602132 135.343733 
C 309.26975 135.01135 308.818878 134.824593 308.348818 134.824593 
C 307.878758 134.824593 307.427887 135.01135 307.095504 135.343733 
C 306.763121 135.676116 306.576364 136.126987 306.576364 136.597047 
C 306.576364 137.067107 306.763121 137.517978 307.095504 137.850361 
C 307.427887 138.182744 307.878758 138.369501 308.348818 138.369501 
z
" style="fill:#0077bb;stroke:#0077bb;stroke-width:0.886227;"/>
    <path clip-path="url(#pbb10947b38)" d="M 316.465182 113.424049 
C 316.935242 113.424049 317.386113 113.237293 317.718496 112.90491 
C 318.050879 112.572527 318.237636 112.121656 318.237636 111.651596 
C 318.237636 111.181535 318.050879 110.730664 317.718496 110.398281 
C 317.386113 110.065899 316.935242 109.879142 316.465182 109.879142 
C 315.995122 109.879142 315.54425 110.065899 315.211868 110.398281 
C 314.879485 110.730664 314.692728 111.181535 314.692728 111.651596 
C 314.692728 112.121656 314.879485 112.572527 315.211868 112.90491 
C 315.54425 113.237293 315.995122 113.424049 316.465182 113.424049 
z
" style="fill:#0077bb;stroke:#0077bb;stroke-width:0.886227;"/>
    <path clip-path="url(#pbb10947b38)" d="M 324.581545 121.423577 
C 325.051606 121.423577 325.502477 121.23682 325.83486 120.904437 
C 326.167242 120.572054 326.353999 120.121183 326.353999 119.651123 
C 326.353999 119.181063 326.167242 118.730191 325.83486 118.397809 
C 325.502477 118.065426 325.051606 117.878669 324.581545 117.878669 
C 324.111485 117.878669 323.660614 118.065426 323.328231 118.397809 
C 322.995849 118.730191 322.809092 119.181063 322.809092 119.651123 
C 322.809092 120.121183 322.995849 120.572054 323.328231 120.904437 
C 323.660614 121.23682 324.111485 121.423577 324.581545 121.423577 
z
" style="fill:#0077bb;stroke:#0077bb;stroke-width:0.886227;"/>
    <path clip-path="url(#pbb10947b38)" d="M 332.697909 112.545812 
C 333.167969 112.545812 333.61884 112.359055 333.951223 112.026672 
C 334.283606 111.694289 334.470363 111.243418 334.470363 110.773358 
C 334.470363 110.303298 334.283606 109.852427 333.951223 109.520044 
C 333.61884 109.187661 333.167969 109.000904 332.697909 109.000904 
C 332.227849 109.000904 331.776978 109.187661 331.444595 109.520044 
C 331.112212 109.852427 330.925455 110.303298 330.925455 110.773358 
C 330.925455 111.243418 331.112212 111.694289 331.444595 112.026672 
C 331.776978 112.359055 332.227849 112.545812 332.697909 112.545812 
z
" style="fill:#0077bb;stroke:#0077bb;stroke-width:0.886227;"/>
    <path clip-path="url(#pbb10947b38)" d="M 340.814273 123.190777 
C 341.284333 123.190777 341.735204 123.00402 342.067587 122.671637 
C 342.39997 122.339255 342.586727 121.888384 342.586727 121.418323 
C 342.586727 120.948263 342.39997 120.497392 342.067587 120.165009 
C 341.735204 119.832626 341.284333 119.645869 340.814273 119.645869 
C 340.344212 119.645869 339.893341 119.832626 339.560959 120.165009 
C 339.228576 120.497392 339.041819 120.948263 339.041819 121.418323 
C 339.041819 121.888384 339.228576 122.339255 339.560959 122.671637 
C 339.893341 123.00402 340.344212 123.190777 340.814273 123.190777 
z
" style="fill:#0077bb;stroke:#0077bb;stroke-width:0.886227;"/>
    <path clip-path="url(#pbb10947b38)" d="M 348.930636 146.211219 
C 349.400697 146.211219 349.851568 146.024462 350.183951 145.692079 
C 350.516333 145.359696 350.70309 144.908825 350.70309 144.438765 
C 350.70309 143.968705 350.516333 143.517834 350.183951 143.185451 
C 349.851568 142.853068 349.400697 142.666311 348.930636 142.666311 
C 348.460576 142.666311 348.009705 142.853068 347.677322 143.185451 
C 347.344939 143.517834 347.158183 143.968705 347.158183 144.438765 
C 347.158183 144.908825 347.344939 145.359696 347.677322 145.692079 
C 348.009705 146.024462 348.460576 146.211219 348.930636 146.211219 
z
" style="fill:#0077bb;stroke:#0077bb;stroke-width:0.886227;"/>
    <path clip-path="url(#pbb10947b38)" d="M 357.047 146.900048 
C 357.51706 146.900048 357.967931 146.713291 358.300314 146.380909 
C 358.632697 146.048526 358.819454 145.597655 358.819454 145.127594 
C 358.819454 144.657534 358.632697 144.206663 358.300314 143.87428 
C 357.967931 143.541897 357.51706 143.355141 357.047 143.355141 
C 356.57694 143.355141 356.126069 143.541897 355.793686 143.87428 
C 355.461303 144.206663 355.274546 144.657534 355.274546 145.127594 
C 355.274546 145.597655 355.461303 146.048526 355.793686 146.380909 
C 356.126069 146.713291 356.57694 146.900048 357.047 146.900048 
z
" style="fill:#0077bb;stroke:#0077bb;stroke-width:0.886227;"/>
    <path clip-path="url(#pbb10947b38)" d="M 365.163364 119.947056 
C 365.633424 119.947056 366.084295 119.760299 366.416678 119.427917 
C 366.749061 119.095534 366.935817 118.644663 366.935817 118.174603 
C 366.935817 117.704542 366.749061 117.253671 366.416678 116.921288 
C 366.084295 116.588906 365.633424 116.402149 365.163364 116.402149 
C 364.693303 116.402149 364.242432 116.588906 363.910049 116.921288 
C 363.577667 117.253671 363.39091 117.704542 363.39091 118.174603 
C 363.39091 118.644663 363.577667 119.095534 363.910049 119.427917 
C 364.242432 119.760299 364.693303 119.947056 365.163364 119.947056 
z
" style="fill:#0077bb;stroke:#0077bb;stroke-width:0.886227;"/>
    <path clip-path="url(#pbb10947b38)" d="M 373.279727 116.12449 
C 373.749788 116.12449 374.200659 115.937733 374.533041 115.60535 
C 374.865424 115.272967 375.052181 114.822096 375.052181 114.352036 
C 375.052181 113.881976 374.865424 113.431104 374.533041 113.098722 
C 374.200659 112.766339 373.749788 112.579582 373.279727 112.579582 
C 372.809667 112.579582 372.358796 112.766339 372.026413 113.098722 
C 371.69403 113.431104 371.507273 113.881976 371.507273 114.352036 
C 371.507273 114.822096 371.69403 115.272967 372.026413 115.60535 
C 372.358796 115.937733 372.809667 116.12449 373.279727 116.12449 
z
" style="fill:#0077bb;stroke:#0077bb;stroke-width:0.886227;"/>
    <path clip-path="url(#pbb10947b38)" d="M 381.396091 126.92909 
C 381.866151 126.92909 382.317022 126.742333 382.649405 126.409951 
C 382.981788 126.077568 383.168545 125.626697 383.168545 125.156636 
C 383.168545 124.686576 382.981788 124.235705 382.649405 123.903322 
C 382.317022 123.570939 381.866151 123.384183 381.396091 123.384183 
C 380.926031 123.384183 380.47516 123.570939 380.142777 123.903322 
C 379.810394 124.235705 379.623637 124.686576 379.623637 125.156636 
C 379.623637 125.626697 379.810394 126.077568 380.142777 126.409951 
C 380.47516 126.742333 380.926031 126.92909 381.396091 126.92909 
z
" style="fill:#0077bb;stroke:#0077bb;stroke-width:0.886227;"/>
    <path clip-path="url(#pbb10947b38)" d="M 389.512455 105.154587 
C 389.982515 105.154587 390.433386 104.967831 390.765769 104.635448 
C 391.098151 104.303065 391.284908 103.852194 391.284908 103.382134 
C 391.284908 102.912073 391.098151 102.461202 390.765769 102.128819 
C 390.433386 101.796437 389.982515 101.60968 389.512455 101.60968 
C 389.042394 101.60968 388.591523 101.796437 388.25914 102.128819 
C 387.926758 102.461202 387.740001 102.912073 387.740001 103.382134 
C 387.740001 103.852194 387.926758 104.303065 388.25914 104.635448 
C 388.591523 104.967831 389.042394 105.154587 389.512455 105.154587 
z
" style="fill:#0077bb;stroke:#0077bb;stroke-width:0.886227;"/>
    <path clip-path="url(#pbb10947b38)" d="M 397.628818 116.846414 
C 398.098878 116.846414 398.54975 116.659657 398.882132 116.327274 
C 399.214515 115.994891 399.401272 115.54402 399.401272 115.07396 
C 399.401272 114.603899 399.214515 114.153028 398.882132 113.820646 
C 398.54975 113.488263 398.098878 113.301506 397.628818 113.301506 
C 397.158758 113.301506 396.707887 113.488263 396.375504 113.820646 
C 396.043121 114.153028 395.856364 114.603899 395.856364 115.07396 
C 395.856364 115.54402 396.043121 115.994891 396.375504 116.327274 
C 396.707887 116.659657 397.158758 116.846414 397.628818 116.846414 
z
" style="fill:#0077bb;stroke:#0077bb;stroke-width:0.886227;"/>
    <path clip-path="url(#pbb10947b38)" d="M 405.745182 118.12726 
C 406.215242 118.12726 406.666113 117.940503 406.998496 117.608121 
C 407.330879 117.275738 407.517636 116.824867 407.517636 116.354806 
C 407.517636 115.884746 407.330879 115.433875 406.998496 115.101492 
C 406.666113 114.769109 406.215242 114.582353 405.745182 114.582353 
C 405.275122 114.582353 404.82425 114.769109 404.491868 115.101492 
C 404.159485 115.433875 403.972728 115.884746 403.972728 116.354806 
C 403.972728 116.824867 404.159485 117.275738 404.491868 117.608121 
C 404.82425 117.940503 405.275122 118.12726 405.745182 118.12726 
z
" style="fill:#0077bb;stroke:#0077bb;stroke-width:0.886227;"/>
    <path clip-path="url(#pbb10947b38)" d="M 413.861545 102.016212 
C 414.331606 102.016212 414.782477 101.829455 415.11486 101.497073 
C 415.447242 101.16469 415.633999 100.713819 415.633999 100.243758 
C 415.633999 99.773698 415.447242 99.322827 415.11486 98.990444 
C 414.782477 98.658061 414.331606 98.471305 413.861545 98.471305 
C 413.391485 98.471305 412.940614 98.658061 412.608231 98.990444 
C 412.275849 99.322827 412.089092 99.773698 412.089092 100.243758 
C 412.089092 100.713819 412.275849 101.16469 412.608231 101.497073 
C 412.940614 101.829455 413.391485 102.016212 413.861545 102.016212 
z
" style="fill:#0077bb;stroke:#0077bb;stroke-width:0.886227;"/>
    <path clip-path="url(#pbb10947b38)" d="M 421.977909 92.412018 
C 422.447969 92.412018 422.89884 92.225261 423.231223 91.892878 
C 423.563606 91.560495 423.750363 91.109624 423.750363 90.639564 
C 423.750363 90.169504 423.563606 89.718632 423.231223 89.38625 
C 422.89884 89.053867 422.447969 88.86711 421.977909 88.86711 
C 421.507849 88.86711 421.056978 89.053867 420.724595 89.38625 
C 420.392212 89.718632 420.205455 90.169504 420.205455 90.639564 
C 420.205455 91.109624 420.392212 91.560495 420.724595 91.892878 
C 421.056978 92.225261 421.507849 92.412018 421.977909 92.412018 
z
" style="fill:#0077bb;stroke:#0077bb;stroke-width:0.886227;"/>
    <path clip-path="url(#pbb10947b38)" d="M 430.094273 118.821294 
C 430.564333 118.821294 431.015204 118.634537 431.347587 118.302154 
C 431.67997 117.969771 431.866727 117.5189 431.866727 117.04884 
C 431.866727 116.57878 431.67997 116.127909 431.347587 115.795526 
C 431.015204 115.463143 430.564333 115.276386 430.094273 115.276386 
C 429.624212 115.276386 429.173341 115.463143 428.840959 115.795526 
C 428.508576 116.127909 428.321819 116.57878 428.321819 117.04884 
C 428.321819 117.5189 428.508576 117.969771 428.840959 118.302154 
C 429.173341 118.634537 429.624212 118.821294 430.094273 118.821294 
z
" style="fill:#0077bb;stroke:#0077bb;stroke-width:0.886227;"/>
    <path clip-path="url(#pbb10947b38)" d="M 438.210636 94.934514 
C 438.680697 94.934514 439.131568 94.747757 439.463951 94.415374 
C 439.796333 94.082992 439.98309 93.63212 439.98309 93.16206 
C 439.98309 92.692 439.796333 92.241129 439.463951 91.908746 
C 439.131568 91.576363 438.680697 91.389606 438.210636 91.389606 
C 437.740576 91.389606 437.289705 91.576363 436.957322 91.908746 
C 436.624939 92.241129 436.438183 92.692 436.438183 93.16206 
C 436.438183 93.63212 436.624939 94.082992 436.957322 94.415374 
C 437.289705 94.747757 437.740576 94.934514 438.210636 94.934514 
z
" style="fill:#0077bb;stroke:#0077bb;stroke-width:0.886227;"/>
    <path clip-path="url(#pbb10947b38)" d="M 446.327 92.204041 
C 446.79706 92.204041 447.247931 92.017284 447.580314 91.684901 
C 447.912697 91.352519 448.099454 90.901648 448.099454 90.431587 
C 448.099454 89.961527 447.912697 89.510656 447.580314 89.178273 
C 447.247931 88.84589 446.79706 88.659134 446.327 88.659134 
C 445.85694 88.659134 445.406069 88.84589 445.073686 89.178273 
C 444.741303 89.510656 444.554546 89.961527 444.554546 90.431587 
C 444.554546 90.901648 444.741303 91.352519 445.073686 91.684901 
C 445.406069 92.017284 445.85694 92.204041 446.327 92.204041 
z
" style="fill:#0077bb;stroke:#0077bb;stroke-width:0.886227;"/>
    <path clip-path="url(#pbb10947b38)" d="M 454.443364 108.789098 
C 454.913424 108.789098 455.364295 108.602341 455.696678 108.269958 
C 456.029061 107.937576 456.215817 107.486705 456.215817 107.016644 
C 456.215817 106.546584 456.029061 106.095713 455.696678 105.76333 
C 455.364295 105.430947 454.913424 105.24419 454.443364 105.24419 
C 453.973303 105.24419 453.522432 105.430947 453.190049 105.76333 
C 452.857667 106.095713 452.67091 106.546584 452.67091 107.016644 
C 452.67091 107.486705 452.857667 107.937576 453.190049 108.269958 
C 453.522432 108.602341 453.973303 108.789098 454.443364 108.789098 
z
" style="fill:#0077bb;stroke:#0077bb;stroke-width:0.886227;"/>
    <path clip-path="url(#pbb10947b38)" d="M 462.559727 130.668561 
C 463.029788 130.668561 463.480659 130.481804 463.813041 130.149422 
C 464.145424 129.817039 464.332181 129.366168 464.332181 128.896107 
C 464.332181 128.426047 464.145424 127.975176 463.813041 127.642793 
C 463.480659 127.31041 463.029788 127.123654 462.559727 127.123654 
C 462.089667 127.123654 461.638796 127.31041 461.306413 127.642793 
C 460.97403 127.975176 460.787273 128.426047 460.787273 128.896107 
C 460.787273 129.366168 460.97403 129.817039 461.306413 130.149422 
C 461.638796 130.481804 462.089667 130.668561 462.559727 130.668561 
z
" style="fill:#0077bb;stroke:#0077bb;stroke-width:0.886227;"/>
   </g>
  </g>
 </g>
 <defs>
  <clipPath id="pbb10947b38">
   <rect height="221.76" width="446.4" x="44.567" y="7.2"/>
  </clipPath>
 </defs>
</svg>
