<?xml version="1.0" encoding="utf-8" standalone="no"?>
<!DOCTYPE svg PUBLIC "-//W3C//DTD SVG 1.1//EN"
  "http://www.w3.org/Graphics/SVG/1.1/DTD/svg11.dtd">
<!-- Created with matplotlib (https://matplotlib.org/) -->
<svg height="265.688469pt" version="1.1" viewBox="0 0 498.167 265.688469" width="498.167pt" xmlns="http://www.w3.org/2000/svg" xmlns:xlink="http://www.w3.org/1999/xlink">
 <defs>
  <style type="text/css">
*{stroke-linecap:butt;stroke-linejoin:round;}
  </style>
 </defs>
 <g id="figure_1">
  <g id="patch_1">
   <path d="M 0 265.688469 
L 498.167 265.688469 
L 498.167 0 
L 0 0 
z
" style="fill:#ffffff;stroke:#ffffff;stroke-linejoin:miter;"/>
  </g>
  <g id="axes_1">
   <g id="patch_2">
    <path d="M 44.567 228.96 
L 490.967 228.96 
L 490.967 7.2 
L 44.567 7.2 
z
" style="fill:#ffffff;"/>
   </g>
   <g id="matplotlib.axis_1">
    <g id="xtick_1">
     <g id="line2d_1">
      <path d="M 64.85791 228.96 
" style="fill:none;stroke:#000000;stroke-width:1.5;"/>
      <defs>
       <path d="M 0 0 
L 0 2.75 
" id="m087f40b684" style="stroke:#000000;"/>
      </defs>
      <g>
       <use style="stroke:#000000;" x="64.85791" xlink:href="#m087f40b684" y="228.96"/>
      </g>
     </g>
     <g id="text_1">
      <!-- 1 -->
      <defs>
       <path d="M 12.40625 8.296875 
L 28.515625 8.296875 
L 28.515625 63.921875 
L 10.984375 60.40625 
L 10.984375 69.390625 
L 28.421875 72.90625 
L 38.28125 72.90625 
L 38.28125 8.296875 
L 54.390625 8.296875 
L 54.390625 0 
L 12.40625 0 
z
" id="DejaVuSans-49"/>
      </defs>
      <g transform="translate(62.05841 240.596625)scale(0.088 -0.088)">
       <use xlink:href="#DejaVuSans-49"/>
      </g>
     </g>
    </g>
    <g id="xtick_2">
     <g id="line2d_2">
      <path d="M 200.130637 228.96 
" style="fill:none;stroke:#000000;stroke-width:1.5;"/>
      <g>
       <use style="stroke:#000000;" x="200.130637" xlink:href="#m087f40b684" y="228.96"/>
      </g>
     </g>
     <g id="text_2">
      <!-- 2 -->
      <defs>
       <path d="M 19.1875 8.296875 
L 53.609375 8.296875 
L 53.609375 0 
L 7.328125 0 
L 7.328125 8.296875 
Q 12.9375 14.109375 22.625 23.890625 
Q 32.328125 33.6875 34.8125 36.53125 
Q 39.546875 41.84375 41.421875 45.53125 
Q 43.3125 49.21875 43.3125 52.78125 
Q 43.3125 58.59375 39.234375 62.25 
Q 35.15625 65.921875 28.609375 65.921875 
Q 23.96875 65.921875 18.8125 64.3125 
Q 13.671875 62.703125 7.8125 59.421875 
L 7.8125 69.390625 
Q 13.765625 71.78125 18.9375 73 
Q 24.125 74.21875 28.421875 74.21875 
Q 39.75 74.21875 46.484375 68.546875 
Q 53.21875 62.890625 53.21875 53.421875 
Q 53.21875 48.921875 51.53125 44.890625 
Q 49.859375 40.875 45.40625 35.40625 
Q 44.1875 33.984375 37.640625 27.21875 
Q 31.109375 20.453125 19.1875 8.296875 
z
" id="DejaVuSans-50"/>
      </defs>
      <g transform="translate(197.331137 240.596625)scale(0.088 -0.088)">
       <use xlink:href="#DejaVuSans-50"/>
      </g>
     </g>
    </g>
    <g id="xtick_3">
     <g id="line2d_3">
      <path d="M 335.403363 228.96 
" style="fill:none;stroke:#000000;stroke-width:1.5;"/>
      <g>
       <use style="stroke:#000000;" x="335.403363" xlink:href="#m087f40b684" y="228.96"/>
      </g>
     </g>
     <g id="text_3">
      <!-- 3 -->
      <defs>
       <path d="M 40.578125 39.3125 
Q 47.65625 37.796875 51.625 33 
Q 55.609375 28.21875 55.609375 21.1875 
Q 55.609375 10.40625 48.1875 4.484375 
Q 40.765625 -1.421875 27.09375 -1.421875 
Q 22.515625 -1.421875 17.65625 -0.515625 
Q 12.796875 0.390625 7.625 2.203125 
L 7.625 11.71875 
Q 11.71875 9.328125 16.59375 8.109375 
Q 21.484375 6.890625 26.8125 6.890625 
Q 36.078125 6.890625 40.9375 10.546875 
Q 45.796875 14.203125 45.796875 21.1875 
Q 45.796875 27.640625 41.28125 31.265625 
Q 36.765625 34.90625 28.71875 34.90625 
L 20.21875 34.90625 
L 20.21875 43.015625 
L 29.109375 43.015625 
Q 36.375 43.015625 40.234375 45.921875 
Q 44.09375 48.828125 44.09375 54.296875 
Q 44.09375 59.90625 40.109375 62.90625 
Q 36.140625 65.921875 28.71875 65.921875 
Q 24.65625 65.921875 20.015625 65.03125 
Q 15.375 64.15625 9.8125 62.3125 
L 9.8125 71.09375 
Q 15.4375 72.65625 20.34375 73.4375 
Q 25.25 74.21875 29.59375 74.21875 
Q 40.828125 74.21875 47.359375 69.109375 
Q 53.90625 64.015625 53.90625 55.328125 
Q 53.90625 49.265625 50.4375 45.09375 
Q 46.96875 40.921875 40.578125 39.3125 
z
" id="DejaVuSans-51"/>
      </defs>
      <g transform="translate(332.603863 240.596625)scale(0.088 -0.088)">
       <use xlink:href="#DejaVuSans-51"/>
      </g>
     </g>
    </g>
    <g id="xtick_4">
     <g id="line2d_4">
      <path d="M 470.67609 228.96 
" style="fill:none;stroke:#000000;stroke-width:1.5;"/>
      <g>
       <use style="stroke:#000000;" x="470.67609" xlink:href="#m087f40b684" y="228.96"/>
      </g>
     </g>
     <g id="text_4">
      <!-- 4 -->
      <defs>
       <path d="M 37.796875 64.3125 
L 12.890625 25.390625 
L 37.796875 25.390625 
z
M 35.203125 72.90625 
L 47.609375 72.90625 
L 47.609375 25.390625 
L 58.015625 25.390625 
L 58.015625 17.1875 
L 47.609375 17.1875 
L 47.609375 0 
L 37.796875 0 
L 37.796875 17.1875 
L 4.890625 17.1875 
L 4.890625 26.703125 
z
" id="DejaVuSans-52"/>
      </defs>
      <g transform="translate(467.87659 240.596625)scale(0.088 -0.088)">
       <use xlink:href="#DejaVuSans-52"/>
      </g>
     </g>
    </g>
    <g id="xtick_5">
     <g id="line2d_5">
      <path d="M 132.494273 228.96 
" style="fill:none;stroke:#000000;stroke-width:1.5;"/>
      <defs>
       <path d="M 0 0 
L 0 1.375 
" id="m295027e18e" style="stroke:#000000;"/>
      </defs>
      <g>
       <use style="stroke:#000000;" x="132.494273" xlink:href="#m295027e18e" y="228.96"/>
      </g>
     </g>
    </g>
    <g id="xtick_6">
     <g id="line2d_6">
      <path d="M 267.767 228.96 
" style="fill:none;stroke:#000000;stroke-width:1.5;"/>
      <g>
       <use style="stroke:#000000;" x="267.767" xlink:href="#m295027e18e" y="228.96"/>
      </g>
     </g>
    </g>
    <g id="xtick_7">
     <g id="line2d_7">
      <path d="M 403.039727 228.96 
" style="fill:none;stroke:#000000;stroke-width:1.5;"/>
      <g>
       <use style="stroke:#000000;" x="403.039727" xlink:href="#m295027e18e" y="228.96"/>
      </g>
     </g>
    </g>
    <g id="text_5">
     <!-- Resolution [Å] -->
     <defs>
      <path d="M 44.390625 34.1875 
Q 47.5625 33.109375 50.5625 29.59375 
Q 53.5625 26.078125 56.59375 19.921875 
L 66.609375 0 
L 56 0 
L 46.6875 18.703125 
Q 43.0625 26.03125 39.671875 28.421875 
Q 36.28125 30.8125 30.421875 30.8125 
L 19.671875 30.8125 
L 19.671875 0 
L 9.8125 0 
L 9.8125 72.90625 
L 32.078125 72.90625 
Q 44.578125 72.90625 50.734375 67.671875 
Q 56.890625 62.453125 56.890625 51.90625 
Q 56.890625 45.015625 53.6875 40.46875 
Q 50.484375 35.9375 44.390625 34.1875 
z
M 19.671875 64.796875 
L 19.671875 38.921875 
L 32.078125 38.921875 
Q 39.203125 38.921875 42.84375 42.21875 
Q 46.484375 45.515625 46.484375 51.90625 
Q 46.484375 58.296875 42.84375 61.546875 
Q 39.203125 64.796875 32.078125 64.796875 
z
" id="DejaVuSans-82"/>
      <path d="M 56.203125 29.59375 
L 56.203125 25.203125 
L 14.890625 25.203125 
Q 15.484375 15.921875 20.484375 11.0625 
Q 25.484375 6.203125 34.421875 6.203125 
Q 39.59375 6.203125 44.453125 7.46875 
Q 49.3125 8.734375 54.109375 11.28125 
L 54.109375 2.78125 
Q 49.265625 0.734375 44.1875 -0.34375 
Q 39.109375 -1.421875 33.890625 -1.421875 
Q 20.796875 -1.421875 13.15625 6.1875 
Q 5.515625 13.8125 5.515625 26.8125 
Q 5.515625 40.234375 12.765625 48.109375 
Q 20.015625 56 32.328125 56 
Q 43.359375 56 49.78125 48.890625 
Q 56.203125 41.796875 56.203125 29.59375 
z
M 47.21875 32.234375 
Q 47.125 39.59375 43.09375 43.984375 
Q 39.0625 48.390625 32.421875 48.390625 
Q 24.90625 48.390625 20.390625 44.140625 
Q 15.875 39.890625 15.1875 32.171875 
z
" id="DejaVuSans-101"/>
      <path d="M 44.28125 53.078125 
L 44.28125 44.578125 
Q 40.484375 46.53125 36.375 47.5 
Q 32.28125 48.484375 27.875 48.484375 
Q 21.1875 48.484375 17.84375 46.4375 
Q 14.5 44.390625 14.5 40.28125 
Q 14.5 37.15625 16.890625 35.375 
Q 19.28125 33.59375 26.515625 31.984375 
L 29.59375 31.296875 
Q 39.15625 29.25 43.1875 25.515625 
Q 47.21875 21.78125 47.21875 15.09375 
Q 47.21875 7.46875 41.1875 3.015625 
Q 35.15625 -1.421875 24.609375 -1.421875 
Q 20.21875 -1.421875 15.453125 -0.5625 
Q 10.6875 0.296875 5.421875 2 
L 5.421875 11.28125 
Q 10.40625 8.6875 15.234375 7.390625 
Q 20.0625 6.109375 24.8125 6.109375 
Q 31.15625 6.109375 34.5625 8.28125 
Q 37.984375 10.453125 37.984375 14.40625 
Q 37.984375 18.0625 35.515625 20.015625 
Q 33.0625 21.96875 24.703125 23.78125 
L 21.578125 24.515625 
Q 13.234375 26.265625 9.515625 29.90625 
Q 5.8125 33.546875 5.8125 39.890625 
Q 5.8125 47.609375 11.28125 51.796875 
Q 16.75 56 26.8125 56 
Q 31.78125 56 36.171875 55.265625 
Q 40.578125 54.546875 44.28125 53.078125 
z
" id="DejaVuSans-115"/>
      <path d="M 30.609375 48.390625 
Q 23.390625 48.390625 19.1875 42.75 
Q 14.984375 37.109375 14.984375 27.296875 
Q 14.984375 17.484375 19.15625 11.84375 
Q 23.34375 6.203125 30.609375 6.203125 
Q 37.796875 6.203125 41.984375 11.859375 
Q 46.1875 17.53125 46.1875 27.296875 
Q 46.1875 37.015625 41.984375 42.703125 
Q 37.796875 48.390625 30.609375 48.390625 
z
M 30.609375 56 
Q 42.328125 56 49.015625 48.375 
Q 55.71875 40.765625 55.71875 27.296875 
Q 55.71875 13.875 49.015625 6.21875 
Q 42.328125 -1.421875 30.609375 -1.421875 
Q 18.84375 -1.421875 12.171875 6.21875 
Q 5.515625 13.875 5.515625 27.296875 
Q 5.515625 40.765625 12.171875 48.375 
Q 18.84375 56 30.609375 56 
z
" id="DejaVuSans-111"/>
      <path d="M 9.421875 75.984375 
L 18.40625 75.984375 
L 18.40625 0 
L 9.421875 0 
z
" id="DejaVuSans-108"/>
      <path d="M 8.5 21.578125 
L 8.5 54.6875 
L 17.484375 54.6875 
L 17.484375 21.921875 
Q 17.484375 14.15625 20.5 10.265625 
Q 23.53125 6.390625 29.59375 6.390625 
Q 36.859375 6.390625 41.078125 11.03125 
Q 45.3125 15.671875 45.3125 23.6875 
L 45.3125 54.6875 
L 54.296875 54.6875 
L 54.296875 0 
L 45.3125 0 
L 45.3125 8.40625 
Q 42.046875 3.421875 37.71875 1 
Q 33.40625 -1.421875 27.6875 -1.421875 
Q 18.265625 -1.421875 13.375 4.4375 
Q 8.5 10.296875 8.5 21.578125 
z
M 31.109375 56 
z
" id="DejaVuSans-117"/>
      <path d="M 18.3125 70.21875 
L 18.3125 54.6875 
L 36.8125 54.6875 
L 36.8125 47.703125 
L 18.3125 47.703125 
L 18.3125 18.015625 
Q 18.3125 11.328125 20.140625 9.421875 
Q 21.96875 7.515625 27.59375 7.515625 
L 36.8125 7.515625 
L 36.8125 0 
L 27.59375 0 
Q 17.1875 0 13.234375 3.875 
Q 9.28125 7.765625 9.28125 18.015625 
L 9.28125 47.703125 
L 2.6875 47.703125 
L 2.6875 54.6875 
L 9.28125 54.6875 
L 9.28125 70.21875 
z
" id="DejaVuSans-116"/>
      <path d="M 9.421875 54.6875 
L 18.40625 54.6875 
L 18.40625 0 
L 9.421875 0 
z
M 9.421875 75.984375 
L 18.40625 75.984375 
L 18.40625 64.59375 
L 9.421875 64.59375 
z
" id="DejaVuSans-105"/>
      <path d="M 54.890625 33.015625 
L 54.890625 0 
L 45.90625 0 
L 45.90625 32.71875 
Q 45.90625 40.484375 42.875 44.328125 
Q 39.84375 48.1875 33.796875 48.1875 
Q 26.515625 48.1875 22.3125 43.546875 
Q 18.109375 38.921875 18.109375 30.90625 
L 18.109375 0 
L 9.078125 0 
L 9.078125 54.6875 
L 18.109375 54.6875 
L 18.109375 46.1875 
Q 21.34375 51.125 25.703125 53.5625 
Q 30.078125 56 35.796875 56 
Q 45.21875 56 50.046875 50.171875 
Q 54.890625 44.34375 54.890625 33.015625 
z
" id="DejaVuSans-110"/>
      <path id="DejaVuSans-32"/>
      <path d="M 8.59375 75.984375 
L 29.296875 75.984375 
L 29.296875 69 
L 17.578125 69 
L 17.578125 -6.203125 
L 29.296875 -6.203125 
L 29.296875 -13.1875 
L 8.59375 -13.1875 
z
" id="DejaVuSans-91"/>
      <path d="M 41.609375 79.390625 
Q 41.609375 82.46875 39.421875 84.640625 
Q 37.25 86.8125 34.1875 86.8125 
Q 31.0625 86.8125 28.9375 84.6875 
Q 26.8125 82.5625 26.8125 79.390625 
Q 26.8125 76.3125 28.953125 74.15625 
Q 31.109375 72.015625 34.1875 72.015625 
Q 37.25 72.015625 39.421875 74.15625 
Q 41.609375 76.3125 41.609375 79.390625 
z
M 34.1875 63.1875 
L 20.90625 26.90625 
L 47.515625 26.90625 
z
M 26.8125 68.21875 
Q 23.828125 70.21875 22.3125 73.015625 
Q 20.796875 75.828125 20.796875 79.390625 
Q 20.796875 85.015625 24.671875 88.921875 
Q 28.5625 92.828125 34.1875 92.828125 
Q 39.75 92.828125 43.671875 88.890625 
Q 47.609375 84.96875 47.609375 79.390625 
Q 47.609375 75.984375 46.0625 73.09375 
Q 44.53125 70.21875 41.609375 68.21875 
L 67.578125 0 
L 57.328125 0 
L 50.6875 18.703125 
L 17.828125 18.703125 
L 11.1875 0 
L 0.78125 0 
z
" id="DejaVuSans-197"/>
      <path d="M 30.421875 75.984375 
L 30.421875 -13.1875 
L 9.71875 -13.1875 
L 9.71875 -6.203125 
L 21.390625 -6.203125 
L 21.390625 69 
L 9.71875 69 
L 9.71875 75.984375 
z
" id="DejaVuSans-93"/>
     </defs>
     <g transform="translate(221.783406 256.200812)scale(0.11 -0.11)">
      <use xlink:href="#DejaVuSans-82"/>
      <use x="69.419922" xlink:href="#DejaVuSans-101"/>
      <use x="130.943359" xlink:href="#DejaVuSans-115"/>
      <use x="183.042969" xlink:href="#DejaVuSans-111"/>
      <use x="244.224609" xlink:href="#DejaVuSans-108"/>
      <use x="272.007812" xlink:href="#DejaVuSans-117"/>
      <use x="335.386719" xlink:href="#DejaVuSans-116"/>
      <use x="374.595703" xlink:href="#DejaVuSans-105"/>
      <use x="402.378906" xlink:href="#DejaVuSans-111"/>
      <use x="463.560547" xlink:href="#DejaVuSans-110"/>
      <use x="526.939453" xlink:href="#DejaVuSans-32"/>
      <use x="558.726562" xlink:href="#DejaVuSans-91"/>
      <use x="597.740234" xlink:href="#DejaVuSans-197"/>
      <use x="666.148438" xlink:href="#DejaVuSans-93"/>
     </g>
    </g>
   </g>
   <g id="matplotlib.axis_2">
    <g id="ytick_1">
     <g id="line2d_8">
      <path d="M 44.567 218.88 
" style="fill:none;stroke:#000000;stroke-width:1.5;"/>
      <defs>
       <path d="M 0 0 
L -2.75 0 
" id="mbfcaee8cd4" style="stroke:#000000;"/>
      </defs>
      <g>
       <use style="stroke:#000000;" x="44.567" xlink:href="#mbfcaee8cd4" y="218.88"/>
      </g>
     </g>
     <g id="text_6">
      <!-- 0 -->
      <defs>
       <path d="M 31.78125 66.40625 
Q 24.171875 66.40625 20.328125 58.90625 
Q 16.5 51.421875 16.5 36.375 
Q 16.5 21.390625 20.328125 13.890625 
Q 24.171875 6.390625 31.78125 6.390625 
Q 39.453125 6.390625 43.28125 13.890625 
Q 47.125 21.390625 47.125 36.375 
Q 47.125 51.421875 43.28125 58.90625 
Q 39.453125 66.40625 31.78125 66.40625 
z
M 31.78125 74.21875 
Q 44.046875 74.21875 50.515625 64.515625 
Q 56.984375 54.828125 56.984375 36.375 
Q 56.984375 17.96875 50.515625 8.265625 
Q 44.046875 -1.421875 31.78125 -1.421875 
Q 19.53125 -1.421875 13.0625 8.265625 
Q 6.59375 17.96875 6.59375 36.375 
Q 6.59375 54.828125 13.0625 64.515625 
Q 19.53125 74.21875 31.78125 74.21875 
z
" id="DejaVuSans-48"/>
      </defs>
      <g transform="translate(34.018 221.30825)scale(0.088 -0.088)">
       <use xlink:href="#DejaVuSans-48"/>
      </g>
     </g>
    </g>
    <g id="ytick_2">
     <g id="line2d_9">
      <path d="M 44.567 168.48 
" style="fill:none;stroke:#000000;stroke-width:1.5;"/>
      <g>
       <use style="stroke:#000000;" x="44.567" xlink:href="#mbfcaee8cd4" y="168.48"/>
      </g>
     </g>
     <g id="text_7">
      <!-- 25 -->
      <defs>
       <path d="M 10.796875 72.90625 
L 49.515625 72.90625 
L 49.515625 64.59375 
L 19.828125 64.59375 
L 19.828125 46.734375 
Q 21.96875 47.46875 24.109375 47.828125 
Q 26.265625 48.1875 28.421875 48.1875 
Q 40.625 48.1875 47.75 41.5 
Q 54.890625 34.8125 54.890625 23.390625 
Q 54.890625 11.625 47.5625 5.09375 
Q 40.234375 -1.421875 26.90625 -1.421875 
Q 22.3125 -1.421875 17.546875 -0.640625 
Q 12.796875 0.140625 7.71875 1.703125 
L 7.71875 11.625 
Q 12.109375 9.234375 16.796875 8.0625 
Q 21.484375 6.890625 26.703125 6.890625 
Q 35.15625 6.890625 40.078125 11.328125 
Q 45.015625 15.765625 45.015625 23.390625 
Q 45.015625 31 40.078125 35.4375 
Q 35.15625 39.890625 26.703125 39.890625 
Q 22.75 39.890625 18.8125 39.015625 
Q 14.890625 38.140625 10.796875 36.28125 
z
" id="DejaVuSans-53"/>
      </defs>
      <g transform="translate(28.419 170.90825)scale(0.088 -0.088)">
       <use xlink:href="#DejaVuSans-50"/>
       <use x="63.623047" xlink:href="#DejaVuSans-53"/>
      </g>
     </g>
    </g>
    <g id="ytick_3">
     <g id="line2d_10">
      <path d="M 44.567 118.08 
" style="fill:none;stroke:#000000;stroke-width:1.5;"/>
      <g>
       <use style="stroke:#000000;" x="44.567" xlink:href="#mbfcaee8cd4" y="118.08"/>
      </g>
     </g>
     <g id="text_8">
      <!-- 50 -->
      <g transform="translate(28.419 120.50825)scale(0.088 -0.088)">
       <use xlink:href="#DejaVuSans-53"/>
       <use x="63.623047" xlink:href="#DejaVuSans-48"/>
      </g>
     </g>
    </g>
    <g id="ytick_4">
     <g id="line2d_11">
      <path d="M 44.567 67.68 
" style="fill:none;stroke:#000000;stroke-width:1.5;"/>
      <g>
       <use style="stroke:#000000;" x="44.567" xlink:href="#mbfcaee8cd4" y="67.68"/>
      </g>
     </g>
     <g id="text_9">
      <!-- 75 -->
      <defs>
       <path d="M 8.203125 72.90625 
L 55.078125 72.90625 
L 55.078125 68.703125 
L 28.609375 0 
L 18.3125 0 
L 43.21875 64.59375 
L 8.203125 64.59375 
z
" id="DejaVuSans-55"/>
      </defs>
      <g transform="translate(28.419 70.10825)scale(0.088 -0.088)">
       <use xlink:href="#DejaVuSans-55"/>
       <use x="63.623047" xlink:href="#DejaVuSans-53"/>
      </g>
     </g>
    </g>
    <g id="ytick_5">
     <g id="line2d_12">
      <path d="M 44.567 17.28 
" style="fill:none;stroke:#000000;stroke-width:1.5;"/>
      <g>
       <use style="stroke:#000000;" x="44.567" xlink:href="#mbfcaee8cd4" y="17.28"/>
      </g>
     </g>
     <g id="text_10">
      <!-- 100 -->
      <g transform="translate(22.82 19.70825)scale(0.088 -0.088)">
       <use xlink:href="#DejaVuSans-49"/>
       <use x="63.623047" xlink:href="#DejaVuSans-48"/>
       <use x="127.246094" xlink:href="#DejaVuSans-48"/>
      </g>
     </g>
    </g>
    <g id="ytick_6">
     <g id="line2d_13">
      <path d="M 44.567 193.68 
" style="fill:none;stroke:#000000;stroke-width:1.5;"/>
      <defs>
       <path d="M 0 0 
L -1.375 0 
" id="m1ee34dde1f" style="stroke:#000000;"/>
      </defs>
      <g>
       <use style="stroke:#000000;" x="44.567" xlink:href="#m1ee34dde1f" y="193.68"/>
      </g>
     </g>
    </g>
    <g id="ytick_7">
     <g id="line2d_14">
      <path d="M 44.567 143.28 
" style="fill:none;stroke:#000000;stroke-width:1.5;"/>
      <g>
       <use style="stroke:#000000;" x="44.567" xlink:href="#m1ee34dde1f" y="143.28"/>
      </g>
     </g>
    </g>
    <g id="ytick_8">
     <g id="line2d_15">
      <path d="M 44.567 92.88 
" style="fill:none;stroke:#000000;stroke-width:1.5;"/>
      <g>
       <use style="stroke:#000000;" x="44.567" xlink:href="#m1ee34dde1f" y="92.88"/>
      </g>
     </g>
    </g>
    <g id="ytick_9">
     <g id="line2d_16">
      <path d="M 44.567 42.48 
" style="fill:none;stroke:#000000;stroke-width:1.5;"/>
      <g>
       <use style="stroke:#000000;" x="44.567" xlink:href="#m1ee34dde1f" y="42.48"/>
      </g>
     </g>
    </g>
    <g id="text_11">
     <!-- $P_{Q1n}$ [%] -->
     <defs>
      <path d="M 16.890625 72.90625 
L 39.703125 72.90625 
Q 49.65625 72.90625 54.875 68.265625 
Q 60.109375 63.625 60.109375 54.6875 
Q 60.109375 42.671875 52.390625 35.984375 
Q 44.671875 29.296875 30.71875 29.296875 
L 18.3125 29.296875 
L 12.59375 0 
L 2.6875 0 
z
M 25.203125 64.796875 
L 19.921875 37.40625 
L 32.328125 37.40625 
Q 40.71875 37.40625 45.203125 41.703125 
Q 49.703125 46 49.703125 54 
Q 49.703125 59.125 46.65625 61.953125 
Q 43.609375 64.796875 38.09375 64.796875 
z
" id="DejaVuSans-Oblique-80"/>
      <path d="M 36.078125 -1.3125 
Q 35.546875 -1.375 34.953125 -1.390625 
Q 34.375 -1.421875 33.203125 -1.421875 
Q 19.53125 -1.421875 11.8125 6.421875 
Q 4.109375 14.265625 4.109375 28.078125 
Q 4.109375 36.234375 7.0625 44.4375 
Q 10.015625 52.640625 15.28125 59.1875 
Q 21.390625 66.703125 29.03125 70.453125 
Q 36.671875 74.21875 45.90625 74.21875 
Q 59.28125 74.21875 66.984375 66.328125 
Q 74.703125 58.453125 74.703125 44.828125 
Q 74.703125 30.125 66.640625 17.921875 
Q 58.59375 5.71875 45.609375 0.6875 
L 55.515625 -12.890625 
L 44.484375 -12.890625 
z
M 45.609375 66.21875 
Q 37.5 66.21875 31.296875 62.28125 
Q 25.09375 58.34375 20.515625 50.296875 
Q 17.578125 45.171875 16.03125 39.40625 
Q 14.5 33.640625 14.5 27.78125 
Q 14.5 17.625 19.359375 12.109375 
Q 24.21875 6.59375 33.109375 6.59375 
Q 41.109375 6.59375 47.375 10.5625 
Q 53.65625 14.546875 58.109375 22.40625 
Q 61.078125 27.6875 62.640625 33.46875 
Q 64.203125 39.265625 64.203125 45.015625 
Q 64.203125 55.125 59.3125 60.671875 
Q 54.4375 66.21875 45.609375 66.21875 
z
" id="DejaVuSans-Oblique-81"/>
      <path d="M 55.71875 33.015625 
L 49.3125 0 
L 40.28125 0 
L 46.6875 32.671875 
Q 47.125 34.96875 47.359375 36.71875 
Q 47.609375 38.484375 47.609375 39.5 
Q 47.609375 43.609375 45.015625 45.890625 
Q 42.4375 48.1875 37.796875 48.1875 
Q 30.5625 48.1875 25.34375 43.375 
Q 20.125 38.578125 18.5 30.328125 
L 12.5 0 
L 3.515625 0 
L 14.109375 54.6875 
L 23.09375 54.6875 
L 21.296875 46.09375 
Q 25.046875 50.828125 30.3125 53.40625 
Q 35.59375 56 41.40625 56 
Q 48.640625 56 52.609375 52.09375 
Q 56.59375 48.1875 56.59375 41.109375 
Q 56.59375 39.359375 56.375 37.359375 
Q 56.15625 35.359375 55.71875 33.015625 
z
" id="DejaVuSans-Oblique-110"/>
      <path d="M 72.703125 32.078125 
Q 68.453125 32.078125 66.03125 28.46875 
Q 63.625 24.859375 63.625 18.40625 
Q 63.625 12.0625 66.03125 8.421875 
Q 68.453125 4.78125 72.703125 4.78125 
Q 76.859375 4.78125 79.265625 8.421875 
Q 81.6875 12.0625 81.6875 18.40625 
Q 81.6875 24.8125 79.265625 28.4375 
Q 76.859375 32.078125 72.703125 32.078125 
z
M 72.703125 38.28125 
Q 80.421875 38.28125 84.953125 32.90625 
Q 89.5 27.546875 89.5 18.40625 
Q 89.5 9.28125 84.9375 3.921875 
Q 80.375 -1.421875 72.703125 -1.421875 
Q 64.890625 -1.421875 60.34375 3.921875 
Q 55.8125 9.28125 55.8125 18.40625 
Q 55.8125 27.59375 60.375 32.9375 
Q 64.9375 38.28125 72.703125 38.28125 
z
M 22.3125 68.015625 
Q 18.109375 68.015625 15.6875 64.375 
Q 13.28125 60.75 13.28125 54.390625 
Q 13.28125 47.953125 15.671875 44.328125 
Q 18.0625 40.71875 22.3125 40.71875 
Q 26.5625 40.71875 28.96875 44.328125 
Q 31.390625 47.953125 31.390625 54.390625 
Q 31.390625 60.6875 28.953125 64.34375 
Q 26.515625 68.015625 22.3125 68.015625 
z
M 66.40625 74.21875 
L 74.21875 74.21875 
L 28.609375 -1.421875 
L 20.796875 -1.421875 
z
M 22.3125 74.21875 
Q 30.03125 74.21875 34.609375 68.875 
Q 39.203125 63.53125 39.203125 54.390625 
Q 39.203125 45.171875 34.640625 39.84375 
Q 30.078125 34.515625 22.3125 34.515625 
Q 14.546875 34.515625 10.03125 39.859375 
Q 5.515625 45.21875 5.515625 54.390625 
Q 5.515625 63.484375 10.046875 68.84375 
Q 14.59375 74.21875 22.3125 74.21875 
z
" id="DejaVuSans-37"/>
     </defs>
     <g transform="translate(15.56 139.3)rotate(-90)scale(0.11 -0.11)">
      <use transform="translate(0 0.015625)" xlink:href="#DejaVuSans-Oblique-80"/>
      <use transform="translate(60.302734 -16.390625)scale(0.7)" xlink:href="#DejaVuSans-Oblique-81"/>
      <use transform="translate(115.400391 -16.390625)scale(0.7)" xlink:href="#DejaVuSans-49"/>
      <use transform="translate(159.936523 -16.390625)scale(0.7)" xlink:href="#DejaVuSans-Oblique-110"/>
      <use transform="translate(207.036133 0.015625)" xlink:href="#DejaVuSans-32"/>
      <use transform="translate(238.823242 0.015625)" xlink:href="#DejaVuSans-91"/>
      <use transform="translate(277.836914 0.015625)" xlink:href="#DejaVuSans-37"/>
      <use transform="translate(372.856445 0.015625)" xlink:href="#DejaVuSans-93"/>
     </g>
    </g>
   </g>
   <g id="LineCollection_1">
    <path clip-path="url(#pd85b7d2c96)" d="M 64.857909 83.273895 
L 64.85791 83.273895 
" style="fill:none;stroke:#9da0a2;stroke-width:1.32934;"/>
    <path clip-path="url(#pd85b7d2c96)" d="M 78.385182 87.023663 
L 78.385183 87.023663 
" style="fill:none;stroke:#9da0a2;stroke-width:1.32934;"/>
    <path clip-path="url(#pd85b7d2c96)" d="M 91.912454 74.398171 
L 91.912456 74.398171 
" style="fill:none;stroke:#9da0a2;stroke-width:1.32934;"/>
    <path clip-path="url(#pd85b7d2c96)" d="M 105.439727 90.191547 
L 105.439728 90.191547 
" style="fill:none;stroke:#9da0a2;stroke-width:1.32934;"/>
    <path clip-path="url(#pd85b7d2c96)" d="M 118.967 77.602073 
L 118.967001 77.602073 
" style="fill:none;stroke:#9da0a2;stroke-width:1.32934;"/>
    <path clip-path="url(#pd85b7d2c96)" d="M 132.494273 91.10287 
L 132.494274 91.10287 
" style="fill:none;stroke:#9da0a2;stroke-width:1.32934;"/>
    <path clip-path="url(#pd85b7d2c96)" d="M 146.021545 93.252848 
L 146.021547 93.252848 
" style="fill:none;stroke:#9da0a2;stroke-width:1.32934;"/>
    <path clip-path="url(#pd85b7d2c96)" d="M 159.548818 107.326125 
L 159.548819 107.326125 
" style="fill:none;stroke:#9da0a2;stroke-width:1.32934;"/>
    <path clip-path="url(#pd85b7d2c96)" d="M 173.076091 112.159318 
L 173.076092 112.159318 
" style="fill:none;stroke:#9da0a2;stroke-width:1.32934;"/>
    <path clip-path="url(#pd85b7d2c96)" d="M 186.603363 111.843196 
L 186.603365 111.843196 
" style="fill:none;stroke:#9da0a2;stroke-width:1.32934;"/>
    <path clip-path="url(#pd85b7d2c96)" d="M 200.130636 138.023171 
L 200.130637 138.023171 
" style="fill:none;stroke:#9da0a2;stroke-width:1.32934;"/>
    <path clip-path="url(#pd85b7d2c96)" d="M 213.657909 125.903955 
L 213.65791 125.903955 
" style="fill:none;stroke:#9da0a2;stroke-width:1.32934;"/>
    <path clip-path="url(#pd85b7d2c96)" d="M 227.185181 136.214711 
L 227.185183 136.214711 
" style="fill:none;stroke:#9da0a2;stroke-width:1.32934;"/>
    <path clip-path="url(#pd85b7d2c96)" d="M 240.712454 134.14014 
L 240.712455 134.14014 
" style="fill:none;stroke:#9da0a2;stroke-width:1.32934;"/>
    <path clip-path="url(#pd85b7d2c96)" d="M 254.239727 148.830711 
L 254.239728 148.830711 
" style="fill:none;stroke:#9da0a2;stroke-width:1.32934;"/>
    <path clip-path="url(#pd85b7d2c96)" d="M 267.766999 158.611688 
L 267.767001 158.611688 
" style="fill:none;stroke:#9da0a2;stroke-width:1.32934;"/>
    <path clip-path="url(#pd85b7d2c96)" d="M 281.294272 146.222121 
L 281.294273 146.222121 
" style="fill:none;stroke:#9da0a2;stroke-width:1.32934;"/>
    <path clip-path="url(#pd85b7d2c96)" d="M 294.821545 157.601198 
L 294.821546 157.601198 
" style="fill:none;stroke:#9da0a2;stroke-width:1.32934;"/>
    <path clip-path="url(#pd85b7d2c96)" d="M 308.348817 147.276112 
L 308.348819 147.276112 
" style="fill:none;stroke:#9da0a2;stroke-width:1.32934;"/>
    <path clip-path="url(#pd85b7d2c96)" d="M 321.87609 146.746525 
L 321.876091 146.746525 
" style="fill:none;stroke:#9da0a2;stroke-width:1.32934;"/>
    <path clip-path="url(#pd85b7d2c96)" d="M 335.403363 148.641578 
L 335.403364 148.641578 
" style="fill:none;stroke:#9da0a2;stroke-width:1.32934;"/>
    <path clip-path="url(#pd85b7d2c96)" d="M 348.930635 153.497448 
L 348.930637 153.497448 
" style="fill:none;stroke:#9da0a2;stroke-width:1.32934;"/>
    <path clip-path="url(#pd85b7d2c96)" d="M 362.457908 161.269041 
L 362.457909 161.269041 
" style="fill:none;stroke:#9da0a2;stroke-width:1.32934;"/>
    <path clip-path="url(#pd85b7d2c96)" d="M 375.985181 174.639276 
L 375.985182 174.639276 
" style="fill:none;stroke:#9da0a2;stroke-width:1.32934;"/>
    <path clip-path="url(#pd85b7d2c96)" d="M 389.512453 183.972552 
L 389.512455 183.972552 
" style="fill:none;stroke:#9da0a2;stroke-width:1.32934;"/>
    <path clip-path="url(#pd85b7d2c96)" d="M 403.039726 185.955304 
L 403.039727 185.955304 
" style="fill:none;stroke:#9da0a2;stroke-width:1.32934;"/>
    <path clip-path="url(#pd85b7d2c96)" d="M 416.566999 205.411494 
L 416.567 205.411494 
" style="fill:none;stroke:#9da0a2;stroke-width:1.32934;"/>
    <path clip-path="url(#pd85b7d2c96)" d="M 430.094272 202.02624 
L 430.094273 202.02624 
" style="fill:none;stroke:#9da0a2;stroke-width:1.32934;"/>
    <path clip-path="url(#pd85b7d2c96)" d="M 443.621544 217.157494 
L 443.621546 217.157494 
" style="fill:none;stroke:#9da0a2;stroke-width:1.32934;"/>
    <path clip-path="url(#pd85b7d2c96)" d="M 457.148817 139.535034 
L 457.148818 139.535034 
" style="fill:none;stroke:#9da0a2;stroke-width:1.32934;"/>
    <path clip-path="url(#pd85b7d2c96)" d="M 470.67609 167.43212 
L 470.676091 167.43212 
" style="fill:none;stroke:#9da0a2;stroke-width:1.32934;"/>
    <path clip-path="url(#pd85b7d2c96)" d="M 64.857909 73.141231 
L 64.85791 73.141231 
" style="fill:none;stroke:#9da0a2;stroke-width:1.32934;"/>
    <path clip-path="url(#pd85b7d2c96)" d="M 78.385182 69.321572 
L 78.385183 69.321572 
" style="fill:none;stroke:#9da0a2;stroke-width:1.32934;"/>
    <path clip-path="url(#pd85b7d2c96)" d="M 91.912454 63.621533 
L 91.912456 63.621533 
" style="fill:none;stroke:#9da0a2;stroke-width:1.32934;"/>
    <path clip-path="url(#pd85b7d2c96)" d="M 105.439727 74.551965 
L 105.439728 74.551965 
" style="fill:none;stroke:#9da0a2;stroke-width:1.32934;"/>
    <path clip-path="url(#pd85b7d2c96)" d="M 118.967 65.800755 
L 118.967001 65.800755 
" style="fill:none;stroke:#9da0a2;stroke-width:1.32934;"/>
    <path clip-path="url(#pd85b7d2c96)" d="M 132.494273 79.939798 
L 132.494274 79.939798 
" style="fill:none;stroke:#9da0a2;stroke-width:1.32934;"/>
    <path clip-path="url(#pd85b7d2c96)" d="M 146.021545 85.356342 
L 146.021547 85.356342 
" style="fill:none;stroke:#9da0a2;stroke-width:1.32934;"/>
    <path clip-path="url(#pd85b7d2c96)" d="M 159.548818 96.365461 
L 159.548819 96.365461 
" style="fill:none;stroke:#9da0a2;stroke-width:1.32934;"/>
    <path clip-path="url(#pd85b7d2c96)" d="M 173.076091 103.250872 
L 173.076092 103.250872 
" style="fill:none;stroke:#9da0a2;stroke-width:1.32934;"/>
    <path clip-path="url(#pd85b7d2c96)" d="M 186.603363 101.769424 
L 186.603365 101.769424 
" style="fill:none;stroke:#9da0a2;stroke-width:1.32934;"/>
    <path clip-path="url(#pd85b7d2c96)" d="M 200.130636 129.533294 
L 200.130637 129.533294 
" style="fill:none;stroke:#9da0a2;stroke-width:1.32934;"/>
    <path clip-path="url(#pd85b7d2c96)" d="M 213.657909 113.504448 
L 213.65791 113.504448 
" style="fill:none;stroke:#9da0a2;stroke-width:1.32934;"/>
    <path clip-path="url(#pd85b7d2c96)" d="M 227.185181 127.329384 
L 227.185183 127.329384 
" style="fill:none;stroke:#9da0a2;stroke-width:1.32934;"/>
    <path clip-path="url(#pd85b7d2c96)" d="M 240.712454 120.539503 
L 240.712455 120.539503 
" style="fill:none;stroke:#9da0a2;stroke-width:1.32934;"/>
    <path clip-path="url(#pd85b7d2c96)" d="M 254.239727 139.285052 
L 254.239728 139.285052 
" style="fill:none;stroke:#9da0a2;stroke-width:1.32934;"/>
    <path clip-path="url(#pd85b7d2c96)" d="M 267.766999 149.311094 
L 267.767001 149.311094 
" style="fill:none;stroke:#9da0a2;stroke-width:1.32934;"/>
    <path clip-path="url(#pd85b7d2c96)" d="M 281.294272 134.105628 
L 281.294273 134.105628 
" style="fill:none;stroke:#9da0a2;stroke-width:1.32934;"/>
    <path clip-path="url(#pd85b7d2c96)" d="M 294.821545 145.865978 
L 294.821546 145.865978 
" style="fill:none;stroke:#9da0a2;stroke-width:1.32934;"/>
    <path clip-path="url(#pd85b7d2c96)" d="M 308.348817 136.474614 
L 308.348819 136.474614 
" style="fill:none;stroke:#9da0a2;stroke-width:1.32934;"/>
    <path clip-path="url(#pd85b7d2c96)" d="M 321.87609 133.984616 
L 321.876091 133.984616 
" style="fill:none;stroke:#9da0a2;stroke-width:1.32934;"/>
    <path clip-path="url(#pd85b7d2c96)" d="M 335.403363 138.605722 
L 335.403364 138.605722 
" style="fill:none;stroke:#9da0a2;stroke-width:1.32934;"/>
    <path clip-path="url(#pd85b7d2c96)" d="M 348.930635 140.641695 
L 348.930637 140.641695 
" style="fill:none;stroke:#9da0a2;stroke-width:1.32934;"/>
    <path clip-path="url(#pd85b7d2c96)" d="M 362.457908 140.0995 
L 362.457909 140.0995 
" style="fill:none;stroke:#9da0a2;stroke-width:1.32934;"/>
    <path clip-path="url(#pd85b7d2c96)" d="M 375.985181 154.731305 
L 375.985182 154.731305 
" style="fill:none;stroke:#9da0a2;stroke-width:1.32934;"/>
    <path clip-path="url(#pd85b7d2c96)" d="M 389.512453 147.551206 
L 389.512455 147.551206 
" style="fill:none;stroke:#9da0a2;stroke-width:1.32934;"/>
    <path clip-path="url(#pd85b7d2c96)" d="M 403.039726 141.574974 
L 403.039727 141.574974 
" style="fill:none;stroke:#9da0a2;stroke-width:1.32934;"/>
    <path clip-path="url(#pd85b7d2c96)" d="M 416.566999 178.239782 
L 416.567 178.239782 
" style="fill:none;stroke:#9da0a2;stroke-width:1.32934;"/>
    <path clip-path="url(#pd85b7d2c96)" d="M 430.094272 183.642485 
L 430.094273 183.642485 
" style="fill:none;stroke:#9da0a2;stroke-width:1.32934;"/>
    <path clip-path="url(#pd85b7d2c96)" d="M 443.621544 210.036063 
L 443.621546 210.036063 
" style="fill:none;stroke:#9da0a2;stroke-width:1.32934;"/>
    <path clip-path="url(#pd85b7d2c96)" d="M 457.148817 127.647785 
L 457.148818 127.647785 
" style="fill:none;stroke:#9da0a2;stroke-width:1.32934;"/>
    <path clip-path="url(#pd85b7d2c96)" d="M 470.67609 133.810909 
L 470.676091 133.810909 
" style="fill:none;stroke:#9da0a2;stroke-width:1.32934;"/>
    <path clip-path="url(#pd85b7d2c96)" d="M 64.85791 73.141231 
L 64.85791 83.273895 
" style="fill:none;stroke:#9da0a2;stroke-width:1.32934;"/>
    <path clip-path="url(#pd85b7d2c96)" d="M 78.385182 69.321572 
L 78.385182 87.023663 
" style="fill:none;stroke:#9da0a2;stroke-width:1.32934;"/>
    <path clip-path="url(#pd85b7d2c96)" d="M 91.912455 63.621533 
L 91.912455 74.398171 
" style="fill:none;stroke:#9da0a2;stroke-width:1.32934;"/>
    <path clip-path="url(#pd85b7d2c96)" d="M 105.439728 74.551965 
L 105.439728 90.191547 
" style="fill:none;stroke:#9da0a2;stroke-width:1.32934;"/>
    <path clip-path="url(#pd85b7d2c96)" d="M 118.967 65.800755 
L 118.967 77.602073 
" style="fill:none;stroke:#9da0a2;stroke-width:1.32934;"/>
    <path clip-path="url(#pd85b7d2c96)" d="M 132.494273 79.939798 
L 132.494273 91.10287 
" style="fill:none;stroke:#9da0a2;stroke-width:1.32934;"/>
    <path clip-path="url(#pd85b7d2c96)" d="M 146.021546 85.356342 
L 146.021546 93.252848 
" style="fill:none;stroke:#9da0a2;stroke-width:1.32934;"/>
    <path clip-path="url(#pd85b7d2c96)" d="M 159.548819 96.365461 
L 159.548819 107.326125 
" style="fill:none;stroke:#9da0a2;stroke-width:1.32934;"/>
    <path clip-path="url(#pd85b7d2c96)" d="M 173.076091 103.250872 
L 173.076091 112.159318 
" style="fill:none;stroke:#9da0a2;stroke-width:1.32934;"/>
    <path clip-path="url(#pd85b7d2c96)" d="M 186.603364 101.769424 
L 186.603364 111.843196 
" style="fill:none;stroke:#9da0a2;stroke-width:1.32934;"/>
    <path clip-path="url(#pd85b7d2c96)" d="M 200.130637 129.533294 
L 200.130637 138.023171 
" style="fill:none;stroke:#9da0a2;stroke-width:1.32934;"/>
    <path clip-path="url(#pd85b7d2c96)" d="M 213.657909 113.504448 
L 213.657909 125.903955 
" style="fill:none;stroke:#9da0a2;stroke-width:1.32934;"/>
    <path clip-path="url(#pd85b7d2c96)" d="M 227.185182 127.329384 
L 227.185182 136.214711 
" style="fill:none;stroke:#9da0a2;stroke-width:1.32934;"/>
    <path clip-path="url(#pd85b7d2c96)" d="M 240.712455 120.539503 
L 240.712455 134.14014 
" style="fill:none;stroke:#9da0a2;stroke-width:1.32934;"/>
    <path clip-path="url(#pd85b7d2c96)" d="M 254.239727 139.285052 
L 254.239727 148.830711 
" style="fill:none;stroke:#9da0a2;stroke-width:1.32934;"/>
    <path clip-path="url(#pd85b7d2c96)" d="M 267.767 149.311094 
L 267.767 158.611688 
" style="fill:none;stroke:#9da0a2;stroke-width:1.32934;"/>
    <path clip-path="url(#pd85b7d2c96)" d="M 281.294273 134.105628 
L 281.294273 146.222121 
" style="fill:none;stroke:#9da0a2;stroke-width:1.32934;"/>
    <path clip-path="url(#pd85b7d2c96)" d="M 294.821545 145.865978 
L 294.821545 157.601198 
" style="fill:none;stroke:#9da0a2;stroke-width:1.32934;"/>
    <path clip-path="url(#pd85b7d2c96)" d="M 308.348818 136.474614 
L 308.348818 147.276112 
" style="fill:none;stroke:#9da0a2;stroke-width:1.32934;"/>
    <path clip-path="url(#pd85b7d2c96)" d="M 321.876091 133.984616 
L 321.876091 146.746525 
" style="fill:none;stroke:#9da0a2;stroke-width:1.32934;"/>
    <path clip-path="url(#pd85b7d2c96)" d="M 335.403363 138.605722 
L 335.403363 148.641578 
" style="fill:none;stroke:#9da0a2;stroke-width:1.32934;"/>
    <path clip-path="url(#pd85b7d2c96)" d="M 348.930636 140.641695 
L 348.930636 153.497448 
" style="fill:none;stroke:#9da0a2;stroke-width:1.32934;"/>
    <path clip-path="url(#pd85b7d2c96)" d="M 362.457909 140.0995 
L 362.457909 161.269041 
" style="fill:none;stroke:#9da0a2;stroke-width:1.32934;"/>
    <path clip-path="url(#pd85b7d2c96)" d="M 375.985181 154.731305 
L 375.985181 174.639276 
" style="fill:none;stroke:#9da0a2;stroke-width:1.32934;"/>
    <path clip-path="url(#pd85b7d2c96)" d="M 389.512454 147.551206 
L 389.512454 183.972552 
" style="fill:none;stroke:#9da0a2;stroke-width:1.32934;"/>
    <path clip-path="url(#pd85b7d2c96)" d="M 403.039727 141.574974 
L 403.039727 185.955304 
" style="fill:none;stroke:#9da0a2;stroke-width:1.32934;"/>
    <path clip-path="url(#pd85b7d2c96)" d="M 416.567 178.239782 
L 416.567 205.411494 
" style="fill:none;stroke:#9da0a2;stroke-width:1.32934;"/>
    <path clip-path="url(#pd85b7d2c96)" d="M 430.094272 183.642485 
L 430.094272 202.02624 
" style="fill:none;stroke:#9da0a2;stroke-width:1.32934;"/>
    <path clip-path="url(#pd85b7d2c96)" d="M 443.621545 210.036063 
L 443.621545 217.157494 
" style="fill:none;stroke:#9da0a2;stroke-width:1.32934;"/>
    <path clip-path="url(#pd85b7d2c96)" d="M 457.148818 127.647785 
L 457.148818 139.535034 
" style="fill:none;stroke:#9da0a2;stroke-width:1.32934;"/>
    <path clip-path="url(#pd85b7d2c96)" d="M 470.67609 133.810909 
L 470.67609 167.43212 
" style="fill:none;stroke:#9da0a2;stroke-width:1.32934;"/>
   </g>
   <g id="line2d_17">
    <path clip-path="url(#pd85b7d2c96)" d="M 64.85791 78.207563 
L 78.385182 78.172617 
L 91.912455 69.009852 
L 105.439728 82.371756 
L 118.967 71.701414 
L 132.494273 85.521334 
L 146.021546 89.304595 
L 159.548819 101.845793 
L 173.076091 107.705095 
L 186.603364 106.80631 
L 200.130637 133.778232 
L 213.657909 119.704201 
L 227.185182 131.772047 
L 240.712455 127.339822 
L 254.239727 144.057882 
L 267.767 153.961391 
L 281.294273 140.163874 
L 294.821545 151.733588 
L 308.348818 141.875363 
L 321.876091 140.36557 
L 335.403363 143.62365 
L 348.930636 147.069572 
L 362.457909 150.684271 
L 375.985181 164.68529 
L 389.512454 165.761879 
L 403.039727 163.765139 
L 416.567 191.825638 
L 430.094272 192.834362 
L 443.621545 213.596779 
L 457.148818 133.591409 
L 470.67609 150.621515 
" style="fill:none;stroke:#0077bb;stroke-width:0.886227;"/>
   </g>
   <g id="patch_3">
    <path d="M 44.567 228.96 
L 44.567 7.2 
" style="fill:none;stroke:#000000;stroke-linecap:square;stroke-linejoin:miter;"/>
   </g>
   <g id="patch_4">
    <path d="M 44.567 228.96 
L 490.967 228.96 
" style="fill:none;stroke:#000000;stroke-linecap:square;stroke-linejoin:miter;"/>
   </g>
   <g id="PathCollection_1">
    <path clip-path="url(#pd85b7d2c96)" d="M 64.85791 79.980017 
C 65.32797 79.980017 65.778841 79.79326 66.111224 79.460877 
C 66.443607 79.128494 66.630364 78.677623 66.630364 78.207563 
C 66.630364 77.737503 66.443607 77.286632 66.111224 76.954249 
C 65.778841 76.621866 65.32797 76.435109 64.85791 76.435109 
C 64.38785 76.435109 63.936978 76.621866 63.604596 76.954249 
C 63.272213 77.286632 63.085456 77.737503 63.085456 78.207563 
C 63.085456 78.677623 63.272213 79.128494 63.604596 79.460877 
C 63.936978 79.79326 64.38785 79.980017 64.85791 79.980017 
z
" style="fill:#0077bb;stroke:#0077bb;stroke-width:0.886227;"/>
    <path clip-path="url(#pd85b7d2c96)" d="M 78.385182 79.945071 
C 78.855243 79.945071 79.306114 79.758314 79.638497 79.425932 
C 79.970879 79.093549 80.157636 78.642678 80.157636 78.172617 
C 80.157636 77.702557 79.970879 77.251686 79.638497 76.919303 
C 79.306114 76.586921 78.855243 76.400164 78.385182 76.400164 
C 77.915122 76.400164 77.464251 76.586921 77.131868 76.919303 
C 76.799486 77.251686 76.612729 77.702557 76.612729 78.172617 
C 76.612729 78.642678 76.799486 79.093549 77.131868 79.425932 
C 77.464251 79.758314 77.915122 79.945071 78.385182 79.945071 
z
" style="fill:#0077bb;stroke:#0077bb;stroke-width:0.886227;"/>
    <path clip-path="url(#pd85b7d2c96)" d="M 91.912455 70.782306 
C 92.382515 70.782306 92.833386 70.595549 93.165769 70.263166 
C 93.498152 69.930783 93.684909 69.479912 93.684909 69.009852 
C 93.684909 68.539792 93.498152 68.088921 93.165769 67.756538 
C 92.833386 67.424155 92.382515 67.237398 91.912455 67.237398 
C 91.442395 67.237398 90.991524 67.424155 90.659141 67.756538 
C 90.326758 68.088921 90.140001 68.539792 90.140001 69.009852 
C 90.140001 69.479912 90.326758 69.930783 90.659141 70.263166 
C 90.991524 70.595549 91.442395 70.782306 91.912455 70.782306 
z
" style="fill:#0077bb;stroke:#0077bb;stroke-width:0.886227;"/>
    <path clip-path="url(#pd85b7d2c96)" d="M 105.439728 84.14421 
C 105.909788 84.14421 106.360659 83.957453 106.693042 83.625071 
C 107.025425 83.292688 107.212182 82.841817 107.212182 82.371756 
C 107.212182 81.901696 107.025425 81.450825 106.693042 81.118442 
C 106.360659 80.786059 105.909788 80.599303 105.439728 80.599303 
C 104.969668 80.599303 104.518796 80.786059 104.186414 81.118442 
C 103.854031 81.450825 103.667274 81.901696 103.667274 82.371756 
C 103.667274 82.841817 103.854031 83.292688 104.186414 83.625071 
C 104.518796 83.957453 104.969668 84.14421 105.439728 84.14421 
z
" style="fill:#0077bb;stroke:#0077bb;stroke-width:0.886227;"/>
    <path clip-path="url(#pd85b7d2c96)" d="M 118.967 73.473868 
C 119.437061 73.473868 119.887932 73.287111 120.220315 72.954728 
C 120.552697 72.622345 120.739454 72.171474 120.739454 71.701414 
C 120.739454 71.231354 120.552697 70.780483 120.220315 70.4481 
C 119.887932 70.115717 119.437061 69.92896 118.967 69.92896 
C 118.49694 69.92896 118.046069 70.115717 117.713686 70.4481 
C 117.381304 70.780483 117.194547 71.231354 117.194547 71.701414 
C 117.194547 72.171474 117.381304 72.622345 117.713686 72.954728 
C 118.046069 73.287111 118.49694 73.473868 118.967 73.473868 
z
" style="fill:#0077bb;stroke:#0077bb;stroke-width:0.886227;"/>
    <path clip-path="url(#pd85b7d2c96)" d="M 132.494273 87.293788 
C 132.964333 87.293788 133.415205 87.107031 133.747587 86.774648 
C 134.07997 86.442265 134.266727 85.991394 134.266727 85.521334 
C 134.266727 85.051274 134.07997 84.600403 133.747587 84.26802 
C 133.415205 83.935637 132.964333 83.74888 132.494273 83.74888 
C 132.024213 83.74888 131.573342 83.935637 131.240959 84.26802 
C 130.908576 84.600403 130.721819 85.051274 130.721819 85.521334 
C 130.721819 85.991394 130.908576 86.442265 131.240959 86.774648 
C 131.573342 87.107031 132.024213 87.293788 132.494273 87.293788 
z
" style="fill:#0077bb;stroke:#0077bb;stroke-width:0.886227;"/>
    <path clip-path="url(#pd85b7d2c96)" d="M 146.021546 91.077049 
C 146.491606 91.077049 146.942477 90.890292 147.27486 90.557909 
C 147.607243 90.225526 147.794 89.774655 147.794 89.304595 
C 147.794 88.834535 147.607243 88.383664 147.27486 88.051281 
C 146.942477 87.718898 146.491606 87.532141 146.021546 87.532141 
C 145.551486 87.532141 145.100615 87.718898 144.768232 88.051281 
C 144.435849 88.383664 144.249092 88.834535 144.249092 89.304595 
C 144.249092 89.774655 144.435849 90.225526 144.768232 90.557909 
C 145.100615 90.890292 145.551486 91.077049 146.021546 91.077049 
z
" style="fill:#0077bb;stroke:#0077bb;stroke-width:0.886227;"/>
    <path clip-path="url(#pd85b7d2c96)" d="M 159.548819 103.618247 
C 160.018879 103.618247 160.46975 103.43149 160.802133 103.099107 
C 161.134515 102.766724 161.321272 102.315853 161.321272 101.845793 
C 161.321272 101.375733 161.134515 100.924862 160.802133 100.592479 
C 160.46975 100.260096 160.018879 100.073339 159.548819 100.073339 
C 159.078758 100.073339 158.627887 100.260096 158.295504 100.592479 
C 157.963122 100.924862 157.776365 101.375733 157.776365 101.845793 
C 157.776365 102.315853 157.963122 102.766724 158.295504 103.099107 
C 158.627887 103.43149 159.078758 103.618247 159.548819 103.618247 
z
" style="fill:#0077bb;stroke:#0077bb;stroke-width:0.886227;"/>
    <path clip-path="url(#pd85b7d2c96)" d="M 173.076091 109.477549 
C 173.546151 109.477549 173.997023 109.290792 174.329405 108.958409 
C 174.661788 108.626026 174.848545 108.175155 174.848545 107.705095 
C 174.848545 107.235035 174.661788 106.784163 174.329405 106.451781 
C 173.997023 106.119398 173.546151 105.932641 173.076091 105.932641 
C 172.606031 105.932641 172.15516 106.119398 171.822777 106.451781 
C 171.490394 106.784163 171.303637 107.235035 171.303637 107.705095 
C 171.303637 108.175155 171.490394 108.626026 171.822777 108.958409 
C 172.15516 109.290792 172.606031 109.477549 173.076091 109.477549 
z
" style="fill:#0077bb;stroke:#0077bb;stroke-width:0.886227;"/>
    <path clip-path="url(#pd85b7d2c96)" d="M 186.603364 108.578764 
C 187.073424 108.578764 187.524295 108.392007 187.856678 108.059624 
C 188.189061 107.727241 188.375818 107.27637 188.375818 106.80631 
C 188.375818 106.33625 188.189061 105.885379 187.856678 105.552996 
C 187.524295 105.220613 187.073424 105.033856 186.603364 105.033856 
C 186.133304 105.033856 185.682433 105.220613 185.35005 105.552996 
C 185.017667 105.885379 184.83091 106.33625 184.83091 106.80631 
C 184.83091 107.27637 185.017667 107.727241 185.35005 108.059624 
C 185.682433 108.392007 186.133304 108.578764 186.603364 108.578764 
z
" style="fill:#0077bb;stroke:#0077bb;stroke-width:0.886227;"/>
    <path clip-path="url(#pd85b7d2c96)" d="M 200.130637 135.550686 
C 200.600697 135.550686 201.051568 135.363929 201.383951 135.031546 
C 201.716334 134.699164 201.90309 134.248293 201.90309 133.778232 
C 201.90309 133.308172 201.716334 132.857301 201.383951 132.524918 
C 201.051568 132.192535 200.600697 132.005778 200.130637 132.005778 
C 199.660576 132.005778 199.209705 132.192535 198.877322 132.524918 
C 198.54494 132.857301 198.358183 133.308172 198.358183 133.778232 
C 198.358183 134.248293 198.54494 134.699164 198.877322 135.031546 
C 199.209705 135.363929 199.660576 135.550686 200.130637 135.550686 
z
" style="fill:#0077bb;stroke:#0077bb;stroke-width:0.886227;"/>
    <path clip-path="url(#pd85b7d2c96)" d="M 213.657909 121.476655 
C 214.12797 121.476655 214.578841 121.289898 214.911223 120.957515 
C 215.243606 120.625132 215.430363 120.174261 215.430363 119.704201 
C 215.430363 119.234141 215.243606 118.78327 214.911223 118.450887 
C 214.578841 118.118504 214.12797 117.931747 213.657909 117.931747 
C 213.187849 117.931747 212.736978 118.118504 212.404595 118.450887 
C 212.072212 118.78327 211.885455 119.234141 211.885455 119.704201 
C 211.885455 120.174261 212.072212 120.625132 212.404595 120.957515 
C 212.736978 121.289898 213.187849 121.476655 213.657909 121.476655 
z
" style="fill:#0077bb;stroke:#0077bb;stroke-width:0.886227;"/>
    <path clip-path="url(#pd85b7d2c96)" d="M 227.185182 133.544501 
C 227.655242 133.544501 228.106113 133.357744 228.438496 133.025362 
C 228.770879 132.692979 228.957636 132.242108 228.957636 131.772047 
C 228.957636 131.301987 228.770879 130.851116 228.438496 130.518733 
C 228.106113 130.186351 227.655242 129.999594 227.185182 129.999594 
C 226.715122 129.999594 226.264251 130.186351 225.931868 130.518733 
C 225.599485 130.851116 225.412728 131.301987 225.412728 131.772047 
C 225.412728 132.242108 225.599485 132.692979 225.931868 133.025362 
C 226.264251 133.357744 226.715122 133.544501 227.185182 133.544501 
z
" style="fill:#0077bb;stroke:#0077bb;stroke-width:0.886227;"/>
    <path clip-path="url(#pd85b7d2c96)" d="M 240.712455 129.112276 
C 241.182515 129.112276 241.633386 128.925519 241.965769 128.593136 
C 242.298152 128.260753 242.484908 127.809882 242.484908 127.339822 
C 242.484908 126.869761 242.298152 126.41889 241.965769 126.086508 
C 241.633386 125.754125 241.182515 125.567368 240.712455 125.567368 
C 240.242394 125.567368 239.791523 125.754125 239.45914 126.086508 
C 239.126758 126.41889 238.940001 126.869761 238.940001 127.339822 
C 238.940001 127.809882 239.126758 128.260753 239.45914 128.593136 
C 239.791523 128.925519 240.242394 129.112276 240.712455 129.112276 
z
" style="fill:#0077bb;stroke:#0077bb;stroke-width:0.886227;"/>
    <path clip-path="url(#pd85b7d2c96)" d="M 254.239727 145.830335 
C 254.709788 145.830335 255.160659 145.643578 255.493041 145.311196 
C 255.825424 144.978813 256.012181 144.527942 256.012181 144.057882 
C 256.012181 143.587821 255.825424 143.13695 255.493041 142.804567 
C 255.160659 142.472185 254.709788 142.285428 254.239727 142.285428 
C 253.769667 142.285428 253.318796 142.472185 252.986413 142.804567 
C 252.65403 143.13695 252.467273 143.587821 252.467273 144.057882 
C 252.467273 144.527942 252.65403 144.978813 252.986413 145.311196 
C 253.318796 145.643578 253.769667 145.830335 254.239727 145.830335 
z
" style="fill:#0077bb;stroke:#0077bb;stroke-width:0.886227;"/>
    <path clip-path="url(#pd85b7d2c96)" d="M 267.767 155.733845 
C 268.23706 155.733845 268.687931 155.547088 269.020314 155.214705 
C 269.352697 154.882322 269.539454 154.431451 269.539454 153.961391 
C 269.539454 153.491331 269.352697 153.04046 269.020314 152.708077 
C 268.687931 152.375694 268.23706 152.188937 267.767 152.188937 
C 267.29694 152.188937 266.846069 152.375694 266.513686 152.708077 
C 266.181303 153.04046 265.994546 153.491331 265.994546 153.961391 
C 265.994546 154.431451 266.181303 154.882322 266.513686 155.214705 
C 266.846069 155.547088 267.29694 155.733845 267.767 155.733845 
z
" style="fill:#0077bb;stroke:#0077bb;stroke-width:0.886227;"/>
    <path clip-path="url(#pd85b7d2c96)" d="M 281.294273 141.936328 
C 281.764333 141.936328 282.215204 141.749571 282.547587 141.417189 
C 282.87997 141.084806 283.066727 140.633935 283.066727 140.163874 
C 283.066727 139.693814 282.87997 139.242943 282.547587 138.91056 
C 282.215204 138.578178 281.764333 138.391421 281.294273 138.391421 
C 280.824212 138.391421 280.373341 138.578178 280.040959 138.91056 
C 279.708576 139.242943 279.521819 139.693814 279.521819 140.163874 
C 279.521819 140.633935 279.708576 141.084806 280.040959 141.417189 
C 280.373341 141.749571 280.824212 141.936328 281.294273 141.936328 
z
" style="fill:#0077bb;stroke:#0077bb;stroke-width:0.886227;"/>
    <path clip-path="url(#pd85b7d2c96)" d="M 294.821545 153.506042 
C 295.291606 153.506042 295.742477 153.319285 296.07486 152.986902 
C 296.407242 152.654519 296.593999 152.203648 296.593999 151.733588 
C 296.593999 151.263528 296.407242 150.812657 296.07486 150.480274 
C 295.742477 150.147891 295.291606 149.961134 294.821545 149.961134 
C 294.351485 149.961134 293.900614 150.147891 293.568231 150.480274 
C 293.235848 150.812657 293.049092 151.263528 293.049092 151.733588 
C 293.049092 152.203648 293.235848 152.654519 293.568231 152.986902 
C 293.900614 153.319285 294.351485 153.506042 294.821545 153.506042 
z
" style="fill:#0077bb;stroke:#0077bb;stroke-width:0.886227;"/>
    <path clip-path="url(#pd85b7d2c96)" d="M 308.348818 143.647817 
C 308.818878 143.647817 309.269749 143.46106 309.602132 143.128677 
C 309.934515 142.796294 310.121272 142.345423 310.121272 141.875363 
C 310.121272 141.405303 309.934515 140.954432 309.602132 140.622049 
C 309.269749 140.289666 308.818878 140.102909 308.348818 140.102909 
C 307.878758 140.102909 307.427887 140.289666 307.095504 140.622049 
C 306.763121 140.954432 306.576364 141.405303 306.576364 141.875363 
C 306.576364 142.345423 306.763121 142.796294 307.095504 143.128677 
C 307.427887 143.46106 307.878758 143.647817 308.348818 143.647817 
z
" style="fill:#0077bb;stroke:#0077bb;stroke-width:0.886227;"/>
    <path clip-path="url(#pd85b7d2c96)" d="M 321.876091 142.138024 
C 322.346151 142.138024 322.797022 141.951267 323.129405 141.618885 
C 323.461788 141.286502 323.648545 140.835631 323.648545 140.36557 
C 323.648545 139.89551 323.461788 139.444639 323.129405 139.112256 
C 322.797022 138.779874 322.346151 138.593117 321.876091 138.593117 
C 321.40603 138.593117 320.955159 138.779874 320.622777 139.112256 
C 320.290394 139.444639 320.103637 139.89551 320.103637 140.36557 
C 320.103637 140.835631 320.290394 141.286502 320.622777 141.618885 
C 320.955159 141.951267 321.40603 142.138024 321.876091 142.138024 
z
" style="fill:#0077bb;stroke:#0077bb;stroke-width:0.886227;"/>
    <path clip-path="url(#pd85b7d2c96)" d="M 335.403363 145.396104 
C 335.873424 145.396104 336.324295 145.209347 336.656678 144.876964 
C 336.98906 144.544582 337.175817 144.09371 337.175817 143.62365 
C 337.175817 143.15359 336.98906 142.702719 336.656678 142.370336 
C 336.324295 142.037953 335.873424 141.851196 335.403363 141.851196 
C 334.933303 141.851196 334.482432 142.037953 334.150049 142.370336 
C 333.817666 142.702719 333.63091 143.15359 333.63091 143.62365 
C 333.63091 144.09371 333.817666 144.544582 334.150049 144.876964 
C 334.482432 145.209347 334.933303 145.396104 335.403363 145.396104 
z
" style="fill:#0077bb;stroke:#0077bb;stroke-width:0.886227;"/>
    <path clip-path="url(#pd85b7d2c96)" d="M 348.930636 148.842025 
C 349.400696 148.842025 349.851567 148.655268 350.18395 148.322886 
C 350.516333 147.990503 350.70309 147.539632 350.70309 147.069572 
C 350.70309 146.599511 350.516333 146.14864 350.18395 145.816257 
C 349.851567 145.483875 349.400696 145.297118 348.930636 145.297118 
C 348.460576 145.297118 348.009705 145.483875 347.677322 145.816257 
C 347.344939 146.14864 347.158182 146.599511 347.158182 147.069572 
C 347.158182 147.539632 347.344939 147.990503 347.677322 148.322886 
C 348.009705 148.655268 348.460576 148.842025 348.930636 148.842025 
z
" style="fill:#0077bb;stroke:#0077bb;stroke-width:0.886227;"/>
    <path clip-path="url(#pd85b7d2c96)" d="M 362.457909 152.456725 
C 362.927969 152.456725 363.37884 152.269968 363.711223 151.937585 
C 364.043606 151.605202 364.230363 151.154331 364.230363 150.684271 
C 364.230363 150.214211 364.043606 149.76334 363.711223 149.430957 
C 363.37884 149.098574 362.927969 148.911817 362.457909 148.911817 
C 361.987849 148.911817 361.536977 149.098574 361.204595 149.430957 
C 360.872212 149.76334 360.685455 150.214211 360.685455 150.684271 
C 360.685455 151.154331 360.872212 151.605202 361.204595 151.937585 
C 361.536977 152.269968 361.987849 152.456725 362.457909 152.456725 
z
" style="fill:#0077bb;stroke:#0077bb;stroke-width:0.886227;"/>
    <path clip-path="url(#pd85b7d2c96)" d="M 375.985181 166.457744 
C 376.455242 166.457744 376.906113 166.270987 377.238496 165.938604 
C 377.570878 165.606222 377.757635 165.15535 377.757635 164.68529 
C 377.757635 164.21523 377.570878 163.764359 377.238496 163.431976 
C 376.906113 163.099593 376.455242 162.912836 375.985181 162.912836 
C 375.515121 162.912836 375.06425 163.099593 374.731867 163.431976 
C 374.399485 163.764359 374.212728 164.21523 374.212728 164.68529 
C 374.212728 165.15535 374.399485 165.606222 374.731867 165.938604 
C 375.06425 166.270987 375.515121 166.457744 375.985181 166.457744 
z
" style="fill:#0077bb;stroke:#0077bb;stroke-width:0.886227;"/>
    <path clip-path="url(#pd85b7d2c96)" d="M 389.512454 167.534333 
C 389.982514 167.534333 390.433385 167.347576 390.765768 167.015193 
C 391.098151 166.682811 391.284908 166.231939 391.284908 165.761879 
C 391.284908 165.291819 391.098151 164.840948 390.765768 164.508565 
C 390.433385 164.176182 389.982514 163.989425 389.512454 163.989425 
C 389.042394 163.989425 388.591523 164.176182 388.25914 164.508565 
C 387.926757 164.840948 387.74 165.291819 387.74 165.761879 
C 387.74 166.231939 387.926757 166.682811 388.25914 167.015193 
C 388.591523 167.347576 389.042394 167.534333 389.512454 167.534333 
z
" style="fill:#0077bb;stroke:#0077bb;stroke-width:0.886227;"/>
    <path clip-path="url(#pd85b7d2c96)" d="M 403.039727 165.537593 
C 403.509787 165.537593 403.960658 165.350836 404.293041 165.018453 
C 404.625424 164.68607 404.812181 164.235199 404.812181 163.765139 
C 404.812181 163.295079 404.625424 162.844208 404.293041 162.511825 
C 403.960658 162.179442 403.509787 161.992685 403.039727 161.992685 
C 402.569667 161.992685 402.118795 162.179442 401.786413 162.511825 
C 401.45403 162.844208 401.267273 163.295079 401.267273 163.765139 
C 401.267273 164.235199 401.45403 164.68607 401.786413 165.018453 
C 402.118795 165.350836 402.569667 165.537593 403.039727 165.537593 
z
" style="fill:#0077bb;stroke:#0077bb;stroke-width:0.886227;"/>
    <path clip-path="url(#pd85b7d2c96)" d="M 416.567 193.598091 
C 417.03706 193.598091 417.487931 193.411335 417.820314 193.078952 
C 418.152696 192.746569 418.339453 192.295698 418.339453 191.825638 
C 418.339453 191.355577 418.152696 190.904706 417.820314 190.572323 
C 417.487931 190.239941 417.03706 190.053184 416.567 190.053184 
C 416.096939 190.053184 415.646068 190.239941 415.313685 190.572323 
C 414.981303 190.904706 414.794546 191.355577 414.794546 191.825638 
C 414.794546 192.295698 414.981303 192.746569 415.313685 193.078952 
C 415.646068 193.411335 416.096939 193.598091 416.567 193.598091 
z
" style="fill:#0077bb;stroke:#0077bb;stroke-width:0.886227;"/>
    <path clip-path="url(#pd85b7d2c96)" d="M 430.094272 194.606816 
C 430.564332 194.606816 431.015204 194.420059 431.347586 194.087677 
C 431.679969 193.755294 431.866726 193.304423 431.866726 192.834362 
C 431.866726 192.364302 431.679969 191.913431 431.347586 191.581048 
C 431.015204 191.248665 430.564332 191.061909 430.094272 191.061909 
C 429.624212 191.061909 429.173341 191.248665 428.840958 191.581048 
C 428.508575 191.913431 428.321818 192.364302 428.321818 192.834362 
C 428.321818 193.304423 428.508575 193.755294 428.840958 194.087677 
C 429.173341 194.420059 429.624212 194.606816 430.094272 194.606816 
z
" style="fill:#0077bb;stroke:#0077bb;stroke-width:0.886227;"/>
    <path clip-path="url(#pd85b7d2c96)" d="M 443.621545 215.369232 
C 444.091605 215.369232 444.542476 215.182475 444.874859 214.850093 
C 445.207242 214.51771 445.393999 214.066839 445.393999 213.596779 
C 445.393999 213.126718 445.207242 212.675847 444.874859 212.343464 
C 444.542476 212.011082 444.091605 211.824325 443.621545 211.824325 
C 443.151485 211.824325 442.700614 212.011082 442.368231 212.343464 
C 442.035848 212.675847 441.849091 213.126718 441.849091 213.596779 
C 441.849091 214.066839 442.035848 214.51771 442.368231 214.850093 
C 442.700614 215.182475 443.151485 215.369232 443.621545 215.369232 
z
" style="fill:#0077bb;stroke:#0077bb;stroke-width:0.886227;"/>
    <path clip-path="url(#pd85b7d2c96)" d="M 457.148818 135.363863 
C 457.618878 135.363863 458.069749 135.177106 458.402132 134.844724 
C 458.734514 134.512341 458.921271 134.06147 458.921271 133.591409 
C 458.921271 133.121349 458.734514 132.670478 458.402132 132.338095 
C 458.069749 132.005712 457.618878 131.818956 457.148818 131.818956 
C 456.678757 131.818956 456.227886 132.005712 455.895503 132.338095 
C 455.563121 132.670478 455.376364 133.121349 455.376364 133.591409 
C 455.376364 134.06147 455.563121 134.512341 455.895503 134.844724 
C 456.227886 135.177106 456.678757 135.363863 457.148818 135.363863 
z
" style="fill:#0077bb;stroke:#0077bb;stroke-width:0.886227;"/>
    <path clip-path="url(#pd85b7d2c96)" d="M 470.67609 152.393969 
C 471.14615 152.393969 471.597022 152.207212 471.929404 151.874829 
C 472.261787 151.542446 472.448544 151.091575 472.448544 150.621515 
C 472.448544 150.151455 472.261787 149.700584 471.929404 149.368201 
C 471.597022 149.035818 471.14615 148.849061 470.67609 148.849061 
C 470.20603 148.849061 469.755159 149.035818 469.422776 149.368201 
C 469.090393 149.700584 468.903636 150.151455 468.903636 150.621515 
C 468.903636 151.091575 469.090393 151.542446 469.422776 151.874829 
C 469.755159 152.207212 470.20603 152.393969 470.67609 152.393969 
z
" style="fill:#0077bb;stroke:#0077bb;stroke-width:0.886227;"/>
   </g>
  </g>
 </g>
 <defs>
  <clipPath id="pd85b7d2c96">
   <rect height="221.76" width="446.4" x="44.567" y="7.2"/>
  </clipPath>
 </defs>
</svg>
