<?xml version="1.0" encoding="utf-8" standalone="no"?>
<!DOCTYPE svg PUBLIC "-//W3C//DTD SVG 1.1//EN"
  "http://www.w3.org/Graphics/SVG/1.1/DTD/svg11.dtd">
<svg xmlns:xlink="http://www.w3.org/1999/xlink" width="513.9925pt" height="276.021875pt" viewBox="0 0 513.9925 276.021875" xmlns="http://www.w3.org/2000/svg" version="1.1">
 <metadata>
  <rdf:RDF xmlns:dc="http://purl.org/dc/elements/1.1/" xmlns:cc="http://creativecommons.org/ns#" xmlns:rdf="http://www.w3.org/1999/02/22-rdf-syntax-ns#">
   <cc:Work>
    <dc:type rdf:resource="http://purl.org/dc/dcmitype/StillImage"/>
    <dc:date>2023-11-24T10:42:08.118679</dc:date>
    <dc:format>image/svg+xml</dc:format>
    <dc:creator>
     <cc:Agent>
      <dc:title>Matplotlib v3.5.2, https://matplotlib.org/</dc:title>
     </cc:Agent>
    </dc:creator>
   </cc:Work>
  </rdf:RDF>
 </metadata>
 <defs>
  <style type="text/css">*{stroke-linejoin: round; stroke-linecap: butt}</style>
 </defs>
 <g id="figure_1">
  <g id="patch_1">
   <path d="M 0 276.021875 
L 513.9925 276.021875 
L 513.9925 0 
L 0 0 
z
" style="fill: #ffffff; stroke: #ffffff; stroke-linejoin: miter"/>
  </g>
  <g id="axes_1">
   <g id="patch_2">
    <path d="M 60.3925 228.96 
L 506.7925 228.96 
L 506.7925 7.2 
L 60.3925 7.2 
z
" style="fill: #ffffff"/>
   </g>
   <g id="matplotlib.axis_1">
    <g id="xtick_1">
     <g id="line2d_1">
      <path d="M 80.68341 228.96 
" style="fill: none; stroke: #333333; stroke-width: 1.5"/>
      <defs>
       <path id="m5b8d3dab1e" d="M 0 0 
L 0 2.75 
" style="stroke: #000000"/>
      </defs>
      <g>
       <use xlink:href="#m5b8d3dab1e" x="80.68341" y="228.96" style="fill: #333333; stroke: #000000"/>
      </g>
     </g>
     <g id="text_1">
      <!-- 1 -->
      <g transform="translate(76.22966 244.547812)scale(0.14 -0.14)">
       <defs>
        <path id="DejaVuSans-31" d="M 794 531 
L 1825 531 
L 1825 4091 
L 703 3866 
L 703 4441 
L 1819 4666 
L 2450 4666 
L 2450 531 
L 3481 531 
L 3481 0 
L 794 0 
L 794 531 
z
" transform="scale(0.015625)"/>
       </defs>
       <use xlink:href="#DejaVuSans-31"/>
      </g>
     </g>
    </g>
    <g id="xtick_2">
     <g id="line2d_2">
      <path d="M 215.956137 228.96 
" style="fill: none; stroke: #333333; stroke-width: 1.5"/>
      <g>
       <use xlink:href="#m5b8d3dab1e" x="215.956137" y="228.96" style="fill: #333333; stroke: #000000"/>
      </g>
     </g>
     <g id="text_2">
      <!-- 2 -->
      <g transform="translate(211.502387 244.547812)scale(0.14 -0.14)">
       <defs>
        <path id="DejaVuSans-32" d="M 1228 531 
L 3431 531 
L 3431 0 
L 469 0 
L 469 531 
Q 828 903 1448 1529 
Q 2069 2156 2228 2338 
Q 2531 2678 2651 2914 
Q 2772 3150 2772 3378 
Q 2772 3750 2511 3984 
Q 2250 4219 1831 4219 
Q 1534 4219 1204 4116 
Q 875 4013 500 3803 
L 500 4441 
Q 881 4594 1212 4672 
Q 1544 4750 1819 4750 
Q 2544 4750 2975 4387 
Q 3406 4025 3406 3419 
Q 3406 3131 3298 2873 
Q 3191 2616 2906 2266 
Q 2828 2175 2409 1742 
Q 1991 1309 1228 531 
z
" transform="scale(0.015625)"/>
       </defs>
       <use xlink:href="#DejaVuSans-32"/>
      </g>
     </g>
    </g>
    <g id="xtick_3">
     <g id="line2d_3">
      <path d="M 351.228863 228.96 
" style="fill: none; stroke: #333333; stroke-width: 1.5"/>
      <g>
       <use xlink:href="#m5b8d3dab1e" x="351.228863" y="228.96" style="fill: #333333; stroke: #000000"/>
      </g>
     </g>
     <g id="text_3">
      <!-- 3 -->
      <g transform="translate(346.775113 244.547812)scale(0.14 -0.14)">
       <defs>
        <path id="DejaVuSans-33" d="M 2597 2516 
Q 3050 2419 3304 2112 
Q 3559 1806 3559 1356 
Q 3559 666 3084 287 
Q 2609 -91 1734 -91 
Q 1441 -91 1130 -33 
Q 819 25 488 141 
L 488 750 
Q 750 597 1062 519 
Q 1375 441 1716 441 
Q 2309 441 2620 675 
Q 2931 909 2931 1356 
Q 2931 1769 2642 2001 
Q 2353 2234 1838 2234 
L 1294 2234 
L 1294 2753 
L 1863 2753 
Q 2328 2753 2575 2939 
Q 2822 3125 2822 3475 
Q 2822 3834 2567 4026 
Q 2313 4219 1838 4219 
Q 1578 4219 1281 4162 
Q 984 4106 628 3988 
L 628 4550 
Q 988 4650 1302 4700 
Q 1616 4750 1894 4750 
Q 2613 4750 3031 4423 
Q 3450 4097 3450 3541 
Q 3450 3153 3228 2886 
Q 3006 2619 2597 2516 
z
" transform="scale(0.015625)"/>
       </defs>
       <use xlink:href="#DejaVuSans-33"/>
      </g>
     </g>
    </g>
    <g id="xtick_4">
     <g id="line2d_4">
      <path d="M 486.50159 228.96 
" style="fill: none; stroke: #333333; stroke-width: 1.5"/>
      <g>
       <use xlink:href="#m5b8d3dab1e" x="486.50159" y="228.96" style="fill: #333333; stroke: #000000"/>
      </g>
     </g>
     <g id="text_4">
      <!-- 4 -->
      <g transform="translate(482.04784 244.547812)scale(0.14 -0.14)">
       <defs>
        <path id="DejaVuSans-34" d="M 2419 4116 
L 825 1625 
L 2419 1625 
L 2419 4116 
z
M 2253 4666 
L 3047 4666 
L 3047 1625 
L 3713 1625 
L 3713 1100 
L 3047 1100 
L 3047 0 
L 2419 0 
L 2419 1100 
L 313 1100 
L 313 1709 
L 2253 4666 
z
" transform="scale(0.015625)"/>
       </defs>
       <use xlink:href="#DejaVuSans-34"/>
      </g>
     </g>
    </g>
    <g id="xtick_5"/>
    <g id="xtick_6"/>
    <g id="xtick_7"/>
    <g id="text_5">
     <!-- Resolution [Å] -->
     <g transform="translate(220.335 265.494375)scale(0.16 -0.16)">
      <defs>
       <path id="DejaVuSans-52" d="M 2841 2188 
Q 3044 2119 3236 1894 
Q 3428 1669 3622 1275 
L 4263 0 
L 3584 0 
L 2988 1197 
Q 2756 1666 2539 1819 
Q 2322 1972 1947 1972 
L 1259 1972 
L 1259 0 
L 628 0 
L 628 4666 
L 2053 4666 
Q 2853 4666 3247 4331 
Q 3641 3997 3641 3322 
Q 3641 2881 3436 2590 
Q 3231 2300 2841 2188 
z
M 1259 4147 
L 1259 2491 
L 2053 2491 
Q 2509 2491 2742 2702 
Q 2975 2913 2975 3322 
Q 2975 3731 2742 3939 
Q 2509 4147 2053 4147 
L 1259 4147 
z
" transform="scale(0.015625)"/>
       <path id="DejaVuSans-65" d="M 3597 1894 
L 3597 1613 
L 953 1613 
Q 991 1019 1311 708 
Q 1631 397 2203 397 
Q 2534 397 2845 478 
Q 3156 559 3463 722 
L 3463 178 
Q 3153 47 2828 -22 
Q 2503 -91 2169 -91 
Q 1331 -91 842 396 
Q 353 884 353 1716 
Q 353 2575 817 3079 
Q 1281 3584 2069 3584 
Q 2775 3584 3186 3129 
Q 3597 2675 3597 1894 
z
M 3022 2063 
Q 3016 2534 2758 2815 
Q 2500 3097 2075 3097 
Q 1594 3097 1305 2825 
Q 1016 2553 972 2059 
L 3022 2063 
z
" transform="scale(0.015625)"/>
       <path id="DejaVuSans-73" d="M 2834 3397 
L 2834 2853 
Q 2591 2978 2328 3040 
Q 2066 3103 1784 3103 
Q 1356 3103 1142 2972 
Q 928 2841 928 2578 
Q 928 2378 1081 2264 
Q 1234 2150 1697 2047 
L 1894 2003 
Q 2506 1872 2764 1633 
Q 3022 1394 3022 966 
Q 3022 478 2636 193 
Q 2250 -91 1575 -91 
Q 1294 -91 989 -36 
Q 684 19 347 128 
L 347 722 
Q 666 556 975 473 
Q 1284 391 1588 391 
Q 1994 391 2212 530 
Q 2431 669 2431 922 
Q 2431 1156 2273 1281 
Q 2116 1406 1581 1522 
L 1381 1569 
Q 847 1681 609 1914 
Q 372 2147 372 2553 
Q 372 3047 722 3315 
Q 1072 3584 1716 3584 
Q 2034 3584 2315 3537 
Q 2597 3491 2834 3397 
z
" transform="scale(0.015625)"/>
       <path id="DejaVuSans-6f" d="M 1959 3097 
Q 1497 3097 1228 2736 
Q 959 2375 959 1747 
Q 959 1119 1226 758 
Q 1494 397 1959 397 
Q 2419 397 2687 759 
Q 2956 1122 2956 1747 
Q 2956 2369 2687 2733 
Q 2419 3097 1959 3097 
z
M 1959 3584 
Q 2709 3584 3137 3096 
Q 3566 2609 3566 1747 
Q 3566 888 3137 398 
Q 2709 -91 1959 -91 
Q 1206 -91 779 398 
Q 353 888 353 1747 
Q 353 2609 779 3096 
Q 1206 3584 1959 3584 
z
" transform="scale(0.015625)"/>
       <path id="DejaVuSans-6c" d="M 603 4863 
L 1178 4863 
L 1178 0 
L 603 0 
L 603 4863 
z
" transform="scale(0.015625)"/>
       <path id="DejaVuSans-75" d="M 544 1381 
L 544 3500 
L 1119 3500 
L 1119 1403 
Q 1119 906 1312 657 
Q 1506 409 1894 409 
Q 2359 409 2629 706 
Q 2900 1003 2900 1516 
L 2900 3500 
L 3475 3500 
L 3475 0 
L 2900 0 
L 2900 538 
Q 2691 219 2414 64 
Q 2138 -91 1772 -91 
Q 1169 -91 856 284 
Q 544 659 544 1381 
z
M 1991 3584 
L 1991 3584 
z
" transform="scale(0.015625)"/>
       <path id="DejaVuSans-74" d="M 1172 4494 
L 1172 3500 
L 2356 3500 
L 2356 3053 
L 1172 3053 
L 1172 1153 
Q 1172 725 1289 603 
Q 1406 481 1766 481 
L 2356 481 
L 2356 0 
L 1766 0 
Q 1100 0 847 248 
Q 594 497 594 1153 
L 594 3053 
L 172 3053 
L 172 3500 
L 594 3500 
L 594 4494 
L 1172 4494 
z
" transform="scale(0.015625)"/>
       <path id="DejaVuSans-69" d="M 603 3500 
L 1178 3500 
L 1178 0 
L 603 0 
L 603 3500 
z
M 603 4863 
L 1178 4863 
L 1178 4134 
L 603 4134 
L 603 4863 
z
" transform="scale(0.015625)"/>
       <path id="DejaVuSans-6e" d="M 3513 2113 
L 3513 0 
L 2938 0 
L 2938 2094 
Q 2938 2591 2744 2837 
Q 2550 3084 2163 3084 
Q 1697 3084 1428 2787 
Q 1159 2491 1159 1978 
L 1159 0 
L 581 0 
L 581 3500 
L 1159 3500 
L 1159 2956 
Q 1366 3272 1645 3428 
Q 1925 3584 2291 3584 
Q 2894 3584 3203 3211 
Q 3513 2838 3513 2113 
z
" transform="scale(0.015625)"/>
       <path id="DejaVuSans-20" transform="scale(0.015625)"/>
       <path id="DejaVuSans-5b" d="M 550 4863 
L 1875 4863 
L 1875 4416 
L 1125 4416 
L 1125 -397 
L 1875 -397 
L 1875 -844 
L 550 -844 
L 550 4863 
z
" transform="scale(0.015625)"/>
       <path id="DejaVuSans-c5" d="M 2663 5081 
Q 2663 5278 2523 5417 
Q 2384 5556 2188 5556 
Q 1988 5556 1852 5420 
Q 1716 5284 1716 5081 
Q 1716 4884 1853 4746 
Q 1991 4609 2188 4609 
Q 2384 4609 2523 4746 
Q 2663 4884 2663 5081 
z
M 2188 4044 
L 1338 1722 
L 3041 1722 
L 2188 4044 
z
M 1716 4366 
Q 1525 4494 1428 4673 
Q 1331 4853 1331 5081 
Q 1331 5441 1579 5691 
Q 1828 5941 2188 5941 
Q 2544 5941 2795 5689 
Q 3047 5438 3047 5081 
Q 3047 4863 2948 4678 
Q 2850 4494 2663 4366 
L 4325 0 
L 3669 0 
L 3244 1197 
L 1141 1197 
L 716 0 
L 50 0 
L 1716 4366 
z
" transform="scale(0.015625)"/>
       <path id="DejaVuSans-5d" d="M 1947 4863 
L 1947 -844 
L 622 -844 
L 622 -397 
L 1369 -397 
L 1369 4416 
L 622 4416 
L 622 4863 
L 1947 4863 
z
" transform="scale(0.015625)"/>
      </defs>
      <use xlink:href="#DejaVuSans-52"/>
      <use xlink:href="#DejaVuSans-65" x="64.982422"/>
      <use xlink:href="#DejaVuSans-73" x="126.505859"/>
      <use xlink:href="#DejaVuSans-6f" x="178.605469"/>
      <use xlink:href="#DejaVuSans-6c" x="239.787109"/>
      <use xlink:href="#DejaVuSans-75" x="267.570312"/>
      <use xlink:href="#DejaVuSans-74" x="330.949219"/>
      <use xlink:href="#DejaVuSans-69" x="370.158203"/>
      <use xlink:href="#DejaVuSans-6f" x="397.941406"/>
      <use xlink:href="#DejaVuSans-6e" x="459.123047"/>
      <use xlink:href="#DejaVuSans-20" x="522.501953"/>
      <use xlink:href="#DejaVuSans-5b" x="554.289062"/>
      <use xlink:href="#DejaVuSans-c5" x="593.302734"/>
      <use xlink:href="#DejaVuSans-5d" x="661.710938"/>
     </g>
    </g>
   </g>
   <g id="matplotlib.axis_2">
    <g id="ytick_1">
     <g id="line2d_5">
      <path d="M 60.3925 218.88 
" style="fill: none; stroke: #333333; stroke-width: 1.5"/>
      <defs>
       <path id="m5655b5ee84" d="M 0 0 
L -2.75 0 
" style="stroke: #000000"/>
      </defs>
      <g>
       <use xlink:href="#m5655b5ee84" x="60.3925" y="218.88" style="fill: #333333; stroke: #000000"/>
      </g>
     </g>
     <g id="text_6">
      <!-- 0 -->
      <g transform="translate(46.535 222.743125)scale(0.14 -0.14)">
       <defs>
        <path id="DejaVuSans-30" d="M 2034 4250 
Q 1547 4250 1301 3770 
Q 1056 3291 1056 2328 
Q 1056 1369 1301 889 
Q 1547 409 2034 409 
Q 2525 409 2770 889 
Q 3016 1369 3016 2328 
Q 3016 3291 2770 3770 
Q 2525 4250 2034 4250 
z
M 2034 4750 
Q 2819 4750 3233 4129 
Q 3647 3509 3647 2328 
Q 3647 1150 3233 529 
Q 2819 -91 2034 -91 
Q 1250 -91 836 529 
Q 422 1150 422 2328 
Q 422 3509 836 4129 
Q 1250 4750 2034 4750 
z
" transform="scale(0.015625)"/>
       </defs>
       <use xlink:href="#DejaVuSans-30"/>
      </g>
     </g>
    </g>
    <g id="ytick_2">
     <g id="line2d_6">
      <path d="M 60.3925 168.48 
" style="fill: none; stroke: #333333; stroke-width: 1.5"/>
      <g>
       <use xlink:href="#m5655b5ee84" x="60.3925" y="168.48" style="fill: #333333; stroke: #000000"/>
      </g>
     </g>
     <g id="text_7">
      <!-- 25 -->
      <g transform="translate(37.6275 172.343125)scale(0.14 -0.14)">
       <defs>
        <path id="DejaVuSans-35" d="M 691 4666 
L 3169 4666 
L 3169 4134 
L 1269 4134 
L 1269 2991 
Q 1406 3038 1543 3061 
Q 1681 3084 1819 3084 
Q 2600 3084 3056 2656 
Q 3513 2228 3513 1497 
Q 3513 744 3044 326 
Q 2575 -91 1722 -91 
Q 1428 -91 1123 -41 
Q 819 9 494 109 
L 494 744 
Q 775 591 1075 516 
Q 1375 441 1709 441 
Q 2250 441 2565 725 
Q 2881 1009 2881 1497 
Q 2881 1984 2565 2268 
Q 2250 2553 1709 2553 
Q 1456 2553 1204 2497 
Q 953 2441 691 2322 
L 691 4666 
z
" transform="scale(0.015625)"/>
       </defs>
       <use xlink:href="#DejaVuSans-32"/>
       <use xlink:href="#DejaVuSans-35" x="63.623047"/>
      </g>
     </g>
    </g>
    <g id="ytick_3">
     <g id="line2d_7">
      <path d="M 60.3925 118.08 
" style="fill: none; stroke: #333333; stroke-width: 1.5"/>
      <g>
       <use xlink:href="#m5655b5ee84" x="60.3925" y="118.08" style="fill: #333333; stroke: #000000"/>
      </g>
     </g>
     <g id="text_8">
      <!-- 50 -->
      <g transform="translate(37.6275 121.943125)scale(0.14 -0.14)">
       <use xlink:href="#DejaVuSans-35"/>
       <use xlink:href="#DejaVuSans-30" x="63.623047"/>
      </g>
     </g>
    </g>
    <g id="ytick_4">
     <g id="line2d_8">
      <path d="M 60.3925 67.68 
" style="fill: none; stroke: #333333; stroke-width: 1.5"/>
      <g>
       <use xlink:href="#m5655b5ee84" x="60.3925" y="67.68" style="fill: #333333; stroke: #000000"/>
      </g>
     </g>
     <g id="text_9">
      <!-- 75 -->
      <g transform="translate(37.6275 71.543125)scale(0.14 -0.14)">
       <defs>
        <path id="DejaVuSans-37" d="M 525 4666 
L 3525 4666 
L 3525 4397 
L 1831 0 
L 1172 0 
L 2766 4134 
L 525 4134 
L 525 4666 
z
" transform="scale(0.015625)"/>
       </defs>
       <use xlink:href="#DejaVuSans-37"/>
       <use xlink:href="#DejaVuSans-35" x="63.623047"/>
      </g>
     </g>
    </g>
    <g id="ytick_5">
     <g id="line2d_9">
      <path d="M 60.3925 17.28 
" style="fill: none; stroke: #333333; stroke-width: 1.5"/>
      <g>
       <use xlink:href="#m5655b5ee84" x="60.3925" y="17.28" style="fill: #333333; stroke: #000000"/>
      </g>
     </g>
     <g id="text_10">
      <!-- 100 -->
      <g transform="translate(28.72 21.143125)scale(0.14 -0.14)">
       <use xlink:href="#DejaVuSans-31"/>
       <use xlink:href="#DejaVuSans-30" x="63.623047"/>
       <use xlink:href="#DejaVuSans-30" x="127.246094"/>
      </g>
     </g>
    </g>
    <g id="ytick_6"/>
    <g id="ytick_7"/>
    <g id="ytick_8"/>
    <g id="ytick_9"/>
    <g id="text_11">
     <!-- $P_{Q1p_{min}}$ [%] -->
     <g transform="translate(19.36 157.2)rotate(-90)scale(0.16 -0.16)">
      <defs>
       <path id="DejaVuSans-Oblique-50" d="M 1081 4666 
L 2541 4666 
Q 3178 4666 3512 4369 
Q 3847 4072 3847 3500 
Q 3847 2731 3353 2303 
Q 2859 1875 1966 1875 
L 1172 1875 
L 806 0 
L 172 0 
L 1081 4666 
z
M 1613 4147 
L 1275 2394 
L 2069 2394 
Q 2606 2394 2893 2669 
Q 3181 2944 3181 3456 
Q 3181 3784 2986 3965 
Q 2791 4147 2438 4147 
L 1613 4147 
z
" transform="scale(0.015625)"/>
       <path id="DejaVuSans-Oblique-51" d="M 2309 -84 
Q 2275 -88 2237 -89 
Q 2200 -91 2125 -91 
Q 1250 -91 756 411 
Q 263 913 263 1797 
Q 263 2319 452 2844 
Q 641 3369 978 3788 
Q 1369 4269 1858 4509 
Q 2347 4750 2938 4750 
Q 3794 4750 4287 4245 
Q 4781 3741 4781 2869 
Q 4781 1928 4265 1147 
Q 3750 366 2919 44 
L 3553 -825 
L 2847 -825 
L 2309 -84 
z
M 2919 4238 
Q 2400 4238 2003 3986 
Q 1606 3734 1313 3219 
Q 1125 2891 1026 2522 
Q 928 2153 928 1778 
Q 928 1128 1239 775 
Q 1550 422 2119 422 
Q 2631 422 3032 676 
Q 3434 931 3719 1434 
Q 3909 1772 4009 2142 
Q 4109 2513 4109 2881 
Q 4109 3528 3796 3883 
Q 3484 4238 2919 4238 
z
" transform="scale(0.015625)"/>
       <path id="DejaVuSans-Oblique-70" d="M 3175 2156 
Q 3175 2616 2975 2859 
Q 2775 3103 2400 3103 
Q 2144 3103 1911 2972 
Q 1678 2841 1497 2591 
Q 1319 2344 1212 1994 
Q 1106 1644 1106 1300 
Q 1106 863 1306 627 
Q 1506 391 1875 391 
Q 2147 391 2380 519 
Q 2613 647 2778 891 
Q 2956 1147 3065 1494 
Q 3175 1841 3175 2156 
z
M 1394 2969 
Q 1625 3272 1939 3428 
Q 2253 3584 2638 3584 
Q 3175 3584 3472 3232 
Q 3769 2881 3769 2247 
Q 3769 1728 3584 1258 
Q 3400 788 3053 416 
Q 2822 169 2531 39 
Q 2241 -91 1919 -91 
Q 1547 -91 1294 64 
Q 1041 219 916 525 
L 556 -1331 
L -19 -1331 
L 922 3500 
L 1497 3500 
L 1394 2969 
z
" transform="scale(0.015625)"/>
       <path id="DejaVuSans-Oblique-6d" d="M 5747 2113 
L 5338 0 
L 4763 0 
L 5166 2094 
Q 5191 2228 5203 2325 
Q 5216 2422 5216 2491 
Q 5216 2772 5059 2928 
Q 4903 3084 4622 3084 
Q 4203 3084 3875 2770 
Q 3547 2456 3450 1953 
L 3066 0 
L 2491 0 
L 2900 2094 
Q 2925 2209 2937 2307 
Q 2950 2406 2950 2484 
Q 2950 2769 2794 2926 
Q 2638 3084 2363 3084 
Q 1938 3084 1609 2770 
Q 1281 2456 1184 1953 
L 800 0 
L 225 0 
L 909 3500 
L 1484 3500 
L 1375 2956 
Q 1609 3263 1923 3423 
Q 2238 3584 2597 3584 
Q 2978 3584 3223 3384 
Q 3469 3184 3519 2828 
Q 3781 3197 4126 3390 
Q 4472 3584 4856 3584 
Q 5306 3584 5551 3325 
Q 5797 3066 5797 2591 
Q 5797 2488 5784 2364 
Q 5772 2241 5747 2113 
z
" transform="scale(0.015625)"/>
       <path id="DejaVuSans-Oblique-69" d="M 1172 4863 
L 1747 4863 
L 1606 4134 
L 1031 4134 
L 1172 4863 
z
M 909 3500 
L 1484 3500 
L 800 0 
L 225 0 
L 909 3500 
z
" transform="scale(0.015625)"/>
       <path id="DejaVuSans-Oblique-6e" d="M 3566 2113 
L 3156 0 
L 2578 0 
L 2988 2091 
Q 3016 2238 3031 2350 
Q 3047 2463 3047 2528 
Q 3047 2791 2881 2937 
Q 2716 3084 2419 3084 
Q 1956 3084 1622 2776 
Q 1288 2469 1184 1941 
L 800 0 
L 225 0 
L 903 3500 
L 1478 3500 
L 1363 2950 
Q 1603 3253 1940 3418 
Q 2278 3584 2650 3584 
Q 3113 3584 3367 3334 
Q 3622 3084 3622 2631 
Q 3622 2519 3608 2391 
Q 3594 2263 3566 2113 
z
" transform="scale(0.015625)"/>
       <path id="DejaVuSans-25" d="M 4653 2053 
Q 4381 2053 4226 1822 
Q 4072 1591 4072 1178 
Q 4072 772 4226 539 
Q 4381 306 4653 306 
Q 4919 306 5073 539 
Q 5228 772 5228 1178 
Q 5228 1588 5073 1820 
Q 4919 2053 4653 2053 
z
M 4653 2450 
Q 5147 2450 5437 2106 
Q 5728 1763 5728 1178 
Q 5728 594 5436 251 
Q 5144 -91 4653 -91 
Q 4153 -91 3862 251 
Q 3572 594 3572 1178 
Q 3572 1766 3864 2108 
Q 4156 2450 4653 2450 
z
M 1428 4353 
Q 1159 4353 1004 4120 
Q 850 3888 850 3481 
Q 850 3069 1003 2837 
Q 1156 2606 1428 2606 
Q 1700 2606 1854 2837 
Q 2009 3069 2009 3481 
Q 2009 3884 1853 4118 
Q 1697 4353 1428 4353 
z
M 4250 4750 
L 4750 4750 
L 1831 -91 
L 1331 -91 
L 4250 4750 
z
M 1428 4750 
Q 1922 4750 2215 4408 
Q 2509 4066 2509 3481 
Q 2509 2891 2217 2550 
Q 1925 2209 1428 2209 
Q 931 2209 642 2551 
Q 353 2894 353 3481 
Q 353 4063 643 4406 
Q 934 4750 1428 4750 
z
" transform="scale(0.015625)"/>
      </defs>
      <use xlink:href="#DejaVuSans-Oblique-50" transform="translate(0 0.015625)"/>
      <use xlink:href="#DejaVuSans-Oblique-51" transform="translate(60.302734 -16.390625)scale(0.7)"/>
      <use xlink:href="#DejaVuSans-31" transform="translate(115.400391 -16.390625)scale(0.7)"/>
      <use xlink:href="#DejaVuSans-Oblique-70" transform="translate(159.936523 -16.390625)scale(0.7)"/>
      <use xlink:href="#DejaVuSans-Oblique-6d" transform="translate(204.370117 -27.875)scale(0.49)"/>
      <use xlink:href="#DejaVuSans-Oblique-69" transform="translate(252.102051 -27.875)scale(0.49)"/>
      <use xlink:href="#DejaVuSans-Oblique-6e" transform="translate(265.71582 -27.875)scale(0.49)"/>
      <use xlink:href="#DejaVuSans-20" transform="translate(301.419922 0.015625)"/>
      <use xlink:href="#DejaVuSans-5b" transform="translate(333.207031 0.015625)"/>
      <use xlink:href="#DejaVuSans-25" transform="translate(372.220703 0.015625)"/>
      <use xlink:href="#DejaVuSans-5d" transform="translate(467.240234 0.015625)"/>
     </g>
    </g>
   </g>
   <g id="LineCollection_1">
    <path d="M 80.683409 121.629427 
L 80.68341 121.629427 
" clip-path="url(#p13efbf02ca)" style="fill: none; stroke: #9da0a2; stroke-width: 1.32934"/>
    <path d="M 94.210682 117.160507 
L 94.210683 117.160507 
" clip-path="url(#p13efbf02ca)" style="fill: none; stroke: #9da0a2; stroke-width: 1.32934"/>
    <path d="M 107.737954 90.532466 
L 107.737956 90.532466 
" clip-path="url(#p13efbf02ca)" style="fill: none; stroke: #9da0a2; stroke-width: 1.32934"/>
    <path d="M 121.265227 97.739159 
L 121.265228 97.739159 
" clip-path="url(#p13efbf02ca)" style="fill: none; stroke: #9da0a2; stroke-width: 1.32934"/>
    <path d="M 134.7925 86.987311 
L 134.792501 86.987311 
" clip-path="url(#p13efbf02ca)" style="fill: none; stroke: #9da0a2; stroke-width: 1.32934"/>
    <path d="M 148.319773 93.947174 
L 148.319774 93.947174 
" clip-path="url(#p13efbf02ca)" style="fill: none; stroke: #9da0a2; stroke-width: 1.32934"/>
    <path d="M 161.847045 92.359297 
L 161.847047 92.359297 
" clip-path="url(#p13efbf02ca)" style="fill: none; stroke: #9da0a2; stroke-width: 1.32934"/>
    <path d="M 175.374318 108.002915 
L 175.374319 108.002915 
" clip-path="url(#p13efbf02ca)" style="fill: none; stroke: #9da0a2; stroke-width: 1.32934"/>
    <path d="M 188.901591 112.702631 
L 188.901592 112.702631 
" clip-path="url(#p13efbf02ca)" style="fill: none; stroke: #9da0a2; stroke-width: 1.32934"/>
    <path d="M 202.428863 115.750677 
L 202.428865 115.750677 
" clip-path="url(#p13efbf02ca)" style="fill: none; stroke: #9da0a2; stroke-width: 1.32934"/>
    <path d="M 215.956136 131.349464 
L 215.956137 131.349464 
" clip-path="url(#p13efbf02ca)" style="fill: none; stroke: #9da0a2; stroke-width: 1.32934"/>
    <path d="M 229.483409 121.740643 
L 229.48341 121.740643 
" clip-path="url(#p13efbf02ca)" style="fill: none; stroke: #9da0a2; stroke-width: 1.32934"/>
    <path d="M 243.010681 128.104205 
L 243.010683 128.104205 
" clip-path="url(#p13efbf02ca)" style="fill: none; stroke: #9da0a2; stroke-width: 1.32934"/>
    <path d="M 256.537954 136.578183 
L 256.537955 136.578183 
" clip-path="url(#p13efbf02ca)" style="fill: none; stroke: #9da0a2; stroke-width: 1.32934"/>
    <path d="M 270.065227 138.558201 
L 270.065228 138.558201 
" clip-path="url(#p13efbf02ca)" style="fill: none; stroke: #9da0a2; stroke-width: 1.32934"/>
    <path d="M 283.592499 140.725797 
L 283.592501 140.725797 
" clip-path="url(#p13efbf02ca)" style="fill: none; stroke: #9da0a2; stroke-width: 1.32934"/>
    <path d="M 297.119772 132.490532 
L 297.119773 132.490532 
" clip-path="url(#p13efbf02ca)" style="fill: none; stroke: #9da0a2; stroke-width: 1.32934"/>
    <path d="M 310.647045 140.354531 
L 310.647046 140.354531 
" clip-path="url(#p13efbf02ca)" style="fill: none; stroke: #9da0a2; stroke-width: 1.32934"/>
    <path d="M 324.174317 129.084893 
L 324.174319 129.084893 
" clip-path="url(#p13efbf02ca)" style="fill: none; stroke: #9da0a2; stroke-width: 1.32934"/>
    <path d="M 337.70159 130.405992 
L 337.701591 130.405992 
" clip-path="url(#p13efbf02ca)" style="fill: none; stroke: #9da0a2; stroke-width: 1.32934"/>
    <path d="M 351.228863 130.962145 
L 351.228864 130.962145 
" clip-path="url(#p13efbf02ca)" style="fill: none; stroke: #9da0a2; stroke-width: 1.32934"/>
    <path d="M 364.756135 123.26823 
L 364.756137 123.26823 
" clip-path="url(#p13efbf02ca)" style="fill: none; stroke: #9da0a2; stroke-width: 1.32934"/>
    <path d="M 378.283408 130.671894 
L 378.283409 130.671894 
" clip-path="url(#p13efbf02ca)" style="fill: none; stroke: #9da0a2; stroke-width: 1.32934"/>
    <path d="M 391.810681 154.275151 
L 391.810682 154.275151 
" clip-path="url(#p13efbf02ca)" style="fill: none; stroke: #9da0a2; stroke-width: 1.32934"/>
    <path d="M 405.337953 168.77954 
L 405.337955 168.77954 
" clip-path="url(#p13efbf02ca)" style="fill: none; stroke: #9da0a2; stroke-width: 1.32934"/>
    <path d="M 418.865226 182.100413 
L 418.865227 182.100413 
" clip-path="url(#p13efbf02ca)" style="fill: none; stroke: #9da0a2; stroke-width: 1.32934"/>
    <path d="M 432.392499 178.987278 
L 432.3925 178.987278 
" clip-path="url(#p13efbf02ca)" style="fill: none; stroke: #9da0a2; stroke-width: 1.32934"/>
    <path d="M 445.919772 169.143259 
L 445.919773 169.143259 
" clip-path="url(#p13efbf02ca)" style="fill: none; stroke: #9da0a2; stroke-width: 1.32934"/>
    <path d="M 459.447044 203.068121 
L 459.447046 203.068121 
" clip-path="url(#p13efbf02ca)" style="fill: none; stroke: #9da0a2; stroke-width: 1.32934"/>
    <path d="M 472.974317 159.957917 
L 472.974318 159.957917 
" clip-path="url(#p13efbf02ca)" style="fill: none; stroke: #9da0a2; stroke-width: 1.32934"/>
    <path d="M 486.50159 173.860645 
L 486.501591 173.860645 
" clip-path="url(#p13efbf02ca)" style="fill: none; stroke: #9da0a2; stroke-width: 1.32934"/>
    <path d="M 80.683409 108.543886 
L 80.68341 108.543886 
" clip-path="url(#p13efbf02ca)" style="fill: none; stroke: #9da0a2; stroke-width: 1.32934"/>
    <path d="M 94.210682 93.668489 
L 94.210683 93.668489 
" clip-path="url(#p13efbf02ca)" style="fill: none; stroke: #9da0a2; stroke-width: 1.32934"/>
    <path d="M 107.737954 76.910107 
L 107.737956 76.910107 
" clip-path="url(#p13efbf02ca)" style="fill: none; stroke: #9da0a2; stroke-width: 1.32934"/>
    <path d="M 121.265227 81.875053 
L 121.265228 81.875053 
" clip-path="url(#p13efbf02ca)" style="fill: none; stroke: #9da0a2; stroke-width: 1.32934"/>
    <path d="M 134.7925 74.586476 
L 134.792501 74.586476 
" clip-path="url(#p13efbf02ca)" style="fill: none; stroke: #9da0a2; stroke-width: 1.32934"/>
    <path d="M 148.319773 83.231674 
L 148.319774 83.231674 
" clip-path="url(#p13efbf02ca)" style="fill: none; stroke: #9da0a2; stroke-width: 1.32934"/>
    <path d="M 161.847045 84.919325 
L 161.847047 84.919325 
" clip-path="url(#p13efbf02ca)" style="fill: none; stroke: #9da0a2; stroke-width: 1.32934"/>
    <path d="M 175.374318 97.062447 
L 175.374319 97.062447 
" clip-path="url(#p13efbf02ca)" style="fill: none; stroke: #9da0a2; stroke-width: 1.32934"/>
    <path d="M 188.901591 103.407681 
L 188.901592 103.407681 
" clip-path="url(#p13efbf02ca)" style="fill: none; stroke: #9da0a2; stroke-width: 1.32934"/>
    <path d="M 202.428863 105.407574 
L 202.428865 105.407574 
" clip-path="url(#p13efbf02ca)" style="fill: none; stroke: #9da0a2; stroke-width: 1.32934"/>
    <path d="M 215.956136 122.909464 
L 215.956137 122.909464 
" clip-path="url(#p13efbf02ca)" style="fill: none; stroke: #9da0a2; stroke-width: 1.32934"/>
    <path d="M 229.483409 109.242933 
L 229.48341 109.242933 
" clip-path="url(#p13efbf02ca)" style="fill: none; stroke: #9da0a2; stroke-width: 1.32934"/>
    <path d="M 243.010681 119.43126 
L 243.010683 119.43126 
" clip-path="url(#p13efbf02ca)" style="fill: none; stroke: #9da0a2; stroke-width: 1.32934"/>
    <path d="M 256.537954 123.023209 
L 256.537955 123.023209 
" clip-path="url(#p13efbf02ca)" style="fill: none; stroke: #9da0a2; stroke-width: 1.32934"/>
    <path d="M 270.065227 129.181373 
L 270.065228 129.181373 
" clip-path="url(#p13efbf02ca)" style="fill: none; stroke: #9da0a2; stroke-width: 1.32934"/>
    <path d="M 283.592499 131.884469 
L 283.592501 131.884469 
" clip-path="url(#p13efbf02ca)" style="fill: none; stroke: #9da0a2; stroke-width: 1.32934"/>
    <path d="M 297.119772 121.660727 
L 297.119773 121.660727 
" clip-path="url(#p13efbf02ca)" style="fill: none; stroke: #9da0a2; stroke-width: 1.32934"/>
    <path d="M 310.647045 129.249042 
L 310.647046 129.249042 
" clip-path="url(#p13efbf02ca)" style="fill: none; stroke: #9da0a2; stroke-width: 1.32934"/>
    <path d="M 324.174317 119.942654 
L 324.174319 119.942654 
" clip-path="url(#p13efbf02ca)" style="fill: none; stroke: #9da0a2; stroke-width: 1.32934"/>
    <path d="M 337.70159 119.475561 
L 337.701591 119.475561 
" clip-path="url(#p13efbf02ca)" style="fill: none; stroke: #9da0a2; stroke-width: 1.32934"/>
    <path d="M 351.228863 123.027713 
L 351.228864 123.027713 
" clip-path="url(#p13efbf02ca)" style="fill: none; stroke: #9da0a2; stroke-width: 1.32934"/>
    <path d="M 364.756135 115.549016 
L 364.756137 115.549016 
" clip-path="url(#p13efbf02ca)" style="fill: none; stroke: #9da0a2; stroke-width: 1.32934"/>
    <path d="M 378.283408 118.292866 
L 378.283409 118.292866 
" clip-path="url(#p13efbf02ca)" style="fill: none; stroke: #9da0a2; stroke-width: 1.32934"/>
    <path d="M 391.810681 133.756539 
L 391.810682 133.756539 
" clip-path="url(#p13efbf02ca)" style="fill: none; stroke: #9da0a2; stroke-width: 1.32934"/>
    <path d="M 405.337953 139.983947 
L 405.337955 139.983947 
" clip-path="url(#p13efbf02ca)" style="fill: none; stroke: #9da0a2; stroke-width: 1.32934"/>
    <path d="M 418.865226 145.106304 
L 418.865227 145.106304 
" clip-path="url(#p13efbf02ca)" style="fill: none; stroke: #9da0a2; stroke-width: 1.32934"/>
    <path d="M 432.392499 155.11029 
L 432.3925 155.11029 
" clip-path="url(#p13efbf02ca)" style="fill: none; stroke: #9da0a2; stroke-width: 1.32934"/>
    <path d="M 445.919772 151.728044 
L 445.919773 151.728044 
" clip-path="url(#p13efbf02ca)" style="fill: none; stroke: #9da0a2; stroke-width: 1.32934"/>
    <path d="M 459.447044 181.300791 
L 459.447046 181.300791 
" clip-path="url(#p13efbf02ca)" style="fill: none; stroke: #9da0a2; stroke-width: 1.32934"/>
    <path d="M 472.974317 146.252115 
L 472.974318 146.252115 
" clip-path="url(#p13efbf02ca)" style="fill: none; stroke: #9da0a2; stroke-width: 1.32934"/>
    <path d="M 486.50159 167.823715 
L 486.501591 167.823715 
" clip-path="url(#p13efbf02ca)" style="fill: none; stroke: #9da0a2; stroke-width: 1.32934"/>
    <path d="M 80.68341 108.543886 
L 80.68341 121.629427 
" clip-path="url(#p13efbf02ca)" style="fill: none; stroke: #9da0a2; stroke-width: 1.32934"/>
    <path d="M 94.210682 93.668489 
L 94.210682 117.160507 
" clip-path="url(#p13efbf02ca)" style="fill: none; stroke: #9da0a2; stroke-width: 1.32934"/>
    <path d="M 107.737955 76.910107 
L 107.737955 90.532466 
" clip-path="url(#p13efbf02ca)" style="fill: none; stroke: #9da0a2; stroke-width: 1.32934"/>
    <path d="M 121.265228 81.875053 
L 121.265228 97.739159 
" clip-path="url(#p13efbf02ca)" style="fill: none; stroke: #9da0a2; stroke-width: 1.32934"/>
    <path d="M 134.7925 74.586476 
L 134.7925 86.987311 
" clip-path="url(#p13efbf02ca)" style="fill: none; stroke: #9da0a2; stroke-width: 1.32934"/>
    <path d="M 148.319773 83.231674 
L 148.319773 93.947174 
" clip-path="url(#p13efbf02ca)" style="fill: none; stroke: #9da0a2; stroke-width: 1.32934"/>
    <path d="M 161.847046 84.919325 
L 161.847046 92.359297 
" clip-path="url(#p13efbf02ca)" style="fill: none; stroke: #9da0a2; stroke-width: 1.32934"/>
    <path d="M 175.374319 97.062447 
L 175.374319 108.002915 
" clip-path="url(#p13efbf02ca)" style="fill: none; stroke: #9da0a2; stroke-width: 1.32934"/>
    <path d="M 188.901591 103.407681 
L 188.901591 112.702631 
" clip-path="url(#p13efbf02ca)" style="fill: none; stroke: #9da0a2; stroke-width: 1.32934"/>
    <path d="M 202.428864 105.407574 
L 202.428864 115.750677 
" clip-path="url(#p13efbf02ca)" style="fill: none; stroke: #9da0a2; stroke-width: 1.32934"/>
    <path d="M 215.956137 122.909464 
L 215.956137 131.349464 
" clip-path="url(#p13efbf02ca)" style="fill: none; stroke: #9da0a2; stroke-width: 1.32934"/>
    <path d="M 229.483409 109.242933 
L 229.483409 121.740643 
" clip-path="url(#p13efbf02ca)" style="fill: none; stroke: #9da0a2; stroke-width: 1.32934"/>
    <path d="M 243.010682 119.43126 
L 243.010682 128.104205 
" clip-path="url(#p13efbf02ca)" style="fill: none; stroke: #9da0a2; stroke-width: 1.32934"/>
    <path d="M 256.537955 123.023209 
L 256.537955 136.578183 
" clip-path="url(#p13efbf02ca)" style="fill: none; stroke: #9da0a2; stroke-width: 1.32934"/>
    <path d="M 270.065227 129.181373 
L 270.065227 138.558201 
" clip-path="url(#p13efbf02ca)" style="fill: none; stroke: #9da0a2; stroke-width: 1.32934"/>
    <path d="M 283.5925 131.884469 
L 283.5925 140.725797 
" clip-path="url(#p13efbf02ca)" style="fill: none; stroke: #9da0a2; stroke-width: 1.32934"/>
    <path d="M 297.119773 121.660727 
L 297.119773 132.490532 
" clip-path="url(#p13efbf02ca)" style="fill: none; stroke: #9da0a2; stroke-width: 1.32934"/>
    <path d="M 310.647045 129.249042 
L 310.647045 140.354531 
" clip-path="url(#p13efbf02ca)" style="fill: none; stroke: #9da0a2; stroke-width: 1.32934"/>
    <path d="M 324.174318 119.942654 
L 324.174318 129.084893 
" clip-path="url(#p13efbf02ca)" style="fill: none; stroke: #9da0a2; stroke-width: 1.32934"/>
    <path d="M 337.701591 119.475561 
L 337.701591 130.405992 
" clip-path="url(#p13efbf02ca)" style="fill: none; stroke: #9da0a2; stroke-width: 1.32934"/>
    <path d="M 351.228863 123.027713 
L 351.228863 130.962145 
" clip-path="url(#p13efbf02ca)" style="fill: none; stroke: #9da0a2; stroke-width: 1.32934"/>
    <path d="M 364.756136 115.549016 
L 364.756136 123.26823 
" clip-path="url(#p13efbf02ca)" style="fill: none; stroke: #9da0a2; stroke-width: 1.32934"/>
    <path d="M 378.283409 118.292866 
L 378.283409 130.671894 
" clip-path="url(#p13efbf02ca)" style="fill: none; stroke: #9da0a2; stroke-width: 1.32934"/>
    <path d="M 391.810681 133.756539 
L 391.810681 154.275151 
" clip-path="url(#p13efbf02ca)" style="fill: none; stroke: #9da0a2; stroke-width: 1.32934"/>
    <path d="M 405.337954 139.983947 
L 405.337954 168.77954 
" clip-path="url(#p13efbf02ca)" style="fill: none; stroke: #9da0a2; stroke-width: 1.32934"/>
    <path d="M 418.865227 145.106304 
L 418.865227 182.100413 
" clip-path="url(#p13efbf02ca)" style="fill: none; stroke: #9da0a2; stroke-width: 1.32934"/>
    <path d="M 432.3925 155.11029 
L 432.3925 178.987278 
" clip-path="url(#p13efbf02ca)" style="fill: none; stroke: #9da0a2; stroke-width: 1.32934"/>
    <path d="M 445.919772 151.728044 
L 445.919772 169.143259 
" clip-path="url(#p13efbf02ca)" style="fill: none; stroke: #9da0a2; stroke-width: 1.32934"/>
    <path d="M 459.447045 181.300791 
L 459.447045 203.068121 
" clip-path="url(#p13efbf02ca)" style="fill: none; stroke: #9da0a2; stroke-width: 1.32934"/>
    <path d="M 472.974318 146.252115 
L 472.974318 159.957917 
" clip-path="url(#p13efbf02ca)" style="fill: none; stroke: #9da0a2; stroke-width: 1.32934"/>
    <path d="M 486.50159 167.823715 
L 486.50159 173.860645 
" clip-path="url(#p13efbf02ca)" style="fill: none; stroke: #9da0a2; stroke-width: 1.32934"/>
   </g>
   <g id="line2d_10">
    <path d="M 80.68341 115.086657 
L 94.210682 105.414498 
L 107.737955 83.721286 
L 121.265228 89.807106 
L 134.7925 80.786893 
L 148.319773 88.589424 
L 161.847046 88.639311 
L 175.374319 102.532681 
L 188.901591 108.055156 
L 202.428864 110.579126 
L 215.956137 127.129464 
L 229.483409 115.491788 
L 243.010682 123.767733 
L 256.537955 129.800696 
L 270.065227 133.869787 
L 283.5925 136.305133 
L 297.119773 127.07563 
L 310.647045 134.801787 
L 324.174318 124.513774 
L 337.701591 124.940777 
L 351.228863 126.994929 
L 364.756136 119.408623 
L 378.283409 124.48238 
L 391.810681 144.015845 
L 405.337954 154.381744 
L 418.865227 163.603358 
L 432.3925 167.048784 
L 445.919772 160.435651 
L 459.447045 192.184456 
L 472.974318 153.105016 
L 486.50159 170.84218 
" clip-path="url(#p13efbf02ca)" style="fill: none; stroke: #0077bb; stroke-width: 0.886227"/>
   </g>
   <g id="patch_3">
    <path d="M 60.3925 228.96 
L 60.3925 7.2 
" style="fill: none; stroke: #000000; stroke-linejoin: miter; stroke-linecap: square"/>
   </g>
   <g id="patch_4">
    <path d="M 60.3925 228.96 
L 506.7925 228.96 
" style="fill: none; stroke: #000000; stroke-linejoin: miter; stroke-linecap: square"/>
   </g>
   <g id="PathCollection_1">
    <path d="M 80.68341 116.859111 
C 81.15347 116.859111 81.604341 116.672354 81.936724 116.339971 
C 82.269107 116.007588 82.455864 115.556717 82.455864 115.086657 
C 82.455864 114.616597 82.269107 114.165725 81.936724 113.833343 
C 81.604341 113.50096 81.15347 113.314203 80.68341 113.314203 
C 80.21335 113.314203 79.762478 113.50096 79.430096 113.833343 
C 79.097713 114.165725 78.910956 114.616597 78.910956 115.086657 
C 78.910956 115.556717 79.097713 116.007588 79.430096 116.339971 
C 79.762478 116.672354 80.21335 116.859111 80.68341 116.859111 
z
" clip-path="url(#p13efbf02ca)" style="fill: #0077bb; stroke: #0077bb; stroke-width: 0.886227"/>
    <path d="M 94.210682 107.186952 
C 94.680743 107.186952 95.131614 107.000195 95.463997 106.667812 
C 95.796379 106.33543 95.983136 105.884558 95.983136 105.414498 
C 95.983136 104.944438 95.796379 104.493567 95.463997 104.161184 
C 95.131614 103.828801 94.680743 103.642044 94.210682 103.642044 
C 93.740622 103.642044 93.289751 103.828801 92.957368 104.161184 
C 92.624986 104.493567 92.438229 104.944438 92.438229 105.414498 
C 92.438229 105.884558 92.624986 106.33543 92.957368 106.667812 
C 93.289751 107.000195 93.740622 107.186952 94.210682 107.186952 
z
" clip-path="url(#p13efbf02ca)" style="fill: #0077bb; stroke: #0077bb; stroke-width: 0.886227"/>
    <path d="M 107.737955 85.49374 
C 108.208015 85.49374 108.658886 85.306983 108.991269 84.974601 
C 109.323652 84.642218 109.510409 84.191347 109.510409 83.721286 
C 109.510409 83.251226 109.323652 82.800355 108.991269 82.467972 
C 108.658886 82.135589 108.208015 81.948833 107.737955 81.948833 
C 107.267895 81.948833 106.817024 82.135589 106.484641 82.467972 
C 106.152258 82.800355 105.965501 83.251226 105.965501 83.721286 
C 105.965501 84.191347 106.152258 84.642218 106.484641 84.974601 
C 106.817024 85.306983 107.267895 85.49374 107.737955 85.49374 
z
" clip-path="url(#p13efbf02ca)" style="fill: #0077bb; stroke: #0077bb; stroke-width: 0.886227"/>
    <path d="M 121.265228 91.57956 
C 121.735288 91.57956 122.186159 91.392803 122.518542 91.06042 
C 122.850925 90.728037 123.037682 90.277166 123.037682 89.807106 
C 123.037682 89.337046 122.850925 88.886175 122.518542 88.553792 
C 122.186159 88.221409 121.735288 88.034652 121.265228 88.034652 
C 120.795168 88.034652 120.344296 88.221409 120.011914 88.553792 
C 119.679531 88.886175 119.492774 89.337046 119.492774 89.807106 
C 119.492774 90.277166 119.679531 90.728037 120.011914 91.06042 
C 120.344296 91.392803 120.795168 91.57956 121.265228 91.57956 
z
" clip-path="url(#p13efbf02ca)" style="fill: #0077bb; stroke: #0077bb; stroke-width: 0.886227"/>
    <path d="M 134.7925 82.559347 
C 135.262561 82.559347 135.713432 82.37259 136.045815 82.040208 
C 136.378197 81.707825 136.564954 81.256954 136.564954 80.786893 
C 136.564954 80.316833 136.378197 79.865962 136.045815 79.533579 
C 135.713432 79.201197 135.262561 79.01444 134.7925 79.01444 
C 134.32244 79.01444 133.871569 79.201197 133.539186 79.533579 
C 133.206804 79.865962 133.020047 80.316833 133.020047 80.786893 
C 133.020047 81.256954 133.206804 81.707825 133.539186 82.040208 
C 133.871569 82.37259 134.32244 82.559347 134.7925 82.559347 
z
" clip-path="url(#p13efbf02ca)" style="fill: #0077bb; stroke: #0077bb; stroke-width: 0.886227"/>
    <path d="M 148.319773 90.361878 
C 148.789833 90.361878 149.240705 90.175121 149.573087 89.842738 
C 149.90547 89.510356 150.092227 89.059485 150.092227 88.589424 
C 150.092227 88.119364 149.90547 87.668493 149.573087 87.33611 
C 149.240705 87.003727 148.789833 86.81697 148.319773 86.81697 
C 147.849713 86.81697 147.398842 87.003727 147.066459 87.33611 
C 146.734076 87.668493 146.547319 88.119364 146.547319 88.589424 
C 146.547319 89.059485 146.734076 89.510356 147.066459 89.842738 
C 147.398842 90.175121 147.849713 90.361878 148.319773 90.361878 
z
" clip-path="url(#p13efbf02ca)" style="fill: #0077bb; stroke: #0077bb; stroke-width: 0.886227"/>
    <path d="M 161.847046 90.411765 
C 162.317106 90.411765 162.767977 90.225008 163.10036 89.892625 
C 163.432743 89.560242 163.6195 89.109371 163.6195 88.639311 
C 163.6195 88.169251 163.432743 87.71838 163.10036 87.385997 
C 162.767977 87.053614 162.317106 86.866857 161.847046 86.866857 
C 161.376986 86.866857 160.926115 87.053614 160.593732 87.385997 
C 160.261349 87.71838 160.074592 88.169251 160.074592 88.639311 
C 160.074592 89.109371 160.261349 89.560242 160.593732 89.892625 
C 160.926115 90.225008 161.376986 90.411765 161.847046 90.411765 
z
" clip-path="url(#p13efbf02ca)" style="fill: #0077bb; stroke: #0077bb; stroke-width: 0.886227"/>
    <path d="M 175.374319 104.305135 
C 175.844379 104.305135 176.29525 104.118378 176.627633 103.785995 
C 176.960015 103.453612 177.146772 103.002741 177.146772 102.532681 
C 177.146772 102.062621 176.960015 101.61175 176.627633 101.279367 
C 176.29525 100.946984 175.844379 100.760227 175.374319 100.760227 
C 174.904258 100.760227 174.453387 100.946984 174.121004 101.279367 
C 173.788622 101.61175 173.601865 102.062621 173.601865 102.532681 
C 173.601865 103.002741 173.788622 103.453612 174.121004 103.785995 
C 174.453387 104.118378 174.904258 104.305135 175.374319 104.305135 
z
" clip-path="url(#p13efbf02ca)" style="fill: #0077bb; stroke: #0077bb; stroke-width: 0.886227"/>
    <path d="M 188.901591 109.82761 
C 189.371651 109.82761 189.822523 109.640853 190.154905 109.30847 
C 190.487288 108.976087 190.674045 108.525216 190.674045 108.055156 
C 190.674045 107.585096 190.487288 107.134225 190.154905 106.801842 
C 189.822523 106.469459 189.371651 106.282702 188.901591 106.282702 
C 188.431531 106.282702 187.98066 106.469459 187.648277 106.801842 
C 187.315894 107.134225 187.129137 107.585096 187.129137 108.055156 
C 187.129137 108.525216 187.315894 108.976087 187.648277 109.30847 
C 187.98066 109.640853 188.431531 109.82761 188.901591 109.82761 
z
" clip-path="url(#p13efbf02ca)" style="fill: #0077bb; stroke: #0077bb; stroke-width: 0.886227"/>
    <path d="M 202.428864 112.35158 
C 202.898924 112.35158 203.349795 112.164823 203.682178 111.83244 
C 204.014561 111.500057 204.201318 111.049186 204.201318 110.579126 
C 204.201318 110.109065 204.014561 109.658194 203.682178 109.325812 
C 203.349795 108.993429 202.898924 108.806672 202.428864 108.806672 
C 201.958804 108.806672 201.507933 108.993429 201.17555 109.325812 
C 200.843167 109.658194 200.65641 110.109065 200.65641 110.579126 
C 200.65641 111.049186 200.843167 111.500057 201.17555 111.83244 
C 201.507933 112.164823 201.958804 112.35158 202.428864 112.35158 
z
" clip-path="url(#p13efbf02ca)" style="fill: #0077bb; stroke: #0077bb; stroke-width: 0.886227"/>
    <path d="M 215.956137 128.901917 
C 216.426197 128.901917 216.877068 128.715161 217.209451 128.382778 
C 217.541834 128.050395 217.72859 127.599524 217.72859 127.129464 
C 217.72859 126.659403 217.541834 126.208532 217.209451 125.87615 
C 216.877068 125.543767 216.426197 125.35701 215.956137 125.35701 
C 215.486076 125.35701 215.035205 125.543767 214.702822 125.87615 
C 214.37044 126.208532 214.183683 126.659403 214.183683 127.129464 
C 214.183683 127.599524 214.37044 128.050395 214.702822 128.382778 
C 215.035205 128.715161 215.486076 128.901917 215.956137 128.901917 
z
" clip-path="url(#p13efbf02ca)" style="fill: #0077bb; stroke: #0077bb; stroke-width: 0.886227"/>
    <path d="M 229.483409 117.264242 
C 229.95347 117.264242 230.404341 117.077485 230.736723 116.745102 
C 231.069106 116.41272 231.255863 115.961848 231.255863 115.491788 
C 231.255863 115.021728 231.069106 114.570857 230.736723 114.238474 
C 230.404341 113.906091 229.95347 113.719334 229.483409 113.719334 
C 229.013349 113.719334 228.562478 113.906091 228.230095 114.238474 
C 227.897712 114.570857 227.710955 115.021728 227.710955 115.491788 
C 227.710955 115.961848 227.897712 116.41272 228.230095 116.745102 
C 228.562478 117.077485 229.013349 117.264242 229.483409 117.264242 
z
" clip-path="url(#p13efbf02ca)" style="fill: #0077bb; stroke: #0077bb; stroke-width: 0.886227"/>
    <path d="M 243.010682 125.540186 
C 243.480742 125.540186 243.931613 125.35343 244.263996 125.021047 
C 244.596379 124.688664 244.783136 124.237793 244.783136 123.767733 
C 244.783136 123.297672 244.596379 122.846801 244.263996 122.514418 
C 243.931613 122.182036 243.480742 121.995279 243.010682 121.995279 
C 242.540622 121.995279 242.089751 122.182036 241.757368 122.514418 
C 241.424985 122.846801 241.238228 123.297672 241.238228 123.767733 
C 241.238228 124.237793 241.424985 124.688664 241.757368 125.021047 
C 242.089751 125.35343 242.540622 125.540186 243.010682 125.540186 
z
" clip-path="url(#p13efbf02ca)" style="fill: #0077bb; stroke: #0077bb; stroke-width: 0.886227"/>
    <path d="M 256.537955 131.57315 
C 257.008015 131.57315 257.458886 131.386393 257.791269 131.05401 
C 258.123652 130.721627 258.310408 130.270756 258.310408 129.800696 
C 258.310408 129.330636 258.123652 128.879765 257.791269 128.547382 
C 257.458886 128.214999 257.008015 128.028242 256.537955 128.028242 
C 256.067894 128.028242 255.617023 128.214999 255.28464 128.547382 
C 254.952258 128.879765 254.765501 129.330636 254.765501 129.800696 
C 254.765501 130.270756 254.952258 130.721627 255.28464 131.05401 
C 255.617023 131.386393 256.067894 131.57315 256.537955 131.57315 
z
" clip-path="url(#p13efbf02ca)" style="fill: #0077bb; stroke: #0077bb; stroke-width: 0.886227"/>
    <path d="M 270.065227 135.642241 
C 270.535288 135.642241 270.986159 135.455484 271.318541 135.123101 
C 271.650924 134.790718 271.837681 134.339847 271.837681 133.869787 
C 271.837681 133.399727 271.650924 132.948855 271.318541 132.616473 
C 270.986159 132.28409 270.535288 132.097333 270.065227 132.097333 
C 269.595167 132.097333 269.144296 132.28409 268.811913 132.616473 
C 268.47953 132.948855 268.292773 133.399727 268.292773 133.869787 
C 268.292773 134.339847 268.47953 134.790718 268.811913 135.123101 
C 269.144296 135.455484 269.595167 135.642241 270.065227 135.642241 
z
" clip-path="url(#p13efbf02ca)" style="fill: #0077bb; stroke: #0077bb; stroke-width: 0.886227"/>
    <path d="M 283.5925 138.077587 
C 284.06256 138.077587 284.513431 137.89083 284.845814 137.558447 
C 285.178197 137.226064 285.364954 136.775193 285.364954 136.305133 
C 285.364954 135.835073 285.178197 135.384201 284.845814 135.051819 
C 284.513431 134.719436 284.06256 134.532679 283.5925 134.532679 
C 283.12244 134.532679 282.671569 134.719436 282.339186 135.051819 
C 282.006803 135.384201 281.820046 135.835073 281.820046 136.305133 
C 281.820046 136.775193 282.006803 137.226064 282.339186 137.558447 
C 282.671569 137.89083 283.12244 138.077587 283.5925 138.077587 
z
" clip-path="url(#p13efbf02ca)" style="fill: #0077bb; stroke: #0077bb; stroke-width: 0.886227"/>
    <path d="M 297.119773 128.848083 
C 297.589833 128.848083 298.040704 128.661326 298.373087 128.328944 
C 298.70547 127.996561 298.892227 127.54569 298.892227 127.07563 
C 298.892227 126.605569 298.70547 126.154698 298.373087 125.822315 
C 298.040704 125.489933 297.589833 125.303176 297.119773 125.303176 
C 296.649712 125.303176 296.198841 125.489933 295.866459 125.822315 
C 295.534076 126.154698 295.347319 126.605569 295.347319 127.07563 
C 295.347319 127.54569 295.534076 127.996561 295.866459 128.328944 
C 296.198841 128.661326 296.649712 128.848083 297.119773 128.848083 
z
" clip-path="url(#p13efbf02ca)" style="fill: #0077bb; stroke: #0077bb; stroke-width: 0.886227"/>
    <path d="M 310.647045 136.574241 
C 311.117106 136.574241 311.567977 136.387484 311.90036 136.055101 
C 312.232742 135.722718 312.419499 135.271847 312.419499 134.801787 
C 312.419499 134.331727 312.232742 133.880856 311.90036 133.548473 
C 311.567977 133.21609 311.117106 133.029333 310.647045 133.029333 
C 310.176985 133.029333 309.726114 133.21609 309.393731 133.548473 
C 309.061348 133.880856 308.874592 134.331727 308.874592 134.801787 
C 308.874592 135.271847 309.061348 135.722718 309.393731 136.055101 
C 309.726114 136.387484 310.176985 136.574241 310.647045 136.574241 
z
" clip-path="url(#p13efbf02ca)" style="fill: #0077bb; stroke: #0077bb; stroke-width: 0.886227"/>
    <path d="M 324.174318 126.286227 
C 324.644378 126.286227 325.095249 126.09947 325.427632 125.767088 
C 325.760015 125.434705 325.946772 124.983834 325.946772 124.513774 
C 325.946772 124.043713 325.760015 123.592842 325.427632 123.260459 
C 325.095249 122.928077 324.644378 122.74132 324.174318 122.74132 
C 323.704258 122.74132 323.253387 122.928077 322.921004 123.260459 
C 322.588621 123.592842 322.401864 124.043713 322.401864 124.513774 
C 322.401864 124.983834 322.588621 125.434705 322.921004 125.767088 
C 323.253387 126.09947 323.704258 126.286227 324.174318 126.286227 
z
" clip-path="url(#p13efbf02ca)" style="fill: #0077bb; stroke: #0077bb; stroke-width: 0.886227"/>
    <path d="M 337.701591 126.713231 
C 338.171651 126.713231 338.622522 126.526474 338.954905 126.194091 
C 339.287288 125.861708 339.474045 125.410837 339.474045 124.940777 
C 339.474045 124.470716 339.287288 124.019845 338.954905 123.687463 
C 338.622522 123.35508 338.171651 123.168323 337.701591 123.168323 
C 337.23153 123.168323 336.780659 123.35508 336.448277 123.687463 
C 336.115894 124.019845 335.929137 124.470716 335.929137 124.940777 
C 335.929137 125.410837 336.115894 125.861708 336.448277 126.194091 
C 336.780659 126.526474 337.23153 126.713231 337.701591 126.713231 
z
" clip-path="url(#p13efbf02ca)" style="fill: #0077bb; stroke: #0077bb; stroke-width: 0.886227"/>
    <path d="M 351.228863 128.767383 
C 351.698924 128.767383 352.149795 128.580626 352.482178 128.248243 
C 352.81456 127.915861 353.001317 127.464989 353.001317 126.994929 
C 353.001317 126.524869 352.81456 126.073998 352.482178 125.741615 
C 352.149795 125.409232 351.698924 125.222475 351.228863 125.222475 
C 350.758803 125.222475 350.307932 125.409232 349.975549 125.741615 
C 349.643166 126.073998 349.45641 126.524869 349.45641 126.994929 
C 349.45641 127.464989 349.643166 127.915861 349.975549 128.248243 
C 350.307932 128.580626 350.758803 128.767383 351.228863 128.767383 
z
" clip-path="url(#p13efbf02ca)" style="fill: #0077bb; stroke: #0077bb; stroke-width: 0.886227"/>
    <path d="M 364.756136 121.181077 
C 365.226196 121.181077 365.677067 120.99432 366.00945 120.661937 
C 366.341833 120.329554 366.52859 119.878683 366.52859 119.408623 
C 366.52859 118.938563 366.341833 118.487692 366.00945 118.155309 
C 365.677067 117.822926 365.226196 117.636169 364.756136 117.636169 
C 364.286076 117.636169 363.835205 117.822926 363.502822 118.155309 
C 363.170439 118.487692 362.983682 118.938563 362.983682 119.408623 
C 362.983682 119.878683 363.170439 120.329554 363.502822 120.661937 
C 363.835205 120.99432 364.286076 121.181077 364.756136 121.181077 
z
" clip-path="url(#p13efbf02ca)" style="fill: #0077bb; stroke: #0077bb; stroke-width: 0.886227"/>
    <path d="M 378.283409 126.254834 
C 378.753469 126.254834 379.20434 126.068077 379.536723 125.735694 
C 379.869106 125.403311 380.055863 124.95244 380.055863 124.48238 
C 380.055863 124.01232 379.869106 123.561449 379.536723 123.229066 
C 379.20434 122.896683 378.753469 122.709926 378.283409 122.709926 
C 377.813349 122.709926 377.362477 122.896683 377.030095 123.229066 
C 376.697712 123.561449 376.510955 124.01232 376.510955 124.48238 
C 376.510955 124.95244 376.697712 125.403311 377.030095 125.735694 
C 377.362477 126.068077 377.813349 126.254834 378.283409 126.254834 
z
" clip-path="url(#p13efbf02ca)" style="fill: #0077bb; stroke: #0077bb; stroke-width: 0.886227"/>
    <path d="M 391.810681 145.788299 
C 392.280742 145.788299 392.731613 145.601542 393.063996 145.269159 
C 393.396378 144.936776 393.583135 144.485905 393.583135 144.015845 
C 393.583135 143.545785 393.396378 143.094914 393.063996 142.762531 
C 392.731613 142.430148 392.280742 142.243391 391.810681 142.243391 
C 391.340621 142.243391 390.88975 142.430148 390.557367 142.762531 
C 390.224985 143.094914 390.038228 143.545785 390.038228 144.015845 
C 390.038228 144.485905 390.224985 144.936776 390.557367 145.269159 
C 390.88975 145.601542 391.340621 145.788299 391.810681 145.788299 
z
" clip-path="url(#p13efbf02ca)" style="fill: #0077bb; stroke: #0077bb; stroke-width: 0.886227"/>
    <path d="M 405.337954 156.154198 
C 405.808014 156.154198 406.258885 155.967441 406.591268 155.635058 
C 406.923651 155.302675 407.110408 154.851804 407.110408 154.381744 
C 407.110408 153.911684 406.923651 153.460812 406.591268 153.12843 
C 406.258885 152.796047 405.808014 152.60929 405.337954 152.60929 
C 404.867894 152.60929 404.417023 152.796047 404.08464 153.12843 
C 403.752257 153.460812 403.5655 153.911684 403.5655 154.381744 
C 403.5655 154.851804 403.752257 155.302675 404.08464 155.635058 
C 404.417023 155.967441 404.867894 156.154198 405.337954 156.154198 
z
" clip-path="url(#p13efbf02ca)" style="fill: #0077bb; stroke: #0077bb; stroke-width: 0.886227"/>
    <path d="M 418.865227 165.375812 
C 419.335287 165.375812 419.786158 165.189055 420.118541 164.856673 
C 420.450924 164.52429 420.637681 164.073419 420.637681 163.603358 
C 420.637681 163.133298 420.450924 162.682427 420.118541 162.350044 
C 419.786158 162.017662 419.335287 161.830905 418.865227 161.830905 
C 418.395167 161.830905 417.944295 162.017662 417.611913 162.350044 
C 417.27953 162.682427 417.092773 163.133298 417.092773 163.603358 
C 417.092773 164.073419 417.27953 164.52429 417.611913 164.856673 
C 417.944295 165.189055 418.395167 165.375812 418.865227 165.375812 
z
" clip-path="url(#p13efbf02ca)" style="fill: #0077bb; stroke: #0077bb; stroke-width: 0.886227"/>
    <path d="M 432.3925 168.821237 
C 432.86256 168.821237 433.313431 168.634481 433.645814 168.302098 
C 433.978196 167.969715 434.164953 167.518844 434.164953 167.048784 
C 434.164953 166.578723 433.978196 166.127852 433.645814 165.79547 
C 433.313431 165.463087 432.86256 165.27633 432.3925 165.27633 
C 431.922439 165.27633 431.471568 165.463087 431.139185 165.79547 
C 430.806803 166.127852 430.620046 166.578723 430.620046 167.048784 
C 430.620046 167.518844 430.806803 167.969715 431.139185 168.302098 
C 431.471568 168.634481 431.922439 168.821237 432.3925 168.821237 
z
" clip-path="url(#p13efbf02ca)" style="fill: #0077bb; stroke: #0077bb; stroke-width: 0.886227"/>
    <path d="M 445.919772 162.208105 
C 446.389832 162.208105 446.840704 162.021348 447.173086 161.688965 
C 447.505469 161.356583 447.692226 160.905711 447.692226 160.435651 
C 447.692226 159.965591 447.505469 159.51472 447.173086 159.182337 
C 446.840704 158.849954 446.389832 158.663197 445.919772 158.663197 
C 445.449712 158.663197 444.998841 158.849954 444.666458 159.182337 
C 444.334075 159.51472 444.147318 159.965591 444.147318 160.435651 
C 444.147318 160.905711 444.334075 161.356583 444.666458 161.688965 
C 444.998841 162.021348 445.449712 162.208105 445.919772 162.208105 
z
" clip-path="url(#p13efbf02ca)" style="fill: #0077bb; stroke: #0077bb; stroke-width: 0.886227"/>
    <path d="M 459.447045 193.95691 
C 459.917105 193.95691 460.367976 193.770153 460.700359 193.437771 
C 461.032742 193.105388 461.219499 192.654517 461.219499 192.184456 
C 461.219499 191.714396 461.032742 191.263525 460.700359 190.931142 
C 460.367976 190.598759 459.917105 190.412003 459.447045 190.412003 
C 458.976985 190.412003 458.526114 190.598759 458.193731 190.931142 
C 457.861348 191.263525 457.674591 191.714396 457.674591 192.184456 
C 457.674591 192.654517 457.861348 193.105388 458.193731 193.437771 
C 458.526114 193.770153 458.976985 193.95691 459.447045 193.95691 
z
" clip-path="url(#p13efbf02ca)" style="fill: #0077bb; stroke: #0077bb; stroke-width: 0.886227"/>
    <path d="M 472.974318 154.87747 
C 473.444378 154.87747 473.895249 154.690713 474.227632 154.35833 
C 474.560014 154.025947 474.746771 153.575076 474.746771 153.105016 
C 474.746771 152.634956 474.560014 152.184085 474.227632 151.851702 
C 473.895249 151.519319 473.444378 151.332562 472.974318 151.332562 
C 472.504257 151.332562 472.053386 151.519319 471.721003 151.851702 
C 471.388621 152.184085 471.201864 152.634956 471.201864 153.105016 
C 471.201864 153.575076 471.388621 154.025947 471.721003 154.35833 
C 472.053386 154.690713 472.504257 154.87747 472.974318 154.87747 
z
" clip-path="url(#p13efbf02ca)" style="fill: #0077bb; stroke: #0077bb; stroke-width: 0.886227"/>
    <path d="M 486.50159 172.614634 
C 486.97165 172.614634 487.422522 172.427877 487.754904 172.095495 
C 488.087287 171.763112 488.274044 171.312241 488.274044 170.84218 
C 488.274044 170.37212 488.087287 169.921249 487.754904 169.588866 
C 487.422522 169.256483 486.97165 169.069727 486.50159 169.069727 
C 486.03153 169.069727 485.580659 169.256483 485.248276 169.588866 
C 484.915893 169.921249 484.729136 170.37212 484.729136 170.84218 
C 484.729136 171.312241 484.915893 171.763112 485.248276 172.095495 
C 485.580659 172.427877 486.03153 172.614634 486.50159 172.614634 
z
" clip-path="url(#p13efbf02ca)" style="fill: #0077bb; stroke: #0077bb; stroke-width: 0.886227"/>
   </g>
  </g>
 </g>
 <defs>
  <clipPath id="p13efbf02ca">
   <rect x="60.3925" y="7.2" width="446.4" height="221.76"/>
  </clipPath>
 </defs>
</svg>
