<?xml version="1.0" encoding="utf-8" standalone="no"?>
<!DOCTYPE svg PUBLIC "-//W3C//DTD SVG 1.1//EN"
  "http://www.w3.org/Graphics/SVG/1.1/DTD/svg11.dtd">
<!-- Created with matplotlib (https://matplotlib.org/) -->
<svg height="264.672687pt" version="1.1" viewBox="0 0 498.167 264.672687" width="498.167pt" xmlns="http://www.w3.org/2000/svg" xmlns:xlink="http://www.w3.org/1999/xlink">
 <defs>
  <style type="text/css">
*{stroke-linecap:butt;stroke-linejoin:round;}
  </style>
 </defs>
 <g id="figure_1">
  <g id="patch_1">
   <path d="M 0 264.672687 
L 498.167 264.672687 
L 498.167 0 
L 0 0 
z
" style="fill:#ffffff;stroke:#ffffff;stroke-linejoin:miter;"/>
  </g>
  <g id="axes_1">
   <g id="patch_2">
    <path d="M 44.567 228.96 
L 490.967 228.96 
L 490.967 7.2 
L 44.567 7.2 
z
" style="fill:#ffffff;stroke:#7f7f7f;stroke-linejoin:miter;"/>
   </g>
   <g id="matplotlib.axis_1">
    <g id="xtick_1">
     <g id="line2d_1">
      <path clip-path="url(#pff5511552d)" d="M 64.857909 228.96 
L 64.857909 7.2 
" style="fill:none;stroke:#e5e5e5;stroke-width:0.8;"/>
     </g>
     <g id="line2d_2">
      <path d="M 64.857909 228.96 
" style="fill:none;stroke:#000000;stroke-width:1.5;"/>
      <defs>
       <path d="M 0 0 
L 0 2.75 
" id="m3181f0ec8b" style="stroke:#000000;"/>
      </defs>
      <g>
       <use style="stroke:#000000;" x="64.857909" xlink:href="#m3181f0ec8b" y="228.96"/>
      </g>
     </g>
     <g id="text_1">
      <!-- 1 -->
      <defs>
       <path d="M 12.40625 8.296875 
L 28.515625 8.296875 
L 28.515625 63.921875 
L 10.984375 60.40625 
L 10.984375 69.390625 
L 28.421875 72.90625 
L 38.28125 72.90625 
L 38.28125 8.296875 
L 54.390625 8.296875 
L 54.390625 0 
L 12.40625 0 
z
" id="DejaVuSans-49"/>
      </defs>
      <g transform="translate(62.058409 240.596625)scale(0.088 -0.088)">
       <use xlink:href="#DejaVuSans-49"/>
      </g>
     </g>
    </g>
    <g id="xtick_2">
     <g id="line2d_3">
      <path clip-path="url(#pff5511552d)" d="M 200.130636 228.96 
L 200.130636 7.2 
" style="fill:none;stroke:#e5e5e5;stroke-width:0.8;"/>
     </g>
     <g id="line2d_4">
      <path d="M 200.130636 228.96 
" style="fill:none;stroke:#000000;stroke-width:1.5;"/>
      <g>
       <use style="stroke:#000000;" x="200.130636" xlink:href="#m3181f0ec8b" y="228.96"/>
      </g>
     </g>
     <g id="text_2">
      <!-- 2 -->
      <defs>
       <path d="M 19.1875 8.296875 
L 53.609375 8.296875 
L 53.609375 0 
L 7.328125 0 
L 7.328125 8.296875 
Q 12.9375 14.109375 22.625 23.890625 
Q 32.328125 33.6875 34.8125 36.53125 
Q 39.546875 41.84375 41.421875 45.53125 
Q 43.3125 49.21875 43.3125 52.78125 
Q 43.3125 58.59375 39.234375 62.25 
Q 35.15625 65.921875 28.609375 65.921875 
Q 23.96875 65.921875 18.8125 64.3125 
Q 13.671875 62.703125 7.8125 59.421875 
L 7.8125 69.390625 
Q 13.765625 71.78125 18.9375 73 
Q 24.125 74.21875 28.421875 74.21875 
Q 39.75 74.21875 46.484375 68.546875 
Q 53.21875 62.890625 53.21875 53.421875 
Q 53.21875 48.921875 51.53125 44.890625 
Q 49.859375 40.875 45.40625 35.40625 
Q 44.1875 33.984375 37.640625 27.21875 
Q 31.109375 20.453125 19.1875 8.296875 
z
" id="DejaVuSans-50"/>
      </defs>
      <g transform="translate(197.331136 240.596625)scale(0.088 -0.088)">
       <use xlink:href="#DejaVuSans-50"/>
      </g>
     </g>
    </g>
    <g id="xtick_3">
     <g id="line2d_5">
      <path clip-path="url(#pff5511552d)" d="M 335.403364 228.96 
L 335.403364 7.2 
" style="fill:none;stroke:#e5e5e5;stroke-width:0.8;"/>
     </g>
     <g id="line2d_6">
      <path d="M 335.403364 228.96 
" style="fill:none;stroke:#000000;stroke-width:1.5;"/>
      <g>
       <use style="stroke:#000000;" x="335.403364" xlink:href="#m3181f0ec8b" y="228.96"/>
      </g>
     </g>
     <g id="text_3">
      <!-- 3 -->
      <defs>
       <path d="M 40.578125 39.3125 
Q 47.65625 37.796875 51.625 33 
Q 55.609375 28.21875 55.609375 21.1875 
Q 55.609375 10.40625 48.1875 4.484375 
Q 40.765625 -1.421875 27.09375 -1.421875 
Q 22.515625 -1.421875 17.65625 -0.515625 
Q 12.796875 0.390625 7.625 2.203125 
L 7.625 11.71875 
Q 11.71875 9.328125 16.59375 8.109375 
Q 21.484375 6.890625 26.8125 6.890625 
Q 36.078125 6.890625 40.9375 10.546875 
Q 45.796875 14.203125 45.796875 21.1875 
Q 45.796875 27.640625 41.28125 31.265625 
Q 36.765625 34.90625 28.71875 34.90625 
L 20.21875 34.90625 
L 20.21875 43.015625 
L 29.109375 43.015625 
Q 36.375 43.015625 40.234375 45.921875 
Q 44.09375 48.828125 44.09375 54.296875 
Q 44.09375 59.90625 40.109375 62.90625 
Q 36.140625 65.921875 28.71875 65.921875 
Q 24.65625 65.921875 20.015625 65.03125 
Q 15.375 64.15625 9.8125 62.3125 
L 9.8125 71.09375 
Q 15.4375 72.65625 20.34375 73.4375 
Q 25.25 74.21875 29.59375 74.21875 
Q 40.828125 74.21875 47.359375 69.109375 
Q 53.90625 64.015625 53.90625 55.328125 
Q 53.90625 49.265625 50.4375 45.09375 
Q 46.96875 40.921875 40.578125 39.3125 
z
" id="DejaVuSans-51"/>
      </defs>
      <g transform="translate(332.603864 240.596625)scale(0.088 -0.088)">
       <use xlink:href="#DejaVuSans-51"/>
      </g>
     </g>
    </g>
    <g id="xtick_4">
     <g id="line2d_7">
      <path clip-path="url(#pff5511552d)" d="M 470.676091 228.96 
L 470.676091 7.2 
" style="fill:none;stroke:#e5e5e5;stroke-width:0.8;"/>
     </g>
     <g id="line2d_8">
      <path d="M 470.676091 228.96 
" style="fill:none;stroke:#000000;stroke-width:1.5;"/>
      <g>
       <use style="stroke:#000000;" x="470.676091" xlink:href="#m3181f0ec8b" y="228.96"/>
      </g>
     </g>
     <g id="text_4">
      <!-- 4 -->
      <defs>
       <path d="M 37.796875 64.3125 
L 12.890625 25.390625 
L 37.796875 25.390625 
z
M 35.203125 72.90625 
L 47.609375 72.90625 
L 47.609375 25.390625 
L 58.015625 25.390625 
L 58.015625 17.1875 
L 47.609375 17.1875 
L 47.609375 0 
L 37.796875 0 
L 37.796875 17.1875 
L 4.890625 17.1875 
L 4.890625 26.703125 
z
" id="DejaVuSans-52"/>
      </defs>
      <g transform="translate(467.876591 240.596625)scale(0.088 -0.088)">
       <use xlink:href="#DejaVuSans-52"/>
      </g>
     </g>
    </g>
    <g id="xtick_5">
     <g id="line2d_9">
      <path clip-path="url(#pff5511552d)" d="M 132.494273 228.96 
L 132.494273 7.2 
" style="fill:none;stroke:#fafafa;"/>
     </g>
     <g id="line2d_10">
      <path d="M 132.494273 228.96 
" style="fill:none;stroke:#000000;stroke-width:1.5;"/>
      <defs>
       <path d="M 0 0 
L 0 1.375 
" id="m2fd1a21cab" style="stroke:#000000;"/>
      </defs>
      <g>
       <use style="stroke:#000000;" x="132.494273" xlink:href="#m2fd1a21cab" y="228.96"/>
      </g>
     </g>
    </g>
    <g id="xtick_6">
     <g id="line2d_11">
      <path clip-path="url(#pff5511552d)" d="M 267.767 228.96 
L 267.767 7.2 
" style="fill:none;stroke:#fafafa;"/>
     </g>
     <g id="line2d_12">
      <path d="M 267.767 228.96 
" style="fill:none;stroke:#000000;stroke-width:1.5;"/>
      <g>
       <use style="stroke:#000000;" x="267.767" xlink:href="#m2fd1a21cab" y="228.96"/>
      </g>
     </g>
    </g>
    <g id="xtick_7">
     <g id="line2d_13">
      <path clip-path="url(#pff5511552d)" d="M 403.039727 228.96 
L 403.039727 7.2 
" style="fill:none;stroke:#fafafa;"/>
     </g>
     <g id="line2d_14">
      <path d="M 403.039727 228.96 
" style="fill:none;stroke:#000000;stroke-width:1.5;"/>
      <g>
       <use style="stroke:#000000;" x="403.039727" xlink:href="#m2fd1a21cab" y="228.96"/>
      </g>
     </g>
    </g>
    <g id="text_5">
     <!-- Resolution -->
     <defs>
      <path d="M 44.390625 34.1875 
Q 47.5625 33.109375 50.5625 29.59375 
Q 53.5625 26.078125 56.59375 19.921875 
L 66.609375 0 
L 56 0 
L 46.6875 18.703125 
Q 43.0625 26.03125 39.671875 28.421875 
Q 36.28125 30.8125 30.421875 30.8125 
L 19.671875 30.8125 
L 19.671875 0 
L 9.8125 0 
L 9.8125 72.90625 
L 32.078125 72.90625 
Q 44.578125 72.90625 50.734375 67.671875 
Q 56.890625 62.453125 56.890625 51.90625 
Q 56.890625 45.015625 53.6875 40.46875 
Q 50.484375 35.9375 44.390625 34.1875 
z
M 19.671875 64.796875 
L 19.671875 38.921875 
L 32.078125 38.921875 
Q 39.203125 38.921875 42.84375 42.21875 
Q 46.484375 45.515625 46.484375 51.90625 
Q 46.484375 58.296875 42.84375 61.546875 
Q 39.203125 64.796875 32.078125 64.796875 
z
" id="DejaVuSans-82"/>
      <path d="M 56.203125 29.59375 
L 56.203125 25.203125 
L 14.890625 25.203125 
Q 15.484375 15.921875 20.484375 11.0625 
Q 25.484375 6.203125 34.421875 6.203125 
Q 39.59375 6.203125 44.453125 7.46875 
Q 49.3125 8.734375 54.109375 11.28125 
L 54.109375 2.78125 
Q 49.265625 0.734375 44.1875 -0.34375 
Q 39.109375 -1.421875 33.890625 -1.421875 
Q 20.796875 -1.421875 13.15625 6.1875 
Q 5.515625 13.8125 5.515625 26.8125 
Q 5.515625 40.234375 12.765625 48.109375 
Q 20.015625 56 32.328125 56 
Q 43.359375 56 49.78125 48.890625 
Q 56.203125 41.796875 56.203125 29.59375 
z
M 47.21875 32.234375 
Q 47.125 39.59375 43.09375 43.984375 
Q 39.0625 48.390625 32.421875 48.390625 
Q 24.90625 48.390625 20.390625 44.140625 
Q 15.875 39.890625 15.1875 32.171875 
z
" id="DejaVuSans-101"/>
      <path d="M 44.28125 53.078125 
L 44.28125 44.578125 
Q 40.484375 46.53125 36.375 47.5 
Q 32.28125 48.484375 27.875 48.484375 
Q 21.1875 48.484375 17.84375 46.4375 
Q 14.5 44.390625 14.5 40.28125 
Q 14.5 37.15625 16.890625 35.375 
Q 19.28125 33.59375 26.515625 31.984375 
L 29.59375 31.296875 
Q 39.15625 29.25 43.1875 25.515625 
Q 47.21875 21.78125 47.21875 15.09375 
Q 47.21875 7.46875 41.1875 3.015625 
Q 35.15625 -1.421875 24.609375 -1.421875 
Q 20.21875 -1.421875 15.453125 -0.5625 
Q 10.6875 0.296875 5.421875 2 
L 5.421875 11.28125 
Q 10.40625 8.6875 15.234375 7.390625 
Q 20.0625 6.109375 24.8125 6.109375 
Q 31.15625 6.109375 34.5625 8.28125 
Q 37.984375 10.453125 37.984375 14.40625 
Q 37.984375 18.0625 35.515625 20.015625 
Q 33.0625 21.96875 24.703125 23.78125 
L 21.578125 24.515625 
Q 13.234375 26.265625 9.515625 29.90625 
Q 5.8125 33.546875 5.8125 39.890625 
Q 5.8125 47.609375 11.28125 51.796875 
Q 16.75 56 26.8125 56 
Q 31.78125 56 36.171875 55.265625 
Q 40.578125 54.546875 44.28125 53.078125 
z
" id="DejaVuSans-115"/>
      <path d="M 30.609375 48.390625 
Q 23.390625 48.390625 19.1875 42.75 
Q 14.984375 37.109375 14.984375 27.296875 
Q 14.984375 17.484375 19.15625 11.84375 
Q 23.34375 6.203125 30.609375 6.203125 
Q 37.796875 6.203125 41.984375 11.859375 
Q 46.1875 17.53125 46.1875 27.296875 
Q 46.1875 37.015625 41.984375 42.703125 
Q 37.796875 48.390625 30.609375 48.390625 
z
M 30.609375 56 
Q 42.328125 56 49.015625 48.375 
Q 55.71875 40.765625 55.71875 27.296875 
Q 55.71875 13.875 49.015625 6.21875 
Q 42.328125 -1.421875 30.609375 -1.421875 
Q 18.84375 -1.421875 12.171875 6.21875 
Q 5.515625 13.875 5.515625 27.296875 
Q 5.515625 40.765625 12.171875 48.375 
Q 18.84375 56 30.609375 56 
z
" id="DejaVuSans-111"/>
      <path d="M 9.421875 75.984375 
L 18.40625 75.984375 
L 18.40625 0 
L 9.421875 0 
z
" id="DejaVuSans-108"/>
      <path d="M 8.5 21.578125 
L 8.5 54.6875 
L 17.484375 54.6875 
L 17.484375 21.921875 
Q 17.484375 14.15625 20.5 10.265625 
Q 23.53125 6.390625 29.59375 6.390625 
Q 36.859375 6.390625 41.078125 11.03125 
Q 45.3125 15.671875 45.3125 23.6875 
L 45.3125 54.6875 
L 54.296875 54.6875 
L 54.296875 0 
L 45.3125 0 
L 45.3125 8.40625 
Q 42.046875 3.421875 37.71875 1 
Q 33.40625 -1.421875 27.6875 -1.421875 
Q 18.265625 -1.421875 13.375 4.4375 
Q 8.5 10.296875 8.5 21.578125 
z
M 31.109375 56 
z
" id="DejaVuSans-117"/>
      <path d="M 18.3125 70.21875 
L 18.3125 54.6875 
L 36.8125 54.6875 
L 36.8125 47.703125 
L 18.3125 47.703125 
L 18.3125 18.015625 
Q 18.3125 11.328125 20.140625 9.421875 
Q 21.96875 7.515625 27.59375 7.515625 
L 36.8125 7.515625 
L 36.8125 0 
L 27.59375 0 
Q 17.1875 0 13.234375 3.875 
Q 9.28125 7.765625 9.28125 18.015625 
L 9.28125 47.703125 
L 2.6875 47.703125 
L 2.6875 54.6875 
L 9.28125 54.6875 
L 9.28125 70.21875 
z
" id="DejaVuSans-116"/>
      <path d="M 9.421875 54.6875 
L 18.40625 54.6875 
L 18.40625 0 
L 9.421875 0 
z
M 9.421875 75.984375 
L 18.40625 75.984375 
L 18.40625 64.59375 
L 9.421875 64.59375 
z
" id="DejaVuSans-105"/>
      <path d="M 54.890625 33.015625 
L 54.890625 0 
L 45.90625 0 
L 45.90625 32.71875 
Q 45.90625 40.484375 42.875 44.328125 
Q 39.84375 48.1875 33.796875 48.1875 
Q 26.515625 48.1875 22.3125 43.546875 
Q 18.109375 38.921875 18.109375 30.90625 
L 18.109375 0 
L 9.078125 0 
L 9.078125 54.6875 
L 18.109375 54.6875 
L 18.109375 46.1875 
Q 21.34375 51.125 25.703125 53.5625 
Q 30.078125 56 35.796875 56 
Q 45.21875 56 50.046875 50.171875 
Q 54.890625 44.34375 54.890625 33.015625 
z
" id="DejaVuSans-110"/>
     </defs>
     <g transform="translate(231.585438 255.185031)scale(0.11 -0.11)">
      <use xlink:href="#DejaVuSans-82"/>
      <use x="69.419922" xlink:href="#DejaVuSans-101"/>
      <use x="130.943359" xlink:href="#DejaVuSans-115"/>
      <use x="183.042969" xlink:href="#DejaVuSans-111"/>
      <use x="244.224609" xlink:href="#DejaVuSans-108"/>
      <use x="272.007812" xlink:href="#DejaVuSans-117"/>
      <use x="335.386719" xlink:href="#DejaVuSans-116"/>
      <use x="374.595703" xlink:href="#DejaVuSans-105"/>
      <use x="402.378906" xlink:href="#DejaVuSans-111"/>
      <use x="463.560547" xlink:href="#DejaVuSans-110"/>
     </g>
    </g>
   </g>
   <g id="matplotlib.axis_2">
    <g id="ytick_1">
     <g id="line2d_15">
      <path clip-path="url(#pff5511552d)" d="M 44.567 218.88 
L 490.967 218.88 
" style="fill:none;stroke:#e5e5e5;stroke-width:0.8;"/>
     </g>
     <g id="line2d_16">
      <path d="M 44.567 218.88 
" style="fill:none;stroke:#000000;stroke-width:1.5;"/>
      <defs>
       <path d="M 0 0 
L -2.75 0 
" id="me7ba5fe6b8" style="stroke:#000000;"/>
      </defs>
      <g>
       <use style="stroke:#000000;" x="44.567" xlink:href="#me7ba5fe6b8" y="218.88"/>
      </g>
     </g>
     <g id="text_6">
      <!-- 0 -->
      <defs>
       <path d="M 31.78125 66.40625 
Q 24.171875 66.40625 20.328125 58.90625 
Q 16.5 51.421875 16.5 36.375 
Q 16.5 21.390625 20.328125 13.890625 
Q 24.171875 6.390625 31.78125 6.390625 
Q 39.453125 6.390625 43.28125 13.890625 
Q 47.125 21.390625 47.125 36.375 
Q 47.125 51.421875 43.28125 58.90625 
Q 39.453125 66.40625 31.78125 66.40625 
z
M 31.78125 74.21875 
Q 44.046875 74.21875 50.515625 64.515625 
Q 56.984375 54.828125 56.984375 36.375 
Q 56.984375 17.96875 50.515625 8.265625 
Q 44.046875 -1.421875 31.78125 -1.421875 
Q 19.53125 -1.421875 13.0625 8.265625 
Q 6.59375 17.96875 6.59375 36.375 
Q 6.59375 54.828125 13.0625 64.515625 
Q 19.53125 74.21875 31.78125 74.21875 
z
" id="DejaVuSans-48"/>
      </defs>
      <g transform="translate(34.018 221.30825)scale(0.088 -0.088)">
       <use xlink:href="#DejaVuSans-48"/>
      </g>
     </g>
    </g>
    <g id="ytick_2">
     <g id="line2d_17">
      <path clip-path="url(#pff5511552d)" d="M 44.567 168.48 
L 490.967 168.48 
" style="fill:none;stroke:#e5e5e5;stroke-width:0.8;"/>
     </g>
     <g id="line2d_18">
      <path d="M 44.567 168.48 
" style="fill:none;stroke:#000000;stroke-width:1.5;"/>
      <g>
       <use style="stroke:#000000;" x="44.567" xlink:href="#me7ba5fe6b8" y="168.48"/>
      </g>
     </g>
     <g id="text_7">
      <!-- 25 -->
      <defs>
       <path d="M 10.796875 72.90625 
L 49.515625 72.90625 
L 49.515625 64.59375 
L 19.828125 64.59375 
L 19.828125 46.734375 
Q 21.96875 47.46875 24.109375 47.828125 
Q 26.265625 48.1875 28.421875 48.1875 
Q 40.625 48.1875 47.75 41.5 
Q 54.890625 34.8125 54.890625 23.390625 
Q 54.890625 11.625 47.5625 5.09375 
Q 40.234375 -1.421875 26.90625 -1.421875 
Q 22.3125 -1.421875 17.546875 -0.640625 
Q 12.796875 0.140625 7.71875 1.703125 
L 7.71875 11.625 
Q 12.109375 9.234375 16.796875 8.0625 
Q 21.484375 6.890625 26.703125 6.890625 
Q 35.15625 6.890625 40.078125 11.328125 
Q 45.015625 15.765625 45.015625 23.390625 
Q 45.015625 31 40.078125 35.4375 
Q 35.15625 39.890625 26.703125 39.890625 
Q 22.75 39.890625 18.8125 39.015625 
Q 14.890625 38.140625 10.796875 36.28125 
z
" id="DejaVuSans-53"/>
      </defs>
      <g transform="translate(28.419 170.90825)scale(0.088 -0.088)">
       <use xlink:href="#DejaVuSans-50"/>
       <use x="63.623047" xlink:href="#DejaVuSans-53"/>
      </g>
     </g>
    </g>
    <g id="ytick_3">
     <g id="line2d_19">
      <path clip-path="url(#pff5511552d)" d="M 44.567 118.08 
L 490.967 118.08 
" style="fill:none;stroke:#e5e5e5;stroke-width:0.8;"/>
     </g>
     <g id="line2d_20">
      <path d="M 44.567 118.08 
" style="fill:none;stroke:#000000;stroke-width:1.5;"/>
      <g>
       <use style="stroke:#000000;" x="44.567" xlink:href="#me7ba5fe6b8" y="118.08"/>
      </g>
     </g>
     <g id="text_8">
      <!-- 50 -->
      <g transform="translate(28.419 120.50825)scale(0.088 -0.088)">
       <use xlink:href="#DejaVuSans-53"/>
       <use x="63.623047" xlink:href="#DejaVuSans-48"/>
      </g>
     </g>
    </g>
    <g id="ytick_4">
     <g id="line2d_21">
      <path clip-path="url(#pff5511552d)" d="M 44.567 67.68 
L 490.967 67.68 
" style="fill:none;stroke:#e5e5e5;stroke-width:0.8;"/>
     </g>
     <g id="line2d_22">
      <path d="M 44.567 67.68 
" style="fill:none;stroke:#000000;stroke-width:1.5;"/>
      <g>
       <use style="stroke:#000000;" x="44.567" xlink:href="#me7ba5fe6b8" y="67.68"/>
      </g>
     </g>
     <g id="text_9">
      <!-- 75 -->
      <defs>
       <path d="M 8.203125 72.90625 
L 55.078125 72.90625 
L 55.078125 68.703125 
L 28.609375 0 
L 18.3125 0 
L 43.21875 64.59375 
L 8.203125 64.59375 
z
" id="DejaVuSans-55"/>
      </defs>
      <g transform="translate(28.419 70.10825)scale(0.088 -0.088)">
       <use xlink:href="#DejaVuSans-55"/>
       <use x="63.623047" xlink:href="#DejaVuSans-53"/>
      </g>
     </g>
    </g>
    <g id="ytick_5">
     <g id="line2d_23">
      <path clip-path="url(#pff5511552d)" d="M 44.567 17.28 
L 490.967 17.28 
" style="fill:none;stroke:#e5e5e5;stroke-width:0.8;"/>
     </g>
     <g id="line2d_24">
      <path d="M 44.567 17.28 
" style="fill:none;stroke:#000000;stroke-width:1.5;"/>
      <g>
       <use style="stroke:#000000;" x="44.567" xlink:href="#me7ba5fe6b8" y="17.28"/>
      </g>
     </g>
     <g id="text_10">
      <!-- 100 -->
      <g transform="translate(22.82 19.70825)scale(0.088 -0.088)">
       <use xlink:href="#DejaVuSans-49"/>
       <use x="63.623047" xlink:href="#DejaVuSans-48"/>
       <use x="127.246094" xlink:href="#DejaVuSans-48"/>
      </g>
     </g>
    </g>
    <g id="ytick_6">
     <g id="line2d_25">
      <path clip-path="url(#pff5511552d)" d="M 44.567 193.68 
L 490.967 193.68 
" style="fill:none;stroke:#fafafa;"/>
     </g>
     <g id="line2d_26">
      <path d="M 44.567 193.68 
" style="fill:none;stroke:#000000;stroke-width:1.5;"/>
      <defs>
       <path d="M 0 0 
L -1.375 0 
" id="mf53ed02b86" style="stroke:#000000;"/>
      </defs>
      <g>
       <use style="stroke:#000000;" x="44.567" xlink:href="#mf53ed02b86" y="193.68"/>
      </g>
     </g>
    </g>
    <g id="ytick_7">
     <g id="line2d_27">
      <path clip-path="url(#pff5511552d)" d="M 44.567 143.28 
L 490.967 143.28 
" style="fill:none;stroke:#fafafa;"/>
     </g>
     <g id="line2d_28">
      <path d="M 44.567 143.28 
" style="fill:none;stroke:#000000;stroke-width:1.5;"/>
      <g>
       <use style="stroke:#000000;" x="44.567" xlink:href="#mf53ed02b86" y="143.28"/>
      </g>
     </g>
    </g>
    <g id="ytick_8">
     <g id="line2d_29">
      <path clip-path="url(#pff5511552d)" d="M 44.567 92.88 
L 490.967 92.88 
" style="fill:none;stroke:#fafafa;"/>
     </g>
     <g id="line2d_30">
      <path d="M 44.567 92.88 
" style="fill:none;stroke:#000000;stroke-width:1.5;"/>
      <g>
       <use style="stroke:#000000;" x="44.567" xlink:href="#mf53ed02b86" y="92.88"/>
      </g>
     </g>
    </g>
    <g id="ytick_9">
     <g id="line2d_31">
      <path clip-path="url(#pff5511552d)" d="M 44.567 42.48 
L 490.967 42.48 
" style="fill:none;stroke:#fafafa;"/>
     </g>
     <g id="line2d_32">
      <path d="M 44.567 42.48 
" style="fill:none;stroke:#000000;stroke-width:1.5;"/>
      <g>
       <use style="stroke:#000000;" x="44.567" xlink:href="#mf53ed02b86" y="42.48"/>
      </g>
     </g>
    </g>
    <g id="text_11">
     <!-- $P_{Q1n}$ [%] -->
     <defs>
      <path d="M 16.890625 72.90625 
L 39.703125 72.90625 
Q 49.65625 72.90625 54.875 68.265625 
Q 60.109375 63.625 60.109375 54.6875 
Q 60.109375 42.671875 52.390625 35.984375 
Q 44.671875 29.296875 30.71875 29.296875 
L 18.3125 29.296875 
L 12.59375 0 
L 2.6875 0 
z
M 25.203125 64.796875 
L 19.921875 37.40625 
L 32.328125 37.40625 
Q 40.71875 37.40625 45.203125 41.703125 
Q 49.703125 46 49.703125 54 
Q 49.703125 59.125 46.65625 61.953125 
Q 43.609375 64.796875 38.09375 64.796875 
z
" id="DejaVuSans-Oblique-80"/>
      <path d="M 36.078125 -1.3125 
Q 35.546875 -1.375 34.953125 -1.390625 
Q 34.375 -1.421875 33.203125 -1.421875 
Q 19.53125 -1.421875 11.8125 6.421875 
Q 4.109375 14.265625 4.109375 28.078125 
Q 4.109375 36.234375 7.0625 44.4375 
Q 10.015625 52.640625 15.28125 59.1875 
Q 21.390625 66.703125 29.03125 70.453125 
Q 36.671875 74.21875 45.90625 74.21875 
Q 59.28125 74.21875 66.984375 66.328125 
Q 74.703125 58.453125 74.703125 44.828125 
Q 74.703125 30.125 66.640625 17.921875 
Q 58.59375 5.71875 45.609375 0.6875 
L 55.515625 -12.890625 
L 44.484375 -12.890625 
z
M 45.609375 66.21875 
Q 37.5 66.21875 31.296875 62.28125 
Q 25.09375 58.34375 20.515625 50.296875 
Q 17.578125 45.171875 16.03125 39.40625 
Q 14.5 33.640625 14.5 27.78125 
Q 14.5 17.625 19.359375 12.109375 
Q 24.21875 6.59375 33.109375 6.59375 
Q 41.109375 6.59375 47.375 10.5625 
Q 53.65625 14.546875 58.109375 22.40625 
Q 61.078125 27.6875 62.640625 33.46875 
Q 64.203125 39.265625 64.203125 45.015625 
Q 64.203125 55.125 59.3125 60.671875 
Q 54.4375 66.21875 45.609375 66.21875 
z
" id="DejaVuSans-Oblique-81"/>
      <path d="M 55.71875 33.015625 
L 49.3125 0 
L 40.28125 0 
L 46.6875 32.671875 
Q 47.125 34.96875 47.359375 36.71875 
Q 47.609375 38.484375 47.609375 39.5 
Q 47.609375 43.609375 45.015625 45.890625 
Q 42.4375 48.1875 37.796875 48.1875 
Q 30.5625 48.1875 25.34375 43.375 
Q 20.125 38.578125 18.5 30.328125 
L 12.5 0 
L 3.515625 0 
L 14.109375 54.6875 
L 23.09375 54.6875 
L 21.296875 46.09375 
Q 25.046875 50.828125 30.3125 53.40625 
Q 35.59375 56 41.40625 56 
Q 48.640625 56 52.609375 52.09375 
Q 56.59375 48.1875 56.59375 41.109375 
Q 56.59375 39.359375 56.375 37.359375 
Q 56.15625 35.359375 55.71875 33.015625 
z
" id="DejaVuSans-Oblique-110"/>
      <path id="DejaVuSans-32"/>
      <path d="M 8.59375 75.984375 
L 29.296875 75.984375 
L 29.296875 69 
L 17.578125 69 
L 17.578125 -6.203125 
L 29.296875 -6.203125 
L 29.296875 -13.1875 
L 8.59375 -13.1875 
z
" id="DejaVuSans-91"/>
      <path d="M 72.703125 32.078125 
Q 68.453125 32.078125 66.03125 28.46875 
Q 63.625 24.859375 63.625 18.40625 
Q 63.625 12.0625 66.03125 8.421875 
Q 68.453125 4.78125 72.703125 4.78125 
Q 76.859375 4.78125 79.265625 8.421875 
Q 81.6875 12.0625 81.6875 18.40625 
Q 81.6875 24.8125 79.265625 28.4375 
Q 76.859375 32.078125 72.703125 32.078125 
z
M 72.703125 38.28125 
Q 80.421875 38.28125 84.953125 32.90625 
Q 89.5 27.546875 89.5 18.40625 
Q 89.5 9.28125 84.9375 3.921875 
Q 80.375 -1.421875 72.703125 -1.421875 
Q 64.890625 -1.421875 60.34375 3.921875 
Q 55.8125 9.28125 55.8125 18.40625 
Q 55.8125 27.59375 60.375 32.9375 
Q 64.9375 38.28125 72.703125 38.28125 
z
M 22.3125 68.015625 
Q 18.109375 68.015625 15.6875 64.375 
Q 13.28125 60.75 13.28125 54.390625 
Q 13.28125 47.953125 15.671875 44.328125 
Q 18.0625 40.71875 22.3125 40.71875 
Q 26.5625 40.71875 28.96875 44.328125 
Q 31.390625 47.953125 31.390625 54.390625 
Q 31.390625 60.6875 28.953125 64.34375 
Q 26.515625 68.015625 22.3125 68.015625 
z
M 66.40625 74.21875 
L 74.21875 74.21875 
L 28.609375 -1.421875 
L 20.796875 -1.421875 
z
M 22.3125 74.21875 
Q 30.03125 74.21875 34.609375 68.875 
Q 39.203125 63.53125 39.203125 54.390625 
Q 39.203125 45.171875 34.640625 39.84375 
Q 30.078125 34.515625 22.3125 34.515625 
Q 14.546875 34.515625 10.03125 39.859375 
Q 5.515625 45.21875 5.515625 54.390625 
Q 5.515625 63.484375 10.046875 68.84375 
Q 14.59375 74.21875 22.3125 74.21875 
z
" id="DejaVuSans-37"/>
      <path d="M 30.421875 75.984375 
L 30.421875 -13.1875 
L 9.71875 -13.1875 
L 9.71875 -6.203125 
L 21.390625 -6.203125 
L 21.390625 69 
L 9.71875 69 
L 9.71875 75.984375 
z
" id="DejaVuSans-93"/>
     </defs>
     <g transform="translate(15.56 139.3)rotate(-90)scale(0.11 -0.11)">
      <use transform="translate(0 0.015625)" xlink:href="#DejaVuSans-Oblique-80"/>
      <use transform="translate(60.302734 -16.390625)scale(0.7)" xlink:href="#DejaVuSans-Oblique-81"/>
      <use transform="translate(115.400391 -16.390625)scale(0.7)" xlink:href="#DejaVuSans-49"/>
      <use transform="translate(159.936523 -16.390625)scale(0.7)" xlink:href="#DejaVuSans-Oblique-110"/>
      <use transform="translate(207.036133 0.015625)" xlink:href="#DejaVuSans-32"/>
      <use transform="translate(238.823242 0.015625)" xlink:href="#DejaVuSans-91"/>
      <use transform="translate(277.836914 0.015625)" xlink:href="#DejaVuSans-37"/>
      <use transform="translate(372.856445 0.015625)" xlink:href="#DejaVuSans-93"/>
     </g>
    </g>
   </g>
   <g id="PathCollection_1">
    <path clip-path="url(#pff5511552d)" d="M 64.857909 74.97846 
C 65.327969 74.97846 65.77884 74.791704 66.111223 74.459321 
C 66.443606 74.126938 66.630363 73.676067 66.630363 73.206007 
C 66.630363 72.735946 66.443606 72.285075 66.111223 71.952692 
C 65.77884 71.62031 65.327969 71.433553 64.857909 71.433553 
C 64.387849 71.433553 63.936978 71.62031 63.604595 71.952692 
C 63.272212 72.285075 63.085455 72.735946 63.085455 73.206007 
C 63.085455 73.676067 63.272212 74.126938 63.604595 74.459321 
C 63.936978 74.791704 64.387849 74.97846 64.857909 74.97846 
z
" style="stroke:#000000;stroke-width:0.886227;"/>
    <path clip-path="url(#pff5511552d)" d="M 78.385182 76.736924 
C 78.855242 76.736924 79.306113 76.550167 79.638496 76.217784 
C 79.970879 75.885401 80.157636 75.43453 80.157636 74.96447 
C 80.157636 74.49441 79.970879 74.043539 79.638496 73.711156 
C 79.306113 73.378773 78.855242 73.192016 78.385182 73.192016 
C 77.915122 73.192016 77.46425 73.378773 77.131868 73.711156 
C 76.799485 74.043539 76.612728 74.49441 76.612728 74.96447 
C 76.612728 75.43453 76.799485 75.885401 77.131868 76.217784 
C 77.46425 76.550167 77.915122 76.736924 78.385182 76.736924 
z
" style="stroke:#000000;stroke-width:0.886227;"/>
    <path clip-path="url(#pff5511552d)" d="M 91.912455 73.009964 
C 92.382515 73.009964 92.833386 72.823207 93.165769 72.490824 
C 93.498151 72.158441 93.684908 71.70757 93.684908 71.23751 
C 93.684908 70.76745 93.498151 70.316579 93.165769 69.984196 
C 92.833386 69.651813 92.382515 69.465056 91.912455 69.465056 
C 91.442394 69.465056 90.991523 69.651813 90.65914 69.984196 
C 90.326758 70.316579 90.140001 70.76745 90.140001 71.23751 
C 90.140001 71.70757 90.326758 72.158441 90.65914 72.490824 
C 90.991523 72.823207 91.442394 73.009964 91.912455 73.009964 
z
" style="stroke:#000000;stroke-width:0.886227;"/>
    <path clip-path="url(#pff5511552d)" d="M 105.439727 72.417951 
C 105.909788 72.417951 106.360659 72.231194 106.693041 71.898811 
C 107.025424 71.566428 107.212181 71.115557 107.212181 70.645497 
C 107.212181 70.175437 107.025424 69.724566 106.693041 69.392183 
C 106.360659 69.0598 105.909788 68.873043 105.439727 68.873043 
C 104.969667 68.873043 104.518796 69.0598 104.186413 69.392183 
C 103.85403 69.724566 103.667273 70.175437 103.667273 70.645497 
C 103.667273 71.115557 103.85403 71.566428 104.186413 71.898811 
C 104.518796 72.231194 104.969667 72.417951 105.439727 72.417951 
z
" style="stroke:#000000;stroke-width:0.886227;"/>
    <path clip-path="url(#pff5511552d)" d="M 118.967 70.590362 
C 119.43706 70.590362 119.887931 70.403606 120.220314 70.071223 
C 120.552697 69.73884 120.739454 69.287969 120.739454 68.817909 
C 120.739454 68.347848 120.552697 67.896977 120.220314 67.564594 
C 119.887931 67.232212 119.43706 67.045455 118.967 67.045455 
C 118.49694 67.045455 118.046069 67.232212 117.713686 67.564594 
C 117.381303 67.896977 117.194546 68.347848 117.194546 68.817909 
C 117.194546 69.287969 117.381303 69.73884 117.713686 70.071223 
C 118.046069 70.403606 118.49694 70.590362 118.967 70.590362 
z
" style="stroke:#000000;stroke-width:0.886227;"/>
    <path clip-path="url(#pff5511552d)" d="M 132.494273 76.734874 
C 132.964333 76.734874 133.415204 76.548117 133.747587 76.215734 
C 134.07997 75.883352 134.266727 75.43248 134.266727 74.96242 
C 134.266727 74.49236 134.07997 74.041489 133.747587 73.709106 
C 133.415204 73.376723 132.964333 73.189966 132.494273 73.189966 
C 132.024212 73.189966 131.573341 73.376723 131.240959 73.709106 
C 130.908576 74.041489 130.721819 74.49236 130.721819 74.96242 
C 130.721819 75.43248 130.908576 75.883352 131.240959 76.215734 
C 131.573341 76.548117 132.024212 76.734874 132.494273 76.734874 
z
" style="stroke:#000000;stroke-width:0.886227;"/>
    <path clip-path="url(#pff5511552d)" d="M 146.021545 87.230306 
C 146.491606 87.230306 146.942477 87.043549 147.27486 86.711166 
C 147.607242 86.378783 147.793999 85.927912 147.793999 85.457852 
C 147.793999 84.987792 147.607242 84.536921 147.27486 84.204538 
C 146.942477 83.872155 146.491606 83.685398 146.021545 83.685398 
C 145.551485 83.685398 145.100614 83.872155 144.768231 84.204538 
C 144.435849 84.536921 144.249092 84.987792 144.249092 85.457852 
C 144.249092 85.927912 144.435849 86.378783 144.768231 86.711166 
C 145.100614 87.043549 145.551485 87.230306 146.021545 87.230306 
z
" style="stroke:#000000;stroke-width:0.886227;"/>
    <path clip-path="url(#pff5511552d)" d="M 159.548818 99.209295 
C 160.018878 99.209295 160.46975 99.022538 160.802132 98.690155 
C 161.134515 98.357772 161.321272 97.906901 161.321272 97.436841 
C 161.321272 96.966781 161.134515 96.51591 160.802132 96.183527 
C 160.46975 95.851144 160.018878 95.664387 159.548818 95.664387 
C 159.078758 95.664387 158.627887 95.851144 158.295504 96.183527 
C 157.963121 96.51591 157.776364 96.966781 157.776364 97.436841 
C 157.776364 97.906901 157.963121 98.357772 158.295504 98.690155 
C 158.627887 99.022538 159.078758 99.209295 159.548818 99.209295 
z
" style="stroke:#000000;stroke-width:0.886227;"/>
    <path clip-path="url(#pff5511552d)" d="M 173.076091 108.818891 
C 173.546151 108.818891 173.997022 108.632134 174.329405 108.299752 
C 174.661788 107.967369 174.848545 107.516498 174.848545 107.046437 
C 174.848545 106.576377 174.661788 106.125506 174.329405 105.793123 
C 173.997022 105.46074 173.546151 105.273984 173.076091 105.273984 
C 172.606031 105.273984 172.15516 105.46074 171.822777 105.793123 
C 171.490394 106.125506 171.303637 106.576377 171.303637 107.046437 
C 171.303637 107.516498 171.490394 107.967369 171.822777 108.299752 
C 172.15516 108.632134 172.606031 108.818891 173.076091 108.818891 
z
" style="stroke:#000000;stroke-width:0.886227;"/>
    <path clip-path="url(#pff5511552d)" d="M 186.603364 116.866046 
C 187.073424 116.866046 187.524295 116.67929 187.856678 116.346907 
C 188.189061 116.014524 188.375817 115.563653 188.375817 115.093593 
C 188.375817 114.623532 188.189061 114.172661 187.856678 113.840278 
C 187.524295 113.507896 187.073424 113.321139 186.603364 113.321139 
C 186.133303 113.321139 185.682432 113.507896 185.350049 113.840278 
C 185.017667 114.172661 184.83091 114.623532 184.83091 115.093593 
C 184.83091 115.563653 185.017667 116.014524 185.350049 116.346907 
C 185.682432 116.67929 186.133303 116.866046 186.603364 116.866046 
z
" style="stroke:#000000;stroke-width:0.886227;"/>
    <path clip-path="url(#pff5511552d)" d="M 200.130636 133.302151 
C 200.600697 133.302151 201.051568 133.115394 201.383951 132.783011 
C 201.716333 132.450628 201.90309 131.999757 201.90309 131.529697 
C 201.90309 131.059637 201.716333 130.608766 201.383951 130.276383 
C 201.051568 129.944 200.600697 129.757243 200.130636 129.757243 
C 199.660576 129.757243 199.209705 129.944 198.877322 130.276383 
C 198.544939 130.608766 198.358183 131.059637 198.358183 131.529697 
C 198.358183 131.999757 198.544939 132.450628 198.877322 132.783011 
C 199.209705 133.115394 199.660576 133.302151 200.130636 133.302151 
z
" style="stroke:#000000;stroke-width:0.886227;"/>
    <path clip-path="url(#pff5511552d)" d="M 213.657909 124.421223 
C 214.127969 124.421223 214.57884 124.234466 214.911223 123.902083 
C 215.243606 123.5697 215.430363 123.118829 215.430363 122.648769 
C 215.430363 122.178709 215.243606 121.727838 214.911223 121.395455 
C 214.57884 121.063072 214.127969 120.876315 213.657909 120.876315 
C 213.187849 120.876315 212.736978 121.063072 212.404595 121.395455 
C 212.072212 121.727838 211.885455 122.178709 211.885455 122.648769 
C 211.885455 123.118829 212.072212 123.5697 212.404595 123.902083 
C 212.736978 124.234466 213.187849 124.421223 213.657909 124.421223 
z
" style="stroke:#000000;stroke-width:0.886227;"/>
    <path clip-path="url(#pff5511552d)" d="M 227.185182 131.891652 
C 227.655242 131.891652 228.106113 131.704895 228.438496 131.372512 
C 228.770879 131.040129 228.957636 130.589258 228.957636 130.119198 
C 228.957636 129.649138 228.770879 129.198267 228.438496 128.865884 
C 228.106113 128.533501 227.655242 128.346744 227.185182 128.346744 
C 226.715122 128.346744 226.26425 128.533501 225.931868 128.865884 
C 225.599485 129.198267 225.412728 129.649138 225.412728 130.119198 
C 225.412728 130.589258 225.599485 131.040129 225.931868 131.372512 
C 226.26425 131.704895 226.715122 131.891652 227.185182 131.891652 
z
" style="stroke:#000000;stroke-width:0.886227;"/>
    <path clip-path="url(#pff5511552d)" d="M 240.712455 131.721166 
C 241.182515 131.721166 241.633386 131.534409 241.965769 131.202027 
C 242.298151 130.869644 242.484908 130.418773 242.484908 129.948712 
C 242.484908 129.478652 242.298151 129.027781 241.965769 128.695398 
C 241.633386 128.363016 241.182515 128.176259 240.712455 128.176259 
C 240.242394 128.176259 239.791523 128.363016 239.45914 128.695398 
C 239.126758 129.027781 238.940001 129.478652 238.940001 129.948712 
C 238.940001 130.418773 239.126758 130.869644 239.45914 131.202027 
C 239.791523 131.534409 240.242394 131.721166 240.712455 131.721166 
z
" style="stroke:#000000;stroke-width:0.886227;"/>
    <path clip-path="url(#pff5511552d)" d="M 254.239727 149.241368 
C 254.709788 149.241368 255.160659 149.054611 255.493041 148.722228 
C 255.825424 148.389846 256.012181 147.938975 256.012181 147.468914 
C 256.012181 146.998854 255.825424 146.547983 255.493041 146.2156 
C 255.160659 145.883217 254.709788 145.69646 254.239727 145.69646 
C 253.769667 145.69646 253.318796 145.883217 252.986413 146.2156 
C 252.65403 146.547983 252.467273 146.998854 252.467273 147.468914 
C 252.467273 147.938975 252.65403 148.389846 252.986413 148.722228 
C 253.318796 149.054611 253.769667 149.241368 254.239727 149.241368 
z
" style="stroke:#000000;stroke-width:0.886227;"/>
    <path clip-path="url(#pff5511552d)" d="M 267.767 155.183499 
C 268.23706 155.183499 268.687931 154.996742 269.020314 154.664359 
C 269.352697 154.331976 269.539454 153.881105 269.539454 153.411045 
C 269.539454 152.940985 269.352697 152.490114 269.020314 152.157731 
C 268.687931 151.825348 268.23706 151.638591 267.767 151.638591 
C 267.29694 151.638591 266.846069 151.825348 266.513686 152.157731 
C 266.181303 152.490114 265.994546 152.940985 265.994546 153.411045 
C 265.994546 153.881105 266.181303 154.331976 266.513686 154.664359 
C 266.846069 154.996742 267.29694 155.183499 267.767 155.183499 
z
" style="stroke:#000000;stroke-width:0.886227;"/>
    <path clip-path="url(#pff5511552d)" d="M 281.294273 140.716587 
C 281.764333 140.716587 282.215204 140.52983 282.547587 140.197447 
C 282.87997 139.865064 283.066727 139.414193 283.066727 138.944133 
C 283.066727 138.474073 282.87997 138.023202 282.547587 137.690819 
C 282.215204 137.358436 281.764333 137.171679 281.294273 137.171679 
C 280.824212 137.171679 280.373341 137.358436 280.040959 137.690819 
C 279.708576 138.023202 279.521819 138.474073 279.521819 138.944133 
C 279.521819 139.414193 279.708576 139.865064 280.040959 140.197447 
C 280.373341 140.52983 280.824212 140.716587 281.294273 140.716587 
z
" style="stroke:#000000;stroke-width:0.886227;"/>
    <path clip-path="url(#pff5511552d)" d="M 294.821545 155.090309 
C 295.291606 155.090309 295.742477 154.903552 296.07486 154.571169 
C 296.407242 154.238786 296.593999 153.787915 296.593999 153.317855 
C 296.593999 152.847794 296.407242 152.396923 296.07486 152.064541 
C 295.742477 151.732158 295.291606 151.545401 294.821545 151.545401 
C 294.351485 151.545401 293.900614 151.732158 293.568231 152.064541 
C 293.235849 152.396923 293.049092 152.847794 293.049092 153.317855 
C 293.049092 153.787915 293.235849 154.238786 293.568231 154.571169 
C 293.900614 154.903552 294.351485 155.090309 294.821545 155.090309 
z
" style="stroke:#000000;stroke-width:0.886227;"/>
    <path clip-path="url(#pff5511552d)" d="M 308.348818 145.672675 
C 308.818878 145.672675 309.26975 145.485918 309.602132 145.153536 
C 309.934515 144.821153 310.121272 144.370282 310.121272 143.900221 
C 310.121272 143.430161 309.934515 142.97929 309.602132 142.646907 
C 309.26975 142.314525 308.818878 142.127768 308.348818 142.127768 
C 307.878758 142.127768 307.427887 142.314525 307.095504 142.646907 
C 306.763121 142.97929 306.576364 143.430161 306.576364 143.900221 
C 306.576364 144.370282 306.763121 144.821153 307.095504 145.153536 
C 307.427887 145.485918 307.878758 145.672675 308.348818 145.672675 
z
" style="stroke:#000000;stroke-width:0.886227;"/>
    <path clip-path="url(#pff5511552d)" d="M 321.876091 148.969465 
C 322.346151 148.969465 322.797022 148.782708 323.129405 148.450325 
C 323.461788 148.117943 323.648545 147.667072 323.648545 147.197011 
C 323.648545 146.726951 323.461788 146.27608 323.129405 145.943697 
C 322.797022 145.611314 322.346151 145.424557 321.876091 145.424557 
C 321.406031 145.424557 320.95516 145.611314 320.622777 145.943697 
C 320.290394 146.27608 320.103637 146.726951 320.103637 147.197011 
C 320.103637 147.667072 320.290394 148.117943 320.622777 148.450325 
C 320.95516 148.782708 321.406031 148.969465 321.876091 148.969465 
z
" style="stroke:#000000;stroke-width:0.886227;"/>
    <path clip-path="url(#pff5511552d)" d="M 335.403364 139.865754 
C 335.873424 139.865754 336.324295 139.678997 336.656678 139.346614 
C 336.989061 139.014231 337.175817 138.56336 337.175817 138.0933 
C 337.175817 137.62324 336.989061 137.172369 336.656678 136.839986 
C 336.324295 136.507603 335.873424 136.320846 335.403364 136.320846 
C 334.933303 136.320846 334.482432 136.507603 334.150049 136.839986 
C 333.817667 137.172369 333.63091 137.62324 333.63091 138.0933 
C 333.63091 138.56336 333.817667 139.014231 334.150049 139.346614 
C 334.482432 139.678997 334.933303 139.865754 335.403364 139.865754 
z
" style="stroke:#000000;stroke-width:0.886227;"/>
    <path clip-path="url(#pff5511552d)" d="M 348.930636 156.423835 
C 349.400697 156.423835 349.851568 156.237078 350.183951 155.904695 
C 350.516333 155.572312 350.70309 155.121441 350.70309 154.651381 
C 350.70309 154.181321 350.516333 153.73045 350.183951 153.398067 
C 349.851568 153.065684 349.400697 152.878927 348.930636 152.878927 
C 348.460576 152.878927 348.009705 153.065684 347.677322 153.398067 
C 347.344939 153.73045 347.158183 154.181321 347.158183 154.651381 
C 347.158183 155.121441 347.344939 155.572312 347.677322 155.904695 
C 348.009705 156.237078 348.460576 156.423835 348.930636 156.423835 
z
" style="stroke:#000000;stroke-width:0.886227;"/>
    <path clip-path="url(#pff5511552d)" d="M 362.457909 156.621927 
C 362.927969 156.621927 363.37884 156.43517 363.711223 156.102787 
C 364.043606 155.770404 364.230363 155.319533 364.230363 154.849473 
C 364.230363 154.379413 364.043606 153.928542 363.711223 153.596159 
C 363.37884 153.263776 362.927969 153.077019 362.457909 153.077019 
C 361.987849 153.077019 361.536978 153.263776 361.204595 153.596159 
C 360.872212 153.928542 360.685455 154.379413 360.685455 154.849473 
C 360.685455 155.319533 360.872212 155.770404 361.204595 156.102787 
C 361.536978 156.43517 361.987849 156.621927 362.457909 156.621927 
z
" style="stroke:#000000;stroke-width:0.886227;"/>
    <path clip-path="url(#pff5511552d)" d="M 375.985182 173.114562 
C 376.455242 173.114562 376.906113 172.927805 377.238496 172.595422 
C 377.570879 172.263039 377.757636 171.812168 377.757636 171.342108 
C 377.757636 170.872048 377.570879 170.421177 377.238496 170.088794 
C 376.906113 169.756411 376.455242 169.569654 375.985182 169.569654 
C 375.515122 169.569654 375.06425 169.756411 374.731868 170.088794 
C 374.399485 170.421177 374.212728 170.872048 374.212728 171.342108 
C 374.212728 171.812168 374.399485 172.263039 374.731868 172.595422 
C 375.06425 172.927805 375.515122 173.114562 375.985182 173.114562 
z
" style="stroke:#000000;stroke-width:0.886227;"/>
    <path clip-path="url(#pff5511552d)" d="M 389.512455 169.238978 
C 389.982515 169.238978 390.433386 169.052221 390.765769 168.719838 
C 391.098151 168.387456 391.284908 167.936585 391.284908 167.466524 
C 391.284908 166.996464 391.098151 166.545593 390.765769 166.21321 
C 390.433386 165.880827 389.982515 165.69407 389.512455 165.69407 
C 389.042394 165.69407 388.591523 165.880827 388.25914 166.21321 
C 387.926758 166.545593 387.740001 166.996464 387.740001 167.466524 
C 387.740001 167.936585 387.926758 168.387456 388.25914 168.719838 
C 388.591523 169.052221 389.042394 169.238978 389.512455 169.238978 
z
" style="stroke:#000000;stroke-width:0.886227;"/>
    <path clip-path="url(#pff5511552d)" d="M 403.039727 157.509559 
C 403.509788 157.509559 403.960659 157.322802 404.293041 156.990419 
C 404.625424 156.658036 404.812181 156.207165 404.812181 155.737105 
C 404.812181 155.267044 404.625424 154.816173 404.293041 154.483791 
C 403.960659 154.151408 403.509788 153.964651 403.039727 153.964651 
C 402.569667 153.964651 402.118796 154.151408 401.786413 154.483791 
C 401.45403 154.816173 401.267273 155.267044 401.267273 155.737105 
C 401.267273 156.207165 401.45403 156.658036 401.786413 156.990419 
C 402.118796 157.322802 402.569667 157.509559 403.039727 157.509559 
z
" style="stroke:#000000;stroke-width:0.886227;"/>
    <path clip-path="url(#pff5511552d)" d="M 416.567 182.625503 
C 417.03706 182.625503 417.487931 182.438746 417.820314 182.106363 
C 418.152697 181.77398 418.339454 181.323109 418.339454 180.853049 
C 418.339454 180.382988 418.152697 179.932117 417.820314 179.599735 
C 417.487931 179.267352 417.03706 179.080595 416.567 179.080595 
C 416.09694 179.080595 415.646069 179.267352 415.313686 179.599735 
C 414.981303 179.932117 414.794546 180.382988 414.794546 180.853049 
C 414.794546 181.323109 414.981303 181.77398 415.313686 182.106363 
C 415.646069 182.438746 416.09694 182.625503 416.567 182.625503 
z
" style="stroke:#000000;stroke-width:0.886227;"/>
    <path clip-path="url(#pff5511552d)" d="M 430.094273 192.107024 
C 430.564333 192.107024 431.015204 191.920267 431.347587 191.587884 
C 431.67997 191.255501 431.866727 190.80463 431.866727 190.33457 
C 431.866727 189.864509 431.67997 189.413638 431.347587 189.081256 
C 431.015204 188.748873 430.564333 188.562116 430.094273 188.562116 
C 429.624212 188.562116 429.173341 188.748873 428.840959 189.081256 
C 428.508576 189.413638 428.321819 189.864509 428.321819 190.33457 
C 428.321819 190.80463 428.508576 191.255501 428.840959 191.587884 
C 429.173341 191.920267 429.624212 192.107024 430.094273 192.107024 
z
" style="stroke:#000000;stroke-width:0.886227;"/>
    <path clip-path="url(#pff5511552d)" d="M 443.621545 219.912761 
C 444.091606 219.912761 444.542477 219.726004 444.87486 219.393621 
C 445.207242 219.061238 445.393999 218.610367 445.393999 218.140307 
C 445.393999 217.670247 445.207242 217.219376 444.87486 216.886993 
C 444.542477 216.55461 444.091606 216.367853 443.621545 216.367853 
C 443.151485 216.367853 442.700614 216.55461 442.368231 216.886993 
C 442.035849 217.219376 441.849092 217.670247 441.849092 218.140307 
C 441.849092 218.610367 442.035849 219.061238 442.368231 219.393621 
C 442.700614 219.726004 443.151485 219.912761 443.621545 219.912761 
z
" style="stroke:#000000;stroke-width:0.886227;"/>
    <path clip-path="url(#pff5511552d)" d="M 457.148818 142.917431 
C 457.618878 142.917431 458.06975 142.730674 458.402132 142.398291 
C 458.734515 142.065908 458.921272 141.615037 458.921272 141.144977 
C 458.921272 140.674916 458.734515 140.224045 458.402132 139.891663 
C 458.06975 139.55928 457.618878 139.372523 457.148818 139.372523 
C 456.678758 139.372523 456.227887 139.55928 455.895504 139.891663 
C 455.563121 140.224045 455.376364 140.674916 455.376364 141.144977 
C 455.376364 141.615037 455.563121 142.065908 455.895504 142.398291 
C 456.227887 142.730674 456.678758 142.917431 457.148818 142.917431 
z
" style="stroke:#000000;stroke-width:0.886227;"/>
    <path clip-path="url(#pff5511552d)" d="M 470.676091 153.252961 
C 471.146151 153.252961 471.597022 153.066204 471.929405 152.733821 
C 472.261788 152.401438 472.448545 151.950567 472.448545 151.480507 
C 472.448545 151.010447 472.261788 150.559576 471.929405 150.227193 
C 471.597022 149.89481 471.146151 149.708053 470.676091 149.708053 
C 470.206031 149.708053 469.75516 149.89481 469.422777 150.227193 
C 469.090394 150.559576 468.903637 151.010447 468.903637 151.480507 
C 468.903637 151.950567 469.090394 152.401438 469.422777 152.733821 
C 469.75516 153.066204 470.206031 153.252961 470.676091 153.252961 
z
" style="stroke:#000000;stroke-width:0.886227;"/>
   </g>
   <g id="line2d_33">
    <path clip-path="url(#pff5511552d)" d="M 64.857909 73.206007 
L 78.385182 74.96447 
L 91.912455 71.23751 
L 105.439727 70.645497 
L 118.967 68.817909 
L 132.494273 74.96242 
L 146.021545 85.457852 
L 159.548818 97.436841 
L 173.076091 107.046437 
L 186.603364 115.093593 
L 200.130636 131.529697 
L 213.657909 122.648769 
L 227.185182 130.119198 
L 240.712455 129.948712 
L 254.239727 147.468914 
L 267.767 153.411045 
L 281.294273 138.944133 
L 294.821545 153.317855 
L 308.348818 143.900221 
L 321.876091 147.197011 
L 335.403364 138.0933 
L 348.930636 154.651381 
L 362.457909 154.849473 
L 375.985182 171.342108 
L 389.512455 167.466524 
L 403.039727 155.737105 
L 416.567 180.853049 
L 430.094273 190.33457 
L 443.621545 218.140307 
L 457.148818 141.144977 
L 470.676091 151.480507 
" style="fill:none;stroke:#000000;stroke-width:0.886227;"/>
   </g>
  </g>
 </g>
 <defs>
  <clipPath id="pff5511552d">
   <rect height="221.76" width="446.4" x="44.567" y="7.2"/>
  </clipPath>
 </defs>
</svg>
