<?xml version="1.0" encoding="utf-8" standalone="no"?>
<!DOCTYPE svg PUBLIC "-//W3C//DTD SVG 1.1//EN"
  "http://www.w3.org/Graphics/SVG/1.1/DTD/svg11.dtd">
<!-- Created with matplotlib (https://matplotlib.org/) -->
<svg height="276.021875pt" version="1.1" viewBox="0 0 513.1925 276.021875" width="513.1925pt" xmlns="http://www.w3.org/2000/svg" xmlns:xlink="http://www.w3.org/1999/xlink">
 <defs>
  <style type="text/css">
*{stroke-linecap:butt;stroke-linejoin:round;}
  </style>
 </defs>
 <g id="figure_1">
  <g id="patch_1">
   <path d="M 0 276.021875 
L 513.1925 276.021875 
L 513.1925 0 
L 0 0 
z
" style="fill:#ffffff;stroke:#ffffff;stroke-linejoin:miter;"/>
  </g>
  <g id="axes_1">
   <g id="patch_2">
    <path d="M 59.5925 228.96 
L 505.9925 228.96 
L 505.9925 7.2 
L 59.5925 7.2 
z
" style="fill:#ffffff;"/>
   </g>
   <g id="matplotlib.axis_1">
    <g id="xtick_1">
     <g id="line2d_1">
      <path d="M 79.88341 228.96 
" style="fill:none;stroke:#000000;stroke-width:1.5;"/>
      <defs>
       <path d="M 0 0 
L 0 2.75 
" id="m0bf3c2f1a6" style="stroke:#000000;"/>
      </defs>
      <g>
       <use style="stroke:#000000;" x="79.88341" xlink:href="#m0bf3c2f1a6" y="228.96"/>
      </g>
     </g>
     <g id="text_1">
      <!-- 1 -->
      <defs>
       <path d="M 12.40625 8.296875 
L 28.515625 8.296875 
L 28.515625 63.921875 
L 10.984375 60.40625 
L 10.984375 69.390625 
L 28.421875 72.90625 
L 38.28125 72.90625 
L 38.28125 8.296875 
L 54.390625 8.296875 
L 54.390625 0 
L 12.40625 0 
z
" id="DejaVuSans-49"/>
      </defs>
      <g transform="translate(75.42966 244.547812)scale(0.14 -0.14)">
       <use xlink:href="#DejaVuSans-49"/>
      </g>
     </g>
    </g>
    <g id="xtick_2">
     <g id="line2d_2">
      <path d="M 215.156137 228.96 
" style="fill:none;stroke:#000000;stroke-width:1.5;"/>
      <g>
       <use style="stroke:#000000;" x="215.156137" xlink:href="#m0bf3c2f1a6" y="228.96"/>
      </g>
     </g>
     <g id="text_2">
      <!-- 2 -->
      <defs>
       <path d="M 19.1875 8.296875 
L 53.609375 8.296875 
L 53.609375 0 
L 7.328125 0 
L 7.328125 8.296875 
Q 12.9375 14.109375 22.625 23.890625 
Q 32.328125 33.6875 34.8125 36.53125 
Q 39.546875 41.84375 41.421875 45.53125 
Q 43.3125 49.21875 43.3125 52.78125 
Q 43.3125 58.59375 39.234375 62.25 
Q 35.15625 65.921875 28.609375 65.921875 
Q 23.96875 65.921875 18.8125 64.3125 
Q 13.671875 62.703125 7.8125 59.421875 
L 7.8125 69.390625 
Q 13.765625 71.78125 18.9375 73 
Q 24.125 74.21875 28.421875 74.21875 
Q 39.75 74.21875 46.484375 68.546875 
Q 53.21875 62.890625 53.21875 53.421875 
Q 53.21875 48.921875 51.53125 44.890625 
Q 49.859375 40.875 45.40625 35.40625 
Q 44.1875 33.984375 37.640625 27.21875 
Q 31.109375 20.453125 19.1875 8.296875 
z
" id="DejaVuSans-50"/>
      </defs>
      <g transform="translate(210.702387 244.547812)scale(0.14 -0.14)">
       <use xlink:href="#DejaVuSans-50"/>
      </g>
     </g>
    </g>
    <g id="xtick_3">
     <g id="line2d_3">
      <path d="M 350.428863 228.96 
" style="fill:none;stroke:#000000;stroke-width:1.5;"/>
      <g>
       <use style="stroke:#000000;" x="350.428863" xlink:href="#m0bf3c2f1a6" y="228.96"/>
      </g>
     </g>
     <g id="text_3">
      <!-- 3 -->
      <defs>
       <path d="M 40.578125 39.3125 
Q 47.65625 37.796875 51.625 33 
Q 55.609375 28.21875 55.609375 21.1875 
Q 55.609375 10.40625 48.1875 4.484375 
Q 40.765625 -1.421875 27.09375 -1.421875 
Q 22.515625 -1.421875 17.65625 -0.515625 
Q 12.796875 0.390625 7.625 2.203125 
L 7.625 11.71875 
Q 11.71875 9.328125 16.59375 8.109375 
Q 21.484375 6.890625 26.8125 6.890625 
Q 36.078125 6.890625 40.9375 10.546875 
Q 45.796875 14.203125 45.796875 21.1875 
Q 45.796875 27.640625 41.28125 31.265625 
Q 36.765625 34.90625 28.71875 34.90625 
L 20.21875 34.90625 
L 20.21875 43.015625 
L 29.109375 43.015625 
Q 36.375 43.015625 40.234375 45.921875 
Q 44.09375 48.828125 44.09375 54.296875 
Q 44.09375 59.90625 40.109375 62.90625 
Q 36.140625 65.921875 28.71875 65.921875 
Q 24.65625 65.921875 20.015625 65.03125 
Q 15.375 64.15625 9.8125 62.3125 
L 9.8125 71.09375 
Q 15.4375 72.65625 20.34375 73.4375 
Q 25.25 74.21875 29.59375 74.21875 
Q 40.828125 74.21875 47.359375 69.109375 
Q 53.90625 64.015625 53.90625 55.328125 
Q 53.90625 49.265625 50.4375 45.09375 
Q 46.96875 40.921875 40.578125 39.3125 
z
" id="DejaVuSans-51"/>
      </defs>
      <g transform="translate(345.975113 244.547812)scale(0.14 -0.14)">
       <use xlink:href="#DejaVuSans-51"/>
      </g>
     </g>
    </g>
    <g id="xtick_4">
     <g id="line2d_4">
      <path d="M 485.70159 228.96 
" style="fill:none;stroke:#000000;stroke-width:1.5;"/>
      <g>
       <use style="stroke:#000000;" x="485.70159" xlink:href="#m0bf3c2f1a6" y="228.96"/>
      </g>
     </g>
     <g id="text_4">
      <!-- 4 -->
      <defs>
       <path d="M 37.796875 64.3125 
L 12.890625 25.390625 
L 37.796875 25.390625 
z
M 35.203125 72.90625 
L 47.609375 72.90625 
L 47.609375 25.390625 
L 58.015625 25.390625 
L 58.015625 17.1875 
L 47.609375 17.1875 
L 47.609375 0 
L 37.796875 0 
L 37.796875 17.1875 
L 4.890625 17.1875 
L 4.890625 26.703125 
z
" id="DejaVuSans-52"/>
      </defs>
      <g transform="translate(481.24784 244.547812)scale(0.14 -0.14)">
       <use xlink:href="#DejaVuSans-52"/>
      </g>
     </g>
    </g>
    <g id="xtick_5">
     <g id="line2d_5">
      <path d="M 147.519773 228.96 
" style="fill:none;stroke:#000000;stroke-width:1.5;"/>
      <defs>
       <path d="M 0 0 
L 0 1.375 
" id="mcfeee5a9d1" style="stroke:#000000;"/>
      </defs>
      <g>
       <use style="stroke:#000000;" x="147.519773" xlink:href="#mcfeee5a9d1" y="228.96"/>
      </g>
     </g>
    </g>
    <g id="xtick_6">
     <g id="line2d_6">
      <path d="M 282.7925 228.96 
" style="fill:none;stroke:#000000;stroke-width:1.5;"/>
      <g>
       <use style="stroke:#000000;" x="282.7925" xlink:href="#mcfeee5a9d1" y="228.96"/>
      </g>
     </g>
    </g>
    <g id="xtick_7">
     <g id="line2d_7">
      <path d="M 418.065227 228.96 
" style="fill:none;stroke:#000000;stroke-width:1.5;"/>
      <g>
       <use style="stroke:#000000;" x="418.065227" xlink:href="#mcfeee5a9d1" y="228.96"/>
      </g>
     </g>
    </g>
    <g id="text_5">
     <!-- Resolution [Å] -->
     <defs>
      <path d="M 44.390625 34.1875 
Q 47.5625 33.109375 50.5625 29.59375 
Q 53.5625 26.078125 56.59375 19.921875 
L 66.609375 0 
L 56 0 
L 46.6875 18.703125 
Q 43.0625 26.03125 39.671875 28.421875 
Q 36.28125 30.8125 30.421875 30.8125 
L 19.671875 30.8125 
L 19.671875 0 
L 9.8125 0 
L 9.8125 72.90625 
L 32.078125 72.90625 
Q 44.578125 72.90625 50.734375 67.671875 
Q 56.890625 62.453125 56.890625 51.90625 
Q 56.890625 45.015625 53.6875 40.46875 
Q 50.484375 35.9375 44.390625 34.1875 
z
M 19.671875 64.796875 
L 19.671875 38.921875 
L 32.078125 38.921875 
Q 39.203125 38.921875 42.84375 42.21875 
Q 46.484375 45.515625 46.484375 51.90625 
Q 46.484375 58.296875 42.84375 61.546875 
Q 39.203125 64.796875 32.078125 64.796875 
z
" id="DejaVuSans-82"/>
      <path d="M 56.203125 29.59375 
L 56.203125 25.203125 
L 14.890625 25.203125 
Q 15.484375 15.921875 20.484375 11.0625 
Q 25.484375 6.203125 34.421875 6.203125 
Q 39.59375 6.203125 44.453125 7.46875 
Q 49.3125 8.734375 54.109375 11.28125 
L 54.109375 2.78125 
Q 49.265625 0.734375 44.1875 -0.34375 
Q 39.109375 -1.421875 33.890625 -1.421875 
Q 20.796875 -1.421875 13.15625 6.1875 
Q 5.515625 13.8125 5.515625 26.8125 
Q 5.515625 40.234375 12.765625 48.109375 
Q 20.015625 56 32.328125 56 
Q 43.359375 56 49.78125 48.890625 
Q 56.203125 41.796875 56.203125 29.59375 
z
M 47.21875 32.234375 
Q 47.125 39.59375 43.09375 43.984375 
Q 39.0625 48.390625 32.421875 48.390625 
Q 24.90625 48.390625 20.390625 44.140625 
Q 15.875 39.890625 15.1875 32.171875 
z
" id="DejaVuSans-101"/>
      <path d="M 44.28125 53.078125 
L 44.28125 44.578125 
Q 40.484375 46.53125 36.375 47.5 
Q 32.28125 48.484375 27.875 48.484375 
Q 21.1875 48.484375 17.84375 46.4375 
Q 14.5 44.390625 14.5 40.28125 
Q 14.5 37.15625 16.890625 35.375 
Q 19.28125 33.59375 26.515625 31.984375 
L 29.59375 31.296875 
Q 39.15625 29.25 43.1875 25.515625 
Q 47.21875 21.78125 47.21875 15.09375 
Q 47.21875 7.46875 41.1875 3.015625 
Q 35.15625 -1.421875 24.609375 -1.421875 
Q 20.21875 -1.421875 15.453125 -0.5625 
Q 10.6875 0.296875 5.421875 2 
L 5.421875 11.28125 
Q 10.40625 8.6875 15.234375 7.390625 
Q 20.0625 6.109375 24.8125 6.109375 
Q 31.15625 6.109375 34.5625 8.28125 
Q 37.984375 10.453125 37.984375 14.40625 
Q 37.984375 18.0625 35.515625 20.015625 
Q 33.0625 21.96875 24.703125 23.78125 
L 21.578125 24.515625 
Q 13.234375 26.265625 9.515625 29.90625 
Q 5.8125 33.546875 5.8125 39.890625 
Q 5.8125 47.609375 11.28125 51.796875 
Q 16.75 56 26.8125 56 
Q 31.78125 56 36.171875 55.265625 
Q 40.578125 54.546875 44.28125 53.078125 
z
" id="DejaVuSans-115"/>
      <path d="M 30.609375 48.390625 
Q 23.390625 48.390625 19.1875 42.75 
Q 14.984375 37.109375 14.984375 27.296875 
Q 14.984375 17.484375 19.15625 11.84375 
Q 23.34375 6.203125 30.609375 6.203125 
Q 37.796875 6.203125 41.984375 11.859375 
Q 46.1875 17.53125 46.1875 27.296875 
Q 46.1875 37.015625 41.984375 42.703125 
Q 37.796875 48.390625 30.609375 48.390625 
z
M 30.609375 56 
Q 42.328125 56 49.015625 48.375 
Q 55.71875 40.765625 55.71875 27.296875 
Q 55.71875 13.875 49.015625 6.21875 
Q 42.328125 -1.421875 30.609375 -1.421875 
Q 18.84375 -1.421875 12.171875 6.21875 
Q 5.515625 13.875 5.515625 27.296875 
Q 5.515625 40.765625 12.171875 48.375 
Q 18.84375 56 30.609375 56 
z
" id="DejaVuSans-111"/>
      <path d="M 9.421875 75.984375 
L 18.40625 75.984375 
L 18.40625 0 
L 9.421875 0 
z
" id="DejaVuSans-108"/>
      <path d="M 8.5 21.578125 
L 8.5 54.6875 
L 17.484375 54.6875 
L 17.484375 21.921875 
Q 17.484375 14.15625 20.5 10.265625 
Q 23.53125 6.390625 29.59375 6.390625 
Q 36.859375 6.390625 41.078125 11.03125 
Q 45.3125 15.671875 45.3125 23.6875 
L 45.3125 54.6875 
L 54.296875 54.6875 
L 54.296875 0 
L 45.3125 0 
L 45.3125 8.40625 
Q 42.046875 3.421875 37.71875 1 
Q 33.40625 -1.421875 27.6875 -1.421875 
Q 18.265625 -1.421875 13.375 4.4375 
Q 8.5 10.296875 8.5 21.578125 
z
M 31.109375 56 
z
" id="DejaVuSans-117"/>
      <path d="M 18.3125 70.21875 
L 18.3125 54.6875 
L 36.8125 54.6875 
L 36.8125 47.703125 
L 18.3125 47.703125 
L 18.3125 18.015625 
Q 18.3125 11.328125 20.140625 9.421875 
Q 21.96875 7.515625 27.59375 7.515625 
L 36.8125 7.515625 
L 36.8125 0 
L 27.59375 0 
Q 17.1875 0 13.234375 3.875 
Q 9.28125 7.765625 9.28125 18.015625 
L 9.28125 47.703125 
L 2.6875 47.703125 
L 2.6875 54.6875 
L 9.28125 54.6875 
L 9.28125 70.21875 
z
" id="DejaVuSans-116"/>
      <path d="M 9.421875 54.6875 
L 18.40625 54.6875 
L 18.40625 0 
L 9.421875 0 
z
M 9.421875 75.984375 
L 18.40625 75.984375 
L 18.40625 64.59375 
L 9.421875 64.59375 
z
" id="DejaVuSans-105"/>
      <path d="M 54.890625 33.015625 
L 54.890625 0 
L 45.90625 0 
L 45.90625 32.71875 
Q 45.90625 40.484375 42.875 44.328125 
Q 39.84375 48.1875 33.796875 48.1875 
Q 26.515625 48.1875 22.3125 43.546875 
Q 18.109375 38.921875 18.109375 30.90625 
L 18.109375 0 
L 9.078125 0 
L 9.078125 54.6875 
L 18.109375 54.6875 
L 18.109375 46.1875 
Q 21.34375 51.125 25.703125 53.5625 
Q 30.078125 56 35.796875 56 
Q 45.21875 56 50.046875 50.171875 
Q 54.890625 44.34375 54.890625 33.015625 
z
" id="DejaVuSans-110"/>
      <path id="DejaVuSans-32"/>
      <path d="M 8.59375 75.984375 
L 29.296875 75.984375 
L 29.296875 69 
L 17.578125 69 
L 17.578125 -6.203125 
L 29.296875 -6.203125 
L 29.296875 -13.1875 
L 8.59375 -13.1875 
z
" id="DejaVuSans-91"/>
      <path d="M 41.609375 79.390625 
Q 41.609375 82.46875 39.421875 84.640625 
Q 37.25 86.8125 34.1875 86.8125 
Q 31.0625 86.8125 28.9375 84.6875 
Q 26.8125 82.5625 26.8125 79.390625 
Q 26.8125 76.3125 28.953125 74.15625 
Q 31.109375 72.015625 34.1875 72.015625 
Q 37.25 72.015625 39.421875 74.15625 
Q 41.609375 76.3125 41.609375 79.390625 
z
M 34.1875 63.1875 
L 20.90625 26.90625 
L 47.515625 26.90625 
z
M 26.8125 68.21875 
Q 23.828125 70.21875 22.3125 73.015625 
Q 20.796875 75.828125 20.796875 79.390625 
Q 20.796875 85.015625 24.671875 88.921875 
Q 28.5625 92.828125 34.1875 92.828125 
Q 39.75 92.828125 43.671875 88.890625 
Q 47.609375 84.96875 47.609375 79.390625 
Q 47.609375 75.984375 46.0625 73.09375 
Q 44.53125 70.21875 41.609375 68.21875 
L 67.578125 0 
L 57.328125 0 
L 50.6875 18.703125 
L 17.828125 18.703125 
L 11.1875 0 
L 0.78125 0 
z
" id="DejaVuSans-197"/>
      <path d="M 30.421875 75.984375 
L 30.421875 -13.1875 
L 9.71875 -13.1875 
L 9.71875 -6.203125 
L 21.390625 -6.203125 
L 21.390625 69 
L 9.71875 69 
L 9.71875 75.984375 
z
" id="DejaVuSans-93"/>
     </defs>
     <g transform="translate(219.18 265.494375)scale(0.16 -0.16)">
      <use xlink:href="#DejaVuSans-82"/>
      <use x="69.419922" xlink:href="#DejaVuSans-101"/>
      <use x="130.943359" xlink:href="#DejaVuSans-115"/>
      <use x="183.042969" xlink:href="#DejaVuSans-111"/>
      <use x="244.224609" xlink:href="#DejaVuSans-108"/>
      <use x="272.007812" xlink:href="#DejaVuSans-117"/>
      <use x="335.386719" xlink:href="#DejaVuSans-116"/>
      <use x="374.595703" xlink:href="#DejaVuSans-105"/>
      <use x="402.378906" xlink:href="#DejaVuSans-111"/>
      <use x="463.560547" xlink:href="#DejaVuSans-110"/>
      <use x="526.939453" xlink:href="#DejaVuSans-32"/>
      <use x="558.726562" xlink:href="#DejaVuSans-91"/>
      <use x="597.740234" xlink:href="#DejaVuSans-197"/>
      <use x="666.148438" xlink:href="#DejaVuSans-93"/>
     </g>
    </g>
   </g>
   <g id="matplotlib.axis_2">
    <g id="ytick_1">
     <g id="line2d_8">
      <path d="M 59.5925 218.88 
" style="fill:none;stroke:#000000;stroke-width:1.5;"/>
      <defs>
       <path d="M 0 0 
L -2.75 0 
" id="m5354173df5" style="stroke:#000000;"/>
      </defs>
      <g>
       <use style="stroke:#000000;" x="59.5925" xlink:href="#m5354173df5" y="218.88"/>
      </g>
     </g>
     <g id="text_6">
      <!-- 0 -->
      <defs>
       <path d="M 31.78125 66.40625 
Q 24.171875 66.40625 20.328125 58.90625 
Q 16.5 51.421875 16.5 36.375 
Q 16.5 21.390625 20.328125 13.890625 
Q 24.171875 6.390625 31.78125 6.390625 
Q 39.453125 6.390625 43.28125 13.890625 
Q 47.125 21.390625 47.125 36.375 
Q 47.125 51.421875 43.28125 58.90625 
Q 39.453125 66.40625 31.78125 66.40625 
z
M 31.78125 74.21875 
Q 44.046875 74.21875 50.515625 64.515625 
Q 56.984375 54.828125 56.984375 36.375 
Q 56.984375 17.96875 50.515625 8.265625 
Q 44.046875 -1.421875 31.78125 -1.421875 
Q 19.53125 -1.421875 13.0625 8.265625 
Q 6.59375 17.96875 6.59375 36.375 
Q 6.59375 54.828125 13.0625 64.515625 
Q 19.53125 74.21875 31.78125 74.21875 
z
" id="DejaVuSans-48"/>
      </defs>
      <g transform="translate(45.735 222.743125)scale(0.14 -0.14)">
       <use xlink:href="#DejaVuSans-48"/>
      </g>
     </g>
    </g>
    <g id="ytick_2">
     <g id="line2d_9">
      <path d="M 59.5925 168.48 
" style="fill:none;stroke:#000000;stroke-width:1.5;"/>
      <g>
       <use style="stroke:#000000;" x="59.5925" xlink:href="#m5354173df5" y="168.48"/>
      </g>
     </g>
     <g id="text_7">
      <!-- 25 -->
      <defs>
       <path d="M 10.796875 72.90625 
L 49.515625 72.90625 
L 49.515625 64.59375 
L 19.828125 64.59375 
L 19.828125 46.734375 
Q 21.96875 47.46875 24.109375 47.828125 
Q 26.265625 48.1875 28.421875 48.1875 
Q 40.625 48.1875 47.75 41.5 
Q 54.890625 34.8125 54.890625 23.390625 
Q 54.890625 11.625 47.5625 5.09375 
Q 40.234375 -1.421875 26.90625 -1.421875 
Q 22.3125 -1.421875 17.546875 -0.640625 
Q 12.796875 0.140625 7.71875 1.703125 
L 7.71875 11.625 
Q 12.109375 9.234375 16.796875 8.0625 
Q 21.484375 6.890625 26.703125 6.890625 
Q 35.15625 6.890625 40.078125 11.328125 
Q 45.015625 15.765625 45.015625 23.390625 
Q 45.015625 31 40.078125 35.4375 
Q 35.15625 39.890625 26.703125 39.890625 
Q 22.75 39.890625 18.8125 39.015625 
Q 14.890625 38.140625 10.796875 36.28125 
z
" id="DejaVuSans-53"/>
      </defs>
      <g transform="translate(36.8275 172.343125)scale(0.14 -0.14)">
       <use xlink:href="#DejaVuSans-50"/>
       <use x="63.623047" xlink:href="#DejaVuSans-53"/>
      </g>
     </g>
    </g>
    <g id="ytick_3">
     <g id="line2d_10">
      <path d="M 59.5925 118.08 
" style="fill:none;stroke:#000000;stroke-width:1.5;"/>
      <g>
       <use style="stroke:#000000;" x="59.5925" xlink:href="#m5354173df5" y="118.08"/>
      </g>
     </g>
     <g id="text_8">
      <!-- 50 -->
      <g transform="translate(36.8275 121.943125)scale(0.14 -0.14)">
       <use xlink:href="#DejaVuSans-53"/>
       <use x="63.623047" xlink:href="#DejaVuSans-48"/>
      </g>
     </g>
    </g>
    <g id="ytick_4">
     <g id="line2d_11">
      <path d="M 59.5925 67.68 
" style="fill:none;stroke:#000000;stroke-width:1.5;"/>
      <g>
       <use style="stroke:#000000;" x="59.5925" xlink:href="#m5354173df5" y="67.68"/>
      </g>
     </g>
     <g id="text_9">
      <!-- 75 -->
      <defs>
       <path d="M 8.203125 72.90625 
L 55.078125 72.90625 
L 55.078125 68.703125 
L 28.609375 0 
L 18.3125 0 
L 43.21875 64.59375 
L 8.203125 64.59375 
z
" id="DejaVuSans-55"/>
      </defs>
      <g transform="translate(36.8275 71.543125)scale(0.14 -0.14)">
       <use xlink:href="#DejaVuSans-55"/>
       <use x="63.623047" xlink:href="#DejaVuSans-53"/>
      </g>
     </g>
    </g>
    <g id="ytick_5">
     <g id="line2d_12">
      <path d="M 59.5925 17.28 
" style="fill:none;stroke:#000000;stroke-width:1.5;"/>
      <g>
       <use style="stroke:#000000;" x="59.5925" xlink:href="#m5354173df5" y="17.28"/>
      </g>
     </g>
     <g id="text_10">
      <!-- 100 -->
      <g transform="translate(27.92 21.143125)scale(0.14 -0.14)">
       <use xlink:href="#DejaVuSans-49"/>
       <use x="63.623047" xlink:href="#DejaVuSans-48"/>
       <use x="127.246094" xlink:href="#DejaVuSans-48"/>
      </g>
     </g>
    </g>
    <g id="ytick_6">
     <g id="line2d_13">
      <path d="M 59.5925 193.68 
" style="fill:none;stroke:#000000;stroke-width:1.5;"/>
      <defs>
       <path d="M 0 0 
L -1.375 0 
" id="ma35ba27abe" style="stroke:#000000;"/>
      </defs>
      <g>
       <use style="stroke:#000000;" x="59.5925" xlink:href="#ma35ba27abe" y="193.68"/>
      </g>
     </g>
    </g>
    <g id="ytick_7">
     <g id="line2d_14">
      <path d="M 59.5925 143.28 
" style="fill:none;stroke:#000000;stroke-width:1.5;"/>
      <g>
       <use style="stroke:#000000;" x="59.5925" xlink:href="#ma35ba27abe" y="143.28"/>
      </g>
     </g>
    </g>
    <g id="ytick_8">
     <g id="line2d_15">
      <path d="M 59.5925 92.88 
" style="fill:none;stroke:#000000;stroke-width:1.5;"/>
      <g>
       <use style="stroke:#000000;" x="59.5925" xlink:href="#ma35ba27abe" y="92.88"/>
      </g>
     </g>
    </g>
    <g id="ytick_9">
     <g id="line2d_16">
      <path d="M 59.5925 42.48 
" style="fill:none;stroke:#000000;stroke-width:1.5;"/>
      <g>
       <use style="stroke:#000000;" x="59.5925" xlink:href="#ma35ba27abe" y="42.48"/>
      </g>
     </g>
    </g>
    <g id="text_11">
     <!-- $P_{Q1n}$ [%] -->
     <defs>
      <path d="M 16.890625 72.90625 
L 39.703125 72.90625 
Q 49.65625 72.90625 54.875 68.265625 
Q 60.109375 63.625 60.109375 54.6875 
Q 60.109375 42.671875 52.390625 35.984375 
Q 44.671875 29.296875 30.71875 29.296875 
L 18.3125 29.296875 
L 12.59375 0 
L 2.6875 0 
z
M 25.203125 64.796875 
L 19.921875 37.40625 
L 32.328125 37.40625 
Q 40.71875 37.40625 45.203125 41.703125 
Q 49.703125 46 49.703125 54 
Q 49.703125 59.125 46.65625 61.953125 
Q 43.609375 64.796875 38.09375 64.796875 
z
" id="DejaVuSans-Oblique-80"/>
      <path d="M 36.078125 -1.3125 
Q 35.546875 -1.375 34.953125 -1.390625 
Q 34.375 -1.421875 33.203125 -1.421875 
Q 19.53125 -1.421875 11.8125 6.421875 
Q 4.109375 14.265625 4.109375 28.078125 
Q 4.109375 36.234375 7.0625 44.4375 
Q 10.015625 52.640625 15.28125 59.1875 
Q 21.390625 66.703125 29.03125 70.453125 
Q 36.671875 74.21875 45.90625 74.21875 
Q 59.28125 74.21875 66.984375 66.328125 
Q 74.703125 58.453125 74.703125 44.828125 
Q 74.703125 30.125 66.640625 17.921875 
Q 58.59375 5.71875 45.609375 0.6875 
L 55.515625 -12.890625 
L 44.484375 -12.890625 
z
M 45.609375 66.21875 
Q 37.5 66.21875 31.296875 62.28125 
Q 25.09375 58.34375 20.515625 50.296875 
Q 17.578125 45.171875 16.03125 39.40625 
Q 14.5 33.640625 14.5 27.78125 
Q 14.5 17.625 19.359375 12.109375 
Q 24.21875 6.59375 33.109375 6.59375 
Q 41.109375 6.59375 47.375 10.5625 
Q 53.65625 14.546875 58.109375 22.40625 
Q 61.078125 27.6875 62.640625 33.46875 
Q 64.203125 39.265625 64.203125 45.015625 
Q 64.203125 55.125 59.3125 60.671875 
Q 54.4375 66.21875 45.609375 66.21875 
z
" id="DejaVuSans-Oblique-81"/>
      <path d="M 55.71875 33.015625 
L 49.3125 0 
L 40.28125 0 
L 46.6875 32.671875 
Q 47.125 34.96875 47.359375 36.71875 
Q 47.609375 38.484375 47.609375 39.5 
Q 47.609375 43.609375 45.015625 45.890625 
Q 42.4375 48.1875 37.796875 48.1875 
Q 30.5625 48.1875 25.34375 43.375 
Q 20.125 38.578125 18.5 30.328125 
L 12.5 0 
L 3.515625 0 
L 14.109375 54.6875 
L 23.09375 54.6875 
L 21.296875 46.09375 
Q 25.046875 50.828125 30.3125 53.40625 
Q 35.59375 56 41.40625 56 
Q 48.640625 56 52.609375 52.09375 
Q 56.59375 48.1875 56.59375 41.109375 
Q 56.59375 39.359375 56.375 37.359375 
Q 56.15625 35.359375 55.71875 33.015625 
z
" id="DejaVuSans-Oblique-110"/>
      <path d="M 72.703125 32.078125 
Q 68.453125 32.078125 66.03125 28.46875 
Q 63.625 24.859375 63.625 18.40625 
Q 63.625 12.0625 66.03125 8.421875 
Q 68.453125 4.78125 72.703125 4.78125 
Q 76.859375 4.78125 79.265625 8.421875 
Q 81.6875 12.0625 81.6875 18.40625 
Q 81.6875 24.8125 79.265625 28.4375 
Q 76.859375 32.078125 72.703125 32.078125 
z
M 72.703125 38.28125 
Q 80.421875 38.28125 84.953125 32.90625 
Q 89.5 27.546875 89.5 18.40625 
Q 89.5 9.28125 84.9375 3.921875 
Q 80.375 -1.421875 72.703125 -1.421875 
Q 64.890625 -1.421875 60.34375 3.921875 
Q 55.8125 9.28125 55.8125 18.40625 
Q 55.8125 27.59375 60.375 32.9375 
Q 64.9375 38.28125 72.703125 38.28125 
z
M 22.3125 68.015625 
Q 18.109375 68.015625 15.6875 64.375 
Q 13.28125 60.75 13.28125 54.390625 
Q 13.28125 47.953125 15.671875 44.328125 
Q 18.0625 40.71875 22.3125 40.71875 
Q 26.5625 40.71875 28.96875 44.328125 
Q 31.390625 47.953125 31.390625 54.390625 
Q 31.390625 60.6875 28.953125 64.34375 
Q 26.515625 68.015625 22.3125 68.015625 
z
M 66.40625 74.21875 
L 74.21875 74.21875 
L 28.609375 -1.421875 
L 20.796875 -1.421875 
z
M 22.3125 74.21875 
Q 30.03125 74.21875 34.609375 68.875 
Q 39.203125 63.53125 39.203125 54.390625 
Q 39.203125 45.171875 34.640625 39.84375 
Q 30.078125 34.515625 22.3125 34.515625 
Q 14.546875 34.515625 10.03125 39.859375 
Q 5.515625 45.21875 5.515625 54.390625 
Q 5.515625 63.484375 10.046875 68.84375 
Q 14.59375 74.21875 22.3125 74.21875 
z
" id="DejaVuSans-37"/>
     </defs>
     <g transform="translate(19.36 149.6)rotate(-90)scale(0.16 -0.16)">
      <use transform="translate(0 0.015625)" xlink:href="#DejaVuSans-Oblique-80"/>
      <use transform="translate(60.302734 -16.390625)scale(0.7)" xlink:href="#DejaVuSans-Oblique-81"/>
      <use transform="translate(115.400391 -16.390625)scale(0.7)" xlink:href="#DejaVuSans-49"/>
      <use transform="translate(159.936523 -16.390625)scale(0.7)" xlink:href="#DejaVuSans-Oblique-110"/>
      <use transform="translate(207.036133 0.015625)" xlink:href="#DejaVuSans-32"/>
      <use transform="translate(238.823242 0.015625)" xlink:href="#DejaVuSans-91"/>
      <use transform="translate(277.836914 0.015625)" xlink:href="#DejaVuSans-37"/>
      <use transform="translate(372.856445 0.015625)" xlink:href="#DejaVuSans-93"/>
     </g>
    </g>
   </g>
   <g id="LineCollection_1">
    <path clip-path="url(#p9603d462a4)" d="M 79.883409 78.316921 
L 79.88341 78.316921 
" style="fill:none;stroke:#9da0a2;stroke-width:1.32934;"/>
    <path clip-path="url(#p9603d462a4)" d="M 93.410682 84.618414 
L 93.410683 84.618414 
" style="fill:none;stroke:#9da0a2;stroke-width:1.32934;"/>
    <path clip-path="url(#p9603d462a4)" d="M 106.937954 78.30064 
L 106.937956 78.30064 
" style="fill:none;stroke:#9da0a2;stroke-width:1.32934;"/>
    <path clip-path="url(#p9603d462a4)" d="M 120.465227 80.166198 
L 120.465228 80.166198 
" style="fill:none;stroke:#9da0a2;stroke-width:1.32934;"/>
    <path clip-path="url(#p9603d462a4)" d="M 133.9925 75.449413 
L 133.992501 75.449413 
" style="fill:none;stroke:#9da0a2;stroke-width:1.32934;"/>
    <path clip-path="url(#p9603d462a4)" d="M 147.519773 81.02291 
L 147.519774 81.02291 
" style="fill:none;stroke:#9da0a2;stroke-width:1.32934;"/>
    <path clip-path="url(#p9603d462a4)" d="M 161.047045 89.952098 
L 161.047047 89.952098 
" style="fill:none;stroke:#9da0a2;stroke-width:1.32934;"/>
    <path clip-path="url(#p9603d462a4)" d="M 174.574318 103.549058 
L 174.574319 103.549058 
" style="fill:none;stroke:#9da0a2;stroke-width:1.32934;"/>
    <path clip-path="url(#p9603d462a4)" d="M 188.101591 112.674907 
L 188.101592 112.674907 
" style="fill:none;stroke:#9da0a2;stroke-width:1.32934;"/>
    <path clip-path="url(#p9603d462a4)" d="M 201.628863 121.044277 
L 201.628865 121.044277 
" style="fill:none;stroke:#9da0a2;stroke-width:1.32934;"/>
    <path clip-path="url(#p9603d462a4)" d="M 215.156136 136.707038 
L 215.156137 136.707038 
" style="fill:none;stroke:#9da0a2;stroke-width:1.32934;"/>
    <path clip-path="url(#p9603d462a4)" d="M 228.683409 129.307437 
L 228.68341 129.307437 
" style="fill:none;stroke:#9da0a2;stroke-width:1.32934;"/>
    <path clip-path="url(#p9603d462a4)" d="M 242.210681 135.909861 
L 242.210683 135.909861 
" style="fill:none;stroke:#9da0a2;stroke-width:1.32934;"/>
    <path clip-path="url(#p9603d462a4)" d="M 255.737954 137.488746 
L 255.737955 137.488746 
" style="fill:none;stroke:#9da0a2;stroke-width:1.32934;"/>
    <path clip-path="url(#p9603d462a4)" d="M 269.265227 153.015022 
L 269.265228 153.015022 
" style="fill:none;stroke:#9da0a2;stroke-width:1.32934;"/>
    <path clip-path="url(#p9603d462a4)" d="M 282.792499 159.639721 
L 282.792501 159.639721 
" style="fill:none;stroke:#9da0a2;stroke-width:1.32934;"/>
    <path clip-path="url(#p9603d462a4)" d="M 296.319772 145.570933 
L 296.319773 145.570933 
" style="fill:none;stroke:#9da0a2;stroke-width:1.32934;"/>
    <path clip-path="url(#p9603d462a4)" d="M 309.847045 159.946421 
L 309.847046 159.946421 
" style="fill:none;stroke:#9da0a2;stroke-width:1.32934;"/>
    <path clip-path="url(#p9603d462a4)" d="M 323.374317 149.662048 
L 323.374319 149.662048 
" style="fill:none;stroke:#9da0a2;stroke-width:1.32934;"/>
    <path clip-path="url(#p9603d462a4)" d="M 336.90159 154.033543 
L 336.901591 154.033543 
" style="fill:none;stroke:#9da0a2;stroke-width:1.32934;"/>
    <path clip-path="url(#p9603d462a4)" d="M 350.428863 143.744685 
L 350.428864 143.744685 
" style="fill:none;stroke:#9da0a2;stroke-width:1.32934;"/>
    <path clip-path="url(#p9603d462a4)" d="M 363.956135 161.418026 
L 363.956137 161.418026 
" style="fill:none;stroke:#9da0a2;stroke-width:1.32934;"/>
    <path clip-path="url(#p9603d462a4)" d="M 377.483408 165.970303 
L 377.483409 165.970303 
" style="fill:none;stroke:#9da0a2;stroke-width:1.32934;"/>
    <path clip-path="url(#p9603d462a4)" d="M 391.010681 181.199912 
L 391.010682 181.199912 
" style="fill:none;stroke:#9da0a2;stroke-width:1.32934;"/>
    <path clip-path="url(#p9603d462a4)" d="M 404.537953 188.154292 
L 404.537955 188.154292 
" style="fill:none;stroke:#9da0a2;stroke-width:1.32934;"/>
    <path clip-path="url(#p9603d462a4)" d="M 418.065226 182.117715 
L 418.065227 182.117715 
" style="fill:none;stroke:#9da0a2;stroke-width:1.32934;"/>
    <path clip-path="url(#p9603d462a4)" d="M 431.592499 202.17331 
L 431.5925 202.17331 
" style="fill:none;stroke:#9da0a2;stroke-width:1.32934;"/>
    <path clip-path="url(#p9603d462a4)" d="M 445.119772 202.872725 
L 445.119773 202.872725 
" style="fill:none;stroke:#9da0a2;stroke-width:1.32934;"/>
    <path clip-path="url(#p9603d462a4)" d="M 458.647044 218.74551 
L 458.647046 218.74551 
" style="fill:none;stroke:#9da0a2;stroke-width:1.32934;"/>
    <path clip-path="url(#p9603d462a4)" d="M 472.174317 145.314156 
L 472.174318 145.314156 
" style="fill:none;stroke:#9da0a2;stroke-width:1.32934;"/>
    <path clip-path="url(#p9603d462a4)" d="M 485.70159 167.522643 
L 485.701591 167.522643 
" style="fill:none;stroke:#9da0a2;stroke-width:1.32934;"/>
    <path clip-path="url(#p9603d462a4)" d="M 79.883409 68.095093 
L 79.88341 68.095093 
" style="fill:none;stroke:#9da0a2;stroke-width:1.32934;"/>
    <path clip-path="url(#p9603d462a4)" d="M 93.410682 65.310526 
L 93.410683 65.310526 
" style="fill:none;stroke:#9da0a2;stroke-width:1.32934;"/>
    <path clip-path="url(#p9603d462a4)" d="M 106.937954 64.17438 
L 106.937956 64.17438 
" style="fill:none;stroke:#9da0a2;stroke-width:1.32934;"/>
    <path clip-path="url(#p9603d462a4)" d="M 120.465227 61.124796 
L 120.465228 61.124796 
" style="fill:none;stroke:#9da0a2;stroke-width:1.32934;"/>
    <path clip-path="url(#p9603d462a4)" d="M 133.9925 62.186404 
L 133.992501 62.186404 
" style="fill:none;stroke:#9da0a2;stroke-width:1.32934;"/>
    <path clip-path="url(#p9603d462a4)" d="M 147.519773 68.90193 
L 147.519774 68.90193 
" style="fill:none;stroke:#9da0a2;stroke-width:1.32934;"/>
    <path clip-path="url(#p9603d462a4)" d="M 161.047045 80.963606 
L 161.047047 80.963606 
" style="fill:none;stroke:#9da0a2;stroke-width:1.32934;"/>
    <path clip-path="url(#p9603d462a4)" d="M 174.574318 91.324624 
L 174.574319 91.324624 
" style="fill:none;stroke:#9da0a2;stroke-width:1.32934;"/>
    <path clip-path="url(#p9603d462a4)" d="M 188.101591 101.417968 
L 188.101592 101.417968 
" style="fill:none;stroke:#9da0a2;stroke-width:1.32934;"/>
    <path clip-path="url(#p9603d462a4)" d="M 201.628863 109.142908 
L 201.628865 109.142908 
" style="fill:none;stroke:#9da0a2;stroke-width:1.32934;"/>
    <path clip-path="url(#p9603d462a4)" d="M 215.156136 126.352356 
L 215.156137 126.352356 
" style="fill:none;stroke:#9da0a2;stroke-width:1.32934;"/>
    <path clip-path="url(#p9603d462a4)" d="M 228.683409 115.9901 
L 228.68341 115.9901 
" style="fill:none;stroke:#9da0a2;stroke-width:1.32934;"/>
    <path clip-path="url(#p9603d462a4)" d="M 242.210681 124.328535 
L 242.210683 124.328535 
" style="fill:none;stroke:#9da0a2;stroke-width:1.32934;"/>
    <path clip-path="url(#p9603d462a4)" d="M 255.737954 122.408679 
L 255.737955 122.408679 
" style="fill:none;stroke:#9da0a2;stroke-width:1.32934;"/>
    <path clip-path="url(#p9603d462a4)" d="M 269.265227 141.922806 
L 269.265228 141.922806 
" style="fill:none;stroke:#9da0a2;stroke-width:1.32934;"/>
    <path clip-path="url(#p9603d462a4)" d="M 282.792499 147.182369 
L 282.792501 147.182369 
" style="fill:none;stroke:#9da0a2;stroke-width:1.32934;"/>
    <path clip-path="url(#p9603d462a4)" d="M 296.319772 132.317333 
L 296.319773 132.317333 
" style="fill:none;stroke:#9da0a2;stroke-width:1.32934;"/>
    <path clip-path="url(#p9603d462a4)" d="M 309.847045 146.689288 
L 309.847046 146.689288 
" style="fill:none;stroke:#9da0a2;stroke-width:1.32934;"/>
    <path clip-path="url(#p9603d462a4)" d="M 323.374317 138.138395 
L 323.374319 138.138395 
" style="fill:none;stroke:#9da0a2;stroke-width:1.32934;"/>
    <path clip-path="url(#p9603d462a4)" d="M 336.90159 140.360479 
L 336.901591 140.360479 
" style="fill:none;stroke:#9da0a2;stroke-width:1.32934;"/>
    <path clip-path="url(#p9603d462a4)" d="M 350.428863 132.441915 
L 350.428864 132.441915 
" style="fill:none;stroke:#9da0a2;stroke-width:1.32934;"/>
    <path clip-path="url(#p9603d462a4)" d="M 363.956135 147.884736 
L 363.956137 147.884736 
" style="fill:none;stroke:#9da0a2;stroke-width:1.32934;"/>
    <path clip-path="url(#p9603d462a4)" d="M 377.483408 143.728643 
L 377.483409 143.728643 
" style="fill:none;stroke:#9da0a2;stroke-width:1.32934;"/>
    <path clip-path="url(#p9603d462a4)" d="M 391.010681 161.484304 
L 391.010682 161.484304 
" style="fill:none;stroke:#9da0a2;stroke-width:1.32934;"/>
    <path clip-path="url(#p9603d462a4)" d="M 404.537953 146.778757 
L 404.537955 146.778757 
" style="fill:none;stroke:#9da0a2;stroke-width:1.32934;"/>
    <path clip-path="url(#p9603d462a4)" d="M 418.065226 129.356494 
L 418.065227 129.356494 
" style="fill:none;stroke:#9da0a2;stroke-width:1.32934;"/>
    <path clip-path="url(#p9603d462a4)" d="M 431.592499 159.532788 
L 431.5925 159.532788 
" style="fill:none;stroke:#9da0a2;stroke-width:1.32934;"/>
    <path clip-path="url(#p9603d462a4)" d="M 445.119772 177.796414 
L 445.119773 177.796414 
" style="fill:none;stroke:#9da0a2;stroke-width:1.32934;"/>
    <path clip-path="url(#p9603d462a4)" d="M 458.647044 217.535103 
L 458.647046 217.535103 
" style="fill:none;stroke:#9da0a2;stroke-width:1.32934;"/>
    <path clip-path="url(#p9603d462a4)" d="M 472.174317 136.975797 
L 472.174318 136.975797 
" style="fill:none;stroke:#9da0a2;stroke-width:1.32934;"/>
    <path clip-path="url(#p9603d462a4)" d="M 485.70159 135.438371 
L 485.701591 135.438371 
" style="fill:none;stroke:#9da0a2;stroke-width:1.32934;"/>
    <path clip-path="url(#p9603d462a4)" d="M 79.88341 68.095093 
L 79.88341 78.316921 
" style="fill:none;stroke:#9da0a2;stroke-width:1.32934;"/>
    <path clip-path="url(#p9603d462a4)" d="M 93.410682 65.310526 
L 93.410682 84.618414 
" style="fill:none;stroke:#9da0a2;stroke-width:1.32934;"/>
    <path clip-path="url(#p9603d462a4)" d="M 106.937955 64.17438 
L 106.937955 78.30064 
" style="fill:none;stroke:#9da0a2;stroke-width:1.32934;"/>
    <path clip-path="url(#p9603d462a4)" d="M 120.465228 61.124796 
L 120.465228 80.166198 
" style="fill:none;stroke:#9da0a2;stroke-width:1.32934;"/>
    <path clip-path="url(#p9603d462a4)" d="M 133.9925 62.186404 
L 133.9925 75.449413 
" style="fill:none;stroke:#9da0a2;stroke-width:1.32934;"/>
    <path clip-path="url(#p9603d462a4)" d="M 147.519773 68.90193 
L 147.519773 81.02291 
" style="fill:none;stroke:#9da0a2;stroke-width:1.32934;"/>
    <path clip-path="url(#p9603d462a4)" d="M 161.047046 80.963606 
L 161.047046 89.952098 
" style="fill:none;stroke:#9da0a2;stroke-width:1.32934;"/>
    <path clip-path="url(#p9603d462a4)" d="M 174.574319 91.324624 
L 174.574319 103.549058 
" style="fill:none;stroke:#9da0a2;stroke-width:1.32934;"/>
    <path clip-path="url(#p9603d462a4)" d="M 188.101591 101.417968 
L 188.101591 112.674907 
" style="fill:none;stroke:#9da0a2;stroke-width:1.32934;"/>
    <path clip-path="url(#p9603d462a4)" d="M 201.628864 109.142908 
L 201.628864 121.044277 
" style="fill:none;stroke:#9da0a2;stroke-width:1.32934;"/>
    <path clip-path="url(#p9603d462a4)" d="M 215.156137 126.352356 
L 215.156137 136.707038 
" style="fill:none;stroke:#9da0a2;stroke-width:1.32934;"/>
    <path clip-path="url(#p9603d462a4)" d="M 228.683409 115.9901 
L 228.683409 129.307437 
" style="fill:none;stroke:#9da0a2;stroke-width:1.32934;"/>
    <path clip-path="url(#p9603d462a4)" d="M 242.210682 124.328535 
L 242.210682 135.909861 
" style="fill:none;stroke:#9da0a2;stroke-width:1.32934;"/>
    <path clip-path="url(#p9603d462a4)" d="M 255.737955 122.408679 
L 255.737955 137.488746 
" style="fill:none;stroke:#9da0a2;stroke-width:1.32934;"/>
    <path clip-path="url(#p9603d462a4)" d="M 269.265227 141.922806 
L 269.265227 153.015022 
" style="fill:none;stroke:#9da0a2;stroke-width:1.32934;"/>
    <path clip-path="url(#p9603d462a4)" d="M 282.7925 147.182369 
L 282.7925 159.639721 
" style="fill:none;stroke:#9da0a2;stroke-width:1.32934;"/>
    <path clip-path="url(#p9603d462a4)" d="M 296.319773 132.317333 
L 296.319773 145.570933 
" style="fill:none;stroke:#9da0a2;stroke-width:1.32934;"/>
    <path clip-path="url(#p9603d462a4)" d="M 309.847045 146.689288 
L 309.847045 159.946421 
" style="fill:none;stroke:#9da0a2;stroke-width:1.32934;"/>
    <path clip-path="url(#p9603d462a4)" d="M 323.374318 138.138395 
L 323.374318 149.662048 
" style="fill:none;stroke:#9da0a2;stroke-width:1.32934;"/>
    <path clip-path="url(#p9603d462a4)" d="M 336.901591 140.360479 
L 336.901591 154.033543 
" style="fill:none;stroke:#9da0a2;stroke-width:1.32934;"/>
    <path clip-path="url(#p9603d462a4)" d="M 350.428863 132.441915 
L 350.428863 143.744685 
" style="fill:none;stroke:#9da0a2;stroke-width:1.32934;"/>
    <path clip-path="url(#p9603d462a4)" d="M 363.956136 147.884736 
L 363.956136 161.418026 
" style="fill:none;stroke:#9da0a2;stroke-width:1.32934;"/>
    <path clip-path="url(#p9603d462a4)" d="M 377.483409 143.728643 
L 377.483409 165.970303 
" style="fill:none;stroke:#9da0a2;stroke-width:1.32934;"/>
    <path clip-path="url(#p9603d462a4)" d="M 391.010681 161.484304 
L 391.010681 181.199912 
" style="fill:none;stroke:#9da0a2;stroke-width:1.32934;"/>
    <path clip-path="url(#p9603d462a4)" d="M 404.537954 146.778757 
L 404.537954 188.154292 
" style="fill:none;stroke:#9da0a2;stroke-width:1.32934;"/>
    <path clip-path="url(#p9603d462a4)" d="M 418.065227 129.356494 
L 418.065227 182.117715 
" style="fill:none;stroke:#9da0a2;stroke-width:1.32934;"/>
    <path clip-path="url(#p9603d462a4)" d="M 431.5925 159.532788 
L 431.5925 202.17331 
" style="fill:none;stroke:#9da0a2;stroke-width:1.32934;"/>
    <path clip-path="url(#p9603d462a4)" d="M 445.119772 177.796414 
L 445.119772 202.872725 
" style="fill:none;stroke:#9da0a2;stroke-width:1.32934;"/>
    <path clip-path="url(#p9603d462a4)" d="M 458.647045 217.535103 
L 458.647045 218.74551 
" style="fill:none;stroke:#9da0a2;stroke-width:1.32934;"/>
    <path clip-path="url(#p9603d462a4)" d="M 472.174318 136.975797 
L 472.174318 145.314156 
" style="fill:none;stroke:#9da0a2;stroke-width:1.32934;"/>
    <path clip-path="url(#p9603d462a4)" d="M 485.70159 135.438371 
L 485.70159 167.522643 
" style="fill:none;stroke:#9da0a2;stroke-width:1.32934;"/>
   </g>
   <g id="line2d_17">
    <path clip-path="url(#p9603d462a4)" d="M 79.88341 73.206007 
L 93.410682 74.96447 
L 106.937955 71.23751 
L 120.465228 70.645497 
L 133.9925 68.817909 
L 147.519773 74.96242 
L 161.047046 85.457852 
L 174.574319 97.436841 
L 188.101591 107.046437 
L 201.628864 115.093593 
L 215.156137 131.529697 
L 228.683409 122.648769 
L 242.210682 130.119198 
L 255.737955 129.948712 
L 269.265227 147.468914 
L 282.7925 153.411045 
L 296.319773 138.944133 
L 309.847045 153.317855 
L 323.374318 143.900221 
L 336.901591 147.197011 
L 350.428863 138.0933 
L 363.956136 154.651381 
L 377.483409 154.849473 
L 391.010681 171.342108 
L 404.537954 167.466524 
L 418.065227 155.737105 
L 431.5925 180.853049 
L 445.119772 190.33457 
L 458.647045 218.140307 
L 472.174318 141.144977 
L 485.70159 151.480507 
" style="fill:none;stroke:#0077bb;stroke-width:0.886227;"/>
   </g>
   <g id="patch_3">
    <path d="M 59.5925 228.96 
L 59.5925 7.2 
" style="fill:none;stroke:#000000;stroke-linecap:square;stroke-linejoin:miter;"/>
   </g>
   <g id="patch_4">
    <path d="M 59.5925 228.96 
L 505.9925 228.96 
" style="fill:none;stroke:#000000;stroke-linecap:square;stroke-linejoin:miter;"/>
   </g>
   <g id="PathCollection_1">
    <path clip-path="url(#p9603d462a4)" d="M 79.88341 74.97846 
C 80.35347 74.97846 80.804341 74.791704 81.136724 74.459321 
C 81.469107 74.126938 81.655864 73.676067 81.655864 73.206007 
C 81.655864 72.735946 81.469107 72.285075 81.136724 71.952692 
C 80.804341 71.62031 80.35347 71.433553 79.88341 71.433553 
C 79.41335 71.433553 78.962478 71.62031 78.630096 71.952692 
C 78.297713 72.285075 78.110956 72.735946 78.110956 73.206007 
C 78.110956 73.676067 78.297713 74.126938 78.630096 74.459321 
C 78.962478 74.791704 79.41335 74.97846 79.88341 74.97846 
z
" style="fill:#0077bb;stroke:#0077bb;stroke-width:0.886227;"/>
    <path clip-path="url(#p9603d462a4)" d="M 93.410682 76.736924 
C 93.880743 76.736924 94.331614 76.550167 94.663997 76.217784 
C 94.996379 75.885401 95.183136 75.43453 95.183136 74.96447 
C 95.183136 74.49441 94.996379 74.043539 94.663997 73.711156 
C 94.331614 73.378773 93.880743 73.192016 93.410682 73.192016 
C 92.940622 73.192016 92.489751 73.378773 92.157368 73.711156 
C 91.824986 74.043539 91.638229 74.49441 91.638229 74.96447 
C 91.638229 75.43453 91.824986 75.885401 92.157368 76.217784 
C 92.489751 76.550167 92.940622 76.736924 93.410682 76.736924 
z
" style="fill:#0077bb;stroke:#0077bb;stroke-width:0.886227;"/>
    <path clip-path="url(#p9603d462a4)" d="M 106.937955 73.009964 
C 107.408015 73.009964 107.858886 72.823207 108.191269 72.490824 
C 108.523652 72.158441 108.710409 71.70757 108.710409 71.23751 
C 108.710409 70.76745 108.523652 70.316579 108.191269 69.984196 
C 107.858886 69.651813 107.408015 69.465056 106.937955 69.465056 
C 106.467895 69.465056 106.017024 69.651813 105.684641 69.984196 
C 105.352258 70.316579 105.165501 70.76745 105.165501 71.23751 
C 105.165501 71.70757 105.352258 72.158441 105.684641 72.490824 
C 106.017024 72.823207 106.467895 73.009964 106.937955 73.009964 
z
" style="fill:#0077bb;stroke:#0077bb;stroke-width:0.886227;"/>
    <path clip-path="url(#p9603d462a4)" d="M 120.465228 72.417951 
C 120.935288 72.417951 121.386159 72.231194 121.718542 71.898811 
C 122.050925 71.566428 122.237682 71.115557 122.237682 70.645497 
C 122.237682 70.175437 122.050925 69.724566 121.718542 69.392183 
C 121.386159 69.0598 120.935288 68.873043 120.465228 68.873043 
C 119.995168 68.873043 119.544296 69.0598 119.211914 69.392183 
C 118.879531 69.724566 118.692774 70.175437 118.692774 70.645497 
C 118.692774 71.115557 118.879531 71.566428 119.211914 71.898811 
C 119.544296 72.231194 119.995168 72.417951 120.465228 72.417951 
z
" style="fill:#0077bb;stroke:#0077bb;stroke-width:0.886227;"/>
    <path clip-path="url(#p9603d462a4)" d="M 133.9925 70.590362 
C 134.462561 70.590362 134.913432 70.403606 135.245815 70.071223 
C 135.578197 69.73884 135.764954 69.287969 135.764954 68.817909 
C 135.764954 68.347848 135.578197 67.896977 135.245815 67.564594 
C 134.913432 67.232212 134.462561 67.045455 133.9925 67.045455 
C 133.52244 67.045455 133.071569 67.232212 132.739186 67.564594 
C 132.406804 67.896977 132.220047 68.347848 132.220047 68.817909 
C 132.220047 69.287969 132.406804 69.73884 132.739186 70.071223 
C 133.071569 70.403606 133.52244 70.590362 133.9925 70.590362 
z
" style="fill:#0077bb;stroke:#0077bb;stroke-width:0.886227;"/>
    <path clip-path="url(#p9603d462a4)" d="M 147.519773 76.734874 
C 147.989833 76.734874 148.440705 76.548117 148.773087 76.215734 
C 149.10547 75.883352 149.292227 75.43248 149.292227 74.96242 
C 149.292227 74.49236 149.10547 74.041489 148.773087 73.709106 
C 148.440705 73.376723 147.989833 73.189966 147.519773 73.189966 
C 147.049713 73.189966 146.598842 73.376723 146.266459 73.709106 
C 145.934076 74.041489 145.747319 74.49236 145.747319 74.96242 
C 145.747319 75.43248 145.934076 75.883352 146.266459 76.215734 
C 146.598842 76.548117 147.049713 76.734874 147.519773 76.734874 
z
" style="fill:#0077bb;stroke:#0077bb;stroke-width:0.886227;"/>
    <path clip-path="url(#p9603d462a4)" d="M 161.047046 87.230306 
C 161.517106 87.230306 161.967977 87.043549 162.30036 86.711166 
C 162.632743 86.378783 162.8195 85.927912 162.8195 85.457852 
C 162.8195 84.987792 162.632743 84.536921 162.30036 84.204538 
C 161.967977 83.872155 161.517106 83.685398 161.047046 83.685398 
C 160.576986 83.685398 160.126115 83.872155 159.793732 84.204538 
C 159.461349 84.536921 159.274592 84.987792 159.274592 85.457852 
C 159.274592 85.927912 159.461349 86.378783 159.793732 86.711166 
C 160.126115 87.043549 160.576986 87.230306 161.047046 87.230306 
z
" style="fill:#0077bb;stroke:#0077bb;stroke-width:0.886227;"/>
    <path clip-path="url(#p9603d462a4)" d="M 174.574319 99.209295 
C 175.044379 99.209295 175.49525 99.022538 175.827633 98.690155 
C 176.160015 98.357772 176.346772 97.906901 176.346772 97.436841 
C 176.346772 96.966781 176.160015 96.51591 175.827633 96.183527 
C 175.49525 95.851144 175.044379 95.664387 174.574319 95.664387 
C 174.104258 95.664387 173.653387 95.851144 173.321004 96.183527 
C 172.988622 96.51591 172.801865 96.966781 172.801865 97.436841 
C 172.801865 97.906901 172.988622 98.357772 173.321004 98.690155 
C 173.653387 99.022538 174.104258 99.209295 174.574319 99.209295 
z
" style="fill:#0077bb;stroke:#0077bb;stroke-width:0.886227;"/>
    <path clip-path="url(#p9603d462a4)" d="M 188.101591 108.818891 
C 188.571651 108.818891 189.022523 108.632134 189.354905 108.299752 
C 189.687288 107.967369 189.874045 107.516498 189.874045 107.046437 
C 189.874045 106.576377 189.687288 106.125506 189.354905 105.793123 
C 189.022523 105.46074 188.571651 105.273984 188.101591 105.273984 
C 187.631531 105.273984 187.18066 105.46074 186.848277 105.793123 
C 186.515894 106.125506 186.329137 106.576377 186.329137 107.046437 
C 186.329137 107.516498 186.515894 107.967369 186.848277 108.299752 
C 187.18066 108.632134 187.631531 108.818891 188.101591 108.818891 
z
" style="fill:#0077bb;stroke:#0077bb;stroke-width:0.886227;"/>
    <path clip-path="url(#p9603d462a4)" d="M 201.628864 116.866046 
C 202.098924 116.866046 202.549795 116.67929 202.882178 116.346907 
C 203.214561 116.014524 203.401318 115.563653 203.401318 115.093593 
C 203.401318 114.623532 203.214561 114.172661 202.882178 113.840278 
C 202.549795 113.507896 202.098924 113.321139 201.628864 113.321139 
C 201.158804 113.321139 200.707933 113.507896 200.37555 113.840278 
C 200.043167 114.172661 199.85641 114.623532 199.85641 115.093593 
C 199.85641 115.563653 200.043167 116.014524 200.37555 116.346907 
C 200.707933 116.67929 201.158804 116.866046 201.628864 116.866046 
z
" style="fill:#0077bb;stroke:#0077bb;stroke-width:0.886227;"/>
    <path clip-path="url(#p9603d462a4)" d="M 215.156137 133.302151 
C 215.626197 133.302151 216.077068 133.115394 216.409451 132.783011 
C 216.741834 132.450628 216.92859 131.999757 216.92859 131.529697 
C 216.92859 131.059637 216.741834 130.608766 216.409451 130.276383 
C 216.077068 129.944 215.626197 129.757243 215.156137 129.757243 
C 214.686076 129.757243 214.235205 129.944 213.902822 130.276383 
C 213.57044 130.608766 213.383683 131.059637 213.383683 131.529697 
C 213.383683 131.999757 213.57044 132.450628 213.902822 132.783011 
C 214.235205 133.115394 214.686076 133.302151 215.156137 133.302151 
z
" style="fill:#0077bb;stroke:#0077bb;stroke-width:0.886227;"/>
    <path clip-path="url(#p9603d462a4)" d="M 228.683409 124.421223 
C 229.15347 124.421223 229.604341 124.234466 229.936723 123.902083 
C 230.269106 123.5697 230.455863 123.118829 230.455863 122.648769 
C 230.455863 122.178709 230.269106 121.727838 229.936723 121.395455 
C 229.604341 121.063072 229.15347 120.876315 228.683409 120.876315 
C 228.213349 120.876315 227.762478 121.063072 227.430095 121.395455 
C 227.097712 121.727838 226.910955 122.178709 226.910955 122.648769 
C 226.910955 123.118829 227.097712 123.5697 227.430095 123.902083 
C 227.762478 124.234466 228.213349 124.421223 228.683409 124.421223 
z
" style="fill:#0077bb;stroke:#0077bb;stroke-width:0.886227;"/>
    <path clip-path="url(#p9603d462a4)" d="M 242.210682 131.891652 
C 242.680742 131.891652 243.131613 131.704895 243.463996 131.372512 
C 243.796379 131.040129 243.983136 130.589258 243.983136 130.119198 
C 243.983136 129.649138 243.796379 129.198267 243.463996 128.865884 
C 243.131613 128.533501 242.680742 128.346744 242.210682 128.346744 
C 241.740622 128.346744 241.289751 128.533501 240.957368 128.865884 
C 240.624985 129.198267 240.438228 129.649138 240.438228 130.119198 
C 240.438228 130.589258 240.624985 131.040129 240.957368 131.372512 
C 241.289751 131.704895 241.740622 131.891652 242.210682 131.891652 
z
" style="fill:#0077bb;stroke:#0077bb;stroke-width:0.886227;"/>
    <path clip-path="url(#p9603d462a4)" d="M 255.737955 131.721166 
C 256.208015 131.721166 256.658886 131.534409 256.991269 131.202027 
C 257.323652 130.869644 257.510408 130.418773 257.510408 129.948712 
C 257.510408 129.478652 257.323652 129.027781 256.991269 128.695398 
C 256.658886 128.363016 256.208015 128.176259 255.737955 128.176259 
C 255.267894 128.176259 254.817023 128.363016 254.48464 128.695398 
C 254.152258 129.027781 253.965501 129.478652 253.965501 129.948712 
C 253.965501 130.418773 254.152258 130.869644 254.48464 131.202027 
C 254.817023 131.534409 255.267894 131.721166 255.737955 131.721166 
z
" style="fill:#0077bb;stroke:#0077bb;stroke-width:0.886227;"/>
    <path clip-path="url(#p9603d462a4)" d="M 269.265227 149.241368 
C 269.735288 149.241368 270.186159 149.054611 270.518541 148.722228 
C 270.850924 148.389846 271.037681 147.938975 271.037681 147.468914 
C 271.037681 146.998854 270.850924 146.547983 270.518541 146.2156 
C 270.186159 145.883217 269.735288 145.69646 269.265227 145.69646 
C 268.795167 145.69646 268.344296 145.883217 268.011913 146.2156 
C 267.67953 146.547983 267.492773 146.998854 267.492773 147.468914 
C 267.492773 147.938975 267.67953 148.389846 268.011913 148.722228 
C 268.344296 149.054611 268.795167 149.241368 269.265227 149.241368 
z
" style="fill:#0077bb;stroke:#0077bb;stroke-width:0.886227;"/>
    <path clip-path="url(#p9603d462a4)" d="M 282.7925 155.183499 
C 283.26256 155.183499 283.713431 154.996742 284.045814 154.664359 
C 284.378197 154.331976 284.564954 153.881105 284.564954 153.411045 
C 284.564954 152.940985 284.378197 152.490114 284.045814 152.157731 
C 283.713431 151.825348 283.26256 151.638591 282.7925 151.638591 
C 282.32244 151.638591 281.871569 151.825348 281.539186 152.157731 
C 281.206803 152.490114 281.020046 152.940985 281.020046 153.411045 
C 281.020046 153.881105 281.206803 154.331976 281.539186 154.664359 
C 281.871569 154.996742 282.32244 155.183499 282.7925 155.183499 
z
" style="fill:#0077bb;stroke:#0077bb;stroke-width:0.886227;"/>
    <path clip-path="url(#p9603d462a4)" d="M 296.319773 140.716587 
C 296.789833 140.716587 297.240704 140.52983 297.573087 140.197447 
C 297.90547 139.865064 298.092227 139.414193 298.092227 138.944133 
C 298.092227 138.474073 297.90547 138.023202 297.573087 137.690819 
C 297.240704 137.358436 296.789833 137.171679 296.319773 137.171679 
C 295.849712 137.171679 295.398841 137.358436 295.066459 137.690819 
C 294.734076 138.023202 294.547319 138.474073 294.547319 138.944133 
C 294.547319 139.414193 294.734076 139.865064 295.066459 140.197447 
C 295.398841 140.52983 295.849712 140.716587 296.319773 140.716587 
z
" style="fill:#0077bb;stroke:#0077bb;stroke-width:0.886227;"/>
    <path clip-path="url(#p9603d462a4)" d="M 309.847045 155.090309 
C 310.317106 155.090309 310.767977 154.903552 311.10036 154.571169 
C 311.432742 154.238786 311.619499 153.787915 311.619499 153.317855 
C 311.619499 152.847794 311.432742 152.396923 311.10036 152.064541 
C 310.767977 151.732158 310.317106 151.545401 309.847045 151.545401 
C 309.376985 151.545401 308.926114 151.732158 308.593731 152.064541 
C 308.261348 152.396923 308.074592 152.847794 308.074592 153.317855 
C 308.074592 153.787915 308.261348 154.238786 308.593731 154.571169 
C 308.926114 154.903552 309.376985 155.090309 309.847045 155.090309 
z
" style="fill:#0077bb;stroke:#0077bb;stroke-width:0.886227;"/>
    <path clip-path="url(#p9603d462a4)" d="M 323.374318 145.672675 
C 323.844378 145.672675 324.295249 145.485918 324.627632 145.153536 
C 324.960015 144.821153 325.146772 144.370282 325.146772 143.900221 
C 325.146772 143.430161 324.960015 142.97929 324.627632 142.646907 
C 324.295249 142.314525 323.844378 142.127768 323.374318 142.127768 
C 322.904258 142.127768 322.453387 142.314525 322.121004 142.646907 
C 321.788621 142.97929 321.601864 143.430161 321.601864 143.900221 
C 321.601864 144.370282 321.788621 144.821153 322.121004 145.153536 
C 322.453387 145.485918 322.904258 145.672675 323.374318 145.672675 
z
" style="fill:#0077bb;stroke:#0077bb;stroke-width:0.886227;"/>
    <path clip-path="url(#p9603d462a4)" d="M 336.901591 148.969465 
C 337.371651 148.969465 337.822522 148.782708 338.154905 148.450325 
C 338.487288 148.117943 338.674045 147.667072 338.674045 147.197011 
C 338.674045 146.726951 338.487288 146.27608 338.154905 145.943697 
C 337.822522 145.611314 337.371651 145.424557 336.901591 145.424557 
C 336.43153 145.424557 335.980659 145.611314 335.648277 145.943697 
C 335.315894 146.27608 335.129137 146.726951 335.129137 147.197011 
C 335.129137 147.667072 335.315894 148.117943 335.648277 148.450325 
C 335.980659 148.782708 336.43153 148.969465 336.901591 148.969465 
z
" style="fill:#0077bb;stroke:#0077bb;stroke-width:0.886227;"/>
    <path clip-path="url(#p9603d462a4)" d="M 350.428863 139.865754 
C 350.898924 139.865754 351.349795 139.678997 351.682178 139.346614 
C 352.01456 139.014231 352.201317 138.56336 352.201317 138.0933 
C 352.201317 137.62324 352.01456 137.172369 351.682178 136.839986 
C 351.349795 136.507603 350.898924 136.320846 350.428863 136.320846 
C 349.958803 136.320846 349.507932 136.507603 349.175549 136.839986 
C 348.843166 137.172369 348.65641 137.62324 348.65641 138.0933 
C 348.65641 138.56336 348.843166 139.014231 349.175549 139.346614 
C 349.507932 139.678997 349.958803 139.865754 350.428863 139.865754 
z
" style="fill:#0077bb;stroke:#0077bb;stroke-width:0.886227;"/>
    <path clip-path="url(#p9603d462a4)" d="M 363.956136 156.423835 
C 364.426196 156.423835 364.877067 156.237078 365.20945 155.904695 
C 365.541833 155.572312 365.72859 155.121441 365.72859 154.651381 
C 365.72859 154.181321 365.541833 153.73045 365.20945 153.398067 
C 364.877067 153.065684 364.426196 152.878927 363.956136 152.878927 
C 363.486076 152.878927 363.035205 153.065684 362.702822 153.398067 
C 362.370439 153.73045 362.183682 154.181321 362.183682 154.651381 
C 362.183682 155.121441 362.370439 155.572312 362.702822 155.904695 
C 363.035205 156.237078 363.486076 156.423835 363.956136 156.423835 
z
" style="fill:#0077bb;stroke:#0077bb;stroke-width:0.886227;"/>
    <path clip-path="url(#p9603d462a4)" d="M 377.483409 156.621927 
C 377.953469 156.621927 378.40434 156.43517 378.736723 156.102787 
C 379.069106 155.770404 379.255863 155.319533 379.255863 154.849473 
C 379.255863 154.379413 379.069106 153.928542 378.736723 153.596159 
C 378.40434 153.263776 377.953469 153.077019 377.483409 153.077019 
C 377.013349 153.077019 376.562477 153.263776 376.230095 153.596159 
C 375.897712 153.928542 375.710955 154.379413 375.710955 154.849473 
C 375.710955 155.319533 375.897712 155.770404 376.230095 156.102787 
C 376.562477 156.43517 377.013349 156.621927 377.483409 156.621927 
z
" style="fill:#0077bb;stroke:#0077bb;stroke-width:0.886227;"/>
    <path clip-path="url(#p9603d462a4)" d="M 391.010681 173.114562 
C 391.480742 173.114562 391.931613 172.927805 392.263996 172.595422 
C 392.596378 172.263039 392.783135 171.812168 392.783135 171.342108 
C 392.783135 170.872048 392.596378 170.421177 392.263996 170.088794 
C 391.931613 169.756411 391.480742 169.569654 391.010681 169.569654 
C 390.540621 169.569654 390.08975 169.756411 389.757367 170.088794 
C 389.424985 170.421177 389.238228 170.872048 389.238228 171.342108 
C 389.238228 171.812168 389.424985 172.263039 389.757367 172.595422 
C 390.08975 172.927805 390.540621 173.114562 391.010681 173.114562 
z
" style="fill:#0077bb;stroke:#0077bb;stroke-width:0.886227;"/>
    <path clip-path="url(#p9603d462a4)" d="M 404.537954 169.238978 
C 405.008014 169.238978 405.458885 169.052221 405.791268 168.719838 
C 406.123651 168.387456 406.310408 167.936585 406.310408 167.466524 
C 406.310408 166.996464 406.123651 166.545593 405.791268 166.21321 
C 405.458885 165.880827 405.008014 165.69407 404.537954 165.69407 
C 404.067894 165.69407 403.617023 165.880827 403.28464 166.21321 
C 402.952257 166.545593 402.7655 166.996464 402.7655 167.466524 
C 402.7655 167.936585 402.952257 168.387456 403.28464 168.719838 
C 403.617023 169.052221 404.067894 169.238978 404.537954 169.238978 
z
" style="fill:#0077bb;stroke:#0077bb;stroke-width:0.886227;"/>
    <path clip-path="url(#p9603d462a4)" d="M 418.065227 157.509559 
C 418.535287 157.509559 418.986158 157.322802 419.318541 156.990419 
C 419.650924 156.658036 419.837681 156.207165 419.837681 155.737105 
C 419.837681 155.267044 419.650924 154.816173 419.318541 154.483791 
C 418.986158 154.151408 418.535287 153.964651 418.065227 153.964651 
C 417.595167 153.964651 417.144295 154.151408 416.811913 154.483791 
C 416.47953 154.816173 416.292773 155.267044 416.292773 155.737105 
C 416.292773 156.207165 416.47953 156.658036 416.811913 156.990419 
C 417.144295 157.322802 417.595167 157.509559 418.065227 157.509559 
z
" style="fill:#0077bb;stroke:#0077bb;stroke-width:0.886227;"/>
    <path clip-path="url(#p9603d462a4)" d="M 431.5925 182.625503 
C 432.06256 182.625503 432.513431 182.438746 432.845814 182.106363 
C 433.178196 181.77398 433.364953 181.323109 433.364953 180.853049 
C 433.364953 180.382988 433.178196 179.932117 432.845814 179.599735 
C 432.513431 179.267352 432.06256 179.080595 431.5925 179.080595 
C 431.122439 179.080595 430.671568 179.267352 430.339185 179.599735 
C 430.006803 179.932117 429.820046 180.382988 429.820046 180.853049 
C 429.820046 181.323109 430.006803 181.77398 430.339185 182.106363 
C 430.671568 182.438746 431.122439 182.625503 431.5925 182.625503 
z
" style="fill:#0077bb;stroke:#0077bb;stroke-width:0.886227;"/>
    <path clip-path="url(#p9603d462a4)" d="M 445.119772 192.107024 
C 445.589832 192.107024 446.040704 191.920267 446.373086 191.587884 
C 446.705469 191.255501 446.892226 190.80463 446.892226 190.33457 
C 446.892226 189.864509 446.705469 189.413638 446.373086 189.081256 
C 446.040704 188.748873 445.589832 188.562116 445.119772 188.562116 
C 444.649712 188.562116 444.198841 188.748873 443.866458 189.081256 
C 443.534075 189.413638 443.347318 189.864509 443.347318 190.33457 
C 443.347318 190.80463 443.534075 191.255501 443.866458 191.587884 
C 444.198841 191.920267 444.649712 192.107024 445.119772 192.107024 
z
" style="fill:#0077bb;stroke:#0077bb;stroke-width:0.886227;"/>
    <path clip-path="url(#p9603d462a4)" d="M 458.647045 219.912761 
C 459.117105 219.912761 459.567976 219.726004 459.900359 219.393621 
C 460.232742 219.061238 460.419499 218.610367 460.419499 218.140307 
C 460.419499 217.670247 460.232742 217.219376 459.900359 216.886993 
C 459.567976 216.55461 459.117105 216.367853 458.647045 216.367853 
C 458.176985 216.367853 457.726114 216.55461 457.393731 216.886993 
C 457.061348 217.219376 456.874591 217.670247 456.874591 218.140307 
C 456.874591 218.610367 457.061348 219.061238 457.393731 219.393621 
C 457.726114 219.726004 458.176985 219.912761 458.647045 219.912761 
z
" style="fill:#0077bb;stroke:#0077bb;stroke-width:0.886227;"/>
    <path clip-path="url(#p9603d462a4)" d="M 472.174318 142.917431 
C 472.644378 142.917431 473.095249 142.730674 473.427632 142.398291 
C 473.760014 142.065908 473.946771 141.615037 473.946771 141.144977 
C 473.946771 140.674916 473.760014 140.224045 473.427632 139.891663 
C 473.095249 139.55928 472.644378 139.372523 472.174318 139.372523 
C 471.704257 139.372523 471.253386 139.55928 470.921003 139.891663 
C 470.588621 140.224045 470.401864 140.674916 470.401864 141.144977 
C 470.401864 141.615037 470.588621 142.065908 470.921003 142.398291 
C 471.253386 142.730674 471.704257 142.917431 472.174318 142.917431 
z
" style="fill:#0077bb;stroke:#0077bb;stroke-width:0.886227;"/>
    <path clip-path="url(#p9603d462a4)" d="M 485.70159 153.252961 
C 486.17165 153.252961 486.622522 153.066204 486.954904 152.733821 
C 487.287287 152.401438 487.474044 151.950567 487.474044 151.480507 
C 487.474044 151.010447 487.287287 150.559576 486.954904 150.227193 
C 486.622522 149.89481 486.17165 149.708053 485.70159 149.708053 
C 485.23153 149.708053 484.780659 149.89481 484.448276 150.227193 
C 484.115893 150.559576 483.929136 151.010447 483.929136 151.480507 
C 483.929136 151.950567 484.115893 152.401438 484.448276 152.733821 
C 484.780659 153.066204 485.23153 153.252961 485.70159 153.252961 
z
" style="fill:#0077bb;stroke:#0077bb;stroke-width:0.886227;"/>
   </g>
  </g>
 </g>
 <defs>
  <clipPath id="p9603d462a4">
   <rect height="221.76" width="446.4" x="59.5925" y="7.2"/>
  </clipPath>
 </defs>
</svg>
