<?xml version="1.0" encoding="utf-8" standalone="no"?>
<!DOCTYPE svg PUBLIC "-//W3C//DTD SVG 1.1//EN"
  "http://www.w3.org/Graphics/SVG/1.1/DTD/svg11.dtd">
<!-- Created with matplotlib (https://matplotlib.org/) -->
<svg height="264.672687pt" version="1.1" viewBox="0 0 498.167 264.672687" width="498.167pt" xmlns="http://www.w3.org/2000/svg" xmlns:xlink="http://www.w3.org/1999/xlink">
 <defs>
  <style type="text/css">
*{stroke-linecap:butt;stroke-linejoin:round;}
  </style>
 </defs>
 <g id="figure_1">
  <g id="patch_1">
   <path d="M 0 264.672687 
L 498.167 264.672687 
L 498.167 0 
L 0 0 
z
" style="fill:#ffffff;stroke:#ffffff;stroke-linejoin:miter;"/>
  </g>
  <g id="axes_1">
   <g id="patch_2">
    <path d="M 44.567 228.96 
L 490.967 228.96 
L 490.967 7.2 
L 44.567 7.2 
z
" style="fill:#ffffff;stroke:#7f7f7f;stroke-linejoin:miter;"/>
   </g>
   <g id="matplotlib.axis_1">
    <g id="xtick_1">
     <g id="line2d_1">
      <path clip-path="url(#pf922d17ecf)" d="M 64.857909 228.96 
L 64.857909 7.2 
" style="fill:none;stroke:#e5e5e5;stroke-width:0.8;"/>
     </g>
     <g id="line2d_2">
      <path d="M 64.857909 228.96 
" style="fill:none;stroke:#000000;stroke-width:1.5;"/>
      <defs>
       <path d="M 0 0 
L 0 2.75 
" id="m842789a3be" style="stroke:#000000;"/>
      </defs>
      <g>
       <use style="stroke:#000000;" x="64.857909" xlink:href="#m842789a3be" y="228.96"/>
      </g>
     </g>
     <g id="text_1">
      <!-- 1 -->
      <defs>
       <path d="M 12.40625 8.296875 
L 28.515625 8.296875 
L 28.515625 63.921875 
L 10.984375 60.40625 
L 10.984375 69.390625 
L 28.421875 72.90625 
L 38.28125 72.90625 
L 38.28125 8.296875 
L 54.390625 8.296875 
L 54.390625 0 
L 12.40625 0 
z
" id="DejaVuSans-49"/>
      </defs>
      <g transform="translate(62.058409 240.596625)scale(0.088 -0.088)">
       <use xlink:href="#DejaVuSans-49"/>
      </g>
     </g>
    </g>
    <g id="xtick_2">
     <g id="line2d_3">
      <path clip-path="url(#pf922d17ecf)" d="M 200.130636 228.96 
L 200.130636 7.2 
" style="fill:none;stroke:#e5e5e5;stroke-width:0.8;"/>
     </g>
     <g id="line2d_4">
      <path d="M 200.130636 228.96 
" style="fill:none;stroke:#000000;stroke-width:1.5;"/>
      <g>
       <use style="stroke:#000000;" x="200.130636" xlink:href="#m842789a3be" y="228.96"/>
      </g>
     </g>
     <g id="text_2">
      <!-- 2 -->
      <defs>
       <path d="M 19.1875 8.296875 
L 53.609375 8.296875 
L 53.609375 0 
L 7.328125 0 
L 7.328125 8.296875 
Q 12.9375 14.109375 22.625 23.890625 
Q 32.328125 33.6875 34.8125 36.53125 
Q 39.546875 41.84375 41.421875 45.53125 
Q 43.3125 49.21875 43.3125 52.78125 
Q 43.3125 58.59375 39.234375 62.25 
Q 35.15625 65.921875 28.609375 65.921875 
Q 23.96875 65.921875 18.8125 64.3125 
Q 13.671875 62.703125 7.8125 59.421875 
L 7.8125 69.390625 
Q 13.765625 71.78125 18.9375 73 
Q 24.125 74.21875 28.421875 74.21875 
Q 39.75 74.21875 46.484375 68.546875 
Q 53.21875 62.890625 53.21875 53.421875 
Q 53.21875 48.921875 51.53125 44.890625 
Q 49.859375 40.875 45.40625 35.40625 
Q 44.1875 33.984375 37.640625 27.21875 
Q 31.109375 20.453125 19.1875 8.296875 
z
" id="DejaVuSans-50"/>
      </defs>
      <g transform="translate(197.331136 240.596625)scale(0.088 -0.088)">
       <use xlink:href="#DejaVuSans-50"/>
      </g>
     </g>
    </g>
    <g id="xtick_3">
     <g id="line2d_5">
      <path clip-path="url(#pf922d17ecf)" d="M 335.403364 228.96 
L 335.403364 7.2 
" style="fill:none;stroke:#e5e5e5;stroke-width:0.8;"/>
     </g>
     <g id="line2d_6">
      <path d="M 335.403364 228.96 
" style="fill:none;stroke:#000000;stroke-width:1.5;"/>
      <g>
       <use style="stroke:#000000;" x="335.403364" xlink:href="#m842789a3be" y="228.96"/>
      </g>
     </g>
     <g id="text_3">
      <!-- 3 -->
      <defs>
       <path d="M 40.578125 39.3125 
Q 47.65625 37.796875 51.625 33 
Q 55.609375 28.21875 55.609375 21.1875 
Q 55.609375 10.40625 48.1875 4.484375 
Q 40.765625 -1.421875 27.09375 -1.421875 
Q 22.515625 -1.421875 17.65625 -0.515625 
Q 12.796875 0.390625 7.625 2.203125 
L 7.625 11.71875 
Q 11.71875 9.328125 16.59375 8.109375 
Q 21.484375 6.890625 26.8125 6.890625 
Q 36.078125 6.890625 40.9375 10.546875 
Q 45.796875 14.203125 45.796875 21.1875 
Q 45.796875 27.640625 41.28125 31.265625 
Q 36.765625 34.90625 28.71875 34.90625 
L 20.21875 34.90625 
L 20.21875 43.015625 
L 29.109375 43.015625 
Q 36.375 43.015625 40.234375 45.921875 
Q 44.09375 48.828125 44.09375 54.296875 
Q 44.09375 59.90625 40.109375 62.90625 
Q 36.140625 65.921875 28.71875 65.921875 
Q 24.65625 65.921875 20.015625 65.03125 
Q 15.375 64.15625 9.8125 62.3125 
L 9.8125 71.09375 
Q 15.4375 72.65625 20.34375 73.4375 
Q 25.25 74.21875 29.59375 74.21875 
Q 40.828125 74.21875 47.359375 69.109375 
Q 53.90625 64.015625 53.90625 55.328125 
Q 53.90625 49.265625 50.4375 45.09375 
Q 46.96875 40.921875 40.578125 39.3125 
z
" id="DejaVuSans-51"/>
      </defs>
      <g transform="translate(332.603864 240.596625)scale(0.088 -0.088)">
       <use xlink:href="#DejaVuSans-51"/>
      </g>
     </g>
    </g>
    <g id="xtick_4">
     <g id="line2d_7">
      <path clip-path="url(#pf922d17ecf)" d="M 470.676091 228.96 
L 470.676091 7.2 
" style="fill:none;stroke:#e5e5e5;stroke-width:0.8;"/>
     </g>
     <g id="line2d_8">
      <path d="M 470.676091 228.96 
" style="fill:none;stroke:#000000;stroke-width:1.5;"/>
      <g>
       <use style="stroke:#000000;" x="470.676091" xlink:href="#m842789a3be" y="228.96"/>
      </g>
     </g>
     <g id="text_4">
      <!-- 4 -->
      <defs>
       <path d="M 37.796875 64.3125 
L 12.890625 25.390625 
L 37.796875 25.390625 
z
M 35.203125 72.90625 
L 47.609375 72.90625 
L 47.609375 25.390625 
L 58.015625 25.390625 
L 58.015625 17.1875 
L 47.609375 17.1875 
L 47.609375 0 
L 37.796875 0 
L 37.796875 17.1875 
L 4.890625 17.1875 
L 4.890625 26.703125 
z
" id="DejaVuSans-52"/>
      </defs>
      <g transform="translate(467.876591 240.596625)scale(0.088 -0.088)">
       <use xlink:href="#DejaVuSans-52"/>
      </g>
     </g>
    </g>
    <g id="xtick_5">
     <g id="line2d_9">
      <path clip-path="url(#pf922d17ecf)" d="M 132.494273 228.96 
L 132.494273 7.2 
" style="fill:none;stroke:#fafafa;"/>
     </g>
     <g id="line2d_10">
      <path d="M 132.494273 228.96 
" style="fill:none;stroke:#000000;stroke-width:1.5;"/>
      <defs>
       <path d="M 0 0 
L 0 1.375 
" id="m228764f815" style="stroke:#000000;"/>
      </defs>
      <g>
       <use style="stroke:#000000;" x="132.494273" xlink:href="#m228764f815" y="228.96"/>
      </g>
     </g>
    </g>
    <g id="xtick_6">
     <g id="line2d_11">
      <path clip-path="url(#pf922d17ecf)" d="M 267.767 228.96 
L 267.767 7.2 
" style="fill:none;stroke:#fafafa;"/>
     </g>
     <g id="line2d_12">
      <path d="M 267.767 228.96 
" style="fill:none;stroke:#000000;stroke-width:1.5;"/>
      <g>
       <use style="stroke:#000000;" x="267.767" xlink:href="#m228764f815" y="228.96"/>
      </g>
     </g>
    </g>
    <g id="xtick_7">
     <g id="line2d_13">
      <path clip-path="url(#pf922d17ecf)" d="M 403.039727 228.96 
L 403.039727 7.2 
" style="fill:none;stroke:#fafafa;"/>
     </g>
     <g id="line2d_14">
      <path d="M 403.039727 228.96 
" style="fill:none;stroke:#000000;stroke-width:1.5;"/>
      <g>
       <use style="stroke:#000000;" x="403.039727" xlink:href="#m228764f815" y="228.96"/>
      </g>
     </g>
    </g>
    <g id="text_5">
     <!-- Resolution -->
     <defs>
      <path d="M 44.390625 34.1875 
Q 47.5625 33.109375 50.5625 29.59375 
Q 53.5625 26.078125 56.59375 19.921875 
L 66.609375 0 
L 56 0 
L 46.6875 18.703125 
Q 43.0625 26.03125 39.671875 28.421875 
Q 36.28125 30.8125 30.421875 30.8125 
L 19.671875 30.8125 
L 19.671875 0 
L 9.8125 0 
L 9.8125 72.90625 
L 32.078125 72.90625 
Q 44.578125 72.90625 50.734375 67.671875 
Q 56.890625 62.453125 56.890625 51.90625 
Q 56.890625 45.015625 53.6875 40.46875 
Q 50.484375 35.9375 44.390625 34.1875 
z
M 19.671875 64.796875 
L 19.671875 38.921875 
L 32.078125 38.921875 
Q 39.203125 38.921875 42.84375 42.21875 
Q 46.484375 45.515625 46.484375 51.90625 
Q 46.484375 58.296875 42.84375 61.546875 
Q 39.203125 64.796875 32.078125 64.796875 
z
" id="DejaVuSans-82"/>
      <path d="M 56.203125 29.59375 
L 56.203125 25.203125 
L 14.890625 25.203125 
Q 15.484375 15.921875 20.484375 11.0625 
Q 25.484375 6.203125 34.421875 6.203125 
Q 39.59375 6.203125 44.453125 7.46875 
Q 49.3125 8.734375 54.109375 11.28125 
L 54.109375 2.78125 
Q 49.265625 0.734375 44.1875 -0.34375 
Q 39.109375 -1.421875 33.890625 -1.421875 
Q 20.796875 -1.421875 13.15625 6.1875 
Q 5.515625 13.8125 5.515625 26.8125 
Q 5.515625 40.234375 12.765625 48.109375 
Q 20.015625 56 32.328125 56 
Q 43.359375 56 49.78125 48.890625 
Q 56.203125 41.796875 56.203125 29.59375 
z
M 47.21875 32.234375 
Q 47.125 39.59375 43.09375 43.984375 
Q 39.0625 48.390625 32.421875 48.390625 
Q 24.90625 48.390625 20.390625 44.140625 
Q 15.875 39.890625 15.1875 32.171875 
z
" id="DejaVuSans-101"/>
      <path d="M 44.28125 53.078125 
L 44.28125 44.578125 
Q 40.484375 46.53125 36.375 47.5 
Q 32.28125 48.484375 27.875 48.484375 
Q 21.1875 48.484375 17.84375 46.4375 
Q 14.5 44.390625 14.5 40.28125 
Q 14.5 37.15625 16.890625 35.375 
Q 19.28125 33.59375 26.515625 31.984375 
L 29.59375 31.296875 
Q 39.15625 29.25 43.1875 25.515625 
Q 47.21875 21.78125 47.21875 15.09375 
Q 47.21875 7.46875 41.1875 3.015625 
Q 35.15625 -1.421875 24.609375 -1.421875 
Q 20.21875 -1.421875 15.453125 -0.5625 
Q 10.6875 0.296875 5.421875 2 
L 5.421875 11.28125 
Q 10.40625 8.6875 15.234375 7.390625 
Q 20.0625 6.109375 24.8125 6.109375 
Q 31.15625 6.109375 34.5625 8.28125 
Q 37.984375 10.453125 37.984375 14.40625 
Q 37.984375 18.0625 35.515625 20.015625 
Q 33.0625 21.96875 24.703125 23.78125 
L 21.578125 24.515625 
Q 13.234375 26.265625 9.515625 29.90625 
Q 5.8125 33.546875 5.8125 39.890625 
Q 5.8125 47.609375 11.28125 51.796875 
Q 16.75 56 26.8125 56 
Q 31.78125 56 36.171875 55.265625 
Q 40.578125 54.546875 44.28125 53.078125 
z
" id="DejaVuSans-115"/>
      <path d="M 30.609375 48.390625 
Q 23.390625 48.390625 19.1875 42.75 
Q 14.984375 37.109375 14.984375 27.296875 
Q 14.984375 17.484375 19.15625 11.84375 
Q 23.34375 6.203125 30.609375 6.203125 
Q 37.796875 6.203125 41.984375 11.859375 
Q 46.1875 17.53125 46.1875 27.296875 
Q 46.1875 37.015625 41.984375 42.703125 
Q 37.796875 48.390625 30.609375 48.390625 
z
M 30.609375 56 
Q 42.328125 56 49.015625 48.375 
Q 55.71875 40.765625 55.71875 27.296875 
Q 55.71875 13.875 49.015625 6.21875 
Q 42.328125 -1.421875 30.609375 -1.421875 
Q 18.84375 -1.421875 12.171875 6.21875 
Q 5.515625 13.875 5.515625 27.296875 
Q 5.515625 40.765625 12.171875 48.375 
Q 18.84375 56 30.609375 56 
z
" id="DejaVuSans-111"/>
      <path d="M 9.421875 75.984375 
L 18.40625 75.984375 
L 18.40625 0 
L 9.421875 0 
z
" id="DejaVuSans-108"/>
      <path d="M 8.5 21.578125 
L 8.5 54.6875 
L 17.484375 54.6875 
L 17.484375 21.921875 
Q 17.484375 14.15625 20.5 10.265625 
Q 23.53125 6.390625 29.59375 6.390625 
Q 36.859375 6.390625 41.078125 11.03125 
Q 45.3125 15.671875 45.3125 23.6875 
L 45.3125 54.6875 
L 54.296875 54.6875 
L 54.296875 0 
L 45.3125 0 
L 45.3125 8.40625 
Q 42.046875 3.421875 37.71875 1 
Q 33.40625 -1.421875 27.6875 -1.421875 
Q 18.265625 -1.421875 13.375 4.4375 
Q 8.5 10.296875 8.5 21.578125 
z
M 31.109375 56 
z
" id="DejaVuSans-117"/>
      <path d="M 18.3125 70.21875 
L 18.3125 54.6875 
L 36.8125 54.6875 
L 36.8125 47.703125 
L 18.3125 47.703125 
L 18.3125 18.015625 
Q 18.3125 11.328125 20.140625 9.421875 
Q 21.96875 7.515625 27.59375 7.515625 
L 36.8125 7.515625 
L 36.8125 0 
L 27.59375 0 
Q 17.1875 0 13.234375 3.875 
Q 9.28125 7.765625 9.28125 18.015625 
L 9.28125 47.703125 
L 2.6875 47.703125 
L 2.6875 54.6875 
L 9.28125 54.6875 
L 9.28125 70.21875 
z
" id="DejaVuSans-116"/>
      <path d="M 9.421875 54.6875 
L 18.40625 54.6875 
L 18.40625 0 
L 9.421875 0 
z
M 9.421875 75.984375 
L 18.40625 75.984375 
L 18.40625 64.59375 
L 9.421875 64.59375 
z
" id="DejaVuSans-105"/>
      <path d="M 54.890625 33.015625 
L 54.890625 0 
L 45.90625 0 
L 45.90625 32.71875 
Q 45.90625 40.484375 42.875 44.328125 
Q 39.84375 48.1875 33.796875 48.1875 
Q 26.515625 48.1875 22.3125 43.546875 
Q 18.109375 38.921875 18.109375 30.90625 
L 18.109375 0 
L 9.078125 0 
L 9.078125 54.6875 
L 18.109375 54.6875 
L 18.109375 46.1875 
Q 21.34375 51.125 25.703125 53.5625 
Q 30.078125 56 35.796875 56 
Q 45.21875 56 50.046875 50.171875 
Q 54.890625 44.34375 54.890625 33.015625 
z
" id="DejaVuSans-110"/>
     </defs>
     <g transform="translate(231.585438 255.185031)scale(0.11 -0.11)">
      <use xlink:href="#DejaVuSans-82"/>
      <use x="69.419922" xlink:href="#DejaVuSans-101"/>
      <use x="130.943359" xlink:href="#DejaVuSans-115"/>
      <use x="183.042969" xlink:href="#DejaVuSans-111"/>
      <use x="244.224609" xlink:href="#DejaVuSans-108"/>
      <use x="272.007812" xlink:href="#DejaVuSans-117"/>
      <use x="335.386719" xlink:href="#DejaVuSans-116"/>
      <use x="374.595703" xlink:href="#DejaVuSans-105"/>
      <use x="402.378906" xlink:href="#DejaVuSans-111"/>
      <use x="463.560547" xlink:href="#DejaVuSans-110"/>
     </g>
    </g>
   </g>
   <g id="matplotlib.axis_2">
    <g id="ytick_1">
     <g id="line2d_15">
      <path clip-path="url(#pf922d17ecf)" d="M 44.567 218.88 
L 490.967 218.88 
" style="fill:none;stroke:#e5e5e5;stroke-width:0.8;"/>
     </g>
     <g id="line2d_16">
      <path d="M 44.567 218.88 
" style="fill:none;stroke:#000000;stroke-width:1.5;"/>
      <defs>
       <path d="M 0 0 
L -2.75 0 
" id="m302084d160" style="stroke:#000000;"/>
      </defs>
      <g>
       <use style="stroke:#000000;" x="44.567" xlink:href="#m302084d160" y="218.88"/>
      </g>
     </g>
     <g id="text_6">
      <!-- 0 -->
      <defs>
       <path d="M 31.78125 66.40625 
Q 24.171875 66.40625 20.328125 58.90625 
Q 16.5 51.421875 16.5 36.375 
Q 16.5 21.390625 20.328125 13.890625 
Q 24.171875 6.390625 31.78125 6.390625 
Q 39.453125 6.390625 43.28125 13.890625 
Q 47.125 21.390625 47.125 36.375 
Q 47.125 51.421875 43.28125 58.90625 
Q 39.453125 66.40625 31.78125 66.40625 
z
M 31.78125 74.21875 
Q 44.046875 74.21875 50.515625 64.515625 
Q 56.984375 54.828125 56.984375 36.375 
Q 56.984375 17.96875 50.515625 8.265625 
Q 44.046875 -1.421875 31.78125 -1.421875 
Q 19.53125 -1.421875 13.0625 8.265625 
Q 6.59375 17.96875 6.59375 36.375 
Q 6.59375 54.828125 13.0625 64.515625 
Q 19.53125 74.21875 31.78125 74.21875 
z
" id="DejaVuSans-48"/>
      </defs>
      <g transform="translate(34.018 221.30825)scale(0.088 -0.088)">
       <use xlink:href="#DejaVuSans-48"/>
      </g>
     </g>
    </g>
    <g id="ytick_2">
     <g id="line2d_17">
      <path clip-path="url(#pf922d17ecf)" d="M 44.567 168.48 
L 490.967 168.48 
" style="fill:none;stroke:#e5e5e5;stroke-width:0.8;"/>
     </g>
     <g id="line2d_18">
      <path d="M 44.567 168.48 
" style="fill:none;stroke:#000000;stroke-width:1.5;"/>
      <g>
       <use style="stroke:#000000;" x="44.567" xlink:href="#m302084d160" y="168.48"/>
      </g>
     </g>
     <g id="text_7">
      <!-- 25 -->
      <defs>
       <path d="M 10.796875 72.90625 
L 49.515625 72.90625 
L 49.515625 64.59375 
L 19.828125 64.59375 
L 19.828125 46.734375 
Q 21.96875 47.46875 24.109375 47.828125 
Q 26.265625 48.1875 28.421875 48.1875 
Q 40.625 48.1875 47.75 41.5 
Q 54.890625 34.8125 54.890625 23.390625 
Q 54.890625 11.625 47.5625 5.09375 
Q 40.234375 -1.421875 26.90625 -1.421875 
Q 22.3125 -1.421875 17.546875 -0.640625 
Q 12.796875 0.140625 7.71875 1.703125 
L 7.71875 11.625 
Q 12.109375 9.234375 16.796875 8.0625 
Q 21.484375 6.890625 26.703125 6.890625 
Q 35.15625 6.890625 40.078125 11.328125 
Q 45.015625 15.765625 45.015625 23.390625 
Q 45.015625 31 40.078125 35.4375 
Q 35.15625 39.890625 26.703125 39.890625 
Q 22.75 39.890625 18.8125 39.015625 
Q 14.890625 38.140625 10.796875 36.28125 
z
" id="DejaVuSans-53"/>
      </defs>
      <g transform="translate(28.419 170.90825)scale(0.088 -0.088)">
       <use xlink:href="#DejaVuSans-50"/>
       <use x="63.623047" xlink:href="#DejaVuSans-53"/>
      </g>
     </g>
    </g>
    <g id="ytick_3">
     <g id="line2d_19">
      <path clip-path="url(#pf922d17ecf)" d="M 44.567 118.08 
L 490.967 118.08 
" style="fill:none;stroke:#e5e5e5;stroke-width:0.8;"/>
     </g>
     <g id="line2d_20">
      <path d="M 44.567 118.08 
" style="fill:none;stroke:#000000;stroke-width:1.5;"/>
      <g>
       <use style="stroke:#000000;" x="44.567" xlink:href="#m302084d160" y="118.08"/>
      </g>
     </g>
     <g id="text_8">
      <!-- 50 -->
      <g transform="translate(28.419 120.50825)scale(0.088 -0.088)">
       <use xlink:href="#DejaVuSans-53"/>
       <use x="63.623047" xlink:href="#DejaVuSans-48"/>
      </g>
     </g>
    </g>
    <g id="ytick_4">
     <g id="line2d_21">
      <path clip-path="url(#pf922d17ecf)" d="M 44.567 67.68 
L 490.967 67.68 
" style="fill:none;stroke:#e5e5e5;stroke-width:0.8;"/>
     </g>
     <g id="line2d_22">
      <path d="M 44.567 67.68 
" style="fill:none;stroke:#000000;stroke-width:1.5;"/>
      <g>
       <use style="stroke:#000000;" x="44.567" xlink:href="#m302084d160" y="67.68"/>
      </g>
     </g>
     <g id="text_9">
      <!-- 75 -->
      <defs>
       <path d="M 8.203125 72.90625 
L 55.078125 72.90625 
L 55.078125 68.703125 
L 28.609375 0 
L 18.3125 0 
L 43.21875 64.59375 
L 8.203125 64.59375 
z
" id="DejaVuSans-55"/>
      </defs>
      <g transform="translate(28.419 70.10825)scale(0.088 -0.088)">
       <use xlink:href="#DejaVuSans-55"/>
       <use x="63.623047" xlink:href="#DejaVuSans-53"/>
      </g>
     </g>
    </g>
    <g id="ytick_5">
     <g id="line2d_23">
      <path clip-path="url(#pf922d17ecf)" d="M 44.567 17.28 
L 490.967 17.28 
" style="fill:none;stroke:#e5e5e5;stroke-width:0.8;"/>
     </g>
     <g id="line2d_24">
      <path d="M 44.567 17.28 
" style="fill:none;stroke:#000000;stroke-width:1.5;"/>
      <g>
       <use style="stroke:#000000;" x="44.567" xlink:href="#m302084d160" y="17.28"/>
      </g>
     </g>
     <g id="text_10">
      <!-- 100 -->
      <g transform="translate(22.82 19.70825)scale(0.088 -0.088)">
       <use xlink:href="#DejaVuSans-49"/>
       <use x="63.623047" xlink:href="#DejaVuSans-48"/>
       <use x="127.246094" xlink:href="#DejaVuSans-48"/>
      </g>
     </g>
    </g>
    <g id="ytick_6">
     <g id="line2d_25">
      <path clip-path="url(#pf922d17ecf)" d="M 44.567 193.68 
L 490.967 193.68 
" style="fill:none;stroke:#fafafa;"/>
     </g>
     <g id="line2d_26">
      <path d="M 44.567 193.68 
" style="fill:none;stroke:#000000;stroke-width:1.5;"/>
      <defs>
       <path d="M 0 0 
L -1.375 0 
" id="mafa1f92231" style="stroke:#000000;"/>
      </defs>
      <g>
       <use style="stroke:#000000;" x="44.567" xlink:href="#mafa1f92231" y="193.68"/>
      </g>
     </g>
    </g>
    <g id="ytick_7">
     <g id="line2d_27">
      <path clip-path="url(#pf922d17ecf)" d="M 44.567 143.28 
L 490.967 143.28 
" style="fill:none;stroke:#fafafa;"/>
     </g>
     <g id="line2d_28">
      <path d="M 44.567 143.28 
" style="fill:none;stroke:#000000;stroke-width:1.5;"/>
      <g>
       <use style="stroke:#000000;" x="44.567" xlink:href="#mafa1f92231" y="143.28"/>
      </g>
     </g>
    </g>
    <g id="ytick_8">
     <g id="line2d_29">
      <path clip-path="url(#pf922d17ecf)" d="M 44.567 92.88 
L 490.967 92.88 
" style="fill:none;stroke:#fafafa;"/>
     </g>
     <g id="line2d_30">
      <path d="M 44.567 92.88 
" style="fill:none;stroke:#000000;stroke-width:1.5;"/>
      <g>
       <use style="stroke:#000000;" x="44.567" xlink:href="#mafa1f92231" y="92.88"/>
      </g>
     </g>
    </g>
    <g id="ytick_9">
     <g id="line2d_31">
      <path clip-path="url(#pf922d17ecf)" d="M 44.567 42.48 
L 490.967 42.48 
" style="fill:none;stroke:#fafafa;"/>
     </g>
     <g id="line2d_32">
      <path d="M 44.567 42.48 
" style="fill:none;stroke:#000000;stroke-width:1.5;"/>
      <g>
       <use style="stroke:#000000;" x="44.567" xlink:href="#mafa1f92231" y="42.48"/>
      </g>
     </g>
    </g>
    <g id="text_11">
     <!-- $P_{Q1N}$ [%] -->
     <defs>
      <path d="M 16.890625 72.90625 
L 39.703125 72.90625 
Q 49.65625 72.90625 54.875 68.265625 
Q 60.109375 63.625 60.109375 54.6875 
Q 60.109375 42.671875 52.390625 35.984375 
Q 44.671875 29.296875 30.71875 29.296875 
L 18.3125 29.296875 
L 12.59375 0 
L 2.6875 0 
z
M 25.203125 64.796875 
L 19.921875 37.40625 
L 32.328125 37.40625 
Q 40.71875 37.40625 45.203125 41.703125 
Q 49.703125 46 49.703125 54 
Q 49.703125 59.125 46.65625 61.953125 
Q 43.609375 64.796875 38.09375 64.796875 
z
" id="DejaVuSans-Oblique-80"/>
      <path d="M 36.078125 -1.3125 
Q 35.546875 -1.375 34.953125 -1.390625 
Q 34.375 -1.421875 33.203125 -1.421875 
Q 19.53125 -1.421875 11.8125 6.421875 
Q 4.109375 14.265625 4.109375 28.078125 
Q 4.109375 36.234375 7.0625 44.4375 
Q 10.015625 52.640625 15.28125 59.1875 
Q 21.390625 66.703125 29.03125 70.453125 
Q 36.671875 74.21875 45.90625 74.21875 
Q 59.28125 74.21875 66.984375 66.328125 
Q 74.703125 58.453125 74.703125 44.828125 
Q 74.703125 30.125 66.640625 17.921875 
Q 58.59375 5.71875 45.609375 0.6875 
L 55.515625 -12.890625 
L 44.484375 -12.890625 
z
M 45.609375 66.21875 
Q 37.5 66.21875 31.296875 62.28125 
Q 25.09375 58.34375 20.515625 50.296875 
Q 17.578125 45.171875 16.03125 39.40625 
Q 14.5 33.640625 14.5 27.78125 
Q 14.5 17.625 19.359375 12.109375 
Q 24.21875 6.59375 33.109375 6.59375 
Q 41.109375 6.59375 47.375 10.5625 
Q 53.65625 14.546875 58.109375 22.40625 
Q 61.078125 27.6875 62.640625 33.46875 
Q 64.203125 39.265625 64.203125 45.015625 
Q 64.203125 55.125 59.3125 60.671875 
Q 54.4375 66.21875 45.609375 66.21875 
z
" id="DejaVuSans-Oblique-81"/>
      <path d="M 16.890625 72.90625 
L 30.171875 72.90625 
L 50.296875 10.40625 
L 62.5 72.90625 
L 72.125 72.90625 
L 57.90625 0 
L 44.578125 0 
L 24.515625 62.890625 
L 12.3125 0 
L 2.6875 0 
z
" id="DejaVuSans-Oblique-78"/>
      <path id="DejaVuSans-32"/>
      <path d="M 8.59375 75.984375 
L 29.296875 75.984375 
L 29.296875 69 
L 17.578125 69 
L 17.578125 -6.203125 
L 29.296875 -6.203125 
L 29.296875 -13.1875 
L 8.59375 -13.1875 
z
" id="DejaVuSans-91"/>
      <path d="M 72.703125 32.078125 
Q 68.453125 32.078125 66.03125 28.46875 
Q 63.625 24.859375 63.625 18.40625 
Q 63.625 12.0625 66.03125 8.421875 
Q 68.453125 4.78125 72.703125 4.78125 
Q 76.859375 4.78125 79.265625 8.421875 
Q 81.6875 12.0625 81.6875 18.40625 
Q 81.6875 24.8125 79.265625 28.4375 
Q 76.859375 32.078125 72.703125 32.078125 
z
M 72.703125 38.28125 
Q 80.421875 38.28125 84.953125 32.90625 
Q 89.5 27.546875 89.5 18.40625 
Q 89.5 9.28125 84.9375 3.921875 
Q 80.375 -1.421875 72.703125 -1.421875 
Q 64.890625 -1.421875 60.34375 3.921875 
Q 55.8125 9.28125 55.8125 18.40625 
Q 55.8125 27.59375 60.375 32.9375 
Q 64.9375 38.28125 72.703125 38.28125 
z
M 22.3125 68.015625 
Q 18.109375 68.015625 15.6875 64.375 
Q 13.28125 60.75 13.28125 54.390625 
Q 13.28125 47.953125 15.671875 44.328125 
Q 18.0625 40.71875 22.3125 40.71875 
Q 26.5625 40.71875 28.96875 44.328125 
Q 31.390625 47.953125 31.390625 54.390625 
Q 31.390625 60.6875 28.953125 64.34375 
Q 26.515625 68.015625 22.3125 68.015625 
z
M 66.40625 74.21875 
L 74.21875 74.21875 
L 28.609375 -1.421875 
L 20.796875 -1.421875 
z
M 22.3125 74.21875 
Q 30.03125 74.21875 34.609375 68.875 
Q 39.203125 63.53125 39.203125 54.390625 
Q 39.203125 45.171875 34.640625 39.84375 
Q 30.078125 34.515625 22.3125 34.515625 
Q 14.546875 34.515625 10.03125 39.859375 
Q 5.515625 45.21875 5.515625 54.390625 
Q 5.515625 63.484375 10.046875 68.84375 
Q 14.59375 74.21875 22.3125 74.21875 
z
" id="DejaVuSans-37"/>
      <path d="M 30.421875 75.984375 
L 30.421875 -13.1875 
L 9.71875 -13.1875 
L 9.71875 -6.203125 
L 21.390625 -6.203125 
L 21.390625 69 
L 9.71875 69 
L 9.71875 75.984375 
z
" id="DejaVuSans-93"/>
     </defs>
     <g transform="translate(15.56 139.74)rotate(-90)scale(0.11 -0.11)">
      <use transform="translate(0 0.015625)" xlink:href="#DejaVuSans-Oblique-80"/>
      <use transform="translate(60.302734 -16.390625)scale(0.7)" xlink:href="#DejaVuSans-Oblique-81"/>
      <use transform="translate(115.400391 -16.390625)scale(0.7)" xlink:href="#DejaVuSans-49"/>
      <use transform="translate(159.936523 -16.390625)scale(0.7)" xlink:href="#DejaVuSans-Oblique-78"/>
      <use transform="translate(215.03418 0.015625)" xlink:href="#DejaVuSans-32"/>
      <use transform="translate(246.821289 0.015625)" xlink:href="#DejaVuSans-91"/>
      <use transform="translate(285.834961 0.015625)" xlink:href="#DejaVuSans-37"/>
      <use transform="translate(380.854492 0.015625)" xlink:href="#DejaVuSans-93"/>
     </g>
    </g>
   </g>
   <g id="PathCollection_1">
    <path clip-path="url(#pf922d17ecf)" d="M 64.857909 80.228968 
C 65.327969 80.228968 65.77884 80.042211 66.111223 79.709829 
C 66.443606 79.377446 66.630363 78.926575 66.630363 78.456514 
C 66.630363 77.986454 66.443606 77.535583 66.111223 77.2032 
C 65.77884 76.870818 65.327969 76.684061 64.857909 76.684061 
C 64.387849 76.684061 63.936978 76.870818 63.604595 77.2032 
C 63.272212 77.535583 63.085455 77.986454 63.085455 78.456514 
C 63.085455 78.926575 63.272212 79.377446 63.604595 79.709829 
C 63.936978 80.042211 64.387849 80.228968 64.857909 80.228968 
z
" style="stroke:#000000;stroke-width:0.886227;"/>
    <path clip-path="url(#pf922d17ecf)" d="M 78.385182 80.007859 
C 78.855242 80.007859 79.306113 79.821102 79.638496 79.48872 
C 79.970879 79.156337 80.157636 78.705466 80.157636 78.235405 
C 80.157636 77.765345 79.970879 77.314474 79.638496 76.982091 
C 79.306113 76.649708 78.855242 76.462952 78.385182 76.462952 
C 77.915122 76.462952 77.46425 76.649708 77.131868 76.982091 
C 76.799485 77.314474 76.612728 77.765345 76.612728 78.235405 
C 76.612728 78.705466 76.799485 79.156337 77.131868 79.48872 
C 77.46425 79.821102 77.915122 80.007859 78.385182 80.007859 
z
" style="stroke:#000000;stroke-width:0.886227;"/>
    <path clip-path="url(#pf922d17ecf)" d="M 91.912455 70.87526 
C 92.382515 70.87526 92.833386 70.688503 93.165769 70.356121 
C 93.498151 70.023738 93.684908 69.572867 93.684908 69.102806 
C 93.684908 68.632746 93.498151 68.181875 93.165769 67.849492 
C 92.833386 67.517109 92.382515 67.330353 91.912455 67.330353 
C 91.442394 67.330353 90.991523 67.517109 90.65914 67.849492 
C 90.326758 68.181875 90.140001 68.632746 90.140001 69.102806 
C 90.140001 69.572867 90.326758 70.023738 90.65914 70.356121 
C 90.991523 70.688503 91.442394 70.87526 91.912455 70.87526 
z
" style="stroke:#000000;stroke-width:0.886227;"/>
    <path clip-path="url(#pf922d17ecf)" d="M 105.439727 84.305896 
C 105.909788 84.305896 106.360659 84.119139 106.693041 83.786756 
C 107.025424 83.454373 107.212181 83.003502 107.212181 82.533442 
C 107.212181 82.063382 107.025424 81.612511 106.693041 81.280128 
C 106.360659 80.947745 105.909788 80.760988 105.439727 80.760988 
C 104.969667 80.760988 104.518796 80.947745 104.186413 81.280128 
C 103.85403 81.612511 103.667273 82.063382 103.667273 82.533442 
C 103.667273 83.003502 103.85403 83.454373 104.186413 83.786756 
C 104.518796 84.119139 104.969667 84.305896 105.439727 84.305896 
z
" style="stroke:#000000;stroke-width:0.886227;"/>
    <path clip-path="url(#pf922d17ecf)" d="M 118.967 73.56383 
C 119.43706 73.56383 119.887931 73.377073 120.220314 73.044691 
C 120.552697 72.712308 120.739454 72.261437 120.739454 71.791376 
C 120.739454 71.321316 120.552697 70.870445 120.220314 70.538062 
C 119.887931 70.20568 119.43706 70.018923 118.967 70.018923 
C 118.49694 70.018923 118.046069 70.20568 117.713686 70.538062 
C 117.381303 70.870445 117.194546 71.321316 117.194546 71.791376 
C 117.194546 72.261437 117.381303 72.712308 117.713686 73.044691 
C 118.046069 73.377073 118.49694 73.56383 118.967 73.56383 
z
" style="stroke:#000000;stroke-width:0.886227;"/>
    <path clip-path="url(#pf922d17ecf)" d="M 132.494273 87.374716 
C 132.964333 87.374716 133.415204 87.187959 133.747587 86.855577 
C 134.07997 86.523194 134.266727 86.072323 134.266727 85.602262 
C 134.266727 85.132202 134.07997 84.681331 133.747587 84.348948 
C 133.415204 84.016566 132.964333 83.829809 132.494273 83.829809 
C 132.024212 83.829809 131.573341 84.016566 131.240959 84.348948 
C 130.908576 84.681331 130.721819 85.132202 130.721819 85.602262 
C 130.721819 86.072323 130.908576 86.523194 131.240959 86.855577 
C 131.573341 87.187959 132.024212 87.374716 132.494273 87.374716 
z
" style="stroke:#000000;stroke-width:0.886227;"/>
    <path clip-path="url(#pf922d17ecf)" d="M 146.021545 90.9153 
C 146.491606 90.9153 146.942477 90.728543 147.27486 90.39616 
C 147.607242 90.063777 147.793999 89.612906 147.793999 89.142846 
C 147.793999 88.672786 147.607242 88.221915 147.27486 87.889532 
C 146.942477 87.557149 146.491606 87.370392 146.021545 87.370392 
C 145.551485 87.370392 145.100614 87.557149 144.768231 87.889532 
C 144.435849 88.221915 144.249092 88.672786 144.249092 89.142846 
C 144.249092 89.612906 144.435849 90.063777 144.768231 90.39616 
C 145.100614 90.728543 145.551485 90.9153 146.021545 90.9153 
z
" style="stroke:#000000;stroke-width:0.886227;"/>
    <path clip-path="url(#pf922d17ecf)" d="M 159.548818 103.687276 
C 160.018878 103.687276 160.46975 103.500519 160.802132 103.168136 
C 161.134515 102.835754 161.321272 102.384882 161.321272 101.914822 
C 161.321272 101.444762 161.134515 100.993891 160.802132 100.661508 
C 160.46975 100.329125 160.018878 100.142368 159.548818 100.142368 
C 159.078758 100.142368 158.627887 100.329125 158.295504 100.661508 
C 157.963121 100.993891 157.776364 101.444762 157.776364 101.914822 
C 157.776364 102.384882 157.963121 102.835754 158.295504 103.168136 
C 158.627887 103.500519 159.078758 103.687276 159.548818 103.687276 
z
" style="stroke:#000000;stroke-width:0.886227;"/>
    <path clip-path="url(#pf922d17ecf)" d="M 173.076091 109.542818 
C 173.546151 109.542818 173.997022 109.356061 174.329405 109.023678 
C 174.661788 108.691296 174.848545 108.240425 174.848545 107.770364 
C 174.848545 107.300304 174.661788 106.849433 174.329405 106.51705 
C 173.997022 106.184667 173.546151 105.99791 173.076091 105.99791 
C 172.606031 105.99791 172.15516 106.184667 171.822777 106.51705 
C 171.490394 106.849433 171.303637 107.300304 171.303637 107.770364 
C 171.303637 108.240425 171.490394 108.691296 171.822777 109.023678 
C 172.15516 109.356061 172.606031 109.542818 173.076091 109.542818 
z
" style="stroke:#000000;stroke-width:0.886227;"/>
    <path clip-path="url(#pf922d17ecf)" d="M 186.603364 108.691383 
C 187.073424 108.691383 187.524295 108.504626 187.856678 108.172243 
C 188.189061 107.83986 188.375817 107.388989 188.375817 106.918929 
C 188.375817 106.448869 188.189061 105.997997 187.856678 105.665615 
C 187.524295 105.333232 187.073424 105.146475 186.603364 105.146475 
C 186.133303 105.146475 185.682432 105.333232 185.350049 105.665615 
C 185.017667 105.997997 184.83091 106.448869 184.83091 106.918929 
C 184.83091 107.388989 185.017667 107.83986 185.350049 108.172243 
C 185.682432 108.504626 186.133303 108.691383 186.603364 108.691383 
z
" style="stroke:#000000;stroke-width:0.886227;"/>
    <path clip-path="url(#pf922d17ecf)" d="M 200.130636 135.599884 
C 200.600697 135.599884 201.051568 135.413127 201.383951 135.080745 
C 201.716333 134.748362 201.90309 134.297491 201.90309 133.827431 
C 201.90309 133.35737 201.716333 132.906499 201.383951 132.574116 
C 201.051568 132.241734 200.600697 132.054977 200.130636 132.054977 
C 199.660576 132.054977 199.209705 132.241734 198.877322 132.574116 
C 198.544939 132.906499 198.358183 133.35737 198.358183 133.827431 
C 198.358183 134.297491 198.544939 134.748362 198.877322 135.080745 
C 199.209705 135.413127 199.660576 135.599884 200.130636 135.599884 
z
" style="stroke:#000000;stroke-width:0.886227;"/>
    <path clip-path="url(#pf922d17ecf)" d="M 213.657909 121.510865 
C 214.127969 121.510865 214.57884 121.324108 214.911223 120.991725 
C 215.243606 120.659342 215.430363 120.208471 215.430363 119.738411 
C 215.430363 119.26835 215.243606 118.817479 214.911223 118.485097 
C 214.57884 118.152714 214.127969 117.965957 213.657909 117.965957 
C 213.187849 117.965957 212.736978 118.152714 212.404595 118.485097 
C 212.072212 118.817479 211.885455 119.26835 211.885455 119.738411 
C 211.885455 120.208471 212.072212 120.659342 212.404595 120.991725 
C 212.736978 121.324108 213.187849 121.510865 213.657909 121.510865 
z
" style="stroke:#000000;stroke-width:0.886227;"/>
    <path clip-path="url(#pf922d17ecf)" d="M 227.185182 133.279814 
C 227.655242 133.279814 228.106113 133.093057 228.438496 132.760674 
C 228.770879 132.428292 228.957636 131.97742 228.957636 131.50736 
C 228.957636 131.0373 228.770879 130.586429 228.438496 130.254046 
C 228.106113 129.921663 227.655242 129.734906 227.185182 129.734906 
C 226.715122 129.734906 226.26425 129.921663 225.931868 130.254046 
C 225.599485 130.586429 225.412728 131.0373 225.412728 131.50736 
C 225.412728 131.97742 225.599485 132.428292 225.931868 132.760674 
C 226.26425 133.093057 226.715122 133.279814 227.185182 133.279814 
z
" style="stroke:#000000;stroke-width:0.886227;"/>
    <path clip-path="url(#pf922d17ecf)" d="M 240.712455 128.691986 
C 241.182515 128.691986 241.633386 128.505229 241.965769 128.172846 
C 242.298151 127.840463 242.484908 127.389592 242.484908 126.919532 
C 242.484908 126.449472 242.298151 125.998601 241.965769 125.666218 
C 241.633386 125.333835 241.182515 125.147078 240.712455 125.147078 
C 240.242394 125.147078 239.791523 125.333835 239.45914 125.666218 
C 239.126758 125.998601 238.940001 126.449472 238.940001 126.919532 
C 238.940001 127.389592 239.126758 127.840463 239.45914 128.172846 
C 239.791523 128.505229 240.242394 128.691986 240.712455 128.691986 
z
" style="stroke:#000000;stroke-width:0.886227;"/>
    <path clip-path="url(#pf922d17ecf)" d="M 254.239727 145.745168 
C 254.709788 145.745168 255.160659 145.558411 255.493041 145.226029 
C 255.825424 144.893646 256.012181 144.442775 256.012181 143.972714 
C 256.012181 143.502654 255.825424 143.051783 255.493041 142.7194 
C 255.160659 142.387018 254.709788 142.200261 254.239727 142.200261 
C 253.769667 142.200261 253.318796 142.387018 252.986413 142.7194 
C 252.65403 143.051783 252.467273 143.502654 252.467273 143.972714 
C 252.467273 144.442775 252.65403 144.893646 252.986413 145.226029 
C 253.318796 145.558411 253.769667 145.745168 254.239727 145.745168 
z
" style="stroke:#000000;stroke-width:0.886227;"/>
    <path clip-path="url(#pf922d17ecf)" d="M 267.767 155.419923 
C 268.23706 155.419923 268.687931 155.233166 269.020314 154.900783 
C 269.352697 154.568401 269.539454 154.11753 269.539454 153.647469 
C 269.539454 153.177409 269.352697 152.726538 269.020314 152.394155 
C 268.687931 152.061772 268.23706 151.875015 267.767 151.875015 
C 267.29694 151.875015 266.846069 152.061772 266.513686 152.394155 
C 266.181303 152.726538 265.994546 153.177409 265.994546 153.647469 
C 265.994546 154.11753 266.181303 154.568401 266.513686 154.900783 
C 266.846069 155.233166 267.29694 155.419923 267.767 155.419923 
z
" style="stroke:#000000;stroke-width:0.886227;"/>
    <path clip-path="url(#pf922d17ecf)" d="M 281.294273 141.878458 
C 281.764333 141.878458 282.215204 141.691701 282.547587 141.359319 
C 282.87997 141.026936 283.066727 140.576065 283.066727 140.106004 
C 283.066727 139.635944 282.87997 139.185073 282.547587 138.85269 
C 282.215204 138.520307 281.764333 138.333551 281.294273 138.333551 
C 280.824212 138.333551 280.373341 138.520307 280.040959 138.85269 
C 279.708576 139.185073 279.521819 139.635944 279.521819 140.106004 
C 279.521819 140.576065 279.708576 141.026936 280.040959 141.359319 
C 280.373341 141.691701 280.824212 141.878458 281.294273 141.878458 
z
" style="stroke:#000000;stroke-width:0.886227;"/>
    <path clip-path="url(#pf922d17ecf)" d="M 294.821545 153.32467 
C 295.291606 153.32467 295.742477 153.137913 296.07486 152.80553 
C 296.407242 152.473148 296.593999 152.022276 296.593999 151.552216 
C 296.593999 151.082156 296.407242 150.631285 296.07486 150.298902 
C 295.742477 149.966519 295.291606 149.779762 294.821545 149.779762 
C 294.351485 149.779762 293.900614 149.966519 293.568231 150.298902 
C 293.235849 150.631285 293.049092 151.082156 293.049092 151.552216 
C 293.049092 152.022276 293.235849 152.473148 293.568231 152.80553 
C 293.900614 153.137913 294.351485 153.32467 294.821545 153.32467 
z
" style="stroke:#000000;stroke-width:0.886227;"/>
    <path clip-path="url(#pf922d17ecf)" d="M 308.348818 145.379095 
C 308.818878 145.379095 309.26975 145.192338 309.602132 144.859955 
C 309.934515 144.527572 310.121272 144.076701 310.121272 143.606641 
C 310.121272 143.136581 309.934515 142.68571 309.602132 142.353327 
C 309.26975 142.020944 308.818878 141.834187 308.348818 141.834187 
C 307.878758 141.834187 307.427887 142.020944 307.095504 142.353327 
C 306.763121 142.68571 306.576364 143.136581 306.576364 143.606641 
C 306.576364 144.076701 306.763121 144.527572 307.095504 144.859955 
C 307.427887 145.192338 307.878758 145.379095 308.348818 145.379095 
z
" style="stroke:#000000;stroke-width:0.886227;"/>
    <path clip-path="url(#pf922d17ecf)" d="M 321.876091 143.006857 
C 322.346151 143.006857 322.797022 142.8201 323.129405 142.487717 
C 323.461788 142.155334 323.648545 141.704463 323.648545 141.234403 
C 323.648545 140.764343 323.461788 140.313471 323.129405 139.981089 
C 322.797022 139.648706 322.346151 139.461949 321.876091 139.461949 
C 321.406031 139.461949 320.95516 139.648706 320.622777 139.981089 
C 320.290394 140.313471 320.103637 140.764343 320.103637 141.234403 
C 320.103637 141.704463 320.290394 142.155334 320.622777 142.487717 
C 320.95516 142.8201 321.406031 143.006857 321.876091 143.006857 
z
" style="stroke:#000000;stroke-width:0.886227;"/>
    <path clip-path="url(#pf922d17ecf)" d="M 335.403364 146.438218 
C 335.873424 146.438218 336.324295 146.251461 336.656678 145.919078 
C 336.989061 145.586695 337.175817 145.135824 337.175817 144.665764 
C 337.175817 144.195704 336.989061 143.744833 336.656678 143.41245 
C 336.324295 143.080067 335.873424 142.89331 335.403364 142.89331 
C 334.933303 142.89331 334.482432 143.080067 334.150049 143.41245 
C 333.817667 143.744833 333.63091 144.195704 333.63091 144.665764 
C 333.63091 145.135824 333.817667 145.586695 334.150049 145.919078 
C 334.482432 146.251461 334.933303 146.438218 335.403364 146.438218 
z
" style="stroke:#000000;stroke-width:0.886227;"/>
    <path clip-path="url(#pf922d17ecf)" d="M 348.930636 150.267788 
C 349.400697 150.267788 349.851568 150.081031 350.183951 149.748648 
C 350.516333 149.416265 350.70309 148.965394 350.70309 148.495334 
C 350.70309 148.025273 350.516333 147.574402 350.183951 147.24202 
C 349.851568 146.909637 349.400697 146.72288 348.930636 146.72288 
C 348.460576 146.72288 348.009705 146.909637 347.677322 147.24202 
C 347.344939 147.574402 347.158183 148.025273 347.158183 148.495334 
C 347.158183 148.965394 347.344939 149.416265 347.677322 149.748648 
C 348.009705 150.081031 348.460576 150.267788 348.930636 150.267788 
z
" style="stroke:#000000;stroke-width:0.886227;"/>
    <path clip-path="url(#pf922d17ecf)" d="M 362.457909 152.367442 
C 362.927969 152.367442 363.37884 152.180685 363.711223 151.848302 
C 364.043606 151.515919 364.230363 151.065048 364.230363 150.594988 
C 364.230363 150.124927 364.043606 149.674056 363.711223 149.341674 
C 363.37884 149.009291 362.927969 148.822534 362.457909 148.822534 
C 361.987849 148.822534 361.536978 149.009291 361.204595 149.341674 
C 360.872212 149.674056 360.685455 150.124927 360.685455 150.594988 
C 360.685455 151.065048 360.872212 151.515919 361.204595 151.848302 
C 361.536978 152.180685 361.987849 152.367442 362.457909 152.367442 
z
" style="stroke:#000000;stroke-width:0.886227;"/>
    <path clip-path="url(#pf922d17ecf)" d="M 375.985182 166.377732 
C 376.455242 166.377732 376.906113 166.190975 377.238496 165.858592 
C 377.570879 165.52621 377.757636 165.075338 377.757636 164.605278 
C 377.757636 164.135218 377.570879 163.684347 377.238496 163.351964 
C 376.906113 163.019581 376.455242 162.832824 375.985182 162.832824 
C 375.515122 162.832824 375.06425 163.019581 374.731868 163.351964 
C 374.399485 163.684347 374.212728 164.135218 374.212728 164.605278 
C 374.212728 165.075338 374.399485 165.52621 374.731868 165.858592 
C 375.06425 166.190975 375.515122 166.377732 375.985182 166.377732 
z
" style="stroke:#000000;stroke-width:0.886227;"/>
    <path clip-path="url(#pf922d17ecf)" d="M 389.512455 167.661913 
C 389.982515 167.661913 390.433386 167.475156 390.765769 167.142774 
C 391.098151 166.810391 391.284908 166.35952 391.284908 165.889459 
C 391.284908 165.419399 391.098151 164.968528 390.765769 164.636145 
C 390.433386 164.303763 389.982515 164.117006 389.512455 164.117006 
C 389.042394 164.117006 388.591523 164.303763 388.25914 164.636145 
C 387.926758 164.968528 387.740001 165.419399 387.740001 165.889459 
C 387.740001 166.35952 387.926758 166.810391 388.25914 167.142774 
C 388.591523 167.475156 389.042394 167.661913 389.512455 167.661913 
z
" style="stroke:#000000;stroke-width:0.886227;"/>
    <path clip-path="url(#pf922d17ecf)" d="M 403.039727 165.72118 
C 403.509788 165.72118 403.960659 165.534423 404.293041 165.20204 
C 404.625424 164.869657 404.812181 164.418786 404.812181 163.948726 
C 404.812181 163.478666 404.625424 163.027795 404.293041 162.695412 
C 403.960659 162.363029 403.509788 162.176272 403.039727 162.176272 
C 402.569667 162.176272 402.118796 162.363029 401.786413 162.695412 
C 401.45403 163.027795 401.267273 163.478666 401.267273 163.948726 
C 401.267273 164.418786 401.45403 164.869657 401.786413 165.20204 
C 402.118796 165.534423 402.569667 165.72118 403.039727 165.72118 
z
" style="stroke:#000000;stroke-width:0.886227;"/>
    <path clip-path="url(#pf922d17ecf)" d="M 416.567 193.664616 
C 417.03706 193.664616 417.487931 193.477859 417.820314 193.145476 
C 418.152697 192.813094 418.339454 192.362222 418.339454 191.892162 
C 418.339454 191.422102 418.152697 190.971231 417.820314 190.638848 
C 417.487931 190.306465 417.03706 190.119708 416.567 190.119708 
C 416.09694 190.119708 415.646069 190.306465 415.313686 190.638848 
C 414.981303 190.971231 414.794546 191.422102 414.794546 191.892162 
C 414.794546 192.362222 414.981303 192.813094 415.313686 193.145476 
C 415.646069 193.477859 416.09694 193.664616 416.567 193.664616 
z
" style="stroke:#000000;stroke-width:0.886227;"/>
    <path clip-path="url(#pf922d17ecf)" d="M 430.094273 194.535079 
C 430.564333 194.535079 431.015204 194.348322 431.347587 194.01594 
C 431.67997 193.683557 431.866727 193.232686 431.866727 192.762625 
C 431.866727 192.292565 431.67997 191.841694 431.347587 191.509311 
C 431.015204 191.176929 430.564333 190.990172 430.094273 190.990172 
C 429.624212 190.990172 429.173341 191.176929 428.840959 191.509311 
C 428.508576 191.841694 428.321819 192.292565 428.321819 192.762625 
C 428.321819 193.232686 428.508576 193.683557 428.840959 194.01594 
C 429.173341 194.348322 429.624212 194.535079 430.094273 194.535079 
z
" style="stroke:#000000;stroke-width:0.886227;"/>
    <path clip-path="url(#pf922d17ecf)" d="M 443.621545 215.301102 
C 444.091606 215.301102 444.542477 215.114346 444.87486 214.781963 
C 445.207242 214.44958 445.393999 213.998709 445.393999 213.528649 
C 445.393999 213.058588 445.207242 212.607717 444.87486 212.275335 
C 444.542477 211.942952 444.091606 211.756195 443.621545 211.756195 
C 443.151485 211.756195 442.700614 211.942952 442.368231 212.275335 
C 442.035849 212.607717 441.849092 213.058588 441.849092 213.528649 
C 441.849092 213.998709 442.035849 214.44958 442.368231 214.781963 
C 442.700614 215.114346 443.151485 215.301102 443.621545 215.301102 
z
" style="stroke:#000000;stroke-width:0.886227;"/>
    <path clip-path="url(#pf922d17ecf)" d="M 457.148818 135.395697 
C 457.618878 135.395697 458.06975 135.20894 458.402132 134.876557 
C 458.734515 134.544175 458.921272 134.093303 458.921272 133.623243 
C 458.921272 133.153183 458.734515 132.702312 458.402132 132.369929 
C 458.06975 132.037546 457.618878 131.850789 457.148818 131.850789 
C 456.678758 131.850789 456.227887 132.037546 455.895504 132.369929 
C 455.563121 132.702312 455.376364 133.153183 455.376364 133.623243 
C 455.376364 134.093303 455.563121 134.544175 455.895504 134.876557 
C 456.227887 135.20894 456.678758 135.395697 457.148818 135.395697 
z
" style="stroke:#000000;stroke-width:0.886227;"/>
    <path clip-path="url(#pf922d17ecf)" d="M 470.676091 152.426199 
C 471.146151 152.426199 471.597022 152.239442 471.929405 151.907059 
C 472.261788 151.574677 472.448545 151.123805 472.448545 150.653745 
C 472.448545 150.183685 472.261788 149.732814 471.929405 149.400431 
C 471.597022 149.068048 471.146151 148.881291 470.676091 148.881291 
C 470.206031 148.881291 469.75516 149.068048 469.422777 149.400431 
C 469.090394 149.732814 468.903637 150.183685 468.903637 150.653745 
C 468.903637 151.123805 469.090394 151.574677 469.422777 151.907059 
C 469.75516 152.239442 470.206031 152.426199 470.676091 152.426199 
z
" style="stroke:#000000;stroke-width:0.886227;"/>
   </g>
   <g id="line2d_33">
    <path clip-path="url(#pf922d17ecf)" d="M 64.857909 78.456514 
L 78.385182 78.235405 
L 91.912455 69.102806 
L 105.439727 82.533442 
L 118.967 71.791376 
L 132.494273 85.602262 
L 146.021545 89.142846 
L 159.548818 101.914822 
L 173.076091 107.770364 
L 186.603364 106.918929 
L 200.130636 133.827431 
L 213.657909 119.738411 
L 227.185182 131.50736 
L 240.712455 126.919532 
L 254.239727 143.972714 
L 267.767 153.647469 
L 281.294273 140.106004 
L 294.821545 151.552216 
L 308.348818 143.606641 
L 321.876091 141.234403 
L 335.403364 144.665764 
L 348.930636 148.495334 
L 362.457909 150.594988 
L 375.985182 164.605278 
L 389.512455 165.889459 
L 403.039727 163.948726 
L 416.567 191.892162 
L 430.094273 192.762625 
L 443.621545 213.528649 
L 457.148818 133.623243 
L 470.676091 150.653745 
" style="fill:none;stroke:#000000;stroke-width:0.886227;"/>
   </g>
  </g>
 </g>
 <defs>
  <clipPath id="pf922d17ecf">
   <rect height="221.76" width="446.4" x="44.567" y="7.2"/>
  </clipPath>
 </defs>
</svg>
