<?xml version="1.0" encoding="utf-8" standalone="no"?>
<!DOCTYPE svg PUBLIC "-//W3C//DTD SVG 1.1//EN"
  "http://www.w3.org/Graphics/SVG/1.1/DTD/svg11.dtd">
<!-- Created with matplotlib (https://matplotlib.org/) -->
<svg height="274.544375pt" version="1.1" viewBox="0 0 513.1925 274.544375" width="513.1925pt" xmlns="http://www.w3.org/2000/svg" xmlns:xlink="http://www.w3.org/1999/xlink">
 <defs>
  <style type="text/css">
*{stroke-linecap:butt;stroke-linejoin:round;}
  </style>
 </defs>
 <g id="figure_1">
  <g id="patch_1">
   <path d="M 0 274.544375 
L 513.1925 274.544375 
L 513.1925 0 
L 0 0 
z
" style="fill:#ffffff;stroke:#ffffff;stroke-linejoin:miter;"/>
  </g>
  <g id="axes_1">
   <g id="patch_2">
    <path d="M 59.5925 228.96 
L 505.9925 228.96 
L 505.9925 7.2 
L 59.5925 7.2 
z
" style="fill:#ffffff;"/>
   </g>
   <g id="matplotlib.axis_1">
    <g id="xtick_1">
     <g id="line2d_1">
      <path d="M 79.883409 228.96 
" style="fill:none;stroke:#000000;stroke-width:1.5;"/>
      <defs>
       <path d="M 0 0 
L 0 2.75 
" id="m066f7d2b8a" style="stroke:#000000;"/>
      </defs>
      <g>
       <use style="stroke:#000000;" x="79.883409" xlink:href="#m066f7d2b8a" y="228.96"/>
      </g>
     </g>
     <g id="text_1">
      <!-- 1970 -->
      <defs>
       <path d="M 12.40625 8.296875 
L 28.515625 8.296875 
L 28.515625 63.921875 
L 10.984375 60.40625 
L 10.984375 69.390625 
L 28.421875 72.90625 
L 38.28125 72.90625 
L 38.28125 8.296875 
L 54.390625 8.296875 
L 54.390625 0 
L 12.40625 0 
z
" id="DejaVuSans-49"/>
       <path d="M 10.984375 1.515625 
L 10.984375 10.5 
Q 14.703125 8.734375 18.5 7.8125 
Q 22.3125 6.890625 25.984375 6.890625 
Q 35.75 6.890625 40.890625 13.453125 
Q 46.046875 20.015625 46.78125 33.40625 
Q 43.953125 29.203125 39.59375 26.953125 
Q 35.25 24.703125 29.984375 24.703125 
Q 19.046875 24.703125 12.671875 31.3125 
Q 6.296875 37.9375 6.296875 49.421875 
Q 6.296875 60.640625 12.9375 67.421875 
Q 19.578125 74.21875 30.609375 74.21875 
Q 43.265625 74.21875 49.921875 64.515625 
Q 56.59375 54.828125 56.59375 36.375 
Q 56.59375 19.140625 48.40625 8.859375 
Q 40.234375 -1.421875 26.421875 -1.421875 
Q 22.703125 -1.421875 18.890625 -0.6875 
Q 15.09375 0.046875 10.984375 1.515625 
z
M 30.609375 32.421875 
Q 37.25 32.421875 41.125 36.953125 
Q 45.015625 41.5 45.015625 49.421875 
Q 45.015625 57.28125 41.125 61.84375 
Q 37.25 66.40625 30.609375 66.40625 
Q 23.96875 66.40625 20.09375 61.84375 
Q 16.21875 57.28125 16.21875 49.421875 
Q 16.21875 41.5 20.09375 36.953125 
Q 23.96875 32.421875 30.609375 32.421875 
z
" id="DejaVuSans-57"/>
       <path d="M 8.203125 72.90625 
L 55.078125 72.90625 
L 55.078125 68.703125 
L 28.609375 0 
L 18.3125 0 
L 43.21875 64.59375 
L 8.203125 64.59375 
z
" id="DejaVuSans-55"/>
       <path d="M 31.78125 66.40625 
Q 24.171875 66.40625 20.328125 58.90625 
Q 16.5 51.421875 16.5 36.375 
Q 16.5 21.390625 20.328125 13.890625 
Q 24.171875 6.390625 31.78125 6.390625 
Q 39.453125 6.390625 43.28125 13.890625 
Q 47.125 21.390625 47.125 36.375 
Q 47.125 51.421875 43.28125 58.90625 
Q 39.453125 66.40625 31.78125 66.40625 
z
M 31.78125 74.21875 
Q 44.046875 74.21875 50.515625 64.515625 
Q 56.984375 54.828125 56.984375 36.375 
Q 56.984375 17.96875 50.515625 8.265625 
Q 44.046875 -1.421875 31.78125 -1.421875 
Q 19.53125 -1.421875 13.0625 8.265625 
Q 6.59375 17.96875 6.59375 36.375 
Q 6.59375 54.828125 13.0625 64.515625 
Q 19.53125 74.21875 31.78125 74.21875 
z
" id="DejaVuSans-48"/>
      </defs>
      <g transform="translate(62.068409 244.547813)scale(0.14 -0.14)">
       <use xlink:href="#DejaVuSans-49"/>
       <use x="63.623047" xlink:href="#DejaVuSans-57"/>
       <use x="127.246094" xlink:href="#DejaVuSans-55"/>
       <use x="190.869141" xlink:href="#DejaVuSans-48"/>
      </g>
     </g>
    </g>
    <g id="xtick_2">
     <g id="line2d_2">
      <path d="M 161.047045 228.96 
" style="fill:none;stroke:#000000;stroke-width:1.5;"/>
      <g>
       <use style="stroke:#000000;" x="161.047045" xlink:href="#m066f7d2b8a" y="228.96"/>
      </g>
     </g>
     <g id="text_2">
      <!-- 1980 -->
      <defs>
       <path d="M 31.78125 34.625 
Q 24.75 34.625 20.71875 30.859375 
Q 16.703125 27.09375 16.703125 20.515625 
Q 16.703125 13.921875 20.71875 10.15625 
Q 24.75 6.390625 31.78125 6.390625 
Q 38.8125 6.390625 42.859375 10.171875 
Q 46.921875 13.96875 46.921875 20.515625 
Q 46.921875 27.09375 42.890625 30.859375 
Q 38.875 34.625 31.78125 34.625 
z
M 21.921875 38.8125 
Q 15.578125 40.375 12.03125 44.71875 
Q 8.5 49.078125 8.5 55.328125 
Q 8.5 64.0625 14.71875 69.140625 
Q 20.953125 74.21875 31.78125 74.21875 
Q 42.671875 74.21875 48.875 69.140625 
Q 55.078125 64.0625 55.078125 55.328125 
Q 55.078125 49.078125 51.53125 44.71875 
Q 48 40.375 41.703125 38.8125 
Q 48.828125 37.15625 52.796875 32.3125 
Q 56.78125 27.484375 56.78125 20.515625 
Q 56.78125 9.90625 50.3125 4.234375 
Q 43.84375 -1.421875 31.78125 -1.421875 
Q 19.734375 -1.421875 13.25 4.234375 
Q 6.78125 9.90625 6.78125 20.515625 
Q 6.78125 27.484375 10.78125 32.3125 
Q 14.796875 37.15625 21.921875 38.8125 
z
M 18.3125 54.390625 
Q 18.3125 48.734375 21.84375 45.5625 
Q 25.390625 42.390625 31.78125 42.390625 
Q 38.140625 42.390625 41.71875 45.5625 
Q 45.3125 48.734375 45.3125 54.390625 
Q 45.3125 60.0625 41.71875 63.234375 
Q 38.140625 66.40625 31.78125 66.40625 
Q 25.390625 66.40625 21.84375 63.234375 
Q 18.3125 60.0625 18.3125 54.390625 
z
" id="DejaVuSans-56"/>
      </defs>
      <g transform="translate(143.232045 244.547813)scale(0.14 -0.14)">
       <use xlink:href="#DejaVuSans-49"/>
       <use x="63.623047" xlink:href="#DejaVuSans-57"/>
       <use x="127.246094" xlink:href="#DejaVuSans-56"/>
       <use x="190.869141" xlink:href="#DejaVuSans-48"/>
      </g>
     </g>
    </g>
    <g id="xtick_3">
     <g id="line2d_3">
      <path d="M 242.210682 228.96 
" style="fill:none;stroke:#000000;stroke-width:1.5;"/>
      <g>
       <use style="stroke:#000000;" x="242.210682" xlink:href="#m066f7d2b8a" y="228.96"/>
      </g>
     </g>
     <g id="text_3">
      <!-- 1990 -->
      <g transform="translate(224.395682 244.547813)scale(0.14 -0.14)">
       <use xlink:href="#DejaVuSans-49"/>
       <use x="63.623047" xlink:href="#DejaVuSans-57"/>
       <use x="127.246094" xlink:href="#DejaVuSans-57"/>
       <use x="190.869141" xlink:href="#DejaVuSans-48"/>
      </g>
     </g>
    </g>
    <g id="xtick_4">
     <g id="line2d_4">
      <path d="M 323.374318 228.96 
" style="fill:none;stroke:#000000;stroke-width:1.5;"/>
      <g>
       <use style="stroke:#000000;" x="323.374318" xlink:href="#m066f7d2b8a" y="228.96"/>
      </g>
     </g>
     <g id="text_4">
      <!-- 2000 -->
      <defs>
       <path d="M 19.1875 8.296875 
L 53.609375 8.296875 
L 53.609375 0 
L 7.328125 0 
L 7.328125 8.296875 
Q 12.9375 14.109375 22.625 23.890625 
Q 32.328125 33.6875 34.8125 36.53125 
Q 39.546875 41.84375 41.421875 45.53125 
Q 43.3125 49.21875 43.3125 52.78125 
Q 43.3125 58.59375 39.234375 62.25 
Q 35.15625 65.921875 28.609375 65.921875 
Q 23.96875 65.921875 18.8125 64.3125 
Q 13.671875 62.703125 7.8125 59.421875 
L 7.8125 69.390625 
Q 13.765625 71.78125 18.9375 73 
Q 24.125 74.21875 28.421875 74.21875 
Q 39.75 74.21875 46.484375 68.546875 
Q 53.21875 62.890625 53.21875 53.421875 
Q 53.21875 48.921875 51.53125 44.890625 
Q 49.859375 40.875 45.40625 35.40625 
Q 44.1875 33.984375 37.640625 27.21875 
Q 31.109375 20.453125 19.1875 8.296875 
z
" id="DejaVuSans-50"/>
      </defs>
      <g transform="translate(305.559318 244.547813)scale(0.14 -0.14)">
       <use xlink:href="#DejaVuSans-50"/>
       <use x="63.623047" xlink:href="#DejaVuSans-48"/>
       <use x="127.246094" xlink:href="#DejaVuSans-48"/>
       <use x="190.869141" xlink:href="#DejaVuSans-48"/>
      </g>
     </g>
    </g>
    <g id="xtick_5">
     <g id="line2d_5">
      <path d="M 404.537955 228.96 
" style="fill:none;stroke:#000000;stroke-width:1.5;"/>
      <g>
       <use style="stroke:#000000;" x="404.537955" xlink:href="#m066f7d2b8a" y="228.96"/>
      </g>
     </g>
     <g id="text_5">
      <!-- 2010 -->
      <g transform="translate(386.722955 244.547813)scale(0.14 -0.14)">
       <use xlink:href="#DejaVuSans-50"/>
       <use x="63.623047" xlink:href="#DejaVuSans-48"/>
       <use x="127.246094" xlink:href="#DejaVuSans-49"/>
       <use x="190.869141" xlink:href="#DejaVuSans-48"/>
      </g>
     </g>
    </g>
    <g id="xtick_6">
     <g id="line2d_6">
      <path d="M 485.701591 228.96 
" style="fill:none;stroke:#000000;stroke-width:1.5;"/>
      <g>
       <use style="stroke:#000000;" x="485.701591" xlink:href="#m066f7d2b8a" y="228.96"/>
      </g>
     </g>
     <g id="text_6">
      <!-- 2020 -->
      <g transform="translate(467.886591 244.547813)scale(0.14 -0.14)">
       <use xlink:href="#DejaVuSans-50"/>
       <use x="63.623047" xlink:href="#DejaVuSans-48"/>
       <use x="127.246094" xlink:href="#DejaVuSans-50"/>
       <use x="190.869141" xlink:href="#DejaVuSans-48"/>
      </g>
     </g>
    </g>
    <g id="xtick_7">
     <g id="line2d_7">
      <path d="M 120.465227 228.96 
" style="fill:none;stroke:#000000;stroke-width:1.5;"/>
      <defs>
       <path d="M 0 0 
L 0 1.375 
" id="m6749bf6c0a" style="stroke:#000000;"/>
      </defs>
      <g>
       <use style="stroke:#000000;" x="120.465227" xlink:href="#m6749bf6c0a" y="228.96"/>
      </g>
     </g>
    </g>
    <g id="xtick_8">
     <g id="line2d_8">
      <path d="M 201.628864 228.96 
" style="fill:none;stroke:#000000;stroke-width:1.5;"/>
      <g>
       <use style="stroke:#000000;" x="201.628864" xlink:href="#m6749bf6c0a" y="228.96"/>
      </g>
     </g>
    </g>
    <g id="xtick_9">
     <g id="line2d_9">
      <path d="M 282.7925 228.96 
" style="fill:none;stroke:#000000;stroke-width:1.5;"/>
      <g>
       <use style="stroke:#000000;" x="282.7925" xlink:href="#m6749bf6c0a" y="228.96"/>
      </g>
     </g>
    </g>
    <g id="xtick_10">
     <g id="line2d_10">
      <path d="M 363.956136 228.96 
" style="fill:none;stroke:#000000;stroke-width:1.5;"/>
      <g>
       <use style="stroke:#000000;" x="363.956136" xlink:href="#m6749bf6c0a" y="228.96"/>
      </g>
     </g>
    </g>
    <g id="xtick_11">
     <g id="line2d_11">
      <path d="M 445.119773 228.96 
" style="fill:none;stroke:#000000;stroke-width:1.5;"/>
      <g>
       <use style="stroke:#000000;" x="445.119773" xlink:href="#m6749bf6c0a" y="228.96"/>
      </g>
     </g>
    </g>
    <g id="text_7">
     <!-- Year -->
     <defs>
      <path d="M -0.203125 72.90625 
L 10.40625 72.90625 
L 30.609375 42.921875 
L 50.6875 72.90625 
L 61.28125 72.90625 
L 35.5 34.71875 
L 35.5 0 
L 25.59375 0 
L 25.59375 34.71875 
z
" id="DejaVuSans-89"/>
      <path d="M 56.203125 29.59375 
L 56.203125 25.203125 
L 14.890625 25.203125 
Q 15.484375 15.921875 20.484375 11.0625 
Q 25.484375 6.203125 34.421875 6.203125 
Q 39.59375 6.203125 44.453125 7.46875 
Q 49.3125 8.734375 54.109375 11.28125 
L 54.109375 2.78125 
Q 49.265625 0.734375 44.1875 -0.34375 
Q 39.109375 -1.421875 33.890625 -1.421875 
Q 20.796875 -1.421875 13.15625 6.1875 
Q 5.515625 13.8125 5.515625 26.8125 
Q 5.515625 40.234375 12.765625 48.109375 
Q 20.015625 56 32.328125 56 
Q 43.359375 56 49.78125 48.890625 
Q 56.203125 41.796875 56.203125 29.59375 
z
M 47.21875 32.234375 
Q 47.125 39.59375 43.09375 43.984375 
Q 39.0625 48.390625 32.421875 48.390625 
Q 24.90625 48.390625 20.390625 44.140625 
Q 15.875 39.890625 15.1875 32.171875 
z
" id="DejaVuSans-101"/>
      <path d="M 34.28125 27.484375 
Q 23.390625 27.484375 19.1875 25 
Q 14.984375 22.515625 14.984375 16.5 
Q 14.984375 11.71875 18.140625 8.90625 
Q 21.296875 6.109375 26.703125 6.109375 
Q 34.1875 6.109375 38.703125 11.40625 
Q 43.21875 16.703125 43.21875 25.484375 
L 43.21875 27.484375 
z
M 52.203125 31.203125 
L 52.203125 0 
L 43.21875 0 
L 43.21875 8.296875 
Q 40.140625 3.328125 35.546875 0.953125 
Q 30.953125 -1.421875 24.3125 -1.421875 
Q 15.921875 -1.421875 10.953125 3.296875 
Q 6 8.015625 6 15.921875 
Q 6 25.140625 12.171875 29.828125 
Q 18.359375 34.515625 30.609375 34.515625 
L 43.21875 34.515625 
L 43.21875 35.40625 
Q 43.21875 41.609375 39.140625 45 
Q 35.0625 48.390625 27.6875 48.390625 
Q 23 48.390625 18.546875 47.265625 
Q 14.109375 46.140625 10.015625 43.890625 
L 10.015625 52.203125 
Q 14.9375 54.109375 19.578125 55.046875 
Q 24.21875 56 28.609375 56 
Q 40.484375 56 46.34375 49.84375 
Q 52.203125 43.703125 52.203125 31.203125 
z
" id="DejaVuSans-97"/>
      <path d="M 41.109375 46.296875 
Q 39.59375 47.171875 37.8125 47.578125 
Q 36.03125 48 33.890625 48 
Q 26.265625 48 22.1875 43.046875 
Q 18.109375 38.09375 18.109375 28.8125 
L 18.109375 0 
L 9.078125 0 
L 9.078125 54.6875 
L 18.109375 54.6875 
L 18.109375 46.1875 
Q 20.953125 51.171875 25.484375 53.578125 
Q 30.03125 56 36.53125 56 
Q 37.453125 56 38.578125 55.875 
Q 39.703125 55.765625 41.0625 55.515625 
z
" id="DejaVuSans-114"/>
     </defs>
     <g transform="translate(257.60875 264.016875)scale(0.16 -0.16)">
      <use xlink:href="#DejaVuSans-89"/>
      <use x="60.880859" xlink:href="#DejaVuSans-101"/>
      <use x="122.404297" xlink:href="#DejaVuSans-97"/>
      <use x="183.683594" xlink:href="#DejaVuSans-114"/>
     </g>
    </g>
   </g>
   <g id="matplotlib.axis_2">
    <g id="ytick_1">
     <g id="line2d_12">
      <path d="M 59.5925 218.88 
" style="fill:none;stroke:#000000;stroke-width:1.5;"/>
      <defs>
       <path d="M 0 0 
L -2.75 0 
" id="m51ce5af311" style="stroke:#000000;"/>
      </defs>
      <g>
       <use style="stroke:#000000;" x="59.5925" xlink:href="#m51ce5af311" y="218.88"/>
      </g>
     </g>
     <g id="text_8">
      <!-- 0 -->
      <g transform="translate(45.735 222.743125)scale(0.14 -0.14)">
       <use xlink:href="#DejaVuSans-48"/>
      </g>
     </g>
    </g>
    <g id="ytick_2">
     <g id="line2d_13">
      <path d="M 59.5925 168.48 
" style="fill:none;stroke:#000000;stroke-width:1.5;"/>
      <g>
       <use style="stroke:#000000;" x="59.5925" xlink:href="#m51ce5af311" y="168.48"/>
      </g>
     </g>
     <g id="text_9">
      <!-- 25 -->
      <defs>
       <path d="M 10.796875 72.90625 
L 49.515625 72.90625 
L 49.515625 64.59375 
L 19.828125 64.59375 
L 19.828125 46.734375 
Q 21.96875 47.46875 24.109375 47.828125 
Q 26.265625 48.1875 28.421875 48.1875 
Q 40.625 48.1875 47.75 41.5 
Q 54.890625 34.8125 54.890625 23.390625 
Q 54.890625 11.625 47.5625 5.09375 
Q 40.234375 -1.421875 26.90625 -1.421875 
Q 22.3125 -1.421875 17.546875 -0.640625 
Q 12.796875 0.140625 7.71875 1.703125 
L 7.71875 11.625 
Q 12.109375 9.234375 16.796875 8.0625 
Q 21.484375 6.890625 26.703125 6.890625 
Q 35.15625 6.890625 40.078125 11.328125 
Q 45.015625 15.765625 45.015625 23.390625 
Q 45.015625 31 40.078125 35.4375 
Q 35.15625 39.890625 26.703125 39.890625 
Q 22.75 39.890625 18.8125 39.015625 
Q 14.890625 38.140625 10.796875 36.28125 
z
" id="DejaVuSans-53"/>
      </defs>
      <g transform="translate(36.8275 172.343125)scale(0.14 -0.14)">
       <use xlink:href="#DejaVuSans-50"/>
       <use x="63.623047" xlink:href="#DejaVuSans-53"/>
      </g>
     </g>
    </g>
    <g id="ytick_3">
     <g id="line2d_14">
      <path d="M 59.5925 118.08 
" style="fill:none;stroke:#000000;stroke-width:1.5;"/>
      <g>
       <use style="stroke:#000000;" x="59.5925" xlink:href="#m51ce5af311" y="118.08"/>
      </g>
     </g>
     <g id="text_10">
      <!-- 50 -->
      <g transform="translate(36.8275 121.943125)scale(0.14 -0.14)">
       <use xlink:href="#DejaVuSans-53"/>
       <use x="63.623047" xlink:href="#DejaVuSans-48"/>
      </g>
     </g>
    </g>
    <g id="ytick_4">
     <g id="line2d_15">
      <path d="M 59.5925 67.68 
" style="fill:none;stroke:#000000;stroke-width:1.5;"/>
      <g>
       <use style="stroke:#000000;" x="59.5925" xlink:href="#m51ce5af311" y="67.68"/>
      </g>
     </g>
     <g id="text_11">
      <!-- 75 -->
      <g transform="translate(36.8275 71.543125)scale(0.14 -0.14)">
       <use xlink:href="#DejaVuSans-55"/>
       <use x="63.623047" xlink:href="#DejaVuSans-53"/>
      </g>
     </g>
    </g>
    <g id="ytick_5">
     <g id="line2d_16">
      <path d="M 59.5925 17.28 
" style="fill:none;stroke:#000000;stroke-width:1.5;"/>
      <g>
       <use style="stroke:#000000;" x="59.5925" xlink:href="#m51ce5af311" y="17.28"/>
      </g>
     </g>
     <g id="text_12">
      <!-- 100 -->
      <g transform="translate(27.92 21.143125)scale(0.14 -0.14)">
       <use xlink:href="#DejaVuSans-49"/>
       <use x="63.623047" xlink:href="#DejaVuSans-48"/>
       <use x="127.246094" xlink:href="#DejaVuSans-48"/>
      </g>
     </g>
    </g>
    <g id="ytick_6">
     <g id="line2d_17">
      <path d="M 59.5925 193.68 
" style="fill:none;stroke:#000000;stroke-width:1.5;"/>
      <defs>
       <path d="M 0 0 
L -1.375 0 
" id="meb35aa35b1" style="stroke:#000000;"/>
      </defs>
      <g>
       <use style="stroke:#000000;" x="59.5925" xlink:href="#meb35aa35b1" y="193.68"/>
      </g>
     </g>
    </g>
    <g id="ytick_7">
     <g id="line2d_18">
      <path d="M 59.5925 143.28 
" style="fill:none;stroke:#000000;stroke-width:1.5;"/>
      <g>
       <use style="stroke:#000000;" x="59.5925" xlink:href="#meb35aa35b1" y="143.28"/>
      </g>
     </g>
    </g>
    <g id="ytick_8">
     <g id="line2d_19">
      <path d="M 59.5925 92.88 
" style="fill:none;stroke:#000000;stroke-width:1.5;"/>
      <g>
       <use style="stroke:#000000;" x="59.5925" xlink:href="#meb35aa35b1" y="92.88"/>
      </g>
     </g>
    </g>
    <g id="ytick_9">
     <g id="line2d_20">
      <path d="M 59.5925 42.48 
" style="fill:none;stroke:#000000;stroke-width:1.5;"/>
      <g>
       <use style="stroke:#000000;" x="59.5925" xlink:href="#meb35aa35b1" y="42.48"/>
      </g>
     </g>
    </g>
    <g id="text_13">
     <!-- $P_{Q1n}$ [%] -->
     <defs>
      <path d="M 16.890625 72.90625 
L 39.703125 72.90625 
Q 49.65625 72.90625 54.875 68.265625 
Q 60.109375 63.625 60.109375 54.6875 
Q 60.109375 42.671875 52.390625 35.984375 
Q 44.671875 29.296875 30.71875 29.296875 
L 18.3125 29.296875 
L 12.59375 0 
L 2.6875 0 
z
M 25.203125 64.796875 
L 19.921875 37.40625 
L 32.328125 37.40625 
Q 40.71875 37.40625 45.203125 41.703125 
Q 49.703125 46 49.703125 54 
Q 49.703125 59.125 46.65625 61.953125 
Q 43.609375 64.796875 38.09375 64.796875 
z
" id="DejaVuSans-Oblique-80"/>
      <path d="M 36.078125 -1.3125 
Q 35.546875 -1.375 34.953125 -1.390625 
Q 34.375 -1.421875 33.203125 -1.421875 
Q 19.53125 -1.421875 11.8125 6.421875 
Q 4.109375 14.265625 4.109375 28.078125 
Q 4.109375 36.234375 7.0625 44.4375 
Q 10.015625 52.640625 15.28125 59.1875 
Q 21.390625 66.703125 29.03125 70.453125 
Q 36.671875 74.21875 45.90625 74.21875 
Q 59.28125 74.21875 66.984375 66.328125 
Q 74.703125 58.453125 74.703125 44.828125 
Q 74.703125 30.125 66.640625 17.921875 
Q 58.59375 5.71875 45.609375 0.6875 
L 55.515625 -12.890625 
L 44.484375 -12.890625 
z
M 45.609375 66.21875 
Q 37.5 66.21875 31.296875 62.28125 
Q 25.09375 58.34375 20.515625 50.296875 
Q 17.578125 45.171875 16.03125 39.40625 
Q 14.5 33.640625 14.5 27.78125 
Q 14.5 17.625 19.359375 12.109375 
Q 24.21875 6.59375 33.109375 6.59375 
Q 41.109375 6.59375 47.375 10.5625 
Q 53.65625 14.546875 58.109375 22.40625 
Q 61.078125 27.6875 62.640625 33.46875 
Q 64.203125 39.265625 64.203125 45.015625 
Q 64.203125 55.125 59.3125 60.671875 
Q 54.4375 66.21875 45.609375 66.21875 
z
" id="DejaVuSans-Oblique-81"/>
      <path d="M 55.71875 33.015625 
L 49.3125 0 
L 40.28125 0 
L 46.6875 32.671875 
Q 47.125 34.96875 47.359375 36.71875 
Q 47.609375 38.484375 47.609375 39.5 
Q 47.609375 43.609375 45.015625 45.890625 
Q 42.4375 48.1875 37.796875 48.1875 
Q 30.5625 48.1875 25.34375 43.375 
Q 20.125 38.578125 18.5 30.328125 
L 12.5 0 
L 3.515625 0 
L 14.109375 54.6875 
L 23.09375 54.6875 
L 21.296875 46.09375 
Q 25.046875 50.828125 30.3125 53.40625 
Q 35.59375 56 41.40625 56 
Q 48.640625 56 52.609375 52.09375 
Q 56.59375 48.1875 56.59375 41.109375 
Q 56.59375 39.359375 56.375 37.359375 
Q 56.15625 35.359375 55.71875 33.015625 
z
" id="DejaVuSans-Oblique-110"/>
      <path id="DejaVuSans-32"/>
      <path d="M 8.59375 75.984375 
L 29.296875 75.984375 
L 29.296875 69 
L 17.578125 69 
L 17.578125 -6.203125 
L 29.296875 -6.203125 
L 29.296875 -13.1875 
L 8.59375 -13.1875 
z
" id="DejaVuSans-91"/>
      <path d="M 72.703125 32.078125 
Q 68.453125 32.078125 66.03125 28.46875 
Q 63.625 24.859375 63.625 18.40625 
Q 63.625 12.0625 66.03125 8.421875 
Q 68.453125 4.78125 72.703125 4.78125 
Q 76.859375 4.78125 79.265625 8.421875 
Q 81.6875 12.0625 81.6875 18.40625 
Q 81.6875 24.8125 79.265625 28.4375 
Q 76.859375 32.078125 72.703125 32.078125 
z
M 72.703125 38.28125 
Q 80.421875 38.28125 84.953125 32.90625 
Q 89.5 27.546875 89.5 18.40625 
Q 89.5 9.28125 84.9375 3.921875 
Q 80.375 -1.421875 72.703125 -1.421875 
Q 64.890625 -1.421875 60.34375 3.921875 
Q 55.8125 9.28125 55.8125 18.40625 
Q 55.8125 27.59375 60.375 32.9375 
Q 64.9375 38.28125 72.703125 38.28125 
z
M 22.3125 68.015625 
Q 18.109375 68.015625 15.6875 64.375 
Q 13.28125 60.75 13.28125 54.390625 
Q 13.28125 47.953125 15.671875 44.328125 
Q 18.0625 40.71875 22.3125 40.71875 
Q 26.5625 40.71875 28.96875 44.328125 
Q 31.390625 47.953125 31.390625 54.390625 
Q 31.390625 60.6875 28.953125 64.34375 
Q 26.515625 68.015625 22.3125 68.015625 
z
M 66.40625 74.21875 
L 74.21875 74.21875 
L 28.609375 -1.421875 
L 20.796875 -1.421875 
z
M 22.3125 74.21875 
Q 30.03125 74.21875 34.609375 68.875 
Q 39.203125 63.53125 39.203125 54.390625 
Q 39.203125 45.171875 34.640625 39.84375 
Q 30.078125 34.515625 22.3125 34.515625 
Q 14.546875 34.515625 10.03125 39.859375 
Q 5.515625 45.21875 5.515625 54.390625 
Q 5.515625 63.484375 10.046875 68.84375 
Q 14.59375 74.21875 22.3125 74.21875 
z
" id="DejaVuSans-37"/>
      <path d="M 30.421875 75.984375 
L 30.421875 -13.1875 
L 9.71875 -13.1875 
L 9.71875 -6.203125 
L 21.390625 -6.203125 
L 21.390625 69 
L 9.71875 69 
L 9.71875 75.984375 
z
" id="DejaVuSans-93"/>
     </defs>
     <g transform="translate(19.36 149.6)rotate(-90)scale(0.16 -0.16)">
      <use transform="translate(0 0.015625)" xlink:href="#DejaVuSans-Oblique-80"/>
      <use transform="translate(60.302734 -16.390625)scale(0.7)" xlink:href="#DejaVuSans-Oblique-81"/>
      <use transform="translate(115.400391 -16.390625)scale(0.7)" xlink:href="#DejaVuSans-49"/>
      <use transform="translate(159.936523 -16.390625)scale(0.7)" xlink:href="#DejaVuSans-Oblique-110"/>
      <use transform="translate(207.036133 0.015625)" xlink:href="#DejaVuSans-32"/>
      <use transform="translate(238.823242 0.015625)" xlink:href="#DejaVuSans-91"/>
      <use transform="translate(277.836914 0.015625)" xlink:href="#DejaVuSans-37"/>
      <use transform="translate(372.856445 0.015625)" xlink:href="#DejaVuSans-93"/>
     </g>
    </g>
   </g>
   <g id="LineCollection_1">
    <path clip-path="url(#pc431a0091d)" d="M 144.814318 212.598121 
L 144.814318 212.598121 
" style="fill:none;stroke:#9da0a2;stroke-width:1.32934;"/>
    <path clip-path="url(#pc431a0091d)" d="M 169.163409 195.669444 
L 169.163409 195.669444 
" style="fill:none;stroke:#9da0a2;stroke-width:1.32934;"/>
    <path clip-path="url(#pc431a0091d)" d="M 177.279773 146.23225 
L 177.279773 146.23225 
" style="fill:none;stroke:#9da0a2;stroke-width:1.32934;"/>
    <path clip-path="url(#pc431a0091d)" d="M 201.628864 180.348531 
L 201.628864 180.348531 
" style="fill:none;stroke:#9da0a2;stroke-width:1.32934;"/>
    <path clip-path="url(#pc431a0091d)" d="M 209.745227 187.26462 
L 209.745227 187.26462 
" style="fill:none;stroke:#9da0a2;stroke-width:1.32934;"/>
    <path clip-path="url(#pc431a0091d)" d="M 217.861591 203.536602 
L 217.861591 203.536602 
" style="fill:none;stroke:#9da0a2;stroke-width:1.32934;"/>
    <path clip-path="url(#pc431a0091d)" d="M 225.977955 157.738691 
L 225.977955 157.738691 
" style="fill:none;stroke:#9da0a2;stroke-width:1.32934;"/>
    <path clip-path="url(#pc431a0091d)" d="M 234.094318 157.607106 
L 234.094318 157.607106 
" style="fill:none;stroke:#9da0a2;stroke-width:1.32934;"/>
    <path clip-path="url(#pc431a0091d)" d="M 242.210682 176.569076 
L 242.210682 176.569076 
" style="fill:none;stroke:#9da0a2;stroke-width:1.32934;"/>
    <path clip-path="url(#pc431a0091d)" d="M 250.327045 148.189096 
L 250.327045 148.189096 
" style="fill:none;stroke:#9da0a2;stroke-width:1.32934;"/>
    <path clip-path="url(#pc431a0091d)" d="M 258.443409 165.374074 
L 258.443409 165.374074 
" style="fill:none;stroke:#9da0a2;stroke-width:1.32934;"/>
    <path clip-path="url(#pc431a0091d)" d="M 266.559773 146.86727 
L 266.559773 146.86727 
" style="fill:none;stroke:#9da0a2;stroke-width:1.32934;"/>
    <path clip-path="url(#pc431a0091d)" d="M 274.676136 127.896584 
L 274.676136 127.896584 
" style="fill:none;stroke:#9da0a2;stroke-width:1.32934;"/>
    <path clip-path="url(#pc431a0091d)" d="M 282.7925 131.849183 
L 282.7925 131.849183 
" style="fill:none;stroke:#9da0a2;stroke-width:1.32934;"/>
    <path clip-path="url(#pc431a0091d)" d="M 290.908864 123.665339 
L 290.908864 123.665339 
" style="fill:none;stroke:#9da0a2;stroke-width:1.32934;"/>
    <path clip-path="url(#pc431a0091d)" d="M 299.025227 119.940671 
L 299.025227 119.940671 
" style="fill:none;stroke:#9da0a2;stroke-width:1.32934;"/>
    <path clip-path="url(#pc431a0091d)" d="M 307.141591 122.655817 
L 307.141591 122.655817 
" style="fill:none;stroke:#9da0a2;stroke-width:1.32934;"/>
    <path clip-path="url(#pc431a0091d)" d="M 315.257955 132.334001 
L 315.257955 132.334001 
" style="fill:none;stroke:#9da0a2;stroke-width:1.32934;"/>
    <path clip-path="url(#pc431a0091d)" d="M 323.374318 143.899302 
L 323.374318 143.899302 
" style="fill:none;stroke:#9da0a2;stroke-width:1.32934;"/>
    <path clip-path="url(#pc431a0091d)" d="M 331.490682 118.595008 
L 331.490682 118.595008 
" style="fill:none;stroke:#9da0a2;stroke-width:1.32934;"/>
    <path clip-path="url(#pc431a0091d)" d="M 339.607045 130.541992 
L 339.607045 130.541992 
" style="fill:none;stroke:#9da0a2;stroke-width:1.32934;"/>
    <path clip-path="url(#pc431a0091d)" d="M 347.723409 118.320908 
L 347.723409 118.320908 
" style="fill:none;stroke:#9da0a2;stroke-width:1.32934;"/>
    <path clip-path="url(#pc431a0091d)" d="M 355.839773 129.010541 
L 355.839773 129.010541 
" style="fill:none;stroke:#9da0a2;stroke-width:1.32934;"/>
    <path clip-path="url(#pc431a0091d)" d="M 363.956136 149.754593 
L 363.956136 149.754593 
" style="fill:none;stroke:#9da0a2;stroke-width:1.32934;"/>
    <path clip-path="url(#pc431a0091d)" d="M 372.0725 151.227575 
L 372.0725 151.227575 
" style="fill:none;stroke:#9da0a2;stroke-width:1.32934;"/>
    <path clip-path="url(#pc431a0091d)" d="M 380.188864 125.34074 
L 380.188864 125.34074 
" style="fill:none;stroke:#9da0a2;stroke-width:1.32934;"/>
    <path clip-path="url(#pc431a0091d)" d="M 388.305227 120.189383 
L 388.305227 120.189383 
" style="fill:none;stroke:#9da0a2;stroke-width:1.32934;"/>
    <path clip-path="url(#pc431a0091d)" d="M 396.421591 131.63559 
L 396.421591 131.63559 
" style="fill:none;stroke:#9da0a2;stroke-width:1.32934;"/>
    <path clip-path="url(#pc431a0091d)" d="M 404.537955 110.381459 
L 404.537955 110.381459 
" style="fill:none;stroke:#9da0a2;stroke-width:1.32934;"/>
    <path clip-path="url(#pc431a0091d)" d="M 412.654318 122.253669 
L 412.654318 122.253669 
" style="fill:none;stroke:#9da0a2;stroke-width:1.32934;"/>
    <path clip-path="url(#pc431a0091d)" d="M 420.770682 121.391223 
L 420.770682 121.391223 
" style="fill:none;stroke:#9da0a2;stroke-width:1.32934;"/>
    <path clip-path="url(#pc431a0091d)" d="M 428.887045 106.430555 
L 428.887045 106.430555 
" style="fill:none;stroke:#9da0a2;stroke-width:1.32934;"/>
    <path clip-path="url(#pc431a0091d)" d="M 437.003409 96.098347 
L 437.003409 96.098347 
" style="fill:none;stroke:#9da0a2;stroke-width:1.32934;"/>
    <path clip-path="url(#pc431a0091d)" d="M 445.119773 122.233314 
L 445.119773 122.233314 
" style="fill:none;stroke:#9da0a2;stroke-width:1.32934;"/>
    <path clip-path="url(#pc431a0091d)" d="M 453.236136 98.920554 
L 453.236136 98.920554 
" style="fill:none;stroke:#9da0a2;stroke-width:1.32934;"/>
    <path clip-path="url(#pc431a0091d)" d="M 461.3525 96.211572 
L 461.3525 96.211572 
" style="fill:none;stroke:#9da0a2;stroke-width:1.32934;"/>
    <path clip-path="url(#pc431a0091d)" d="M 469.468864 111.798277 
L 469.468864 111.798277 
" style="fill:none;stroke:#9da0a2;stroke-width:1.32934;"/>
    <path clip-path="url(#pc431a0091d)" d="M 477.585227 137.929953 
L 477.585227 137.929953 
" style="fill:none;stroke:#9da0a2;stroke-width:1.32934;"/>
    <path clip-path="url(#pc431a0091d)" d="M 144.814318 165.822282 
L 144.814318 165.822282 
" style="fill:none;stroke:#9da0a2;stroke-width:1.32934;"/>
    <path clip-path="url(#pc431a0091d)" d="M 169.163409 123.153643 
L 169.163409 123.153643 
" style="fill:none;stroke:#9da0a2;stroke-width:1.32934;"/>
    <path clip-path="url(#pc431a0091d)" d="M 177.279773 131.968019 
L 177.279773 131.968019 
" style="fill:none;stroke:#9da0a2;stroke-width:1.32934;"/>
    <path clip-path="url(#pc431a0091d)" d="M 201.628864 108.385966 
L 201.628864 108.385966 
" style="fill:none;stroke:#9da0a2;stroke-width:1.32934;"/>
    <path clip-path="url(#pc431a0091d)" d="M 209.745227 119.60679 
L 209.745227 119.60679 
" style="fill:none;stroke:#9da0a2;stroke-width:1.32934;"/>
    <path clip-path="url(#pc431a0091d)" d="M 217.861591 147.839505 
L 217.861591 147.839505 
" style="fill:none;stroke:#9da0a2;stroke-width:1.32934;"/>
    <path clip-path="url(#pc431a0091d)" d="M 225.977955 125.658893 
L 225.977955 125.658893 
" style="fill:none;stroke:#9da0a2;stroke-width:1.32934;"/>
    <path clip-path="url(#pc431a0091d)" d="M 234.094318 129.033431 
L 234.094318 129.033431 
" style="fill:none;stroke:#9da0a2;stroke-width:1.32934;"/>
    <path clip-path="url(#pc431a0091d)" d="M 242.210682 149.753148 
L 242.210682 149.753148 
" style="fill:none;stroke:#9da0a2;stroke-width:1.32934;"/>
    <path clip-path="url(#pc431a0091d)" d="M 250.327045 126.435333 
L 250.327045 126.435333 
" style="fill:none;stroke:#9da0a2;stroke-width:1.32934;"/>
    <path clip-path="url(#pc431a0091d)" d="M 258.443409 148.025428 
L 258.443409 148.025428 
" style="fill:none;stroke:#9da0a2;stroke-width:1.32934;"/>
    <path clip-path="url(#pc431a0091d)" d="M 266.559773 126.605712 
L 266.559773 126.605712 
" style="fill:none;stroke:#9da0a2;stroke-width:1.32934;"/>
    <path clip-path="url(#pc431a0091d)" d="M 274.676136 107.382572 
L 274.676136 107.382572 
" style="fill:none;stroke:#9da0a2;stroke-width:1.32934;"/>
    <path clip-path="url(#pc431a0091d)" d="M 282.7925 113.054825 
L 282.7925 113.054825 
" style="fill:none;stroke:#9da0a2;stroke-width:1.32934;"/>
    <path clip-path="url(#pc431a0091d)" d="M 290.908864 110.684628 
L 290.908864 110.684628 
" style="fill:none;stroke:#9da0a2;stroke-width:1.32934;"/>
    <path clip-path="url(#pc431a0091d)" d="M 299.025227 104.889536 
L 299.025227 104.889536 
" style="fill:none;stroke:#9da0a2;stroke-width:1.32934;"/>
    <path clip-path="url(#pc431a0091d)" d="M 307.141591 109.347057 
L 307.141591 109.347057 
" style="fill:none;stroke:#9da0a2;stroke-width:1.32934;"/>
    <path clip-path="url(#pc431a0091d)" d="M 315.257955 119.663583 
L 315.257955 119.663583 
" style="fill:none;stroke:#9da0a2;stroke-width:1.32934;"/>
    <path clip-path="url(#pc431a0091d)" d="M 323.374318 129.305335 
L 323.374318 129.305335 
" style="fill:none;stroke:#9da0a2;stroke-width:1.32934;"/>
    <path clip-path="url(#pc431a0091d)" d="M 331.490682 104.705066 
L 331.490682 104.705066 
" style="fill:none;stroke:#9da0a2;stroke-width:1.32934;"/>
    <path clip-path="url(#pc431a0091d)" d="M 339.607045 108.736746 
L 339.607045 108.736746 
" style="fill:none;stroke:#9da0a2;stroke-width:1.32934;"/>
    <path clip-path="url(#pc431a0091d)" d="M 347.723409 103.222476 
L 347.723409 103.222476 
" style="fill:none;stroke:#9da0a2;stroke-width:1.32934;"/>
    <path clip-path="url(#pc431a0091d)" d="M 355.839773 113.816277 
L 355.839773 113.816277 
" style="fill:none;stroke:#9da0a2;stroke-width:1.32934;"/>
    <path clip-path="url(#pc431a0091d)" d="M 363.956136 139.125837 
L 363.956136 139.125837 
" style="fill:none;stroke:#9da0a2;stroke-width:1.32934;"/>
    <path clip-path="url(#pc431a0091d)" d="M 372.0725 139.04508 
L 372.0725 139.04508 
" style="fill:none;stroke:#9da0a2;stroke-width:1.32934;"/>
    <path clip-path="url(#pc431a0091d)" d="M 380.188864 111.005742 
L 380.188864 111.005742 
" style="fill:none;stroke:#9da0a2;stroke-width:1.32934;"/>
    <path clip-path="url(#pc431a0091d)" d="M 388.305227 108.52662 
L 388.305227 108.52662 
" style="fill:none;stroke:#9da0a2;stroke-width:1.32934;"/>
    <path clip-path="url(#pc431a0091d)" d="M 396.421591 118.669724 
L 396.421591 118.669724 
" style="fill:none;stroke:#9da0a2;stroke-width:1.32934;"/>
    <path clip-path="url(#pc431a0091d)" d="M 404.537955 96.372711 
L 404.537955 96.372711 
" style="fill:none;stroke:#9da0a2;stroke-width:1.32934;"/>
    <path clip-path="url(#pc431a0091d)" d="M 412.654318 107.886197 
L 412.654318 107.886197 
" style="fill:none;stroke:#9da0a2;stroke-width:1.32934;"/>
    <path clip-path="url(#pc431a0091d)" d="M 420.770682 111.325824 
L 420.770682 111.325824 
" style="fill:none;stroke:#9da0a2;stroke-width:1.32934;"/>
    <path clip-path="url(#pc431a0091d)" d="M 428.887045 94.056961 
L 428.887045 94.056961 
" style="fill:none;stroke:#9da0a2;stroke-width:1.32934;"/>
    <path clip-path="url(#pc431a0091d)" d="M 437.003409 85.17474 
L 437.003409 85.17474 
" style="fill:none;stroke:#9da0a2;stroke-width:1.32934;"/>
    <path clip-path="url(#pc431a0091d)" d="M 445.119773 111.863503 
L 445.119773 111.863503 
" style="fill:none;stroke:#9da0a2;stroke-width:1.32934;"/>
    <path clip-path="url(#pc431a0091d)" d="M 453.236136 87.395965 
L 453.236136 87.395965 
" style="fill:none;stroke:#9da0a2;stroke-width:1.32934;"/>
    <path clip-path="url(#pc431a0091d)" d="M 461.3525 84.648345 
L 461.3525 84.648345 
" style="fill:none;stroke:#9da0a2;stroke-width:1.32934;"/>
    <path clip-path="url(#pc431a0091d)" d="M 469.468864 102.241454 
L 469.468864 102.241454 
" style="fill:none;stroke:#9da0a2;stroke-width:1.32934;"/>
    <path clip-path="url(#pc431a0091d)" d="M 477.585227 119.867631 
L 477.585227 119.867631 
" style="fill:none;stroke:#9da0a2;stroke-width:1.32934;"/>
    <path clip-path="url(#pc431a0091d)" d="M 144.814318 165.822282 
L 144.814318 212.598121 
" style="fill:none;stroke:#9da0a2;stroke-width:1.32934;"/>
    <path clip-path="url(#pc431a0091d)" d="M 169.163409 123.153643 
L 169.163409 195.669444 
" style="fill:none;stroke:#9da0a2;stroke-width:1.32934;"/>
    <path clip-path="url(#pc431a0091d)" d="M 177.279773 131.968019 
L 177.279773 146.23225 
" style="fill:none;stroke:#9da0a2;stroke-width:1.32934;"/>
    <path clip-path="url(#pc431a0091d)" d="M 201.628864 108.385966 
L 201.628864 180.348531 
" style="fill:none;stroke:#9da0a2;stroke-width:1.32934;"/>
    <path clip-path="url(#pc431a0091d)" d="M 209.745227 119.60679 
L 209.745227 187.26462 
" style="fill:none;stroke:#9da0a2;stroke-width:1.32934;"/>
    <path clip-path="url(#pc431a0091d)" d="M 217.861591 147.839505 
L 217.861591 203.536602 
" style="fill:none;stroke:#9da0a2;stroke-width:1.32934;"/>
    <path clip-path="url(#pc431a0091d)" d="M 225.977955 125.658893 
L 225.977955 157.738691 
" style="fill:none;stroke:#9da0a2;stroke-width:1.32934;"/>
    <path clip-path="url(#pc431a0091d)" d="M 234.094318 129.033431 
L 234.094318 157.607106 
" style="fill:none;stroke:#9da0a2;stroke-width:1.32934;"/>
    <path clip-path="url(#pc431a0091d)" d="M 242.210682 149.753148 
L 242.210682 176.569076 
" style="fill:none;stroke:#9da0a2;stroke-width:1.32934;"/>
    <path clip-path="url(#pc431a0091d)" d="M 250.327045 126.435333 
L 250.327045 148.189096 
" style="fill:none;stroke:#9da0a2;stroke-width:1.32934;"/>
    <path clip-path="url(#pc431a0091d)" d="M 258.443409 148.025428 
L 258.443409 165.374074 
" style="fill:none;stroke:#9da0a2;stroke-width:1.32934;"/>
    <path clip-path="url(#pc431a0091d)" d="M 266.559773 126.605712 
L 266.559773 146.86727 
" style="fill:none;stroke:#9da0a2;stroke-width:1.32934;"/>
    <path clip-path="url(#pc431a0091d)" d="M 274.676136 107.382572 
L 274.676136 127.896584 
" style="fill:none;stroke:#9da0a2;stroke-width:1.32934;"/>
    <path clip-path="url(#pc431a0091d)" d="M 282.7925 113.054825 
L 282.7925 131.849183 
" style="fill:none;stroke:#9da0a2;stroke-width:1.32934;"/>
    <path clip-path="url(#pc431a0091d)" d="M 290.908864 110.684628 
L 290.908864 123.665339 
" style="fill:none;stroke:#9da0a2;stroke-width:1.32934;"/>
    <path clip-path="url(#pc431a0091d)" d="M 299.025227 104.889536 
L 299.025227 119.940671 
" style="fill:none;stroke:#9da0a2;stroke-width:1.32934;"/>
    <path clip-path="url(#pc431a0091d)" d="M 307.141591 109.347057 
L 307.141591 122.655817 
" style="fill:none;stroke:#9da0a2;stroke-width:1.32934;"/>
    <path clip-path="url(#pc431a0091d)" d="M 315.257955 119.663583 
L 315.257955 132.334001 
" style="fill:none;stroke:#9da0a2;stroke-width:1.32934;"/>
    <path clip-path="url(#pc431a0091d)" d="M 323.374318 129.305335 
L 323.374318 143.899302 
" style="fill:none;stroke:#9da0a2;stroke-width:1.32934;"/>
    <path clip-path="url(#pc431a0091d)" d="M 331.490682 104.705066 
L 331.490682 118.595008 
" style="fill:none;stroke:#9da0a2;stroke-width:1.32934;"/>
    <path clip-path="url(#pc431a0091d)" d="M 339.607045 108.736746 
L 339.607045 130.541992 
" style="fill:none;stroke:#9da0a2;stroke-width:1.32934;"/>
    <path clip-path="url(#pc431a0091d)" d="M 347.723409 103.222476 
L 347.723409 118.320908 
" style="fill:none;stroke:#9da0a2;stroke-width:1.32934;"/>
    <path clip-path="url(#pc431a0091d)" d="M 355.839773 113.816277 
L 355.839773 129.010541 
" style="fill:none;stroke:#9da0a2;stroke-width:1.32934;"/>
    <path clip-path="url(#pc431a0091d)" d="M 363.956136 139.125837 
L 363.956136 149.754593 
" style="fill:none;stroke:#9da0a2;stroke-width:1.32934;"/>
    <path clip-path="url(#pc431a0091d)" d="M 372.0725 139.04508 
L 372.0725 151.227575 
" style="fill:none;stroke:#9da0a2;stroke-width:1.32934;"/>
    <path clip-path="url(#pc431a0091d)" d="M 380.188864 111.005742 
L 380.188864 125.34074 
" style="fill:none;stroke:#9da0a2;stroke-width:1.32934;"/>
    <path clip-path="url(#pc431a0091d)" d="M 388.305227 108.52662 
L 388.305227 120.189383 
" style="fill:none;stroke:#9da0a2;stroke-width:1.32934;"/>
    <path clip-path="url(#pc431a0091d)" d="M 396.421591 118.669724 
L 396.421591 131.63559 
" style="fill:none;stroke:#9da0a2;stroke-width:1.32934;"/>
    <path clip-path="url(#pc431a0091d)" d="M 404.537955 96.372711 
L 404.537955 110.381459 
" style="fill:none;stroke:#9da0a2;stroke-width:1.32934;"/>
    <path clip-path="url(#pc431a0091d)" d="M 412.654318 107.886197 
L 412.654318 122.253669 
" style="fill:none;stroke:#9da0a2;stroke-width:1.32934;"/>
    <path clip-path="url(#pc431a0091d)" d="M 420.770682 111.325824 
L 420.770682 121.391223 
" style="fill:none;stroke:#9da0a2;stroke-width:1.32934;"/>
    <path clip-path="url(#pc431a0091d)" d="M 428.887045 94.056961 
L 428.887045 106.430555 
" style="fill:none;stroke:#9da0a2;stroke-width:1.32934;"/>
    <path clip-path="url(#pc431a0091d)" d="M 437.003409 85.17474 
L 437.003409 96.098347 
" style="fill:none;stroke:#9da0a2;stroke-width:1.32934;"/>
    <path clip-path="url(#pc431a0091d)" d="M 445.119773 111.863503 
L 445.119773 122.233314 
" style="fill:none;stroke:#9da0a2;stroke-width:1.32934;"/>
    <path clip-path="url(#pc431a0091d)" d="M 453.236136 87.395965 
L 453.236136 98.920554 
" style="fill:none;stroke:#9da0a2;stroke-width:1.32934;"/>
    <path clip-path="url(#pc431a0091d)" d="M 461.3525 84.648345 
L 461.3525 96.211572 
" style="fill:none;stroke:#9da0a2;stroke-width:1.32934;"/>
    <path clip-path="url(#pc431a0091d)" d="M 469.468864 102.241454 
L 469.468864 111.798277 
" style="fill:none;stroke:#9da0a2;stroke-width:1.32934;"/>
    <path clip-path="url(#pc431a0091d)" d="M 477.585227 119.867631 
L 477.585227 137.929953 
" style="fill:none;stroke:#9da0a2;stroke-width:1.32934;"/>
   </g>
   <g id="line2d_21">
    <path clip-path="url(#pc431a0091d)" d="M 136.697955 123.492081 
L 144.814318 189.210201 
L 169.163409 159.411544 
L 177.279773 139.100134 
L 185.396136 211.148456 
L 193.5125 98.606174 
L 201.628864 144.367248 
L 209.745227 153.435705 
L 217.861591 175.688054 
L 225.977955 141.698792 
L 234.094318 143.320268 
L 242.210682 163.161112 
L 250.327045 137.312215 
L 258.443409 156.699751 
L 266.559773 136.736491 
L 274.676136 117.639578 
L 282.7925 122.452004 
L 290.908864 117.174984 
L 299.025227 112.415104 
L 307.141591 116.001437 
L 315.257955 125.998792 
L 323.374318 136.602318 
L 331.490682 111.650037 
L 339.607045 119.639369 
L 347.723409 110.771692 
L 355.839773 121.413409 
L 363.956136 144.440215 
L 372.0725 145.136327 
L 380.188864 118.173241 
L 388.305227 114.358001 
L 396.421591 125.152657 
L 404.537955 103.377085 
L 412.654318 115.069933 
L 420.770682 116.358523 
L 428.887045 100.243758 
L 437.003409 90.636544 
L 445.119773 117.048408 
L 453.236136 93.15826 
L 461.3525 90.429959 
L 469.468864 107.019866 
L 477.585227 128.898792 
" style="fill:none;stroke:#0077bb;stroke-width:0.886227;"/>
   </g>
   <g id="patch_3">
    <path d="M 59.5925 228.96 
L 59.5925 7.2 
" style="fill:none;stroke:#000000;stroke-linecap:square;stroke-linejoin:miter;"/>
   </g>
   <g id="patch_4">
    <path d="M 59.5925 228.96 
L 505.9925 228.96 
" style="fill:none;stroke:#000000;stroke-linecap:square;stroke-linejoin:miter;"/>
   </g>
   <g id="PathCollection_1">
    <path clip-path="url(#pc431a0091d)" d="M 136.697955 125.264534 
C 137.168015 125.264534 137.618886 125.077777 137.951269 124.745395 
C 138.283651 124.413012 138.470408 123.962141 138.470408 123.492081 
C 138.470408 123.02202 138.283651 122.571149 137.951269 122.238766 
C 137.618886 121.906384 137.168015 121.719627 136.697955 121.719627 
C 136.227894 121.719627 135.777023 121.906384 135.44464 122.238766 
C 135.112258 122.571149 134.925501 123.02202 134.925501 123.492081 
C 134.925501 123.962141 135.112258 124.413012 135.44464 124.745395 
C 135.777023 125.077777 136.227894 125.264534 136.697955 125.264534 
z
" style="fill:#0077bb;stroke:#0077bb;stroke-width:0.886227;"/>
    <path clip-path="url(#pc431a0091d)" d="M 144.814318 190.982655 
C 145.284378 190.982655 145.73525 190.795898 146.067632 190.463515 
C 146.400015 190.131133 146.586772 189.680262 146.586772 189.210201 
C 146.586772 188.740141 146.400015 188.28927 146.067632 187.956887 
C 145.73525 187.624504 145.284378 187.437747 144.814318 187.437747 
C 144.344258 187.437747 143.893387 187.624504 143.561004 187.956887 
C 143.228621 188.28927 143.041864 188.740141 143.041864 189.210201 
C 143.041864 189.680262 143.228621 190.131133 143.561004 190.463515 
C 143.893387 190.795898 144.344258 190.982655 144.814318 190.982655 
z
" style="fill:#0077bb;stroke:#0077bb;stroke-width:0.886227;"/>
    <path clip-path="url(#pc431a0091d)" d="M 169.163409 161.183997 
C 169.633469 161.183997 170.08434 160.997241 170.416723 160.664858 
C 170.749106 160.332475 170.935863 159.881604 170.935863 159.411544 
C 170.935863 158.941483 170.749106 158.490612 170.416723 158.158229 
C 170.08434 157.825847 169.633469 157.63909 169.163409 157.63909 
C 168.693349 157.63909 168.242478 157.825847 167.910095 158.158229 
C 167.577712 158.490612 167.390955 158.941483 167.390955 159.411544 
C 167.390955 159.881604 167.577712 160.332475 167.910095 160.664858 
C 168.242478 160.997241 168.693349 161.183997 169.163409 161.183997 
z
" style="fill:#0077bb;stroke:#0077bb;stroke-width:0.886227;"/>
    <path clip-path="url(#pc431a0091d)" d="M 177.279773 140.872588 
C 177.749833 140.872588 178.200704 140.685831 178.533087 140.353448 
C 178.86547 140.021066 179.052227 139.570194 179.052227 139.100134 
C 179.052227 138.630074 178.86547 138.179203 178.533087 137.84682 
C 178.200704 137.514437 177.749833 137.32768 177.279773 137.32768 
C 176.809712 137.32768 176.358841 137.514437 176.026459 137.84682 
C 175.694076 138.179203 175.507319 138.630074 175.507319 139.100134 
C 175.507319 139.570194 175.694076 140.021066 176.026459 140.353448 
C 176.358841 140.685831 176.809712 140.872588 177.279773 140.872588 
z
" style="fill:#0077bb;stroke:#0077bb;stroke-width:0.886227;"/>
    <path clip-path="url(#pc431a0091d)" d="M 185.396136 212.92091 
C 185.866197 212.92091 186.317068 212.734153 186.649451 212.401771 
C 186.981833 212.069388 187.16859 211.618517 187.16859 211.148456 
C 187.16859 210.678396 186.981833 210.227525 186.649451 209.895142 
C 186.317068 209.562759 185.866197 209.376003 185.396136 209.376003 
C 184.926076 209.376003 184.475205 209.562759 184.142822 209.895142 
C 183.810439 210.227525 183.623683 210.678396 183.623683 211.148456 
C 183.623683 211.618517 183.810439 212.069388 184.142822 212.401771 
C 184.475205 212.734153 184.926076 212.92091 185.396136 212.92091 
z
" style="fill:#0077bb;stroke:#0077bb;stroke-width:0.886227;"/>
    <path clip-path="url(#pc431a0091d)" d="M 193.5125 100.378628 
C 193.98256 100.378628 194.433431 100.191871 194.765814 99.859489 
C 195.098197 99.527106 195.284954 99.076235 195.284954 98.606174 
C 195.284954 98.136114 195.098197 97.685243 194.765814 97.35286 
C 194.433431 97.020478 193.98256 96.833721 193.5125 96.833721 
C 193.04244 96.833721 192.591569 97.020478 192.259186 97.35286 
C 191.926803 97.685243 191.740046 98.136114 191.740046 98.606174 
C 191.740046 99.076235 191.926803 99.527106 192.259186 99.859489 
C 192.591569 100.191871 193.04244 100.378628 193.5125 100.378628 
z
" style="fill:#0077bb;stroke:#0077bb;stroke-width:0.886227;"/>
    <path clip-path="url(#pc431a0091d)" d="M 201.628864 146.139702 
C 202.098924 146.139702 202.549795 145.952945 202.882178 145.620562 
C 203.214561 145.28818 203.401317 144.837309 203.401317 144.367248 
C 203.401317 143.897188 203.214561 143.446317 202.882178 143.113934 
C 202.549795 142.781551 202.098924 142.594794 201.628864 142.594794 
C 201.158803 142.594794 200.707932 142.781551 200.375549 143.113934 
C 200.043167 143.446317 199.85641 143.897188 199.85641 144.367248 
C 199.85641 144.837309 200.043167 145.28818 200.375549 145.620562 
C 200.707932 145.952945 201.158803 146.139702 201.628864 146.139702 
z
" style="fill:#0077bb;stroke:#0077bb;stroke-width:0.886227;"/>
    <path clip-path="url(#pc431a0091d)" d="M 209.745227 155.208159 
C 210.215288 155.208159 210.666159 155.021402 210.998541 154.689019 
C 211.330924 154.356636 211.517681 153.905765 211.517681 153.435705 
C 211.517681 152.965644 211.330924 152.514773 210.998541 152.182391 
C 210.666159 151.850008 210.215288 151.663251 209.745227 151.663251 
C 209.275167 151.663251 208.824296 151.850008 208.491913 152.182391 
C 208.15953 152.514773 207.972773 152.965644 207.972773 153.435705 
C 207.972773 153.905765 208.15953 154.356636 208.491913 154.689019 
C 208.824296 155.021402 209.275167 155.208159 209.745227 155.208159 
z
" style="fill:#0077bb;stroke:#0077bb;stroke-width:0.886227;"/>
    <path clip-path="url(#pc431a0091d)" d="M 217.861591 177.460508 
C 218.331651 177.460508 218.782522 177.273751 219.114905 176.941368 
C 219.447288 176.608985 219.634045 176.158114 219.634045 175.688054 
C 219.634045 175.217993 219.447288 174.767122 219.114905 174.43474 
C 218.782522 174.102357 218.331651 173.9156 217.861591 173.9156 
C 217.391531 173.9156 216.94066 174.102357 216.608277 174.43474 
C 216.275894 174.767122 216.089137 175.217993 216.089137 175.688054 
C 216.089137 176.158114 216.275894 176.608985 216.608277 176.941368 
C 216.94066 177.273751 217.391531 177.460508 217.861591 177.460508 
z
" style="fill:#0077bb;stroke:#0077bb;stroke-width:0.886227;"/>
    <path clip-path="url(#pc431a0091d)" d="M 225.977955 143.471246 
C 226.448015 143.471246 226.898886 143.284489 227.231269 142.952106 
C 227.563651 142.619723 227.750408 142.168852 227.750408 141.698792 
C 227.750408 141.228732 227.563651 140.777861 227.231269 140.445478 
C 226.898886 140.113095 226.448015 139.926338 225.977955 139.926338 
C 225.507894 139.926338 225.057023 140.113095 224.72464 140.445478 
C 224.392258 140.777861 224.205501 141.228732 224.205501 141.698792 
C 224.205501 142.168852 224.392258 142.619723 224.72464 142.952106 
C 225.057023 143.284489 225.507894 143.471246 225.977955 143.471246 
z
" style="fill:#0077bb;stroke:#0077bb;stroke-width:0.886227;"/>
    <path clip-path="url(#pc431a0091d)" d="M 234.094318 145.092722 
C 234.564378 145.092722 235.01525 144.905965 235.347632 144.573583 
C 235.680015 144.2412 235.866772 143.790329 235.866772 143.320268 
C 235.866772 142.850208 235.680015 142.399337 235.347632 142.066954 
C 235.01525 141.734572 234.564378 141.547815 234.094318 141.547815 
C 233.624258 141.547815 233.173387 141.734572 232.841004 142.066954 
C 232.508621 142.399337 232.321864 142.850208 232.321864 143.320268 
C 232.321864 143.790329 232.508621 144.2412 232.841004 144.573583 
C 233.173387 144.905965 233.624258 145.092722 234.094318 145.092722 
z
" style="fill:#0077bb;stroke:#0077bb;stroke-width:0.886227;"/>
    <path clip-path="url(#pc431a0091d)" d="M 242.210682 164.933566 
C 242.680742 164.933566 243.131613 164.746809 243.463996 164.414426 
C 243.796379 164.082044 243.983136 163.631172 243.983136 163.161112 
C 243.983136 162.691052 243.796379 162.240181 243.463996 161.907798 
C 243.131613 161.575415 242.680742 161.388658 242.210682 161.388658 
C 241.740622 161.388658 241.28975 161.575415 240.957368 161.907798 
C 240.624985 162.240181 240.438228 162.691052 240.438228 163.161112 
C 240.438228 163.631172 240.624985 164.082044 240.957368 164.414426 
C 241.28975 164.746809 241.740622 164.933566 242.210682 164.933566 
z
" style="fill:#0077bb;stroke:#0077bb;stroke-width:0.886227;"/>
    <path clip-path="url(#pc431a0091d)" d="M 250.327045 139.084669 
C 250.797106 139.084669 251.247977 138.897912 251.58036 138.565529 
C 251.912742 138.233146 252.099499 137.782275 252.099499 137.312215 
C 252.099499 136.842155 251.912742 136.391283 251.58036 136.058901 
C 251.247977 135.726518 250.797106 135.539761 250.327045 135.539761 
C 249.856985 135.539761 249.406114 135.726518 249.073731 136.058901 
C 248.741349 136.391283 248.554592 136.842155 248.554592 137.312215 
C 248.554592 137.782275 248.741349 138.233146 249.073731 138.565529 
C 249.406114 138.897912 249.856985 139.084669 250.327045 139.084669 
z
" style="fill:#0077bb;stroke:#0077bb;stroke-width:0.886227;"/>
    <path clip-path="url(#pc431a0091d)" d="M 258.443409 158.472205 
C 258.913469 158.472205 259.36434 158.285448 259.696723 157.953065 
C 260.029106 157.620682 260.215863 157.169811 260.215863 156.699751 
C 260.215863 156.22969 260.029106 155.778819 259.696723 155.446437 
C 259.36434 155.114054 258.913469 154.927297 258.443409 154.927297 
C 257.973349 154.927297 257.522478 155.114054 257.190095 155.446437 
C 256.857712 155.778819 256.670955 156.22969 256.670955 156.699751 
C 256.670955 157.169811 256.857712 157.620682 257.190095 157.953065 
C 257.522478 158.285448 257.973349 158.472205 258.443409 158.472205 
z
" style="fill:#0077bb;stroke:#0077bb;stroke-width:0.886227;"/>
    <path clip-path="url(#pc431a0091d)" d="M 266.559773 138.508945 
C 267.029833 138.508945 267.480704 138.322188 267.813087 137.989805 
C 268.14547 137.657422 268.332227 137.206551 268.332227 136.736491 
C 268.332227 136.266431 268.14547 135.81556 267.813087 135.483177 
C 267.480704 135.150794 267.029833 134.964037 266.559773 134.964037 
C 266.089712 134.964037 265.638841 135.150794 265.306459 135.483177 
C 264.974076 135.81556 264.787319 136.266431 264.787319 136.736491 
C 264.787319 137.206551 264.974076 137.657422 265.306459 137.989805 
C 265.638841 138.322188 266.089712 138.508945 266.559773 138.508945 
z
" style="fill:#0077bb;stroke:#0077bb;stroke-width:0.886227;"/>
    <path clip-path="url(#pc431a0091d)" d="M 274.676136 119.412032 
C 275.146197 119.412032 275.597068 119.225275 275.929451 118.892892 
C 276.261833 118.560509 276.44859 118.109638 276.44859 117.639578 
C 276.44859 117.169518 276.261833 116.718647 275.929451 116.386264 
C 275.597068 116.053881 275.146197 115.867124 274.676136 115.867124 
C 274.206076 115.867124 273.755205 116.053881 273.422822 116.386264 
C 273.090439 116.718647 272.903683 117.169518 272.903683 117.639578 
C 272.903683 118.109638 273.090439 118.560509 273.422822 118.892892 
C 273.755205 119.225275 274.206076 119.412032 274.676136 119.412032 
z
" style="fill:#0077bb;stroke:#0077bb;stroke-width:0.886227;"/>
    <path clip-path="url(#pc431a0091d)" d="M 282.7925 124.224458 
C 283.26256 124.224458 283.713431 124.037701 284.045814 123.705318 
C 284.378197 123.372935 284.564954 122.922064 284.564954 122.452004 
C 284.564954 121.981944 284.378197 121.531072 284.045814 121.19869 
C 283.713431 120.866307 283.26256 120.67955 282.7925 120.67955 
C 282.32244 120.67955 281.871569 120.866307 281.539186 121.19869 
C 281.206803 121.531072 281.020046 121.981944 281.020046 122.452004 
C 281.020046 122.922064 281.206803 123.372935 281.539186 123.705318 
C 281.871569 124.037701 282.32244 124.224458 282.7925 124.224458 
z
" style="fill:#0077bb;stroke:#0077bb;stroke-width:0.886227;"/>
    <path clip-path="url(#pc431a0091d)" d="M 290.908864 118.947437 
C 291.378924 118.947437 291.829795 118.76068 292.162178 118.428298 
C 292.494561 118.095915 292.681317 117.645044 292.681317 117.174984 
C 292.681317 116.704923 292.494561 116.254052 292.162178 115.921669 
C 291.829795 115.589287 291.378924 115.40253 290.908864 115.40253 
C 290.438803 115.40253 289.987932 115.589287 289.655549 115.921669 
C 289.323167 116.254052 289.13641 116.704923 289.13641 117.174984 
C 289.13641 117.645044 289.323167 118.095915 289.655549 118.428298 
C 289.987932 118.76068 290.438803 118.947437 290.908864 118.947437 
z
" style="fill:#0077bb;stroke:#0077bb;stroke-width:0.886227;"/>
    <path clip-path="url(#pc431a0091d)" d="M 299.025227 114.187557 
C 299.495288 114.187557 299.946159 114.000801 300.278541 113.668418 
C 300.610924 113.336035 300.797681 112.885164 300.797681 112.415104 
C 300.797681 111.945043 300.610924 111.494172 300.278541 111.161789 
C 299.946159 110.829407 299.495288 110.64265 299.025227 110.64265 
C 298.555167 110.64265 298.104296 110.829407 297.771913 111.161789 
C 297.43953 111.494172 297.252773 111.945043 297.252773 112.415104 
C 297.252773 112.885164 297.43953 113.336035 297.771913 113.668418 
C 298.104296 114.000801 298.555167 114.187557 299.025227 114.187557 
z
" style="fill:#0077bb;stroke:#0077bb;stroke-width:0.886227;"/>
    <path clip-path="url(#pc431a0091d)" d="M 307.141591 117.773891 
C 307.611651 117.773891 308.062522 117.587134 308.394905 117.254751 
C 308.727288 116.922368 308.914045 116.471497 308.914045 116.001437 
C 308.914045 115.531377 308.727288 115.080506 308.394905 114.748123 
C 308.062522 114.41574 307.611651 114.228983 307.141591 114.228983 
C 306.671531 114.228983 306.22066 114.41574 305.888277 114.748123 
C 305.555894 115.080506 305.369137 115.531377 305.369137 116.001437 
C 305.369137 116.471497 305.555894 116.922368 305.888277 117.254751 
C 306.22066 117.587134 306.671531 117.773891 307.141591 117.773891 
z
" style="fill:#0077bb;stroke:#0077bb;stroke-width:0.886227;"/>
    <path clip-path="url(#pc431a0091d)" d="M 315.257955 127.771246 
C 315.728015 127.771246 316.178886 127.584489 316.511269 127.252106 
C 316.843651 126.919723 317.030408 126.468852 317.030408 125.998792 
C 317.030408 125.528732 316.843651 125.077861 316.511269 124.745478 
C 316.178886 124.413095 315.728015 124.226338 315.257955 124.226338 
C 314.787894 124.226338 314.337023 124.413095 314.00464 124.745478 
C 313.672258 125.077861 313.485501 125.528732 313.485501 125.998792 
C 313.485501 126.468852 313.672258 126.919723 314.00464 127.252106 
C 314.337023 127.584489 314.787894 127.771246 315.257955 127.771246 
z
" style="fill:#0077bb;stroke:#0077bb;stroke-width:0.886227;"/>
    <path clip-path="url(#pc431a0091d)" d="M 323.374318 138.374772 
C 323.844378 138.374772 324.29525 138.188015 324.627632 137.855633 
C 324.960015 137.52325 325.146772 137.072379 325.146772 136.602318 
C 325.146772 136.132258 324.960015 135.681387 324.627632 135.349004 
C 324.29525 135.016622 323.844378 134.829865 323.374318 134.829865 
C 322.904258 134.829865 322.453387 135.016622 322.121004 135.349004 
C 321.788621 135.681387 321.601864 136.132258 321.601864 136.602318 
C 321.601864 137.072379 321.788621 137.52325 322.121004 137.855633 
C 322.453387 138.188015 322.904258 138.374772 323.374318 138.374772 
z
" style="fill:#0077bb;stroke:#0077bb;stroke-width:0.886227;"/>
    <path clip-path="url(#pc431a0091d)" d="M 331.490682 113.422491 
C 331.960742 113.422491 332.411613 113.235734 332.743996 112.903351 
C 333.076379 112.570968 333.263136 112.120097 333.263136 111.650037 
C 333.263136 111.179977 333.076379 110.729105 332.743996 110.396723 
C 332.411613 110.06434 331.960742 109.877583 331.490682 109.877583 
C 331.020622 109.877583 330.56975 110.06434 330.237368 110.396723 
C 329.904985 110.729105 329.718228 111.179977 329.718228 111.650037 
C 329.718228 112.120097 329.904985 112.570968 330.237368 112.903351 
C 330.56975 113.235734 331.020622 113.422491 331.490682 113.422491 
z
" style="fill:#0077bb;stroke:#0077bb;stroke-width:0.886227;"/>
    <path clip-path="url(#pc431a0091d)" d="M 339.607045 121.411823 
C 340.077106 121.411823 340.527977 121.225066 340.86036 120.892683 
C 341.192742 120.5603 341.379499 120.109429 341.379499 119.639369 
C 341.379499 119.169309 341.192742 118.718437 340.86036 118.386055 
C 340.527977 118.053672 340.077106 117.866915 339.607045 117.866915 
C 339.136985 117.866915 338.686114 118.053672 338.353731 118.386055 
C 338.021349 118.718437 337.834592 119.169309 337.834592 119.639369 
C 337.834592 120.109429 338.021349 120.5603 338.353731 120.892683 
C 338.686114 121.225066 339.136985 121.411823 339.607045 121.411823 
z
" style="fill:#0077bb;stroke:#0077bb;stroke-width:0.886227;"/>
    <path clip-path="url(#pc431a0091d)" d="M 347.723409 112.544146 
C 348.193469 112.544146 348.64434 112.357389 348.976723 112.025006 
C 349.309106 111.692623 349.495863 111.241752 349.495863 110.771692 
C 349.495863 110.301631 349.309106 109.85076 348.976723 109.518378 
C 348.64434 109.185995 348.193469 108.999238 347.723409 108.999238 
C 347.253349 108.999238 346.802478 109.185995 346.470095 109.518378 
C 346.137712 109.85076 345.950955 110.301631 345.950955 110.771692 
C 345.950955 111.241752 346.137712 111.692623 346.470095 112.025006 
C 346.802478 112.357389 347.253349 112.544146 347.723409 112.544146 
z
" style="fill:#0077bb;stroke:#0077bb;stroke-width:0.886227;"/>
    <path clip-path="url(#pc431a0091d)" d="M 355.839773 123.185863 
C 356.309833 123.185863 356.760704 122.999106 357.093087 122.666723 
C 357.42547 122.334341 357.612227 121.883469 357.612227 121.413409 
C 357.612227 120.943349 357.42547 120.492478 357.093087 120.160095 
C 356.760704 119.827712 356.309833 119.640955 355.839773 119.640955 
C 355.369712 119.640955 354.918841 119.827712 354.586459 120.160095 
C 354.254076 120.492478 354.067319 120.943349 354.067319 121.413409 
C 354.067319 121.883469 354.254076 122.334341 354.586459 122.666723 
C 354.918841 122.999106 355.369712 123.185863 355.839773 123.185863 
z
" style="fill:#0077bb;stroke:#0077bb;stroke-width:0.886227;"/>
    <path clip-path="url(#pc431a0091d)" d="M 363.956136 146.212669 
C 364.426197 146.212669 364.877068 146.025912 365.209451 145.693529 
C 365.541833 145.361146 365.72859 144.910275 365.72859 144.440215 
C 365.72859 143.970155 365.541833 143.519283 365.209451 143.186901 
C 364.877068 142.854518 364.426197 142.667761 363.956136 142.667761 
C 363.486076 142.667761 363.035205 142.854518 362.702822 143.186901 
C 362.370439 143.519283 362.183683 143.970155 362.183683 144.440215 
C 362.183683 144.910275 362.370439 145.361146 362.702822 145.693529 
C 363.035205 146.025912 363.486076 146.212669 363.956136 146.212669 
z
" style="fill:#0077bb;stroke:#0077bb;stroke-width:0.886227;"/>
    <path clip-path="url(#pc431a0091d)" d="M 372.0725 146.908781 
C 372.54256 146.908781 372.993431 146.722024 373.325814 146.389641 
C 373.658197 146.057259 373.844954 145.606388 373.844954 145.136327 
C 373.844954 144.666267 373.658197 144.215396 373.325814 143.883013 
C 372.993431 143.55063 372.54256 143.363873 372.0725 143.363873 
C 371.60244 143.363873 371.151569 143.55063 370.819186 143.883013 
C 370.486803 144.215396 370.300046 144.666267 370.300046 145.136327 
C 370.300046 145.606388 370.486803 146.057259 370.819186 146.389641 
C 371.151569 146.722024 371.60244 146.908781 372.0725 146.908781 
z
" style="fill:#0077bb;stroke:#0077bb;stroke-width:0.886227;"/>
    <path clip-path="url(#pc431a0091d)" d="M 380.188864 119.945695 
C 380.658924 119.945695 381.109795 119.758938 381.442178 119.426555 
C 381.774561 119.094173 381.961317 118.643302 381.961317 118.173241 
C 381.961317 117.703181 381.774561 117.25231 381.442178 116.919927 
C 381.109795 116.587544 380.658924 116.400787 380.188864 116.400787 
C 379.718803 116.400787 379.267932 116.587544 378.935549 116.919927 
C 378.603167 117.25231 378.41641 117.703181 378.41641 118.173241 
C 378.41641 118.643302 378.603167 119.094173 378.935549 119.426555 
C 379.267932 119.758938 379.718803 119.945695 380.188864 119.945695 
z
" style="fill:#0077bb;stroke:#0077bb;stroke-width:0.886227;"/>
    <path clip-path="url(#pc431a0091d)" d="M 388.305227 116.130455 
C 388.775288 116.130455 389.226159 115.943698 389.558541 115.611316 
C 389.890924 115.278933 390.077681 114.828062 390.077681 114.358001 
C 390.077681 113.887941 389.890924 113.43707 389.558541 113.104687 
C 389.226159 112.772305 388.775288 112.585548 388.305227 112.585548 
C 387.835167 112.585548 387.384296 112.772305 387.051913 113.104687 
C 386.71953 113.43707 386.532773 113.887941 386.532773 114.358001 
C 386.532773 114.828062 386.71953 115.278933 387.051913 115.611316 
C 387.384296 115.943698 387.835167 116.130455 388.305227 116.130455 
z
" style="fill:#0077bb;stroke:#0077bb;stroke-width:0.886227;"/>
    <path clip-path="url(#pc431a0091d)" d="M 396.421591 126.925111 
C 396.891651 126.925111 397.342522 126.738354 397.674905 126.405971 
C 398.007288 126.073588 398.194045 125.622717 398.194045 125.152657 
C 398.194045 124.682597 398.007288 124.231726 397.674905 123.899343 
C 397.342522 123.56696 396.891651 123.380203 396.421591 123.380203 
C 395.951531 123.380203 395.50066 123.56696 395.168277 123.899343 
C 394.835894 124.231726 394.649137 124.682597 394.649137 125.152657 
C 394.649137 125.622717 394.835894 126.073588 395.168277 126.405971 
C 395.50066 126.738354 395.951531 126.925111 396.421591 126.925111 
z
" style="fill:#0077bb;stroke:#0077bb;stroke-width:0.886227;"/>
    <path clip-path="url(#pc431a0091d)" d="M 404.537955 105.149539 
C 405.008015 105.149539 405.458886 104.962782 405.791269 104.630399 
C 406.123651 104.298016 406.310408 103.847145 406.310408 103.377085 
C 406.310408 102.907025 406.123651 102.456154 405.791269 102.123771 
C 405.458886 101.791388 405.008015 101.604631 404.537955 101.604631 
C 404.067894 101.604631 403.617023 101.791388 403.28464 102.123771 
C 402.952258 102.456154 402.765501 102.907025 402.765501 103.377085 
C 402.765501 103.847145 402.952258 104.298016 403.28464 104.630399 
C 403.617023 104.962782 404.067894 105.149539 404.537955 105.149539 
z
" style="fill:#0077bb;stroke:#0077bb;stroke-width:0.886227;"/>
    <path clip-path="url(#pc431a0091d)" d="M 412.654318 116.842387 
C 413.124378 116.842387 413.57525 116.65563 413.907632 116.323247 
C 414.240015 115.990864 414.426772 115.539993 414.426772 115.069933 
C 414.426772 114.599873 414.240015 114.149002 413.907632 113.816619 
C 413.57525 113.484236 413.124378 113.297479 412.654318 113.297479 
C 412.184258 113.297479 411.733387 113.484236 411.401004 113.816619 
C 411.068621 114.149002 410.881864 114.599873 410.881864 115.069933 
C 410.881864 115.539993 411.068621 115.990864 411.401004 116.323247 
C 411.733387 116.65563 412.184258 116.842387 412.654318 116.842387 
z
" style="fill:#0077bb;stroke:#0077bb;stroke-width:0.886227;"/>
    <path clip-path="url(#pc431a0091d)" d="M 420.770682 118.130977 
C 421.240742 118.130977 421.691613 117.94422 422.023996 117.611838 
C 422.356379 117.279455 422.543136 116.828584 422.543136 116.358523 
C 422.543136 115.888463 422.356379 115.437592 422.023996 115.105209 
C 421.691613 114.772827 421.240742 114.58607 420.770682 114.58607 
C 420.300622 114.58607 419.84975 114.772827 419.517368 115.105209 
C 419.184985 115.437592 418.998228 115.888463 418.998228 116.358523 
C 418.998228 116.828584 419.184985 117.279455 419.517368 117.611838 
C 419.84975 117.94422 420.300622 118.130977 420.770682 118.130977 
z
" style="fill:#0077bb;stroke:#0077bb;stroke-width:0.886227;"/>
    <path clip-path="url(#pc431a0091d)" d="M 428.887045 102.016212 
C 429.357106 102.016212 429.807977 101.829455 430.14036 101.497073 
C 430.472742 101.16469 430.659499 100.713819 430.659499 100.243758 
C 430.659499 99.773698 430.472742 99.322827 430.14036 98.990444 
C 429.807977 98.658061 429.357106 98.471305 428.887045 98.471305 
C 428.416985 98.471305 427.966114 98.658061 427.633731 98.990444 
C 427.301349 99.322827 427.114592 99.773698 427.114592 100.243758 
C 427.114592 100.713819 427.301349 101.16469 427.633731 101.497073 
C 427.966114 101.829455 428.416985 102.016212 428.887045 102.016212 
z
" style="fill:#0077bb;stroke:#0077bb;stroke-width:0.886227;"/>
    <path clip-path="url(#pc431a0091d)" d="M 437.003409 92.408997 
C 437.473469 92.408997 437.92434 92.222241 438.256723 91.889858 
C 438.589106 91.557475 438.775863 91.106604 438.775863 90.636544 
C 438.775863 90.166483 438.589106 89.715612 438.256723 89.383229 
C 437.92434 89.050847 437.473469 88.86409 437.003409 88.86409 
C 436.533349 88.86409 436.082478 89.050847 435.750095 89.383229 
C 435.417712 89.715612 435.230955 90.166483 435.230955 90.636544 
C 435.230955 91.106604 435.417712 91.557475 435.750095 91.889858 
C 436.082478 92.222241 436.533349 92.408997 437.003409 92.408997 
z
" style="fill:#0077bb;stroke:#0077bb;stroke-width:0.886227;"/>
    <path clip-path="url(#pc431a0091d)" d="M 445.119773 118.820862 
C 445.589833 118.820862 446.040704 118.634105 446.373087 118.301723 
C 446.70547 117.96934 446.892227 117.518469 446.892227 117.048408 
C 446.892227 116.578348 446.70547 116.127477 446.373087 115.795094 
C 446.040704 115.462712 445.589833 115.275955 445.119773 115.275955 
C 444.649712 115.275955 444.198841 115.462712 443.866459 115.795094 
C 443.534076 116.127477 443.347319 116.578348 443.347319 117.048408 
C 443.347319 117.518469 443.534076 117.96934 443.866459 118.301723 
C 444.198841 118.634105 444.649712 118.820862 445.119773 118.820862 
z
" style="fill:#0077bb;stroke:#0077bb;stroke-width:0.886227;"/>
    <path clip-path="url(#pc431a0091d)" d="M 453.236136 94.930713 
C 453.706197 94.930713 454.157068 94.743956 454.489451 94.411574 
C 454.821833 94.079191 455.00859 93.62832 455.00859 93.15826 
C 455.00859 92.688199 454.821833 92.237328 454.489451 91.904945 
C 454.157068 91.572563 453.706197 91.385806 453.236136 91.385806 
C 452.766076 91.385806 452.315205 91.572563 451.982822 91.904945 
C 451.650439 92.237328 451.463683 92.688199 451.463683 93.15826 
C 451.463683 93.62832 451.650439 94.079191 451.982822 94.411574 
C 452.315205 94.743956 452.766076 94.930713 453.236136 94.930713 
z
" style="fill:#0077bb;stroke:#0077bb;stroke-width:0.886227;"/>
    <path clip-path="url(#pc431a0091d)" d="M 461.3525 92.202412 
C 461.82256 92.202412 462.273431 92.015655 462.605814 91.683273 
C 462.938197 91.35089 463.124954 90.900019 463.124954 90.429959 
C 463.124954 89.959898 462.938197 89.509027 462.605814 89.176644 
C 462.273431 88.844262 461.82256 88.657505 461.3525 88.657505 
C 460.88244 88.657505 460.431569 88.844262 460.099186 89.176644 
C 459.766803 89.509027 459.580046 89.959898 459.580046 90.429959 
C 459.580046 90.900019 459.766803 91.35089 460.099186 91.683273 
C 460.431569 92.015655 460.88244 92.202412 461.3525 92.202412 
z
" style="fill:#0077bb;stroke:#0077bb;stroke-width:0.886227;"/>
    <path clip-path="url(#pc431a0091d)" d="M 469.468864 108.79232 
C 469.938924 108.79232 470.389795 108.605563 470.722178 108.27318 
C 471.054561 107.940797 471.241317 107.489926 471.241317 107.019866 
C 471.241317 106.549806 471.054561 106.098934 470.722178 105.766552 
C 470.389795 105.434169 469.938924 105.247412 469.468864 105.247412 
C 468.998803 105.247412 468.547932 105.434169 468.215549 105.766552 
C 467.883167 106.098934 467.69641 106.549806 467.69641 107.019866 
C 467.69641 107.489926 467.883167 107.940797 468.215549 108.27318 
C 468.547932 108.605563 468.998803 108.79232 469.468864 108.79232 
z
" style="fill:#0077bb;stroke:#0077bb;stroke-width:0.886227;"/>
    <path clip-path="url(#pc431a0091d)" d="M 477.585227 130.671246 
C 478.055288 130.671246 478.506159 130.484489 478.838541 130.152106 
C 479.170924 129.819723 479.357681 129.368852 479.357681 128.898792 
C 479.357681 128.428732 479.170924 127.977861 478.838541 127.645478 
C 478.506159 127.313095 478.055288 127.126338 477.585227 127.126338 
C 477.115167 127.126338 476.664296 127.313095 476.331913 127.645478 
C 475.99953 127.977861 475.812773 128.428732 475.812773 128.898792 
C 475.812773 129.368852 475.99953 129.819723 476.331913 130.152106 
C 476.664296 130.484489 477.115167 130.671246 477.585227 130.671246 
z
" style="fill:#0077bb;stroke:#0077bb;stroke-width:0.886227;"/>
   </g>
  </g>
 </g>
 <defs>
  <clipPath id="pc431a0091d">
   <rect height="221.76" width="446.4" x="59.5925" y="7.2"/>
  </clipPath>
 </defs>
</svg>
