<?xml version="1.0" encoding="utf-8" standalone="no"?>
<!DOCTYPE svg PUBLIC "-//W3C//DTD SVG 1.1//EN"
  "http://www.w3.org/Graphics/SVG/1.1/DTD/svg11.dtd">
<!-- Created with matplotlib (https://matplotlib.org/) -->
<svg height="264.672687pt" version="1.1" viewBox="0 0 498.167 264.672687" width="498.167pt" xmlns="http://www.w3.org/2000/svg" xmlns:xlink="http://www.w3.org/1999/xlink">
 <defs>
  <style type="text/css">
*{stroke-linecap:butt;stroke-linejoin:round;}
  </style>
 </defs>
 <g id="figure_1">
  <g id="patch_1">
   <path d="M 0 264.672687 
L 498.167 264.672687 
L 498.167 0 
L 0 0 
z
" style="fill:#ffffff;stroke:#ffffff;stroke-linejoin:miter;"/>
  </g>
  <g id="axes_1">
   <g id="patch_2">
    <path d="M 44.567 228.96 
L 490.967 228.96 
L 490.967 7.2 
L 44.567 7.2 
z
" style="fill:#ffffff;stroke:#7f7f7f;stroke-linejoin:miter;"/>
   </g>
   <g id="matplotlib.axis_1">
    <g id="xtick_1">
     <g id="line2d_1">
      <path clip-path="url(#pb2ef5f325e)" d="M 64.857909 228.96 
L 64.857909 7.2 
" style="fill:none;stroke:#e5e5e5;stroke-width:0.8;"/>
     </g>
     <g id="line2d_2">
      <path d="M 64.857909 228.96 
" style="fill:none;stroke:#000000;stroke-width:1.5;"/>
      <defs>
       <path d="M 0 0 
L 0 2.75 
" id="m50a4db9cc8" style="stroke:#000000;"/>
      </defs>
      <g>
       <use style="stroke:#000000;" x="64.857909" xlink:href="#m50a4db9cc8" y="228.96"/>
      </g>
     </g>
     <g id="text_1">
      <!-- 1 -->
      <defs>
       <path d="M 12.40625 8.296875 
L 28.515625 8.296875 
L 28.515625 63.921875 
L 10.984375 60.40625 
L 10.984375 69.390625 
L 28.421875 72.90625 
L 38.28125 72.90625 
L 38.28125 8.296875 
L 54.390625 8.296875 
L 54.390625 0 
L 12.40625 0 
z
" id="DejaVuSans-49"/>
      </defs>
      <g transform="translate(62.058409 240.596625)scale(0.088 -0.088)">
       <use xlink:href="#DejaVuSans-49"/>
      </g>
     </g>
    </g>
    <g id="xtick_2">
     <g id="line2d_3">
      <path clip-path="url(#pb2ef5f325e)" d="M 200.130636 228.96 
L 200.130636 7.2 
" style="fill:none;stroke:#e5e5e5;stroke-width:0.8;"/>
     </g>
     <g id="line2d_4">
      <path d="M 200.130636 228.96 
" style="fill:none;stroke:#000000;stroke-width:1.5;"/>
      <g>
       <use style="stroke:#000000;" x="200.130636" xlink:href="#m50a4db9cc8" y="228.96"/>
      </g>
     </g>
     <g id="text_2">
      <!-- 2 -->
      <defs>
       <path d="M 19.1875 8.296875 
L 53.609375 8.296875 
L 53.609375 0 
L 7.328125 0 
L 7.328125 8.296875 
Q 12.9375 14.109375 22.625 23.890625 
Q 32.328125 33.6875 34.8125 36.53125 
Q 39.546875 41.84375 41.421875 45.53125 
Q 43.3125 49.21875 43.3125 52.78125 
Q 43.3125 58.59375 39.234375 62.25 
Q 35.15625 65.921875 28.609375 65.921875 
Q 23.96875 65.921875 18.8125 64.3125 
Q 13.671875 62.703125 7.8125 59.421875 
L 7.8125 69.390625 
Q 13.765625 71.78125 18.9375 73 
Q 24.125 74.21875 28.421875 74.21875 
Q 39.75 74.21875 46.484375 68.546875 
Q 53.21875 62.890625 53.21875 53.421875 
Q 53.21875 48.921875 51.53125 44.890625 
Q 49.859375 40.875 45.40625 35.40625 
Q 44.1875 33.984375 37.640625 27.21875 
Q 31.109375 20.453125 19.1875 8.296875 
z
" id="DejaVuSans-50"/>
      </defs>
      <g transform="translate(197.331136 240.596625)scale(0.088 -0.088)">
       <use xlink:href="#DejaVuSans-50"/>
      </g>
     </g>
    </g>
    <g id="xtick_3">
     <g id="line2d_5">
      <path clip-path="url(#pb2ef5f325e)" d="M 335.403364 228.96 
L 335.403364 7.2 
" style="fill:none;stroke:#e5e5e5;stroke-width:0.8;"/>
     </g>
     <g id="line2d_6">
      <path d="M 335.403364 228.96 
" style="fill:none;stroke:#000000;stroke-width:1.5;"/>
      <g>
       <use style="stroke:#000000;" x="335.403364" xlink:href="#m50a4db9cc8" y="228.96"/>
      </g>
     </g>
     <g id="text_3">
      <!-- 3 -->
      <defs>
       <path d="M 40.578125 39.3125 
Q 47.65625 37.796875 51.625 33 
Q 55.609375 28.21875 55.609375 21.1875 
Q 55.609375 10.40625 48.1875 4.484375 
Q 40.765625 -1.421875 27.09375 -1.421875 
Q 22.515625 -1.421875 17.65625 -0.515625 
Q 12.796875 0.390625 7.625 2.203125 
L 7.625 11.71875 
Q 11.71875 9.328125 16.59375 8.109375 
Q 21.484375 6.890625 26.8125 6.890625 
Q 36.078125 6.890625 40.9375 10.546875 
Q 45.796875 14.203125 45.796875 21.1875 
Q 45.796875 27.640625 41.28125 31.265625 
Q 36.765625 34.90625 28.71875 34.90625 
L 20.21875 34.90625 
L 20.21875 43.015625 
L 29.109375 43.015625 
Q 36.375 43.015625 40.234375 45.921875 
Q 44.09375 48.828125 44.09375 54.296875 
Q 44.09375 59.90625 40.109375 62.90625 
Q 36.140625 65.921875 28.71875 65.921875 
Q 24.65625 65.921875 20.015625 65.03125 
Q 15.375 64.15625 9.8125 62.3125 
L 9.8125 71.09375 
Q 15.4375 72.65625 20.34375 73.4375 
Q 25.25 74.21875 29.59375 74.21875 
Q 40.828125 74.21875 47.359375 69.109375 
Q 53.90625 64.015625 53.90625 55.328125 
Q 53.90625 49.265625 50.4375 45.09375 
Q 46.96875 40.921875 40.578125 39.3125 
z
" id="DejaVuSans-51"/>
      </defs>
      <g transform="translate(332.603864 240.596625)scale(0.088 -0.088)">
       <use xlink:href="#DejaVuSans-51"/>
      </g>
     </g>
    </g>
    <g id="xtick_4">
     <g id="line2d_7">
      <path clip-path="url(#pb2ef5f325e)" d="M 470.676091 228.96 
L 470.676091 7.2 
" style="fill:none;stroke:#e5e5e5;stroke-width:0.8;"/>
     </g>
     <g id="line2d_8">
      <path d="M 470.676091 228.96 
" style="fill:none;stroke:#000000;stroke-width:1.5;"/>
      <g>
       <use style="stroke:#000000;" x="470.676091" xlink:href="#m50a4db9cc8" y="228.96"/>
      </g>
     </g>
     <g id="text_4">
      <!-- 4 -->
      <defs>
       <path d="M 37.796875 64.3125 
L 12.890625 25.390625 
L 37.796875 25.390625 
z
M 35.203125 72.90625 
L 47.609375 72.90625 
L 47.609375 25.390625 
L 58.015625 25.390625 
L 58.015625 17.1875 
L 47.609375 17.1875 
L 47.609375 0 
L 37.796875 0 
L 37.796875 17.1875 
L 4.890625 17.1875 
L 4.890625 26.703125 
z
" id="DejaVuSans-52"/>
      </defs>
      <g transform="translate(467.876591 240.596625)scale(0.088 -0.088)">
       <use xlink:href="#DejaVuSans-52"/>
      </g>
     </g>
    </g>
    <g id="xtick_5">
     <g id="line2d_9">
      <path clip-path="url(#pb2ef5f325e)" d="M 132.494273 228.96 
L 132.494273 7.2 
" style="fill:none;stroke:#fafafa;"/>
     </g>
     <g id="line2d_10">
      <path d="M 132.494273 228.96 
" style="fill:none;stroke:#000000;stroke-width:1.5;"/>
      <defs>
       <path d="M 0 0 
L 0 1.375 
" id="m9001e7781c" style="stroke:#000000;"/>
      </defs>
      <g>
       <use style="stroke:#000000;" x="132.494273" xlink:href="#m9001e7781c" y="228.96"/>
      </g>
     </g>
    </g>
    <g id="xtick_6">
     <g id="line2d_11">
      <path clip-path="url(#pb2ef5f325e)" d="M 267.767 228.96 
L 267.767 7.2 
" style="fill:none;stroke:#fafafa;"/>
     </g>
     <g id="line2d_12">
      <path d="M 267.767 228.96 
" style="fill:none;stroke:#000000;stroke-width:1.5;"/>
      <g>
       <use style="stroke:#000000;" x="267.767" xlink:href="#m9001e7781c" y="228.96"/>
      </g>
     </g>
    </g>
    <g id="xtick_7">
     <g id="line2d_13">
      <path clip-path="url(#pb2ef5f325e)" d="M 403.039727 228.96 
L 403.039727 7.2 
" style="fill:none;stroke:#fafafa;"/>
     </g>
     <g id="line2d_14">
      <path d="M 403.039727 228.96 
" style="fill:none;stroke:#000000;stroke-width:1.5;"/>
      <g>
       <use style="stroke:#000000;" x="403.039727" xlink:href="#m9001e7781c" y="228.96"/>
      </g>
     </g>
    </g>
    <g id="text_5">
     <!-- Resolution -->
     <defs>
      <path d="M 44.390625 34.1875 
Q 47.5625 33.109375 50.5625 29.59375 
Q 53.5625 26.078125 56.59375 19.921875 
L 66.609375 0 
L 56 0 
L 46.6875 18.703125 
Q 43.0625 26.03125 39.671875 28.421875 
Q 36.28125 30.8125 30.421875 30.8125 
L 19.671875 30.8125 
L 19.671875 0 
L 9.8125 0 
L 9.8125 72.90625 
L 32.078125 72.90625 
Q 44.578125 72.90625 50.734375 67.671875 
Q 56.890625 62.453125 56.890625 51.90625 
Q 56.890625 45.015625 53.6875 40.46875 
Q 50.484375 35.9375 44.390625 34.1875 
z
M 19.671875 64.796875 
L 19.671875 38.921875 
L 32.078125 38.921875 
Q 39.203125 38.921875 42.84375 42.21875 
Q 46.484375 45.515625 46.484375 51.90625 
Q 46.484375 58.296875 42.84375 61.546875 
Q 39.203125 64.796875 32.078125 64.796875 
z
" id="DejaVuSans-82"/>
      <path d="M 56.203125 29.59375 
L 56.203125 25.203125 
L 14.890625 25.203125 
Q 15.484375 15.921875 20.484375 11.0625 
Q 25.484375 6.203125 34.421875 6.203125 
Q 39.59375 6.203125 44.453125 7.46875 
Q 49.3125 8.734375 54.109375 11.28125 
L 54.109375 2.78125 
Q 49.265625 0.734375 44.1875 -0.34375 
Q 39.109375 -1.421875 33.890625 -1.421875 
Q 20.796875 -1.421875 13.15625 6.1875 
Q 5.515625 13.8125 5.515625 26.8125 
Q 5.515625 40.234375 12.765625 48.109375 
Q 20.015625 56 32.328125 56 
Q 43.359375 56 49.78125 48.890625 
Q 56.203125 41.796875 56.203125 29.59375 
z
M 47.21875 32.234375 
Q 47.125 39.59375 43.09375 43.984375 
Q 39.0625 48.390625 32.421875 48.390625 
Q 24.90625 48.390625 20.390625 44.140625 
Q 15.875 39.890625 15.1875 32.171875 
z
" id="DejaVuSans-101"/>
      <path d="M 44.28125 53.078125 
L 44.28125 44.578125 
Q 40.484375 46.53125 36.375 47.5 
Q 32.28125 48.484375 27.875 48.484375 
Q 21.1875 48.484375 17.84375 46.4375 
Q 14.5 44.390625 14.5 40.28125 
Q 14.5 37.15625 16.890625 35.375 
Q 19.28125 33.59375 26.515625 31.984375 
L 29.59375 31.296875 
Q 39.15625 29.25 43.1875 25.515625 
Q 47.21875 21.78125 47.21875 15.09375 
Q 47.21875 7.46875 41.1875 3.015625 
Q 35.15625 -1.421875 24.609375 -1.421875 
Q 20.21875 -1.421875 15.453125 -0.5625 
Q 10.6875 0.296875 5.421875 2 
L 5.421875 11.28125 
Q 10.40625 8.6875 15.234375 7.390625 
Q 20.0625 6.109375 24.8125 6.109375 
Q 31.15625 6.109375 34.5625 8.28125 
Q 37.984375 10.453125 37.984375 14.40625 
Q 37.984375 18.0625 35.515625 20.015625 
Q 33.0625 21.96875 24.703125 23.78125 
L 21.578125 24.515625 
Q 13.234375 26.265625 9.515625 29.90625 
Q 5.8125 33.546875 5.8125 39.890625 
Q 5.8125 47.609375 11.28125 51.796875 
Q 16.75 56 26.8125 56 
Q 31.78125 56 36.171875 55.265625 
Q 40.578125 54.546875 44.28125 53.078125 
z
" id="DejaVuSans-115"/>
      <path d="M 30.609375 48.390625 
Q 23.390625 48.390625 19.1875 42.75 
Q 14.984375 37.109375 14.984375 27.296875 
Q 14.984375 17.484375 19.15625 11.84375 
Q 23.34375 6.203125 30.609375 6.203125 
Q 37.796875 6.203125 41.984375 11.859375 
Q 46.1875 17.53125 46.1875 27.296875 
Q 46.1875 37.015625 41.984375 42.703125 
Q 37.796875 48.390625 30.609375 48.390625 
z
M 30.609375 56 
Q 42.328125 56 49.015625 48.375 
Q 55.71875 40.765625 55.71875 27.296875 
Q 55.71875 13.875 49.015625 6.21875 
Q 42.328125 -1.421875 30.609375 -1.421875 
Q 18.84375 -1.421875 12.171875 6.21875 
Q 5.515625 13.875 5.515625 27.296875 
Q 5.515625 40.765625 12.171875 48.375 
Q 18.84375 56 30.609375 56 
z
" id="DejaVuSans-111"/>
      <path d="M 9.421875 75.984375 
L 18.40625 75.984375 
L 18.40625 0 
L 9.421875 0 
z
" id="DejaVuSans-108"/>
      <path d="M 8.5 21.578125 
L 8.5 54.6875 
L 17.484375 54.6875 
L 17.484375 21.921875 
Q 17.484375 14.15625 20.5 10.265625 
Q 23.53125 6.390625 29.59375 6.390625 
Q 36.859375 6.390625 41.078125 11.03125 
Q 45.3125 15.671875 45.3125 23.6875 
L 45.3125 54.6875 
L 54.296875 54.6875 
L 54.296875 0 
L 45.3125 0 
L 45.3125 8.40625 
Q 42.046875 3.421875 37.71875 1 
Q 33.40625 -1.421875 27.6875 -1.421875 
Q 18.265625 -1.421875 13.375 4.4375 
Q 8.5 10.296875 8.5 21.578125 
z
M 31.109375 56 
z
" id="DejaVuSans-117"/>
      <path d="M 18.3125 70.21875 
L 18.3125 54.6875 
L 36.8125 54.6875 
L 36.8125 47.703125 
L 18.3125 47.703125 
L 18.3125 18.015625 
Q 18.3125 11.328125 20.140625 9.421875 
Q 21.96875 7.515625 27.59375 7.515625 
L 36.8125 7.515625 
L 36.8125 0 
L 27.59375 0 
Q 17.1875 0 13.234375 3.875 
Q 9.28125 7.765625 9.28125 18.015625 
L 9.28125 47.703125 
L 2.6875 47.703125 
L 2.6875 54.6875 
L 9.28125 54.6875 
L 9.28125 70.21875 
z
" id="DejaVuSans-116"/>
      <path d="M 9.421875 54.6875 
L 18.40625 54.6875 
L 18.40625 0 
L 9.421875 0 
z
M 9.421875 75.984375 
L 18.40625 75.984375 
L 18.40625 64.59375 
L 9.421875 64.59375 
z
" id="DejaVuSans-105"/>
      <path d="M 54.890625 33.015625 
L 54.890625 0 
L 45.90625 0 
L 45.90625 32.71875 
Q 45.90625 40.484375 42.875 44.328125 
Q 39.84375 48.1875 33.796875 48.1875 
Q 26.515625 48.1875 22.3125 43.546875 
Q 18.109375 38.921875 18.109375 30.90625 
L 18.109375 0 
L 9.078125 0 
L 9.078125 54.6875 
L 18.109375 54.6875 
L 18.109375 46.1875 
Q 21.34375 51.125 25.703125 53.5625 
Q 30.078125 56 35.796875 56 
Q 45.21875 56 50.046875 50.171875 
Q 54.890625 44.34375 54.890625 33.015625 
z
" id="DejaVuSans-110"/>
     </defs>
     <g transform="translate(231.585438 255.185031)scale(0.11 -0.11)">
      <use xlink:href="#DejaVuSans-82"/>
      <use x="69.419922" xlink:href="#DejaVuSans-101"/>
      <use x="130.943359" xlink:href="#DejaVuSans-115"/>
      <use x="183.042969" xlink:href="#DejaVuSans-111"/>
      <use x="244.224609" xlink:href="#DejaVuSans-108"/>
      <use x="272.007812" xlink:href="#DejaVuSans-117"/>
      <use x="335.386719" xlink:href="#DejaVuSans-116"/>
      <use x="374.595703" xlink:href="#DejaVuSans-105"/>
      <use x="402.378906" xlink:href="#DejaVuSans-111"/>
      <use x="463.560547" xlink:href="#DejaVuSans-110"/>
     </g>
    </g>
   </g>
   <g id="matplotlib.axis_2">
    <g id="ytick_1">
     <g id="line2d_15">
      <path clip-path="url(#pb2ef5f325e)" d="M 44.567 218.88 
L 490.967 218.88 
" style="fill:none;stroke:#e5e5e5;stroke-width:0.8;"/>
     </g>
     <g id="line2d_16">
      <path d="M 44.567 218.88 
" style="fill:none;stroke:#000000;stroke-width:1.5;"/>
      <defs>
       <path d="M 0 0 
L -2.75 0 
" id="m297bfae0c0" style="stroke:#000000;"/>
      </defs>
      <g>
       <use style="stroke:#000000;" x="44.567" xlink:href="#m297bfae0c0" y="218.88"/>
      </g>
     </g>
     <g id="text_6">
      <!-- 0 -->
      <defs>
       <path d="M 31.78125 66.40625 
Q 24.171875 66.40625 20.328125 58.90625 
Q 16.5 51.421875 16.5 36.375 
Q 16.5 21.390625 20.328125 13.890625 
Q 24.171875 6.390625 31.78125 6.390625 
Q 39.453125 6.390625 43.28125 13.890625 
Q 47.125 21.390625 47.125 36.375 
Q 47.125 51.421875 43.28125 58.90625 
Q 39.453125 66.40625 31.78125 66.40625 
z
M 31.78125 74.21875 
Q 44.046875 74.21875 50.515625 64.515625 
Q 56.984375 54.828125 56.984375 36.375 
Q 56.984375 17.96875 50.515625 8.265625 
Q 44.046875 -1.421875 31.78125 -1.421875 
Q 19.53125 -1.421875 13.0625 8.265625 
Q 6.59375 17.96875 6.59375 36.375 
Q 6.59375 54.828125 13.0625 64.515625 
Q 19.53125 74.21875 31.78125 74.21875 
z
" id="DejaVuSans-48"/>
      </defs>
      <g transform="translate(34.018 221.30825)scale(0.088 -0.088)">
       <use xlink:href="#DejaVuSans-48"/>
      </g>
     </g>
    </g>
    <g id="ytick_2">
     <g id="line2d_17">
      <path clip-path="url(#pb2ef5f325e)" d="M 44.567 168.48 
L 490.967 168.48 
" style="fill:none;stroke:#e5e5e5;stroke-width:0.8;"/>
     </g>
     <g id="line2d_18">
      <path d="M 44.567 168.48 
" style="fill:none;stroke:#000000;stroke-width:1.5;"/>
      <g>
       <use style="stroke:#000000;" x="44.567" xlink:href="#m297bfae0c0" y="168.48"/>
      </g>
     </g>
     <g id="text_7">
      <!-- 25 -->
      <defs>
       <path d="M 10.796875 72.90625 
L 49.515625 72.90625 
L 49.515625 64.59375 
L 19.828125 64.59375 
L 19.828125 46.734375 
Q 21.96875 47.46875 24.109375 47.828125 
Q 26.265625 48.1875 28.421875 48.1875 
Q 40.625 48.1875 47.75 41.5 
Q 54.890625 34.8125 54.890625 23.390625 
Q 54.890625 11.625 47.5625 5.09375 
Q 40.234375 -1.421875 26.90625 -1.421875 
Q 22.3125 -1.421875 17.546875 -0.640625 
Q 12.796875 0.140625 7.71875 1.703125 
L 7.71875 11.625 
Q 12.109375 9.234375 16.796875 8.0625 
Q 21.484375 6.890625 26.703125 6.890625 
Q 35.15625 6.890625 40.078125 11.328125 
Q 45.015625 15.765625 45.015625 23.390625 
Q 45.015625 31 40.078125 35.4375 
Q 35.15625 39.890625 26.703125 39.890625 
Q 22.75 39.890625 18.8125 39.015625 
Q 14.890625 38.140625 10.796875 36.28125 
z
" id="DejaVuSans-53"/>
      </defs>
      <g transform="translate(28.419 170.90825)scale(0.088 -0.088)">
       <use xlink:href="#DejaVuSans-50"/>
       <use x="63.623047" xlink:href="#DejaVuSans-53"/>
      </g>
     </g>
    </g>
    <g id="ytick_3">
     <g id="line2d_19">
      <path clip-path="url(#pb2ef5f325e)" d="M 44.567 118.08 
L 490.967 118.08 
" style="fill:none;stroke:#e5e5e5;stroke-width:0.8;"/>
     </g>
     <g id="line2d_20">
      <path d="M 44.567 118.08 
" style="fill:none;stroke:#000000;stroke-width:1.5;"/>
      <g>
       <use style="stroke:#000000;" x="44.567" xlink:href="#m297bfae0c0" y="118.08"/>
      </g>
     </g>
     <g id="text_8">
      <!-- 50 -->
      <g transform="translate(28.419 120.50825)scale(0.088 -0.088)">
       <use xlink:href="#DejaVuSans-53"/>
       <use x="63.623047" xlink:href="#DejaVuSans-48"/>
      </g>
     </g>
    </g>
    <g id="ytick_4">
     <g id="line2d_21">
      <path clip-path="url(#pb2ef5f325e)" d="M 44.567 67.68 
L 490.967 67.68 
" style="fill:none;stroke:#e5e5e5;stroke-width:0.8;"/>
     </g>
     <g id="line2d_22">
      <path d="M 44.567 67.68 
" style="fill:none;stroke:#000000;stroke-width:1.5;"/>
      <g>
       <use style="stroke:#000000;" x="44.567" xlink:href="#m297bfae0c0" y="67.68"/>
      </g>
     </g>
     <g id="text_9">
      <!-- 75 -->
      <defs>
       <path d="M 8.203125 72.90625 
L 55.078125 72.90625 
L 55.078125 68.703125 
L 28.609375 0 
L 18.3125 0 
L 43.21875 64.59375 
L 8.203125 64.59375 
z
" id="DejaVuSans-55"/>
      </defs>
      <g transform="translate(28.419 70.10825)scale(0.088 -0.088)">
       <use xlink:href="#DejaVuSans-55"/>
       <use x="63.623047" xlink:href="#DejaVuSans-53"/>
      </g>
     </g>
    </g>
    <g id="ytick_5">
     <g id="line2d_23">
      <path clip-path="url(#pb2ef5f325e)" d="M 44.567 17.28 
L 490.967 17.28 
" style="fill:none;stroke:#e5e5e5;stroke-width:0.8;"/>
     </g>
     <g id="line2d_24">
      <path d="M 44.567 17.28 
" style="fill:none;stroke:#000000;stroke-width:1.5;"/>
      <g>
       <use style="stroke:#000000;" x="44.567" xlink:href="#m297bfae0c0" y="17.28"/>
      </g>
     </g>
     <g id="text_10">
      <!-- 100 -->
      <g transform="translate(22.82 19.70825)scale(0.088 -0.088)">
       <use xlink:href="#DejaVuSans-49"/>
       <use x="63.623047" xlink:href="#DejaVuSans-48"/>
       <use x="127.246094" xlink:href="#DejaVuSans-48"/>
      </g>
     </g>
    </g>
    <g id="ytick_6">
     <g id="line2d_25">
      <path clip-path="url(#pb2ef5f325e)" d="M 44.567 193.68 
L 490.967 193.68 
" style="fill:none;stroke:#fafafa;"/>
     </g>
     <g id="line2d_26">
      <path d="M 44.567 193.68 
" style="fill:none;stroke:#000000;stroke-width:1.5;"/>
      <defs>
       <path d="M 0 0 
L -1.375 0 
" id="mad30598c24" style="stroke:#000000;"/>
      </defs>
      <g>
       <use style="stroke:#000000;" x="44.567" xlink:href="#mad30598c24" y="193.68"/>
      </g>
     </g>
    </g>
    <g id="ytick_7">
     <g id="line2d_27">
      <path clip-path="url(#pb2ef5f325e)" d="M 44.567 143.28 
L 490.967 143.28 
" style="fill:none;stroke:#fafafa;"/>
     </g>
     <g id="line2d_28">
      <path d="M 44.567 143.28 
" style="fill:none;stroke:#000000;stroke-width:1.5;"/>
      <g>
       <use style="stroke:#000000;" x="44.567" xlink:href="#mad30598c24" y="143.28"/>
      </g>
     </g>
    </g>
    <g id="ytick_8">
     <g id="line2d_29">
      <path clip-path="url(#pb2ef5f325e)" d="M 44.567 92.88 
L 490.967 92.88 
" style="fill:none;stroke:#fafafa;"/>
     </g>
     <g id="line2d_30">
      <path d="M 44.567 92.88 
" style="fill:none;stroke:#000000;stroke-width:1.5;"/>
      <g>
       <use style="stroke:#000000;" x="44.567" xlink:href="#mad30598c24" y="92.88"/>
      </g>
     </g>
    </g>
    <g id="ytick_9">
     <g id="line2d_31">
      <path clip-path="url(#pb2ef5f325e)" d="M 44.567 42.48 
L 490.967 42.48 
" style="fill:none;stroke:#fafafa;"/>
     </g>
     <g id="line2d_32">
      <path d="M 44.567 42.48 
" style="fill:none;stroke:#000000;stroke-width:1.5;"/>
      <g>
       <use style="stroke:#000000;" x="44.567" xlink:href="#mad30598c24" y="42.48"/>
      </g>
     </g>
    </g>
    <g id="text_11">
     <!-- $P_{Q1n}$ [%] -->
     <defs>
      <path d="M 16.890625 72.90625 
L 39.703125 72.90625 
Q 49.65625 72.90625 54.875 68.265625 
Q 60.109375 63.625 60.109375 54.6875 
Q 60.109375 42.671875 52.390625 35.984375 
Q 44.671875 29.296875 30.71875 29.296875 
L 18.3125 29.296875 
L 12.59375 0 
L 2.6875 0 
z
M 25.203125 64.796875 
L 19.921875 37.40625 
L 32.328125 37.40625 
Q 40.71875 37.40625 45.203125 41.703125 
Q 49.703125 46 49.703125 54 
Q 49.703125 59.125 46.65625 61.953125 
Q 43.609375 64.796875 38.09375 64.796875 
z
" id="DejaVuSans-Oblique-80"/>
      <path d="M 36.078125 -1.3125 
Q 35.546875 -1.375 34.953125 -1.390625 
Q 34.375 -1.421875 33.203125 -1.421875 
Q 19.53125 -1.421875 11.8125 6.421875 
Q 4.109375 14.265625 4.109375 28.078125 
Q 4.109375 36.234375 7.0625 44.4375 
Q 10.015625 52.640625 15.28125 59.1875 
Q 21.390625 66.703125 29.03125 70.453125 
Q 36.671875 74.21875 45.90625 74.21875 
Q 59.28125 74.21875 66.984375 66.328125 
Q 74.703125 58.453125 74.703125 44.828125 
Q 74.703125 30.125 66.640625 17.921875 
Q 58.59375 5.71875 45.609375 0.6875 
L 55.515625 -12.890625 
L 44.484375 -12.890625 
z
M 45.609375 66.21875 
Q 37.5 66.21875 31.296875 62.28125 
Q 25.09375 58.34375 20.515625 50.296875 
Q 17.578125 45.171875 16.03125 39.40625 
Q 14.5 33.640625 14.5 27.78125 
Q 14.5 17.625 19.359375 12.109375 
Q 24.21875 6.59375 33.109375 6.59375 
Q 41.109375 6.59375 47.375 10.5625 
Q 53.65625 14.546875 58.109375 22.40625 
Q 61.078125 27.6875 62.640625 33.46875 
Q 64.203125 39.265625 64.203125 45.015625 
Q 64.203125 55.125 59.3125 60.671875 
Q 54.4375 66.21875 45.609375 66.21875 
z
" id="DejaVuSans-Oblique-81"/>
      <path d="M 55.71875 33.015625 
L 49.3125 0 
L 40.28125 0 
L 46.6875 32.671875 
Q 47.125 34.96875 47.359375 36.71875 
Q 47.609375 38.484375 47.609375 39.5 
Q 47.609375 43.609375 45.015625 45.890625 
Q 42.4375 48.1875 37.796875 48.1875 
Q 30.5625 48.1875 25.34375 43.375 
Q 20.125 38.578125 18.5 30.328125 
L 12.5 0 
L 3.515625 0 
L 14.109375 54.6875 
L 23.09375 54.6875 
L 21.296875 46.09375 
Q 25.046875 50.828125 30.3125 53.40625 
Q 35.59375 56 41.40625 56 
Q 48.640625 56 52.609375 52.09375 
Q 56.59375 48.1875 56.59375 41.109375 
Q 56.59375 39.359375 56.375 37.359375 
Q 56.15625 35.359375 55.71875 33.015625 
z
" id="DejaVuSans-Oblique-110"/>
      <path id="DejaVuSans-32"/>
      <path d="M 8.59375 75.984375 
L 29.296875 75.984375 
L 29.296875 69 
L 17.578125 69 
L 17.578125 -6.203125 
L 29.296875 -6.203125 
L 29.296875 -13.1875 
L 8.59375 -13.1875 
z
" id="DejaVuSans-91"/>
      <path d="M 72.703125 32.078125 
Q 68.453125 32.078125 66.03125 28.46875 
Q 63.625 24.859375 63.625 18.40625 
Q 63.625 12.0625 66.03125 8.421875 
Q 68.453125 4.78125 72.703125 4.78125 
Q 76.859375 4.78125 79.265625 8.421875 
Q 81.6875 12.0625 81.6875 18.40625 
Q 81.6875 24.8125 79.265625 28.4375 
Q 76.859375 32.078125 72.703125 32.078125 
z
M 72.703125 38.28125 
Q 80.421875 38.28125 84.953125 32.90625 
Q 89.5 27.546875 89.5 18.40625 
Q 89.5 9.28125 84.9375 3.921875 
Q 80.375 -1.421875 72.703125 -1.421875 
Q 64.890625 -1.421875 60.34375 3.921875 
Q 55.8125 9.28125 55.8125 18.40625 
Q 55.8125 27.59375 60.375 32.9375 
Q 64.9375 38.28125 72.703125 38.28125 
z
M 22.3125 68.015625 
Q 18.109375 68.015625 15.6875 64.375 
Q 13.28125 60.75 13.28125 54.390625 
Q 13.28125 47.953125 15.671875 44.328125 
Q 18.0625 40.71875 22.3125 40.71875 
Q 26.5625 40.71875 28.96875 44.328125 
Q 31.390625 47.953125 31.390625 54.390625 
Q 31.390625 60.6875 28.953125 64.34375 
Q 26.515625 68.015625 22.3125 68.015625 
z
M 66.40625 74.21875 
L 74.21875 74.21875 
L 28.609375 -1.421875 
L 20.796875 -1.421875 
z
M 22.3125 74.21875 
Q 30.03125 74.21875 34.609375 68.875 
Q 39.203125 63.53125 39.203125 54.390625 
Q 39.203125 45.171875 34.640625 39.84375 
Q 30.078125 34.515625 22.3125 34.515625 
Q 14.546875 34.515625 10.03125 39.859375 
Q 5.515625 45.21875 5.515625 54.390625 
Q 5.515625 63.484375 10.046875 68.84375 
Q 14.59375 74.21875 22.3125 74.21875 
z
" id="DejaVuSans-37"/>
      <path d="M 30.421875 75.984375 
L 30.421875 -13.1875 
L 9.71875 -13.1875 
L 9.71875 -6.203125 
L 21.390625 -6.203125 
L 21.390625 69 
L 9.71875 69 
L 9.71875 75.984375 
z
" id="DejaVuSans-93"/>
     </defs>
     <g transform="translate(15.56 139.3)rotate(-90)scale(0.11 -0.11)">
      <use transform="translate(0 0.015625)" xlink:href="#DejaVuSans-Oblique-80"/>
      <use transform="translate(60.302734 -16.390625)scale(0.7)" xlink:href="#DejaVuSans-Oblique-81"/>
      <use transform="translate(115.400391 -16.390625)scale(0.7)" xlink:href="#DejaVuSans-49"/>
      <use transform="translate(159.936523 -16.390625)scale(0.7)" xlink:href="#DejaVuSans-Oblique-110"/>
      <use transform="translate(207.036133 0.015625)" xlink:href="#DejaVuSans-32"/>
      <use transform="translate(238.823242 0.015625)" xlink:href="#DejaVuSans-91"/>
      <use transform="translate(277.836914 0.015625)" xlink:href="#DejaVuSans-37"/>
      <use transform="translate(372.856445 0.015625)" xlink:href="#DejaVuSans-93"/>
     </g>
    </g>
   </g>
   <g id="PathCollection_1">
    <path clip-path="url(#pb2ef5f325e)" d="M 64.857909 79.973352 
C 65.327969 79.973352 65.77884 79.786595 66.111223 79.454212 
C 66.443606 79.121829 66.630363 78.670958 66.630363 78.200898 
C 66.630363 77.730838 66.443606 77.279967 66.111223 76.947584 
C 65.77884 76.615201 65.327969 76.428444 64.857909 76.428444 
C 64.387849 76.428444 63.936978 76.615201 63.604595 76.947584 
C 63.272212 77.279967 63.085455 77.730838 63.085455 78.200898 
C 63.085455 78.670958 63.272212 79.121829 63.604595 79.454212 
C 63.936978 79.786595 64.387849 79.973352 64.857909 79.973352 
z
" style="stroke:#000000;stroke-width:0.886227;"/>
    <path clip-path="url(#pb2ef5f325e)" d="M 78.385182 79.930306 
C 78.855242 79.930306 79.306113 79.743549 79.638496 79.411166 
C 79.970879 79.078784 80.157636 78.627913 80.157636 78.157852 
C 80.157636 77.687792 79.970879 77.236921 79.638496 76.904538 
C 79.306113 76.572155 78.855242 76.385398 78.385182 76.385398 
C 77.915122 76.385398 77.46425 76.572155 77.131868 76.904538 
C 76.799485 77.236921 76.612728 77.687792 76.612728 78.157852 
C 76.612728 78.627913 76.799485 79.078784 77.131868 79.411166 
C 77.46425 79.743549 77.915122 79.930306 78.385182 79.930306 
z
" style="stroke:#000000;stroke-width:0.886227;"/>
    <path clip-path="url(#pb2ef5f325e)" d="M 91.912455 70.793559 
C 92.382515 70.793559 92.833386 70.606802 93.165769 70.274419 
C 93.498151 69.942036 93.684908 69.491165 93.684908 69.021105 
C 93.684908 68.551045 93.498151 68.100174 93.165769 67.767791 
C 92.833386 67.435408 92.382515 67.248651 91.912455 67.248651 
C 91.442394 67.248651 90.991523 67.435408 90.65914 67.767791 
C 90.326758 68.100174 90.140001 68.551045 90.140001 69.021105 
C 90.140001 69.491165 90.326758 69.942036 90.65914 70.274419 
C 90.991523 70.606802 91.442394 70.793559 91.912455 70.793559 
z
" style="stroke:#000000;stroke-width:0.886227;"/>
    <path clip-path="url(#pb2ef5f325e)" d="M 105.439727 84.13874 
C 105.909788 84.13874 106.360659 83.951983 106.693041 83.6196 
C 107.025424 83.287217 107.212181 82.836346 107.212181 82.366286 
C 107.212181 81.896226 107.025424 81.445355 106.693041 81.112972 
C 106.360659 80.780589 105.909788 80.593832 105.439727 80.593832 
C 104.969667 80.593832 104.518796 80.780589 104.186413 81.112972 
C 103.85403 81.445355 103.667273 81.896226 103.667273 82.366286 
C 103.667273 82.836346 103.85403 83.287217 104.186413 83.6196 
C 104.518796 83.951983 104.969667 84.13874 105.439727 84.13874 
z
" style="stroke:#000000;stroke-width:0.886227;"/>
    <path clip-path="url(#pb2ef5f325e)" d="M 118.967 73.475554 
C 119.43706 73.475554 119.887931 73.288797 120.220314 72.956414 
C 120.552697 72.624031 120.739454 72.17316 120.739454 71.7031 
C 120.739454 71.233039 120.552697 70.782168 120.220314 70.449786 
C 119.887931 70.117403 119.43706 69.930646 118.967 69.930646 
C 118.49694 69.930646 118.046069 70.117403 117.713686 70.449786 
C 117.381303 70.782168 117.194546 71.233039 117.194546 71.7031 
C 117.194546 72.17316 117.381303 72.624031 117.713686 72.956414 
C 118.046069 73.288797 118.49694 73.475554 118.967 73.475554 
z
" style="stroke:#000000;stroke-width:0.886227;"/>
    <path clip-path="url(#pb2ef5f325e)" d="M 132.494273 87.300762 
C 132.964333 87.300762 133.415204 87.114005 133.747587 86.781622 
C 134.07997 86.44924 134.266727 85.998369 134.266727 85.528308 
C 134.266727 85.058248 134.07997 84.607377 133.747587 84.274994 
C 133.415204 83.942611 132.964333 83.755854 132.494273 83.755854 
C 132.024212 83.755854 131.573341 83.942611 131.240959 84.274994 
C 130.908576 84.607377 130.721819 85.058248 130.721819 85.528308 
C 130.721819 85.998369 130.908576 86.44924 131.240959 86.781622 
C 131.573341 87.114005 132.024212 87.300762 132.494273 87.300762 
z
" style="stroke:#000000;stroke-width:0.886227;"/>
    <path clip-path="url(#pb2ef5f325e)" d="M 146.021545 91.073866 
C 146.491606 91.073866 146.942477 90.887109 147.27486 90.554726 
C 147.607242 90.222344 147.793999 89.771472 147.793999 89.301412 
C 147.793999 88.831352 147.607242 88.380481 147.27486 88.048098 
C 146.942477 87.715715 146.491606 87.528958 146.021545 87.528958 
C 145.551485 87.528958 145.100614 87.715715 144.768231 88.048098 
C 144.435849 88.380481 144.249092 88.831352 144.249092 89.301412 
C 144.249092 89.771472 144.435849 90.222344 144.768231 90.554726 
C 145.100614 90.887109 145.551485 91.073866 146.021545 91.073866 
z
" style="stroke:#000000;stroke-width:0.886227;"/>
    <path clip-path="url(#pb2ef5f325e)" d="M 159.548818 103.616721 
C 160.018878 103.616721 160.46975 103.429964 160.802132 103.097581 
C 161.134515 102.765198 161.321272 102.314327 161.321272 101.844267 
C 161.321272 101.374207 161.134515 100.923336 160.802132 100.590953 
C 160.46975 100.25857 160.018878 100.071813 159.548818 100.071813 
C 159.078758 100.071813 158.627887 100.25857 158.295504 100.590953 
C 157.963121 100.923336 157.776364 101.374207 157.776364 101.844267 
C 157.776364 102.314327 157.963121 102.765198 158.295504 103.097581 
C 158.627887 103.429964 159.078758 103.616721 159.548818 103.616721 
z
" style="stroke:#000000;stroke-width:0.886227;"/>
    <path clip-path="url(#pb2ef5f325e)" d="M 173.076091 109.474747 
C 173.546151 109.474747 173.997022 109.28799 174.329405 108.955608 
C 174.661788 108.623225 174.848545 108.172354 174.848545 107.702294 
C 174.848545 107.232233 174.661788 106.781362 174.329405 106.448979 
C 173.997022 106.116597 173.546151 105.92984 173.076091 105.92984 
C 172.606031 105.92984 172.15516 106.116597 171.822777 106.448979 
C 171.490394 106.781362 171.303637 107.232233 171.303637 107.702294 
C 171.303637 108.172354 171.490394 108.623225 171.822777 108.955608 
C 172.15516 109.28799 172.606031 109.474747 173.076091 109.474747 
z
" style="stroke:#000000;stroke-width:0.886227;"/>
    <path clip-path="url(#pb2ef5f325e)" d="M 186.603364 108.581424 
C 187.073424 108.581424 187.524295 108.394667 187.856678 108.062284 
C 188.189061 107.729901 188.375817 107.27903 188.375817 106.80897 
C 188.375817 106.33891 188.189061 105.888039 187.856678 105.555656 
C 187.524295 105.223273 187.073424 105.036516 186.603364 105.036516 
C 186.133303 105.036516 185.682432 105.223273 185.350049 105.555656 
C 185.017667 105.888039 184.83091 106.33891 184.83091 106.80897 
C 184.83091 107.27903 185.017667 107.729901 185.350049 108.062284 
C 185.682432 108.394667 186.133303 108.581424 186.603364 108.581424 
z
" style="stroke:#000000;stroke-width:0.886227;"/>
    <path clip-path="url(#pb2ef5f325e)" d="M 200.130636 135.553409 
C 200.600697 135.553409 201.051568 135.366652 201.383951 135.034269 
C 201.716333 134.701886 201.90309 134.251015 201.90309 133.780955 
C 201.90309 133.310894 201.716333 132.860023 201.383951 132.527641 
C 201.051568 132.195258 200.600697 132.008501 200.130636 132.008501 
C 199.660576 132.008501 199.209705 132.195258 198.877322 132.527641 
C 198.544939 132.860023 198.358183 133.310894 198.358183 133.780955 
C 198.358183 134.251015 198.544939 134.701886 198.877322 135.034269 
C 199.209705 135.366652 199.660576 135.553409 200.130636 135.553409 
z
" style="stroke:#000000;stroke-width:0.886227;"/>
    <path clip-path="url(#pb2ef5f325e)" d="M 213.657909 121.477376 
C 214.127969 121.477376 214.57884 121.290619 214.911223 120.958237 
C 215.243606 120.625854 215.430363 120.174983 215.430363 119.704922 
C 215.430363 119.234862 215.243606 118.783991 214.911223 118.451608 
C 214.57884 118.119225 214.127969 117.932469 213.657909 117.932469 
C 213.187849 117.932469 212.736978 118.119225 212.404595 118.451608 
C 212.072212 118.783991 211.885455 119.234862 211.885455 119.704922 
C 211.885455 120.174983 212.072212 120.625854 212.404595 120.958237 
C 212.736978 121.290619 213.187849 121.477376 213.657909 121.477376 
z
" style="stroke:#000000;stroke-width:0.886227;"/>
    <path clip-path="url(#pb2ef5f325e)" d="M 227.185182 133.542515 
C 227.655242 133.542515 228.106113 133.355759 228.438496 133.023376 
C 228.770879 132.690993 228.957636 132.240122 228.957636 131.770062 
C 228.957636 131.300001 228.770879 130.84913 228.438496 130.516747 
C 228.106113 130.184365 227.655242 129.997608 227.185182 129.997608 
C 226.715122 129.997608 226.26425 130.184365 225.931868 130.516747 
C 225.599485 130.84913 225.412728 131.300001 225.412728 131.770062 
C 225.412728 132.240122 225.599485 132.690993 225.931868 133.023376 
C 226.26425 133.355759 226.715122 133.542515 227.185182 133.542515 
z
" style="stroke:#000000;stroke-width:0.886227;"/>
    <path clip-path="url(#pb2ef5f325e)" d="M 240.712455 129.112276 
C 241.182515 129.112276 241.633386 128.925519 241.965769 128.593136 
C 242.298151 128.260753 242.484908 127.809882 242.484908 127.339822 
C 242.484908 126.869761 242.298151 126.41889 241.965769 126.086508 
C 241.633386 125.754125 241.182515 125.567368 240.712455 125.567368 
C 240.242394 125.567368 239.791523 125.754125 239.45914 126.086508 
C 239.126758 126.41889 238.940001 126.869761 238.940001 127.339822 
C 238.940001 127.809882 239.126758 128.260753 239.45914 128.593136 
C 239.791523 128.925519 240.242394 129.112276 240.712455 129.112276 
z
" style="stroke:#000000;stroke-width:0.886227;"/>
    <path clip-path="url(#pb2ef5f325e)" d="M 254.239727 145.840315 
C 254.709788 145.840315 255.160659 145.653558 255.493041 145.321175 
C 255.825424 144.988792 256.012181 144.537921 256.012181 144.067861 
C 256.012181 143.597801 255.825424 143.14693 255.493041 142.814547 
C 255.160659 142.482164 254.709788 142.295407 254.239727 142.295407 
C 253.769667 142.295407 253.318796 142.482164 252.986413 142.814547 
C 252.65403 143.14693 252.467273 143.597801 252.467273 144.067861 
C 252.467273 144.537921 252.65403 144.988792 252.986413 145.321175 
C 253.318796 145.653558 253.769667 145.840315 254.239727 145.840315 
z
" style="stroke:#000000;stroke-width:0.886227;"/>
    <path clip-path="url(#pb2ef5f325e)" d="M 267.767 155.727695 
C 268.23706 155.727695 268.687931 155.540938 269.020314 155.208555 
C 269.352697 154.876172 269.539454 154.425301 269.539454 153.955241 
C 269.539454 153.485181 269.352697 153.03431 269.020314 152.701927 
C 268.687931 152.369544 268.23706 152.182787 267.767 152.182787 
C 267.29694 152.182787 266.846069 152.369544 266.513686 152.701927 
C 266.181303 153.03431 265.994546 153.485181 265.994546 153.955241 
C 265.994546 154.425301 266.181303 154.876172 266.513686 155.208555 
C 266.846069 155.540938 267.29694 155.727695 267.767 155.727695 
z
" style="stroke:#000000;stroke-width:0.886227;"/>
    <path clip-path="url(#pb2ef5f325e)" d="M 281.294273 141.923268 
C 281.764333 141.923268 282.215204 141.736511 282.547587 141.404129 
C 282.87997 141.071746 283.066727 140.620875 283.066727 140.150814 
C 283.066727 139.680754 282.87997 139.229883 282.547587 138.8975 
C 282.215204 138.565118 281.764333 138.378361 281.294273 138.378361 
C 280.824212 138.378361 280.373341 138.565118 280.040959 138.8975 
C 279.708576 139.229883 279.521819 139.680754 279.521819 140.150814 
C 279.521819 140.620875 279.708576 141.071746 280.040959 141.404129 
C 280.373341 141.736511 280.824212 141.923268 281.294273 141.923268 
z
" style="stroke:#000000;stroke-width:0.886227;"/>
    <path clip-path="url(#pb2ef5f325e)" d="M 294.821545 153.503254 
C 295.291606 153.503254 295.742477 153.316497 296.07486 152.984114 
C 296.407242 152.651732 296.593999 152.20086 296.593999 151.7308 
C 296.593999 151.26074 296.407242 150.809869 296.07486 150.477486 
C 295.742477 150.145103 295.291606 149.958346 294.821545 149.958346 
C 294.351485 149.958346 293.900614 150.145103 293.568231 150.477486 
C 293.235849 150.809869 293.049092 151.26074 293.049092 151.7308 
C 293.049092 152.20086 293.235849 152.651732 293.568231 152.984114 
C 293.900614 153.316497 294.351485 153.503254 294.821545 153.503254 
z
" style="stroke:#000000;stroke-width:0.886227;"/>
    <path clip-path="url(#pb2ef5f325e)" d="M 308.348818 143.647268 
C 308.818878 143.647268 309.26975 143.460511 309.602132 143.128128 
C 309.934515 142.795745 310.121272 142.344874 310.121272 141.874814 
C 310.121272 141.404754 309.934515 140.953883 309.602132 140.6215 
C 309.26975 140.289117 308.818878 140.10236 308.348818 140.10236 
C 307.878758 140.10236 307.427887 140.289117 307.095504 140.6215 
C 306.763121 140.953883 306.576364 141.404754 306.576364 141.874814 
C 306.576364 142.344874 306.763121 142.795745 307.095504 143.128128 
C 307.427887 143.460511 307.878758 143.647268 308.348818 143.647268 
z
" style="stroke:#000000;stroke-width:0.886227;"/>
    <path clip-path="url(#pb2ef5f325e)" d="M 321.876091 142.14331 
C 322.346151 142.14331 322.797022 141.956553 323.129405 141.62417 
C 323.461788 141.291787 323.648545 140.840916 323.648545 140.370856 
C 323.648545 139.900795 323.461788 139.449924 323.129405 139.117542 
C 322.797022 138.785159 322.346151 138.598402 321.876091 138.598402 
C 321.406031 138.598402 320.95516 138.785159 320.622777 139.117542 
C 320.290394 139.449924 320.103637 139.900795 320.103637 140.370856 
C 320.103637 140.840916 320.290394 141.291787 320.622777 141.62417 
C 320.95516 141.956553 321.406031 142.14331 321.876091 142.14331 
z
" style="stroke:#000000;stroke-width:0.886227;"/>
    <path clip-path="url(#pb2ef5f325e)" d="M 335.403364 145.397981 
C 335.873424 145.397981 336.324295 145.211224 336.656678 144.878841 
C 336.989061 144.546458 337.175817 144.095587 337.175817 143.625527 
C 337.175817 143.155467 336.989061 142.704595 336.656678 142.372213 
C 336.324295 142.03983 335.873424 141.853073 335.403364 141.853073 
C 334.933303 141.853073 334.482432 142.03983 334.150049 142.372213 
C 333.817667 142.704595 333.63091 143.155467 333.63091 143.625527 
C 333.63091 144.095587 333.817667 144.546458 334.150049 144.878841 
C 334.482432 145.211224 334.933303 145.397981 335.403364 145.397981 
z
" style="stroke:#000000;stroke-width:0.886227;"/>
    <path clip-path="url(#pb2ef5f325e)" d="M 348.930636 148.842955 
C 349.400697 148.842955 349.851568 148.656198 350.183951 148.323815 
C 350.516333 147.991432 350.70309 147.540561 350.70309 147.070501 
C 350.70309 146.600441 350.516333 146.149569 350.183951 145.817187 
C 349.851568 145.484804 349.400697 145.298047 348.930636 145.298047 
C 348.460576 145.298047 348.009705 145.484804 347.677322 145.817187 
C 347.344939 146.149569 347.158183 146.600441 347.158183 147.070501 
C 347.158183 147.540561 347.344939 147.991432 347.677322 148.323815 
C 348.009705 148.656198 348.460576 148.842955 348.930636 148.842955 
z
" style="stroke:#000000;stroke-width:0.886227;"/>
    <path clip-path="url(#pb2ef5f325e)" d="M 362.457909 152.467707 
C 362.927969 152.467707 363.37884 152.28095 363.711223 151.948567 
C 364.043606 151.616185 364.230363 151.165313 364.230363 150.695253 
C 364.230363 150.225193 364.043606 149.774322 363.711223 149.441939 
C 363.37884 149.109556 362.927969 148.922799 362.457909 148.922799 
C 361.987849 148.922799 361.536978 149.109556 361.204595 149.441939 
C 360.872212 149.774322 360.685455 150.225193 360.685455 150.695253 
C 360.685455 151.165313 360.872212 151.616185 361.204595 151.948567 
C 361.536978 152.28095 361.987849 152.467707 362.457909 152.467707 
z
" style="stroke:#000000;stroke-width:0.886227;"/>
    <path clip-path="url(#pb2ef5f325e)" d="M 375.985182 166.483326 
C 376.455242 166.483326 376.906113 166.296569 377.238496 165.964187 
C 377.570879 165.631804 377.757636 165.180933 377.757636 164.710872 
C 377.757636 164.240812 377.570879 163.789941 377.238496 163.457558 
C 376.906113 163.125176 376.455242 162.938419 375.985182 162.938419 
C 375.515122 162.938419 375.06425 163.125176 374.731868 163.457558 
C 374.399485 163.789941 374.212728 164.240812 374.212728 164.710872 
C 374.212728 165.180933 374.399485 165.631804 374.731868 165.964187 
C 375.06425 166.296569 375.515122 166.483326 375.985182 166.483326 
z
" style="stroke:#000000;stroke-width:0.886227;"/>
    <path clip-path="url(#pb2ef5f325e)" d="M 389.512455 167.546414 
C 389.982515 167.546414 390.433386 167.359657 390.765769 167.027274 
C 391.098151 166.694891 391.284908 166.24402 391.284908 165.77396 
C 391.284908 165.303899 391.098151 164.853028 390.765769 164.520646 
C 390.433386 164.188263 389.982515 164.001506 389.512455 164.001506 
C 389.042394 164.001506 388.591523 164.188263 388.25914 164.520646 
C 387.926758 164.853028 387.740001 165.303899 387.740001 165.77396 
C 387.740001 166.24402 387.926758 166.694891 388.25914 167.027274 
C 388.591523 167.359657 389.042394 167.546414 389.512455 167.546414 
z
" style="stroke:#000000;stroke-width:0.886227;"/>
    <path clip-path="url(#pb2ef5f325e)" d="M 403.039727 165.551399 
C 403.509788 165.551399 403.960659 165.364642 404.293041 165.032259 
C 404.625424 164.699877 404.812181 164.249006 404.812181 163.778945 
C 404.812181 163.308885 404.625424 162.858014 404.293041 162.525631 
C 403.960659 162.193248 403.509788 162.006491 403.039727 162.006491 
C 402.569667 162.006491 402.118796 162.193248 401.786413 162.525631 
C 401.45403 162.858014 401.267273 163.308885 401.267273 163.778945 
C 401.267273 164.249006 401.45403 164.699877 401.786413 165.032259 
C 402.118796 165.364642 402.569667 165.551399 403.039727 165.551399 
z
" style="stroke:#000000;stroke-width:0.886227;"/>
    <path clip-path="url(#pb2ef5f325e)" d="M 416.567 193.604132 
C 417.03706 193.604132 417.487931 193.417375 417.820314 193.084992 
C 418.152697 192.752609 418.339454 192.301738 418.339454 191.831678 
C 418.339454 191.361618 418.152697 190.910747 417.820314 190.578364 
C 417.487931 190.245981 417.03706 190.059224 416.567 190.059224 
C 416.09694 190.059224 415.646069 190.245981 415.313686 190.578364 
C 414.981303 190.910747 414.794546 191.361618 414.794546 191.831678 
C 414.794546 192.301738 414.981303 192.752609 415.313686 193.084992 
C 415.646069 193.417375 416.09694 193.604132 416.567 193.604132 
z
" style="stroke:#000000;stroke-width:0.886227;"/>
    <path clip-path="url(#pb2ef5f325e)" d="M 430.094273 194.599913 
C 430.564333 194.599913 431.015204 194.413156 431.347587 194.080773 
C 431.67997 193.748391 431.866727 193.29752 431.866727 192.827459 
C 431.866727 192.357399 431.67997 191.906528 431.347587 191.574145 
C 431.015204 191.241762 430.564333 191.055005 430.094273 191.055005 
C 429.624212 191.055005 429.173341 191.241762 428.840959 191.574145 
C 428.508576 191.906528 428.321819 192.357399 428.321819 192.827459 
C 428.321819 193.29752 428.508576 193.748391 428.840959 194.080773 
C 429.173341 194.413156 429.624212 194.599913 430.094273 194.599913 
z
" style="stroke:#000000;stroke-width:0.886227;"/>
    <path clip-path="url(#pb2ef5f325e)" d="M 443.621545 215.353125 
C 444.091606 215.353125 444.542477 215.166368 444.87486 214.833985 
C 445.207242 214.501602 445.393999 214.050731 445.393999 213.580671 
C 445.393999 213.110611 445.207242 212.65974 444.87486 212.327357 
C 444.542477 211.994974 444.091606 211.808217 443.621545 211.808217 
C 443.151485 211.808217 442.700614 211.994974 442.368231 212.327357 
C 442.035849 212.65974 441.849092 213.110611 441.849092 213.580671 
C 441.849092 214.050731 442.035849 214.501602 442.368231 214.833985 
C 442.700614 215.166368 443.151485 215.353125 443.621545 215.353125 
z
" style="stroke:#000000;stroke-width:0.886227;"/>
    <path clip-path="url(#pb2ef5f325e)" d="M 457.148818 135.363863 
C 457.618878 135.363863 458.06975 135.177106 458.402132 134.844724 
C 458.734515 134.512341 458.921272 134.06147 458.921272 133.591409 
C 458.921272 133.121349 458.734515 132.670478 458.402132 132.338095 
C 458.06975 132.005712 457.618878 131.818956 457.148818 131.818956 
C 456.678758 131.818956 456.227887 132.005712 455.895504 132.338095 
C 455.563121 132.670478 455.376364 133.121349 455.376364 133.591409 
C 455.376364 134.06147 455.563121 134.512341 455.895504 134.844724 
C 456.227887 135.177106 456.678758 135.363863 457.148818 135.363863 
z
" style="stroke:#000000;stroke-width:0.886227;"/>
    <path clip-path="url(#pb2ef5f325e)" d="M 470.676091 152.387066 
C 471.146151 152.387066 471.597022 152.200309 471.929405 151.867926 
C 472.261788 151.535543 472.448545 151.084672 472.448545 150.614612 
C 472.448545 150.144551 472.261788 149.69368 471.929405 149.361298 
C 471.597022 149.028915 471.146151 148.842158 470.676091 148.842158 
C 470.206031 148.842158 469.75516 149.028915 469.422777 149.361298 
C 469.090394 149.69368 468.903637 150.144551 468.903637 150.614612 
C 468.903637 151.084672 469.090394 151.535543 469.422777 151.867926 
C 469.75516 152.200309 470.206031 152.387066 470.676091 152.387066 
z
" style="stroke:#000000;stroke-width:0.886227;"/>
   </g>
   <g id="line2d_33">
    <path clip-path="url(#pb2ef5f325e)" d="M 64.857909 78.200898 
L 78.385182 78.157852 
L 91.912455 69.021105 
L 105.439727 82.366286 
L 118.967 71.7031 
L 132.494273 85.528308 
L 146.021545 89.301412 
L 159.548818 101.844267 
L 173.076091 107.702294 
L 186.603364 106.80897 
L 200.130636 133.780955 
L 213.657909 119.704922 
L 227.185182 131.770062 
L 240.712455 127.339822 
L 254.239727 144.067861 
L 267.767 153.955241 
L 281.294273 140.150814 
L 294.821545 151.7308 
L 308.348818 141.874814 
L 321.876091 140.370856 
L 335.403364 143.625527 
L 348.930636 147.070501 
L 362.457909 150.695253 
L 375.985182 164.710872 
L 389.512455 165.77396 
L 403.039727 163.778945 
L 416.567 191.831678 
L 430.094273 192.827459 
L 443.621545 213.580671 
L 457.148818 133.591409 
L 470.676091 150.614612 
" style="fill:none;stroke:#000000;stroke-width:0.886227;"/>
   </g>
  </g>
 </g>
 <defs>
  <clipPath id="pb2ef5f325e">
   <rect height="221.76" width="446.4" x="44.567" y="7.2"/>
  </clipPath>
 </defs>
</svg>
