<?xml version="1.0" encoding="utf-8" standalone="no"?>
<!DOCTYPE svg PUBLIC "-//W3C//DTD SVG 1.1//EN"
  "http://www.w3.org/Graphics/SVG/1.1/DTD/svg11.dtd">
<!-- Created with matplotlib (https://matplotlib.org/) -->
<svg height="264.672687pt" version="1.1" viewBox="0 0 498.167 264.672687" width="498.167pt" xmlns="http://www.w3.org/2000/svg" xmlns:xlink="http://www.w3.org/1999/xlink">
 <defs>
  <style type="text/css">
*{stroke-linecap:butt;stroke-linejoin:round;}
  </style>
 </defs>
 <g id="figure_1">
  <g id="patch_1">
   <path d="M 0 264.672687 
L 498.167 264.672687 
L 498.167 0 
L 0 0 
z
" style="fill:#ffffff;stroke:#ffffff;stroke-linejoin:miter;"/>
  </g>
  <g id="axes_1">
   <g id="patch_2">
    <path d="M 44.567 228.96 
L 490.967 228.96 
L 490.967 7.2 
L 44.567 7.2 
z
" style="fill:#ffffff;stroke:#7f7f7f;stroke-linejoin:miter;"/>
   </g>
   <g id="matplotlib.axis_1">
    <g id="xtick_1">
     <g id="line2d_1">
      <path clip-path="url(#p08d375a60a)" d="M 64.857909 228.96 
L 64.857909 7.2 
" style="fill:none;stroke:#e5e5e5;stroke-width:0.8;"/>
     </g>
     <g id="line2d_2">
      <path d="M 64.857909 228.96 
" style="fill:none;stroke:#000000;stroke-width:1.5;"/>
      <defs>
       <path d="M 0 0 
L 0 2.75 
" id="md790d6daed" style="stroke:#000000;"/>
      </defs>
      <g>
       <use style="stroke:#000000;" x="64.857909" xlink:href="#md790d6daed" y="228.96"/>
      </g>
     </g>
     <g id="text_1">
      <!-- 1 -->
      <defs>
       <path d="M 12.40625 8.296875 
L 28.515625 8.296875 
L 28.515625 63.921875 
L 10.984375 60.40625 
L 10.984375 69.390625 
L 28.421875 72.90625 
L 38.28125 72.90625 
L 38.28125 8.296875 
L 54.390625 8.296875 
L 54.390625 0 
L 12.40625 0 
z
" id="DejaVuSans-49"/>
      </defs>
      <g transform="translate(62.058409 240.596625)scale(0.088 -0.088)">
       <use xlink:href="#DejaVuSans-49"/>
      </g>
     </g>
    </g>
    <g id="xtick_2">
     <g id="line2d_3">
      <path clip-path="url(#p08d375a60a)" d="M 200.130636 228.96 
L 200.130636 7.2 
" style="fill:none;stroke:#e5e5e5;stroke-width:0.8;"/>
     </g>
     <g id="line2d_4">
      <path d="M 200.130636 228.96 
" style="fill:none;stroke:#000000;stroke-width:1.5;"/>
      <g>
       <use style="stroke:#000000;" x="200.130636" xlink:href="#md790d6daed" y="228.96"/>
      </g>
     </g>
     <g id="text_2">
      <!-- 2 -->
      <defs>
       <path d="M 19.1875 8.296875 
L 53.609375 8.296875 
L 53.609375 0 
L 7.328125 0 
L 7.328125 8.296875 
Q 12.9375 14.109375 22.625 23.890625 
Q 32.328125 33.6875 34.8125 36.53125 
Q 39.546875 41.84375 41.421875 45.53125 
Q 43.3125 49.21875 43.3125 52.78125 
Q 43.3125 58.59375 39.234375 62.25 
Q 35.15625 65.921875 28.609375 65.921875 
Q 23.96875 65.921875 18.8125 64.3125 
Q 13.671875 62.703125 7.8125 59.421875 
L 7.8125 69.390625 
Q 13.765625 71.78125 18.9375 73 
Q 24.125 74.21875 28.421875 74.21875 
Q 39.75 74.21875 46.484375 68.546875 
Q 53.21875 62.890625 53.21875 53.421875 
Q 53.21875 48.921875 51.53125 44.890625 
Q 49.859375 40.875 45.40625 35.40625 
Q 44.1875 33.984375 37.640625 27.21875 
Q 31.109375 20.453125 19.1875 8.296875 
z
" id="DejaVuSans-50"/>
      </defs>
      <g transform="translate(197.331136 240.596625)scale(0.088 -0.088)">
       <use xlink:href="#DejaVuSans-50"/>
      </g>
     </g>
    </g>
    <g id="xtick_3">
     <g id="line2d_5">
      <path clip-path="url(#p08d375a60a)" d="M 335.403364 228.96 
L 335.403364 7.2 
" style="fill:none;stroke:#e5e5e5;stroke-width:0.8;"/>
     </g>
     <g id="line2d_6">
      <path d="M 335.403364 228.96 
" style="fill:none;stroke:#000000;stroke-width:1.5;"/>
      <g>
       <use style="stroke:#000000;" x="335.403364" xlink:href="#md790d6daed" y="228.96"/>
      </g>
     </g>
     <g id="text_3">
      <!-- 3 -->
      <defs>
       <path d="M 40.578125 39.3125 
Q 47.65625 37.796875 51.625 33 
Q 55.609375 28.21875 55.609375 21.1875 
Q 55.609375 10.40625 48.1875 4.484375 
Q 40.765625 -1.421875 27.09375 -1.421875 
Q 22.515625 -1.421875 17.65625 -0.515625 
Q 12.796875 0.390625 7.625 2.203125 
L 7.625 11.71875 
Q 11.71875 9.328125 16.59375 8.109375 
Q 21.484375 6.890625 26.8125 6.890625 
Q 36.078125 6.890625 40.9375 10.546875 
Q 45.796875 14.203125 45.796875 21.1875 
Q 45.796875 27.640625 41.28125 31.265625 
Q 36.765625 34.90625 28.71875 34.90625 
L 20.21875 34.90625 
L 20.21875 43.015625 
L 29.109375 43.015625 
Q 36.375 43.015625 40.234375 45.921875 
Q 44.09375 48.828125 44.09375 54.296875 
Q 44.09375 59.90625 40.109375 62.90625 
Q 36.140625 65.921875 28.71875 65.921875 
Q 24.65625 65.921875 20.015625 65.03125 
Q 15.375 64.15625 9.8125 62.3125 
L 9.8125 71.09375 
Q 15.4375 72.65625 20.34375 73.4375 
Q 25.25 74.21875 29.59375 74.21875 
Q 40.828125 74.21875 47.359375 69.109375 
Q 53.90625 64.015625 53.90625 55.328125 
Q 53.90625 49.265625 50.4375 45.09375 
Q 46.96875 40.921875 40.578125 39.3125 
z
" id="DejaVuSans-51"/>
      </defs>
      <g transform="translate(332.603864 240.596625)scale(0.088 -0.088)">
       <use xlink:href="#DejaVuSans-51"/>
      </g>
     </g>
    </g>
    <g id="xtick_4">
     <g id="line2d_7">
      <path clip-path="url(#p08d375a60a)" d="M 470.676091 228.96 
L 470.676091 7.2 
" style="fill:none;stroke:#e5e5e5;stroke-width:0.8;"/>
     </g>
     <g id="line2d_8">
      <path d="M 470.676091 228.96 
" style="fill:none;stroke:#000000;stroke-width:1.5;"/>
      <g>
       <use style="stroke:#000000;" x="470.676091" xlink:href="#md790d6daed" y="228.96"/>
      </g>
     </g>
     <g id="text_4">
      <!-- 4 -->
      <defs>
       <path d="M 37.796875 64.3125 
L 12.890625 25.390625 
L 37.796875 25.390625 
z
M 35.203125 72.90625 
L 47.609375 72.90625 
L 47.609375 25.390625 
L 58.015625 25.390625 
L 58.015625 17.1875 
L 47.609375 17.1875 
L 47.609375 0 
L 37.796875 0 
L 37.796875 17.1875 
L 4.890625 17.1875 
L 4.890625 26.703125 
z
" id="DejaVuSans-52"/>
      </defs>
      <g transform="translate(467.876591 240.596625)scale(0.088 -0.088)">
       <use xlink:href="#DejaVuSans-52"/>
      </g>
     </g>
    </g>
    <g id="xtick_5">
     <g id="line2d_9">
      <path clip-path="url(#p08d375a60a)" d="M 132.494273 228.96 
L 132.494273 7.2 
" style="fill:none;stroke:#fafafa;"/>
     </g>
     <g id="line2d_10">
      <path d="M 132.494273 228.96 
" style="fill:none;stroke:#000000;stroke-width:1.5;"/>
      <defs>
       <path d="M 0 0 
L 0 1.375 
" id="mb479678d04" style="stroke:#000000;"/>
      </defs>
      <g>
       <use style="stroke:#000000;" x="132.494273" xlink:href="#mb479678d04" y="228.96"/>
      </g>
     </g>
    </g>
    <g id="xtick_6">
     <g id="line2d_11">
      <path clip-path="url(#p08d375a60a)" d="M 267.767 228.96 
L 267.767 7.2 
" style="fill:none;stroke:#fafafa;"/>
     </g>
     <g id="line2d_12">
      <path d="M 267.767 228.96 
" style="fill:none;stroke:#000000;stroke-width:1.5;"/>
      <g>
       <use style="stroke:#000000;" x="267.767" xlink:href="#mb479678d04" y="228.96"/>
      </g>
     </g>
    </g>
    <g id="xtick_7">
     <g id="line2d_13">
      <path clip-path="url(#p08d375a60a)" d="M 403.039727 228.96 
L 403.039727 7.2 
" style="fill:none;stroke:#fafafa;"/>
     </g>
     <g id="line2d_14">
      <path d="M 403.039727 228.96 
" style="fill:none;stroke:#000000;stroke-width:1.5;"/>
      <g>
       <use style="stroke:#000000;" x="403.039727" xlink:href="#mb479678d04" y="228.96"/>
      </g>
     </g>
    </g>
    <g id="text_5">
     <!-- Resolution -->
     <defs>
      <path d="M 44.390625 34.1875 
Q 47.5625 33.109375 50.5625 29.59375 
Q 53.5625 26.078125 56.59375 19.921875 
L 66.609375 0 
L 56 0 
L 46.6875 18.703125 
Q 43.0625 26.03125 39.671875 28.421875 
Q 36.28125 30.8125 30.421875 30.8125 
L 19.671875 30.8125 
L 19.671875 0 
L 9.8125 0 
L 9.8125 72.90625 
L 32.078125 72.90625 
Q 44.578125 72.90625 50.734375 67.671875 
Q 56.890625 62.453125 56.890625 51.90625 
Q 56.890625 45.015625 53.6875 40.46875 
Q 50.484375 35.9375 44.390625 34.1875 
z
M 19.671875 64.796875 
L 19.671875 38.921875 
L 32.078125 38.921875 
Q 39.203125 38.921875 42.84375 42.21875 
Q 46.484375 45.515625 46.484375 51.90625 
Q 46.484375 58.296875 42.84375 61.546875 
Q 39.203125 64.796875 32.078125 64.796875 
z
" id="DejaVuSans-82"/>
      <path d="M 56.203125 29.59375 
L 56.203125 25.203125 
L 14.890625 25.203125 
Q 15.484375 15.921875 20.484375 11.0625 
Q 25.484375 6.203125 34.421875 6.203125 
Q 39.59375 6.203125 44.453125 7.46875 
Q 49.3125 8.734375 54.109375 11.28125 
L 54.109375 2.78125 
Q 49.265625 0.734375 44.1875 -0.34375 
Q 39.109375 -1.421875 33.890625 -1.421875 
Q 20.796875 -1.421875 13.15625 6.1875 
Q 5.515625 13.8125 5.515625 26.8125 
Q 5.515625 40.234375 12.765625 48.109375 
Q 20.015625 56 32.328125 56 
Q 43.359375 56 49.78125 48.890625 
Q 56.203125 41.796875 56.203125 29.59375 
z
M 47.21875 32.234375 
Q 47.125 39.59375 43.09375 43.984375 
Q 39.0625 48.390625 32.421875 48.390625 
Q 24.90625 48.390625 20.390625 44.140625 
Q 15.875 39.890625 15.1875 32.171875 
z
" id="DejaVuSans-101"/>
      <path d="M 44.28125 53.078125 
L 44.28125 44.578125 
Q 40.484375 46.53125 36.375 47.5 
Q 32.28125 48.484375 27.875 48.484375 
Q 21.1875 48.484375 17.84375 46.4375 
Q 14.5 44.390625 14.5 40.28125 
Q 14.5 37.15625 16.890625 35.375 
Q 19.28125 33.59375 26.515625 31.984375 
L 29.59375 31.296875 
Q 39.15625 29.25 43.1875 25.515625 
Q 47.21875 21.78125 47.21875 15.09375 
Q 47.21875 7.46875 41.1875 3.015625 
Q 35.15625 -1.421875 24.609375 -1.421875 
Q 20.21875 -1.421875 15.453125 -0.5625 
Q 10.6875 0.296875 5.421875 2 
L 5.421875 11.28125 
Q 10.40625 8.6875 15.234375 7.390625 
Q 20.0625 6.109375 24.8125 6.109375 
Q 31.15625 6.109375 34.5625 8.28125 
Q 37.984375 10.453125 37.984375 14.40625 
Q 37.984375 18.0625 35.515625 20.015625 
Q 33.0625 21.96875 24.703125 23.78125 
L 21.578125 24.515625 
Q 13.234375 26.265625 9.515625 29.90625 
Q 5.8125 33.546875 5.8125 39.890625 
Q 5.8125 47.609375 11.28125 51.796875 
Q 16.75 56 26.8125 56 
Q 31.78125 56 36.171875 55.265625 
Q 40.578125 54.546875 44.28125 53.078125 
z
" id="DejaVuSans-115"/>
      <path d="M 30.609375 48.390625 
Q 23.390625 48.390625 19.1875 42.75 
Q 14.984375 37.109375 14.984375 27.296875 
Q 14.984375 17.484375 19.15625 11.84375 
Q 23.34375 6.203125 30.609375 6.203125 
Q 37.796875 6.203125 41.984375 11.859375 
Q 46.1875 17.53125 46.1875 27.296875 
Q 46.1875 37.015625 41.984375 42.703125 
Q 37.796875 48.390625 30.609375 48.390625 
z
M 30.609375 56 
Q 42.328125 56 49.015625 48.375 
Q 55.71875 40.765625 55.71875 27.296875 
Q 55.71875 13.875 49.015625 6.21875 
Q 42.328125 -1.421875 30.609375 -1.421875 
Q 18.84375 -1.421875 12.171875 6.21875 
Q 5.515625 13.875 5.515625 27.296875 
Q 5.515625 40.765625 12.171875 48.375 
Q 18.84375 56 30.609375 56 
z
" id="DejaVuSans-111"/>
      <path d="M 9.421875 75.984375 
L 18.40625 75.984375 
L 18.40625 0 
L 9.421875 0 
z
" id="DejaVuSans-108"/>
      <path d="M 8.5 21.578125 
L 8.5 54.6875 
L 17.484375 54.6875 
L 17.484375 21.921875 
Q 17.484375 14.15625 20.5 10.265625 
Q 23.53125 6.390625 29.59375 6.390625 
Q 36.859375 6.390625 41.078125 11.03125 
Q 45.3125 15.671875 45.3125 23.6875 
L 45.3125 54.6875 
L 54.296875 54.6875 
L 54.296875 0 
L 45.3125 0 
L 45.3125 8.40625 
Q 42.046875 3.421875 37.71875 1 
Q 33.40625 -1.421875 27.6875 -1.421875 
Q 18.265625 -1.421875 13.375 4.4375 
Q 8.5 10.296875 8.5 21.578125 
z
M 31.109375 56 
z
" id="DejaVuSans-117"/>
      <path d="M 18.3125 70.21875 
L 18.3125 54.6875 
L 36.8125 54.6875 
L 36.8125 47.703125 
L 18.3125 47.703125 
L 18.3125 18.015625 
Q 18.3125 11.328125 20.140625 9.421875 
Q 21.96875 7.515625 27.59375 7.515625 
L 36.8125 7.515625 
L 36.8125 0 
L 27.59375 0 
Q 17.1875 0 13.234375 3.875 
Q 9.28125 7.765625 9.28125 18.015625 
L 9.28125 47.703125 
L 2.6875 47.703125 
L 2.6875 54.6875 
L 9.28125 54.6875 
L 9.28125 70.21875 
z
" id="DejaVuSans-116"/>
      <path d="M 9.421875 54.6875 
L 18.40625 54.6875 
L 18.40625 0 
L 9.421875 0 
z
M 9.421875 75.984375 
L 18.40625 75.984375 
L 18.40625 64.59375 
L 9.421875 64.59375 
z
" id="DejaVuSans-105"/>
      <path d="M 54.890625 33.015625 
L 54.890625 0 
L 45.90625 0 
L 45.90625 32.71875 
Q 45.90625 40.484375 42.875 44.328125 
Q 39.84375 48.1875 33.796875 48.1875 
Q 26.515625 48.1875 22.3125 43.546875 
Q 18.109375 38.921875 18.109375 30.90625 
L 18.109375 0 
L 9.078125 0 
L 9.078125 54.6875 
L 18.109375 54.6875 
L 18.109375 46.1875 
Q 21.34375 51.125 25.703125 53.5625 
Q 30.078125 56 35.796875 56 
Q 45.21875 56 50.046875 50.171875 
Q 54.890625 44.34375 54.890625 33.015625 
z
" id="DejaVuSans-110"/>
     </defs>
     <g transform="translate(231.585438 255.185031)scale(0.11 -0.11)">
      <use xlink:href="#DejaVuSans-82"/>
      <use x="69.419922" xlink:href="#DejaVuSans-101"/>
      <use x="130.943359" xlink:href="#DejaVuSans-115"/>
      <use x="183.042969" xlink:href="#DejaVuSans-111"/>
      <use x="244.224609" xlink:href="#DejaVuSans-108"/>
      <use x="272.007812" xlink:href="#DejaVuSans-117"/>
      <use x="335.386719" xlink:href="#DejaVuSans-116"/>
      <use x="374.595703" xlink:href="#DejaVuSans-105"/>
      <use x="402.378906" xlink:href="#DejaVuSans-111"/>
      <use x="463.560547" xlink:href="#DejaVuSans-110"/>
     </g>
    </g>
   </g>
   <g id="matplotlib.axis_2">
    <g id="ytick_1">
     <g id="line2d_15">
      <path clip-path="url(#p08d375a60a)" d="M 44.567 218.88 
L 490.967 218.88 
" style="fill:none;stroke:#e5e5e5;stroke-width:0.8;"/>
     </g>
     <g id="line2d_16">
      <path d="M 44.567 218.88 
" style="fill:none;stroke:#000000;stroke-width:1.5;"/>
      <defs>
       <path d="M 0 0 
L -2.75 0 
" id="meeae6a75cd" style="stroke:#000000;"/>
      </defs>
      <g>
       <use style="stroke:#000000;" x="44.567" xlink:href="#meeae6a75cd" y="218.88"/>
      </g>
     </g>
     <g id="text_6">
      <!-- 0 -->
      <defs>
       <path d="M 31.78125 66.40625 
Q 24.171875 66.40625 20.328125 58.90625 
Q 16.5 51.421875 16.5 36.375 
Q 16.5 21.390625 20.328125 13.890625 
Q 24.171875 6.390625 31.78125 6.390625 
Q 39.453125 6.390625 43.28125 13.890625 
Q 47.125 21.390625 47.125 36.375 
Q 47.125 51.421875 43.28125 58.90625 
Q 39.453125 66.40625 31.78125 66.40625 
z
M 31.78125 74.21875 
Q 44.046875 74.21875 50.515625 64.515625 
Q 56.984375 54.828125 56.984375 36.375 
Q 56.984375 17.96875 50.515625 8.265625 
Q 44.046875 -1.421875 31.78125 -1.421875 
Q 19.53125 -1.421875 13.0625 8.265625 
Q 6.59375 17.96875 6.59375 36.375 
Q 6.59375 54.828125 13.0625 64.515625 
Q 19.53125 74.21875 31.78125 74.21875 
z
" id="DejaVuSans-48"/>
      </defs>
      <g transform="translate(34.018 221.30825)scale(0.088 -0.088)">
       <use xlink:href="#DejaVuSans-48"/>
      </g>
     </g>
    </g>
    <g id="ytick_2">
     <g id="line2d_17">
      <path clip-path="url(#p08d375a60a)" d="M 44.567 168.48 
L 490.967 168.48 
" style="fill:none;stroke:#e5e5e5;stroke-width:0.8;"/>
     </g>
     <g id="line2d_18">
      <path d="M 44.567 168.48 
" style="fill:none;stroke:#000000;stroke-width:1.5;"/>
      <g>
       <use style="stroke:#000000;" x="44.567" xlink:href="#meeae6a75cd" y="168.48"/>
      </g>
     </g>
     <g id="text_7">
      <!-- 25 -->
      <defs>
       <path d="M 10.796875 72.90625 
L 49.515625 72.90625 
L 49.515625 64.59375 
L 19.828125 64.59375 
L 19.828125 46.734375 
Q 21.96875 47.46875 24.109375 47.828125 
Q 26.265625 48.1875 28.421875 48.1875 
Q 40.625 48.1875 47.75 41.5 
Q 54.890625 34.8125 54.890625 23.390625 
Q 54.890625 11.625 47.5625 5.09375 
Q 40.234375 -1.421875 26.90625 -1.421875 
Q 22.3125 -1.421875 17.546875 -0.640625 
Q 12.796875 0.140625 7.71875 1.703125 
L 7.71875 11.625 
Q 12.109375 9.234375 16.796875 8.0625 
Q 21.484375 6.890625 26.703125 6.890625 
Q 35.15625 6.890625 40.078125 11.328125 
Q 45.015625 15.765625 45.015625 23.390625 
Q 45.015625 31 40.078125 35.4375 
Q 35.15625 39.890625 26.703125 39.890625 
Q 22.75 39.890625 18.8125 39.015625 
Q 14.890625 38.140625 10.796875 36.28125 
z
" id="DejaVuSans-53"/>
      </defs>
      <g transform="translate(28.419 170.90825)scale(0.088 -0.088)">
       <use xlink:href="#DejaVuSans-50"/>
       <use x="63.623047" xlink:href="#DejaVuSans-53"/>
      </g>
     </g>
    </g>
    <g id="ytick_3">
     <g id="line2d_19">
      <path clip-path="url(#p08d375a60a)" d="M 44.567 118.08 
L 490.967 118.08 
" style="fill:none;stroke:#e5e5e5;stroke-width:0.8;"/>
     </g>
     <g id="line2d_20">
      <path d="M 44.567 118.08 
" style="fill:none;stroke:#000000;stroke-width:1.5;"/>
      <g>
       <use style="stroke:#000000;" x="44.567" xlink:href="#meeae6a75cd" y="118.08"/>
      </g>
     </g>
     <g id="text_8">
      <!-- 50 -->
      <g transform="translate(28.419 120.50825)scale(0.088 -0.088)">
       <use xlink:href="#DejaVuSans-53"/>
       <use x="63.623047" xlink:href="#DejaVuSans-48"/>
      </g>
     </g>
    </g>
    <g id="ytick_4">
     <g id="line2d_21">
      <path clip-path="url(#p08d375a60a)" d="M 44.567 67.68 
L 490.967 67.68 
" style="fill:none;stroke:#e5e5e5;stroke-width:0.8;"/>
     </g>
     <g id="line2d_22">
      <path d="M 44.567 67.68 
" style="fill:none;stroke:#000000;stroke-width:1.5;"/>
      <g>
       <use style="stroke:#000000;" x="44.567" xlink:href="#meeae6a75cd" y="67.68"/>
      </g>
     </g>
     <g id="text_9">
      <!-- 75 -->
      <defs>
       <path d="M 8.203125 72.90625 
L 55.078125 72.90625 
L 55.078125 68.703125 
L 28.609375 0 
L 18.3125 0 
L 43.21875 64.59375 
L 8.203125 64.59375 
z
" id="DejaVuSans-55"/>
      </defs>
      <g transform="translate(28.419 70.10825)scale(0.088 -0.088)">
       <use xlink:href="#DejaVuSans-55"/>
       <use x="63.623047" xlink:href="#DejaVuSans-53"/>
      </g>
     </g>
    </g>
    <g id="ytick_5">
     <g id="line2d_23">
      <path clip-path="url(#p08d375a60a)" d="M 44.567 17.28 
L 490.967 17.28 
" style="fill:none;stroke:#e5e5e5;stroke-width:0.8;"/>
     </g>
     <g id="line2d_24">
      <path d="M 44.567 17.28 
" style="fill:none;stroke:#000000;stroke-width:1.5;"/>
      <g>
       <use style="stroke:#000000;" x="44.567" xlink:href="#meeae6a75cd" y="17.28"/>
      </g>
     </g>
     <g id="text_10">
      <!-- 100 -->
      <g transform="translate(22.82 19.70825)scale(0.088 -0.088)">
       <use xlink:href="#DejaVuSans-49"/>
       <use x="63.623047" xlink:href="#DejaVuSans-48"/>
       <use x="127.246094" xlink:href="#DejaVuSans-48"/>
      </g>
     </g>
    </g>
    <g id="ytick_6">
     <g id="line2d_25">
      <path clip-path="url(#p08d375a60a)" d="M 44.567 193.68 
L 490.967 193.68 
" style="fill:none;stroke:#fafafa;"/>
     </g>
     <g id="line2d_26">
      <path d="M 44.567 193.68 
" style="fill:none;stroke:#000000;stroke-width:1.5;"/>
      <defs>
       <path d="M 0 0 
L -1.375 0 
" id="md4c1d240db" style="stroke:#000000;"/>
      </defs>
      <g>
       <use style="stroke:#000000;" x="44.567" xlink:href="#md4c1d240db" y="193.68"/>
      </g>
     </g>
    </g>
    <g id="ytick_7">
     <g id="line2d_27">
      <path clip-path="url(#p08d375a60a)" d="M 44.567 143.28 
L 490.967 143.28 
" style="fill:none;stroke:#fafafa;"/>
     </g>
     <g id="line2d_28">
      <path d="M 44.567 143.28 
" style="fill:none;stroke:#000000;stroke-width:1.5;"/>
      <g>
       <use style="stroke:#000000;" x="44.567" xlink:href="#md4c1d240db" y="143.28"/>
      </g>
     </g>
    </g>
    <g id="ytick_8">
     <g id="line2d_29">
      <path clip-path="url(#p08d375a60a)" d="M 44.567 92.88 
L 490.967 92.88 
" style="fill:none;stroke:#fafafa;"/>
     </g>
     <g id="line2d_30">
      <path d="M 44.567 92.88 
" style="fill:none;stroke:#000000;stroke-width:1.5;"/>
      <g>
       <use style="stroke:#000000;" x="44.567" xlink:href="#md4c1d240db" y="92.88"/>
      </g>
     </g>
    </g>
    <g id="ytick_9">
     <g id="line2d_31">
      <path clip-path="url(#p08d375a60a)" d="M 44.567 42.48 
L 490.967 42.48 
" style="fill:none;stroke:#fafafa;"/>
     </g>
     <g id="line2d_32">
      <path d="M 44.567 42.48 
" style="fill:none;stroke:#000000;stroke-width:1.5;"/>
      <g>
       <use style="stroke:#000000;" x="44.567" xlink:href="#md4c1d240db" y="42.48"/>
      </g>
     </g>
    </g>
    <g id="text_11">
     <!-- $P_{Q1N}$ [%] -->
     <defs>
      <path d="M 16.890625 72.90625 
L 39.703125 72.90625 
Q 49.65625 72.90625 54.875 68.265625 
Q 60.109375 63.625 60.109375 54.6875 
Q 60.109375 42.671875 52.390625 35.984375 
Q 44.671875 29.296875 30.71875 29.296875 
L 18.3125 29.296875 
L 12.59375 0 
L 2.6875 0 
z
M 25.203125 64.796875 
L 19.921875 37.40625 
L 32.328125 37.40625 
Q 40.71875 37.40625 45.203125 41.703125 
Q 49.703125 46 49.703125 54 
Q 49.703125 59.125 46.65625 61.953125 
Q 43.609375 64.796875 38.09375 64.796875 
z
" id="DejaVuSans-Oblique-80"/>
      <path d="M 36.078125 -1.3125 
Q 35.546875 -1.375 34.953125 -1.390625 
Q 34.375 -1.421875 33.203125 -1.421875 
Q 19.53125 -1.421875 11.8125 6.421875 
Q 4.109375 14.265625 4.109375 28.078125 
Q 4.109375 36.234375 7.0625 44.4375 
Q 10.015625 52.640625 15.28125 59.1875 
Q 21.390625 66.703125 29.03125 70.453125 
Q 36.671875 74.21875 45.90625 74.21875 
Q 59.28125 74.21875 66.984375 66.328125 
Q 74.703125 58.453125 74.703125 44.828125 
Q 74.703125 30.125 66.640625 17.921875 
Q 58.59375 5.71875 45.609375 0.6875 
L 55.515625 -12.890625 
L 44.484375 -12.890625 
z
M 45.609375 66.21875 
Q 37.5 66.21875 31.296875 62.28125 
Q 25.09375 58.34375 20.515625 50.296875 
Q 17.578125 45.171875 16.03125 39.40625 
Q 14.5 33.640625 14.5 27.78125 
Q 14.5 17.625 19.359375 12.109375 
Q 24.21875 6.59375 33.109375 6.59375 
Q 41.109375 6.59375 47.375 10.5625 
Q 53.65625 14.546875 58.109375 22.40625 
Q 61.078125 27.6875 62.640625 33.46875 
Q 64.203125 39.265625 64.203125 45.015625 
Q 64.203125 55.125 59.3125 60.671875 
Q 54.4375 66.21875 45.609375 66.21875 
z
" id="DejaVuSans-Oblique-81"/>
      <path d="M 16.890625 72.90625 
L 30.171875 72.90625 
L 50.296875 10.40625 
L 62.5 72.90625 
L 72.125 72.90625 
L 57.90625 0 
L 44.578125 0 
L 24.515625 62.890625 
L 12.3125 0 
L 2.6875 0 
z
" id="DejaVuSans-Oblique-78"/>
      <path id="DejaVuSans-32"/>
      <path d="M 8.59375 75.984375 
L 29.296875 75.984375 
L 29.296875 69 
L 17.578125 69 
L 17.578125 -6.203125 
L 29.296875 -6.203125 
L 29.296875 -13.1875 
L 8.59375 -13.1875 
z
" id="DejaVuSans-91"/>
      <path d="M 72.703125 32.078125 
Q 68.453125 32.078125 66.03125 28.46875 
Q 63.625 24.859375 63.625 18.40625 
Q 63.625 12.0625 66.03125 8.421875 
Q 68.453125 4.78125 72.703125 4.78125 
Q 76.859375 4.78125 79.265625 8.421875 
Q 81.6875 12.0625 81.6875 18.40625 
Q 81.6875 24.8125 79.265625 28.4375 
Q 76.859375 32.078125 72.703125 32.078125 
z
M 72.703125 38.28125 
Q 80.421875 38.28125 84.953125 32.90625 
Q 89.5 27.546875 89.5 18.40625 
Q 89.5 9.28125 84.9375 3.921875 
Q 80.375 -1.421875 72.703125 -1.421875 
Q 64.890625 -1.421875 60.34375 3.921875 
Q 55.8125 9.28125 55.8125 18.40625 
Q 55.8125 27.59375 60.375 32.9375 
Q 64.9375 38.28125 72.703125 38.28125 
z
M 22.3125 68.015625 
Q 18.109375 68.015625 15.6875 64.375 
Q 13.28125 60.75 13.28125 54.390625 
Q 13.28125 47.953125 15.671875 44.328125 
Q 18.0625 40.71875 22.3125 40.71875 
Q 26.5625 40.71875 28.96875 44.328125 
Q 31.390625 47.953125 31.390625 54.390625 
Q 31.390625 60.6875 28.953125 64.34375 
Q 26.515625 68.015625 22.3125 68.015625 
z
M 66.40625 74.21875 
L 74.21875 74.21875 
L 28.609375 -1.421875 
L 20.796875 -1.421875 
z
M 22.3125 74.21875 
Q 30.03125 74.21875 34.609375 68.875 
Q 39.203125 63.53125 39.203125 54.390625 
Q 39.203125 45.171875 34.640625 39.84375 
Q 30.078125 34.515625 22.3125 34.515625 
Q 14.546875 34.515625 10.03125 39.859375 
Q 5.515625 45.21875 5.515625 54.390625 
Q 5.515625 63.484375 10.046875 68.84375 
Q 14.59375 74.21875 22.3125 74.21875 
z
" id="DejaVuSans-37"/>
      <path d="M 30.421875 75.984375 
L 30.421875 -13.1875 
L 9.71875 -13.1875 
L 9.71875 -6.203125 
L 21.390625 -6.203125 
L 21.390625 69 
L 9.71875 69 
L 9.71875 75.984375 
z
" id="DejaVuSans-93"/>
     </defs>
     <g transform="translate(15.56 139.74)rotate(-90)scale(0.11 -0.11)">
      <use transform="translate(0 0.015625)" xlink:href="#DejaVuSans-Oblique-80"/>
      <use transform="translate(60.302734 -16.390625)scale(0.7)" xlink:href="#DejaVuSans-Oblique-81"/>
      <use transform="translate(115.400391 -16.390625)scale(0.7)" xlink:href="#DejaVuSans-49"/>
      <use transform="translate(159.936523 -16.390625)scale(0.7)" xlink:href="#DejaVuSans-Oblique-78"/>
      <use transform="translate(215.03418 0.015625)" xlink:href="#DejaVuSans-32"/>
      <use transform="translate(246.821289 0.015625)" xlink:href="#DejaVuSans-91"/>
      <use transform="translate(285.834961 0.015625)" xlink:href="#DejaVuSans-37"/>
      <use transform="translate(380.854492 0.015625)" xlink:href="#DejaVuSans-93"/>
     </g>
    </g>
   </g>
   <g id="PathCollection_1">
    <path clip-path="url(#p08d375a60a)" d="M 64.857909 75.275797 
C 65.327969 75.275797 65.77884 75.08904 66.111223 74.756657 
C 66.443606 74.424274 66.630363 73.973403 66.630363 73.503343 
C 66.630363 73.033283 66.443606 72.582412 66.111223 72.250029 
C 65.77884 71.917646 65.327969 71.730889 64.857909 71.730889 
C 64.387849 71.730889 63.936978 71.917646 63.604595 72.250029 
C 63.272212 72.582412 63.085455 73.033283 63.085455 73.503343 
C 63.085455 73.973403 63.272212 74.424274 63.604595 74.756657 
C 63.936978 75.08904 64.387849 75.275797 64.857909 75.275797 
z
" style="stroke:#000000;stroke-width:0.886227;"/>
    <path clip-path="url(#p08d375a60a)" d="M 78.385182 76.803258 
C 78.855242 76.803258 79.306113 76.616502 79.638496 76.284119 
C 79.970879 75.951736 80.157636 75.500865 80.157636 75.030805 
C 80.157636 74.560744 79.970879 74.109873 79.638496 73.77749 
C 79.306113 73.445108 78.855242 73.258351 78.385182 73.258351 
C 77.915122 73.258351 77.46425 73.445108 77.131868 73.77749 
C 76.799485 74.109873 76.612728 74.560744 76.612728 75.030805 
C 76.612728 75.500865 76.799485 75.951736 77.131868 76.284119 
C 77.46425 76.616502 77.915122 76.803258 78.385182 76.803258 
z
" style="stroke:#000000;stroke-width:0.886227;"/>
    <path clip-path="url(#p08d375a60a)" d="M 91.912455 73.144016 
C 92.382515 73.144016 92.833386 72.957259 93.165769 72.624876 
C 93.498151 72.292493 93.684908 71.841622 93.684908 71.371562 
C 93.684908 70.901502 93.498151 70.45063 93.165769 70.118248 
C 92.833386 69.785865 92.382515 69.599108 91.912455 69.599108 
C 91.442394 69.599108 90.991523 69.785865 90.65914 70.118248 
C 90.326758 70.45063 90.140001 70.901502 90.140001 71.371562 
C 90.140001 71.841622 90.326758 72.292493 90.65914 72.624876 
C 90.991523 72.957259 91.442394 73.144016 91.912455 73.144016 
z
" style="stroke:#000000;stroke-width:0.886227;"/>
    <path clip-path="url(#p08d375a60a)" d="M 105.439727 72.620131 
C 105.909788 72.620131 106.360659 72.433374 106.693041 72.100991 
C 107.025424 71.768608 107.212181 71.317737 107.212181 70.847677 
C 107.212181 70.377617 107.025424 69.926745 106.693041 69.594363 
C 106.360659 69.26198 105.909788 69.075223 105.439727 69.075223 
C 104.969667 69.075223 104.518796 69.26198 104.186413 69.594363 
C 103.85403 69.926745 103.667273 70.377617 103.667273 70.847677 
C 103.667273 71.317737 103.85403 71.768608 104.186413 72.100991 
C 104.518796 72.433374 104.969667 72.620131 105.439727 72.620131 
z
" style="stroke:#000000;stroke-width:0.886227;"/>
    <path clip-path="url(#p08d375a60a)" d="M 118.967 70.660484 
C 119.43706 70.660484 119.887931 70.473727 120.220314 70.141344 
C 120.552697 69.808962 120.739454 69.358091 120.739454 68.88803 
C 120.739454 68.41797 120.552697 67.967099 120.220314 67.634716 
C 119.887931 67.302333 119.43706 67.115576 118.967 67.115576 
C 118.49694 67.115576 118.046069 67.302333 117.713686 67.634716 
C 117.381303 67.967099 117.194546 68.41797 117.194546 68.88803 
C 117.194546 69.358091 117.381303 69.808962 117.713686 70.141344 
C 118.046069 70.473727 118.49694 70.660484 118.967 70.660484 
z
" style="stroke:#000000;stroke-width:0.886227;"/>
    <path clip-path="url(#p08d375a60a)" d="M 132.494273 76.794676 
C 132.964333 76.794676 133.415204 76.607919 133.747587 76.275536 
C 134.07997 75.943154 134.266727 75.492282 134.266727 75.022222 
C 134.266727 74.552162 134.07997 74.101291 133.747587 73.768908 
C 133.415204 73.436525 132.964333 73.249768 132.494273 73.249768 
C 132.024212 73.249768 131.573341 73.436525 131.240959 73.768908 
C 130.908576 74.101291 130.721819 74.552162 130.721819 75.022222 
C 130.721819 75.492282 130.908576 75.943154 131.240959 76.275536 
C 131.573341 76.607919 132.024212 76.794676 132.494273 76.794676 
z
" style="stroke:#000000;stroke-width:0.886227;"/>
    <path clip-path="url(#p08d375a60a)" d="M 146.021545 86.90158 
C 146.491606 86.90158 146.942477 86.714823 147.27486 86.382441 
C 147.607242 86.050058 147.793999 85.599187 147.793999 85.129127 
C 147.793999 84.659066 147.607242 84.208195 147.27486 83.875812 
C 146.942477 83.54343 146.491606 83.356673 146.021545 83.356673 
C 145.551485 83.356673 145.100614 83.54343 144.768231 83.875812 
C 144.435849 84.208195 144.249092 84.659066 144.249092 85.129127 
C 144.249092 85.599187 144.435849 86.050058 144.768231 86.382441 
C 145.100614 86.714823 145.551485 86.90158 146.021545 86.90158 
z
" style="stroke:#000000;stroke-width:0.886227;"/>
    <path clip-path="url(#p08d375a60a)" d="M 159.548818 99.251748 
C 160.018878 99.251748 160.46975 99.064991 160.802132 98.732609 
C 161.134515 98.400226 161.321272 97.949355 161.321272 97.479294 
C 161.321272 97.009234 161.134515 96.558363 160.802132 96.22598 
C 160.46975 95.893598 160.018878 95.706841 159.548818 95.706841 
C 159.078758 95.706841 158.627887 95.893598 158.295504 96.22598 
C 157.963121 96.558363 157.776364 97.009234 157.776364 97.479294 
C 157.776364 97.949355 157.963121 98.400226 158.295504 98.732609 
C 158.627887 99.064991 159.078758 99.251748 159.548818 99.251748 
z
" style="stroke:#000000;stroke-width:0.886227;"/>
    <path clip-path="url(#p08d375a60a)" d="M 173.076091 108.831123 
C 173.546151 108.831123 173.997022 108.644366 174.329405 108.311984 
C 174.661788 107.979601 174.848545 107.52873 174.848545 107.058669 
C 174.848545 106.588609 174.661788 106.137738 174.329405 105.805355 
C 173.997022 105.472973 173.546151 105.286216 173.076091 105.286216 
C 172.606031 105.286216 172.15516 105.472973 171.822777 105.805355 
C 171.490394 106.137738 171.303637 106.588609 171.303637 107.058669 
C 171.303637 107.52873 171.490394 107.979601 171.822777 108.311984 
C 172.15516 108.644366 172.606031 108.831123 173.076091 108.831123 
z
" style="stroke:#000000;stroke-width:0.886227;"/>
    <path clip-path="url(#p08d375a60a)" d="M 186.603364 116.952263 
C 187.073424 116.952263 187.524295 116.765506 187.856678 116.433123 
C 188.189061 116.10074 188.375817 115.649869 188.375817 115.179809 
C 188.375817 114.709749 188.189061 114.258878 187.856678 113.926495 
C 187.524295 113.594112 187.073424 113.407355 186.603364 113.407355 
C 186.133303 113.407355 185.682432 113.594112 185.350049 113.926495 
C 185.017667 114.258878 184.83091 114.709749 184.83091 115.179809 
C 184.83091 115.649869 185.017667 116.10074 185.350049 116.433123 
C 185.682432 116.765506 186.133303 116.952263 186.603364 116.952263 
z
" style="stroke:#000000;stroke-width:0.886227;"/>
    <path clip-path="url(#p08d375a60a)" d="M 200.130636 133.2836 
C 200.600697 133.2836 201.051568 133.096843 201.383951 132.76446 
C 201.716333 132.432078 201.90309 131.981207 201.90309 131.511146 
C 201.90309 131.041086 201.716333 130.590215 201.383951 130.257832 
C 201.051568 129.925449 200.600697 129.738692 200.130636 129.738692 
C 199.660576 129.738692 199.209705 129.925449 198.877322 130.257832 
C 198.544939 130.590215 198.358183 131.041086 198.358183 131.511146 
C 198.358183 131.981207 198.544939 132.432078 198.877322 132.76446 
C 199.209705 133.096843 199.660576 133.2836 200.130636 133.2836 
z
" style="stroke:#000000;stroke-width:0.886227;"/>
    <path clip-path="url(#p08d375a60a)" d="M 213.657909 124.425135 
C 214.127969 124.425135 214.57884 124.238378 214.911223 123.905995 
C 215.243606 123.573612 215.430363 123.122741 215.430363 122.652681 
C 215.430363 122.18262 215.243606 121.731749 214.911223 121.399367 
C 214.57884 121.066984 214.127969 120.880227 213.657909 120.880227 
C 213.187849 120.880227 212.736978 121.066984 212.404595 121.399367 
C 212.072212 121.731749 211.885455 122.18262 211.885455 122.652681 
C 211.885455 123.122741 212.072212 123.573612 212.404595 123.905995 
C 212.736978 124.238378 213.187849 124.425135 213.657909 124.425135 
z
" style="stroke:#000000;stroke-width:0.886227;"/>
    <path clip-path="url(#p08d375a60a)" d="M 227.185182 131.871791 
C 227.655242 131.871791 228.106113 131.685034 228.438496 131.352651 
C 228.770879 131.020268 228.957636 130.569397 228.957636 130.099337 
C 228.957636 129.629277 228.770879 129.178406 228.438496 128.846023 
C 228.106113 128.51364 227.655242 128.326883 227.185182 128.326883 
C 226.715122 128.326883 226.26425 128.51364 225.931868 128.846023 
C 225.599485 129.178406 225.412728 129.629277 225.412728 130.099337 
C 225.412728 130.569397 225.599485 131.020268 225.931868 131.352651 
C 226.26425 131.685034 226.715122 131.871791 227.185182 131.871791 
z
" style="stroke:#000000;stroke-width:0.886227;"/>
    <path clip-path="url(#p08d375a60a)" d="M 240.712455 131.830449 
C 241.182515 131.830449 241.633386 131.643692 241.965769 131.311309 
C 242.298151 130.978927 242.484908 130.528056 242.484908 130.057995 
C 242.484908 129.587935 242.298151 129.137064 241.965769 128.804681 
C 241.633386 128.472298 241.182515 128.285541 240.712455 128.285541 
C 240.242394 128.285541 239.791523 128.472298 239.45914 128.804681 
C 239.126758 129.137064 238.940001 129.587935 238.940001 130.057995 
C 238.940001 130.528056 239.126758 130.978927 239.45914 131.311309 
C 239.791523 131.643692 240.242394 131.830449 240.712455 131.830449 
z
" style="stroke:#000000;stroke-width:0.886227;"/>
    <path clip-path="url(#p08d375a60a)" d="M 254.239727 149.12887 
C 254.709788 149.12887 255.160659 148.942113 255.493041 148.60973 
C 255.825424 148.277348 256.012181 147.826477 256.012181 147.356416 
C 256.012181 146.886356 255.825424 146.435485 255.493041 146.103102 
C 255.160659 145.770719 254.709788 145.583962 254.239727 145.583962 
C 253.769667 145.583962 253.318796 145.770719 252.986413 146.103102 
C 252.65403 146.435485 252.467273 146.886356 252.467273 147.356416 
C 252.467273 147.826477 252.65403 148.277348 252.986413 148.60973 
C 253.318796 148.942113 253.769667 149.12887 254.239727 149.12887 
z
" style="stroke:#000000;stroke-width:0.886227;"/>
    <path clip-path="url(#p08d375a60a)" d="M 267.767 155.146338 
C 268.23706 155.146338 268.687931 154.959581 269.020314 154.627198 
C 269.352697 154.294816 269.539454 153.843945 269.539454 153.373884 
C 269.539454 152.903824 269.352697 152.452953 269.020314 152.12057 
C 268.687931 151.788187 268.23706 151.60143 267.767 151.60143 
C 267.29694 151.60143 266.846069 151.788187 266.513686 152.12057 
C 266.181303 152.452953 265.994546 152.903824 265.994546 153.373884 
C 265.994546 153.843945 266.181303 154.294816 266.513686 154.627198 
C 266.846069 154.959581 267.29694 155.146338 267.767 155.146338 
z
" style="stroke:#000000;stroke-width:0.886227;"/>
    <path clip-path="url(#p08d375a60a)" d="M 281.294273 140.629115 
C 281.764333 140.629115 282.215204 140.442358 282.547587 140.109976 
C 282.87997 139.777593 283.066727 139.326722 283.066727 138.856662 
C 283.066727 138.386601 282.87997 137.93573 282.547587 137.603347 
C 282.215204 137.270965 281.764333 137.084208 281.294273 137.084208 
C 280.824212 137.084208 280.373341 137.270965 280.040959 137.603347 
C 279.708576 137.93573 279.521819 138.386601 279.521819 138.856662 
C 279.521819 139.326722 279.708576 139.777593 280.040959 140.109976 
C 280.373341 140.442358 280.824212 140.629115 281.294273 140.629115 
z
" style="stroke:#000000;stroke-width:0.886227;"/>
    <path clip-path="url(#p08d375a60a)" d="M 294.821545 154.801752 
C 295.291606 154.801752 295.742477 154.614995 296.07486 154.282612 
C 296.407242 153.950229 296.593999 153.499358 296.593999 153.029298 
C 296.593999 152.559238 296.407242 152.108367 296.07486 151.775984 
C 295.742477 151.443601 295.291606 151.256844 294.821545 151.256844 
C 294.351485 151.256844 293.900614 151.443601 293.568231 151.775984 
C 293.235849 152.108367 293.049092 152.559238 293.049092 153.029298 
C 293.049092 153.499358 293.235849 153.950229 293.568231 154.282612 
C 293.900614 154.614995 294.351485 154.801752 294.821545 154.801752 
z
" style="stroke:#000000;stroke-width:0.886227;"/>
    <path clip-path="url(#p08d375a60a)" d="M 308.348818 147.583329 
C 308.818878 147.583329 309.26975 147.396572 309.602132 147.064189 
C 309.934515 146.731806 310.121272 146.280935 310.121272 145.810875 
C 310.121272 145.340815 309.934515 144.889944 309.602132 144.557561 
C 309.26975 144.225178 308.818878 144.038421 308.348818 144.038421 
C 307.878758 144.038421 307.427887 144.225178 307.095504 144.557561 
C 306.763121 144.889944 306.576364 145.340815 306.576364 145.810875 
C 306.576364 146.280935 306.763121 146.731806 307.095504 147.064189 
C 307.427887 147.396572 307.878758 147.583329 308.348818 147.583329 
z
" style="stroke:#000000;stroke-width:0.886227;"/>
    <path clip-path="url(#p08d375a60a)" d="M 321.876091 150.057324 
C 322.346151 150.057324 322.797022 149.870567 323.129405 149.538184 
C 323.461788 149.205801 323.648545 148.75493 323.648545 148.28487 
C 323.648545 147.814809 323.461788 147.363938 323.129405 147.031556 
C 322.797022 146.699173 322.346151 146.512416 321.876091 146.512416 
C 321.406031 146.512416 320.95516 146.699173 320.622777 147.031556 
C 320.290394 147.363938 320.103637 147.814809 320.103637 148.28487 
C 320.103637 148.75493 320.290394 149.205801 320.622777 149.538184 
C 320.95516 149.870567 321.406031 150.057324 321.876091 150.057324 
z
" style="stroke:#000000;stroke-width:0.886227;"/>
    <path clip-path="url(#p08d375a60a)" d="M 335.403364 141.145296 
C 335.873424 141.145296 336.324295 140.958539 336.656678 140.626156 
C 336.989061 140.293773 337.175817 139.842902 337.175817 139.372842 
C 337.175817 138.902782 336.989061 138.451911 336.656678 138.119528 
C 336.324295 137.787145 335.873424 137.600388 335.403364 137.600388 
C 334.933303 137.600388 334.482432 137.787145 334.150049 138.119528 
C 333.817667 138.451911 333.63091 138.902782 333.63091 139.372842 
C 333.63091 139.842902 333.817667 140.293773 334.150049 140.626156 
C 334.482432 140.958539 334.933303 141.145296 335.403364 141.145296 
z
" style="stroke:#000000;stroke-width:0.886227;"/>
    <path clip-path="url(#p08d375a60a)" d="M 348.930636 157.923403 
C 349.400697 157.923403 349.851568 157.736646 350.183951 157.404264 
C 350.516333 157.071881 350.70309 156.62101 350.70309 156.150949 
C 350.70309 155.680889 350.516333 155.230018 350.183951 154.897635 
C 349.851568 154.565253 349.400697 154.378496 348.930636 154.378496 
C 348.460576 154.378496 348.009705 154.565253 347.677322 154.897635 
C 347.344939 155.230018 347.158183 155.680889 347.158183 156.150949 
C 347.158183 156.62101 347.344939 157.071881 347.677322 157.404264 
C 348.009705 157.736646 348.460576 157.923403 348.930636 157.923403 
z
" style="stroke:#000000;stroke-width:0.886227;"/>
    <path clip-path="url(#p08d375a60a)" d="M 362.457909 156.60203 
C 362.927969 156.60203 363.37884 156.415273 363.711223 156.08289 
C 364.043606 155.750507 364.230363 155.299636 364.230363 154.829576 
C 364.230363 154.359516 364.043606 153.908644 363.711223 153.576262 
C 363.37884 153.243879 362.927969 153.057122 362.457909 153.057122 
C 361.987849 153.057122 361.536978 153.243879 361.204595 153.576262 
C 360.872212 153.908644 360.685455 154.359516 360.685455 154.829576 
C 360.685455 155.299636 360.872212 155.750507 361.204595 156.08289 
C 361.536978 156.415273 361.987849 156.60203 362.457909 156.60203 
z
" style="stroke:#000000;stroke-width:0.886227;"/>
    <path clip-path="url(#p08d375a60a)" d="M 375.985182 173.099121 
C 376.455242 173.099121 376.906113 172.912364 377.238496 172.579981 
C 377.570879 172.247598 377.757636 171.796727 377.757636 171.326667 
C 377.757636 170.856606 377.570879 170.405735 377.238496 170.073353 
C 376.906113 169.74097 376.455242 169.554213 375.985182 169.554213 
C 375.515122 169.554213 375.06425 169.74097 374.731868 170.073353 
C 374.399485 170.405735 374.212728 170.856606 374.212728 171.326667 
C 374.212728 171.796727 374.399485 172.247598 374.731868 172.579981 
C 375.06425 172.912364 375.515122 173.099121 375.985182 173.099121 
z
" style="stroke:#000000;stroke-width:0.886227;"/>
    <path clip-path="url(#p08d375a60a)" d="M 389.512455 169.510636 
C 389.982515 169.510636 390.433386 169.323879 390.765769 168.991496 
C 391.098151 168.659113 391.284908 168.208242 391.284908 167.738182 
C 391.284908 167.268122 391.098151 166.81725 390.765769 166.484868 
C 390.433386 166.152485 389.982515 165.965728 389.512455 165.965728 
C 389.042394 165.965728 388.591523 166.152485 388.25914 166.484868 
C 387.926758 166.81725 387.740001 167.268122 387.740001 167.738182 
C 387.740001 168.208242 387.926758 168.659113 388.25914 168.991496 
C 388.591523 169.323879 389.042394 169.510636 389.512455 169.510636 
z
" style="stroke:#000000;stroke-width:0.886227;"/>
    <path clip-path="url(#p08d375a60a)" d="M 403.039727 157.606636 
C 403.509788 157.606636 403.960659 157.419879 404.293041 157.087496 
C 404.625424 156.755113 404.812181 156.304242 404.812181 155.834182 
C 404.812181 155.364122 404.625424 154.91325 404.293041 154.580868 
C 403.960659 154.248485 403.509788 154.061728 403.039727 154.061728 
C 402.569667 154.061728 402.118796 154.248485 401.786413 154.580868 
C 401.45403 154.91325 401.267273 155.364122 401.267273 155.834182 
C 401.267273 156.304242 401.45403 156.755113 401.786413 157.087496 
C 402.118796 157.419879 402.569667 157.606636 403.039727 157.606636 
z
" style="stroke:#000000;stroke-width:0.886227;"/>
    <path clip-path="url(#p08d375a60a)" d="M 416.567 182.708211 
C 417.03706 182.708211 417.487931 182.521455 417.820314 182.189072 
C 418.152697 181.856689 418.339454 181.405818 418.339454 180.935758 
C 418.339454 180.465697 418.152697 180.014826 417.820314 179.682443 
C 417.487931 179.350061 417.03706 179.163304 416.567 179.163304 
C 416.09694 179.163304 415.646069 179.350061 415.313686 179.682443 
C 414.981303 180.014826 414.794546 180.465697 414.794546 180.935758 
C 414.794546 181.405818 414.981303 181.856689 415.313686 182.189072 
C 415.646069 182.521455 416.09694 182.708211 416.567 182.708211 
z
" style="stroke:#000000;stroke-width:0.886227;"/>
    <path clip-path="url(#p08d375a60a)" d="M 430.094273 191.990636 
C 430.564333 191.990636 431.015204 191.803879 431.347587 191.471496 
C 431.67997 191.139113 431.866727 190.688242 431.866727 190.218182 
C 431.866727 189.748122 431.67997 189.29725 431.347587 188.964868 
C 431.015204 188.632485 430.564333 188.445728 430.094273 188.445728 
C 429.624212 188.445728 429.173341 188.632485 428.840959 188.964868 
C 428.508576 189.29725 428.321819 189.748122 428.321819 190.218182 
C 428.321819 190.688242 428.508576 191.139113 428.840959 191.471496 
C 429.173341 191.803879 429.624212 191.990636 430.094273 191.990636 
z
" style="stroke:#000000;stroke-width:0.886227;"/>
    <path clip-path="url(#p08d375a60a)" d="M 443.621545 219.973666 
C 444.091606 219.973666 444.542477 219.786909 444.87486 219.454526 
C 445.207242 219.122143 445.393999 218.671272 445.393999 218.201212 
C 445.393999 217.731152 445.207242 217.280281 444.87486 216.947898 
C 444.542477 216.615515 444.091606 216.428758 443.621545 216.428758 
C 443.151485 216.428758 442.700614 216.615515 442.368231 216.947898 
C 442.035849 217.280281 441.849092 217.731152 441.849092 218.201212 
C 441.849092 218.671272 442.035849 219.122143 442.368231 219.454526 
C 442.700614 219.786909 443.151485 219.973666 443.621545 219.973666 
z
" style="stroke:#000000;stroke-width:0.886227;"/>
    <path clip-path="url(#p08d375a60a)" d="M 457.148818 142.863363 
C 457.618878 142.863363 458.06975 142.676606 458.402132 142.344223 
C 458.734515 142.01184 458.921272 141.560969 458.921272 141.090909 
C 458.921272 140.620849 458.734515 140.169978 458.402132 139.837595 
C 458.06975 139.505212 457.618878 139.318455 457.148818 139.318455 
C 456.678758 139.318455 456.227887 139.505212 455.895504 139.837595 
C 455.563121 140.169978 455.376364 140.620849 455.376364 141.090909 
C 455.376364 141.560969 455.563121 142.01184 455.895504 142.344223 
C 456.227887 142.676606 456.678758 142.863363 457.148818 142.863363 
z
" style="stroke:#000000;stroke-width:0.886227;"/>
    <path clip-path="url(#p08d375a60a)" d="M 470.676091 153.180939 
C 471.146151 153.180939 471.597022 152.994182 471.929405 152.661799 
C 472.261788 152.329416 472.448545 151.878545 472.448545 151.408485 
C 472.448545 150.938425 472.261788 150.487554 471.929405 150.155171 
C 471.597022 149.822788 471.146151 149.636031 470.676091 149.636031 
C 470.206031 149.636031 469.75516 149.822788 469.422777 150.155171 
C 469.090394 150.487554 468.903637 150.938425 468.903637 151.408485 
C 468.903637 151.878545 469.090394 152.329416 469.422777 152.661799 
C 469.75516 152.994182 470.206031 153.180939 470.676091 153.180939 
z
" style="stroke:#000000;stroke-width:0.886227;"/>
   </g>
   <g id="line2d_33">
    <path clip-path="url(#p08d375a60a)" d="M 64.857909 73.503343 
L 78.385182 75.030805 
L 91.912455 71.371562 
L 105.439727 70.847677 
L 118.967 68.88803 
L 132.494273 75.022222 
L 146.021545 85.129127 
L 159.548818 97.479294 
L 173.076091 107.058669 
L 186.603364 115.179809 
L 200.130636 131.511146 
L 213.657909 122.652681 
L 227.185182 130.099337 
L 240.712455 130.057995 
L 254.239727 147.356416 
L 267.767 153.373884 
L 281.294273 138.856662 
L 294.821545 153.029298 
L 308.348818 145.810875 
L 321.876091 148.28487 
L 335.403364 139.372842 
L 348.930636 156.150949 
L 362.457909 154.829576 
L 375.985182 171.326667 
L 389.512455 167.738182 
L 403.039727 155.834182 
L 416.567 180.935758 
L 430.094273 190.218182 
L 443.621545 218.201212 
L 457.148818 141.090909 
L 470.676091 151.408485 
" style="fill:none;stroke:#000000;stroke-width:0.886227;"/>
   </g>
  </g>
 </g>
 <defs>
  <clipPath id="p08d375a60a">
   <rect height="221.76" width="446.4" x="44.567" y="7.2"/>
  </clipPath>
 </defs>
</svg>
