<?xml version="1.0" encoding="utf-8" standalone="no"?>
<!DOCTYPE svg PUBLIC "-//W3C//DTD SVG 1.1//EN"
  "http://www.w3.org/Graphics/SVG/1.1/DTD/svg11.dtd">
<!-- Created with matplotlib (https://matplotlib.org/) -->
<svg height="274.544375pt" version="1.1" viewBox="0 0 513.9925 274.544375" width="513.9925pt" xmlns="http://www.w3.org/2000/svg" xmlns:xlink="http://www.w3.org/1999/xlink">
 <defs>
  <style type="text/css">
*{stroke-linecap:butt;stroke-linejoin:round;}
  </style>
 </defs>
 <g id="figure_1">
  <g id="patch_1">
   <path d="M 0 274.544375 
L 513.9925 274.544375 
L 513.9925 0 
L 0 0 
z
" style="fill:#ffffff;stroke:#ffffff;stroke-linejoin:miter;"/>
  </g>
  <g id="axes_1">
   <g id="patch_2">
    <path d="M 60.3925 228.96 
L 506.7925 228.96 
L 506.7925 7.2 
L 60.3925 7.2 
z
" style="fill:#ffffff;"/>
   </g>
   <g id="matplotlib.axis_1">
    <g id="xtick_1">
     <g id="line2d_1">
      <path d="M 80.683409 228.96 
" style="fill:none;stroke:#000000;stroke-width:1.5;"/>
      <defs>
       <path d="M 0 0 
L 0 2.75 
" id="m5fe3b01310" style="stroke:#000000;"/>
      </defs>
      <g>
       <use style="stroke:#000000;" x="80.683409" xlink:href="#m5fe3b01310" y="228.96"/>
      </g>
     </g>
     <g id="text_1">
      <!-- 1970 -->
      <defs>
       <path d="M 12.40625 8.296875 
L 28.515625 8.296875 
L 28.515625 63.921875 
L 10.984375 60.40625 
L 10.984375 69.390625 
L 28.421875 72.90625 
L 38.28125 72.90625 
L 38.28125 8.296875 
L 54.390625 8.296875 
L 54.390625 0 
L 12.40625 0 
z
" id="DejaVuSans-49"/>
       <path d="M 10.984375 1.515625 
L 10.984375 10.5 
Q 14.703125 8.734375 18.5 7.8125 
Q 22.3125 6.890625 25.984375 6.890625 
Q 35.75 6.890625 40.890625 13.453125 
Q 46.046875 20.015625 46.78125 33.40625 
Q 43.953125 29.203125 39.59375 26.953125 
Q 35.25 24.703125 29.984375 24.703125 
Q 19.046875 24.703125 12.671875 31.3125 
Q 6.296875 37.9375 6.296875 49.421875 
Q 6.296875 60.640625 12.9375 67.421875 
Q 19.578125 74.21875 30.609375 74.21875 
Q 43.265625 74.21875 49.921875 64.515625 
Q 56.59375 54.828125 56.59375 36.375 
Q 56.59375 19.140625 48.40625 8.859375 
Q 40.234375 -1.421875 26.421875 -1.421875 
Q 22.703125 -1.421875 18.890625 -0.6875 
Q 15.09375 0.046875 10.984375 1.515625 
z
M 30.609375 32.421875 
Q 37.25 32.421875 41.125 36.953125 
Q 45.015625 41.5 45.015625 49.421875 
Q 45.015625 57.28125 41.125 61.84375 
Q 37.25 66.40625 30.609375 66.40625 
Q 23.96875 66.40625 20.09375 61.84375 
Q 16.21875 57.28125 16.21875 49.421875 
Q 16.21875 41.5 20.09375 36.953125 
Q 23.96875 32.421875 30.609375 32.421875 
z
" id="DejaVuSans-57"/>
       <path d="M 8.203125 72.90625 
L 55.078125 72.90625 
L 55.078125 68.703125 
L 28.609375 0 
L 18.3125 0 
L 43.21875 64.59375 
L 8.203125 64.59375 
z
" id="DejaVuSans-55"/>
       <path d="M 31.78125 66.40625 
Q 24.171875 66.40625 20.328125 58.90625 
Q 16.5 51.421875 16.5 36.375 
Q 16.5 21.390625 20.328125 13.890625 
Q 24.171875 6.390625 31.78125 6.390625 
Q 39.453125 6.390625 43.28125 13.890625 
Q 47.125 21.390625 47.125 36.375 
Q 47.125 51.421875 43.28125 58.90625 
Q 39.453125 66.40625 31.78125 66.40625 
z
M 31.78125 74.21875 
Q 44.046875 74.21875 50.515625 64.515625 
Q 56.984375 54.828125 56.984375 36.375 
Q 56.984375 17.96875 50.515625 8.265625 
Q 44.046875 -1.421875 31.78125 -1.421875 
Q 19.53125 -1.421875 13.0625 8.265625 
Q 6.59375 17.96875 6.59375 36.375 
Q 6.59375 54.828125 13.0625 64.515625 
Q 19.53125 74.21875 31.78125 74.21875 
z
" id="DejaVuSans-48"/>
      </defs>
      <g transform="translate(62.868409 244.547813)scale(0.14 -0.14)">
       <use xlink:href="#DejaVuSans-49"/>
       <use x="63.623047" xlink:href="#DejaVuSans-57"/>
       <use x="127.246094" xlink:href="#DejaVuSans-55"/>
       <use x="190.869141" xlink:href="#DejaVuSans-48"/>
      </g>
     </g>
    </g>
    <g id="xtick_2">
     <g id="line2d_2">
      <path d="M 161.847045 228.96 
" style="fill:none;stroke:#000000;stroke-width:1.5;"/>
      <g>
       <use style="stroke:#000000;" x="161.847045" xlink:href="#m5fe3b01310" y="228.96"/>
      </g>
     </g>
     <g id="text_2">
      <!-- 1980 -->
      <defs>
       <path d="M 31.78125 34.625 
Q 24.75 34.625 20.71875 30.859375 
Q 16.703125 27.09375 16.703125 20.515625 
Q 16.703125 13.921875 20.71875 10.15625 
Q 24.75 6.390625 31.78125 6.390625 
Q 38.8125 6.390625 42.859375 10.171875 
Q 46.921875 13.96875 46.921875 20.515625 
Q 46.921875 27.09375 42.890625 30.859375 
Q 38.875 34.625 31.78125 34.625 
z
M 21.921875 38.8125 
Q 15.578125 40.375 12.03125 44.71875 
Q 8.5 49.078125 8.5 55.328125 
Q 8.5 64.0625 14.71875 69.140625 
Q 20.953125 74.21875 31.78125 74.21875 
Q 42.671875 74.21875 48.875 69.140625 
Q 55.078125 64.0625 55.078125 55.328125 
Q 55.078125 49.078125 51.53125 44.71875 
Q 48 40.375 41.703125 38.8125 
Q 48.828125 37.15625 52.796875 32.3125 
Q 56.78125 27.484375 56.78125 20.515625 
Q 56.78125 9.90625 50.3125 4.234375 
Q 43.84375 -1.421875 31.78125 -1.421875 
Q 19.734375 -1.421875 13.25 4.234375 
Q 6.78125 9.90625 6.78125 20.515625 
Q 6.78125 27.484375 10.78125 32.3125 
Q 14.796875 37.15625 21.921875 38.8125 
z
M 18.3125 54.390625 
Q 18.3125 48.734375 21.84375 45.5625 
Q 25.390625 42.390625 31.78125 42.390625 
Q 38.140625 42.390625 41.71875 45.5625 
Q 45.3125 48.734375 45.3125 54.390625 
Q 45.3125 60.0625 41.71875 63.234375 
Q 38.140625 66.40625 31.78125 66.40625 
Q 25.390625 66.40625 21.84375 63.234375 
Q 18.3125 60.0625 18.3125 54.390625 
z
" id="DejaVuSans-56"/>
      </defs>
      <g transform="translate(144.032045 244.547813)scale(0.14 -0.14)">
       <use xlink:href="#DejaVuSans-49"/>
       <use x="63.623047" xlink:href="#DejaVuSans-57"/>
       <use x="127.246094" xlink:href="#DejaVuSans-56"/>
       <use x="190.869141" xlink:href="#DejaVuSans-48"/>
      </g>
     </g>
    </g>
    <g id="xtick_3">
     <g id="line2d_3">
      <path d="M 243.010682 228.96 
" style="fill:none;stroke:#000000;stroke-width:1.5;"/>
      <g>
       <use style="stroke:#000000;" x="243.010682" xlink:href="#m5fe3b01310" y="228.96"/>
      </g>
     </g>
     <g id="text_3">
      <!-- 1990 -->
      <g transform="translate(225.195682 244.547813)scale(0.14 -0.14)">
       <use xlink:href="#DejaVuSans-49"/>
       <use x="63.623047" xlink:href="#DejaVuSans-57"/>
       <use x="127.246094" xlink:href="#DejaVuSans-57"/>
       <use x="190.869141" xlink:href="#DejaVuSans-48"/>
      </g>
     </g>
    </g>
    <g id="xtick_4">
     <g id="line2d_4">
      <path d="M 324.174318 228.96 
" style="fill:none;stroke:#000000;stroke-width:1.5;"/>
      <g>
       <use style="stroke:#000000;" x="324.174318" xlink:href="#m5fe3b01310" y="228.96"/>
      </g>
     </g>
     <g id="text_4">
      <!-- 2000 -->
      <defs>
       <path d="M 19.1875 8.296875 
L 53.609375 8.296875 
L 53.609375 0 
L 7.328125 0 
L 7.328125 8.296875 
Q 12.9375 14.109375 22.625 23.890625 
Q 32.328125 33.6875 34.8125 36.53125 
Q 39.546875 41.84375 41.421875 45.53125 
Q 43.3125 49.21875 43.3125 52.78125 
Q 43.3125 58.59375 39.234375 62.25 
Q 35.15625 65.921875 28.609375 65.921875 
Q 23.96875 65.921875 18.8125 64.3125 
Q 13.671875 62.703125 7.8125 59.421875 
L 7.8125 69.390625 
Q 13.765625 71.78125 18.9375 73 
Q 24.125 74.21875 28.421875 74.21875 
Q 39.75 74.21875 46.484375 68.546875 
Q 53.21875 62.890625 53.21875 53.421875 
Q 53.21875 48.921875 51.53125 44.890625 
Q 49.859375 40.875 45.40625 35.40625 
Q 44.1875 33.984375 37.640625 27.21875 
Q 31.109375 20.453125 19.1875 8.296875 
z
" id="DejaVuSans-50"/>
      </defs>
      <g transform="translate(306.359318 244.547813)scale(0.14 -0.14)">
       <use xlink:href="#DejaVuSans-50"/>
       <use x="63.623047" xlink:href="#DejaVuSans-48"/>
       <use x="127.246094" xlink:href="#DejaVuSans-48"/>
       <use x="190.869141" xlink:href="#DejaVuSans-48"/>
      </g>
     </g>
    </g>
    <g id="xtick_5">
     <g id="line2d_5">
      <path d="M 405.337955 228.96 
" style="fill:none;stroke:#000000;stroke-width:1.5;"/>
      <g>
       <use style="stroke:#000000;" x="405.337955" xlink:href="#m5fe3b01310" y="228.96"/>
      </g>
     </g>
     <g id="text_5">
      <!-- 2010 -->
      <g transform="translate(387.522955 244.547813)scale(0.14 -0.14)">
       <use xlink:href="#DejaVuSans-50"/>
       <use x="63.623047" xlink:href="#DejaVuSans-48"/>
       <use x="127.246094" xlink:href="#DejaVuSans-49"/>
       <use x="190.869141" xlink:href="#DejaVuSans-48"/>
      </g>
     </g>
    </g>
    <g id="xtick_6">
     <g id="line2d_6">
      <path d="M 486.501591 228.96 
" style="fill:none;stroke:#000000;stroke-width:1.5;"/>
      <g>
       <use style="stroke:#000000;" x="486.501591" xlink:href="#m5fe3b01310" y="228.96"/>
      </g>
     </g>
     <g id="text_6">
      <!-- 2020 -->
      <g transform="translate(468.686591 244.547813)scale(0.14 -0.14)">
       <use xlink:href="#DejaVuSans-50"/>
       <use x="63.623047" xlink:href="#DejaVuSans-48"/>
       <use x="127.246094" xlink:href="#DejaVuSans-50"/>
       <use x="190.869141" xlink:href="#DejaVuSans-48"/>
      </g>
     </g>
    </g>
    <g id="xtick_7">
     <g id="line2d_7">
      <path d="M 121.265227 228.96 
" style="fill:none;stroke:#000000;stroke-width:1.5;"/>
      <defs>
       <path d="M 0 0 
L 0 1.375 
" id="m5c0609f85c" style="stroke:#000000;"/>
      </defs>
      <g>
       <use style="stroke:#000000;" x="121.265227" xlink:href="#m5c0609f85c" y="228.96"/>
      </g>
     </g>
    </g>
    <g id="xtick_8">
     <g id="line2d_8">
      <path d="M 202.428864 228.96 
" style="fill:none;stroke:#000000;stroke-width:1.5;"/>
      <g>
       <use style="stroke:#000000;" x="202.428864" xlink:href="#m5c0609f85c" y="228.96"/>
      </g>
     </g>
    </g>
    <g id="xtick_9">
     <g id="line2d_9">
      <path d="M 283.5925 228.96 
" style="fill:none;stroke:#000000;stroke-width:1.5;"/>
      <g>
       <use style="stroke:#000000;" x="283.5925" xlink:href="#m5c0609f85c" y="228.96"/>
      </g>
     </g>
    </g>
    <g id="xtick_10">
     <g id="line2d_10">
      <path d="M 364.756136 228.96 
" style="fill:none;stroke:#000000;stroke-width:1.5;"/>
      <g>
       <use style="stroke:#000000;" x="364.756136" xlink:href="#m5c0609f85c" y="228.96"/>
      </g>
     </g>
    </g>
    <g id="xtick_11">
     <g id="line2d_11">
      <path d="M 445.919773 228.96 
" style="fill:none;stroke:#000000;stroke-width:1.5;"/>
      <g>
       <use style="stroke:#000000;" x="445.919773" xlink:href="#m5c0609f85c" y="228.96"/>
      </g>
     </g>
    </g>
    <g id="text_7">
     <!-- Year -->
     <defs>
      <path d="M -0.203125 72.90625 
L 10.40625 72.90625 
L 30.609375 42.921875 
L 50.6875 72.90625 
L 61.28125 72.90625 
L 35.5 34.71875 
L 35.5 0 
L 25.59375 0 
L 25.59375 34.71875 
z
" id="DejaVuSans-89"/>
      <path d="M 56.203125 29.59375 
L 56.203125 25.203125 
L 14.890625 25.203125 
Q 15.484375 15.921875 20.484375 11.0625 
Q 25.484375 6.203125 34.421875 6.203125 
Q 39.59375 6.203125 44.453125 7.46875 
Q 49.3125 8.734375 54.109375 11.28125 
L 54.109375 2.78125 
Q 49.265625 0.734375 44.1875 -0.34375 
Q 39.109375 -1.421875 33.890625 -1.421875 
Q 20.796875 -1.421875 13.15625 6.1875 
Q 5.515625 13.8125 5.515625 26.8125 
Q 5.515625 40.234375 12.765625 48.109375 
Q 20.015625 56 32.328125 56 
Q 43.359375 56 49.78125 48.890625 
Q 56.203125 41.796875 56.203125 29.59375 
z
M 47.21875 32.234375 
Q 47.125 39.59375 43.09375 43.984375 
Q 39.0625 48.390625 32.421875 48.390625 
Q 24.90625 48.390625 20.390625 44.140625 
Q 15.875 39.890625 15.1875 32.171875 
z
" id="DejaVuSans-101"/>
      <path d="M 34.28125 27.484375 
Q 23.390625 27.484375 19.1875 25 
Q 14.984375 22.515625 14.984375 16.5 
Q 14.984375 11.71875 18.140625 8.90625 
Q 21.296875 6.109375 26.703125 6.109375 
Q 34.1875 6.109375 38.703125 11.40625 
Q 43.21875 16.703125 43.21875 25.484375 
L 43.21875 27.484375 
z
M 52.203125 31.203125 
L 52.203125 0 
L 43.21875 0 
L 43.21875 8.296875 
Q 40.140625 3.328125 35.546875 0.953125 
Q 30.953125 -1.421875 24.3125 -1.421875 
Q 15.921875 -1.421875 10.953125 3.296875 
Q 6 8.015625 6 15.921875 
Q 6 25.140625 12.171875 29.828125 
Q 18.359375 34.515625 30.609375 34.515625 
L 43.21875 34.515625 
L 43.21875 35.40625 
Q 43.21875 41.609375 39.140625 45 
Q 35.0625 48.390625 27.6875 48.390625 
Q 23 48.390625 18.546875 47.265625 
Q 14.109375 46.140625 10.015625 43.890625 
L 10.015625 52.203125 
Q 14.9375 54.109375 19.578125 55.046875 
Q 24.21875 56 28.609375 56 
Q 40.484375 56 46.34375 49.84375 
Q 52.203125 43.703125 52.203125 31.203125 
z
" id="DejaVuSans-97"/>
      <path d="M 41.109375 46.296875 
Q 39.59375 47.171875 37.8125 47.578125 
Q 36.03125 48 33.890625 48 
Q 26.265625 48 22.1875 43.046875 
Q 18.109375 38.09375 18.109375 28.8125 
L 18.109375 0 
L 9.078125 0 
L 9.078125 54.6875 
L 18.109375 54.6875 
L 18.109375 46.1875 
Q 20.953125 51.171875 25.484375 53.578125 
Q 30.03125 56 36.53125 56 
Q 37.453125 56 38.578125 55.875 
Q 39.703125 55.765625 41.0625 55.515625 
z
" id="DejaVuSans-114"/>
     </defs>
     <g transform="translate(258.40875 264.016875)scale(0.16 -0.16)">
      <use xlink:href="#DejaVuSans-89"/>
      <use x="60.880859" xlink:href="#DejaVuSans-101"/>
      <use x="122.404297" xlink:href="#DejaVuSans-97"/>
      <use x="183.683594" xlink:href="#DejaVuSans-114"/>
     </g>
    </g>
   </g>
   <g id="matplotlib.axis_2">
    <g id="ytick_1">
     <g id="line2d_12">
      <path d="M 60.3925 218.88 
" style="fill:none;stroke:#000000;stroke-width:1.5;"/>
      <defs>
       <path d="M 0 0 
L -2.75 0 
" id="m5f6857d0db" style="stroke:#000000;"/>
      </defs>
      <g>
       <use style="stroke:#000000;" x="60.3925" xlink:href="#m5f6857d0db" y="218.88"/>
      </g>
     </g>
     <g id="text_8">
      <!-- 0 -->
      <g transform="translate(46.535 222.743125)scale(0.14 -0.14)">
       <use xlink:href="#DejaVuSans-48"/>
      </g>
     </g>
    </g>
    <g id="ytick_2">
     <g id="line2d_13">
      <path d="M 60.3925 168.48 
" style="fill:none;stroke:#000000;stroke-width:1.5;"/>
      <g>
       <use style="stroke:#000000;" x="60.3925" xlink:href="#m5f6857d0db" y="168.48"/>
      </g>
     </g>
     <g id="text_9">
      <!-- 25 -->
      <defs>
       <path d="M 10.796875 72.90625 
L 49.515625 72.90625 
L 49.515625 64.59375 
L 19.828125 64.59375 
L 19.828125 46.734375 
Q 21.96875 47.46875 24.109375 47.828125 
Q 26.265625 48.1875 28.421875 48.1875 
Q 40.625 48.1875 47.75 41.5 
Q 54.890625 34.8125 54.890625 23.390625 
Q 54.890625 11.625 47.5625 5.09375 
Q 40.234375 -1.421875 26.90625 -1.421875 
Q 22.3125 -1.421875 17.546875 -0.640625 
Q 12.796875 0.140625 7.71875 1.703125 
L 7.71875 11.625 
Q 12.109375 9.234375 16.796875 8.0625 
Q 21.484375 6.890625 26.703125 6.890625 
Q 35.15625 6.890625 40.078125 11.328125 
Q 45.015625 15.765625 45.015625 23.390625 
Q 45.015625 31 40.078125 35.4375 
Q 35.15625 39.890625 26.703125 39.890625 
Q 22.75 39.890625 18.8125 39.015625 
Q 14.890625 38.140625 10.796875 36.28125 
z
" id="DejaVuSans-53"/>
      </defs>
      <g transform="translate(37.6275 172.343125)scale(0.14 -0.14)">
       <use xlink:href="#DejaVuSans-50"/>
       <use x="63.623047" xlink:href="#DejaVuSans-53"/>
      </g>
     </g>
    </g>
    <g id="ytick_3">
     <g id="line2d_14">
      <path d="M 60.3925 118.08 
" style="fill:none;stroke:#000000;stroke-width:1.5;"/>
      <g>
       <use style="stroke:#000000;" x="60.3925" xlink:href="#m5f6857d0db" y="118.08"/>
      </g>
     </g>
     <g id="text_10">
      <!-- 50 -->
      <g transform="translate(37.6275 121.943125)scale(0.14 -0.14)">
       <use xlink:href="#DejaVuSans-53"/>
       <use x="63.623047" xlink:href="#DejaVuSans-48"/>
      </g>
     </g>
    </g>
    <g id="ytick_4">
     <g id="line2d_15">
      <path d="M 60.3925 67.68 
" style="fill:none;stroke:#000000;stroke-width:1.5;"/>
      <g>
       <use style="stroke:#000000;" x="60.3925" xlink:href="#m5f6857d0db" y="67.68"/>
      </g>
     </g>
     <g id="text_11">
      <!-- 75 -->
      <g transform="translate(37.6275 71.543125)scale(0.14 -0.14)">
       <use xlink:href="#DejaVuSans-55"/>
       <use x="63.623047" xlink:href="#DejaVuSans-53"/>
      </g>
     </g>
    </g>
    <g id="ytick_5">
     <g id="line2d_16">
      <path d="M 60.3925 17.28 
" style="fill:none;stroke:#000000;stroke-width:1.5;"/>
      <g>
       <use style="stroke:#000000;" x="60.3925" xlink:href="#m5f6857d0db" y="17.28"/>
      </g>
     </g>
     <g id="text_12">
      <!-- 100 -->
      <g transform="translate(28.72 21.143125)scale(0.14 -0.14)">
       <use xlink:href="#DejaVuSans-49"/>
       <use x="63.623047" xlink:href="#DejaVuSans-48"/>
       <use x="127.246094" xlink:href="#DejaVuSans-48"/>
      </g>
     </g>
    </g>
    <g id="ytick_6">
     <g id="line2d_17">
      <path d="M 60.3925 193.68 
" style="fill:none;stroke:#000000;stroke-width:1.5;"/>
      <defs>
       <path d="M 0 0 
L -1.375 0 
" id="mb26325d790" style="stroke:#000000;"/>
      </defs>
      <g>
       <use style="stroke:#000000;" x="60.3925" xlink:href="#mb26325d790" y="193.68"/>
      </g>
     </g>
    </g>
    <g id="ytick_7">
     <g id="line2d_18">
      <path d="M 60.3925 143.28 
" style="fill:none;stroke:#000000;stroke-width:1.5;"/>
      <g>
       <use style="stroke:#000000;" x="60.3925" xlink:href="#mb26325d790" y="143.28"/>
      </g>
     </g>
    </g>
    <g id="ytick_8">
     <g id="line2d_19">
      <path d="M 60.3925 92.88 
" style="fill:none;stroke:#000000;stroke-width:1.5;"/>
      <g>
       <use style="stroke:#000000;" x="60.3925" xlink:href="#mb26325d790" y="92.88"/>
      </g>
     </g>
    </g>
    <g id="ytick_9">
     <g id="line2d_20">
      <path d="M 60.3925 42.48 
" style="fill:none;stroke:#000000;stroke-width:1.5;"/>
      <g>
       <use style="stroke:#000000;" x="60.3925" xlink:href="#mb26325d790" y="42.48"/>
      </g>
     </g>
    </g>
    <g id="text_13">
     <!-- $P_{Q1p_{min}}$ [%] -->
     <defs>
      <path d="M 16.890625 72.90625 
L 39.703125 72.90625 
Q 49.65625 72.90625 54.875 68.265625 
Q 60.109375 63.625 60.109375 54.6875 
Q 60.109375 42.671875 52.390625 35.984375 
Q 44.671875 29.296875 30.71875 29.296875 
L 18.3125 29.296875 
L 12.59375 0 
L 2.6875 0 
z
M 25.203125 64.796875 
L 19.921875 37.40625 
L 32.328125 37.40625 
Q 40.71875 37.40625 45.203125 41.703125 
Q 49.703125 46 49.703125 54 
Q 49.703125 59.125 46.65625 61.953125 
Q 43.609375 64.796875 38.09375 64.796875 
z
" id="DejaVuSans-Oblique-80"/>
      <path d="M 36.078125 -1.3125 
Q 35.546875 -1.375 34.953125 -1.390625 
Q 34.375 -1.421875 33.203125 -1.421875 
Q 19.53125 -1.421875 11.8125 6.421875 
Q 4.109375 14.265625 4.109375 28.078125 
Q 4.109375 36.234375 7.0625 44.4375 
Q 10.015625 52.640625 15.28125 59.1875 
Q 21.390625 66.703125 29.03125 70.453125 
Q 36.671875 74.21875 45.90625 74.21875 
Q 59.28125 74.21875 66.984375 66.328125 
Q 74.703125 58.453125 74.703125 44.828125 
Q 74.703125 30.125 66.640625 17.921875 
Q 58.59375 5.71875 45.609375 0.6875 
L 55.515625 -12.890625 
L 44.484375 -12.890625 
z
M 45.609375 66.21875 
Q 37.5 66.21875 31.296875 62.28125 
Q 25.09375 58.34375 20.515625 50.296875 
Q 17.578125 45.171875 16.03125 39.40625 
Q 14.5 33.640625 14.5 27.78125 
Q 14.5 17.625 19.359375 12.109375 
Q 24.21875 6.59375 33.109375 6.59375 
Q 41.109375 6.59375 47.375 10.5625 
Q 53.65625 14.546875 58.109375 22.40625 
Q 61.078125 27.6875 62.640625 33.46875 
Q 64.203125 39.265625 64.203125 45.015625 
Q 64.203125 55.125 59.3125 60.671875 
Q 54.4375 66.21875 45.609375 66.21875 
z
" id="DejaVuSans-Oblique-81"/>
      <path d="M 49.609375 33.6875 
Q 49.609375 40.875 46.484375 44.671875 
Q 43.359375 48.484375 37.5 48.484375 
Q 33.5 48.484375 29.859375 46.4375 
Q 26.21875 44.390625 23.390625 40.484375 
Q 20.609375 36.625 18.9375 31.15625 
Q 17.28125 25.6875 17.28125 20.3125 
Q 17.28125 13.484375 20.40625 9.796875 
Q 23.53125 6.109375 29.296875 6.109375 
Q 33.546875 6.109375 37.1875 8.109375 
Q 40.828125 10.109375 43.40625 13.921875 
Q 46.1875 17.921875 47.890625 23.34375 
Q 49.609375 28.765625 49.609375 33.6875 
z
M 21.78125 46.390625 
Q 25.390625 51.125 30.296875 53.5625 
Q 35.203125 56 41.21875 56 
Q 49.609375 56 54.25 50.5 
Q 58.890625 45.015625 58.890625 35.109375 
Q 58.890625 27 56 19.65625 
Q 53.125 12.3125 47.703125 6.5 
Q 44.09375 2.640625 39.546875 0.609375 
Q 35.015625 -1.421875 29.984375 -1.421875 
Q 24.171875 -1.421875 20.21875 1 
Q 16.265625 3.421875 14.3125 8.203125 
L 8.6875 -20.796875 
L -0.296875 -20.796875 
L 14.40625 54.6875 
L 23.390625 54.6875 
z
" id="DejaVuSans-Oblique-112"/>
      <path d="M 89.796875 33.015625 
L 83.40625 0 
L 74.421875 0 
L 80.71875 32.71875 
Q 81.109375 34.8125 81.296875 36.328125 
Q 81.5 37.84375 81.5 38.921875 
Q 81.5 43.3125 79.046875 45.75 
Q 76.609375 48.1875 72.21875 48.1875 
Q 65.671875 48.1875 60.546875 43.28125 
Q 55.421875 38.375 53.90625 30.515625 
L 47.90625 0 
L 38.921875 0 
L 45.3125 32.71875 
Q 45.703125 34.515625 45.890625 36.046875 
Q 46.09375 37.59375 46.09375 38.8125 
Q 46.09375 43.265625 43.65625 45.71875 
Q 41.21875 48.1875 36.921875 48.1875 
Q 30.28125 48.1875 25.140625 43.28125 
Q 20.015625 38.375 18.5 30.515625 
L 12.5 0 
L 3.515625 0 
L 14.203125 54.6875 
L 23.1875 54.6875 
L 21.484375 46.1875 
Q 25.140625 50.984375 30.046875 53.484375 
Q 34.96875 56 40.578125 56 
Q 46.53125 56 50.359375 52.875 
Q 54.203125 49.75 54.984375 44.1875 
Q 59.078125 49.953125 64.46875 52.96875 
Q 69.875 56 75.875 56 
Q 82.90625 56 86.734375 51.953125 
Q 90.578125 47.90625 90.578125 40.484375 
Q 90.578125 38.875 90.375 36.9375 
Q 90.1875 35.015625 89.796875 33.015625 
z
" id="DejaVuSans-Oblique-109"/>
      <path d="M 18.3125 75.984375 
L 27.296875 75.984375 
L 25.09375 64.59375 
L 16.109375 64.59375 
z
M 14.203125 54.6875 
L 23.1875 54.6875 
L 12.5 0 
L 3.515625 0 
z
" id="DejaVuSans-Oblique-105"/>
      <path d="M 55.71875 33.015625 
L 49.3125 0 
L 40.28125 0 
L 46.6875 32.671875 
Q 47.125 34.96875 47.359375 36.71875 
Q 47.609375 38.484375 47.609375 39.5 
Q 47.609375 43.609375 45.015625 45.890625 
Q 42.4375 48.1875 37.796875 48.1875 
Q 30.5625 48.1875 25.34375 43.375 
Q 20.125 38.578125 18.5 30.328125 
L 12.5 0 
L 3.515625 0 
L 14.109375 54.6875 
L 23.09375 54.6875 
L 21.296875 46.09375 
Q 25.046875 50.828125 30.3125 53.40625 
Q 35.59375 56 41.40625 56 
Q 48.640625 56 52.609375 52.09375 
Q 56.59375 48.1875 56.59375 41.109375 
Q 56.59375 39.359375 56.375 37.359375 
Q 56.15625 35.359375 55.71875 33.015625 
z
" id="DejaVuSans-Oblique-110"/>
      <path id="DejaVuSans-32"/>
      <path d="M 8.59375 75.984375 
L 29.296875 75.984375 
L 29.296875 69 
L 17.578125 69 
L 17.578125 -6.203125 
L 29.296875 -6.203125 
L 29.296875 -13.1875 
L 8.59375 -13.1875 
z
" id="DejaVuSans-91"/>
      <path d="M 72.703125 32.078125 
Q 68.453125 32.078125 66.03125 28.46875 
Q 63.625 24.859375 63.625 18.40625 
Q 63.625 12.0625 66.03125 8.421875 
Q 68.453125 4.78125 72.703125 4.78125 
Q 76.859375 4.78125 79.265625 8.421875 
Q 81.6875 12.0625 81.6875 18.40625 
Q 81.6875 24.8125 79.265625 28.4375 
Q 76.859375 32.078125 72.703125 32.078125 
z
M 72.703125 38.28125 
Q 80.421875 38.28125 84.953125 32.90625 
Q 89.5 27.546875 89.5 18.40625 
Q 89.5 9.28125 84.9375 3.921875 
Q 80.375 -1.421875 72.703125 -1.421875 
Q 64.890625 -1.421875 60.34375 3.921875 
Q 55.8125 9.28125 55.8125 18.40625 
Q 55.8125 27.59375 60.375 32.9375 
Q 64.9375 38.28125 72.703125 38.28125 
z
M 22.3125 68.015625 
Q 18.109375 68.015625 15.6875 64.375 
Q 13.28125 60.75 13.28125 54.390625 
Q 13.28125 47.953125 15.671875 44.328125 
Q 18.0625 40.71875 22.3125 40.71875 
Q 26.5625 40.71875 28.96875 44.328125 
Q 31.390625 47.953125 31.390625 54.390625 
Q 31.390625 60.6875 28.953125 64.34375 
Q 26.515625 68.015625 22.3125 68.015625 
z
M 66.40625 74.21875 
L 74.21875 74.21875 
L 28.609375 -1.421875 
L 20.796875 -1.421875 
z
M 22.3125 74.21875 
Q 30.03125 74.21875 34.609375 68.875 
Q 39.203125 63.53125 39.203125 54.390625 
Q 39.203125 45.171875 34.640625 39.84375 
Q 30.078125 34.515625 22.3125 34.515625 
Q 14.546875 34.515625 10.03125 39.859375 
Q 5.515625 45.21875 5.515625 54.390625 
Q 5.515625 63.484375 10.046875 68.84375 
Q 14.59375 74.21875 22.3125 74.21875 
z
" id="DejaVuSans-37"/>
      <path d="M 30.421875 75.984375 
L 30.421875 -13.1875 
L 9.71875 -13.1875 
L 9.71875 -6.203125 
L 21.390625 -6.203125 
L 21.390625 69 
L 9.71875 69 
L 9.71875 75.984375 
z
" id="DejaVuSans-93"/>
     </defs>
     <g transform="translate(19.36 157.2)rotate(-90)scale(0.16 -0.16)">
      <use transform="translate(0 0.015625)" xlink:href="#DejaVuSans-Oblique-80"/>
      <use transform="translate(60.302734 -16.390625)scale(0.7)" xlink:href="#DejaVuSans-Oblique-81"/>
      <use transform="translate(115.400391 -16.390625)scale(0.7)" xlink:href="#DejaVuSans-49"/>
      <use transform="translate(159.936523 -16.390625)scale(0.7)" xlink:href="#DejaVuSans-Oblique-112"/>
      <use transform="translate(204.370117 -27.875)scale(0.49)" xlink:href="#DejaVuSans-Oblique-109"/>
      <use transform="translate(252.102051 -27.875)scale(0.49)" xlink:href="#DejaVuSans-Oblique-105"/>
      <use transform="translate(265.71582 -27.875)scale(0.49)" xlink:href="#DejaVuSans-Oblique-110"/>
      <use transform="translate(301.419922 0.015625)" xlink:href="#DejaVuSans-32"/>
      <use transform="translate(333.207031 0.015625)" xlink:href="#DejaVuSans-91"/>
      <use transform="translate(372.220703 0.015625)" xlink:href="#DejaVuSans-37"/>
      <use transform="translate(467.240234 0.015625)" xlink:href="#DejaVuSans-93"/>
     </g>
    </g>
   </g>
   <g id="LineCollection_1">
    <path clip-path="url(#pbd5e4da913)" d="M 145.614318 194.332349 
L 145.614318 194.332349 
" style="fill:none;stroke:#9da0a2;stroke-width:1.32934;"/>
    <path clip-path="url(#pbd5e4da913)" d="M 169.963409 175.471518 
L 169.963409 175.471518 
" style="fill:none;stroke:#9da0a2;stroke-width:1.32934;"/>
    <path clip-path="url(#pbd5e4da913)" d="M 178.079773 143.258131 
L 178.079773 143.258131 
" style="fill:none;stroke:#9da0a2;stroke-width:1.32934;"/>
    <path clip-path="url(#pbd5e4da913)" d="M 202.428864 164.838835 
L 202.428864 164.838835 
" style="fill:none;stroke:#9da0a2;stroke-width:1.32934;"/>
    <path clip-path="url(#pbd5e4da913)" d="M 210.545227 167.044454 
L 210.545227 167.044454 
" style="fill:none;stroke:#9da0a2;stroke-width:1.32934;"/>
    <path clip-path="url(#pbd5e4da913)" d="M 218.661591 200.241496 
L 218.661591 200.241496 
" style="fill:none;stroke:#9da0a2;stroke-width:1.32934;"/>
    <path clip-path="url(#pbd5e4da913)" d="M 226.777955 155.628102 
L 226.777955 155.628102 
" style="fill:none;stroke:#9da0a2;stroke-width:1.32934;"/>
    <path clip-path="url(#pbd5e4da913)" d="M 234.894318 137.804261 
L 234.894318 137.804261 
" style="fill:none;stroke:#9da0a2;stroke-width:1.32934;"/>
    <path clip-path="url(#pbd5e4da913)" d="M 243.010682 158.793242 
L 243.010682 158.793242 
" style="fill:none;stroke:#9da0a2;stroke-width:1.32934;"/>
    <path clip-path="url(#pbd5e4da913)" d="M 251.127045 138.225486 
L 251.127045 138.225486 
" style="fill:none;stroke:#9da0a2;stroke-width:1.32934;"/>
    <path clip-path="url(#pbd5e4da913)" d="M 259.243409 149.575796 
L 259.243409 149.575796 
" style="fill:none;stroke:#9da0a2;stroke-width:1.32934;"/>
    <path clip-path="url(#pbd5e4da913)" d="M 267.359773 129.620866 
L 267.359773 129.620866 
" style="fill:none;stroke:#9da0a2;stroke-width:1.32934;"/>
    <path clip-path="url(#pbd5e4da913)" d="M 275.476136 102.952312 
L 275.476136 102.952312 
" style="fill:none;stroke:#9da0a2;stroke-width:1.32934;"/>
    <path clip-path="url(#pbd5e4da913)" d="M 283.5925 122.911143 
L 283.5925 122.911143 
" style="fill:none;stroke:#9da0a2;stroke-width:1.32934;"/>
    <path clip-path="url(#pbd5e4da913)" d="M 291.708864 123.383562 
L 291.708864 123.383562 
" style="fill:none;stroke:#9da0a2;stroke-width:1.32934;"/>
    <path clip-path="url(#pbd5e4da913)" d="M 299.825227 117.629701 
L 299.825227 117.629701 
" style="fill:none;stroke:#9da0a2;stroke-width:1.32934;"/>
    <path clip-path="url(#pbd5e4da913)" d="M 307.941591 118.681934 
L 307.941591 118.681934 
" style="fill:none;stroke:#9da0a2;stroke-width:1.32934;"/>
    <path clip-path="url(#pbd5e4da913)" d="M 316.057955 129.035958 
L 316.057955 129.035958 
" style="fill:none;stroke:#9da0a2;stroke-width:1.32934;"/>
    <path clip-path="url(#pbd5e4da913)" d="M 324.174318 144.915121 
L 324.174318 144.915121 
" style="fill:none;stroke:#9da0a2;stroke-width:1.32934;"/>
    <path clip-path="url(#pbd5e4da913)" d="M 332.290682 125.488866 
L 332.290682 125.488866 
" style="fill:none;stroke:#9da0a2;stroke-width:1.32934;"/>
    <path clip-path="url(#pbd5e4da913)" d="M 340.407045 124.548795 
L 340.407045 124.548795 
" style="fill:none;stroke:#9da0a2;stroke-width:1.32934;"/>
    <path clip-path="url(#pbd5e4da913)" d="M 348.523409 125.54054 
L 348.523409 125.54054 
" style="fill:none;stroke:#9da0a2;stroke-width:1.32934;"/>
    <path clip-path="url(#pbd5e4da913)" d="M 356.639773 125.886882 
L 356.639773 125.886882 
" style="fill:none;stroke:#9da0a2;stroke-width:1.32934;"/>
    <path clip-path="url(#pbd5e4da913)" d="M 364.756136 144.703172 
L 364.756136 144.703172 
" style="fill:none;stroke:#9da0a2;stroke-width:1.32934;"/>
    <path clip-path="url(#pbd5e4da913)" d="M 372.8725 143.311343 
L 372.8725 143.311343 
" style="fill:none;stroke:#9da0a2;stroke-width:1.32934;"/>
    <path clip-path="url(#pbd5e4da913)" d="M 380.988864 120.556038 
L 380.988864 120.556038 
" style="fill:none;stroke:#9da0a2;stroke-width:1.32934;"/>
    <path clip-path="url(#pbd5e4da913)" d="M 389.105227 128.958771 
L 389.105227 128.958771 
" style="fill:none;stroke:#9da0a2;stroke-width:1.32934;"/>
    <path clip-path="url(#pbd5e4da913)" d="M 397.221591 133.602217 
L 397.221591 133.602217 
" style="fill:none;stroke:#9da0a2;stroke-width:1.32934;"/>
    <path clip-path="url(#pbd5e4da913)" d="M 405.337955 115.406012 
L 405.337955 115.406012 
" style="fill:none;stroke:#9da0a2;stroke-width:1.32934;"/>
    <path clip-path="url(#pbd5e4da913)" d="M 413.454318 118.075231 
L 413.454318 118.075231 
" style="fill:none;stroke:#9da0a2;stroke-width:1.32934;"/>
    <path clip-path="url(#pbd5e4da913)" d="M 421.570682 121.634231 
L 421.570682 121.634231 
" style="fill:none;stroke:#9da0a2;stroke-width:1.32934;"/>
    <path clip-path="url(#pbd5e4da913)" d="M 429.687045 111.671567 
L 429.687045 111.671567 
" style="fill:none;stroke:#9da0a2;stroke-width:1.32934;"/>
    <path clip-path="url(#pbd5e4da913)" d="M 437.803409 102.351366 
L 437.803409 102.351366 
" style="fill:none;stroke:#9da0a2;stroke-width:1.32934;"/>
    <path clip-path="url(#pbd5e4da913)" d="M 445.919773 130.562151 
L 445.919773 130.562151 
" style="fill:none;stroke:#9da0a2;stroke-width:1.32934;"/>
    <path clip-path="url(#pbd5e4da913)" d="M 454.036136 108.821291 
L 454.036136 108.821291 
" style="fill:none;stroke:#9da0a2;stroke-width:1.32934;"/>
    <path clip-path="url(#pbd5e4da913)" d="M 462.1525 105.004447 
L 462.1525 105.004447 
" style="fill:none;stroke:#9da0a2;stroke-width:1.32934;"/>
    <path clip-path="url(#pbd5e4da913)" d="M 470.268864 119.085927 
L 470.268864 119.085927 
" style="fill:none;stroke:#9da0a2;stroke-width:1.32934;"/>
    <path clip-path="url(#pbd5e4da913)" d="M 478.385227 139.449383 
L 478.385227 139.449383 
" style="fill:none;stroke:#9da0a2;stroke-width:1.32934;"/>
    <path clip-path="url(#pbd5e4da913)" d="M 145.614318 126.198121 
L 145.614318 126.198121 
" style="fill:none;stroke:#9da0a2;stroke-width:1.32934;"/>
    <path clip-path="url(#pbd5e4da913)" d="M 169.963409 96.285797 
L 169.963409 96.285797 
" style="fill:none;stroke:#9da0a2;stroke-width:1.32934;"/>
    <path clip-path="url(#pbd5e4da913)" d="M 178.079773 94.351534 
L 178.079773 94.351534 
" style="fill:none;stroke:#9da0a2;stroke-width:1.32934;"/>
    <path clip-path="url(#pbd5e4da913)" d="M 202.428864 83.240628 
L 202.428864 83.240628 
" style="fill:none;stroke:#9da0a2;stroke-width:1.32934;"/>
    <path clip-path="url(#pbd5e4da913)" d="M 210.545227 111.912861 
L 210.545227 111.912861 
" style="fill:none;stroke:#9da0a2;stroke-width:1.32934;"/>
    <path clip-path="url(#pbd5e4da913)" d="M 218.661591 148.090316 
L 218.661591 148.090316 
" style="fill:none;stroke:#9da0a2;stroke-width:1.32934;"/>
    <path clip-path="url(#pbd5e4da913)" d="M 226.777955 131.501026 
L 226.777955 131.501026 
" style="fill:none;stroke:#9da0a2;stroke-width:1.32934;"/>
    <path clip-path="url(#pbd5e4da913)" d="M 234.894318 111.587954 
L 234.894318 111.587954 
" style="fill:none;stroke:#9da0a2;stroke-width:1.32934;"/>
    <path clip-path="url(#pbd5e4da913)" d="M 243.010682 132.909615 
L 243.010682 132.909615 
" style="fill:none;stroke:#9da0a2;stroke-width:1.32934;"/>
    <path clip-path="url(#pbd5e4da913)" d="M 251.127045 120.689247 
L 251.127045 120.689247 
" style="fill:none;stroke:#9da0a2;stroke-width:1.32934;"/>
    <path clip-path="url(#pbd5e4da913)" d="M 259.243409 132.188806 
L 259.243409 132.188806 
" style="fill:none;stroke:#9da0a2;stroke-width:1.32934;"/>
    <path clip-path="url(#pbd5e4da913)" d="M 267.359773 111.843525 
L 267.359773 111.843525 
" style="fill:none;stroke:#9da0a2;stroke-width:1.32934;"/>
    <path clip-path="url(#pbd5e4da913)" d="M 275.476136 86.56439 
L 275.476136 86.56439 
" style="fill:none;stroke:#9da0a2;stroke-width:1.32934;"/>
    <path clip-path="url(#pbd5e4da913)" d="M 283.5925 106.713862 
L 283.5925 106.713862 
" style="fill:none;stroke:#9da0a2;stroke-width:1.32934;"/>
    <path clip-path="url(#pbd5e4da913)" d="M 291.708864 109.164562 
L 291.708864 109.164562 
" style="fill:none;stroke:#9da0a2;stroke-width:1.32934;"/>
    <path clip-path="url(#pbd5e4da913)" d="M 299.825227 102.990177 
L 299.825227 102.990177 
" style="fill:none;stroke:#9da0a2;stroke-width:1.32934;"/>
    <path clip-path="url(#pbd5e4da913)" d="M 307.941591 105.209926 
L 307.941591 105.209926 
" style="fill:none;stroke:#9da0a2;stroke-width:1.32934;"/>
    <path clip-path="url(#pbd5e4da913)" d="M 316.057955 116.796928 
L 316.057955 116.796928 
" style="fill:none;stroke:#9da0a2;stroke-width:1.32934;"/>
    <path clip-path="url(#pbd5e4da913)" d="M 324.174318 130.264574 
L 324.174318 130.264574 
" style="fill:none;stroke:#9da0a2;stroke-width:1.32934;"/>
    <path clip-path="url(#pbd5e4da913)" d="M 332.290682 110.770895 
L 332.290682 110.770895 
" style="fill:none;stroke:#9da0a2;stroke-width:1.32934;"/>
    <path clip-path="url(#pbd5e4da913)" d="M 340.407045 104.699832 
L 340.407045 104.699832 
" style="fill:none;stroke:#9da0a2;stroke-width:1.32934;"/>
    <path clip-path="url(#pbd5e4da913)" d="M 348.523409 111.024367 
L 348.523409 111.024367 
" style="fill:none;stroke:#9da0a2;stroke-width:1.32934;"/>
    <path clip-path="url(#pbd5e4da913)" d="M 356.639773 110.590897 
L 356.639773 110.590897 
" style="fill:none;stroke:#9da0a2;stroke-width:1.32934;"/>
    <path clip-path="url(#pbd5e4da913)" d="M 364.756136 133.169472 
L 364.756136 133.169472 
" style="fill:none;stroke:#9da0a2;stroke-width:1.32934;"/>
    <path clip-path="url(#pbd5e4da913)" d="M 372.8725 130.999866 
L 372.8725 130.999866 
" style="fill:none;stroke:#9da0a2;stroke-width:1.32934;"/>
    <path clip-path="url(#pbd5e4da913)" d="M 380.988864 106.207686 
L 380.988864 106.207686 
" style="fill:none;stroke:#9da0a2;stroke-width:1.32934;"/>
    <path clip-path="url(#pbd5e4da913)" d="M 389.105227 116.241647 
L 389.105227 116.241647 
" style="fill:none;stroke:#9da0a2;stroke-width:1.32934;"/>
    <path clip-path="url(#pbd5e4da913)" d="M 397.221591 121.287448 
L 397.221591 121.287448 
" style="fill:none;stroke:#9da0a2;stroke-width:1.32934;"/>
    <path clip-path="url(#pbd5e4da913)" d="M 405.337955 100.688035 
L 405.337955 100.688035 
" style="fill:none;stroke:#9da0a2;stroke-width:1.32934;"/>
    <path clip-path="url(#pbd5e4da913)" d="M 413.454318 103.976044 
L 413.454318 103.976044 
" style="fill:none;stroke:#9da0a2;stroke-width:1.32934;"/>
    <path clip-path="url(#pbd5e4da913)" d="M 421.570682 111.152511 
L 421.570682 111.152511 
" style="fill:none;stroke:#9da0a2;stroke-width:1.32934;"/>
    <path clip-path="url(#pbd5e4da913)" d="M 429.687045 98.748836 
L 429.687045 98.748836 
" style="fill:none;stroke:#9da0a2;stroke-width:1.32934;"/>
    <path clip-path="url(#pbd5e4da913)" d="M 437.803409 89.880782 
L 437.803409 89.880782 
" style="fill:none;stroke:#9da0a2;stroke-width:1.32934;"/>
    <path clip-path="url(#pbd5e4da913)" d="M 445.919773 119.877044 
L 445.919773 119.877044 
" style="fill:none;stroke:#9da0a2;stroke-width:1.32934;"/>
    <path clip-path="url(#pbd5e4da913)" d="M 454.036136 95.863073 
L 454.036136 95.863073 
" style="fill:none;stroke:#9da0a2;stroke-width:1.32934;"/>
    <path clip-path="url(#pbd5e4da913)" d="M 462.1525 91.759429 
L 462.1525 91.759429 
" style="fill:none;stroke:#9da0a2;stroke-width:1.32934;"/>
    <path clip-path="url(#pbd5e4da913)" d="M 470.268864 108.792462 
L 470.268864 108.792462 
" style="fill:none;stroke:#9da0a2;stroke-width:1.32934;"/>
    <path clip-path="url(#pbd5e4da913)" d="M 478.385227 119.502563 
L 478.385227 119.502563 
" style="fill:none;stroke:#9da0a2;stroke-width:1.32934;"/>
    <path clip-path="url(#pbd5e4da913)" d="M 145.614318 126.198121 
L 145.614318 194.332349 
" style="fill:none;stroke:#9da0a2;stroke-width:1.32934;"/>
    <path clip-path="url(#pbd5e4da913)" d="M 169.963409 96.285797 
L 169.963409 175.471518 
" style="fill:none;stroke:#9da0a2;stroke-width:1.32934;"/>
    <path clip-path="url(#pbd5e4da913)" d="M 178.079773 94.351534 
L 178.079773 143.258131 
" style="fill:none;stroke:#9da0a2;stroke-width:1.32934;"/>
    <path clip-path="url(#pbd5e4da913)" d="M 202.428864 83.240628 
L 202.428864 164.838835 
" style="fill:none;stroke:#9da0a2;stroke-width:1.32934;"/>
    <path clip-path="url(#pbd5e4da913)" d="M 210.545227 111.912861 
L 210.545227 167.044454 
" style="fill:none;stroke:#9da0a2;stroke-width:1.32934;"/>
    <path clip-path="url(#pbd5e4da913)" d="M 218.661591 148.090316 
L 218.661591 200.241496 
" style="fill:none;stroke:#9da0a2;stroke-width:1.32934;"/>
    <path clip-path="url(#pbd5e4da913)" d="M 226.777955 131.501026 
L 226.777955 155.628102 
" style="fill:none;stroke:#9da0a2;stroke-width:1.32934;"/>
    <path clip-path="url(#pbd5e4da913)" d="M 234.894318 111.587954 
L 234.894318 137.804261 
" style="fill:none;stroke:#9da0a2;stroke-width:1.32934;"/>
    <path clip-path="url(#pbd5e4da913)" d="M 243.010682 132.909615 
L 243.010682 158.793242 
" style="fill:none;stroke:#9da0a2;stroke-width:1.32934;"/>
    <path clip-path="url(#pbd5e4da913)" d="M 251.127045 120.689247 
L 251.127045 138.225486 
" style="fill:none;stroke:#9da0a2;stroke-width:1.32934;"/>
    <path clip-path="url(#pbd5e4da913)" d="M 259.243409 132.188806 
L 259.243409 149.575796 
" style="fill:none;stroke:#9da0a2;stroke-width:1.32934;"/>
    <path clip-path="url(#pbd5e4da913)" d="M 267.359773 111.843525 
L 267.359773 129.620866 
" style="fill:none;stroke:#9da0a2;stroke-width:1.32934;"/>
    <path clip-path="url(#pbd5e4da913)" d="M 275.476136 86.56439 
L 275.476136 102.952312 
" style="fill:none;stroke:#9da0a2;stroke-width:1.32934;"/>
    <path clip-path="url(#pbd5e4da913)" d="M 283.5925 106.713862 
L 283.5925 122.911143 
" style="fill:none;stroke:#9da0a2;stroke-width:1.32934;"/>
    <path clip-path="url(#pbd5e4da913)" d="M 291.708864 109.164562 
L 291.708864 123.383562 
" style="fill:none;stroke:#9da0a2;stroke-width:1.32934;"/>
    <path clip-path="url(#pbd5e4da913)" d="M 299.825227 102.990177 
L 299.825227 117.629701 
" style="fill:none;stroke:#9da0a2;stroke-width:1.32934;"/>
    <path clip-path="url(#pbd5e4da913)" d="M 307.941591 105.209926 
L 307.941591 118.681934 
" style="fill:none;stroke:#9da0a2;stroke-width:1.32934;"/>
    <path clip-path="url(#pbd5e4da913)" d="M 316.057955 116.796928 
L 316.057955 129.035958 
" style="fill:none;stroke:#9da0a2;stroke-width:1.32934;"/>
    <path clip-path="url(#pbd5e4da913)" d="M 324.174318 130.264574 
L 324.174318 144.915121 
" style="fill:none;stroke:#9da0a2;stroke-width:1.32934;"/>
    <path clip-path="url(#pbd5e4da913)" d="M 332.290682 110.770895 
L 332.290682 125.488866 
" style="fill:none;stroke:#9da0a2;stroke-width:1.32934;"/>
    <path clip-path="url(#pbd5e4da913)" d="M 340.407045 104.699832 
L 340.407045 124.548795 
" style="fill:none;stroke:#9da0a2;stroke-width:1.32934;"/>
    <path clip-path="url(#pbd5e4da913)" d="M 348.523409 111.024367 
L 348.523409 125.54054 
" style="fill:none;stroke:#9da0a2;stroke-width:1.32934;"/>
    <path clip-path="url(#pbd5e4da913)" d="M 356.639773 110.590897 
L 356.639773 125.886882 
" style="fill:none;stroke:#9da0a2;stroke-width:1.32934;"/>
    <path clip-path="url(#pbd5e4da913)" d="M 364.756136 133.169472 
L 364.756136 144.703172 
" style="fill:none;stroke:#9da0a2;stroke-width:1.32934;"/>
    <path clip-path="url(#pbd5e4da913)" d="M 372.8725 130.999866 
L 372.8725 143.311343 
" style="fill:none;stroke:#9da0a2;stroke-width:1.32934;"/>
    <path clip-path="url(#pbd5e4da913)" d="M 380.988864 106.207686 
L 380.988864 120.556038 
" style="fill:none;stroke:#9da0a2;stroke-width:1.32934;"/>
    <path clip-path="url(#pbd5e4da913)" d="M 389.105227 116.241647 
L 389.105227 128.958771 
" style="fill:none;stroke:#9da0a2;stroke-width:1.32934;"/>
    <path clip-path="url(#pbd5e4da913)" d="M 397.221591 121.287448 
L 397.221591 133.602217 
" style="fill:none;stroke:#9da0a2;stroke-width:1.32934;"/>
    <path clip-path="url(#pbd5e4da913)" d="M 405.337955 100.688035 
L 405.337955 115.406012 
" style="fill:none;stroke:#9da0a2;stroke-width:1.32934;"/>
    <path clip-path="url(#pbd5e4da913)" d="M 413.454318 103.976044 
L 413.454318 118.075231 
" style="fill:none;stroke:#9da0a2;stroke-width:1.32934;"/>
    <path clip-path="url(#pbd5e4da913)" d="M 421.570682 111.152511 
L 421.570682 121.634231 
" style="fill:none;stroke:#9da0a2;stroke-width:1.32934;"/>
    <path clip-path="url(#pbd5e4da913)" d="M 429.687045 98.748836 
L 429.687045 111.671567 
" style="fill:none;stroke:#9da0a2;stroke-width:1.32934;"/>
    <path clip-path="url(#pbd5e4da913)" d="M 437.803409 89.880782 
L 437.803409 102.351366 
" style="fill:none;stroke:#9da0a2;stroke-width:1.32934;"/>
    <path clip-path="url(#pbd5e4da913)" d="M 445.919773 119.877044 
L 445.919773 130.562151 
" style="fill:none;stroke:#9da0a2;stroke-width:1.32934;"/>
    <path clip-path="url(#pbd5e4da913)" d="M 454.036136 95.863073 
L 454.036136 108.821291 
" style="fill:none;stroke:#9da0a2;stroke-width:1.32934;"/>
    <path clip-path="url(#pbd5e4da913)" d="M 462.1525 91.759429 
L 462.1525 105.004447 
" style="fill:none;stroke:#9da0a2;stroke-width:1.32934;"/>
    <path clip-path="url(#pbd5e4da913)" d="M 470.268864 108.792462 
L 470.268864 119.085927 
" style="fill:none;stroke:#9da0a2;stroke-width:1.32934;"/>
    <path clip-path="url(#pbd5e4da913)" d="M 478.385227 119.502563 
L 478.385227 139.449383 
" style="fill:none;stroke:#9da0a2;stroke-width:1.32934;"/>
   </g>
   <g id="line2d_21">
    <path clip-path="url(#pbd5e4da913)" d="M 137.497955 162.729664 
L 145.614318 160.265235 
L 169.963409 135.878658 
L 178.079773 118.804832 
L 186.196136 185.489396 
L 194.3125 81.935034 
L 202.428864 124.039732 
L 210.545227 139.478658 
L 218.661591 174.165906 
L 226.777955 143.564564 
L 234.894318 124.696107 
L 243.010682 145.851429 
L 251.127045 129.457366 
L 259.243409 140.882301 
L 267.359773 120.732196 
L 275.476136 94.758351 
L 283.5925 114.812502 
L 291.708864 116.274062 
L 299.825227 110.309939 
L 307.941591 111.94593 
L 316.057955 122.916443 
L 324.174318 137.589847 
L 332.290682 118.129881 
L 340.407045 114.624313 
L 348.523409 118.282453 
L 356.639773 118.23889 
L 364.756136 138.936322 
L 372.8725 137.155604 
L 380.988864 113.381862 
L 389.105227 122.600209 
L 397.221591 127.444832 
L 405.337955 108.047024 
L 413.454318 111.025638 
L 421.570682 116.393371 
L 429.687045 105.210201 
L 437.803409 96.116074 
L 445.919773 125.219597 
L 454.036136 102.342182 
L 462.1525 98.381938 
L 470.268864 113.939195 
L 478.385227 129.475973 
" style="fill:none;stroke:#0077bb;stroke-width:0.886227;"/>
   </g>
   <g id="patch_3">
    <path d="M 60.3925 228.96 
L 60.3925 7.2 
" style="fill:none;stroke:#000000;stroke-linecap:square;stroke-linejoin:miter;"/>
   </g>
   <g id="patch_4">
    <path d="M 60.3925 228.96 
L 506.7925 228.96 
" style="fill:none;stroke:#000000;stroke-linecap:square;stroke-linejoin:miter;"/>
   </g>
   <g id="PathCollection_1">
    <path clip-path="url(#pbd5e4da913)" d="M 137.497955 164.502118 
C 137.968015 164.502118 138.418886 164.315361 138.751269 163.982979 
C 139.083651 163.650596 139.270408 163.199725 139.270408 162.729664 
C 139.270408 162.259604 139.083651 161.808733 138.751269 161.47635 
C 138.418886 161.143967 137.968015 160.957211 137.497955 160.957211 
C 137.027894 160.957211 136.577023 161.143967 136.24464 161.47635 
C 135.912258 161.808733 135.725501 162.259604 135.725501 162.729664 
C 135.725501 163.199725 135.912258 163.650596 136.24464 163.982979 
C 136.577023 164.315361 137.027894 164.502118 137.497955 164.502118 
z
" style="fill:#0077bb;stroke:#0077bb;stroke-width:0.886227;"/>
    <path clip-path="url(#pbd5e4da913)" d="M 145.614318 162.037689 
C 146.084378 162.037689 146.53525 161.850932 146.867632 161.518549 
C 147.200015 161.186166 147.386772 160.735295 147.386772 160.265235 
C 147.386772 159.795175 147.200015 159.344304 146.867632 159.011921 
C 146.53525 158.679538 146.084378 158.492781 145.614318 158.492781 
C 145.144258 158.492781 144.693387 158.679538 144.361004 159.011921 
C 144.028621 159.344304 143.841864 159.795175 143.841864 160.265235 
C 143.841864 160.735295 144.028621 161.186166 144.361004 161.518549 
C 144.693387 161.850932 145.144258 162.037689 145.614318 162.037689 
z
" style="fill:#0077bb;stroke:#0077bb;stroke-width:0.886227;"/>
    <path clip-path="url(#pbd5e4da913)" d="M 169.963409 137.651112 
C 170.433469 137.651112 170.88434 137.464355 171.216723 137.131972 
C 171.549106 136.799589 171.735863 136.348718 171.735863 135.878658 
C 171.735863 135.408597 171.549106 134.957726 171.216723 134.625344 
C 170.88434 134.292961 170.433469 134.106204 169.963409 134.106204 
C 169.493349 134.106204 169.042478 134.292961 168.710095 134.625344 
C 168.377712 134.957726 168.190955 135.408597 168.190955 135.878658 
C 168.190955 136.348718 168.377712 136.799589 168.710095 137.131972 
C 169.042478 137.464355 169.493349 137.651112 169.963409 137.651112 
z
" style="fill:#0077bb;stroke:#0077bb;stroke-width:0.886227;"/>
    <path clip-path="url(#pbd5e4da913)" d="M 178.079773 120.577286 
C 178.549833 120.577286 179.000704 120.390529 179.333087 120.058146 
C 179.66547 119.725764 179.852227 119.274892 179.852227 118.804832 
C 179.852227 118.334772 179.66547 117.883901 179.333087 117.551518 
C 179.000704 117.219135 178.549833 117.032378 178.079773 117.032378 
C 177.609712 117.032378 177.158841 117.219135 176.826459 117.551518 
C 176.494076 117.883901 176.307319 118.334772 176.307319 118.804832 
C 176.307319 119.274892 176.494076 119.725764 176.826459 120.058146 
C 177.158841 120.390529 177.609712 120.577286 178.079773 120.577286 
z
" style="fill:#0077bb;stroke:#0077bb;stroke-width:0.886227;"/>
    <path clip-path="url(#pbd5e4da913)" d="M 186.196136 187.26185 
C 186.666197 187.26185 187.117068 187.075093 187.449451 186.74271 
C 187.781833 186.410327 187.96859 185.959456 187.96859 185.489396 
C 187.96859 185.019336 187.781833 184.568465 187.449451 184.236082 
C 187.117068 183.903699 186.666197 183.716942 186.196136 183.716942 
C 185.726076 183.716942 185.275205 183.903699 184.942822 184.236082 
C 184.610439 184.568465 184.423683 185.019336 184.423683 185.489396 
C 184.423683 185.959456 184.610439 186.410327 184.942822 186.74271 
C 185.275205 187.075093 185.726076 187.26185 186.196136 187.26185 
z
" style="fill:#0077bb;stroke:#0077bb;stroke-width:0.886227;"/>
    <path clip-path="url(#pbd5e4da913)" d="M 194.3125 83.707487 
C 194.78256 83.707487 195.233431 83.52073 195.565814 83.188348 
C 195.898197 82.855965 196.084954 82.405094 196.084954 81.935034 
C 196.084954 81.464973 195.898197 81.014102 195.565814 80.681719 
C 195.233431 80.349337 194.78256 80.16258 194.3125 80.16258 
C 193.84244 80.16258 193.391569 80.349337 193.059186 80.681719 
C 192.726803 81.014102 192.540046 81.464973 192.540046 81.935034 
C 192.540046 82.405094 192.726803 82.855965 193.059186 83.188348 
C 193.391569 83.52073 193.84244 83.707487 194.3125 83.707487 
z
" style="fill:#0077bb;stroke:#0077bb;stroke-width:0.886227;"/>
    <path clip-path="url(#pbd5e4da913)" d="M 202.428864 125.812185 
C 202.898924 125.812185 203.349795 125.625428 203.682178 125.293046 
C 204.014561 124.960663 204.201317 124.509792 204.201317 124.039732 
C 204.201317 123.569671 204.014561 123.1188 203.682178 122.786417 
C 203.349795 122.454035 202.898924 122.267278 202.428864 122.267278 
C 201.958803 122.267278 201.507932 122.454035 201.175549 122.786417 
C 200.843167 123.1188 200.65641 123.569671 200.65641 124.039732 
C 200.65641 124.509792 200.843167 124.960663 201.175549 125.293046 
C 201.507932 125.625428 201.958803 125.812185 202.428864 125.812185 
z
" style="fill:#0077bb;stroke:#0077bb;stroke-width:0.886227;"/>
    <path clip-path="url(#pbd5e4da913)" d="M 210.545227 141.251112 
C 211.015288 141.251112 211.466159 141.064355 211.798541 140.731972 
C 212.130924 140.399589 212.317681 139.948718 212.317681 139.478658 
C 212.317681 139.008597 212.130924 138.557726 211.798541 138.225344 
C 211.466159 137.892961 211.015288 137.706204 210.545227 137.706204 
C 210.075167 137.706204 209.624296 137.892961 209.291913 138.225344 
C 208.95953 138.557726 208.772773 139.008597 208.772773 139.478658 
C 208.772773 139.948718 208.95953 140.399589 209.291913 140.731972 
C 209.624296 141.064355 210.075167 141.251112 210.545227 141.251112 
z
" style="fill:#0077bb;stroke:#0077bb;stroke-width:0.886227;"/>
    <path clip-path="url(#pbd5e4da913)" d="M 218.661591 175.93836 
C 219.131651 175.93836 219.582522 175.751603 219.914905 175.41922 
C 220.247288 175.086837 220.434045 174.635966 220.434045 174.165906 
C 220.434045 173.695846 220.247288 173.244975 219.914905 172.912592 
C 219.582522 172.580209 219.131651 172.393452 218.661591 172.393452 
C 218.191531 172.393452 217.74066 172.580209 217.408277 172.912592 
C 217.075894 173.244975 216.889137 173.695846 216.889137 174.165906 
C 216.889137 174.635966 217.075894 175.086837 217.408277 175.41922 
C 217.74066 175.751603 218.191531 175.93836 218.661591 175.93836 
z
" style="fill:#0077bb;stroke:#0077bb;stroke-width:0.886227;"/>
    <path clip-path="url(#pbd5e4da913)" d="M 226.777955 145.337018 
C 227.248015 145.337018 227.698886 145.150261 228.031269 144.817878 
C 228.363651 144.485495 228.550408 144.034624 228.550408 143.564564 
C 228.550408 143.094504 228.363651 142.643632 228.031269 142.31125 
C 227.698886 141.978867 227.248015 141.79211 226.777955 141.79211 
C 226.307894 141.79211 225.857023 141.978867 225.52464 142.31125 
C 225.192258 142.643632 225.005501 143.094504 225.005501 143.564564 
C 225.005501 144.034624 225.192258 144.485495 225.52464 144.817878 
C 225.857023 145.150261 226.307894 145.337018 226.777955 145.337018 
z
" style="fill:#0077bb;stroke:#0077bb;stroke-width:0.886227;"/>
    <path clip-path="url(#pbd5e4da913)" d="M 234.894318 126.468561 
C 235.364378 126.468561 235.81525 126.281804 236.147632 125.949422 
C 236.480015 125.617039 236.666772 125.166168 236.666772 124.696107 
C 236.666772 124.226047 236.480015 123.775176 236.147632 123.442793 
C 235.81525 123.11041 235.364378 122.923654 234.894318 122.923654 
C 234.424258 122.923654 233.973387 123.11041 233.641004 123.442793 
C 233.308621 123.775176 233.121864 124.226047 233.121864 124.696107 
C 233.121864 125.166168 233.308621 125.617039 233.641004 125.949422 
C 233.973387 126.281804 234.424258 126.468561 234.894318 126.468561 
z
" style="fill:#0077bb;stroke:#0077bb;stroke-width:0.886227;"/>
    <path clip-path="url(#pbd5e4da913)" d="M 243.010682 147.623882 
C 243.480742 147.623882 243.931613 147.437126 244.263996 147.104743 
C 244.596379 146.77236 244.783136 146.321489 244.783136 145.851429 
C 244.783136 145.381368 244.596379 144.930497 244.263996 144.598114 
C 243.931613 144.265732 243.480742 144.078975 243.010682 144.078975 
C 242.540622 144.078975 242.08975 144.265732 241.757368 144.598114 
C 241.424985 144.930497 241.238228 145.381368 241.238228 145.851429 
C 241.238228 146.321489 241.424985 146.77236 241.757368 147.104743 
C 242.08975 147.437126 242.540622 147.623882 243.010682 147.623882 
z
" style="fill:#0077bb;stroke:#0077bb;stroke-width:0.886227;"/>
    <path clip-path="url(#pbd5e4da913)" d="M 251.127045 131.22982 
C 251.597106 131.22982 252.047977 131.043063 252.38036 130.71068 
C 252.712742 130.378298 252.899499 129.927427 252.899499 129.457366 
C 252.899499 128.987306 252.712742 128.536435 252.38036 128.204052 
C 252.047977 127.871669 251.597106 127.684912 251.127045 127.684912 
C 250.656985 127.684912 250.206114 127.871669 249.873731 128.204052 
C 249.541349 128.536435 249.354592 128.987306 249.354592 129.457366 
C 249.354592 129.927427 249.541349 130.378298 249.873731 130.71068 
C 250.206114 131.043063 250.656985 131.22982 251.127045 131.22982 
z
" style="fill:#0077bb;stroke:#0077bb;stroke-width:0.886227;"/>
    <path clip-path="url(#pbd5e4da913)" d="M 259.243409 142.654755 
C 259.713469 142.654755 260.16434 142.467998 260.496723 142.135615 
C 260.829106 141.803232 261.015863 141.352361 261.015863 140.882301 
C 261.015863 140.412241 260.829106 139.96137 260.496723 139.628987 
C 260.16434 139.296604 259.713469 139.109847 259.243409 139.109847 
C 258.773349 139.109847 258.322478 139.296604 257.990095 139.628987 
C 257.657712 139.96137 257.470955 140.412241 257.470955 140.882301 
C 257.470955 141.352361 257.657712 141.803232 257.990095 142.135615 
C 258.322478 142.467998 258.773349 142.654755 259.243409 142.654755 
z
" style="fill:#0077bb;stroke:#0077bb;stroke-width:0.886227;"/>
    <path clip-path="url(#pbd5e4da913)" d="M 267.359773 122.504649 
C 267.829833 122.504649 268.280704 122.317893 268.613087 121.98551 
C 268.94547 121.653127 269.132227 121.202256 269.132227 120.732196 
C 269.132227 120.262135 268.94547 119.811264 268.613087 119.478881 
C 268.280704 119.146499 267.829833 118.959742 267.359773 118.959742 
C 266.889712 118.959742 266.438841 119.146499 266.106459 119.478881 
C 265.774076 119.811264 265.587319 120.262135 265.587319 120.732196 
C 265.587319 121.202256 265.774076 121.653127 266.106459 121.98551 
C 266.438841 122.317893 266.889712 122.504649 267.359773 122.504649 
z
" style="fill:#0077bb;stroke:#0077bb;stroke-width:0.886227;"/>
    <path clip-path="url(#pbd5e4da913)" d="M 275.476136 96.530805 
C 275.946197 96.530805 276.397068 96.344048 276.729451 96.011665 
C 277.061833 95.679282 277.24859 95.228411 277.24859 94.758351 
C 277.24859 94.288291 277.061833 93.83742 276.729451 93.505037 
C 276.397068 93.172654 275.946197 92.985897 275.476136 92.985897 
C 275.006076 92.985897 274.555205 93.172654 274.222822 93.505037 
C 273.890439 93.83742 273.703683 94.288291 273.703683 94.758351 
C 273.703683 95.228411 273.890439 95.679282 274.222822 96.011665 
C 274.555205 96.344048 275.006076 96.530805 275.476136 96.530805 
z
" style="fill:#0077bb;stroke:#0077bb;stroke-width:0.886227;"/>
    <path clip-path="url(#pbd5e4da913)" d="M 283.5925 116.584956 
C 284.06256 116.584956 284.513431 116.398199 284.845814 116.065817 
C 285.178197 115.733434 285.364954 115.282563 285.364954 114.812502 
C 285.364954 114.342442 285.178197 113.891571 284.845814 113.559188 
C 284.513431 113.226805 284.06256 113.040049 283.5925 113.040049 
C 283.12244 113.040049 282.671569 113.226805 282.339186 113.559188 
C 282.006803 113.891571 281.820046 114.342442 281.820046 114.812502 
C 281.820046 115.282563 282.006803 115.733434 282.339186 116.065817 
C 282.671569 116.398199 283.12244 116.584956 283.5925 116.584956 
z
" style="fill:#0077bb;stroke:#0077bb;stroke-width:0.886227;"/>
    <path clip-path="url(#pbd5e4da913)" d="M 291.708864 118.046516 
C 292.178924 118.046516 292.629795 117.859759 292.962178 117.527376 
C 293.294561 117.194993 293.481317 116.744122 293.481317 116.274062 
C 293.481317 115.804002 293.294561 115.353131 292.962178 115.020748 
C 292.629795 114.688365 292.178924 114.501608 291.708864 114.501608 
C 291.238803 114.501608 290.787932 114.688365 290.455549 115.020748 
C 290.123167 115.353131 289.93641 115.804002 289.93641 116.274062 
C 289.93641 116.744122 290.123167 117.194993 290.455549 117.527376 
C 290.787932 117.859759 291.238803 118.046516 291.708864 118.046516 
z
" style="fill:#0077bb;stroke:#0077bb;stroke-width:0.886227;"/>
    <path clip-path="url(#pbd5e4da913)" d="M 299.825227 112.082393 
C 300.295288 112.082393 300.746159 111.895636 301.078541 111.563253 
C 301.410924 111.23087 301.597681 110.779999 301.597681 110.309939 
C 301.597681 109.839878 301.410924 109.389007 301.078541 109.056625 
C 300.746159 108.724242 300.295288 108.537485 299.825227 108.537485 
C 299.355167 108.537485 298.904296 108.724242 298.571913 109.056625 
C 298.23953 109.389007 298.052773 109.839878 298.052773 110.309939 
C 298.052773 110.779999 298.23953 111.23087 298.571913 111.563253 
C 298.904296 111.895636 299.355167 112.082393 299.825227 112.082393 
z
" style="fill:#0077bb;stroke:#0077bb;stroke-width:0.886227;"/>
    <path clip-path="url(#pbd5e4da913)" d="M 307.941591 113.718384 
C 308.411651 113.718384 308.862522 113.531627 309.194905 113.199244 
C 309.527288 112.866861 309.714045 112.41599 309.714045 111.94593 
C 309.714045 111.475869 309.527288 111.024998 309.194905 110.692616 
C 308.862522 110.360233 308.411651 110.173476 307.941591 110.173476 
C 307.471531 110.173476 307.02066 110.360233 306.688277 110.692616 
C 306.355894 111.024998 306.169137 111.475869 306.169137 111.94593 
C 306.169137 112.41599 306.355894 112.866861 306.688277 113.199244 
C 307.02066 113.531627 307.471531 113.718384 307.941591 113.718384 
z
" style="fill:#0077bb;stroke:#0077bb;stroke-width:0.886227;"/>
    <path clip-path="url(#pbd5e4da913)" d="M 316.057955 124.688897 
C 316.528015 124.688897 316.978886 124.50214 317.311269 124.169757 
C 317.643651 123.837374 317.830408 123.386503 317.830408 122.916443 
C 317.830408 122.446383 317.643651 121.995512 317.311269 121.663129 
C 316.978886 121.330746 316.528015 121.143989 316.057955 121.143989 
C 315.587894 121.143989 315.137023 121.330746 314.80464 121.663129 
C 314.472258 121.995512 314.285501 122.446383 314.285501 122.916443 
C 314.285501 123.386503 314.472258 123.837374 314.80464 124.169757 
C 315.137023 124.50214 315.587894 124.688897 316.057955 124.688897 
z
" style="fill:#0077bb;stroke:#0077bb;stroke-width:0.886227;"/>
    <path clip-path="url(#pbd5e4da913)" d="M 324.174318 139.362301 
C 324.644378 139.362301 325.09525 139.175544 325.427632 138.843162 
C 325.760015 138.510779 325.946772 138.059908 325.946772 137.589847 
C 325.946772 137.119787 325.760015 136.668916 325.427632 136.336533 
C 325.09525 136.004151 324.644378 135.817394 324.174318 135.817394 
C 323.704258 135.817394 323.253387 136.004151 322.921004 136.336533 
C 322.588621 136.668916 322.401864 137.119787 322.401864 137.589847 
C 322.401864 138.059908 322.588621 138.510779 322.921004 138.843162 
C 323.253387 139.175544 323.704258 139.362301 324.174318 139.362301 
z
" style="fill:#0077bb;stroke:#0077bb;stroke-width:0.886227;"/>
    <path clip-path="url(#pbd5e4da913)" d="M 332.290682 119.902335 
C 332.760742 119.902335 333.211613 119.715578 333.543996 119.383195 
C 333.876379 119.050812 334.063136 118.599941 334.063136 118.129881 
C 334.063136 117.659821 333.876379 117.20895 333.543996 116.876567 
C 333.211613 116.544184 332.760742 116.357427 332.290682 116.357427 
C 331.820622 116.357427 331.36975 116.544184 331.037368 116.876567 
C 330.704985 117.20895 330.518228 117.659821 330.518228 118.129881 
C 330.518228 118.599941 330.704985 119.050812 331.037368 119.383195 
C 331.36975 119.715578 331.820622 119.902335 332.290682 119.902335 
z
" style="fill:#0077bb;stroke:#0077bb;stroke-width:0.886227;"/>
    <path clip-path="url(#pbd5e4da913)" d="M 340.407045 116.396767 
C 340.877106 116.396767 341.327977 116.21001 341.66036 115.877628 
C 341.992742 115.545245 342.179499 115.094374 342.179499 114.624313 
C 342.179499 114.154253 341.992742 113.703382 341.66036 113.370999 
C 341.327977 113.038617 340.877106 112.85186 340.407045 112.85186 
C 339.936985 112.85186 339.486114 113.038617 339.153731 113.370999 
C 338.821349 113.703382 338.634592 114.154253 338.634592 114.624313 
C 338.634592 115.094374 338.821349 115.545245 339.153731 115.877628 
C 339.486114 116.21001 339.936985 116.396767 340.407045 116.396767 
z
" style="fill:#0077bb;stroke:#0077bb;stroke-width:0.886227;"/>
    <path clip-path="url(#pbd5e4da913)" d="M 348.523409 120.054907 
C 348.993469 120.054907 349.44434 119.86815 349.776723 119.535767 
C 350.109106 119.203384 350.295863 118.752513 350.295863 118.282453 
C 350.295863 117.812393 350.109106 117.361522 349.776723 117.029139 
C 349.44434 116.696756 348.993469 116.509999 348.523409 116.509999 
C 348.053349 116.509999 347.602478 116.696756 347.270095 117.029139 
C 346.937712 117.361522 346.750955 117.812393 346.750955 118.282453 
C 346.750955 118.752513 346.937712 119.203384 347.270095 119.535767 
C 347.602478 119.86815 348.053349 120.054907 348.523409 120.054907 
z
" style="fill:#0077bb;stroke:#0077bb;stroke-width:0.886227;"/>
    <path clip-path="url(#pbd5e4da913)" d="M 356.639773 120.011344 
C 357.109833 120.011344 357.560704 119.824587 357.893087 119.492204 
C 358.22547 119.159821 358.412227 118.70895 358.412227 118.23889 
C 358.412227 117.76883 358.22547 117.317958 357.893087 116.985576 
C 357.560704 116.653193 357.109833 116.466436 356.639773 116.466436 
C 356.169712 116.466436 355.718841 116.653193 355.386459 116.985576 
C 355.054076 117.317958 354.867319 117.76883 354.867319 118.23889 
C 354.867319 118.70895 355.054076 119.159821 355.386459 119.492204 
C 355.718841 119.824587 356.169712 120.011344 356.639773 120.011344 
z
" style="fill:#0077bb;stroke:#0077bb;stroke-width:0.886227;"/>
    <path clip-path="url(#pbd5e4da913)" d="M 364.756136 140.708776 
C 365.226197 140.708776 365.677068 140.522019 366.009451 140.189636 
C 366.341833 139.857253 366.52859 139.406382 366.52859 138.936322 
C 366.52859 138.466262 366.341833 138.015391 366.009451 137.683008 
C 365.677068 137.350625 365.226197 137.163868 364.756136 137.163868 
C 364.286076 137.163868 363.835205 137.350625 363.502822 137.683008 
C 363.170439 138.015391 362.983683 138.466262 362.983683 138.936322 
C 362.983683 139.406382 363.170439 139.857253 363.502822 140.189636 
C 363.835205 140.522019 364.286076 140.708776 364.756136 140.708776 
z
" style="fill:#0077bb;stroke:#0077bb;stroke-width:0.886227;"/>
    <path clip-path="url(#pbd5e4da913)" d="M 372.8725 138.928058 
C 373.34256 138.928058 373.793431 138.741301 374.125814 138.408919 
C 374.458197 138.076536 374.644954 137.625665 374.644954 137.155604 
C 374.644954 136.685544 374.458197 136.234673 374.125814 135.90229 
C 373.793431 135.569907 373.34256 135.383151 372.8725 135.383151 
C 372.40244 135.383151 371.951569 135.569907 371.619186 135.90229 
C 371.286803 136.234673 371.100046 136.685544 371.100046 137.155604 
C 371.100046 137.625665 371.286803 138.076536 371.619186 138.408919 
C 371.951569 138.741301 372.40244 138.928058 372.8725 138.928058 
z
" style="fill:#0077bb;stroke:#0077bb;stroke-width:0.886227;"/>
    <path clip-path="url(#pbd5e4da913)" d="M 380.988864 115.154316 
C 381.458924 115.154316 381.909795 114.967559 382.242178 114.635176 
C 382.574561 114.302794 382.761317 113.851922 382.761317 113.381862 
C 382.761317 112.911802 382.574561 112.460931 382.242178 112.128548 
C 381.909795 111.796165 381.458924 111.609408 380.988864 111.609408 
C 380.518803 111.609408 380.067932 111.796165 379.735549 112.128548 
C 379.403167 112.460931 379.21641 112.911802 379.21641 113.381862 
C 379.21641 113.851922 379.403167 114.302794 379.735549 114.635176 
C 380.067932 114.967559 380.518803 115.154316 380.988864 115.154316 
z
" style="fill:#0077bb;stroke:#0077bb;stroke-width:0.886227;"/>
    <path clip-path="url(#pbd5e4da913)" d="M 389.105227 124.372663 
C 389.575288 124.372663 390.026159 124.185906 390.358541 123.853523 
C 390.690924 123.52114 390.877681 123.070269 390.877681 122.600209 
C 390.877681 122.130149 390.690924 121.679277 390.358541 121.346895 
C 390.026159 121.014512 389.575288 120.827755 389.105227 120.827755 
C 388.635167 120.827755 388.184296 121.014512 387.851913 121.346895 
C 387.51953 121.679277 387.332773 122.130149 387.332773 122.600209 
C 387.332773 123.070269 387.51953 123.52114 387.851913 123.853523 
C 388.184296 124.185906 388.635167 124.372663 389.105227 124.372663 
z
" style="fill:#0077bb;stroke:#0077bb;stroke-width:0.886227;"/>
    <path clip-path="url(#pbd5e4da913)" d="M 397.221591 129.217286 
C 397.691651 129.217286 398.142522 129.030529 398.474905 128.698146 
C 398.807288 128.365764 398.994045 127.914892 398.994045 127.444832 
C 398.994045 126.974772 398.807288 126.523901 398.474905 126.191518 
C 398.142522 125.859135 397.691651 125.672378 397.221591 125.672378 
C 396.751531 125.672378 396.30066 125.859135 395.968277 126.191518 
C 395.635894 126.523901 395.449137 126.974772 395.449137 127.444832 
C 395.449137 127.914892 395.635894 128.365764 395.968277 128.698146 
C 396.30066 129.030529 396.751531 129.217286 397.221591 129.217286 
z
" style="fill:#0077bb;stroke:#0077bb;stroke-width:0.886227;"/>
    <path clip-path="url(#pbd5e4da913)" d="M 405.337955 109.819478 
C 405.808015 109.819478 406.258886 109.632721 406.591269 109.300338 
C 406.923651 108.967955 407.110408 108.517084 407.110408 108.047024 
C 407.110408 107.576964 406.923651 107.126093 406.591269 106.79371 
C 406.258886 106.461327 405.808015 106.27457 405.337955 106.27457 
C 404.867894 106.27457 404.417023 106.461327 404.08464 106.79371 
C 403.752258 107.126093 403.565501 107.576964 403.565501 108.047024 
C 403.565501 108.517084 403.752258 108.967955 404.08464 109.300338 
C 404.417023 109.632721 404.867894 109.819478 405.337955 109.819478 
z
" style="fill:#0077bb;stroke:#0077bb;stroke-width:0.886227;"/>
    <path clip-path="url(#pbd5e4da913)" d="M 413.454318 112.798091 
C 413.924378 112.798091 414.37525 112.611335 414.707632 112.278952 
C 415.040015 111.946569 415.226772 111.495698 415.226772 111.025638 
C 415.226772 110.555577 415.040015 110.104706 414.707632 109.772323 
C 414.37525 109.439941 413.924378 109.253184 413.454318 109.253184 
C 412.984258 109.253184 412.533387 109.439941 412.201004 109.772323 
C 411.868621 110.104706 411.681864 110.555577 411.681864 111.025638 
C 411.681864 111.495698 411.868621 111.946569 412.201004 112.278952 
C 412.533387 112.611335 412.984258 112.798091 413.454318 112.798091 
z
" style="fill:#0077bb;stroke:#0077bb;stroke-width:0.886227;"/>
    <path clip-path="url(#pbd5e4da913)" d="M 421.570682 118.165825 
C 422.040742 118.165825 422.491613 117.979068 422.823996 117.646685 
C 423.156379 117.314303 423.343136 116.863431 423.343136 116.393371 
C 423.343136 115.923311 423.156379 115.47244 422.823996 115.140057 
C 422.491613 114.807674 422.040742 114.620917 421.570682 114.620917 
C 421.100622 114.620917 420.64975 114.807674 420.317368 115.140057 
C 419.984985 115.47244 419.798228 115.923311 419.798228 116.393371 
C 419.798228 116.863431 419.984985 117.314303 420.317368 117.646685 
C 420.64975 117.979068 421.100622 118.165825 421.570682 118.165825 
z
" style="fill:#0077bb;stroke:#0077bb;stroke-width:0.886227;"/>
    <path clip-path="url(#pbd5e4da913)" d="M 429.687045 106.982655 
C 430.157106 106.982655 430.607977 106.795898 430.94036 106.463515 
C 431.272742 106.131133 431.459499 105.680262 431.459499 105.210201 
C 431.459499 104.740141 431.272742 104.28927 430.94036 103.956887 
C 430.607977 103.624504 430.157106 103.437747 429.687045 103.437747 
C 429.216985 103.437747 428.766114 103.624504 428.433731 103.956887 
C 428.101349 104.28927 427.914592 104.740141 427.914592 105.210201 
C 427.914592 105.680262 428.101349 106.131133 428.433731 106.463515 
C 428.766114 106.795898 429.216985 106.982655 429.687045 106.982655 
z
" style="fill:#0077bb;stroke:#0077bb;stroke-width:0.886227;"/>
    <path clip-path="url(#pbd5e4da913)" d="M 437.803409 97.888528 
C 438.273469 97.888528 438.72434 97.701771 439.056723 97.369388 
C 439.389106 97.037005 439.575863 96.586134 439.575863 96.116074 
C 439.575863 95.646014 439.389106 95.195142 439.056723 94.86276 
C 438.72434 94.530377 438.273469 94.34362 437.803409 94.34362 
C 437.333349 94.34362 436.882478 94.530377 436.550095 94.86276 
C 436.217712 95.195142 436.030955 95.646014 436.030955 96.116074 
C 436.030955 96.586134 436.217712 97.037005 436.550095 97.369388 
C 436.882478 97.701771 437.333349 97.888528 437.803409 97.888528 
z
" style="fill:#0077bb;stroke:#0077bb;stroke-width:0.886227;"/>
    <path clip-path="url(#pbd5e4da913)" d="M 445.919773 126.992051 
C 446.389833 126.992051 446.840704 126.805294 447.173087 126.472911 
C 447.50547 126.140529 447.692227 125.689658 447.692227 125.219597 
C 447.692227 124.749537 447.50547 124.298666 447.173087 123.966283 
C 446.840704 123.6339 446.389833 123.447143 445.919773 123.447143 
C 445.449712 123.447143 444.998841 123.6339 444.666459 123.966283 
C 444.334076 124.298666 444.147319 124.749537 444.147319 125.219597 
C 444.147319 125.689658 444.334076 126.140529 444.666459 126.472911 
C 444.998841 126.805294 445.449712 126.992051 445.919773 126.992051 
z
" style="fill:#0077bb;stroke:#0077bb;stroke-width:0.886227;"/>
    <path clip-path="url(#pbd5e4da913)" d="M 454.036136 104.114636 
C 454.506197 104.114636 454.957068 103.927879 455.289451 103.595496 
C 455.621833 103.263114 455.80859 102.812243 455.80859 102.342182 
C 455.80859 101.872122 455.621833 101.421251 455.289451 101.088868 
C 454.957068 100.756485 454.506197 100.569728 454.036136 100.569728 
C 453.566076 100.569728 453.115205 100.756485 452.782822 101.088868 
C 452.450439 101.421251 452.263683 101.872122 452.263683 102.342182 
C 452.263683 102.812243 452.450439 103.263114 452.782822 103.595496 
C 453.115205 103.927879 453.566076 104.114636 454.036136 104.114636 
z
" style="fill:#0077bb;stroke:#0077bb;stroke-width:0.886227;"/>
    <path clip-path="url(#pbd5e4da913)" d="M 462.1525 100.154392 
C 462.62256 100.154392 463.073431 99.967635 463.405814 99.635252 
C 463.738197 99.302869 463.924954 98.851998 463.924954 98.381938 
C 463.924954 97.911878 463.738197 97.461007 463.405814 97.128624 
C 463.073431 96.796241 462.62256 96.609484 462.1525 96.609484 
C 461.68244 96.609484 461.231569 96.796241 460.899186 97.128624 
C 460.566803 97.461007 460.380046 97.911878 460.380046 98.381938 
C 460.380046 98.851998 460.566803 99.302869 460.899186 99.635252 
C 461.231569 99.967635 461.68244 100.154392 462.1525 100.154392 
z
" style="fill:#0077bb;stroke:#0077bb;stroke-width:0.886227;"/>
    <path clip-path="url(#pbd5e4da913)" d="M 470.268864 115.711648 
C 470.738924 115.711648 471.189795 115.524892 471.522178 115.192509 
C 471.854561 114.860126 472.041317 114.409255 472.041317 113.939195 
C 472.041317 113.469134 471.854561 113.018263 471.522178 112.68588 
C 471.189795 112.353498 470.738924 112.166741 470.268864 112.166741 
C 469.798803 112.166741 469.347932 112.353498 469.015549 112.68588 
C 468.683167 113.018263 468.49641 113.469134 468.49641 113.939195 
C 468.49641 114.409255 468.683167 114.860126 469.015549 115.192509 
C 469.347932 115.524892 469.798803 115.711648 470.268864 115.711648 
z
" style="fill:#0077bb;stroke:#0077bb;stroke-width:0.886227;"/>
    <path clip-path="url(#pbd5e4da913)" d="M 478.385227 131.248427 
C 478.855288 131.248427 479.306159 131.06167 479.638541 130.729287 
C 479.970924 130.396904 480.157681 129.946033 480.157681 129.475973 
C 480.157681 129.005913 479.970924 128.555042 479.638541 128.222659 
C 479.306159 127.890276 478.855288 127.703519 478.385227 127.703519 
C 477.915167 127.703519 477.464296 127.890276 477.131913 128.222659 
C 476.79953 128.555042 476.612773 129.005913 476.612773 129.475973 
C 476.612773 129.946033 476.79953 130.396904 477.131913 130.729287 
C 477.464296 131.06167 477.915167 131.248427 478.385227 131.248427 
z
" style="fill:#0077bb;stroke:#0077bb;stroke-width:0.886227;"/>
   </g>
  </g>
 </g>
 <defs>
  <clipPath id="pbd5e4da913">
   <rect height="221.76" width="446.4" x="60.3925" y="7.2"/>
  </clipPath>
 </defs>
</svg>
