<?xml version="1.0" encoding="utf-8" standalone="no"?>
<!DOCTYPE svg PUBLIC "-//W3C//DTD SVG 1.1//EN"
  "http://www.w3.org/Graphics/SVG/1.1/DTD/svg11.dtd">
<!-- Created with matplotlib (https://matplotlib.org/) -->
<svg height="265.688469pt" version="1.1" viewBox="0 0 498.167 265.688469" width="498.167pt" xmlns="http://www.w3.org/2000/svg" xmlns:xlink="http://www.w3.org/1999/xlink">
 <defs>
  <style type="text/css">
*{stroke-linecap:butt;stroke-linejoin:round;}
  </style>
 </defs>
 <g id="figure_1">
  <g id="patch_1">
   <path d="M 0 265.688469 
L 498.167 265.688469 
L 498.167 0 
L 0 0 
z
" style="fill:#ffffff;stroke:#ffffff;stroke-linejoin:miter;"/>
  </g>
  <g id="axes_1">
   <g id="patch_2">
    <path d="M 44.567 228.96 
L 490.967 228.96 
L 490.967 7.2 
L 44.567 7.2 
z
" style="fill:#ffffff;"/>
   </g>
   <g id="matplotlib.axis_1">
    <g id="xtick_1">
     <g id="line2d_1">
      <path d="M 65.532026 228.96 
" style="fill:none;stroke:#000000;stroke-width:1.5;"/>
      <defs>
       <path d="M 0 0 
L 0 2.75 
" id="m3fb0e74517" style="stroke:#000000;"/>
      </defs>
      <g>
       <use style="stroke:#000000;" x="65.532026" xlink:href="#m3fb0e74517" y="228.96"/>
      </g>
     </g>
     <g id="text_1">
      <!-- 1 -->
      <defs>
       <path d="M 12.40625 8.296875 
L 28.515625 8.296875 
L 28.515625 63.921875 
L 10.984375 60.40625 
L 10.984375 69.390625 
L 28.421875 72.90625 
L 38.28125 72.90625 
L 38.28125 8.296875 
L 54.390625 8.296875 
L 54.390625 0 
L 12.40625 0 
z
" id="DejaVuSans-49"/>
      </defs>
      <g transform="translate(62.732526 240.596625)scale(0.088 -0.088)">
       <use xlink:href="#DejaVuSans-49"/>
      </g>
     </g>
    </g>
    <g id="xtick_2">
     <g id="line2d_2">
      <path d="M 200.355342 228.96 
" style="fill:none;stroke:#000000;stroke-width:1.5;"/>
      <g>
       <use style="stroke:#000000;" x="200.355342" xlink:href="#m3fb0e74517" y="228.96"/>
      </g>
     </g>
     <g id="text_2">
      <!-- 2 -->
      <defs>
       <path d="M 19.1875 8.296875 
L 53.609375 8.296875 
L 53.609375 0 
L 7.328125 0 
L 7.328125 8.296875 
Q 12.9375 14.109375 22.625 23.890625 
Q 32.328125 33.6875 34.8125 36.53125 
Q 39.546875 41.84375 41.421875 45.53125 
Q 43.3125 49.21875 43.3125 52.78125 
Q 43.3125 58.59375 39.234375 62.25 
Q 35.15625 65.921875 28.609375 65.921875 
Q 23.96875 65.921875 18.8125 64.3125 
Q 13.671875 62.703125 7.8125 59.421875 
L 7.8125 69.390625 
Q 13.765625 71.78125 18.9375 73 
Q 24.125 74.21875 28.421875 74.21875 
Q 39.75 74.21875 46.484375 68.546875 
Q 53.21875 62.890625 53.21875 53.421875 
Q 53.21875 48.921875 51.53125 44.890625 
Q 49.859375 40.875 45.40625 35.40625 
Q 44.1875 33.984375 37.640625 27.21875 
Q 31.109375 20.453125 19.1875 8.296875 
z
" id="DejaVuSans-50"/>
      </defs>
      <g transform="translate(197.555842 240.596625)scale(0.088 -0.088)">
       <use xlink:href="#DejaVuSans-50"/>
      </g>
     </g>
    </g>
    <g id="xtick_3">
     <g id="line2d_3">
      <path d="M 335.178658 228.96 
" style="fill:none;stroke:#000000;stroke-width:1.5;"/>
      <g>
       <use style="stroke:#000000;" x="335.178658" xlink:href="#m3fb0e74517" y="228.96"/>
      </g>
     </g>
     <g id="text_3">
      <!-- 3 -->
      <defs>
       <path d="M 40.578125 39.3125 
Q 47.65625 37.796875 51.625 33 
Q 55.609375 28.21875 55.609375 21.1875 
Q 55.609375 10.40625 48.1875 4.484375 
Q 40.765625 -1.421875 27.09375 -1.421875 
Q 22.515625 -1.421875 17.65625 -0.515625 
Q 12.796875 0.390625 7.625 2.203125 
L 7.625 11.71875 
Q 11.71875 9.328125 16.59375 8.109375 
Q 21.484375 6.890625 26.8125 6.890625 
Q 36.078125 6.890625 40.9375 10.546875 
Q 45.796875 14.203125 45.796875 21.1875 
Q 45.796875 27.640625 41.28125 31.265625 
Q 36.765625 34.90625 28.71875 34.90625 
L 20.21875 34.90625 
L 20.21875 43.015625 
L 29.109375 43.015625 
Q 36.375 43.015625 40.234375 45.921875 
Q 44.09375 48.828125 44.09375 54.296875 
Q 44.09375 59.90625 40.109375 62.90625 
Q 36.140625 65.921875 28.71875 65.921875 
Q 24.65625 65.921875 20.015625 65.03125 
Q 15.375 64.15625 9.8125 62.3125 
L 9.8125 71.09375 
Q 15.4375 72.65625 20.34375 73.4375 
Q 25.25 74.21875 29.59375 74.21875 
Q 40.828125 74.21875 47.359375 69.109375 
Q 53.90625 64.015625 53.90625 55.328125 
Q 53.90625 49.265625 50.4375 45.09375 
Q 46.96875 40.921875 40.578125 39.3125 
z
" id="DejaVuSans-51"/>
      </defs>
      <g transform="translate(332.379158 240.596625)scale(0.088 -0.088)">
       <use xlink:href="#DejaVuSans-51"/>
      </g>
     </g>
    </g>
    <g id="xtick_4">
     <g id="line2d_4">
      <path d="M 470.001974 228.96 
" style="fill:none;stroke:#000000;stroke-width:1.5;"/>
      <g>
       <use style="stroke:#000000;" x="470.001974" xlink:href="#m3fb0e74517" y="228.96"/>
      </g>
     </g>
     <g id="text_4">
      <!-- 4 -->
      <defs>
       <path d="M 37.796875 64.3125 
L 12.890625 25.390625 
L 37.796875 25.390625 
z
M 35.203125 72.90625 
L 47.609375 72.90625 
L 47.609375 25.390625 
L 58.015625 25.390625 
L 58.015625 17.1875 
L 47.609375 17.1875 
L 47.609375 0 
L 37.796875 0 
L 37.796875 17.1875 
L 4.890625 17.1875 
L 4.890625 26.703125 
z
" id="DejaVuSans-52"/>
      </defs>
      <g transform="translate(467.202474 240.596625)scale(0.088 -0.088)">
       <use xlink:href="#DejaVuSans-52"/>
      </g>
     </g>
    </g>
    <g id="xtick_5">
     <g id="line2d_5">
      <path d="M 132.943684 228.96 
" style="fill:none;stroke:#000000;stroke-width:1.5;"/>
      <defs>
       <path d="M 0 0 
L 0 1.375 
" id="m6d16725f48" style="stroke:#000000;"/>
      </defs>
      <g>
       <use style="stroke:#000000;" x="132.943684" xlink:href="#m6d16725f48" y="228.96"/>
      </g>
     </g>
    </g>
    <g id="xtick_6">
     <g id="line2d_6">
      <path d="M 267.767 228.96 
" style="fill:none;stroke:#000000;stroke-width:1.5;"/>
      <g>
       <use style="stroke:#000000;" x="267.767" xlink:href="#m6d16725f48" y="228.96"/>
      </g>
     </g>
    </g>
    <g id="xtick_7">
     <g id="line2d_7">
      <path d="M 402.590316 228.96 
" style="fill:none;stroke:#000000;stroke-width:1.5;"/>
      <g>
       <use style="stroke:#000000;" x="402.590316" xlink:href="#m6d16725f48" y="228.96"/>
      </g>
     </g>
    </g>
    <g id="text_5">
     <!-- Resolution [Å] -->
     <defs>
      <path d="M 44.390625 34.1875 
Q 47.5625 33.109375 50.5625 29.59375 
Q 53.5625 26.078125 56.59375 19.921875 
L 66.609375 0 
L 56 0 
L 46.6875 18.703125 
Q 43.0625 26.03125 39.671875 28.421875 
Q 36.28125 30.8125 30.421875 30.8125 
L 19.671875 30.8125 
L 19.671875 0 
L 9.8125 0 
L 9.8125 72.90625 
L 32.078125 72.90625 
Q 44.578125 72.90625 50.734375 67.671875 
Q 56.890625 62.453125 56.890625 51.90625 
Q 56.890625 45.015625 53.6875 40.46875 
Q 50.484375 35.9375 44.390625 34.1875 
z
M 19.671875 64.796875 
L 19.671875 38.921875 
L 32.078125 38.921875 
Q 39.203125 38.921875 42.84375 42.21875 
Q 46.484375 45.515625 46.484375 51.90625 
Q 46.484375 58.296875 42.84375 61.546875 
Q 39.203125 64.796875 32.078125 64.796875 
z
" id="DejaVuSans-82"/>
      <path d="M 56.203125 29.59375 
L 56.203125 25.203125 
L 14.890625 25.203125 
Q 15.484375 15.921875 20.484375 11.0625 
Q 25.484375 6.203125 34.421875 6.203125 
Q 39.59375 6.203125 44.453125 7.46875 
Q 49.3125 8.734375 54.109375 11.28125 
L 54.109375 2.78125 
Q 49.265625 0.734375 44.1875 -0.34375 
Q 39.109375 -1.421875 33.890625 -1.421875 
Q 20.796875 -1.421875 13.15625 6.1875 
Q 5.515625 13.8125 5.515625 26.8125 
Q 5.515625 40.234375 12.765625 48.109375 
Q 20.015625 56 32.328125 56 
Q 43.359375 56 49.78125 48.890625 
Q 56.203125 41.796875 56.203125 29.59375 
z
M 47.21875 32.234375 
Q 47.125 39.59375 43.09375 43.984375 
Q 39.0625 48.390625 32.421875 48.390625 
Q 24.90625 48.390625 20.390625 44.140625 
Q 15.875 39.890625 15.1875 32.171875 
z
" id="DejaVuSans-101"/>
      <path d="M 44.28125 53.078125 
L 44.28125 44.578125 
Q 40.484375 46.53125 36.375 47.5 
Q 32.28125 48.484375 27.875 48.484375 
Q 21.1875 48.484375 17.84375 46.4375 
Q 14.5 44.390625 14.5 40.28125 
Q 14.5 37.15625 16.890625 35.375 
Q 19.28125 33.59375 26.515625 31.984375 
L 29.59375 31.296875 
Q 39.15625 29.25 43.1875 25.515625 
Q 47.21875 21.78125 47.21875 15.09375 
Q 47.21875 7.46875 41.1875 3.015625 
Q 35.15625 -1.421875 24.609375 -1.421875 
Q 20.21875 -1.421875 15.453125 -0.5625 
Q 10.6875 0.296875 5.421875 2 
L 5.421875 11.28125 
Q 10.40625 8.6875 15.234375 7.390625 
Q 20.0625 6.109375 24.8125 6.109375 
Q 31.15625 6.109375 34.5625 8.28125 
Q 37.984375 10.453125 37.984375 14.40625 
Q 37.984375 18.0625 35.515625 20.015625 
Q 33.0625 21.96875 24.703125 23.78125 
L 21.578125 24.515625 
Q 13.234375 26.265625 9.515625 29.90625 
Q 5.8125 33.546875 5.8125 39.890625 
Q 5.8125 47.609375 11.28125 51.796875 
Q 16.75 56 26.8125 56 
Q 31.78125 56 36.171875 55.265625 
Q 40.578125 54.546875 44.28125 53.078125 
z
" id="DejaVuSans-115"/>
      <path d="M 30.609375 48.390625 
Q 23.390625 48.390625 19.1875 42.75 
Q 14.984375 37.109375 14.984375 27.296875 
Q 14.984375 17.484375 19.15625 11.84375 
Q 23.34375 6.203125 30.609375 6.203125 
Q 37.796875 6.203125 41.984375 11.859375 
Q 46.1875 17.53125 46.1875 27.296875 
Q 46.1875 37.015625 41.984375 42.703125 
Q 37.796875 48.390625 30.609375 48.390625 
z
M 30.609375 56 
Q 42.328125 56 49.015625 48.375 
Q 55.71875 40.765625 55.71875 27.296875 
Q 55.71875 13.875 49.015625 6.21875 
Q 42.328125 -1.421875 30.609375 -1.421875 
Q 18.84375 -1.421875 12.171875 6.21875 
Q 5.515625 13.875 5.515625 27.296875 
Q 5.515625 40.765625 12.171875 48.375 
Q 18.84375 56 30.609375 56 
z
" id="DejaVuSans-111"/>
      <path d="M 9.421875 75.984375 
L 18.40625 75.984375 
L 18.40625 0 
L 9.421875 0 
z
" id="DejaVuSans-108"/>
      <path d="M 8.5 21.578125 
L 8.5 54.6875 
L 17.484375 54.6875 
L 17.484375 21.921875 
Q 17.484375 14.15625 20.5 10.265625 
Q 23.53125 6.390625 29.59375 6.390625 
Q 36.859375 6.390625 41.078125 11.03125 
Q 45.3125 15.671875 45.3125 23.6875 
L 45.3125 54.6875 
L 54.296875 54.6875 
L 54.296875 0 
L 45.3125 0 
L 45.3125 8.40625 
Q 42.046875 3.421875 37.71875 1 
Q 33.40625 -1.421875 27.6875 -1.421875 
Q 18.265625 -1.421875 13.375 4.4375 
Q 8.5 10.296875 8.5 21.578125 
z
M 31.109375 56 
z
" id="DejaVuSans-117"/>
      <path d="M 18.3125 70.21875 
L 18.3125 54.6875 
L 36.8125 54.6875 
L 36.8125 47.703125 
L 18.3125 47.703125 
L 18.3125 18.015625 
Q 18.3125 11.328125 20.140625 9.421875 
Q 21.96875 7.515625 27.59375 7.515625 
L 36.8125 7.515625 
L 36.8125 0 
L 27.59375 0 
Q 17.1875 0 13.234375 3.875 
Q 9.28125 7.765625 9.28125 18.015625 
L 9.28125 47.703125 
L 2.6875 47.703125 
L 2.6875 54.6875 
L 9.28125 54.6875 
L 9.28125 70.21875 
z
" id="DejaVuSans-116"/>
      <path d="M 9.421875 54.6875 
L 18.40625 54.6875 
L 18.40625 0 
L 9.421875 0 
z
M 9.421875 75.984375 
L 18.40625 75.984375 
L 18.40625 64.59375 
L 9.421875 64.59375 
z
" id="DejaVuSans-105"/>
      <path d="M 54.890625 33.015625 
L 54.890625 0 
L 45.90625 0 
L 45.90625 32.71875 
Q 45.90625 40.484375 42.875 44.328125 
Q 39.84375 48.1875 33.796875 48.1875 
Q 26.515625 48.1875 22.3125 43.546875 
Q 18.109375 38.921875 18.109375 30.90625 
L 18.109375 0 
L 9.078125 0 
L 9.078125 54.6875 
L 18.109375 54.6875 
L 18.109375 46.1875 
Q 21.34375 51.125 25.703125 53.5625 
Q 30.078125 56 35.796875 56 
Q 45.21875 56 50.046875 50.171875 
Q 54.890625 44.34375 54.890625 33.015625 
z
" id="DejaVuSans-110"/>
      <path id="DejaVuSans-32"/>
      <path d="M 8.59375 75.984375 
L 29.296875 75.984375 
L 29.296875 69 
L 17.578125 69 
L 17.578125 -6.203125 
L 29.296875 -6.203125 
L 29.296875 -13.1875 
L 8.59375 -13.1875 
z
" id="DejaVuSans-91"/>
      <path d="M 41.609375 79.390625 
Q 41.609375 82.46875 39.421875 84.640625 
Q 37.25 86.8125 34.1875 86.8125 
Q 31.0625 86.8125 28.9375 84.6875 
Q 26.8125 82.5625 26.8125 79.390625 
Q 26.8125 76.3125 28.953125 74.15625 
Q 31.109375 72.015625 34.1875 72.015625 
Q 37.25 72.015625 39.421875 74.15625 
Q 41.609375 76.3125 41.609375 79.390625 
z
M 34.1875 63.1875 
L 20.90625 26.90625 
L 47.515625 26.90625 
z
M 26.8125 68.21875 
Q 23.828125 70.21875 22.3125 73.015625 
Q 20.796875 75.828125 20.796875 79.390625 
Q 20.796875 85.015625 24.671875 88.921875 
Q 28.5625 92.828125 34.1875 92.828125 
Q 39.75 92.828125 43.671875 88.890625 
Q 47.609375 84.96875 47.609375 79.390625 
Q 47.609375 75.984375 46.0625 73.09375 
Q 44.53125 70.21875 41.609375 68.21875 
L 67.578125 0 
L 57.328125 0 
L 50.6875 18.703125 
L 17.828125 18.703125 
L 11.1875 0 
L 0.78125 0 
z
" id="DejaVuSans-197"/>
      <path d="M 30.421875 75.984375 
L 30.421875 -13.1875 
L 9.71875 -13.1875 
L 9.71875 -6.203125 
L 21.390625 -6.203125 
L 21.390625 69 
L 9.71875 69 
L 9.71875 75.984375 
z
" id="DejaVuSans-93"/>
     </defs>
     <g transform="translate(221.783406 256.200812)scale(0.11 -0.11)">
      <use xlink:href="#DejaVuSans-82"/>
      <use x="69.419922" xlink:href="#DejaVuSans-101"/>
      <use x="130.943359" xlink:href="#DejaVuSans-115"/>
      <use x="183.042969" xlink:href="#DejaVuSans-111"/>
      <use x="244.224609" xlink:href="#DejaVuSans-108"/>
      <use x="272.007812" xlink:href="#DejaVuSans-117"/>
      <use x="335.386719" xlink:href="#DejaVuSans-116"/>
      <use x="374.595703" xlink:href="#DejaVuSans-105"/>
      <use x="402.378906" xlink:href="#DejaVuSans-111"/>
      <use x="463.560547" xlink:href="#DejaVuSans-110"/>
      <use x="526.939453" xlink:href="#DejaVuSans-32"/>
      <use x="558.726562" xlink:href="#DejaVuSans-91"/>
      <use x="597.740234" xlink:href="#DejaVuSans-197"/>
      <use x="666.148438" xlink:href="#DejaVuSans-93"/>
     </g>
    </g>
   </g>
   <g id="matplotlib.axis_2">
    <g id="ytick_1">
     <g id="line2d_8">
      <path d="M 44.567 218.88 
" style="fill:none;stroke:#000000;stroke-width:1.5;"/>
      <defs>
       <path d="M 0 0 
L -2.75 0 
" id="mc62b7c7bd6" style="stroke:#000000;"/>
      </defs>
      <g>
       <use style="stroke:#000000;" x="44.567" xlink:href="#mc62b7c7bd6" y="218.88"/>
      </g>
     </g>
     <g id="text_6">
      <!-- 0 -->
      <defs>
       <path d="M 31.78125 66.40625 
Q 24.171875 66.40625 20.328125 58.90625 
Q 16.5 51.421875 16.5 36.375 
Q 16.5 21.390625 20.328125 13.890625 
Q 24.171875 6.390625 31.78125 6.390625 
Q 39.453125 6.390625 43.28125 13.890625 
Q 47.125 21.390625 47.125 36.375 
Q 47.125 51.421875 43.28125 58.90625 
Q 39.453125 66.40625 31.78125 66.40625 
z
M 31.78125 74.21875 
Q 44.046875 74.21875 50.515625 64.515625 
Q 56.984375 54.828125 56.984375 36.375 
Q 56.984375 17.96875 50.515625 8.265625 
Q 44.046875 -1.421875 31.78125 -1.421875 
Q 19.53125 -1.421875 13.0625 8.265625 
Q 6.59375 17.96875 6.59375 36.375 
Q 6.59375 54.828125 13.0625 64.515625 
Q 19.53125 74.21875 31.78125 74.21875 
z
" id="DejaVuSans-48"/>
      </defs>
      <g transform="translate(34.018 221.30825)scale(0.088 -0.088)">
       <use xlink:href="#DejaVuSans-48"/>
      </g>
     </g>
    </g>
    <g id="ytick_2">
     <g id="line2d_9">
      <path d="M 44.567 168.48 
" style="fill:none;stroke:#000000;stroke-width:1.5;"/>
      <g>
       <use style="stroke:#000000;" x="44.567" xlink:href="#mc62b7c7bd6" y="168.48"/>
      </g>
     </g>
     <g id="text_7">
      <!-- 25 -->
      <defs>
       <path d="M 10.796875 72.90625 
L 49.515625 72.90625 
L 49.515625 64.59375 
L 19.828125 64.59375 
L 19.828125 46.734375 
Q 21.96875 47.46875 24.109375 47.828125 
Q 26.265625 48.1875 28.421875 48.1875 
Q 40.625 48.1875 47.75 41.5 
Q 54.890625 34.8125 54.890625 23.390625 
Q 54.890625 11.625 47.5625 5.09375 
Q 40.234375 -1.421875 26.90625 -1.421875 
Q 22.3125 -1.421875 17.546875 -0.640625 
Q 12.796875 0.140625 7.71875 1.703125 
L 7.71875 11.625 
Q 12.109375 9.234375 16.796875 8.0625 
Q 21.484375 6.890625 26.703125 6.890625 
Q 35.15625 6.890625 40.078125 11.328125 
Q 45.015625 15.765625 45.015625 23.390625 
Q 45.015625 31 40.078125 35.4375 
Q 35.15625 39.890625 26.703125 39.890625 
Q 22.75 39.890625 18.8125 39.015625 
Q 14.890625 38.140625 10.796875 36.28125 
z
" id="DejaVuSans-53"/>
      </defs>
      <g transform="translate(28.419 170.90825)scale(0.088 -0.088)">
       <use xlink:href="#DejaVuSans-50"/>
       <use x="63.623047" xlink:href="#DejaVuSans-53"/>
      </g>
     </g>
    </g>
    <g id="ytick_3">
     <g id="line2d_10">
      <path d="M 44.567 118.08 
" style="fill:none;stroke:#000000;stroke-width:1.5;"/>
      <g>
       <use style="stroke:#000000;" x="44.567" xlink:href="#mc62b7c7bd6" y="118.08"/>
      </g>
     </g>
     <g id="text_8">
      <!-- 50 -->
      <g transform="translate(28.419 120.50825)scale(0.088 -0.088)">
       <use xlink:href="#DejaVuSans-53"/>
       <use x="63.623047" xlink:href="#DejaVuSans-48"/>
      </g>
     </g>
    </g>
    <g id="ytick_4">
     <g id="line2d_11">
      <path d="M 44.567 67.68 
" style="fill:none;stroke:#000000;stroke-width:1.5;"/>
      <g>
       <use style="stroke:#000000;" x="44.567" xlink:href="#mc62b7c7bd6" y="67.68"/>
      </g>
     </g>
     <g id="text_9">
      <!-- 75 -->
      <defs>
       <path d="M 8.203125 72.90625 
L 55.078125 72.90625 
L 55.078125 68.703125 
L 28.609375 0 
L 18.3125 0 
L 43.21875 64.59375 
L 8.203125 64.59375 
z
" id="DejaVuSans-55"/>
      </defs>
      <g transform="translate(28.419 70.10825)scale(0.088 -0.088)">
       <use xlink:href="#DejaVuSans-55"/>
       <use x="63.623047" xlink:href="#DejaVuSans-53"/>
      </g>
     </g>
    </g>
    <g id="ytick_5">
     <g id="line2d_12">
      <path d="M 44.567 17.28 
" style="fill:none;stroke:#000000;stroke-width:1.5;"/>
      <g>
       <use style="stroke:#000000;" x="44.567" xlink:href="#mc62b7c7bd6" y="17.28"/>
      </g>
     </g>
     <g id="text_10">
      <!-- 100 -->
      <g transform="translate(22.82 19.70825)scale(0.088 -0.088)">
       <use xlink:href="#DejaVuSans-49"/>
       <use x="63.623047" xlink:href="#DejaVuSans-48"/>
       <use x="127.246094" xlink:href="#DejaVuSans-48"/>
      </g>
     </g>
    </g>
    <g id="ytick_6">
     <g id="line2d_13">
      <path d="M 44.567 193.68 
" style="fill:none;stroke:#000000;stroke-width:1.5;"/>
      <defs>
       <path d="M 0 0 
L -1.375 0 
" id="mb09ab8fdd2" style="stroke:#000000;"/>
      </defs>
      <g>
       <use style="stroke:#000000;" x="44.567" xlink:href="#mb09ab8fdd2" y="193.68"/>
      </g>
     </g>
    </g>
    <g id="ytick_7">
     <g id="line2d_14">
      <path d="M 44.567 143.28 
" style="fill:none;stroke:#000000;stroke-width:1.5;"/>
      <g>
       <use style="stroke:#000000;" x="44.567" xlink:href="#mb09ab8fdd2" y="143.28"/>
      </g>
     </g>
    </g>
    <g id="ytick_8">
     <g id="line2d_15">
      <path d="M 44.567 92.88 
" style="fill:none;stroke:#000000;stroke-width:1.5;"/>
      <g>
       <use style="stroke:#000000;" x="44.567" xlink:href="#mb09ab8fdd2" y="92.88"/>
      </g>
     </g>
    </g>
    <g id="ytick_9">
     <g id="line2d_16">
      <path d="M 44.567 42.48 
" style="fill:none;stroke:#000000;stroke-width:1.5;"/>
      <g>
       <use style="stroke:#000000;" x="44.567" xlink:href="#mb09ab8fdd2" y="42.48"/>
      </g>
     </g>
    </g>
    <g id="text_11">
     <!-- $P_{Q1n}$ [%] -->
     <defs>
      <path d="M 16.890625 72.90625 
L 39.703125 72.90625 
Q 49.65625 72.90625 54.875 68.265625 
Q 60.109375 63.625 60.109375 54.6875 
Q 60.109375 42.671875 52.390625 35.984375 
Q 44.671875 29.296875 30.71875 29.296875 
L 18.3125 29.296875 
L 12.59375 0 
L 2.6875 0 
z
M 25.203125 64.796875 
L 19.921875 37.40625 
L 32.328125 37.40625 
Q 40.71875 37.40625 45.203125 41.703125 
Q 49.703125 46 49.703125 54 
Q 49.703125 59.125 46.65625 61.953125 
Q 43.609375 64.796875 38.09375 64.796875 
z
" id="DejaVuSans-Oblique-80"/>
      <path d="M 36.078125 -1.3125 
Q 35.546875 -1.375 34.953125 -1.390625 
Q 34.375 -1.421875 33.203125 -1.421875 
Q 19.53125 -1.421875 11.8125 6.421875 
Q 4.109375 14.265625 4.109375 28.078125 
Q 4.109375 36.234375 7.0625 44.4375 
Q 10.015625 52.640625 15.28125 59.1875 
Q 21.390625 66.703125 29.03125 70.453125 
Q 36.671875 74.21875 45.90625 74.21875 
Q 59.28125 74.21875 66.984375 66.328125 
Q 74.703125 58.453125 74.703125 44.828125 
Q 74.703125 30.125 66.640625 17.921875 
Q 58.59375 5.71875 45.609375 0.6875 
L 55.515625 -12.890625 
L 44.484375 -12.890625 
z
M 45.609375 66.21875 
Q 37.5 66.21875 31.296875 62.28125 
Q 25.09375 58.34375 20.515625 50.296875 
Q 17.578125 45.171875 16.03125 39.40625 
Q 14.5 33.640625 14.5 27.78125 
Q 14.5 17.625 19.359375 12.109375 
Q 24.21875 6.59375 33.109375 6.59375 
Q 41.109375 6.59375 47.375 10.5625 
Q 53.65625 14.546875 58.109375 22.40625 
Q 61.078125 27.6875 62.640625 33.46875 
Q 64.203125 39.265625 64.203125 45.015625 
Q 64.203125 55.125 59.3125 60.671875 
Q 54.4375 66.21875 45.609375 66.21875 
z
" id="DejaVuSans-Oblique-81"/>
      <path d="M 55.71875 33.015625 
L 49.3125 0 
L 40.28125 0 
L 46.6875 32.671875 
Q 47.125 34.96875 47.359375 36.71875 
Q 47.609375 38.484375 47.609375 39.5 
Q 47.609375 43.609375 45.015625 45.890625 
Q 42.4375 48.1875 37.796875 48.1875 
Q 30.5625 48.1875 25.34375 43.375 
Q 20.125 38.578125 18.5 30.328125 
L 12.5 0 
L 3.515625 0 
L 14.109375 54.6875 
L 23.09375 54.6875 
L 21.296875 46.09375 
Q 25.046875 50.828125 30.3125 53.40625 
Q 35.59375 56 41.40625 56 
Q 48.640625 56 52.609375 52.09375 
Q 56.59375 48.1875 56.59375 41.109375 
Q 56.59375 39.359375 56.375 37.359375 
Q 56.15625 35.359375 55.71875 33.015625 
z
" id="DejaVuSans-Oblique-110"/>
      <path d="M 72.703125 32.078125 
Q 68.453125 32.078125 66.03125 28.46875 
Q 63.625 24.859375 63.625 18.40625 
Q 63.625 12.0625 66.03125 8.421875 
Q 68.453125 4.78125 72.703125 4.78125 
Q 76.859375 4.78125 79.265625 8.421875 
Q 81.6875 12.0625 81.6875 18.40625 
Q 81.6875 24.8125 79.265625 28.4375 
Q 76.859375 32.078125 72.703125 32.078125 
z
M 72.703125 38.28125 
Q 80.421875 38.28125 84.953125 32.90625 
Q 89.5 27.546875 89.5 18.40625 
Q 89.5 9.28125 84.9375 3.921875 
Q 80.375 -1.421875 72.703125 -1.421875 
Q 64.890625 -1.421875 60.34375 3.921875 
Q 55.8125 9.28125 55.8125 18.40625 
Q 55.8125 27.59375 60.375 32.9375 
Q 64.9375 38.28125 72.703125 38.28125 
z
M 22.3125 68.015625 
Q 18.109375 68.015625 15.6875 64.375 
Q 13.28125 60.75 13.28125 54.390625 
Q 13.28125 47.953125 15.671875 44.328125 
Q 18.0625 40.71875 22.3125 40.71875 
Q 26.5625 40.71875 28.96875 44.328125 
Q 31.390625 47.953125 31.390625 54.390625 
Q 31.390625 60.6875 28.953125 64.34375 
Q 26.515625 68.015625 22.3125 68.015625 
z
M 66.40625 74.21875 
L 74.21875 74.21875 
L 28.609375 -1.421875 
L 20.796875 -1.421875 
z
M 22.3125 74.21875 
Q 30.03125 74.21875 34.609375 68.875 
Q 39.203125 63.53125 39.203125 54.390625 
Q 39.203125 45.171875 34.640625 39.84375 
Q 30.078125 34.515625 22.3125 34.515625 
Q 14.546875 34.515625 10.03125 39.859375 
Q 5.515625 45.21875 5.515625 54.390625 
Q 5.515625 63.484375 10.046875 68.84375 
Q 14.59375 74.21875 22.3125 74.21875 
z
" id="DejaVuSans-37"/>
     </defs>
     <g transform="translate(15.56 139.3)rotate(-90)scale(0.11 -0.11)">
      <use transform="translate(0 0.015625)" xlink:href="#DejaVuSans-Oblique-80"/>
      <use transform="translate(60.302734 -16.390625)scale(0.7)" xlink:href="#DejaVuSans-Oblique-81"/>
      <use transform="translate(115.400391 -16.390625)scale(0.7)" xlink:href="#DejaVuSans-49"/>
      <use transform="translate(159.936523 -16.390625)scale(0.7)" xlink:href="#DejaVuSans-Oblique-110"/>
      <use transform="translate(207.036133 0.015625)" xlink:href="#DejaVuSans-32"/>
      <use transform="translate(238.823242 0.015625)" xlink:href="#DejaVuSans-91"/>
      <use transform="translate(277.836914 0.015625)" xlink:href="#DejaVuSans-37"/>
      <use transform="translate(372.856445 0.015625)" xlink:href="#DejaVuSans-93"/>
     </g>
    </g>
   </g>
   <g id="LineCollection_1">
    <path clip-path="url(#p91788f99e9)" d="M 64.857909 83.273895 
L 66.206142 83.273895 
" style="fill:none;stroke:#9da0a2;stroke-width:1.32934;"/>
    <path clip-path="url(#p91788f99e9)" d="M 78.340241 87.023663 
L 79.688474 87.023663 
" style="fill:none;stroke:#9da0a2;stroke-width:1.32934;"/>
    <path clip-path="url(#p91788f99e9)" d="M 91.822572 74.398171 
L 93.170805 74.398171 
" style="fill:none;stroke:#9da0a2;stroke-width:1.32934;"/>
    <path clip-path="url(#p91788f99e9)" d="M 105.304904 90.191547 
L 106.653137 90.191547 
" style="fill:none;stroke:#9da0a2;stroke-width:1.32934;"/>
    <path clip-path="url(#p91788f99e9)" d="M 118.787236 77.602073 
L 120.135469 77.602073 
" style="fill:none;stroke:#9da0a2;stroke-width:1.32934;"/>
    <path clip-path="url(#p91788f99e9)" d="M 132.269567 91.10287 
L 133.6178 91.10287 
" style="fill:none;stroke:#9da0a2;stroke-width:1.32934;"/>
    <path clip-path="url(#p91788f99e9)" d="M 145.751899 93.252848 
L 147.100132 93.252848 
" style="fill:none;stroke:#9da0a2;stroke-width:1.32934;"/>
    <path clip-path="url(#p91788f99e9)" d="M 159.23423 107.326125 
L 160.582464 107.326125 
" style="fill:none;stroke:#9da0a2;stroke-width:1.32934;"/>
    <path clip-path="url(#p91788f99e9)" d="M 172.716562 112.159318 
L 174.064795 112.159318 
" style="fill:none;stroke:#9da0a2;stroke-width:1.32934;"/>
    <path clip-path="url(#p91788f99e9)" d="M 186.198894 111.843196 
L 187.547127 111.843196 
" style="fill:none;stroke:#9da0a2;stroke-width:1.32934;"/>
    <path clip-path="url(#p91788f99e9)" d="M 199.681225 138.023171 
L 201.029458 138.023171 
" style="fill:none;stroke:#9da0a2;stroke-width:1.32934;"/>
    <path clip-path="url(#p91788f99e9)" d="M 213.163557 125.903955 
L 214.51179 125.903955 
" style="fill:none;stroke:#9da0a2;stroke-width:1.32934;"/>
    <path clip-path="url(#p91788f99e9)" d="M 226.645889 136.214711 
L 227.994122 136.214711 
" style="fill:none;stroke:#9da0a2;stroke-width:1.32934;"/>
    <path clip-path="url(#p91788f99e9)" d="M 240.12822 134.14014 
L 241.476453 134.14014 
" style="fill:none;stroke:#9da0a2;stroke-width:1.32934;"/>
    <path clip-path="url(#p91788f99e9)" d="M 253.610552 148.830711 
L 254.958785 148.830711 
" style="fill:none;stroke:#9da0a2;stroke-width:1.32934;"/>
    <path clip-path="url(#p91788f99e9)" d="M 267.092883 158.611688 
L 268.441117 158.611688 
" style="fill:none;stroke:#9da0a2;stroke-width:1.32934;"/>
    <path clip-path="url(#p91788f99e9)" d="M 280.575215 146.222121 
L 281.923448 146.222121 
" style="fill:none;stroke:#9da0a2;stroke-width:1.32934;"/>
    <path clip-path="url(#p91788f99e9)" d="M 294.057547 157.601198 
L 295.40578 157.601198 
" style="fill:none;stroke:#9da0a2;stroke-width:1.32934;"/>
    <path clip-path="url(#p91788f99e9)" d="M 307.539878 147.276112 
L 308.888111 147.276112 
" style="fill:none;stroke:#9da0a2;stroke-width:1.32934;"/>
    <path clip-path="url(#p91788f99e9)" d="M 321.02221 146.746525 
L 322.370443 146.746525 
" style="fill:none;stroke:#9da0a2;stroke-width:1.32934;"/>
    <path clip-path="url(#p91788f99e9)" d="M 334.504542 148.641578 
L 335.852775 148.641578 
" style="fill:none;stroke:#9da0a2;stroke-width:1.32934;"/>
    <path clip-path="url(#p91788f99e9)" d="M 347.986873 153.497448 
L 349.335106 153.497448 
" style="fill:none;stroke:#9da0a2;stroke-width:1.32934;"/>
    <path clip-path="url(#p91788f99e9)" d="M 361.469205 161.269041 
L 362.817438 161.269041 
" style="fill:none;stroke:#9da0a2;stroke-width:1.32934;"/>
    <path clip-path="url(#p91788f99e9)" d="M 374.951536 174.639276 
L 376.29977 174.639276 
" style="fill:none;stroke:#9da0a2;stroke-width:1.32934;"/>
    <path clip-path="url(#p91788f99e9)" d="M 388.433868 183.972552 
L 389.782101 183.972552 
" style="fill:none;stroke:#9da0a2;stroke-width:1.32934;"/>
    <path clip-path="url(#p91788f99e9)" d="M 401.9162 185.955304 
L 403.264433 185.955304 
" style="fill:none;stroke:#9da0a2;stroke-width:1.32934;"/>
    <path clip-path="url(#p91788f99e9)" d="M 415.398531 205.411494 
L 416.746764 205.411494 
" style="fill:none;stroke:#9da0a2;stroke-width:1.32934;"/>
    <path clip-path="url(#p91788f99e9)" d="M 428.880863 202.02624 
L 430.229096 202.02624 
" style="fill:none;stroke:#9da0a2;stroke-width:1.32934;"/>
    <path clip-path="url(#p91788f99e9)" d="M 442.363195 217.157494 
L 443.711428 217.157494 
" style="fill:none;stroke:#9da0a2;stroke-width:1.32934;"/>
    <path clip-path="url(#p91788f99e9)" d="M 455.845526 139.535034 
L 457.193759 139.535034 
" style="fill:none;stroke:#9da0a2;stroke-width:1.32934;"/>
    <path clip-path="url(#p91788f99e9)" d="M 469.327858 167.43212 
L 470.676091 167.43212 
" style="fill:none;stroke:#9da0a2;stroke-width:1.32934;"/>
    <path clip-path="url(#p91788f99e9)" d="M 64.857909 73.141231 
L 66.206142 73.141231 
" style="fill:none;stroke:#9da0a2;stroke-width:1.32934;"/>
    <path clip-path="url(#p91788f99e9)" d="M 78.340241 69.321572 
L 79.688474 69.321572 
" style="fill:none;stroke:#9da0a2;stroke-width:1.32934;"/>
    <path clip-path="url(#p91788f99e9)" d="M 91.822572 63.621533 
L 93.170805 63.621533 
" style="fill:none;stroke:#9da0a2;stroke-width:1.32934;"/>
    <path clip-path="url(#p91788f99e9)" d="M 105.304904 74.551965 
L 106.653137 74.551965 
" style="fill:none;stroke:#9da0a2;stroke-width:1.32934;"/>
    <path clip-path="url(#p91788f99e9)" d="M 118.787236 65.800755 
L 120.135469 65.800755 
" style="fill:none;stroke:#9da0a2;stroke-width:1.32934;"/>
    <path clip-path="url(#p91788f99e9)" d="M 132.269567 79.939798 
L 133.6178 79.939798 
" style="fill:none;stroke:#9da0a2;stroke-width:1.32934;"/>
    <path clip-path="url(#p91788f99e9)" d="M 145.751899 85.356342 
L 147.100132 85.356342 
" style="fill:none;stroke:#9da0a2;stroke-width:1.32934;"/>
    <path clip-path="url(#p91788f99e9)" d="M 159.23423 96.365461 
L 160.582464 96.365461 
" style="fill:none;stroke:#9da0a2;stroke-width:1.32934;"/>
    <path clip-path="url(#p91788f99e9)" d="M 172.716562 103.250872 
L 174.064795 103.250872 
" style="fill:none;stroke:#9da0a2;stroke-width:1.32934;"/>
    <path clip-path="url(#p91788f99e9)" d="M 186.198894 101.769424 
L 187.547127 101.769424 
" style="fill:none;stroke:#9da0a2;stroke-width:1.32934;"/>
    <path clip-path="url(#p91788f99e9)" d="M 199.681225 129.533294 
L 201.029458 129.533294 
" style="fill:none;stroke:#9da0a2;stroke-width:1.32934;"/>
    <path clip-path="url(#p91788f99e9)" d="M 213.163557 113.504448 
L 214.51179 113.504448 
" style="fill:none;stroke:#9da0a2;stroke-width:1.32934;"/>
    <path clip-path="url(#p91788f99e9)" d="M 226.645889 127.329384 
L 227.994122 127.329384 
" style="fill:none;stroke:#9da0a2;stroke-width:1.32934;"/>
    <path clip-path="url(#p91788f99e9)" d="M 240.12822 120.539503 
L 241.476453 120.539503 
" style="fill:none;stroke:#9da0a2;stroke-width:1.32934;"/>
    <path clip-path="url(#p91788f99e9)" d="M 253.610552 139.285052 
L 254.958785 139.285052 
" style="fill:none;stroke:#9da0a2;stroke-width:1.32934;"/>
    <path clip-path="url(#p91788f99e9)" d="M 267.092883 149.311094 
L 268.441117 149.311094 
" style="fill:none;stroke:#9da0a2;stroke-width:1.32934;"/>
    <path clip-path="url(#p91788f99e9)" d="M 280.575215 134.105628 
L 281.923448 134.105628 
" style="fill:none;stroke:#9da0a2;stroke-width:1.32934;"/>
    <path clip-path="url(#p91788f99e9)" d="M 294.057547 145.865978 
L 295.40578 145.865978 
" style="fill:none;stroke:#9da0a2;stroke-width:1.32934;"/>
    <path clip-path="url(#p91788f99e9)" d="M 307.539878 136.474614 
L 308.888111 136.474614 
" style="fill:none;stroke:#9da0a2;stroke-width:1.32934;"/>
    <path clip-path="url(#p91788f99e9)" d="M 321.02221 133.984616 
L 322.370443 133.984616 
" style="fill:none;stroke:#9da0a2;stroke-width:1.32934;"/>
    <path clip-path="url(#p91788f99e9)" d="M 334.504542 138.605722 
L 335.852775 138.605722 
" style="fill:none;stroke:#9da0a2;stroke-width:1.32934;"/>
    <path clip-path="url(#p91788f99e9)" d="M 347.986873 140.641695 
L 349.335106 140.641695 
" style="fill:none;stroke:#9da0a2;stroke-width:1.32934;"/>
    <path clip-path="url(#p91788f99e9)" d="M 361.469205 140.0995 
L 362.817438 140.0995 
" style="fill:none;stroke:#9da0a2;stroke-width:1.32934;"/>
    <path clip-path="url(#p91788f99e9)" d="M 374.951536 154.731305 
L 376.29977 154.731305 
" style="fill:none;stroke:#9da0a2;stroke-width:1.32934;"/>
    <path clip-path="url(#p91788f99e9)" d="M 388.433868 147.551206 
L 389.782101 147.551206 
" style="fill:none;stroke:#9da0a2;stroke-width:1.32934;"/>
    <path clip-path="url(#p91788f99e9)" d="M 401.9162 141.574974 
L 403.264433 141.574974 
" style="fill:none;stroke:#9da0a2;stroke-width:1.32934;"/>
    <path clip-path="url(#p91788f99e9)" d="M 415.398531 178.239782 
L 416.746764 178.239782 
" style="fill:none;stroke:#9da0a2;stroke-width:1.32934;"/>
    <path clip-path="url(#p91788f99e9)" d="M 428.880863 183.642485 
L 430.229096 183.642485 
" style="fill:none;stroke:#9da0a2;stroke-width:1.32934;"/>
    <path clip-path="url(#p91788f99e9)" d="M 442.363195 210.036063 
L 443.711428 210.036063 
" style="fill:none;stroke:#9da0a2;stroke-width:1.32934;"/>
    <path clip-path="url(#p91788f99e9)" d="M 455.845526 127.647785 
L 457.193759 127.647785 
" style="fill:none;stroke:#9da0a2;stroke-width:1.32934;"/>
    <path clip-path="url(#p91788f99e9)" d="M 469.327858 133.810909 
L 470.676091 133.810909 
" style="fill:none;stroke:#9da0a2;stroke-width:1.32934;"/>
    <path clip-path="url(#p91788f99e9)" d="M 65.532026 73.141231 
L 65.532026 83.273895 
" style="fill:none;stroke:#9da0a2;stroke-width:1.32934;"/>
    <path clip-path="url(#p91788f99e9)" d="M 79.014357 69.321572 
L 79.014357 87.023663 
" style="fill:none;stroke:#9da0a2;stroke-width:1.32934;"/>
    <path clip-path="url(#p91788f99e9)" d="M 92.496689 63.621533 
L 92.496689 74.398171 
" style="fill:none;stroke:#9da0a2;stroke-width:1.32934;"/>
    <path clip-path="url(#p91788f99e9)" d="M 105.979021 74.551965 
L 105.979021 90.191547 
" style="fill:none;stroke:#9da0a2;stroke-width:1.32934;"/>
    <path clip-path="url(#p91788f99e9)" d="M 119.461352 65.800755 
L 119.461352 77.602073 
" style="fill:none;stroke:#9da0a2;stroke-width:1.32934;"/>
    <path clip-path="url(#p91788f99e9)" d="M 132.943684 79.939798 
L 132.943684 91.10287 
" style="fill:none;stroke:#9da0a2;stroke-width:1.32934;"/>
    <path clip-path="url(#p91788f99e9)" d="M 146.426015 85.356342 
L 146.426015 93.252848 
" style="fill:none;stroke:#9da0a2;stroke-width:1.32934;"/>
    <path clip-path="url(#p91788f99e9)" d="M 159.908347 96.365461 
L 159.908347 107.326125 
" style="fill:none;stroke:#9da0a2;stroke-width:1.32934;"/>
    <path clip-path="url(#p91788f99e9)" d="M 173.390679 103.250872 
L 173.390679 112.159318 
" style="fill:none;stroke:#9da0a2;stroke-width:1.32934;"/>
    <path clip-path="url(#p91788f99e9)" d="M 186.87301 101.769424 
L 186.87301 111.843196 
" style="fill:none;stroke:#9da0a2;stroke-width:1.32934;"/>
    <path clip-path="url(#p91788f99e9)" d="M 200.355342 129.533294 
L 200.355342 138.023171 
" style="fill:none;stroke:#9da0a2;stroke-width:1.32934;"/>
    <path clip-path="url(#p91788f99e9)" d="M 213.837674 113.504448 
L 213.837674 125.903955 
" style="fill:none;stroke:#9da0a2;stroke-width:1.32934;"/>
    <path clip-path="url(#p91788f99e9)" d="M 227.320005 127.329384 
L 227.320005 136.214711 
" style="fill:none;stroke:#9da0a2;stroke-width:1.32934;"/>
    <path clip-path="url(#p91788f99e9)" d="M 240.802337 120.539503 
L 240.802337 134.14014 
" style="fill:none;stroke:#9da0a2;stroke-width:1.32934;"/>
    <path clip-path="url(#p91788f99e9)" d="M 254.284668 139.285052 
L 254.284668 148.830711 
" style="fill:none;stroke:#9da0a2;stroke-width:1.32934;"/>
    <path clip-path="url(#p91788f99e9)" d="M 267.767 149.311094 
L 267.767 158.611688 
" style="fill:none;stroke:#9da0a2;stroke-width:1.32934;"/>
    <path clip-path="url(#p91788f99e9)" d="M 281.249332 134.105628 
L 281.249332 146.222121 
" style="fill:none;stroke:#9da0a2;stroke-width:1.32934;"/>
    <path clip-path="url(#p91788f99e9)" d="M 294.731663 145.865978 
L 294.731663 157.601198 
" style="fill:none;stroke:#9da0a2;stroke-width:1.32934;"/>
    <path clip-path="url(#p91788f99e9)" d="M 308.213995 136.474614 
L 308.213995 147.276112 
" style="fill:none;stroke:#9da0a2;stroke-width:1.32934;"/>
    <path clip-path="url(#p91788f99e9)" d="M 321.696326 133.984616 
L 321.696326 146.746525 
" style="fill:none;stroke:#9da0a2;stroke-width:1.32934;"/>
    <path clip-path="url(#p91788f99e9)" d="M 335.178658 138.605722 
L 335.178658 148.641578 
" style="fill:none;stroke:#9da0a2;stroke-width:1.32934;"/>
    <path clip-path="url(#p91788f99e9)" d="M 348.66099 140.641695 
L 348.66099 153.497448 
" style="fill:none;stroke:#9da0a2;stroke-width:1.32934;"/>
    <path clip-path="url(#p91788f99e9)" d="M 362.143321 140.0995 
L 362.143321 161.269041 
" style="fill:none;stroke:#9da0a2;stroke-width:1.32934;"/>
    <path clip-path="url(#p91788f99e9)" d="M 375.625653 154.731305 
L 375.625653 174.639276 
" style="fill:none;stroke:#9da0a2;stroke-width:1.32934;"/>
    <path clip-path="url(#p91788f99e9)" d="M 389.107985 147.551206 
L 389.107985 183.972552 
" style="fill:none;stroke:#9da0a2;stroke-width:1.32934;"/>
    <path clip-path="url(#p91788f99e9)" d="M 402.590316 141.574974 
L 402.590316 185.955304 
" style="fill:none;stroke:#9da0a2;stroke-width:1.32934;"/>
    <path clip-path="url(#p91788f99e9)" d="M 416.072648 178.239782 
L 416.072648 205.411494 
" style="fill:none;stroke:#9da0a2;stroke-width:1.32934;"/>
    <path clip-path="url(#p91788f99e9)" d="M 429.554979 183.642485 
L 429.554979 202.02624 
" style="fill:none;stroke:#9da0a2;stroke-width:1.32934;"/>
    <path clip-path="url(#p91788f99e9)" d="M 443.037311 210.036063 
L 443.037311 217.157494 
" style="fill:none;stroke:#9da0a2;stroke-width:1.32934;"/>
    <path clip-path="url(#p91788f99e9)" d="M 456.519643 127.647785 
L 456.519643 139.535034 
" style="fill:none;stroke:#9da0a2;stroke-width:1.32934;"/>
    <path clip-path="url(#p91788f99e9)" d="M 470.001974 133.810909 
L 470.001974 167.43212 
" style="fill:none;stroke:#9da0a2;stroke-width:1.32934;"/>
   </g>
   <g id="line2d_17">
    <path clip-path="url(#p91788f99e9)" d="M 65.532026 78.207563 
L 79.014357 78.172617 
L 92.496689 69.009852 
L 105.979021 82.371756 
L 119.461352 71.701414 
L 132.943684 85.521334 
L 146.426015 89.304595 
L 159.908347 101.845793 
L 173.390679 107.705095 
L 186.87301 106.80631 
L 200.355342 133.778232 
L 213.837674 119.704201 
L 227.320005 131.772047 
L 240.802337 127.339822 
L 254.284668 144.057882 
L 267.767 153.961391 
L 281.249332 140.163874 
L 294.731663 151.733588 
L 308.213995 141.875363 
L 321.696326 140.36557 
L 335.178658 143.62365 
L 348.66099 147.069572 
L 362.143321 150.684271 
L 375.625653 164.68529 
L 389.107985 165.761879 
L 402.590316 163.765139 
L 416.072648 191.825638 
L 429.554979 192.834362 
L 443.037311 213.596779 
L 456.519643 133.591409 
L 470.001974 150.621515 
" style="fill:none;stroke:#0077bb;stroke-width:0.886227;"/>
   </g>
   <g id="patch_3">
    <path d="M 44.567 228.96 
L 44.567 7.2 
" style="fill:none;stroke:#000000;stroke-linecap:square;stroke-linejoin:miter;"/>
   </g>
   <g id="patch_4">
    <path d="M 44.567 228.96 
L 490.967 228.96 
" style="fill:none;stroke:#000000;stroke-linecap:square;stroke-linejoin:miter;"/>
   </g>
   <g id="PathCollection_1">
    <path clip-path="url(#p91788f99e9)" d="M 65.532026 79.980017 
C 66.002086 79.980017 66.452957 79.79326 66.78534 79.460877 
C 67.117723 79.128494 67.30448 78.677623 67.30448 78.207563 
C 67.30448 77.737503 67.117723 77.286632 66.78534 76.954249 
C 66.452957 76.621866 66.002086 76.435109 65.532026 76.435109 
C 65.061965 76.435109 64.611094 76.621866 64.278712 76.954249 
C 63.946329 77.286632 63.759572 77.737503 63.759572 78.207563 
C 63.759572 78.677623 63.946329 79.128494 64.278712 79.460877 
C 64.611094 79.79326 65.061965 79.980017 65.532026 79.980017 
z
" style="fill:#0077bb;stroke:#0077bb;stroke-width:0.886227;"/>
    <path clip-path="url(#p91788f99e9)" d="M 79.014357 79.945071 
C 79.484418 79.945071 79.935289 79.758314 80.267671 79.425932 
C 80.600054 79.093549 80.786811 78.642678 80.786811 78.172617 
C 80.786811 77.702557 80.600054 77.251686 80.267671 76.919303 
C 79.935289 76.586921 79.484418 76.400164 79.014357 76.400164 
C 78.544297 76.400164 78.093426 76.586921 77.761043 76.919303 
C 77.42866 77.251686 77.241903 77.702557 77.241903 78.172617 
C 77.241903 78.642678 77.42866 79.093549 77.761043 79.425932 
C 78.093426 79.758314 78.544297 79.945071 79.014357 79.945071 
z
" style="fill:#0077bb;stroke:#0077bb;stroke-width:0.886227;"/>
    <path clip-path="url(#p91788f99e9)" d="M 92.496689 70.782306 
C 92.966749 70.782306 93.41762 70.595549 93.750003 70.263166 
C 94.082386 69.930783 94.269143 69.479912 94.269143 69.009852 
C 94.269143 68.539792 94.082386 68.088921 93.750003 67.756538 
C 93.41762 67.424155 92.966749 67.237398 92.496689 67.237398 
C 92.026629 67.237398 91.575758 67.424155 91.243375 67.756538 
C 90.910992 68.088921 90.724235 68.539792 90.724235 69.009852 
C 90.724235 69.479912 90.910992 69.930783 91.243375 70.263166 
C 91.575758 70.595549 92.026629 70.782306 92.496689 70.782306 
z
" style="fill:#0077bb;stroke:#0077bb;stroke-width:0.886227;"/>
    <path clip-path="url(#p91788f99e9)" d="M 105.979021 84.14421 
C 106.449081 84.14421 106.899952 83.957453 107.232335 83.625071 
C 107.564717 83.292688 107.751474 82.841817 107.751474 82.371756 
C 107.751474 81.901696 107.564717 81.450825 107.232335 81.118442 
C 106.899952 80.786059 106.449081 80.599303 105.979021 80.599303 
C 105.50896 80.599303 105.058089 80.786059 104.725706 81.118442 
C 104.393324 81.450825 104.206567 81.901696 104.206567 82.371756 
C 104.206567 82.841817 104.393324 83.292688 104.725706 83.625071 
C 105.058089 83.957453 105.50896 84.14421 105.979021 84.14421 
z
" style="fill:#0077bb;stroke:#0077bb;stroke-width:0.886227;"/>
    <path clip-path="url(#p91788f99e9)" d="M 119.461352 73.473868 
C 119.931412 73.473868 120.382284 73.287111 120.714666 72.954728 
C 121.047049 72.622345 121.233806 72.171474 121.233806 71.701414 
C 121.233806 71.231354 121.047049 70.780483 120.714666 70.4481 
C 120.382284 70.115717 119.931412 69.92896 119.461352 69.92896 
C 118.991292 69.92896 118.540421 70.115717 118.208038 70.4481 
C 117.875655 70.780483 117.688898 71.231354 117.688898 71.701414 
C 117.688898 72.171474 117.875655 72.622345 118.208038 72.954728 
C 118.540421 73.287111 118.991292 73.473868 119.461352 73.473868 
z
" style="fill:#0077bb;stroke:#0077bb;stroke-width:0.886227;"/>
    <path clip-path="url(#p91788f99e9)" d="M 132.943684 87.293788 
C 133.413744 87.293788 133.864615 87.107031 134.196998 86.774648 
C 134.529381 86.442265 134.716138 85.991394 134.716138 85.521334 
C 134.716138 85.051274 134.529381 84.600403 134.196998 84.26802 
C 133.864615 83.935637 133.413744 83.74888 132.943684 83.74888 
C 132.473624 83.74888 132.022752 83.935637 131.69037 84.26802 
C 131.357987 84.600403 131.17123 85.051274 131.17123 85.521334 
C 131.17123 85.991394 131.357987 86.442265 131.69037 86.774648 
C 132.022752 87.107031 132.473624 87.293788 132.943684 87.293788 
z
" style="fill:#0077bb;stroke:#0077bb;stroke-width:0.886227;"/>
    <path clip-path="url(#p91788f99e9)" d="M 146.426015 91.077049 
C 146.896076 91.077049 147.346947 90.890292 147.67933 90.557909 
C 148.011712 90.225526 148.198469 89.774655 148.198469 89.304595 
C 148.198469 88.834535 148.011712 88.383664 147.67933 88.051281 
C 147.346947 87.718898 146.896076 87.532141 146.426015 87.532141 
C 145.955955 87.532141 145.505084 87.718898 145.172701 88.051281 
C 144.840318 88.383664 144.653562 88.834535 144.653562 89.304595 
C 144.653562 89.774655 144.840318 90.225526 145.172701 90.557909 
C 145.505084 90.890292 145.955955 91.077049 146.426015 91.077049 
z
" style="fill:#0077bb;stroke:#0077bb;stroke-width:0.886227;"/>
    <path clip-path="url(#p91788f99e9)" d="M 159.908347 103.618247 
C 160.378407 103.618247 160.829278 103.43149 161.161661 103.099107 
C 161.494044 102.766724 161.680801 102.315853 161.680801 101.845793 
C 161.680801 101.375733 161.494044 100.924862 161.161661 100.592479 
C 160.829278 100.260096 160.378407 100.073339 159.908347 100.073339 
C 159.438287 100.073339 158.987416 100.260096 158.655033 100.592479 
C 158.32265 100.924862 158.135893 101.375733 158.135893 101.845793 
C 158.135893 102.315853 158.32265 102.766724 158.655033 103.099107 
C 158.987416 103.43149 159.438287 103.618247 159.908347 103.618247 
z
" style="fill:#0077bb;stroke:#0077bb;stroke-width:0.886227;"/>
    <path clip-path="url(#p91788f99e9)" d="M 173.390679 109.477549 
C 173.860739 109.477549 174.31161 109.290792 174.643993 108.958409 
C 174.976376 108.626026 175.163132 108.175155 175.163132 107.705095 
C 175.163132 107.235035 174.976376 106.784163 174.643993 106.451781 
C 174.31161 106.119398 173.860739 105.932641 173.390679 105.932641 
C 172.920618 105.932641 172.469747 106.119398 172.137365 106.451781 
C 171.804982 106.784163 171.618225 107.235035 171.618225 107.705095 
C 171.618225 108.175155 171.804982 108.626026 172.137365 108.958409 
C 172.469747 109.290792 172.920618 109.477549 173.390679 109.477549 
z
" style="fill:#0077bb;stroke:#0077bb;stroke-width:0.886227;"/>
    <path clip-path="url(#p91788f99e9)" d="M 186.87301 108.578764 
C 187.343071 108.578764 187.793942 108.392007 188.126324 108.059624 
C 188.458707 107.727241 188.645464 107.27637 188.645464 106.80631 
C 188.645464 106.33625 188.458707 105.885379 188.126324 105.552996 
C 187.793942 105.220613 187.343071 105.033856 186.87301 105.033856 
C 186.40295 105.033856 185.952079 105.220613 185.619696 105.552996 
C 185.287313 105.885379 185.100556 106.33625 185.100556 106.80631 
C 185.100556 107.27637 185.287313 107.727241 185.619696 108.059624 
C 185.952079 108.392007 186.40295 108.578764 186.87301 108.578764 
z
" style="fill:#0077bb;stroke:#0077bb;stroke-width:0.886227;"/>
    <path clip-path="url(#p91788f99e9)" d="M 200.355342 135.550686 
C 200.825402 135.550686 201.276273 135.363929 201.608656 135.031546 
C 201.941039 134.699164 202.127796 134.248293 202.127796 133.778232 
C 202.127796 133.308172 201.941039 132.857301 201.608656 132.524918 
C 201.276273 132.192535 200.825402 132.005778 200.355342 132.005778 
C 199.885282 132.005778 199.434411 132.192535 199.102028 132.524918 
C 198.769645 132.857301 198.582888 133.308172 198.582888 133.778232 
C 198.582888 134.248293 198.769645 134.699164 199.102028 135.031546 
C 199.434411 135.363929 199.885282 135.550686 200.355342 135.550686 
z
" style="fill:#0077bb;stroke:#0077bb;stroke-width:0.886227;"/>
    <path clip-path="url(#p91788f99e9)" d="M 213.837674 121.476655 
C 214.307734 121.476655 214.758605 121.289898 215.090988 120.957515 
C 215.42337 120.625132 215.610127 120.174261 215.610127 119.704201 
C 215.610127 119.234141 215.42337 118.78327 215.090988 118.450887 
C 214.758605 118.118504 214.307734 117.931747 213.837674 117.931747 
C 213.367613 117.931747 212.916742 118.118504 212.584359 118.450887 
C 212.251977 118.78327 212.06522 119.234141 212.06522 119.704201 
C 212.06522 120.174261 212.251977 120.625132 212.584359 120.957515 
C 212.916742 121.289898 213.367613 121.476655 213.837674 121.476655 
z
" style="fill:#0077bb;stroke:#0077bb;stroke-width:0.886227;"/>
    <path clip-path="url(#p91788f99e9)" d="M 227.320005 133.544501 
C 227.790065 133.544501 228.240936 133.357744 228.573319 133.025362 
C 228.905702 132.692979 229.092459 132.242108 229.092459 131.772047 
C 229.092459 131.301987 228.905702 130.851116 228.573319 130.518733 
C 228.240936 130.186351 227.790065 129.999594 227.320005 129.999594 
C 226.849945 129.999594 226.399074 130.186351 226.066691 130.518733 
C 225.734308 130.851116 225.547551 131.301987 225.547551 131.772047 
C 225.547551 132.242108 225.734308 132.692979 226.066691 133.025362 
C 226.399074 133.357744 226.849945 133.544501 227.320005 133.544501 
z
" style="fill:#0077bb;stroke:#0077bb;stroke-width:0.886227;"/>
    <path clip-path="url(#p91788f99e9)" d="M 240.802337 129.112276 
C 241.272397 129.112276 241.723268 128.925519 242.055651 128.593136 
C 242.388034 128.260753 242.574791 127.809882 242.574791 127.339822 
C 242.574791 126.869761 242.388034 126.41889 242.055651 126.086508 
C 241.723268 125.754125 241.272397 125.567368 240.802337 125.567368 
C 240.332277 125.567368 239.881405 125.754125 239.549023 126.086508 
C 239.21664 126.41889 239.029883 126.869761 239.029883 127.339822 
C 239.029883 127.809882 239.21664 128.260753 239.549023 128.593136 
C 239.881405 128.925519 240.332277 129.112276 240.802337 129.112276 
z
" style="fill:#0077bb;stroke:#0077bb;stroke-width:0.886227;"/>
    <path clip-path="url(#p91788f99e9)" d="M 254.284668 145.830335 
C 254.754729 145.830335 255.2056 145.643578 255.537983 145.311196 
C 255.870365 144.978813 256.057122 144.527942 256.057122 144.057882 
C 256.057122 143.587821 255.870365 143.13695 255.537983 142.804567 
C 255.2056 142.472185 254.754729 142.285428 254.284668 142.285428 
C 253.814608 142.285428 253.363737 142.472185 253.031354 142.804567 
C 252.698971 143.13695 252.512215 143.587821 252.512215 144.057882 
C 252.512215 144.527942 252.698971 144.978813 253.031354 145.311196 
C 253.363737 145.643578 253.814608 145.830335 254.284668 145.830335 
z
" style="fill:#0077bb;stroke:#0077bb;stroke-width:0.886227;"/>
    <path clip-path="url(#p91788f99e9)" d="M 267.767 155.733845 
C 268.23706 155.733845 268.687931 155.547088 269.020314 155.214705 
C 269.352697 154.882322 269.539454 154.431451 269.539454 153.961391 
C 269.539454 153.491331 269.352697 153.04046 269.020314 152.708077 
C 268.687931 152.375694 268.23706 152.188937 267.767 152.188937 
C 267.29694 152.188937 266.846069 152.375694 266.513686 152.708077 
C 266.181303 153.04046 265.994546 153.491331 265.994546 153.961391 
C 265.994546 154.431451 266.181303 154.882322 266.513686 155.214705 
C 266.846069 155.547088 267.29694 155.733845 267.767 155.733845 
z
" style="fill:#0077bb;stroke:#0077bb;stroke-width:0.886227;"/>
    <path clip-path="url(#p91788f99e9)" d="M 281.249332 141.936328 
C 281.719392 141.936328 282.170263 141.749571 282.502646 141.417189 
C 282.835029 141.084806 283.021785 140.633935 283.021785 140.163874 
C 283.021785 139.693814 282.835029 139.242943 282.502646 138.91056 
C 282.170263 138.578178 281.719392 138.391421 281.249332 138.391421 
C 280.779271 138.391421 280.3284 138.578178 279.996017 138.91056 
C 279.663635 139.242943 279.476878 139.693814 279.476878 140.163874 
C 279.476878 140.633935 279.663635 141.084806 279.996017 141.417189 
C 280.3284 141.749571 280.779271 141.936328 281.249332 141.936328 
z
" style="fill:#0077bb;stroke:#0077bb;stroke-width:0.886227;"/>
    <path clip-path="url(#p91788f99e9)" d="M 294.731663 153.506042 
C 295.201723 153.506042 295.652595 153.319285 295.984977 152.986902 
C 296.31736 152.654519 296.504117 152.203648 296.504117 151.733588 
C 296.504117 151.263528 296.31736 150.812657 295.984977 150.480274 
C 295.652595 150.147891 295.201723 149.961134 294.731663 149.961134 
C 294.261603 149.961134 293.810732 150.147891 293.478349 150.480274 
C 293.145966 150.812657 292.959209 151.263528 292.959209 151.733588 
C 292.959209 152.203648 293.145966 152.654519 293.478349 152.986902 
C 293.810732 153.319285 294.261603 153.506042 294.731663 153.506042 
z
" style="fill:#0077bb;stroke:#0077bb;stroke-width:0.886227;"/>
    <path clip-path="url(#p91788f99e9)" d="M 308.213995 143.647817 
C 308.684055 143.647817 309.134926 143.46106 309.467309 143.128677 
C 309.799692 142.796294 309.986449 142.345423 309.986449 141.875363 
C 309.986449 141.405303 309.799692 140.954432 309.467309 140.622049 
C 309.134926 140.289666 308.684055 140.102909 308.213995 140.102909 
C 307.743935 140.102909 307.293064 140.289666 306.960681 140.622049 
C 306.628298 140.954432 306.441541 141.405303 306.441541 141.875363 
C 306.441541 142.345423 306.628298 142.796294 306.960681 143.128677 
C 307.293064 143.46106 307.743935 143.647817 308.213995 143.647817 
z
" style="fill:#0077bb;stroke:#0077bb;stroke-width:0.886227;"/>
    <path clip-path="url(#p91788f99e9)" d="M 321.696326 142.138024 
C 322.166387 142.138024 322.617258 141.951267 322.949641 141.618885 
C 323.282023 141.286502 323.46878 140.835631 323.46878 140.36557 
C 323.46878 139.89551 323.282023 139.444639 322.949641 139.112256 
C 322.617258 138.779874 322.166387 138.593117 321.696326 138.593117 
C 321.226266 138.593117 320.775395 138.779874 320.443012 139.112256 
C 320.11063 139.444639 319.923873 139.89551 319.923873 140.36557 
C 319.923873 140.835631 320.11063 141.286502 320.443012 141.618885 
C 320.775395 141.951267 321.226266 142.138024 321.696326 142.138024 
z
" style="fill:#0077bb;stroke:#0077bb;stroke-width:0.886227;"/>
    <path clip-path="url(#p91788f99e9)" d="M 335.178658 145.396104 
C 335.648718 145.396104 336.099589 145.209347 336.431972 144.876964 
C 336.764355 144.544582 336.951112 144.09371 336.951112 143.62365 
C 336.951112 143.15359 336.764355 142.702719 336.431972 142.370336 
C 336.099589 142.037953 335.648718 141.851196 335.178658 141.851196 
C 334.708598 141.851196 334.257727 142.037953 333.925344 142.370336 
C 333.592961 142.702719 333.406204 143.15359 333.406204 143.62365 
C 333.406204 144.09371 333.592961 144.544582 333.925344 144.876964 
C 334.257727 145.209347 334.708598 145.396104 335.178658 145.396104 
z
" style="fill:#0077bb;stroke:#0077bb;stroke-width:0.886227;"/>
    <path clip-path="url(#p91788f99e9)" d="M 348.66099 148.842025 
C 349.13105 148.842025 349.581921 148.655268 349.914304 148.322886 
C 350.246687 147.990503 350.433444 147.539632 350.433444 147.069572 
C 350.433444 146.599511 350.246687 146.14864 349.914304 145.816257 
C 349.581921 145.483875 349.13105 145.297118 348.66099 145.297118 
C 348.190929 145.297118 347.740058 145.483875 347.407676 145.816257 
C 347.075293 146.14864 346.888536 146.599511 346.888536 147.069572 
C 346.888536 147.539632 347.075293 147.990503 347.407676 148.322886 
C 347.740058 148.655268 348.190929 148.842025 348.66099 148.842025 
z
" style="fill:#0077bb;stroke:#0077bb;stroke-width:0.886227;"/>
    <path clip-path="url(#p91788f99e9)" d="M 362.143321 152.456725 
C 362.613382 152.456725 363.064253 152.269968 363.396635 151.937585 
C 363.729018 151.605202 363.915775 151.154331 363.915775 150.684271 
C 363.915775 150.214211 363.729018 149.76334 363.396635 149.430957 
C 363.064253 149.098574 362.613382 148.911817 362.143321 148.911817 
C 361.673261 148.911817 361.22239 149.098574 360.890007 149.430957 
C 360.557624 149.76334 360.370868 150.214211 360.370868 150.684271 
C 360.370868 151.154331 360.557624 151.605202 360.890007 151.937585 
C 361.22239 152.269968 361.673261 152.456725 362.143321 152.456725 
z
" style="fill:#0077bb;stroke:#0077bb;stroke-width:0.886227;"/>
    <path clip-path="url(#p91788f99e9)" d="M 375.625653 166.457744 
C 376.095713 166.457744 376.546584 166.270987 376.878967 165.938604 
C 377.21135 165.606222 377.398107 165.15535 377.398107 164.68529 
C 377.398107 164.21523 377.21135 163.764359 376.878967 163.431976 
C 376.546584 163.099593 376.095713 162.912836 375.625653 162.912836 
C 375.155593 162.912836 374.704722 163.099593 374.372339 163.431976 
C 374.039956 163.764359 373.853199 164.21523 373.853199 164.68529 
C 373.853199 165.15535 374.039956 165.606222 374.372339 165.938604 
C 374.704722 166.270987 375.155593 166.457744 375.625653 166.457744 
z
" style="fill:#0077bb;stroke:#0077bb;stroke-width:0.886227;"/>
    <path clip-path="url(#p91788f99e9)" d="M 389.107985 167.534333 
C 389.578045 167.534333 390.028916 167.347576 390.361299 167.015193 
C 390.693682 166.682811 390.880438 166.231939 390.880438 165.761879 
C 390.880438 165.291819 390.693682 164.840948 390.361299 164.508565 
C 390.028916 164.176182 389.578045 163.989425 389.107985 163.989425 
C 388.637924 163.989425 388.187053 164.176182 387.85467 164.508565 
C 387.522288 164.840948 387.335531 165.291819 387.335531 165.761879 
C 387.335531 166.231939 387.522288 166.682811 387.85467 167.015193 
C 388.187053 167.347576 388.637924 167.534333 389.107985 167.534333 
z
" style="fill:#0077bb;stroke:#0077bb;stroke-width:0.886227;"/>
    <path clip-path="url(#p91788f99e9)" d="M 402.590316 165.537593 
C 403.060376 165.537593 403.511248 165.350836 403.84363 165.018453 
C 404.176013 164.68607 404.36277 164.235199 404.36277 163.765139 
C 404.36277 163.295079 404.176013 162.844208 403.84363 162.511825 
C 403.511248 162.179442 403.060376 161.992685 402.590316 161.992685 
C 402.120256 161.992685 401.669385 162.179442 401.337002 162.511825 
C 401.004619 162.844208 400.817862 163.295079 400.817862 163.765139 
C 400.817862 164.235199 401.004619 164.68607 401.337002 165.018453 
C 401.669385 165.350836 402.120256 165.537593 402.590316 165.537593 
z
" style="fill:#0077bb;stroke:#0077bb;stroke-width:0.886227;"/>
    <path clip-path="url(#p91788f99e9)" d="M 416.072648 193.598091 
C 416.542708 193.598091 416.993579 193.411335 417.325962 193.078952 
C 417.658345 192.746569 417.845102 192.295698 417.845102 191.825638 
C 417.845102 191.355577 417.658345 190.904706 417.325962 190.572323 
C 416.993579 190.239941 416.542708 190.053184 416.072648 190.053184 
C 415.602588 190.053184 415.151716 190.239941 414.819334 190.572323 
C 414.486951 190.904706 414.300194 191.355577 414.300194 191.825638 
C 414.300194 192.295698 414.486951 192.746569 414.819334 193.078952 
C 415.151716 193.411335 415.602588 193.598091 416.072648 193.598091 
z
" style="fill:#0077bb;stroke:#0077bb;stroke-width:0.886227;"/>
    <path clip-path="url(#p91788f99e9)" d="M 429.554979 194.606816 
C 430.02504 194.606816 430.475911 194.420059 430.808294 194.087677 
C 431.140676 193.755294 431.327433 193.304423 431.327433 192.834362 
C 431.327433 192.364302 431.140676 191.913431 430.808294 191.581048 
C 430.475911 191.248665 430.02504 191.061909 429.554979 191.061909 
C 429.084919 191.061909 428.634048 191.248665 428.301665 191.581048 
C 427.969283 191.913431 427.782526 192.364302 427.782526 192.834362 
C 427.782526 193.304423 427.969283 193.755294 428.301665 194.087677 
C 428.634048 194.420059 429.084919 194.606816 429.554979 194.606816 
z
" style="fill:#0077bb;stroke:#0077bb;stroke-width:0.886227;"/>
    <path clip-path="url(#p91788f99e9)" d="M 443.037311 215.369232 
C 443.507371 215.369232 443.958242 215.182475 444.290625 214.850093 
C 444.623008 214.51771 444.809765 214.066839 444.809765 213.596779 
C 444.809765 213.126718 444.623008 212.675847 444.290625 212.343464 
C 443.958242 212.011082 443.507371 211.824325 443.037311 211.824325 
C 442.567251 211.824325 442.11638 212.011082 441.783997 212.343464 
C 441.451614 212.675847 441.264857 213.126718 441.264857 213.596779 
C 441.264857 214.066839 441.451614 214.51771 441.783997 214.850093 
C 442.11638 215.182475 442.567251 215.369232 443.037311 215.369232 
z
" style="fill:#0077bb;stroke:#0077bb;stroke-width:0.886227;"/>
    <path clip-path="url(#p91788f99e9)" d="M 456.519643 135.363863 
C 456.989703 135.363863 457.440574 135.177106 457.772957 134.844724 
C 458.10534 134.512341 458.292097 134.06147 458.292097 133.591409 
C 458.292097 133.121349 458.10534 132.670478 457.772957 132.338095 
C 457.440574 132.005712 456.989703 131.818956 456.519643 131.818956 
C 456.049582 131.818956 455.598711 132.005712 455.266329 132.338095 
C 454.933946 132.670478 454.747189 133.121349 454.747189 133.591409 
C 454.747189 134.06147 454.933946 134.512341 455.266329 134.844724 
C 455.598711 135.177106 456.049582 135.363863 456.519643 135.363863 
z
" style="fill:#0077bb;stroke:#0077bb;stroke-width:0.886227;"/>
    <path clip-path="url(#p91788f99e9)" d="M 470.001974 152.393969 
C 470.472035 152.393969 470.922906 152.207212 471.255288 151.874829 
C 471.587671 151.542446 471.774428 151.091575 471.774428 150.621515 
C 471.774428 150.151455 471.587671 149.700584 471.255288 149.368201 
C 470.922906 149.035818 470.472035 148.849061 470.001974 148.849061 
C 469.531914 148.849061 469.081043 149.035818 468.74866 149.368201 
C 468.416277 149.700584 468.22952 150.151455 468.22952 150.621515 
C 468.22952 151.091575 468.416277 151.542446 468.74866 151.874829 
C 469.081043 152.207212 469.531914 152.393969 470.001974 152.393969 
z
" style="fill:#0077bb;stroke:#0077bb;stroke-width:0.886227;"/>
   </g>
  </g>
 </g>
 <defs>
  <clipPath id="p91788f99e9">
   <rect height="221.76" width="446.4" x="44.567" y="7.2"/>
  </clipPath>
 </defs>
</svg>
