<?xml version="1.0" encoding="utf-8" standalone="no"?>
<!DOCTYPE svg PUBLIC "-//W3C//DTD SVG 1.1//EN"
  "http://www.w3.org/Graphics/SVG/1.1/DTD/svg11.dtd">
<!-- Created with matplotlib (https://matplotlib.org/) -->
<svg height="264.672687pt" version="1.1" viewBox="0 0 498.717 264.672687" width="498.717pt" xmlns="http://www.w3.org/2000/svg" xmlns:xlink="http://www.w3.org/1999/xlink">
 <defs>
  <style type="text/css">
*{stroke-linecap:butt;stroke-linejoin:round;}
  </style>
 </defs>
 <g id="figure_1">
  <g id="patch_1">
   <path d="M 0 264.672687 
L 498.717 264.672687 
L 498.717 0 
L 0 0 
z
" style="fill:#ffffff;stroke:#ffffff;stroke-linejoin:miter;"/>
  </g>
  <g id="axes_1">
   <g id="patch_2">
    <path d="M 45.117 228.96 
L 491.517 228.96 
L 491.517 7.2 
L 45.117 7.2 
z
" style="fill:#ffffff;"/>
   </g>
   <g id="matplotlib.axis_1">
    <g id="xtick_1">
     <g id="line2d_1">
      <path d="M 65.407909 228.96 
" style="fill:none;stroke:#000000;stroke-width:1.5;"/>
      <defs>
       <path d="M 0 0 
L 0 2.75 
" id="mcac9082d09" style="stroke:#000000;"/>
      </defs>
      <g>
       <use style="stroke:#000000;" x="65.407909" xlink:href="#mcac9082d09" y="228.96"/>
      </g>
     </g>
     <g id="text_1">
      <!-- 1970 -->
      <defs>
       <path d="M 12.40625 8.296875 
L 28.515625 8.296875 
L 28.515625 63.921875 
L 10.984375 60.40625 
L 10.984375 69.390625 
L 28.421875 72.90625 
L 38.28125 72.90625 
L 38.28125 8.296875 
L 54.390625 8.296875 
L 54.390625 0 
L 12.40625 0 
z
" id="DejaVuSans-49"/>
       <path d="M 10.984375 1.515625 
L 10.984375 10.5 
Q 14.703125 8.734375 18.5 7.8125 
Q 22.3125 6.890625 25.984375 6.890625 
Q 35.75 6.890625 40.890625 13.453125 
Q 46.046875 20.015625 46.78125 33.40625 
Q 43.953125 29.203125 39.59375 26.953125 
Q 35.25 24.703125 29.984375 24.703125 
Q 19.046875 24.703125 12.671875 31.3125 
Q 6.296875 37.9375 6.296875 49.421875 
Q 6.296875 60.640625 12.9375 67.421875 
Q 19.578125 74.21875 30.609375 74.21875 
Q 43.265625 74.21875 49.921875 64.515625 
Q 56.59375 54.828125 56.59375 36.375 
Q 56.59375 19.140625 48.40625 8.859375 
Q 40.234375 -1.421875 26.421875 -1.421875 
Q 22.703125 -1.421875 18.890625 -0.6875 
Q 15.09375 0.046875 10.984375 1.515625 
z
M 30.609375 32.421875 
Q 37.25 32.421875 41.125 36.953125 
Q 45.015625 41.5 45.015625 49.421875 
Q 45.015625 57.28125 41.125 61.84375 
Q 37.25 66.40625 30.609375 66.40625 
Q 23.96875 66.40625 20.09375 61.84375 
Q 16.21875 57.28125 16.21875 49.421875 
Q 16.21875 41.5 20.09375 36.953125 
Q 23.96875 32.421875 30.609375 32.421875 
z
" id="DejaVuSans-57"/>
       <path d="M 8.203125 72.90625 
L 55.078125 72.90625 
L 55.078125 68.703125 
L 28.609375 0 
L 18.3125 0 
L 43.21875 64.59375 
L 8.203125 64.59375 
z
" id="DejaVuSans-55"/>
       <path d="M 31.78125 66.40625 
Q 24.171875 66.40625 20.328125 58.90625 
Q 16.5 51.421875 16.5 36.375 
Q 16.5 21.390625 20.328125 13.890625 
Q 24.171875 6.390625 31.78125 6.390625 
Q 39.453125 6.390625 43.28125 13.890625 
Q 47.125 21.390625 47.125 36.375 
Q 47.125 51.421875 43.28125 58.90625 
Q 39.453125 66.40625 31.78125 66.40625 
z
M 31.78125 74.21875 
Q 44.046875 74.21875 50.515625 64.515625 
Q 56.984375 54.828125 56.984375 36.375 
Q 56.984375 17.96875 50.515625 8.265625 
Q 44.046875 -1.421875 31.78125 -1.421875 
Q 19.53125 -1.421875 13.0625 8.265625 
Q 6.59375 17.96875 6.59375 36.375 
Q 6.59375 54.828125 13.0625 64.515625 
Q 19.53125 74.21875 31.78125 74.21875 
z
" id="DejaVuSans-48"/>
      </defs>
      <g transform="translate(54.209909 240.596625)scale(0.088 -0.088)">
       <use xlink:href="#DejaVuSans-49"/>
       <use x="63.623047" xlink:href="#DejaVuSans-57"/>
       <use x="127.246094" xlink:href="#DejaVuSans-55"/>
       <use x="190.869141" xlink:href="#DejaVuSans-48"/>
      </g>
     </g>
    </g>
    <g id="xtick_2">
     <g id="line2d_2">
      <path d="M 146.571545 228.96 
" style="fill:none;stroke:#000000;stroke-width:1.5;"/>
      <g>
       <use style="stroke:#000000;" x="146.571545" xlink:href="#mcac9082d09" y="228.96"/>
      </g>
     </g>
     <g id="text_2">
      <!-- 1980 -->
      <defs>
       <path d="M 31.78125 34.625 
Q 24.75 34.625 20.71875 30.859375 
Q 16.703125 27.09375 16.703125 20.515625 
Q 16.703125 13.921875 20.71875 10.15625 
Q 24.75 6.390625 31.78125 6.390625 
Q 38.8125 6.390625 42.859375 10.171875 
Q 46.921875 13.96875 46.921875 20.515625 
Q 46.921875 27.09375 42.890625 30.859375 
Q 38.875 34.625 31.78125 34.625 
z
M 21.921875 38.8125 
Q 15.578125 40.375 12.03125 44.71875 
Q 8.5 49.078125 8.5 55.328125 
Q 8.5 64.0625 14.71875 69.140625 
Q 20.953125 74.21875 31.78125 74.21875 
Q 42.671875 74.21875 48.875 69.140625 
Q 55.078125 64.0625 55.078125 55.328125 
Q 55.078125 49.078125 51.53125 44.71875 
Q 48 40.375 41.703125 38.8125 
Q 48.828125 37.15625 52.796875 32.3125 
Q 56.78125 27.484375 56.78125 20.515625 
Q 56.78125 9.90625 50.3125 4.234375 
Q 43.84375 -1.421875 31.78125 -1.421875 
Q 19.734375 -1.421875 13.25 4.234375 
Q 6.78125 9.90625 6.78125 20.515625 
Q 6.78125 27.484375 10.78125 32.3125 
Q 14.796875 37.15625 21.921875 38.8125 
z
M 18.3125 54.390625 
Q 18.3125 48.734375 21.84375 45.5625 
Q 25.390625 42.390625 31.78125 42.390625 
Q 38.140625 42.390625 41.71875 45.5625 
Q 45.3125 48.734375 45.3125 54.390625 
Q 45.3125 60.0625 41.71875 63.234375 
Q 38.140625 66.40625 31.78125 66.40625 
Q 25.390625 66.40625 21.84375 63.234375 
Q 18.3125 60.0625 18.3125 54.390625 
z
" id="DejaVuSans-56"/>
      </defs>
      <g transform="translate(135.373545 240.596625)scale(0.088 -0.088)">
       <use xlink:href="#DejaVuSans-49"/>
       <use x="63.623047" xlink:href="#DejaVuSans-57"/>
       <use x="127.246094" xlink:href="#DejaVuSans-56"/>
       <use x="190.869141" xlink:href="#DejaVuSans-48"/>
      </g>
     </g>
    </g>
    <g id="xtick_3">
     <g id="line2d_3">
      <path d="M 227.735182 228.96 
" style="fill:none;stroke:#000000;stroke-width:1.5;"/>
      <g>
       <use style="stroke:#000000;" x="227.735182" xlink:href="#mcac9082d09" y="228.96"/>
      </g>
     </g>
     <g id="text_3">
      <!-- 1990 -->
      <g transform="translate(216.537182 240.596625)scale(0.088 -0.088)">
       <use xlink:href="#DejaVuSans-49"/>
       <use x="63.623047" xlink:href="#DejaVuSans-57"/>
       <use x="127.246094" xlink:href="#DejaVuSans-57"/>
       <use x="190.869141" xlink:href="#DejaVuSans-48"/>
      </g>
     </g>
    </g>
    <g id="xtick_4">
     <g id="line2d_4">
      <path d="M 308.898818 228.96 
" style="fill:none;stroke:#000000;stroke-width:1.5;"/>
      <g>
       <use style="stroke:#000000;" x="308.898818" xlink:href="#mcac9082d09" y="228.96"/>
      </g>
     </g>
     <g id="text_4">
      <!-- 2000 -->
      <defs>
       <path d="M 19.1875 8.296875 
L 53.609375 8.296875 
L 53.609375 0 
L 7.328125 0 
L 7.328125 8.296875 
Q 12.9375 14.109375 22.625 23.890625 
Q 32.328125 33.6875 34.8125 36.53125 
Q 39.546875 41.84375 41.421875 45.53125 
Q 43.3125 49.21875 43.3125 52.78125 
Q 43.3125 58.59375 39.234375 62.25 
Q 35.15625 65.921875 28.609375 65.921875 
Q 23.96875 65.921875 18.8125 64.3125 
Q 13.671875 62.703125 7.8125 59.421875 
L 7.8125 69.390625 
Q 13.765625 71.78125 18.9375 73 
Q 24.125 74.21875 28.421875 74.21875 
Q 39.75 74.21875 46.484375 68.546875 
Q 53.21875 62.890625 53.21875 53.421875 
Q 53.21875 48.921875 51.53125 44.890625 
Q 49.859375 40.875 45.40625 35.40625 
Q 44.1875 33.984375 37.640625 27.21875 
Q 31.109375 20.453125 19.1875 8.296875 
z
" id="DejaVuSans-50"/>
      </defs>
      <g transform="translate(297.700818 240.596625)scale(0.088 -0.088)">
       <use xlink:href="#DejaVuSans-50"/>
       <use x="63.623047" xlink:href="#DejaVuSans-48"/>
       <use x="127.246094" xlink:href="#DejaVuSans-48"/>
       <use x="190.869141" xlink:href="#DejaVuSans-48"/>
      </g>
     </g>
    </g>
    <g id="xtick_5">
     <g id="line2d_5">
      <path d="M 390.062455 228.96 
" style="fill:none;stroke:#000000;stroke-width:1.5;"/>
      <g>
       <use style="stroke:#000000;" x="390.062455" xlink:href="#mcac9082d09" y="228.96"/>
      </g>
     </g>
     <g id="text_5">
      <!-- 2010 -->
      <g transform="translate(378.864455 240.596625)scale(0.088 -0.088)">
       <use xlink:href="#DejaVuSans-50"/>
       <use x="63.623047" xlink:href="#DejaVuSans-48"/>
       <use x="127.246094" xlink:href="#DejaVuSans-49"/>
       <use x="190.869141" xlink:href="#DejaVuSans-48"/>
      </g>
     </g>
    </g>
    <g id="xtick_6">
     <g id="line2d_6">
      <path d="M 471.226091 228.96 
" style="fill:none;stroke:#000000;stroke-width:1.5;"/>
      <g>
       <use style="stroke:#000000;" x="471.226091" xlink:href="#mcac9082d09" y="228.96"/>
      </g>
     </g>
     <g id="text_6">
      <!-- 2020 -->
      <g transform="translate(460.028091 240.596625)scale(0.088 -0.088)">
       <use xlink:href="#DejaVuSans-50"/>
       <use x="63.623047" xlink:href="#DejaVuSans-48"/>
       <use x="127.246094" xlink:href="#DejaVuSans-50"/>
       <use x="190.869141" xlink:href="#DejaVuSans-48"/>
      </g>
     </g>
    </g>
    <g id="xtick_7">
     <g id="line2d_7">
      <path d="M 105.989727 228.96 
" style="fill:none;stroke:#000000;stroke-width:1.5;"/>
      <defs>
       <path d="M 0 0 
L 0 1.375 
" id="m1fcb22aad5" style="stroke:#000000;"/>
      </defs>
      <g>
       <use style="stroke:#000000;" x="105.989727" xlink:href="#m1fcb22aad5" y="228.96"/>
      </g>
     </g>
    </g>
    <g id="xtick_8">
     <g id="line2d_8">
      <path d="M 187.153364 228.96 
" style="fill:none;stroke:#000000;stroke-width:1.5;"/>
      <g>
       <use style="stroke:#000000;" x="187.153364" xlink:href="#m1fcb22aad5" y="228.96"/>
      </g>
     </g>
    </g>
    <g id="xtick_9">
     <g id="line2d_9">
      <path d="M 268.317 228.96 
" style="fill:none;stroke:#000000;stroke-width:1.5;"/>
      <g>
       <use style="stroke:#000000;" x="268.317" xlink:href="#m1fcb22aad5" y="228.96"/>
      </g>
     </g>
    </g>
    <g id="xtick_10">
     <g id="line2d_10">
      <path d="M 349.480636 228.96 
" style="fill:none;stroke:#000000;stroke-width:1.5;"/>
      <g>
       <use style="stroke:#000000;" x="349.480636" xlink:href="#m1fcb22aad5" y="228.96"/>
      </g>
     </g>
    </g>
    <g id="xtick_11">
     <g id="line2d_11">
      <path d="M 430.644273 228.96 
" style="fill:none;stroke:#000000;stroke-width:1.5;"/>
      <g>
       <use style="stroke:#000000;" x="430.644273" xlink:href="#m1fcb22aad5" y="228.96"/>
      </g>
     </g>
    </g>
    <g id="text_7">
     <!-- Year -->
     <defs>
      <path d="M -0.203125 72.90625 
L 10.40625 72.90625 
L 30.609375 42.921875 
L 50.6875 72.90625 
L 61.28125 72.90625 
L 35.5 34.71875 
L 35.5 0 
L 25.59375 0 
L 25.59375 34.71875 
z
" id="DejaVuSans-89"/>
      <path d="M 56.203125 29.59375 
L 56.203125 25.203125 
L 14.890625 25.203125 
Q 15.484375 15.921875 20.484375 11.0625 
Q 25.484375 6.203125 34.421875 6.203125 
Q 39.59375 6.203125 44.453125 7.46875 
Q 49.3125 8.734375 54.109375 11.28125 
L 54.109375 2.78125 
Q 49.265625 0.734375 44.1875 -0.34375 
Q 39.109375 -1.421875 33.890625 -1.421875 
Q 20.796875 -1.421875 13.15625 6.1875 
Q 5.515625 13.8125 5.515625 26.8125 
Q 5.515625 40.234375 12.765625 48.109375 
Q 20.015625 56 32.328125 56 
Q 43.359375 56 49.78125 48.890625 
Q 56.203125 41.796875 56.203125 29.59375 
z
M 47.21875 32.234375 
Q 47.125 39.59375 43.09375 43.984375 
Q 39.0625 48.390625 32.421875 48.390625 
Q 24.90625 48.390625 20.390625 44.140625 
Q 15.875 39.890625 15.1875 32.171875 
z
" id="DejaVuSans-101"/>
      <path d="M 34.28125 27.484375 
Q 23.390625 27.484375 19.1875 25 
Q 14.984375 22.515625 14.984375 16.5 
Q 14.984375 11.71875 18.140625 8.90625 
Q 21.296875 6.109375 26.703125 6.109375 
Q 34.1875 6.109375 38.703125 11.40625 
Q 43.21875 16.703125 43.21875 25.484375 
L 43.21875 27.484375 
z
M 52.203125 31.203125 
L 52.203125 0 
L 43.21875 0 
L 43.21875 8.296875 
Q 40.140625 3.328125 35.546875 0.953125 
Q 30.953125 -1.421875 24.3125 -1.421875 
Q 15.921875 -1.421875 10.953125 3.296875 
Q 6 8.015625 6 15.921875 
Q 6 25.140625 12.171875 29.828125 
Q 18.359375 34.515625 30.609375 34.515625 
L 43.21875 34.515625 
L 43.21875 35.40625 
Q 43.21875 41.609375 39.140625 45 
Q 35.0625 48.390625 27.6875 48.390625 
Q 23 48.390625 18.546875 47.265625 
Q 14.109375 46.140625 10.015625 43.890625 
L 10.015625 52.203125 
Q 14.9375 54.109375 19.578125 55.046875 
Q 24.21875 56 28.609375 56 
Q 40.484375 56 46.34375 49.84375 
Q 52.203125 43.703125 52.203125 31.203125 
z
" id="DejaVuSans-97"/>
      <path d="M 41.109375 46.296875 
Q 39.59375 47.171875 37.8125 47.578125 
Q 36.03125 48 33.890625 48 
Q 26.265625 48 22.1875 43.046875 
Q 18.109375 38.09375 18.109375 28.8125 
L 18.109375 0 
L 9.078125 0 
L 9.078125 54.6875 
L 18.109375 54.6875 
L 18.109375 46.1875 
Q 20.953125 51.171875 25.484375 53.578125 
Q 30.03125 56 36.53125 56 
Q 37.453125 56 38.578125 55.875 
Q 39.703125 55.765625 41.0625 55.515625 
z
" id="DejaVuSans-114"/>
     </defs>
     <g transform="translate(248.753172 255.185031)scale(0.11 -0.11)">
      <use xlink:href="#DejaVuSans-89"/>
      <use x="60.880859" xlink:href="#DejaVuSans-101"/>
      <use x="122.404297" xlink:href="#DejaVuSans-97"/>
      <use x="183.683594" xlink:href="#DejaVuSans-114"/>
     </g>
    </g>
   </g>
   <g id="matplotlib.axis_2">
    <g id="ytick_1">
     <g id="line2d_12">
      <path d="M 45.117 218.88 
" style="fill:none;stroke:#000000;stroke-width:1.5;"/>
      <defs>
       <path d="M 0 0 
L -2.75 0 
" id="m3ed308b029" style="stroke:#000000;"/>
      </defs>
      <g>
       <use style="stroke:#000000;" x="45.117" xlink:href="#m3ed308b029" y="218.88"/>
      </g>
     </g>
     <g id="text_8">
      <!-- 0 -->
      <g transform="translate(34.568 221.30825)scale(0.088 -0.088)">
       <use xlink:href="#DejaVuSans-48"/>
      </g>
     </g>
    </g>
    <g id="ytick_2">
     <g id="line2d_13">
      <path d="M 45.117 168.48 
" style="fill:none;stroke:#000000;stroke-width:1.5;"/>
      <g>
       <use style="stroke:#000000;" x="45.117" xlink:href="#m3ed308b029" y="168.48"/>
      </g>
     </g>
     <g id="text_9">
      <!-- 25 -->
      <defs>
       <path d="M 10.796875 72.90625 
L 49.515625 72.90625 
L 49.515625 64.59375 
L 19.828125 64.59375 
L 19.828125 46.734375 
Q 21.96875 47.46875 24.109375 47.828125 
Q 26.265625 48.1875 28.421875 48.1875 
Q 40.625 48.1875 47.75 41.5 
Q 54.890625 34.8125 54.890625 23.390625 
Q 54.890625 11.625 47.5625 5.09375 
Q 40.234375 -1.421875 26.90625 -1.421875 
Q 22.3125 -1.421875 17.546875 -0.640625 
Q 12.796875 0.140625 7.71875 1.703125 
L 7.71875 11.625 
Q 12.109375 9.234375 16.796875 8.0625 
Q 21.484375 6.890625 26.703125 6.890625 
Q 35.15625 6.890625 40.078125 11.328125 
Q 45.015625 15.765625 45.015625 23.390625 
Q 45.015625 31 40.078125 35.4375 
Q 35.15625 39.890625 26.703125 39.890625 
Q 22.75 39.890625 18.8125 39.015625 
Q 14.890625 38.140625 10.796875 36.28125 
z
" id="DejaVuSans-53"/>
      </defs>
      <g transform="translate(28.969 170.90825)scale(0.088 -0.088)">
       <use xlink:href="#DejaVuSans-50"/>
       <use x="63.623047" xlink:href="#DejaVuSans-53"/>
      </g>
     </g>
    </g>
    <g id="ytick_3">
     <g id="line2d_14">
      <path d="M 45.117 118.08 
" style="fill:none;stroke:#000000;stroke-width:1.5;"/>
      <g>
       <use style="stroke:#000000;" x="45.117" xlink:href="#m3ed308b029" y="118.08"/>
      </g>
     </g>
     <g id="text_10">
      <!-- 50 -->
      <g transform="translate(28.969 120.50825)scale(0.088 -0.088)">
       <use xlink:href="#DejaVuSans-53"/>
       <use x="63.623047" xlink:href="#DejaVuSans-48"/>
      </g>
     </g>
    </g>
    <g id="ytick_4">
     <g id="line2d_15">
      <path d="M 45.117 67.68 
" style="fill:none;stroke:#000000;stroke-width:1.5;"/>
      <g>
       <use style="stroke:#000000;" x="45.117" xlink:href="#m3ed308b029" y="67.68"/>
      </g>
     </g>
     <g id="text_11">
      <!-- 75 -->
      <g transform="translate(28.969 70.10825)scale(0.088 -0.088)">
       <use xlink:href="#DejaVuSans-55"/>
       <use x="63.623047" xlink:href="#DejaVuSans-53"/>
      </g>
     </g>
    </g>
    <g id="ytick_5">
     <g id="line2d_16">
      <path d="M 45.117 17.28 
" style="fill:none;stroke:#000000;stroke-width:1.5;"/>
      <g>
       <use style="stroke:#000000;" x="45.117" xlink:href="#m3ed308b029" y="17.28"/>
      </g>
     </g>
     <g id="text_12">
      <!-- 100 -->
      <g transform="translate(23.37 19.70825)scale(0.088 -0.088)">
       <use xlink:href="#DejaVuSans-49"/>
       <use x="63.623047" xlink:href="#DejaVuSans-48"/>
       <use x="127.246094" xlink:href="#DejaVuSans-48"/>
      </g>
     </g>
    </g>
    <g id="ytick_6">
     <g id="line2d_17">
      <path d="M 45.117 193.68 
" style="fill:none;stroke:#000000;stroke-width:1.5;"/>
      <defs>
       <path d="M 0 0 
L -1.375 0 
" id="mc3bc53dd3e" style="stroke:#000000;"/>
      </defs>
      <g>
       <use style="stroke:#000000;" x="45.117" xlink:href="#mc3bc53dd3e" y="193.68"/>
      </g>
     </g>
    </g>
    <g id="ytick_7">
     <g id="line2d_18">
      <path d="M 45.117 143.28 
" style="fill:none;stroke:#000000;stroke-width:1.5;"/>
      <g>
       <use style="stroke:#000000;" x="45.117" xlink:href="#mc3bc53dd3e" y="143.28"/>
      </g>
     </g>
    </g>
    <g id="ytick_8">
     <g id="line2d_19">
      <path d="M 45.117 92.88 
" style="fill:none;stroke:#000000;stroke-width:1.5;"/>
      <g>
       <use style="stroke:#000000;" x="45.117" xlink:href="#mc3bc53dd3e" y="92.88"/>
      </g>
     </g>
    </g>
    <g id="ytick_9">
     <g id="line2d_20">
      <path d="M 45.117 42.48 
" style="fill:none;stroke:#000000;stroke-width:1.5;"/>
      <g>
       <use style="stroke:#000000;" x="45.117" xlink:href="#mc3bc53dd3e" y="42.48"/>
      </g>
     </g>
    </g>
    <g id="text_13">
     <!-- $P_{Q1p_{min}}$ [%] -->
     <defs>
      <path d="M 16.890625 72.90625 
L 39.703125 72.90625 
Q 49.65625 72.90625 54.875 68.265625 
Q 60.109375 63.625 60.109375 54.6875 
Q 60.109375 42.671875 52.390625 35.984375 
Q 44.671875 29.296875 30.71875 29.296875 
L 18.3125 29.296875 
L 12.59375 0 
L 2.6875 0 
z
M 25.203125 64.796875 
L 19.921875 37.40625 
L 32.328125 37.40625 
Q 40.71875 37.40625 45.203125 41.703125 
Q 49.703125 46 49.703125 54 
Q 49.703125 59.125 46.65625 61.953125 
Q 43.609375 64.796875 38.09375 64.796875 
z
" id="DejaVuSans-Oblique-80"/>
      <path d="M 36.078125 -1.3125 
Q 35.546875 -1.375 34.953125 -1.390625 
Q 34.375 -1.421875 33.203125 -1.421875 
Q 19.53125 -1.421875 11.8125 6.421875 
Q 4.109375 14.265625 4.109375 28.078125 
Q 4.109375 36.234375 7.0625 44.4375 
Q 10.015625 52.640625 15.28125 59.1875 
Q 21.390625 66.703125 29.03125 70.453125 
Q 36.671875 74.21875 45.90625 74.21875 
Q 59.28125 74.21875 66.984375 66.328125 
Q 74.703125 58.453125 74.703125 44.828125 
Q 74.703125 30.125 66.640625 17.921875 
Q 58.59375 5.71875 45.609375 0.6875 
L 55.515625 -12.890625 
L 44.484375 -12.890625 
z
M 45.609375 66.21875 
Q 37.5 66.21875 31.296875 62.28125 
Q 25.09375 58.34375 20.515625 50.296875 
Q 17.578125 45.171875 16.03125 39.40625 
Q 14.5 33.640625 14.5 27.78125 
Q 14.5 17.625 19.359375 12.109375 
Q 24.21875 6.59375 33.109375 6.59375 
Q 41.109375 6.59375 47.375 10.5625 
Q 53.65625 14.546875 58.109375 22.40625 
Q 61.078125 27.6875 62.640625 33.46875 
Q 64.203125 39.265625 64.203125 45.015625 
Q 64.203125 55.125 59.3125 60.671875 
Q 54.4375 66.21875 45.609375 66.21875 
z
" id="DejaVuSans-Oblique-81"/>
      <path d="M 49.609375 33.6875 
Q 49.609375 40.875 46.484375 44.671875 
Q 43.359375 48.484375 37.5 48.484375 
Q 33.5 48.484375 29.859375 46.4375 
Q 26.21875 44.390625 23.390625 40.484375 
Q 20.609375 36.625 18.9375 31.15625 
Q 17.28125 25.6875 17.28125 20.3125 
Q 17.28125 13.484375 20.40625 9.796875 
Q 23.53125 6.109375 29.296875 6.109375 
Q 33.546875 6.109375 37.1875 8.109375 
Q 40.828125 10.109375 43.40625 13.921875 
Q 46.1875 17.921875 47.890625 23.34375 
Q 49.609375 28.765625 49.609375 33.6875 
z
M 21.78125 46.390625 
Q 25.390625 51.125 30.296875 53.5625 
Q 35.203125 56 41.21875 56 
Q 49.609375 56 54.25 50.5 
Q 58.890625 45.015625 58.890625 35.109375 
Q 58.890625 27 56 19.65625 
Q 53.125 12.3125 47.703125 6.5 
Q 44.09375 2.640625 39.546875 0.609375 
Q 35.015625 -1.421875 29.984375 -1.421875 
Q 24.171875 -1.421875 20.21875 1 
Q 16.265625 3.421875 14.3125 8.203125 
L 8.6875 -20.796875 
L -0.296875 -20.796875 
L 14.40625 54.6875 
L 23.390625 54.6875 
z
" id="DejaVuSans-Oblique-112"/>
      <path d="M 89.796875 33.015625 
L 83.40625 0 
L 74.421875 0 
L 80.71875 32.71875 
Q 81.109375 34.8125 81.296875 36.328125 
Q 81.5 37.84375 81.5 38.921875 
Q 81.5 43.3125 79.046875 45.75 
Q 76.609375 48.1875 72.21875 48.1875 
Q 65.671875 48.1875 60.546875 43.28125 
Q 55.421875 38.375 53.90625 30.515625 
L 47.90625 0 
L 38.921875 0 
L 45.3125 32.71875 
Q 45.703125 34.515625 45.890625 36.046875 
Q 46.09375 37.59375 46.09375 38.8125 
Q 46.09375 43.265625 43.65625 45.71875 
Q 41.21875 48.1875 36.921875 48.1875 
Q 30.28125 48.1875 25.140625 43.28125 
Q 20.015625 38.375 18.5 30.515625 
L 12.5 0 
L 3.515625 0 
L 14.203125 54.6875 
L 23.1875 54.6875 
L 21.484375 46.1875 
Q 25.140625 50.984375 30.046875 53.484375 
Q 34.96875 56 40.578125 56 
Q 46.53125 56 50.359375 52.875 
Q 54.203125 49.75 54.984375 44.1875 
Q 59.078125 49.953125 64.46875 52.96875 
Q 69.875 56 75.875 56 
Q 82.90625 56 86.734375 51.953125 
Q 90.578125 47.90625 90.578125 40.484375 
Q 90.578125 38.875 90.375 36.9375 
Q 90.1875 35.015625 89.796875 33.015625 
z
" id="DejaVuSans-Oblique-109"/>
      <path d="M 18.3125 75.984375 
L 27.296875 75.984375 
L 25.09375 64.59375 
L 16.109375 64.59375 
z
M 14.203125 54.6875 
L 23.1875 54.6875 
L 12.5 0 
L 3.515625 0 
z
" id="DejaVuSans-Oblique-105"/>
      <path d="M 55.71875 33.015625 
L 49.3125 0 
L 40.28125 0 
L 46.6875 32.671875 
Q 47.125 34.96875 47.359375 36.71875 
Q 47.609375 38.484375 47.609375 39.5 
Q 47.609375 43.609375 45.015625 45.890625 
Q 42.4375 48.1875 37.796875 48.1875 
Q 30.5625 48.1875 25.34375 43.375 
Q 20.125 38.578125 18.5 30.328125 
L 12.5 0 
L 3.515625 0 
L 14.109375 54.6875 
L 23.09375 54.6875 
L 21.296875 46.09375 
Q 25.046875 50.828125 30.3125 53.40625 
Q 35.59375 56 41.40625 56 
Q 48.640625 56 52.609375 52.09375 
Q 56.59375 48.1875 56.59375 41.109375 
Q 56.59375 39.359375 56.375 37.359375 
Q 56.15625 35.359375 55.71875 33.015625 
z
" id="DejaVuSans-Oblique-110"/>
      <path id="DejaVuSans-32"/>
      <path d="M 8.59375 75.984375 
L 29.296875 75.984375 
L 29.296875 69 
L 17.578125 69 
L 17.578125 -6.203125 
L 29.296875 -6.203125 
L 29.296875 -13.1875 
L 8.59375 -13.1875 
z
" id="DejaVuSans-91"/>
      <path d="M 72.703125 32.078125 
Q 68.453125 32.078125 66.03125 28.46875 
Q 63.625 24.859375 63.625 18.40625 
Q 63.625 12.0625 66.03125 8.421875 
Q 68.453125 4.78125 72.703125 4.78125 
Q 76.859375 4.78125 79.265625 8.421875 
Q 81.6875 12.0625 81.6875 18.40625 
Q 81.6875 24.8125 79.265625 28.4375 
Q 76.859375 32.078125 72.703125 32.078125 
z
M 72.703125 38.28125 
Q 80.421875 38.28125 84.953125 32.90625 
Q 89.5 27.546875 89.5 18.40625 
Q 89.5 9.28125 84.9375 3.921875 
Q 80.375 -1.421875 72.703125 -1.421875 
Q 64.890625 -1.421875 60.34375 3.921875 
Q 55.8125 9.28125 55.8125 18.40625 
Q 55.8125 27.59375 60.375 32.9375 
Q 64.9375 38.28125 72.703125 38.28125 
z
M 22.3125 68.015625 
Q 18.109375 68.015625 15.6875 64.375 
Q 13.28125 60.75 13.28125 54.390625 
Q 13.28125 47.953125 15.671875 44.328125 
Q 18.0625 40.71875 22.3125 40.71875 
Q 26.5625 40.71875 28.96875 44.328125 
Q 31.390625 47.953125 31.390625 54.390625 
Q 31.390625 60.6875 28.953125 64.34375 
Q 26.515625 68.015625 22.3125 68.015625 
z
M 66.40625 74.21875 
L 74.21875 74.21875 
L 28.609375 -1.421875 
L 20.796875 -1.421875 
z
M 22.3125 74.21875 
Q 30.03125 74.21875 34.609375 68.875 
Q 39.203125 63.53125 39.203125 54.390625 
Q 39.203125 45.171875 34.640625 39.84375 
Q 30.078125 34.515625 22.3125 34.515625 
Q 14.546875 34.515625 10.03125 39.859375 
Q 5.515625 45.21875 5.515625 54.390625 
Q 5.515625 63.484375 10.046875 68.84375 
Q 14.59375 74.21875 22.3125 74.21875 
z
" id="DejaVuSans-37"/>
      <path d="M 30.421875 75.984375 
L 30.421875 -13.1875 
L 9.71875 -13.1875 
L 9.71875 -6.203125 
L 21.390625 -6.203125 
L 21.390625 69 
L 9.71875 69 
L 9.71875 75.984375 
z
" id="DejaVuSans-93"/>
     </defs>
     <g transform="translate(15.56 144.525)rotate(-90)scale(0.11 -0.11)">
      <use transform="translate(0 0.015625)" xlink:href="#DejaVuSans-Oblique-80"/>
      <use transform="translate(60.302734 -16.390625)scale(0.7)" xlink:href="#DejaVuSans-Oblique-81"/>
      <use transform="translate(115.400391 -16.390625)scale(0.7)" xlink:href="#DejaVuSans-49"/>
      <use transform="translate(159.936523 -16.390625)scale(0.7)" xlink:href="#DejaVuSans-Oblique-112"/>
      <use transform="translate(204.370117 -27.875)scale(0.49)" xlink:href="#DejaVuSans-Oblique-109"/>
      <use transform="translate(252.102051 -27.875)scale(0.49)" xlink:href="#DejaVuSans-Oblique-105"/>
      <use transform="translate(265.71582 -27.875)scale(0.49)" xlink:href="#DejaVuSans-Oblique-110"/>
      <use transform="translate(301.419922 0.015625)" xlink:href="#DejaVuSans-32"/>
      <use transform="translate(333.207031 0.015625)" xlink:href="#DejaVuSans-91"/>
      <use transform="translate(372.220703 0.015625)" xlink:href="#DejaVuSans-37"/>
      <use transform="translate(467.240234 0.015625)" xlink:href="#DejaVuSans-93"/>
     </g>
    </g>
   </g>
   <g id="LineCollection_1">
    <path clip-path="url(#p4a39ae685b)" d="M 130.298236 194.332349 
L 130.3794 194.332349 
" style="fill:none;stroke:#9da0a2;stroke-width:1.32934;"/>
    <path clip-path="url(#p4a39ae685b)" d="M 154.647327 175.465848 
L 154.728491 175.465848 
" style="fill:none;stroke:#9da0a2;stroke-width:1.32934;"/>
    <path clip-path="url(#p4a39ae685b)" d="M 162.763691 142.033261 
L 162.844855 142.033261 
" style="fill:none;stroke:#9da0a2;stroke-width:1.32934;"/>
    <path clip-path="url(#p4a39ae685b)" d="M 187.112782 164.81261 
L 187.193945 164.81261 
" style="fill:none;stroke:#9da0a2;stroke-width:1.32934;"/>
    <path clip-path="url(#p4a39ae685b)" d="M 195.229145 167.089128 
L 195.310309 167.089128 
" style="fill:none;stroke:#9da0a2;stroke-width:1.32934;"/>
    <path clip-path="url(#p4a39ae685b)" d="M 203.345509 200.396164 
L 203.426673 200.396164 
" style="fill:none;stroke:#9da0a2;stroke-width:1.32934;"/>
    <path clip-path="url(#p4a39ae685b)" d="M 211.461873 155.650577 
L 211.543036 155.650577 
" style="fill:none;stroke:#9da0a2;stroke-width:1.32934;"/>
    <path clip-path="url(#p4a39ae685b)" d="M 219.578236 137.827969 
L 219.6594 137.827969 
" style="fill:none;stroke:#9da0a2;stroke-width:1.32934;"/>
    <path clip-path="url(#p4a39ae685b)" d="M 227.6946 158.788683 
L 227.775764 158.788683 
" style="fill:none;stroke:#9da0a2;stroke-width:1.32934;"/>
    <path clip-path="url(#p4a39ae685b)" d="M 235.810964 138.201157 
L 235.892127 138.201157 
" style="fill:none;stroke:#9da0a2;stroke-width:1.32934;"/>
    <path clip-path="url(#p4a39ae685b)" d="M 243.927327 149.577841 
L 244.008491 149.577841 
" style="fill:none;stroke:#9da0a2;stroke-width:1.32934;"/>
    <path clip-path="url(#p4a39ae685b)" d="M 252.043691 129.630459 
L 252.124855 129.630459 
" style="fill:none;stroke:#9da0a2;stroke-width:1.32934;"/>
    <path clip-path="url(#p4a39ae685b)" d="M 260.160055 102.954877 
L 260.241218 102.954877 
" style="fill:none;stroke:#9da0a2;stroke-width:1.32934;"/>
    <path clip-path="url(#p4a39ae685b)" d="M 268.276418 122.919096 
L 268.357582 122.919096 
" style="fill:none;stroke:#9da0a2;stroke-width:1.32934;"/>
    <path clip-path="url(#p4a39ae685b)" d="M 276.392782 123.389211 
L 276.473945 123.389211 
" style="fill:none;stroke:#9da0a2;stroke-width:1.32934;"/>
    <path clip-path="url(#p4a39ae685b)" d="M 284.509145 117.636468 
L 284.590309 117.636468 
" style="fill:none;stroke:#9da0a2;stroke-width:1.32934;"/>
    <path clip-path="url(#p4a39ae685b)" d="M 292.625509 118.67195 
L 292.706673 118.67195 
" style="fill:none;stroke:#9da0a2;stroke-width:1.32934;"/>
    <path clip-path="url(#p4a39ae685b)" d="M 300.741873 129.032352 
L 300.823036 129.032352 
" style="fill:none;stroke:#9da0a2;stroke-width:1.32934;"/>
    <path clip-path="url(#p4a39ae685b)" d="M 308.858236 144.922985 
L 308.9394 144.922985 
" style="fill:none;stroke:#9da0a2;stroke-width:1.32934;"/>
    <path clip-path="url(#p4a39ae685b)" d="M 316.9746 125.492658 
L 317.055764 125.492658 
" style="fill:none;stroke:#9da0a2;stroke-width:1.32934;"/>
    <path clip-path="url(#p4a39ae685b)" d="M 325.090964 124.555721 
L 325.172127 124.555721 
" style="fill:none;stroke:#9da0a2;stroke-width:1.32934;"/>
    <path clip-path="url(#p4a39ae685b)" d="M 333.207327 125.544851 
L 333.288491 125.544851 
" style="fill:none;stroke:#9da0a2;stroke-width:1.32934;"/>
    <path clip-path="url(#p4a39ae685b)" d="M 341.323691 125.902113 
L 341.404855 125.902113 
" style="fill:none;stroke:#9da0a2;stroke-width:1.32934;"/>
    <path clip-path="url(#p4a39ae685b)" d="M 349.440055 144.708211 
L 349.521218 144.708211 
" style="fill:none;stroke:#9da0a2;stroke-width:1.32934;"/>
    <path clip-path="url(#p4a39ae685b)" d="M 357.556418 143.301478 
L 357.637582 143.301478 
" style="fill:none;stroke:#9da0a2;stroke-width:1.32934;"/>
    <path clip-path="url(#p4a39ae685b)" d="M 365.672782 120.559164 
L 365.753945 120.559164 
" style="fill:none;stroke:#9da0a2;stroke-width:1.32934;"/>
    <path clip-path="url(#p4a39ae685b)" d="M 373.789145 128.959963 
L 373.870309 128.959963 
" style="fill:none;stroke:#9da0a2;stroke-width:1.32934;"/>
    <path clip-path="url(#p4a39ae685b)" d="M 381.905509 133.607151 
L 381.986673 133.607151 
" style="fill:none;stroke:#9da0a2;stroke-width:1.32934;"/>
    <path clip-path="url(#p4a39ae685b)" d="M 390.021873 115.413232 
L 390.103036 115.413232 
" style="fill:none;stroke:#9da0a2;stroke-width:1.32934;"/>
    <path clip-path="url(#p4a39ae685b)" d="M 398.138236 118.070075 
L 398.2194 118.070075 
" style="fill:none;stroke:#9da0a2;stroke-width:1.32934;"/>
    <path clip-path="url(#p4a39ae685b)" d="M 406.2546 121.633577 
L 406.335764 121.633577 
" style="fill:none;stroke:#9da0a2;stroke-width:1.32934;"/>
    <path clip-path="url(#p4a39ae685b)" d="M 414.370964 111.675383 
L 414.452127 111.675383 
" style="fill:none;stroke:#9da0a2;stroke-width:1.32934;"/>
    <path clip-path="url(#p4a39ae685b)" d="M 422.487327 102.352025 
L 422.568491 102.352025 
" style="fill:none;stroke:#9da0a2;stroke-width:1.32934;"/>
    <path clip-path="url(#p4a39ae685b)" d="M 430.603691 130.568332 
L 430.684855 130.568332 
" style="fill:none;stroke:#9da0a2;stroke-width:1.32934;"/>
    <path clip-path="url(#p4a39ae685b)" d="M 438.720055 108.822085 
L 438.801218 108.822085 
" style="fill:none;stroke:#9da0a2;stroke-width:1.32934;"/>
    <path clip-path="url(#p4a39ae685b)" d="M 446.836418 104.999872 
L 446.917582 104.999872 
" style="fill:none;stroke:#9da0a2;stroke-width:1.32934;"/>
    <path clip-path="url(#p4a39ae685b)" d="M 454.952782 119.080425 
L 455.033945 119.080425 
" style="fill:none;stroke:#9da0a2;stroke-width:1.32934;"/>
    <path clip-path="url(#p4a39ae685b)" d="M 463.069145 139.436486 
L 463.150309 139.436486 
" style="fill:none;stroke:#9da0a2;stroke-width:1.32934;"/>
    <path clip-path="url(#p4a39ae685b)" d="M 130.298236 126.198121 
L 130.3794 126.198121 
" style="fill:none;stroke:#9da0a2;stroke-width:1.32934;"/>
    <path clip-path="url(#p4a39ae685b)" d="M 154.647327 96.098179 
L 154.728491 96.098179 
" style="fill:none;stroke:#9da0a2;stroke-width:1.32934;"/>
    <path clip-path="url(#p4a39ae685b)" d="M 162.763691 94.191168 
L 162.844855 94.191168 
" style="fill:none;stroke:#9da0a2;stroke-width:1.32934;"/>
    <path clip-path="url(#p4a39ae685b)" d="M 187.112782 83.202424 
L 187.193945 83.202424 
" style="fill:none;stroke:#9da0a2;stroke-width:1.32934;"/>
    <path clip-path="url(#p4a39ae685b)" d="M 195.229145 111.932617 
L 195.310309 111.932617 
" style="fill:none;stroke:#9da0a2;stroke-width:1.32934;"/>
    <path clip-path="url(#p4a39ae685b)" d="M 203.345509 148.177259 
L 203.426673 148.177259 
" style="fill:none;stroke:#9da0a2;stroke-width:1.32934;"/>
    <path clip-path="url(#p4a39ae685b)" d="M 211.461873 131.532242 
L 211.543036 131.532242 
" style="fill:none;stroke:#9da0a2;stroke-width:1.32934;"/>
    <path clip-path="url(#p4a39ae685b)" d="M 219.578236 111.620621 
L 219.6594 111.620621 
" style="fill:none;stroke:#9da0a2;stroke-width:1.32934;"/>
    <path clip-path="url(#p4a39ae685b)" d="M 227.6946 132.914174 
L 227.775764 132.914174 
" style="fill:none;stroke:#9da0a2;stroke-width:1.32934;"/>
    <path clip-path="url(#p4a39ae685b)" d="M 235.810964 120.660254 
L 235.892127 120.660254 
" style="fill:none;stroke:#9da0a2;stroke-width:1.32934;"/>
    <path clip-path="url(#p4a39ae685b)" d="M 243.927327 132.189063 
L 244.008491 132.189063 
" style="fill:none;stroke:#9da0a2;stroke-width:1.32934;"/>
    <path clip-path="url(#p4a39ae685b)" d="M 252.043691 111.850499 
L 252.124855 111.850499 
" style="fill:none;stroke:#9da0a2;stroke-width:1.32934;"/>
    <path clip-path="url(#p4a39ae685b)" d="M 260.160055 86.564586 
L 260.241218 86.564586 
" style="fill:none;stroke:#9da0a2;stroke-width:1.32934;"/>
    <path clip-path="url(#p4a39ae685b)" d="M 268.276418 106.722016 
L 268.357582 106.722016 
" style="fill:none;stroke:#9da0a2;stroke-width:1.32934;"/>
    <path clip-path="url(#p4a39ae685b)" d="M 276.392782 109.172018 
L 276.473945 109.172018 
" style="fill:none;stroke:#9da0a2;stroke-width:1.32934;"/>
    <path clip-path="url(#p4a39ae685b)" d="M 284.509145 102.997416 
L 284.590309 102.997416 
" style="fill:none;stroke:#9da0a2;stroke-width:1.32934;"/>
    <path clip-path="url(#p4a39ae685b)" d="M 292.625509 105.202855 
L 292.706673 105.202855 
" style="fill:none;stroke:#9da0a2;stroke-width:1.32934;"/>
    <path clip-path="url(#p4a39ae685b)" d="M 300.741873 116.793285 
L 300.823036 116.793285 
" style="fill:none;stroke:#9da0a2;stroke-width:1.32934;"/>
    <path clip-path="url(#p4a39ae685b)" d="M 308.858236 130.270768 
L 308.9394 130.270768 
" style="fill:none;stroke:#9da0a2;stroke-width:1.32934;"/>
    <path clip-path="url(#p4a39ae685b)" d="M 316.9746 110.774898 
L 317.055764 110.774898 
" style="fill:none;stroke:#9da0a2;stroke-width:1.32934;"/>
    <path clip-path="url(#p4a39ae685b)" d="M 325.090964 104.708578 
L 325.172127 104.708578 
" style="fill:none;stroke:#9da0a2;stroke-width:1.32934;"/>
    <path clip-path="url(#p4a39ae685b)" d="M 333.207327 111.03172 
L 333.288491 111.03172 
" style="fill:none;stroke:#9da0a2;stroke-width:1.32934;"/>
    <path clip-path="url(#p4a39ae685b)" d="M 341.323691 110.606789 
L 341.404855 110.606789 
" style="fill:none;stroke:#9da0a2;stroke-width:1.32934;"/>
    <path clip-path="url(#p4a39ae685b)" d="M 349.440055 133.175064 
L 349.521218 133.175064 
" style="fill:none;stroke:#9da0a2;stroke-width:1.32934;"/>
    <path clip-path="url(#p4a39ae685b)" d="M 357.556418 130.991101 
L 357.637582 130.991101 
" style="fill:none;stroke:#9da0a2;stroke-width:1.32934;"/>
    <path clip-path="url(#p4a39ae685b)" d="M 365.672782 106.210005 
L 365.753945 106.210005 
" style="fill:none;stroke:#9da0a2;stroke-width:1.32934;"/>
    <path clip-path="url(#p4a39ae685b)" d="M 373.789145 116.242841 
L 373.870309 116.242841 
" style="fill:none;stroke:#9da0a2;stroke-width:1.32934;"/>
    <path clip-path="url(#p4a39ae685b)" d="M 381.905509 121.292746 
L 381.986673 121.292746 
" style="fill:none;stroke:#9da0a2;stroke-width:1.32934;"/>
    <path clip-path="url(#p4a39ae685b)" d="M 390.021873 100.693798 
L 390.103036 100.693798 
" style="fill:none;stroke:#9da0a2;stroke-width:1.32934;"/>
    <path clip-path="url(#p4a39ae685b)" d="M 398.138236 103.971804 
L 398.2194 103.971804 
" style="fill:none;stroke:#9da0a2;stroke-width:1.32934;"/>
    <path clip-path="url(#p4a39ae685b)" d="M 406.2546 111.152236 
L 406.335764 111.152236 
" style="fill:none;stroke:#9da0a2;stroke-width:1.32934;"/>
    <path clip-path="url(#p4a39ae685b)" d="M 414.370964 98.752179 
L 414.452127 98.752179 
" style="fill:none;stroke:#9da0a2;stroke-width:1.32934;"/>
    <path clip-path="url(#p4a39ae685b)" d="M 422.487327 89.881129 
L 422.568491 89.881129 
" style="fill:none;stroke:#9da0a2;stroke-width:1.32934;"/>
    <path clip-path="url(#p4a39ae685b)" d="M 430.603691 119.883806 
L 430.684855 119.883806 
" style="fill:none;stroke:#9da0a2;stroke-width:1.32934;"/>
    <path clip-path="url(#p4a39ae685b)" d="M 438.720055 95.863365 
L 438.801218 95.863365 
" style="fill:none;stroke:#9da0a2;stroke-width:1.32934;"/>
    <path clip-path="url(#p4a39ae685b)" d="M 446.836418 91.754231 
L 446.917582 91.754231 
" style="fill:none;stroke:#9da0a2;stroke-width:1.32934;"/>
    <path clip-path="url(#p4a39ae685b)" d="M 454.952782 108.78669 
L 455.033945 108.78669 
" style="fill:none;stroke:#9da0a2;stroke-width:1.32934;"/>
    <path clip-path="url(#p4a39ae685b)" d="M 463.069145 119.488615 
L 463.150309 119.488615 
" style="fill:none;stroke:#9da0a2;stroke-width:1.32934;"/>
    <path clip-path="url(#p4a39ae685b)" d="M 130.338818 126.198121 
L 130.338818 194.332349 
" style="fill:none;stroke:#9da0a2;stroke-width:1.32934;"/>
    <path clip-path="url(#p4a39ae685b)" d="M 154.687909 96.098179 
L 154.687909 175.465848 
" style="fill:none;stroke:#9da0a2;stroke-width:1.32934;"/>
    <path clip-path="url(#p4a39ae685b)" d="M 162.804273 94.191168 
L 162.804273 142.033261 
" style="fill:none;stroke:#9da0a2;stroke-width:1.32934;"/>
    <path clip-path="url(#p4a39ae685b)" d="M 187.153364 83.202424 
L 187.153364 164.81261 
" style="fill:none;stroke:#9da0a2;stroke-width:1.32934;"/>
    <path clip-path="url(#p4a39ae685b)" d="M 195.269727 111.932617 
L 195.269727 167.089128 
" style="fill:none;stroke:#9da0a2;stroke-width:1.32934;"/>
    <path clip-path="url(#p4a39ae685b)" d="M 203.386091 148.177259 
L 203.386091 200.396164 
" style="fill:none;stroke:#9da0a2;stroke-width:1.32934;"/>
    <path clip-path="url(#p4a39ae685b)" d="M 211.502455 131.532242 
L 211.502455 155.650577 
" style="fill:none;stroke:#9da0a2;stroke-width:1.32934;"/>
    <path clip-path="url(#p4a39ae685b)" d="M 219.618818 111.620621 
L 219.618818 137.827969 
" style="fill:none;stroke:#9da0a2;stroke-width:1.32934;"/>
    <path clip-path="url(#p4a39ae685b)" d="M 227.735182 132.914174 
L 227.735182 158.788683 
" style="fill:none;stroke:#9da0a2;stroke-width:1.32934;"/>
    <path clip-path="url(#p4a39ae685b)" d="M 235.851545 120.660254 
L 235.851545 138.201157 
" style="fill:none;stroke:#9da0a2;stroke-width:1.32934;"/>
    <path clip-path="url(#p4a39ae685b)" d="M 243.967909 132.189063 
L 243.967909 149.577841 
" style="fill:none;stroke:#9da0a2;stroke-width:1.32934;"/>
    <path clip-path="url(#p4a39ae685b)" d="M 252.084273 111.850499 
L 252.084273 129.630459 
" style="fill:none;stroke:#9da0a2;stroke-width:1.32934;"/>
    <path clip-path="url(#p4a39ae685b)" d="M 260.200636 86.564586 
L 260.200636 102.954877 
" style="fill:none;stroke:#9da0a2;stroke-width:1.32934;"/>
    <path clip-path="url(#p4a39ae685b)" d="M 268.317 106.722016 
L 268.317 122.919096 
" style="fill:none;stroke:#9da0a2;stroke-width:1.32934;"/>
    <path clip-path="url(#p4a39ae685b)" d="M 276.433364 109.172018 
L 276.433364 123.389211 
" style="fill:none;stroke:#9da0a2;stroke-width:1.32934;"/>
    <path clip-path="url(#p4a39ae685b)" d="M 284.549727 102.997416 
L 284.549727 117.636468 
" style="fill:none;stroke:#9da0a2;stroke-width:1.32934;"/>
    <path clip-path="url(#p4a39ae685b)" d="M 292.666091 105.202855 
L 292.666091 118.67195 
" style="fill:none;stroke:#9da0a2;stroke-width:1.32934;"/>
    <path clip-path="url(#p4a39ae685b)" d="M 300.782455 116.793285 
L 300.782455 129.032352 
" style="fill:none;stroke:#9da0a2;stroke-width:1.32934;"/>
    <path clip-path="url(#p4a39ae685b)" d="M 308.898818 130.270768 
L 308.898818 144.922985 
" style="fill:none;stroke:#9da0a2;stroke-width:1.32934;"/>
    <path clip-path="url(#p4a39ae685b)" d="M 317.015182 110.774898 
L 317.015182 125.492658 
" style="fill:none;stroke:#9da0a2;stroke-width:1.32934;"/>
    <path clip-path="url(#p4a39ae685b)" d="M 325.131545 104.708578 
L 325.131545 124.555721 
" style="fill:none;stroke:#9da0a2;stroke-width:1.32934;"/>
    <path clip-path="url(#p4a39ae685b)" d="M 333.247909 111.03172 
L 333.247909 125.544851 
" style="fill:none;stroke:#9da0a2;stroke-width:1.32934;"/>
    <path clip-path="url(#p4a39ae685b)" d="M 341.364273 110.606789 
L 341.364273 125.902113 
" style="fill:none;stroke:#9da0a2;stroke-width:1.32934;"/>
    <path clip-path="url(#p4a39ae685b)" d="M 349.480636 133.175064 
L 349.480636 144.708211 
" style="fill:none;stroke:#9da0a2;stroke-width:1.32934;"/>
    <path clip-path="url(#p4a39ae685b)" d="M 357.597 130.991101 
L 357.597 143.301478 
" style="fill:none;stroke:#9da0a2;stroke-width:1.32934;"/>
    <path clip-path="url(#p4a39ae685b)" d="M 365.713364 106.210005 
L 365.713364 120.559164 
" style="fill:none;stroke:#9da0a2;stroke-width:1.32934;"/>
    <path clip-path="url(#p4a39ae685b)" d="M 373.829727 116.242841 
L 373.829727 128.959963 
" style="fill:none;stroke:#9da0a2;stroke-width:1.32934;"/>
    <path clip-path="url(#p4a39ae685b)" d="M 381.946091 121.292746 
L 381.946091 133.607151 
" style="fill:none;stroke:#9da0a2;stroke-width:1.32934;"/>
    <path clip-path="url(#p4a39ae685b)" d="M 390.062455 100.693798 
L 390.062455 115.413232 
" style="fill:none;stroke:#9da0a2;stroke-width:1.32934;"/>
    <path clip-path="url(#p4a39ae685b)" d="M 398.178818 103.971804 
L 398.178818 118.070075 
" style="fill:none;stroke:#9da0a2;stroke-width:1.32934;"/>
    <path clip-path="url(#p4a39ae685b)" d="M 406.295182 111.152236 
L 406.295182 121.633577 
" style="fill:none;stroke:#9da0a2;stroke-width:1.32934;"/>
    <path clip-path="url(#p4a39ae685b)" d="M 414.411545 98.752179 
L 414.411545 111.675383 
" style="fill:none;stroke:#9da0a2;stroke-width:1.32934;"/>
    <path clip-path="url(#p4a39ae685b)" d="M 422.527909 89.881129 
L 422.527909 102.352025 
" style="fill:none;stroke:#9da0a2;stroke-width:1.32934;"/>
    <path clip-path="url(#p4a39ae685b)" d="M 430.644273 119.883806 
L 430.644273 130.568332 
" style="fill:none;stroke:#9da0a2;stroke-width:1.32934;"/>
    <path clip-path="url(#p4a39ae685b)" d="M 438.760636 95.863365 
L 438.760636 108.822085 
" style="fill:none;stroke:#9da0a2;stroke-width:1.32934;"/>
    <path clip-path="url(#p4a39ae685b)" d="M 446.877 91.754231 
L 446.877 104.999872 
" style="fill:none;stroke:#9da0a2;stroke-width:1.32934;"/>
    <path clip-path="url(#p4a39ae685b)" d="M 454.993364 108.78669 
L 454.993364 119.080425 
" style="fill:none;stroke:#9da0a2;stroke-width:1.32934;"/>
    <path clip-path="url(#p4a39ae685b)" d="M 463.109727 119.488615 
L 463.109727 139.436486 
" style="fill:none;stroke:#9da0a2;stroke-width:1.32934;"/>
   </g>
   <g id="line2d_21">
    <path clip-path="url(#p4a39ae685b)" d="M 122.222455 162.729664 
L 130.338818 160.265235 
L 154.687909 135.782013 
L 162.804273 118.112215 
L 170.920636 185.489396 
L 179.037 80.485369 
L 187.153364 124.007517 
L 195.269727 139.510872 
L 203.386091 174.286711 
L 211.502455 143.591409 
L 219.618818 124.724295 
L 227.735182 145.851429 
L 235.851545 129.430706 
L 243.967909 140.883452 
L 252.084273 120.740479 
L 260.200636 94.759732 
L 268.317 114.820556 
L 276.433364 116.280614 
L 284.549727 110.316942 
L 292.666091 111.937402 
L 300.782455 122.912819 
L 308.898818 137.596876 
L 317.015182 118.133778 
L 325.131545 114.632149 
L 333.247909 118.288285 
L 341.364273 118.254451 
L 349.480636 138.941638 
L 357.597 137.146289 
L 365.713364 113.384585 
L 373.829727 122.601402 
L 381.946091 127.449949 
L 390.062455 108.053515 
L 398.178818 111.02094 
L 406.295182 116.392907 
L 414.411545 105.213781 
L 422.527909 96.116577 
L 430.644273 125.226069 
L 438.760636 102.342725 
L 446.877 98.377052 
L 454.993364 113.933557 
L 463.109727 129.46255 
" style="fill:none;stroke:#0077bb;stroke-width:0.886227;"/>
   </g>
   <g id="patch_3">
    <path d="M 45.117 228.96 
L 45.117 7.2 
" style="fill:none;stroke:#000000;stroke-linecap:square;stroke-linejoin:miter;"/>
   </g>
   <g id="patch_4">
    <path d="M 45.117 228.96 
L 491.517 228.96 
" style="fill:none;stroke:#000000;stroke-linecap:square;stroke-linejoin:miter;"/>
   </g>
   <g id="PathCollection_1">
    <path clip-path="url(#p4a39ae685b)" d="M 122.222455 164.502118 
C 122.692515 164.502118 123.143386 164.315361 123.475769 163.982979 
C 123.808151 163.650596 123.994908 163.199725 123.994908 162.729664 
C 123.994908 162.259604 123.808151 161.808733 123.475769 161.47635 
C 123.143386 161.143967 122.692515 160.957211 122.222455 160.957211 
C 121.752394 160.957211 121.301523 161.143967 120.96914 161.47635 
C 120.636758 161.808733 120.450001 162.259604 120.450001 162.729664 
C 120.450001 163.199725 120.636758 163.650596 120.96914 163.982979 
C 121.301523 164.315361 121.752394 164.502118 122.222455 164.502118 
z
" style="fill:#0077bb;stroke:#0077bb;stroke-width:0.886227;"/>
    <path clip-path="url(#p4a39ae685b)" d="M 130.338818 162.037689 
C 130.808878 162.037689 131.25975 161.850932 131.592132 161.518549 
C 131.924515 161.186166 132.111272 160.735295 132.111272 160.265235 
C 132.111272 159.795175 131.924515 159.344304 131.592132 159.011921 
C 131.25975 158.679538 130.808878 158.492781 130.338818 158.492781 
C 129.868758 158.492781 129.417887 158.679538 129.085504 159.011921 
C 128.753121 159.344304 128.566364 159.795175 128.566364 160.265235 
C 128.566364 160.735295 128.753121 161.186166 129.085504 161.518549 
C 129.417887 161.850932 129.868758 162.037689 130.338818 162.037689 
z
" style="fill:#0077bb;stroke:#0077bb;stroke-width:0.886227;"/>
    <path clip-path="url(#p4a39ae685b)" d="M 154.687909 137.554467 
C 155.157969 137.554467 155.60884 137.36771 155.941223 137.035328 
C 156.273606 136.702945 156.460363 136.252074 156.460363 135.782013 
C 156.460363 135.311953 156.273606 134.861082 155.941223 134.528699 
C 155.60884 134.196316 155.157969 134.00956 154.687909 134.00956 
C 154.217849 134.00956 153.766978 134.196316 153.434595 134.528699 
C 153.102212 134.861082 152.915455 135.311953 152.915455 135.782013 
C 152.915455 136.252074 153.102212 136.702945 153.434595 137.035328 
C 153.766978 137.36771 154.217849 137.554467 154.687909 137.554467 
z
" style="fill:#0077bb;stroke:#0077bb;stroke-width:0.886227;"/>
    <path clip-path="url(#p4a39ae685b)" d="M 162.804273 119.884669 
C 163.274333 119.884669 163.725204 119.697912 164.057587 119.365529 
C 164.38997 119.033146 164.576727 118.582275 164.576727 118.112215 
C 164.576727 117.642155 164.38997 117.191283 164.057587 116.858901 
C 163.725204 116.526518 163.274333 116.339761 162.804273 116.339761 
C 162.334212 116.339761 161.883341 116.526518 161.550959 116.858901 
C 161.218576 117.191283 161.031819 117.642155 161.031819 118.112215 
C 161.031819 118.582275 161.218576 119.033146 161.550959 119.365529 
C 161.883341 119.697912 162.334212 119.884669 162.804273 119.884669 
z
" style="fill:#0077bb;stroke:#0077bb;stroke-width:0.886227;"/>
    <path clip-path="url(#p4a39ae685b)" d="M 170.920636 187.26185 
C 171.390697 187.26185 171.841568 187.075093 172.173951 186.74271 
C 172.506333 186.410327 172.69309 185.959456 172.69309 185.489396 
C 172.69309 185.019336 172.506333 184.568465 172.173951 184.236082 
C 171.841568 183.903699 171.390697 183.716942 170.920636 183.716942 
C 170.450576 183.716942 169.999705 183.903699 169.667322 184.236082 
C 169.334939 184.568465 169.148183 185.019336 169.148183 185.489396 
C 169.148183 185.959456 169.334939 186.410327 169.667322 186.74271 
C 169.999705 187.075093 170.450576 187.26185 170.920636 187.26185 
z
" style="fill:#0077bb;stroke:#0077bb;stroke-width:0.886227;"/>
    <path clip-path="url(#p4a39ae685b)" d="M 179.037 82.257823 
C 179.50706 82.257823 179.957931 82.071066 180.290314 81.738683 
C 180.622697 81.4063 180.809454 80.955429 180.809454 80.485369 
C 180.809454 80.015309 180.622697 79.564438 180.290314 79.232055 
C 179.957931 78.899672 179.50706 78.712915 179.037 78.712915 
C 178.56694 78.712915 178.116069 78.899672 177.783686 79.232055 
C 177.451303 79.564438 177.264546 80.015309 177.264546 80.485369 
C 177.264546 80.955429 177.451303 81.4063 177.783686 81.738683 
C 178.116069 82.071066 178.56694 82.257823 179.037 82.257823 
z
" style="fill:#0077bb;stroke:#0077bb;stroke-width:0.886227;"/>
    <path clip-path="url(#p4a39ae685b)" d="M 187.153364 125.779971 
C 187.623424 125.779971 188.074295 125.593214 188.406678 125.260831 
C 188.739061 124.928448 188.925817 124.477577 188.925817 124.007517 
C 188.925817 123.537457 188.739061 123.086585 188.406678 122.754203 
C 188.074295 122.42182 187.623424 122.235063 187.153364 122.235063 
C 186.683303 122.235063 186.232432 122.42182 185.900049 122.754203 
C 185.567667 123.086585 185.38091 123.537457 185.38091 124.007517 
C 185.38091 124.477577 185.567667 124.928448 185.900049 125.260831 
C 186.232432 125.593214 186.683303 125.779971 187.153364 125.779971 
z
" style="fill:#0077bb;stroke:#0077bb;stroke-width:0.886227;"/>
    <path clip-path="url(#p4a39ae685b)" d="M 195.269727 141.283326 
C 195.739788 141.283326 196.190659 141.096569 196.523041 140.764187 
C 196.855424 140.431804 197.042181 139.980933 197.042181 139.510872 
C 197.042181 139.040812 196.855424 138.589941 196.523041 138.257558 
C 196.190659 137.925176 195.739788 137.738419 195.269727 137.738419 
C 194.799667 137.738419 194.348796 137.925176 194.016413 138.257558 
C 193.68403 138.589941 193.497273 139.040812 193.497273 139.510872 
C 193.497273 139.980933 193.68403 140.431804 194.016413 140.764187 
C 194.348796 141.096569 194.799667 141.283326 195.269727 141.283326 
z
" style="fill:#0077bb;stroke:#0077bb;stroke-width:0.886227;"/>
    <path clip-path="url(#p4a39ae685b)" d="M 203.386091 176.059165 
C 203.856151 176.059165 204.307022 175.872408 204.639405 175.540026 
C 204.971788 175.207643 205.158545 174.756772 205.158545 174.286711 
C 205.158545 173.816651 204.971788 173.36578 204.639405 173.033397 
C 204.307022 172.701014 203.856151 172.514258 203.386091 172.514258 
C 202.916031 172.514258 202.46516 172.701014 202.132777 173.033397 
C 201.800394 173.36578 201.613637 173.816651 201.613637 174.286711 
C 201.613637 174.756772 201.800394 175.207643 202.132777 175.540026 
C 202.46516 175.872408 202.916031 176.059165 203.386091 176.059165 
z
" style="fill:#0077bb;stroke:#0077bb;stroke-width:0.886227;"/>
    <path clip-path="url(#p4a39ae685b)" d="M 211.502455 145.363863 
C 211.972515 145.363863 212.423386 145.177106 212.755769 144.844724 
C 213.088151 144.512341 213.274908 144.06147 213.274908 143.591409 
C 213.274908 143.121349 213.088151 142.670478 212.755769 142.338095 
C 212.423386 142.005712 211.972515 141.818956 211.502455 141.818956 
C 211.032394 141.818956 210.581523 142.005712 210.24914 142.338095 
C 209.916758 142.670478 209.730001 143.121349 209.730001 143.591409 
C 209.730001 144.06147 209.916758 144.512341 210.24914 144.844724 
C 210.581523 145.177106 211.032394 145.363863 211.502455 145.363863 
z
" style="fill:#0077bb;stroke:#0077bb;stroke-width:0.886227;"/>
    <path clip-path="url(#p4a39ae685b)" d="M 219.618818 126.496749 
C 220.088878 126.496749 220.53975 126.309992 220.872132 125.977609 
C 221.204515 125.645227 221.391272 125.194356 221.391272 124.724295 
C 221.391272 124.254235 221.204515 123.803364 220.872132 123.470981 
C 220.53975 123.138598 220.088878 122.951841 219.618818 122.951841 
C 219.148758 122.951841 218.697887 123.138598 218.365504 123.470981 
C 218.033121 123.803364 217.846364 124.254235 217.846364 124.724295 
C 217.846364 125.194356 218.033121 125.645227 218.365504 125.977609 
C 218.697887 126.309992 219.148758 126.496749 219.618818 126.496749 
z
" style="fill:#0077bb;stroke:#0077bb;stroke-width:0.886227;"/>
    <path clip-path="url(#p4a39ae685b)" d="M 227.735182 147.623882 
C 228.205242 147.623882 228.656113 147.437126 228.988496 147.104743 
C 229.320879 146.77236 229.507636 146.321489 229.507636 145.851429 
C 229.507636 145.381368 229.320879 144.930497 228.988496 144.598114 
C 228.656113 144.265732 228.205242 144.078975 227.735182 144.078975 
C 227.265122 144.078975 226.81425 144.265732 226.481868 144.598114 
C 226.149485 144.930497 225.962728 145.381368 225.962728 145.851429 
C 225.962728 146.321489 226.149485 146.77236 226.481868 147.104743 
C 226.81425 147.437126 227.265122 147.623882 227.735182 147.623882 
z
" style="fill:#0077bb;stroke:#0077bb;stroke-width:0.886227;"/>
    <path clip-path="url(#p4a39ae685b)" d="M 235.851545 131.20316 
C 236.321606 131.20316 236.772477 131.016403 237.10486 130.68402 
C 237.437242 130.351637 237.623999 129.900766 237.623999 129.430706 
C 237.623999 128.960646 237.437242 128.509775 237.10486 128.177392 
C 236.772477 127.845009 236.321606 127.658252 235.851545 127.658252 
C 235.381485 127.658252 234.930614 127.845009 234.598231 128.177392 
C 234.265849 128.509775 234.079092 128.960646 234.079092 129.430706 
C 234.079092 129.900766 234.265849 130.351637 234.598231 130.68402 
C 234.930614 131.016403 235.381485 131.20316 235.851545 131.20316 
z
" style="fill:#0077bb;stroke:#0077bb;stroke-width:0.886227;"/>
    <path clip-path="url(#p4a39ae685b)" d="M 243.967909 142.655905 
C 244.437969 142.655905 244.88884 142.469149 245.221223 142.136766 
C 245.553606 141.804383 245.740363 141.353512 245.740363 140.883452 
C 245.740363 140.413391 245.553606 139.96252 245.221223 139.630137 
C 244.88884 139.297755 244.437969 139.110998 243.967909 139.110998 
C 243.497849 139.110998 243.046978 139.297755 242.714595 139.630137 
C 242.382212 139.96252 242.195455 140.413391 242.195455 140.883452 
C 242.195455 141.353512 242.382212 141.804383 242.714595 142.136766 
C 243.046978 142.469149 243.497849 142.655905 243.967909 142.655905 
z
" style="fill:#0077bb;stroke:#0077bb;stroke-width:0.886227;"/>
    <path clip-path="url(#p4a39ae685b)" d="M 252.084273 122.512933 
C 252.554333 122.512933 253.005204 122.326176 253.337587 121.993794 
C 253.66997 121.661411 253.856727 121.21054 253.856727 120.740479 
C 253.856727 120.270419 253.66997 119.819548 253.337587 119.487165 
C 253.005204 119.154782 252.554333 118.968026 252.084273 118.968026 
C 251.614212 118.968026 251.163341 119.154782 250.830959 119.487165 
C 250.498576 119.819548 250.311819 120.270419 250.311819 120.740479 
C 250.311819 121.21054 250.498576 121.661411 250.830959 121.993794 
C 251.163341 122.326176 251.614212 122.512933 252.084273 122.512933 
z
" style="fill:#0077bb;stroke:#0077bb;stroke-width:0.886227;"/>
    <path clip-path="url(#p4a39ae685b)" d="M 260.200636 96.532185 
C 260.670697 96.532185 261.121568 96.345428 261.453951 96.013046 
C 261.786333 95.680663 261.97309 95.229792 261.97309 94.759732 
C 261.97309 94.289671 261.786333 93.8388 261.453951 93.506417 
C 261.121568 93.174035 260.670697 92.987278 260.200636 92.987278 
C 259.730576 92.987278 259.279705 93.174035 258.947322 93.506417 
C 258.614939 93.8388 258.428183 94.289671 258.428183 94.759732 
C 258.428183 95.229792 258.614939 95.680663 258.947322 96.013046 
C 259.279705 96.345428 259.730576 96.532185 260.200636 96.532185 
z
" style="fill:#0077bb;stroke:#0077bb;stroke-width:0.886227;"/>
    <path clip-path="url(#p4a39ae685b)" d="M 268.317 116.59301 
C 268.78706 116.59301 269.237931 116.406253 269.570314 116.07387 
C 269.902697 115.741487 270.089454 115.290616 270.089454 114.820556 
C 270.089454 114.350496 269.902697 113.899625 269.570314 113.567242 
C 269.237931 113.234859 268.78706 113.048102 268.317 113.048102 
C 267.84694 113.048102 267.396069 113.234859 267.063686 113.567242 
C 266.731303 113.899625 266.544546 114.350496 266.544546 114.820556 
C 266.544546 115.290616 266.731303 115.741487 267.063686 116.07387 
C 267.396069 116.406253 267.84694 116.59301 268.317 116.59301 
z
" style="fill:#0077bb;stroke:#0077bb;stroke-width:0.886227;"/>
    <path clip-path="url(#p4a39ae685b)" d="M 276.433364 118.053068 
C 276.903424 118.053068 277.354295 117.866311 277.686678 117.533928 
C 278.019061 117.201546 278.205817 116.750675 278.205817 116.280614 
C 278.205817 115.810554 278.019061 115.359683 277.686678 115.0273 
C 277.354295 114.694917 276.903424 114.50816 276.433364 114.50816 
C 275.963303 114.50816 275.512432 114.694917 275.180049 115.0273 
C 274.847667 115.359683 274.66091 115.810554 274.66091 116.280614 
C 274.66091 116.750675 274.847667 117.201546 275.180049 117.533928 
C 275.512432 117.866311 275.963303 118.053068 276.433364 118.053068 
z
" style="fill:#0077bb;stroke:#0077bb;stroke-width:0.886227;"/>
    <path clip-path="url(#p4a39ae685b)" d="M 284.549727 112.089396 
C 285.019788 112.089396 285.470659 111.902639 285.803041 111.570256 
C 286.135424 111.237873 286.322181 110.787002 286.322181 110.316942 
C 286.322181 109.846882 286.135424 109.396011 285.803041 109.063628 
C 285.470659 108.731245 285.019788 108.544488 284.549727 108.544488 
C 284.079667 108.544488 283.628796 108.731245 283.296413 109.063628 
C 282.96403 109.396011 282.777273 109.846882 282.777273 110.316942 
C 282.777273 110.787002 282.96403 111.237873 283.296413 111.570256 
C 283.628796 111.902639 284.079667 112.089396 284.549727 112.089396 
z
" style="fill:#0077bb;stroke:#0077bb;stroke-width:0.886227;"/>
    <path clip-path="url(#p4a39ae685b)" d="M 292.666091 113.709856 
C 293.136151 113.709856 293.587022 113.523099 293.919405 113.190716 
C 294.251788 112.858334 294.438545 112.407463 294.438545 111.937402 
C 294.438545 111.467342 294.251788 111.016471 293.919405 110.684088 
C 293.587022 110.351705 293.136151 110.164948 292.666091 110.164948 
C 292.196031 110.164948 291.74516 110.351705 291.412777 110.684088 
C 291.080394 111.016471 290.893637 111.467342 290.893637 111.937402 
C 290.893637 112.407463 291.080394 112.858334 291.412777 113.190716 
C 291.74516 113.523099 292.196031 113.709856 292.666091 113.709856 
z
" style="fill:#0077bb;stroke:#0077bb;stroke-width:0.886227;"/>
    <path clip-path="url(#p4a39ae685b)" d="M 300.782455 124.685273 
C 301.252515 124.685273 301.703386 124.498516 302.035769 124.166133 
C 302.368151 123.83375 302.554908 123.382879 302.554908 122.912819 
C 302.554908 122.442759 302.368151 121.991887 302.035769 121.659505 
C 301.703386 121.327122 301.252515 121.140365 300.782455 121.140365 
C 300.312394 121.140365 299.861523 121.327122 299.52914 121.659505 
C 299.196758 121.991887 299.010001 122.442759 299.010001 122.912819 
C 299.010001 123.382879 299.196758 123.83375 299.52914 124.166133 
C 299.861523 124.498516 300.312394 124.685273 300.782455 124.685273 
z
" style="fill:#0077bb;stroke:#0077bb;stroke-width:0.886227;"/>
    <path clip-path="url(#p4a39ae685b)" d="M 308.898818 139.36933 
C 309.368878 139.36933 309.81975 139.182573 310.152132 138.85019 
C 310.484515 138.517807 310.671272 138.066936 310.671272 137.596876 
C 310.671272 137.126816 310.484515 136.675945 310.152132 136.343562 
C 309.81975 136.011179 309.368878 135.824422 308.898818 135.824422 
C 308.428758 135.824422 307.977887 136.011179 307.645504 136.343562 
C 307.313121 136.675945 307.126364 137.126816 307.126364 137.596876 
C 307.126364 138.066936 307.313121 138.517807 307.645504 138.85019 
C 307.977887 139.182573 308.428758 139.36933 308.898818 139.36933 
z
" style="fill:#0077bb;stroke:#0077bb;stroke-width:0.886227;"/>
    <path clip-path="url(#p4a39ae685b)" d="M 317.015182 119.906232 
C 317.485242 119.906232 317.936113 119.719475 318.268496 119.387092 
C 318.600879 119.054709 318.787636 118.603838 318.787636 118.133778 
C 318.787636 117.663718 318.600879 117.212847 318.268496 116.880464 
C 317.936113 116.548081 317.485242 116.361324 317.015182 116.361324 
C 316.545122 116.361324 316.09425 116.548081 315.761868 116.880464 
C 315.429485 117.212847 315.242728 117.663718 315.242728 118.133778 
C 315.242728 118.603838 315.429485 119.054709 315.761868 119.387092 
C 316.09425 119.719475 316.545122 119.906232 317.015182 119.906232 
z
" style="fill:#0077bb;stroke:#0077bb;stroke-width:0.886227;"/>
    <path clip-path="url(#p4a39ae685b)" d="M 325.131545 116.404603 
C 325.601606 116.404603 326.052477 116.217846 326.38486 115.885464 
C 326.717242 115.553081 326.903999 115.10221 326.903999 114.632149 
C 326.903999 114.162089 326.717242 113.711218 326.38486 113.378835 
C 326.052477 113.046453 325.601606 112.859696 325.131545 112.859696 
C 324.661485 112.859696 324.210614 113.046453 323.878231 113.378835 
C 323.545849 113.711218 323.359092 114.162089 323.359092 114.632149 
C 323.359092 115.10221 323.545849 115.553081 323.878231 115.885464 
C 324.210614 116.217846 324.661485 116.404603 325.131545 116.404603 
z
" style="fill:#0077bb;stroke:#0077bb;stroke-width:0.886227;"/>
    <path clip-path="url(#p4a39ae685b)" d="M 333.247909 120.060739 
C 333.717969 120.060739 334.16884 119.873982 334.501223 119.541599 
C 334.833606 119.209216 335.020363 118.758345 335.020363 118.288285 
C 335.020363 117.818225 334.833606 117.367354 334.501223 117.034971 
C 334.16884 116.702588 333.717969 116.515831 333.247909 116.515831 
C 332.777849 116.515831 332.326978 116.702588 331.994595 117.034971 
C 331.662212 117.367354 331.475455 117.818225 331.475455 118.288285 
C 331.475455 118.758345 331.662212 119.209216 331.994595 119.541599 
C 332.326978 119.873982 332.777849 120.060739 333.247909 120.060739 
z
" style="fill:#0077bb;stroke:#0077bb;stroke-width:0.886227;"/>
    <path clip-path="url(#p4a39ae685b)" d="M 341.364273 120.026905 
C 341.834333 120.026905 342.285204 119.840148 342.617587 119.507765 
C 342.94997 119.175382 343.136727 118.724511 343.136727 118.254451 
C 343.136727 117.784391 342.94997 117.33352 342.617587 117.001137 
C 342.285204 116.668754 341.834333 116.481997 341.364273 116.481997 
C 340.894212 116.481997 340.443341 116.668754 340.110959 117.001137 
C 339.778576 117.33352 339.591819 117.784391 339.591819 118.254451 
C 339.591819 118.724511 339.778576 119.175382 340.110959 119.507765 
C 340.443341 119.840148 340.894212 120.026905 341.364273 120.026905 
z
" style="fill:#0077bb;stroke:#0077bb;stroke-width:0.886227;"/>
    <path clip-path="url(#p4a39ae685b)" d="M 349.480636 140.714091 
C 349.950697 140.714091 350.401568 140.527335 350.733951 140.194952 
C 351.066333 139.862569 351.25309 139.411698 351.25309 138.941638 
C 351.25309 138.471577 351.066333 138.020706 350.733951 137.688323 
C 350.401568 137.355941 349.950697 137.169184 349.480636 137.169184 
C 349.010576 137.169184 348.559705 137.355941 348.227322 137.688323 
C 347.894939 138.020706 347.708183 138.471577 347.708183 138.941638 
C 347.708183 139.411698 347.894939 139.862569 348.227322 140.194952 
C 348.559705 140.527335 349.010576 140.714091 349.480636 140.714091 
z
" style="fill:#0077bb;stroke:#0077bb;stroke-width:0.886227;"/>
    <path clip-path="url(#p4a39ae685b)" d="M 357.597 138.918743 
C 358.06706 138.918743 358.517931 138.731986 358.850314 138.399603 
C 359.182697 138.067221 359.369454 137.61635 359.369454 137.146289 
C 359.369454 136.676229 359.182697 136.225358 358.850314 135.892975 
C 358.517931 135.560592 358.06706 135.373835 357.597 135.373835 
C 357.12694 135.373835 356.676069 135.560592 356.343686 135.892975 
C 356.011303 136.225358 355.824546 136.676229 355.824546 137.146289 
C 355.824546 137.61635 356.011303 138.067221 356.343686 138.399603 
C 356.676069 138.731986 357.12694 138.918743 357.597 138.918743 
z
" style="fill:#0077bb;stroke:#0077bb;stroke-width:0.886227;"/>
    <path clip-path="url(#p4a39ae685b)" d="M 365.713364 115.157038 
C 366.183424 115.157038 366.634295 114.970281 366.966678 114.637899 
C 367.299061 114.305516 367.485817 113.854645 367.485817 113.384585 
C 367.485817 112.914524 367.299061 112.463653 366.966678 112.13127 
C 366.634295 111.798888 366.183424 111.612131 365.713364 111.612131 
C 365.243303 111.612131 364.792432 111.798888 364.460049 112.13127 
C 364.127667 112.463653 363.94091 112.914524 363.94091 113.384585 
C 363.94091 113.854645 364.127667 114.305516 364.460049 114.637899 
C 364.792432 114.970281 365.243303 115.157038 365.713364 115.157038 
z
" style="fill:#0077bb;stroke:#0077bb;stroke-width:0.886227;"/>
    <path clip-path="url(#p4a39ae685b)" d="M 373.829727 124.373856 
C 374.299788 124.373856 374.750659 124.187099 375.083041 123.854716 
C 375.415424 123.522333 375.602181 123.071462 375.602181 122.601402 
C 375.602181 122.131342 375.415424 121.680471 375.083041 121.348088 
C 374.750659 121.015705 374.299788 120.828948 373.829727 120.828948 
C 373.359667 120.828948 372.908796 121.015705 372.576413 121.348088 
C 372.24403 121.680471 372.057273 122.131342 372.057273 122.601402 
C 372.057273 123.071462 372.24403 123.522333 372.576413 123.854716 
C 372.908796 124.187099 373.359667 124.373856 373.829727 124.373856 
z
" style="fill:#0077bb;stroke:#0077bb;stroke-width:0.886227;"/>
    <path clip-path="url(#p4a39ae685b)" d="M 381.946091 129.222403 
C 382.416151 129.222403 382.867022 129.035646 383.199405 128.703263 
C 383.531788 128.37088 383.718545 127.920009 383.718545 127.449949 
C 383.718545 126.979888 383.531788 126.529017 383.199405 126.196635 
C 382.867022 125.864252 382.416151 125.677495 381.946091 125.677495 
C 381.476031 125.677495 381.02516 125.864252 380.692777 126.196635 
C 380.360394 126.529017 380.173637 126.979888 380.173637 127.449949 
C 380.173637 127.920009 380.360394 128.37088 380.692777 128.703263 
C 381.02516 129.035646 381.476031 129.222403 381.946091 129.222403 
z
" style="fill:#0077bb;stroke:#0077bb;stroke-width:0.886227;"/>
    <path clip-path="url(#p4a39ae685b)" d="M 390.062455 109.825969 
C 390.532515 109.825969 390.983386 109.639212 391.315769 109.306829 
C 391.648151 108.974446 391.834908 108.523575 391.834908 108.053515 
C 391.834908 107.583455 391.648151 107.132584 391.315769 106.800201 
C 390.983386 106.467818 390.532515 106.281061 390.062455 106.281061 
C 389.592394 106.281061 389.141523 106.467818 388.80914 106.800201 
C 388.476758 107.132584 388.290001 107.583455 388.290001 108.053515 
C 388.290001 108.523575 388.476758 108.974446 388.80914 109.306829 
C 389.141523 109.639212 389.592394 109.825969 390.062455 109.825969 
z
" style="fill:#0077bb;stroke:#0077bb;stroke-width:0.886227;"/>
    <path clip-path="url(#p4a39ae685b)" d="M 398.178818 112.793393 
C 398.648878 112.793393 399.09975 112.606637 399.432132 112.274254 
C 399.764515 111.941871 399.951272 111.491 399.951272 111.02094 
C 399.951272 110.550879 399.764515 110.100008 399.432132 109.767625 
C 399.09975 109.435243 398.648878 109.248486 398.178818 109.248486 
C 397.708758 109.248486 397.257887 109.435243 396.925504 109.767625 
C 396.593121 110.100008 396.406364 110.550879 396.406364 111.02094 
C 396.406364 111.491 396.593121 111.941871 396.925504 112.274254 
C 397.257887 112.606637 397.708758 112.793393 398.178818 112.793393 
z
" style="fill:#0077bb;stroke:#0077bb;stroke-width:0.886227;"/>
    <path clip-path="url(#p4a39ae685b)" d="M 406.295182 118.16536 
C 406.765242 118.16536 407.216113 117.978603 407.548496 117.646221 
C 407.880879 117.313838 408.067636 116.862967 408.067636 116.392907 
C 408.067636 115.922846 407.880879 115.471975 407.548496 115.139592 
C 407.216113 114.80721 406.765242 114.620453 406.295182 114.620453 
C 405.825122 114.620453 405.37425 114.80721 405.041868 115.139592 
C 404.709485 115.471975 404.522728 115.922846 404.522728 116.392907 
C 404.522728 116.862967 404.709485 117.313838 405.041868 117.646221 
C 405.37425 117.978603 405.825122 118.16536 406.295182 118.16536 
z
" style="fill:#0077bb;stroke:#0077bb;stroke-width:0.886227;"/>
    <path clip-path="url(#p4a39ae685b)" d="M 414.411545 106.986235 
C 414.881606 106.986235 415.332477 106.799478 415.66486 106.467095 
C 415.997242 106.134712 416.183999 105.683841 416.183999 105.213781 
C 416.183999 104.743721 415.997242 104.292849 415.66486 103.960467 
C 415.332477 103.628084 414.881606 103.441327 414.411545 103.441327 
C 413.941485 103.441327 413.490614 103.628084 413.158231 103.960467 
C 412.825849 104.292849 412.639092 104.743721 412.639092 105.213781 
C 412.639092 105.683841 412.825849 106.134712 413.158231 106.467095 
C 413.490614 106.799478 413.941485 106.986235 414.411545 106.986235 
z
" style="fill:#0077bb;stroke:#0077bb;stroke-width:0.886227;"/>
    <path clip-path="url(#p4a39ae685b)" d="M 422.527909 97.889031 
C 422.997969 97.889031 423.44884 97.702274 423.781223 97.369891 
C 424.113606 97.037509 424.300363 96.586637 424.300363 96.116577 
C 424.300363 95.646517 424.113606 95.195646 423.781223 94.863263 
C 423.44884 94.53088 422.997969 94.344123 422.527909 94.344123 
C 422.057849 94.344123 421.606978 94.53088 421.274595 94.863263 
C 420.942212 95.195646 420.755455 95.646517 420.755455 96.116577 
C 420.755455 96.586637 420.942212 97.037509 421.274595 97.369891 
C 421.606978 97.702274 422.057849 97.889031 422.527909 97.889031 
z
" style="fill:#0077bb;stroke:#0077bb;stroke-width:0.886227;"/>
    <path clip-path="url(#p4a39ae685b)" d="M 430.644273 126.998523 
C 431.114333 126.998523 431.565204 126.811766 431.897587 126.479383 
C 432.22997 126.147 432.416727 125.696129 432.416727 125.226069 
C 432.416727 124.756009 432.22997 124.305138 431.897587 123.972755 
C 431.565204 123.640372 431.114333 123.453615 430.644273 123.453615 
C 430.174212 123.453615 429.723341 123.640372 429.390959 123.972755 
C 429.058576 124.305138 428.871819 124.756009 428.871819 125.226069 
C 428.871819 125.696129 429.058576 126.147 429.390959 126.479383 
C 429.723341 126.811766 430.174212 126.998523 430.644273 126.998523 
z
" style="fill:#0077bb;stroke:#0077bb;stroke-width:0.886227;"/>
    <path clip-path="url(#p4a39ae685b)" d="M 438.760636 104.115179 
C 439.230697 104.115179 439.681568 103.928422 440.013951 103.596039 
C 440.346333 103.263657 440.53309 102.812786 440.53309 102.342725 
C 440.53309 101.872665 440.346333 101.421794 440.013951 101.089411 
C 439.681568 100.757028 439.230697 100.570271 438.760636 100.570271 
C 438.290576 100.570271 437.839705 100.757028 437.507322 101.089411 
C 437.174939 101.421794 436.988183 101.872665 436.988183 102.342725 
C 436.988183 102.812786 437.174939 103.263657 437.507322 103.596039 
C 437.839705 103.928422 438.290576 104.115179 438.760636 104.115179 
z
" style="fill:#0077bb;stroke:#0077bb;stroke-width:0.886227;"/>
    <path clip-path="url(#p4a39ae685b)" d="M 446.877 100.149505 
C 447.34706 100.149505 447.797931 99.962748 448.130314 99.630366 
C 448.462697 99.297983 448.649454 98.847112 448.649454 98.377052 
C 448.649454 97.906991 448.462697 97.45612 448.130314 97.123737 
C 447.797931 96.791355 447.34706 96.604598 446.877 96.604598 
C 446.40694 96.604598 445.956069 96.791355 445.623686 97.123737 
C 445.291303 97.45612 445.104546 97.906991 445.104546 98.377052 
C 445.104546 98.847112 445.291303 99.297983 445.623686 99.630366 
C 445.956069 99.962748 446.40694 100.149505 446.877 100.149505 
z
" style="fill:#0077bb;stroke:#0077bb;stroke-width:0.886227;"/>
    <path clip-path="url(#p4a39ae685b)" d="M 454.993364 115.706011 
C 455.463424 115.706011 455.914295 115.519254 456.246678 115.186871 
C 456.579061 114.854488 456.765817 114.403617 456.765817 113.933557 
C 456.765817 113.463497 456.579061 113.012626 456.246678 112.680243 
C 455.914295 112.34786 455.463424 112.161103 454.993364 112.161103 
C 454.523303 112.161103 454.072432 112.34786 453.740049 112.680243 
C 453.407667 113.012626 453.22091 113.463497 453.22091 113.933557 
C 453.22091 114.403617 453.407667 114.854488 453.740049 115.186871 
C 454.072432 115.519254 454.523303 115.706011 454.993364 115.706011 
z
" style="fill:#0077bb;stroke:#0077bb;stroke-width:0.886227;"/>
    <path clip-path="url(#p4a39ae685b)" d="M 463.109727 131.235004 
C 463.579788 131.235004 464.030659 131.048247 464.363041 130.715864 
C 464.695424 130.383482 464.882181 129.932611 464.882181 129.46255 
C 464.882181 128.99249 464.695424 128.541619 464.363041 128.209236 
C 464.030659 127.876853 463.579788 127.690096 463.109727 127.690096 
C 462.639667 127.690096 462.188796 127.876853 461.856413 128.209236 
C 461.52403 128.541619 461.337273 128.99249 461.337273 129.46255 
C 461.337273 129.932611 461.52403 130.383482 461.856413 130.715864 
C 462.188796 131.048247 462.639667 131.235004 463.109727 131.235004 
z
" style="fill:#0077bb;stroke:#0077bb;stroke-width:0.886227;"/>
   </g>
  </g>
 </g>
 <defs>
  <clipPath id="p4a39ae685b">
   <rect height="221.76" width="446.4" x="45.117" y="7.2"/>
  </clipPath>
 </defs>
</svg>
