<?xml version="1.0" encoding="utf-8" standalone="no"?>
<!DOCTYPE svg PUBLIC "-//W3C//DTD SVG 1.1//EN"
  "http://www.w3.org/Graphics/SVG/1.1/DTD/svg11.dtd">
<!-- Created with matplotlib (https://matplotlib.org/) -->
<svg height="264.672687pt" version="1.1" viewBox="0 0 498.167 264.672687" width="498.167pt" xmlns="http://www.w3.org/2000/svg" xmlns:xlink="http://www.w3.org/1999/xlink">
 <defs>
  <style type="text/css">
*{stroke-linecap:butt;stroke-linejoin:round;}
  </style>
 </defs>
 <g id="figure_1">
  <g id="patch_1">
   <path d="M 0 264.672687 
L 498.167 264.672687 
L 498.167 0 
L 0 0 
z
" style="fill:#ffffff;stroke:#ffffff;stroke-linejoin:miter;"/>
  </g>
  <g id="axes_1">
   <g id="patch_2">
    <path d="M 44.567 228.96 
L 490.967 228.96 
L 490.967 7.2 
L 44.567 7.2 
z
" style="fill:#ffffff;stroke:#7f7f7f;stroke-linejoin:miter;"/>
   </g>
   <g id="matplotlib.axis_1">
    <g id="xtick_1">
     <g id="line2d_1">
      <path clip-path="url(#pf292baada3)" d="M 64.857909 228.96 
L 64.857909 7.2 
" style="fill:none;stroke:#e5e5e5;stroke-width:0.8;"/>
     </g>
     <g id="line2d_2">
      <path d="M 64.857909 228.96 
" style="fill:none;stroke:#000000;stroke-width:1.5;"/>
      <defs>
       <path d="M 0 0 
L 0 2.75 
" id="m3bfeb0c0ff" style="stroke:#000000;"/>
      </defs>
      <g>
       <use style="stroke:#000000;" x="64.857909" xlink:href="#m3bfeb0c0ff" y="228.96"/>
      </g>
     </g>
     <g id="text_1">
      <!-- 1970 -->
      <defs>
       <path d="M 12.40625 8.296875 
L 28.515625 8.296875 
L 28.515625 63.921875 
L 10.984375 60.40625 
L 10.984375 69.390625 
L 28.421875 72.90625 
L 38.28125 72.90625 
L 38.28125 8.296875 
L 54.390625 8.296875 
L 54.390625 0 
L 12.40625 0 
z
" id="DejaVuSans-49"/>
       <path d="M 10.984375 1.515625 
L 10.984375 10.5 
Q 14.703125 8.734375 18.5 7.8125 
Q 22.3125 6.890625 25.984375 6.890625 
Q 35.75 6.890625 40.890625 13.453125 
Q 46.046875 20.015625 46.78125 33.40625 
Q 43.953125 29.203125 39.59375 26.953125 
Q 35.25 24.703125 29.984375 24.703125 
Q 19.046875 24.703125 12.671875 31.3125 
Q 6.296875 37.9375 6.296875 49.421875 
Q 6.296875 60.640625 12.9375 67.421875 
Q 19.578125 74.21875 30.609375 74.21875 
Q 43.265625 74.21875 49.921875 64.515625 
Q 56.59375 54.828125 56.59375 36.375 
Q 56.59375 19.140625 48.40625 8.859375 
Q 40.234375 -1.421875 26.421875 -1.421875 
Q 22.703125 -1.421875 18.890625 -0.6875 
Q 15.09375 0.046875 10.984375 1.515625 
z
M 30.609375 32.421875 
Q 37.25 32.421875 41.125 36.953125 
Q 45.015625 41.5 45.015625 49.421875 
Q 45.015625 57.28125 41.125 61.84375 
Q 37.25 66.40625 30.609375 66.40625 
Q 23.96875 66.40625 20.09375 61.84375 
Q 16.21875 57.28125 16.21875 49.421875 
Q 16.21875 41.5 20.09375 36.953125 
Q 23.96875 32.421875 30.609375 32.421875 
z
" id="DejaVuSans-57"/>
       <path d="M 8.203125 72.90625 
L 55.078125 72.90625 
L 55.078125 68.703125 
L 28.609375 0 
L 18.3125 0 
L 43.21875 64.59375 
L 8.203125 64.59375 
z
" id="DejaVuSans-55"/>
       <path d="M 31.78125 66.40625 
Q 24.171875 66.40625 20.328125 58.90625 
Q 16.5 51.421875 16.5 36.375 
Q 16.5 21.390625 20.328125 13.890625 
Q 24.171875 6.390625 31.78125 6.390625 
Q 39.453125 6.390625 43.28125 13.890625 
Q 47.125 21.390625 47.125 36.375 
Q 47.125 51.421875 43.28125 58.90625 
Q 39.453125 66.40625 31.78125 66.40625 
z
M 31.78125 74.21875 
Q 44.046875 74.21875 50.515625 64.515625 
Q 56.984375 54.828125 56.984375 36.375 
Q 56.984375 17.96875 50.515625 8.265625 
Q 44.046875 -1.421875 31.78125 -1.421875 
Q 19.53125 -1.421875 13.0625 8.265625 
Q 6.59375 17.96875 6.59375 36.375 
Q 6.59375 54.828125 13.0625 64.515625 
Q 19.53125 74.21875 31.78125 74.21875 
z
" id="DejaVuSans-48"/>
      </defs>
      <g transform="translate(53.659909 240.596625)scale(0.088 -0.088)">
       <use xlink:href="#DejaVuSans-49"/>
       <use x="63.623047" xlink:href="#DejaVuSans-57"/>
       <use x="127.246094" xlink:href="#DejaVuSans-55"/>
       <use x="190.869141" xlink:href="#DejaVuSans-48"/>
      </g>
     </g>
    </g>
    <g id="xtick_2">
     <g id="line2d_3">
      <path clip-path="url(#pf292baada3)" d="M 146.021545 228.96 
L 146.021545 7.2 
" style="fill:none;stroke:#e5e5e5;stroke-width:0.8;"/>
     </g>
     <g id="line2d_4">
      <path d="M 146.021545 228.96 
" style="fill:none;stroke:#000000;stroke-width:1.5;"/>
      <g>
       <use style="stroke:#000000;" x="146.021545" xlink:href="#m3bfeb0c0ff" y="228.96"/>
      </g>
     </g>
     <g id="text_2">
      <!-- 1980 -->
      <defs>
       <path d="M 31.78125 34.625 
Q 24.75 34.625 20.71875 30.859375 
Q 16.703125 27.09375 16.703125 20.515625 
Q 16.703125 13.921875 20.71875 10.15625 
Q 24.75 6.390625 31.78125 6.390625 
Q 38.8125 6.390625 42.859375 10.171875 
Q 46.921875 13.96875 46.921875 20.515625 
Q 46.921875 27.09375 42.890625 30.859375 
Q 38.875 34.625 31.78125 34.625 
z
M 21.921875 38.8125 
Q 15.578125 40.375 12.03125 44.71875 
Q 8.5 49.078125 8.5 55.328125 
Q 8.5 64.0625 14.71875 69.140625 
Q 20.953125 74.21875 31.78125 74.21875 
Q 42.671875 74.21875 48.875 69.140625 
Q 55.078125 64.0625 55.078125 55.328125 
Q 55.078125 49.078125 51.53125 44.71875 
Q 48 40.375 41.703125 38.8125 
Q 48.828125 37.15625 52.796875 32.3125 
Q 56.78125 27.484375 56.78125 20.515625 
Q 56.78125 9.90625 50.3125 4.234375 
Q 43.84375 -1.421875 31.78125 -1.421875 
Q 19.734375 -1.421875 13.25 4.234375 
Q 6.78125 9.90625 6.78125 20.515625 
Q 6.78125 27.484375 10.78125 32.3125 
Q 14.796875 37.15625 21.921875 38.8125 
z
M 18.3125 54.390625 
Q 18.3125 48.734375 21.84375 45.5625 
Q 25.390625 42.390625 31.78125 42.390625 
Q 38.140625 42.390625 41.71875 45.5625 
Q 45.3125 48.734375 45.3125 54.390625 
Q 45.3125 60.0625 41.71875 63.234375 
Q 38.140625 66.40625 31.78125 66.40625 
Q 25.390625 66.40625 21.84375 63.234375 
Q 18.3125 60.0625 18.3125 54.390625 
z
" id="DejaVuSans-56"/>
      </defs>
      <g transform="translate(134.823545 240.596625)scale(0.088 -0.088)">
       <use xlink:href="#DejaVuSans-49"/>
       <use x="63.623047" xlink:href="#DejaVuSans-57"/>
       <use x="127.246094" xlink:href="#DejaVuSans-56"/>
       <use x="190.869141" xlink:href="#DejaVuSans-48"/>
      </g>
     </g>
    </g>
    <g id="xtick_3">
     <g id="line2d_5">
      <path clip-path="url(#pf292baada3)" d="M 227.185182 228.96 
L 227.185182 7.2 
" style="fill:none;stroke:#e5e5e5;stroke-width:0.8;"/>
     </g>
     <g id="line2d_6">
      <path d="M 227.185182 228.96 
" style="fill:none;stroke:#000000;stroke-width:1.5;"/>
      <g>
       <use style="stroke:#000000;" x="227.185182" xlink:href="#m3bfeb0c0ff" y="228.96"/>
      </g>
     </g>
     <g id="text_3">
      <!-- 1990 -->
      <g transform="translate(215.987182 240.596625)scale(0.088 -0.088)">
       <use xlink:href="#DejaVuSans-49"/>
       <use x="63.623047" xlink:href="#DejaVuSans-57"/>
       <use x="127.246094" xlink:href="#DejaVuSans-57"/>
       <use x="190.869141" xlink:href="#DejaVuSans-48"/>
      </g>
     </g>
    </g>
    <g id="xtick_4">
     <g id="line2d_7">
      <path clip-path="url(#pf292baada3)" d="M 308.348818 228.96 
L 308.348818 7.2 
" style="fill:none;stroke:#e5e5e5;stroke-width:0.8;"/>
     </g>
     <g id="line2d_8">
      <path d="M 308.348818 228.96 
" style="fill:none;stroke:#000000;stroke-width:1.5;"/>
      <g>
       <use style="stroke:#000000;" x="308.348818" xlink:href="#m3bfeb0c0ff" y="228.96"/>
      </g>
     </g>
     <g id="text_4">
      <!-- 2000 -->
      <defs>
       <path d="M 19.1875 8.296875 
L 53.609375 8.296875 
L 53.609375 0 
L 7.328125 0 
L 7.328125 8.296875 
Q 12.9375 14.109375 22.625 23.890625 
Q 32.328125 33.6875 34.8125 36.53125 
Q 39.546875 41.84375 41.421875 45.53125 
Q 43.3125 49.21875 43.3125 52.78125 
Q 43.3125 58.59375 39.234375 62.25 
Q 35.15625 65.921875 28.609375 65.921875 
Q 23.96875 65.921875 18.8125 64.3125 
Q 13.671875 62.703125 7.8125 59.421875 
L 7.8125 69.390625 
Q 13.765625 71.78125 18.9375 73 
Q 24.125 74.21875 28.421875 74.21875 
Q 39.75 74.21875 46.484375 68.546875 
Q 53.21875 62.890625 53.21875 53.421875 
Q 53.21875 48.921875 51.53125 44.890625 
Q 49.859375 40.875 45.40625 35.40625 
Q 44.1875 33.984375 37.640625 27.21875 
Q 31.109375 20.453125 19.1875 8.296875 
z
" id="DejaVuSans-50"/>
      </defs>
      <g transform="translate(297.150818 240.596625)scale(0.088 -0.088)">
       <use xlink:href="#DejaVuSans-50"/>
       <use x="63.623047" xlink:href="#DejaVuSans-48"/>
       <use x="127.246094" xlink:href="#DejaVuSans-48"/>
       <use x="190.869141" xlink:href="#DejaVuSans-48"/>
      </g>
     </g>
    </g>
    <g id="xtick_5">
     <g id="line2d_9">
      <path clip-path="url(#pf292baada3)" d="M 389.512455 228.96 
L 389.512455 7.2 
" style="fill:none;stroke:#e5e5e5;stroke-width:0.8;"/>
     </g>
     <g id="line2d_10">
      <path d="M 389.512455 228.96 
" style="fill:none;stroke:#000000;stroke-width:1.5;"/>
      <g>
       <use style="stroke:#000000;" x="389.512455" xlink:href="#m3bfeb0c0ff" y="228.96"/>
      </g>
     </g>
     <g id="text_5">
      <!-- 2010 -->
      <g transform="translate(378.314455 240.596625)scale(0.088 -0.088)">
       <use xlink:href="#DejaVuSans-50"/>
       <use x="63.623047" xlink:href="#DejaVuSans-48"/>
       <use x="127.246094" xlink:href="#DejaVuSans-49"/>
       <use x="190.869141" xlink:href="#DejaVuSans-48"/>
      </g>
     </g>
    </g>
    <g id="xtick_6">
     <g id="line2d_11">
      <path clip-path="url(#pf292baada3)" d="M 470.676091 228.96 
L 470.676091 7.2 
" style="fill:none;stroke:#e5e5e5;stroke-width:0.8;"/>
     </g>
     <g id="line2d_12">
      <path d="M 470.676091 228.96 
" style="fill:none;stroke:#000000;stroke-width:1.5;"/>
      <g>
       <use style="stroke:#000000;" x="470.676091" xlink:href="#m3bfeb0c0ff" y="228.96"/>
      </g>
     </g>
     <g id="text_6">
      <!-- 2020 -->
      <g transform="translate(459.478091 240.596625)scale(0.088 -0.088)">
       <use xlink:href="#DejaVuSans-50"/>
       <use x="63.623047" xlink:href="#DejaVuSans-48"/>
       <use x="127.246094" xlink:href="#DejaVuSans-50"/>
       <use x="190.869141" xlink:href="#DejaVuSans-48"/>
      </g>
     </g>
    </g>
    <g id="xtick_7">
     <g id="line2d_13">
      <path clip-path="url(#pf292baada3)" d="M 105.439727 228.96 
L 105.439727 7.2 
" style="fill:none;stroke:#fafafa;"/>
     </g>
     <g id="line2d_14">
      <path d="M 105.439727 228.96 
" style="fill:none;stroke:#000000;stroke-width:1.5;"/>
      <defs>
       <path d="M 0 0 
L 0 1.375 
" id="m22866c6774" style="stroke:#000000;"/>
      </defs>
      <g>
       <use style="stroke:#000000;" x="105.439727" xlink:href="#m22866c6774" y="228.96"/>
      </g>
     </g>
    </g>
    <g id="xtick_8">
     <g id="line2d_15">
      <path clip-path="url(#pf292baada3)" d="M 186.603364 228.96 
L 186.603364 7.2 
" style="fill:none;stroke:#fafafa;"/>
     </g>
     <g id="line2d_16">
      <path d="M 186.603364 228.96 
" style="fill:none;stroke:#000000;stroke-width:1.5;"/>
      <g>
       <use style="stroke:#000000;" x="186.603364" xlink:href="#m22866c6774" y="228.96"/>
      </g>
     </g>
    </g>
    <g id="xtick_9">
     <g id="line2d_17">
      <path clip-path="url(#pf292baada3)" d="M 267.767 228.96 
L 267.767 7.2 
" style="fill:none;stroke:#fafafa;"/>
     </g>
     <g id="line2d_18">
      <path d="M 267.767 228.96 
" style="fill:none;stroke:#000000;stroke-width:1.5;"/>
      <g>
       <use style="stroke:#000000;" x="267.767" xlink:href="#m22866c6774" y="228.96"/>
      </g>
     </g>
    </g>
    <g id="xtick_10">
     <g id="line2d_19">
      <path clip-path="url(#pf292baada3)" d="M 348.930636 228.96 
L 348.930636 7.2 
" style="fill:none;stroke:#fafafa;"/>
     </g>
     <g id="line2d_20">
      <path d="M 348.930636 228.96 
" style="fill:none;stroke:#000000;stroke-width:1.5;"/>
      <g>
       <use style="stroke:#000000;" x="348.930636" xlink:href="#m22866c6774" y="228.96"/>
      </g>
     </g>
    </g>
    <g id="xtick_11">
     <g id="line2d_21">
      <path clip-path="url(#pf292baada3)" d="M 430.094273 228.96 
L 430.094273 7.2 
" style="fill:none;stroke:#fafafa;"/>
     </g>
     <g id="line2d_22">
      <path d="M 430.094273 228.96 
" style="fill:none;stroke:#000000;stroke-width:1.5;"/>
      <g>
       <use style="stroke:#000000;" x="430.094273" xlink:href="#m22866c6774" y="228.96"/>
      </g>
     </g>
    </g>
    <g id="text_7">
     <!-- Year -->
     <defs>
      <path d="M -0.203125 72.90625 
L 10.40625 72.90625 
L 30.609375 42.921875 
L 50.6875 72.90625 
L 61.28125 72.90625 
L 35.5 34.71875 
L 35.5 0 
L 25.59375 0 
L 25.59375 34.71875 
z
" id="DejaVuSans-89"/>
      <path d="M 56.203125 29.59375 
L 56.203125 25.203125 
L 14.890625 25.203125 
Q 15.484375 15.921875 20.484375 11.0625 
Q 25.484375 6.203125 34.421875 6.203125 
Q 39.59375 6.203125 44.453125 7.46875 
Q 49.3125 8.734375 54.109375 11.28125 
L 54.109375 2.78125 
Q 49.265625 0.734375 44.1875 -0.34375 
Q 39.109375 -1.421875 33.890625 -1.421875 
Q 20.796875 -1.421875 13.15625 6.1875 
Q 5.515625 13.8125 5.515625 26.8125 
Q 5.515625 40.234375 12.765625 48.109375 
Q 20.015625 56 32.328125 56 
Q 43.359375 56 49.78125 48.890625 
Q 56.203125 41.796875 56.203125 29.59375 
z
M 47.21875 32.234375 
Q 47.125 39.59375 43.09375 43.984375 
Q 39.0625 48.390625 32.421875 48.390625 
Q 24.90625 48.390625 20.390625 44.140625 
Q 15.875 39.890625 15.1875 32.171875 
z
" id="DejaVuSans-101"/>
      <path d="M 34.28125 27.484375 
Q 23.390625 27.484375 19.1875 25 
Q 14.984375 22.515625 14.984375 16.5 
Q 14.984375 11.71875 18.140625 8.90625 
Q 21.296875 6.109375 26.703125 6.109375 
Q 34.1875 6.109375 38.703125 11.40625 
Q 43.21875 16.703125 43.21875 25.484375 
L 43.21875 27.484375 
z
M 52.203125 31.203125 
L 52.203125 0 
L 43.21875 0 
L 43.21875 8.296875 
Q 40.140625 3.328125 35.546875 0.953125 
Q 30.953125 -1.421875 24.3125 -1.421875 
Q 15.921875 -1.421875 10.953125 3.296875 
Q 6 8.015625 6 15.921875 
Q 6 25.140625 12.171875 29.828125 
Q 18.359375 34.515625 30.609375 34.515625 
L 43.21875 34.515625 
L 43.21875 35.40625 
Q 43.21875 41.609375 39.140625 45 
Q 35.0625 48.390625 27.6875 48.390625 
Q 23 48.390625 18.546875 47.265625 
Q 14.109375 46.140625 10.015625 43.890625 
L 10.015625 52.203125 
Q 14.9375 54.109375 19.578125 55.046875 
Q 24.21875 56 28.609375 56 
Q 40.484375 56 46.34375 49.84375 
Q 52.203125 43.703125 52.203125 31.203125 
z
" id="DejaVuSans-97"/>
      <path d="M 41.109375 46.296875 
Q 39.59375 47.171875 37.8125 47.578125 
Q 36.03125 48 33.890625 48 
Q 26.265625 48 22.1875 43.046875 
Q 18.109375 38.09375 18.109375 28.8125 
L 18.109375 0 
L 9.078125 0 
L 9.078125 54.6875 
L 18.109375 54.6875 
L 18.109375 46.1875 
Q 20.953125 51.171875 25.484375 53.578125 
Q 30.03125 56 36.53125 56 
Q 37.453125 56 38.578125 55.875 
Q 39.703125 55.765625 41.0625 55.515625 
z
" id="DejaVuSans-114"/>
     </defs>
     <g transform="translate(248.203172 255.185031)scale(0.11 -0.11)">
      <use xlink:href="#DejaVuSans-89"/>
      <use x="60.880859" xlink:href="#DejaVuSans-101"/>
      <use x="122.404297" xlink:href="#DejaVuSans-97"/>
      <use x="183.683594" xlink:href="#DejaVuSans-114"/>
     </g>
    </g>
   </g>
   <g id="matplotlib.axis_2">
    <g id="ytick_1">
     <g id="line2d_23">
      <path clip-path="url(#pf292baada3)" d="M 44.567 218.88 
L 490.967 218.88 
" style="fill:none;stroke:#e5e5e5;stroke-width:0.8;"/>
     </g>
     <g id="line2d_24">
      <path d="M 44.567 218.88 
" style="fill:none;stroke:#000000;stroke-width:1.5;"/>
      <defs>
       <path d="M 0 0 
L -2.75 0 
" id="mcd39f8bfee" style="stroke:#000000;"/>
      </defs>
      <g>
       <use style="stroke:#000000;" x="44.567" xlink:href="#mcd39f8bfee" y="218.88"/>
      </g>
     </g>
     <g id="text_8">
      <!-- 0 -->
      <g transform="translate(34.018 221.30825)scale(0.088 -0.088)">
       <use xlink:href="#DejaVuSans-48"/>
      </g>
     </g>
    </g>
    <g id="ytick_2">
     <g id="line2d_25">
      <path clip-path="url(#pf292baada3)" d="M 44.567 168.48 
L 490.967 168.48 
" style="fill:none;stroke:#e5e5e5;stroke-width:0.8;"/>
     </g>
     <g id="line2d_26">
      <path d="M 44.567 168.48 
" style="fill:none;stroke:#000000;stroke-width:1.5;"/>
      <g>
       <use style="stroke:#000000;" x="44.567" xlink:href="#mcd39f8bfee" y="168.48"/>
      </g>
     </g>
     <g id="text_9">
      <!-- 25 -->
      <defs>
       <path d="M 10.796875 72.90625 
L 49.515625 72.90625 
L 49.515625 64.59375 
L 19.828125 64.59375 
L 19.828125 46.734375 
Q 21.96875 47.46875 24.109375 47.828125 
Q 26.265625 48.1875 28.421875 48.1875 
Q 40.625 48.1875 47.75 41.5 
Q 54.890625 34.8125 54.890625 23.390625 
Q 54.890625 11.625 47.5625 5.09375 
Q 40.234375 -1.421875 26.90625 -1.421875 
Q 22.3125 -1.421875 17.546875 -0.640625 
Q 12.796875 0.140625 7.71875 1.703125 
L 7.71875 11.625 
Q 12.109375 9.234375 16.796875 8.0625 
Q 21.484375 6.890625 26.703125 6.890625 
Q 35.15625 6.890625 40.078125 11.328125 
Q 45.015625 15.765625 45.015625 23.390625 
Q 45.015625 31 40.078125 35.4375 
Q 35.15625 39.890625 26.703125 39.890625 
Q 22.75 39.890625 18.8125 39.015625 
Q 14.890625 38.140625 10.796875 36.28125 
z
" id="DejaVuSans-53"/>
      </defs>
      <g transform="translate(28.419 170.90825)scale(0.088 -0.088)">
       <use xlink:href="#DejaVuSans-50"/>
       <use x="63.623047" xlink:href="#DejaVuSans-53"/>
      </g>
     </g>
    </g>
    <g id="ytick_3">
     <g id="line2d_27">
      <path clip-path="url(#pf292baada3)" d="M 44.567 118.08 
L 490.967 118.08 
" style="fill:none;stroke:#e5e5e5;stroke-width:0.8;"/>
     </g>
     <g id="line2d_28">
      <path d="M 44.567 118.08 
" style="fill:none;stroke:#000000;stroke-width:1.5;"/>
      <g>
       <use style="stroke:#000000;" x="44.567" xlink:href="#mcd39f8bfee" y="118.08"/>
      </g>
     </g>
     <g id="text_10">
      <!-- 50 -->
      <g transform="translate(28.419 120.50825)scale(0.088 -0.088)">
       <use xlink:href="#DejaVuSans-53"/>
       <use x="63.623047" xlink:href="#DejaVuSans-48"/>
      </g>
     </g>
    </g>
    <g id="ytick_4">
     <g id="line2d_29">
      <path clip-path="url(#pf292baada3)" d="M 44.567 67.68 
L 490.967 67.68 
" style="fill:none;stroke:#e5e5e5;stroke-width:0.8;"/>
     </g>
     <g id="line2d_30">
      <path d="M 44.567 67.68 
" style="fill:none;stroke:#000000;stroke-width:1.5;"/>
      <g>
       <use style="stroke:#000000;" x="44.567" xlink:href="#mcd39f8bfee" y="67.68"/>
      </g>
     </g>
     <g id="text_11">
      <!-- 75 -->
      <g transform="translate(28.419 70.10825)scale(0.088 -0.088)">
       <use xlink:href="#DejaVuSans-55"/>
       <use x="63.623047" xlink:href="#DejaVuSans-53"/>
      </g>
     </g>
    </g>
    <g id="ytick_5">
     <g id="line2d_31">
      <path clip-path="url(#pf292baada3)" d="M 44.567 17.28 
L 490.967 17.28 
" style="fill:none;stroke:#e5e5e5;stroke-width:0.8;"/>
     </g>
     <g id="line2d_32">
      <path d="M 44.567 17.28 
" style="fill:none;stroke:#000000;stroke-width:1.5;"/>
      <g>
       <use style="stroke:#000000;" x="44.567" xlink:href="#mcd39f8bfee" y="17.28"/>
      </g>
     </g>
     <g id="text_12">
      <!-- 100 -->
      <g transform="translate(22.82 19.70825)scale(0.088 -0.088)">
       <use xlink:href="#DejaVuSans-49"/>
       <use x="63.623047" xlink:href="#DejaVuSans-48"/>
       <use x="127.246094" xlink:href="#DejaVuSans-48"/>
      </g>
     </g>
    </g>
    <g id="ytick_6">
     <g id="line2d_33">
      <path clip-path="url(#pf292baada3)" d="M 44.567 193.68 
L 490.967 193.68 
" style="fill:none;stroke:#fafafa;"/>
     </g>
     <g id="line2d_34">
      <path d="M 44.567 193.68 
" style="fill:none;stroke:#000000;stroke-width:1.5;"/>
      <defs>
       <path d="M 0 0 
L -1.375 0 
" id="ma2d8f2cdaa" style="stroke:#000000;"/>
      </defs>
      <g>
       <use style="stroke:#000000;" x="44.567" xlink:href="#ma2d8f2cdaa" y="193.68"/>
      </g>
     </g>
    </g>
    <g id="ytick_7">
     <g id="line2d_35">
      <path clip-path="url(#pf292baada3)" d="M 44.567 143.28 
L 490.967 143.28 
" style="fill:none;stroke:#fafafa;"/>
     </g>
     <g id="line2d_36">
      <path d="M 44.567 143.28 
" style="fill:none;stroke:#000000;stroke-width:1.5;"/>
      <g>
       <use style="stroke:#000000;" x="44.567" xlink:href="#ma2d8f2cdaa" y="143.28"/>
      </g>
     </g>
    </g>
    <g id="ytick_8">
     <g id="line2d_37">
      <path clip-path="url(#pf292baada3)" d="M 44.567 92.88 
L 490.967 92.88 
" style="fill:none;stroke:#fafafa;"/>
     </g>
     <g id="line2d_38">
      <path d="M 44.567 92.88 
" style="fill:none;stroke:#000000;stroke-width:1.5;"/>
      <g>
       <use style="stroke:#000000;" x="44.567" xlink:href="#ma2d8f2cdaa" y="92.88"/>
      </g>
     </g>
    </g>
    <g id="ytick_9">
     <g id="line2d_39">
      <path clip-path="url(#pf292baada3)" d="M 44.567 42.48 
L 490.967 42.48 
" style="fill:none;stroke:#fafafa;"/>
     </g>
     <g id="line2d_40">
      <path d="M 44.567 42.48 
" style="fill:none;stroke:#000000;stroke-width:1.5;"/>
      <g>
       <use style="stroke:#000000;" x="44.567" xlink:href="#ma2d8f2cdaa" y="42.48"/>
      </g>
     </g>
    </g>
    <g id="text_13">
     <!-- $P_{Q1N}$ [%] -->
     <defs>
      <path d="M 16.890625 72.90625 
L 39.703125 72.90625 
Q 49.65625 72.90625 54.875 68.265625 
Q 60.109375 63.625 60.109375 54.6875 
Q 60.109375 42.671875 52.390625 35.984375 
Q 44.671875 29.296875 30.71875 29.296875 
L 18.3125 29.296875 
L 12.59375 0 
L 2.6875 0 
z
M 25.203125 64.796875 
L 19.921875 37.40625 
L 32.328125 37.40625 
Q 40.71875 37.40625 45.203125 41.703125 
Q 49.703125 46 49.703125 54 
Q 49.703125 59.125 46.65625 61.953125 
Q 43.609375 64.796875 38.09375 64.796875 
z
" id="DejaVuSans-Oblique-80"/>
      <path d="M 36.078125 -1.3125 
Q 35.546875 -1.375 34.953125 -1.390625 
Q 34.375 -1.421875 33.203125 -1.421875 
Q 19.53125 -1.421875 11.8125 6.421875 
Q 4.109375 14.265625 4.109375 28.078125 
Q 4.109375 36.234375 7.0625 44.4375 
Q 10.015625 52.640625 15.28125 59.1875 
Q 21.390625 66.703125 29.03125 70.453125 
Q 36.671875 74.21875 45.90625 74.21875 
Q 59.28125 74.21875 66.984375 66.328125 
Q 74.703125 58.453125 74.703125 44.828125 
Q 74.703125 30.125 66.640625 17.921875 
Q 58.59375 5.71875 45.609375 0.6875 
L 55.515625 -12.890625 
L 44.484375 -12.890625 
z
M 45.609375 66.21875 
Q 37.5 66.21875 31.296875 62.28125 
Q 25.09375 58.34375 20.515625 50.296875 
Q 17.578125 45.171875 16.03125 39.40625 
Q 14.5 33.640625 14.5 27.78125 
Q 14.5 17.625 19.359375 12.109375 
Q 24.21875 6.59375 33.109375 6.59375 
Q 41.109375 6.59375 47.375 10.5625 
Q 53.65625 14.546875 58.109375 22.40625 
Q 61.078125 27.6875 62.640625 33.46875 
Q 64.203125 39.265625 64.203125 45.015625 
Q 64.203125 55.125 59.3125 60.671875 
Q 54.4375 66.21875 45.609375 66.21875 
z
" id="DejaVuSans-Oblique-81"/>
      <path d="M 16.890625 72.90625 
L 30.171875 72.90625 
L 50.296875 10.40625 
L 62.5 72.90625 
L 72.125 72.90625 
L 57.90625 0 
L 44.578125 0 
L 24.515625 62.890625 
L 12.3125 0 
L 2.6875 0 
z
" id="DejaVuSans-Oblique-78"/>
      <path id="DejaVuSans-32"/>
      <path d="M 8.59375 75.984375 
L 29.296875 75.984375 
L 29.296875 69 
L 17.578125 69 
L 17.578125 -6.203125 
L 29.296875 -6.203125 
L 29.296875 -13.1875 
L 8.59375 -13.1875 
z
" id="DejaVuSans-91"/>
      <path d="M 72.703125 32.078125 
Q 68.453125 32.078125 66.03125 28.46875 
Q 63.625 24.859375 63.625 18.40625 
Q 63.625 12.0625 66.03125 8.421875 
Q 68.453125 4.78125 72.703125 4.78125 
Q 76.859375 4.78125 79.265625 8.421875 
Q 81.6875 12.0625 81.6875 18.40625 
Q 81.6875 24.8125 79.265625 28.4375 
Q 76.859375 32.078125 72.703125 32.078125 
z
M 72.703125 38.28125 
Q 80.421875 38.28125 84.953125 32.90625 
Q 89.5 27.546875 89.5 18.40625 
Q 89.5 9.28125 84.9375 3.921875 
Q 80.375 -1.421875 72.703125 -1.421875 
Q 64.890625 -1.421875 60.34375 3.921875 
Q 55.8125 9.28125 55.8125 18.40625 
Q 55.8125 27.59375 60.375 32.9375 
Q 64.9375 38.28125 72.703125 38.28125 
z
M 22.3125 68.015625 
Q 18.109375 68.015625 15.6875 64.375 
Q 13.28125 60.75 13.28125 54.390625 
Q 13.28125 47.953125 15.671875 44.328125 
Q 18.0625 40.71875 22.3125 40.71875 
Q 26.5625 40.71875 28.96875 44.328125 
Q 31.390625 47.953125 31.390625 54.390625 
Q 31.390625 60.6875 28.953125 64.34375 
Q 26.515625 68.015625 22.3125 68.015625 
z
M 66.40625 74.21875 
L 74.21875 74.21875 
L 28.609375 -1.421875 
L 20.796875 -1.421875 
z
M 22.3125 74.21875 
Q 30.03125 74.21875 34.609375 68.875 
Q 39.203125 63.53125 39.203125 54.390625 
Q 39.203125 45.171875 34.640625 39.84375 
Q 30.078125 34.515625 22.3125 34.515625 
Q 14.546875 34.515625 10.03125 39.859375 
Q 5.515625 45.21875 5.515625 54.390625 
Q 5.515625 63.484375 10.046875 68.84375 
Q 14.59375 74.21875 22.3125 74.21875 
z
" id="DejaVuSans-37"/>
      <path d="M 30.421875 75.984375 
L 30.421875 -13.1875 
L 9.71875 -13.1875 
L 9.71875 -6.203125 
L 21.390625 -6.203125 
L 21.390625 69 
L 9.71875 69 
L 9.71875 75.984375 
z
" id="DejaVuSans-93"/>
     </defs>
     <g transform="translate(15.56 139.74)rotate(-90)scale(0.11 -0.11)">
      <use transform="translate(0 0.015625)" xlink:href="#DejaVuSans-Oblique-80"/>
      <use transform="translate(60.302734 -16.390625)scale(0.7)" xlink:href="#DejaVuSans-Oblique-81"/>
      <use transform="translate(115.400391 -16.390625)scale(0.7)" xlink:href="#DejaVuSans-49"/>
      <use transform="translate(159.936523 -16.390625)scale(0.7)" xlink:href="#DejaVuSans-Oblique-78"/>
      <use transform="translate(215.03418 0.015625)" xlink:href="#DejaVuSans-32"/>
      <use transform="translate(246.821289 0.015625)" xlink:href="#DejaVuSans-91"/>
      <use transform="translate(285.834961 0.015625)" xlink:href="#DejaVuSans-37"/>
      <use transform="translate(380.854492 0.015625)" xlink:href="#DejaVuSans-93"/>
     </g>
    </g>
   </g>
   <g id="PathCollection_1">
    <path clip-path="url(#pf292baada3)" d="M 121.672455 125.690292 
C 122.142515 125.690292 122.593386 125.503535 122.925769 125.171152 
C 123.258151 124.838769 123.444908 124.387898 123.444908 123.917838 
C 123.444908 123.447778 123.258151 122.996906 122.925769 122.664524 
C 122.593386 122.332141 122.142515 122.145384 121.672455 122.145384 
C 121.202394 122.145384 120.751523 122.332141 120.41914 122.664524 
C 120.086758 122.996906 119.900001 123.447778 119.900001 123.917838 
C 119.900001 124.387898 120.086758 124.838769 120.41914 125.171152 
C 120.751523 125.503535 121.202394 125.690292 121.672455 125.690292 
z
" style="stroke:#000000;stroke-width:0.886227;"/>
    <path clip-path="url(#pf292baada3)" d="M 129.788818 190.976778 
C 130.258878 190.976778 130.70975 190.790021 131.042132 190.457638 
C 131.374515 190.125256 131.561272 189.674385 131.561272 189.204324 
C 131.561272 188.734264 131.374515 188.283393 131.042132 187.95101 
C 130.70975 187.618627 130.258878 187.43187 129.788818 187.43187 
C 129.318758 187.43187 128.867887 187.618627 128.535504 187.95101 
C 128.203121 188.283393 128.016364 188.734264 128.016364 189.204324 
C 128.016364 189.674385 128.203121 190.125256 128.535504 190.457638 
C 128.867887 190.790021 129.318758 190.976778 129.788818 190.976778 
z
" style="stroke:#000000;stroke-width:0.886227;"/>
    <path clip-path="url(#pf292baada3)" d="M 154.137909 161.641643 
C 154.607969 161.641643 155.05884 161.454886 155.391223 161.122503 
C 155.723606 160.790121 155.910363 160.339249 155.910363 159.869189 
C 155.910363 159.399129 155.723606 158.948258 155.391223 158.615875 
C 155.05884 158.283492 154.607969 158.096735 154.137909 158.096735 
C 153.667849 158.096735 153.216978 158.283492 152.884595 158.615875 
C 152.552212 158.948258 152.365455 159.399129 152.365455 159.869189 
C 152.365455 160.339249 152.552212 160.790121 152.884595 161.122503 
C 153.216978 161.454886 153.667849 161.641643 154.137909 161.641643 
z
" style="stroke:#000000;stroke-width:0.886227;"/>
    <path clip-path="url(#pf292baada3)" d="M 162.254273 140.803805 
C 162.724333 140.803805 163.175204 140.617048 163.507587 140.284665 
C 163.83997 139.952283 164.026727 139.501412 164.026727 139.031351 
C 164.026727 138.561291 163.83997 138.11042 163.507587 137.778037 
C 163.175204 137.445654 162.724333 137.258898 162.254273 137.258898 
C 161.784212 137.258898 161.333341 137.445654 161.000959 137.778037 
C 160.668576 138.11042 160.481819 138.561291 160.481819 139.031351 
C 160.481819 139.501412 160.668576 139.952283 161.000959 140.284665 
C 161.333341 140.617048 161.784212 140.803805 162.254273 140.803805 
z
" style="stroke:#000000;stroke-width:0.886227;"/>
    <path clip-path="url(#pf292baada3)" d="M 170.370636 212.965967 
C 170.840697 212.965967 171.291568 212.77921 171.623951 212.446828 
C 171.956333 212.114445 172.14309 211.663574 172.14309 211.193514 
C 172.14309 210.723453 171.956333 210.272582 171.623951 209.940199 
C 171.291568 209.607817 170.840697 209.42106 170.370636 209.42106 
C 169.900576 209.42106 169.449705 209.607817 169.117322 209.940199 
C 168.784939 210.272582 168.598183 210.723453 168.598183 211.193514 
C 168.598183 211.663574 168.784939 212.114445 169.117322 212.446828 
C 169.449705 212.77921 169.900576 212.965967 170.370636 212.965967 
z
" style="stroke:#000000;stroke-width:0.886227;"/>
    <path clip-path="url(#pf292baada3)" d="M 178.487 101.074075 
C 178.95706 101.074075 179.407931 100.887319 179.740314 100.554936 
C 180.072697 100.222553 180.259454 99.771682 180.259454 99.301622 
C 180.259454 98.831561 180.072697 98.38069 179.740314 98.048307 
C 179.407931 97.715925 178.95706 97.529168 178.487 97.529168 
C 178.01694 97.529168 177.566069 97.715925 177.233686 98.048307 
C 176.901303 98.38069 176.714546 98.831561 176.714546 99.301622 
C 176.714546 99.771682 176.901303 100.222553 177.233686 100.554936 
C 177.566069 100.887319 178.01694 101.074075 178.487 101.074075 
z
" style="stroke:#000000;stroke-width:0.886227;"/>
    <path clip-path="url(#pf292baada3)" d="M 186.603364 146.73894 
C 187.073424 146.73894 187.524295 146.552183 187.856678 146.219801 
C 188.189061 145.887418 188.375817 145.436547 188.375817 144.966486 
C 188.375817 144.496426 188.189061 144.045555 187.856678 143.713172 
C 187.524295 143.38079 187.073424 143.194033 186.603364 143.194033 
C 186.133303 143.194033 185.682432 143.38079 185.350049 143.713172 
C 185.017667 144.045555 184.83091 144.496426 184.83091 144.966486 
C 184.83091 145.436547 185.017667 145.887418 185.350049 146.219801 
C 185.682432 146.552183 186.133303 146.73894 186.603364 146.73894 
z
" style="stroke:#000000;stroke-width:0.886227;"/>
    <path clip-path="url(#pf292baada3)" d="M 194.719727 155.382184 
C 195.189788 155.382184 195.640659 155.195427 195.973041 154.863044 
C 196.305424 154.530661 196.492181 154.07979 196.492181 153.60973 
C 196.492181 153.139669 196.305424 152.688798 195.973041 152.356416 
C 195.640659 152.024033 195.189788 151.837276 194.719727 151.837276 
C 194.249667 151.837276 193.798796 152.024033 193.466413 152.356416 
C 193.13403 152.688798 192.947273 153.139669 192.947273 153.60973 
C 192.947273 154.07979 193.13403 154.530661 193.466413 154.863044 
C 193.798796 155.195427 194.249667 155.382184 194.719727 155.382184 
z
" style="stroke:#000000;stroke-width:0.886227;"/>
    <path clip-path="url(#pf292baada3)" d="M 202.836091 177.517319 
C 203.306151 177.517319 203.757022 177.330562 204.089405 176.998179 
C 204.421788 176.665796 204.608545 176.214925 204.608545 175.744865 
C 204.608545 175.274805 204.421788 174.823934 204.089405 174.491551 
C 203.757022 174.159168 203.306151 173.972411 202.836091 173.972411 
C 202.366031 173.972411 201.91516 174.159168 201.582777 174.491551 
C 201.250394 174.823934 201.063637 175.274805 201.063637 175.744865 
C 201.063637 176.214925 201.250394 176.665796 201.582777 176.998179 
C 201.91516 177.330562 202.366031 177.517319 202.836091 177.517319 
z
" style="stroke:#000000;stroke-width:0.886227;"/>
    <path clip-path="url(#pf292baada3)" d="M 210.952455 143.657859 
C 211.422515 143.657859 211.873386 143.471102 212.205769 143.13872 
C 212.538151 142.806337 212.724908 142.355466 212.724908 141.885405 
C 212.724908 141.415345 212.538151 140.964474 212.205769 140.632091 
C 211.873386 140.299708 211.422515 140.112952 210.952455 140.112952 
C 210.482394 140.112952 210.031523 140.299708 209.69914 140.632091 
C 209.366758 140.964474 209.180001 141.415345 209.180001 141.885405 
C 209.180001 142.355466 209.366758 142.806337 209.69914 143.13872 
C 210.031523 143.471102 210.482394 143.657859 210.952455 143.657859 
z
" style="stroke:#000000;stroke-width:0.886227;"/>
    <path clip-path="url(#pf292baada3)" d="M 219.068818 145.271373 
C 219.538878 145.271373 219.98975 145.084616 220.322132 144.752233 
C 220.654515 144.41985 220.841272 143.968979 220.841272 143.498919 
C 220.841272 143.028859 220.654515 142.577988 220.322132 142.245605 
C 219.98975 141.913222 219.538878 141.726465 219.068818 141.726465 
C 218.598758 141.726465 218.147887 141.913222 217.815504 142.245605 
C 217.483121 142.577988 217.296364 143.028859 217.296364 143.498919 
C 217.296364 143.968979 217.483121 144.41985 217.815504 144.752233 
C 218.147887 145.084616 218.598758 145.271373 219.068818 145.271373 
z
" style="stroke:#000000;stroke-width:0.886227;"/>
    <path clip-path="url(#pf292baada3)" d="M 227.185182 164.915002 
C 227.655242 164.915002 228.106113 164.728245 228.438496 164.395862 
C 228.770879 164.06348 228.957636 163.612609 228.957636 163.142548 
C 228.957636 162.672488 228.770879 162.221617 228.438496 161.889234 
C 228.106113 161.556851 227.655242 161.370094 227.185182 161.370094 
C 226.715122 161.370094 226.26425 161.556851 225.931868 161.889234 
C 225.599485 162.221617 225.412728 162.672488 225.412728 163.142548 
C 225.412728 163.612609 225.599485 164.06348 225.931868 164.395862 
C 226.26425 164.728245 226.715122 164.915002 227.185182 164.915002 
z
" style="stroke:#000000;stroke-width:0.886227;"/>
    <path clip-path="url(#pf292baada3)" d="M 235.301545 139.291783 
C 235.771606 139.291783 236.222477 139.105026 236.55486 138.772643 
C 236.887242 138.44026 237.073999 137.989389 237.073999 137.519329 
C 237.073999 137.049269 236.887242 136.598398 236.55486 136.266015 
C 236.222477 135.933632 235.771606 135.746875 235.301545 135.746875 
C 234.831485 135.746875 234.380614 135.933632 234.048231 136.266015 
C 233.715849 136.598398 233.529092 137.049269 233.529092 137.519329 
C 233.529092 137.989389 233.715849 138.44026 234.048231 138.772643 
C 234.380614 139.105026 234.831485 139.291783 235.301545 139.291783 
z
" style="stroke:#000000;stroke-width:0.886227;"/>
    <path clip-path="url(#pf292baada3)" d="M 243.417909 158.572145 
C 243.887969 158.572145 244.33884 158.385388 244.671223 158.053005 
C 245.003606 157.720622 245.190363 157.269751 245.190363 156.799691 
C 245.190363 156.329631 245.003606 155.87876 244.671223 155.546377 
C 244.33884 155.213994 243.887969 155.027237 243.417909 155.027237 
C 242.947849 155.027237 242.496978 155.213994 242.164595 155.546377 
C 241.832212 155.87876 241.645455 156.329631 241.645455 156.799691 
C 241.645455 157.269751 241.832212 157.720622 242.164595 158.053005 
C 242.496978 158.385388 242.947849 158.572145 243.417909 158.572145 
z
" style="stroke:#000000;stroke-width:0.886227;"/>
    <path clip-path="url(#pf292baada3)" d="M 251.534273 138.72118 
C 252.004333 138.72118 252.455204 138.534423 252.787587 138.20204 
C 253.11997 137.869657 253.306727 137.418786 253.306727 136.948726 
C 253.306727 136.478666 253.11997 136.027795 252.787587 135.695412 
C 252.455204 135.363029 252.004333 135.176272 251.534273 135.176272 
C 251.064212 135.176272 250.613341 135.363029 250.280959 135.695412 
C 249.948576 136.027795 249.761819 136.478666 249.761819 136.948726 
C 249.761819 137.418786 249.948576 137.869657 250.280959 138.20204 
C 250.613341 138.534423 251.064212 138.72118 251.534273 138.72118 
z
" style="stroke:#000000;stroke-width:0.886227;"/>
    <path clip-path="url(#pf292baada3)" d="M 259.650636 119.528593 
C 260.120697 119.528593 260.571568 119.341836 260.903951 119.009453 
C 261.236333 118.67707 261.42309 118.226199 261.42309 117.756139 
C 261.42309 117.286079 261.236333 116.835208 260.903951 116.502825 
C 260.571568 116.170442 260.120697 115.983685 259.650636 115.983685 
C 259.180576 115.983685 258.729705 116.170442 258.397322 116.502825 
C 258.064939 116.835208 257.878183 117.286079 257.878183 117.756139 
C 257.878183 118.226199 258.064939 118.67707 258.397322 119.009453 
C 258.729705 119.341836 259.180576 119.528593 259.650636 119.528593 
z
" style="stroke:#000000;stroke-width:0.886227;"/>
    <path clip-path="url(#pf292baada3)" d="M 267.767 124.225041 
C 268.23706 124.225041 268.687931 124.038284 269.020314 123.705901 
C 269.352697 123.373518 269.539454 122.922647 269.539454 122.452587 
C 269.539454 121.982527 269.352697 121.531656 269.020314 121.199273 
C 268.687931 120.86689 268.23706 120.680133 267.767 120.680133 
C 267.29694 120.680133 266.846069 120.86689 266.513686 121.199273 
C 266.181303 121.531656 265.994546 121.982527 265.994546 122.452587 
C 265.994546 122.922647 266.181303 123.373518 266.513686 123.705901 
C 266.846069 124.038284 267.29694 124.225041 267.767 124.225041 
z
" style="stroke:#000000;stroke-width:0.886227;"/>
    <path clip-path="url(#pf292baada3)" d="M 275.883364 118.445766 
C 276.353424 118.445766 276.804295 118.259009 277.136678 117.926626 
C 277.469061 117.594243 277.655817 117.143372 277.655817 116.673312 
C 277.655817 116.203252 277.469061 115.752381 277.136678 115.419998 
C 276.804295 115.087615 276.353424 114.900858 275.883364 114.900858 
C 275.413303 114.900858 274.962432 115.087615 274.630049 115.419998 
C 274.297667 115.752381 274.11091 116.203252 274.11091 116.673312 
C 274.11091 117.143372 274.297667 117.594243 274.630049 117.926626 
C 274.962432 118.259009 275.413303 118.445766 275.883364 118.445766 
z
" style="stroke:#000000;stroke-width:0.886227;"/>
    <path clip-path="url(#pf292baada3)" d="M 283.999727 113.750221 
C 284.469788 113.750221 284.920659 113.563464 285.253041 113.231081 
C 285.585424 112.898699 285.772181 112.447828 285.772181 111.977767 
C 285.772181 111.507707 285.585424 111.056836 285.253041 110.724453 
C 284.920659 110.39207 284.469788 110.205313 283.999727 110.205313 
C 283.529667 110.205313 283.078796 110.39207 282.746413 110.724453 
C 282.41403 111.056836 282.227273 111.507707 282.227273 111.977767 
C 282.227273 112.447828 282.41403 112.898699 282.746413 113.231081 
C 283.078796 113.563464 283.529667 113.750221 283.999727 113.750221 
z
" style="stroke:#000000;stroke-width:0.886227;"/>
    <path clip-path="url(#pf292baada3)" d="M 292.116091 117.299115 
C 292.586151 117.299115 293.037022 117.112358 293.369405 116.779976 
C 293.701788 116.447593 293.888545 115.996722 293.888545 115.526661 
C 293.888545 115.056601 293.701788 114.60573 293.369405 114.273347 
C 293.037022 113.940964 292.586151 113.754208 292.116091 113.754208 
C 291.646031 113.754208 291.19516 113.940964 290.862777 114.273347 
C 290.530394 114.60573 290.343637 115.056601 290.343637 115.526661 
C 290.343637 115.996722 290.530394 116.447593 290.862777 116.779976 
C 291.19516 117.112358 291.646031 117.299115 292.116091 117.299115 
z
" style="stroke:#000000;stroke-width:0.886227;"/>
    <path clip-path="url(#pf292baada3)" d="M 300.232455 127.782792 
C 300.702515 127.782792 301.153386 127.596035 301.485769 127.263652 
C 301.818151 126.931269 302.004908 126.480398 302.004908 126.010338 
C 302.004908 125.540278 301.818151 125.089406 301.485769 124.757024 
C 301.153386 124.424641 300.702515 124.237884 300.232455 124.237884 
C 299.762394 124.237884 299.311523 124.424641 298.97914 124.757024 
C 298.646758 125.089406 298.460001 125.540278 298.460001 126.010338 
C 298.460001 126.480398 298.646758 126.931269 298.97914 127.263652 
C 299.311523 127.596035 299.762394 127.782792 300.232455 127.782792 
z
" style="stroke:#000000;stroke-width:0.886227;"/>
    <path clip-path="url(#pf292baada3)" d="M 308.348818 138.255795 
C 308.818878 138.255795 309.26975 138.069038 309.602132 137.736656 
C 309.934515 137.404273 310.121272 136.953402 310.121272 136.483342 
C 310.121272 136.013281 309.934515 135.56241 309.602132 135.230027 
C 309.26975 134.897645 308.818878 134.710888 308.348818 134.710888 
C 307.878758 134.710888 307.427887 134.897645 307.095504 135.230027 
C 306.763121 135.56241 306.576364 136.013281 306.576364 136.483342 
C 306.576364 136.953402 306.763121 137.404273 307.095504 137.736656 
C 307.427887 138.069038 307.878758 138.255795 308.348818 138.255795 
z
" style="stroke:#000000;stroke-width:0.886227;"/>
    <path clip-path="url(#pf292baada3)" d="M 316.465182 113.434756 
C 316.935242 113.434756 317.386113 113.247999 317.718496 112.915616 
C 318.050879 112.583233 318.237636 112.132362 318.237636 111.662302 
C 318.237636 111.192241 318.050879 110.74137 317.718496 110.408988 
C 317.386113 110.076605 316.935242 109.889848 316.465182 109.889848 
C 315.995122 109.889848 315.54425 110.076605 315.211868 110.408988 
C 314.879485 110.74137 314.692728 111.192241 314.692728 111.662302 
C 314.692728 112.132362 314.879485 112.583233 315.211868 112.915616 
C 315.54425 113.247999 315.995122 113.434756 316.465182 113.434756 
z
" style="stroke:#000000;stroke-width:0.886227;"/>
    <path clip-path="url(#pf292baada3)" d="M 324.581545 121.426303 
C 325.051606 121.426303 325.502477 121.239546 325.83486 120.907164 
C 326.167242 120.574781 326.353999 120.12391 326.353999 119.65385 
C 326.353999 119.183789 326.167242 118.732918 325.83486 118.400535 
C 325.502477 118.068153 325.051606 117.881396 324.581545 117.881396 
C 324.111485 117.881396 323.660614 118.068153 323.328231 118.400535 
C 322.995849 118.732918 322.809092 119.183789 322.809092 119.65385 
C 322.809092 120.12391 322.995849 120.574781 323.328231 120.907164 
C 323.660614 121.239546 324.111485 121.426303 324.581545 121.426303 
z
" style="stroke:#000000;stroke-width:0.886227;"/>
    <path clip-path="url(#pf292baada3)" d="M 332.697909 112.506508 
C 333.167969 112.506508 333.61884 112.319751 333.951223 111.987368 
C 334.283606 111.654985 334.470363 111.204114 334.470363 110.734054 
C 334.470363 110.263994 334.283606 109.813123 333.951223 109.48074 
C 333.61884 109.148357 333.167969 108.9616 332.697909 108.9616 
C 332.227849 108.9616 331.776978 109.148357 331.444595 109.48074 
C 331.112212 109.813123 330.925455 110.263994 330.925455 110.734054 
C 330.925455 111.204114 331.112212 111.654985 331.444595 111.987368 
C 331.776978 112.319751 332.227849 112.506508 332.697909 112.506508 
z
" style="stroke:#000000;stroke-width:0.886227;"/>
    <path clip-path="url(#pf292baada3)" d="M 340.814273 123.122633 
C 341.284333 123.122633 341.735204 122.935876 342.067587 122.603493 
C 342.39997 122.27111 342.586727 121.820239 342.586727 121.350179 
C 342.586727 120.880118 342.39997 120.429247 342.067587 120.096865 
C 341.735204 119.764482 341.284333 119.577725 340.814273 119.577725 
C 340.344212 119.577725 339.893341 119.764482 339.560959 120.096865 
C 339.228576 120.429247 339.041819 120.880118 339.041819 121.350179 
C 339.041819 121.820239 339.228576 122.27111 339.560959 122.603493 
C 339.893341 122.935876 340.344212 123.122633 340.814273 123.122633 
z
" style="stroke:#000000;stroke-width:0.886227;"/>
    <path clip-path="url(#pf292baada3)" d="M 348.930636 146.110562 
C 349.400697 146.110562 349.851568 145.923805 350.183951 145.591422 
C 350.516333 145.259039 350.70309 144.808168 350.70309 144.338108 
C 350.70309 143.868048 350.516333 143.417177 350.183951 143.084794 
C 349.851568 142.752411 349.400697 142.565654 348.930636 142.565654 
C 348.460576 142.565654 348.009705 142.752411 347.677322 143.084794 
C 347.344939 143.417177 347.158183 143.868048 347.158183 144.338108 
C 347.158183 144.808168 347.344939 145.259039 347.677322 145.591422 
C 348.009705 145.923805 348.460576 146.110562 348.930636 146.110562 
z
" style="stroke:#000000;stroke-width:0.886227;"/>
    <path clip-path="url(#pf292baada3)" d="M 357.047 146.835456 
C 357.51706 146.835456 357.967931 146.648699 358.300314 146.316316 
C 358.632697 145.983934 358.819454 145.533063 358.819454 145.063002 
C 358.819454 144.592942 358.632697 144.142071 358.300314 143.809688 
C 357.967931 143.477305 357.51706 143.290548 357.047 143.290548 
C 356.57694 143.290548 356.126069 143.477305 355.793686 143.809688 
C 355.461303 144.142071 355.274546 144.592942 355.274546 145.063002 
C 355.274546 145.533063 355.461303 145.983934 355.793686 146.316316 
C 356.126069 146.648699 356.57694 146.835456 357.047 146.835456 
z
" style="stroke:#000000;stroke-width:0.886227;"/>
    <path clip-path="url(#pf292baada3)" d="M 365.163364 119.883973 
C 365.633424 119.883973 366.084295 119.697216 366.416678 119.364833 
C 366.749061 119.03245 366.935817 118.581579 366.935817 118.111519 
C 366.935817 117.641459 366.749061 117.190587 366.416678 116.858205 
C 366.084295 116.525822 365.633424 116.339065 365.163364 116.339065 
C 364.693303 116.339065 364.242432 116.525822 363.910049 116.858205 
C 363.577667 117.190587 363.39091 117.641459 363.39091 118.111519 
C 363.39091 118.581579 363.577667 119.03245 363.910049 119.364833 
C 364.242432 119.697216 364.693303 119.883973 365.163364 119.883973 
z
" style="stroke:#000000;stroke-width:0.886227;"/>
    <path clip-path="url(#pf292baada3)" d="M 373.279727 116.204406 
C 373.749788 116.204406 374.200659 116.017649 374.533041 115.685266 
C 374.865424 115.352883 375.052181 114.902012 375.052181 114.431952 
C 375.052181 113.961892 374.865424 113.511021 374.533041 113.178638 
C 374.200659 112.846255 373.749788 112.659498 373.279727 112.659498 
C 372.809667 112.659498 372.358796 112.846255 372.026413 113.178638 
C 371.69403 113.511021 371.507273 113.961892 371.507273 114.431952 
C 371.507273 114.902012 371.69403 115.352883 372.026413 115.685266 
C 372.358796 116.017649 372.809667 116.204406 373.279727 116.204406 
z
" style="stroke:#000000;stroke-width:0.886227;"/>
    <path clip-path="url(#pf292baada3)" d="M 381.396091 126.921389 
C 381.866151 126.921389 382.317022 126.734632 382.649405 126.402249 
C 382.981788 126.069866 383.168545 125.618995 383.168545 125.148935 
C 383.168545 124.678875 382.981788 124.228003 382.649405 123.895621 
C 382.317022 123.563238 381.866151 123.376481 381.396091 123.376481 
C 380.926031 123.376481 380.47516 123.563238 380.142777 123.895621 
C 379.810394 124.228003 379.623637 124.678875 379.623637 125.148935 
C 379.623637 125.618995 379.810394 126.069866 380.142777 126.402249 
C 380.47516 126.734632 380.926031 126.921389 381.396091 126.921389 
z
" style="stroke:#000000;stroke-width:0.886227;"/>
    <path clip-path="url(#pf292baada3)" d="M 389.512455 105.215019 
C 389.982515 105.215019 390.433386 105.028262 390.765769 104.69588 
C 391.098151 104.363497 391.284908 103.912626 391.284908 103.442566 
C 391.284908 102.972505 391.098151 102.521634 390.765769 102.189251 
C 390.433386 101.856869 389.982515 101.670112 389.512455 101.670112 
C 389.042394 101.670112 388.591523 101.856869 388.25914 102.189251 
C 387.926758 102.521634 387.740001 102.972505 387.740001 103.442566 
C 387.740001 103.912626 387.926758 104.363497 388.25914 104.69588 
C 388.591523 105.028262 389.042394 105.215019 389.512455 105.215019 
z
" style="stroke:#000000;stroke-width:0.886227;"/>
    <path clip-path="url(#pf292baada3)" d="M 397.628818 116.925427 
C 398.098878 116.925427 398.54975 116.73867 398.882132 116.406287 
C 399.214515 116.073904 399.401272 115.623033 399.401272 115.152973 
C 399.401272 114.682913 399.214515 114.232042 398.882132 113.899659 
C 398.54975 113.567276 398.098878 113.380519 397.628818 113.380519 
C 397.158758 113.380519 396.707887 113.567276 396.375504 113.899659 
C 396.043121 114.232042 395.856364 114.682913 395.856364 115.152973 
C 395.856364 115.623033 396.043121 116.073904 396.375504 116.406287 
C 396.707887 116.73867 397.158758 116.925427 397.628818 116.925427 
z
" style="stroke:#000000;stroke-width:0.886227;"/>
    <path clip-path="url(#pf292baada3)" d="M 405.745182 118.144138 
C 406.215242 118.144138 406.666113 117.957381 406.998496 117.624998 
C 407.330879 117.292615 407.517636 116.841744 407.517636 116.371684 
C 407.517636 115.901624 407.330879 115.450753 406.998496 115.11837 
C 406.666113 114.785987 406.215242 114.59923 405.745182 114.59923 
C 405.275122 114.59923 404.82425 114.785987 404.491868 115.11837 
C 404.159485 115.450753 403.972728 115.901624 403.972728 116.371684 
C 403.972728 116.841744 404.159485 117.292615 404.491868 117.624998 
C 404.82425 117.957381 405.275122 118.144138 405.745182 118.144138 
z
" style="stroke:#000000;stroke-width:0.886227;"/>
    <path clip-path="url(#pf292baada3)" d="M 413.861545 102.099901 
C 414.331606 102.099901 414.782477 101.913144 415.11486 101.580762 
C 415.447242 101.248379 415.633999 100.797508 415.633999 100.327447 
C 415.633999 99.857387 415.447242 99.406516 415.11486 99.074133 
C 414.782477 98.741751 414.331606 98.554994 413.861545 98.554994 
C 413.391485 98.554994 412.940614 98.741751 412.608231 99.074133 
C 412.275849 99.406516 412.089092 99.857387 412.089092 100.327447 
C 412.089092 100.797508 412.275849 101.248379 412.608231 101.580762 
C 412.940614 101.913144 413.391485 102.099901 413.861545 102.099901 
z
" style="stroke:#000000;stroke-width:0.886227;"/>
    <path clip-path="url(#pf292baada3)" d="M 421.977909 92.51242 
C 422.447969 92.51242 422.89884 92.325663 423.231223 91.99328 
C 423.563606 91.660898 423.750363 91.210026 423.750363 90.739966 
C 423.750363 90.269906 423.563606 89.819035 423.231223 89.486652 
C 422.89884 89.154269 422.447969 88.967512 421.977909 88.967512 
C 421.507849 88.967512 421.056978 89.154269 420.724595 89.486652 
C 420.392212 89.819035 420.205455 90.269906 420.205455 90.739966 
C 420.205455 91.210026 420.392212 91.660898 420.724595 91.99328 
C 421.056978 92.325663 421.507849 92.51242 421.977909 92.51242 
z
" style="stroke:#000000;stroke-width:0.886227;"/>
    <path clip-path="url(#pf292baada3)" d="M 430.094273 118.899896 
C 430.564333 118.899896 431.015204 118.713139 431.347587 118.380756 
C 431.67997 118.048373 431.866727 117.597502 431.866727 117.127442 
C 431.866727 116.657382 431.67997 116.206511 431.347587 115.874128 
C 431.015204 115.541745 430.564333 115.354988 430.094273 115.354988 
C 429.624212 115.354988 429.173341 115.541745 428.840959 115.874128 
C 428.508576 116.206511 428.321819 116.657382 428.321819 117.127442 
C 428.321819 117.597502 428.508576 118.048373 428.840959 118.380756 
C 429.173341 118.713139 429.624212 118.899896 430.094273 118.899896 
z
" style="stroke:#000000;stroke-width:0.886227;"/>
    <path clip-path="url(#pf292baada3)" d="M 438.210636 95.014859 
C 438.680697 95.014859 439.131568 94.828102 439.463951 94.495719 
C 439.796333 94.163336 439.98309 93.712465 439.98309 93.242405 
C 439.98309 92.772345 439.796333 92.321474 439.463951 91.989091 
C 439.131568 91.656708 438.680697 91.469951 438.210636 91.469951 
C 437.740576 91.469951 437.289705 91.656708 436.957322 91.989091 
C 436.624939 92.321474 436.438183 92.772345 436.438183 93.242405 
C 436.438183 93.712465 436.624939 94.163336 436.957322 94.495719 
C 437.289705 94.828102 437.740576 95.014859 438.210636 95.014859 
z
" style="stroke:#000000;stroke-width:0.886227;"/>
    <path clip-path="url(#pf292baada3)" d="M 446.327 92.30256 
C 446.79706 92.30256 447.247931 92.115803 447.580314 91.78342 
C 447.912697 91.451038 448.099454 91.000167 448.099454 90.530106 
C 448.099454 90.060046 447.912697 89.609175 447.580314 89.276792 
C 447.247931 88.944409 446.79706 88.757652 446.327 88.757652 
C 445.85694 88.757652 445.406069 88.944409 445.073686 89.276792 
C 444.741303 89.609175 444.554546 90.060046 444.554546 90.530106 
C 444.554546 91.000167 444.741303 91.451038 445.073686 91.78342 
C 445.406069 92.115803 445.85694 92.30256 446.327 92.30256 
z
" style="stroke:#000000;stroke-width:0.886227;"/>
    <path clip-path="url(#pf292baada3)" d="M 454.443364 109.691899 
C 454.913424 109.691899 455.364295 109.505142 455.696678 109.172759 
C 456.029061 108.840376 456.215817 108.389505 456.215817 107.919445 
C 456.215817 107.449385 456.029061 106.998514 455.696678 106.666131 
C 455.364295 106.333748 454.913424 106.146991 454.443364 106.146991 
C 453.973303 106.146991 453.522432 106.333748 453.190049 106.666131 
C 452.857667 106.998514 452.67091 107.449385 452.67091 107.919445 
C 452.67091 108.389505 452.857667 108.840376 453.190049 109.172759 
C 453.522432 109.505142 453.973303 109.691899 454.443364 109.691899 
z
" style="stroke:#000000;stroke-width:0.886227;"/>
    <path clip-path="url(#pf292baada3)" d="M 462.559727 126.988112 
C 463.029788 126.988112 463.480659 126.801355 463.813041 126.468972 
C 464.145424 126.13659 464.332181 125.685718 464.332181 125.215658 
C 464.332181 124.745598 464.145424 124.294727 463.813041 123.962344 
C 463.480659 123.629961 463.029788 123.443204 462.559727 123.443204 
C 462.089667 123.443204 461.638796 123.629961 461.306413 123.962344 
C 460.97403 124.294727 460.787273 124.745598 460.787273 125.215658 
C 460.787273 125.685718 460.97403 126.13659 461.306413 126.468972 
C 461.638796 126.801355 462.089667 126.988112 462.559727 126.988112 
z
" style="stroke:#000000;stroke-width:0.886227;"/>
   </g>
   <g id="line2d_41">
    <path clip-path="url(#pf292baada3)" d="M 121.672455 123.917838 
L 129.788818 189.204324 
L 154.137909 159.869189 
L 162.254273 139.031351 
L 170.370636 211.193514 
L 178.487 99.301622 
L 186.603364 144.966486 
L 194.719727 153.60973 
L 202.836091 175.744865 
L 210.952455 141.885405 
L 219.068818 143.498919 
L 227.185182 163.142548 
L 235.301545 137.519329 
L 243.417909 156.799691 
L 251.534273 136.948726 
L 259.650636 117.756139 
L 267.767 122.452587 
L 275.883364 116.673312 
L 283.999727 111.977767 
L 292.116091 115.526661 
L 300.232455 126.010338 
L 308.348818 136.483342 
L 316.465182 111.662302 
L 324.581545 119.65385 
L 332.697909 110.734054 
L 340.814273 121.350179 
L 348.930636 144.338108 
L 357.047 145.063002 
L 365.163364 118.111519 
L 373.279727 114.431952 
L 381.396091 125.148935 
L 389.512455 103.442566 
L 397.628818 115.152973 
L 405.745182 116.371684 
L 413.861545 100.327447 
L 421.977909 90.739966 
L 430.094273 117.127442 
L 438.210636 93.242405 
L 446.327 90.530106 
L 454.443364 107.919445 
L 462.559727 125.215658 
" style="fill:none;stroke:#000000;stroke-width:0.886227;"/>
   </g>
  </g>
 </g>
 <defs>
  <clipPath id="pf292baada3">
   <rect height="221.76" width="446.4" x="44.567" y="7.2"/>
  </clipPath>
 </defs>
</svg>
