<?xml version="1.0" encoding="utf-8" standalone="no"?>
<!DOCTYPE svg PUBLIC "-//W3C//DTD SVG 1.1//EN"
  "http://www.w3.org/Graphics/SVG/1.1/DTD/svg11.dtd">
<!-- Created with matplotlib (https://matplotlib.org/) -->
<svg height="264.672687pt" version="1.1" viewBox="0 0 498.167 264.672687" width="498.167pt" xmlns="http://www.w3.org/2000/svg" xmlns:xlink="http://www.w3.org/1999/xlink">
 <defs>
  <style type="text/css">
*{stroke-linecap:butt;stroke-linejoin:round;}
  </style>
 </defs>
 <g id="figure_1">
  <g id="patch_1">
   <path d="M 0 264.672687 
L 498.167 264.672687 
L 498.167 0 
L 0 0 
z
" style="fill:#ffffff;stroke:#ffffff;stroke-linejoin:miter;"/>
  </g>
  <g id="axes_1">
   <g id="patch_2">
    <path d="M 44.567 228.96 
L 490.967 228.96 
L 490.967 7.2 
L 44.567 7.2 
z
" style="fill:#ffffff;stroke:#7f7f7f;stroke-linejoin:miter;"/>
   </g>
   <g id="matplotlib.axis_1">
    <g id="xtick_1">
     <g id="line2d_1">
      <path clip-path="url(#pf7428f5b77)" d="M 64.857909 228.96 
L 64.857909 7.2 
" style="fill:none;stroke:#e5e5e5;stroke-width:0.8;"/>
     </g>
     <g id="line2d_2">
      <path d="M 64.857909 228.96 
" style="fill:none;stroke:#000000;stroke-width:1.5;"/>
      <defs>
       <path d="M 0 0 
L 0 2.75 
" id="mc24d4107fd" style="stroke:#000000;"/>
      </defs>
      <g>
       <use style="stroke:#000000;" x="64.857909" xlink:href="#mc24d4107fd" y="228.96"/>
      </g>
     </g>
     <g id="text_1">
      <!-- 1970 -->
      <defs>
       <path d="M 12.40625 8.296875 
L 28.515625 8.296875 
L 28.515625 63.921875 
L 10.984375 60.40625 
L 10.984375 69.390625 
L 28.421875 72.90625 
L 38.28125 72.90625 
L 38.28125 8.296875 
L 54.390625 8.296875 
L 54.390625 0 
L 12.40625 0 
z
" id="DejaVuSans-49"/>
       <path d="M 10.984375 1.515625 
L 10.984375 10.5 
Q 14.703125 8.734375 18.5 7.8125 
Q 22.3125 6.890625 25.984375 6.890625 
Q 35.75 6.890625 40.890625 13.453125 
Q 46.046875 20.015625 46.78125 33.40625 
Q 43.953125 29.203125 39.59375 26.953125 
Q 35.25 24.703125 29.984375 24.703125 
Q 19.046875 24.703125 12.671875 31.3125 
Q 6.296875 37.9375 6.296875 49.421875 
Q 6.296875 60.640625 12.9375 67.421875 
Q 19.578125 74.21875 30.609375 74.21875 
Q 43.265625 74.21875 49.921875 64.515625 
Q 56.59375 54.828125 56.59375 36.375 
Q 56.59375 19.140625 48.40625 8.859375 
Q 40.234375 -1.421875 26.421875 -1.421875 
Q 22.703125 -1.421875 18.890625 -0.6875 
Q 15.09375 0.046875 10.984375 1.515625 
z
M 30.609375 32.421875 
Q 37.25 32.421875 41.125 36.953125 
Q 45.015625 41.5 45.015625 49.421875 
Q 45.015625 57.28125 41.125 61.84375 
Q 37.25 66.40625 30.609375 66.40625 
Q 23.96875 66.40625 20.09375 61.84375 
Q 16.21875 57.28125 16.21875 49.421875 
Q 16.21875 41.5 20.09375 36.953125 
Q 23.96875 32.421875 30.609375 32.421875 
z
" id="DejaVuSans-57"/>
       <path d="M 8.203125 72.90625 
L 55.078125 72.90625 
L 55.078125 68.703125 
L 28.609375 0 
L 18.3125 0 
L 43.21875 64.59375 
L 8.203125 64.59375 
z
" id="DejaVuSans-55"/>
       <path d="M 31.78125 66.40625 
Q 24.171875 66.40625 20.328125 58.90625 
Q 16.5 51.421875 16.5 36.375 
Q 16.5 21.390625 20.328125 13.890625 
Q 24.171875 6.390625 31.78125 6.390625 
Q 39.453125 6.390625 43.28125 13.890625 
Q 47.125 21.390625 47.125 36.375 
Q 47.125 51.421875 43.28125 58.90625 
Q 39.453125 66.40625 31.78125 66.40625 
z
M 31.78125 74.21875 
Q 44.046875 74.21875 50.515625 64.515625 
Q 56.984375 54.828125 56.984375 36.375 
Q 56.984375 17.96875 50.515625 8.265625 
Q 44.046875 -1.421875 31.78125 -1.421875 
Q 19.53125 -1.421875 13.0625 8.265625 
Q 6.59375 17.96875 6.59375 36.375 
Q 6.59375 54.828125 13.0625 64.515625 
Q 19.53125 74.21875 31.78125 74.21875 
z
" id="DejaVuSans-48"/>
      </defs>
      <g style="fill:#4d4d4d;" transform="translate(53.659909 240.596625)scale(0.088 -0.088)">
       <use xlink:href="#DejaVuSans-49"/>
       <use x="63.623047" xlink:href="#DejaVuSans-57"/>
       <use x="127.246094" xlink:href="#DejaVuSans-55"/>
       <use x="190.869141" xlink:href="#DejaVuSans-48"/>
      </g>
     </g>
    </g>
    <g id="xtick_2">
     <g id="line2d_3">
      <path clip-path="url(#pf7428f5b77)" d="M 146.021545 228.96 
L 146.021545 7.2 
" style="fill:none;stroke:#e5e5e5;stroke-width:0.8;"/>
     </g>
     <g id="line2d_4">
      <path d="M 146.021545 228.96 
" style="fill:none;stroke:#000000;stroke-width:1.5;"/>
      <g>
       <use style="stroke:#000000;" x="146.021545" xlink:href="#mc24d4107fd" y="228.96"/>
      </g>
     </g>
     <g id="text_2">
      <!-- 1980 -->
      <defs>
       <path d="M 31.78125 34.625 
Q 24.75 34.625 20.71875 30.859375 
Q 16.703125 27.09375 16.703125 20.515625 
Q 16.703125 13.921875 20.71875 10.15625 
Q 24.75 6.390625 31.78125 6.390625 
Q 38.8125 6.390625 42.859375 10.171875 
Q 46.921875 13.96875 46.921875 20.515625 
Q 46.921875 27.09375 42.890625 30.859375 
Q 38.875 34.625 31.78125 34.625 
z
M 21.921875 38.8125 
Q 15.578125 40.375 12.03125 44.71875 
Q 8.5 49.078125 8.5 55.328125 
Q 8.5 64.0625 14.71875 69.140625 
Q 20.953125 74.21875 31.78125 74.21875 
Q 42.671875 74.21875 48.875 69.140625 
Q 55.078125 64.0625 55.078125 55.328125 
Q 55.078125 49.078125 51.53125 44.71875 
Q 48 40.375 41.703125 38.8125 
Q 48.828125 37.15625 52.796875 32.3125 
Q 56.78125 27.484375 56.78125 20.515625 
Q 56.78125 9.90625 50.3125 4.234375 
Q 43.84375 -1.421875 31.78125 -1.421875 
Q 19.734375 -1.421875 13.25 4.234375 
Q 6.78125 9.90625 6.78125 20.515625 
Q 6.78125 27.484375 10.78125 32.3125 
Q 14.796875 37.15625 21.921875 38.8125 
z
M 18.3125 54.390625 
Q 18.3125 48.734375 21.84375 45.5625 
Q 25.390625 42.390625 31.78125 42.390625 
Q 38.140625 42.390625 41.71875 45.5625 
Q 45.3125 48.734375 45.3125 54.390625 
Q 45.3125 60.0625 41.71875 63.234375 
Q 38.140625 66.40625 31.78125 66.40625 
Q 25.390625 66.40625 21.84375 63.234375 
Q 18.3125 60.0625 18.3125 54.390625 
z
" id="DejaVuSans-56"/>
      </defs>
      <g style="fill:#4d4d4d;" transform="translate(134.823545 240.596625)scale(0.088 -0.088)">
       <use xlink:href="#DejaVuSans-49"/>
       <use x="63.623047" xlink:href="#DejaVuSans-57"/>
       <use x="127.246094" xlink:href="#DejaVuSans-56"/>
       <use x="190.869141" xlink:href="#DejaVuSans-48"/>
      </g>
     </g>
    </g>
    <g id="xtick_3">
     <g id="line2d_5">
      <path clip-path="url(#pf7428f5b77)" d="M 227.185182 228.96 
L 227.185182 7.2 
" style="fill:none;stroke:#e5e5e5;stroke-width:0.8;"/>
     </g>
     <g id="line2d_6">
      <path d="M 227.185182 228.96 
" style="fill:none;stroke:#000000;stroke-width:1.5;"/>
      <g>
       <use style="stroke:#000000;" x="227.185182" xlink:href="#mc24d4107fd" y="228.96"/>
      </g>
     </g>
     <g id="text_3">
      <!-- 1990 -->
      <g style="fill:#4d4d4d;" transform="translate(215.987182 240.596625)scale(0.088 -0.088)">
       <use xlink:href="#DejaVuSans-49"/>
       <use x="63.623047" xlink:href="#DejaVuSans-57"/>
       <use x="127.246094" xlink:href="#DejaVuSans-57"/>
       <use x="190.869141" xlink:href="#DejaVuSans-48"/>
      </g>
     </g>
    </g>
    <g id="xtick_4">
     <g id="line2d_7">
      <path clip-path="url(#pf7428f5b77)" d="M 308.348818 228.96 
L 308.348818 7.2 
" style="fill:none;stroke:#e5e5e5;stroke-width:0.8;"/>
     </g>
     <g id="line2d_8">
      <path d="M 308.348818 228.96 
" style="fill:none;stroke:#000000;stroke-width:1.5;"/>
      <g>
       <use style="stroke:#000000;" x="308.348818" xlink:href="#mc24d4107fd" y="228.96"/>
      </g>
     </g>
     <g id="text_4">
      <!-- 2000 -->
      <defs>
       <path d="M 19.1875 8.296875 
L 53.609375 8.296875 
L 53.609375 0 
L 7.328125 0 
L 7.328125 8.296875 
Q 12.9375 14.109375 22.625 23.890625 
Q 32.328125 33.6875 34.8125 36.53125 
Q 39.546875 41.84375 41.421875 45.53125 
Q 43.3125 49.21875 43.3125 52.78125 
Q 43.3125 58.59375 39.234375 62.25 
Q 35.15625 65.921875 28.609375 65.921875 
Q 23.96875 65.921875 18.8125 64.3125 
Q 13.671875 62.703125 7.8125 59.421875 
L 7.8125 69.390625 
Q 13.765625 71.78125 18.9375 73 
Q 24.125 74.21875 28.421875 74.21875 
Q 39.75 74.21875 46.484375 68.546875 
Q 53.21875 62.890625 53.21875 53.421875 
Q 53.21875 48.921875 51.53125 44.890625 
Q 49.859375 40.875 45.40625 35.40625 
Q 44.1875 33.984375 37.640625 27.21875 
Q 31.109375 20.453125 19.1875 8.296875 
z
" id="DejaVuSans-50"/>
      </defs>
      <g style="fill:#4d4d4d;" transform="translate(297.150818 240.596625)scale(0.088 -0.088)">
       <use xlink:href="#DejaVuSans-50"/>
       <use x="63.623047" xlink:href="#DejaVuSans-48"/>
       <use x="127.246094" xlink:href="#DejaVuSans-48"/>
       <use x="190.869141" xlink:href="#DejaVuSans-48"/>
      </g>
     </g>
    </g>
    <g id="xtick_5">
     <g id="line2d_9">
      <path clip-path="url(#pf7428f5b77)" d="M 389.512455 228.96 
L 389.512455 7.2 
" style="fill:none;stroke:#e5e5e5;stroke-width:0.8;"/>
     </g>
     <g id="line2d_10">
      <path d="M 389.512455 228.96 
" style="fill:none;stroke:#000000;stroke-width:1.5;"/>
      <g>
       <use style="stroke:#000000;" x="389.512455" xlink:href="#mc24d4107fd" y="228.96"/>
      </g>
     </g>
     <g id="text_5">
      <!-- 2010 -->
      <g style="fill:#4d4d4d;" transform="translate(378.314455 240.596625)scale(0.088 -0.088)">
       <use xlink:href="#DejaVuSans-50"/>
       <use x="63.623047" xlink:href="#DejaVuSans-48"/>
       <use x="127.246094" xlink:href="#DejaVuSans-49"/>
       <use x="190.869141" xlink:href="#DejaVuSans-48"/>
      </g>
     </g>
    </g>
    <g id="xtick_6">
     <g id="line2d_11">
      <path clip-path="url(#pf7428f5b77)" d="M 470.676091 228.96 
L 470.676091 7.2 
" style="fill:none;stroke:#e5e5e5;stroke-width:0.8;"/>
     </g>
     <g id="line2d_12">
      <path d="M 470.676091 228.96 
" style="fill:none;stroke:#000000;stroke-width:1.5;"/>
      <g>
       <use style="stroke:#000000;" x="470.676091" xlink:href="#mc24d4107fd" y="228.96"/>
      </g>
     </g>
     <g id="text_6">
      <!-- 2020 -->
      <g style="fill:#4d4d4d;" transform="translate(459.478091 240.596625)scale(0.088 -0.088)">
       <use xlink:href="#DejaVuSans-50"/>
       <use x="63.623047" xlink:href="#DejaVuSans-48"/>
       <use x="127.246094" xlink:href="#DejaVuSans-50"/>
       <use x="190.869141" xlink:href="#DejaVuSans-48"/>
      </g>
     </g>
    </g>
    <g id="xtick_7">
     <g id="line2d_13">
      <path clip-path="url(#pf7428f5b77)" d="M 105.439727 228.96 
L 105.439727 7.2 
" style="fill:none;stroke:#fafafa;"/>
     </g>
     <g id="line2d_14">
      <path d="M 105.439727 228.96 
" style="fill:none;stroke:#000000;stroke-width:1.5;"/>
      <defs>
       <path d="M 0 0 
L 0 1.375 
" id="m5571feabbd" style="stroke:#000000;"/>
      </defs>
      <g>
       <use style="stroke:#000000;" x="105.439727" xlink:href="#m5571feabbd" y="228.96"/>
      </g>
     </g>
    </g>
    <g id="xtick_8">
     <g id="line2d_15">
      <path clip-path="url(#pf7428f5b77)" d="M 186.603364 228.96 
L 186.603364 7.2 
" style="fill:none;stroke:#fafafa;"/>
     </g>
     <g id="line2d_16">
      <path d="M 186.603364 228.96 
" style="fill:none;stroke:#000000;stroke-width:1.5;"/>
      <g>
       <use style="stroke:#000000;" x="186.603364" xlink:href="#m5571feabbd" y="228.96"/>
      </g>
     </g>
    </g>
    <g id="xtick_9">
     <g id="line2d_17">
      <path clip-path="url(#pf7428f5b77)" d="M 267.767 228.96 
L 267.767 7.2 
" style="fill:none;stroke:#fafafa;"/>
     </g>
     <g id="line2d_18">
      <path d="M 267.767 228.96 
" style="fill:none;stroke:#000000;stroke-width:1.5;"/>
      <g>
       <use style="stroke:#000000;" x="267.767" xlink:href="#m5571feabbd" y="228.96"/>
      </g>
     </g>
    </g>
    <g id="xtick_10">
     <g id="line2d_19">
      <path clip-path="url(#pf7428f5b77)" d="M 348.930636 228.96 
L 348.930636 7.2 
" style="fill:none;stroke:#fafafa;"/>
     </g>
     <g id="line2d_20">
      <path d="M 348.930636 228.96 
" style="fill:none;stroke:#000000;stroke-width:1.5;"/>
      <g>
       <use style="stroke:#000000;" x="348.930636" xlink:href="#m5571feabbd" y="228.96"/>
      </g>
     </g>
    </g>
    <g id="xtick_11">
     <g id="line2d_21">
      <path clip-path="url(#pf7428f5b77)" d="M 430.094273 228.96 
L 430.094273 7.2 
" style="fill:none;stroke:#fafafa;"/>
     </g>
     <g id="line2d_22">
      <path d="M 430.094273 228.96 
" style="fill:none;stroke:#000000;stroke-width:1.5;"/>
      <g>
       <use style="stroke:#000000;" x="430.094273" xlink:href="#m5571feabbd" y="228.96"/>
      </g>
     </g>
    </g>
    <g id="text_7">
     <!-- Year -->
     <defs>
      <path d="M -0.203125 72.90625 
L 10.40625 72.90625 
L 30.609375 42.921875 
L 50.6875 72.90625 
L 61.28125 72.90625 
L 35.5 34.71875 
L 35.5 0 
L 25.59375 0 
L 25.59375 34.71875 
z
" id="DejaVuSans-89"/>
      <path d="M 56.203125 29.59375 
L 56.203125 25.203125 
L 14.890625 25.203125 
Q 15.484375 15.921875 20.484375 11.0625 
Q 25.484375 6.203125 34.421875 6.203125 
Q 39.59375 6.203125 44.453125 7.46875 
Q 49.3125 8.734375 54.109375 11.28125 
L 54.109375 2.78125 
Q 49.265625 0.734375 44.1875 -0.34375 
Q 39.109375 -1.421875 33.890625 -1.421875 
Q 20.796875 -1.421875 13.15625 6.1875 
Q 5.515625 13.8125 5.515625 26.8125 
Q 5.515625 40.234375 12.765625 48.109375 
Q 20.015625 56 32.328125 56 
Q 43.359375 56 49.78125 48.890625 
Q 56.203125 41.796875 56.203125 29.59375 
z
M 47.21875 32.234375 
Q 47.125 39.59375 43.09375 43.984375 
Q 39.0625 48.390625 32.421875 48.390625 
Q 24.90625 48.390625 20.390625 44.140625 
Q 15.875 39.890625 15.1875 32.171875 
z
" id="DejaVuSans-101"/>
      <path d="M 34.28125 27.484375 
Q 23.390625 27.484375 19.1875 25 
Q 14.984375 22.515625 14.984375 16.5 
Q 14.984375 11.71875 18.140625 8.90625 
Q 21.296875 6.109375 26.703125 6.109375 
Q 34.1875 6.109375 38.703125 11.40625 
Q 43.21875 16.703125 43.21875 25.484375 
L 43.21875 27.484375 
z
M 52.203125 31.203125 
L 52.203125 0 
L 43.21875 0 
L 43.21875 8.296875 
Q 40.140625 3.328125 35.546875 0.953125 
Q 30.953125 -1.421875 24.3125 -1.421875 
Q 15.921875 -1.421875 10.953125 3.296875 
Q 6 8.015625 6 15.921875 
Q 6 25.140625 12.171875 29.828125 
Q 18.359375 34.515625 30.609375 34.515625 
L 43.21875 34.515625 
L 43.21875 35.40625 
Q 43.21875 41.609375 39.140625 45 
Q 35.0625 48.390625 27.6875 48.390625 
Q 23 48.390625 18.546875 47.265625 
Q 14.109375 46.140625 10.015625 43.890625 
L 10.015625 52.203125 
Q 14.9375 54.109375 19.578125 55.046875 
Q 24.21875 56 28.609375 56 
Q 40.484375 56 46.34375 49.84375 
Q 52.203125 43.703125 52.203125 31.203125 
z
" id="DejaVuSans-97"/>
      <path d="M 41.109375 46.296875 
Q 39.59375 47.171875 37.8125 47.578125 
Q 36.03125 48 33.890625 48 
Q 26.265625 48 22.1875 43.046875 
Q 18.109375 38.09375 18.109375 28.8125 
L 18.109375 0 
L 9.078125 0 
L 9.078125 54.6875 
L 18.109375 54.6875 
L 18.109375 46.1875 
Q 20.953125 51.171875 25.484375 53.578125 
Q 30.03125 56 36.53125 56 
Q 37.453125 56 38.578125 55.875 
Q 39.703125 55.765625 41.0625 55.515625 
z
" id="DejaVuSans-114"/>
     </defs>
     <g transform="translate(248.203172 255.185031)scale(0.11 -0.11)">
      <use xlink:href="#DejaVuSans-89"/>
      <use x="60.880859" xlink:href="#DejaVuSans-101"/>
      <use x="122.404297" xlink:href="#DejaVuSans-97"/>
      <use x="183.683594" xlink:href="#DejaVuSans-114"/>
     </g>
    </g>
   </g>
   <g id="matplotlib.axis_2">
    <g id="ytick_1">
     <g id="line2d_23">
      <path clip-path="url(#pf7428f5b77)" d="M 44.567 218.88 
L 490.967 218.88 
" style="fill:none;stroke:#e5e5e5;stroke-width:0.8;"/>
     </g>
     <g id="line2d_24">
      <path d="M 44.567 218.88 
" style="fill:none;stroke:#000000;stroke-width:1.5;"/>
      <defs>
       <path d="M 0 0 
L -2.75 0 
" id="m1ac9dcd5b3" style="stroke:#000000;"/>
      </defs>
      <g>
       <use style="stroke:#000000;" x="44.567" xlink:href="#m1ac9dcd5b3" y="218.88"/>
      </g>
     </g>
     <g id="text_8">
      <!-- 0 -->
      <g style="fill:#4d4d4d;" transform="translate(34.018 221.30825)scale(0.088 -0.088)">
       <use xlink:href="#DejaVuSans-48"/>
      </g>
     </g>
    </g>
    <g id="ytick_2">
     <g id="line2d_25">
      <path clip-path="url(#pf7428f5b77)" d="M 44.567 168.48 
L 490.967 168.48 
" style="fill:none;stroke:#e5e5e5;stroke-width:0.8;"/>
     </g>
     <g id="line2d_26">
      <path d="M 44.567 168.48 
" style="fill:none;stroke:#000000;stroke-width:1.5;"/>
      <g>
       <use style="stroke:#000000;" x="44.567" xlink:href="#m1ac9dcd5b3" y="168.48"/>
      </g>
     </g>
     <g id="text_9">
      <!-- 25 -->
      <defs>
       <path d="M 10.796875 72.90625 
L 49.515625 72.90625 
L 49.515625 64.59375 
L 19.828125 64.59375 
L 19.828125 46.734375 
Q 21.96875 47.46875 24.109375 47.828125 
Q 26.265625 48.1875 28.421875 48.1875 
Q 40.625 48.1875 47.75 41.5 
Q 54.890625 34.8125 54.890625 23.390625 
Q 54.890625 11.625 47.5625 5.09375 
Q 40.234375 -1.421875 26.90625 -1.421875 
Q 22.3125 -1.421875 17.546875 -0.640625 
Q 12.796875 0.140625 7.71875 1.703125 
L 7.71875 11.625 
Q 12.109375 9.234375 16.796875 8.0625 
Q 21.484375 6.890625 26.703125 6.890625 
Q 35.15625 6.890625 40.078125 11.328125 
Q 45.015625 15.765625 45.015625 23.390625 
Q 45.015625 31 40.078125 35.4375 
Q 35.15625 39.890625 26.703125 39.890625 
Q 22.75 39.890625 18.8125 39.015625 
Q 14.890625 38.140625 10.796875 36.28125 
z
" id="DejaVuSans-53"/>
      </defs>
      <g style="fill:#4d4d4d;" transform="translate(28.419 170.90825)scale(0.088 -0.088)">
       <use xlink:href="#DejaVuSans-50"/>
       <use x="63.623047" xlink:href="#DejaVuSans-53"/>
      </g>
     </g>
    </g>
    <g id="ytick_3">
     <g id="line2d_27">
      <path clip-path="url(#pf7428f5b77)" d="M 44.567 118.08 
L 490.967 118.08 
" style="fill:none;stroke:#e5e5e5;stroke-width:0.8;"/>
     </g>
     <g id="line2d_28">
      <path d="M 44.567 118.08 
" style="fill:none;stroke:#000000;stroke-width:1.5;"/>
      <g>
       <use style="stroke:#000000;" x="44.567" xlink:href="#m1ac9dcd5b3" y="118.08"/>
      </g>
     </g>
     <g id="text_10">
      <!-- 50 -->
      <g style="fill:#4d4d4d;" transform="translate(28.419 120.50825)scale(0.088 -0.088)">
       <use xlink:href="#DejaVuSans-53"/>
       <use x="63.623047" xlink:href="#DejaVuSans-48"/>
      </g>
     </g>
    </g>
    <g id="ytick_4">
     <g id="line2d_29">
      <path clip-path="url(#pf7428f5b77)" d="M 44.567 67.68 
L 490.967 67.68 
" style="fill:none;stroke:#e5e5e5;stroke-width:0.8;"/>
     </g>
     <g id="line2d_30">
      <path d="M 44.567 67.68 
" style="fill:none;stroke:#000000;stroke-width:1.5;"/>
      <g>
       <use style="stroke:#000000;" x="44.567" xlink:href="#m1ac9dcd5b3" y="67.68"/>
      </g>
     </g>
     <g id="text_11">
      <!-- 75 -->
      <g style="fill:#4d4d4d;" transform="translate(28.419 70.10825)scale(0.088 -0.088)">
       <use xlink:href="#DejaVuSans-55"/>
       <use x="63.623047" xlink:href="#DejaVuSans-53"/>
      </g>
     </g>
    </g>
    <g id="ytick_5">
     <g id="line2d_31">
      <path clip-path="url(#pf7428f5b77)" d="M 44.567 17.28 
L 490.967 17.28 
" style="fill:none;stroke:#e5e5e5;stroke-width:0.8;"/>
     </g>
     <g id="line2d_32">
      <path d="M 44.567 17.28 
" style="fill:none;stroke:#000000;stroke-width:1.5;"/>
      <g>
       <use style="stroke:#000000;" x="44.567" xlink:href="#m1ac9dcd5b3" y="17.28"/>
      </g>
     </g>
     <g id="text_12">
      <!-- 100 -->
      <g style="fill:#4d4d4d;" transform="translate(22.82 19.70825)scale(0.088 -0.088)">
       <use xlink:href="#DejaVuSans-49"/>
       <use x="63.623047" xlink:href="#DejaVuSans-48"/>
       <use x="127.246094" xlink:href="#DejaVuSans-48"/>
      </g>
     </g>
    </g>
    <g id="ytick_6">
     <g id="line2d_33">
      <path clip-path="url(#pf7428f5b77)" d="M 44.567 193.68 
L 490.967 193.68 
" style="fill:none;stroke:#fafafa;"/>
     </g>
     <g id="line2d_34">
      <path d="M 44.567 193.68 
" style="fill:none;stroke:#000000;stroke-width:1.5;"/>
      <defs>
       <path d="M 0 0 
L -1.375 0 
" id="mba2640c4c3" style="stroke:#000000;"/>
      </defs>
      <g>
       <use style="stroke:#000000;" x="44.567" xlink:href="#mba2640c4c3" y="193.68"/>
      </g>
     </g>
    </g>
    <g id="ytick_7">
     <g id="line2d_35">
      <path clip-path="url(#pf7428f5b77)" d="M 44.567 143.28 
L 490.967 143.28 
" style="fill:none;stroke:#fafafa;"/>
     </g>
     <g id="line2d_36">
      <path d="M 44.567 143.28 
" style="fill:none;stroke:#000000;stroke-width:1.5;"/>
      <g>
       <use style="stroke:#000000;" x="44.567" xlink:href="#mba2640c4c3" y="143.28"/>
      </g>
     </g>
    </g>
    <g id="ytick_8">
     <g id="line2d_37">
      <path clip-path="url(#pf7428f5b77)" d="M 44.567 92.88 
L 490.967 92.88 
" style="fill:none;stroke:#fafafa;"/>
     </g>
     <g id="line2d_38">
      <path d="M 44.567 92.88 
" style="fill:none;stroke:#000000;stroke-width:1.5;"/>
      <g>
       <use style="stroke:#000000;" x="44.567" xlink:href="#mba2640c4c3" y="92.88"/>
      </g>
     </g>
    </g>
    <g id="ytick_9">
     <g id="line2d_39">
      <path clip-path="url(#pf7428f5b77)" d="M 44.567 42.48 
L 490.967 42.48 
" style="fill:none;stroke:#fafafa;"/>
     </g>
     <g id="line2d_40">
      <path d="M 44.567 42.48 
" style="fill:none;stroke:#000000;stroke-width:1.5;"/>
      <g>
       <use style="stroke:#000000;" x="44.567" xlink:href="#mba2640c4c3" y="42.48"/>
      </g>
     </g>
    </g>
    <g id="text_13">
     <!-- $P_{Q1N}$ [%] -->
     <defs>
      <path d="M 16.890625 72.90625 
L 39.703125 72.90625 
Q 49.65625 72.90625 54.875 68.265625 
Q 60.109375 63.625 60.109375 54.6875 
Q 60.109375 42.671875 52.390625 35.984375 
Q 44.671875 29.296875 30.71875 29.296875 
L 18.3125 29.296875 
L 12.59375 0 
L 2.6875 0 
z
M 25.203125 64.796875 
L 19.921875 37.40625 
L 32.328125 37.40625 
Q 40.71875 37.40625 45.203125 41.703125 
Q 49.703125 46 49.703125 54 
Q 49.703125 59.125 46.65625 61.953125 
Q 43.609375 64.796875 38.09375 64.796875 
z
" id="DejaVuSans-Oblique-80"/>
      <path d="M 36.078125 -1.3125 
Q 35.546875 -1.375 34.953125 -1.390625 
Q 34.375 -1.421875 33.203125 -1.421875 
Q 19.53125 -1.421875 11.8125 6.421875 
Q 4.109375 14.265625 4.109375 28.078125 
Q 4.109375 36.234375 7.0625 44.4375 
Q 10.015625 52.640625 15.28125 59.1875 
Q 21.390625 66.703125 29.03125 70.453125 
Q 36.671875 74.21875 45.90625 74.21875 
Q 59.28125 74.21875 66.984375 66.328125 
Q 74.703125 58.453125 74.703125 44.828125 
Q 74.703125 30.125 66.640625 17.921875 
Q 58.59375 5.71875 45.609375 0.6875 
L 55.515625 -12.890625 
L 44.484375 -12.890625 
z
M 45.609375 66.21875 
Q 37.5 66.21875 31.296875 62.28125 
Q 25.09375 58.34375 20.515625 50.296875 
Q 17.578125 45.171875 16.03125 39.40625 
Q 14.5 33.640625 14.5 27.78125 
Q 14.5 17.625 19.359375 12.109375 
Q 24.21875 6.59375 33.109375 6.59375 
Q 41.109375 6.59375 47.375 10.5625 
Q 53.65625 14.546875 58.109375 22.40625 
Q 61.078125 27.6875 62.640625 33.46875 
Q 64.203125 39.265625 64.203125 45.015625 
Q 64.203125 55.125 59.3125 60.671875 
Q 54.4375 66.21875 45.609375 66.21875 
z
" id="DejaVuSans-Oblique-81"/>
      <path d="M 16.890625 72.90625 
L 30.171875 72.90625 
L 50.296875 10.40625 
L 62.5 72.90625 
L 72.125 72.90625 
L 57.90625 0 
L 44.578125 0 
L 24.515625 62.890625 
L 12.3125 0 
L 2.6875 0 
z
" id="DejaVuSans-Oblique-78"/>
      <path id="DejaVuSans-32"/>
      <path d="M 8.59375 75.984375 
L 29.296875 75.984375 
L 29.296875 69 
L 17.578125 69 
L 17.578125 -6.203125 
L 29.296875 -6.203125 
L 29.296875 -13.1875 
L 8.59375 -13.1875 
z
" id="DejaVuSans-91"/>
      <path d="M 72.703125 32.078125 
Q 68.453125 32.078125 66.03125 28.46875 
Q 63.625 24.859375 63.625 18.40625 
Q 63.625 12.0625 66.03125 8.421875 
Q 68.453125 4.78125 72.703125 4.78125 
Q 76.859375 4.78125 79.265625 8.421875 
Q 81.6875 12.0625 81.6875 18.40625 
Q 81.6875 24.8125 79.265625 28.4375 
Q 76.859375 32.078125 72.703125 32.078125 
z
M 72.703125 38.28125 
Q 80.421875 38.28125 84.953125 32.90625 
Q 89.5 27.546875 89.5 18.40625 
Q 89.5 9.28125 84.9375 3.921875 
Q 80.375 -1.421875 72.703125 -1.421875 
Q 64.890625 -1.421875 60.34375 3.921875 
Q 55.8125 9.28125 55.8125 18.40625 
Q 55.8125 27.59375 60.375 32.9375 
Q 64.9375 38.28125 72.703125 38.28125 
z
M 22.3125 68.015625 
Q 18.109375 68.015625 15.6875 64.375 
Q 13.28125 60.75 13.28125 54.390625 
Q 13.28125 47.953125 15.671875 44.328125 
Q 18.0625 40.71875 22.3125 40.71875 
Q 26.5625 40.71875 28.96875 44.328125 
Q 31.390625 47.953125 31.390625 54.390625 
Q 31.390625 60.6875 28.953125 64.34375 
Q 26.515625 68.015625 22.3125 68.015625 
z
M 66.40625 74.21875 
L 74.21875 74.21875 
L 28.609375 -1.421875 
L 20.796875 -1.421875 
z
M 22.3125 74.21875 
Q 30.03125 74.21875 34.609375 68.875 
Q 39.203125 63.53125 39.203125 54.390625 
Q 39.203125 45.171875 34.640625 39.84375 
Q 30.078125 34.515625 22.3125 34.515625 
Q 14.546875 34.515625 10.03125 39.859375 
Q 5.515625 45.21875 5.515625 54.390625 
Q 5.515625 63.484375 10.046875 68.84375 
Q 14.59375 74.21875 22.3125 74.21875 
z
" id="DejaVuSans-37"/>
      <path d="M 30.421875 75.984375 
L 30.421875 -13.1875 
L 9.71875 -13.1875 
L 9.71875 -6.203125 
L 21.390625 -6.203125 
L 21.390625 69 
L 9.71875 69 
L 9.71875 75.984375 
z
" id="DejaVuSans-93"/>
     </defs>
     <g transform="translate(15.56 139.74)rotate(-90)scale(0.11 -0.11)">
      <use transform="translate(0 0.015625)" xlink:href="#DejaVuSans-Oblique-80"/>
      <use transform="translate(60.302734 -16.390625)scale(0.7)" xlink:href="#DejaVuSans-Oblique-81"/>
      <use transform="translate(115.400391 -16.390625)scale(0.7)" xlink:href="#DejaVuSans-49"/>
      <use transform="translate(159.936523 -16.390625)scale(0.7)" xlink:href="#DejaVuSans-Oblique-78"/>
      <use transform="translate(215.03418 0.015625)" xlink:href="#DejaVuSans-32"/>
      <use transform="translate(246.821289 0.015625)" xlink:href="#DejaVuSans-91"/>
      <use transform="translate(285.834961 0.015625)" xlink:href="#DejaVuSans-37"/>
      <use transform="translate(380.854492 0.015625)" xlink:href="#DejaVuSans-93"/>
     </g>
    </g>
   </g>
   <g id="PathCollection_1">
    <path clip-path="url(#pf7428f5b77)" d="M 259.650636 100.325989 
C 260.120697 100.325989 260.571568 100.139232 260.903951 99.806849 
C 261.236333 99.474467 261.42309 99.023596 261.42309 98.553535 
C 261.42309 98.083475 261.236333 97.632604 260.903951 97.300221 
C 260.571568 96.967838 260.120697 96.781082 259.650636 96.781082 
C 259.180576 96.781082 258.729705 96.967838 258.397322 97.300221 
C 258.064939 97.632604 257.878183 98.083475 257.878183 98.553535 
C 257.878183 99.023596 258.064939 99.474467 258.397322 99.806849 
C 258.729705 100.139232 259.180576 100.325989 259.650636 100.325989 
z
" style="stroke:#000000;stroke-width:0.886227;"/>
    <path clip-path="url(#pf7428f5b77)" d="M 267.767 167.254474 
C 268.23706 167.254474 268.687931 167.067717 269.020314 166.735334 
C 269.352697 166.402952 269.539454 165.95208 269.539454 165.48202 
C 269.539454 165.01196 269.352697 164.561089 269.020314 164.228706 
C 268.687931 163.896323 268.23706 163.709566 267.767 163.709566 
C 267.29694 163.709566 266.846069 163.896323 266.513686 164.228706 
C 266.181303 164.561089 265.994546 165.01196 265.994546 165.48202 
C 265.994546 165.95208 266.181303 166.402952 266.513686 166.735334 
C 266.846069 167.067717 267.29694 167.254474 267.767 167.254474 
z
" style="stroke:#000000;stroke-width:0.886227;"/>
    <path clip-path="url(#pf7428f5b77)" d="M 275.883364 149.266595 
C 276.353424 149.266595 276.804295 149.079838 277.136678 148.747456 
C 277.469061 148.415073 277.655817 147.964202 277.655817 147.494141 
C 277.655817 147.024081 277.469061 146.57321 277.136678 146.240827 
C 276.804295 145.908444 276.353424 145.721688 275.883364 145.721688 
C 275.413303 145.721688 274.962432 145.908444 274.630049 146.240827 
C 274.297667 146.57321 274.11091 147.024081 274.11091 147.494141 
C 274.11091 147.964202 274.297667 148.415073 274.630049 148.747456 
C 274.962432 149.079838 275.413303 149.266595 275.883364 149.266595 
z
" style="stroke:#000000;stroke-width:0.886227;"/>
    <path clip-path="url(#pf7428f5b77)" d="M 283.999727 111.184628 
C 284.469788 111.184628 284.920659 110.997871 285.253041 110.665488 
C 285.585424 110.333105 285.772181 109.882234 285.772181 109.412174 
C 285.772181 108.942114 285.585424 108.491243 285.253041 108.15886 
C 284.920659 107.826477 284.469788 107.63972 283.999727 107.63972 
C 283.529667 107.63972 283.078796 107.826477 282.746413 108.15886 
C 282.41403 108.491243 282.227273 108.942114 282.227273 109.412174 
C 282.227273 109.882234 282.41403 110.333105 282.746413 110.665488 
C 283.078796 110.997871 283.529667 111.184628 283.999727 111.184628 
z
" style="stroke:#000000;stroke-width:0.886227;"/>
    <path clip-path="url(#pf7428f5b77)" d="M 292.116091 119.925554 
C 292.586151 119.925554 293.037022 119.738797 293.369405 119.406414 
C 293.701788 119.074032 293.888545 118.62316 293.888545 118.1531 
C 293.888545 117.68304 293.701788 117.232169 293.369405 116.899786 
C 293.037022 116.567403 292.586151 116.380646 292.116091 116.380646 
C 291.646031 116.380646 291.19516 116.567403 290.862777 116.899786 
C 290.530394 117.232169 290.343637 117.68304 290.343637 118.1531 
C 290.343637 118.62316 290.530394 119.074032 290.862777 119.406414 
C 291.19516 119.738797 291.646031 119.925554 292.116091 119.925554 
z
" style="stroke:#000000;stroke-width:0.886227;"/>
    <path clip-path="url(#pf7428f5b77)" d="M 300.232455 116.745916 
C 300.702515 116.745916 301.153386 116.559159 301.485769 116.226776 
C 301.818151 115.894394 302.004908 115.443523 302.004908 114.973462 
C 302.004908 114.503402 301.818151 114.052531 301.485769 113.720148 
C 301.153386 113.387765 300.702515 113.201008 300.232455 113.201008 
C 299.762394 113.201008 299.311523 113.387765 298.97914 113.720148 
C 298.646758 114.052531 298.460001 114.503402 298.460001 114.973462 
C 298.460001 115.443523 298.646758 115.894394 298.97914 116.226776 
C 299.311523 116.559159 299.762394 116.745916 300.232455 116.745916 
z
" style="stroke:#000000;stroke-width:0.886227;"/>
    <path clip-path="url(#pf7428f5b77)" d="M 308.348818 134.746489 
C 308.818878 134.746489 309.26975 134.559732 309.602132 134.227349 
C 309.934515 133.894966 310.121272 133.444095 310.121272 132.974035 
C 310.121272 132.503975 309.934515 132.053104 309.602132 131.720721 
C 309.26975 131.388338 308.818878 131.201581 308.348818 131.201581 
C 307.878758 131.201581 307.427887 131.388338 307.095504 131.720721 
C 306.763121 132.053104 306.576364 132.503975 306.576364 132.974035 
C 306.576364 133.444095 306.763121 133.894966 307.095504 134.227349 
C 307.427887 134.559732 307.878758 134.746489 308.348818 134.746489 
z
" style="stroke:#000000;stroke-width:0.886227;"/>
    <path clip-path="url(#pf7428f5b77)" d="M 316.465182 112.157784 
C 316.935242 112.157784 317.386113 111.971027 317.718496 111.638644 
C 318.050879 111.306262 318.237636 110.85539 318.237636 110.38533 
C 318.237636 109.91527 318.050879 109.464399 317.718496 109.132016 
C 317.386113 108.799633 316.935242 108.612876 316.465182 108.612876 
C 315.995122 108.612876 315.54425 108.799633 315.211868 109.132016 
C 314.879485 109.464399 314.692728 109.91527 314.692728 110.38533 
C 314.692728 110.85539 314.879485 111.306262 315.211868 111.638644 
C 315.54425 111.971027 315.995122 112.157784 316.465182 112.157784 
z
" style="stroke:#000000;stroke-width:0.886227;"/>
    <path clip-path="url(#pf7428f5b77)" d="M 324.581545 112.279121 
C 325.051606 112.279121 325.502477 112.092364 325.83486 111.759981 
C 326.167242 111.427598 326.353999 110.976727 326.353999 110.506667 
C 326.353999 110.036606 326.167242 109.585735 325.83486 109.253353 
C 325.502477 108.92097 325.051606 108.734213 324.581545 108.734213 
C 324.111485 108.734213 323.660614 108.92097 323.328231 109.253353 
C 322.995849 109.585735 322.809092 110.036606 322.809092 110.506667 
C 322.809092 110.976727 322.995849 111.427598 323.328231 111.759981 
C 323.660614 112.092364 324.111485 112.279121 324.581545 112.279121 
z
" style="stroke:#000000;stroke-width:0.886227;"/>
    <path clip-path="url(#pf7428f5b77)" d="M 332.697909 112.147294 
C 333.167969 112.147294 333.61884 111.960537 333.951223 111.628154 
C 334.283606 111.295772 334.470363 110.844901 334.470363 110.37484 
C 334.470363 109.90478 334.283606 109.453909 333.951223 109.121526 
C 333.61884 108.789143 333.167969 108.602386 332.697909 108.602386 
C 332.227849 108.602386 331.776978 108.789143 331.444595 109.121526 
C 331.112212 109.453909 330.925455 109.90478 330.925455 110.37484 
C 330.925455 110.844901 331.112212 111.295772 331.444595 111.628154 
C 331.776978 111.960537 332.227849 112.147294 332.697909 112.147294 
z
" style="stroke:#000000;stroke-width:0.886227;"/>
    <path clip-path="url(#pf7428f5b77)" d="M 340.814273 127.281108 
C 341.284333 127.281108 341.735204 127.094351 342.067587 126.761969 
C 342.39997 126.429586 342.586727 125.978715 342.586727 125.508655 
C 342.586727 125.038594 342.39997 124.587723 342.067587 124.25534 
C 341.735204 123.922958 341.284333 123.736201 340.814273 123.736201 
C 340.344212 123.736201 339.893341 123.922958 339.560959 124.25534 
C 339.228576 124.587723 339.041819 125.038594 339.041819 125.508655 
C 339.041819 125.978715 339.228576 126.429586 339.560959 126.761969 
C 339.893341 127.094351 340.344212 127.281108 340.814273 127.281108 
z
" style="stroke:#000000;stroke-width:0.886227;"/>
    <path clip-path="url(#pf7428f5b77)" d="M 348.930636 150.536937 
C 349.400697 150.536937 349.851568 150.35018 350.183951 150.017798 
C 350.516333 149.685415 350.70309 149.234544 350.70309 148.764483 
C 350.70309 148.294423 350.516333 147.843552 350.183951 147.511169 
C 349.851568 147.178786 349.400697 146.99203 348.930636 146.99203 
C 348.460576 146.99203 348.009705 147.178786 347.677322 147.511169 
C 347.344939 147.843552 347.158183 148.294423 347.158183 148.764483 
C 347.158183 149.234544 347.344939 149.685415 347.677322 150.017798 
C 348.009705 150.35018 348.460576 150.536937 348.930636 150.536937 
z
" style="stroke:#000000;stroke-width:0.886227;"/>
    <path clip-path="url(#pf7428f5b77)" d="M 357.047 145.662058 
C 357.51706 145.662058 357.967931 145.475301 358.300314 145.142918 
C 358.632697 144.810535 358.819454 144.359664 358.819454 143.889604 
C 358.819454 143.419543 358.632697 142.968672 358.300314 142.63629 
C 357.967931 142.303907 357.51706 142.11715 357.047 142.11715 
C 356.57694 142.11715 356.126069 142.303907 355.793686 142.63629 
C 355.461303 142.968672 355.274546 143.419543 355.274546 143.889604 
C 355.274546 144.359664 355.461303 144.810535 355.793686 145.142918 
C 356.126069 145.475301 356.57694 145.662058 357.047 145.662058 
z
" style="stroke:#000000;stroke-width:0.886227;"/>
    <path clip-path="url(#pf7428f5b77)" d="M 365.163364 128.986144 
C 365.633424 128.986144 366.084295 128.799387 366.416678 128.467004 
C 366.749061 128.134621 366.935817 127.68375 366.935817 127.21369 
C 366.935817 126.74363 366.749061 126.292758 366.416678 125.960376 
C 366.084295 125.627993 365.633424 125.441236 365.163364 125.441236 
C 364.693303 125.441236 364.242432 125.627993 363.910049 125.960376 
C 363.577667 126.292758 363.39091 126.74363 363.39091 127.21369 
C 363.39091 127.68375 363.577667 128.134621 363.910049 128.467004 
C 364.242432 128.799387 364.693303 128.986144 365.163364 128.986144 
z
" style="stroke:#000000;stroke-width:0.886227;"/>
    <path clip-path="url(#pf7428f5b77)" d="M 373.279727 122.144042 
C 373.749788 122.144042 374.200659 121.957285 374.533041 121.624902 
C 374.865424 121.292519 375.052181 120.841648 375.052181 120.371588 
C 375.052181 119.901528 374.865424 119.450657 374.533041 119.118274 
C 374.200659 118.785891 373.749788 118.599134 373.279727 118.599134 
C 372.809667 118.599134 372.358796 118.785891 372.026413 119.118274 
C 371.69403 119.450657 371.507273 119.901528 371.507273 120.371588 
C 371.507273 120.841648 371.69403 121.292519 372.026413 121.624902 
C 372.358796 121.957285 372.809667 122.144042 373.279727 122.144042 
z
" style="stroke:#000000;stroke-width:0.886227;"/>
    <path clip-path="url(#pf7428f5b77)" d="M 381.396091 132.994303 
C 381.866151 132.994303 382.317022 132.807546 382.649405 132.475163 
C 382.981788 132.14278 383.168545 131.691909 383.168545 131.221849 
C 383.168545 130.751789 382.981788 130.300918 382.649405 129.968535 
C 382.317022 129.636152 381.866151 129.449395 381.396091 129.449395 
C 380.926031 129.449395 380.47516 129.636152 380.142777 129.968535 
C 379.810394 130.300918 379.623637 130.751789 379.623637 131.221849 
C 379.623637 131.691909 379.810394 132.14278 380.142777 132.475163 
C 380.47516 132.807546 380.926031 132.994303 381.396091 132.994303 
z
" style="stroke:#000000;stroke-width:0.886227;"/>
    <path clip-path="url(#pf7428f5b77)" d="M 389.512455 106.750716 
C 389.982515 106.750716 390.433386 106.56396 390.765769 106.231577 
C 391.098151 105.899194 391.284908 105.448323 391.284908 104.978263 
C 391.284908 104.508202 391.098151 104.057331 390.765769 103.724948 
C 390.433386 103.392566 389.982515 103.205809 389.512455 103.205809 
C 389.042394 103.205809 388.591523 103.392566 388.25914 103.724948 
C 387.926758 104.057331 387.740001 104.508202 387.740001 104.978263 
C 387.740001 105.448323 387.926758 105.899194 388.25914 106.231577 
C 388.591523 106.56396 389.042394 106.750716 389.512455 106.750716 
z
" style="stroke:#000000;stroke-width:0.886227;"/>
    <path clip-path="url(#pf7428f5b77)" d="M 397.628818 123.469279 
C 398.098878 123.469279 398.54975 123.282522 398.882132 122.950139 
C 399.214515 122.617756 399.401272 122.166885 399.401272 121.696825 
C 399.401272 121.226765 399.214515 120.775894 398.882132 120.443511 
C 398.54975 120.111128 398.098878 119.924371 397.628818 119.924371 
C 397.158758 119.924371 396.707887 120.111128 396.375504 120.443511 
C 396.043121 120.775894 395.856364 121.226765 395.856364 121.696825 
C 395.856364 122.166885 396.043121 122.617756 396.375504 122.950139 
C 396.707887 123.282522 397.158758 123.469279 397.628818 123.469279 
z
" style="stroke:#000000;stroke-width:0.886227;"/>
    <path clip-path="url(#pf7428f5b77)" d="M 405.745182 126.310824 
C 406.215242 126.310824 406.666113 126.124067 406.998496 125.791684 
C 407.330879 125.459301 407.517636 125.00843 407.517636 124.53837 
C 407.517636 124.06831 407.330879 123.617439 406.998496 123.285056 
C 406.666113 122.952673 406.215242 122.765916 405.745182 122.765916 
C 405.275122 122.765916 404.82425 122.952673 404.491868 123.285056 
C 404.159485 123.617439 403.972728 124.06831 403.972728 124.53837 
C 403.972728 125.00843 404.159485 125.459301 404.491868 125.791684 
C 404.82425 126.124067 405.275122 126.310824 405.745182 126.310824 
z
" style="stroke:#000000;stroke-width:0.886227;"/>
    <path clip-path="url(#pf7428f5b77)" d="M 413.861545 107.042266 
C 414.331606 107.042266 414.782477 106.855509 415.11486 106.523126 
C 415.447242 106.190743 415.633999 105.739872 415.633999 105.269812 
C 415.633999 104.799752 415.447242 104.348881 415.11486 104.016498 
C 414.782477 103.684115 414.331606 103.497358 413.861545 103.497358 
C 413.391485 103.497358 412.940614 103.684115 412.608231 104.016498 
C 412.275849 104.348881 412.089092 104.799752 412.089092 105.269812 
C 412.089092 105.739872 412.275849 106.190743 412.608231 106.523126 
C 412.940614 106.855509 413.391485 107.042266 413.861545 107.042266 
z
" style="stroke:#000000;stroke-width:0.886227;"/>
    <path clip-path="url(#pf7428f5b77)" d="M 421.977909 98.45706 
C 422.447969 98.45706 422.89884 98.270303 423.231223 97.93792 
C 423.563606 97.605537 423.750363 97.154666 423.750363 96.684606 
C 423.750363 96.214546 423.563606 95.763675 423.231223 95.431292 
C 422.89884 95.098909 422.447969 94.912152 421.977909 94.912152 
C 421.507849 94.912152 421.056978 95.098909 420.724595 95.431292 
C 420.392212 95.763675 420.205455 96.214546 420.205455 96.684606 
C 420.205455 97.154666 420.392212 97.605537 420.724595 97.93792 
C 421.056978 98.270303 421.507849 98.45706 421.977909 98.45706 
z
" style="stroke:#000000;stroke-width:0.886227;"/>
    <path clip-path="url(#pf7428f5b77)" d="M 430.094273 121.675665 
C 430.564333 121.675665 431.015204 121.488908 431.347587 121.156526 
C 431.67997 120.824143 431.866727 120.373272 431.866727 119.903212 
C 431.866727 119.433151 431.67997 118.98228 431.347587 118.649897 
C 431.015204 118.317515 430.564333 118.130758 430.094273 118.130758 
C 429.624212 118.130758 429.173341 118.317515 428.840959 118.649897 
C 428.508576 118.98228 428.321819 119.433151 428.321819 119.903212 
C 428.321819 120.373272 428.508576 120.824143 428.840959 121.156526 
C 429.173341 121.488908 429.624212 121.675665 430.094273 121.675665 
z
" style="stroke:#000000;stroke-width:0.886227;"/>
    <path clip-path="url(#pf7428f5b77)" d="M 438.210636 101.31163 
C 438.680697 101.31163 439.131568 101.124873 439.463951 100.79249 
C 439.796333 100.460107 439.98309 100.009236 439.98309 99.539176 
C 439.98309 99.069116 439.796333 98.618245 439.463951 98.285862 
C 439.131568 97.953479 438.680697 97.766722 438.210636 97.766722 
C 437.740576 97.766722 437.289705 97.953479 436.957322 98.285862 
C 436.624939 98.618245 436.438183 99.069116 436.438183 99.539176 
C 436.438183 100.009236 436.624939 100.460107 436.957322 100.79249 
C 437.289705 101.124873 437.740576 101.31163 438.210636 101.31163 
z
" style="stroke:#000000;stroke-width:0.886227;"/>
    <path clip-path="url(#pf7428f5b77)" d="M 446.327 95.778643 
C 446.79706 95.778643 447.247931 95.591886 447.580314 95.259503 
C 447.912697 94.92712 448.099454 94.476249 448.099454 94.006189 
C 448.099454 93.536129 447.912697 93.085258 447.580314 92.752875 
C 447.247931 92.420492 446.79706 92.233735 446.327 92.233735 
C 445.85694 92.233735 445.406069 92.420492 445.073686 92.752875 
C 444.741303 93.085258 444.554546 93.536129 444.554546 94.006189 
C 444.554546 94.476249 444.741303 94.92712 445.073686 95.259503 
C 445.406069 95.591886 445.85694 95.778643 446.327 95.778643 
z
" style="stroke:#000000;stroke-width:0.886227;"/>
    <path clip-path="url(#pf7428f5b77)" d="M 454.443364 116.584026 
C 454.913424 116.584026 455.364295 116.397269 455.696678 116.064886 
C 456.029061 115.732504 456.215817 115.281633 456.215817 114.811572 
C 456.215817 114.341512 456.029061 113.890641 455.696678 113.558258 
C 455.364295 113.225875 454.913424 113.039118 454.443364 113.039118 
C 453.973303 113.039118 453.522432 113.225875 453.190049 113.558258 
C 452.857667 113.890641 452.67091 114.341512 452.67091 114.811572 
C 452.67091 115.281633 452.857667 115.732504 453.190049 116.064886 
C 453.522432 116.397269 453.973303 116.584026 454.443364 116.584026 
z
" style="stroke:#000000;stroke-width:0.886227;"/>
    <path clip-path="url(#pf7428f5b77)" d="M 462.559727 136.132415 
C 463.029788 136.132415 463.480659 135.945658 463.813041 135.613275 
C 464.145424 135.280892 464.332181 134.830021 464.332181 134.359961 
C 464.332181 133.889901 464.145424 133.43903 463.813041 133.106647 
C 463.480659 132.774264 463.029788 132.587507 462.559727 132.587507 
C 462.089667 132.587507 461.638796 132.774264 461.306413 133.106647 
C 460.97403 133.43903 460.787273 133.889901 460.787273 134.359961 
C 460.787273 134.830021 460.97403 135.280892 461.306413 135.613275 
C 461.638796 135.945658 462.089667 136.132415 462.559727 136.132415 
z
" style="stroke:#000000;stroke-width:0.886227;"/>
   </g>
   <g id="line2d_41">
    <path clip-path="url(#pf7428f5b77)" d="M 259.650636 98.553535 
L 267.767 165.48202 
L 275.883364 147.494141 
L 283.999727 109.412174 
L 292.116091 118.1531 
L 300.232455 114.973462 
L 308.348818 132.974035 
L 316.465182 110.38533 
L 324.581545 110.506667 
L 332.697909 110.37484 
L 340.814273 125.508655 
L 348.930636 148.764483 
L 357.047 143.889604 
L 365.163364 127.21369 
L 373.279727 120.371588 
L 381.396091 131.221849 
L 389.512455 104.978263 
L 397.628818 121.696825 
L 405.745182 124.53837 
L 413.861545 105.269812 
L 421.977909 96.684606 
L 430.094273 119.903212 
L 438.210636 99.539176 
L 446.327 94.006189 
L 454.443364 114.811572 
L 462.559727 134.359961 
" style="fill:none;stroke:#000000;stroke-width:0.886227;"/>
   </g>
  </g>
 </g>
 <defs>
  <clipPath id="pf7428f5b77">
   <rect height="221.76" width="446.4" x="44.567" y="7.2"/>
  </clipPath>
 </defs>
</svg>
