<?xml version="1.0" encoding="utf-8" standalone="no"?>
<!DOCTYPE svg PUBLIC "-//W3C//DTD SVG 1.1//EN"
  "http://www.w3.org/Graphics/SVG/1.1/DTD/svg11.dtd">
<!-- Created with matplotlib (https://matplotlib.org/) -->
<svg height="264.672687pt" version="1.1" viewBox="0 0 498.717 264.672687" width="498.717pt" xmlns="http://www.w3.org/2000/svg" xmlns:xlink="http://www.w3.org/1999/xlink">
 <defs>
  <style type="text/css">
*{stroke-linecap:butt;stroke-linejoin:round;}
  </style>
 </defs>
 <g id="figure_1">
  <g id="patch_1">
   <path d="M 0 264.672687 
L 498.717 264.672687 
L 498.717 0 
L 0 0 
z
" style="fill:#ffffff;stroke:#ffffff;stroke-linejoin:miter;"/>
  </g>
  <g id="axes_1">
   <g id="patch_2">
    <path d="M 45.117 228.96 
L 491.517 228.96 
L 491.517 7.2 
L 45.117 7.2 
z
" style="fill:#ffffff;stroke:#7f7f7f;stroke-linejoin:miter;"/>
   </g>
   <g id="matplotlib.axis_1">
    <g id="xtick_1">
     <g id="line2d_1">
      <path clip-path="url(#p6c0c0a4668)" d="M 65.407909 228.96 
L 65.407909 7.2 
" style="fill:none;stroke:#e5e5e5;stroke-width:0.8;"/>
     </g>
     <g id="line2d_2">
      <path d="M 65.407909 228.96 
" style="fill:none;stroke:#000000;stroke-width:1.5;"/>
      <defs>
       <path d="M 0 0 
L 0 2.75 
" id="ma4ed7e3d06" style="stroke:#000000;"/>
      </defs>
      <g>
       <use style="stroke:#000000;" x="65.407909" xlink:href="#ma4ed7e3d06" y="228.96"/>
      </g>
     </g>
     <g id="text_1">
      <!-- 1970 -->
      <defs>
       <path d="M 12.40625 8.296875 
L 28.515625 8.296875 
L 28.515625 63.921875 
L 10.984375 60.40625 
L 10.984375 69.390625 
L 28.421875 72.90625 
L 38.28125 72.90625 
L 38.28125 8.296875 
L 54.390625 8.296875 
L 54.390625 0 
L 12.40625 0 
z
" id="DejaVuSans-49"/>
       <path d="M 10.984375 1.515625 
L 10.984375 10.5 
Q 14.703125 8.734375 18.5 7.8125 
Q 22.3125 6.890625 25.984375 6.890625 
Q 35.75 6.890625 40.890625 13.453125 
Q 46.046875 20.015625 46.78125 33.40625 
Q 43.953125 29.203125 39.59375 26.953125 
Q 35.25 24.703125 29.984375 24.703125 
Q 19.046875 24.703125 12.671875 31.3125 
Q 6.296875 37.9375 6.296875 49.421875 
Q 6.296875 60.640625 12.9375 67.421875 
Q 19.578125 74.21875 30.609375 74.21875 
Q 43.265625 74.21875 49.921875 64.515625 
Q 56.59375 54.828125 56.59375 36.375 
Q 56.59375 19.140625 48.40625 8.859375 
Q 40.234375 -1.421875 26.421875 -1.421875 
Q 22.703125 -1.421875 18.890625 -0.6875 
Q 15.09375 0.046875 10.984375 1.515625 
z
M 30.609375 32.421875 
Q 37.25 32.421875 41.125 36.953125 
Q 45.015625 41.5 45.015625 49.421875 
Q 45.015625 57.28125 41.125 61.84375 
Q 37.25 66.40625 30.609375 66.40625 
Q 23.96875 66.40625 20.09375 61.84375 
Q 16.21875 57.28125 16.21875 49.421875 
Q 16.21875 41.5 20.09375 36.953125 
Q 23.96875 32.421875 30.609375 32.421875 
z
" id="DejaVuSans-57"/>
       <path d="M 8.203125 72.90625 
L 55.078125 72.90625 
L 55.078125 68.703125 
L 28.609375 0 
L 18.3125 0 
L 43.21875 64.59375 
L 8.203125 64.59375 
z
" id="DejaVuSans-55"/>
       <path d="M 31.78125 66.40625 
Q 24.171875 66.40625 20.328125 58.90625 
Q 16.5 51.421875 16.5 36.375 
Q 16.5 21.390625 20.328125 13.890625 
Q 24.171875 6.390625 31.78125 6.390625 
Q 39.453125 6.390625 43.28125 13.890625 
Q 47.125 21.390625 47.125 36.375 
Q 47.125 51.421875 43.28125 58.90625 
Q 39.453125 66.40625 31.78125 66.40625 
z
M 31.78125 74.21875 
Q 44.046875 74.21875 50.515625 64.515625 
Q 56.984375 54.828125 56.984375 36.375 
Q 56.984375 17.96875 50.515625 8.265625 
Q 44.046875 -1.421875 31.78125 -1.421875 
Q 19.53125 -1.421875 13.0625 8.265625 
Q 6.59375 17.96875 6.59375 36.375 
Q 6.59375 54.828125 13.0625 64.515625 
Q 19.53125 74.21875 31.78125 74.21875 
z
" id="DejaVuSans-48"/>
      </defs>
      <g transform="translate(54.209909 240.596625)scale(0.088 -0.088)">
       <use xlink:href="#DejaVuSans-49"/>
       <use x="63.623047" xlink:href="#DejaVuSans-57"/>
       <use x="127.246094" xlink:href="#DejaVuSans-55"/>
       <use x="190.869141" xlink:href="#DejaVuSans-48"/>
      </g>
     </g>
    </g>
    <g id="xtick_2">
     <g id="line2d_3">
      <path clip-path="url(#p6c0c0a4668)" d="M 146.571545 228.96 
L 146.571545 7.2 
" style="fill:none;stroke:#e5e5e5;stroke-width:0.8;"/>
     </g>
     <g id="line2d_4">
      <path d="M 146.571545 228.96 
" style="fill:none;stroke:#000000;stroke-width:1.5;"/>
      <g>
       <use style="stroke:#000000;" x="146.571545" xlink:href="#ma4ed7e3d06" y="228.96"/>
      </g>
     </g>
     <g id="text_2">
      <!-- 1980 -->
      <defs>
       <path d="M 31.78125 34.625 
Q 24.75 34.625 20.71875 30.859375 
Q 16.703125 27.09375 16.703125 20.515625 
Q 16.703125 13.921875 20.71875 10.15625 
Q 24.75 6.390625 31.78125 6.390625 
Q 38.8125 6.390625 42.859375 10.171875 
Q 46.921875 13.96875 46.921875 20.515625 
Q 46.921875 27.09375 42.890625 30.859375 
Q 38.875 34.625 31.78125 34.625 
z
M 21.921875 38.8125 
Q 15.578125 40.375 12.03125 44.71875 
Q 8.5 49.078125 8.5 55.328125 
Q 8.5 64.0625 14.71875 69.140625 
Q 20.953125 74.21875 31.78125 74.21875 
Q 42.671875 74.21875 48.875 69.140625 
Q 55.078125 64.0625 55.078125 55.328125 
Q 55.078125 49.078125 51.53125 44.71875 
Q 48 40.375 41.703125 38.8125 
Q 48.828125 37.15625 52.796875 32.3125 
Q 56.78125 27.484375 56.78125 20.515625 
Q 56.78125 9.90625 50.3125 4.234375 
Q 43.84375 -1.421875 31.78125 -1.421875 
Q 19.734375 -1.421875 13.25 4.234375 
Q 6.78125 9.90625 6.78125 20.515625 
Q 6.78125 27.484375 10.78125 32.3125 
Q 14.796875 37.15625 21.921875 38.8125 
z
M 18.3125 54.390625 
Q 18.3125 48.734375 21.84375 45.5625 
Q 25.390625 42.390625 31.78125 42.390625 
Q 38.140625 42.390625 41.71875 45.5625 
Q 45.3125 48.734375 45.3125 54.390625 
Q 45.3125 60.0625 41.71875 63.234375 
Q 38.140625 66.40625 31.78125 66.40625 
Q 25.390625 66.40625 21.84375 63.234375 
Q 18.3125 60.0625 18.3125 54.390625 
z
" id="DejaVuSans-56"/>
      </defs>
      <g transform="translate(135.373545 240.596625)scale(0.088 -0.088)">
       <use xlink:href="#DejaVuSans-49"/>
       <use x="63.623047" xlink:href="#DejaVuSans-57"/>
       <use x="127.246094" xlink:href="#DejaVuSans-56"/>
       <use x="190.869141" xlink:href="#DejaVuSans-48"/>
      </g>
     </g>
    </g>
    <g id="xtick_3">
     <g id="line2d_5">
      <path clip-path="url(#p6c0c0a4668)" d="M 227.735182 228.96 
L 227.735182 7.2 
" style="fill:none;stroke:#e5e5e5;stroke-width:0.8;"/>
     </g>
     <g id="line2d_6">
      <path d="M 227.735182 228.96 
" style="fill:none;stroke:#000000;stroke-width:1.5;"/>
      <g>
       <use style="stroke:#000000;" x="227.735182" xlink:href="#ma4ed7e3d06" y="228.96"/>
      </g>
     </g>
     <g id="text_3">
      <!-- 1990 -->
      <g transform="translate(216.537182 240.596625)scale(0.088 -0.088)">
       <use xlink:href="#DejaVuSans-49"/>
       <use x="63.623047" xlink:href="#DejaVuSans-57"/>
       <use x="127.246094" xlink:href="#DejaVuSans-57"/>
       <use x="190.869141" xlink:href="#DejaVuSans-48"/>
      </g>
     </g>
    </g>
    <g id="xtick_4">
     <g id="line2d_7">
      <path clip-path="url(#p6c0c0a4668)" d="M 308.898818 228.96 
L 308.898818 7.2 
" style="fill:none;stroke:#e5e5e5;stroke-width:0.8;"/>
     </g>
     <g id="line2d_8">
      <path d="M 308.898818 228.96 
" style="fill:none;stroke:#000000;stroke-width:1.5;"/>
      <g>
       <use style="stroke:#000000;" x="308.898818" xlink:href="#ma4ed7e3d06" y="228.96"/>
      </g>
     </g>
     <g id="text_4">
      <!-- 2000 -->
      <defs>
       <path d="M 19.1875 8.296875 
L 53.609375 8.296875 
L 53.609375 0 
L 7.328125 0 
L 7.328125 8.296875 
Q 12.9375 14.109375 22.625 23.890625 
Q 32.328125 33.6875 34.8125 36.53125 
Q 39.546875 41.84375 41.421875 45.53125 
Q 43.3125 49.21875 43.3125 52.78125 
Q 43.3125 58.59375 39.234375 62.25 
Q 35.15625 65.921875 28.609375 65.921875 
Q 23.96875 65.921875 18.8125 64.3125 
Q 13.671875 62.703125 7.8125 59.421875 
L 7.8125 69.390625 
Q 13.765625 71.78125 18.9375 73 
Q 24.125 74.21875 28.421875 74.21875 
Q 39.75 74.21875 46.484375 68.546875 
Q 53.21875 62.890625 53.21875 53.421875 
Q 53.21875 48.921875 51.53125 44.890625 
Q 49.859375 40.875 45.40625 35.40625 
Q 44.1875 33.984375 37.640625 27.21875 
Q 31.109375 20.453125 19.1875 8.296875 
z
" id="DejaVuSans-50"/>
      </defs>
      <g transform="translate(297.700818 240.596625)scale(0.088 -0.088)">
       <use xlink:href="#DejaVuSans-50"/>
       <use x="63.623047" xlink:href="#DejaVuSans-48"/>
       <use x="127.246094" xlink:href="#DejaVuSans-48"/>
       <use x="190.869141" xlink:href="#DejaVuSans-48"/>
      </g>
     </g>
    </g>
    <g id="xtick_5">
     <g id="line2d_9">
      <path clip-path="url(#p6c0c0a4668)" d="M 390.062455 228.96 
L 390.062455 7.2 
" style="fill:none;stroke:#e5e5e5;stroke-width:0.8;"/>
     </g>
     <g id="line2d_10">
      <path d="M 390.062455 228.96 
" style="fill:none;stroke:#000000;stroke-width:1.5;"/>
      <g>
       <use style="stroke:#000000;" x="390.062455" xlink:href="#ma4ed7e3d06" y="228.96"/>
      </g>
     </g>
     <g id="text_5">
      <!-- 2010 -->
      <g transform="translate(378.864455 240.596625)scale(0.088 -0.088)">
       <use xlink:href="#DejaVuSans-50"/>
       <use x="63.623047" xlink:href="#DejaVuSans-48"/>
       <use x="127.246094" xlink:href="#DejaVuSans-49"/>
       <use x="190.869141" xlink:href="#DejaVuSans-48"/>
      </g>
     </g>
    </g>
    <g id="xtick_6">
     <g id="line2d_11">
      <path clip-path="url(#p6c0c0a4668)" d="M 471.226091 228.96 
L 471.226091 7.2 
" style="fill:none;stroke:#e5e5e5;stroke-width:0.8;"/>
     </g>
     <g id="line2d_12">
      <path d="M 471.226091 228.96 
" style="fill:none;stroke:#000000;stroke-width:1.5;"/>
      <g>
       <use style="stroke:#000000;" x="471.226091" xlink:href="#ma4ed7e3d06" y="228.96"/>
      </g>
     </g>
     <g id="text_6">
      <!-- 2020 -->
      <g transform="translate(460.028091 240.596625)scale(0.088 -0.088)">
       <use xlink:href="#DejaVuSans-50"/>
       <use x="63.623047" xlink:href="#DejaVuSans-48"/>
       <use x="127.246094" xlink:href="#DejaVuSans-50"/>
       <use x="190.869141" xlink:href="#DejaVuSans-48"/>
      </g>
     </g>
    </g>
    <g id="xtick_7">
     <g id="line2d_13">
      <path clip-path="url(#p6c0c0a4668)" d="M 105.989727 228.96 
L 105.989727 7.2 
" style="fill:none;stroke:#fafafa;"/>
     </g>
     <g id="line2d_14">
      <path d="M 105.989727 228.96 
" style="fill:none;stroke:#000000;stroke-width:1.5;"/>
      <defs>
       <path d="M 0 0 
L 0 1.375 
" id="m36dc2a798a" style="stroke:#000000;"/>
      </defs>
      <g>
       <use style="stroke:#000000;" x="105.989727" xlink:href="#m36dc2a798a" y="228.96"/>
      </g>
     </g>
    </g>
    <g id="xtick_8">
     <g id="line2d_15">
      <path clip-path="url(#p6c0c0a4668)" d="M 187.153364 228.96 
L 187.153364 7.2 
" style="fill:none;stroke:#fafafa;"/>
     </g>
     <g id="line2d_16">
      <path d="M 187.153364 228.96 
" style="fill:none;stroke:#000000;stroke-width:1.5;"/>
      <g>
       <use style="stroke:#000000;" x="187.153364" xlink:href="#m36dc2a798a" y="228.96"/>
      </g>
     </g>
    </g>
    <g id="xtick_9">
     <g id="line2d_17">
      <path clip-path="url(#p6c0c0a4668)" d="M 268.317 228.96 
L 268.317 7.2 
" style="fill:none;stroke:#fafafa;"/>
     </g>
     <g id="line2d_18">
      <path d="M 268.317 228.96 
" style="fill:none;stroke:#000000;stroke-width:1.5;"/>
      <g>
       <use style="stroke:#000000;" x="268.317" xlink:href="#m36dc2a798a" y="228.96"/>
      </g>
     </g>
    </g>
    <g id="xtick_10">
     <g id="line2d_19">
      <path clip-path="url(#p6c0c0a4668)" d="M 349.480636 228.96 
L 349.480636 7.2 
" style="fill:none;stroke:#fafafa;"/>
     </g>
     <g id="line2d_20">
      <path d="M 349.480636 228.96 
" style="fill:none;stroke:#000000;stroke-width:1.5;"/>
      <g>
       <use style="stroke:#000000;" x="349.480636" xlink:href="#m36dc2a798a" y="228.96"/>
      </g>
     </g>
    </g>
    <g id="xtick_11">
     <g id="line2d_21">
      <path clip-path="url(#p6c0c0a4668)" d="M 430.644273 228.96 
L 430.644273 7.2 
" style="fill:none;stroke:#fafafa;"/>
     </g>
     <g id="line2d_22">
      <path d="M 430.644273 228.96 
" style="fill:none;stroke:#000000;stroke-width:1.5;"/>
      <g>
       <use style="stroke:#000000;" x="430.644273" xlink:href="#m36dc2a798a" y="228.96"/>
      </g>
     </g>
    </g>
    <g id="text_7">
     <!-- Year -->
     <defs>
      <path d="M -0.203125 72.90625 
L 10.40625 72.90625 
L 30.609375 42.921875 
L 50.6875 72.90625 
L 61.28125 72.90625 
L 35.5 34.71875 
L 35.5 0 
L 25.59375 0 
L 25.59375 34.71875 
z
" id="DejaVuSans-89"/>
      <path d="M 56.203125 29.59375 
L 56.203125 25.203125 
L 14.890625 25.203125 
Q 15.484375 15.921875 20.484375 11.0625 
Q 25.484375 6.203125 34.421875 6.203125 
Q 39.59375 6.203125 44.453125 7.46875 
Q 49.3125 8.734375 54.109375 11.28125 
L 54.109375 2.78125 
Q 49.265625 0.734375 44.1875 -0.34375 
Q 39.109375 -1.421875 33.890625 -1.421875 
Q 20.796875 -1.421875 13.15625 6.1875 
Q 5.515625 13.8125 5.515625 26.8125 
Q 5.515625 40.234375 12.765625 48.109375 
Q 20.015625 56 32.328125 56 
Q 43.359375 56 49.78125 48.890625 
Q 56.203125 41.796875 56.203125 29.59375 
z
M 47.21875 32.234375 
Q 47.125 39.59375 43.09375 43.984375 
Q 39.0625 48.390625 32.421875 48.390625 
Q 24.90625 48.390625 20.390625 44.140625 
Q 15.875 39.890625 15.1875 32.171875 
z
" id="DejaVuSans-101"/>
      <path d="M 34.28125 27.484375 
Q 23.390625 27.484375 19.1875 25 
Q 14.984375 22.515625 14.984375 16.5 
Q 14.984375 11.71875 18.140625 8.90625 
Q 21.296875 6.109375 26.703125 6.109375 
Q 34.1875 6.109375 38.703125 11.40625 
Q 43.21875 16.703125 43.21875 25.484375 
L 43.21875 27.484375 
z
M 52.203125 31.203125 
L 52.203125 0 
L 43.21875 0 
L 43.21875 8.296875 
Q 40.140625 3.328125 35.546875 0.953125 
Q 30.953125 -1.421875 24.3125 -1.421875 
Q 15.921875 -1.421875 10.953125 3.296875 
Q 6 8.015625 6 15.921875 
Q 6 25.140625 12.171875 29.828125 
Q 18.359375 34.515625 30.609375 34.515625 
L 43.21875 34.515625 
L 43.21875 35.40625 
Q 43.21875 41.609375 39.140625 45 
Q 35.0625 48.390625 27.6875 48.390625 
Q 23 48.390625 18.546875 47.265625 
Q 14.109375 46.140625 10.015625 43.890625 
L 10.015625 52.203125 
Q 14.9375 54.109375 19.578125 55.046875 
Q 24.21875 56 28.609375 56 
Q 40.484375 56 46.34375 49.84375 
Q 52.203125 43.703125 52.203125 31.203125 
z
" id="DejaVuSans-97"/>
      <path d="M 41.109375 46.296875 
Q 39.59375 47.171875 37.8125 47.578125 
Q 36.03125 48 33.890625 48 
Q 26.265625 48 22.1875 43.046875 
Q 18.109375 38.09375 18.109375 28.8125 
L 18.109375 0 
L 9.078125 0 
L 9.078125 54.6875 
L 18.109375 54.6875 
L 18.109375 46.1875 
Q 20.953125 51.171875 25.484375 53.578125 
Q 30.03125 56 36.53125 56 
Q 37.453125 56 38.578125 55.875 
Q 39.703125 55.765625 41.0625 55.515625 
z
" id="DejaVuSans-114"/>
     </defs>
     <g transform="translate(248.753172 255.185031)scale(0.11 -0.11)">
      <use xlink:href="#DejaVuSans-89"/>
      <use x="60.880859" xlink:href="#DejaVuSans-101"/>
      <use x="122.404297" xlink:href="#DejaVuSans-97"/>
      <use x="183.683594" xlink:href="#DejaVuSans-114"/>
     </g>
    </g>
   </g>
   <g id="matplotlib.axis_2">
    <g id="ytick_1">
     <g id="line2d_23">
      <path clip-path="url(#p6c0c0a4668)" d="M 45.117 218.88 
L 491.517 218.88 
" style="fill:none;stroke:#e5e5e5;stroke-width:0.8;"/>
     </g>
     <g id="line2d_24">
      <path d="M 45.117 218.88 
" style="fill:none;stroke:#000000;stroke-width:1.5;"/>
      <defs>
       <path d="M 0 0 
L -2.75 0 
" id="m32fd911d1a" style="stroke:#000000;"/>
      </defs>
      <g>
       <use style="stroke:#000000;" x="45.117" xlink:href="#m32fd911d1a" y="218.88"/>
      </g>
     </g>
     <g id="text_8">
      <!-- 0 -->
      <g transform="translate(34.568 221.30825)scale(0.088 -0.088)">
       <use xlink:href="#DejaVuSans-48"/>
      </g>
     </g>
    </g>
    <g id="ytick_2">
     <g id="line2d_25">
      <path clip-path="url(#p6c0c0a4668)" d="M 45.117 168.48 
L 491.517 168.48 
" style="fill:none;stroke:#e5e5e5;stroke-width:0.8;"/>
     </g>
     <g id="line2d_26">
      <path d="M 45.117 168.48 
" style="fill:none;stroke:#000000;stroke-width:1.5;"/>
      <g>
       <use style="stroke:#000000;" x="45.117" xlink:href="#m32fd911d1a" y="168.48"/>
      </g>
     </g>
     <g id="text_9">
      <!-- 25 -->
      <defs>
       <path d="M 10.796875 72.90625 
L 49.515625 72.90625 
L 49.515625 64.59375 
L 19.828125 64.59375 
L 19.828125 46.734375 
Q 21.96875 47.46875 24.109375 47.828125 
Q 26.265625 48.1875 28.421875 48.1875 
Q 40.625 48.1875 47.75 41.5 
Q 54.890625 34.8125 54.890625 23.390625 
Q 54.890625 11.625 47.5625 5.09375 
Q 40.234375 -1.421875 26.90625 -1.421875 
Q 22.3125 -1.421875 17.546875 -0.640625 
Q 12.796875 0.140625 7.71875 1.703125 
L 7.71875 11.625 
Q 12.109375 9.234375 16.796875 8.0625 
Q 21.484375 6.890625 26.703125 6.890625 
Q 35.15625 6.890625 40.078125 11.328125 
Q 45.015625 15.765625 45.015625 23.390625 
Q 45.015625 31 40.078125 35.4375 
Q 35.15625 39.890625 26.703125 39.890625 
Q 22.75 39.890625 18.8125 39.015625 
Q 14.890625 38.140625 10.796875 36.28125 
z
" id="DejaVuSans-53"/>
      </defs>
      <g transform="translate(28.969 170.90825)scale(0.088 -0.088)">
       <use xlink:href="#DejaVuSans-50"/>
       <use x="63.623047" xlink:href="#DejaVuSans-53"/>
      </g>
     </g>
    </g>
    <g id="ytick_3">
     <g id="line2d_27">
      <path clip-path="url(#p6c0c0a4668)" d="M 45.117 118.08 
L 491.517 118.08 
" style="fill:none;stroke:#e5e5e5;stroke-width:0.8;"/>
     </g>
     <g id="line2d_28">
      <path d="M 45.117 118.08 
" style="fill:none;stroke:#000000;stroke-width:1.5;"/>
      <g>
       <use style="stroke:#000000;" x="45.117" xlink:href="#m32fd911d1a" y="118.08"/>
      </g>
     </g>
     <g id="text_10">
      <!-- 50 -->
      <g transform="translate(28.969 120.50825)scale(0.088 -0.088)">
       <use xlink:href="#DejaVuSans-53"/>
       <use x="63.623047" xlink:href="#DejaVuSans-48"/>
      </g>
     </g>
    </g>
    <g id="ytick_4">
     <g id="line2d_29">
      <path clip-path="url(#p6c0c0a4668)" d="M 45.117 67.68 
L 491.517 67.68 
" style="fill:none;stroke:#e5e5e5;stroke-width:0.8;"/>
     </g>
     <g id="line2d_30">
      <path d="M 45.117 67.68 
" style="fill:none;stroke:#000000;stroke-width:1.5;"/>
      <g>
       <use style="stroke:#000000;" x="45.117" xlink:href="#m32fd911d1a" y="67.68"/>
      </g>
     </g>
     <g id="text_11">
      <!-- 75 -->
      <g transform="translate(28.969 70.10825)scale(0.088 -0.088)">
       <use xlink:href="#DejaVuSans-55"/>
       <use x="63.623047" xlink:href="#DejaVuSans-53"/>
      </g>
     </g>
    </g>
    <g id="ytick_5">
     <g id="line2d_31">
      <path clip-path="url(#p6c0c0a4668)" d="M 45.117 17.28 
L 491.517 17.28 
" style="fill:none;stroke:#e5e5e5;stroke-width:0.8;"/>
     </g>
     <g id="line2d_32">
      <path d="M 45.117 17.28 
" style="fill:none;stroke:#000000;stroke-width:1.5;"/>
      <g>
       <use style="stroke:#000000;" x="45.117" xlink:href="#m32fd911d1a" y="17.28"/>
      </g>
     </g>
     <g id="text_12">
      <!-- 100 -->
      <g transform="translate(23.37 19.70825)scale(0.088 -0.088)">
       <use xlink:href="#DejaVuSans-49"/>
       <use x="63.623047" xlink:href="#DejaVuSans-48"/>
       <use x="127.246094" xlink:href="#DejaVuSans-48"/>
      </g>
     </g>
    </g>
    <g id="ytick_6">
     <g id="line2d_33">
      <path clip-path="url(#p6c0c0a4668)" d="M 45.117 193.68 
L 491.517 193.68 
" style="fill:none;stroke:#fafafa;"/>
     </g>
     <g id="line2d_34">
      <path d="M 45.117 193.68 
" style="fill:none;stroke:#000000;stroke-width:1.5;"/>
      <defs>
       <path d="M 0 0 
L -1.375 0 
" id="m0de4702b97" style="stroke:#000000;"/>
      </defs>
      <g>
       <use style="stroke:#000000;" x="45.117" xlink:href="#m0de4702b97" y="193.68"/>
      </g>
     </g>
    </g>
    <g id="ytick_7">
     <g id="line2d_35">
      <path clip-path="url(#p6c0c0a4668)" d="M 45.117 143.28 
L 491.517 143.28 
" style="fill:none;stroke:#fafafa;"/>
     </g>
     <g id="line2d_36">
      <path d="M 45.117 143.28 
" style="fill:none;stroke:#000000;stroke-width:1.5;"/>
      <g>
       <use style="stroke:#000000;" x="45.117" xlink:href="#m0de4702b97" y="143.28"/>
      </g>
     </g>
    </g>
    <g id="ytick_8">
     <g id="line2d_37">
      <path clip-path="url(#p6c0c0a4668)" d="M 45.117 92.88 
L 491.517 92.88 
" style="fill:none;stroke:#fafafa;"/>
     </g>
     <g id="line2d_38">
      <path d="M 45.117 92.88 
" style="fill:none;stroke:#000000;stroke-width:1.5;"/>
      <g>
       <use style="stroke:#000000;" x="45.117" xlink:href="#m0de4702b97" y="92.88"/>
      </g>
     </g>
    </g>
    <g id="ytick_9">
     <g id="line2d_39">
      <path clip-path="url(#p6c0c0a4668)" d="M 45.117 42.48 
L 491.517 42.48 
" style="fill:none;stroke:#fafafa;"/>
     </g>
     <g id="line2d_40">
      <path d="M 45.117 42.48 
" style="fill:none;stroke:#000000;stroke-width:1.5;"/>
      <g>
       <use style="stroke:#000000;" x="45.117" xlink:href="#m0de4702b97" y="42.48"/>
      </g>
     </g>
    </g>
    <g id="text_13">
     <!-- $P_{Q1p}$ [%] -->
     <defs>
      <path d="M 16.890625 72.90625 
L 39.703125 72.90625 
Q 49.65625 72.90625 54.875 68.265625 
Q 60.109375 63.625 60.109375 54.6875 
Q 60.109375 42.671875 52.390625 35.984375 
Q 44.671875 29.296875 30.71875 29.296875 
L 18.3125 29.296875 
L 12.59375 0 
L 2.6875 0 
z
M 25.203125 64.796875 
L 19.921875 37.40625 
L 32.328125 37.40625 
Q 40.71875 37.40625 45.203125 41.703125 
Q 49.703125 46 49.703125 54 
Q 49.703125 59.125 46.65625 61.953125 
Q 43.609375 64.796875 38.09375 64.796875 
z
" id="DejaVuSans-Oblique-80"/>
      <path d="M 36.078125 -1.3125 
Q 35.546875 -1.375 34.953125 -1.390625 
Q 34.375 -1.421875 33.203125 -1.421875 
Q 19.53125 -1.421875 11.8125 6.421875 
Q 4.109375 14.265625 4.109375 28.078125 
Q 4.109375 36.234375 7.0625 44.4375 
Q 10.015625 52.640625 15.28125 59.1875 
Q 21.390625 66.703125 29.03125 70.453125 
Q 36.671875 74.21875 45.90625 74.21875 
Q 59.28125 74.21875 66.984375 66.328125 
Q 74.703125 58.453125 74.703125 44.828125 
Q 74.703125 30.125 66.640625 17.921875 
Q 58.59375 5.71875 45.609375 0.6875 
L 55.515625 -12.890625 
L 44.484375 -12.890625 
z
M 45.609375 66.21875 
Q 37.5 66.21875 31.296875 62.28125 
Q 25.09375 58.34375 20.515625 50.296875 
Q 17.578125 45.171875 16.03125 39.40625 
Q 14.5 33.640625 14.5 27.78125 
Q 14.5 17.625 19.359375 12.109375 
Q 24.21875 6.59375 33.109375 6.59375 
Q 41.109375 6.59375 47.375 10.5625 
Q 53.65625 14.546875 58.109375 22.40625 
Q 61.078125 27.6875 62.640625 33.46875 
Q 64.203125 39.265625 64.203125 45.015625 
Q 64.203125 55.125 59.3125 60.671875 
Q 54.4375 66.21875 45.609375 66.21875 
z
" id="DejaVuSans-Oblique-81"/>
      <path d="M 49.609375 33.6875 
Q 49.609375 40.875 46.484375 44.671875 
Q 43.359375 48.484375 37.5 48.484375 
Q 33.5 48.484375 29.859375 46.4375 
Q 26.21875 44.390625 23.390625 40.484375 
Q 20.609375 36.625 18.9375 31.15625 
Q 17.28125 25.6875 17.28125 20.3125 
Q 17.28125 13.484375 20.40625 9.796875 
Q 23.53125 6.109375 29.296875 6.109375 
Q 33.546875 6.109375 37.1875 8.109375 
Q 40.828125 10.109375 43.40625 13.921875 
Q 46.1875 17.921875 47.890625 23.34375 
Q 49.609375 28.765625 49.609375 33.6875 
z
M 21.78125 46.390625 
Q 25.390625 51.125 30.296875 53.5625 
Q 35.203125 56 41.21875 56 
Q 49.609375 56 54.25 50.5 
Q 58.890625 45.015625 58.890625 35.109375 
Q 58.890625 27 56 19.65625 
Q 53.125 12.3125 47.703125 6.5 
Q 44.09375 2.640625 39.546875 0.609375 
Q 35.015625 -1.421875 29.984375 -1.421875 
Q 24.171875 -1.421875 20.21875 1 
Q 16.265625 3.421875 14.3125 8.203125 
L 8.6875 -20.796875 
L -0.296875 -20.796875 
L 14.40625 54.6875 
L 23.390625 54.6875 
z
" id="DejaVuSans-Oblique-112"/>
      <path id="DejaVuSans-32"/>
      <path d="M 8.59375 75.984375 
L 29.296875 75.984375 
L 29.296875 69 
L 17.578125 69 
L 17.578125 -6.203125 
L 29.296875 -6.203125 
L 29.296875 -13.1875 
L 8.59375 -13.1875 
z
" id="DejaVuSans-91"/>
      <path d="M 72.703125 32.078125 
Q 68.453125 32.078125 66.03125 28.46875 
Q 63.625 24.859375 63.625 18.40625 
Q 63.625 12.0625 66.03125 8.421875 
Q 68.453125 4.78125 72.703125 4.78125 
Q 76.859375 4.78125 79.265625 8.421875 
Q 81.6875 12.0625 81.6875 18.40625 
Q 81.6875 24.8125 79.265625 28.4375 
Q 76.859375 32.078125 72.703125 32.078125 
z
M 72.703125 38.28125 
Q 80.421875 38.28125 84.953125 32.90625 
Q 89.5 27.546875 89.5 18.40625 
Q 89.5 9.28125 84.9375 3.921875 
Q 80.375 -1.421875 72.703125 -1.421875 
Q 64.890625 -1.421875 60.34375 3.921875 
Q 55.8125 9.28125 55.8125 18.40625 
Q 55.8125 27.59375 60.375 32.9375 
Q 64.9375 38.28125 72.703125 38.28125 
z
M 22.3125 68.015625 
Q 18.109375 68.015625 15.6875 64.375 
Q 13.28125 60.75 13.28125 54.390625 
Q 13.28125 47.953125 15.671875 44.328125 
Q 18.0625 40.71875 22.3125 40.71875 
Q 26.5625 40.71875 28.96875 44.328125 
Q 31.390625 47.953125 31.390625 54.390625 
Q 31.390625 60.6875 28.953125 64.34375 
Q 26.515625 68.015625 22.3125 68.015625 
z
M 66.40625 74.21875 
L 74.21875 74.21875 
L 28.609375 -1.421875 
L 20.796875 -1.421875 
z
M 22.3125 74.21875 
Q 30.03125 74.21875 34.609375 68.875 
Q 39.203125 63.53125 39.203125 54.390625 
Q 39.203125 45.171875 34.640625 39.84375 
Q 30.078125 34.515625 22.3125 34.515625 
Q 14.546875 34.515625 10.03125 39.859375 
Q 5.515625 45.21875 5.515625 54.390625 
Q 5.515625 63.484375 10.046875 68.84375 
Q 14.59375 74.21875 22.3125 74.21875 
z
" id="DejaVuSans-37"/>
      <path d="M 30.421875 75.984375 
L 30.421875 -13.1875 
L 9.71875 -13.1875 
L 9.71875 -6.203125 
L 21.390625 -6.203125 
L 21.390625 69 
L 9.71875 69 
L 9.71875 75.984375 
z
" id="DejaVuSans-93"/>
     </defs>
     <g transform="translate(15.56 139.3)rotate(-90)scale(0.11 -0.11)">
      <use transform="translate(0 0.015625)" xlink:href="#DejaVuSans-Oblique-80"/>
      <use transform="translate(60.302734 -16.390625)scale(0.7)" xlink:href="#DejaVuSans-Oblique-81"/>
      <use transform="translate(115.400391 -16.390625)scale(0.7)" xlink:href="#DejaVuSans-49"/>
      <use transform="translate(159.936523 -16.390625)scale(0.7)" xlink:href="#DejaVuSans-Oblique-112"/>
      <use transform="translate(207.104492 0.015625)" xlink:href="#DejaVuSans-32"/>
      <use transform="translate(238.891602 0.015625)" xlink:href="#DejaVuSans-91"/>
      <use transform="translate(277.905273 0.015625)" xlink:href="#DejaVuSans-37"/>
      <use transform="translate(372.924805 0.015625)" xlink:href="#DejaVuSans-93"/>
     </g>
    </g>
   </g>
   <g id="PathCollection_1">
    <path clip-path="url(#p6c0c0a4668)" d="M 252.084273 45.234008 
C 252.554333 45.234008 253.005204 45.047251 253.337587 44.714868 
C 253.66997 44.382485 253.856727 43.931614 253.856727 43.461554 
C 253.856727 42.991494 253.66997 42.540622 253.337587 42.20824 
C 253.005204 41.875857 252.554333 41.6891 252.084273 41.6891 
C 251.614212 41.6891 251.163341 41.875857 250.830959 42.20824 
C 250.498576 42.540622 250.311819 42.991494 250.311819 43.461554 
C 250.311819 43.931614 250.498576 44.382485 250.830959 44.714868 
C 251.163341 45.047251 251.614212 45.234008 252.084273 45.234008 
z
" style="stroke:#000000;stroke-width:0.886227;"/>
    <path clip-path="url(#p6c0c0a4668)" d="M 260.200636 133.182859 
C 260.670697 133.182859 261.121568 132.996102 261.453951 132.663719 
C 261.786333 132.331336 261.97309 131.880465 261.97309 131.410405 
C 261.97309 130.940344 261.786333 130.489473 261.453951 130.157091 
C 261.121568 129.824708 260.670697 129.637951 260.200636 129.637951 
C 259.730576 129.637951 259.279705 129.824708 258.947322 130.157091 
C 258.614939 130.489473 258.428183 130.940344 258.428183 131.410405 
C 258.428183 131.880465 258.614939 132.331336 258.947322 132.663719 
C 259.279705 132.996102 259.730576 133.182859 260.200636 133.182859 
z
" style="stroke:#000000;stroke-width:0.886227;"/>
    <path clip-path="url(#p6c0c0a4668)" d="M 268.317 133.067162 
C 268.78706 133.067162 269.237931 132.880405 269.570314 132.548022 
C 269.902697 132.21564 270.089454 131.764769 270.089454 131.294708 
C 270.089454 130.824648 269.902697 130.373777 269.570314 130.041394 
C 269.237931 129.709011 268.78706 129.522254 268.317 129.522254 
C 267.84694 129.522254 267.396069 129.709011 267.063686 130.041394 
C 266.731303 130.373777 266.544546 130.824648 266.544546 131.294708 
C 266.544546 131.764769 266.731303 132.21564 267.063686 132.548022 
C 267.396069 132.880405 267.84694 133.067162 268.317 133.067162 
z
" style="stroke:#000000;stroke-width:0.886227;"/>
    <path clip-path="url(#p6c0c0a4668)" d="M 276.433364 143.116402 
C 276.903424 143.116402 277.354295 142.929645 277.686678 142.597263 
C 278.019061 142.26488 278.205817 141.814009 278.205817 141.343948 
C 278.205817 140.873888 278.019061 140.423017 277.686678 140.090634 
C 277.354295 139.758251 276.903424 139.571495 276.433364 139.571495 
C 275.963303 139.571495 275.512432 139.758251 275.180049 140.090634 
C 274.847667 140.423017 274.66091 140.873888 274.66091 141.343948 
C 274.66091 141.814009 274.847667 142.26488 275.180049 142.597263 
C 275.512432 142.929645 275.963303 143.116402 276.433364 143.116402 
z
" style="stroke:#000000;stroke-width:0.886227;"/>
    <path clip-path="url(#p6c0c0a4668)" d="M 284.549727 147.745013 
C 285.019788 147.745013 285.470659 147.558256 285.803041 147.225873 
C 286.135424 146.893491 286.322181 146.442619 286.322181 145.972559 
C 286.322181 145.502499 286.135424 145.051628 285.803041 144.719245 
C 285.470659 144.386862 285.019788 144.200105 284.549727 144.200105 
C 284.079667 144.200105 283.628796 144.386862 283.296413 144.719245 
C 282.96403 145.051628 282.777273 145.502499 282.777273 145.972559 
C 282.777273 146.442619 282.96403 146.893491 283.296413 147.225873 
C 283.628796 147.558256 284.079667 147.745013 284.549727 147.745013 
z
" style="stroke:#000000;stroke-width:0.886227;"/>
    <path clip-path="url(#p6c0c0a4668)" d="M 292.666091 136.667698 
C 293.136151 136.667698 293.587022 136.480941 293.919405 136.148558 
C 294.251788 135.816176 294.438545 135.365305 294.438545 134.895244 
C 294.438545 134.425184 294.251788 133.974313 293.919405 133.64193 
C 293.587022 133.309547 293.136151 133.12279 292.666091 133.12279 
C 292.196031 133.12279 291.74516 133.309547 291.412777 133.64193 
C 291.080394 133.974313 290.893637 134.425184 290.893637 134.895244 
C 290.893637 135.365305 291.080394 135.816176 291.412777 136.148558 
C 291.74516 136.480941 292.196031 136.667698 292.666091 136.667698 
z
" style="stroke:#000000;stroke-width:0.886227;"/>
    <path clip-path="url(#p6c0c0a4668)" d="M 300.782455 142.307893 
C 301.252515 142.307893 301.703386 142.121136 302.035769 141.788753 
C 302.368151 141.456371 302.554908 141.0055 302.554908 140.535439 
C 302.554908 140.065379 302.368151 139.614508 302.035769 139.282125 
C 301.703386 138.949742 301.252515 138.762985 300.782455 138.762985 
C 300.312394 138.762985 299.861523 138.949742 299.52914 139.282125 
C 299.196758 139.614508 299.010001 140.065379 299.010001 140.535439 
C 299.010001 141.0055 299.196758 141.456371 299.52914 141.788753 
C 299.861523 142.121136 300.312394 142.307893 300.782455 142.307893 
z
" style="stroke:#000000;stroke-width:0.886227;"/>
    <path clip-path="url(#p6c0c0a4668)" d="M 308.898818 149.181923 
C 309.368878 149.181923 309.81975 148.995166 310.152132 148.662784 
C 310.484515 148.330401 310.671272 147.87953 310.671272 147.409469 
C 310.671272 146.939409 310.484515 146.488538 310.152132 146.156155 
C 309.81975 145.823772 309.368878 145.637016 308.898818 145.637016 
C 308.428758 145.637016 307.977887 145.823772 307.645504 146.156155 
C 307.313121 146.488538 307.126364 146.939409 307.126364 147.409469 
C 307.126364 147.87953 307.313121 148.330401 307.645504 148.662784 
C 307.977887 148.995166 308.428758 149.181923 308.898818 149.181923 
z
" style="stroke:#000000;stroke-width:0.886227;"/>
    <path clip-path="url(#p6c0c0a4668)" d="M 317.015182 146.360283 
C 317.485242 146.360283 317.936113 146.173526 318.268496 145.841143 
C 318.600879 145.50876 318.787636 145.057889 318.787636 144.587829 
C 318.787636 144.117769 318.600879 143.666898 318.268496 143.334515 
C 317.936113 143.002132 317.485242 142.815375 317.015182 142.815375 
C 316.545122 142.815375 316.09425 143.002132 315.761868 143.334515 
C 315.429485 143.666898 315.242728 144.117769 315.242728 144.587829 
C 315.242728 145.057889 315.429485 145.50876 315.761868 145.841143 
C 316.09425 146.173526 316.545122 146.360283 317.015182 146.360283 
z
" style="stroke:#000000;stroke-width:0.886227;"/>
    <path clip-path="url(#p6c0c0a4668)" d="M 325.131545 143.613656 
C 325.601606 143.613656 326.052477 143.426899 326.38486 143.094516 
C 326.717242 142.762134 326.903999 142.311263 326.903999 141.841202 
C 326.903999 141.371142 326.717242 140.920271 326.38486 140.587888 
C 326.052477 140.255505 325.601606 140.068748 325.131545 140.068748 
C 324.661485 140.068748 324.210614 140.255505 323.878231 140.587888 
C 323.545849 140.920271 323.359092 141.371142 323.359092 141.841202 
C 323.359092 142.311263 323.545849 142.762134 323.878231 143.094516 
C 324.210614 143.426899 324.661485 143.613656 325.131545 143.613656 
z
" style="stroke:#000000;stroke-width:0.886227;"/>
    <path clip-path="url(#p6c0c0a4668)" d="M 333.247909 143.243461 
C 333.717969 143.243461 334.16884 143.056704 334.501223 142.724322 
C 334.833606 142.391939 335.020363 141.941068 335.020363 141.471008 
C 335.020363 141.000947 334.833606 140.550076 334.501223 140.217693 
C 334.16884 139.885311 333.717969 139.698554 333.247909 139.698554 
C 332.777849 139.698554 332.326978 139.885311 331.994595 140.217693 
C 331.662212 140.550076 331.475455 141.000947 331.475455 141.471008 
C 331.475455 141.941068 331.662212 142.391939 331.994595 142.724322 
C 332.326978 143.056704 332.777849 143.243461 333.247909 143.243461 
z
" style="stroke:#000000;stroke-width:0.886227;"/>
    <path clip-path="url(#p6c0c0a4668)" d="M 341.364273 142.276061 
C 341.834333 142.276061 342.285204 142.089304 342.617587 141.756921 
C 342.94997 141.424539 343.136727 140.973668 343.136727 140.503607 
C 343.136727 140.033547 342.94997 139.582676 342.617587 139.250293 
C 342.285204 138.91791 341.834333 138.731153 341.364273 138.731153 
C 340.894212 138.731153 340.443341 138.91791 340.110959 139.250293 
C 339.778576 139.582676 339.591819 140.033547 339.591819 140.503607 
C 339.591819 140.973668 339.778576 141.424539 340.110959 141.756921 
C 340.443341 142.089304 340.894212 142.276061 341.364273 142.276061 
z
" style="stroke:#000000;stroke-width:0.886227;"/>
    <path clip-path="url(#p6c0c0a4668)" d="M 349.480636 142.37925 
C 349.950697 142.37925 350.401568 142.192493 350.733951 141.86011 
C 351.066333 141.527727 351.25309 141.076856 351.25309 140.606796 
C 351.25309 140.136736 351.066333 139.685864 350.733951 139.353482 
C 350.401568 139.021099 349.950697 138.834342 349.480636 138.834342 
C 349.010576 138.834342 348.559705 139.021099 348.227322 139.353482 
C 347.894939 139.685864 347.708183 140.136736 347.708183 140.606796 
C 347.708183 141.076856 347.894939 141.527727 348.227322 141.86011 
C 348.559705 142.192493 349.010576 142.37925 349.480636 142.37925 
z
" style="stroke:#000000;stroke-width:0.886227;"/>
    <path clip-path="url(#p6c0c0a4668)" d="M 357.597 141.412898 
C 358.06706 141.412898 358.517931 141.226141 358.850314 140.893758 
C 359.182697 140.561376 359.369454 140.110505 359.369454 139.640444 
C 359.369454 139.170384 359.182697 138.719513 358.850314 138.38713 
C 358.517931 138.054747 358.06706 137.86799 357.597 137.86799 
C 357.12694 137.86799 356.676069 138.054747 356.343686 138.38713 
C 356.011303 138.719513 355.824546 139.170384 355.824546 139.640444 
C 355.824546 140.110505 356.011303 140.561376 356.343686 140.893758 
C 356.676069 141.226141 357.12694 141.412898 357.597 141.412898 
z
" style="stroke:#000000;stroke-width:0.886227;"/>
    <path clip-path="url(#p6c0c0a4668)" d="M 365.713364 138.595542 
C 366.183424 138.595542 366.634295 138.408785 366.966678 138.076402 
C 367.299061 137.74402 367.485817 137.293148 367.485817 136.823088 
C 367.485817 136.353028 367.299061 135.902157 366.966678 135.569774 
C 366.634295 135.237391 366.183424 135.050634 365.713364 135.050634 
C 365.243303 135.050634 364.792432 135.237391 364.460049 135.569774 
C 364.127667 135.902157 363.94091 136.353028 363.94091 136.823088 
C 363.94091 137.293148 364.127667 137.74402 364.460049 138.076402 
C 364.792432 138.408785 365.243303 138.595542 365.713364 138.595542 
z
" style="stroke:#000000;stroke-width:0.886227;"/>
    <path clip-path="url(#p6c0c0a4668)" d="M 373.829727 139.859266 
C 374.299788 139.859266 374.750659 139.672509 375.083041 139.340127 
C 375.415424 139.007744 375.602181 138.556873 375.602181 138.086812 
C 375.602181 137.616752 375.415424 137.165881 375.083041 136.833498 
C 374.750659 136.501116 374.299788 136.314359 373.829727 136.314359 
C 373.359667 136.314359 372.908796 136.501116 372.576413 136.833498 
C 372.24403 137.165881 372.057273 137.616752 372.057273 138.086812 
C 372.057273 138.556873 372.24403 139.007744 372.576413 139.340127 
C 372.908796 139.672509 373.359667 139.859266 373.829727 139.859266 
z
" style="stroke:#000000;stroke-width:0.886227;"/>
    <path clip-path="url(#p6c0c0a4668)" d="M 381.946091 136.916223 
C 382.416151 136.916223 382.867022 136.729466 383.199405 136.397083 
C 383.531788 136.0647 383.718545 135.613829 383.718545 135.143769 
C 383.718545 134.673709 383.531788 134.222838 383.199405 133.890455 
C 382.867022 133.558072 382.416151 133.371315 381.946091 133.371315 
C 381.476031 133.371315 381.02516 133.558072 380.692777 133.890455 
C 380.360394 134.222838 380.173637 134.673709 380.173637 135.143769 
C 380.173637 135.613829 380.360394 136.0647 380.692777 136.397083 
C 381.02516 136.729466 381.476031 136.916223 381.946091 136.916223 
z
" style="stroke:#000000;stroke-width:0.886227;"/>
    <path clip-path="url(#p6c0c0a4668)" d="M 390.062455 128.068239 
C 390.532515 128.068239 390.983386 127.881482 391.315769 127.549099 
C 391.648151 127.216716 391.834908 126.765845 391.834908 126.295785 
C 391.834908 125.825725 391.648151 125.374854 391.315769 125.042471 
C 390.983386 124.710088 390.532515 124.523331 390.062455 124.523331 
C 389.592394 124.523331 389.141523 124.710088 388.80914 125.042471 
C 388.476758 125.374854 388.290001 125.825725 388.290001 126.295785 
C 388.290001 126.765845 388.476758 127.216716 388.80914 127.549099 
C 389.141523 127.881482 389.592394 128.068239 390.062455 128.068239 
z
" style="stroke:#000000;stroke-width:0.886227;"/>
    <path clip-path="url(#p6c0c0a4668)" d="M 398.178818 123.750513 
C 398.648878 123.750513 399.09975 123.563756 399.432132 123.231373 
C 399.764515 122.89899 399.951272 122.448119 399.951272 121.978059 
C 399.951272 121.507999 399.764515 121.057128 399.432132 120.724745 
C 399.09975 120.392362 398.648878 120.205605 398.178818 120.205605 
C 397.708758 120.205605 397.257887 120.392362 396.925504 120.724745 
C 396.593121 121.057128 396.406364 121.507999 396.406364 121.978059 
C 396.406364 122.448119 396.593121 122.89899 396.925504 123.231373 
C 397.257887 123.563756 397.708758 123.750513 398.178818 123.750513 
z
" style="stroke:#000000;stroke-width:0.886227;"/>
    <path clip-path="url(#p6c0c0a4668)" d="M 406.295182 118.88321 
C 406.765242 118.88321 407.216113 118.696453 407.548496 118.36407 
C 407.880879 118.031687 408.067636 117.580816 408.067636 117.110756 
C 408.067636 116.640696 407.880879 116.189825 407.548496 115.857442 
C 407.216113 115.525059 406.765242 115.338302 406.295182 115.338302 
C 405.825122 115.338302 405.37425 115.525059 405.041868 115.857442 
C 404.709485 116.189825 404.522728 116.640696 404.522728 117.110756 
C 404.522728 117.580816 404.709485 118.031687 405.041868 118.36407 
C 405.37425 118.696453 405.825122 118.88321 406.295182 118.88321 
z
" style="stroke:#000000;stroke-width:0.886227;"/>
    <path clip-path="url(#p6c0c0a4668)" d="M 414.411545 112.676978 
C 414.881606 112.676978 415.332477 112.490222 415.66486 112.157839 
C 415.997242 111.825456 416.183999 111.374585 416.183999 110.904525 
C 416.183999 110.434464 415.997242 109.983593 415.66486 109.65121 
C 415.332477 109.318828 414.881606 109.132071 414.411545 109.132071 
C 413.941485 109.132071 413.490614 109.318828 413.158231 109.65121 
C 412.825849 109.983593 412.639092 110.434464 412.639092 110.904525 
C 412.639092 111.374585 412.825849 111.825456 413.158231 112.157839 
C 413.490614 112.490222 413.941485 112.676978 414.411545 112.676978 
z
" style="stroke:#000000;stroke-width:0.886227;"/>
    <path clip-path="url(#p6c0c0a4668)" d="M 422.527909 106.678799 
C 422.997969 106.678799 423.44884 106.492042 423.781223 106.159659 
C 424.113606 105.827277 424.300363 105.376406 424.300363 104.906345 
C 424.300363 104.436285 424.113606 103.985414 423.781223 103.653031 
C 423.44884 103.320648 422.997969 103.133891 422.527909 103.133891 
C 422.057849 103.133891 421.606978 103.320648 421.274595 103.653031 
C 420.942212 103.985414 420.755455 104.436285 420.755455 104.906345 
C 420.755455 105.376406 420.942212 105.827277 421.274595 106.159659 
C 421.606978 106.492042 422.057849 106.678799 422.527909 106.678799 
z
" style="stroke:#000000;stroke-width:0.886227;"/>
    <path clip-path="url(#p6c0c0a4668)" d="M 430.644273 103.433444 
C 431.114333 103.433444 431.565204 103.246687 431.897587 102.914304 
C 432.22997 102.581921 432.416727 102.13105 432.416727 101.66099 
C 432.416727 101.19093 432.22997 100.740059 431.897587 100.407676 
C 431.565204 100.075293 431.114333 99.888536 430.644273 99.888536 
C 430.174212 99.888536 429.723341 100.075293 429.390959 100.407676 
C 429.058576 100.740059 428.871819 101.19093 428.871819 101.66099 
C 428.871819 102.13105 429.058576 102.581921 429.390959 102.914304 
C 429.723341 103.246687 430.174212 103.433444 430.644273 103.433444 
z
" style="stroke:#000000;stroke-width:0.886227;"/>
    <path clip-path="url(#p6c0c0a4668)" d="M 438.760636 97.032978 
C 439.230697 97.032978 439.681568 96.846221 440.013951 96.513838 
C 440.346333 96.181455 440.53309 95.730584 440.53309 95.260524 
C 440.53309 94.790464 440.346333 94.339592 440.013951 94.00721 
C 439.681568 93.674827 439.230697 93.48807 438.760636 93.48807 
C 438.290576 93.48807 437.839705 93.674827 437.507322 94.00721 
C 437.174939 94.339592 436.988183 94.790464 436.988183 95.260524 
C 436.988183 95.730584 437.174939 96.181455 437.507322 96.513838 
C 437.839705 96.846221 438.290576 97.032978 438.760636 97.032978 
z
" style="stroke:#000000;stroke-width:0.886227;"/>
    <path clip-path="url(#p6c0c0a4668)" d="M 446.877 101.687937 
C 447.34706 101.687937 447.797931 101.50118 448.130314 101.168797 
C 448.462697 100.836415 448.649454 100.385544 448.649454 99.915483 
C 448.649454 99.445423 448.462697 98.994552 448.130314 98.662169 
C 447.797931 98.329786 447.34706 98.143029 446.877 98.143029 
C 446.40694 98.143029 445.956069 98.329786 445.623686 98.662169 
C 445.291303 98.994552 445.104546 99.445423 445.104546 99.915483 
C 445.104546 100.385544 445.291303 100.836415 445.623686 101.168797 
C 445.956069 101.50118 446.40694 101.687937 446.877 101.687937 
z
" style="stroke:#000000;stroke-width:0.886227;"/>
    <path clip-path="url(#p6c0c0a4668)" d="M 454.993364 103.898993 
C 455.463424 103.898993 455.914295 103.712236 456.246678 103.379853 
C 456.579061 103.04747 456.765817 102.596599 456.765817 102.126539 
C 456.765817 101.656478 456.579061 101.205607 456.246678 100.873225 
C 455.914295 100.540842 455.463424 100.354085 454.993364 100.354085 
C 454.523303 100.354085 454.072432 100.540842 453.740049 100.873225 
C 453.407667 101.205607 453.22091 101.656478 453.22091 102.126539 
C 453.22091 102.596599 453.407667 103.04747 453.740049 103.379853 
C 454.072432 103.712236 454.523303 103.898993 454.993364 103.898993 
z
" style="stroke:#000000;stroke-width:0.886227;"/>
    <path clip-path="url(#p6c0c0a4668)" d="M 463.109727 103.442242 
C 463.579788 103.442242 464.030659 103.255485 464.363041 102.923102 
C 464.695424 102.590719 464.882181 102.139848 464.882181 101.669788 
C 464.882181 101.199728 464.695424 100.748857 464.363041 100.416474 
C 464.030659 100.084091 463.579788 99.897334 463.109727 99.897334 
C 462.639667 99.897334 462.188796 100.084091 461.856413 100.416474 
C 461.52403 100.748857 461.337273 101.199728 461.337273 101.669788 
C 461.337273 102.139848 461.52403 102.590719 461.856413 102.923102 
C 462.188796 103.255485 462.639667 103.442242 463.109727 103.442242 
z
" style="stroke:#000000;stroke-width:0.886227;"/>
   </g>
   <g id="line2d_41">
    <path clip-path="url(#p6c0c0a4668)" d="M 252.084273 43.461554 
L 260.200636 131.410405 
L 268.317 131.294708 
L 276.433364 141.343948 
L 284.549727 145.972559 
L 292.666091 134.895244 
L 300.782455 140.535439 
L 308.898818 147.409469 
L 317.015182 144.587829 
L 325.131545 141.841202 
L 333.247909 141.471008 
L 341.364273 140.503607 
L 349.480636 140.606796 
L 357.597 139.640444 
L 365.713364 136.823088 
L 373.829727 138.086812 
L 381.946091 135.143769 
L 390.062455 126.295785 
L 398.178818 121.978059 
L 406.295182 117.110756 
L 414.411545 110.904525 
L 422.527909 104.906345 
L 430.644273 101.66099 
L 438.760636 95.260524 
L 446.877 99.915483 
L 454.993364 102.126539 
L 463.109727 101.669788 
" style="fill:none;stroke:#000000;stroke-width:0.886227;"/>
   </g>
  </g>
 </g>
 <defs>
  <clipPath id="p6c0c0a4668">
   <rect height="221.76" width="446.4" x="45.117" y="7.2"/>
  </clipPath>
 </defs>
</svg>
