<?xml version="1.0" encoding="utf-8" standalone="no"?>
<!DOCTYPE svg PUBLIC "-//W3C//DTD SVG 1.1//EN"
  "http://www.w3.org/Graphics/SVG/1.1/DTD/svg11.dtd">
<!-- Created with matplotlib (https://matplotlib.org/) -->
<svg height="264.672687pt" version="1.1" viewBox="0 0 498.717 264.672687" width="498.717pt" xmlns="http://www.w3.org/2000/svg" xmlns:xlink="http://www.w3.org/1999/xlink">
 <defs>
  <style type="text/css">
*{stroke-linecap:butt;stroke-linejoin:round;}
  </style>
 </defs>
 <g id="figure_1">
  <g id="patch_1">
   <path d="M 0 264.672687 
L 498.717 264.672687 
L 498.717 0 
L 0 0 
z
" style="fill:#ffffff;stroke:#ffffff;stroke-linejoin:miter;"/>
  </g>
  <g id="axes_1">
   <g id="patch_2">
    <path d="M 45.117 228.96 
L 491.517 228.96 
L 491.517 7.2 
L 45.117 7.2 
z
" style="fill:#ffffff;stroke:#7f7f7f;stroke-linejoin:miter;"/>
   </g>
   <g id="matplotlib.axis_1">
    <g id="xtick_1">
     <g id="line2d_1">
      <path clip-path="url(#p04c51da2c7)" d="M 65.407909 228.96 
L 65.407909 7.2 
" style="fill:none;stroke:#e5e5e5;stroke-width:0.8;"/>
     </g>
     <g id="line2d_2">
      <path d="M 65.407909 228.96 
" style="fill:none;stroke:#000000;stroke-width:1.5;"/>
      <defs>
       <path d="M 0 0 
L 0 2.75 
" id="mee0b4b069b" style="stroke:#000000;"/>
      </defs>
      <g>
       <use style="stroke:#000000;" x="65.407909" xlink:href="#mee0b4b069b" y="228.96"/>
      </g>
     </g>
     <g id="text_1">
      <!-- 1 -->
      <defs>
       <path d="M 12.40625 8.296875 
L 28.515625 8.296875 
L 28.515625 63.921875 
L 10.984375 60.40625 
L 10.984375 69.390625 
L 28.421875 72.90625 
L 38.28125 72.90625 
L 38.28125 8.296875 
L 54.390625 8.296875 
L 54.390625 0 
L 12.40625 0 
z
" id="DejaVuSans-49"/>
      </defs>
      <g transform="translate(62.608409 240.596625)scale(0.088 -0.088)">
       <use xlink:href="#DejaVuSans-49"/>
      </g>
     </g>
    </g>
    <g id="xtick_2">
     <g id="line2d_3">
      <path clip-path="url(#p04c51da2c7)" d="M 200.680636 228.96 
L 200.680636 7.2 
" style="fill:none;stroke:#e5e5e5;stroke-width:0.8;"/>
     </g>
     <g id="line2d_4">
      <path d="M 200.680636 228.96 
" style="fill:none;stroke:#000000;stroke-width:1.5;"/>
      <g>
       <use style="stroke:#000000;" x="200.680636" xlink:href="#mee0b4b069b" y="228.96"/>
      </g>
     </g>
     <g id="text_2">
      <!-- 2 -->
      <defs>
       <path d="M 19.1875 8.296875 
L 53.609375 8.296875 
L 53.609375 0 
L 7.328125 0 
L 7.328125 8.296875 
Q 12.9375 14.109375 22.625 23.890625 
Q 32.328125 33.6875 34.8125 36.53125 
Q 39.546875 41.84375 41.421875 45.53125 
Q 43.3125 49.21875 43.3125 52.78125 
Q 43.3125 58.59375 39.234375 62.25 
Q 35.15625 65.921875 28.609375 65.921875 
Q 23.96875 65.921875 18.8125 64.3125 
Q 13.671875 62.703125 7.8125 59.421875 
L 7.8125 69.390625 
Q 13.765625 71.78125 18.9375 73 
Q 24.125 74.21875 28.421875 74.21875 
Q 39.75 74.21875 46.484375 68.546875 
Q 53.21875 62.890625 53.21875 53.421875 
Q 53.21875 48.921875 51.53125 44.890625 
Q 49.859375 40.875 45.40625 35.40625 
Q 44.1875 33.984375 37.640625 27.21875 
Q 31.109375 20.453125 19.1875 8.296875 
z
" id="DejaVuSans-50"/>
      </defs>
      <g transform="translate(197.881136 240.596625)scale(0.088 -0.088)">
       <use xlink:href="#DejaVuSans-50"/>
      </g>
     </g>
    </g>
    <g id="xtick_3">
     <g id="line2d_5">
      <path clip-path="url(#p04c51da2c7)" d="M 335.953364 228.96 
L 335.953364 7.2 
" style="fill:none;stroke:#e5e5e5;stroke-width:0.8;"/>
     </g>
     <g id="line2d_6">
      <path d="M 335.953364 228.96 
" style="fill:none;stroke:#000000;stroke-width:1.5;"/>
      <g>
       <use style="stroke:#000000;" x="335.953364" xlink:href="#mee0b4b069b" y="228.96"/>
      </g>
     </g>
     <g id="text_3">
      <!-- 3 -->
      <defs>
       <path d="M 40.578125 39.3125 
Q 47.65625 37.796875 51.625 33 
Q 55.609375 28.21875 55.609375 21.1875 
Q 55.609375 10.40625 48.1875 4.484375 
Q 40.765625 -1.421875 27.09375 -1.421875 
Q 22.515625 -1.421875 17.65625 -0.515625 
Q 12.796875 0.390625 7.625 2.203125 
L 7.625 11.71875 
Q 11.71875 9.328125 16.59375 8.109375 
Q 21.484375 6.890625 26.8125 6.890625 
Q 36.078125 6.890625 40.9375 10.546875 
Q 45.796875 14.203125 45.796875 21.1875 
Q 45.796875 27.640625 41.28125 31.265625 
Q 36.765625 34.90625 28.71875 34.90625 
L 20.21875 34.90625 
L 20.21875 43.015625 
L 29.109375 43.015625 
Q 36.375 43.015625 40.234375 45.921875 
Q 44.09375 48.828125 44.09375 54.296875 
Q 44.09375 59.90625 40.109375 62.90625 
Q 36.140625 65.921875 28.71875 65.921875 
Q 24.65625 65.921875 20.015625 65.03125 
Q 15.375 64.15625 9.8125 62.3125 
L 9.8125 71.09375 
Q 15.4375 72.65625 20.34375 73.4375 
Q 25.25 74.21875 29.59375 74.21875 
Q 40.828125 74.21875 47.359375 69.109375 
Q 53.90625 64.015625 53.90625 55.328125 
Q 53.90625 49.265625 50.4375 45.09375 
Q 46.96875 40.921875 40.578125 39.3125 
z
" id="DejaVuSans-51"/>
      </defs>
      <g transform="translate(333.153864 240.596625)scale(0.088 -0.088)">
       <use xlink:href="#DejaVuSans-51"/>
      </g>
     </g>
    </g>
    <g id="xtick_4">
     <g id="line2d_7">
      <path clip-path="url(#p04c51da2c7)" d="M 471.226091 228.96 
L 471.226091 7.2 
" style="fill:none;stroke:#e5e5e5;stroke-width:0.8;"/>
     </g>
     <g id="line2d_8">
      <path d="M 471.226091 228.96 
" style="fill:none;stroke:#000000;stroke-width:1.5;"/>
      <g>
       <use style="stroke:#000000;" x="471.226091" xlink:href="#mee0b4b069b" y="228.96"/>
      </g>
     </g>
     <g id="text_4">
      <!-- 4 -->
      <defs>
       <path d="M 37.796875 64.3125 
L 12.890625 25.390625 
L 37.796875 25.390625 
z
M 35.203125 72.90625 
L 47.609375 72.90625 
L 47.609375 25.390625 
L 58.015625 25.390625 
L 58.015625 17.1875 
L 47.609375 17.1875 
L 47.609375 0 
L 37.796875 0 
L 37.796875 17.1875 
L 4.890625 17.1875 
L 4.890625 26.703125 
z
" id="DejaVuSans-52"/>
      </defs>
      <g transform="translate(468.426591 240.596625)scale(0.088 -0.088)">
       <use xlink:href="#DejaVuSans-52"/>
      </g>
     </g>
    </g>
    <g id="xtick_5">
     <g id="line2d_9">
      <path clip-path="url(#p04c51da2c7)" d="M 133.044273 228.96 
L 133.044273 7.2 
" style="fill:none;stroke:#fafafa;"/>
     </g>
     <g id="line2d_10">
      <path d="M 133.044273 228.96 
" style="fill:none;stroke:#000000;stroke-width:1.5;"/>
      <defs>
       <path d="M 0 0 
L 0 1.375 
" id="m3eaa04699f" style="stroke:#000000;"/>
      </defs>
      <g>
       <use style="stroke:#000000;" x="133.044273" xlink:href="#m3eaa04699f" y="228.96"/>
      </g>
     </g>
    </g>
    <g id="xtick_6">
     <g id="line2d_11">
      <path clip-path="url(#p04c51da2c7)" d="M 268.317 228.96 
L 268.317 7.2 
" style="fill:none;stroke:#fafafa;"/>
     </g>
     <g id="line2d_12">
      <path d="M 268.317 228.96 
" style="fill:none;stroke:#000000;stroke-width:1.5;"/>
      <g>
       <use style="stroke:#000000;" x="268.317" xlink:href="#m3eaa04699f" y="228.96"/>
      </g>
     </g>
    </g>
    <g id="xtick_7">
     <g id="line2d_13">
      <path clip-path="url(#p04c51da2c7)" d="M 403.589727 228.96 
L 403.589727 7.2 
" style="fill:none;stroke:#fafafa;"/>
     </g>
     <g id="line2d_14">
      <path d="M 403.589727 228.96 
" style="fill:none;stroke:#000000;stroke-width:1.5;"/>
      <g>
       <use style="stroke:#000000;" x="403.589727" xlink:href="#m3eaa04699f" y="228.96"/>
      </g>
     </g>
    </g>
    <g id="text_5">
     <!-- Resolution -->
     <defs>
      <path d="M 44.390625 34.1875 
Q 47.5625 33.109375 50.5625 29.59375 
Q 53.5625 26.078125 56.59375 19.921875 
L 66.609375 0 
L 56 0 
L 46.6875 18.703125 
Q 43.0625 26.03125 39.671875 28.421875 
Q 36.28125 30.8125 30.421875 30.8125 
L 19.671875 30.8125 
L 19.671875 0 
L 9.8125 0 
L 9.8125 72.90625 
L 32.078125 72.90625 
Q 44.578125 72.90625 50.734375 67.671875 
Q 56.890625 62.453125 56.890625 51.90625 
Q 56.890625 45.015625 53.6875 40.46875 
Q 50.484375 35.9375 44.390625 34.1875 
z
M 19.671875 64.796875 
L 19.671875 38.921875 
L 32.078125 38.921875 
Q 39.203125 38.921875 42.84375 42.21875 
Q 46.484375 45.515625 46.484375 51.90625 
Q 46.484375 58.296875 42.84375 61.546875 
Q 39.203125 64.796875 32.078125 64.796875 
z
" id="DejaVuSans-82"/>
      <path d="M 56.203125 29.59375 
L 56.203125 25.203125 
L 14.890625 25.203125 
Q 15.484375 15.921875 20.484375 11.0625 
Q 25.484375 6.203125 34.421875 6.203125 
Q 39.59375 6.203125 44.453125 7.46875 
Q 49.3125 8.734375 54.109375 11.28125 
L 54.109375 2.78125 
Q 49.265625 0.734375 44.1875 -0.34375 
Q 39.109375 -1.421875 33.890625 -1.421875 
Q 20.796875 -1.421875 13.15625 6.1875 
Q 5.515625 13.8125 5.515625 26.8125 
Q 5.515625 40.234375 12.765625 48.109375 
Q 20.015625 56 32.328125 56 
Q 43.359375 56 49.78125 48.890625 
Q 56.203125 41.796875 56.203125 29.59375 
z
M 47.21875 32.234375 
Q 47.125 39.59375 43.09375 43.984375 
Q 39.0625 48.390625 32.421875 48.390625 
Q 24.90625 48.390625 20.390625 44.140625 
Q 15.875 39.890625 15.1875 32.171875 
z
" id="DejaVuSans-101"/>
      <path d="M 44.28125 53.078125 
L 44.28125 44.578125 
Q 40.484375 46.53125 36.375 47.5 
Q 32.28125 48.484375 27.875 48.484375 
Q 21.1875 48.484375 17.84375 46.4375 
Q 14.5 44.390625 14.5 40.28125 
Q 14.5 37.15625 16.890625 35.375 
Q 19.28125 33.59375 26.515625 31.984375 
L 29.59375 31.296875 
Q 39.15625 29.25 43.1875 25.515625 
Q 47.21875 21.78125 47.21875 15.09375 
Q 47.21875 7.46875 41.1875 3.015625 
Q 35.15625 -1.421875 24.609375 -1.421875 
Q 20.21875 -1.421875 15.453125 -0.5625 
Q 10.6875 0.296875 5.421875 2 
L 5.421875 11.28125 
Q 10.40625 8.6875 15.234375 7.390625 
Q 20.0625 6.109375 24.8125 6.109375 
Q 31.15625 6.109375 34.5625 8.28125 
Q 37.984375 10.453125 37.984375 14.40625 
Q 37.984375 18.0625 35.515625 20.015625 
Q 33.0625 21.96875 24.703125 23.78125 
L 21.578125 24.515625 
Q 13.234375 26.265625 9.515625 29.90625 
Q 5.8125 33.546875 5.8125 39.890625 
Q 5.8125 47.609375 11.28125 51.796875 
Q 16.75 56 26.8125 56 
Q 31.78125 56 36.171875 55.265625 
Q 40.578125 54.546875 44.28125 53.078125 
z
" id="DejaVuSans-115"/>
      <path d="M 30.609375 48.390625 
Q 23.390625 48.390625 19.1875 42.75 
Q 14.984375 37.109375 14.984375 27.296875 
Q 14.984375 17.484375 19.15625 11.84375 
Q 23.34375 6.203125 30.609375 6.203125 
Q 37.796875 6.203125 41.984375 11.859375 
Q 46.1875 17.53125 46.1875 27.296875 
Q 46.1875 37.015625 41.984375 42.703125 
Q 37.796875 48.390625 30.609375 48.390625 
z
M 30.609375 56 
Q 42.328125 56 49.015625 48.375 
Q 55.71875 40.765625 55.71875 27.296875 
Q 55.71875 13.875 49.015625 6.21875 
Q 42.328125 -1.421875 30.609375 -1.421875 
Q 18.84375 -1.421875 12.171875 6.21875 
Q 5.515625 13.875 5.515625 27.296875 
Q 5.515625 40.765625 12.171875 48.375 
Q 18.84375 56 30.609375 56 
z
" id="DejaVuSans-111"/>
      <path d="M 9.421875 75.984375 
L 18.40625 75.984375 
L 18.40625 0 
L 9.421875 0 
z
" id="DejaVuSans-108"/>
      <path d="M 8.5 21.578125 
L 8.5 54.6875 
L 17.484375 54.6875 
L 17.484375 21.921875 
Q 17.484375 14.15625 20.5 10.265625 
Q 23.53125 6.390625 29.59375 6.390625 
Q 36.859375 6.390625 41.078125 11.03125 
Q 45.3125 15.671875 45.3125 23.6875 
L 45.3125 54.6875 
L 54.296875 54.6875 
L 54.296875 0 
L 45.3125 0 
L 45.3125 8.40625 
Q 42.046875 3.421875 37.71875 1 
Q 33.40625 -1.421875 27.6875 -1.421875 
Q 18.265625 -1.421875 13.375 4.4375 
Q 8.5 10.296875 8.5 21.578125 
z
M 31.109375 56 
z
" id="DejaVuSans-117"/>
      <path d="M 18.3125 70.21875 
L 18.3125 54.6875 
L 36.8125 54.6875 
L 36.8125 47.703125 
L 18.3125 47.703125 
L 18.3125 18.015625 
Q 18.3125 11.328125 20.140625 9.421875 
Q 21.96875 7.515625 27.59375 7.515625 
L 36.8125 7.515625 
L 36.8125 0 
L 27.59375 0 
Q 17.1875 0 13.234375 3.875 
Q 9.28125 7.765625 9.28125 18.015625 
L 9.28125 47.703125 
L 2.6875 47.703125 
L 2.6875 54.6875 
L 9.28125 54.6875 
L 9.28125 70.21875 
z
" id="DejaVuSans-116"/>
      <path d="M 9.421875 54.6875 
L 18.40625 54.6875 
L 18.40625 0 
L 9.421875 0 
z
M 9.421875 75.984375 
L 18.40625 75.984375 
L 18.40625 64.59375 
L 9.421875 64.59375 
z
" id="DejaVuSans-105"/>
      <path d="M 54.890625 33.015625 
L 54.890625 0 
L 45.90625 0 
L 45.90625 32.71875 
Q 45.90625 40.484375 42.875 44.328125 
Q 39.84375 48.1875 33.796875 48.1875 
Q 26.515625 48.1875 22.3125 43.546875 
Q 18.109375 38.921875 18.109375 30.90625 
L 18.109375 0 
L 9.078125 0 
L 9.078125 54.6875 
L 18.109375 54.6875 
L 18.109375 46.1875 
Q 21.34375 51.125 25.703125 53.5625 
Q 30.078125 56 35.796875 56 
Q 45.21875 56 50.046875 50.171875 
Q 54.890625 44.34375 54.890625 33.015625 
z
" id="DejaVuSans-110"/>
     </defs>
     <g transform="translate(232.135438 255.185031)scale(0.11 -0.11)">
      <use xlink:href="#DejaVuSans-82"/>
      <use x="69.419922" xlink:href="#DejaVuSans-101"/>
      <use x="130.943359" xlink:href="#DejaVuSans-115"/>
      <use x="183.042969" xlink:href="#DejaVuSans-111"/>
      <use x="244.224609" xlink:href="#DejaVuSans-108"/>
      <use x="272.007812" xlink:href="#DejaVuSans-117"/>
      <use x="335.386719" xlink:href="#DejaVuSans-116"/>
      <use x="374.595703" xlink:href="#DejaVuSans-105"/>
      <use x="402.378906" xlink:href="#DejaVuSans-111"/>
      <use x="463.560547" xlink:href="#DejaVuSans-110"/>
     </g>
    </g>
   </g>
   <g id="matplotlib.axis_2">
    <g id="ytick_1">
     <g id="line2d_15">
      <path clip-path="url(#p04c51da2c7)" d="M 45.117 218.88 
L 491.517 218.88 
" style="fill:none;stroke:#e5e5e5;stroke-width:0.8;"/>
     </g>
     <g id="line2d_16">
      <path d="M 45.117 218.88 
" style="fill:none;stroke:#000000;stroke-width:1.5;"/>
      <defs>
       <path d="M 0 0 
L -2.75 0 
" id="m09db9d2e77" style="stroke:#000000;"/>
      </defs>
      <g>
       <use style="stroke:#000000;" x="45.117" xlink:href="#m09db9d2e77" y="218.88"/>
      </g>
     </g>
     <g id="text_6">
      <!-- 0 -->
      <defs>
       <path d="M 31.78125 66.40625 
Q 24.171875 66.40625 20.328125 58.90625 
Q 16.5 51.421875 16.5 36.375 
Q 16.5 21.390625 20.328125 13.890625 
Q 24.171875 6.390625 31.78125 6.390625 
Q 39.453125 6.390625 43.28125 13.890625 
Q 47.125 21.390625 47.125 36.375 
Q 47.125 51.421875 43.28125 58.90625 
Q 39.453125 66.40625 31.78125 66.40625 
z
M 31.78125 74.21875 
Q 44.046875 74.21875 50.515625 64.515625 
Q 56.984375 54.828125 56.984375 36.375 
Q 56.984375 17.96875 50.515625 8.265625 
Q 44.046875 -1.421875 31.78125 -1.421875 
Q 19.53125 -1.421875 13.0625 8.265625 
Q 6.59375 17.96875 6.59375 36.375 
Q 6.59375 54.828125 13.0625 64.515625 
Q 19.53125 74.21875 31.78125 74.21875 
z
" id="DejaVuSans-48"/>
      </defs>
      <g transform="translate(34.568 221.30825)scale(0.088 -0.088)">
       <use xlink:href="#DejaVuSans-48"/>
      </g>
     </g>
    </g>
    <g id="ytick_2">
     <g id="line2d_17">
      <path clip-path="url(#p04c51da2c7)" d="M 45.117 168.48 
L 491.517 168.48 
" style="fill:none;stroke:#e5e5e5;stroke-width:0.8;"/>
     </g>
     <g id="line2d_18">
      <path d="M 45.117 168.48 
" style="fill:none;stroke:#000000;stroke-width:1.5;"/>
      <g>
       <use style="stroke:#000000;" x="45.117" xlink:href="#m09db9d2e77" y="168.48"/>
      </g>
     </g>
     <g id="text_7">
      <!-- 25 -->
      <defs>
       <path d="M 10.796875 72.90625 
L 49.515625 72.90625 
L 49.515625 64.59375 
L 19.828125 64.59375 
L 19.828125 46.734375 
Q 21.96875 47.46875 24.109375 47.828125 
Q 26.265625 48.1875 28.421875 48.1875 
Q 40.625 48.1875 47.75 41.5 
Q 54.890625 34.8125 54.890625 23.390625 
Q 54.890625 11.625 47.5625 5.09375 
Q 40.234375 -1.421875 26.90625 -1.421875 
Q 22.3125 -1.421875 17.546875 -0.640625 
Q 12.796875 0.140625 7.71875 1.703125 
L 7.71875 11.625 
Q 12.109375 9.234375 16.796875 8.0625 
Q 21.484375 6.890625 26.703125 6.890625 
Q 35.15625 6.890625 40.078125 11.328125 
Q 45.015625 15.765625 45.015625 23.390625 
Q 45.015625 31 40.078125 35.4375 
Q 35.15625 39.890625 26.703125 39.890625 
Q 22.75 39.890625 18.8125 39.015625 
Q 14.890625 38.140625 10.796875 36.28125 
z
" id="DejaVuSans-53"/>
      </defs>
      <g transform="translate(28.969 170.90825)scale(0.088 -0.088)">
       <use xlink:href="#DejaVuSans-50"/>
       <use x="63.623047" xlink:href="#DejaVuSans-53"/>
      </g>
     </g>
    </g>
    <g id="ytick_3">
     <g id="line2d_19">
      <path clip-path="url(#p04c51da2c7)" d="M 45.117 118.08 
L 491.517 118.08 
" style="fill:none;stroke:#e5e5e5;stroke-width:0.8;"/>
     </g>
     <g id="line2d_20">
      <path d="M 45.117 118.08 
" style="fill:none;stroke:#000000;stroke-width:1.5;"/>
      <g>
       <use style="stroke:#000000;" x="45.117" xlink:href="#m09db9d2e77" y="118.08"/>
      </g>
     </g>
     <g id="text_8">
      <!-- 50 -->
      <g transform="translate(28.969 120.50825)scale(0.088 -0.088)">
       <use xlink:href="#DejaVuSans-53"/>
       <use x="63.623047" xlink:href="#DejaVuSans-48"/>
      </g>
     </g>
    </g>
    <g id="ytick_4">
     <g id="line2d_21">
      <path clip-path="url(#p04c51da2c7)" d="M 45.117 67.68 
L 491.517 67.68 
" style="fill:none;stroke:#e5e5e5;stroke-width:0.8;"/>
     </g>
     <g id="line2d_22">
      <path d="M 45.117 67.68 
" style="fill:none;stroke:#000000;stroke-width:1.5;"/>
      <g>
       <use style="stroke:#000000;" x="45.117" xlink:href="#m09db9d2e77" y="67.68"/>
      </g>
     </g>
     <g id="text_9">
      <!-- 75 -->
      <defs>
       <path d="M 8.203125 72.90625 
L 55.078125 72.90625 
L 55.078125 68.703125 
L 28.609375 0 
L 18.3125 0 
L 43.21875 64.59375 
L 8.203125 64.59375 
z
" id="DejaVuSans-55"/>
      </defs>
      <g transform="translate(28.969 70.10825)scale(0.088 -0.088)">
       <use xlink:href="#DejaVuSans-55"/>
       <use x="63.623047" xlink:href="#DejaVuSans-53"/>
      </g>
     </g>
    </g>
    <g id="ytick_5">
     <g id="line2d_23">
      <path clip-path="url(#p04c51da2c7)" d="M 45.117 17.28 
L 491.517 17.28 
" style="fill:none;stroke:#e5e5e5;stroke-width:0.8;"/>
     </g>
     <g id="line2d_24">
      <path d="M 45.117 17.28 
" style="fill:none;stroke:#000000;stroke-width:1.5;"/>
      <g>
       <use style="stroke:#000000;" x="45.117" xlink:href="#m09db9d2e77" y="17.28"/>
      </g>
     </g>
     <g id="text_10">
      <!-- 100 -->
      <g transform="translate(23.37 19.70825)scale(0.088 -0.088)">
       <use xlink:href="#DejaVuSans-49"/>
       <use x="63.623047" xlink:href="#DejaVuSans-48"/>
       <use x="127.246094" xlink:href="#DejaVuSans-48"/>
      </g>
     </g>
    </g>
    <g id="ytick_6">
     <g id="line2d_25">
      <path clip-path="url(#p04c51da2c7)" d="M 45.117 193.68 
L 491.517 193.68 
" style="fill:none;stroke:#fafafa;"/>
     </g>
     <g id="line2d_26">
      <path d="M 45.117 193.68 
" style="fill:none;stroke:#000000;stroke-width:1.5;"/>
      <defs>
       <path d="M 0 0 
L -1.375 0 
" id="m32e12d0db2" style="stroke:#000000;"/>
      </defs>
      <g>
       <use style="stroke:#000000;" x="45.117" xlink:href="#m32e12d0db2" y="193.68"/>
      </g>
     </g>
    </g>
    <g id="ytick_7">
     <g id="line2d_27">
      <path clip-path="url(#p04c51da2c7)" d="M 45.117 143.28 
L 491.517 143.28 
" style="fill:none;stroke:#fafafa;"/>
     </g>
     <g id="line2d_28">
      <path d="M 45.117 143.28 
" style="fill:none;stroke:#000000;stroke-width:1.5;"/>
      <g>
       <use style="stroke:#000000;" x="45.117" xlink:href="#m32e12d0db2" y="143.28"/>
      </g>
     </g>
    </g>
    <g id="ytick_8">
     <g id="line2d_29">
      <path clip-path="url(#p04c51da2c7)" d="M 45.117 92.88 
L 491.517 92.88 
" style="fill:none;stroke:#fafafa;"/>
     </g>
     <g id="line2d_30">
      <path d="M 45.117 92.88 
" style="fill:none;stroke:#000000;stroke-width:1.5;"/>
      <g>
       <use style="stroke:#000000;" x="45.117" xlink:href="#m32e12d0db2" y="92.88"/>
      </g>
     </g>
    </g>
    <g id="ytick_9">
     <g id="line2d_31">
      <path clip-path="url(#p04c51da2c7)" d="M 45.117 42.48 
L 491.517 42.48 
" style="fill:none;stroke:#fafafa;"/>
     </g>
     <g id="line2d_32">
      <path d="M 45.117 42.48 
" style="fill:none;stroke:#000000;stroke-width:1.5;"/>
      <g>
       <use style="stroke:#000000;" x="45.117" xlink:href="#m32e12d0db2" y="42.48"/>
      </g>
     </g>
    </g>
    <g id="text_11">
     <!-- $P_{Q1p}$ [%] -->
     <defs>
      <path d="M 16.890625 72.90625 
L 39.703125 72.90625 
Q 49.65625 72.90625 54.875 68.265625 
Q 60.109375 63.625 60.109375 54.6875 
Q 60.109375 42.671875 52.390625 35.984375 
Q 44.671875 29.296875 30.71875 29.296875 
L 18.3125 29.296875 
L 12.59375 0 
L 2.6875 0 
z
M 25.203125 64.796875 
L 19.921875 37.40625 
L 32.328125 37.40625 
Q 40.71875 37.40625 45.203125 41.703125 
Q 49.703125 46 49.703125 54 
Q 49.703125 59.125 46.65625 61.953125 
Q 43.609375 64.796875 38.09375 64.796875 
z
" id="DejaVuSans-Oblique-80"/>
      <path d="M 36.078125 -1.3125 
Q 35.546875 -1.375 34.953125 -1.390625 
Q 34.375 -1.421875 33.203125 -1.421875 
Q 19.53125 -1.421875 11.8125 6.421875 
Q 4.109375 14.265625 4.109375 28.078125 
Q 4.109375 36.234375 7.0625 44.4375 
Q 10.015625 52.640625 15.28125 59.1875 
Q 21.390625 66.703125 29.03125 70.453125 
Q 36.671875 74.21875 45.90625 74.21875 
Q 59.28125 74.21875 66.984375 66.328125 
Q 74.703125 58.453125 74.703125 44.828125 
Q 74.703125 30.125 66.640625 17.921875 
Q 58.59375 5.71875 45.609375 0.6875 
L 55.515625 -12.890625 
L 44.484375 -12.890625 
z
M 45.609375 66.21875 
Q 37.5 66.21875 31.296875 62.28125 
Q 25.09375 58.34375 20.515625 50.296875 
Q 17.578125 45.171875 16.03125 39.40625 
Q 14.5 33.640625 14.5 27.78125 
Q 14.5 17.625 19.359375 12.109375 
Q 24.21875 6.59375 33.109375 6.59375 
Q 41.109375 6.59375 47.375 10.5625 
Q 53.65625 14.546875 58.109375 22.40625 
Q 61.078125 27.6875 62.640625 33.46875 
Q 64.203125 39.265625 64.203125 45.015625 
Q 64.203125 55.125 59.3125 60.671875 
Q 54.4375 66.21875 45.609375 66.21875 
z
" id="DejaVuSans-Oblique-81"/>
      <path d="M 49.609375 33.6875 
Q 49.609375 40.875 46.484375 44.671875 
Q 43.359375 48.484375 37.5 48.484375 
Q 33.5 48.484375 29.859375 46.4375 
Q 26.21875 44.390625 23.390625 40.484375 
Q 20.609375 36.625 18.9375 31.15625 
Q 17.28125 25.6875 17.28125 20.3125 
Q 17.28125 13.484375 20.40625 9.796875 
Q 23.53125 6.109375 29.296875 6.109375 
Q 33.546875 6.109375 37.1875 8.109375 
Q 40.828125 10.109375 43.40625 13.921875 
Q 46.1875 17.921875 47.890625 23.34375 
Q 49.609375 28.765625 49.609375 33.6875 
z
M 21.78125 46.390625 
Q 25.390625 51.125 30.296875 53.5625 
Q 35.203125 56 41.21875 56 
Q 49.609375 56 54.25 50.5 
Q 58.890625 45.015625 58.890625 35.109375 
Q 58.890625 27 56 19.65625 
Q 53.125 12.3125 47.703125 6.5 
Q 44.09375 2.640625 39.546875 0.609375 
Q 35.015625 -1.421875 29.984375 -1.421875 
Q 24.171875 -1.421875 20.21875 1 
Q 16.265625 3.421875 14.3125 8.203125 
L 8.6875 -20.796875 
L -0.296875 -20.796875 
L 14.40625 54.6875 
L 23.390625 54.6875 
z
" id="DejaVuSans-Oblique-112"/>
      <path id="DejaVuSans-32"/>
      <path d="M 8.59375 75.984375 
L 29.296875 75.984375 
L 29.296875 69 
L 17.578125 69 
L 17.578125 -6.203125 
L 29.296875 -6.203125 
L 29.296875 -13.1875 
L 8.59375 -13.1875 
z
" id="DejaVuSans-91"/>
      <path d="M 72.703125 32.078125 
Q 68.453125 32.078125 66.03125 28.46875 
Q 63.625 24.859375 63.625 18.40625 
Q 63.625 12.0625 66.03125 8.421875 
Q 68.453125 4.78125 72.703125 4.78125 
Q 76.859375 4.78125 79.265625 8.421875 
Q 81.6875 12.0625 81.6875 18.40625 
Q 81.6875 24.8125 79.265625 28.4375 
Q 76.859375 32.078125 72.703125 32.078125 
z
M 72.703125 38.28125 
Q 80.421875 38.28125 84.953125 32.90625 
Q 89.5 27.546875 89.5 18.40625 
Q 89.5 9.28125 84.9375 3.921875 
Q 80.375 -1.421875 72.703125 -1.421875 
Q 64.890625 -1.421875 60.34375 3.921875 
Q 55.8125 9.28125 55.8125 18.40625 
Q 55.8125 27.59375 60.375 32.9375 
Q 64.9375 38.28125 72.703125 38.28125 
z
M 22.3125 68.015625 
Q 18.109375 68.015625 15.6875 64.375 
Q 13.28125 60.75 13.28125 54.390625 
Q 13.28125 47.953125 15.671875 44.328125 
Q 18.0625 40.71875 22.3125 40.71875 
Q 26.5625 40.71875 28.96875 44.328125 
Q 31.390625 47.953125 31.390625 54.390625 
Q 31.390625 60.6875 28.953125 64.34375 
Q 26.515625 68.015625 22.3125 68.015625 
z
M 66.40625 74.21875 
L 74.21875 74.21875 
L 28.609375 -1.421875 
L 20.796875 -1.421875 
z
M 22.3125 74.21875 
Q 30.03125 74.21875 34.609375 68.875 
Q 39.203125 63.53125 39.203125 54.390625 
Q 39.203125 45.171875 34.640625 39.84375 
Q 30.078125 34.515625 22.3125 34.515625 
Q 14.546875 34.515625 10.03125 39.859375 
Q 5.515625 45.21875 5.515625 54.390625 
Q 5.515625 63.484375 10.046875 68.84375 
Q 14.59375 74.21875 22.3125 74.21875 
z
" id="DejaVuSans-37"/>
      <path d="M 30.421875 75.984375 
L 30.421875 -13.1875 
L 9.71875 -13.1875 
L 9.71875 -6.203125 
L 21.390625 -6.203125 
L 21.390625 69 
L 9.71875 69 
L 9.71875 75.984375 
z
" id="DejaVuSans-93"/>
     </defs>
     <g transform="translate(15.56 139.3)rotate(-90)scale(0.11 -0.11)">
      <use transform="translate(0 0.015625)" xlink:href="#DejaVuSans-Oblique-80"/>
      <use transform="translate(60.302734 -16.390625)scale(0.7)" xlink:href="#DejaVuSans-Oblique-81"/>
      <use transform="translate(115.400391 -16.390625)scale(0.7)" xlink:href="#DejaVuSans-49"/>
      <use transform="translate(159.936523 -16.390625)scale(0.7)" xlink:href="#DejaVuSans-Oblique-112"/>
      <use transform="translate(207.104492 0.015625)" xlink:href="#DejaVuSans-32"/>
      <use transform="translate(238.891602 0.015625)" xlink:href="#DejaVuSans-91"/>
      <use transform="translate(277.905273 0.015625)" xlink:href="#DejaVuSans-37"/>
      <use transform="translate(372.924805 0.015625)" xlink:href="#DejaVuSans-93"/>
     </g>
    </g>
   </g>
   <g id="PathCollection_1">
    <path clip-path="url(#p04c51da2c7)" d="M 65.407909 55.672598 
C 65.877969 55.672598 66.32884 55.485841 66.661223 55.153459 
C 66.993606 54.821076 67.180363 54.370205 67.180363 53.900144 
C 67.180363 53.430084 66.993606 52.979213 66.661223 52.64683 
C 66.32884 52.314447 65.877969 52.127691 65.407909 52.127691 
C 64.937849 52.127691 64.486978 52.314447 64.154595 52.64683 
C 63.822212 52.979213 63.635455 53.430084 63.635455 53.900144 
C 63.635455 54.370205 63.822212 54.821076 64.154595 55.153459 
C 64.486978 55.485841 64.937849 55.672598 65.407909 55.672598 
z
" style="stroke:#000000;stroke-width:0.886227;"/>
    <path clip-path="url(#p04c51da2c7)" d="M 78.935182 56.607494 
C 79.405242 56.607494 79.856113 56.420737 80.188496 56.088354 
C 80.520879 55.755971 80.707636 55.3051 80.707636 54.83504 
C 80.707636 54.36498 80.520879 53.914109 80.188496 53.581726 
C 79.856113 53.249343 79.405242 53.062586 78.935182 53.062586 
C 78.465122 53.062586 78.01425 53.249343 77.681868 53.581726 
C 77.349485 53.914109 77.162728 54.36498 77.162728 54.83504 
C 77.162728 55.3051 77.349485 55.755971 77.681868 56.088354 
C 78.01425 56.420737 78.465122 56.607494 78.935182 56.607494 
z
" style="stroke:#000000;stroke-width:0.886227;"/>
    <path clip-path="url(#p04c51da2c7)" d="M 92.462455 62.996738 
C 92.932515 62.996738 93.383386 62.809981 93.715769 62.477599 
C 94.048151 62.145216 94.234908 61.694345 94.234908 61.224284 
C 94.234908 60.754224 94.048151 60.303353 93.715769 59.97097 
C 93.383386 59.638588 92.932515 59.451831 92.462455 59.451831 
C 91.992394 59.451831 91.541523 59.638588 91.20914 59.97097 
C 90.876758 60.303353 90.690001 60.754224 90.690001 61.224284 
C 90.690001 61.694345 90.876758 62.145216 91.20914 62.477599 
C 91.541523 62.809981 91.992394 62.996738 92.462455 62.996738 
z
" style="stroke:#000000;stroke-width:0.886227;"/>
    <path clip-path="url(#p04c51da2c7)" d="M 105.989727 64.629973 
C 106.459788 64.629973 106.910659 64.443216 107.243041 64.110833 
C 107.575424 63.77845 107.762181 63.327579 107.762181 62.857519 
C 107.762181 62.387459 107.575424 61.936587 107.243041 61.604205 
C 106.910659 61.271822 106.459788 61.085065 105.989727 61.085065 
C 105.519667 61.085065 105.068796 61.271822 104.736413 61.604205 
C 104.40403 61.936587 104.217273 62.387459 104.217273 62.857519 
C 104.217273 63.327579 104.40403 63.77845 104.736413 64.110833 
C 105.068796 64.443216 105.519667 64.629973 105.989727 64.629973 
z
" style="stroke:#000000;stroke-width:0.886227;"/>
    <path clip-path="url(#p04c51da2c7)" d="M 119.517 72.703528 
C 119.98706 72.703528 120.437931 72.516771 120.770314 72.184388 
C 121.102697 71.852005 121.289454 71.401134 121.289454 70.931074 
C 121.289454 70.461014 121.102697 70.010143 120.770314 69.67776 
C 120.437931 69.345377 119.98706 69.15862 119.517 69.15862 
C 119.04694 69.15862 118.596069 69.345377 118.263686 69.67776 
C 117.931303 70.010143 117.744546 70.461014 117.744546 70.931074 
C 117.744546 71.401134 117.931303 71.852005 118.263686 72.184388 
C 118.596069 72.516771 119.04694 72.703528 119.517 72.703528 
z
" style="stroke:#000000;stroke-width:0.886227;"/>
    <path clip-path="url(#p04c51da2c7)" d="M 133.044273 79.238221 
C 133.514333 79.238221 133.965204 79.051464 134.297587 78.719081 
C 134.62997 78.386698 134.816727 77.935827 134.816727 77.465767 
C 134.816727 76.995707 134.62997 76.544836 134.297587 76.212453 
C 133.965204 75.88007 133.514333 75.693313 133.044273 75.693313 
C 132.574212 75.693313 132.123341 75.88007 131.790959 76.212453 
C 131.458576 76.544836 131.271819 76.995707 131.271819 77.465767 
C 131.271819 77.935827 131.458576 78.386698 131.790959 78.719081 
C 132.123341 79.051464 132.574212 79.238221 133.044273 79.238221 
z
" style="stroke:#000000;stroke-width:0.886227;"/>
    <path clip-path="url(#p04c51da2c7)" d="M 146.571545 84.15817 
C 147.041606 84.15817 147.492477 83.971413 147.82486 83.63903 
C 148.157242 83.306647 148.343999 82.855776 148.343999 82.385716 
C 148.343999 81.915655 148.157242 81.464784 147.82486 81.132402 
C 147.492477 80.800019 147.041606 80.613262 146.571545 80.613262 
C 146.101485 80.613262 145.650614 80.800019 145.318231 81.132402 
C 144.985849 81.464784 144.799092 81.915655 144.799092 82.385716 
C 144.799092 82.855776 144.985849 83.306647 145.318231 83.63903 
C 145.650614 83.971413 146.101485 84.15817 146.571545 84.15817 
z
" style="stroke:#000000;stroke-width:0.886227;"/>
    <path clip-path="url(#p04c51da2c7)" d="M 160.098818 92.251611 
C 160.568878 92.251611 161.01975 92.064854 161.352132 91.732471 
C 161.684515 91.400088 161.871272 90.949217 161.871272 90.479157 
C 161.871272 90.009097 161.684515 89.558225 161.352132 89.225843 
C 161.01975 88.89346 160.568878 88.706703 160.098818 88.706703 
C 159.628758 88.706703 159.177887 88.89346 158.845504 89.225843 
C 158.513121 89.558225 158.326364 90.009097 158.326364 90.479157 
C 158.326364 90.949217 158.513121 91.400088 158.845504 91.732471 
C 159.177887 92.064854 159.628758 92.251611 160.098818 92.251611 
z
" style="stroke:#000000;stroke-width:0.886227;"/>
    <path clip-path="url(#p04c51da2c7)" d="M 173.626091 95.544692 
C 174.096151 95.544692 174.547022 95.357935 174.879405 95.025552 
C 175.211788 94.693169 175.398545 94.242298 175.398545 93.772238 
C 175.398545 93.302177 175.211788 92.851306 174.879405 92.518924 
C 174.547022 92.186541 174.096151 91.999784 173.626091 91.999784 
C 173.156031 91.999784 172.70516 92.186541 172.372777 92.518924 
C 172.040394 92.851306 171.853637 93.302177 171.853637 93.772238 
C 171.853637 94.242298 172.040394 94.693169 172.372777 95.025552 
C 172.70516 95.357935 173.156031 95.544692 173.626091 95.544692 
z
" style="stroke:#000000;stroke-width:0.886227;"/>
    <path clip-path="url(#p04c51da2c7)" d="M 187.153364 107.718334 
C 187.623424 107.718334 188.074295 107.531577 188.406678 107.199194 
C 188.739061 106.866811 188.925817 106.41594 188.925817 105.94588 
C 188.925817 105.47582 188.739061 105.024948 188.406678 104.692566 
C 188.074295 104.360183 187.623424 104.173426 187.153364 104.173426 
C 186.683303 104.173426 186.232432 104.360183 185.900049 104.692566 
C 185.567667 105.024948 185.38091 105.47582 185.38091 105.94588 
C 185.38091 106.41594 185.567667 106.866811 185.900049 107.199194 
C 186.232432 107.531577 186.683303 107.718334 187.153364 107.718334 
z
" style="stroke:#000000;stroke-width:0.886227;"/>
    <path clip-path="url(#p04c51da2c7)" d="M 200.680636 117.31524 
C 201.150697 117.31524 201.601568 117.128483 201.933951 116.7961 
C 202.266333 116.463718 202.45309 116.012847 202.45309 115.542786 
C 202.45309 115.072726 202.266333 114.621855 201.933951 114.289472 
C 201.601568 113.957089 201.150697 113.770332 200.680636 113.770332 
C 200.210576 113.770332 199.759705 113.957089 199.427322 114.289472 
C 199.094939 114.621855 198.908183 115.072726 198.908183 115.542786 
C 198.908183 116.012847 199.094939 116.463718 199.427322 116.7961 
C 199.759705 117.128483 200.210576 117.31524 200.680636 117.31524 
z
" style="stroke:#000000;stroke-width:0.886227;"/>
    <path clip-path="url(#p04c51da2c7)" d="M 214.207909 125.069956 
C 214.677969 125.069956 215.12884 124.883199 215.461223 124.550816 
C 215.793606 124.218434 215.980363 123.767563 215.980363 123.297502 
C 215.980363 122.827442 215.793606 122.376571 215.461223 122.044188 
C 215.12884 121.711805 214.677969 121.525048 214.207909 121.525048 
C 213.737849 121.525048 213.286978 121.711805 212.954595 122.044188 
C 212.622212 122.376571 212.435455 122.827442 212.435455 123.297502 
C 212.435455 123.767563 212.622212 124.218434 212.954595 124.550816 
C 213.286978 124.883199 213.737849 125.069956 214.207909 125.069956 
z
" style="stroke:#000000;stroke-width:0.886227;"/>
    <path clip-path="url(#p04c51da2c7)" d="M 227.735182 130.903854 
C 228.205242 130.903854 228.656113 130.717097 228.988496 130.384714 
C 229.320879 130.052332 229.507636 129.60146 229.507636 129.1314 
C 229.507636 128.66134 229.320879 128.210469 228.988496 127.878086 
C 228.656113 127.545703 228.205242 127.358946 227.735182 127.358946 
C 227.265122 127.358946 226.81425 127.545703 226.481868 127.878086 
C 226.149485 128.210469 225.962728 128.66134 225.962728 129.1314 
C 225.962728 129.60146 226.149485 130.052332 226.481868 130.384714 
C 226.81425 130.717097 227.265122 130.903854 227.735182 130.903854 
z
" style="stroke:#000000;stroke-width:0.886227;"/>
    <path clip-path="url(#p04c51da2c7)" d="M 241.262455 142.907543 
C 241.732515 142.907543 242.183386 142.720786 242.515769 142.388404 
C 242.848151 142.056021 243.034908 141.60515 243.034908 141.135089 
C 243.034908 140.665029 242.848151 140.214158 242.515769 139.881775 
C 242.183386 139.549392 241.732515 139.362636 241.262455 139.362636 
C 240.792394 139.362636 240.341523 139.549392 240.00914 139.881775 
C 239.676758 140.214158 239.490001 140.665029 239.490001 141.135089 
C 239.490001 141.60515 239.676758 142.056021 240.00914 142.388404 
C 240.341523 142.720786 240.792394 142.907543 241.262455 142.907543 
z
" style="stroke:#000000;stroke-width:0.886227;"/>
    <path clip-path="url(#p04c51da2c7)" d="M 254.789727 143.317524 
C 255.259788 143.317524 255.710659 143.130767 256.043041 142.798384 
C 256.375424 142.466001 256.562181 142.01513 256.562181 141.54507 
C 256.562181 141.07501 256.375424 140.624139 256.043041 140.291756 
C 255.710659 139.959373 255.259788 139.772616 254.789727 139.772616 
C 254.319667 139.772616 253.868796 139.959373 253.536413 140.291756 
C 253.20403 140.624139 253.017273 141.07501 253.017273 141.54507 
C 253.017273 142.01513 253.20403 142.466001 253.536413 142.798384 
C 253.868796 143.130767 254.319667 143.317524 254.789727 143.317524 
z
" style="stroke:#000000;stroke-width:0.886227;"/>
    <path clip-path="url(#p04c51da2c7)" d="M 268.317 152.740899 
C 268.78706 152.740899 269.237931 152.554142 269.570314 152.221759 
C 269.902697 151.889376 270.089454 151.438505 270.089454 150.968445 
C 270.089454 150.498384 269.902697 150.047513 269.570314 149.715131 
C 269.237931 149.382748 268.78706 149.195991 268.317 149.195991 
C 267.84694 149.195991 267.396069 149.382748 267.063686 149.715131 
C 266.731303 150.047513 266.544546 150.498384 266.544546 150.968445 
C 266.544546 151.438505 266.731303 151.889376 267.063686 152.221759 
C 267.396069 152.554142 267.84694 152.740899 268.317 152.740899 
z
" style="stroke:#000000;stroke-width:0.886227;"/>
    <path clip-path="url(#p04c51da2c7)" d="M 281.844273 151.077188 
C 282.314333 151.077188 282.765204 150.890431 283.097587 150.558049 
C 283.42997 150.225666 283.616727 149.774795 283.616727 149.304734 
C 283.616727 148.834674 283.42997 148.383803 283.097587 148.05142 
C 282.765204 147.719038 282.314333 147.532281 281.844273 147.532281 
C 281.374212 147.532281 280.923341 147.719038 280.590959 148.05142 
C 280.258576 148.383803 280.071819 148.834674 280.071819 149.304734 
C 280.071819 149.774795 280.258576 150.225666 280.590959 150.558049 
C 280.923341 150.890431 281.374212 151.077188 281.844273 151.077188 
z
" style="stroke:#000000;stroke-width:0.886227;"/>
    <path clip-path="url(#p04c51da2c7)" d="M 295.371545 156.835153 
C 295.841606 156.835153 296.292477 156.648396 296.62486 156.316013 
C 296.957242 155.983631 297.143999 155.532759 297.143999 155.062699 
C 297.143999 154.592639 296.957242 154.141768 296.62486 153.809385 
C 296.292477 153.477002 295.841606 153.290245 295.371545 153.290245 
C 294.901485 153.290245 294.450614 153.477002 294.118231 153.809385 
C 293.785849 154.141768 293.599092 154.592639 293.599092 155.062699 
C 293.599092 155.532759 293.785849 155.983631 294.118231 156.316013 
C 294.450614 156.648396 294.901485 156.835153 295.371545 156.835153 
z
" style="stroke:#000000;stroke-width:0.886227;"/>
    <path clip-path="url(#p04c51da2c7)" d="M 308.898818 158.953516 
C 309.368878 158.953516 309.81975 158.766759 310.152132 158.434376 
C 310.484515 158.101993 310.671272 157.651122 310.671272 157.181062 
C 310.671272 156.711002 310.484515 156.260131 310.152132 155.927748 
C 309.81975 155.595365 309.368878 155.408608 308.898818 155.408608 
C 308.428758 155.408608 307.977887 155.595365 307.645504 155.927748 
C 307.313121 156.260131 307.126364 156.711002 307.126364 157.181062 
C 307.126364 157.651122 307.313121 158.101993 307.645504 158.434376 
C 307.977887 158.766759 308.428758 158.953516 308.898818 158.953516 
z
" style="stroke:#000000;stroke-width:0.886227;"/>
    <path clip-path="url(#p04c51da2c7)" d="M 322.426091 163.421065 
C 322.896151 163.421065 323.347022 163.234308 323.679405 162.901925 
C 324.011788 162.569542 324.198545 162.118671 324.198545 161.648611 
C 324.198545 161.178551 324.011788 160.72768 323.679405 160.395297 
C 323.347022 160.062914 322.896151 159.876157 322.426091 159.876157 
C 321.956031 159.876157 321.50516 160.062914 321.172777 160.395297 
C 320.840394 160.72768 320.653637 161.178551 320.653637 161.648611 
C 320.653637 162.118671 320.840394 162.569542 321.172777 162.901925 
C 321.50516 163.234308 321.956031 163.421065 322.426091 163.421065 
z
" style="stroke:#000000;stroke-width:0.886227;"/>
    <path clip-path="url(#p04c51da2c7)" d="M 335.953364 155.46332 
C 336.423424 155.46332 336.874295 155.276564 337.206678 154.944181 
C 337.539061 154.611798 337.725817 154.160927 337.725817 153.690867 
C 337.725817 153.220806 337.539061 152.769935 337.206678 152.437552 
C 336.874295 152.10517 336.423424 151.918413 335.953364 151.918413 
C 335.483303 151.918413 335.032432 152.10517 334.700049 152.437552 
C 334.367667 152.769935 334.18091 153.220806 334.18091 153.690867 
C 334.18091 154.160927 334.367667 154.611798 334.700049 154.944181 
C 335.032432 155.276564 335.483303 155.46332 335.953364 155.46332 
z
" style="stroke:#000000;stroke-width:0.886227;"/>
    <path clip-path="url(#p04c51da2c7)" d="M 349.480636 156.735144 
C 349.950697 156.735144 350.401568 156.548387 350.733951 156.216004 
C 351.066333 155.883622 351.25309 155.432751 351.25309 154.96269 
C 351.25309 154.49263 351.066333 154.041759 350.733951 153.709376 
C 350.401568 153.376993 349.950697 153.190236 349.480636 153.190236 
C 349.010576 153.190236 348.559705 153.376993 348.227322 153.709376 
C 347.894939 154.041759 347.708183 154.49263 347.708183 154.96269 
C 347.708183 155.432751 347.894939 155.883622 348.227322 156.216004 
C 348.559705 156.548387 349.010576 156.735144 349.480636 156.735144 
z
" style="stroke:#000000;stroke-width:0.886227;"/>
    <path clip-path="url(#p04c51da2c7)" d="M 363.007909 162.140515 
C 363.477969 162.140515 363.92884 161.953758 364.261223 161.621376 
C 364.593606 161.288993 364.780363 160.838122 364.780363 160.368061 
C 364.780363 159.898001 364.593606 159.44713 364.261223 159.114747 
C 363.92884 158.782365 363.477969 158.595608 363.007909 158.595608 
C 362.537849 158.595608 362.086978 158.782365 361.754595 159.114747 
C 361.422212 159.44713 361.235455 159.898001 361.235455 160.368061 
C 361.235455 160.838122 361.422212 161.288993 361.754595 161.621376 
C 362.086978 161.953758 362.537849 162.140515 363.007909 162.140515 
z
" style="stroke:#000000;stroke-width:0.886227;"/>
    <path clip-path="url(#p04c51da2c7)" d="M 376.535182 169.581254 
C 377.005242 169.581254 377.456113 169.394497 377.788496 169.062115 
C 378.120879 168.729732 378.307636 168.278861 378.307636 167.8088 
C 378.307636 167.33874 378.120879 166.887869 377.788496 166.555486 
C 377.456113 166.223103 377.005242 166.036347 376.535182 166.036347 
C 376.065122 166.036347 375.61425 166.223103 375.281868 166.555486 
C 374.949485 166.887869 374.762728 167.33874 374.762728 167.8088 
C 374.762728 168.278861 374.949485 168.729732 375.281868 169.062115 
C 375.61425 169.394497 376.065122 169.581254 376.535182 169.581254 
z
" style="stroke:#000000;stroke-width:0.886227;"/>
    <path clip-path="url(#p04c51da2c7)" d="M 390.062455 178.399362 
C 390.532515 178.399362 390.983386 178.212605 391.315769 177.880222 
C 391.648151 177.547839 391.834908 177.096968 391.834908 176.626908 
C 391.834908 176.156848 391.648151 175.705977 391.315769 175.373594 
C 390.983386 175.041211 390.532515 174.854454 390.062455 174.854454 
C 389.592394 174.854454 389.141523 175.041211 388.80914 175.373594 
C 388.476758 175.705977 388.290001 176.156848 388.290001 176.626908 
C 388.290001 177.096968 388.476758 177.547839 388.80914 177.880222 
C 389.141523 178.212605 389.592394 178.399362 390.062455 178.399362 
z
" style="stroke:#000000;stroke-width:0.886227;"/>
    <path clip-path="url(#p04c51da2c7)" d="M 403.589727 169.948577 
C 404.059788 169.948577 404.510659 169.76182 404.843041 169.429437 
C 405.175424 169.097055 405.362181 168.646183 405.362181 168.176123 
C 405.362181 167.706063 405.175424 167.255192 404.843041 166.922809 
C 404.510659 166.590426 404.059788 166.403669 403.589727 166.403669 
C 403.119667 166.403669 402.668796 166.590426 402.336413 166.922809 
C 402.00403 167.255192 401.817273 167.706063 401.817273 168.176123 
C 401.817273 168.646183 402.00403 169.097055 402.336413 169.429437 
C 402.668796 169.76182 403.119667 169.948577 403.589727 169.948577 
z
" style="stroke:#000000;stroke-width:0.886227;"/>
    <path clip-path="url(#p04c51da2c7)" d="M 417.117 168.998786 
C 417.58706 168.998786 418.037931 168.812029 418.370314 168.479646 
C 418.702697 168.147263 418.889454 167.696392 418.889454 167.226332 
C 418.889454 166.756272 418.702697 166.3054 418.370314 165.973018 
C 418.037931 165.640635 417.58706 165.453878 417.117 165.453878 
C 416.64694 165.453878 416.196069 165.640635 415.863686 165.973018 
C 415.531303 166.3054 415.344546 166.756272 415.344546 167.226332 
C 415.344546 167.696392 415.531303 168.147263 415.863686 168.479646 
C 416.196069 168.812029 416.64694 168.998786 417.117 168.998786 
z
" style="stroke:#000000;stroke-width:0.886227;"/>
    <path clip-path="url(#p04c51da2c7)" d="M 430.644273 176.488577 
C 431.114333 176.488577 431.565204 176.30182 431.897587 175.969437 
C 432.22997 175.637055 432.416727 175.186183 432.416727 174.716123 
C 432.416727 174.246063 432.22997 173.795192 431.897587 173.462809 
C 431.565204 173.130426 431.114333 172.943669 430.644273 172.943669 
C 430.174212 172.943669 429.723341 173.130426 429.390959 173.462809 
C 429.058576 173.795192 428.871819 174.246063 428.871819 174.716123 
C 428.871819 175.186183 429.058576 175.637055 429.390959 175.969437 
C 429.723341 176.30182 430.174212 176.488577 430.644273 176.488577 
z
" style="stroke:#000000;stroke-width:0.886227;"/>
    <path clip-path="url(#p04c51da2c7)" d="M 444.171545 175.65431 
C 444.641606 175.65431 445.092477 175.467553 445.42486 175.135171 
C 445.757242 174.802788 445.943999 174.351917 445.943999 173.881856 
C 445.943999 173.411796 445.757242 172.960925 445.42486 172.628542 
C 445.092477 172.296159 444.641606 172.109403 444.171545 172.109403 
C 443.701485 172.109403 443.250614 172.296159 442.918231 172.628542 
C 442.585849 172.960925 442.399092 173.411796 442.399092 173.881856 
C 442.399092 174.351917 442.585849 174.802788 442.918231 175.135171 
C 443.250614 175.467553 443.701485 175.65431 444.171545 175.65431 
z
" style="stroke:#000000;stroke-width:0.886227;"/>
    <path clip-path="url(#p04c51da2c7)" d="M 457.698818 182.738603 
C 458.168878 182.738603 458.61975 182.551846 458.952132 182.219463 
C 459.284515 181.88708 459.471272 181.436209 459.471272 180.966149 
C 459.471272 180.496089 459.284515 180.045218 458.952132 179.712835 
C 458.61975 179.380452 458.168878 179.193695 457.698818 179.193695 
C 457.228758 179.193695 456.777887 179.380452 456.445504 179.712835 
C 456.113121 180.045218 455.926364 180.496089 455.926364 180.966149 
C 455.926364 181.436209 456.113121 181.88708 456.445504 182.219463 
C 456.777887 182.551846 457.228758 182.738603 457.698818 182.738603 
z
" style="stroke:#000000;stroke-width:0.886227;"/>
    <path clip-path="url(#p04c51da2c7)" d="M 471.226091 176.67994 
C 471.696151 176.67994 472.147022 176.493183 472.479405 176.1608 
C 472.811788 175.828417 472.998545 175.377546 472.998545 174.907486 
C 472.998545 174.437425 472.811788 173.986554 472.479405 173.654172 
C 472.147022 173.321789 471.696151 173.135032 471.226091 173.135032 
C 470.756031 173.135032 470.30516 173.321789 469.972777 173.654172 
C 469.640394 173.986554 469.453637 174.437425 469.453637 174.907486 
C 469.453637 175.377546 469.640394 175.828417 469.972777 176.1608 
C 470.30516 176.493183 470.756031 176.67994 471.226091 176.67994 
z
" style="stroke:#000000;stroke-width:0.886227;"/>
   </g>
   <g id="line2d_33">
    <path clip-path="url(#p04c51da2c7)" d="M 65.407909 53.900144 
L 78.935182 54.83504 
L 92.462455 61.224284 
L 105.989727 62.857519 
L 119.517 70.931074 
L 133.044273 77.465767 
L 146.571545 82.385716 
L 160.098818 90.479157 
L 173.626091 93.772238 
L 187.153364 105.94588 
L 200.680636 115.542786 
L 214.207909 123.297502 
L 227.735182 129.1314 
L 241.262455 141.135089 
L 254.789727 141.54507 
L 268.317 150.968445 
L 281.844273 149.304734 
L 295.371545 155.062699 
L 308.898818 157.181062 
L 322.426091 161.648611 
L 335.953364 153.690867 
L 349.480636 154.96269 
L 363.007909 160.368061 
L 376.535182 167.8088 
L 390.062455 176.626908 
L 403.589727 168.176123 
L 417.117 167.226332 
L 430.644273 174.716123 
L 444.171545 173.881856 
L 457.698818 180.966149 
L 471.226091 174.907486 
" style="fill:none;stroke:#000000;stroke-width:0.886227;"/>
   </g>
  </g>
 </g>
 <defs>
  <clipPath id="p04c51da2c7">
   <rect height="221.76" width="446.4" x="45.117" y="7.2"/>
  </clipPath>
 </defs>
</svg>
