<?xml version="1.0" encoding="utf-8" standalone="no"?>
<!DOCTYPE svg PUBLIC "-//W3C//DTD SVG 1.1//EN"
  "http://www.w3.org/Graphics/SVG/1.1/DTD/svg11.dtd">
<!-- Created with matplotlib (https://matplotlib.org/) -->
<svg height="264.672687pt" version="1.1" viewBox="0 0 498.717 264.672687" width="498.717pt" xmlns="http://www.w3.org/2000/svg" xmlns:xlink="http://www.w3.org/1999/xlink">
 <defs>
  <style type="text/css">
*{stroke-linecap:butt;stroke-linejoin:round;}
  </style>
 </defs>
 <g id="figure_1">
  <g id="patch_1">
   <path d="M 0 264.672687 
L 498.717 264.672687 
L 498.717 0 
L 0 0 
z
" style="fill:#ffffff;stroke:#ffffff;stroke-linejoin:miter;"/>
  </g>
  <g id="axes_1">
   <g id="patch_2">
    <path d="M 45.117 228.96 
L 491.517 228.96 
L 491.517 7.2 
L 45.117 7.2 
z
" style="fill:#ffffff;"/>
   </g>
   <g id="matplotlib.axis_1">
    <g id="xtick_1">
     <g id="line2d_1">
      <path d="M 65.407909 228.96 
" style="fill:none;stroke:#000000;stroke-width:1.5;"/>
      <defs>
       <path d="M 0 0 
L 0 2.75 
" id="m382a348a86" style="stroke:#000000;"/>
      </defs>
      <g>
       <use style="stroke:#000000;" x="65.407909" xlink:href="#m382a348a86" y="228.96"/>
      </g>
     </g>
     <g id="text_1">
      <!-- 1970 -->
      <defs>
       <path d="M 12.40625 8.296875 
L 28.515625 8.296875 
L 28.515625 63.921875 
L 10.984375 60.40625 
L 10.984375 69.390625 
L 28.421875 72.90625 
L 38.28125 72.90625 
L 38.28125 8.296875 
L 54.390625 8.296875 
L 54.390625 0 
L 12.40625 0 
z
" id="DejaVuSans-49"/>
       <path d="M 10.984375 1.515625 
L 10.984375 10.5 
Q 14.703125 8.734375 18.5 7.8125 
Q 22.3125 6.890625 25.984375 6.890625 
Q 35.75 6.890625 40.890625 13.453125 
Q 46.046875 20.015625 46.78125 33.40625 
Q 43.953125 29.203125 39.59375 26.953125 
Q 35.25 24.703125 29.984375 24.703125 
Q 19.046875 24.703125 12.671875 31.3125 
Q 6.296875 37.9375 6.296875 49.421875 
Q 6.296875 60.640625 12.9375 67.421875 
Q 19.578125 74.21875 30.609375 74.21875 
Q 43.265625 74.21875 49.921875 64.515625 
Q 56.59375 54.828125 56.59375 36.375 
Q 56.59375 19.140625 48.40625 8.859375 
Q 40.234375 -1.421875 26.421875 -1.421875 
Q 22.703125 -1.421875 18.890625 -0.6875 
Q 15.09375 0.046875 10.984375 1.515625 
z
M 30.609375 32.421875 
Q 37.25 32.421875 41.125 36.953125 
Q 45.015625 41.5 45.015625 49.421875 
Q 45.015625 57.28125 41.125 61.84375 
Q 37.25 66.40625 30.609375 66.40625 
Q 23.96875 66.40625 20.09375 61.84375 
Q 16.21875 57.28125 16.21875 49.421875 
Q 16.21875 41.5 20.09375 36.953125 
Q 23.96875 32.421875 30.609375 32.421875 
z
" id="DejaVuSans-57"/>
       <path d="M 8.203125 72.90625 
L 55.078125 72.90625 
L 55.078125 68.703125 
L 28.609375 0 
L 18.3125 0 
L 43.21875 64.59375 
L 8.203125 64.59375 
z
" id="DejaVuSans-55"/>
       <path d="M 31.78125 66.40625 
Q 24.171875 66.40625 20.328125 58.90625 
Q 16.5 51.421875 16.5 36.375 
Q 16.5 21.390625 20.328125 13.890625 
Q 24.171875 6.390625 31.78125 6.390625 
Q 39.453125 6.390625 43.28125 13.890625 
Q 47.125 21.390625 47.125 36.375 
Q 47.125 51.421875 43.28125 58.90625 
Q 39.453125 66.40625 31.78125 66.40625 
z
M 31.78125 74.21875 
Q 44.046875 74.21875 50.515625 64.515625 
Q 56.984375 54.828125 56.984375 36.375 
Q 56.984375 17.96875 50.515625 8.265625 
Q 44.046875 -1.421875 31.78125 -1.421875 
Q 19.53125 -1.421875 13.0625 8.265625 
Q 6.59375 17.96875 6.59375 36.375 
Q 6.59375 54.828125 13.0625 64.515625 
Q 19.53125 74.21875 31.78125 74.21875 
z
" id="DejaVuSans-48"/>
      </defs>
      <g transform="translate(54.209909 240.596625)scale(0.088 -0.088)">
       <use xlink:href="#DejaVuSans-49"/>
       <use x="63.623047" xlink:href="#DejaVuSans-57"/>
       <use x="127.246094" xlink:href="#DejaVuSans-55"/>
       <use x="190.869141" xlink:href="#DejaVuSans-48"/>
      </g>
     </g>
    </g>
    <g id="xtick_2">
     <g id="line2d_2">
      <path d="M 146.571545 228.96 
" style="fill:none;stroke:#000000;stroke-width:1.5;"/>
      <g>
       <use style="stroke:#000000;" x="146.571545" xlink:href="#m382a348a86" y="228.96"/>
      </g>
     </g>
     <g id="text_2">
      <!-- 1980 -->
      <defs>
       <path d="M 31.78125 34.625 
Q 24.75 34.625 20.71875 30.859375 
Q 16.703125 27.09375 16.703125 20.515625 
Q 16.703125 13.921875 20.71875 10.15625 
Q 24.75 6.390625 31.78125 6.390625 
Q 38.8125 6.390625 42.859375 10.171875 
Q 46.921875 13.96875 46.921875 20.515625 
Q 46.921875 27.09375 42.890625 30.859375 
Q 38.875 34.625 31.78125 34.625 
z
M 21.921875 38.8125 
Q 15.578125 40.375 12.03125 44.71875 
Q 8.5 49.078125 8.5 55.328125 
Q 8.5 64.0625 14.71875 69.140625 
Q 20.953125 74.21875 31.78125 74.21875 
Q 42.671875 74.21875 48.875 69.140625 
Q 55.078125 64.0625 55.078125 55.328125 
Q 55.078125 49.078125 51.53125 44.71875 
Q 48 40.375 41.703125 38.8125 
Q 48.828125 37.15625 52.796875 32.3125 
Q 56.78125 27.484375 56.78125 20.515625 
Q 56.78125 9.90625 50.3125 4.234375 
Q 43.84375 -1.421875 31.78125 -1.421875 
Q 19.734375 -1.421875 13.25 4.234375 
Q 6.78125 9.90625 6.78125 20.515625 
Q 6.78125 27.484375 10.78125 32.3125 
Q 14.796875 37.15625 21.921875 38.8125 
z
M 18.3125 54.390625 
Q 18.3125 48.734375 21.84375 45.5625 
Q 25.390625 42.390625 31.78125 42.390625 
Q 38.140625 42.390625 41.71875 45.5625 
Q 45.3125 48.734375 45.3125 54.390625 
Q 45.3125 60.0625 41.71875 63.234375 
Q 38.140625 66.40625 31.78125 66.40625 
Q 25.390625 66.40625 21.84375 63.234375 
Q 18.3125 60.0625 18.3125 54.390625 
z
" id="DejaVuSans-56"/>
      </defs>
      <g transform="translate(135.373545 240.596625)scale(0.088 -0.088)">
       <use xlink:href="#DejaVuSans-49"/>
       <use x="63.623047" xlink:href="#DejaVuSans-57"/>
       <use x="127.246094" xlink:href="#DejaVuSans-56"/>
       <use x="190.869141" xlink:href="#DejaVuSans-48"/>
      </g>
     </g>
    </g>
    <g id="xtick_3">
     <g id="line2d_3">
      <path d="M 227.735182 228.96 
" style="fill:none;stroke:#000000;stroke-width:1.5;"/>
      <g>
       <use style="stroke:#000000;" x="227.735182" xlink:href="#m382a348a86" y="228.96"/>
      </g>
     </g>
     <g id="text_3">
      <!-- 1990 -->
      <g transform="translate(216.537182 240.596625)scale(0.088 -0.088)">
       <use xlink:href="#DejaVuSans-49"/>
       <use x="63.623047" xlink:href="#DejaVuSans-57"/>
       <use x="127.246094" xlink:href="#DejaVuSans-57"/>
       <use x="190.869141" xlink:href="#DejaVuSans-48"/>
      </g>
     </g>
    </g>
    <g id="xtick_4">
     <g id="line2d_4">
      <path d="M 308.898818 228.96 
" style="fill:none;stroke:#000000;stroke-width:1.5;"/>
      <g>
       <use style="stroke:#000000;" x="308.898818" xlink:href="#m382a348a86" y="228.96"/>
      </g>
     </g>
     <g id="text_4">
      <!-- 2000 -->
      <defs>
       <path d="M 19.1875 8.296875 
L 53.609375 8.296875 
L 53.609375 0 
L 7.328125 0 
L 7.328125 8.296875 
Q 12.9375 14.109375 22.625 23.890625 
Q 32.328125 33.6875 34.8125 36.53125 
Q 39.546875 41.84375 41.421875 45.53125 
Q 43.3125 49.21875 43.3125 52.78125 
Q 43.3125 58.59375 39.234375 62.25 
Q 35.15625 65.921875 28.609375 65.921875 
Q 23.96875 65.921875 18.8125 64.3125 
Q 13.671875 62.703125 7.8125 59.421875 
L 7.8125 69.390625 
Q 13.765625 71.78125 18.9375 73 
Q 24.125 74.21875 28.421875 74.21875 
Q 39.75 74.21875 46.484375 68.546875 
Q 53.21875 62.890625 53.21875 53.421875 
Q 53.21875 48.921875 51.53125 44.890625 
Q 49.859375 40.875 45.40625 35.40625 
Q 44.1875 33.984375 37.640625 27.21875 
Q 31.109375 20.453125 19.1875 8.296875 
z
" id="DejaVuSans-50"/>
      </defs>
      <g transform="translate(297.700818 240.596625)scale(0.088 -0.088)">
       <use xlink:href="#DejaVuSans-50"/>
       <use x="63.623047" xlink:href="#DejaVuSans-48"/>
       <use x="127.246094" xlink:href="#DejaVuSans-48"/>
       <use x="190.869141" xlink:href="#DejaVuSans-48"/>
      </g>
     </g>
    </g>
    <g id="xtick_5">
     <g id="line2d_5">
      <path d="M 390.062455 228.96 
" style="fill:none;stroke:#000000;stroke-width:1.5;"/>
      <g>
       <use style="stroke:#000000;" x="390.062455" xlink:href="#m382a348a86" y="228.96"/>
      </g>
     </g>
     <g id="text_5">
      <!-- 2010 -->
      <g transform="translate(378.864455 240.596625)scale(0.088 -0.088)">
       <use xlink:href="#DejaVuSans-50"/>
       <use x="63.623047" xlink:href="#DejaVuSans-48"/>
       <use x="127.246094" xlink:href="#DejaVuSans-49"/>
       <use x="190.869141" xlink:href="#DejaVuSans-48"/>
      </g>
     </g>
    </g>
    <g id="xtick_6">
     <g id="line2d_6">
      <path d="M 471.226091 228.96 
" style="fill:none;stroke:#000000;stroke-width:1.5;"/>
      <g>
       <use style="stroke:#000000;" x="471.226091" xlink:href="#m382a348a86" y="228.96"/>
      </g>
     </g>
     <g id="text_6">
      <!-- 2020 -->
      <g transform="translate(460.028091 240.596625)scale(0.088 -0.088)">
       <use xlink:href="#DejaVuSans-50"/>
       <use x="63.623047" xlink:href="#DejaVuSans-48"/>
       <use x="127.246094" xlink:href="#DejaVuSans-50"/>
       <use x="190.869141" xlink:href="#DejaVuSans-48"/>
      </g>
     </g>
    </g>
    <g id="xtick_7">
     <g id="line2d_7">
      <path d="M 105.989727 228.96 
" style="fill:none;stroke:#000000;stroke-width:1.5;"/>
      <defs>
       <path d="M 0 0 
L 0 1.375 
" id="m68d2dbb51f" style="stroke:#000000;"/>
      </defs>
      <g>
       <use style="stroke:#000000;" x="105.989727" xlink:href="#m68d2dbb51f" y="228.96"/>
      </g>
     </g>
    </g>
    <g id="xtick_8">
     <g id="line2d_8">
      <path d="M 187.153364 228.96 
" style="fill:none;stroke:#000000;stroke-width:1.5;"/>
      <g>
       <use style="stroke:#000000;" x="187.153364" xlink:href="#m68d2dbb51f" y="228.96"/>
      </g>
     </g>
    </g>
    <g id="xtick_9">
     <g id="line2d_9">
      <path d="M 268.317 228.96 
" style="fill:none;stroke:#000000;stroke-width:1.5;"/>
      <g>
       <use style="stroke:#000000;" x="268.317" xlink:href="#m68d2dbb51f" y="228.96"/>
      </g>
     </g>
    </g>
    <g id="xtick_10">
     <g id="line2d_10">
      <path d="M 349.480636 228.96 
" style="fill:none;stroke:#000000;stroke-width:1.5;"/>
      <g>
       <use style="stroke:#000000;" x="349.480636" xlink:href="#m68d2dbb51f" y="228.96"/>
      </g>
     </g>
    </g>
    <g id="xtick_11">
     <g id="line2d_11">
      <path d="M 430.644273 228.96 
" style="fill:none;stroke:#000000;stroke-width:1.5;"/>
      <g>
       <use style="stroke:#000000;" x="430.644273" xlink:href="#m68d2dbb51f" y="228.96"/>
      </g>
     </g>
    </g>
    <g id="text_7">
     <!-- Year -->
     <defs>
      <path d="M -0.203125 72.90625 
L 10.40625 72.90625 
L 30.609375 42.921875 
L 50.6875 72.90625 
L 61.28125 72.90625 
L 35.5 34.71875 
L 35.5 0 
L 25.59375 0 
L 25.59375 34.71875 
z
" id="DejaVuSans-89"/>
      <path d="M 56.203125 29.59375 
L 56.203125 25.203125 
L 14.890625 25.203125 
Q 15.484375 15.921875 20.484375 11.0625 
Q 25.484375 6.203125 34.421875 6.203125 
Q 39.59375 6.203125 44.453125 7.46875 
Q 49.3125 8.734375 54.109375 11.28125 
L 54.109375 2.78125 
Q 49.265625 0.734375 44.1875 -0.34375 
Q 39.109375 -1.421875 33.890625 -1.421875 
Q 20.796875 -1.421875 13.15625 6.1875 
Q 5.515625 13.8125 5.515625 26.8125 
Q 5.515625 40.234375 12.765625 48.109375 
Q 20.015625 56 32.328125 56 
Q 43.359375 56 49.78125 48.890625 
Q 56.203125 41.796875 56.203125 29.59375 
z
M 47.21875 32.234375 
Q 47.125 39.59375 43.09375 43.984375 
Q 39.0625 48.390625 32.421875 48.390625 
Q 24.90625 48.390625 20.390625 44.140625 
Q 15.875 39.890625 15.1875 32.171875 
z
" id="DejaVuSans-101"/>
      <path d="M 34.28125 27.484375 
Q 23.390625 27.484375 19.1875 25 
Q 14.984375 22.515625 14.984375 16.5 
Q 14.984375 11.71875 18.140625 8.90625 
Q 21.296875 6.109375 26.703125 6.109375 
Q 34.1875 6.109375 38.703125 11.40625 
Q 43.21875 16.703125 43.21875 25.484375 
L 43.21875 27.484375 
z
M 52.203125 31.203125 
L 52.203125 0 
L 43.21875 0 
L 43.21875 8.296875 
Q 40.140625 3.328125 35.546875 0.953125 
Q 30.953125 -1.421875 24.3125 -1.421875 
Q 15.921875 -1.421875 10.953125 3.296875 
Q 6 8.015625 6 15.921875 
Q 6 25.140625 12.171875 29.828125 
Q 18.359375 34.515625 30.609375 34.515625 
L 43.21875 34.515625 
L 43.21875 35.40625 
Q 43.21875 41.609375 39.140625 45 
Q 35.0625 48.390625 27.6875 48.390625 
Q 23 48.390625 18.546875 47.265625 
Q 14.109375 46.140625 10.015625 43.890625 
L 10.015625 52.203125 
Q 14.9375 54.109375 19.578125 55.046875 
Q 24.21875 56 28.609375 56 
Q 40.484375 56 46.34375 49.84375 
Q 52.203125 43.703125 52.203125 31.203125 
z
" id="DejaVuSans-97"/>
      <path d="M 41.109375 46.296875 
Q 39.59375 47.171875 37.8125 47.578125 
Q 36.03125 48 33.890625 48 
Q 26.265625 48 22.1875 43.046875 
Q 18.109375 38.09375 18.109375 28.8125 
L 18.109375 0 
L 9.078125 0 
L 9.078125 54.6875 
L 18.109375 54.6875 
L 18.109375 46.1875 
Q 20.953125 51.171875 25.484375 53.578125 
Q 30.03125 56 36.53125 56 
Q 37.453125 56 38.578125 55.875 
Q 39.703125 55.765625 41.0625 55.515625 
z
" id="DejaVuSans-114"/>
     </defs>
     <g transform="translate(248.753172 255.185031)scale(0.11 -0.11)">
      <use xlink:href="#DejaVuSans-89"/>
      <use x="60.880859" xlink:href="#DejaVuSans-101"/>
      <use x="122.404297" xlink:href="#DejaVuSans-97"/>
      <use x="183.683594" xlink:href="#DejaVuSans-114"/>
     </g>
    </g>
   </g>
   <g id="matplotlib.axis_2">
    <g id="ytick_1">
     <g id="line2d_12">
      <path d="M 45.117 218.88 
" style="fill:none;stroke:#000000;stroke-width:1.5;"/>
      <defs>
       <path d="M 0 0 
L -2.75 0 
" id="m5927be7110" style="stroke:#000000;"/>
      </defs>
      <g>
       <use style="stroke:#000000;" x="45.117" xlink:href="#m5927be7110" y="218.88"/>
      </g>
     </g>
     <g id="text_8">
      <!-- 0 -->
      <g transform="translate(34.568 221.30825)scale(0.088 -0.088)">
       <use xlink:href="#DejaVuSans-48"/>
      </g>
     </g>
    </g>
    <g id="ytick_2">
     <g id="line2d_13">
      <path d="M 45.117 168.48 
" style="fill:none;stroke:#000000;stroke-width:1.5;"/>
      <g>
       <use style="stroke:#000000;" x="45.117" xlink:href="#m5927be7110" y="168.48"/>
      </g>
     </g>
     <g id="text_9">
      <!-- 25 -->
      <defs>
       <path d="M 10.796875 72.90625 
L 49.515625 72.90625 
L 49.515625 64.59375 
L 19.828125 64.59375 
L 19.828125 46.734375 
Q 21.96875 47.46875 24.109375 47.828125 
Q 26.265625 48.1875 28.421875 48.1875 
Q 40.625 48.1875 47.75 41.5 
Q 54.890625 34.8125 54.890625 23.390625 
Q 54.890625 11.625 47.5625 5.09375 
Q 40.234375 -1.421875 26.90625 -1.421875 
Q 22.3125 -1.421875 17.546875 -0.640625 
Q 12.796875 0.140625 7.71875 1.703125 
L 7.71875 11.625 
Q 12.109375 9.234375 16.796875 8.0625 
Q 21.484375 6.890625 26.703125 6.890625 
Q 35.15625 6.890625 40.078125 11.328125 
Q 45.015625 15.765625 45.015625 23.390625 
Q 45.015625 31 40.078125 35.4375 
Q 35.15625 39.890625 26.703125 39.890625 
Q 22.75 39.890625 18.8125 39.015625 
Q 14.890625 38.140625 10.796875 36.28125 
z
" id="DejaVuSans-53"/>
      </defs>
      <g transform="translate(28.969 170.90825)scale(0.088 -0.088)">
       <use xlink:href="#DejaVuSans-50"/>
       <use x="63.623047" xlink:href="#DejaVuSans-53"/>
      </g>
     </g>
    </g>
    <g id="ytick_3">
     <g id="line2d_14">
      <path d="M 45.117 118.08 
" style="fill:none;stroke:#000000;stroke-width:1.5;"/>
      <g>
       <use style="stroke:#000000;" x="45.117" xlink:href="#m5927be7110" y="118.08"/>
      </g>
     </g>
     <g id="text_10">
      <!-- 50 -->
      <g transform="translate(28.969 120.50825)scale(0.088 -0.088)">
       <use xlink:href="#DejaVuSans-53"/>
       <use x="63.623047" xlink:href="#DejaVuSans-48"/>
      </g>
     </g>
    </g>
    <g id="ytick_4">
     <g id="line2d_15">
      <path d="M 45.117 67.68 
" style="fill:none;stroke:#000000;stroke-width:1.5;"/>
      <g>
       <use style="stroke:#000000;" x="45.117" xlink:href="#m5927be7110" y="67.68"/>
      </g>
     </g>
     <g id="text_11">
      <!-- 75 -->
      <g transform="translate(28.969 70.10825)scale(0.088 -0.088)">
       <use xlink:href="#DejaVuSans-55"/>
       <use x="63.623047" xlink:href="#DejaVuSans-53"/>
      </g>
     </g>
    </g>
    <g id="ytick_5">
     <g id="line2d_16">
      <path d="M 45.117 17.28 
" style="fill:none;stroke:#000000;stroke-width:1.5;"/>
      <g>
       <use style="stroke:#000000;" x="45.117" xlink:href="#m5927be7110" y="17.28"/>
      </g>
     </g>
     <g id="text_12">
      <!-- 100 -->
      <g transform="translate(23.37 19.70825)scale(0.088 -0.088)">
       <use xlink:href="#DejaVuSans-49"/>
       <use x="63.623047" xlink:href="#DejaVuSans-48"/>
       <use x="127.246094" xlink:href="#DejaVuSans-48"/>
      </g>
     </g>
    </g>
    <g id="ytick_6">
     <g id="line2d_17">
      <path d="M 45.117 193.68 
" style="fill:none;stroke:#000000;stroke-width:1.5;"/>
      <defs>
       <path d="M 0 0 
L -1.375 0 
" id="m8619c894d1" style="stroke:#000000;"/>
      </defs>
      <g>
       <use style="stroke:#000000;" x="45.117" xlink:href="#m8619c894d1" y="193.68"/>
      </g>
     </g>
    </g>
    <g id="ytick_7">
     <g id="line2d_18">
      <path d="M 45.117 143.28 
" style="fill:none;stroke:#000000;stroke-width:1.5;"/>
      <g>
       <use style="stroke:#000000;" x="45.117" xlink:href="#m8619c894d1" y="143.28"/>
      </g>
     </g>
    </g>
    <g id="ytick_8">
     <g id="line2d_19">
      <path d="M 45.117 92.88 
" style="fill:none;stroke:#000000;stroke-width:1.5;"/>
      <g>
       <use style="stroke:#000000;" x="45.117" xlink:href="#m8619c894d1" y="92.88"/>
      </g>
     </g>
    </g>
    <g id="ytick_9">
     <g id="line2d_20">
      <path d="M 45.117 42.48 
" style="fill:none;stroke:#000000;stroke-width:1.5;"/>
      <g>
       <use style="stroke:#000000;" x="45.117" xlink:href="#m8619c894d1" y="42.48"/>
      </g>
     </g>
    </g>
    <g id="text_13">
     <!-- $P_{Q1p_{min}}$ [%] -->
     <defs>
      <path d="M 16.890625 72.90625 
L 39.703125 72.90625 
Q 49.65625 72.90625 54.875 68.265625 
Q 60.109375 63.625 60.109375 54.6875 
Q 60.109375 42.671875 52.390625 35.984375 
Q 44.671875 29.296875 30.71875 29.296875 
L 18.3125 29.296875 
L 12.59375 0 
L 2.6875 0 
z
M 25.203125 64.796875 
L 19.921875 37.40625 
L 32.328125 37.40625 
Q 40.71875 37.40625 45.203125 41.703125 
Q 49.703125 46 49.703125 54 
Q 49.703125 59.125 46.65625 61.953125 
Q 43.609375 64.796875 38.09375 64.796875 
z
" id="DejaVuSans-Oblique-80"/>
      <path d="M 36.078125 -1.3125 
Q 35.546875 -1.375 34.953125 -1.390625 
Q 34.375 -1.421875 33.203125 -1.421875 
Q 19.53125 -1.421875 11.8125 6.421875 
Q 4.109375 14.265625 4.109375 28.078125 
Q 4.109375 36.234375 7.0625 44.4375 
Q 10.015625 52.640625 15.28125 59.1875 
Q 21.390625 66.703125 29.03125 70.453125 
Q 36.671875 74.21875 45.90625 74.21875 
Q 59.28125 74.21875 66.984375 66.328125 
Q 74.703125 58.453125 74.703125 44.828125 
Q 74.703125 30.125 66.640625 17.921875 
Q 58.59375 5.71875 45.609375 0.6875 
L 55.515625 -12.890625 
L 44.484375 -12.890625 
z
M 45.609375 66.21875 
Q 37.5 66.21875 31.296875 62.28125 
Q 25.09375 58.34375 20.515625 50.296875 
Q 17.578125 45.171875 16.03125 39.40625 
Q 14.5 33.640625 14.5 27.78125 
Q 14.5 17.625 19.359375 12.109375 
Q 24.21875 6.59375 33.109375 6.59375 
Q 41.109375 6.59375 47.375 10.5625 
Q 53.65625 14.546875 58.109375 22.40625 
Q 61.078125 27.6875 62.640625 33.46875 
Q 64.203125 39.265625 64.203125 45.015625 
Q 64.203125 55.125 59.3125 60.671875 
Q 54.4375 66.21875 45.609375 66.21875 
z
" id="DejaVuSans-Oblique-81"/>
      <path d="M 49.609375 33.6875 
Q 49.609375 40.875 46.484375 44.671875 
Q 43.359375 48.484375 37.5 48.484375 
Q 33.5 48.484375 29.859375 46.4375 
Q 26.21875 44.390625 23.390625 40.484375 
Q 20.609375 36.625 18.9375 31.15625 
Q 17.28125 25.6875 17.28125 20.3125 
Q 17.28125 13.484375 20.40625 9.796875 
Q 23.53125 6.109375 29.296875 6.109375 
Q 33.546875 6.109375 37.1875 8.109375 
Q 40.828125 10.109375 43.40625 13.921875 
Q 46.1875 17.921875 47.890625 23.34375 
Q 49.609375 28.765625 49.609375 33.6875 
z
M 21.78125 46.390625 
Q 25.390625 51.125 30.296875 53.5625 
Q 35.203125 56 41.21875 56 
Q 49.609375 56 54.25 50.5 
Q 58.890625 45.015625 58.890625 35.109375 
Q 58.890625 27 56 19.65625 
Q 53.125 12.3125 47.703125 6.5 
Q 44.09375 2.640625 39.546875 0.609375 
Q 35.015625 -1.421875 29.984375 -1.421875 
Q 24.171875 -1.421875 20.21875 1 
Q 16.265625 3.421875 14.3125 8.203125 
L 8.6875 -20.796875 
L -0.296875 -20.796875 
L 14.40625 54.6875 
L 23.390625 54.6875 
z
" id="DejaVuSans-Oblique-112"/>
      <path d="M 89.796875 33.015625 
L 83.40625 0 
L 74.421875 0 
L 80.71875 32.71875 
Q 81.109375 34.8125 81.296875 36.328125 
Q 81.5 37.84375 81.5 38.921875 
Q 81.5 43.3125 79.046875 45.75 
Q 76.609375 48.1875 72.21875 48.1875 
Q 65.671875 48.1875 60.546875 43.28125 
Q 55.421875 38.375 53.90625 30.515625 
L 47.90625 0 
L 38.921875 0 
L 45.3125 32.71875 
Q 45.703125 34.515625 45.890625 36.046875 
Q 46.09375 37.59375 46.09375 38.8125 
Q 46.09375 43.265625 43.65625 45.71875 
Q 41.21875 48.1875 36.921875 48.1875 
Q 30.28125 48.1875 25.140625 43.28125 
Q 20.015625 38.375 18.5 30.515625 
L 12.5 0 
L 3.515625 0 
L 14.203125 54.6875 
L 23.1875 54.6875 
L 21.484375 46.1875 
Q 25.140625 50.984375 30.046875 53.484375 
Q 34.96875 56 40.578125 56 
Q 46.53125 56 50.359375 52.875 
Q 54.203125 49.75 54.984375 44.1875 
Q 59.078125 49.953125 64.46875 52.96875 
Q 69.875 56 75.875 56 
Q 82.90625 56 86.734375 51.953125 
Q 90.578125 47.90625 90.578125 40.484375 
Q 90.578125 38.875 90.375 36.9375 
Q 90.1875 35.015625 89.796875 33.015625 
z
" id="DejaVuSans-Oblique-109"/>
      <path d="M 18.3125 75.984375 
L 27.296875 75.984375 
L 25.09375 64.59375 
L 16.109375 64.59375 
z
M 14.203125 54.6875 
L 23.1875 54.6875 
L 12.5 0 
L 3.515625 0 
z
" id="DejaVuSans-Oblique-105"/>
      <path d="M 55.71875 33.015625 
L 49.3125 0 
L 40.28125 0 
L 46.6875 32.671875 
Q 47.125 34.96875 47.359375 36.71875 
Q 47.609375 38.484375 47.609375 39.5 
Q 47.609375 43.609375 45.015625 45.890625 
Q 42.4375 48.1875 37.796875 48.1875 
Q 30.5625 48.1875 25.34375 43.375 
Q 20.125 38.578125 18.5 30.328125 
L 12.5 0 
L 3.515625 0 
L 14.109375 54.6875 
L 23.09375 54.6875 
L 21.296875 46.09375 
Q 25.046875 50.828125 30.3125 53.40625 
Q 35.59375 56 41.40625 56 
Q 48.640625 56 52.609375 52.09375 
Q 56.59375 48.1875 56.59375 41.109375 
Q 56.59375 39.359375 56.375 37.359375 
Q 56.15625 35.359375 55.71875 33.015625 
z
" id="DejaVuSans-Oblique-110"/>
      <path id="DejaVuSans-32"/>
      <path d="M 8.59375 75.984375 
L 29.296875 75.984375 
L 29.296875 69 
L 17.578125 69 
L 17.578125 -6.203125 
L 29.296875 -6.203125 
L 29.296875 -13.1875 
L 8.59375 -13.1875 
z
" id="DejaVuSans-91"/>
      <path d="M 72.703125 32.078125 
Q 68.453125 32.078125 66.03125 28.46875 
Q 63.625 24.859375 63.625 18.40625 
Q 63.625 12.0625 66.03125 8.421875 
Q 68.453125 4.78125 72.703125 4.78125 
Q 76.859375 4.78125 79.265625 8.421875 
Q 81.6875 12.0625 81.6875 18.40625 
Q 81.6875 24.8125 79.265625 28.4375 
Q 76.859375 32.078125 72.703125 32.078125 
z
M 72.703125 38.28125 
Q 80.421875 38.28125 84.953125 32.90625 
Q 89.5 27.546875 89.5 18.40625 
Q 89.5 9.28125 84.9375 3.921875 
Q 80.375 -1.421875 72.703125 -1.421875 
Q 64.890625 -1.421875 60.34375 3.921875 
Q 55.8125 9.28125 55.8125 18.40625 
Q 55.8125 27.59375 60.375 32.9375 
Q 64.9375 38.28125 72.703125 38.28125 
z
M 22.3125 68.015625 
Q 18.109375 68.015625 15.6875 64.375 
Q 13.28125 60.75 13.28125 54.390625 
Q 13.28125 47.953125 15.671875 44.328125 
Q 18.0625 40.71875 22.3125 40.71875 
Q 26.5625 40.71875 28.96875 44.328125 
Q 31.390625 47.953125 31.390625 54.390625 
Q 31.390625 60.6875 28.953125 64.34375 
Q 26.515625 68.015625 22.3125 68.015625 
z
M 66.40625 74.21875 
L 74.21875 74.21875 
L 28.609375 -1.421875 
L 20.796875 -1.421875 
z
M 22.3125 74.21875 
Q 30.03125 74.21875 34.609375 68.875 
Q 39.203125 63.53125 39.203125 54.390625 
Q 39.203125 45.171875 34.640625 39.84375 
Q 30.078125 34.515625 22.3125 34.515625 
Q 14.546875 34.515625 10.03125 39.859375 
Q 5.515625 45.21875 5.515625 54.390625 
Q 5.515625 63.484375 10.046875 68.84375 
Q 14.59375 74.21875 22.3125 74.21875 
z
" id="DejaVuSans-37"/>
      <path d="M 30.421875 75.984375 
L 30.421875 -13.1875 
L 9.71875 -13.1875 
L 9.71875 -6.203125 
L 21.390625 -6.203125 
L 21.390625 69 
L 9.71875 69 
L 9.71875 75.984375 
z
" id="DejaVuSans-93"/>
     </defs>
     <g transform="translate(15.56 144.525)rotate(-90)scale(0.11 -0.11)">
      <use transform="translate(0 0.015625)" xlink:href="#DejaVuSans-Oblique-80"/>
      <use transform="translate(60.302734 -16.390625)scale(0.7)" xlink:href="#DejaVuSans-Oblique-81"/>
      <use transform="translate(115.400391 -16.390625)scale(0.7)" xlink:href="#DejaVuSans-49"/>
      <use transform="translate(159.936523 -16.390625)scale(0.7)" xlink:href="#DejaVuSans-Oblique-112"/>
      <use transform="translate(204.370117 -27.875)scale(0.49)" xlink:href="#DejaVuSans-Oblique-109"/>
      <use transform="translate(252.102051 -27.875)scale(0.49)" xlink:href="#DejaVuSans-Oblique-105"/>
      <use transform="translate(265.71582 -27.875)scale(0.49)" xlink:href="#DejaVuSans-Oblique-110"/>
      <use transform="translate(301.419922 0.015625)" xlink:href="#DejaVuSans-32"/>
      <use transform="translate(333.207031 0.015625)" xlink:href="#DejaVuSans-91"/>
      <use transform="translate(372.220703 0.015625)" xlink:href="#DejaVuSans-37"/>
      <use transform="translate(467.240234 0.015625)" xlink:href="#DejaVuSans-93"/>
     </g>
    </g>
   </g>
   <g id="LineCollection_1">
    <path clip-path="url(#p73d4fe477f)" d="M 89.757 210.62714 
L 89.757 210.62714 
" style="fill:none;stroke:#9da0a2;stroke-width:1.32934;"/>
    <path clip-path="url(#p73d4fe477f)" d="M 105.989727 211.684807 
L 105.989727 211.684807 
" style="fill:none;stroke:#9da0a2;stroke-width:1.32934;"/>
    <path clip-path="url(#p73d4fe477f)" d="M 114.106091 213.726929 
L 114.106091 213.726929 
" style="fill:none;stroke:#9da0a2;stroke-width:1.32934;"/>
    <path clip-path="url(#p73d4fe477f)" d="M 122.222455 211.729205 
L 122.222455 211.729205 
" style="fill:none;stroke:#9da0a2;stroke-width:1.32934;"/>
    <path clip-path="url(#p73d4fe477f)" d="M 130.338818 218.278395 
L 130.338818 218.278395 
" style="fill:none;stroke:#9da0a2;stroke-width:1.32934;"/>
    <path clip-path="url(#p73d4fe477f)" d="M 138.455182 168.683321 
L 138.455182 168.683321 
" style="fill:none;stroke:#9da0a2;stroke-width:1.32934;"/>
    <path clip-path="url(#p73d4fe477f)" d="M 146.571545 210.113682 
L 146.571545 210.113682 
" style="fill:none;stroke:#9da0a2;stroke-width:1.32934;"/>
    <path clip-path="url(#p73d4fe477f)" d="M 154.687909 160.704589 
L 154.687909 160.704589 
" style="fill:none;stroke:#9da0a2;stroke-width:1.32934;"/>
    <path clip-path="url(#p73d4fe477f)" d="M 162.804273 148.403895 
L 162.804273 148.403895 
" style="fill:none;stroke:#9da0a2;stroke-width:1.32934;"/>
    <path clip-path="url(#p73d4fe477f)" d="M 170.920636 165.669145 
L 170.920636 165.669145 
" style="fill:none;stroke:#9da0a2;stroke-width:1.32934;"/>
    <path clip-path="url(#p73d4fe477f)" d="M 179.037 183.767666 
L 179.037 183.767666 
" style="fill:none;stroke:#9da0a2;stroke-width:1.32934;"/>
    <path clip-path="url(#p73d4fe477f)" d="M 187.153364 155.383328 
L 187.153364 155.383328 
" style="fill:none;stroke:#9da0a2;stroke-width:1.32934;"/>
    <path clip-path="url(#p73d4fe477f)" d="M 195.269727 173.837419 
L 195.269727 173.837419 
" style="fill:none;stroke:#9da0a2;stroke-width:1.32934;"/>
    <path clip-path="url(#p73d4fe477f)" d="M 203.386091 150.006577 
L 203.386091 150.006577 
" style="fill:none;stroke:#9da0a2;stroke-width:1.32934;"/>
    <path clip-path="url(#p73d4fe477f)" d="M 211.502455 168.939783 
L 211.502455 168.939783 
" style="fill:none;stroke:#9da0a2;stroke-width:1.32934;"/>
    <path clip-path="url(#p73d4fe477f)" d="M 219.618818 153.671166 
L 219.618818 153.671166 
" style="fill:none;stroke:#9da0a2;stroke-width:1.32934;"/>
    <path clip-path="url(#p73d4fe477f)" d="M 227.735182 148.562029 
L 227.735182 148.562029 
" style="fill:none;stroke:#9da0a2;stroke-width:1.32934;"/>
    <path clip-path="url(#p73d4fe477f)" d="M 235.851545 134.797539 
L 235.851545 134.797539 
" style="fill:none;stroke:#9da0a2;stroke-width:1.32934;"/>
    <path clip-path="url(#p73d4fe477f)" d="M 243.967909 136.667964 
L 243.967909 136.667964 
" style="fill:none;stroke:#9da0a2;stroke-width:1.32934;"/>
    <path clip-path="url(#p73d4fe477f)" d="M 252.084273 144.501422 
L 252.084273 144.501422 
" style="fill:none;stroke:#9da0a2;stroke-width:1.32934;"/>
    <path clip-path="url(#p73d4fe477f)" d="M 260.200636 140.38594 
L 260.200636 140.38594 
" style="fill:none;stroke:#9da0a2;stroke-width:1.32934;"/>
    <path clip-path="url(#p73d4fe477f)" d="M 268.317 136.519619 
L 268.317 136.519619 
" style="fill:none;stroke:#9da0a2;stroke-width:1.32934;"/>
    <path clip-path="url(#p73d4fe477f)" d="M 276.433364 146.241433 
L 276.433364 146.241433 
" style="fill:none;stroke:#9da0a2;stroke-width:1.32934;"/>
    <path clip-path="url(#p73d4fe477f)" d="M 284.549727 141.498562 
L 284.549727 141.498562 
" style="fill:none;stroke:#9da0a2;stroke-width:1.32934;"/>
    <path clip-path="url(#p73d4fe477f)" d="M 292.666091 138.831684 
L 292.666091 138.831684 
" style="fill:none;stroke:#9da0a2;stroke-width:1.32934;"/>
    <path clip-path="url(#p73d4fe477f)" d="M 300.782455 136.922065 
L 300.782455 136.922065 
" style="fill:none;stroke:#9da0a2;stroke-width:1.32934;"/>
    <path clip-path="url(#p73d4fe477f)" d="M 308.898818 136.559149 
L 308.898818 136.559149 
" style="fill:none;stroke:#9da0a2;stroke-width:1.32934;"/>
    <path clip-path="url(#p73d4fe477f)" d="M 317.015182 135.154527 
L 317.015182 135.154527 
" style="fill:none;stroke:#9da0a2;stroke-width:1.32934;"/>
    <path clip-path="url(#p73d4fe477f)" d="M 325.131545 134.553863 
L 325.131545 134.553863 
" style="fill:none;stroke:#9da0a2;stroke-width:1.32934;"/>
    <path clip-path="url(#p73d4fe477f)" d="M 333.247909 133.461534 
L 333.247909 133.461534 
" style="fill:none;stroke:#9da0a2;stroke-width:1.32934;"/>
    <path clip-path="url(#p73d4fe477f)" d="M 341.364273 133.535278 
L 341.364273 133.535278 
" style="fill:none;stroke:#9da0a2;stroke-width:1.32934;"/>
    <path clip-path="url(#p73d4fe477f)" d="M 349.480636 133.585468 
L 349.480636 133.585468 
" style="fill:none;stroke:#9da0a2;stroke-width:1.32934;"/>
    <path clip-path="url(#p73d4fe477f)" d="M 357.597 132.955338 
L 357.597 132.955338 
" style="fill:none;stroke:#9da0a2;stroke-width:1.32934;"/>
    <path clip-path="url(#p73d4fe477f)" d="M 365.713364 130.500804 
L 365.713364 130.500804 
" style="fill:none;stroke:#9da0a2;stroke-width:1.32934;"/>
    <path clip-path="url(#p73d4fe477f)" d="M 373.829727 132.494141 
L 373.829727 132.494141 
" style="fill:none;stroke:#9da0a2;stroke-width:1.32934;"/>
    <path clip-path="url(#p73d4fe477f)" d="M 381.946091 129.779191 
L 381.946091 129.779191 
" style="fill:none;stroke:#9da0a2;stroke-width:1.32934;"/>
    <path clip-path="url(#p73d4fe477f)" d="M 390.062455 122.259598 
L 390.062455 122.259598 
" style="fill:none;stroke:#9da0a2;stroke-width:1.32934;"/>
    <path clip-path="url(#p73d4fe477f)" d="M 398.178818 119.12696 
L 398.178818 119.12696 
" style="fill:none;stroke:#9da0a2;stroke-width:1.32934;"/>
    <path clip-path="url(#p73d4fe477f)" d="M 406.295182 114.910379 
L 406.295182 114.910379 
" style="fill:none;stroke:#9da0a2;stroke-width:1.32934;"/>
    <path clip-path="url(#p73d4fe477f)" d="M 414.411545 109.651739 
L 414.411545 109.651739 
" style="fill:none;stroke:#9da0a2;stroke-width:1.32934;"/>
    <path clip-path="url(#p73d4fe477f)" d="M 422.527909 106.918301 
L 422.527909 106.918301 
" style="fill:none;stroke:#9da0a2;stroke-width:1.32934;"/>
    <path clip-path="url(#p73d4fe477f)" d="M 430.644273 104.362581 
L 430.644273 104.362581 
" style="fill:none;stroke:#9da0a2;stroke-width:1.32934;"/>
    <path clip-path="url(#p73d4fe477f)" d="M 438.760636 99.722886 
L 438.760636 99.722886 
" style="fill:none;stroke:#9da0a2;stroke-width:1.32934;"/>
    <path clip-path="url(#p73d4fe477f)" d="M 446.877 103.82506 
L 446.877 103.82506 
" style="fill:none;stroke:#9da0a2;stroke-width:1.32934;"/>
    <path clip-path="url(#p73d4fe477f)" d="M 454.993364 106.288845 
L 454.993364 106.288845 
" style="fill:none;stroke:#9da0a2;stroke-width:1.32934;"/>
    <path clip-path="url(#p73d4fe477f)" d="M 463.109727 106.021171 
L 463.109727 106.021171 
" style="fill:none;stroke:#9da0a2;stroke-width:1.32934;"/>
    <path clip-path="url(#p73d4fe477f)" d="M 89.757 208.335242 
L 89.757 208.335242 
" style="fill:none;stroke:#9da0a2;stroke-width:1.32934;"/>
    <path clip-path="url(#p73d4fe477f)" d="M 105.989727 206.475259 
L 105.989727 206.475259 
" style="fill:none;stroke:#9da0a2;stroke-width:1.32934;"/>
    <path clip-path="url(#p73d4fe477f)" d="M 114.106091 202.718859 
L 114.106091 202.718859 
" style="fill:none;stroke:#9da0a2;stroke-width:1.32934;"/>
    <path clip-path="url(#p73d4fe477f)" d="M 122.222455 204.396625 
L 122.222455 204.396625 
" style="fill:none;stroke:#9da0a2;stroke-width:1.32934;"/>
    <path clip-path="url(#p73d4fe477f)" d="M 130.338818 205.513497 
L 130.338818 205.513497 
" style="fill:none;stroke:#9da0a2;stroke-width:1.32934;"/>
    <path clip-path="url(#p73d4fe477f)" d="M 138.455182 129.609909 
L 138.455182 129.609909 
" style="fill:none;stroke:#9da0a2;stroke-width:1.32934;"/>
    <path clip-path="url(#p73d4fe477f)" d="M 146.571545 190.627136 
L 146.571545 190.627136 
" style="fill:none;stroke:#9da0a2;stroke-width:1.32934;"/>
    <path clip-path="url(#p73d4fe477f)" d="M 154.687909 138.485623 
L 154.687909 138.485623 
" style="fill:none;stroke:#9da0a2;stroke-width:1.32934;"/>
    <path clip-path="url(#p73d4fe477f)" d="M 162.804273 130.30699 
L 162.804273 130.30699 
" style="fill:none;stroke:#9da0a2;stroke-width:1.32934;"/>
    <path clip-path="url(#p73d4fe477f)" d="M 170.920636 136.556461 
L 170.920636 136.556461 
" style="fill:none;stroke:#9da0a2;stroke-width:1.32934;"/>
    <path clip-path="url(#p73d4fe477f)" d="M 179.037 164.511763 
L 179.037 164.511763 
" style="fill:none;stroke:#9da0a2;stroke-width:1.32934;"/>
    <path clip-path="url(#p73d4fe477f)" d="M 187.153364 119.816207 
L 187.153364 119.816207 
" style="fill:none;stroke:#9da0a2;stroke-width:1.32934;"/>
    <path clip-path="url(#p73d4fe477f)" d="M 195.269727 149.26665 
L 195.269727 149.26665 
" style="fill:none;stroke:#9da0a2;stroke-width:1.32934;"/>
    <path clip-path="url(#p73d4fe477f)" d="M 203.386091 132.345486 
L 203.386091 132.345486 
" style="fill:none;stroke:#9da0a2;stroke-width:1.32934;"/>
    <path clip-path="url(#p73d4fe477f)" d="M 211.502455 157.957784 
L 211.502455 157.957784 
" style="fill:none;stroke:#9da0a2;stroke-width:1.32934;"/>
    <path clip-path="url(#p73d4fe477f)" d="M 219.618818 145.190844 
L 219.618818 145.190844 
" style="fill:none;stroke:#9da0a2;stroke-width:1.32934;"/>
    <path clip-path="url(#p73d4fe477f)" d="M 227.735182 140.275717 
L 227.735182 140.275717 
" style="fill:none;stroke:#9da0a2;stroke-width:1.32934;"/>
    <path clip-path="url(#p73d4fe477f)" d="M 235.851545 129.380145 
L 235.851545 129.380145 
" style="fill:none;stroke:#9da0a2;stroke-width:1.32934;"/>
    <path clip-path="url(#p73d4fe477f)" d="M 243.967909 131.445357 
L 243.967909 131.445357 
" style="fill:none;stroke:#9da0a2;stroke-width:1.32934;"/>
    <path clip-path="url(#p73d4fe477f)" d="M 252.084273 140.235296 
L 252.084273 140.235296 
" style="fill:none;stroke:#9da0a2;stroke-width:1.32934;"/>
    <path clip-path="url(#p73d4fe477f)" d="M 260.200636 136.697582 
L 260.200636 136.697582 
" style="fill:none;stroke:#9da0a2;stroke-width:1.32934;"/>
    <path clip-path="url(#p73d4fe477f)" d="M 268.317 132.780793 
L 268.317 132.780793 
" style="fill:none;stroke:#9da0a2;stroke-width:1.32934;"/>
    <path clip-path="url(#p73d4fe477f)" d="M 276.433364 143.015141 
L 276.433364 143.015141 
" style="fill:none;stroke:#9da0a2;stroke-width:1.32934;"/>
    <path clip-path="url(#p73d4fe477f)" d="M 284.549727 138.73558 
L 284.549727 138.73558 
" style="fill:none;stroke:#9da0a2;stroke-width:1.32934;"/>
    <path clip-path="url(#p73d4fe477f)" d="M 292.666091 136.139501 
L 292.666091 136.139501 
" style="fill:none;stroke:#9da0a2;stroke-width:1.32934;"/>
    <path clip-path="url(#p73d4fe477f)" d="M 300.782455 134.559922 
L 300.782455 134.559922 
" style="fill:none;stroke:#9da0a2;stroke-width:1.32934;"/>
    <path clip-path="url(#p73d4fe477f)" d="M 308.898818 134.418298 
L 308.898818 134.418298 
" style="fill:none;stroke:#9da0a2;stroke-width:1.32934;"/>
    <path clip-path="url(#p73d4fe477f)" d="M 317.015182 133.019169 
L 317.015182 133.019169 
" style="fill:none;stroke:#9da0a2;stroke-width:1.32934;"/>
    <path clip-path="url(#p73d4fe477f)" d="M 325.131545 132.460448 
L 325.131545 132.460448 
" style="fill:none;stroke:#9da0a2;stroke-width:1.32934;"/>
    <path clip-path="url(#p73d4fe477f)" d="M 333.247909 131.690678 
L 333.247909 131.690678 
" style="fill:none;stroke:#9da0a2;stroke-width:1.32934;"/>
    <path clip-path="url(#p73d4fe477f)" d="M 341.364273 131.85506 
L 341.364273 131.85506 
" style="fill:none;stroke:#9da0a2;stroke-width:1.32934;"/>
    <path clip-path="url(#p73d4fe477f)" d="M 349.480636 132.008306 
L 349.480636 132.008306 
" style="fill:none;stroke:#9da0a2;stroke-width:1.32934;"/>
    <path clip-path="url(#p73d4fe477f)" d="M 357.597 131.440825 
L 357.597 131.440825 
" style="fill:none;stroke:#9da0a2;stroke-width:1.32934;"/>
    <path clip-path="url(#p73d4fe477f)" d="M 365.713364 129.100228 
L 365.713364 129.100228 
" style="fill:none;stroke:#9da0a2;stroke-width:1.32934;"/>
    <path clip-path="url(#p73d4fe477f)" d="M 373.829727 131.054307 
L 373.829727 131.054307 
" style="fill:none;stroke:#9da0a2;stroke-width:1.32934;"/>
    <path clip-path="url(#p73d4fe477f)" d="M 381.946091 128.445431 
L 381.946091 128.445431 
" style="fill:none;stroke:#9da0a2;stroke-width:1.32934;"/>
    <path clip-path="url(#p73d4fe477f)" d="M 390.062455 120.93554 
L 390.062455 120.93554 
" style="fill:none;stroke:#9da0a2;stroke-width:1.32934;"/>
    <path clip-path="url(#p73d4fe477f)" d="M 398.178818 117.81118 
L 398.178818 117.81118 
" style="fill:none;stroke:#9da0a2;stroke-width:1.32934;"/>
    <path clip-path="url(#p73d4fe477f)" d="M 406.295182 113.664337 
L 406.295182 113.664337 
" style="fill:none;stroke:#9da0a2;stroke-width:1.32934;"/>
    <path clip-path="url(#p73d4fe477f)" d="M 414.411545 108.423549 
L 414.411545 108.423549 
" style="fill:none;stroke:#9da0a2;stroke-width:1.32934;"/>
    <path clip-path="url(#p73d4fe477f)" d="M 422.527909 105.68389 
L 422.527909 105.68389 
" style="fill:none;stroke:#9da0a2;stroke-width:1.32934;"/>
    <path clip-path="url(#p73d4fe477f)" d="M 430.644273 103.159332 
L 430.644273 103.159332 
" style="fill:none;stroke:#9da0a2;stroke-width:1.32934;"/>
    <path clip-path="url(#p73d4fe477f)" d="M 438.760636 98.521388 
L 438.760636 98.521388 
" style="fill:none;stroke:#9da0a2;stroke-width:1.32934;"/>
    <path clip-path="url(#p73d4fe477f)" d="M 446.877 102.744855 
L 446.877 102.744855 
" style="fill:none;stroke:#9da0a2;stroke-width:1.32934;"/>
    <path clip-path="url(#p73d4fe477f)" d="M 454.993364 105.084417 
L 454.993364 105.084417 
" style="fill:none;stroke:#9da0a2;stroke-width:1.32934;"/>
    <path clip-path="url(#p73d4fe477f)" d="M 463.109727 104.032082 
L 463.109727 104.032082 
" style="fill:none;stroke:#9da0a2;stroke-width:1.32934;"/>
    <path clip-path="url(#p73d4fe477f)" d="M 89.757 208.335242 
L 89.757 210.62714 
" style="fill:none;stroke:#9da0a2;stroke-width:1.32934;"/>
    <path clip-path="url(#p73d4fe477f)" d="M 105.989727 206.475259 
L 105.989727 211.684807 
" style="fill:none;stroke:#9da0a2;stroke-width:1.32934;"/>
    <path clip-path="url(#p73d4fe477f)" d="M 114.106091 202.718859 
L 114.106091 213.726929 
" style="fill:none;stroke:#9da0a2;stroke-width:1.32934;"/>
    <path clip-path="url(#p73d4fe477f)" d="M 122.222455 204.396625 
L 122.222455 211.729205 
" style="fill:none;stroke:#9da0a2;stroke-width:1.32934;"/>
    <path clip-path="url(#p73d4fe477f)" d="M 130.338818 205.513497 
L 130.338818 218.278395 
" style="fill:none;stroke:#9da0a2;stroke-width:1.32934;"/>
    <path clip-path="url(#p73d4fe477f)" d="M 138.455182 129.609909 
L 138.455182 168.683321 
" style="fill:none;stroke:#9da0a2;stroke-width:1.32934;"/>
    <path clip-path="url(#p73d4fe477f)" d="M 146.571545 190.627136 
L 146.571545 210.113682 
" style="fill:none;stroke:#9da0a2;stroke-width:1.32934;"/>
    <path clip-path="url(#p73d4fe477f)" d="M 154.687909 138.485623 
L 154.687909 160.704589 
" style="fill:none;stroke:#9da0a2;stroke-width:1.32934;"/>
    <path clip-path="url(#p73d4fe477f)" d="M 162.804273 130.30699 
L 162.804273 148.403895 
" style="fill:none;stroke:#9da0a2;stroke-width:1.32934;"/>
    <path clip-path="url(#p73d4fe477f)" d="M 170.920636 136.556461 
L 170.920636 165.669145 
" style="fill:none;stroke:#9da0a2;stroke-width:1.32934;"/>
    <path clip-path="url(#p73d4fe477f)" d="M 179.037 164.511763 
L 179.037 183.767666 
" style="fill:none;stroke:#9da0a2;stroke-width:1.32934;"/>
    <path clip-path="url(#p73d4fe477f)" d="M 187.153364 119.816207 
L 187.153364 155.383328 
" style="fill:none;stroke:#9da0a2;stroke-width:1.32934;"/>
    <path clip-path="url(#p73d4fe477f)" d="M 195.269727 149.26665 
L 195.269727 173.837419 
" style="fill:none;stroke:#9da0a2;stroke-width:1.32934;"/>
    <path clip-path="url(#p73d4fe477f)" d="M 203.386091 132.345486 
L 203.386091 150.006577 
" style="fill:none;stroke:#9da0a2;stroke-width:1.32934;"/>
    <path clip-path="url(#p73d4fe477f)" d="M 211.502455 157.957784 
L 211.502455 168.939783 
" style="fill:none;stroke:#9da0a2;stroke-width:1.32934;"/>
    <path clip-path="url(#p73d4fe477f)" d="M 219.618818 145.190844 
L 219.618818 153.671166 
" style="fill:none;stroke:#9da0a2;stroke-width:1.32934;"/>
    <path clip-path="url(#p73d4fe477f)" d="M 227.735182 140.275717 
L 227.735182 148.562029 
" style="fill:none;stroke:#9da0a2;stroke-width:1.32934;"/>
    <path clip-path="url(#p73d4fe477f)" d="M 235.851545 129.380145 
L 235.851545 134.797539 
" style="fill:none;stroke:#9da0a2;stroke-width:1.32934;"/>
    <path clip-path="url(#p73d4fe477f)" d="M 243.967909 131.445357 
L 243.967909 136.667964 
" style="fill:none;stroke:#9da0a2;stroke-width:1.32934;"/>
    <path clip-path="url(#p73d4fe477f)" d="M 252.084273 140.235296 
L 252.084273 144.501422 
" style="fill:none;stroke:#9da0a2;stroke-width:1.32934;"/>
    <path clip-path="url(#p73d4fe477f)" d="M 260.200636 136.697582 
L 260.200636 140.38594 
" style="fill:none;stroke:#9da0a2;stroke-width:1.32934;"/>
    <path clip-path="url(#p73d4fe477f)" d="M 268.317 132.780793 
L 268.317 136.519619 
" style="fill:none;stroke:#9da0a2;stroke-width:1.32934;"/>
    <path clip-path="url(#p73d4fe477f)" d="M 276.433364 143.015141 
L 276.433364 146.241433 
" style="fill:none;stroke:#9da0a2;stroke-width:1.32934;"/>
    <path clip-path="url(#p73d4fe477f)" d="M 284.549727 138.73558 
L 284.549727 141.498562 
" style="fill:none;stroke:#9da0a2;stroke-width:1.32934;"/>
    <path clip-path="url(#p73d4fe477f)" d="M 292.666091 136.139501 
L 292.666091 138.831684 
" style="fill:none;stroke:#9da0a2;stroke-width:1.32934;"/>
    <path clip-path="url(#p73d4fe477f)" d="M 300.782455 134.559922 
L 300.782455 136.922065 
" style="fill:none;stroke:#9da0a2;stroke-width:1.32934;"/>
    <path clip-path="url(#p73d4fe477f)" d="M 308.898818 134.418298 
L 308.898818 136.559149 
" style="fill:none;stroke:#9da0a2;stroke-width:1.32934;"/>
    <path clip-path="url(#p73d4fe477f)" d="M 317.015182 133.019169 
L 317.015182 135.154527 
" style="fill:none;stroke:#9da0a2;stroke-width:1.32934;"/>
    <path clip-path="url(#p73d4fe477f)" d="M 325.131545 132.460448 
L 325.131545 134.553863 
" style="fill:none;stroke:#9da0a2;stroke-width:1.32934;"/>
    <path clip-path="url(#p73d4fe477f)" d="M 333.247909 131.690678 
L 333.247909 133.461534 
" style="fill:none;stroke:#9da0a2;stroke-width:1.32934;"/>
    <path clip-path="url(#p73d4fe477f)" d="M 341.364273 131.85506 
L 341.364273 133.535278 
" style="fill:none;stroke:#9da0a2;stroke-width:1.32934;"/>
    <path clip-path="url(#p73d4fe477f)" d="M 349.480636 132.008306 
L 349.480636 133.585468 
" style="fill:none;stroke:#9da0a2;stroke-width:1.32934;"/>
    <path clip-path="url(#p73d4fe477f)" d="M 357.597 131.440825 
L 357.597 132.955338 
" style="fill:none;stroke:#9da0a2;stroke-width:1.32934;"/>
    <path clip-path="url(#p73d4fe477f)" d="M 365.713364 129.100228 
L 365.713364 130.500804 
" style="fill:none;stroke:#9da0a2;stroke-width:1.32934;"/>
    <path clip-path="url(#p73d4fe477f)" d="M 373.829727 131.054307 
L 373.829727 132.494141 
" style="fill:none;stroke:#9da0a2;stroke-width:1.32934;"/>
    <path clip-path="url(#p73d4fe477f)" d="M 381.946091 128.445431 
L 381.946091 129.779191 
" style="fill:none;stroke:#9da0a2;stroke-width:1.32934;"/>
    <path clip-path="url(#p73d4fe477f)" d="M 390.062455 120.93554 
L 390.062455 122.259598 
" style="fill:none;stroke:#9da0a2;stroke-width:1.32934;"/>
    <path clip-path="url(#p73d4fe477f)" d="M 398.178818 117.81118 
L 398.178818 119.12696 
" style="fill:none;stroke:#9da0a2;stroke-width:1.32934;"/>
    <path clip-path="url(#p73d4fe477f)" d="M 406.295182 113.664337 
L 406.295182 114.910379 
" style="fill:none;stroke:#9da0a2;stroke-width:1.32934;"/>
    <path clip-path="url(#p73d4fe477f)" d="M 414.411545 108.423549 
L 414.411545 109.651739 
" style="fill:none;stroke:#9da0a2;stroke-width:1.32934;"/>
    <path clip-path="url(#p73d4fe477f)" d="M 422.527909 105.68389 
L 422.527909 106.918301 
" style="fill:none;stroke:#9da0a2;stroke-width:1.32934;"/>
    <path clip-path="url(#p73d4fe477f)" d="M 430.644273 103.159332 
L 430.644273 104.362581 
" style="fill:none;stroke:#9da0a2;stroke-width:1.32934;"/>
    <path clip-path="url(#p73d4fe477f)" d="M 438.760636 98.521388 
L 438.760636 99.722886 
" style="fill:none;stroke:#9da0a2;stroke-width:1.32934;"/>
    <path clip-path="url(#p73d4fe477f)" d="M 446.877 102.744855 
L 446.877 103.82506 
" style="fill:none;stroke:#9da0a2;stroke-width:1.32934;"/>
    <path clip-path="url(#p73d4fe477f)" d="M 454.993364 105.084417 
L 454.993364 106.288845 
" style="fill:none;stroke:#9da0a2;stroke-width:1.32934;"/>
    <path clip-path="url(#p73d4fe477f)" d="M 463.109727 104.032082 
L 463.109727 106.021171 
" style="fill:none;stroke:#9da0a2;stroke-width:1.32934;"/>
   </g>
   <g id="line2d_21">
    <path clip-path="url(#p73d4fe477f)" d="M 81.640636 216.232213 
L 89.757 209.481191 
L 97.873364 218.67415 
L 105.989727 209.080033 
L 114.106091 208.222894 
L 122.222455 208.062915 
L 130.338818 211.895946 
L 138.455182 149.146615 
L 146.571545 200.370409 
L 154.687909 149.595106 
L 162.804273 139.355443 
L 170.920636 151.112803 
L 179.037 174.139714 
L 187.153364 137.599767 
L 195.269727 161.552035 
L 203.386091 141.176032 
L 211.502455 163.448784 
L 219.618818 149.431005 
L 227.735182 144.418873 
L 235.851545 132.088842 
L 243.967909 134.056661 
L 252.084273 142.368359 
L 260.200636 138.541761 
L 268.317 134.650206 
L 276.433364 144.628287 
L 284.549727 140.117071 
L 292.666091 137.485592 
L 300.782455 135.740994 
L 308.898818 135.488723 
L 317.015182 134.086848 
L 325.131545 133.507156 
L 333.247909 132.576106 
L 341.364273 132.695169 
L 349.480636 132.796887 
L 357.597 132.198082 
L 365.713364 129.800516 
L 373.829727 131.774224 
L 381.946091 129.112311 
L 390.062455 121.597569 
L 398.178818 118.46907 
L 406.295182 114.287358 
L 414.411545 109.037644 
L 422.527909 106.301096 
L 430.644273 103.760956 
L 438.760636 99.122137 
L 446.877 103.284957 
L 454.993364 105.686631 
L 463.109727 105.026626 
" style="fill:none;stroke:#ee7733;stroke-width:0.886227;"/>
   </g>
   <g id="patch_3">
    <path d="M 45.117 228.96 
L 45.117 7.2 
" style="fill:none;stroke:#000000;stroke-linecap:square;stroke-linejoin:miter;"/>
   </g>
   <g id="patch_4">
    <path d="M 45.117 228.96 
L 491.517 228.96 
" style="fill:none;stroke:#000000;stroke-linecap:square;stroke-linejoin:miter;"/>
   </g>
   <g id="PathCollection_1">
    <path clip-path="url(#p73d4fe477f)" d="M 81.640636 218.004667 
C 82.110697 218.004667 82.561568 217.81791 82.893951 217.485527 
C 83.226333 217.153145 83.41309 216.702274 83.41309 216.232213 
C 83.41309 215.762153 83.226333 215.311282 82.893951 214.978899 
C 82.561568 214.646516 82.110697 214.459759 81.640636 214.459759 
C 81.170576 214.459759 80.719705 214.646516 80.387322 214.978899 
C 80.054939 215.311282 79.868183 215.762153 79.868183 216.232213 
C 79.868183 216.702274 80.054939 217.153145 80.387322 217.485527 
C 80.719705 217.81791 81.170576 218.004667 81.640636 218.004667 
z
" style="fill:#ee7733;stroke:#ee7733;stroke-width:0.886227;"/>
    <path clip-path="url(#p73d4fe477f)" d="M 89.757 211.253645 
C 90.22706 211.253645 90.677931 211.066888 91.010314 210.734505 
C 91.342697 210.402122 91.529454 209.951251 91.529454 209.481191 
C 91.529454 209.011131 91.342697 208.560259 91.010314 208.227877 
C 90.677931 207.895494 90.22706 207.708737 89.757 207.708737 
C 89.28694 207.708737 88.836069 207.895494 88.503686 208.227877 
C 88.171303 208.560259 87.984546 209.011131 87.984546 209.481191 
C 87.984546 209.951251 88.171303 210.402122 88.503686 210.734505 
C 88.836069 211.066888 89.28694 211.253645 89.757 211.253645 
z
" style="fill:#ee7733;stroke:#ee7733;stroke-width:0.886227;"/>
    <path clip-path="url(#p73d4fe477f)" d="M 97.873364 220.446603 
C 98.343424 220.446603 98.794295 220.259847 99.126678 219.927464 
C 99.459061 219.595081 99.645817 219.14421 99.645817 218.67415 
C 99.645817 218.204089 99.459061 217.753218 99.126678 217.420835 
C 98.794295 217.088453 98.343424 216.901696 97.873364 216.901696 
C 97.403303 216.901696 96.952432 217.088453 96.620049 217.420835 
C 96.287667 217.753218 96.10091 218.204089 96.10091 218.67415 
C 96.10091 219.14421 96.287667 219.595081 96.620049 219.927464 
C 96.952432 220.259847 97.403303 220.446603 97.873364 220.446603 
z
" style="fill:#ee7733;stroke:#ee7733;stroke-width:0.886227;"/>
    <path clip-path="url(#p73d4fe477f)" d="M 105.989727 210.852487 
C 106.459788 210.852487 106.910659 210.66573 107.243041 210.333347 
C 107.575424 210.000964 107.762181 209.550093 107.762181 209.080033 
C 107.762181 208.609973 107.575424 208.159102 107.243041 207.826719 
C 106.910659 207.494336 106.459788 207.307579 105.989727 207.307579 
C 105.519667 207.307579 105.068796 207.494336 104.736413 207.826719 
C 104.40403 208.159102 104.217273 208.609973 104.217273 209.080033 
C 104.217273 209.550093 104.40403 210.000964 104.736413 210.333347 
C 105.068796 210.66573 105.519667 210.852487 105.989727 210.852487 
z
" style="fill:#ee7733;stroke:#ee7733;stroke-width:0.886227;"/>
    <path clip-path="url(#p73d4fe477f)" d="M 114.106091 209.995348 
C 114.576151 209.995348 115.027022 209.808591 115.359405 209.476208 
C 115.691788 209.143825 115.878545 208.692954 115.878545 208.222894 
C 115.878545 207.752834 115.691788 207.301963 115.359405 206.96958 
C 115.027022 206.637197 114.576151 206.45044 114.106091 206.45044 
C 113.636031 206.45044 113.18516 206.637197 112.852777 206.96958 
C 112.520394 207.301963 112.333637 207.752834 112.333637 208.222894 
C 112.333637 208.692954 112.520394 209.143825 112.852777 209.476208 
C 113.18516 209.808591 113.636031 209.995348 114.106091 209.995348 
z
" style="fill:#ee7733;stroke:#ee7733;stroke-width:0.886227;"/>
    <path clip-path="url(#p73d4fe477f)" d="M 122.222455 209.835369 
C 122.692515 209.835369 123.143386 209.648612 123.475769 209.316229 
C 123.808151 208.983846 123.994908 208.532975 123.994908 208.062915 
C 123.994908 207.592855 123.808151 207.141983 123.475769 206.809601 
C 123.143386 206.477218 122.692515 206.290461 122.222455 206.290461 
C 121.752394 206.290461 121.301523 206.477218 120.96914 206.809601 
C 120.636758 207.141983 120.450001 207.592855 120.450001 208.062915 
C 120.450001 208.532975 120.636758 208.983846 120.96914 209.316229 
C 121.301523 209.648612 121.752394 209.835369 122.222455 209.835369 
z
" style="fill:#ee7733;stroke:#ee7733;stroke-width:0.886227;"/>
    <path clip-path="url(#p73d4fe477f)" d="M 130.338818 213.6684 
C 130.808878 213.6684 131.25975 213.481643 131.592132 213.14926 
C 131.924515 212.816877 132.111272 212.366006 132.111272 211.895946 
C 132.111272 211.425886 131.924515 210.975015 131.592132 210.642632 
C 131.25975 210.310249 130.808878 210.123492 130.338818 210.123492 
C 129.868758 210.123492 129.417887 210.310249 129.085504 210.642632 
C 128.753121 210.975015 128.566364 211.425886 128.566364 211.895946 
C 128.566364 212.366006 128.753121 212.816877 129.085504 213.14926 
C 129.417887 213.481643 129.868758 213.6684 130.338818 213.6684 
z
" style="fill:#ee7733;stroke:#ee7733;stroke-width:0.886227;"/>
    <path clip-path="url(#p73d4fe477f)" d="M 138.455182 150.919069 
C 138.925242 150.919069 139.376113 150.732312 139.708496 150.399929 
C 140.040879 150.067546 140.227636 149.616675 140.227636 149.146615 
C 140.227636 148.676555 140.040879 148.225684 139.708496 147.893301 
C 139.376113 147.560918 138.925242 147.374161 138.455182 147.374161 
C 137.985122 147.374161 137.53425 147.560918 137.201868 147.893301 
C 136.869485 148.225684 136.682728 148.676555 136.682728 149.146615 
C 136.682728 149.616675 136.869485 150.067546 137.201868 150.399929 
C 137.53425 150.732312 137.985122 150.919069 138.455182 150.919069 
z
" style="fill:#ee7733;stroke:#ee7733;stroke-width:0.886227;"/>
    <path clip-path="url(#p73d4fe477f)" d="M 146.571545 202.142863 
C 147.041606 202.142863 147.492477 201.956106 147.82486 201.623723 
C 148.157242 201.29134 148.343999 200.840469 148.343999 200.370409 
C 148.343999 199.900349 148.157242 199.449478 147.82486 199.117095 
C 147.492477 198.784712 147.041606 198.597955 146.571545 198.597955 
C 146.101485 198.597955 145.650614 198.784712 145.318231 199.117095 
C 144.985849 199.449478 144.799092 199.900349 144.799092 200.370409 
C 144.799092 200.840469 144.985849 201.29134 145.318231 201.623723 
C 145.650614 201.956106 146.101485 202.142863 146.571545 202.142863 
z
" style="fill:#ee7733;stroke:#ee7733;stroke-width:0.886227;"/>
    <path clip-path="url(#p73d4fe477f)" d="M 154.687909 151.36756 
C 155.157969 151.36756 155.60884 151.180803 155.941223 150.84842 
C 156.273606 150.516037 156.460363 150.065166 156.460363 149.595106 
C 156.460363 149.125046 156.273606 148.674175 155.941223 148.341792 
C 155.60884 148.009409 155.157969 147.822652 154.687909 147.822652 
C 154.217849 147.822652 153.766978 148.009409 153.434595 148.341792 
C 153.102212 148.674175 152.915455 149.125046 152.915455 149.595106 
C 152.915455 150.065166 153.102212 150.516037 153.434595 150.84842 
C 153.766978 151.180803 154.217849 151.36756 154.687909 151.36756 
z
" style="fill:#ee7733;stroke:#ee7733;stroke-width:0.886227;"/>
    <path clip-path="url(#p73d4fe477f)" d="M 162.804273 141.127897 
C 163.274333 141.127897 163.725204 140.94114 164.057587 140.608757 
C 164.38997 140.276374 164.576727 139.825503 164.576727 139.355443 
C 164.576727 138.885383 164.38997 138.434512 164.057587 138.102129 
C 163.725204 137.769746 163.274333 137.582989 162.804273 137.582989 
C 162.334212 137.582989 161.883341 137.769746 161.550959 138.102129 
C 161.218576 138.434512 161.031819 138.885383 161.031819 139.355443 
C 161.031819 139.825503 161.218576 140.276374 161.550959 140.608757 
C 161.883341 140.94114 162.334212 141.127897 162.804273 141.127897 
z
" style="fill:#ee7733;stroke:#ee7733;stroke-width:0.886227;"/>
    <path clip-path="url(#p73d4fe477f)" d="M 170.920636 152.885257 
C 171.390697 152.885257 171.841568 152.6985 172.173951 152.366117 
C 172.506333 152.033734 172.69309 151.582863 172.69309 151.112803 
C 172.69309 150.642743 172.506333 150.191872 172.173951 149.859489 
C 171.841568 149.527106 171.390697 149.340349 170.920636 149.340349 
C 170.450576 149.340349 169.999705 149.527106 169.667322 149.859489 
C 169.334939 150.191872 169.148183 150.642743 169.148183 151.112803 
C 169.148183 151.582863 169.334939 152.033734 169.667322 152.366117 
C 169.999705 152.6985 170.450576 152.885257 170.920636 152.885257 
z
" style="fill:#ee7733;stroke:#ee7733;stroke-width:0.886227;"/>
    <path clip-path="url(#p73d4fe477f)" d="M 179.037 175.912168 
C 179.50706 175.912168 179.957931 175.725411 180.290314 175.393029 
C 180.622697 175.060646 180.809454 174.609775 180.809454 174.139714 
C 180.809454 173.669654 180.622697 173.218783 180.290314 172.8864 
C 179.957931 172.554018 179.50706 172.367261 179.037 172.367261 
C 178.56694 172.367261 178.116069 172.554018 177.783686 172.8864 
C 177.451303 173.218783 177.264546 173.669654 177.264546 174.139714 
C 177.264546 174.609775 177.451303 175.060646 177.783686 175.393029 
C 178.116069 175.725411 178.56694 175.912168 179.037 175.912168 
z
" style="fill:#ee7733;stroke:#ee7733;stroke-width:0.886227;"/>
    <path clip-path="url(#p73d4fe477f)" d="M 187.153364 139.372221 
C 187.623424 139.372221 188.074295 139.185464 188.406678 138.853082 
C 188.739061 138.520699 188.925817 138.069828 188.925817 137.599767 
C 188.925817 137.129707 188.739061 136.678836 188.406678 136.346453 
C 188.074295 136.01407 187.623424 135.827314 187.153364 135.827314 
C 186.683303 135.827314 186.232432 136.01407 185.900049 136.346453 
C 185.567667 136.678836 185.38091 137.129707 185.38091 137.599767 
C 185.38091 138.069828 185.567667 138.520699 185.900049 138.853082 
C 186.232432 139.185464 186.683303 139.372221 187.153364 139.372221 
z
" style="fill:#ee7733;stroke:#ee7733;stroke-width:0.886227;"/>
    <path clip-path="url(#p73d4fe477f)" d="M 195.269727 163.324489 
C 195.739788 163.324489 196.190659 163.137732 196.523041 162.805349 
C 196.855424 162.472966 197.042181 162.022095 197.042181 161.552035 
C 197.042181 161.081975 196.855424 160.631103 196.523041 160.298721 
C 196.190659 159.966338 195.739788 159.779581 195.269727 159.779581 
C 194.799667 159.779581 194.348796 159.966338 194.016413 160.298721 
C 193.68403 160.631103 193.497273 161.081975 193.497273 161.552035 
C 193.497273 162.022095 193.68403 162.472966 194.016413 162.805349 
C 194.348796 163.137732 194.799667 163.324489 195.269727 163.324489 
z
" style="fill:#ee7733;stroke:#ee7733;stroke-width:0.886227;"/>
    <path clip-path="url(#p73d4fe477f)" d="M 203.386091 142.948485 
C 203.856151 142.948485 204.307022 142.761729 204.639405 142.429346 
C 204.971788 142.096963 205.158545 141.646092 205.158545 141.176032 
C 205.158545 140.705971 204.971788 140.2551 204.639405 139.922717 
C 204.307022 139.590335 203.856151 139.403578 203.386091 139.403578 
C 202.916031 139.403578 202.46516 139.590335 202.132777 139.922717 
C 201.800394 140.2551 201.613637 140.705971 201.613637 141.176032 
C 201.613637 141.646092 201.800394 142.096963 202.132777 142.429346 
C 202.46516 142.761729 202.916031 142.948485 203.386091 142.948485 
z
" style="fill:#ee7733;stroke:#ee7733;stroke-width:0.886227;"/>
    <path clip-path="url(#p73d4fe477f)" d="M 211.502455 165.221238 
C 211.972515 165.221238 212.423386 165.034481 212.755769 164.702098 
C 213.088151 164.369715 213.274908 163.918844 213.274908 163.448784 
C 213.274908 162.978723 213.088151 162.527852 212.755769 162.19547 
C 212.423386 161.863087 211.972515 161.67633 211.502455 161.67633 
C 211.032394 161.67633 210.581523 161.863087 210.24914 162.19547 
C 209.916758 162.527852 209.730001 162.978723 209.730001 163.448784 
C 209.730001 163.918844 209.916758 164.369715 210.24914 164.702098 
C 210.581523 165.034481 211.032394 165.221238 211.502455 165.221238 
z
" style="fill:#ee7733;stroke:#ee7733;stroke-width:0.886227;"/>
    <path clip-path="url(#p73d4fe477f)" d="M 219.618818 151.203459 
C 220.088878 151.203459 220.53975 151.016702 220.872132 150.684319 
C 221.204515 150.351937 221.391272 149.901066 221.391272 149.431005 
C 221.391272 148.960945 221.204515 148.510074 220.872132 148.177691 
C 220.53975 147.845308 220.088878 147.658551 219.618818 147.658551 
C 219.148758 147.658551 218.697887 147.845308 218.365504 148.177691 
C 218.033121 148.510074 217.846364 148.960945 217.846364 149.431005 
C 217.846364 149.901066 218.033121 150.351937 218.365504 150.684319 
C 218.697887 151.016702 219.148758 151.203459 219.618818 151.203459 
z
" style="fill:#ee7733;stroke:#ee7733;stroke-width:0.886227;"/>
    <path clip-path="url(#p73d4fe477f)" d="M 227.735182 146.191327 
C 228.205242 146.191327 228.656113 146.00457 228.988496 145.672187 
C 229.320879 145.339804 229.507636 144.888933 229.507636 144.418873 
C 229.507636 143.948813 229.320879 143.497942 228.988496 143.165559 
C 228.656113 142.833176 228.205242 142.646419 227.735182 142.646419 
C 227.265122 142.646419 226.81425 142.833176 226.481868 143.165559 
C 226.149485 143.497942 225.962728 143.948813 225.962728 144.418873 
C 225.962728 144.888933 226.149485 145.339804 226.481868 145.672187 
C 226.81425 146.00457 227.265122 146.191327 227.735182 146.191327 
z
" style="fill:#ee7733;stroke:#ee7733;stroke-width:0.886227;"/>
    <path clip-path="url(#p73d4fe477f)" d="M 235.851545 133.861296 
C 236.321606 133.861296 236.772477 133.674539 237.10486 133.342156 
C 237.437242 133.009773 237.623999 132.558902 237.623999 132.088842 
C 237.623999 131.618782 237.437242 131.167911 237.10486 130.835528 
C 236.772477 130.503145 236.321606 130.316388 235.851545 130.316388 
C 235.381485 130.316388 234.930614 130.503145 234.598231 130.835528 
C 234.265849 131.167911 234.079092 131.618782 234.079092 132.088842 
C 234.079092 132.558902 234.265849 133.009773 234.598231 133.342156 
C 234.930614 133.674539 235.381485 133.861296 235.851545 133.861296 
z
" style="fill:#ee7733;stroke:#ee7733;stroke-width:0.886227;"/>
    <path clip-path="url(#p73d4fe477f)" d="M 243.967909 135.829114 
C 244.437969 135.829114 244.88884 135.642358 245.221223 135.309975 
C 245.553606 134.977592 245.740363 134.526721 245.740363 134.056661 
C 245.740363 133.5866 245.553606 133.135729 245.221223 132.803346 
C 244.88884 132.470964 244.437969 132.284207 243.967909 132.284207 
C 243.497849 132.284207 243.046978 132.470964 242.714595 132.803346 
C 242.382212 133.135729 242.195455 133.5866 242.195455 134.056661 
C 242.195455 134.526721 242.382212 134.977592 242.714595 135.309975 
C 243.046978 135.642358 243.497849 135.829114 243.967909 135.829114 
z
" style="fill:#ee7733;stroke:#ee7733;stroke-width:0.886227;"/>
    <path clip-path="url(#p73d4fe477f)" d="M 252.084273 144.140813 
C 252.554333 144.140813 253.005204 143.954056 253.337587 143.621673 
C 253.66997 143.28929 253.856727 142.838419 253.856727 142.368359 
C 253.856727 141.898299 253.66997 141.447428 253.337587 141.115045 
C 253.005204 140.782662 252.554333 140.595905 252.084273 140.595905 
C 251.614212 140.595905 251.163341 140.782662 250.830959 141.115045 
C 250.498576 141.447428 250.311819 141.898299 250.311819 142.368359 
C 250.311819 142.838419 250.498576 143.28929 250.830959 143.621673 
C 251.163341 143.954056 251.614212 144.140813 252.084273 144.140813 
z
" style="fill:#ee7733;stroke:#ee7733;stroke-width:0.886227;"/>
    <path clip-path="url(#p73d4fe477f)" d="M 260.200636 140.314215 
C 260.670697 140.314215 261.121568 140.127458 261.453951 139.795075 
C 261.786333 139.462692 261.97309 139.011821 261.97309 138.541761 
C 261.97309 138.071701 261.786333 137.62083 261.453951 137.288447 
C 261.121568 136.956064 260.670697 136.769307 260.200636 136.769307 
C 259.730576 136.769307 259.279705 136.956064 258.947322 137.288447 
C 258.614939 137.62083 258.428183 138.071701 258.428183 138.541761 
C 258.428183 139.011821 258.614939 139.462692 258.947322 139.795075 
C 259.279705 140.127458 259.730576 140.314215 260.200636 140.314215 
z
" style="fill:#ee7733;stroke:#ee7733;stroke-width:0.886227;"/>
    <path clip-path="url(#p73d4fe477f)" d="M 268.317 136.42266 
C 268.78706 136.42266 269.237931 136.235903 269.570314 135.90352 
C 269.902697 135.571138 270.089454 135.120266 270.089454 134.650206 
C 270.089454 134.180146 269.902697 133.729275 269.570314 133.396892 
C 269.237931 133.064509 268.78706 132.877752 268.317 132.877752 
C 267.84694 132.877752 267.396069 133.064509 267.063686 133.396892 
C 266.731303 133.729275 266.544546 134.180146 266.544546 134.650206 
C 266.544546 135.120266 266.731303 135.571138 267.063686 135.90352 
C 267.396069 136.235903 267.84694 136.42266 268.317 136.42266 
z
" style="fill:#ee7733;stroke:#ee7733;stroke-width:0.886227;"/>
    <path clip-path="url(#p73d4fe477f)" d="M 276.433364 146.400741 
C 276.903424 146.400741 277.354295 146.213984 277.686678 145.881601 
C 278.019061 145.549218 278.205817 145.098347 278.205817 144.628287 
C 278.205817 144.158227 278.019061 143.707355 277.686678 143.374973 
C 277.354295 143.04259 276.903424 142.855833 276.433364 142.855833 
C 275.963303 142.855833 275.512432 143.04259 275.180049 143.374973 
C 274.847667 143.707355 274.66091 144.158227 274.66091 144.628287 
C 274.66091 145.098347 274.847667 145.549218 275.180049 145.881601 
C 275.512432 146.213984 275.963303 146.400741 276.433364 146.400741 
z
" style="fill:#ee7733;stroke:#ee7733;stroke-width:0.886227;"/>
    <path clip-path="url(#p73d4fe477f)" d="M 284.549727 141.889525 
C 285.019788 141.889525 285.470659 141.702768 285.803041 141.370385 
C 286.135424 141.038003 286.322181 140.587131 286.322181 140.117071 
C 286.322181 139.647011 286.135424 139.19614 285.803041 138.863757 
C 285.470659 138.531374 285.019788 138.344617 284.549727 138.344617 
C 284.079667 138.344617 283.628796 138.531374 283.296413 138.863757 
C 282.96403 139.19614 282.777273 139.647011 282.777273 140.117071 
C 282.777273 140.587131 282.96403 141.038003 283.296413 141.370385 
C 283.628796 141.702768 284.079667 141.889525 284.549727 141.889525 
z
" style="fill:#ee7733;stroke:#ee7733;stroke-width:0.886227;"/>
    <path clip-path="url(#p73d4fe477f)" d="M 292.666091 139.258046 
C 293.136151 139.258046 293.587022 139.071289 293.919405 138.738906 
C 294.251788 138.406524 294.438545 137.955653 294.438545 137.485592 
C 294.438545 137.015532 294.251788 136.564661 293.919405 136.232278 
C 293.587022 135.899895 293.136151 135.713138 292.666091 135.713138 
C 292.196031 135.713138 291.74516 135.899895 291.412777 136.232278 
C 291.080394 136.564661 290.893637 137.015532 290.893637 137.485592 
C 290.893637 137.955653 291.080394 138.406524 291.412777 138.738906 
C 291.74516 139.071289 292.196031 139.258046 292.666091 139.258046 
z
" style="fill:#ee7733;stroke:#ee7733;stroke-width:0.886227;"/>
    <path clip-path="url(#p73d4fe477f)" d="M 300.782455 137.513448 
C 301.252515 137.513448 301.703386 137.326691 302.035769 136.994308 
C 302.368151 136.661925 302.554908 136.211054 302.554908 135.740994 
C 302.554908 135.270934 302.368151 134.820063 302.035769 134.48768 
C 301.703386 134.155297 301.252515 133.96854 300.782455 133.96854 
C 300.312394 133.96854 299.861523 134.155297 299.52914 134.48768 
C 299.196758 134.820063 299.010001 135.270934 299.010001 135.740994 
C 299.010001 136.211054 299.196758 136.661925 299.52914 136.994308 
C 299.861523 137.326691 300.312394 137.513448 300.782455 137.513448 
z
" style="fill:#ee7733;stroke:#ee7733;stroke-width:0.886227;"/>
    <path clip-path="url(#p73d4fe477f)" d="M 308.898818 137.261177 
C 309.368878 137.261177 309.81975 137.07442 310.152132 136.742038 
C 310.484515 136.409655 310.671272 135.958784 310.671272 135.488723 
C 310.671272 135.018663 310.484515 134.567792 310.152132 134.235409 
C 309.81975 133.903027 309.368878 133.71627 308.898818 133.71627 
C 308.428758 133.71627 307.977887 133.903027 307.645504 134.235409 
C 307.313121 134.567792 307.126364 135.018663 307.126364 135.488723 
C 307.126364 135.958784 307.313121 136.409655 307.645504 136.742038 
C 307.977887 137.07442 308.428758 137.261177 308.898818 137.261177 
z
" style="fill:#ee7733;stroke:#ee7733;stroke-width:0.886227;"/>
    <path clip-path="url(#p73d4fe477f)" d="M 317.015182 135.859302 
C 317.485242 135.859302 317.936113 135.672545 318.268496 135.340162 
C 318.600879 135.00778 318.787636 134.556909 318.787636 134.086848 
C 318.787636 133.616788 318.600879 133.165917 318.268496 132.833534 
C 317.936113 132.501151 317.485242 132.314394 317.015182 132.314394 
C 316.545122 132.314394 316.09425 132.501151 315.761868 132.833534 
C 315.429485 133.165917 315.242728 133.616788 315.242728 134.086848 
C 315.242728 134.556909 315.429485 135.00778 315.761868 135.340162 
C 316.09425 135.672545 316.545122 135.859302 317.015182 135.859302 
z
" style="fill:#ee7733;stroke:#ee7733;stroke-width:0.886227;"/>
    <path clip-path="url(#p73d4fe477f)" d="M 325.131545 135.279609 
C 325.601606 135.279609 326.052477 135.092852 326.38486 134.76047 
C 326.717242 134.428087 326.903999 133.977216 326.903999 133.507156 
C 326.903999 133.037095 326.717242 132.586224 326.38486 132.253841 
C 326.052477 131.921459 325.601606 131.734702 325.131545 131.734702 
C 324.661485 131.734702 324.210614 131.921459 323.878231 132.253841 
C 323.545849 132.586224 323.359092 133.037095 323.359092 133.507156 
C 323.359092 133.977216 323.545849 134.428087 323.878231 134.76047 
C 324.210614 135.092852 324.661485 135.279609 325.131545 135.279609 
z
" style="fill:#ee7733;stroke:#ee7733;stroke-width:0.886227;"/>
    <path clip-path="url(#p73d4fe477f)" d="M 333.247909 134.34856 
C 333.717969 134.34856 334.16884 134.161803 334.501223 133.829421 
C 334.833606 133.497038 335.020363 133.046167 335.020363 132.576106 
C 335.020363 132.106046 334.833606 131.655175 334.501223 131.322792 
C 334.16884 130.990409 333.717969 130.803653 333.247909 130.803653 
C 332.777849 130.803653 332.326978 130.990409 331.994595 131.322792 
C 331.662212 131.655175 331.475455 132.106046 331.475455 132.576106 
C 331.475455 133.046167 331.662212 133.497038 331.994595 133.829421 
C 332.326978 134.161803 332.777849 134.34856 333.247909 134.34856 
z
" style="fill:#ee7733;stroke:#ee7733;stroke-width:0.886227;"/>
    <path clip-path="url(#p73d4fe477f)" d="M 341.364273 134.467623 
C 341.834333 134.467623 342.285204 134.280866 342.617587 133.948483 
C 342.94997 133.6161 343.136727 133.165229 343.136727 132.695169 
C 343.136727 132.225109 342.94997 131.774238 342.617587 131.441855 
C 342.285204 131.109472 341.834333 130.922715 341.364273 130.922715 
C 340.894212 130.922715 340.443341 131.109472 340.110959 131.441855 
C 339.778576 131.774238 339.591819 132.225109 339.591819 132.695169 
C 339.591819 133.165229 339.778576 133.6161 340.110959 133.948483 
C 340.443341 134.280866 340.894212 134.467623 341.364273 134.467623 
z
" style="fill:#ee7733;stroke:#ee7733;stroke-width:0.886227;"/>
    <path clip-path="url(#p73d4fe477f)" d="M 349.480636 134.569341 
C 349.950697 134.569341 350.401568 134.382584 350.733951 134.050201 
C 351.066333 133.717818 351.25309 133.266947 351.25309 132.796887 
C 351.25309 132.326827 351.066333 131.875956 350.733951 131.543573 
C 350.401568 131.21119 349.950697 131.024433 349.480636 131.024433 
C 349.010576 131.024433 348.559705 131.21119 348.227322 131.543573 
C 347.894939 131.875956 347.708183 132.326827 347.708183 132.796887 
C 347.708183 133.266947 347.894939 133.717818 348.227322 134.050201 
C 348.559705 134.382584 349.010576 134.569341 349.480636 134.569341 
z
" style="fill:#ee7733;stroke:#ee7733;stroke-width:0.886227;"/>
    <path clip-path="url(#p73d4fe477f)" d="M 357.597 133.970536 
C 358.06706 133.970536 358.517931 133.783779 358.850314 133.451396 
C 359.182697 133.119013 359.369454 132.668142 359.369454 132.198082 
C 359.369454 131.728021 359.182697 131.27715 358.850314 130.944768 
C 358.517931 130.612385 358.06706 130.425628 357.597 130.425628 
C 357.12694 130.425628 356.676069 130.612385 356.343686 130.944768 
C 356.011303 131.27715 355.824546 131.728021 355.824546 132.198082 
C 355.824546 132.668142 356.011303 133.119013 356.343686 133.451396 
C 356.676069 133.783779 357.12694 133.970536 357.597 133.970536 
z
" style="fill:#ee7733;stroke:#ee7733;stroke-width:0.886227;"/>
    <path clip-path="url(#p73d4fe477f)" d="M 365.713364 131.57297 
C 366.183424 131.57297 366.634295 131.386213 366.966678 131.05383 
C 367.299061 130.721447 367.485817 130.270576 367.485817 129.800516 
C 367.485817 129.330456 367.299061 128.879585 366.966678 128.547202 
C 366.634295 128.214819 366.183424 128.028062 365.713364 128.028062 
C 365.243303 128.028062 364.792432 128.214819 364.460049 128.547202 
C 364.127667 128.879585 363.94091 129.330456 363.94091 129.800516 
C 363.94091 130.270576 364.127667 130.721447 364.460049 131.05383 
C 364.792432 131.386213 365.243303 131.57297 365.713364 131.57297 
z
" style="fill:#ee7733;stroke:#ee7733;stroke-width:0.886227;"/>
    <path clip-path="url(#p73d4fe477f)" d="M 373.829727 133.546678 
C 374.299788 133.546678 374.750659 133.359921 375.083041 133.027538 
C 375.415424 132.695156 375.602181 132.244285 375.602181 131.774224 
C 375.602181 131.304164 375.415424 130.853293 375.083041 130.52091 
C 374.750659 130.188527 374.299788 130.00177 373.829727 130.00177 
C 373.359667 130.00177 372.908796 130.188527 372.576413 130.52091 
C 372.24403 130.853293 372.057273 131.304164 372.057273 131.774224 
C 372.057273 132.244285 372.24403 132.695156 372.576413 133.027538 
C 372.908796 133.359921 373.359667 133.546678 373.829727 133.546678 
z
" style="fill:#ee7733;stroke:#ee7733;stroke-width:0.886227;"/>
    <path clip-path="url(#p73d4fe477f)" d="M 381.946091 130.884765 
C 382.416151 130.884765 382.867022 130.698008 383.199405 130.365625 
C 383.531788 130.033243 383.718545 129.582372 383.718545 129.112311 
C 383.718545 128.642251 383.531788 128.19138 383.199405 127.858997 
C 382.867022 127.526614 382.416151 127.339857 381.946091 127.339857 
C 381.476031 127.339857 381.02516 127.526614 380.692777 127.858997 
C 380.360394 128.19138 380.173637 128.642251 380.173637 129.112311 
C 380.173637 129.582372 380.360394 130.033243 380.692777 130.365625 
C 381.02516 130.698008 381.476031 130.884765 381.946091 130.884765 
z
" style="fill:#ee7733;stroke:#ee7733;stroke-width:0.886227;"/>
    <path clip-path="url(#p73d4fe477f)" d="M 390.062455 123.370023 
C 390.532515 123.370023 390.983386 123.183266 391.315769 122.850883 
C 391.648151 122.5185 391.834908 122.067629 391.834908 121.597569 
C 391.834908 121.127509 391.648151 120.676638 391.315769 120.344255 
C 390.983386 120.011872 390.532515 119.825115 390.062455 119.825115 
C 389.592394 119.825115 389.141523 120.011872 388.80914 120.344255 
C 388.476758 120.676638 388.290001 121.127509 388.290001 121.597569 
C 388.290001 122.067629 388.476758 122.5185 388.80914 122.850883 
C 389.141523 123.183266 389.592394 123.370023 390.062455 123.370023 
z
" style="fill:#ee7733;stroke:#ee7733;stroke-width:0.886227;"/>
    <path clip-path="url(#p73d4fe477f)" d="M 398.178818 120.241524 
C 398.648878 120.241524 399.09975 120.054767 399.432132 119.722384 
C 399.764515 119.390001 399.951272 118.93913 399.951272 118.46907 
C 399.951272 117.99901 399.764515 117.548139 399.432132 117.215756 
C 399.09975 116.883373 398.648878 116.696616 398.178818 116.696616 
C 397.708758 116.696616 397.257887 116.883373 396.925504 117.215756 
C 396.593121 117.548139 396.406364 117.99901 396.406364 118.46907 
C 396.406364 118.93913 396.593121 119.390001 396.925504 119.722384 
C 397.257887 120.054767 397.708758 120.241524 398.178818 120.241524 
z
" style="fill:#ee7733;stroke:#ee7733;stroke-width:0.886227;"/>
    <path clip-path="url(#p73d4fe477f)" d="M 406.295182 116.059812 
C 406.765242 116.059812 407.216113 115.873055 407.548496 115.540672 
C 407.880879 115.208289 408.067636 114.757418 408.067636 114.287358 
C 408.067636 113.817298 407.880879 113.366427 407.548496 113.034044 
C 407.216113 112.701661 406.765242 112.514904 406.295182 112.514904 
C 405.825122 112.514904 405.37425 112.701661 405.041868 113.034044 
C 404.709485 113.366427 404.522728 113.817298 404.522728 114.287358 
C 404.522728 114.757418 404.709485 115.208289 405.041868 115.540672 
C 405.37425 115.873055 405.825122 116.059812 406.295182 116.059812 
z
" style="fill:#ee7733;stroke:#ee7733;stroke-width:0.886227;"/>
    <path clip-path="url(#p73d4fe477f)" d="M 414.411545 110.810098 
C 414.881606 110.810098 415.332477 110.623341 415.66486 110.290958 
C 415.997242 109.958575 416.183999 109.507704 416.183999 109.037644 
C 416.183999 108.567584 415.997242 108.116713 415.66486 107.78433 
C 415.332477 107.451947 414.881606 107.26519 414.411545 107.26519 
C 413.941485 107.26519 413.490614 107.451947 413.158231 107.78433 
C 412.825849 108.116713 412.639092 108.567584 412.639092 109.037644 
C 412.639092 109.507704 412.825849 109.958575 413.158231 110.290958 
C 413.490614 110.623341 413.941485 110.810098 414.411545 110.810098 
z
" style="fill:#ee7733;stroke:#ee7733;stroke-width:0.886227;"/>
    <path clip-path="url(#p73d4fe477f)" d="M 422.527909 108.073549 
C 422.997969 108.073549 423.44884 107.886792 423.781223 107.55441 
C 424.113606 107.222027 424.300363 106.771156 424.300363 106.301096 
C 424.300363 105.831035 424.113606 105.380164 423.781223 105.047781 
C 423.44884 104.715399 422.997969 104.528642 422.527909 104.528642 
C 422.057849 104.528642 421.606978 104.715399 421.274595 105.047781 
C 420.942212 105.380164 420.755455 105.831035 420.755455 106.301096 
C 420.755455 106.771156 420.942212 107.222027 421.274595 107.55441 
C 421.606978 107.886792 422.057849 108.073549 422.527909 108.073549 
z
" style="fill:#ee7733;stroke:#ee7733;stroke-width:0.886227;"/>
    <path clip-path="url(#p73d4fe477f)" d="M 430.644273 105.53341 
C 431.114333 105.53341 431.565204 105.346653 431.897587 105.01427 
C 432.22997 104.681887 432.416727 104.231016 432.416727 103.760956 
C 432.416727 103.290896 432.22997 102.840025 431.897587 102.507642 
C 431.565204 102.175259 431.114333 101.988502 430.644273 101.988502 
C 430.174212 101.988502 429.723341 102.175259 429.390959 102.507642 
C 429.058576 102.840025 428.871819 103.290896 428.871819 103.760956 
C 428.871819 104.231016 429.058576 104.681887 429.390959 105.01427 
C 429.723341 105.346653 430.174212 105.53341 430.644273 105.53341 
z
" style="fill:#ee7733;stroke:#ee7733;stroke-width:0.886227;"/>
    <path clip-path="url(#p73d4fe477f)" d="M 438.760636 100.894591 
C 439.230697 100.894591 439.681568 100.707834 440.013951 100.375451 
C 440.346333 100.043068 440.53309 99.592197 440.53309 99.122137 
C 440.53309 98.652077 440.346333 98.201206 440.013951 97.868823 
C 439.681568 97.53644 439.230697 97.349683 438.760636 97.349683 
C 438.290576 97.349683 437.839705 97.53644 437.507322 97.868823 
C 437.174939 98.201206 436.988183 98.652077 436.988183 99.122137 
C 436.988183 99.592197 437.174939 100.043068 437.507322 100.375451 
C 437.839705 100.707834 438.290576 100.894591 438.760636 100.894591 
z
" style="fill:#ee7733;stroke:#ee7733;stroke-width:0.886227;"/>
    <path clip-path="url(#p73d4fe477f)" d="M 446.877 105.057411 
C 447.34706 105.057411 447.797931 104.870654 448.130314 104.538272 
C 448.462697 104.205889 448.649454 103.755018 448.649454 103.284957 
C 448.649454 102.814897 448.462697 102.364026 448.130314 102.031643 
C 447.797931 101.69926 447.34706 101.512504 446.877 101.512504 
C 446.40694 101.512504 445.956069 101.69926 445.623686 102.031643 
C 445.291303 102.364026 445.104546 102.814897 445.104546 103.284957 
C 445.104546 103.755018 445.291303 104.205889 445.623686 104.538272 
C 445.956069 104.870654 446.40694 105.057411 446.877 105.057411 
z
" style="fill:#ee7733;stroke:#ee7733;stroke-width:0.886227;"/>
    <path clip-path="url(#p73d4fe477f)" d="M 454.993364 107.459085 
C 455.463424 107.459085 455.914295 107.272328 456.246678 106.939946 
C 456.579061 106.607563 456.765817 106.156692 456.765817 105.686631 
C 456.765817 105.216571 456.579061 104.7657 456.246678 104.433317 
C 455.914295 104.100934 455.463424 103.914178 454.993364 103.914178 
C 454.523303 103.914178 454.072432 104.100934 453.740049 104.433317 
C 453.407667 104.7657 453.22091 105.216571 453.22091 105.686631 
C 453.22091 106.156692 453.407667 106.607563 453.740049 106.939946 
C 454.072432 107.272328 454.523303 107.459085 454.993364 107.459085 
z
" style="fill:#ee7733;stroke:#ee7733;stroke-width:0.886227;"/>
    <path clip-path="url(#p73d4fe477f)" d="M 463.109727 106.79908 
C 463.579788 106.79908 464.030659 106.612323 464.363041 106.27994 
C 464.695424 105.947558 464.882181 105.496687 464.882181 105.026626 
C 464.882181 104.556566 464.695424 104.105695 464.363041 103.773312 
C 464.030659 103.440929 463.579788 103.254172 463.109727 103.254172 
C 462.639667 103.254172 462.188796 103.440929 461.856413 103.773312 
C 461.52403 104.105695 461.337273 104.556566 461.337273 105.026626 
C 461.337273 105.496687 461.52403 105.947558 461.856413 106.27994 
C 462.188796 106.612323 462.639667 106.79908 463.109727 106.79908 
z
" style="fill:#ee7733;stroke:#ee7733;stroke-width:0.886227;"/>
   </g>
  </g>
 </g>
 <defs>
  <clipPath id="p73d4fe477f">
   <rect height="221.76" width="446.4" x="45.117" y="7.2"/>
  </clipPath>
 </defs>
</svg>
