<?xml version="1.0" encoding="utf-8" standalone="no"?>
<!DOCTYPE svg PUBLIC "-//W3C//DTD SVG 1.1//EN"
  "http://www.w3.org/Graphics/SVG/1.1/DTD/svg11.dtd">
<svg xmlns:xlink="http://www.w3.org/1999/xlink" width="513.9925pt" height="274.544375pt" viewBox="0 0 513.9925 274.544375" xmlns="http://www.w3.org/2000/svg" version="1.1">
 <metadata>
  <rdf:RDF xmlns:dc="http://purl.org/dc/elements/1.1/" xmlns:cc="http://creativecommons.org/ns#" xmlns:rdf="http://www.w3.org/1999/02/22-rdf-syntax-ns#">
   <cc:Work>
    <dc:type rdf:resource="http://purl.org/dc/dcmitype/StillImage"/>
    <dc:date>2023-11-24T10:42:01.301171</dc:date>
    <dc:format>image/svg+xml</dc:format>
    <dc:creator>
     <cc:Agent>
      <dc:title>Matplotlib v3.5.2, https://matplotlib.org/</dc:title>
     </cc:Agent>
    </dc:creator>
   </cc:Work>
  </rdf:RDF>
 </metadata>
 <defs>
  <style type="text/css">*{stroke-linejoin: round; stroke-linecap: butt}</style>
 </defs>
 <g id="figure_1">
  <g id="patch_1">
   <path d="M 0 274.544375 
L 513.9925 274.544375 
L 513.9925 0 
L 0 0 
z
" style="fill: #ffffff; stroke: #ffffff; stroke-linejoin: miter"/>
  </g>
  <g id="axes_1">
   <g id="patch_2">
    <path d="M 60.3925 228.96 
L 506.7925 228.96 
L 506.7925 7.2 
L 60.3925 7.2 
z
" style="fill: #ffffff"/>
   </g>
   <g id="matplotlib.axis_1">
    <g id="xtick_1">
     <g id="line2d_1">
      <path d="M 80.683409 228.96 
" style="fill: none; stroke: #333333; stroke-width: 1.5"/>
      <defs>
       <path id="m52bd173797" d="M 0 0 
L 0 2.75 
" style="stroke: #000000"/>
      </defs>
      <g>
       <use xlink:href="#m52bd173797" x="80.683409" y="228.96" style="fill: #333333; stroke: #000000"/>
      </g>
     </g>
     <g id="text_1">
      <!-- 1970 -->
      <g transform="translate(62.868409 244.547813)scale(0.14 -0.14)">
       <defs>
        <path id="DejaVuSans-31" d="M 794 531 
L 1825 531 
L 1825 4091 
L 703 3866 
L 703 4441 
L 1819 4666 
L 2450 4666 
L 2450 531 
L 3481 531 
L 3481 0 
L 794 0 
L 794 531 
z
" transform="scale(0.015625)"/>
        <path id="DejaVuSans-39" d="M 703 97 
L 703 672 
Q 941 559 1184 500 
Q 1428 441 1663 441 
Q 2288 441 2617 861 
Q 2947 1281 2994 2138 
Q 2813 1869 2534 1725 
Q 2256 1581 1919 1581 
Q 1219 1581 811 2004 
Q 403 2428 403 3163 
Q 403 3881 828 4315 
Q 1253 4750 1959 4750 
Q 2769 4750 3195 4129 
Q 3622 3509 3622 2328 
Q 3622 1225 3098 567 
Q 2575 -91 1691 -91 
Q 1453 -91 1209 -44 
Q 966 3 703 97 
z
M 1959 2075 
Q 2384 2075 2632 2365 
Q 2881 2656 2881 3163 
Q 2881 3666 2632 3958 
Q 2384 4250 1959 4250 
Q 1534 4250 1286 3958 
Q 1038 3666 1038 3163 
Q 1038 2656 1286 2365 
Q 1534 2075 1959 2075 
z
" transform="scale(0.015625)"/>
        <path id="DejaVuSans-37" d="M 525 4666 
L 3525 4666 
L 3525 4397 
L 1831 0 
L 1172 0 
L 2766 4134 
L 525 4134 
L 525 4666 
z
" transform="scale(0.015625)"/>
        <path id="DejaVuSans-30" d="M 2034 4250 
Q 1547 4250 1301 3770 
Q 1056 3291 1056 2328 
Q 1056 1369 1301 889 
Q 1547 409 2034 409 
Q 2525 409 2770 889 
Q 3016 1369 3016 2328 
Q 3016 3291 2770 3770 
Q 2525 4250 2034 4250 
z
M 2034 4750 
Q 2819 4750 3233 4129 
Q 3647 3509 3647 2328 
Q 3647 1150 3233 529 
Q 2819 -91 2034 -91 
Q 1250 -91 836 529 
Q 422 1150 422 2328 
Q 422 3509 836 4129 
Q 1250 4750 2034 4750 
z
" transform="scale(0.015625)"/>
       </defs>
       <use xlink:href="#DejaVuSans-31"/>
       <use xlink:href="#DejaVuSans-39" x="63.623047"/>
       <use xlink:href="#DejaVuSans-37" x="127.246094"/>
       <use xlink:href="#DejaVuSans-30" x="190.869141"/>
      </g>
     </g>
    </g>
    <g id="xtick_2">
     <g id="line2d_2">
      <path d="M 161.847045 228.96 
" style="fill: none; stroke: #333333; stroke-width: 1.5"/>
      <g>
       <use xlink:href="#m52bd173797" x="161.847045" y="228.96" style="fill: #333333; stroke: #000000"/>
      </g>
     </g>
     <g id="text_2">
      <!-- 1980 -->
      <g transform="translate(144.032045 244.547813)scale(0.14 -0.14)">
       <defs>
        <path id="DejaVuSans-38" d="M 2034 2216 
Q 1584 2216 1326 1975 
Q 1069 1734 1069 1313 
Q 1069 891 1326 650 
Q 1584 409 2034 409 
Q 2484 409 2743 651 
Q 3003 894 3003 1313 
Q 3003 1734 2745 1975 
Q 2488 2216 2034 2216 
z
M 1403 2484 
Q 997 2584 770 2862 
Q 544 3141 544 3541 
Q 544 4100 942 4425 
Q 1341 4750 2034 4750 
Q 2731 4750 3128 4425 
Q 3525 4100 3525 3541 
Q 3525 3141 3298 2862 
Q 3072 2584 2669 2484 
Q 3125 2378 3379 2068 
Q 3634 1759 3634 1313 
Q 3634 634 3220 271 
Q 2806 -91 2034 -91 
Q 1263 -91 848 271 
Q 434 634 434 1313 
Q 434 1759 690 2068 
Q 947 2378 1403 2484 
z
M 1172 3481 
Q 1172 3119 1398 2916 
Q 1625 2713 2034 2713 
Q 2441 2713 2670 2916 
Q 2900 3119 2900 3481 
Q 2900 3844 2670 4047 
Q 2441 4250 2034 4250 
Q 1625 4250 1398 4047 
Q 1172 3844 1172 3481 
z
" transform="scale(0.015625)"/>
       </defs>
       <use xlink:href="#DejaVuSans-31"/>
       <use xlink:href="#DejaVuSans-39" x="63.623047"/>
       <use xlink:href="#DejaVuSans-38" x="127.246094"/>
       <use xlink:href="#DejaVuSans-30" x="190.869141"/>
      </g>
     </g>
    </g>
    <g id="xtick_3">
     <g id="line2d_3">
      <path d="M 243.010682 228.96 
" style="fill: none; stroke: #333333; stroke-width: 1.5"/>
      <g>
       <use xlink:href="#m52bd173797" x="243.010682" y="228.96" style="fill: #333333; stroke: #000000"/>
      </g>
     </g>
     <g id="text_3">
      <!-- 1990 -->
      <g transform="translate(225.195682 244.547813)scale(0.14 -0.14)">
       <use xlink:href="#DejaVuSans-31"/>
       <use xlink:href="#DejaVuSans-39" x="63.623047"/>
       <use xlink:href="#DejaVuSans-39" x="127.246094"/>
       <use xlink:href="#DejaVuSans-30" x="190.869141"/>
      </g>
     </g>
    </g>
    <g id="xtick_4">
     <g id="line2d_4">
      <path d="M 324.174318 228.96 
" style="fill: none; stroke: #333333; stroke-width: 1.5"/>
      <g>
       <use xlink:href="#m52bd173797" x="324.174318" y="228.96" style="fill: #333333; stroke: #000000"/>
      </g>
     </g>
     <g id="text_4">
      <!-- 2000 -->
      <g transform="translate(306.359318 244.547813)scale(0.14 -0.14)">
       <defs>
        <path id="DejaVuSans-32" d="M 1228 531 
L 3431 531 
L 3431 0 
L 469 0 
L 469 531 
Q 828 903 1448 1529 
Q 2069 2156 2228 2338 
Q 2531 2678 2651 2914 
Q 2772 3150 2772 3378 
Q 2772 3750 2511 3984 
Q 2250 4219 1831 4219 
Q 1534 4219 1204 4116 
Q 875 4013 500 3803 
L 500 4441 
Q 881 4594 1212 4672 
Q 1544 4750 1819 4750 
Q 2544 4750 2975 4387 
Q 3406 4025 3406 3419 
Q 3406 3131 3298 2873 
Q 3191 2616 2906 2266 
Q 2828 2175 2409 1742 
Q 1991 1309 1228 531 
z
" transform="scale(0.015625)"/>
       </defs>
       <use xlink:href="#DejaVuSans-32"/>
       <use xlink:href="#DejaVuSans-30" x="63.623047"/>
       <use xlink:href="#DejaVuSans-30" x="127.246094"/>
       <use xlink:href="#DejaVuSans-30" x="190.869141"/>
      </g>
     </g>
    </g>
    <g id="xtick_5">
     <g id="line2d_5">
      <path d="M 405.337955 228.96 
" style="fill: none; stroke: #333333; stroke-width: 1.5"/>
      <g>
       <use xlink:href="#m52bd173797" x="405.337955" y="228.96" style="fill: #333333; stroke: #000000"/>
      </g>
     </g>
     <g id="text_5">
      <!-- 2010 -->
      <g transform="translate(387.522955 244.547813)scale(0.14 -0.14)">
       <use xlink:href="#DejaVuSans-32"/>
       <use xlink:href="#DejaVuSans-30" x="63.623047"/>
       <use xlink:href="#DejaVuSans-31" x="127.246094"/>
       <use xlink:href="#DejaVuSans-30" x="190.869141"/>
      </g>
     </g>
    </g>
    <g id="xtick_6">
     <g id="line2d_6">
      <path d="M 486.501591 228.96 
" style="fill: none; stroke: #333333; stroke-width: 1.5"/>
      <g>
       <use xlink:href="#m52bd173797" x="486.501591" y="228.96" style="fill: #333333; stroke: #000000"/>
      </g>
     </g>
     <g id="text_6">
      <!-- 2020 -->
      <g transform="translate(468.686591 244.547813)scale(0.14 -0.14)">
       <use xlink:href="#DejaVuSans-32"/>
       <use xlink:href="#DejaVuSans-30" x="63.623047"/>
       <use xlink:href="#DejaVuSans-32" x="127.246094"/>
       <use xlink:href="#DejaVuSans-30" x="190.869141"/>
      </g>
     </g>
    </g>
    <g id="xtick_7"/>
    <g id="xtick_8"/>
    <g id="xtick_9"/>
    <g id="xtick_10"/>
    <g id="xtick_11"/>
    <g id="text_7">
     <!-- Year -->
     <g transform="translate(259.4525 264.016875)scale(0.16 -0.16)">
      <defs>
       <path id="DejaVuSans-59" d="M -13 4666 
L 666 4666 
L 1959 2747 
L 3244 4666 
L 3922 4666 
L 2272 2222 
L 2272 0 
L 1638 0 
L 1638 2222 
L -13 4666 
z
" transform="scale(0.015625)"/>
       <path id="DejaVuSans-65" d="M 3597 1894 
L 3597 1613 
L 953 1613 
Q 991 1019 1311 708 
Q 1631 397 2203 397 
Q 2534 397 2845 478 
Q 3156 559 3463 722 
L 3463 178 
Q 3153 47 2828 -22 
Q 2503 -91 2169 -91 
Q 1331 -91 842 396 
Q 353 884 353 1716 
Q 353 2575 817 3079 
Q 1281 3584 2069 3584 
Q 2775 3584 3186 3129 
Q 3597 2675 3597 1894 
z
M 3022 2063 
Q 3016 2534 2758 2815 
Q 2500 3097 2075 3097 
Q 1594 3097 1305 2825 
Q 1016 2553 972 2059 
L 3022 2063 
z
" transform="scale(0.015625)"/>
       <path id="DejaVuSans-61" d="M 2194 1759 
Q 1497 1759 1228 1600 
Q 959 1441 959 1056 
Q 959 750 1161 570 
Q 1363 391 1709 391 
Q 2188 391 2477 730 
Q 2766 1069 2766 1631 
L 2766 1759 
L 2194 1759 
z
M 3341 1997 
L 3341 0 
L 2766 0 
L 2766 531 
Q 2569 213 2275 61 
Q 1981 -91 1556 -91 
Q 1019 -91 701 211 
Q 384 513 384 1019 
Q 384 1609 779 1909 
Q 1175 2209 1959 2209 
L 2766 2209 
L 2766 2266 
Q 2766 2663 2505 2880 
Q 2244 3097 1772 3097 
Q 1472 3097 1187 3025 
Q 903 2953 641 2809 
L 641 3341 
Q 956 3463 1253 3523 
Q 1550 3584 1831 3584 
Q 2591 3584 2966 3190 
Q 3341 2797 3341 1997 
z
" transform="scale(0.015625)"/>
       <path id="DejaVuSans-72" d="M 2631 2963 
Q 2534 3019 2420 3045 
Q 2306 3072 2169 3072 
Q 1681 3072 1420 2755 
Q 1159 2438 1159 1844 
L 1159 0 
L 581 0 
L 581 3500 
L 1159 3500 
L 1159 2956 
Q 1341 3275 1631 3429 
Q 1922 3584 2338 3584 
Q 2397 3584 2469 3576 
Q 2541 3569 2628 3553 
L 2631 2963 
z
" transform="scale(0.015625)"/>
      </defs>
      <use xlink:href="#DejaVuSans-59"/>
      <use xlink:href="#DejaVuSans-65" x="47.833984"/>
      <use xlink:href="#DejaVuSans-61" x="109.357422"/>
      <use xlink:href="#DejaVuSans-72" x="170.636719"/>
     </g>
    </g>
   </g>
   <g id="matplotlib.axis_2">
    <g id="ytick_1">
     <g id="line2d_7">
      <path d="M 60.3925 218.88 
" style="fill: none; stroke: #333333; stroke-width: 1.5"/>
      <defs>
       <path id="mfacb6a5047" d="M 0 0 
L -2.75 0 
" style="stroke: #000000"/>
      </defs>
      <g>
       <use xlink:href="#mfacb6a5047" x="60.3925" y="218.88" style="fill: #333333; stroke: #000000"/>
      </g>
     </g>
     <g id="text_8">
      <!-- 0 -->
      <g transform="translate(46.535 222.743125)scale(0.14 -0.14)">
       <use xlink:href="#DejaVuSans-30"/>
      </g>
     </g>
    </g>
    <g id="ytick_2">
     <g id="line2d_8">
      <path d="M 60.3925 168.48 
" style="fill: none; stroke: #333333; stroke-width: 1.5"/>
      <g>
       <use xlink:href="#mfacb6a5047" x="60.3925" y="168.48" style="fill: #333333; stroke: #000000"/>
      </g>
     </g>
     <g id="text_9">
      <!-- 25 -->
      <g transform="translate(37.6275 172.343125)scale(0.14 -0.14)">
       <defs>
        <path id="DejaVuSans-35" d="M 691 4666 
L 3169 4666 
L 3169 4134 
L 1269 4134 
L 1269 2991 
Q 1406 3038 1543 3061 
Q 1681 3084 1819 3084 
Q 2600 3084 3056 2656 
Q 3513 2228 3513 1497 
Q 3513 744 3044 326 
Q 2575 -91 1722 -91 
Q 1428 -91 1123 -41 
Q 819 9 494 109 
L 494 744 
Q 775 591 1075 516 
Q 1375 441 1709 441 
Q 2250 441 2565 725 
Q 2881 1009 2881 1497 
Q 2881 1984 2565 2268 
Q 2250 2553 1709 2553 
Q 1456 2553 1204 2497 
Q 953 2441 691 2322 
L 691 4666 
z
" transform="scale(0.015625)"/>
       </defs>
       <use xlink:href="#DejaVuSans-32"/>
       <use xlink:href="#DejaVuSans-35" x="63.623047"/>
      </g>
     </g>
    </g>
    <g id="ytick_3">
     <g id="line2d_9">
      <path d="M 60.3925 118.08 
" style="fill: none; stroke: #333333; stroke-width: 1.5"/>
      <g>
       <use xlink:href="#mfacb6a5047" x="60.3925" y="118.08" style="fill: #333333; stroke: #000000"/>
      </g>
     </g>
     <g id="text_10">
      <!-- 50 -->
      <g transform="translate(37.6275 121.943125)scale(0.14 -0.14)">
       <use xlink:href="#DejaVuSans-35"/>
       <use xlink:href="#DejaVuSans-30" x="63.623047"/>
      </g>
     </g>
    </g>
    <g id="ytick_4">
     <g id="line2d_10">
      <path d="M 60.3925 67.68 
" style="fill: none; stroke: #333333; stroke-width: 1.5"/>
      <g>
       <use xlink:href="#mfacb6a5047" x="60.3925" y="67.68" style="fill: #333333; stroke: #000000"/>
      </g>
     </g>
     <g id="text_11">
      <!-- 75 -->
      <g transform="translate(37.6275 71.543125)scale(0.14 -0.14)">
       <use xlink:href="#DejaVuSans-37"/>
       <use xlink:href="#DejaVuSans-35" x="63.623047"/>
      </g>
     </g>
    </g>
    <g id="ytick_5">
     <g id="line2d_11">
      <path d="M 60.3925 17.28 
" style="fill: none; stroke: #333333; stroke-width: 1.5"/>
      <g>
       <use xlink:href="#mfacb6a5047" x="60.3925" y="17.28" style="fill: #333333; stroke: #000000"/>
      </g>
     </g>
     <g id="text_12">
      <!-- 100 -->
      <g transform="translate(28.72 21.143125)scale(0.14 -0.14)">
       <use xlink:href="#DejaVuSans-31"/>
       <use xlink:href="#DejaVuSans-30" x="63.623047"/>
       <use xlink:href="#DejaVuSans-30" x="127.246094"/>
      </g>
     </g>
    </g>
    <g id="ytick_6"/>
    <g id="ytick_7"/>
    <g id="ytick_8"/>
    <g id="ytick_9"/>
    <g id="text_13">
     <!-- $P_{Q1p_{min}}$ [%] -->
     <g transform="translate(19.36 157.2)rotate(-90)scale(0.16 -0.16)">
      <defs>
       <path id="DejaVuSans-Oblique-50" d="M 1081 4666 
L 2541 4666 
Q 3178 4666 3512 4369 
Q 3847 4072 3847 3500 
Q 3847 2731 3353 2303 
Q 2859 1875 1966 1875 
L 1172 1875 
L 806 0 
L 172 0 
L 1081 4666 
z
M 1613 4147 
L 1275 2394 
L 2069 2394 
Q 2606 2394 2893 2669 
Q 3181 2944 3181 3456 
Q 3181 3784 2986 3965 
Q 2791 4147 2438 4147 
L 1613 4147 
z
" transform="scale(0.015625)"/>
       <path id="DejaVuSans-Oblique-51" d="M 2309 -84 
Q 2275 -88 2237 -89 
Q 2200 -91 2125 -91 
Q 1250 -91 756 411 
Q 263 913 263 1797 
Q 263 2319 452 2844 
Q 641 3369 978 3788 
Q 1369 4269 1858 4509 
Q 2347 4750 2938 4750 
Q 3794 4750 4287 4245 
Q 4781 3741 4781 2869 
Q 4781 1928 4265 1147 
Q 3750 366 2919 44 
L 3553 -825 
L 2847 -825 
L 2309 -84 
z
M 2919 4238 
Q 2400 4238 2003 3986 
Q 1606 3734 1313 3219 
Q 1125 2891 1026 2522 
Q 928 2153 928 1778 
Q 928 1128 1239 775 
Q 1550 422 2119 422 
Q 2631 422 3032 676 
Q 3434 931 3719 1434 
Q 3909 1772 4009 2142 
Q 4109 2513 4109 2881 
Q 4109 3528 3796 3883 
Q 3484 4238 2919 4238 
z
" transform="scale(0.015625)"/>
       <path id="DejaVuSans-Oblique-70" d="M 3175 2156 
Q 3175 2616 2975 2859 
Q 2775 3103 2400 3103 
Q 2144 3103 1911 2972 
Q 1678 2841 1497 2591 
Q 1319 2344 1212 1994 
Q 1106 1644 1106 1300 
Q 1106 863 1306 627 
Q 1506 391 1875 391 
Q 2147 391 2380 519 
Q 2613 647 2778 891 
Q 2956 1147 3065 1494 
Q 3175 1841 3175 2156 
z
M 1394 2969 
Q 1625 3272 1939 3428 
Q 2253 3584 2638 3584 
Q 3175 3584 3472 3232 
Q 3769 2881 3769 2247 
Q 3769 1728 3584 1258 
Q 3400 788 3053 416 
Q 2822 169 2531 39 
Q 2241 -91 1919 -91 
Q 1547 -91 1294 64 
Q 1041 219 916 525 
L 556 -1331 
L -19 -1331 
L 922 3500 
L 1497 3500 
L 1394 2969 
z
" transform="scale(0.015625)"/>
       <path id="DejaVuSans-Oblique-6d" d="M 5747 2113 
L 5338 0 
L 4763 0 
L 5166 2094 
Q 5191 2228 5203 2325 
Q 5216 2422 5216 2491 
Q 5216 2772 5059 2928 
Q 4903 3084 4622 3084 
Q 4203 3084 3875 2770 
Q 3547 2456 3450 1953 
L 3066 0 
L 2491 0 
L 2900 2094 
Q 2925 2209 2937 2307 
Q 2950 2406 2950 2484 
Q 2950 2769 2794 2926 
Q 2638 3084 2363 3084 
Q 1938 3084 1609 2770 
Q 1281 2456 1184 1953 
L 800 0 
L 225 0 
L 909 3500 
L 1484 3500 
L 1375 2956 
Q 1609 3263 1923 3423 
Q 2238 3584 2597 3584 
Q 2978 3584 3223 3384 
Q 3469 3184 3519 2828 
Q 3781 3197 4126 3390 
Q 4472 3584 4856 3584 
Q 5306 3584 5551 3325 
Q 5797 3066 5797 2591 
Q 5797 2488 5784 2364 
Q 5772 2241 5747 2113 
z
" transform="scale(0.015625)"/>
       <path id="DejaVuSans-Oblique-69" d="M 1172 4863 
L 1747 4863 
L 1606 4134 
L 1031 4134 
L 1172 4863 
z
M 909 3500 
L 1484 3500 
L 800 0 
L 225 0 
L 909 3500 
z
" transform="scale(0.015625)"/>
       <path id="DejaVuSans-Oblique-6e" d="M 3566 2113 
L 3156 0 
L 2578 0 
L 2988 2091 
Q 3016 2238 3031 2350 
Q 3047 2463 3047 2528 
Q 3047 2791 2881 2937 
Q 2716 3084 2419 3084 
Q 1956 3084 1622 2776 
Q 1288 2469 1184 1941 
L 800 0 
L 225 0 
L 903 3500 
L 1478 3500 
L 1363 2950 
Q 1603 3253 1940 3418 
Q 2278 3584 2650 3584 
Q 3113 3584 3367 3334 
Q 3622 3084 3622 2631 
Q 3622 2519 3608 2391 
Q 3594 2263 3566 2113 
z
" transform="scale(0.015625)"/>
       <path id="DejaVuSans-20" transform="scale(0.015625)"/>
       <path id="DejaVuSans-5b" d="M 550 4863 
L 1875 4863 
L 1875 4416 
L 1125 4416 
L 1125 -397 
L 1875 -397 
L 1875 -844 
L 550 -844 
L 550 4863 
z
" transform="scale(0.015625)"/>
       <path id="DejaVuSans-25" d="M 4653 2053 
Q 4381 2053 4226 1822 
Q 4072 1591 4072 1178 
Q 4072 772 4226 539 
Q 4381 306 4653 306 
Q 4919 306 5073 539 
Q 5228 772 5228 1178 
Q 5228 1588 5073 1820 
Q 4919 2053 4653 2053 
z
M 4653 2450 
Q 5147 2450 5437 2106 
Q 5728 1763 5728 1178 
Q 5728 594 5436 251 
Q 5144 -91 4653 -91 
Q 4153 -91 3862 251 
Q 3572 594 3572 1178 
Q 3572 1766 3864 2108 
Q 4156 2450 4653 2450 
z
M 1428 4353 
Q 1159 4353 1004 4120 
Q 850 3888 850 3481 
Q 850 3069 1003 2837 
Q 1156 2606 1428 2606 
Q 1700 2606 1854 2837 
Q 2009 3069 2009 3481 
Q 2009 3884 1853 4118 
Q 1697 4353 1428 4353 
z
M 4250 4750 
L 4750 4750 
L 1831 -91 
L 1331 -91 
L 4250 4750 
z
M 1428 4750 
Q 1922 4750 2215 4408 
Q 2509 4066 2509 3481 
Q 2509 2891 2217 2550 
Q 1925 2209 1428 2209 
Q 931 2209 642 2551 
Q 353 2894 353 3481 
Q 353 4063 643 4406 
Q 934 4750 1428 4750 
z
" transform="scale(0.015625)"/>
       <path id="DejaVuSans-5d" d="M 1947 4863 
L 1947 -844 
L 622 -844 
L 622 -397 
L 1369 -397 
L 1369 4416 
L 622 4416 
L 622 4863 
L 1947 4863 
z
" transform="scale(0.015625)"/>
      </defs>
      <use xlink:href="#DejaVuSans-Oblique-50" transform="translate(0 0.015625)"/>
      <use xlink:href="#DejaVuSans-Oblique-51" transform="translate(60.302734 -16.390625)scale(0.7)"/>
      <use xlink:href="#DejaVuSans-31" transform="translate(115.400391 -16.390625)scale(0.7)"/>
      <use xlink:href="#DejaVuSans-Oblique-70" transform="translate(159.936523 -16.390625)scale(0.7)"/>
      <use xlink:href="#DejaVuSans-Oblique-6d" transform="translate(204.370117 -27.875)scale(0.49)"/>
      <use xlink:href="#DejaVuSans-Oblique-69" transform="translate(252.102051 -27.875)scale(0.49)"/>
      <use xlink:href="#DejaVuSans-Oblique-6e" transform="translate(265.71582 -27.875)scale(0.49)"/>
      <use xlink:href="#DejaVuSans-20" transform="translate(301.419922 0.015625)"/>
      <use xlink:href="#DejaVuSans-5b" transform="translate(333.207031 0.015625)"/>
      <use xlink:href="#DejaVuSans-25" transform="translate(372.220703 0.015625)"/>
      <use xlink:href="#DejaVuSans-5d" transform="translate(467.240234 0.015625)"/>
     </g>
    </g>
   </g>
   <g id="LineCollection_1">
    <path d="M 105.0325 212.274666 
L 105.0325 212.274666 
" clip-path="url(#p3688a5504c)" style="fill: none; stroke: #9da0a2; stroke-width: 1.32934"/>
    <path d="M 121.265227 213.051912 
L 121.265227 213.051912 
" clip-path="url(#p3688a5504c)" style="fill: none; stroke: #9da0a2; stroke-width: 1.32934"/>
    <path d="M 129.381591 214.409913 
L 129.381591 214.409913 
" clip-path="url(#p3688a5504c)" style="fill: none; stroke: #9da0a2; stroke-width: 1.32934"/>
    <path d="M 137.497955 212.010645 
L 137.497955 212.010645 
" clip-path="url(#p3688a5504c)" style="fill: none; stroke: #9da0a2; stroke-width: 1.32934"/>
    <path d="M 145.614318 218.394814 
L 145.614318 218.394814 
" clip-path="url(#p3688a5504c)" style="fill: none; stroke: #9da0a2; stroke-width: 1.32934"/>
    <path d="M 153.730682 170.919407 
L 153.730682 170.919407 
" clip-path="url(#p3688a5504c)" style="fill: none; stroke: #9da0a2; stroke-width: 1.32934"/>
    <path d="M 161.847045 211.492398 
L 161.847045 211.492398 
" clip-path="url(#p3688a5504c)" style="fill: none; stroke: #9da0a2; stroke-width: 1.32934"/>
    <path d="M 169.963409 165.485704 
L 169.963409 165.485704 
" clip-path="url(#p3688a5504c)" style="fill: none; stroke: #9da0a2; stroke-width: 1.32934"/>
    <path d="M 178.079773 154.612603 
L 178.079773 154.612603 
" clip-path="url(#p3688a5504c)" style="fill: none; stroke: #9da0a2; stroke-width: 1.32934"/>
    <path d="M 186.196136 171.531257 
L 186.196136 171.531257 
" clip-path="url(#p3688a5504c)" style="fill: none; stroke: #9da0a2; stroke-width: 1.32934"/>
    <path d="M 194.3125 187.790083 
L 194.3125 187.790083 
" clip-path="url(#p3688a5504c)" style="fill: none; stroke: #9da0a2; stroke-width: 1.32934"/>
    <path d="M 202.428864 160.911385 
L 202.428864 160.911385 
" clip-path="url(#p3688a5504c)" style="fill: none; stroke: #9da0a2; stroke-width: 1.32934"/>
    <path d="M 210.545227 178.043603 
L 210.545227 178.043603 
" clip-path="url(#p3688a5504c)" style="fill: none; stroke: #9da0a2; stroke-width: 1.32934"/>
    <path d="M 218.661591 153.933123 
L 218.661591 153.933123 
" clip-path="url(#p3688a5504c)" style="fill: none; stroke: #9da0a2; stroke-width: 1.32934"/>
    <path d="M 226.777955 174.214085 
L 226.777955 174.214085 
" clip-path="url(#p3688a5504c)" style="fill: none; stroke: #9da0a2; stroke-width: 1.32934"/>
    <path d="M 234.894318 158.172206 
L 234.894318 158.172206 
" clip-path="url(#p3688a5504c)" style="fill: none; stroke: #9da0a2; stroke-width: 1.32934"/>
    <path d="M 243.010682 154.658247 
L 243.010682 154.658247 
" clip-path="url(#p3688a5504c)" style="fill: none; stroke: #9da0a2; stroke-width: 1.32934"/>
    <path d="M 251.127045 139.998551 
L 251.127045 139.998551 
" clip-path="url(#p3688a5504c)" style="fill: none; stroke: #9da0a2; stroke-width: 1.32934"/>
    <path d="M 259.243409 142.389211 
L 259.243409 142.389211 
" clip-path="url(#p3688a5504c)" style="fill: none; stroke: #9da0a2; stroke-width: 1.32934"/>
    <path d="M 267.359773 150.534909 
L 267.359773 150.534909 
" clip-path="url(#p3688a5504c)" style="fill: none; stroke: #9da0a2; stroke-width: 1.32934"/>
    <path d="M 275.476136 147.24422 
L 275.476136 147.24422 
" clip-path="url(#p3688a5504c)" style="fill: none; stroke: #9da0a2; stroke-width: 1.32934"/>
    <path d="M 283.5925 142.345427 
L 283.5925 142.345427 
" clip-path="url(#p3688a5504c)" style="fill: none; stroke: #9da0a2; stroke-width: 1.32934"/>
    <path d="M 291.708864 151.76294 
L 291.708864 151.76294 
" clip-path="url(#p3688a5504c)" style="fill: none; stroke: #9da0a2; stroke-width: 1.32934"/>
    <path d="M 299.825227 146.86874 
L 299.825227 146.86874 
" clip-path="url(#p3688a5504c)" style="fill: none; stroke: #9da0a2; stroke-width: 1.32934"/>
    <path d="M 307.941591 143.579471 
L 307.941591 143.579471 
" clip-path="url(#p3688a5504c)" style="fill: none; stroke: #9da0a2; stroke-width: 1.32934"/>
    <path d="M 316.057955 141.496101 
L 316.057955 141.496101 
" clip-path="url(#p3688a5504c)" style="fill: none; stroke: #9da0a2; stroke-width: 1.32934"/>
    <path d="M 324.174318 141.145468 
L 324.174318 141.145468 
" clip-path="url(#p3688a5504c)" style="fill: none; stroke: #9da0a2; stroke-width: 1.32934"/>
    <path d="M 332.290682 139.619682 
L 332.290682 139.619682 
" clip-path="url(#p3688a5504c)" style="fill: none; stroke: #9da0a2; stroke-width: 1.32934"/>
    <path d="M 340.407045 138.701861 
L 340.407045 138.701861 
" clip-path="url(#p3688a5504c)" style="fill: none; stroke: #9da0a2; stroke-width: 1.32934"/>
    <path d="M 348.523409 137.712444 
L 348.523409 137.712444 
" clip-path="url(#p3688a5504c)" style="fill: none; stroke: #9da0a2; stroke-width: 1.32934"/>
    <path d="M 356.639773 137.842713 
L 356.639773 137.842713 
" clip-path="url(#p3688a5504c)" style="fill: none; stroke: #9da0a2; stroke-width: 1.32934"/>
    <path d="M 364.756136 137.48281 
L 364.756136 137.48281 
" clip-path="url(#p3688a5504c)" style="fill: none; stroke: #9da0a2; stroke-width: 1.32934"/>
    <path d="M 372.8725 136.541348 
L 372.8725 136.541348 
" clip-path="url(#p3688a5504c)" style="fill: none; stroke: #9da0a2; stroke-width: 1.32934"/>
    <path d="M 380.988864 133.871197 
L 380.988864 133.871197 
" clip-path="url(#p3688a5504c)" style="fill: none; stroke: #9da0a2; stroke-width: 1.32934"/>
    <path d="M 389.105227 135.638494 
L 389.105227 135.638494 
" clip-path="url(#p3688a5504c)" style="fill: none; stroke: #9da0a2; stroke-width: 1.32934"/>
    <path d="M 397.221591 132.968821 
L 397.221591 132.968821 
" clip-path="url(#p3688a5504c)" style="fill: none; stroke: #9da0a2; stroke-width: 1.32934"/>
    <path d="M 405.337955 125.421682 
L 405.337955 125.421682 
" clip-path="url(#p3688a5504c)" style="fill: none; stroke: #9da0a2; stroke-width: 1.32934"/>
    <path d="M 413.454318 122.25277 
L 413.454318 122.25277 
" clip-path="url(#p3688a5504c)" style="fill: none; stroke: #9da0a2; stroke-width: 1.32934"/>
    <path d="M 421.570682 117.768965 
L 421.570682 117.768965 
" clip-path="url(#p3688a5504c)" style="fill: none; stroke: #9da0a2; stroke-width: 1.32934"/>
    <path d="M 429.687045 112.202934 
L 429.687045 112.202934 
" clip-path="url(#p3688a5504c)" style="fill: none; stroke: #9da0a2; stroke-width: 1.32934"/>
    <path d="M 437.803409 109.044568 
L 437.803409 109.044568 
" clip-path="url(#p3688a5504c)" style="fill: none; stroke: #9da0a2; stroke-width: 1.32934"/>
    <path d="M 445.919773 106.31037 
L 445.919773 106.31037 
" clip-path="url(#p3688a5504c)" style="fill: none; stroke: #9da0a2; stroke-width: 1.32934"/>
    <path d="M 454.036136 101.237299 
L 454.036136 101.237299 
" clip-path="url(#p3688a5504c)" style="fill: none; stroke: #9da0a2; stroke-width: 1.32934"/>
    <path d="M 462.1525 104.905862 
L 462.1525 104.905862 
" clip-path="url(#p3688a5504c)" style="fill: none; stroke: #9da0a2; stroke-width: 1.32934"/>
    <path d="M 470.268864 107.637679 
L 470.268864 107.637679 
" clip-path="url(#p3688a5504c)" style="fill: none; stroke: #9da0a2; stroke-width: 1.32934"/>
    <path d="M 478.385227 107.208309 
L 478.385227 107.208309 
" clip-path="url(#p3688a5504c)" style="fill: none; stroke: #9da0a2; stroke-width: 1.32934"/>
    <path d="M 486.501591 106.104218 
" clip-path="url(#p3688a5504c)" style="fill: none; stroke: #9da0a2; stroke-width: 1.32934"/>
    <path d="M 105.0325 210.394076 
L 105.0325 210.394076 
" clip-path="url(#p3688a5504c)" style="fill: none; stroke: #9da0a2; stroke-width: 1.32934"/>
    <path d="M 121.265227 208.803699 
L 121.265227 208.803699 
" clip-path="url(#p3688a5504c)" style="fill: none; stroke: #9da0a2; stroke-width: 1.32934"/>
    <path d="M 129.381591 200.684393 
L 129.381591 200.684393 
" clip-path="url(#p3688a5504c)" style="fill: none; stroke: #9da0a2; stroke-width: 1.32934"/>
    <path d="M 137.497955 204.84122 
L 137.497955 204.84122 
" clip-path="url(#p3688a5504c)" style="fill: none; stroke: #9da0a2; stroke-width: 1.32934"/>
    <path d="M 145.614318 198.484047 
L 145.614318 198.484047 
" clip-path="url(#p3688a5504c)" style="fill: none; stroke: #9da0a2; stroke-width: 1.32934"/>
    <path d="M 153.730682 131.085478 
L 153.730682 131.085478 
" clip-path="url(#p3688a5504c)" style="fill: none; stroke: #9da0a2; stroke-width: 1.32934"/>
    <path d="M 161.847045 194.914825 
L 161.847045 194.914825 
" clip-path="url(#p3688a5504c)" style="fill: none; stroke: #9da0a2; stroke-width: 1.32934"/>
    <path d="M 169.963409 142.701785 
L 169.963409 142.701785 
" clip-path="url(#p3688a5504c)" style="fill: none; stroke: #9da0a2; stroke-width: 1.32934"/>
    <path d="M 178.079773 137.180934 
L 178.079773 137.180934 
" clip-path="url(#p3688a5504c)" style="fill: none; stroke: #9da0a2; stroke-width: 1.32934"/>
    <path d="M 186.196136 144.254256 
L 186.196136 144.254256 
" clip-path="url(#p3688a5504c)" style="fill: none; stroke: #9da0a2; stroke-width: 1.32934"/>
    <path d="M 194.3125 169.498386 
L 194.3125 169.498386 
" clip-path="url(#p3688a5504c)" style="fill: none; stroke: #9da0a2; stroke-width: 1.32934"/>
    <path d="M 202.428864 126.015222 
L 202.428864 126.015222 
" clip-path="url(#p3688a5504c)" style="fill: none; stroke: #9da0a2; stroke-width: 1.32934"/>
    <path d="M 210.545227 152.893253 
L 210.545227 152.893253 
" clip-path="url(#p3688a5504c)" style="fill: none; stroke: #9da0a2; stroke-width: 1.32934"/>
    <path d="M 218.661591 135.983283 
L 218.661591 135.983283 
" clip-path="url(#p3688a5504c)" style="fill: none; stroke: #9da0a2; stroke-width: 1.32934"/>
    <path d="M 226.777955 163.227184 
L 226.777955 163.227184 
" clip-path="url(#p3688a5504c)" style="fill: none; stroke: #9da0a2; stroke-width: 1.32934"/>
    <path d="M 234.894318 149.628965 
L 234.894318 149.628965 
" clip-path="url(#p3688a5504c)" style="fill: none; stroke: #9da0a2; stroke-width: 1.32934"/>
    <path d="M 243.010682 146.455598 
L 243.010682 146.455598 
" clip-path="url(#p3688a5504c)" style="fill: none; stroke: #9da0a2; stroke-width: 1.32934"/>
    <path d="M 251.127045 134.445423 
L 251.127045 134.445423 
" clip-path="url(#p3688a5504c)" style="fill: none; stroke: #9da0a2; stroke-width: 1.32934"/>
    <path d="M 259.243409 137.174483 
L 259.243409 137.174483 
" clip-path="url(#p3688a5504c)" style="fill: none; stroke: #9da0a2; stroke-width: 1.32934"/>
    <path d="M 267.359773 146.295481 
L 267.359773 146.295481 
" clip-path="url(#p3688a5504c)" style="fill: none; stroke: #9da0a2; stroke-width: 1.32934"/>
    <path d="M 275.476136 143.573407 
L 275.476136 143.573407 
" clip-path="url(#p3688a5504c)" style="fill: none; stroke: #9da0a2; stroke-width: 1.32934"/>
    <path d="M 283.5925 138.647654 
L 283.5925 138.647654 
" clip-path="url(#p3688a5504c)" style="fill: none; stroke: #9da0a2; stroke-width: 1.32934"/>
    <path d="M 291.708864 148.591319 
L 291.708864 148.591319 
" clip-path="url(#p3688a5504c)" style="fill: none; stroke: #9da0a2; stroke-width: 1.32934"/>
    <path d="M 299.825227 144.158475 
L 299.825227 144.158475 
" clip-path="url(#p3688a5504c)" style="fill: none; stroke: #9da0a2; stroke-width: 1.32934"/>
    <path d="M 307.941591 140.896852 
L 307.941591 140.896852 
" clip-path="url(#p3688a5504c)" style="fill: none; stroke: #9da0a2; stroke-width: 1.32934"/>
    <path d="M 316.057955 139.133025 
L 316.057955 139.133025 
" clip-path="url(#p3688a5504c)" style="fill: none; stroke: #9da0a2; stroke-width: 1.32934"/>
    <path d="M 324.174318 139.009388 
L 324.174318 139.009388 
" clip-path="url(#p3688a5504c)" style="fill: none; stroke: #9da0a2; stroke-width: 1.32934"/>
    <path d="M 332.290682 137.488326 
L 332.290682 137.488326 
" clip-path="url(#p3688a5504c)" style="fill: none; stroke: #9da0a2; stroke-width: 1.32934"/>
    <path d="M 340.407045 136.61479 
L 340.407045 136.61479 
" clip-path="url(#p3688a5504c)" style="fill: none; stroke: #9da0a2; stroke-width: 1.32934"/>
    <path d="M 348.523409 135.947521 
L 348.523409 135.947521 
" clip-path="url(#p3688a5504c)" style="fill: none; stroke: #9da0a2; stroke-width: 1.32934"/>
    <path d="M 356.639773 136.167642 
L 356.639773 136.167642 
" clip-path="url(#p3688a5504c)" style="fill: none; stroke: #9da0a2; stroke-width: 1.32934"/>
    <path d="M 364.756136 135.912153 
L 364.756136 135.912153 
" clip-path="url(#p3688a5504c)" style="fill: none; stroke: #9da0a2; stroke-width: 1.32934"/>
    <path d="M 372.8725 135.030998 
L 372.8725 135.030998 
" clip-path="url(#p3688a5504c)" style="fill: none; stroke: #9da0a2; stroke-width: 1.32934"/>
    <path d="M 380.988864 132.471331 
L 380.988864 132.471331 
" clip-path="url(#p3688a5504c)" style="fill: none; stroke: #9da0a2; stroke-width: 1.32934"/>
    <path d="M 389.105227 134.19908 
L 389.105227 134.19908 
" clip-path="url(#p3688a5504c)" style="fill: none; stroke: #9da0a2; stroke-width: 1.32934"/>
    <path d="M 397.221591 131.634644 
L 397.221591 131.634644 
" clip-path="url(#p3688a5504c)" style="fill: none; stroke: #9da0a2; stroke-width: 1.32934"/>
    <path d="M 405.337955 124.093269 
L 405.337955 124.093269 
" clip-path="url(#p3688a5504c)" style="fill: none; stroke: #9da0a2; stroke-width: 1.32934"/>
    <path d="M 413.454318 120.930903 
L 413.454318 120.930903 
" clip-path="url(#p3688a5504c)" style="fill: none; stroke: #9da0a2; stroke-width: 1.32934"/>
    <path d="M 421.570682 116.513276 
L 421.570682 116.513276 
" clip-path="url(#p3688a5504c)" style="fill: none; stroke: #9da0a2; stroke-width: 1.32934"/>
    <path d="M 429.687045 110.964207 
L 429.687045 110.964207 
" clip-path="url(#p3688a5504c)" style="fill: none; stroke: #9da0a2; stroke-width: 1.32934"/>
    <path d="M 437.803409 107.797153 
L 437.803409 107.797153 
" clip-path="url(#p3688a5504c)" style="fill: none; stroke: #9da0a2; stroke-width: 1.32934"/>
    <path d="M 445.919773 105.095404 
L 445.919773 105.095404 
" clip-path="url(#p3688a5504c)" style="fill: none; stroke: #9da0a2; stroke-width: 1.32934"/>
    <path d="M 454.036136 100.024166 
L 454.036136 100.024166 
" clip-path="url(#p3688a5504c)" style="fill: none; stroke: #9da0a2; stroke-width: 1.32934"/>
    <path d="M 462.1525 103.816618 
L 462.1525 103.816618 
" clip-path="url(#p3688a5504c)" style="fill: none; stroke: #9da0a2; stroke-width: 1.32934"/>
    <path d="M 470.268864 106.452876 
L 470.268864 106.452876 
" clip-path="url(#p3688a5504c)" style="fill: none; stroke: #9da0a2; stroke-width: 1.32934"/>
    <path d="M 478.385227 106.130094 
L 478.385227 106.130094 
" clip-path="url(#p3688a5504c)" style="fill: none; stroke: #9da0a2; stroke-width: 1.32934"/>
    <path d="M 486.501591 105.125017 
" clip-path="url(#p3688a5504c)" style="fill: none; stroke: #9da0a2; stroke-width: 1.32934"/>
    <path d="M 105.0325 210.394076 
L 105.0325 212.274666 
" clip-path="url(#p3688a5504c)" style="fill: none; stroke: #9da0a2; stroke-width: 1.32934"/>
    <path d="M 121.265227 208.803699 
L 121.265227 213.051912 
" clip-path="url(#p3688a5504c)" style="fill: none; stroke: #9da0a2; stroke-width: 1.32934"/>
    <path d="M 129.381591 200.684393 
L 129.381591 214.409913 
" clip-path="url(#p3688a5504c)" style="fill: none; stroke: #9da0a2; stroke-width: 1.32934"/>
    <path d="M 137.497955 204.84122 
L 137.497955 212.010645 
" clip-path="url(#p3688a5504c)" style="fill: none; stroke: #9da0a2; stroke-width: 1.32934"/>
    <path d="M 145.614318 198.484047 
L 145.614318 218.394814 
" clip-path="url(#p3688a5504c)" style="fill: none; stroke: #9da0a2; stroke-width: 1.32934"/>
    <path d="M 153.730682 131.085478 
L 153.730682 170.919407 
" clip-path="url(#p3688a5504c)" style="fill: none; stroke: #9da0a2; stroke-width: 1.32934"/>
    <path d="M 161.847045 194.914825 
L 161.847045 211.492398 
" clip-path="url(#p3688a5504c)" style="fill: none; stroke: #9da0a2; stroke-width: 1.32934"/>
    <path d="M 169.963409 142.701785 
L 169.963409 165.485704 
" clip-path="url(#p3688a5504c)" style="fill: none; stroke: #9da0a2; stroke-width: 1.32934"/>
    <path d="M 178.079773 137.180934 
L 178.079773 154.612603 
" clip-path="url(#p3688a5504c)" style="fill: none; stroke: #9da0a2; stroke-width: 1.32934"/>
    <path d="M 186.196136 144.254256 
L 186.196136 171.531257 
" clip-path="url(#p3688a5504c)" style="fill: none; stroke: #9da0a2; stroke-width: 1.32934"/>
    <path d="M 194.3125 169.498386 
L 194.3125 187.790083 
" clip-path="url(#p3688a5504c)" style="fill: none; stroke: #9da0a2; stroke-width: 1.32934"/>
    <path d="M 202.428864 126.015222 
L 202.428864 160.911385 
" clip-path="url(#p3688a5504c)" style="fill: none; stroke: #9da0a2; stroke-width: 1.32934"/>
    <path d="M 210.545227 152.893253 
L 210.545227 178.043603 
" clip-path="url(#p3688a5504c)" style="fill: none; stroke: #9da0a2; stroke-width: 1.32934"/>
    <path d="M 218.661591 135.983283 
L 218.661591 153.933123 
" clip-path="url(#p3688a5504c)" style="fill: none; stroke: #9da0a2; stroke-width: 1.32934"/>
    <path d="M 226.777955 163.227184 
L 226.777955 174.214085 
" clip-path="url(#p3688a5504c)" style="fill: none; stroke: #9da0a2; stroke-width: 1.32934"/>
    <path d="M 234.894318 149.628965 
L 234.894318 158.172206 
" clip-path="url(#p3688a5504c)" style="fill: none; stroke: #9da0a2; stroke-width: 1.32934"/>
    <path d="M 243.010682 146.455598 
L 243.010682 154.658247 
" clip-path="url(#p3688a5504c)" style="fill: none; stroke: #9da0a2; stroke-width: 1.32934"/>
    <path d="M 251.127045 134.445423 
L 251.127045 139.998551 
" clip-path="url(#p3688a5504c)" style="fill: none; stroke: #9da0a2; stroke-width: 1.32934"/>
    <path d="M 259.243409 137.174483 
L 259.243409 142.389211 
" clip-path="url(#p3688a5504c)" style="fill: none; stroke: #9da0a2; stroke-width: 1.32934"/>
    <path d="M 267.359773 146.295481 
L 267.359773 150.534909 
" clip-path="url(#p3688a5504c)" style="fill: none; stroke: #9da0a2; stroke-width: 1.32934"/>
    <path d="M 275.476136 143.573407 
L 275.476136 147.24422 
" clip-path="url(#p3688a5504c)" style="fill: none; stroke: #9da0a2; stroke-width: 1.32934"/>
    <path d="M 283.5925 138.647654 
L 283.5925 142.345427 
" clip-path="url(#p3688a5504c)" style="fill: none; stroke: #9da0a2; stroke-width: 1.32934"/>
    <path d="M 291.708864 148.591319 
L 291.708864 151.76294 
" clip-path="url(#p3688a5504c)" style="fill: none; stroke: #9da0a2; stroke-width: 1.32934"/>
    <path d="M 299.825227 144.158475 
L 299.825227 146.86874 
" clip-path="url(#p3688a5504c)" style="fill: none; stroke: #9da0a2; stroke-width: 1.32934"/>
    <path d="M 307.941591 140.896852 
L 307.941591 143.579471 
" clip-path="url(#p3688a5504c)" style="fill: none; stroke: #9da0a2; stroke-width: 1.32934"/>
    <path d="M 316.057955 139.133025 
L 316.057955 141.496101 
" clip-path="url(#p3688a5504c)" style="fill: none; stroke: #9da0a2; stroke-width: 1.32934"/>
    <path d="M 324.174318 139.009388 
L 324.174318 141.145468 
" clip-path="url(#p3688a5504c)" style="fill: none; stroke: #9da0a2; stroke-width: 1.32934"/>
    <path d="M 332.290682 137.488326 
L 332.290682 139.619682 
" clip-path="url(#p3688a5504c)" style="fill: none; stroke: #9da0a2; stroke-width: 1.32934"/>
    <path d="M 340.407045 136.61479 
L 340.407045 138.701861 
" clip-path="url(#p3688a5504c)" style="fill: none; stroke: #9da0a2; stroke-width: 1.32934"/>
    <path d="M 348.523409 135.947521 
L 348.523409 137.712444 
" clip-path="url(#p3688a5504c)" style="fill: none; stroke: #9da0a2; stroke-width: 1.32934"/>
    <path d="M 356.639773 136.167642 
L 356.639773 137.842713 
" clip-path="url(#p3688a5504c)" style="fill: none; stroke: #9da0a2; stroke-width: 1.32934"/>
    <path d="M 364.756136 135.912153 
L 364.756136 137.48281 
" clip-path="url(#p3688a5504c)" style="fill: none; stroke: #9da0a2; stroke-width: 1.32934"/>
    <path d="M 372.8725 135.030998 
L 372.8725 136.541348 
" clip-path="url(#p3688a5504c)" style="fill: none; stroke: #9da0a2; stroke-width: 1.32934"/>
    <path d="M 380.988864 132.471331 
L 380.988864 133.871197 
" clip-path="url(#p3688a5504c)" style="fill: none; stroke: #9da0a2; stroke-width: 1.32934"/>
    <path d="M 389.105227 134.19908 
L 389.105227 135.638494 
" clip-path="url(#p3688a5504c)" style="fill: none; stroke: #9da0a2; stroke-width: 1.32934"/>
    <path d="M 397.221591 131.634644 
L 397.221591 132.968821 
" clip-path="url(#p3688a5504c)" style="fill: none; stroke: #9da0a2; stroke-width: 1.32934"/>
    <path d="M 405.337955 124.093269 
L 405.337955 125.421682 
" clip-path="url(#p3688a5504c)" style="fill: none; stroke: #9da0a2; stroke-width: 1.32934"/>
    <path d="M 413.454318 120.930903 
L 413.454318 122.25277 
" clip-path="url(#p3688a5504c)" style="fill: none; stroke: #9da0a2; stroke-width: 1.32934"/>
    <path d="M 421.570682 116.513276 
L 421.570682 117.768965 
" clip-path="url(#p3688a5504c)" style="fill: none; stroke: #9da0a2; stroke-width: 1.32934"/>
    <path d="M 429.687045 110.964207 
L 429.687045 112.202934 
" clip-path="url(#p3688a5504c)" style="fill: none; stroke: #9da0a2; stroke-width: 1.32934"/>
    <path d="M 437.803409 107.797153 
L 437.803409 109.044568 
" clip-path="url(#p3688a5504c)" style="fill: none; stroke: #9da0a2; stroke-width: 1.32934"/>
    <path d="M 445.919773 105.095404 
L 445.919773 106.31037 
" clip-path="url(#p3688a5504c)" style="fill: none; stroke: #9da0a2; stroke-width: 1.32934"/>
    <path d="M 454.036136 100.024166 
L 454.036136 101.237299 
" clip-path="url(#p3688a5504c)" style="fill: none; stroke: #9da0a2; stroke-width: 1.32934"/>
    <path d="M 462.1525 103.816618 
L 462.1525 104.905862 
" clip-path="url(#p3688a5504c)" style="fill: none; stroke: #9da0a2; stroke-width: 1.32934"/>
    <path d="M 470.268864 106.452876 
L 470.268864 107.637679 
" clip-path="url(#p3688a5504c)" style="fill: none; stroke: #9da0a2; stroke-width: 1.32934"/>
    <path d="M 478.385227 106.130094 
L 478.385227 107.208309 
" clip-path="url(#p3688a5504c)" style="fill: none; stroke: #9da0a2; stroke-width: 1.32934"/>
    <path d="M 486.501591 105.125017 
L 486.501591 106.104218 
" clip-path="url(#p3688a5504c)" style="fill: none; stroke: #9da0a2; stroke-width: 1.32934"/>
   </g>
   <g id="line2d_12">
    <path d="M 96.916136 216.774692 
L 105.0325 211.334371 
L 113.148864 218.709759 
L 121.265227 210.927806 
L 129.381591 207.547153 
L 137.497955 208.425933 
L 145.614318 208.439431 
L 153.730682 151.002443 
L 161.847045 203.203611 
L 169.963409 154.093745 
L 178.079773 145.896768 
L 186.196136 157.892757 
L 194.3125 178.644234 
L 202.428864 143.463303 
L 210.545227 165.468428 
L 218.661591 144.958203 
L 226.777955 168.720635 
L 234.894318 153.900585 
L 243.010682 150.556922 
L 251.127045 137.221987 
L 259.243409 139.781847 
L 267.359773 148.415195 
L 275.476136 145.408813 
L 283.5925 140.49654 
L 291.708864 150.17713 
L 299.825227 145.513607 
L 307.941591 142.238162 
L 316.057955 140.314563 
L 324.174318 140.077428 
L 332.290682 138.554004 
L 340.407045 137.658326 
L 348.523409 136.829982 
L 356.639773 137.005177 
L 364.756136 136.697481 
L 372.8725 135.786173 
L 380.988864 133.171264 
L 389.105227 134.918787 
L 397.221591 132.301733 
L 405.337955 124.757475 
L 413.454318 121.591837 
L 421.570682 117.14112 
L 429.687045 111.583571 
L 437.803409 108.42086 
L 445.919773 105.702887 
L 454.036136 100.630732 
L 462.1525 104.36124 
L 470.268864 107.045278 
L 478.385227 106.669202 
L 486.501591 105.614617 
" clip-path="url(#p3688a5504c)" style="fill: none; stroke: #ee7733; stroke-width: 0.886227"/>
   </g>
   <g id="patch_3">
    <path d="M 60.3925 228.96 
L 60.3925 7.2 
" style="fill: none; stroke: #000000; stroke-linejoin: miter; stroke-linecap: square"/>
   </g>
   <g id="patch_4">
    <path d="M 60.3925 228.96 
L 506.7925 228.96 
" style="fill: none; stroke: #000000; stroke-linejoin: miter; stroke-linecap: square"/>
   </g>
   <g id="PathCollection_1">
    <path d="M 96.916136 218.547146 
C 97.386197 218.547146 97.837068 218.360389 98.169451 218.028006 
C 98.501833 217.695623 98.68859 217.244752 98.68859 216.774692 
C 98.68859 216.304632 98.501833 215.85376 98.169451 215.521378 
C 97.837068 215.188995 97.386197 215.002238 96.916136 215.002238 
C 96.446076 215.002238 95.995205 215.188995 95.662822 215.521378 
C 95.330439 215.85376 95.143683 216.304632 95.143683 216.774692 
C 95.143683 217.244752 95.330439 217.695623 95.662822 218.028006 
C 95.995205 218.360389 96.446076 218.547146 96.916136 218.547146 
z
" clip-path="url(#p3688a5504c)" style="fill: #ee7733; stroke: #ee7733; stroke-width: 0.886227"/>
    <path d="M 105.0325 213.106825 
C 105.50256 213.106825 105.953431 212.920068 106.285814 212.587685 
C 106.618197 212.255302 106.804954 211.804431 106.804954 211.334371 
C 106.804954 210.864311 106.618197 210.41344 106.285814 210.081057 
C 105.953431 209.748674 105.50256 209.561917 105.0325 209.561917 
C 104.56244 209.561917 104.111569 209.748674 103.779186 210.081057 
C 103.446803 210.41344 103.260046 210.864311 103.260046 211.334371 
C 103.260046 211.804431 103.446803 212.255302 103.779186 212.587685 
C 104.111569 212.920068 104.56244 213.106825 105.0325 213.106825 
z
" clip-path="url(#p3688a5504c)" style="fill: #ee7733; stroke: #ee7733; stroke-width: 0.886227"/>
    <path d="M 113.148864 220.482213 
C 113.618924 220.482213 114.069795 220.295456 114.402178 219.963074 
C 114.734561 219.630691 114.921317 219.17982 114.921317 218.709759 
C 114.921317 218.239699 114.734561 217.788828 114.402178 217.456445 
C 114.069795 217.124063 113.618924 216.937306 113.148864 216.937306 
C 112.678803 216.937306 112.227932 217.124063 111.895549 217.456445 
C 111.563167 217.788828 111.37641 218.239699 111.37641 218.709759 
C 111.37641 219.17982 111.563167 219.630691 111.895549 219.963074 
C 112.227932 220.295456 112.678803 220.482213 113.148864 220.482213 
z
" clip-path="url(#p3688a5504c)" style="fill: #ee7733; stroke: #ee7733; stroke-width: 0.886227"/>
    <path d="M 121.265227 212.70026 
C 121.735288 212.70026 122.186159 212.513503 122.518541 212.18112 
C 122.850924 211.848737 123.037681 211.397866 123.037681 210.927806 
C 123.037681 210.457745 122.850924 210.006874 122.518541 209.674492 
C 122.186159 209.342109 121.735288 209.155352 121.265227 209.155352 
C 120.795167 209.155352 120.344296 209.342109 120.011913 209.674492 
C 119.67953 210.006874 119.492773 210.457745 119.492773 210.927806 
C 119.492773 211.397866 119.67953 211.848737 120.011913 212.18112 
C 120.344296 212.513503 120.795167 212.70026 121.265227 212.70026 
z
" clip-path="url(#p3688a5504c)" style="fill: #ee7733; stroke: #ee7733; stroke-width: 0.886227"/>
    <path d="M 129.381591 209.319607 
C 129.851651 209.319607 130.302522 209.13285 130.634905 208.800467 
C 130.967288 208.468084 131.154045 208.017213 131.154045 207.547153 
C 131.154045 207.077093 130.967288 206.626222 130.634905 206.293839 
C 130.302522 205.961456 129.851651 205.774699 129.381591 205.774699 
C 128.911531 205.774699 128.46066 205.961456 128.128277 206.293839 
C 127.795894 206.626222 127.609137 207.077093 127.609137 207.547153 
C 127.609137 208.017213 127.795894 208.468084 128.128277 208.800467 
C 128.46066 209.13285 128.911531 209.319607 129.381591 209.319607 
z
" clip-path="url(#p3688a5504c)" style="fill: #ee7733; stroke: #ee7733; stroke-width: 0.886227"/>
    <path d="M 137.497955 210.198387 
C 137.968015 210.198387 138.418886 210.01163 138.751269 209.679247 
C 139.083651 209.346864 139.270408 208.895993 139.270408 208.425933 
C 139.270408 207.955873 139.083651 207.505002 138.751269 207.172619 
C 138.418886 206.840236 137.968015 206.653479 137.497955 206.653479 
C 137.027894 206.653479 136.577023 206.840236 136.24464 207.172619 
C 135.912258 207.505002 135.725501 207.955873 135.725501 208.425933 
C 135.725501 208.895993 135.912258 209.346864 136.24464 209.679247 
C 136.577023 210.01163 137.027894 210.198387 137.497955 210.198387 
z
" clip-path="url(#p3688a5504c)" style="fill: #ee7733; stroke: #ee7733; stroke-width: 0.886227"/>
    <path d="M 145.614318 210.211884 
C 146.084378 210.211884 146.53525 210.025127 146.867632 209.692745 
C 147.200015 209.360362 147.386772 208.909491 147.386772 208.439431 
C 147.386772 207.96937 147.200015 207.518499 146.867632 207.186116 
C 146.53525 206.853734 146.084378 206.666977 145.614318 206.666977 
C 145.144258 206.666977 144.693387 206.853734 144.361004 207.186116 
C 144.028621 207.518499 143.841864 207.96937 143.841864 208.439431 
C 143.841864 208.909491 144.028621 209.360362 144.361004 209.692745 
C 144.693387 210.025127 145.144258 210.211884 145.614318 210.211884 
z
" clip-path="url(#p3688a5504c)" style="fill: #ee7733; stroke: #ee7733; stroke-width: 0.886227"/>
    <path d="M 153.730682 152.774896 
C 154.200742 152.774896 154.651613 152.58814 154.983996 152.255757 
C 155.316379 151.923374 155.503136 151.472503 155.503136 151.002443 
C 155.503136 150.532382 155.316379 150.081511 154.983996 149.749128 
C 154.651613 149.416746 154.200742 149.229989 153.730682 149.229989 
C 153.260622 149.229989 152.80975 149.416746 152.477368 149.749128 
C 152.144985 150.081511 151.958228 150.532382 151.958228 151.002443 
C 151.958228 151.472503 152.144985 151.923374 152.477368 152.255757 
C 152.80975 152.58814 153.260622 152.774896 153.730682 152.774896 
z
" clip-path="url(#p3688a5504c)" style="fill: #ee7733; stroke: #ee7733; stroke-width: 0.886227"/>
    <path d="M 161.847045 204.976065 
C 162.317106 204.976065 162.767977 204.789308 163.10036 204.456925 
C 163.432742 204.124543 163.619499 203.673672 163.619499 203.203611 
C 163.619499 202.733551 163.432742 202.28268 163.10036 201.950297 
C 162.767977 201.617914 162.317106 201.431157 161.847045 201.431157 
C 161.376985 201.431157 160.926114 201.617914 160.593731 201.950297 
C 160.261349 202.28268 160.074592 202.733551 160.074592 203.203611 
C 160.074592 203.673672 160.261349 204.124543 160.593731 204.456925 
C 160.926114 204.789308 161.376985 204.976065 161.847045 204.976065 
z
" clip-path="url(#p3688a5504c)" style="fill: #ee7733; stroke: #ee7733; stroke-width: 0.886227"/>
    <path d="M 169.963409 155.866198 
C 170.433469 155.866198 170.88434 155.679441 171.216723 155.347059 
C 171.549106 155.014676 171.735863 154.563805 171.735863 154.093745 
C 171.735863 153.623684 171.549106 153.172813 171.216723 152.84043 
C 170.88434 152.508048 170.433469 152.321291 169.963409 152.321291 
C 169.493349 152.321291 169.042478 152.508048 168.710095 152.84043 
C 168.377712 153.172813 168.190955 153.623684 168.190955 154.093745 
C 168.190955 154.563805 168.377712 155.014676 168.710095 155.347059 
C 169.042478 155.679441 169.493349 155.866198 169.963409 155.866198 
z
" clip-path="url(#p3688a5504c)" style="fill: #ee7733; stroke: #ee7733; stroke-width: 0.886227"/>
    <path d="M 178.079773 147.669222 
C 178.549833 147.669222 179.000704 147.482465 179.333087 147.150082 
C 179.66547 146.8177 179.852227 146.366829 179.852227 145.896768 
C 179.852227 145.426708 179.66547 144.975837 179.333087 144.643454 
C 179.000704 144.311071 178.549833 144.124314 178.079773 144.124314 
C 177.609712 144.124314 177.158841 144.311071 176.826459 144.643454 
C 176.494076 144.975837 176.307319 145.426708 176.307319 145.896768 
C 176.307319 146.366829 176.494076 146.8177 176.826459 147.150082 
C 177.158841 147.482465 177.609712 147.669222 178.079773 147.669222 
z
" clip-path="url(#p3688a5504c)" style="fill: #ee7733; stroke: #ee7733; stroke-width: 0.886227"/>
    <path d="M 186.196136 159.66521 
C 186.666197 159.66521 187.117068 159.478454 187.449451 159.146071 
C 187.781833 158.813688 187.96859 158.362817 187.96859 157.892757 
C 187.96859 157.422696 187.781833 156.971825 187.449451 156.639442 
C 187.117068 156.30706 186.666197 156.120303 186.196136 156.120303 
C 185.726076 156.120303 185.275205 156.30706 184.942822 156.639442 
C 184.610439 156.971825 184.423683 157.422696 184.423683 157.892757 
C 184.423683 158.362817 184.610439 158.813688 184.942822 159.146071 
C 185.275205 159.478454 185.726076 159.66521 186.196136 159.66521 
z
" clip-path="url(#p3688a5504c)" style="fill: #ee7733; stroke: #ee7733; stroke-width: 0.886227"/>
    <path d="M 194.3125 180.416688 
C 194.78256 180.416688 195.233431 180.229931 195.565814 179.897548 
C 195.898197 179.565165 196.084954 179.114294 196.084954 178.644234 
C 196.084954 178.174174 195.898197 177.723303 195.565814 177.39092 
C 195.233431 177.058537 194.78256 176.87178 194.3125 176.87178 
C 193.84244 176.87178 193.391569 177.058537 193.059186 177.39092 
C 192.726803 177.723303 192.540046 178.174174 192.540046 178.644234 
C 192.540046 179.114294 192.726803 179.565165 193.059186 179.897548 
C 193.391569 180.229931 193.84244 180.416688 194.3125 180.416688 
z
" clip-path="url(#p3688a5504c)" style="fill: #ee7733; stroke: #ee7733; stroke-width: 0.886227"/>
    <path d="M 202.428864 145.235757 
C 202.898924 145.235757 203.349795 145.049 203.682178 144.716617 
C 204.014561 144.384235 204.201317 143.933363 204.201317 143.463303 
C 204.201317 142.993243 204.014561 142.542372 203.682178 142.209989 
C 203.349795 141.877606 202.898924 141.690849 202.428864 141.690849 
C 201.958803 141.690849 201.507932 141.877606 201.175549 142.209989 
C 200.843167 142.542372 200.65641 142.993243 200.65641 143.463303 
C 200.65641 143.933363 200.843167 144.384235 201.175549 144.716617 
C 201.507932 145.049 201.958803 145.235757 202.428864 145.235757 
z
" clip-path="url(#p3688a5504c)" style="fill: #ee7733; stroke: #ee7733; stroke-width: 0.886227"/>
    <path d="M 210.545227 167.240882 
C 211.015288 167.240882 211.466159 167.054125 211.798541 166.721742 
C 212.130924 166.389359 212.317681 165.938488 212.317681 165.468428 
C 212.317681 164.998368 212.130924 164.547497 211.798541 164.215114 
C 211.466159 163.882731 211.015288 163.695974 210.545227 163.695974 
C 210.075167 163.695974 209.624296 163.882731 209.291913 164.215114 
C 208.95953 164.547497 208.772773 164.998368 208.772773 165.468428 
C 208.772773 165.938488 208.95953 166.389359 209.291913 166.721742 
C 209.624296 167.054125 210.075167 167.240882 210.545227 167.240882 
z
" clip-path="url(#p3688a5504c)" style="fill: #ee7733; stroke: #ee7733; stroke-width: 0.886227"/>
    <path d="M 218.661591 146.730657 
C 219.131651 146.730657 219.582522 146.5439 219.914905 146.211517 
C 220.247288 145.879134 220.434045 145.428263 220.434045 144.958203 
C 220.434045 144.488143 220.247288 144.037272 219.914905 143.704889 
C 219.582522 143.372506 219.131651 143.185749 218.661591 143.185749 
C 218.191531 143.185749 217.74066 143.372506 217.408277 143.704889 
C 217.075894 144.037272 216.889137 144.488143 216.889137 144.958203 
C 216.889137 145.428263 217.075894 145.879134 217.408277 146.211517 
C 217.74066 146.5439 218.191531 146.730657 218.661591 146.730657 
z
" clip-path="url(#p3688a5504c)" style="fill: #ee7733; stroke: #ee7733; stroke-width: 0.886227"/>
    <path d="M 226.777955 170.493088 
C 227.248015 170.493088 227.698886 170.306332 228.031269 169.973949 
C 228.363651 169.641566 228.550408 169.190695 228.550408 168.720635 
C 228.550408 168.250574 228.363651 167.799703 228.031269 167.46732 
C 227.698886 167.134938 227.248015 166.948181 226.777955 166.948181 
C 226.307894 166.948181 225.857023 167.134938 225.52464 167.46732 
C 225.192258 167.799703 225.005501 168.250574 225.005501 168.720635 
C 225.005501 169.190695 225.192258 169.641566 225.52464 169.973949 
C 225.857023 170.306332 226.307894 170.493088 226.777955 170.493088 
z
" clip-path="url(#p3688a5504c)" style="fill: #ee7733; stroke: #ee7733; stroke-width: 0.886227"/>
    <path d="M 234.894318 155.673039 
C 235.364378 155.673039 235.81525 155.486282 236.147632 155.1539 
C 236.480015 154.821517 236.666772 154.370646 236.666772 153.900585 
C 236.666772 153.430525 236.480015 152.979654 236.147632 152.647271 
C 235.81525 152.314888 235.364378 152.128132 234.894318 152.128132 
C 234.424258 152.128132 233.973387 152.314888 233.641004 152.647271 
C 233.308621 152.979654 233.121864 153.430525 233.121864 153.900585 
C 233.121864 154.370646 233.308621 154.821517 233.641004 155.1539 
C 233.973387 155.486282 234.424258 155.673039 234.894318 155.673039 
z
" clip-path="url(#p3688a5504c)" style="fill: #ee7733; stroke: #ee7733; stroke-width: 0.886227"/>
    <path d="M 243.010682 152.329376 
C 243.480742 152.329376 243.931613 152.142619 244.263996 151.810236 
C 244.596379 151.477853 244.783136 151.026982 244.783136 150.556922 
C 244.783136 150.086862 244.596379 149.635991 244.263996 149.303608 
C 243.931613 148.971225 243.480742 148.784468 243.010682 148.784468 
C 242.540622 148.784468 242.08975 148.971225 241.757368 149.303608 
C 241.424985 149.635991 241.238228 150.086862 241.238228 150.556922 
C 241.238228 151.026982 241.424985 151.477853 241.757368 151.810236 
C 242.08975 152.142619 242.540622 152.329376 243.010682 152.329376 
z
" clip-path="url(#p3688a5504c)" style="fill: #ee7733; stroke: #ee7733; stroke-width: 0.886227"/>
    <path d="M 251.127045 138.994441 
C 251.597106 138.994441 252.047977 138.807684 252.38036 138.475301 
C 252.712742 138.142918 252.899499 137.692047 252.899499 137.221987 
C 252.899499 136.751927 252.712742 136.301055 252.38036 135.968673 
C 252.047977 135.63629 251.597106 135.449533 251.127045 135.449533 
C 250.656985 135.449533 250.206114 135.63629 249.873731 135.968673 
C 249.541349 136.301055 249.354592 136.751927 249.354592 137.221987 
C 249.354592 137.692047 249.541349 138.142918 249.873731 138.475301 
C 250.206114 138.807684 250.656985 138.994441 251.127045 138.994441 
z
" clip-path="url(#p3688a5504c)" style="fill: #ee7733; stroke: #ee7733; stroke-width: 0.886227"/>
    <path d="M 259.243409 141.554301 
C 259.713469 141.554301 260.16434 141.367544 260.496723 141.035161 
C 260.829106 140.702778 261.015863 140.251907 261.015863 139.781847 
C 261.015863 139.311787 260.829106 138.860916 260.496723 138.528533 
C 260.16434 138.19615 259.713469 138.009393 259.243409 138.009393 
C 258.773349 138.009393 258.322478 138.19615 257.990095 138.528533 
C 257.657712 138.860916 257.470955 139.311787 257.470955 139.781847 
C 257.470955 140.251907 257.657712 140.702778 257.990095 141.035161 
C 258.322478 141.367544 258.773349 141.554301 259.243409 141.554301 
z
" clip-path="url(#p3688a5504c)" style="fill: #ee7733; stroke: #ee7733; stroke-width: 0.886227"/>
    <path d="M 267.359773 150.187649 
C 267.829833 150.187649 268.280704 150.000892 268.613087 149.668509 
C 268.94547 149.336126 269.132227 148.885255 269.132227 148.415195 
C 269.132227 147.945135 268.94547 147.494264 268.613087 147.161881 
C 268.280704 146.829498 267.829833 146.642741 267.359773 146.642741 
C 266.889712 146.642741 266.438841 146.829498 266.106459 147.161881 
C 265.774076 147.494264 265.587319 147.945135 265.587319 148.415195 
C 265.587319 148.885255 265.774076 149.336126 266.106459 149.668509 
C 266.438841 150.000892 266.889712 150.187649 267.359773 150.187649 
z
" clip-path="url(#p3688a5504c)" style="fill: #ee7733; stroke: #ee7733; stroke-width: 0.886227"/>
    <path d="M 275.476136 147.181267 
C 275.946197 147.181267 276.397068 146.99451 276.729451 146.662127 
C 277.061833 146.329745 277.24859 145.878874 277.24859 145.408813 
C 277.24859 144.938753 277.061833 144.487882 276.729451 144.155499 
C 276.397068 143.823116 275.946197 143.636359 275.476136 143.636359 
C 275.006076 143.636359 274.555205 143.823116 274.222822 144.155499 
C 273.890439 144.487882 273.703683 144.938753 273.703683 145.408813 
C 273.703683 145.878874 273.890439 146.329745 274.222822 146.662127 
C 274.555205 146.99451 275.006076 147.181267 275.476136 147.181267 
z
" clip-path="url(#p3688a5504c)" style="fill: #ee7733; stroke: #ee7733; stroke-width: 0.886227"/>
    <path d="M 283.5925 142.268994 
C 284.06256 142.268994 284.513431 142.082237 284.845814 141.749854 
C 285.178197 141.417472 285.364954 140.966601 285.364954 140.49654 
C 285.364954 140.02648 285.178197 139.575609 284.845814 139.243226 
C 284.513431 138.910843 284.06256 138.724086 283.5925 138.724086 
C 283.12244 138.724086 282.671569 138.910843 282.339186 139.243226 
C 282.006803 139.575609 281.820046 140.02648 281.820046 140.49654 
C 281.820046 140.966601 282.006803 141.417472 282.339186 141.749854 
C 282.671569 142.082237 283.12244 142.268994 283.5925 142.268994 
z
" clip-path="url(#p3688a5504c)" style="fill: #ee7733; stroke: #ee7733; stroke-width: 0.886227"/>
    <path d="M 291.708864 151.949583 
C 292.178924 151.949583 292.629795 151.762827 292.962178 151.430444 
C 293.294561 151.098061 293.481317 150.64719 293.481317 150.17713 
C 293.481317 149.707069 293.294561 149.256198 292.962178 148.923815 
C 292.629795 148.591433 292.178924 148.404676 291.708864 148.404676 
C 291.238803 148.404676 290.787932 148.591433 290.455549 148.923815 
C 290.123167 149.256198 289.93641 149.707069 289.93641 150.17713 
C 289.93641 150.64719 290.123167 151.098061 290.455549 151.430444 
C 290.787932 151.762827 291.238803 151.949583 291.708864 151.949583 
z
" clip-path="url(#p3688a5504c)" style="fill: #ee7733; stroke: #ee7733; stroke-width: 0.886227"/>
    <path d="M 299.825227 147.286061 
C 300.295288 147.286061 300.746159 147.099304 301.078541 146.766922 
C 301.410924 146.434539 301.597681 145.983668 301.597681 145.513607 
C 301.597681 145.043547 301.410924 144.592676 301.078541 144.260293 
C 300.746159 143.927911 300.295288 143.741154 299.825227 143.741154 
C 299.355167 143.741154 298.904296 143.927911 298.571913 144.260293 
C 298.23953 144.592676 298.052773 145.043547 298.052773 145.513607 
C 298.052773 145.983668 298.23953 146.434539 298.571913 146.766922 
C 298.904296 147.099304 299.355167 147.286061 299.825227 147.286061 
z
" clip-path="url(#p3688a5504c)" style="fill: #ee7733; stroke: #ee7733; stroke-width: 0.886227"/>
    <path d="M 307.941591 144.010615 
C 308.411651 144.010615 308.862522 143.823859 309.194905 143.491476 
C 309.527288 143.159093 309.714045 142.708222 309.714045 142.238162 
C 309.714045 141.768101 309.527288 141.31723 309.194905 140.984847 
C 308.862522 140.652465 308.411651 140.465708 307.941591 140.465708 
C 307.471531 140.465708 307.02066 140.652465 306.688277 140.984847 
C 306.355894 141.31723 306.169137 141.768101 306.169137 142.238162 
C 306.169137 142.708222 306.355894 143.159093 306.688277 143.491476 
C 307.02066 143.823859 307.471531 144.010615 307.941591 144.010615 
z
" clip-path="url(#p3688a5504c)" style="fill: #ee7733; stroke: #ee7733; stroke-width: 0.886227"/>
    <path d="M 316.057955 142.087017 
C 316.528015 142.087017 316.978886 141.90026 317.311269 141.567877 
C 317.643651 141.235495 317.830408 140.784624 317.830408 140.314563 
C 317.830408 139.844503 317.643651 139.393632 317.311269 139.061249 
C 316.978886 138.728866 316.528015 138.542109 316.057955 138.542109 
C 315.587894 138.542109 315.137023 138.728866 314.80464 139.061249 
C 314.472258 139.393632 314.285501 139.844503 314.285501 140.314563 
C 314.285501 140.784624 314.472258 141.235495 314.80464 141.567877 
C 315.137023 141.90026 315.587894 142.087017 316.057955 142.087017 
z
" clip-path="url(#p3688a5504c)" style="fill: #ee7733; stroke: #ee7733; stroke-width: 0.886227"/>
    <path d="M 324.174318 141.849882 
C 324.644378 141.849882 325.09525 141.663125 325.427632 141.330742 
C 325.760015 140.99836 325.946772 140.547488 325.946772 140.077428 
C 325.946772 139.607368 325.760015 139.156497 325.427632 138.824114 
C 325.09525 138.491731 324.644378 138.304974 324.174318 138.304974 
C 323.704258 138.304974 323.253387 138.491731 322.921004 138.824114 
C 322.588621 139.156497 322.401864 139.607368 322.401864 140.077428 
C 322.401864 140.547488 322.588621 140.99836 322.921004 141.330742 
C 323.253387 141.663125 323.704258 141.849882 324.174318 141.849882 
z
" clip-path="url(#p3688a5504c)" style="fill: #ee7733; stroke: #ee7733; stroke-width: 0.886227"/>
    <path d="M 332.290682 140.326458 
C 332.760742 140.326458 333.211613 140.139701 333.543996 139.807318 
C 333.876379 139.474935 334.063136 139.024064 334.063136 138.554004 
C 334.063136 138.083944 333.876379 137.633073 333.543996 137.30069 
C 333.211613 136.968307 332.760742 136.78155 332.290682 136.78155 
C 331.820622 136.78155 331.36975 136.968307 331.037368 137.30069 
C 330.704985 137.633073 330.518228 138.083944 330.518228 138.554004 
C 330.518228 139.024064 330.704985 139.474935 331.037368 139.807318 
C 331.36975 140.139701 331.820622 140.326458 332.290682 140.326458 
z
" clip-path="url(#p3688a5504c)" style="fill: #ee7733; stroke: #ee7733; stroke-width: 0.886227"/>
    <path d="M 340.407045 139.430779 
C 340.877106 139.430779 341.327977 139.244023 341.66036 138.91164 
C 341.992742 138.579257 342.179499 138.128386 342.179499 137.658326 
C 342.179499 137.188265 341.992742 136.737394 341.66036 136.405011 
C 341.327977 136.072629 340.877106 135.885872 340.407045 135.885872 
C 339.936985 135.885872 339.486114 136.072629 339.153731 136.405011 
C 338.821349 136.737394 338.634592 137.188265 338.634592 137.658326 
C 338.634592 138.128386 338.821349 138.579257 339.153731 138.91164 
C 339.486114 139.244023 339.936985 139.430779 340.407045 139.430779 
z
" clip-path="url(#p3688a5504c)" style="fill: #ee7733; stroke: #ee7733; stroke-width: 0.886227"/>
    <path d="M 348.523409 138.602436 
C 348.993469 138.602436 349.44434 138.415679 349.776723 138.083296 
C 350.109106 137.750914 350.295863 137.300043 350.295863 136.829982 
C 350.295863 136.359922 350.109106 135.909051 349.776723 135.576668 
C 349.44434 135.244285 348.993469 135.057528 348.523409 135.057528 
C 348.053349 135.057528 347.602478 135.244285 347.270095 135.576668 
C 346.937712 135.909051 346.750955 136.359922 346.750955 136.829982 
C 346.750955 137.300043 346.937712 137.750914 347.270095 138.083296 
C 347.602478 138.415679 348.053349 138.602436 348.523409 138.602436 
z
" clip-path="url(#p3688a5504c)" style="fill: #ee7733; stroke: #ee7733; stroke-width: 0.886227"/>
    <path d="M 356.639773 138.777631 
C 357.109833 138.777631 357.560704 138.590874 357.893087 138.258492 
C 358.22547 137.926109 358.412227 137.475238 358.412227 137.005177 
C 358.412227 136.535117 358.22547 136.084246 357.893087 135.751863 
C 357.560704 135.419481 357.109833 135.232724 356.639773 135.232724 
C 356.169712 135.232724 355.718841 135.419481 355.386459 135.751863 
C 355.054076 136.084246 354.867319 136.535117 354.867319 137.005177 
C 354.867319 137.475238 355.054076 137.926109 355.386459 138.258492 
C 355.718841 138.590874 356.169712 138.777631 356.639773 138.777631 
z
" clip-path="url(#p3688a5504c)" style="fill: #ee7733; stroke: #ee7733; stroke-width: 0.886227"/>
    <path d="M 364.756136 138.469935 
C 365.226197 138.469935 365.677068 138.283178 366.009451 137.950796 
C 366.341833 137.618413 366.52859 137.167542 366.52859 136.697481 
C 366.52859 136.227421 366.341833 135.77655 366.009451 135.444167 
C 365.677068 135.111784 365.226197 134.925028 364.756136 134.925028 
C 364.286076 134.925028 363.835205 135.111784 363.502822 135.444167 
C 363.170439 135.77655 362.983683 136.227421 362.983683 136.697481 
C 362.983683 137.167542 363.170439 137.618413 363.502822 137.950796 
C 363.835205 138.283178 364.286076 138.469935 364.756136 138.469935 
z
" clip-path="url(#p3688a5504c)" style="fill: #ee7733; stroke: #ee7733; stroke-width: 0.886227"/>
    <path d="M 372.8725 137.558627 
C 373.34256 137.558627 373.793431 137.37187 374.125814 137.039487 
C 374.458197 136.707104 374.644954 136.256233 374.644954 135.786173 
C 374.644954 135.316113 374.458197 134.865241 374.125814 134.532859 
C 373.793431 134.200476 373.34256 134.013719 372.8725 134.013719 
C 372.40244 134.013719 371.951569 134.200476 371.619186 134.532859 
C 371.286803 134.865241 371.100046 135.316113 371.100046 135.786173 
C 371.100046 136.256233 371.286803 136.707104 371.619186 137.039487 
C 371.951569 137.37187 372.40244 137.558627 372.8725 137.558627 
z
" clip-path="url(#p3688a5504c)" style="fill: #ee7733; stroke: #ee7733; stroke-width: 0.886227"/>
    <path d="M 380.988864 134.943718 
C 381.458924 134.943718 381.909795 134.756961 382.242178 134.424578 
C 382.574561 134.092196 382.761317 133.641325 382.761317 133.171264 
C 382.761317 132.701204 382.574561 132.250333 382.242178 131.91795 
C 381.909795 131.585567 381.458924 131.39881 380.988864 131.39881 
C 380.518803 131.39881 380.067932 131.585567 379.735549 131.91795 
C 379.403167 132.250333 379.21641 132.701204 379.21641 133.171264 
C 379.21641 133.641325 379.403167 134.092196 379.735549 134.424578 
C 380.067932 134.756961 380.518803 134.943718 380.988864 134.943718 
z
" clip-path="url(#p3688a5504c)" style="fill: #ee7733; stroke: #ee7733; stroke-width: 0.886227"/>
    <path d="M 389.105227 136.691241 
C 389.575288 136.691241 390.026159 136.504484 390.358541 136.172101 
C 390.690924 135.839719 390.877681 135.388847 390.877681 134.918787 
C 390.877681 134.448727 390.690924 133.997856 390.358541 133.665473 
C 390.026159 133.33309 389.575288 133.146333 389.105227 133.146333 
C 388.635167 133.146333 388.184296 133.33309 387.851913 133.665473 
C 387.51953 133.997856 387.332773 134.448727 387.332773 134.918787 
C 387.332773 135.388847 387.51953 135.839719 387.851913 136.172101 
C 388.184296 136.504484 388.635167 136.691241 389.105227 136.691241 
z
" clip-path="url(#p3688a5504c)" style="fill: #ee7733; stroke: #ee7733; stroke-width: 0.886227"/>
    <path d="M 397.221591 134.074186 
C 397.691651 134.074186 398.142522 133.88743 398.474905 133.555047 
C 398.807288 133.222664 398.994045 132.771793 398.994045 132.301733 
C 398.994045 131.831672 398.807288 131.380801 398.474905 131.048418 
C 398.142522 130.716036 397.691651 130.529279 397.221591 130.529279 
C 396.751531 130.529279 396.30066 130.716036 395.968277 131.048418 
C 395.635894 131.380801 395.449137 131.831672 395.449137 132.301733 
C 395.449137 132.771793 395.635894 133.222664 395.968277 133.555047 
C 396.30066 133.88743 396.751531 134.074186 397.221591 134.074186 
z
" clip-path="url(#p3688a5504c)" style="fill: #ee7733; stroke: #ee7733; stroke-width: 0.886227"/>
    <path d="M 405.337955 126.529929 
C 405.808015 126.529929 406.258886 126.343172 406.591269 126.01079 
C 406.923651 125.678407 407.110408 125.227536 407.110408 124.757475 
C 407.110408 124.287415 406.923651 123.836544 406.591269 123.504161 
C 406.258886 123.171779 405.808015 122.985022 405.337955 122.985022 
C 404.867894 122.985022 404.417023 123.171779 404.08464 123.504161 
C 403.752258 123.836544 403.565501 124.287415 403.565501 124.757475 
C 403.565501 125.227536 403.752258 125.678407 404.08464 126.01079 
C 404.417023 126.343172 404.867894 126.529929 405.337955 126.529929 
z
" clip-path="url(#p3688a5504c)" style="fill: #ee7733; stroke: #ee7733; stroke-width: 0.886227"/>
    <path d="M 413.454318 123.364291 
C 413.924378 123.364291 414.37525 123.177534 414.707632 122.845151 
C 415.040015 122.512768 415.226772 122.061897 415.226772 121.591837 
C 415.226772 121.121777 415.040015 120.670906 414.707632 120.338523 
C 414.37525 120.00614 413.924378 119.819383 413.454318 119.819383 
C 412.984258 119.819383 412.533387 120.00614 412.201004 120.338523 
C 411.868621 120.670906 411.681864 121.121777 411.681864 121.591837 
C 411.681864 122.061897 411.868621 122.512768 412.201004 122.845151 
C 412.533387 123.177534 412.984258 123.364291 413.454318 123.364291 
z
" clip-path="url(#p3688a5504c)" style="fill: #ee7733; stroke: #ee7733; stroke-width: 0.886227"/>
    <path d="M 421.570682 118.913574 
C 422.040742 118.913574 422.491613 118.726817 422.823996 118.394435 
C 423.156379 118.062052 423.343136 117.611181 423.343136 117.14112 
C 423.343136 116.67106 423.156379 116.220189 422.823996 115.887806 
C 422.491613 115.555424 422.040742 115.368667 421.570682 115.368667 
C 421.100622 115.368667 420.64975 115.555424 420.317368 115.887806 
C 419.984985 116.220189 419.798228 116.67106 419.798228 117.14112 
C 419.798228 117.611181 419.984985 118.062052 420.317368 118.394435 
C 420.64975 118.726817 421.100622 118.913574 421.570682 118.913574 
z
" clip-path="url(#p3688a5504c)" style="fill: #ee7733; stroke: #ee7733; stroke-width: 0.886227"/>
    <path d="M 429.687045 113.356025 
C 430.157106 113.356025 430.607977 113.169268 430.94036 112.836885 
C 431.272742 112.504502 431.459499 112.053631 431.459499 111.583571 
C 431.459499 111.113511 431.272742 110.662639 430.94036 110.330257 
C 430.607977 109.997874 430.157106 109.811117 429.687045 109.811117 
C 429.216985 109.811117 428.766114 109.997874 428.433731 110.330257 
C 428.101349 110.662639 427.914592 111.113511 427.914592 111.583571 
C 427.914592 112.053631 428.101349 112.504502 428.433731 112.836885 
C 428.766114 113.169268 429.216985 113.356025 429.687045 113.356025 
z
" clip-path="url(#p3688a5504c)" style="fill: #ee7733; stroke: #ee7733; stroke-width: 0.886227"/>
    <path d="M 437.803409 110.193314 
C 438.273469 110.193314 438.72434 110.006557 439.056723 109.674174 
C 439.389106 109.341791 439.575863 108.89092 439.575863 108.42086 
C 439.575863 107.9508 439.389106 107.499929 439.056723 107.167546 
C 438.72434 106.835163 438.273469 106.648406 437.803409 106.648406 
C 437.333349 106.648406 436.882478 106.835163 436.550095 107.167546 
C 436.217712 107.499929 436.030955 107.9508 436.030955 108.42086 
C 436.030955 108.89092 436.217712 109.341791 436.550095 109.674174 
C 436.882478 110.006557 437.333349 110.193314 437.803409 110.193314 
z
" clip-path="url(#p3688a5504c)" style="fill: #ee7733; stroke: #ee7733; stroke-width: 0.886227"/>
    <path d="M 445.919773 107.475341 
C 446.389833 107.475341 446.840704 107.288584 447.173087 106.956201 
C 447.50547 106.623818 447.692227 106.172947 447.692227 105.702887 
C 447.692227 105.232827 447.50547 104.781956 447.173087 104.449573 
C 446.840704 104.11719 446.389833 103.930433 445.919773 103.930433 
C 445.449712 103.930433 444.998841 104.11719 444.666459 104.449573 
C 444.334076 104.781956 444.147319 105.232827 444.147319 105.702887 
C 444.147319 106.172947 444.334076 106.623818 444.666459 106.956201 
C 444.998841 107.288584 445.449712 107.475341 445.919773 107.475341 
z
" clip-path="url(#p3688a5504c)" style="fill: #ee7733; stroke: #ee7733; stroke-width: 0.886227"/>
    <path d="M 454.036136 102.403186 
C 454.506197 102.403186 454.957068 102.216429 455.289451 101.884047 
C 455.621833 101.551664 455.80859 101.100793 455.80859 100.630732 
C 455.80859 100.160672 455.621833 99.709801 455.289451 99.377418 
C 454.957068 99.045035 454.506197 98.858279 454.036136 98.858279 
C 453.566076 98.858279 453.115205 99.045035 452.782822 99.377418 
C 452.450439 99.709801 452.263683 100.160672 452.263683 100.630732 
C 452.263683 101.100793 452.450439 101.551664 452.782822 101.884047 
C 453.115205 102.216429 453.566076 102.403186 454.036136 102.403186 
z
" clip-path="url(#p3688a5504c)" style="fill: #ee7733; stroke: #ee7733; stroke-width: 0.886227"/>
    <path d="M 462.1525 106.133694 
C 462.62256 106.133694 463.073431 105.946937 463.405814 105.614554 
C 463.738197 105.282171 463.924954 104.8313 463.924954 104.36124 
C 463.924954 103.89118 463.738197 103.440309 463.405814 103.107926 
C 463.073431 102.775543 462.62256 102.588786 462.1525 102.588786 
C 461.68244 102.588786 461.231569 102.775543 460.899186 103.107926 
C 460.566803 103.440309 460.380046 103.89118 460.380046 104.36124 
C 460.380046 104.8313 460.566803 105.282171 460.899186 105.614554 
C 461.231569 105.946937 461.68244 106.133694 462.1525 106.133694 
z
" clip-path="url(#p3688a5504c)" style="fill: #ee7733; stroke: #ee7733; stroke-width: 0.886227"/>
    <path d="M 470.268864 108.817731 
C 470.738924 108.817731 471.189795 108.630974 471.522178 108.298592 
C 471.854561 107.966209 472.041317 107.515338 472.041317 107.045278 
C 472.041317 106.575217 471.854561 106.124346 471.522178 105.791963 
C 471.189795 105.459581 470.738924 105.272824 470.268864 105.272824 
C 469.798803 105.272824 469.347932 105.459581 469.015549 105.791963 
C 468.683167 106.124346 468.49641 106.575217 468.49641 107.045278 
C 468.49641 107.515338 468.683167 107.966209 469.015549 108.298592 
C 469.347932 108.630974 469.798803 108.817731 470.268864 108.817731 
z
" clip-path="url(#p3688a5504c)" style="fill: #ee7733; stroke: #ee7733; stroke-width: 0.886227"/>
    <path d="M 478.385227 108.441655 
C 478.855288 108.441655 479.306159 108.254899 479.638541 107.922516 
C 479.970924 107.590133 480.157681 107.139262 480.157681 106.669202 
C 480.157681 106.199141 479.970924 105.74827 479.638541 105.415887 
C 479.306159 105.083505 478.855288 104.896748 478.385227 104.896748 
C 477.915167 104.896748 477.464296 105.083505 477.131913 105.415887 
C 476.79953 105.74827 476.612773 106.199141 476.612773 106.669202 
C 476.612773 107.139262 476.79953 107.590133 477.131913 107.922516 
C 477.464296 108.254899 477.915167 108.441655 478.385227 108.441655 
z
" clip-path="url(#p3688a5504c)" style="fill: #ee7733; stroke: #ee7733; stroke-width: 0.886227"/>
    <path d="M 486.501591 107.387071 
C 486.971651 107.387071 487.422522 107.200314 487.754905 106.867932 
C 488.087288 106.535549 488.274045 106.084678 488.274045 105.614617 
C 488.274045 105.144557 488.087288 104.693686 487.754905 104.361303 
C 487.422522 104.028921 486.971651 103.842164 486.501591 103.842164 
C 486.031531 103.842164 485.58066 104.028921 485.248277 104.361303 
C 484.915894 104.693686 484.729137 105.144557 484.729137 105.614617 
C 484.729137 106.084678 484.915894 106.535549 485.248277 106.867932 
C 485.58066 107.200314 486.031531 107.387071 486.501591 107.387071 
z
" clip-path="url(#p3688a5504c)" style="fill: #ee7733; stroke: #ee7733; stroke-width: 0.886227"/>
   </g>
  </g>
 </g>
 <defs>
  <clipPath id="p3688a5504c">
   <rect x="60.3925" y="7.2" width="446.4" height="221.76"/>
  </clipPath>
 </defs>
</svg>
