<?xml version="1.0" encoding="utf-8" standalone="no"?>
<!DOCTYPE svg PUBLIC "-//W3C//DTD SVG 1.1//EN"
  "http://www.w3.org/Graphics/SVG/1.1/DTD/svg11.dtd">
<!-- Created with matplotlib (https://matplotlib.org/) -->
<svg height="264.672687pt" version="1.1" viewBox="0 0 498.717 264.672687" width="498.717pt" xmlns="http://www.w3.org/2000/svg" xmlns:xlink="http://www.w3.org/1999/xlink">
 <defs>
  <style type="text/css">
*{stroke-linecap:butt;stroke-linejoin:round;}
  </style>
 </defs>
 <g id="figure_1">
  <g id="patch_1">
   <path d="M 0 264.672687 
L 498.717 264.672687 
L 498.717 0 
L 0 0 
z
" style="fill:#ffffff;stroke:#ffffff;stroke-linejoin:miter;"/>
  </g>
  <g id="axes_1">
   <g id="patch_2">
    <path d="M 45.117 228.96 
L 491.517 228.96 
L 491.517 7.2 
L 45.117 7.2 
z
" style="fill:#ffffff;stroke:#7f7f7f;stroke-linejoin:miter;"/>
   </g>
   <g id="matplotlib.axis_1">
    <g id="xtick_1">
     <g id="line2d_1">
      <path clip-path="url(#p7974a58838)" d="M 65.407909 228.96 
L 65.407909 7.2 
" style="fill:none;stroke:#e5e5e5;stroke-width:0.8;"/>
     </g>
     <g id="line2d_2">
      <path d="M 65.407909 228.96 
" style="fill:none;stroke:#000000;stroke-width:1.5;"/>
      <defs>
       <path d="M 0 0 
L 0 2.75 
" id="m4b60a9733e" style="stroke:#000000;"/>
      </defs>
      <g>
       <use style="stroke:#000000;" x="65.407909" xlink:href="#m4b60a9733e" y="228.96"/>
      </g>
     </g>
     <g id="text_1">
      <!-- 1970 -->
      <defs>
       <path d="M 12.40625 8.296875 
L 28.515625 8.296875 
L 28.515625 63.921875 
L 10.984375 60.40625 
L 10.984375 69.390625 
L 28.421875 72.90625 
L 38.28125 72.90625 
L 38.28125 8.296875 
L 54.390625 8.296875 
L 54.390625 0 
L 12.40625 0 
z
" id="DejaVuSans-49"/>
       <path d="M 10.984375 1.515625 
L 10.984375 10.5 
Q 14.703125 8.734375 18.5 7.8125 
Q 22.3125 6.890625 25.984375 6.890625 
Q 35.75 6.890625 40.890625 13.453125 
Q 46.046875 20.015625 46.78125 33.40625 
Q 43.953125 29.203125 39.59375 26.953125 
Q 35.25 24.703125 29.984375 24.703125 
Q 19.046875 24.703125 12.671875 31.3125 
Q 6.296875 37.9375 6.296875 49.421875 
Q 6.296875 60.640625 12.9375 67.421875 
Q 19.578125 74.21875 30.609375 74.21875 
Q 43.265625 74.21875 49.921875 64.515625 
Q 56.59375 54.828125 56.59375 36.375 
Q 56.59375 19.140625 48.40625 8.859375 
Q 40.234375 -1.421875 26.421875 -1.421875 
Q 22.703125 -1.421875 18.890625 -0.6875 
Q 15.09375 0.046875 10.984375 1.515625 
z
M 30.609375 32.421875 
Q 37.25 32.421875 41.125 36.953125 
Q 45.015625 41.5 45.015625 49.421875 
Q 45.015625 57.28125 41.125 61.84375 
Q 37.25 66.40625 30.609375 66.40625 
Q 23.96875 66.40625 20.09375 61.84375 
Q 16.21875 57.28125 16.21875 49.421875 
Q 16.21875 41.5 20.09375 36.953125 
Q 23.96875 32.421875 30.609375 32.421875 
z
" id="DejaVuSans-57"/>
       <path d="M 8.203125 72.90625 
L 55.078125 72.90625 
L 55.078125 68.703125 
L 28.609375 0 
L 18.3125 0 
L 43.21875 64.59375 
L 8.203125 64.59375 
z
" id="DejaVuSans-55"/>
       <path d="M 31.78125 66.40625 
Q 24.171875 66.40625 20.328125 58.90625 
Q 16.5 51.421875 16.5 36.375 
Q 16.5 21.390625 20.328125 13.890625 
Q 24.171875 6.390625 31.78125 6.390625 
Q 39.453125 6.390625 43.28125 13.890625 
Q 47.125 21.390625 47.125 36.375 
Q 47.125 51.421875 43.28125 58.90625 
Q 39.453125 66.40625 31.78125 66.40625 
z
M 31.78125 74.21875 
Q 44.046875 74.21875 50.515625 64.515625 
Q 56.984375 54.828125 56.984375 36.375 
Q 56.984375 17.96875 50.515625 8.265625 
Q 44.046875 -1.421875 31.78125 -1.421875 
Q 19.53125 -1.421875 13.0625 8.265625 
Q 6.59375 17.96875 6.59375 36.375 
Q 6.59375 54.828125 13.0625 64.515625 
Q 19.53125 74.21875 31.78125 74.21875 
z
" id="DejaVuSans-48"/>
      </defs>
      <g transform="translate(54.209909 240.596625)scale(0.088 -0.088)">
       <use xlink:href="#DejaVuSans-49"/>
       <use x="63.623047" xlink:href="#DejaVuSans-57"/>
       <use x="127.246094" xlink:href="#DejaVuSans-55"/>
       <use x="190.869141" xlink:href="#DejaVuSans-48"/>
      </g>
     </g>
    </g>
    <g id="xtick_2">
     <g id="line2d_3">
      <path clip-path="url(#p7974a58838)" d="M 146.571545 228.96 
L 146.571545 7.2 
" style="fill:none;stroke:#e5e5e5;stroke-width:0.8;"/>
     </g>
     <g id="line2d_4">
      <path d="M 146.571545 228.96 
" style="fill:none;stroke:#000000;stroke-width:1.5;"/>
      <g>
       <use style="stroke:#000000;" x="146.571545" xlink:href="#m4b60a9733e" y="228.96"/>
      </g>
     </g>
     <g id="text_2">
      <!-- 1980 -->
      <defs>
       <path d="M 31.78125 34.625 
Q 24.75 34.625 20.71875 30.859375 
Q 16.703125 27.09375 16.703125 20.515625 
Q 16.703125 13.921875 20.71875 10.15625 
Q 24.75 6.390625 31.78125 6.390625 
Q 38.8125 6.390625 42.859375 10.171875 
Q 46.921875 13.96875 46.921875 20.515625 
Q 46.921875 27.09375 42.890625 30.859375 
Q 38.875 34.625 31.78125 34.625 
z
M 21.921875 38.8125 
Q 15.578125 40.375 12.03125 44.71875 
Q 8.5 49.078125 8.5 55.328125 
Q 8.5 64.0625 14.71875 69.140625 
Q 20.953125 74.21875 31.78125 74.21875 
Q 42.671875 74.21875 48.875 69.140625 
Q 55.078125 64.0625 55.078125 55.328125 
Q 55.078125 49.078125 51.53125 44.71875 
Q 48 40.375 41.703125 38.8125 
Q 48.828125 37.15625 52.796875 32.3125 
Q 56.78125 27.484375 56.78125 20.515625 
Q 56.78125 9.90625 50.3125 4.234375 
Q 43.84375 -1.421875 31.78125 -1.421875 
Q 19.734375 -1.421875 13.25 4.234375 
Q 6.78125 9.90625 6.78125 20.515625 
Q 6.78125 27.484375 10.78125 32.3125 
Q 14.796875 37.15625 21.921875 38.8125 
z
M 18.3125 54.390625 
Q 18.3125 48.734375 21.84375 45.5625 
Q 25.390625 42.390625 31.78125 42.390625 
Q 38.140625 42.390625 41.71875 45.5625 
Q 45.3125 48.734375 45.3125 54.390625 
Q 45.3125 60.0625 41.71875 63.234375 
Q 38.140625 66.40625 31.78125 66.40625 
Q 25.390625 66.40625 21.84375 63.234375 
Q 18.3125 60.0625 18.3125 54.390625 
z
" id="DejaVuSans-56"/>
      </defs>
      <g transform="translate(135.373545 240.596625)scale(0.088 -0.088)">
       <use xlink:href="#DejaVuSans-49"/>
       <use x="63.623047" xlink:href="#DejaVuSans-57"/>
       <use x="127.246094" xlink:href="#DejaVuSans-56"/>
       <use x="190.869141" xlink:href="#DejaVuSans-48"/>
      </g>
     </g>
    </g>
    <g id="xtick_3">
     <g id="line2d_5">
      <path clip-path="url(#p7974a58838)" d="M 227.735182 228.96 
L 227.735182 7.2 
" style="fill:none;stroke:#e5e5e5;stroke-width:0.8;"/>
     </g>
     <g id="line2d_6">
      <path d="M 227.735182 228.96 
" style="fill:none;stroke:#000000;stroke-width:1.5;"/>
      <g>
       <use style="stroke:#000000;" x="227.735182" xlink:href="#m4b60a9733e" y="228.96"/>
      </g>
     </g>
     <g id="text_3">
      <!-- 1990 -->
      <g transform="translate(216.537182 240.596625)scale(0.088 -0.088)">
       <use xlink:href="#DejaVuSans-49"/>
       <use x="63.623047" xlink:href="#DejaVuSans-57"/>
       <use x="127.246094" xlink:href="#DejaVuSans-57"/>
       <use x="190.869141" xlink:href="#DejaVuSans-48"/>
      </g>
     </g>
    </g>
    <g id="xtick_4">
     <g id="line2d_7">
      <path clip-path="url(#p7974a58838)" d="M 308.898818 228.96 
L 308.898818 7.2 
" style="fill:none;stroke:#e5e5e5;stroke-width:0.8;"/>
     </g>
     <g id="line2d_8">
      <path d="M 308.898818 228.96 
" style="fill:none;stroke:#000000;stroke-width:1.5;"/>
      <g>
       <use style="stroke:#000000;" x="308.898818" xlink:href="#m4b60a9733e" y="228.96"/>
      </g>
     </g>
     <g id="text_4">
      <!-- 2000 -->
      <defs>
       <path d="M 19.1875 8.296875 
L 53.609375 8.296875 
L 53.609375 0 
L 7.328125 0 
L 7.328125 8.296875 
Q 12.9375 14.109375 22.625 23.890625 
Q 32.328125 33.6875 34.8125 36.53125 
Q 39.546875 41.84375 41.421875 45.53125 
Q 43.3125 49.21875 43.3125 52.78125 
Q 43.3125 58.59375 39.234375 62.25 
Q 35.15625 65.921875 28.609375 65.921875 
Q 23.96875 65.921875 18.8125 64.3125 
Q 13.671875 62.703125 7.8125 59.421875 
L 7.8125 69.390625 
Q 13.765625 71.78125 18.9375 73 
Q 24.125 74.21875 28.421875 74.21875 
Q 39.75 74.21875 46.484375 68.546875 
Q 53.21875 62.890625 53.21875 53.421875 
Q 53.21875 48.921875 51.53125 44.890625 
Q 49.859375 40.875 45.40625 35.40625 
Q 44.1875 33.984375 37.640625 27.21875 
Q 31.109375 20.453125 19.1875 8.296875 
z
" id="DejaVuSans-50"/>
      </defs>
      <g transform="translate(297.700818 240.596625)scale(0.088 -0.088)">
       <use xlink:href="#DejaVuSans-50"/>
       <use x="63.623047" xlink:href="#DejaVuSans-48"/>
       <use x="127.246094" xlink:href="#DejaVuSans-48"/>
       <use x="190.869141" xlink:href="#DejaVuSans-48"/>
      </g>
     </g>
    </g>
    <g id="xtick_5">
     <g id="line2d_9">
      <path clip-path="url(#p7974a58838)" d="M 390.062455 228.96 
L 390.062455 7.2 
" style="fill:none;stroke:#e5e5e5;stroke-width:0.8;"/>
     </g>
     <g id="line2d_10">
      <path d="M 390.062455 228.96 
" style="fill:none;stroke:#000000;stroke-width:1.5;"/>
      <g>
       <use style="stroke:#000000;" x="390.062455" xlink:href="#m4b60a9733e" y="228.96"/>
      </g>
     </g>
     <g id="text_5">
      <!-- 2010 -->
      <g transform="translate(378.864455 240.596625)scale(0.088 -0.088)">
       <use xlink:href="#DejaVuSans-50"/>
       <use x="63.623047" xlink:href="#DejaVuSans-48"/>
       <use x="127.246094" xlink:href="#DejaVuSans-49"/>
       <use x="190.869141" xlink:href="#DejaVuSans-48"/>
      </g>
     </g>
    </g>
    <g id="xtick_6">
     <g id="line2d_11">
      <path clip-path="url(#p7974a58838)" d="M 471.226091 228.96 
L 471.226091 7.2 
" style="fill:none;stroke:#e5e5e5;stroke-width:0.8;"/>
     </g>
     <g id="line2d_12">
      <path d="M 471.226091 228.96 
" style="fill:none;stroke:#000000;stroke-width:1.5;"/>
      <g>
       <use style="stroke:#000000;" x="471.226091" xlink:href="#m4b60a9733e" y="228.96"/>
      </g>
     </g>
     <g id="text_6">
      <!-- 2020 -->
      <g transform="translate(460.028091 240.596625)scale(0.088 -0.088)">
       <use xlink:href="#DejaVuSans-50"/>
       <use x="63.623047" xlink:href="#DejaVuSans-48"/>
       <use x="127.246094" xlink:href="#DejaVuSans-50"/>
       <use x="190.869141" xlink:href="#DejaVuSans-48"/>
      </g>
     </g>
    </g>
    <g id="xtick_7">
     <g id="line2d_13">
      <path clip-path="url(#p7974a58838)" d="M 105.989727 228.96 
L 105.989727 7.2 
" style="fill:none;stroke:#fafafa;"/>
     </g>
     <g id="line2d_14">
      <path d="M 105.989727 228.96 
" style="fill:none;stroke:#000000;stroke-width:1.5;"/>
      <defs>
       <path d="M 0 0 
L 0 1.375 
" id="m9e4f809053" style="stroke:#000000;"/>
      </defs>
      <g>
       <use style="stroke:#000000;" x="105.989727" xlink:href="#m9e4f809053" y="228.96"/>
      </g>
     </g>
    </g>
    <g id="xtick_8">
     <g id="line2d_15">
      <path clip-path="url(#p7974a58838)" d="M 187.153364 228.96 
L 187.153364 7.2 
" style="fill:none;stroke:#fafafa;"/>
     </g>
     <g id="line2d_16">
      <path d="M 187.153364 228.96 
" style="fill:none;stroke:#000000;stroke-width:1.5;"/>
      <g>
       <use style="stroke:#000000;" x="187.153364" xlink:href="#m9e4f809053" y="228.96"/>
      </g>
     </g>
    </g>
    <g id="xtick_9">
     <g id="line2d_17">
      <path clip-path="url(#p7974a58838)" d="M 268.317 228.96 
L 268.317 7.2 
" style="fill:none;stroke:#fafafa;"/>
     </g>
     <g id="line2d_18">
      <path d="M 268.317 228.96 
" style="fill:none;stroke:#000000;stroke-width:1.5;"/>
      <g>
       <use style="stroke:#000000;" x="268.317" xlink:href="#m9e4f809053" y="228.96"/>
      </g>
     </g>
    </g>
    <g id="xtick_10">
     <g id="line2d_19">
      <path clip-path="url(#p7974a58838)" d="M 349.480636 228.96 
L 349.480636 7.2 
" style="fill:none;stroke:#fafafa;"/>
     </g>
     <g id="line2d_20">
      <path d="M 349.480636 228.96 
" style="fill:none;stroke:#000000;stroke-width:1.5;"/>
      <g>
       <use style="stroke:#000000;" x="349.480636" xlink:href="#m9e4f809053" y="228.96"/>
      </g>
     </g>
    </g>
    <g id="xtick_11">
     <g id="line2d_21">
      <path clip-path="url(#p7974a58838)" d="M 430.644273 228.96 
L 430.644273 7.2 
" style="fill:none;stroke:#fafafa;"/>
     </g>
     <g id="line2d_22">
      <path d="M 430.644273 228.96 
" style="fill:none;stroke:#000000;stroke-width:1.5;"/>
      <g>
       <use style="stroke:#000000;" x="430.644273" xlink:href="#m9e4f809053" y="228.96"/>
      </g>
     </g>
    </g>
    <g id="text_7">
     <!-- Year -->
     <defs>
      <path d="M -0.203125 72.90625 
L 10.40625 72.90625 
L 30.609375 42.921875 
L 50.6875 72.90625 
L 61.28125 72.90625 
L 35.5 34.71875 
L 35.5 0 
L 25.59375 0 
L 25.59375 34.71875 
z
" id="DejaVuSans-89"/>
      <path d="M 56.203125 29.59375 
L 56.203125 25.203125 
L 14.890625 25.203125 
Q 15.484375 15.921875 20.484375 11.0625 
Q 25.484375 6.203125 34.421875 6.203125 
Q 39.59375 6.203125 44.453125 7.46875 
Q 49.3125 8.734375 54.109375 11.28125 
L 54.109375 2.78125 
Q 49.265625 0.734375 44.1875 -0.34375 
Q 39.109375 -1.421875 33.890625 -1.421875 
Q 20.796875 -1.421875 13.15625 6.1875 
Q 5.515625 13.8125 5.515625 26.8125 
Q 5.515625 40.234375 12.765625 48.109375 
Q 20.015625 56 32.328125 56 
Q 43.359375 56 49.78125 48.890625 
Q 56.203125 41.796875 56.203125 29.59375 
z
M 47.21875 32.234375 
Q 47.125 39.59375 43.09375 43.984375 
Q 39.0625 48.390625 32.421875 48.390625 
Q 24.90625 48.390625 20.390625 44.140625 
Q 15.875 39.890625 15.1875 32.171875 
z
" id="DejaVuSans-101"/>
      <path d="M 34.28125 27.484375 
Q 23.390625 27.484375 19.1875 25 
Q 14.984375 22.515625 14.984375 16.5 
Q 14.984375 11.71875 18.140625 8.90625 
Q 21.296875 6.109375 26.703125 6.109375 
Q 34.1875 6.109375 38.703125 11.40625 
Q 43.21875 16.703125 43.21875 25.484375 
L 43.21875 27.484375 
z
M 52.203125 31.203125 
L 52.203125 0 
L 43.21875 0 
L 43.21875 8.296875 
Q 40.140625 3.328125 35.546875 0.953125 
Q 30.953125 -1.421875 24.3125 -1.421875 
Q 15.921875 -1.421875 10.953125 3.296875 
Q 6 8.015625 6 15.921875 
Q 6 25.140625 12.171875 29.828125 
Q 18.359375 34.515625 30.609375 34.515625 
L 43.21875 34.515625 
L 43.21875 35.40625 
Q 43.21875 41.609375 39.140625 45 
Q 35.0625 48.390625 27.6875 48.390625 
Q 23 48.390625 18.546875 47.265625 
Q 14.109375 46.140625 10.015625 43.890625 
L 10.015625 52.203125 
Q 14.9375 54.109375 19.578125 55.046875 
Q 24.21875 56 28.609375 56 
Q 40.484375 56 46.34375 49.84375 
Q 52.203125 43.703125 52.203125 31.203125 
z
" id="DejaVuSans-97"/>
      <path d="M 41.109375 46.296875 
Q 39.59375 47.171875 37.8125 47.578125 
Q 36.03125 48 33.890625 48 
Q 26.265625 48 22.1875 43.046875 
Q 18.109375 38.09375 18.109375 28.8125 
L 18.109375 0 
L 9.078125 0 
L 9.078125 54.6875 
L 18.109375 54.6875 
L 18.109375 46.1875 
Q 20.953125 51.171875 25.484375 53.578125 
Q 30.03125 56 36.53125 56 
Q 37.453125 56 38.578125 55.875 
Q 39.703125 55.765625 41.0625 55.515625 
z
" id="DejaVuSans-114"/>
     </defs>
     <g transform="translate(248.753172 255.185031)scale(0.11 -0.11)">
      <use xlink:href="#DejaVuSans-89"/>
      <use x="60.880859" xlink:href="#DejaVuSans-101"/>
      <use x="122.404297" xlink:href="#DejaVuSans-97"/>
      <use x="183.683594" xlink:href="#DejaVuSans-114"/>
     </g>
    </g>
   </g>
   <g id="matplotlib.axis_2">
    <g id="ytick_1">
     <g id="line2d_23">
      <path clip-path="url(#p7974a58838)" d="M 45.117 218.88 
L 491.517 218.88 
" style="fill:none;stroke:#e5e5e5;stroke-width:0.8;"/>
     </g>
     <g id="line2d_24">
      <path d="M 45.117 218.88 
" style="fill:none;stroke:#000000;stroke-width:1.5;"/>
      <defs>
       <path d="M 0 0 
L -2.75 0 
" id="m4d60a90777" style="stroke:#000000;"/>
      </defs>
      <g>
       <use style="stroke:#000000;" x="45.117" xlink:href="#m4d60a90777" y="218.88"/>
      </g>
     </g>
     <g id="text_8">
      <!-- 0 -->
      <g transform="translate(34.568 221.30825)scale(0.088 -0.088)">
       <use xlink:href="#DejaVuSans-48"/>
      </g>
     </g>
    </g>
    <g id="ytick_2">
     <g id="line2d_25">
      <path clip-path="url(#p7974a58838)" d="M 45.117 168.48 
L 491.517 168.48 
" style="fill:none;stroke:#e5e5e5;stroke-width:0.8;"/>
     </g>
     <g id="line2d_26">
      <path d="M 45.117 168.48 
" style="fill:none;stroke:#000000;stroke-width:1.5;"/>
      <g>
       <use style="stroke:#000000;" x="45.117" xlink:href="#m4d60a90777" y="168.48"/>
      </g>
     </g>
     <g id="text_9">
      <!-- 25 -->
      <defs>
       <path d="M 10.796875 72.90625 
L 49.515625 72.90625 
L 49.515625 64.59375 
L 19.828125 64.59375 
L 19.828125 46.734375 
Q 21.96875 47.46875 24.109375 47.828125 
Q 26.265625 48.1875 28.421875 48.1875 
Q 40.625 48.1875 47.75 41.5 
Q 54.890625 34.8125 54.890625 23.390625 
Q 54.890625 11.625 47.5625 5.09375 
Q 40.234375 -1.421875 26.90625 -1.421875 
Q 22.3125 -1.421875 17.546875 -0.640625 
Q 12.796875 0.140625 7.71875 1.703125 
L 7.71875 11.625 
Q 12.109375 9.234375 16.796875 8.0625 
Q 21.484375 6.890625 26.703125 6.890625 
Q 35.15625 6.890625 40.078125 11.328125 
Q 45.015625 15.765625 45.015625 23.390625 
Q 45.015625 31 40.078125 35.4375 
Q 35.15625 39.890625 26.703125 39.890625 
Q 22.75 39.890625 18.8125 39.015625 
Q 14.890625 38.140625 10.796875 36.28125 
z
" id="DejaVuSans-53"/>
      </defs>
      <g transform="translate(28.969 170.90825)scale(0.088 -0.088)">
       <use xlink:href="#DejaVuSans-50"/>
       <use x="63.623047" xlink:href="#DejaVuSans-53"/>
      </g>
     </g>
    </g>
    <g id="ytick_3">
     <g id="line2d_27">
      <path clip-path="url(#p7974a58838)" d="M 45.117 118.08 
L 491.517 118.08 
" style="fill:none;stroke:#e5e5e5;stroke-width:0.8;"/>
     </g>
     <g id="line2d_28">
      <path d="M 45.117 118.08 
" style="fill:none;stroke:#000000;stroke-width:1.5;"/>
      <g>
       <use style="stroke:#000000;" x="45.117" xlink:href="#m4d60a90777" y="118.08"/>
      </g>
     </g>
     <g id="text_10">
      <!-- 50 -->
      <g transform="translate(28.969 120.50825)scale(0.088 -0.088)">
       <use xlink:href="#DejaVuSans-53"/>
       <use x="63.623047" xlink:href="#DejaVuSans-48"/>
      </g>
     </g>
    </g>
    <g id="ytick_4">
     <g id="line2d_29">
      <path clip-path="url(#p7974a58838)" d="M 45.117 67.68 
L 491.517 67.68 
" style="fill:none;stroke:#e5e5e5;stroke-width:0.8;"/>
     </g>
     <g id="line2d_30">
      <path d="M 45.117 67.68 
" style="fill:none;stroke:#000000;stroke-width:1.5;"/>
      <g>
       <use style="stroke:#000000;" x="45.117" xlink:href="#m4d60a90777" y="67.68"/>
      </g>
     </g>
     <g id="text_11">
      <!-- 75 -->
      <g transform="translate(28.969 70.10825)scale(0.088 -0.088)">
       <use xlink:href="#DejaVuSans-55"/>
       <use x="63.623047" xlink:href="#DejaVuSans-53"/>
      </g>
     </g>
    </g>
    <g id="ytick_5">
     <g id="line2d_31">
      <path clip-path="url(#p7974a58838)" d="M 45.117 17.28 
L 491.517 17.28 
" style="fill:none;stroke:#e5e5e5;stroke-width:0.8;"/>
     </g>
     <g id="line2d_32">
      <path d="M 45.117 17.28 
" style="fill:none;stroke:#000000;stroke-width:1.5;"/>
      <g>
       <use style="stroke:#000000;" x="45.117" xlink:href="#m4d60a90777" y="17.28"/>
      </g>
     </g>
     <g id="text_12">
      <!-- 100 -->
      <g transform="translate(23.37 19.70825)scale(0.088 -0.088)">
       <use xlink:href="#DejaVuSans-49"/>
       <use x="63.623047" xlink:href="#DejaVuSans-48"/>
       <use x="127.246094" xlink:href="#DejaVuSans-48"/>
      </g>
     </g>
    </g>
    <g id="ytick_6">
     <g id="line2d_33">
      <path clip-path="url(#p7974a58838)" d="M 45.117 193.68 
L 491.517 193.68 
" style="fill:none;stroke:#fafafa;"/>
     </g>
     <g id="line2d_34">
      <path d="M 45.117 193.68 
" style="fill:none;stroke:#000000;stroke-width:1.5;"/>
      <defs>
       <path d="M 0 0 
L -1.375 0 
" id="md0626dacd3" style="stroke:#000000;"/>
      </defs>
      <g>
       <use style="stroke:#000000;" x="45.117" xlink:href="#md0626dacd3" y="193.68"/>
      </g>
     </g>
    </g>
    <g id="ytick_7">
     <g id="line2d_35">
      <path clip-path="url(#p7974a58838)" d="M 45.117 143.28 
L 491.517 143.28 
" style="fill:none;stroke:#fafafa;"/>
     </g>
     <g id="line2d_36">
      <path d="M 45.117 143.28 
" style="fill:none;stroke:#000000;stroke-width:1.5;"/>
      <g>
       <use style="stroke:#000000;" x="45.117" xlink:href="#md0626dacd3" y="143.28"/>
      </g>
     </g>
    </g>
    <g id="ytick_8">
     <g id="line2d_37">
      <path clip-path="url(#p7974a58838)" d="M 45.117 92.88 
L 491.517 92.88 
" style="fill:none;stroke:#fafafa;"/>
     </g>
     <g id="line2d_38">
      <path d="M 45.117 92.88 
" style="fill:none;stroke:#000000;stroke-width:1.5;"/>
      <g>
       <use style="stroke:#000000;" x="45.117" xlink:href="#md0626dacd3" y="92.88"/>
      </g>
     </g>
    </g>
    <g id="ytick_9">
     <g id="line2d_39">
      <path clip-path="url(#p7974a58838)" d="M 45.117 42.48 
L 491.517 42.48 
" style="fill:none;stroke:#fafafa;"/>
     </g>
     <g id="line2d_40">
      <path d="M 45.117 42.48 
" style="fill:none;stroke:#000000;stroke-width:1.5;"/>
      <g>
       <use style="stroke:#000000;" x="45.117" xlink:href="#md0626dacd3" y="42.48"/>
      </g>
     </g>
    </g>
    <g id="text_13">
     <!-- $P_{Q1p}$ [%] -->
     <defs>
      <path d="M 16.890625 72.90625 
L 39.703125 72.90625 
Q 49.65625 72.90625 54.875 68.265625 
Q 60.109375 63.625 60.109375 54.6875 
Q 60.109375 42.671875 52.390625 35.984375 
Q 44.671875 29.296875 30.71875 29.296875 
L 18.3125 29.296875 
L 12.59375 0 
L 2.6875 0 
z
M 25.203125 64.796875 
L 19.921875 37.40625 
L 32.328125 37.40625 
Q 40.71875 37.40625 45.203125 41.703125 
Q 49.703125 46 49.703125 54 
Q 49.703125 59.125 46.65625 61.953125 
Q 43.609375 64.796875 38.09375 64.796875 
z
" id="DejaVuSans-Oblique-80"/>
      <path d="M 36.078125 -1.3125 
Q 35.546875 -1.375 34.953125 -1.390625 
Q 34.375 -1.421875 33.203125 -1.421875 
Q 19.53125 -1.421875 11.8125 6.421875 
Q 4.109375 14.265625 4.109375 28.078125 
Q 4.109375 36.234375 7.0625 44.4375 
Q 10.015625 52.640625 15.28125 59.1875 
Q 21.390625 66.703125 29.03125 70.453125 
Q 36.671875 74.21875 45.90625 74.21875 
Q 59.28125 74.21875 66.984375 66.328125 
Q 74.703125 58.453125 74.703125 44.828125 
Q 74.703125 30.125 66.640625 17.921875 
Q 58.59375 5.71875 45.609375 0.6875 
L 55.515625 -12.890625 
L 44.484375 -12.890625 
z
M 45.609375 66.21875 
Q 37.5 66.21875 31.296875 62.28125 
Q 25.09375 58.34375 20.515625 50.296875 
Q 17.578125 45.171875 16.03125 39.40625 
Q 14.5 33.640625 14.5 27.78125 
Q 14.5 17.625 19.359375 12.109375 
Q 24.21875 6.59375 33.109375 6.59375 
Q 41.109375 6.59375 47.375 10.5625 
Q 53.65625 14.546875 58.109375 22.40625 
Q 61.078125 27.6875 62.640625 33.46875 
Q 64.203125 39.265625 64.203125 45.015625 
Q 64.203125 55.125 59.3125 60.671875 
Q 54.4375 66.21875 45.609375 66.21875 
z
" id="DejaVuSans-Oblique-81"/>
      <path d="M 49.609375 33.6875 
Q 49.609375 40.875 46.484375 44.671875 
Q 43.359375 48.484375 37.5 48.484375 
Q 33.5 48.484375 29.859375 46.4375 
Q 26.21875 44.390625 23.390625 40.484375 
Q 20.609375 36.625 18.9375 31.15625 
Q 17.28125 25.6875 17.28125 20.3125 
Q 17.28125 13.484375 20.40625 9.796875 
Q 23.53125 6.109375 29.296875 6.109375 
Q 33.546875 6.109375 37.1875 8.109375 
Q 40.828125 10.109375 43.40625 13.921875 
Q 46.1875 17.921875 47.890625 23.34375 
Q 49.609375 28.765625 49.609375 33.6875 
z
M 21.78125 46.390625 
Q 25.390625 51.125 30.296875 53.5625 
Q 35.203125 56 41.21875 56 
Q 49.609375 56 54.25 50.5 
Q 58.890625 45.015625 58.890625 35.109375 
Q 58.890625 27 56 19.65625 
Q 53.125 12.3125 47.703125 6.5 
Q 44.09375 2.640625 39.546875 0.609375 
Q 35.015625 -1.421875 29.984375 -1.421875 
Q 24.171875 -1.421875 20.21875 1 
Q 16.265625 3.421875 14.3125 8.203125 
L 8.6875 -20.796875 
L -0.296875 -20.796875 
L 14.40625 54.6875 
L 23.390625 54.6875 
z
" id="DejaVuSans-Oblique-112"/>
      <path id="DejaVuSans-32"/>
      <path d="M 8.59375 75.984375 
L 29.296875 75.984375 
L 29.296875 69 
L 17.578125 69 
L 17.578125 -6.203125 
L 29.296875 -6.203125 
L 29.296875 -13.1875 
L 8.59375 -13.1875 
z
" id="DejaVuSans-91"/>
      <path d="M 72.703125 32.078125 
Q 68.453125 32.078125 66.03125 28.46875 
Q 63.625 24.859375 63.625 18.40625 
Q 63.625 12.0625 66.03125 8.421875 
Q 68.453125 4.78125 72.703125 4.78125 
Q 76.859375 4.78125 79.265625 8.421875 
Q 81.6875 12.0625 81.6875 18.40625 
Q 81.6875 24.8125 79.265625 28.4375 
Q 76.859375 32.078125 72.703125 32.078125 
z
M 72.703125 38.28125 
Q 80.421875 38.28125 84.953125 32.90625 
Q 89.5 27.546875 89.5 18.40625 
Q 89.5 9.28125 84.9375 3.921875 
Q 80.375 -1.421875 72.703125 -1.421875 
Q 64.890625 -1.421875 60.34375 3.921875 
Q 55.8125 9.28125 55.8125 18.40625 
Q 55.8125 27.59375 60.375 32.9375 
Q 64.9375 38.28125 72.703125 38.28125 
z
M 22.3125 68.015625 
Q 18.109375 68.015625 15.6875 64.375 
Q 13.28125 60.75 13.28125 54.390625 
Q 13.28125 47.953125 15.671875 44.328125 
Q 18.0625 40.71875 22.3125 40.71875 
Q 26.5625 40.71875 28.96875 44.328125 
Q 31.390625 47.953125 31.390625 54.390625 
Q 31.390625 60.6875 28.953125 64.34375 
Q 26.515625 68.015625 22.3125 68.015625 
z
M 66.40625 74.21875 
L 74.21875 74.21875 
L 28.609375 -1.421875 
L 20.796875 -1.421875 
z
M 22.3125 74.21875 
Q 30.03125 74.21875 34.609375 68.875 
Q 39.203125 63.53125 39.203125 54.390625 
Q 39.203125 45.171875 34.640625 39.84375 
Q 30.078125 34.515625 22.3125 34.515625 
Q 14.546875 34.515625 10.03125 39.859375 
Q 5.515625 45.21875 5.515625 54.390625 
Q 5.515625 63.484375 10.046875 68.84375 
Q 14.59375 74.21875 22.3125 74.21875 
z
" id="DejaVuSans-37"/>
      <path d="M 30.421875 75.984375 
L 30.421875 -13.1875 
L 9.71875 -13.1875 
L 9.71875 -6.203125 
L 21.390625 -6.203125 
L 21.390625 69 
L 9.71875 69 
L 9.71875 75.984375 
z
" id="DejaVuSans-93"/>
     </defs>
     <g transform="translate(15.56 139.3)rotate(-90)scale(0.11 -0.11)">
      <use transform="translate(0 0.015625)" xlink:href="#DejaVuSans-Oblique-80"/>
      <use transform="translate(60.302734 -16.390625)scale(0.7)" xlink:href="#DejaVuSans-Oblique-81"/>
      <use transform="translate(115.400391 -16.390625)scale(0.7)" xlink:href="#DejaVuSans-49"/>
      <use transform="translate(159.936523 -16.390625)scale(0.7)" xlink:href="#DejaVuSans-Oblique-112"/>
      <use transform="translate(207.104492 0.015625)" xlink:href="#DejaVuSans-32"/>
      <use transform="translate(238.891602 0.015625)" xlink:href="#DejaVuSans-91"/>
      <use transform="translate(277.905273 0.015625)" xlink:href="#DejaVuSans-37"/>
      <use transform="translate(372.924805 0.015625)" xlink:href="#DejaVuSans-93"/>
     </g>
    </g>
   </g>
   <g id="PathCollection_1">
    <path clip-path="url(#p7974a58838)" d="M 252.084273 45.19024 
C 252.554333 45.19024 253.005204 45.003483 253.337587 44.6711 
C 253.66997 44.338717 253.856727 43.887846 253.856727 43.417786 
C 253.856727 42.947725 253.66997 42.496854 253.337587 42.164472 
C 253.005204 41.832089 252.554333 41.645332 252.084273 41.645332 
C 251.614212 41.645332 251.163341 41.832089 250.830959 42.164472 
C 250.498576 42.496854 250.311819 42.947725 250.311819 43.417786 
C 250.311819 43.887846 250.498576 44.338717 250.830959 44.6711 
C 251.163341 45.003483 251.614212 45.19024 252.084273 45.19024 
z
" style="stroke:#000000;stroke-width:0.886227;"/>
    <path clip-path="url(#p7974a58838)" d="M 260.200636 133.095288 
C 260.670697 133.095288 261.121568 132.908531 261.453951 132.576148 
C 261.786333 132.243765 261.97309 131.792894 261.97309 131.322834 
C 261.97309 130.852774 261.786333 130.401903 261.453951 130.06952 
C 261.121568 129.737137 260.670697 129.55038 260.200636 129.55038 
C 259.730576 129.55038 259.279705 129.737137 258.947322 130.06952 
C 258.614939 130.401903 258.428183 130.852774 258.428183 131.322834 
C 258.428183 131.792894 258.614939 132.243765 258.947322 132.576148 
C 259.279705 132.908531 259.730576 133.095288 260.200636 133.095288 
z
" style="stroke:#000000;stroke-width:0.886227;"/>
    <path clip-path="url(#p7974a58838)" d="M 268.317 132.974707 
C 268.78706 132.974707 269.237931 132.78795 269.570314 132.455567 
C 269.902697 132.123184 270.089454 131.672313 270.089454 131.202253 
C 270.089454 130.732193 269.902697 130.281321 269.570314 129.948939 
C 269.237931 129.616556 268.78706 129.429799 268.317 129.429799 
C 267.84694 129.429799 267.396069 129.616556 267.063686 129.948939 
C 266.731303 130.281321 266.544546 130.732193 266.544546 131.202253 
C 266.544546 131.672313 266.731303 132.123184 267.063686 132.455567 
C 267.396069 132.78795 267.84694 132.974707 268.317 132.974707 
z
" style="stroke:#000000;stroke-width:0.886227;"/>
    <path clip-path="url(#p7974a58838)" d="M 276.433364 143.03406 
C 276.903424 143.03406 277.354295 142.847303 277.686678 142.51492 
C 278.019061 142.182538 278.205817 141.731666 278.205817 141.261606 
C 278.205817 140.791546 278.019061 140.340675 277.686678 140.008292 
C 277.354295 139.675909 276.903424 139.489152 276.433364 139.489152 
C 275.963303 139.489152 275.512432 139.675909 275.180049 140.008292 
C 274.847667 140.340675 274.66091 140.791546 274.66091 141.261606 
C 274.66091 141.731666 274.847667 142.182538 275.180049 142.51492 
C 275.512432 142.847303 275.963303 143.03406 276.433364 143.03406 
z
" style="stroke:#000000;stroke-width:0.886227;"/>
    <path clip-path="url(#p7974a58838)" d="M 284.549727 147.665043 
C 285.019788 147.665043 285.470659 147.478286 285.803041 147.145903 
C 286.135424 146.81352 286.322181 146.362649 286.322181 145.892589 
C 286.322181 145.422528 286.135424 144.971657 285.803041 144.639275 
C 285.470659 144.306892 285.019788 144.120135 284.549727 144.120135 
C 284.079667 144.120135 283.628796 144.306892 283.296413 144.639275 
C 282.96403 144.971657 282.777273 145.422528 282.777273 145.892589 
C 282.777273 146.362649 282.96403 146.81352 283.296413 147.145903 
C 283.628796 147.478286 284.079667 147.665043 284.549727 147.665043 
z
" style="stroke:#000000;stroke-width:0.886227;"/>
    <path clip-path="url(#p7974a58838)" d="M 292.666091 136.584028 
C 293.136151 136.584028 293.587022 136.397271 293.919405 136.064889 
C 294.251788 135.732506 294.438545 135.281635 294.438545 134.811574 
C 294.438545 134.341514 294.251788 133.890643 293.919405 133.55826 
C 293.587022 133.225877 293.136151 133.039121 292.666091 133.039121 
C 292.196031 133.039121 291.74516 133.225877 291.412777 133.55826 
C 291.080394 133.890643 290.893637 134.341514 290.893637 134.811574 
C 290.893637 135.281635 291.080394 135.732506 291.412777 136.064889 
C 291.74516 136.397271 292.196031 136.584028 292.666091 136.584028 
z
" style="stroke:#000000;stroke-width:0.886227;"/>
    <path clip-path="url(#p7974a58838)" d="M 300.782455 142.223044 
C 301.252515 142.223044 301.703386 142.036287 302.035769 141.703904 
C 302.368151 141.371521 302.554908 140.92065 302.554908 140.45059 
C 302.554908 139.98053 302.368151 139.529659 302.035769 139.197276 
C 301.703386 138.864893 301.252515 138.678136 300.782455 138.678136 
C 300.312394 138.678136 299.861523 138.864893 299.52914 139.197276 
C 299.196758 139.529659 299.010001 139.98053 299.010001 140.45059 
C 299.010001 140.92065 299.196758 141.371521 299.52914 141.703904 
C 299.861523 142.036287 300.312394 142.223044 300.782455 142.223044 
z
" style="stroke:#000000;stroke-width:0.886227;"/>
    <path clip-path="url(#p7974a58838)" d="M 308.898818 149.098649 
C 309.368878 149.098649 309.81975 148.911892 310.152132 148.579509 
C 310.484515 148.247126 310.671272 147.796255 310.671272 147.326195 
C 310.671272 146.856135 310.484515 146.405264 310.152132 146.072881 
C 309.81975 145.740498 309.368878 145.553741 308.898818 145.553741 
C 308.428758 145.553741 307.977887 145.740498 307.645504 146.072881 
C 307.313121 146.405264 307.126364 146.856135 307.126364 147.326195 
C 307.126364 147.796255 307.313121 148.247126 307.645504 148.579509 
C 307.977887 148.911892 308.428758 149.098649 308.898818 149.098649 
z
" style="stroke:#000000;stroke-width:0.886227;"/>
    <path clip-path="url(#p7974a58838)" d="M 317.015182 146.274304 
C 317.485242 146.274304 317.936113 146.087547 318.268496 145.755165 
C 318.600879 145.422782 318.787636 144.971911 318.787636 144.50185 
C 318.787636 144.03179 318.600879 143.580919 318.268496 143.248536 
C 317.936113 142.916153 317.485242 142.729397 317.015182 142.729397 
C 316.545122 142.729397 316.09425 142.916153 315.761868 143.248536 
C 315.429485 143.580919 315.242728 144.03179 315.242728 144.50185 
C 315.242728 144.971911 315.429485 145.422782 315.761868 145.755165 
C 316.09425 146.087547 316.545122 146.274304 317.015182 146.274304 
z
" style="stroke:#000000;stroke-width:0.886227;"/>
    <path clip-path="url(#p7974a58838)" d="M 325.131545 143.524935 
C 325.601606 143.524935 326.052477 143.338178 326.38486 143.005795 
C 326.717242 142.673413 326.903999 142.222541 326.903999 141.752481 
C 326.903999 141.282421 326.717242 140.83155 326.38486 140.499167 
C 326.052477 140.166784 325.601606 139.980027 325.131545 139.980027 
C 324.661485 139.980027 324.210614 140.166784 323.878231 140.499167 
C 323.545849 140.83155 323.359092 141.282421 323.359092 141.752481 
C 323.359092 142.222541 323.545849 142.673413 323.878231 143.005795 
C 324.210614 143.338178 324.661485 143.524935 325.131545 143.524935 
z
" style="stroke:#000000;stroke-width:0.886227;"/>
    <path clip-path="url(#p7974a58838)" d="M 333.247909 143.155006 
C 333.717969 143.155006 334.16884 142.968249 334.501223 142.635866 
C 334.833606 142.303483 335.020363 141.852612 335.020363 141.382552 
C 335.020363 140.912492 334.833606 140.461621 334.501223 140.129238 
C 334.16884 139.796855 333.717969 139.610098 333.247909 139.610098 
C 332.777849 139.610098 332.326978 139.796855 331.994595 140.129238 
C 331.662212 140.461621 331.475455 140.912492 331.475455 141.382552 
C 331.475455 141.852612 331.662212 142.303483 331.994595 142.635866 
C 332.326978 142.968249 332.777849 143.155006 333.247909 143.155006 
z
" style="stroke:#000000;stroke-width:0.886227;"/>
    <path clip-path="url(#p7974a58838)" d="M 341.364273 142.189525 
C 341.834333 142.189525 342.285204 142.002768 342.617587 141.670386 
C 342.94997 141.338003 343.136727 140.887132 343.136727 140.417071 
C 343.136727 139.947011 342.94997 139.49614 342.617587 139.163757 
C 342.285204 138.831375 341.834333 138.644618 341.364273 138.644618 
C 340.894212 138.644618 340.443341 138.831375 340.110959 139.163757 
C 339.778576 139.49614 339.591819 139.947011 339.591819 140.417071 
C 339.591819 140.887132 339.778576 141.338003 340.110959 141.670386 
C 340.443341 142.002768 340.894212 142.189525 341.364273 142.189525 
z
" style="stroke:#000000;stroke-width:0.886227;"/>
    <path clip-path="url(#p7974a58838)" d="M 349.480636 142.289683 
C 349.950697 142.289683 350.401568 142.102926 350.733951 141.770543 
C 351.066333 141.438161 351.25309 140.987289 351.25309 140.517229 
C 351.25309 140.047169 351.066333 139.596298 350.733951 139.263915 
C 350.401568 138.931532 349.950697 138.744775 349.480636 138.744775 
C 349.010576 138.744775 348.559705 138.931532 348.227322 139.263915 
C 347.894939 139.596298 347.708183 140.047169 347.708183 140.517229 
C 347.708183 140.987289 347.894939 141.438161 348.227322 141.770543 
C 348.559705 142.102926 349.010576 142.289683 349.480636 142.289683 
z
" style="stroke:#000000;stroke-width:0.886227;"/>
    <path clip-path="url(#p7974a58838)" d="M 357.597 141.321735 
C 358.06706 141.321735 358.517931 141.134978 358.850314 140.802595 
C 359.182697 140.470213 359.369454 140.019341 359.369454 139.549281 
C 359.369454 139.079221 359.182697 138.62835 358.850314 138.295967 
C 358.517931 137.963584 358.06706 137.776827 357.597 137.776827 
C 357.12694 137.776827 356.676069 137.963584 356.343686 138.295967 
C 356.011303 138.62835 355.824546 139.079221 355.824546 139.549281 
C 355.824546 140.019341 356.011303 140.470213 356.343686 140.802595 
C 356.676069 141.134978 357.12694 141.321735 357.597 141.321735 
z
" style="stroke:#000000;stroke-width:0.886227;"/>
    <path clip-path="url(#p7974a58838)" d="M 365.713364 138.501657 
C 366.183424 138.501657 366.634295 138.3149 366.966678 137.982517 
C 367.299061 137.650134 367.485817 137.199263 367.485817 136.729203 
C 367.485817 136.259143 367.299061 135.808272 366.966678 135.475889 
C 366.634295 135.143506 366.183424 134.956749 365.713364 134.956749 
C 365.243303 134.956749 364.792432 135.143506 364.460049 135.475889 
C 364.127667 135.808272 363.94091 136.259143 363.94091 136.729203 
C 363.94091 137.199263 364.127667 137.650134 364.460049 137.982517 
C 364.792432 138.3149 365.243303 138.501657 365.713364 138.501657 
z
" style="stroke:#000000;stroke-width:0.886227;"/>
    <path clip-path="url(#p7974a58838)" d="M 373.829727 139.767119 
C 374.299788 139.767119 374.750659 139.580362 375.083041 139.247979 
C 375.415424 138.915597 375.602181 138.464725 375.602181 137.994665 
C 375.602181 137.524605 375.415424 137.073734 375.083041 136.741351 
C 374.750659 136.408968 374.299788 136.222211 373.829727 136.222211 
C 373.359667 136.222211 372.908796 136.408968 372.576413 136.741351 
C 372.24403 137.073734 372.057273 137.524605 372.057273 137.994665 
C 372.057273 138.464725 372.24403 138.915597 372.576413 139.247979 
C 372.908796 139.580362 373.359667 139.767119 373.829727 139.767119 
z
" style="stroke:#000000;stroke-width:0.886227;"/>
    <path clip-path="url(#p7974a58838)" d="M 381.946091 136.822839 
C 382.416151 136.822839 382.867022 136.636082 383.199405 136.303699 
C 383.531788 135.971316 383.718545 135.520445 383.718545 135.050385 
C 383.718545 134.580325 383.531788 134.129454 383.199405 133.797071 
C 382.867022 133.464688 382.416151 133.277931 381.946091 133.277931 
C 381.476031 133.277931 381.02516 133.464688 380.692777 133.797071 
C 380.360394 134.129454 380.173637 134.580325 380.173637 135.050385 
C 380.173637 135.520445 380.360394 135.971316 380.692777 136.303699 
C 381.02516 136.636082 381.476031 136.822839 381.946091 136.822839 
z
" style="stroke:#000000;stroke-width:0.886227;"/>
    <path clip-path="url(#p7974a58838)" d="M 390.062455 127.972191 
C 390.532515 127.972191 390.983386 127.785434 391.315769 127.453051 
C 391.648151 127.120668 391.834908 126.669797 391.834908 126.199737 
C 391.834908 125.729677 391.648151 125.278805 391.315769 124.946423 
C 390.983386 124.61404 390.532515 124.427283 390.062455 124.427283 
C 389.592394 124.427283 389.141523 124.61404 388.80914 124.946423 
C 388.476758 125.278805 388.290001 125.729677 388.290001 126.199737 
C 388.290001 126.669797 388.476758 127.120668 388.80914 127.453051 
C 389.141523 127.785434 389.592394 127.972191 390.062455 127.972191 
z
" style="stroke:#000000;stroke-width:0.886227;"/>
    <path clip-path="url(#p7974a58838)" d="M 398.178818 123.662831 
C 398.648878 123.662831 399.09975 123.476074 399.432132 123.143691 
C 399.764515 122.811308 399.951272 122.360437 399.951272 121.890377 
C 399.951272 121.420317 399.764515 120.969446 399.432132 120.637063 
C 399.09975 120.30468 398.648878 120.117923 398.178818 120.117923 
C 397.708758 120.117923 397.257887 120.30468 396.925504 120.637063 
C 396.593121 120.969446 396.406364 121.420317 396.406364 121.890377 
C 396.406364 122.360437 396.593121 122.811308 396.925504 123.143691 
C 397.257887 123.476074 397.708758 123.662831 398.178818 123.662831 
z
" style="stroke:#000000;stroke-width:0.886227;"/>
    <path clip-path="url(#p7974a58838)" d="M 406.295182 118.784724 
C 406.765242 118.784724 407.216113 118.597967 407.548496 118.265585 
C 407.880879 117.933202 408.067636 117.482331 408.067636 117.01227 
C 408.067636 116.54221 407.880879 116.091339 407.548496 115.758956 
C 407.216113 115.426574 406.765242 115.239817 406.295182 115.239817 
C 405.825122 115.239817 405.37425 115.426574 405.041868 115.758956 
C 404.709485 116.091339 404.522728 116.54221 404.522728 117.01227 
C 404.522728 117.482331 404.709485 117.933202 405.041868 118.265585 
C 405.37425 118.597967 405.825122 118.784724 406.295182 118.784724 
z
" style="stroke:#000000;stroke-width:0.886227;"/>
    <path clip-path="url(#p7974a58838)" d="M 414.411545 112.589962 
C 414.881606 112.589962 415.332477 112.403205 415.66486 112.070822 
C 415.997242 111.73844 416.183999 111.287569 416.183999 110.817508 
C 416.183999 110.347448 415.997242 109.896577 415.66486 109.564194 
C 415.332477 109.231811 414.881606 109.045055 414.411545 109.045055 
C 413.941485 109.045055 413.490614 109.231811 413.158231 109.564194 
C 412.825849 109.896577 412.639092 110.347448 412.639092 110.817508 
C 412.639092 111.287569 412.825849 111.73844 413.158231 112.070822 
C 413.490614 112.403205 413.941485 112.589962 414.411545 112.589962 
z
" style="stroke:#000000;stroke-width:0.886227;"/>
    <path clip-path="url(#p7974a58838)" d="M 422.527909 106.581741 
C 422.997969 106.581741 423.44884 106.394984 423.781223 106.062601 
C 424.113606 105.730218 424.300363 105.279347 424.300363 104.809287 
C 424.300363 104.339227 424.113606 103.888356 423.781223 103.555973 
C 423.44884 103.22359 422.997969 103.036833 422.527909 103.036833 
C 422.057849 103.036833 421.606978 103.22359 421.274595 103.555973 
C 420.942212 103.888356 420.755455 104.339227 420.755455 104.809287 
C 420.755455 105.279347 420.942212 105.730218 421.274595 106.062601 
C 421.606978 106.394984 422.057849 106.581741 422.527909 106.581741 
z
" style="stroke:#000000;stroke-width:0.886227;"/>
    <path clip-path="url(#p7974a58838)" d="M 430.644273 103.338859 
C 431.114333 103.338859 431.565204 103.152102 431.897587 102.819719 
C 432.22997 102.487337 432.416727 102.036466 432.416727 101.566405 
C 432.416727 101.096345 432.22997 100.645474 431.897587 100.313091 
C 431.565204 99.980708 431.114333 99.793951 430.644273 99.793951 
C 430.174212 99.793951 429.723341 99.980708 429.390959 100.313091 
C 429.058576 100.645474 428.871819 101.096345 428.871819 101.566405 
C 428.871819 102.036466 429.058576 102.487337 429.390959 102.819719 
C 429.723341 103.152102 430.174212 103.338859 430.644273 103.338859 
z
" style="stroke:#000000;stroke-width:0.886227;"/>
    <path clip-path="url(#p7974a58838)" d="M 438.760636 96.952571 
C 439.230697 96.952571 439.681568 96.765814 440.013951 96.433431 
C 440.346333 96.101048 440.53309 95.650177 440.53309 95.180117 
C 440.53309 94.710057 440.346333 94.259186 440.013951 93.926803 
C 439.681568 93.59442 439.230697 93.407663 438.760636 93.407663 
C 438.290576 93.407663 437.839705 93.59442 437.507322 93.926803 
C 437.174939 94.259186 436.988183 94.710057 436.988183 95.180117 
C 436.988183 95.650177 437.174939 96.101048 437.507322 96.433431 
C 437.839705 96.765814 438.290576 96.952571 438.760636 96.952571 
z
" style="stroke:#000000;stroke-width:0.886227;"/>
    <path clip-path="url(#p7974a58838)" d="M 446.877 101.583473 
C 447.34706 101.583473 447.797931 101.396716 448.130314 101.064334 
C 448.462697 100.731951 448.649454 100.28108 448.649454 99.81102 
C 448.649454 99.340959 448.462697 98.890088 448.130314 98.557705 
C 447.797931 98.225323 447.34706 98.038566 446.877 98.038566 
C 446.40694 98.038566 445.956069 98.225323 445.623686 98.557705 
C 445.291303 98.890088 445.104546 99.340959 445.104546 99.81102 
C 445.104546 100.28108 445.291303 100.731951 445.623686 101.064334 
C 445.956069 101.396716 446.40694 101.583473 446.877 101.583473 
z
" style="stroke:#000000;stroke-width:0.886227;"/>
    <path clip-path="url(#p7974a58838)" d="M 454.993364 103.844541 
C 455.463424 103.844541 455.914295 103.657784 456.246678 103.325401 
C 456.579061 102.993018 456.765817 102.542147 456.765817 102.072087 
C 456.765817 101.602027 456.579061 101.151155 456.246678 100.818773 
C 455.914295 100.48639 455.463424 100.299633 454.993364 100.299633 
C 454.523303 100.299633 454.072432 100.48639 453.740049 100.818773 
C 453.407667 101.151155 453.22091 101.602027 453.22091 102.072087 
C 453.22091 102.542147 453.407667 102.993018 453.740049 103.325401 
C 454.072432 103.657784 454.523303 103.844541 454.993364 103.844541 
z
" style="stroke:#000000;stroke-width:0.886227;"/>
    <path clip-path="url(#p7974a58838)" d="M 463.109727 104.068306 
C 463.579788 104.068306 464.030659 103.88155 464.363041 103.549167 
C 464.695424 103.216784 464.882181 102.765913 464.882181 102.295853 
C 464.882181 101.825792 464.695424 101.374921 464.363041 101.042538 
C 464.030659 100.710156 463.579788 100.523399 463.109727 100.523399 
C 462.639667 100.523399 462.188796 100.710156 461.856413 101.042538 
C 461.52403 101.374921 461.337273 101.825792 461.337273 102.295853 
C 461.337273 102.765913 461.52403 103.216784 461.856413 103.549167 
C 462.188796 103.88155 462.639667 104.068306 463.109727 104.068306 
z
" style="stroke:#000000;stroke-width:0.886227;"/>
   </g>
   <g id="line2d_41">
    <path clip-path="url(#p7974a58838)" d="M 252.084273 43.417786 
L 260.200636 131.322834 
L 268.317 131.202253 
L 276.433364 141.261606 
L 284.549727 145.892589 
L 292.666091 134.811574 
L 300.782455 140.45059 
L 308.898818 147.326195 
L 317.015182 144.50185 
L 325.131545 141.752481 
L 333.247909 141.382552 
L 341.364273 140.417071 
L 349.480636 140.517229 
L 357.597 139.549281 
L 365.713364 136.729203 
L 373.829727 137.994665 
L 381.946091 135.050385 
L 390.062455 126.199737 
L 398.178818 121.890377 
L 406.295182 117.01227 
L 414.411545 110.817508 
L 422.527909 104.809287 
L 430.644273 101.566405 
L 438.760636 95.180117 
L 446.877 99.81102 
L 454.993364 102.072087 
L 463.109727 102.295853 
" style="fill:none;stroke:#000000;stroke-width:0.886227;"/>
   </g>
  </g>
 </g>
 <defs>
  <clipPath id="p7974a58838">
   <rect height="221.76" width="446.4" x="45.117" y="7.2"/>
  </clipPath>
 </defs>
</svg>
