<?xml version="1.0" encoding="utf-8" standalone="no"?>
<!DOCTYPE svg PUBLIC "-//W3C//DTD SVG 1.1//EN"
  "http://www.w3.org/Graphics/SVG/1.1/DTD/svg11.dtd">
<!-- Created with matplotlib (https://matplotlib.org/) -->
<svg height="265.688469pt" version="1.1" viewBox="0 0 498.717 265.688469" width="498.717pt" xmlns="http://www.w3.org/2000/svg" xmlns:xlink="http://www.w3.org/1999/xlink">
 <defs>
  <style type="text/css">
*{stroke-linecap:butt;stroke-linejoin:round;}
  </style>
 </defs>
 <g id="figure_1">
  <g id="patch_1">
   <path d="M 0 265.688469 
L 498.717 265.688469 
L 498.717 0 
L 0 0 
z
" style="fill:#ffffff;stroke:#ffffff;stroke-linejoin:miter;"/>
  </g>
  <g id="axes_1">
   <g id="patch_2">
    <path d="M 45.117 228.96 
L 491.517 228.96 
L 491.517 7.2 
L 45.117 7.2 
z
" style="fill:#ffffff;"/>
   </g>
   <g id="matplotlib.axis_1">
    <g id="xtick_1">
     <g id="line2d_1">
      <path d="M 66.082026 228.96 
" style="fill:none;stroke:#000000;stroke-width:1.5;"/>
      <defs>
       <path d="M 0 0 
L 0 2.75 
" id="me1d0096031" style="stroke:#000000;"/>
      </defs>
      <g>
       <use style="stroke:#000000;" x="66.082026" xlink:href="#me1d0096031" y="228.96"/>
      </g>
     </g>
     <g id="text_1">
      <!-- 1 -->
      <defs>
       <path d="M 12.40625 8.296875 
L 28.515625 8.296875 
L 28.515625 63.921875 
L 10.984375 60.40625 
L 10.984375 69.390625 
L 28.421875 72.90625 
L 38.28125 72.90625 
L 38.28125 8.296875 
L 54.390625 8.296875 
L 54.390625 0 
L 12.40625 0 
z
" id="DejaVuSans-49"/>
      </defs>
      <g transform="translate(63.282526 240.596625)scale(0.088 -0.088)">
       <use xlink:href="#DejaVuSans-49"/>
      </g>
     </g>
    </g>
    <g id="xtick_2">
     <g id="line2d_2">
      <path d="M 200.905342 228.96 
" style="fill:none;stroke:#000000;stroke-width:1.5;"/>
      <g>
       <use style="stroke:#000000;" x="200.905342" xlink:href="#me1d0096031" y="228.96"/>
      </g>
     </g>
     <g id="text_2">
      <!-- 2 -->
      <defs>
       <path d="M 19.1875 8.296875 
L 53.609375 8.296875 
L 53.609375 0 
L 7.328125 0 
L 7.328125 8.296875 
Q 12.9375 14.109375 22.625 23.890625 
Q 32.328125 33.6875 34.8125 36.53125 
Q 39.546875 41.84375 41.421875 45.53125 
Q 43.3125 49.21875 43.3125 52.78125 
Q 43.3125 58.59375 39.234375 62.25 
Q 35.15625 65.921875 28.609375 65.921875 
Q 23.96875 65.921875 18.8125 64.3125 
Q 13.671875 62.703125 7.8125 59.421875 
L 7.8125 69.390625 
Q 13.765625 71.78125 18.9375 73 
Q 24.125 74.21875 28.421875 74.21875 
Q 39.75 74.21875 46.484375 68.546875 
Q 53.21875 62.890625 53.21875 53.421875 
Q 53.21875 48.921875 51.53125 44.890625 
Q 49.859375 40.875 45.40625 35.40625 
Q 44.1875 33.984375 37.640625 27.21875 
Q 31.109375 20.453125 19.1875 8.296875 
z
" id="DejaVuSans-50"/>
      </defs>
      <g transform="translate(198.105842 240.596625)scale(0.088 -0.088)">
       <use xlink:href="#DejaVuSans-50"/>
      </g>
     </g>
    </g>
    <g id="xtick_3">
     <g id="line2d_3">
      <path d="M 335.728658 228.96 
" style="fill:none;stroke:#000000;stroke-width:1.5;"/>
      <g>
       <use style="stroke:#000000;" x="335.728658" xlink:href="#me1d0096031" y="228.96"/>
      </g>
     </g>
     <g id="text_3">
      <!-- 3 -->
      <defs>
       <path d="M 40.578125 39.3125 
Q 47.65625 37.796875 51.625 33 
Q 55.609375 28.21875 55.609375 21.1875 
Q 55.609375 10.40625 48.1875 4.484375 
Q 40.765625 -1.421875 27.09375 -1.421875 
Q 22.515625 -1.421875 17.65625 -0.515625 
Q 12.796875 0.390625 7.625 2.203125 
L 7.625 11.71875 
Q 11.71875 9.328125 16.59375 8.109375 
Q 21.484375 6.890625 26.8125 6.890625 
Q 36.078125 6.890625 40.9375 10.546875 
Q 45.796875 14.203125 45.796875 21.1875 
Q 45.796875 27.640625 41.28125 31.265625 
Q 36.765625 34.90625 28.71875 34.90625 
L 20.21875 34.90625 
L 20.21875 43.015625 
L 29.109375 43.015625 
Q 36.375 43.015625 40.234375 45.921875 
Q 44.09375 48.828125 44.09375 54.296875 
Q 44.09375 59.90625 40.109375 62.90625 
Q 36.140625 65.921875 28.71875 65.921875 
Q 24.65625 65.921875 20.015625 65.03125 
Q 15.375 64.15625 9.8125 62.3125 
L 9.8125 71.09375 
Q 15.4375 72.65625 20.34375 73.4375 
Q 25.25 74.21875 29.59375 74.21875 
Q 40.828125 74.21875 47.359375 69.109375 
Q 53.90625 64.015625 53.90625 55.328125 
Q 53.90625 49.265625 50.4375 45.09375 
Q 46.96875 40.921875 40.578125 39.3125 
z
" id="DejaVuSans-51"/>
      </defs>
      <g transform="translate(332.929158 240.596625)scale(0.088 -0.088)">
       <use xlink:href="#DejaVuSans-51"/>
      </g>
     </g>
    </g>
    <g id="xtick_4">
     <g id="line2d_4">
      <path d="M 470.551974 228.96 
" style="fill:none;stroke:#000000;stroke-width:1.5;"/>
      <g>
       <use style="stroke:#000000;" x="470.551974" xlink:href="#me1d0096031" y="228.96"/>
      </g>
     </g>
     <g id="text_4">
      <!-- 4 -->
      <defs>
       <path d="M 37.796875 64.3125 
L 12.890625 25.390625 
L 37.796875 25.390625 
z
M 35.203125 72.90625 
L 47.609375 72.90625 
L 47.609375 25.390625 
L 58.015625 25.390625 
L 58.015625 17.1875 
L 47.609375 17.1875 
L 47.609375 0 
L 37.796875 0 
L 37.796875 17.1875 
L 4.890625 17.1875 
L 4.890625 26.703125 
z
" id="DejaVuSans-52"/>
      </defs>
      <g transform="translate(467.752474 240.596625)scale(0.088 -0.088)">
       <use xlink:href="#DejaVuSans-52"/>
      </g>
     </g>
    </g>
    <g id="xtick_5">
     <g id="line2d_5">
      <path d="M 133.493684 228.96 
" style="fill:none;stroke:#000000;stroke-width:1.5;"/>
      <defs>
       <path d="M 0 0 
L 0 1.375 
" id="m72c460c024" style="stroke:#000000;"/>
      </defs>
      <g>
       <use style="stroke:#000000;" x="133.493684" xlink:href="#m72c460c024" y="228.96"/>
      </g>
     </g>
    </g>
    <g id="xtick_6">
     <g id="line2d_6">
      <path d="M 268.317 228.96 
" style="fill:none;stroke:#000000;stroke-width:1.5;"/>
      <g>
       <use style="stroke:#000000;" x="268.317" xlink:href="#m72c460c024" y="228.96"/>
      </g>
     </g>
    </g>
    <g id="xtick_7">
     <g id="line2d_7">
      <path d="M 403.140316 228.96 
" style="fill:none;stroke:#000000;stroke-width:1.5;"/>
      <g>
       <use style="stroke:#000000;" x="403.140316" xlink:href="#m72c460c024" y="228.96"/>
      </g>
     </g>
    </g>
    <g id="text_5">
     <!-- Resolution [Å] -->
     <defs>
      <path d="M 44.390625 34.1875 
Q 47.5625 33.109375 50.5625 29.59375 
Q 53.5625 26.078125 56.59375 19.921875 
L 66.609375 0 
L 56 0 
L 46.6875 18.703125 
Q 43.0625 26.03125 39.671875 28.421875 
Q 36.28125 30.8125 30.421875 30.8125 
L 19.671875 30.8125 
L 19.671875 0 
L 9.8125 0 
L 9.8125 72.90625 
L 32.078125 72.90625 
Q 44.578125 72.90625 50.734375 67.671875 
Q 56.890625 62.453125 56.890625 51.90625 
Q 56.890625 45.015625 53.6875 40.46875 
Q 50.484375 35.9375 44.390625 34.1875 
z
M 19.671875 64.796875 
L 19.671875 38.921875 
L 32.078125 38.921875 
Q 39.203125 38.921875 42.84375 42.21875 
Q 46.484375 45.515625 46.484375 51.90625 
Q 46.484375 58.296875 42.84375 61.546875 
Q 39.203125 64.796875 32.078125 64.796875 
z
" id="DejaVuSans-82"/>
      <path d="M 56.203125 29.59375 
L 56.203125 25.203125 
L 14.890625 25.203125 
Q 15.484375 15.921875 20.484375 11.0625 
Q 25.484375 6.203125 34.421875 6.203125 
Q 39.59375 6.203125 44.453125 7.46875 
Q 49.3125 8.734375 54.109375 11.28125 
L 54.109375 2.78125 
Q 49.265625 0.734375 44.1875 -0.34375 
Q 39.109375 -1.421875 33.890625 -1.421875 
Q 20.796875 -1.421875 13.15625 6.1875 
Q 5.515625 13.8125 5.515625 26.8125 
Q 5.515625 40.234375 12.765625 48.109375 
Q 20.015625 56 32.328125 56 
Q 43.359375 56 49.78125 48.890625 
Q 56.203125 41.796875 56.203125 29.59375 
z
M 47.21875 32.234375 
Q 47.125 39.59375 43.09375 43.984375 
Q 39.0625 48.390625 32.421875 48.390625 
Q 24.90625 48.390625 20.390625 44.140625 
Q 15.875 39.890625 15.1875 32.171875 
z
" id="DejaVuSans-101"/>
      <path d="M 44.28125 53.078125 
L 44.28125 44.578125 
Q 40.484375 46.53125 36.375 47.5 
Q 32.28125 48.484375 27.875 48.484375 
Q 21.1875 48.484375 17.84375 46.4375 
Q 14.5 44.390625 14.5 40.28125 
Q 14.5 37.15625 16.890625 35.375 
Q 19.28125 33.59375 26.515625 31.984375 
L 29.59375 31.296875 
Q 39.15625 29.25 43.1875 25.515625 
Q 47.21875 21.78125 47.21875 15.09375 
Q 47.21875 7.46875 41.1875 3.015625 
Q 35.15625 -1.421875 24.609375 -1.421875 
Q 20.21875 -1.421875 15.453125 -0.5625 
Q 10.6875 0.296875 5.421875 2 
L 5.421875 11.28125 
Q 10.40625 8.6875 15.234375 7.390625 
Q 20.0625 6.109375 24.8125 6.109375 
Q 31.15625 6.109375 34.5625 8.28125 
Q 37.984375 10.453125 37.984375 14.40625 
Q 37.984375 18.0625 35.515625 20.015625 
Q 33.0625 21.96875 24.703125 23.78125 
L 21.578125 24.515625 
Q 13.234375 26.265625 9.515625 29.90625 
Q 5.8125 33.546875 5.8125 39.890625 
Q 5.8125 47.609375 11.28125 51.796875 
Q 16.75 56 26.8125 56 
Q 31.78125 56 36.171875 55.265625 
Q 40.578125 54.546875 44.28125 53.078125 
z
" id="DejaVuSans-115"/>
      <path d="M 30.609375 48.390625 
Q 23.390625 48.390625 19.1875 42.75 
Q 14.984375 37.109375 14.984375 27.296875 
Q 14.984375 17.484375 19.15625 11.84375 
Q 23.34375 6.203125 30.609375 6.203125 
Q 37.796875 6.203125 41.984375 11.859375 
Q 46.1875 17.53125 46.1875 27.296875 
Q 46.1875 37.015625 41.984375 42.703125 
Q 37.796875 48.390625 30.609375 48.390625 
z
M 30.609375 56 
Q 42.328125 56 49.015625 48.375 
Q 55.71875 40.765625 55.71875 27.296875 
Q 55.71875 13.875 49.015625 6.21875 
Q 42.328125 -1.421875 30.609375 -1.421875 
Q 18.84375 -1.421875 12.171875 6.21875 
Q 5.515625 13.875 5.515625 27.296875 
Q 5.515625 40.765625 12.171875 48.375 
Q 18.84375 56 30.609375 56 
z
" id="DejaVuSans-111"/>
      <path d="M 9.421875 75.984375 
L 18.40625 75.984375 
L 18.40625 0 
L 9.421875 0 
z
" id="DejaVuSans-108"/>
      <path d="M 8.5 21.578125 
L 8.5 54.6875 
L 17.484375 54.6875 
L 17.484375 21.921875 
Q 17.484375 14.15625 20.5 10.265625 
Q 23.53125 6.390625 29.59375 6.390625 
Q 36.859375 6.390625 41.078125 11.03125 
Q 45.3125 15.671875 45.3125 23.6875 
L 45.3125 54.6875 
L 54.296875 54.6875 
L 54.296875 0 
L 45.3125 0 
L 45.3125 8.40625 
Q 42.046875 3.421875 37.71875 1 
Q 33.40625 -1.421875 27.6875 -1.421875 
Q 18.265625 -1.421875 13.375 4.4375 
Q 8.5 10.296875 8.5 21.578125 
z
M 31.109375 56 
z
" id="DejaVuSans-117"/>
      <path d="M 18.3125 70.21875 
L 18.3125 54.6875 
L 36.8125 54.6875 
L 36.8125 47.703125 
L 18.3125 47.703125 
L 18.3125 18.015625 
Q 18.3125 11.328125 20.140625 9.421875 
Q 21.96875 7.515625 27.59375 7.515625 
L 36.8125 7.515625 
L 36.8125 0 
L 27.59375 0 
Q 17.1875 0 13.234375 3.875 
Q 9.28125 7.765625 9.28125 18.015625 
L 9.28125 47.703125 
L 2.6875 47.703125 
L 2.6875 54.6875 
L 9.28125 54.6875 
L 9.28125 70.21875 
z
" id="DejaVuSans-116"/>
      <path d="M 9.421875 54.6875 
L 18.40625 54.6875 
L 18.40625 0 
L 9.421875 0 
z
M 9.421875 75.984375 
L 18.40625 75.984375 
L 18.40625 64.59375 
L 9.421875 64.59375 
z
" id="DejaVuSans-105"/>
      <path d="M 54.890625 33.015625 
L 54.890625 0 
L 45.90625 0 
L 45.90625 32.71875 
Q 45.90625 40.484375 42.875 44.328125 
Q 39.84375 48.1875 33.796875 48.1875 
Q 26.515625 48.1875 22.3125 43.546875 
Q 18.109375 38.921875 18.109375 30.90625 
L 18.109375 0 
L 9.078125 0 
L 9.078125 54.6875 
L 18.109375 54.6875 
L 18.109375 46.1875 
Q 21.34375 51.125 25.703125 53.5625 
Q 30.078125 56 35.796875 56 
Q 45.21875 56 50.046875 50.171875 
Q 54.890625 44.34375 54.890625 33.015625 
z
" id="DejaVuSans-110"/>
      <path id="DejaVuSans-32"/>
      <path d="M 8.59375 75.984375 
L 29.296875 75.984375 
L 29.296875 69 
L 17.578125 69 
L 17.578125 -6.203125 
L 29.296875 -6.203125 
L 29.296875 -13.1875 
L 8.59375 -13.1875 
z
" id="DejaVuSans-91"/>
      <path d="M 41.609375 79.390625 
Q 41.609375 82.46875 39.421875 84.640625 
Q 37.25 86.8125 34.1875 86.8125 
Q 31.0625 86.8125 28.9375 84.6875 
Q 26.8125 82.5625 26.8125 79.390625 
Q 26.8125 76.3125 28.953125 74.15625 
Q 31.109375 72.015625 34.1875 72.015625 
Q 37.25 72.015625 39.421875 74.15625 
Q 41.609375 76.3125 41.609375 79.390625 
z
M 34.1875 63.1875 
L 20.90625 26.90625 
L 47.515625 26.90625 
z
M 26.8125 68.21875 
Q 23.828125 70.21875 22.3125 73.015625 
Q 20.796875 75.828125 20.796875 79.390625 
Q 20.796875 85.015625 24.671875 88.921875 
Q 28.5625 92.828125 34.1875 92.828125 
Q 39.75 92.828125 43.671875 88.890625 
Q 47.609375 84.96875 47.609375 79.390625 
Q 47.609375 75.984375 46.0625 73.09375 
Q 44.53125 70.21875 41.609375 68.21875 
L 67.578125 0 
L 57.328125 0 
L 50.6875 18.703125 
L 17.828125 18.703125 
L 11.1875 0 
L 0.78125 0 
z
" id="DejaVuSans-197"/>
      <path d="M 30.421875 75.984375 
L 30.421875 -13.1875 
L 9.71875 -13.1875 
L 9.71875 -6.203125 
L 21.390625 -6.203125 
L 21.390625 69 
L 9.71875 69 
L 9.71875 75.984375 
z
" id="DejaVuSans-93"/>
     </defs>
     <g transform="translate(222.333406 256.200812)scale(0.11 -0.11)">
      <use xlink:href="#DejaVuSans-82"/>
      <use x="69.419922" xlink:href="#DejaVuSans-101"/>
      <use x="130.943359" xlink:href="#DejaVuSans-115"/>
      <use x="183.042969" xlink:href="#DejaVuSans-111"/>
      <use x="244.224609" xlink:href="#DejaVuSans-108"/>
      <use x="272.007812" xlink:href="#DejaVuSans-117"/>
      <use x="335.386719" xlink:href="#DejaVuSans-116"/>
      <use x="374.595703" xlink:href="#DejaVuSans-105"/>
      <use x="402.378906" xlink:href="#DejaVuSans-111"/>
      <use x="463.560547" xlink:href="#DejaVuSans-110"/>
      <use x="526.939453" xlink:href="#DejaVuSans-32"/>
      <use x="558.726562" xlink:href="#DejaVuSans-91"/>
      <use x="597.740234" xlink:href="#DejaVuSans-197"/>
      <use x="666.148438" xlink:href="#DejaVuSans-93"/>
     </g>
    </g>
   </g>
   <g id="matplotlib.axis_2">
    <g id="ytick_1">
     <g id="line2d_8">
      <path d="M 45.117 218.88 
" style="fill:none;stroke:#000000;stroke-width:1.5;"/>
      <defs>
       <path d="M 0 0 
L -2.75 0 
" id="mfa0616e8e0" style="stroke:#000000;"/>
      </defs>
      <g>
       <use style="stroke:#000000;" x="45.117" xlink:href="#mfa0616e8e0" y="218.88"/>
      </g>
     </g>
     <g id="text_6">
      <!-- 0 -->
      <defs>
       <path d="M 31.78125 66.40625 
Q 24.171875 66.40625 20.328125 58.90625 
Q 16.5 51.421875 16.5 36.375 
Q 16.5 21.390625 20.328125 13.890625 
Q 24.171875 6.390625 31.78125 6.390625 
Q 39.453125 6.390625 43.28125 13.890625 
Q 47.125 21.390625 47.125 36.375 
Q 47.125 51.421875 43.28125 58.90625 
Q 39.453125 66.40625 31.78125 66.40625 
z
M 31.78125 74.21875 
Q 44.046875 74.21875 50.515625 64.515625 
Q 56.984375 54.828125 56.984375 36.375 
Q 56.984375 17.96875 50.515625 8.265625 
Q 44.046875 -1.421875 31.78125 -1.421875 
Q 19.53125 -1.421875 13.0625 8.265625 
Q 6.59375 17.96875 6.59375 36.375 
Q 6.59375 54.828125 13.0625 64.515625 
Q 19.53125 74.21875 31.78125 74.21875 
z
" id="DejaVuSans-48"/>
      </defs>
      <g transform="translate(34.568 221.30825)scale(0.088 -0.088)">
       <use xlink:href="#DejaVuSans-48"/>
      </g>
     </g>
    </g>
    <g id="ytick_2">
     <g id="line2d_9">
      <path d="M 45.117 168.48 
" style="fill:none;stroke:#000000;stroke-width:1.5;"/>
      <g>
       <use style="stroke:#000000;" x="45.117" xlink:href="#mfa0616e8e0" y="168.48"/>
      </g>
     </g>
     <g id="text_7">
      <!-- 25 -->
      <defs>
       <path d="M 10.796875 72.90625 
L 49.515625 72.90625 
L 49.515625 64.59375 
L 19.828125 64.59375 
L 19.828125 46.734375 
Q 21.96875 47.46875 24.109375 47.828125 
Q 26.265625 48.1875 28.421875 48.1875 
Q 40.625 48.1875 47.75 41.5 
Q 54.890625 34.8125 54.890625 23.390625 
Q 54.890625 11.625 47.5625 5.09375 
Q 40.234375 -1.421875 26.90625 -1.421875 
Q 22.3125 -1.421875 17.546875 -0.640625 
Q 12.796875 0.140625 7.71875 1.703125 
L 7.71875 11.625 
Q 12.109375 9.234375 16.796875 8.0625 
Q 21.484375 6.890625 26.703125 6.890625 
Q 35.15625 6.890625 40.078125 11.328125 
Q 45.015625 15.765625 45.015625 23.390625 
Q 45.015625 31 40.078125 35.4375 
Q 35.15625 39.890625 26.703125 39.890625 
Q 22.75 39.890625 18.8125 39.015625 
Q 14.890625 38.140625 10.796875 36.28125 
z
" id="DejaVuSans-53"/>
      </defs>
      <g transform="translate(28.969 170.90825)scale(0.088 -0.088)">
       <use xlink:href="#DejaVuSans-50"/>
       <use x="63.623047" xlink:href="#DejaVuSans-53"/>
      </g>
     </g>
    </g>
    <g id="ytick_3">
     <g id="line2d_10">
      <path d="M 45.117 118.08 
" style="fill:none;stroke:#000000;stroke-width:1.5;"/>
      <g>
       <use style="stroke:#000000;" x="45.117" xlink:href="#mfa0616e8e0" y="118.08"/>
      </g>
     </g>
     <g id="text_8">
      <!-- 50 -->
      <g transform="translate(28.969 120.50825)scale(0.088 -0.088)">
       <use xlink:href="#DejaVuSans-53"/>
       <use x="63.623047" xlink:href="#DejaVuSans-48"/>
      </g>
     </g>
    </g>
    <g id="ytick_4">
     <g id="line2d_11">
      <path d="M 45.117 67.68 
" style="fill:none;stroke:#000000;stroke-width:1.5;"/>
      <g>
       <use style="stroke:#000000;" x="45.117" xlink:href="#mfa0616e8e0" y="67.68"/>
      </g>
     </g>
     <g id="text_9">
      <!-- 75 -->
      <defs>
       <path d="M 8.203125 72.90625 
L 55.078125 72.90625 
L 55.078125 68.703125 
L 28.609375 0 
L 18.3125 0 
L 43.21875 64.59375 
L 8.203125 64.59375 
z
" id="DejaVuSans-55"/>
      </defs>
      <g transform="translate(28.969 70.10825)scale(0.088 -0.088)">
       <use xlink:href="#DejaVuSans-55"/>
       <use x="63.623047" xlink:href="#DejaVuSans-53"/>
      </g>
     </g>
    </g>
    <g id="ytick_5">
     <g id="line2d_12">
      <path d="M 45.117 17.28 
" style="fill:none;stroke:#000000;stroke-width:1.5;"/>
      <g>
       <use style="stroke:#000000;" x="45.117" xlink:href="#mfa0616e8e0" y="17.28"/>
      </g>
     </g>
     <g id="text_10">
      <!-- 100 -->
      <g transform="translate(23.37 19.70825)scale(0.088 -0.088)">
       <use xlink:href="#DejaVuSans-49"/>
       <use x="63.623047" xlink:href="#DejaVuSans-48"/>
       <use x="127.246094" xlink:href="#DejaVuSans-48"/>
      </g>
     </g>
    </g>
    <g id="ytick_6">
     <g id="line2d_13">
      <path d="M 45.117 193.68 
" style="fill:none;stroke:#000000;stroke-width:1.5;"/>
      <defs>
       <path d="M 0 0 
L -1.375 0 
" id="m344f06273e" style="stroke:#000000;"/>
      </defs>
      <g>
       <use style="stroke:#000000;" x="45.117" xlink:href="#m344f06273e" y="193.68"/>
      </g>
     </g>
    </g>
    <g id="ytick_7">
     <g id="line2d_14">
      <path d="M 45.117 143.28 
" style="fill:none;stroke:#000000;stroke-width:1.5;"/>
      <g>
       <use style="stroke:#000000;" x="45.117" xlink:href="#m344f06273e" y="143.28"/>
      </g>
     </g>
    </g>
    <g id="ytick_8">
     <g id="line2d_15">
      <path d="M 45.117 92.88 
" style="fill:none;stroke:#000000;stroke-width:1.5;"/>
      <g>
       <use style="stroke:#000000;" x="45.117" xlink:href="#m344f06273e" y="92.88"/>
      </g>
     </g>
    </g>
    <g id="ytick_9">
     <g id="line2d_16">
      <path d="M 45.117 42.48 
" style="fill:none;stroke:#000000;stroke-width:1.5;"/>
      <g>
       <use style="stroke:#000000;" x="45.117" xlink:href="#m344f06273e" y="42.48"/>
      </g>
     </g>
    </g>
    <g id="text_11">
     <!-- $P_{Q1p}$ [%] -->
     <defs>
      <path d="M 16.890625 72.90625 
L 39.703125 72.90625 
Q 49.65625 72.90625 54.875 68.265625 
Q 60.109375 63.625 60.109375 54.6875 
Q 60.109375 42.671875 52.390625 35.984375 
Q 44.671875 29.296875 30.71875 29.296875 
L 18.3125 29.296875 
L 12.59375 0 
L 2.6875 0 
z
M 25.203125 64.796875 
L 19.921875 37.40625 
L 32.328125 37.40625 
Q 40.71875 37.40625 45.203125 41.703125 
Q 49.703125 46 49.703125 54 
Q 49.703125 59.125 46.65625 61.953125 
Q 43.609375 64.796875 38.09375 64.796875 
z
" id="DejaVuSans-Oblique-80"/>
      <path d="M 36.078125 -1.3125 
Q 35.546875 -1.375 34.953125 -1.390625 
Q 34.375 -1.421875 33.203125 -1.421875 
Q 19.53125 -1.421875 11.8125 6.421875 
Q 4.109375 14.265625 4.109375 28.078125 
Q 4.109375 36.234375 7.0625 44.4375 
Q 10.015625 52.640625 15.28125 59.1875 
Q 21.390625 66.703125 29.03125 70.453125 
Q 36.671875 74.21875 45.90625 74.21875 
Q 59.28125 74.21875 66.984375 66.328125 
Q 74.703125 58.453125 74.703125 44.828125 
Q 74.703125 30.125 66.640625 17.921875 
Q 58.59375 5.71875 45.609375 0.6875 
L 55.515625 -12.890625 
L 44.484375 -12.890625 
z
M 45.609375 66.21875 
Q 37.5 66.21875 31.296875 62.28125 
Q 25.09375 58.34375 20.515625 50.296875 
Q 17.578125 45.171875 16.03125 39.40625 
Q 14.5 33.640625 14.5 27.78125 
Q 14.5 17.625 19.359375 12.109375 
Q 24.21875 6.59375 33.109375 6.59375 
Q 41.109375 6.59375 47.375 10.5625 
Q 53.65625 14.546875 58.109375 22.40625 
Q 61.078125 27.6875 62.640625 33.46875 
Q 64.203125 39.265625 64.203125 45.015625 
Q 64.203125 55.125 59.3125 60.671875 
Q 54.4375 66.21875 45.609375 66.21875 
z
" id="DejaVuSans-Oblique-81"/>
      <path d="M 49.609375 33.6875 
Q 49.609375 40.875 46.484375 44.671875 
Q 43.359375 48.484375 37.5 48.484375 
Q 33.5 48.484375 29.859375 46.4375 
Q 26.21875 44.390625 23.390625 40.484375 
Q 20.609375 36.625 18.9375 31.15625 
Q 17.28125 25.6875 17.28125 20.3125 
Q 17.28125 13.484375 20.40625 9.796875 
Q 23.53125 6.109375 29.296875 6.109375 
Q 33.546875 6.109375 37.1875 8.109375 
Q 40.828125 10.109375 43.40625 13.921875 
Q 46.1875 17.921875 47.890625 23.34375 
Q 49.609375 28.765625 49.609375 33.6875 
z
M 21.78125 46.390625 
Q 25.390625 51.125 30.296875 53.5625 
Q 35.203125 56 41.21875 56 
Q 49.609375 56 54.25 50.5 
Q 58.890625 45.015625 58.890625 35.109375 
Q 58.890625 27 56 19.65625 
Q 53.125 12.3125 47.703125 6.5 
Q 44.09375 2.640625 39.546875 0.609375 
Q 35.015625 -1.421875 29.984375 -1.421875 
Q 24.171875 -1.421875 20.21875 1 
Q 16.265625 3.421875 14.3125 8.203125 
L 8.6875 -20.796875 
L -0.296875 -20.796875 
L 14.40625 54.6875 
L 23.390625 54.6875 
z
" id="DejaVuSans-Oblique-112"/>
      <path d="M 72.703125 32.078125 
Q 68.453125 32.078125 66.03125 28.46875 
Q 63.625 24.859375 63.625 18.40625 
Q 63.625 12.0625 66.03125 8.421875 
Q 68.453125 4.78125 72.703125 4.78125 
Q 76.859375 4.78125 79.265625 8.421875 
Q 81.6875 12.0625 81.6875 18.40625 
Q 81.6875 24.8125 79.265625 28.4375 
Q 76.859375 32.078125 72.703125 32.078125 
z
M 72.703125 38.28125 
Q 80.421875 38.28125 84.953125 32.90625 
Q 89.5 27.546875 89.5 18.40625 
Q 89.5 9.28125 84.9375 3.921875 
Q 80.375 -1.421875 72.703125 -1.421875 
Q 64.890625 -1.421875 60.34375 3.921875 
Q 55.8125 9.28125 55.8125 18.40625 
Q 55.8125 27.59375 60.375 32.9375 
Q 64.9375 38.28125 72.703125 38.28125 
z
M 22.3125 68.015625 
Q 18.109375 68.015625 15.6875 64.375 
Q 13.28125 60.75 13.28125 54.390625 
Q 13.28125 47.953125 15.671875 44.328125 
Q 18.0625 40.71875 22.3125 40.71875 
Q 26.5625 40.71875 28.96875 44.328125 
Q 31.390625 47.953125 31.390625 54.390625 
Q 31.390625 60.6875 28.953125 64.34375 
Q 26.515625 68.015625 22.3125 68.015625 
z
M 66.40625 74.21875 
L 74.21875 74.21875 
L 28.609375 -1.421875 
L 20.796875 -1.421875 
z
M 22.3125 74.21875 
Q 30.03125 74.21875 34.609375 68.875 
Q 39.203125 63.53125 39.203125 54.390625 
Q 39.203125 45.171875 34.640625 39.84375 
Q 30.078125 34.515625 22.3125 34.515625 
Q 14.546875 34.515625 10.03125 39.859375 
Q 5.515625 45.21875 5.515625 54.390625 
Q 5.515625 63.484375 10.046875 68.84375 
Q 14.59375 74.21875 22.3125 74.21875 
z
" id="DejaVuSans-37"/>
     </defs>
     <g transform="translate(15.56 139.3)rotate(-90)scale(0.11 -0.11)">
      <use transform="translate(0 0.015625)" xlink:href="#DejaVuSans-Oblique-80"/>
      <use transform="translate(60.302734 -16.390625)scale(0.7)" xlink:href="#DejaVuSans-Oblique-81"/>
      <use transform="translate(115.400391 -16.390625)scale(0.7)" xlink:href="#DejaVuSans-49"/>
      <use transform="translate(159.936523 -16.390625)scale(0.7)" xlink:href="#DejaVuSans-Oblique-112"/>
      <use transform="translate(207.104492 0.015625)" xlink:href="#DejaVuSans-32"/>
      <use transform="translate(238.891602 0.015625)" xlink:href="#DejaVuSans-91"/>
      <use transform="translate(277.905273 0.015625)" xlink:href="#DejaVuSans-37"/>
      <use transform="translate(372.924805 0.015625)" xlink:href="#DejaVuSans-93"/>
     </g>
    </g>
   </g>
   <g id="LineCollection_1">
    <path clip-path="url(#p2c841aac14)" d="M 65.407909 53.751566 
L 66.756142 53.751566 
" style="fill:none;stroke:#9da0a2;stroke-width:1.32934;"/>
    <path clip-path="url(#p2c841aac14)" d="M 78.890241 55.237184 
L 80.238474 55.237184 
" style="fill:none;stroke:#9da0a2;stroke-width:1.32934;"/>
    <path clip-path="url(#p2c841aac14)" d="M 92.372572 61.783633 
L 93.720805 61.783633 
" style="fill:none;stroke:#9da0a2;stroke-width:1.32934;"/>
    <path clip-path="url(#p2c841aac14)" d="M 105.854904 62.344679 
L 107.203137 62.344679 
" style="fill:none;stroke:#9da0a2;stroke-width:1.32934;"/>
    <path clip-path="url(#p2c841aac14)" d="M 119.337236 70.563346 
L 120.685469 70.563346 
" style="fill:none;stroke:#9da0a2;stroke-width:1.32934;"/>
    <path clip-path="url(#p2c841aac14)" d="M 132.819567 77.724216 
L 134.1678 77.724216 
" style="fill:none;stroke:#9da0a2;stroke-width:1.32934;"/>
    <path clip-path="url(#p2c841aac14)" d="M 146.301899 82.543007 
L 147.650132 82.543007 
" style="fill:none;stroke:#9da0a2;stroke-width:1.32934;"/>
    <path clip-path="url(#p2c841aac14)" d="M 159.78423 91.162529 
L 161.132464 91.162529 
" style="fill:none;stroke:#9da0a2;stroke-width:1.32934;"/>
    <path clip-path="url(#p2c841aac14)" d="M 173.266562 94.303417 
L 174.614795 94.303417 
" style="fill:none;stroke:#9da0a2;stroke-width:1.32934;"/>
    <path clip-path="url(#p2c841aac14)" d="M 186.748894 106.355489 
L 188.097127 106.355489 
" style="fill:none;stroke:#9da0a2;stroke-width:1.32934;"/>
    <path clip-path="url(#p2c841aac14)" d="M 200.231225 115.76765 
L 201.579458 115.76765 
" style="fill:none;stroke:#9da0a2;stroke-width:1.32934;"/>
    <path clip-path="url(#p2c841aac14)" d="M 213.713557 123.260712 
L 215.06179 123.260712 
" style="fill:none;stroke:#9da0a2;stroke-width:1.32934;"/>
    <path clip-path="url(#p2c841aac14)" d="M 227.195889 129.147105 
L 228.544122 129.147105 
" style="fill:none;stroke:#9da0a2;stroke-width:1.32934;"/>
    <path clip-path="url(#p2c841aac14)" d="M 240.67822 140.610178 
L 242.026453 140.610178 
" style="fill:none;stroke:#9da0a2;stroke-width:1.32934;"/>
    <path clip-path="url(#p2c841aac14)" d="M 254.160552 141.131148 
L 255.508785 141.131148 
" style="fill:none;stroke:#9da0a2;stroke-width:1.32934;"/>
    <path clip-path="url(#p2c841aac14)" d="M 267.642883 150.376416 
L 268.991117 150.376416 
" style="fill:none;stroke:#9da0a2;stroke-width:1.32934;"/>
    <path clip-path="url(#p2c841aac14)" d="M 281.125215 148.531026 
L 282.473448 148.531026 
" style="fill:none;stroke:#9da0a2;stroke-width:1.32934;"/>
    <path clip-path="url(#p2c841aac14)" d="M 294.607547 155.005504 
L 295.95578 155.005504 
" style="fill:none;stroke:#9da0a2;stroke-width:1.32934;"/>
    <path clip-path="url(#p2c841aac14)" d="M 308.089878 156.91338 
L 309.438111 156.91338 
" style="fill:none;stroke:#9da0a2;stroke-width:1.32934;"/>
    <path clip-path="url(#p2c841aac14)" d="M 321.57221 161.727769 
L 322.920443 161.727769 
" style="fill:none;stroke:#9da0a2;stroke-width:1.32934;"/>
    <path clip-path="url(#p2c841aac14)" d="M 335.054542 155.799185 
L 336.402775 155.799185 
" style="fill:none;stroke:#9da0a2;stroke-width:1.32934;"/>
    <path clip-path="url(#p2c841aac14)" d="M 348.536873 154.953609 
L 349.885106 154.953609 
" style="fill:none;stroke:#9da0a2;stroke-width:1.32934;"/>
    <path clip-path="url(#p2c841aac14)" d="M 362.019205 161.468078 
L 363.367438 161.468078 
" style="fill:none;stroke:#9da0a2;stroke-width:1.32934;"/>
    <path clip-path="url(#p2c841aac14)" d="M 375.501536 167.349573 
L 376.84977 167.349573 
" style="fill:none;stroke:#9da0a2;stroke-width:1.32934;"/>
    <path clip-path="url(#p2c841aac14)" d="M 388.983868 176.033826 
L 390.332101 176.033826 
" style="fill:none;stroke:#9da0a2;stroke-width:1.32934;"/>
    <path clip-path="url(#p2c841aac14)" d="M 402.4662 170.876282 
L 403.814433 170.876282 
" style="fill:none;stroke:#9da0a2;stroke-width:1.32934;"/>
    <path clip-path="url(#p2c841aac14)" d="M 415.948531 168.571383 
L 417.296764 168.571383 
" style="fill:none;stroke:#9da0a2;stroke-width:1.32934;"/>
    <path clip-path="url(#p2c841aac14)" d="M 429.430863 175.530675 
L 430.779096 175.530675 
" style="fill:none;stroke:#9da0a2;stroke-width:1.32934;"/>
    <path clip-path="url(#p2c841aac14)" d="M 442.913195 176.742486 
L 444.261428 176.742486 
" style="fill:none;stroke:#9da0a2;stroke-width:1.32934;"/>
    <path clip-path="url(#p2c841aac14)" d="M 456.395526 182.665272 
L 457.743759 182.665272 
" style="fill:none;stroke:#9da0a2;stroke-width:1.32934;"/>
    <path clip-path="url(#p2c841aac14)" d="M 469.877858 175.030441 
L 471.226091 175.030441 
" style="fill:none;stroke:#9da0a2;stroke-width:1.32934;"/>
    <path clip-path="url(#p2c841aac14)" d="M 65.407909 51.792284 
L 66.756142 51.792284 
" style="fill:none;stroke:#9da0a2;stroke-width:1.32934;"/>
    <path clip-path="url(#p2c841aac14)" d="M 78.890241 53.207751 
L 80.238474 53.207751 
" style="fill:none;stroke:#9da0a2;stroke-width:1.32934;"/>
    <path clip-path="url(#p2c841aac14)" d="M 92.372572 60.149592 
L 93.720805 60.149592 
" style="fill:none;stroke:#9da0a2;stroke-width:1.32934;"/>
    <path clip-path="url(#p2c841aac14)" d="M 105.854904 60.646247 
L 107.203137 60.646247 
" style="fill:none;stroke:#9da0a2;stroke-width:1.32934;"/>
    <path clip-path="url(#p2c841aac14)" d="M 119.337236 69.301134 
L 120.685469 69.301134 
" style="fill:none;stroke:#9da0a2;stroke-width:1.32934;"/>
    <path clip-path="url(#p2c841aac14)" d="M 132.819567 76.416363 
L 134.1678 76.416363 
" style="fill:none;stroke:#9da0a2;stroke-width:1.32934;"/>
    <path clip-path="url(#p2c841aac14)" d="M 146.301899 81.484608 
L 147.650132 81.484608 
" style="fill:none;stroke:#9da0a2;stroke-width:1.32934;"/>
    <path clip-path="url(#p2c841aac14)" d="M 159.78423 89.973859 
L 161.132464 89.973859 
" style="fill:none;stroke:#9da0a2;stroke-width:1.32934;"/>
    <path clip-path="url(#p2c841aac14)" d="M 173.266562 93.419613 
L 174.614795 93.419613 
" style="fill:none;stroke:#9da0a2;stroke-width:1.32934;"/>
    <path clip-path="url(#p2c841aac14)" d="M 186.748894 105.282915 
L 188.097127 105.282915 
" style="fill:none;stroke:#9da0a2;stroke-width:1.32934;"/>
    <path clip-path="url(#p2c841aac14)" d="M 200.231225 114.896789 
L 201.579458 114.896789 
" style="fill:none;stroke:#9da0a2;stroke-width:1.32934;"/>
    <path clip-path="url(#p2c841aac14)" d="M 213.713557 122.030885 
L 215.06179 122.030885 
" style="fill:none;stroke:#9da0a2;stroke-width:1.32934;"/>
    <path clip-path="url(#p2c841aac14)" d="M 227.195889 128.077376 
L 228.544122 128.077376 
" style="fill:none;stroke:#9da0a2;stroke-width:1.32934;"/>
    <path clip-path="url(#p2c841aac14)" d="M 240.67822 139.410031 
L 242.026453 139.410031 
" style="fill:none;stroke:#9da0a2;stroke-width:1.32934;"/>
    <path clip-path="url(#p2c841aac14)" d="M 254.160552 139.944033 
L 255.508785 139.944033 
" style="fill:none;stroke:#9da0a2;stroke-width:1.32934;"/>
    <path clip-path="url(#p2c841aac14)" d="M 267.642883 149.159088 
L 268.991117 149.159088 
" style="fill:none;stroke:#9da0a2;stroke-width:1.32934;"/>
    <path clip-path="url(#p2c841aac14)" d="M 281.125215 147.267133 
L 282.473448 147.267133 
" style="fill:none;stroke:#9da0a2;stroke-width:1.32934;"/>
    <path clip-path="url(#p2c841aac14)" d="M 294.607547 153.513486 
L 295.95578 153.513486 
" style="fill:none;stroke:#9da0a2;stroke-width:1.32934;"/>
    <path clip-path="url(#p2c841aac14)" d="M 308.089878 155.666433 
L 309.438111 155.666433 
" style="fill:none;stroke:#9da0a2;stroke-width:1.32934;"/>
    <path clip-path="url(#p2c841aac14)" d="M 321.57221 160.020886 
L 322.920443 160.020886 
" style="fill:none;stroke:#9da0a2;stroke-width:1.32934;"/>
    <path clip-path="url(#p2c841aac14)" d="M 335.054542 154.268677 
L 336.402775 154.268677 
" style="fill:none;stroke:#9da0a2;stroke-width:1.32934;"/>
    <path clip-path="url(#p2c841aac14)" d="M 348.536873 152.699367 
L 349.885106 152.699367 
" style="fill:none;stroke:#9da0a2;stroke-width:1.32934;"/>
    <path clip-path="url(#p2c841aac14)" d="M 362.019205 159.433211 
L 363.367438 159.433211 
" style="fill:none;stroke:#9da0a2;stroke-width:1.32934;"/>
    <path clip-path="url(#p2c841aac14)" d="M 375.501536 164.64898 
L 376.84977 164.64898 
" style="fill:none;stroke:#9da0a2;stroke-width:1.32934;"/>
    <path clip-path="url(#p2c841aac14)" d="M 388.983868 173.218888 
L 390.332101 173.218888 
" style="fill:none;stroke:#9da0a2;stroke-width:1.32934;"/>
    <path clip-path="url(#p2c841aac14)" d="M 402.4662 167.991653 
L 403.814433 167.991653 
" style="fill:none;stroke:#9da0a2;stroke-width:1.32934;"/>
    <path clip-path="url(#p2c841aac14)" d="M 415.948531 164.823047 
L 417.296764 164.823047 
" style="fill:none;stroke:#9da0a2;stroke-width:1.32934;"/>
    <path clip-path="url(#p2c841aac14)" d="M 429.430863 170.115445 
L 430.779096 170.115445 
" style="fill:none;stroke:#9da0a2;stroke-width:1.32934;"/>
    <path clip-path="url(#p2c841aac14)" d="M 442.913195 172.545735 
L 444.261428 172.545735 
" style="fill:none;stroke:#9da0a2;stroke-width:1.32934;"/>
    <path clip-path="url(#p2c841aac14)" d="M 456.395526 176.996367 
L 457.743759 176.996367 
" style="fill:none;stroke:#9da0a2;stroke-width:1.32934;"/>
    <path clip-path="url(#p2c841aac14)" d="M 469.877858 172.553902 
L 471.226091 172.553902 
" style="fill:none;stroke:#9da0a2;stroke-width:1.32934;"/>
    <path clip-path="url(#p2c841aac14)" d="M 66.082026 51.792284 
L 66.082026 53.751566 
" style="fill:none;stroke:#9da0a2;stroke-width:1.32934;"/>
    <path clip-path="url(#p2c841aac14)" d="M 79.564357 53.207751 
L 79.564357 55.237184 
" style="fill:none;stroke:#9da0a2;stroke-width:1.32934;"/>
    <path clip-path="url(#p2c841aac14)" d="M 93.046689 60.149592 
L 93.046689 61.783633 
" style="fill:none;stroke:#9da0a2;stroke-width:1.32934;"/>
    <path clip-path="url(#p2c841aac14)" d="M 106.529021 60.646247 
L 106.529021 62.344679 
" style="fill:none;stroke:#9da0a2;stroke-width:1.32934;"/>
    <path clip-path="url(#p2c841aac14)" d="M 120.011352 69.301134 
L 120.011352 70.563346 
" style="fill:none;stroke:#9da0a2;stroke-width:1.32934;"/>
    <path clip-path="url(#p2c841aac14)" d="M 133.493684 76.416363 
L 133.493684 77.724216 
" style="fill:none;stroke:#9da0a2;stroke-width:1.32934;"/>
    <path clip-path="url(#p2c841aac14)" d="M 146.976015 81.484608 
L 146.976015 82.543007 
" style="fill:none;stroke:#9da0a2;stroke-width:1.32934;"/>
    <path clip-path="url(#p2c841aac14)" d="M 160.458347 89.973859 
L 160.458347 91.162529 
" style="fill:none;stroke:#9da0a2;stroke-width:1.32934;"/>
    <path clip-path="url(#p2c841aac14)" d="M 173.940679 93.419613 
L 173.940679 94.303417 
" style="fill:none;stroke:#9da0a2;stroke-width:1.32934;"/>
    <path clip-path="url(#p2c841aac14)" d="M 187.42301 105.282915 
L 187.42301 106.355489 
" style="fill:none;stroke:#9da0a2;stroke-width:1.32934;"/>
    <path clip-path="url(#p2c841aac14)" d="M 200.905342 114.896789 
L 200.905342 115.76765 
" style="fill:none;stroke:#9da0a2;stroke-width:1.32934;"/>
    <path clip-path="url(#p2c841aac14)" d="M 214.387674 122.030885 
L 214.387674 123.260712 
" style="fill:none;stroke:#9da0a2;stroke-width:1.32934;"/>
    <path clip-path="url(#p2c841aac14)" d="M 227.870005 128.077376 
L 227.870005 129.147105 
" style="fill:none;stroke:#9da0a2;stroke-width:1.32934;"/>
    <path clip-path="url(#p2c841aac14)" d="M 241.352337 139.410031 
L 241.352337 140.610178 
" style="fill:none;stroke:#9da0a2;stroke-width:1.32934;"/>
    <path clip-path="url(#p2c841aac14)" d="M 254.834668 139.944033 
L 254.834668 141.131148 
" style="fill:none;stroke:#9da0a2;stroke-width:1.32934;"/>
    <path clip-path="url(#p2c841aac14)" d="M 268.317 149.159088 
L 268.317 150.376416 
" style="fill:none;stroke:#9da0a2;stroke-width:1.32934;"/>
    <path clip-path="url(#p2c841aac14)" d="M 281.799332 147.267133 
L 281.799332 148.531026 
" style="fill:none;stroke:#9da0a2;stroke-width:1.32934;"/>
    <path clip-path="url(#p2c841aac14)" d="M 295.281663 153.513486 
L 295.281663 155.005504 
" style="fill:none;stroke:#9da0a2;stroke-width:1.32934;"/>
    <path clip-path="url(#p2c841aac14)" d="M 308.763995 155.666433 
L 308.763995 156.91338 
" style="fill:none;stroke:#9da0a2;stroke-width:1.32934;"/>
    <path clip-path="url(#p2c841aac14)" d="M 322.246326 160.020886 
L 322.246326 161.727769 
" style="fill:none;stroke:#9da0a2;stroke-width:1.32934;"/>
    <path clip-path="url(#p2c841aac14)" d="M 335.728658 154.268677 
L 335.728658 155.799185 
" style="fill:none;stroke:#9da0a2;stroke-width:1.32934;"/>
    <path clip-path="url(#p2c841aac14)" d="M 349.21099 152.699367 
L 349.21099 154.953609 
" style="fill:none;stroke:#9da0a2;stroke-width:1.32934;"/>
    <path clip-path="url(#p2c841aac14)" d="M 362.693321 159.433211 
L 362.693321 161.468078 
" style="fill:none;stroke:#9da0a2;stroke-width:1.32934;"/>
    <path clip-path="url(#p2c841aac14)" d="M 376.175653 164.64898 
L 376.175653 167.349573 
" style="fill:none;stroke:#9da0a2;stroke-width:1.32934;"/>
    <path clip-path="url(#p2c841aac14)" d="M 389.657985 173.218888 
L 389.657985 176.033826 
" style="fill:none;stroke:#9da0a2;stroke-width:1.32934;"/>
    <path clip-path="url(#p2c841aac14)" d="M 403.140316 167.991653 
L 403.140316 170.876282 
" style="fill:none;stroke:#9da0a2;stroke-width:1.32934;"/>
    <path clip-path="url(#p2c841aac14)" d="M 416.622648 164.823047 
L 416.622648 168.571383 
" style="fill:none;stroke:#9da0a2;stroke-width:1.32934;"/>
    <path clip-path="url(#p2c841aac14)" d="M 430.104979 170.115445 
L 430.104979 175.530675 
" style="fill:none;stroke:#9da0a2;stroke-width:1.32934;"/>
    <path clip-path="url(#p2c841aac14)" d="M 443.587311 172.545735 
L 443.587311 176.742486 
" style="fill:none;stroke:#9da0a2;stroke-width:1.32934;"/>
    <path clip-path="url(#p2c841aac14)" d="M 457.069643 176.996367 
L 457.069643 182.665272 
" style="fill:none;stroke:#9da0a2;stroke-width:1.32934;"/>
    <path clip-path="url(#p2c841aac14)" d="M 470.551974 172.553902 
L 470.551974 175.030441 
" style="fill:none;stroke:#9da0a2;stroke-width:1.32934;"/>
   </g>
   <g id="line2d_17">
    <path clip-path="url(#p2c841aac14)" d="M 66.082026 52.771925 
L 79.564357 54.222467 
L 93.046689 60.966612 
L 106.529021 61.495463 
L 120.011352 69.93224 
L 133.493684 77.070289 
L 146.976015 82.013808 
L 160.458347 90.568194 
L 173.940679 93.861515 
L 187.42301 105.819202 
L 200.905342 115.332219 
L 214.387674 122.645798 
L 227.870005 128.612241 
L 241.352337 140.010104 
L 254.834668 140.53759 
L 268.317 149.767752 
L 281.799332 147.899079 
L 295.281663 154.259495 
L 308.763995 156.289906 
L 322.246326 160.874327 
L 335.728658 155.033931 
L 349.21099 153.826488 
L 362.693321 160.450644 
L 376.175653 165.999277 
L 389.657985 174.626357 
L 403.140316 169.433967 
L 416.622648 166.697215 
L 430.104979 172.82306 
L 443.587311 174.64411 
L 457.069643 179.830819 
L 470.551974 173.792171 
" style="fill:none;stroke:#ee7733;stroke-width:0.886227;"/>
   </g>
   <g id="patch_3">
    <path d="M 45.117 228.96 
L 45.117 7.2 
" style="fill:none;stroke:#000000;stroke-linecap:square;stroke-linejoin:miter;"/>
   </g>
   <g id="patch_4">
    <path d="M 45.117 228.96 
L 491.517 228.96 
" style="fill:none;stroke:#000000;stroke-linecap:square;stroke-linejoin:miter;"/>
   </g>
   <g id="PathCollection_1">
    <path clip-path="url(#p2c841aac14)" d="M 66.082026 54.544379 
C 66.552086 54.544379 67.002957 54.357622 67.33534 54.025239 
C 67.667723 53.692856 67.85448 53.241985 67.85448 52.771925 
C 67.85448 52.301865 67.667723 51.850994 67.33534 51.518611 
C 67.002957 51.186228 66.552086 50.999471 66.082026 50.999471 
C 65.611965 50.999471 65.161094 51.186228 64.828712 51.518611 
C 64.496329 51.850994 64.309572 52.301865 64.309572 52.771925 
C 64.309572 53.241985 64.496329 53.692856 64.828712 54.025239 
C 65.161094 54.357622 65.611965 54.544379 66.082026 54.544379 
z
" style="fill:#ee7733;stroke:#ee7733;stroke-width:0.886227;"/>
    <path clip-path="url(#p2c841aac14)" d="M 79.564357 55.994921 
C 80.034418 55.994921 80.485289 55.808164 80.817671 55.475782 
C 81.150054 55.143399 81.336811 54.692528 81.336811 54.222467 
C 81.336811 53.752407 81.150054 53.301536 80.817671 52.969153 
C 80.485289 52.636771 80.034418 52.450014 79.564357 52.450014 
C 79.094297 52.450014 78.643426 52.636771 78.311043 52.969153 
C 77.97866 53.301536 77.791903 53.752407 77.791903 54.222467 
C 77.791903 54.692528 77.97866 55.143399 78.311043 55.475782 
C 78.643426 55.808164 79.094297 55.994921 79.564357 55.994921 
z
" style="fill:#ee7733;stroke:#ee7733;stroke-width:0.886227;"/>
    <path clip-path="url(#p2c841aac14)" d="M 93.046689 62.739066 
C 93.516749 62.739066 93.96762 62.552309 94.300003 62.219926 
C 94.632386 61.887544 94.819143 61.436673 94.819143 60.966612 
C 94.819143 60.496552 94.632386 60.045681 94.300003 59.713298 
C 93.96762 59.380915 93.516749 59.194158 93.046689 59.194158 
C 92.576629 59.194158 92.125758 59.380915 91.793375 59.713298 
C 91.460992 60.045681 91.274235 60.496552 91.274235 60.966612 
C 91.274235 61.436673 91.460992 61.887544 91.793375 62.219926 
C 92.125758 62.552309 92.576629 62.739066 93.046689 62.739066 
z
" style="fill:#ee7733;stroke:#ee7733;stroke-width:0.886227;"/>
    <path clip-path="url(#p2c841aac14)" d="M 106.529021 63.267917 
C 106.999081 63.267917 107.449952 63.08116 107.782335 62.748777 
C 108.114717 62.416394 108.301474 61.965523 108.301474 61.495463 
C 108.301474 61.025403 108.114717 60.574532 107.782335 60.242149 
C 107.449952 59.909766 106.999081 59.723009 106.529021 59.723009 
C 106.05896 59.723009 105.608089 59.909766 105.275706 60.242149 
C 104.943324 60.574532 104.756567 61.025403 104.756567 61.495463 
C 104.756567 61.965523 104.943324 62.416394 105.275706 62.748777 
C 105.608089 63.08116 106.05896 63.267917 106.529021 63.267917 
z
" style="fill:#ee7733;stroke:#ee7733;stroke-width:0.886227;"/>
    <path clip-path="url(#p2c841aac14)" d="M 120.011352 71.704694 
C 120.481412 71.704694 120.932284 71.517937 121.264666 71.185554 
C 121.597049 70.853171 121.783806 70.4023 121.783806 69.93224 
C 121.783806 69.46218 121.597049 69.011309 121.264666 68.678926 
C 120.932284 68.346543 120.481412 68.159786 120.011352 68.159786 
C 119.541292 68.159786 119.090421 68.346543 118.758038 68.678926 
C 118.425655 69.011309 118.238898 69.46218 118.238898 69.93224 
C 118.238898 70.4023 118.425655 70.853171 118.758038 71.185554 
C 119.090421 71.517937 119.541292 71.704694 120.011352 71.704694 
z
" style="fill:#ee7733;stroke:#ee7733;stroke-width:0.886227;"/>
    <path clip-path="url(#p2c841aac14)" d="M 133.493684 78.842743 
C 133.963744 78.842743 134.414615 78.655986 134.746998 78.323603 
C 135.079381 77.991221 135.266138 77.54035 135.266138 77.070289 
C 135.266138 76.600229 135.079381 76.149358 134.746998 75.816975 
C 134.414615 75.484592 133.963744 75.297836 133.493684 75.297836 
C 133.023624 75.297836 132.572752 75.484592 132.24037 75.816975 
C 131.907987 76.149358 131.72123 76.600229 131.72123 77.070289 
C 131.72123 77.54035 131.907987 77.991221 132.24037 78.323603 
C 132.572752 78.655986 133.023624 78.842743 133.493684 78.842743 
z
" style="fill:#ee7733;stroke:#ee7733;stroke-width:0.886227;"/>
    <path clip-path="url(#p2c841aac14)" d="M 146.976015 83.786262 
C 147.446076 83.786262 147.896947 83.599505 148.22933 83.267122 
C 148.561712 82.934739 148.748469 82.483868 148.748469 82.013808 
C 148.748469 81.543747 148.561712 81.092876 148.22933 80.760494 
C 147.896947 80.428111 147.446076 80.241354 146.976015 80.241354 
C 146.505955 80.241354 146.055084 80.428111 145.722701 80.760494 
C 145.390318 81.092876 145.203562 81.543747 145.203562 82.013808 
C 145.203562 82.483868 145.390318 82.934739 145.722701 83.267122 
C 146.055084 83.599505 146.505955 83.786262 146.976015 83.786262 
z
" style="fill:#ee7733;stroke:#ee7733;stroke-width:0.886227;"/>
    <path clip-path="url(#p2c841aac14)" d="M 160.458347 92.340648 
C 160.928407 92.340648 161.379278 92.153891 161.711661 91.821508 
C 162.044044 91.489125 162.230801 91.038254 162.230801 90.568194 
C 162.230801 90.098134 162.044044 89.647263 161.711661 89.31488 
C 161.379278 88.982497 160.928407 88.79574 160.458347 88.79574 
C 159.988287 88.79574 159.537416 88.982497 159.205033 89.31488 
C 158.87265 89.647263 158.685893 90.098134 158.685893 90.568194 
C 158.685893 91.038254 158.87265 91.489125 159.205033 91.821508 
C 159.537416 92.153891 159.988287 92.340648 160.458347 92.340648 
z
" style="fill:#ee7733;stroke:#ee7733;stroke-width:0.886227;"/>
    <path clip-path="url(#p2c841aac14)" d="M 173.940679 95.633968 
C 174.410739 95.633968 174.86161 95.447211 175.193993 95.114829 
C 175.526376 94.782446 175.713132 94.331575 175.713132 93.861515 
C 175.713132 93.391454 175.526376 92.940583 175.193993 92.6082 
C 174.86161 92.275818 174.410739 92.089061 173.940679 92.089061 
C 173.470618 92.089061 173.019747 92.275818 172.687365 92.6082 
C 172.354982 92.940583 172.168225 93.391454 172.168225 93.861515 
C 172.168225 94.331575 172.354982 94.782446 172.687365 95.114829 
C 173.019747 95.447211 173.470618 95.633968 173.940679 95.633968 
z
" style="fill:#ee7733;stroke:#ee7733;stroke-width:0.886227;"/>
    <path clip-path="url(#p2c841aac14)" d="M 187.42301 107.591656 
C 187.893071 107.591656 188.343942 107.404899 188.676324 107.072516 
C 189.008707 106.740133 189.195464 106.289262 189.195464 105.819202 
C 189.195464 105.349142 189.008707 104.898271 188.676324 104.565888 
C 188.343942 104.233505 187.893071 104.046748 187.42301 104.046748 
C 186.95295 104.046748 186.502079 104.233505 186.169696 104.565888 
C 185.837313 104.898271 185.650556 105.349142 185.650556 105.819202 
C 185.650556 106.289262 185.837313 106.740133 186.169696 107.072516 
C 186.502079 107.404899 186.95295 107.591656 187.42301 107.591656 
z
" style="fill:#ee7733;stroke:#ee7733;stroke-width:0.886227;"/>
    <path clip-path="url(#p2c841aac14)" d="M 200.905342 117.104673 
C 201.375402 117.104673 201.826273 116.917916 202.158656 116.585533 
C 202.491039 116.253151 202.677796 115.802279 202.677796 115.332219 
C 202.677796 114.862159 202.491039 114.411288 202.158656 114.078905 
C 201.826273 113.746522 201.375402 113.559765 200.905342 113.559765 
C 200.435282 113.559765 199.984411 113.746522 199.652028 114.078905 
C 199.319645 114.411288 199.132888 114.862159 199.132888 115.332219 
C 199.132888 115.802279 199.319645 116.253151 199.652028 116.585533 
C 199.984411 116.917916 200.435282 117.104673 200.905342 117.104673 
z
" style="fill:#ee7733;stroke:#ee7733;stroke-width:0.886227;"/>
    <path clip-path="url(#p2c841aac14)" d="M 214.387674 124.418252 
C 214.857734 124.418252 215.308605 124.231495 215.640988 123.899112 
C 215.97337 123.566729 216.160127 123.115858 216.160127 122.645798 
C 216.160127 122.175738 215.97337 121.724867 215.640988 121.392484 
C 215.308605 121.060101 214.857734 120.873344 214.387674 120.873344 
C 213.917613 120.873344 213.466742 121.060101 213.134359 121.392484 
C 212.801977 121.724867 212.61522 122.175738 212.61522 122.645798 
C 212.61522 123.115858 212.801977 123.566729 213.134359 123.899112 
C 213.466742 124.231495 213.917613 124.418252 214.387674 124.418252 
z
" style="fill:#ee7733;stroke:#ee7733;stroke-width:0.886227;"/>
    <path clip-path="url(#p2c841aac14)" d="M 227.870005 130.384695 
C 228.340065 130.384695 228.790936 130.197938 229.123319 129.865555 
C 229.455702 129.533172 229.642459 129.082301 229.642459 128.612241 
C 229.642459 128.14218 229.455702 127.691309 229.123319 127.358927 
C 228.790936 127.026544 228.340065 126.839787 227.870005 126.839787 
C 227.399945 126.839787 226.949074 127.026544 226.616691 127.358927 
C 226.284308 127.691309 226.097551 128.14218 226.097551 128.612241 
C 226.097551 129.082301 226.284308 129.533172 226.616691 129.865555 
C 226.949074 130.197938 227.399945 130.384695 227.870005 130.384695 
z
" style="fill:#ee7733;stroke:#ee7733;stroke-width:0.886227;"/>
    <path clip-path="url(#p2c841aac14)" d="M 241.352337 141.782558 
C 241.822397 141.782558 242.273268 141.595801 242.605651 141.263419 
C 242.938034 140.931036 243.124791 140.480165 243.124791 140.010104 
C 243.124791 139.540044 242.938034 139.089173 242.605651 138.75679 
C 242.273268 138.424408 241.822397 138.237651 241.352337 138.237651 
C 240.882277 138.237651 240.431405 138.424408 240.099023 138.75679 
C 239.76664 139.089173 239.579883 139.540044 239.579883 140.010104 
C 239.579883 140.480165 239.76664 140.931036 240.099023 141.263419 
C 240.431405 141.595801 240.882277 141.782558 241.352337 141.782558 
z
" style="fill:#ee7733;stroke:#ee7733;stroke-width:0.886227;"/>
    <path clip-path="url(#p2c841aac14)" d="M 254.834668 142.310044 
C 255.304729 142.310044 255.7556 142.123287 256.087983 141.790905 
C 256.420365 141.458522 256.607122 141.007651 256.607122 140.53759 
C 256.607122 140.06753 256.420365 139.616659 256.087983 139.284276 
C 255.7556 138.951893 255.304729 138.765137 254.834668 138.765137 
C 254.364608 138.765137 253.913737 138.951893 253.581354 139.284276 
C 253.248971 139.616659 253.062215 140.06753 253.062215 140.53759 
C 253.062215 141.007651 253.248971 141.458522 253.581354 141.790905 
C 253.913737 142.123287 254.364608 142.310044 254.834668 142.310044 
z
" style="fill:#ee7733;stroke:#ee7733;stroke-width:0.886227;"/>
    <path clip-path="url(#p2c841aac14)" d="M 268.317 151.540206 
C 268.78706 151.540206 269.237931 151.353449 269.570314 151.021066 
C 269.902697 150.688684 270.089454 150.237813 270.089454 149.767752 
C 270.089454 149.297692 269.902697 148.846821 269.570314 148.514438 
C 269.237931 148.182055 268.78706 147.995299 268.317 147.995299 
C 267.84694 147.995299 267.396069 148.182055 267.063686 148.514438 
C 266.731303 148.846821 266.544546 149.297692 266.544546 149.767752 
C 266.544546 150.237813 266.731303 150.688684 267.063686 151.021066 
C 267.396069 151.353449 267.84694 151.540206 268.317 151.540206 
z
" style="fill:#ee7733;stroke:#ee7733;stroke-width:0.886227;"/>
    <path clip-path="url(#p2c841aac14)" d="M 281.799332 149.671533 
C 282.269392 149.671533 282.720263 149.484776 283.052646 149.152394 
C 283.385029 148.820011 283.571785 148.36914 283.571785 147.899079 
C 283.571785 147.429019 283.385029 146.978148 283.052646 146.645765 
C 282.720263 146.313383 282.269392 146.126626 281.799332 146.126626 
C 281.329271 146.126626 280.8784 146.313383 280.546017 146.645765 
C 280.213635 146.978148 280.026878 147.429019 280.026878 147.899079 
C 280.026878 148.36914 280.213635 148.820011 280.546017 149.152394 
C 280.8784 149.484776 281.329271 149.671533 281.799332 149.671533 
z
" style="fill:#ee7733;stroke:#ee7733;stroke-width:0.886227;"/>
    <path clip-path="url(#p2c841aac14)" d="M 295.281663 156.031949 
C 295.751723 156.031949 296.202595 155.845192 296.534977 155.512809 
C 296.86736 155.180426 297.054117 154.729555 297.054117 154.259495 
C 297.054117 153.789435 296.86736 153.338564 296.534977 153.006181 
C 296.202595 152.673798 295.751723 152.487041 295.281663 152.487041 
C 294.811603 152.487041 294.360732 152.673798 294.028349 153.006181 
C 293.695966 153.338564 293.509209 153.789435 293.509209 154.259495 
C 293.509209 154.729555 293.695966 155.180426 294.028349 155.512809 
C 294.360732 155.845192 294.811603 156.031949 295.281663 156.031949 
z
" style="fill:#ee7733;stroke:#ee7733;stroke-width:0.886227;"/>
    <path clip-path="url(#p2c841aac14)" d="M 308.763995 158.06236 
C 309.234055 158.06236 309.684926 157.875603 310.017309 157.54322 
C 310.349692 157.210838 310.536449 156.759967 310.536449 156.289906 
C 310.536449 155.819846 310.349692 155.368975 310.017309 155.036592 
C 309.684926 154.704209 309.234055 154.517452 308.763995 154.517452 
C 308.293935 154.517452 307.843064 154.704209 307.510681 155.036592 
C 307.178298 155.368975 306.991541 155.819846 306.991541 156.289906 
C 306.991541 156.759967 307.178298 157.210838 307.510681 157.54322 
C 307.843064 157.875603 308.293935 158.06236 308.763995 158.06236 
z
" style="fill:#ee7733;stroke:#ee7733;stroke-width:0.886227;"/>
    <path clip-path="url(#p2c841aac14)" d="M 322.246326 162.646781 
C 322.716387 162.646781 323.167258 162.460024 323.499641 162.127641 
C 323.832023 161.795259 324.01878 161.344388 324.01878 160.874327 
C 324.01878 160.404267 323.832023 159.953396 323.499641 159.621013 
C 323.167258 159.28863 322.716387 159.101873 322.246326 159.101873 
C 321.776266 159.101873 321.325395 159.28863 320.993012 159.621013 
C 320.66063 159.953396 320.473873 160.404267 320.473873 160.874327 
C 320.473873 161.344388 320.66063 161.795259 320.993012 162.127641 
C 321.325395 162.460024 321.776266 162.646781 322.246326 162.646781 
z
" style="fill:#ee7733;stroke:#ee7733;stroke-width:0.886227;"/>
    <path clip-path="url(#p2c841aac14)" d="M 335.728658 156.806385 
C 336.198718 156.806385 336.649589 156.619628 336.981972 156.287245 
C 337.314355 155.954862 337.501112 155.503991 337.501112 155.033931 
C 337.501112 154.563871 337.314355 154.113 336.981972 153.780617 
C 336.649589 153.448234 336.198718 153.261477 335.728658 153.261477 
C 335.258598 153.261477 334.807727 153.448234 334.475344 153.780617 
C 334.142961 154.113 333.956204 154.563871 333.956204 155.033931 
C 333.956204 155.503991 334.142961 155.954862 334.475344 156.287245 
C 334.807727 156.619628 335.258598 156.806385 335.728658 156.806385 
z
" style="fill:#ee7733;stroke:#ee7733;stroke-width:0.886227;"/>
    <path clip-path="url(#p2c841aac14)" d="M 349.21099 155.598942 
C 349.68105 155.598942 350.131921 155.412185 350.464304 155.079802 
C 350.796687 154.747419 350.983444 154.296548 350.983444 153.826488 
C 350.983444 153.356428 350.796687 152.905557 350.464304 152.573174 
C 350.131921 152.240791 349.68105 152.054034 349.21099 152.054034 
C 348.740929 152.054034 348.290058 152.240791 347.957676 152.573174 
C 347.625293 152.905557 347.438536 153.356428 347.438536 153.826488 
C 347.438536 154.296548 347.625293 154.747419 347.957676 155.079802 
C 348.290058 155.412185 348.740929 155.598942 349.21099 155.598942 
z
" style="fill:#ee7733;stroke:#ee7733;stroke-width:0.886227;"/>
    <path clip-path="url(#p2c841aac14)" d="M 362.693321 162.223098 
C 363.163382 162.223098 363.614253 162.036341 363.946635 161.703958 
C 364.279018 161.371576 364.465775 160.920705 364.465775 160.450644 
C 364.465775 159.980584 364.279018 159.529713 363.946635 159.19733 
C 363.614253 158.864947 363.163382 158.67819 362.693321 158.67819 
C 362.223261 158.67819 361.77239 158.864947 361.440007 159.19733 
C 361.107624 159.529713 360.920868 159.980584 360.920868 160.450644 
C 360.920868 160.920705 361.107624 161.371576 361.440007 161.703958 
C 361.77239 162.036341 362.223261 162.223098 362.693321 162.223098 
z
" style="fill:#ee7733;stroke:#ee7733;stroke-width:0.886227;"/>
    <path clip-path="url(#p2c841aac14)" d="M 376.175653 167.77173 
C 376.645713 167.77173 377.096584 167.584974 377.428967 167.252591 
C 377.76135 166.920208 377.948107 166.469337 377.948107 165.999277 
C 377.948107 165.529216 377.76135 165.078345 377.428967 164.745963 
C 377.096584 164.41358 376.645713 164.226823 376.175653 164.226823 
C 375.705593 164.226823 375.254722 164.41358 374.922339 164.745963 
C 374.589956 165.078345 374.403199 165.529216 374.403199 165.999277 
C 374.403199 166.469337 374.589956 166.920208 374.922339 167.252591 
C 375.254722 167.584974 375.705593 167.77173 376.175653 167.77173 
z
" style="fill:#ee7733;stroke:#ee7733;stroke-width:0.886227;"/>
    <path clip-path="url(#p2c841aac14)" d="M 389.657985 176.398811 
C 390.128045 176.398811 390.578916 176.212054 390.911299 175.879671 
C 391.243682 175.547288 391.430438 175.096417 391.430438 174.626357 
C 391.430438 174.156297 391.243682 173.705426 390.911299 173.373043 
C 390.578916 173.04066 390.128045 172.853903 389.657985 172.853903 
C 389.187924 172.853903 388.737053 173.04066 388.40467 173.373043 
C 388.072288 173.705426 387.885531 174.156297 387.885531 174.626357 
C 387.885531 175.096417 388.072288 175.547288 388.40467 175.879671 
C 388.737053 176.212054 389.187924 176.398811 389.657985 176.398811 
z
" style="fill:#ee7733;stroke:#ee7733;stroke-width:0.886227;"/>
    <path clip-path="url(#p2c841aac14)" d="M 403.140316 171.206421 
C 403.610376 171.206421 404.061248 171.019664 404.39363 170.687282 
C 404.726013 170.354899 404.91277 169.904028 404.91277 169.433967 
C 404.91277 168.963907 404.726013 168.513036 404.39363 168.180653 
C 404.061248 167.848271 403.610376 167.661514 403.140316 167.661514 
C 402.670256 167.661514 402.219385 167.848271 401.887002 168.180653 
C 401.554619 168.513036 401.367862 168.963907 401.367862 169.433967 
C 401.367862 169.904028 401.554619 170.354899 401.887002 170.687282 
C 402.219385 171.019664 402.670256 171.206421 403.140316 171.206421 
z
" style="fill:#ee7733;stroke:#ee7733;stroke-width:0.886227;"/>
    <path clip-path="url(#p2c841aac14)" d="M 416.622648 168.469669 
C 417.092708 168.469669 417.543579 168.282912 417.875962 167.950529 
C 418.208345 167.618146 418.395102 167.167275 418.395102 166.697215 
C 418.395102 166.227155 418.208345 165.776284 417.875962 165.443901 
C 417.543579 165.111518 417.092708 164.924761 416.622648 164.924761 
C 416.152588 164.924761 415.701716 165.111518 415.369334 165.443901 
C 415.036951 165.776284 414.850194 166.227155 414.850194 166.697215 
C 414.850194 167.167275 415.036951 167.618146 415.369334 167.950529 
C 415.701716 168.282912 416.152588 168.469669 416.622648 168.469669 
z
" style="fill:#ee7733;stroke:#ee7733;stroke-width:0.886227;"/>
    <path clip-path="url(#p2c841aac14)" d="M 430.104979 174.595514 
C 430.57504 174.595514 431.025911 174.408757 431.358294 174.076374 
C 431.690676 173.743992 431.877433 173.29312 431.877433 172.82306 
C 431.877433 172.353 431.690676 171.902129 431.358294 171.569746 
C 431.025911 171.237363 430.57504 171.050606 430.104979 171.050606 
C 429.634919 171.050606 429.184048 171.237363 428.851665 171.569746 
C 428.519283 171.902129 428.332526 172.353 428.332526 172.82306 
C 428.332526 173.29312 428.519283 173.743992 428.851665 174.076374 
C 429.184048 174.408757 429.634919 174.595514 430.104979 174.595514 
z
" style="fill:#ee7733;stroke:#ee7733;stroke-width:0.886227;"/>
    <path clip-path="url(#p2c841aac14)" d="M 443.587311 176.416564 
C 444.057371 176.416564 444.508242 176.229807 444.840625 175.897425 
C 445.173008 175.565042 445.359765 175.114171 445.359765 174.64411 
C 445.359765 174.17405 445.173008 173.723179 444.840625 173.390796 
C 444.508242 173.058414 444.057371 172.871657 443.587311 172.871657 
C 443.117251 172.871657 442.66638 173.058414 442.333997 173.390796 
C 442.001614 173.723179 441.814857 174.17405 441.814857 174.64411 
C 441.814857 175.114171 442.001614 175.565042 442.333997 175.897425 
C 442.66638 176.229807 443.117251 176.416564 443.587311 176.416564 
z
" style="fill:#ee7733;stroke:#ee7733;stroke-width:0.886227;"/>
    <path clip-path="url(#p2c841aac14)" d="M 457.069643 181.603273 
C 457.539703 181.603273 457.990574 181.416516 458.322957 181.084134 
C 458.65534 180.751751 458.842097 180.30088 458.842097 179.830819 
C 458.842097 179.360759 458.65534 178.909888 458.322957 178.577505 
C 457.990574 178.245122 457.539703 178.058366 457.069643 178.058366 
C 456.599582 178.058366 456.148711 178.245122 455.816329 178.577505 
C 455.483946 178.909888 455.297189 179.360759 455.297189 179.830819 
C 455.297189 180.30088 455.483946 180.751751 455.816329 181.084134 
C 456.148711 181.416516 456.599582 181.603273 457.069643 181.603273 
z
" style="fill:#ee7733;stroke:#ee7733;stroke-width:0.886227;"/>
    <path clip-path="url(#p2c841aac14)" d="M 470.551974 175.564625 
C 471.022035 175.564625 471.472906 175.377868 471.805288 175.045485 
C 472.137671 174.713103 472.324428 174.262232 472.324428 173.792171 
C 472.324428 173.322111 472.137671 172.87124 471.805288 172.538857 
C 471.472906 172.206474 471.022035 172.019717 470.551974 172.019717 
C 470.081914 172.019717 469.631043 172.206474 469.29866 172.538857 
C 468.966277 172.87124 468.77952 173.322111 468.77952 173.792171 
C 468.77952 174.262232 468.966277 174.713103 469.29866 175.045485 
C 469.631043 175.377868 470.081914 175.564625 470.551974 175.564625 
z
" style="fill:#ee7733;stroke:#ee7733;stroke-width:0.886227;"/>
   </g>
  </g>
 </g>
 <defs>
  <clipPath id="p2c841aac14">
   <rect height="221.76" width="446.4" x="45.117" y="7.2"/>
  </clipPath>
 </defs>
</svg>
