<?xml version="1.0" encoding="utf-8" standalone="no"?>
<!DOCTYPE svg PUBLIC "-//W3C//DTD SVG 1.1//EN"
  "http://www.w3.org/Graphics/SVG/1.1/DTD/svg11.dtd">
<!-- Created with matplotlib (https://matplotlib.org/) -->
<svg height="264.672687pt" version="1.1" viewBox="0 0 498.717 264.672687" width="498.717pt" xmlns="http://www.w3.org/2000/svg" xmlns:xlink="http://www.w3.org/1999/xlink">
 <defs>
  <style type="text/css">
*{stroke-linecap:butt;stroke-linejoin:round;}
  </style>
 </defs>
 <g id="figure_1">
  <g id="patch_1">
   <path d="M 0 264.672687 
L 498.717 264.672687 
L 498.717 0 
L 0 0 
z
" style="fill:#ffffff;stroke:#ffffff;stroke-linejoin:miter;"/>
  </g>
  <g id="axes_1">
   <g id="patch_2">
    <path d="M 45.117 228.96 
L 491.517 228.96 
L 491.517 7.2 
L 45.117 7.2 
z
" style="fill:#ffffff;stroke:#7f7f7f;stroke-linejoin:miter;"/>
   </g>
   <g id="matplotlib.axis_1">
    <g id="xtick_1">
     <g id="line2d_1">
      <path clip-path="url(#p2cd0ad6616)" d="M 65.407909 228.96 
L 65.407909 7.2 
" style="fill:none;stroke:#e5e5e5;stroke-width:0.8;"/>
     </g>
     <g id="line2d_2">
      <path d="M 65.407909 228.96 
" style="fill:none;stroke:#000000;stroke-width:1.5;"/>
      <defs>
       <path d="M 0 0 
L 0 2.75 
" id="m389041ee7e" style="stroke:#000000;"/>
      </defs>
      <g>
       <use style="stroke:#000000;" x="65.407909" xlink:href="#m389041ee7e" y="228.96"/>
      </g>
     </g>
     <g id="text_1">
      <!-- 1 -->
      <defs>
       <path d="M 12.40625 8.296875 
L 28.515625 8.296875 
L 28.515625 63.921875 
L 10.984375 60.40625 
L 10.984375 69.390625 
L 28.421875 72.90625 
L 38.28125 72.90625 
L 38.28125 8.296875 
L 54.390625 8.296875 
L 54.390625 0 
L 12.40625 0 
z
" id="DejaVuSans-49"/>
      </defs>
      <g transform="translate(62.608409 240.596625)scale(0.088 -0.088)">
       <use xlink:href="#DejaVuSans-49"/>
      </g>
     </g>
    </g>
    <g id="xtick_2">
     <g id="line2d_3">
      <path clip-path="url(#p2cd0ad6616)" d="M 200.680636 228.96 
L 200.680636 7.2 
" style="fill:none;stroke:#e5e5e5;stroke-width:0.8;"/>
     </g>
     <g id="line2d_4">
      <path d="M 200.680636 228.96 
" style="fill:none;stroke:#000000;stroke-width:1.5;"/>
      <g>
       <use style="stroke:#000000;" x="200.680636" xlink:href="#m389041ee7e" y="228.96"/>
      </g>
     </g>
     <g id="text_2">
      <!-- 2 -->
      <defs>
       <path d="M 19.1875 8.296875 
L 53.609375 8.296875 
L 53.609375 0 
L 7.328125 0 
L 7.328125 8.296875 
Q 12.9375 14.109375 22.625 23.890625 
Q 32.328125 33.6875 34.8125 36.53125 
Q 39.546875 41.84375 41.421875 45.53125 
Q 43.3125 49.21875 43.3125 52.78125 
Q 43.3125 58.59375 39.234375 62.25 
Q 35.15625 65.921875 28.609375 65.921875 
Q 23.96875 65.921875 18.8125 64.3125 
Q 13.671875 62.703125 7.8125 59.421875 
L 7.8125 69.390625 
Q 13.765625 71.78125 18.9375 73 
Q 24.125 74.21875 28.421875 74.21875 
Q 39.75 74.21875 46.484375 68.546875 
Q 53.21875 62.890625 53.21875 53.421875 
Q 53.21875 48.921875 51.53125 44.890625 
Q 49.859375 40.875 45.40625 35.40625 
Q 44.1875 33.984375 37.640625 27.21875 
Q 31.109375 20.453125 19.1875 8.296875 
z
" id="DejaVuSans-50"/>
      </defs>
      <g transform="translate(197.881136 240.596625)scale(0.088 -0.088)">
       <use xlink:href="#DejaVuSans-50"/>
      </g>
     </g>
    </g>
    <g id="xtick_3">
     <g id="line2d_5">
      <path clip-path="url(#p2cd0ad6616)" d="M 335.953364 228.96 
L 335.953364 7.2 
" style="fill:none;stroke:#e5e5e5;stroke-width:0.8;"/>
     </g>
     <g id="line2d_6">
      <path d="M 335.953364 228.96 
" style="fill:none;stroke:#000000;stroke-width:1.5;"/>
      <g>
       <use style="stroke:#000000;" x="335.953364" xlink:href="#m389041ee7e" y="228.96"/>
      </g>
     </g>
     <g id="text_3">
      <!-- 3 -->
      <defs>
       <path d="M 40.578125 39.3125 
Q 47.65625 37.796875 51.625 33 
Q 55.609375 28.21875 55.609375 21.1875 
Q 55.609375 10.40625 48.1875 4.484375 
Q 40.765625 -1.421875 27.09375 -1.421875 
Q 22.515625 -1.421875 17.65625 -0.515625 
Q 12.796875 0.390625 7.625 2.203125 
L 7.625 11.71875 
Q 11.71875 9.328125 16.59375 8.109375 
Q 21.484375 6.890625 26.8125 6.890625 
Q 36.078125 6.890625 40.9375 10.546875 
Q 45.796875 14.203125 45.796875 21.1875 
Q 45.796875 27.640625 41.28125 31.265625 
Q 36.765625 34.90625 28.71875 34.90625 
L 20.21875 34.90625 
L 20.21875 43.015625 
L 29.109375 43.015625 
Q 36.375 43.015625 40.234375 45.921875 
Q 44.09375 48.828125 44.09375 54.296875 
Q 44.09375 59.90625 40.109375 62.90625 
Q 36.140625 65.921875 28.71875 65.921875 
Q 24.65625 65.921875 20.015625 65.03125 
Q 15.375 64.15625 9.8125 62.3125 
L 9.8125 71.09375 
Q 15.4375 72.65625 20.34375 73.4375 
Q 25.25 74.21875 29.59375 74.21875 
Q 40.828125 74.21875 47.359375 69.109375 
Q 53.90625 64.015625 53.90625 55.328125 
Q 53.90625 49.265625 50.4375 45.09375 
Q 46.96875 40.921875 40.578125 39.3125 
z
" id="DejaVuSans-51"/>
      </defs>
      <g transform="translate(333.153864 240.596625)scale(0.088 -0.088)">
       <use xlink:href="#DejaVuSans-51"/>
      </g>
     </g>
    </g>
    <g id="xtick_4">
     <g id="line2d_7">
      <path clip-path="url(#p2cd0ad6616)" d="M 471.226091 228.96 
L 471.226091 7.2 
" style="fill:none;stroke:#e5e5e5;stroke-width:0.8;"/>
     </g>
     <g id="line2d_8">
      <path d="M 471.226091 228.96 
" style="fill:none;stroke:#000000;stroke-width:1.5;"/>
      <g>
       <use style="stroke:#000000;" x="471.226091" xlink:href="#m389041ee7e" y="228.96"/>
      </g>
     </g>
     <g id="text_4">
      <!-- 4 -->
      <defs>
       <path d="M 37.796875 64.3125 
L 12.890625 25.390625 
L 37.796875 25.390625 
z
M 35.203125 72.90625 
L 47.609375 72.90625 
L 47.609375 25.390625 
L 58.015625 25.390625 
L 58.015625 17.1875 
L 47.609375 17.1875 
L 47.609375 0 
L 37.796875 0 
L 37.796875 17.1875 
L 4.890625 17.1875 
L 4.890625 26.703125 
z
" id="DejaVuSans-52"/>
      </defs>
      <g transform="translate(468.426591 240.596625)scale(0.088 -0.088)">
       <use xlink:href="#DejaVuSans-52"/>
      </g>
     </g>
    </g>
    <g id="xtick_5">
     <g id="line2d_9">
      <path clip-path="url(#p2cd0ad6616)" d="M 133.044273 228.96 
L 133.044273 7.2 
" style="fill:none;stroke:#fafafa;"/>
     </g>
     <g id="line2d_10">
      <path d="M 133.044273 228.96 
" style="fill:none;stroke:#000000;stroke-width:1.5;"/>
      <defs>
       <path d="M 0 0 
L 0 1.375 
" id="m48b16374d4" style="stroke:#000000;"/>
      </defs>
      <g>
       <use style="stroke:#000000;" x="133.044273" xlink:href="#m48b16374d4" y="228.96"/>
      </g>
     </g>
    </g>
    <g id="xtick_6">
     <g id="line2d_11">
      <path clip-path="url(#p2cd0ad6616)" d="M 268.317 228.96 
L 268.317 7.2 
" style="fill:none;stroke:#fafafa;"/>
     </g>
     <g id="line2d_12">
      <path d="M 268.317 228.96 
" style="fill:none;stroke:#000000;stroke-width:1.5;"/>
      <g>
       <use style="stroke:#000000;" x="268.317" xlink:href="#m48b16374d4" y="228.96"/>
      </g>
     </g>
    </g>
    <g id="xtick_7">
     <g id="line2d_13">
      <path clip-path="url(#p2cd0ad6616)" d="M 403.589727 228.96 
L 403.589727 7.2 
" style="fill:none;stroke:#fafafa;"/>
     </g>
     <g id="line2d_14">
      <path d="M 403.589727 228.96 
" style="fill:none;stroke:#000000;stroke-width:1.5;"/>
      <g>
       <use style="stroke:#000000;" x="403.589727" xlink:href="#m48b16374d4" y="228.96"/>
      </g>
     </g>
    </g>
    <g id="text_5">
     <!-- Resolution -->
     <defs>
      <path d="M 44.390625 34.1875 
Q 47.5625 33.109375 50.5625 29.59375 
Q 53.5625 26.078125 56.59375 19.921875 
L 66.609375 0 
L 56 0 
L 46.6875 18.703125 
Q 43.0625 26.03125 39.671875 28.421875 
Q 36.28125 30.8125 30.421875 30.8125 
L 19.671875 30.8125 
L 19.671875 0 
L 9.8125 0 
L 9.8125 72.90625 
L 32.078125 72.90625 
Q 44.578125 72.90625 50.734375 67.671875 
Q 56.890625 62.453125 56.890625 51.90625 
Q 56.890625 45.015625 53.6875 40.46875 
Q 50.484375 35.9375 44.390625 34.1875 
z
M 19.671875 64.796875 
L 19.671875 38.921875 
L 32.078125 38.921875 
Q 39.203125 38.921875 42.84375 42.21875 
Q 46.484375 45.515625 46.484375 51.90625 
Q 46.484375 58.296875 42.84375 61.546875 
Q 39.203125 64.796875 32.078125 64.796875 
z
" id="DejaVuSans-82"/>
      <path d="M 56.203125 29.59375 
L 56.203125 25.203125 
L 14.890625 25.203125 
Q 15.484375 15.921875 20.484375 11.0625 
Q 25.484375 6.203125 34.421875 6.203125 
Q 39.59375 6.203125 44.453125 7.46875 
Q 49.3125 8.734375 54.109375 11.28125 
L 54.109375 2.78125 
Q 49.265625 0.734375 44.1875 -0.34375 
Q 39.109375 -1.421875 33.890625 -1.421875 
Q 20.796875 -1.421875 13.15625 6.1875 
Q 5.515625 13.8125 5.515625 26.8125 
Q 5.515625 40.234375 12.765625 48.109375 
Q 20.015625 56 32.328125 56 
Q 43.359375 56 49.78125 48.890625 
Q 56.203125 41.796875 56.203125 29.59375 
z
M 47.21875 32.234375 
Q 47.125 39.59375 43.09375 43.984375 
Q 39.0625 48.390625 32.421875 48.390625 
Q 24.90625 48.390625 20.390625 44.140625 
Q 15.875 39.890625 15.1875 32.171875 
z
" id="DejaVuSans-101"/>
      <path d="M 44.28125 53.078125 
L 44.28125 44.578125 
Q 40.484375 46.53125 36.375 47.5 
Q 32.28125 48.484375 27.875 48.484375 
Q 21.1875 48.484375 17.84375 46.4375 
Q 14.5 44.390625 14.5 40.28125 
Q 14.5 37.15625 16.890625 35.375 
Q 19.28125 33.59375 26.515625 31.984375 
L 29.59375 31.296875 
Q 39.15625 29.25 43.1875 25.515625 
Q 47.21875 21.78125 47.21875 15.09375 
Q 47.21875 7.46875 41.1875 3.015625 
Q 35.15625 -1.421875 24.609375 -1.421875 
Q 20.21875 -1.421875 15.453125 -0.5625 
Q 10.6875 0.296875 5.421875 2 
L 5.421875 11.28125 
Q 10.40625 8.6875 15.234375 7.390625 
Q 20.0625 6.109375 24.8125 6.109375 
Q 31.15625 6.109375 34.5625 8.28125 
Q 37.984375 10.453125 37.984375 14.40625 
Q 37.984375 18.0625 35.515625 20.015625 
Q 33.0625 21.96875 24.703125 23.78125 
L 21.578125 24.515625 
Q 13.234375 26.265625 9.515625 29.90625 
Q 5.8125 33.546875 5.8125 39.890625 
Q 5.8125 47.609375 11.28125 51.796875 
Q 16.75 56 26.8125 56 
Q 31.78125 56 36.171875 55.265625 
Q 40.578125 54.546875 44.28125 53.078125 
z
" id="DejaVuSans-115"/>
      <path d="M 30.609375 48.390625 
Q 23.390625 48.390625 19.1875 42.75 
Q 14.984375 37.109375 14.984375 27.296875 
Q 14.984375 17.484375 19.15625 11.84375 
Q 23.34375 6.203125 30.609375 6.203125 
Q 37.796875 6.203125 41.984375 11.859375 
Q 46.1875 17.53125 46.1875 27.296875 
Q 46.1875 37.015625 41.984375 42.703125 
Q 37.796875 48.390625 30.609375 48.390625 
z
M 30.609375 56 
Q 42.328125 56 49.015625 48.375 
Q 55.71875 40.765625 55.71875 27.296875 
Q 55.71875 13.875 49.015625 6.21875 
Q 42.328125 -1.421875 30.609375 -1.421875 
Q 18.84375 -1.421875 12.171875 6.21875 
Q 5.515625 13.875 5.515625 27.296875 
Q 5.515625 40.765625 12.171875 48.375 
Q 18.84375 56 30.609375 56 
z
" id="DejaVuSans-111"/>
      <path d="M 9.421875 75.984375 
L 18.40625 75.984375 
L 18.40625 0 
L 9.421875 0 
z
" id="DejaVuSans-108"/>
      <path d="M 8.5 21.578125 
L 8.5 54.6875 
L 17.484375 54.6875 
L 17.484375 21.921875 
Q 17.484375 14.15625 20.5 10.265625 
Q 23.53125 6.390625 29.59375 6.390625 
Q 36.859375 6.390625 41.078125 11.03125 
Q 45.3125 15.671875 45.3125 23.6875 
L 45.3125 54.6875 
L 54.296875 54.6875 
L 54.296875 0 
L 45.3125 0 
L 45.3125 8.40625 
Q 42.046875 3.421875 37.71875 1 
Q 33.40625 -1.421875 27.6875 -1.421875 
Q 18.265625 -1.421875 13.375 4.4375 
Q 8.5 10.296875 8.5 21.578125 
z
M 31.109375 56 
z
" id="DejaVuSans-117"/>
      <path d="M 18.3125 70.21875 
L 18.3125 54.6875 
L 36.8125 54.6875 
L 36.8125 47.703125 
L 18.3125 47.703125 
L 18.3125 18.015625 
Q 18.3125 11.328125 20.140625 9.421875 
Q 21.96875 7.515625 27.59375 7.515625 
L 36.8125 7.515625 
L 36.8125 0 
L 27.59375 0 
Q 17.1875 0 13.234375 3.875 
Q 9.28125 7.765625 9.28125 18.015625 
L 9.28125 47.703125 
L 2.6875 47.703125 
L 2.6875 54.6875 
L 9.28125 54.6875 
L 9.28125 70.21875 
z
" id="DejaVuSans-116"/>
      <path d="M 9.421875 54.6875 
L 18.40625 54.6875 
L 18.40625 0 
L 9.421875 0 
z
M 9.421875 75.984375 
L 18.40625 75.984375 
L 18.40625 64.59375 
L 9.421875 64.59375 
z
" id="DejaVuSans-105"/>
      <path d="M 54.890625 33.015625 
L 54.890625 0 
L 45.90625 0 
L 45.90625 32.71875 
Q 45.90625 40.484375 42.875 44.328125 
Q 39.84375 48.1875 33.796875 48.1875 
Q 26.515625 48.1875 22.3125 43.546875 
Q 18.109375 38.921875 18.109375 30.90625 
L 18.109375 0 
L 9.078125 0 
L 9.078125 54.6875 
L 18.109375 54.6875 
L 18.109375 46.1875 
Q 21.34375 51.125 25.703125 53.5625 
Q 30.078125 56 35.796875 56 
Q 45.21875 56 50.046875 50.171875 
Q 54.890625 44.34375 54.890625 33.015625 
z
" id="DejaVuSans-110"/>
     </defs>
     <g transform="translate(232.135438 255.185031)scale(0.11 -0.11)">
      <use xlink:href="#DejaVuSans-82"/>
      <use x="69.419922" xlink:href="#DejaVuSans-101"/>
      <use x="130.943359" xlink:href="#DejaVuSans-115"/>
      <use x="183.042969" xlink:href="#DejaVuSans-111"/>
      <use x="244.224609" xlink:href="#DejaVuSans-108"/>
      <use x="272.007812" xlink:href="#DejaVuSans-117"/>
      <use x="335.386719" xlink:href="#DejaVuSans-116"/>
      <use x="374.595703" xlink:href="#DejaVuSans-105"/>
      <use x="402.378906" xlink:href="#DejaVuSans-111"/>
      <use x="463.560547" xlink:href="#DejaVuSans-110"/>
     </g>
    </g>
   </g>
   <g id="matplotlib.axis_2">
    <g id="ytick_1">
     <g id="line2d_15">
      <path clip-path="url(#p2cd0ad6616)" d="M 45.117 218.88 
L 491.517 218.88 
" style="fill:none;stroke:#e5e5e5;stroke-width:0.8;"/>
     </g>
     <g id="line2d_16">
      <path d="M 45.117 218.88 
" style="fill:none;stroke:#000000;stroke-width:1.5;"/>
      <defs>
       <path d="M 0 0 
L -2.75 0 
" id="mb2e2ffa458" style="stroke:#000000;"/>
      </defs>
      <g>
       <use style="stroke:#000000;" x="45.117" xlink:href="#mb2e2ffa458" y="218.88"/>
      </g>
     </g>
     <g id="text_6">
      <!-- 0 -->
      <defs>
       <path d="M 31.78125 66.40625 
Q 24.171875 66.40625 20.328125 58.90625 
Q 16.5 51.421875 16.5 36.375 
Q 16.5 21.390625 20.328125 13.890625 
Q 24.171875 6.390625 31.78125 6.390625 
Q 39.453125 6.390625 43.28125 13.890625 
Q 47.125 21.390625 47.125 36.375 
Q 47.125 51.421875 43.28125 58.90625 
Q 39.453125 66.40625 31.78125 66.40625 
z
M 31.78125 74.21875 
Q 44.046875 74.21875 50.515625 64.515625 
Q 56.984375 54.828125 56.984375 36.375 
Q 56.984375 17.96875 50.515625 8.265625 
Q 44.046875 -1.421875 31.78125 -1.421875 
Q 19.53125 -1.421875 13.0625 8.265625 
Q 6.59375 17.96875 6.59375 36.375 
Q 6.59375 54.828125 13.0625 64.515625 
Q 19.53125 74.21875 31.78125 74.21875 
z
" id="DejaVuSans-48"/>
      </defs>
      <g transform="translate(34.568 221.30825)scale(0.088 -0.088)">
       <use xlink:href="#DejaVuSans-48"/>
      </g>
     </g>
    </g>
    <g id="ytick_2">
     <g id="line2d_17">
      <path clip-path="url(#p2cd0ad6616)" d="M 45.117 168.48 
L 491.517 168.48 
" style="fill:none;stroke:#e5e5e5;stroke-width:0.8;"/>
     </g>
     <g id="line2d_18">
      <path d="M 45.117 168.48 
" style="fill:none;stroke:#000000;stroke-width:1.5;"/>
      <g>
       <use style="stroke:#000000;" x="45.117" xlink:href="#mb2e2ffa458" y="168.48"/>
      </g>
     </g>
     <g id="text_7">
      <!-- 25 -->
      <defs>
       <path d="M 10.796875 72.90625 
L 49.515625 72.90625 
L 49.515625 64.59375 
L 19.828125 64.59375 
L 19.828125 46.734375 
Q 21.96875 47.46875 24.109375 47.828125 
Q 26.265625 48.1875 28.421875 48.1875 
Q 40.625 48.1875 47.75 41.5 
Q 54.890625 34.8125 54.890625 23.390625 
Q 54.890625 11.625 47.5625 5.09375 
Q 40.234375 -1.421875 26.90625 -1.421875 
Q 22.3125 -1.421875 17.546875 -0.640625 
Q 12.796875 0.140625 7.71875 1.703125 
L 7.71875 11.625 
Q 12.109375 9.234375 16.796875 8.0625 
Q 21.484375 6.890625 26.703125 6.890625 
Q 35.15625 6.890625 40.078125 11.328125 
Q 45.015625 15.765625 45.015625 23.390625 
Q 45.015625 31 40.078125 35.4375 
Q 35.15625 39.890625 26.703125 39.890625 
Q 22.75 39.890625 18.8125 39.015625 
Q 14.890625 38.140625 10.796875 36.28125 
z
" id="DejaVuSans-53"/>
      </defs>
      <g transform="translate(28.969 170.90825)scale(0.088 -0.088)">
       <use xlink:href="#DejaVuSans-50"/>
       <use x="63.623047" xlink:href="#DejaVuSans-53"/>
      </g>
     </g>
    </g>
    <g id="ytick_3">
     <g id="line2d_19">
      <path clip-path="url(#p2cd0ad6616)" d="M 45.117 118.08 
L 491.517 118.08 
" style="fill:none;stroke:#e5e5e5;stroke-width:0.8;"/>
     </g>
     <g id="line2d_20">
      <path d="M 45.117 118.08 
" style="fill:none;stroke:#000000;stroke-width:1.5;"/>
      <g>
       <use style="stroke:#000000;" x="45.117" xlink:href="#mb2e2ffa458" y="118.08"/>
      </g>
     </g>
     <g id="text_8">
      <!-- 50 -->
      <g transform="translate(28.969 120.50825)scale(0.088 -0.088)">
       <use xlink:href="#DejaVuSans-53"/>
       <use x="63.623047" xlink:href="#DejaVuSans-48"/>
      </g>
     </g>
    </g>
    <g id="ytick_4">
     <g id="line2d_21">
      <path clip-path="url(#p2cd0ad6616)" d="M 45.117 67.68 
L 491.517 67.68 
" style="fill:none;stroke:#e5e5e5;stroke-width:0.8;"/>
     </g>
     <g id="line2d_22">
      <path d="M 45.117 67.68 
" style="fill:none;stroke:#000000;stroke-width:1.5;"/>
      <g>
       <use style="stroke:#000000;" x="45.117" xlink:href="#mb2e2ffa458" y="67.68"/>
      </g>
     </g>
     <g id="text_9">
      <!-- 75 -->
      <defs>
       <path d="M 8.203125 72.90625 
L 55.078125 72.90625 
L 55.078125 68.703125 
L 28.609375 0 
L 18.3125 0 
L 43.21875 64.59375 
L 8.203125 64.59375 
z
" id="DejaVuSans-55"/>
      </defs>
      <g transform="translate(28.969 70.10825)scale(0.088 -0.088)">
       <use xlink:href="#DejaVuSans-55"/>
       <use x="63.623047" xlink:href="#DejaVuSans-53"/>
      </g>
     </g>
    </g>
    <g id="ytick_5">
     <g id="line2d_23">
      <path clip-path="url(#p2cd0ad6616)" d="M 45.117 17.28 
L 491.517 17.28 
" style="fill:none;stroke:#e5e5e5;stroke-width:0.8;"/>
     </g>
     <g id="line2d_24">
      <path d="M 45.117 17.28 
" style="fill:none;stroke:#000000;stroke-width:1.5;"/>
      <g>
       <use style="stroke:#000000;" x="45.117" xlink:href="#mb2e2ffa458" y="17.28"/>
      </g>
     </g>
     <g id="text_10">
      <!-- 100 -->
      <g transform="translate(23.37 19.70825)scale(0.088 -0.088)">
       <use xlink:href="#DejaVuSans-49"/>
       <use x="63.623047" xlink:href="#DejaVuSans-48"/>
       <use x="127.246094" xlink:href="#DejaVuSans-48"/>
      </g>
     </g>
    </g>
    <g id="ytick_6">
     <g id="line2d_25">
      <path clip-path="url(#p2cd0ad6616)" d="M 45.117 193.68 
L 491.517 193.68 
" style="fill:none;stroke:#fafafa;"/>
     </g>
     <g id="line2d_26">
      <path d="M 45.117 193.68 
" style="fill:none;stroke:#000000;stroke-width:1.5;"/>
      <defs>
       <path d="M 0 0 
L -1.375 0 
" id="m403c97a0bb" style="stroke:#000000;"/>
      </defs>
      <g>
       <use style="stroke:#000000;" x="45.117" xlink:href="#m403c97a0bb" y="193.68"/>
      </g>
     </g>
    </g>
    <g id="ytick_7">
     <g id="line2d_27">
      <path clip-path="url(#p2cd0ad6616)" d="M 45.117 143.28 
L 491.517 143.28 
" style="fill:none;stroke:#fafafa;"/>
     </g>
     <g id="line2d_28">
      <path d="M 45.117 143.28 
" style="fill:none;stroke:#000000;stroke-width:1.5;"/>
      <g>
       <use style="stroke:#000000;" x="45.117" xlink:href="#m403c97a0bb" y="143.28"/>
      </g>
     </g>
    </g>
    <g id="ytick_8">
     <g id="line2d_29">
      <path clip-path="url(#p2cd0ad6616)" d="M 45.117 92.88 
L 491.517 92.88 
" style="fill:none;stroke:#fafafa;"/>
     </g>
     <g id="line2d_30">
      <path d="M 45.117 92.88 
" style="fill:none;stroke:#000000;stroke-width:1.5;"/>
      <g>
       <use style="stroke:#000000;" x="45.117" xlink:href="#m403c97a0bb" y="92.88"/>
      </g>
     </g>
    </g>
    <g id="ytick_9">
     <g id="line2d_31">
      <path clip-path="url(#p2cd0ad6616)" d="M 45.117 42.48 
L 491.517 42.48 
" style="fill:none;stroke:#fafafa;"/>
     </g>
     <g id="line2d_32">
      <path d="M 45.117 42.48 
" style="fill:none;stroke:#000000;stroke-width:1.5;"/>
      <g>
       <use style="stroke:#000000;" x="45.117" xlink:href="#m403c97a0bb" y="42.48"/>
      </g>
     </g>
    </g>
    <g id="text_11">
     <!-- $P_{Q1p}$ [%] -->
     <defs>
      <path d="M 16.890625 72.90625 
L 39.703125 72.90625 
Q 49.65625 72.90625 54.875 68.265625 
Q 60.109375 63.625 60.109375 54.6875 
Q 60.109375 42.671875 52.390625 35.984375 
Q 44.671875 29.296875 30.71875 29.296875 
L 18.3125 29.296875 
L 12.59375 0 
L 2.6875 0 
z
M 25.203125 64.796875 
L 19.921875 37.40625 
L 32.328125 37.40625 
Q 40.71875 37.40625 45.203125 41.703125 
Q 49.703125 46 49.703125 54 
Q 49.703125 59.125 46.65625 61.953125 
Q 43.609375 64.796875 38.09375 64.796875 
z
" id="DejaVuSans-Oblique-80"/>
      <path d="M 36.078125 -1.3125 
Q 35.546875 -1.375 34.953125 -1.390625 
Q 34.375 -1.421875 33.203125 -1.421875 
Q 19.53125 -1.421875 11.8125 6.421875 
Q 4.109375 14.265625 4.109375 28.078125 
Q 4.109375 36.234375 7.0625 44.4375 
Q 10.015625 52.640625 15.28125 59.1875 
Q 21.390625 66.703125 29.03125 70.453125 
Q 36.671875 74.21875 45.90625 74.21875 
Q 59.28125 74.21875 66.984375 66.328125 
Q 74.703125 58.453125 74.703125 44.828125 
Q 74.703125 30.125 66.640625 17.921875 
Q 58.59375 5.71875 45.609375 0.6875 
L 55.515625 -12.890625 
L 44.484375 -12.890625 
z
M 45.609375 66.21875 
Q 37.5 66.21875 31.296875 62.28125 
Q 25.09375 58.34375 20.515625 50.296875 
Q 17.578125 45.171875 16.03125 39.40625 
Q 14.5 33.640625 14.5 27.78125 
Q 14.5 17.625 19.359375 12.109375 
Q 24.21875 6.59375 33.109375 6.59375 
Q 41.109375 6.59375 47.375 10.5625 
Q 53.65625 14.546875 58.109375 22.40625 
Q 61.078125 27.6875 62.640625 33.46875 
Q 64.203125 39.265625 64.203125 45.015625 
Q 64.203125 55.125 59.3125 60.671875 
Q 54.4375 66.21875 45.609375 66.21875 
z
" id="DejaVuSans-Oblique-81"/>
      <path d="M 49.609375 33.6875 
Q 49.609375 40.875 46.484375 44.671875 
Q 43.359375 48.484375 37.5 48.484375 
Q 33.5 48.484375 29.859375 46.4375 
Q 26.21875 44.390625 23.390625 40.484375 
Q 20.609375 36.625 18.9375 31.15625 
Q 17.28125 25.6875 17.28125 20.3125 
Q 17.28125 13.484375 20.40625 9.796875 
Q 23.53125 6.109375 29.296875 6.109375 
Q 33.546875 6.109375 37.1875 8.109375 
Q 40.828125 10.109375 43.40625 13.921875 
Q 46.1875 17.921875 47.890625 23.34375 
Q 49.609375 28.765625 49.609375 33.6875 
z
M 21.78125 46.390625 
Q 25.390625 51.125 30.296875 53.5625 
Q 35.203125 56 41.21875 56 
Q 49.609375 56 54.25 50.5 
Q 58.890625 45.015625 58.890625 35.109375 
Q 58.890625 27 56 19.65625 
Q 53.125 12.3125 47.703125 6.5 
Q 44.09375 2.640625 39.546875 0.609375 
Q 35.015625 -1.421875 29.984375 -1.421875 
Q 24.171875 -1.421875 20.21875 1 
Q 16.265625 3.421875 14.3125 8.203125 
L 8.6875 -20.796875 
L -0.296875 -20.796875 
L 14.40625 54.6875 
L 23.390625 54.6875 
z
" id="DejaVuSans-Oblique-112"/>
      <path id="DejaVuSans-32"/>
      <path d="M 8.59375 75.984375 
L 29.296875 75.984375 
L 29.296875 69 
L 17.578125 69 
L 17.578125 -6.203125 
L 29.296875 -6.203125 
L 29.296875 -13.1875 
L 8.59375 -13.1875 
z
" id="DejaVuSans-91"/>
      <path d="M 72.703125 32.078125 
Q 68.453125 32.078125 66.03125 28.46875 
Q 63.625 24.859375 63.625 18.40625 
Q 63.625 12.0625 66.03125 8.421875 
Q 68.453125 4.78125 72.703125 4.78125 
Q 76.859375 4.78125 79.265625 8.421875 
Q 81.6875 12.0625 81.6875 18.40625 
Q 81.6875 24.8125 79.265625 28.4375 
Q 76.859375 32.078125 72.703125 32.078125 
z
M 72.703125 38.28125 
Q 80.421875 38.28125 84.953125 32.90625 
Q 89.5 27.546875 89.5 18.40625 
Q 89.5 9.28125 84.9375 3.921875 
Q 80.375 -1.421875 72.703125 -1.421875 
Q 64.890625 -1.421875 60.34375 3.921875 
Q 55.8125 9.28125 55.8125 18.40625 
Q 55.8125 27.59375 60.375 32.9375 
Q 64.9375 38.28125 72.703125 38.28125 
z
M 22.3125 68.015625 
Q 18.109375 68.015625 15.6875 64.375 
Q 13.28125 60.75 13.28125 54.390625 
Q 13.28125 47.953125 15.671875 44.328125 
Q 18.0625 40.71875 22.3125 40.71875 
Q 26.5625 40.71875 28.96875 44.328125 
Q 31.390625 47.953125 31.390625 54.390625 
Q 31.390625 60.6875 28.953125 64.34375 
Q 26.515625 68.015625 22.3125 68.015625 
z
M 66.40625 74.21875 
L 74.21875 74.21875 
L 28.609375 -1.421875 
L 20.796875 -1.421875 
z
M 22.3125 74.21875 
Q 30.03125 74.21875 34.609375 68.875 
Q 39.203125 63.53125 39.203125 54.390625 
Q 39.203125 45.171875 34.640625 39.84375 
Q 30.078125 34.515625 22.3125 34.515625 
Q 14.546875 34.515625 10.03125 39.859375 
Q 5.515625 45.21875 5.515625 54.390625 
Q 5.515625 63.484375 10.046875 68.84375 
Q 14.59375 74.21875 22.3125 74.21875 
z
" id="DejaVuSans-37"/>
      <path d="M 30.421875 75.984375 
L 30.421875 -13.1875 
L 9.71875 -13.1875 
L 9.71875 -6.203125 
L 21.390625 -6.203125 
L 21.390625 69 
L 9.71875 69 
L 9.71875 75.984375 
z
" id="DejaVuSans-93"/>
     </defs>
     <g transform="translate(15.56 139.3)rotate(-90)scale(0.11 -0.11)">
      <use transform="translate(0 0.015625)" xlink:href="#DejaVuSans-Oblique-80"/>
      <use transform="translate(60.302734 -16.390625)scale(0.7)" xlink:href="#DejaVuSans-Oblique-81"/>
      <use transform="translate(115.400391 -16.390625)scale(0.7)" xlink:href="#DejaVuSans-49"/>
      <use transform="translate(159.936523 -16.390625)scale(0.7)" xlink:href="#DejaVuSans-Oblique-112"/>
      <use transform="translate(207.104492 0.015625)" xlink:href="#DejaVuSans-32"/>
      <use transform="translate(238.891602 0.015625)" xlink:href="#DejaVuSans-91"/>
      <use transform="translate(277.905273 0.015625)" xlink:href="#DejaVuSans-37"/>
      <use transform="translate(372.924805 0.015625)" xlink:href="#DejaVuSans-93"/>
     </g>
    </g>
   </g>
   <g id="PathCollection_1">
    <path clip-path="url(#p2cd0ad6616)" d="M 65.407909 55.665282 
C 65.877969 55.665282 66.32884 55.478525 66.661223 55.146142 
C 66.993606 54.813759 67.180363 54.362888 67.180363 53.892828 
C 67.180363 53.422768 66.993606 52.971897 66.661223 52.639514 
C 66.32884 52.307131 65.877969 52.120374 65.407909 52.120374 
C 64.937849 52.120374 64.486978 52.307131 64.154595 52.639514 
C 63.822212 52.971897 63.635455 53.422768 63.635455 53.892828 
C 63.635455 54.362888 63.822212 54.813759 64.154595 55.146142 
C 64.486978 55.478525 64.937849 55.665282 65.407909 55.665282 
z
" style="stroke:#000000;stroke-width:0.886227;"/>
    <path clip-path="url(#p2cd0ad6616)" d="M 78.935182 56.576473 
C 79.405242 56.576473 79.856113 56.389716 80.188496 56.057333 
C 80.520879 55.724951 80.707636 55.27408 80.707636 54.804019 
C 80.707636 54.333959 80.520879 53.883088 80.188496 53.550705 
C 79.856113 53.218322 79.405242 53.031565 78.935182 53.031565 
C 78.465122 53.031565 78.01425 53.218322 77.681868 53.550705 
C 77.349485 53.883088 77.162728 54.333959 77.162728 54.804019 
C 77.162728 55.27408 77.349485 55.724951 77.681868 56.057333 
C 78.01425 56.389716 78.465122 56.576473 78.935182 56.576473 
z
" style="stroke:#000000;stroke-width:0.886227;"/>
    <path clip-path="url(#p2cd0ad6616)" d="M 92.462455 62.984212 
C 92.932515 62.984212 93.383386 62.797456 93.715769 62.465073 
C 94.048151 62.13269 94.234908 61.681819 94.234908 61.211759 
C 94.234908 60.741698 94.048151 60.290827 93.715769 59.958444 
C 93.383386 59.626062 92.932515 59.439305 92.462455 59.439305 
C 91.992394 59.439305 91.541523 59.626062 91.20914 59.958444 
C 90.876758 60.290827 90.690001 60.741698 90.690001 61.211759 
C 90.690001 61.681819 90.876758 62.13269 91.20914 62.465073 
C 91.541523 62.797456 91.992394 62.984212 92.462455 62.984212 
z
" style="stroke:#000000;stroke-width:0.886227;"/>
    <path clip-path="url(#p2cd0ad6616)" d="M 105.989727 64.649889 
C 106.459788 64.649889 106.910659 64.463132 107.243041 64.130749 
C 107.575424 63.798366 107.762181 63.347495 107.762181 62.877435 
C 107.762181 62.407375 107.575424 61.956504 107.243041 61.624121 
C 106.910659 61.291738 106.459788 61.104981 105.989727 61.104981 
C 105.519667 61.104981 105.068796 61.291738 104.736413 61.624121 
C 104.40403 61.956504 104.217273 62.407375 104.217273 62.877435 
C 104.217273 63.347495 104.40403 63.798366 104.736413 64.130749 
C 105.068796 64.463132 105.519667 64.649889 105.989727 64.649889 
z
" style="stroke:#000000;stroke-width:0.886227;"/>
    <path clip-path="url(#p2cd0ad6616)" d="M 119.517 72.76685 
C 119.98706 72.76685 120.437931 72.580093 120.770314 72.24771 
C 121.102697 71.915327 121.289454 71.464456 121.289454 70.994396 
C 121.289454 70.524336 121.102697 70.073465 120.770314 69.741082 
C 120.437931 69.408699 119.98706 69.221942 119.517 69.221942 
C 119.04694 69.221942 118.596069 69.408699 118.263686 69.741082 
C 117.931303 70.073465 117.744546 70.524336 117.744546 70.994396 
C 117.744546 71.464456 117.931303 71.915327 118.263686 72.24771 
C 118.596069 72.580093 119.04694 72.76685 119.517 72.76685 
z
" style="stroke:#000000;stroke-width:0.886227;"/>
    <path clip-path="url(#p2cd0ad6616)" d="M 133.044273 79.294348 
C 133.514333 79.294348 133.965204 79.107591 134.297587 78.775208 
C 134.62997 78.442826 134.816727 77.991955 134.816727 77.521894 
C 134.816727 77.051834 134.62997 76.600963 134.297587 76.26858 
C 133.965204 75.936197 133.514333 75.74944 133.044273 75.74944 
C 132.574212 75.74944 132.123341 75.936197 131.790959 76.26858 
C 131.458576 76.600963 131.271819 77.051834 131.271819 77.521894 
C 131.271819 77.991955 131.458576 78.442826 131.790959 78.775208 
C 132.123341 79.107591 132.574212 79.294348 133.044273 79.294348 
z
" style="stroke:#000000;stroke-width:0.886227;"/>
    <path clip-path="url(#p2cd0ad6616)" d="M 146.571545 84.145688 
C 147.041606 84.145688 147.492477 83.958931 147.82486 83.626548 
C 148.157242 83.294165 148.343999 82.843294 148.343999 82.373234 
C 148.343999 81.903174 148.157242 81.452303 147.82486 81.11992 
C 147.492477 80.787537 147.041606 80.60078 146.571545 80.60078 
C 146.101485 80.60078 145.650614 80.787537 145.318231 81.11992 
C 144.985849 81.452303 144.799092 81.903174 144.799092 82.373234 
C 144.799092 82.843294 144.985849 83.294165 145.318231 83.626548 
C 145.650614 83.958931 146.101485 84.145688 146.571545 84.145688 
z
" style="stroke:#000000;stroke-width:0.886227;"/>
    <path clip-path="url(#p2cd0ad6616)" d="M 160.098818 92.239858 
C 160.568878 92.239858 161.01975 92.053101 161.352132 91.720718 
C 161.684515 91.388335 161.871272 90.937464 161.871272 90.467404 
C 161.871272 89.997344 161.684515 89.546472 161.352132 89.21409 
C 161.01975 88.881707 160.568878 88.69495 160.098818 88.69495 
C 159.628758 88.69495 159.177887 88.881707 158.845504 89.21409 
C 158.513121 89.546472 158.326364 89.997344 158.326364 90.467404 
C 158.326364 90.937464 158.513121 91.388335 158.845504 91.720718 
C 159.177887 92.053101 159.628758 92.239858 160.098818 92.239858 
z
" style="stroke:#000000;stroke-width:0.886227;"/>
    <path clip-path="url(#p2cd0ad6616)" d="M 173.626091 95.601146 
C 174.096151 95.601146 174.547022 95.414389 174.879405 95.082007 
C 175.211788 94.749624 175.398545 94.298753 175.398545 93.828693 
C 175.398545 93.358632 175.211788 92.907761 174.879405 92.575378 
C 174.547022 92.242996 174.096151 92.056239 173.626091 92.056239 
C 173.156031 92.056239 172.70516 92.242996 172.372777 92.575378 
C 172.040394 92.907761 171.853637 93.358632 171.853637 93.828693 
C 171.853637 94.298753 172.040394 94.749624 172.372777 95.082007 
C 172.70516 95.414389 173.156031 95.601146 173.626091 95.601146 
z
" style="stroke:#000000;stroke-width:0.886227;"/>
    <path clip-path="url(#p2cd0ad6616)" d="M 187.153364 107.682255 
C 187.623424 107.682255 188.074295 107.495498 188.406678 107.163116 
C 188.739061 106.830733 188.925817 106.379862 188.925817 105.909802 
C 188.925817 105.439741 188.739061 104.98887 188.406678 104.656487 
C 188.074295 104.324105 187.623424 104.137348 187.153364 104.137348 
C 186.683303 104.137348 186.232432 104.324105 185.900049 104.656487 
C 185.567667 104.98887 185.38091 105.439741 185.38091 105.909802 
C 185.38091 106.379862 185.567667 106.830733 185.900049 107.163116 
C 186.232432 107.495498 186.683303 107.682255 187.153364 107.682255 
z
" style="stroke:#000000;stroke-width:0.886227;"/>
    <path clip-path="url(#p2cd0ad6616)" d="M 200.680636 117.37403 
C 201.150697 117.37403 201.601568 117.187273 201.933951 116.85489 
C 202.266333 116.522507 202.45309 116.071636 202.45309 115.601576 
C 202.45309 115.131516 202.266333 114.680645 201.933951 114.348262 
C 201.601568 114.015879 201.150697 113.829122 200.680636 113.829122 
C 200.210576 113.829122 199.759705 114.015879 199.427322 114.348262 
C 199.094939 114.680645 198.908183 115.131516 198.908183 115.601576 
C 198.908183 116.071636 199.094939 116.522507 199.427322 116.85489 
C 199.759705 117.187273 200.210576 117.37403 200.680636 117.37403 
z
" style="stroke:#000000;stroke-width:0.886227;"/>
    <path clip-path="url(#p2cd0ad6616)" d="M 214.207909 125.130955 
C 214.677969 125.130955 215.12884 124.944198 215.461223 124.611815 
C 215.793606 124.279432 215.980363 123.828561 215.980363 123.358501 
C 215.980363 122.888441 215.793606 122.43757 215.461223 122.105187 
C 215.12884 121.772804 214.677969 121.586047 214.207909 121.586047 
C 213.737849 121.586047 213.286978 121.772804 212.954595 122.105187 
C 212.622212 122.43757 212.435455 122.888441 212.435455 123.358501 
C 212.435455 123.828561 212.622212 124.279432 212.954595 124.611815 
C 213.286978 124.944198 213.737849 125.130955 214.207909 125.130955 
z
" style="stroke:#000000;stroke-width:0.886227;"/>
    <path clip-path="url(#p2cd0ad6616)" d="M 227.735182 130.928481 
C 228.205242 130.928481 228.656113 130.741724 228.988496 130.409341 
C 229.320879 130.076958 229.507636 129.626087 229.507636 129.156027 
C 229.507636 128.685966 229.320879 128.235095 228.988496 127.902713 
C 228.656113 127.57033 228.205242 127.383573 227.735182 127.383573 
C 227.265122 127.383573 226.81425 127.57033 226.481868 127.902713 
C 226.149485 128.235095 225.962728 128.685966 225.962728 129.156027 
C 225.962728 129.626087 226.149485 130.076958 226.481868 130.409341 
C 226.81425 130.741724 227.265122 130.928481 227.735182 130.928481 
z
" style="stroke:#000000;stroke-width:0.886227;"/>
    <path clip-path="url(#p2cd0ad6616)" d="M 241.262455 142.937061 
C 241.732515 142.937061 242.183386 142.750304 242.515769 142.417921 
C 242.848151 142.085538 243.034908 141.634667 243.034908 141.164607 
C 243.034908 140.694546 242.848151 140.243675 242.515769 139.911293 
C 242.183386 139.57891 241.732515 139.392153 241.262455 139.392153 
C 240.792394 139.392153 240.341523 139.57891 240.00914 139.911293 
C 239.676758 140.243675 239.490001 140.694546 239.490001 141.164607 
C 239.490001 141.634667 239.676758 142.085538 240.00914 142.417921 
C 240.341523 142.750304 240.792394 142.937061 241.262455 142.937061 
z
" style="stroke:#000000;stroke-width:0.886227;"/>
    <path clip-path="url(#p2cd0ad6616)" d="M 254.789727 143.356162 
C 255.259788 143.356162 255.710659 143.169405 256.043041 142.837022 
C 256.375424 142.504639 256.562181 142.053768 256.562181 141.583708 
C 256.562181 141.113648 256.375424 140.662776 256.043041 140.330394 
C 255.710659 139.998011 255.259788 139.811254 254.789727 139.811254 
C 254.319667 139.811254 253.868796 139.998011 253.536413 140.330394 
C 253.20403 140.662776 253.017273 141.113648 253.017273 141.583708 
C 253.017273 142.053768 253.20403 142.504639 253.536413 142.837022 
C 253.868796 143.169405 254.319667 143.356162 254.789727 143.356162 
z
" style="stroke:#000000;stroke-width:0.886227;"/>
    <path clip-path="url(#p2cd0ad6616)" d="M 268.317 152.721305 
C 268.78706 152.721305 269.237931 152.534548 269.570314 152.202166 
C 269.902697 151.869783 270.089454 151.418912 270.089454 150.948852 
C 270.089454 150.478791 269.902697 150.02792 269.570314 149.695537 
C 269.237931 149.363155 268.78706 149.176398 268.317 149.176398 
C 267.84694 149.176398 267.396069 149.363155 267.063686 149.695537 
C 266.731303 150.02792 266.544546 150.478791 266.544546 150.948852 
C 266.544546 151.418912 266.731303 151.869783 267.063686 152.202166 
C 267.396069 152.534548 267.84694 152.721305 268.317 152.721305 
z
" style="stroke:#000000;stroke-width:0.886227;"/>
    <path clip-path="url(#p2cd0ad6616)" d="M 281.844273 151.201778 
C 282.314333 151.201778 282.765204 151.015021 283.097587 150.682638 
C 283.42997 150.350256 283.616727 149.899384 283.616727 149.429324 
C 283.616727 148.959264 283.42997 148.508393 283.097587 148.17601 
C 282.765204 147.843627 282.314333 147.65687 281.844273 147.65687 
C 281.374212 147.65687 280.923341 147.843627 280.590959 148.17601 
C 280.258576 148.508393 280.071819 148.959264 280.071819 149.429324 
C 280.071819 149.899384 280.258576 150.350256 280.590959 150.682638 
C 280.923341 151.015021 281.374212 151.201778 281.844273 151.201778 
z
" style="stroke:#000000;stroke-width:0.886227;"/>
    <path clip-path="url(#p2cd0ad6616)" d="M 295.371545 156.773186 
C 295.841606 156.773186 296.292477 156.586429 296.62486 156.254046 
C 296.957242 155.921664 297.143999 155.470793 297.143999 155.000732 
C 297.143999 154.530672 296.957242 154.079801 296.62486 153.747418 
C 296.292477 153.415035 295.841606 153.228278 295.371545 153.228278 
C 294.901485 153.228278 294.450614 153.415035 294.118231 153.747418 
C 293.785849 154.079801 293.599092 154.530672 293.599092 155.000732 
C 293.599092 155.470793 293.785849 155.921664 294.118231 156.254046 
C 294.450614 156.586429 294.901485 156.773186 295.371545 156.773186 
z
" style="stroke:#000000;stroke-width:0.886227;"/>
    <path clip-path="url(#p2cd0ad6616)" d="M 308.898818 158.908003 
C 309.368878 158.908003 309.81975 158.721246 310.152132 158.388863 
C 310.484515 158.05648 310.671272 157.605609 310.671272 157.135549 
C 310.671272 156.665489 310.484515 156.214618 310.152132 155.882235 
C 309.81975 155.549852 309.368878 155.363095 308.898818 155.363095 
C 308.428758 155.363095 307.977887 155.549852 307.645504 155.882235 
C 307.313121 156.214618 307.126364 156.665489 307.126364 157.135549 
C 307.126364 157.605609 307.313121 158.05648 307.645504 158.388863 
C 307.977887 158.721246 308.428758 158.908003 308.898818 158.908003 
z
" style="stroke:#000000;stroke-width:0.886227;"/>
    <path clip-path="url(#p2cd0ad6616)" d="M 322.426091 163.447549 
C 322.896151 163.447549 323.347022 163.260792 323.679405 162.928409 
C 324.011788 162.596026 324.198545 162.145155 324.198545 161.675095 
C 324.198545 161.205034 324.011788 160.754163 323.679405 160.421781 
C 323.347022 160.089398 322.896151 159.902641 322.426091 159.902641 
C 321.956031 159.902641 321.50516 160.089398 321.172777 160.421781 
C 320.840394 160.754163 320.653637 161.205034 320.653637 161.675095 
C 320.653637 162.145155 320.840394 162.596026 321.172777 162.928409 
C 321.50516 163.260792 321.956031 163.447549 322.426091 163.447549 
z
" style="stroke:#000000;stroke-width:0.886227;"/>
    <path clip-path="url(#p2cd0ad6616)" d="M 335.953364 155.562694 
C 336.423424 155.562694 336.874295 155.375937 337.206678 155.043554 
C 337.539061 154.711171 337.725817 154.2603 337.725817 153.79024 
C 337.725817 153.32018 337.539061 152.869309 337.206678 152.536926 
C 336.874295 152.204543 336.423424 152.017786 335.953364 152.017786 
C 335.483303 152.017786 335.032432 152.204543 334.700049 152.536926 
C 334.367667 152.869309 334.18091 153.32018 334.18091 153.79024 
C 334.18091 154.2603 334.367667 154.711171 334.700049 155.043554 
C 335.032432 155.375937 335.483303 155.562694 335.953364 155.562694 
z
" style="stroke:#000000;stroke-width:0.886227;"/>
    <path clip-path="url(#p2cd0ad6616)" d="M 349.480636 156.47549 
C 349.950697 156.47549 350.401568 156.288733 350.733951 155.95635 
C 351.066333 155.623967 351.25309 155.173096 351.25309 154.703036 
C 351.25309 154.232976 351.066333 153.782105 350.733951 153.449722 
C 350.401568 153.117339 349.950697 152.930582 349.480636 152.930582 
C 349.010576 152.930582 348.559705 153.117339 348.227322 153.449722 
C 347.894939 153.782105 347.708183 154.232976 347.708183 154.703036 
C 347.708183 155.173096 347.894939 155.623967 348.227322 155.95635 
C 348.559705 156.288733 349.010576 156.47549 349.480636 156.47549 
z
" style="stroke:#000000;stroke-width:0.886227;"/>
    <path clip-path="url(#p2cd0ad6616)" d="M 363.007909 162.155403 
C 363.477969 162.155403 363.92884 161.968647 364.261223 161.636264 
C 364.593606 161.303881 364.780363 160.85301 364.780363 160.38295 
C 364.780363 159.912889 364.593606 159.462018 364.261223 159.129635 
C 363.92884 158.797253 363.477969 158.610496 363.007909 158.610496 
C 362.537849 158.610496 362.086978 158.797253 361.754595 159.129635 
C 361.422212 159.462018 361.235455 159.912889 361.235455 160.38295 
C 361.235455 160.85301 361.422212 161.303881 361.754595 161.636264 
C 362.086978 161.968647 362.537849 162.155403 363.007909 162.155403 
z
" style="stroke:#000000;stroke-width:0.886227;"/>
    <path clip-path="url(#p2cd0ad6616)" d="M 376.535182 169.284396 
C 377.005242 169.284396 377.456113 169.097639 377.788496 168.765256 
C 378.120879 168.432873 378.307636 167.982002 378.307636 167.511942 
C 378.307636 167.041881 378.120879 166.59101 377.788496 166.258628 
C 377.456113 165.926245 377.005242 165.739488 376.535182 165.739488 
C 376.065122 165.739488 375.61425 165.926245 375.281868 166.258628 
C 374.949485 166.59101 374.762728 167.041881 374.762728 167.511942 
C 374.762728 167.982002 374.949485 168.432873 375.281868 168.765256 
C 375.61425 169.097639 376.065122 169.284396 376.535182 169.284396 
z
" style="stroke:#000000;stroke-width:0.886227;"/>
    <path clip-path="url(#p2cd0ad6616)" d="M 390.062455 178.399593 
C 390.532515 178.399593 390.983386 178.212837 391.315769 177.880454 
C 391.648151 177.548071 391.834908 177.0972 391.834908 176.62714 
C 391.834908 176.157079 391.648151 175.706208 391.315769 175.373826 
C 390.983386 175.041443 390.532515 174.854686 390.062455 174.854686 
C 389.592394 174.854686 389.141523 175.041443 388.80914 175.373826 
C 388.476758 175.706208 388.290001 176.157079 388.290001 176.62714 
C 388.290001 177.0972 388.476758 177.548071 388.80914 177.880454 
C 389.141523 178.212837 389.592394 178.399593 390.062455 178.399593 
z
" style="stroke:#000000;stroke-width:0.886227;"/>
    <path clip-path="url(#p2cd0ad6616)" d="M 403.589727 169.777594 
C 404.059788 169.777594 404.510659 169.590837 404.843041 169.258454 
C 405.175424 168.926072 405.362181 168.475201 405.362181 168.00514 
C 405.362181 167.53508 405.175424 167.084209 404.843041 166.751826 
C 404.510659 166.419443 404.059788 166.232686 403.589727 166.232686 
C 403.119667 166.232686 402.668796 166.419443 402.336413 166.751826 
C 402.00403 167.084209 401.817273 167.53508 401.817273 168.00514 
C 401.817273 168.475201 402.00403 168.926072 402.336413 169.258454 
C 402.668796 169.590837 403.119667 169.777594 403.589727 169.777594 
z
" style="stroke:#000000;stroke-width:0.886227;"/>
    <path clip-path="url(#p2cd0ad6616)" d="M 417.117 169.007106 
C 417.58706 169.007106 418.037931 168.820349 418.370314 168.487966 
C 418.702697 168.155583 418.889454 167.704712 418.889454 167.234652 
C 418.889454 166.764592 418.702697 166.31372 418.370314 165.981338 
C 418.037931 165.648955 417.58706 165.462198 417.117 165.462198 
C 416.64694 165.462198 416.196069 165.648955 415.863686 165.981338 
C 415.531303 166.31372 415.344546 166.764592 415.344546 167.234652 
C 415.344546 167.704712 415.531303 168.155583 415.863686 168.487966 
C 416.196069 168.820349 416.64694 169.007106 417.117 169.007106 
z
" style="stroke:#000000;stroke-width:0.886227;"/>
    <path clip-path="url(#p2cd0ad6616)" d="M 430.644273 176.869761 
C 431.114333 176.869761 431.565204 176.683004 431.897587 176.350621 
C 432.22997 176.018238 432.416727 175.567367 432.416727 175.097307 
C 432.416727 174.627247 432.22997 174.176376 431.897587 173.843993 
C 431.565204 173.51161 431.114333 173.324853 430.644273 173.324853 
C 430.174212 173.324853 429.723341 173.51161 429.390959 173.843993 
C 429.058576 174.176376 428.871819 174.627247 428.871819 175.097307 
C 428.871819 175.567367 429.058576 176.018238 429.390959 176.350621 
C 429.723341 176.683004 430.174212 176.869761 430.644273 176.869761 
z
" style="stroke:#000000;stroke-width:0.886227;"/>
    <path clip-path="url(#p2cd0ad6616)" d="M 444.171545 175.64687 
C 444.641606 175.64687 445.092477 175.460113 445.42486 175.12773 
C 445.757242 174.795347 445.943999 174.344476 445.943999 173.874416 
C 445.943999 173.404355 445.757242 172.953484 445.42486 172.621102 
C 445.092477 172.288719 444.641606 172.101962 444.171545 172.101962 
C 443.701485 172.101962 443.250614 172.288719 442.918231 172.621102 
C 442.585849 172.953484 442.399092 173.404355 442.399092 173.874416 
C 442.399092 174.344476 442.585849 174.795347 442.918231 175.12773 
C 443.250614 175.460113 443.701485 175.64687 444.171545 175.64687 
z
" style="stroke:#000000;stroke-width:0.886227;"/>
    <path clip-path="url(#p2cd0ad6616)" d="M 457.698818 182.789092 
C 458.168878 182.789092 458.61975 182.602335 458.952132 182.269952 
C 459.284515 181.93757 459.471272 181.486699 459.471272 181.016638 
C 459.471272 180.546578 459.284515 180.095707 458.952132 179.763324 
C 458.61975 179.430941 458.168878 179.244184 457.698818 179.244184 
C 457.228758 179.244184 456.777887 179.430941 456.445504 179.763324 
C 456.113121 180.095707 455.926364 180.546578 455.926364 181.016638 
C 455.926364 181.486699 456.113121 181.93757 456.445504 182.269952 
C 456.777887 182.602335 457.228758 182.789092 457.698818 182.789092 
z
" style="stroke:#000000;stroke-width:0.886227;"/>
    <path clip-path="url(#p2cd0ad6616)" d="M 471.226091 176.570993 
C 471.696151 176.570993 472.147022 176.384236 472.479405 176.051853 
C 472.811788 175.71947 472.998545 175.268599 472.998545 174.798539 
C 472.998545 174.328479 472.811788 173.877608 472.479405 173.545225 
C 472.147022 173.212842 471.696151 173.026085 471.226091 173.026085 
C 470.756031 173.026085 470.30516 173.212842 469.972777 173.545225 
C 469.640394 173.877608 469.453637 174.328479 469.453637 174.798539 
C 469.453637 175.268599 469.640394 175.71947 469.972777 176.051853 
C 470.30516 176.384236 470.756031 176.570993 471.226091 176.570993 
z
" style="stroke:#000000;stroke-width:0.886227;"/>
   </g>
   <g id="line2d_33">
    <path clip-path="url(#p2cd0ad6616)" d="M 65.407909 53.892828 
L 78.935182 54.804019 
L 92.462455 61.211759 
L 105.989727 62.877435 
L 119.517 70.994396 
L 133.044273 77.521894 
L 146.571545 82.373234 
L 160.098818 90.467404 
L 173.626091 93.828693 
L 187.153364 105.909802 
L 200.680636 115.601576 
L 214.207909 123.358501 
L 227.735182 129.156027 
L 241.262455 141.164607 
L 254.789727 141.583708 
L 268.317 150.948852 
L 281.844273 149.429324 
L 295.371545 155.000732 
L 308.898818 157.135549 
L 322.426091 161.675095 
L 335.953364 153.79024 
L 349.480636 154.703036 
L 363.007909 160.38295 
L 376.535182 167.511942 
L 390.062455 176.62714 
L 403.589727 168.00514 
L 417.117 167.234652 
L 430.644273 175.097307 
L 444.171545 173.874416 
L 457.698818 181.016638 
L 471.226091 174.798539 
" style="fill:none;stroke:#000000;stroke-width:0.886227;"/>
   </g>
  </g>
 </g>
 <defs>
  <clipPath id="p2cd0ad6616">
   <rect height="221.76" width="446.4" x="45.117" y="7.2"/>
  </clipPath>
 </defs>
</svg>
