<?xml version="1.0" encoding="utf-8" standalone="no"?>
<!DOCTYPE svg PUBLIC "-//W3C//DTD SVG 1.1//EN"
  "http://www.w3.org/Graphics/SVG/1.1/DTD/svg11.dtd">
<svg xmlns:xlink="http://www.w3.org/1999/xlink" width="513.9925pt" height="274.544375pt" viewBox="0 0 513.9925 274.544375" xmlns="http://www.w3.org/2000/svg" version="1.1">
 <metadata>
  <rdf:RDF xmlns:dc="http://purl.org/dc/elements/1.1/" xmlns:cc="http://creativecommons.org/ns#" xmlns:rdf="http://www.w3.org/1999/02/22-rdf-syntax-ns#">
   <cc:Work>
    <dc:type rdf:resource="http://purl.org/dc/dcmitype/StillImage"/>
    <dc:date>2023-11-24T10:41:54.065274</dc:date>
    <dc:format>image/svg+xml</dc:format>
    <dc:creator>
     <cc:Agent>
      <dc:title>Matplotlib v3.5.2, https://matplotlib.org/</dc:title>
     </cc:Agent>
    </dc:creator>
   </cc:Work>
  </rdf:RDF>
 </metadata>
 <defs>
  <style type="text/css">*{stroke-linejoin: round; stroke-linecap: butt}</style>
 </defs>
 <g id="figure_1">
  <g id="patch_1">
   <path d="M 0 274.544375 
L 513.9925 274.544375 
L 513.9925 0 
L 0 0 
z
" style="fill: #ffffff; stroke: #ffffff; stroke-linejoin: miter"/>
  </g>
  <g id="axes_1">
   <g id="patch_2">
    <path d="M 60.3925 228.96 
L 506.7925 228.96 
L 506.7925 7.2 
L 60.3925 7.2 
z
" style="fill: #ffffff"/>
   </g>
   <g id="matplotlib.axis_1">
    <g id="xtick_1">
     <g id="line2d_1">
      <path d="M 80.683409 228.96 
" style="fill: none; stroke: #333333; stroke-width: 1.5"/>
      <defs>
       <path id="mf601a28b58" d="M 0 0 
L 0 2.75 
" style="stroke: #000000"/>
      </defs>
      <g>
       <use xlink:href="#mf601a28b58" x="80.683409" y="228.96" style="fill: #333333; stroke: #000000"/>
      </g>
     </g>
     <g id="text_1">
      <!-- 1970 -->
      <g transform="translate(62.868409 244.547813)scale(0.14 -0.14)">
       <defs>
        <path id="DejaVuSans-31" d="M 794 531 
L 1825 531 
L 1825 4091 
L 703 3866 
L 703 4441 
L 1819 4666 
L 2450 4666 
L 2450 531 
L 3481 531 
L 3481 0 
L 794 0 
L 794 531 
z
" transform="scale(0.015625)"/>
        <path id="DejaVuSans-39" d="M 703 97 
L 703 672 
Q 941 559 1184 500 
Q 1428 441 1663 441 
Q 2288 441 2617 861 
Q 2947 1281 2994 2138 
Q 2813 1869 2534 1725 
Q 2256 1581 1919 1581 
Q 1219 1581 811 2004 
Q 403 2428 403 3163 
Q 403 3881 828 4315 
Q 1253 4750 1959 4750 
Q 2769 4750 3195 4129 
Q 3622 3509 3622 2328 
Q 3622 1225 3098 567 
Q 2575 -91 1691 -91 
Q 1453 -91 1209 -44 
Q 966 3 703 97 
z
M 1959 2075 
Q 2384 2075 2632 2365 
Q 2881 2656 2881 3163 
Q 2881 3666 2632 3958 
Q 2384 4250 1959 4250 
Q 1534 4250 1286 3958 
Q 1038 3666 1038 3163 
Q 1038 2656 1286 2365 
Q 1534 2075 1959 2075 
z
" transform="scale(0.015625)"/>
        <path id="DejaVuSans-37" d="M 525 4666 
L 3525 4666 
L 3525 4397 
L 1831 0 
L 1172 0 
L 2766 4134 
L 525 4134 
L 525 4666 
z
" transform="scale(0.015625)"/>
        <path id="DejaVuSans-30" d="M 2034 4250 
Q 1547 4250 1301 3770 
Q 1056 3291 1056 2328 
Q 1056 1369 1301 889 
Q 1547 409 2034 409 
Q 2525 409 2770 889 
Q 3016 1369 3016 2328 
Q 3016 3291 2770 3770 
Q 2525 4250 2034 4250 
z
M 2034 4750 
Q 2819 4750 3233 4129 
Q 3647 3509 3647 2328 
Q 3647 1150 3233 529 
Q 2819 -91 2034 -91 
Q 1250 -91 836 529 
Q 422 1150 422 2328 
Q 422 3509 836 4129 
Q 1250 4750 2034 4750 
z
" transform="scale(0.015625)"/>
       </defs>
       <use xlink:href="#DejaVuSans-31"/>
       <use xlink:href="#DejaVuSans-39" x="63.623047"/>
       <use xlink:href="#DejaVuSans-37" x="127.246094"/>
       <use xlink:href="#DejaVuSans-30" x="190.869141"/>
      </g>
     </g>
    </g>
    <g id="xtick_2">
     <g id="line2d_2">
      <path d="M 161.847045 228.96 
" style="fill: none; stroke: #333333; stroke-width: 1.5"/>
      <g>
       <use xlink:href="#mf601a28b58" x="161.847045" y="228.96" style="fill: #333333; stroke: #000000"/>
      </g>
     </g>
     <g id="text_2">
      <!-- 1980 -->
      <g transform="translate(144.032045 244.547813)scale(0.14 -0.14)">
       <defs>
        <path id="DejaVuSans-38" d="M 2034 2216 
Q 1584 2216 1326 1975 
Q 1069 1734 1069 1313 
Q 1069 891 1326 650 
Q 1584 409 2034 409 
Q 2484 409 2743 651 
Q 3003 894 3003 1313 
Q 3003 1734 2745 1975 
Q 2488 2216 2034 2216 
z
M 1403 2484 
Q 997 2584 770 2862 
Q 544 3141 544 3541 
Q 544 4100 942 4425 
Q 1341 4750 2034 4750 
Q 2731 4750 3128 4425 
Q 3525 4100 3525 3541 
Q 3525 3141 3298 2862 
Q 3072 2584 2669 2484 
Q 3125 2378 3379 2068 
Q 3634 1759 3634 1313 
Q 3634 634 3220 271 
Q 2806 -91 2034 -91 
Q 1263 -91 848 271 
Q 434 634 434 1313 
Q 434 1759 690 2068 
Q 947 2378 1403 2484 
z
M 1172 3481 
Q 1172 3119 1398 2916 
Q 1625 2713 2034 2713 
Q 2441 2713 2670 2916 
Q 2900 3119 2900 3481 
Q 2900 3844 2670 4047 
Q 2441 4250 2034 4250 
Q 1625 4250 1398 4047 
Q 1172 3844 1172 3481 
z
" transform="scale(0.015625)"/>
       </defs>
       <use xlink:href="#DejaVuSans-31"/>
       <use xlink:href="#DejaVuSans-39" x="63.623047"/>
       <use xlink:href="#DejaVuSans-38" x="127.246094"/>
       <use xlink:href="#DejaVuSans-30" x="190.869141"/>
      </g>
     </g>
    </g>
    <g id="xtick_3">
     <g id="line2d_3">
      <path d="M 243.010682 228.96 
" style="fill: none; stroke: #333333; stroke-width: 1.5"/>
      <g>
       <use xlink:href="#mf601a28b58" x="243.010682" y="228.96" style="fill: #333333; stroke: #000000"/>
      </g>
     </g>
     <g id="text_3">
      <!-- 1990 -->
      <g transform="translate(225.195682 244.547813)scale(0.14 -0.14)">
       <use xlink:href="#DejaVuSans-31"/>
       <use xlink:href="#DejaVuSans-39" x="63.623047"/>
       <use xlink:href="#DejaVuSans-39" x="127.246094"/>
       <use xlink:href="#DejaVuSans-30" x="190.869141"/>
      </g>
     </g>
    </g>
    <g id="xtick_4">
     <g id="line2d_4">
      <path d="M 324.174318 228.96 
" style="fill: none; stroke: #333333; stroke-width: 1.5"/>
      <g>
       <use xlink:href="#mf601a28b58" x="324.174318" y="228.96" style="fill: #333333; stroke: #000000"/>
      </g>
     </g>
     <g id="text_4">
      <!-- 2000 -->
      <g transform="translate(306.359318 244.547813)scale(0.14 -0.14)">
       <defs>
        <path id="DejaVuSans-32" d="M 1228 531 
L 3431 531 
L 3431 0 
L 469 0 
L 469 531 
Q 828 903 1448 1529 
Q 2069 2156 2228 2338 
Q 2531 2678 2651 2914 
Q 2772 3150 2772 3378 
Q 2772 3750 2511 3984 
Q 2250 4219 1831 4219 
Q 1534 4219 1204 4116 
Q 875 4013 500 3803 
L 500 4441 
Q 881 4594 1212 4672 
Q 1544 4750 1819 4750 
Q 2544 4750 2975 4387 
Q 3406 4025 3406 3419 
Q 3406 3131 3298 2873 
Q 3191 2616 2906 2266 
Q 2828 2175 2409 1742 
Q 1991 1309 1228 531 
z
" transform="scale(0.015625)"/>
       </defs>
       <use xlink:href="#DejaVuSans-32"/>
       <use xlink:href="#DejaVuSans-30" x="63.623047"/>
       <use xlink:href="#DejaVuSans-30" x="127.246094"/>
       <use xlink:href="#DejaVuSans-30" x="190.869141"/>
      </g>
     </g>
    </g>
    <g id="xtick_5">
     <g id="line2d_5">
      <path d="M 405.337955 228.96 
" style="fill: none; stroke: #333333; stroke-width: 1.5"/>
      <g>
       <use xlink:href="#mf601a28b58" x="405.337955" y="228.96" style="fill: #333333; stroke: #000000"/>
      </g>
     </g>
     <g id="text_5">
      <!-- 2010 -->
      <g transform="translate(387.522955 244.547813)scale(0.14 -0.14)">
       <use xlink:href="#DejaVuSans-32"/>
       <use xlink:href="#DejaVuSans-30" x="63.623047"/>
       <use xlink:href="#DejaVuSans-31" x="127.246094"/>
       <use xlink:href="#DejaVuSans-30" x="190.869141"/>
      </g>
     </g>
    </g>
    <g id="xtick_6">
     <g id="line2d_6">
      <path d="M 486.501591 228.96 
" style="fill: none; stroke: #333333; stroke-width: 1.5"/>
      <g>
       <use xlink:href="#mf601a28b58" x="486.501591" y="228.96" style="fill: #333333; stroke: #000000"/>
      </g>
     </g>
     <g id="text_6">
      <!-- 2020 -->
      <g transform="translate(468.686591 244.547813)scale(0.14 -0.14)">
       <use xlink:href="#DejaVuSans-32"/>
       <use xlink:href="#DejaVuSans-30" x="63.623047"/>
       <use xlink:href="#DejaVuSans-32" x="127.246094"/>
       <use xlink:href="#DejaVuSans-30" x="190.869141"/>
      </g>
     </g>
    </g>
    <g id="xtick_7"/>
    <g id="xtick_8"/>
    <g id="xtick_9"/>
    <g id="xtick_10"/>
    <g id="xtick_11"/>
    <g id="text_7">
     <!-- Year -->
     <g transform="translate(259.4525 264.016875)scale(0.16 -0.16)">
      <defs>
       <path id="DejaVuSans-59" d="M -13 4666 
L 666 4666 
L 1959 2747 
L 3244 4666 
L 3922 4666 
L 2272 2222 
L 2272 0 
L 1638 0 
L 1638 2222 
L -13 4666 
z
" transform="scale(0.015625)"/>
       <path id="DejaVuSans-65" d="M 3597 1894 
L 3597 1613 
L 953 1613 
Q 991 1019 1311 708 
Q 1631 397 2203 397 
Q 2534 397 2845 478 
Q 3156 559 3463 722 
L 3463 178 
Q 3153 47 2828 -22 
Q 2503 -91 2169 -91 
Q 1331 -91 842 396 
Q 353 884 353 1716 
Q 353 2575 817 3079 
Q 1281 3584 2069 3584 
Q 2775 3584 3186 3129 
Q 3597 2675 3597 1894 
z
M 3022 2063 
Q 3016 2534 2758 2815 
Q 2500 3097 2075 3097 
Q 1594 3097 1305 2825 
Q 1016 2553 972 2059 
L 3022 2063 
z
" transform="scale(0.015625)"/>
       <path id="DejaVuSans-61" d="M 2194 1759 
Q 1497 1759 1228 1600 
Q 959 1441 959 1056 
Q 959 750 1161 570 
Q 1363 391 1709 391 
Q 2188 391 2477 730 
Q 2766 1069 2766 1631 
L 2766 1759 
L 2194 1759 
z
M 3341 1997 
L 3341 0 
L 2766 0 
L 2766 531 
Q 2569 213 2275 61 
Q 1981 -91 1556 -91 
Q 1019 -91 701 211 
Q 384 513 384 1019 
Q 384 1609 779 1909 
Q 1175 2209 1959 2209 
L 2766 2209 
L 2766 2266 
Q 2766 2663 2505 2880 
Q 2244 3097 1772 3097 
Q 1472 3097 1187 3025 
Q 903 2953 641 2809 
L 641 3341 
Q 956 3463 1253 3523 
Q 1550 3584 1831 3584 
Q 2591 3584 2966 3190 
Q 3341 2797 3341 1997 
z
" transform="scale(0.015625)"/>
       <path id="DejaVuSans-72" d="M 2631 2963 
Q 2534 3019 2420 3045 
Q 2306 3072 2169 3072 
Q 1681 3072 1420 2755 
Q 1159 2438 1159 1844 
L 1159 0 
L 581 0 
L 581 3500 
L 1159 3500 
L 1159 2956 
Q 1341 3275 1631 3429 
Q 1922 3584 2338 3584 
Q 2397 3584 2469 3576 
Q 2541 3569 2628 3553 
L 2631 2963 
z
" transform="scale(0.015625)"/>
      </defs>
      <use xlink:href="#DejaVuSans-59"/>
      <use xlink:href="#DejaVuSans-65" x="47.833984"/>
      <use xlink:href="#DejaVuSans-61" x="109.357422"/>
      <use xlink:href="#DejaVuSans-72" x="170.636719"/>
     </g>
    </g>
   </g>
   <g id="matplotlib.axis_2">
    <g id="ytick_1">
     <g id="line2d_7">
      <path d="M 60.3925 218.88 
" style="fill: none; stroke: #333333; stroke-width: 1.5"/>
      <defs>
       <path id="m9558da4f95" d="M 0 0 
L -2.75 0 
" style="stroke: #000000"/>
      </defs>
      <g>
       <use xlink:href="#m9558da4f95" x="60.3925" y="218.88" style="fill: #333333; stroke: #000000"/>
      </g>
     </g>
     <g id="text_8">
      <!-- 0 -->
      <g transform="translate(46.535 222.743125)scale(0.14 -0.14)">
       <use xlink:href="#DejaVuSans-30"/>
      </g>
     </g>
    </g>
    <g id="ytick_2">
     <g id="line2d_8">
      <path d="M 60.3925 168.48 
" style="fill: none; stroke: #333333; stroke-width: 1.5"/>
      <g>
       <use xlink:href="#m9558da4f95" x="60.3925" y="168.48" style="fill: #333333; stroke: #000000"/>
      </g>
     </g>
     <g id="text_9">
      <!-- 25 -->
      <g transform="translate(37.6275 172.343125)scale(0.14 -0.14)">
       <defs>
        <path id="DejaVuSans-35" d="M 691 4666 
L 3169 4666 
L 3169 4134 
L 1269 4134 
L 1269 2991 
Q 1406 3038 1543 3061 
Q 1681 3084 1819 3084 
Q 2600 3084 3056 2656 
Q 3513 2228 3513 1497 
Q 3513 744 3044 326 
Q 2575 -91 1722 -91 
Q 1428 -91 1123 -41 
Q 819 9 494 109 
L 494 744 
Q 775 591 1075 516 
Q 1375 441 1709 441 
Q 2250 441 2565 725 
Q 2881 1009 2881 1497 
Q 2881 1984 2565 2268 
Q 2250 2553 1709 2553 
Q 1456 2553 1204 2497 
Q 953 2441 691 2322 
L 691 4666 
z
" transform="scale(0.015625)"/>
       </defs>
       <use xlink:href="#DejaVuSans-32"/>
       <use xlink:href="#DejaVuSans-35" x="63.623047"/>
      </g>
     </g>
    </g>
    <g id="ytick_3">
     <g id="line2d_9">
      <path d="M 60.3925 118.08 
" style="fill: none; stroke: #333333; stroke-width: 1.5"/>
      <g>
       <use xlink:href="#m9558da4f95" x="60.3925" y="118.08" style="fill: #333333; stroke: #000000"/>
      </g>
     </g>
     <g id="text_10">
      <!-- 50 -->
      <g transform="translate(37.6275 121.943125)scale(0.14 -0.14)">
       <use xlink:href="#DejaVuSans-35"/>
       <use xlink:href="#DejaVuSans-30" x="63.623047"/>
      </g>
     </g>
    </g>
    <g id="ytick_4">
     <g id="line2d_10">
      <path d="M 60.3925 67.68 
" style="fill: none; stroke: #333333; stroke-width: 1.5"/>
      <g>
       <use xlink:href="#m9558da4f95" x="60.3925" y="67.68" style="fill: #333333; stroke: #000000"/>
      </g>
     </g>
     <g id="text_11">
      <!-- 75 -->
      <g transform="translate(37.6275 71.543125)scale(0.14 -0.14)">
       <use xlink:href="#DejaVuSans-37"/>
       <use xlink:href="#DejaVuSans-35" x="63.623047"/>
      </g>
     </g>
    </g>
    <g id="ytick_5">
     <g id="line2d_11">
      <path d="M 60.3925 17.28 
" style="fill: none; stroke: #333333; stroke-width: 1.5"/>
      <g>
       <use xlink:href="#m9558da4f95" x="60.3925" y="17.28" style="fill: #333333; stroke: #000000"/>
      </g>
     </g>
     <g id="text_12">
      <!-- 100 -->
      <g transform="translate(28.72 21.143125)scale(0.14 -0.14)">
       <use xlink:href="#DejaVuSans-31"/>
       <use xlink:href="#DejaVuSans-30" x="63.623047"/>
       <use xlink:href="#DejaVuSans-30" x="127.246094"/>
      </g>
     </g>
    </g>
    <g id="ytick_6"/>
    <g id="ytick_7"/>
    <g id="ytick_8"/>
    <g id="ytick_9"/>
    <g id="text_13">
     <!-- $P_{Q1p}$ [%] -->
     <g transform="translate(19.36 149.6)rotate(-90)scale(0.16 -0.16)">
      <defs>
       <path id="DejaVuSans-Oblique-50" d="M 1081 4666 
L 2541 4666 
Q 3178 4666 3512 4369 
Q 3847 4072 3847 3500 
Q 3847 2731 3353 2303 
Q 2859 1875 1966 1875 
L 1172 1875 
L 806 0 
L 172 0 
L 1081 4666 
z
M 1613 4147 
L 1275 2394 
L 2069 2394 
Q 2606 2394 2893 2669 
Q 3181 2944 3181 3456 
Q 3181 3784 2986 3965 
Q 2791 4147 2438 4147 
L 1613 4147 
z
" transform="scale(0.015625)"/>
       <path id="DejaVuSans-Oblique-51" d="M 2309 -84 
Q 2275 -88 2237 -89 
Q 2200 -91 2125 -91 
Q 1250 -91 756 411 
Q 263 913 263 1797 
Q 263 2319 452 2844 
Q 641 3369 978 3788 
Q 1369 4269 1858 4509 
Q 2347 4750 2938 4750 
Q 3794 4750 4287 4245 
Q 4781 3741 4781 2869 
Q 4781 1928 4265 1147 
Q 3750 366 2919 44 
L 3553 -825 
L 2847 -825 
L 2309 -84 
z
M 2919 4238 
Q 2400 4238 2003 3986 
Q 1606 3734 1313 3219 
Q 1125 2891 1026 2522 
Q 928 2153 928 1778 
Q 928 1128 1239 775 
Q 1550 422 2119 422 
Q 2631 422 3032 676 
Q 3434 931 3719 1434 
Q 3909 1772 4009 2142 
Q 4109 2513 4109 2881 
Q 4109 3528 3796 3883 
Q 3484 4238 2919 4238 
z
" transform="scale(0.015625)"/>
       <path id="DejaVuSans-Oblique-70" d="M 3175 2156 
Q 3175 2616 2975 2859 
Q 2775 3103 2400 3103 
Q 2144 3103 1911 2972 
Q 1678 2841 1497 2591 
Q 1319 2344 1212 1994 
Q 1106 1644 1106 1300 
Q 1106 863 1306 627 
Q 1506 391 1875 391 
Q 2147 391 2380 519 
Q 2613 647 2778 891 
Q 2956 1147 3065 1494 
Q 3175 1841 3175 2156 
z
M 1394 2969 
Q 1625 3272 1939 3428 
Q 2253 3584 2638 3584 
Q 3175 3584 3472 3232 
Q 3769 2881 3769 2247 
Q 3769 1728 3584 1258 
Q 3400 788 3053 416 
Q 2822 169 2531 39 
Q 2241 -91 1919 -91 
Q 1547 -91 1294 64 
Q 1041 219 916 525 
L 556 -1331 
L -19 -1331 
L 922 3500 
L 1497 3500 
L 1394 2969 
z
" transform="scale(0.015625)"/>
       <path id="DejaVuSans-20" transform="scale(0.015625)"/>
       <path id="DejaVuSans-5b" d="M 550 4863 
L 1875 4863 
L 1875 4416 
L 1125 4416 
L 1125 -397 
L 1875 -397 
L 1875 -844 
L 550 -844 
L 550 4863 
z
" transform="scale(0.015625)"/>
       <path id="DejaVuSans-25" d="M 4653 2053 
Q 4381 2053 4226 1822 
Q 4072 1591 4072 1178 
Q 4072 772 4226 539 
Q 4381 306 4653 306 
Q 4919 306 5073 539 
Q 5228 772 5228 1178 
Q 5228 1588 5073 1820 
Q 4919 2053 4653 2053 
z
M 4653 2450 
Q 5147 2450 5437 2106 
Q 5728 1763 5728 1178 
Q 5728 594 5436 251 
Q 5144 -91 4653 -91 
Q 4153 -91 3862 251 
Q 3572 594 3572 1178 
Q 3572 1766 3864 2108 
Q 4156 2450 4653 2450 
z
M 1428 4353 
Q 1159 4353 1004 4120 
Q 850 3888 850 3481 
Q 850 3069 1003 2837 
Q 1156 2606 1428 2606 
Q 1700 2606 1854 2837 
Q 2009 3069 2009 3481 
Q 2009 3884 1853 4118 
Q 1697 4353 1428 4353 
z
M 4250 4750 
L 4750 4750 
L 1831 -91 
L 1331 -91 
L 4250 4750 
z
M 1428 4750 
Q 1922 4750 2215 4408 
Q 2509 4066 2509 3481 
Q 2509 2891 2217 2550 
Q 1925 2209 1428 2209 
Q 931 2209 642 2551 
Q 353 2894 353 3481 
Q 353 4063 643 4406 
Q 934 4750 1428 4750 
z
" transform="scale(0.015625)"/>
       <path id="DejaVuSans-5d" d="M 1947 4863 
L 1947 -844 
L 622 -844 
L 622 -397 
L 1369 -397 
L 1369 4416 
L 622 4416 
L 622 4863 
L 1947 4863 
z
" transform="scale(0.015625)"/>
      </defs>
      <use xlink:href="#DejaVuSans-Oblique-50" transform="translate(0 0.015625)"/>
      <use xlink:href="#DejaVuSans-Oblique-51" transform="translate(60.302734 -16.390625)scale(0.7)"/>
      <use xlink:href="#DejaVuSans-31" transform="translate(115.400391 -16.390625)scale(0.7)"/>
      <use xlink:href="#DejaVuSans-Oblique-70" transform="translate(159.936523 -16.390625)scale(0.7)"/>
      <use xlink:href="#DejaVuSans-20" transform="translate(207.104492 0.015625)"/>
      <use xlink:href="#DejaVuSans-5b" transform="translate(238.891602 0.015625)"/>
      <use xlink:href="#DejaVuSans-25" transform="translate(277.905273 0.015625)"/>
      <use xlink:href="#DejaVuSans-5d" transform="translate(372.924805 0.015625)"/>
     </g>
    </g>
   </g>
   <g id="LineCollection_1">
    <path d="M 275.476136 147.070668 
L 275.476136 147.070668 
" clip-path="url(#pd98317635d)" style="fill: none; stroke: #9da0a2; stroke-width: 1.32934"/>
    <path d="M 283.5925 138.782218 
L 283.5925 138.782218 
" clip-path="url(#pd98317635d)" style="fill: none; stroke: #9da0a2; stroke-width: 1.32934"/>
    <path d="M 291.708864 147.31418 
L 291.708864 147.31418 
" clip-path="url(#pd98317635d)" style="fill: none; stroke: #9da0a2; stroke-width: 1.32934"/>
    <path d="M 299.825227 150.774116 
L 299.825227 150.774116 
" clip-path="url(#pd98317635d)" style="fill: none; stroke: #9da0a2; stroke-width: 1.32934"/>
    <path d="M 307.941591 139.52125 
L 307.941591 139.52125 
" clip-path="url(#pd98317635d)" style="fill: none; stroke: #9da0a2; stroke-width: 1.32934"/>
    <path d="M 316.057955 144.830042 
L 316.057955 144.830042 
" clip-path="url(#pd98317635d)" style="fill: none; stroke: #9da0a2; stroke-width: 1.32934"/>
    <path d="M 324.174318 151.64891 
L 324.174318 151.64891 
" clip-path="url(#pd98317635d)" style="fill: none; stroke: #9da0a2; stroke-width: 1.32934"/>
    <path d="M 332.290682 148.818917 
L 332.290682 148.818917 
" clip-path="url(#pd98317635d)" style="fill: none; stroke: #9da0a2; stroke-width: 1.32934"/>
    <path d="M 340.407045 145.890037 
L 340.407045 145.890037 
" clip-path="url(#pd98317635d)" style="fill: none; stroke: #9da0a2; stroke-width: 1.32934"/>
    <path d="M 348.523409 145.259431 
L 348.523409 145.259431 
" clip-path="url(#pd98317635d)" style="fill: none; stroke: #9da0a2; stroke-width: 1.32934"/>
    <path d="M 356.639773 144.053641 
L 356.639773 144.053641 
" clip-path="url(#pd98317635d)" style="fill: none; stroke: #9da0a2; stroke-width: 1.32934"/>
    <path d="M 364.756136 144.341002 
L 364.756136 144.341002 
" clip-path="url(#pd98317635d)" style="fill: none; stroke: #9da0a2; stroke-width: 1.32934"/>
    <path d="M 372.8725 143.285428 
L 372.8725 143.285428 
" clip-path="url(#pd98317635d)" style="fill: none; stroke: #9da0a2; stroke-width: 1.32934"/>
    <path d="M 380.988864 140.475995 
L 380.988864 140.475995 
" clip-path="url(#pd98317635d)" style="fill: none; stroke: #9da0a2; stroke-width: 1.32934"/>
    <path d="M 389.105227 141.524858 
L 389.105227 141.524858 
" clip-path="url(#pd98317635d)" style="fill: none; stroke: #9da0a2; stroke-width: 1.32934"/>
    <path d="M 397.221591 138.543427 
L 397.221591 138.543427 
" clip-path="url(#pd98317635d)" style="fill: none; stroke: #9da0a2; stroke-width: 1.32934"/>
    <path d="M 405.337955 129.83257 
L 405.337955 129.83257 
" clip-path="url(#pd98317635d)" style="fill: none; stroke: #9da0a2; stroke-width: 1.32934"/>
    <path d="M 413.454318 125.550452 
L 413.454318 125.550452 
" clip-path="url(#pd98317635d)" style="fill: none; stroke: #9da0a2; stroke-width: 1.32934"/>
    <path d="M 421.570682 120.661693 
L 421.570682 120.661693 
" clip-path="url(#pd98317635d)" style="fill: none; stroke: #9da0a2; stroke-width: 1.32934"/>
    <path d="M 429.687045 114.39718 
L 429.687045 114.39718 
" clip-path="url(#pd98317635d)" style="fill: none; stroke: #9da0a2; stroke-width: 1.32934"/>
    <path d="M 437.803409 108.240397 
L 437.803409 108.240397 
" clip-path="url(#pd98317635d)" style="fill: none; stroke: #9da0a2; stroke-width: 1.32934"/>
    <path d="M 445.919773 104.892108 
L 445.919773 104.892108 
" clip-path="url(#pd98317635d)" style="fill: none; stroke: #9da0a2; stroke-width: 1.32934"/>
    <path d="M 454.036136 98.342856 
L 454.036136 98.342856 
" clip-path="url(#pd98317635d)" style="fill: none; stroke: #9da0a2; stroke-width: 1.32934"/>
    <path d="M 462.1525 102.97159 
L 462.1525 102.97159 
" clip-path="url(#pd98317635d)" style="fill: none; stroke: #9da0a2; stroke-width: 1.32934"/>
    <path d="M 470.268864 105.367536 
L 470.268864 105.367536 
" clip-path="url(#pd98317635d)" style="fill: none; stroke: #9da0a2; stroke-width: 1.32934"/>
    <path d="M 478.385227 106.440384 
L 478.385227 106.440384 
" clip-path="url(#pd98317635d)" style="fill: none; stroke: #9da0a2; stroke-width: 1.32934"/>
    <path d="M 486.501591 103.959816 
" clip-path="url(#pd98317635d)" style="fill: none; stroke: #9da0a2; stroke-width: 1.32934"/>
    <path d="M 275.476136 119.258069 
L 275.476136 119.258069 
" clip-path="url(#pd98317635d)" style="fill: none; stroke: #9da0a2; stroke-width: 1.32934"/>
    <path d="M 283.5925 129.137832 
L 283.5925 129.137832 
" clip-path="url(#pd98317635d)" style="fill: none; stroke: #9da0a2; stroke-width: 1.32934"/>
    <path d="M 291.708864 140.24225 
L 291.708864 140.24225 
" clip-path="url(#pd98317635d)" style="fill: none; stroke: #9da0a2; stroke-width: 1.32934"/>
    <path d="M 299.825227 146.557329 
L 299.825227 146.557329 
" clip-path="url(#pd98317635d)" style="fill: none; stroke: #9da0a2; stroke-width: 1.32934"/>
    <path d="M 307.941591 135.185142 
L 307.941591 135.185142 
" clip-path="url(#pd98317635d)" style="fill: none; stroke: #9da0a2; stroke-width: 1.32934"/>
    <path d="M 316.057955 141.078086 
L 316.057955 141.078086 
" clip-path="url(#pd98317635d)" style="fill: none; stroke: #9da0a2; stroke-width: 1.32934"/>
    <path d="M 324.174318 148.669116 
L 324.174318 148.669116 
" clip-path="url(#pd98317635d)" style="fill: none; stroke: #9da0a2; stroke-width: 1.32934"/>
    <path d="M 332.290682 146.120571 
L 332.290682 146.120571 
" clip-path="url(#pd98317635d)" style="fill: none; stroke: #9da0a2; stroke-width: 1.32934"/>
    <path d="M 340.407045 143.291688 
L 340.407045 143.291688 
" clip-path="url(#pd98317635d)" style="fill: none; stroke: #9da0a2; stroke-width: 1.32934"/>
    <path d="M 348.523409 143.213223 
L 348.523409 143.213223 
" clip-path="url(#pd98317635d)" style="fill: none; stroke: #9da0a2; stroke-width: 1.32934"/>
    <path d="M 356.639773 142.166593 
L 356.639773 142.166593 
" clip-path="url(#pd98317635d)" style="fill: none; stroke: #9da0a2; stroke-width: 1.32934"/>
    <path d="M 364.756136 142.678911 
L 364.756136 142.678911 
" clip-path="url(#pd98317635d)" style="fill: none; stroke: #9da0a2; stroke-width: 1.32934"/>
    <path d="M 372.8725 141.715065 
L 372.8725 141.715065 
" clip-path="url(#pd98317635d)" style="fill: none; stroke: #9da0a2; stroke-width: 1.32934"/>
    <path d="M 380.988864 139.048178 
L 380.988864 139.048178 
" clip-path="url(#pd98317635d)" style="fill: none; stroke: #9da0a2; stroke-width: 1.32934"/>
    <path d="M 389.105227 140.071765 
L 389.105227 140.071765 
" clip-path="url(#pd98317635d)" style="fill: none; stroke: #9da0a2; stroke-width: 1.32934"/>
    <path d="M 397.221591 137.207846 
L 397.221591 137.207846 
" clip-path="url(#pd98317635d)" style="fill: none; stroke: #9da0a2; stroke-width: 1.32934"/>
    <path d="M 405.337955 128.514718 
L 405.337955 128.514718 
" clip-path="url(#pd98317635d)" style="fill: none; stroke: #9da0a2; stroke-width: 1.32934"/>
    <path d="M 413.454318 124.244691 
L 413.454318 124.244691 
" clip-path="url(#pd98317635d)" style="fill: none; stroke: #9da0a2; stroke-width: 1.32934"/>
    <path d="M 421.570682 119.426857 
L 421.570682 119.426857 
" clip-path="url(#pd98317635d)" style="fill: none; stroke: #9da0a2; stroke-width: 1.32934"/>
    <path d="M 429.687045 113.16831 
L 429.687045 113.16831 
" clip-path="url(#pd98317635d)" style="fill: none; stroke: #9da0a2; stroke-width: 1.32934"/>
    <path d="M 437.803409 107.011336 
L 437.803409 107.011336 
" clip-path="url(#pd98317635d)" style="fill: none; stroke: #9da0a2; stroke-width: 1.32934"/>
    <path d="M 445.919773 103.706046 
L 445.919773 103.706046 
" clip-path="url(#pd98317635d)" style="fill: none; stroke: #9da0a2; stroke-width: 1.32934"/>
    <path d="M 454.036136 97.186374 
L 454.036136 97.186374 
" clip-path="url(#pd98317635d)" style="fill: none; stroke: #9da0a2; stroke-width: 1.32934"/>
    <path d="M 462.1525 101.920019 
L 462.1525 101.920019 
" clip-path="url(#pd98317635d)" style="fill: none; stroke: #9da0a2; stroke-width: 1.32934"/>
    <path d="M 470.268864 104.216959 
L 470.268864 104.216959 
" clip-path="url(#pd98317635d)" style="fill: none; stroke: #9da0a2; stroke-width: 1.32934"/>
    <path d="M 478.385227 104.96629 
L 478.385227 104.96629 
" clip-path="url(#pd98317635d)" style="fill: none; stroke: #9da0a2; stroke-width: 1.32934"/>
    <path d="M 486.501591 102.409266 
" clip-path="url(#pd98317635d)" style="fill: none; stroke: #9da0a2; stroke-width: 1.32934"/>
    <path d="M 275.476136 119.258069 
L 275.476136 147.070668 
" clip-path="url(#pd98317635d)" style="fill: none; stroke: #9da0a2; stroke-width: 1.32934"/>
    <path d="M 283.5925 129.137832 
L 283.5925 138.782218 
" clip-path="url(#pd98317635d)" style="fill: none; stroke: #9da0a2; stroke-width: 1.32934"/>
    <path d="M 291.708864 140.24225 
L 291.708864 147.31418 
" clip-path="url(#pd98317635d)" style="fill: none; stroke: #9da0a2; stroke-width: 1.32934"/>
    <path d="M 299.825227 146.557329 
L 299.825227 150.774116 
" clip-path="url(#pd98317635d)" style="fill: none; stroke: #9da0a2; stroke-width: 1.32934"/>
    <path d="M 307.941591 135.185142 
L 307.941591 139.52125 
" clip-path="url(#pd98317635d)" style="fill: none; stroke: #9da0a2; stroke-width: 1.32934"/>
    <path d="M 316.057955 141.078086 
L 316.057955 144.830042 
" clip-path="url(#pd98317635d)" style="fill: none; stroke: #9da0a2; stroke-width: 1.32934"/>
    <path d="M 324.174318 148.669116 
L 324.174318 151.64891 
" clip-path="url(#pd98317635d)" style="fill: none; stroke: #9da0a2; stroke-width: 1.32934"/>
    <path d="M 332.290682 146.120571 
L 332.290682 148.818917 
" clip-path="url(#pd98317635d)" style="fill: none; stroke: #9da0a2; stroke-width: 1.32934"/>
    <path d="M 340.407045 143.291688 
L 340.407045 145.890037 
" clip-path="url(#pd98317635d)" style="fill: none; stroke: #9da0a2; stroke-width: 1.32934"/>
    <path d="M 348.523409 143.213223 
L 348.523409 145.259431 
" clip-path="url(#pd98317635d)" style="fill: none; stroke: #9da0a2; stroke-width: 1.32934"/>
    <path d="M 356.639773 142.166593 
L 356.639773 144.053641 
" clip-path="url(#pd98317635d)" style="fill: none; stroke: #9da0a2; stroke-width: 1.32934"/>
    <path d="M 364.756136 142.678911 
L 364.756136 144.341002 
" clip-path="url(#pd98317635d)" style="fill: none; stroke: #9da0a2; stroke-width: 1.32934"/>
    <path d="M 372.8725 141.715065 
L 372.8725 143.285428 
" clip-path="url(#pd98317635d)" style="fill: none; stroke: #9da0a2; stroke-width: 1.32934"/>
    <path d="M 380.988864 139.048178 
L 380.988864 140.475995 
" clip-path="url(#pd98317635d)" style="fill: none; stroke: #9da0a2; stroke-width: 1.32934"/>
    <path d="M 389.105227 140.071765 
L 389.105227 141.524858 
" clip-path="url(#pd98317635d)" style="fill: none; stroke: #9da0a2; stroke-width: 1.32934"/>
    <path d="M 397.221591 137.207846 
L 397.221591 138.543427 
" clip-path="url(#pd98317635d)" style="fill: none; stroke: #9da0a2; stroke-width: 1.32934"/>
    <path d="M 405.337955 128.514718 
L 405.337955 129.83257 
" clip-path="url(#pd98317635d)" style="fill: none; stroke: #9da0a2; stroke-width: 1.32934"/>
    <path d="M 413.454318 124.244691 
L 413.454318 125.550452 
" clip-path="url(#pd98317635d)" style="fill: none; stroke: #9da0a2; stroke-width: 1.32934"/>
    <path d="M 421.570682 119.426857 
L 421.570682 120.661693 
" clip-path="url(#pd98317635d)" style="fill: none; stroke: #9da0a2; stroke-width: 1.32934"/>
    <path d="M 429.687045 113.16831 
L 429.687045 114.39718 
" clip-path="url(#pd98317635d)" style="fill: none; stroke: #9da0a2; stroke-width: 1.32934"/>
    <path d="M 437.803409 107.011336 
L 437.803409 108.240397 
" clip-path="url(#pd98317635d)" style="fill: none; stroke: #9da0a2; stroke-width: 1.32934"/>
    <path d="M 445.919773 103.706046 
L 445.919773 104.892108 
" clip-path="url(#pd98317635d)" style="fill: none; stroke: #9da0a2; stroke-width: 1.32934"/>
    <path d="M 454.036136 97.186374 
L 454.036136 98.342856 
" clip-path="url(#pd98317635d)" style="fill: none; stroke: #9da0a2; stroke-width: 1.32934"/>
    <path d="M 462.1525 101.920019 
L 462.1525 102.97159 
" clip-path="url(#pd98317635d)" style="fill: none; stroke: #9da0a2; stroke-width: 1.32934"/>
    <path d="M 470.268864 104.216959 
L 470.268864 105.367536 
" clip-path="url(#pd98317635d)" style="fill: none; stroke: #9da0a2; stroke-width: 1.32934"/>
    <path d="M 478.385227 104.96629 
L 478.385227 106.440384 
" clip-path="url(#pd98317635d)" style="fill: none; stroke: #9da0a2; stroke-width: 1.32934"/>
    <path d="M 486.501591 102.409266 
L 486.501591 103.959816 
" clip-path="url(#pd98317635d)" style="fill: none; stroke: #9da0a2; stroke-width: 1.32934"/>
   </g>
   <g id="line2d_12">
    <path d="M 267.359773 44.144409 
L 275.476136 133.164369 
L 283.5925 133.960025 
L 291.708864 143.778215 
L 299.825227 148.665723 
L 307.941591 137.353196 
L 316.057955 142.954064 
L 324.174318 150.159013 
L 332.290682 147.469744 
L 340.407045 144.590862 
L 348.523409 144.236327 
L 356.639773 143.110117 
L 364.756136 143.509956 
L 372.8725 142.500247 
L 380.988864 139.762086 
L 389.105227 140.798312 
L 397.221591 137.875637 
L 405.337955 129.173644 
L 413.454318 124.897571 
L 421.570682 120.044275 
L 429.687045 113.782745 
L 437.803409 107.625866 
L 445.919773 104.299077 
L 454.036136 97.764615 
L 462.1525 102.445805 
L 470.268864 104.792247 
L 478.385227 105.703337 
L 486.501591 103.184541 
" clip-path="url(#pd98317635d)" style="fill: none; stroke: #ee7733; stroke-width: 0.886227"/>
   </g>
   <g id="patch_3">
    <path d="M 60.3925 228.96 
L 60.3925 7.2 
" style="fill: none; stroke: #000000; stroke-linejoin: miter; stroke-linecap: square"/>
   </g>
   <g id="patch_4">
    <path d="M 60.3925 228.96 
L 506.7925 228.96 
" style="fill: none; stroke: #000000; stroke-linejoin: miter; stroke-linecap: square"/>
   </g>
   <g id="PathCollection_1">
    <path d="M 267.359773 45.916863 
C 267.829833 45.916863 268.280704 45.730106 268.613087 45.397724 
C 268.94547 45.065341 269.132227 44.61447 269.132227 44.144409 
C 269.132227 43.674349 268.94547 43.223478 268.613087 42.891095 
C 268.280704 42.558713 267.829833 42.371956 267.359773 42.371956 
C 266.889712 42.371956 266.438841 42.558713 266.106459 42.891095 
C 265.774076 43.223478 265.587319 43.674349 265.587319 44.144409 
C 265.587319 44.61447 265.774076 45.065341 266.106459 45.397724 
C 266.438841 45.730106 266.889712 45.916863 267.359773 45.916863 
z
" clip-path="url(#pd98317635d)" style="fill: #ee7733; stroke: #ee7733; stroke-width: 0.886227"/>
    <path d="M 275.476136 134.936823 
C 275.946197 134.936823 276.397068 134.750066 276.729451 134.417683 
C 277.061833 134.0853 277.24859 133.634429 277.24859 133.164369 
C 277.24859 132.694308 277.061833 132.243437 276.729451 131.911055 
C 276.397068 131.578672 275.946197 131.391915 275.476136 131.391915 
C 275.006076 131.391915 274.555205 131.578672 274.222822 131.911055 
C 273.890439 132.243437 273.703683 132.694308 273.703683 133.164369 
C 273.703683 133.634429 273.890439 134.0853 274.222822 134.417683 
C 274.555205 134.750066 275.006076 134.936823 275.476136 134.936823 
z
" clip-path="url(#pd98317635d)" style="fill: #ee7733; stroke: #ee7733; stroke-width: 0.886227"/>
    <path d="M 283.5925 135.732479 
C 284.06256 135.732479 284.513431 135.545722 284.845814 135.213339 
C 285.178197 134.880956 285.364954 134.430085 285.364954 133.960025 
C 285.364954 133.489965 285.178197 133.039094 284.845814 132.706711 
C 284.513431 132.374328 284.06256 132.187571 283.5925 132.187571 
C 283.12244 132.187571 282.671569 132.374328 282.339186 132.706711 
C 282.006803 133.039094 281.820046 133.489965 281.820046 133.960025 
C 281.820046 134.430085 282.006803 134.880956 282.339186 135.213339 
C 282.671569 135.545722 283.12244 135.732479 283.5925 135.732479 
z
" clip-path="url(#pd98317635d)" style="fill: #ee7733; stroke: #ee7733; stroke-width: 0.886227"/>
    <path d="M 291.708864 145.550669 
C 292.178924 145.550669 292.629795 145.363912 292.962178 145.031529 
C 293.294561 144.699146 293.481317 144.248275 293.481317 143.778215 
C 293.481317 143.308155 293.294561 142.857284 292.962178 142.524901 
C 292.629795 142.192518 292.178924 142.005761 291.708864 142.005761 
C 291.238803 142.005761 290.787932 142.192518 290.455549 142.524901 
C 290.123167 142.857284 289.93641 143.308155 289.93641 143.778215 
C 289.93641 144.248275 290.123167 144.699146 290.455549 145.031529 
C 290.787932 145.363912 291.238803 145.550669 291.708864 145.550669 
z
" clip-path="url(#pd98317635d)" style="fill: #ee7733; stroke: #ee7733; stroke-width: 0.886227"/>
    <path d="M 299.825227 150.438177 
C 300.295288 150.438177 300.746159 150.25142 301.078541 149.919037 
C 301.410924 149.586654 301.597681 149.135783 301.597681 148.665723 
C 301.597681 148.195662 301.410924 147.744791 301.078541 147.412409 
C 300.746159 147.080026 300.295288 146.893269 299.825227 146.893269 
C 299.355167 146.893269 298.904296 147.080026 298.571913 147.412409 
C 298.23953 147.744791 298.052773 148.195662 298.052773 148.665723 
C 298.052773 149.135783 298.23953 149.586654 298.571913 149.919037 
C 298.904296 150.25142 299.355167 150.438177 299.825227 150.438177 
z
" clip-path="url(#pd98317635d)" style="fill: #ee7733; stroke: #ee7733; stroke-width: 0.886227"/>
    <path d="M 307.941591 139.12565 
C 308.411651 139.12565 308.862522 138.938893 309.194905 138.60651 
C 309.527288 138.274127 309.714045 137.823256 309.714045 137.353196 
C 309.714045 136.883136 309.527288 136.432265 309.194905 136.099882 
C 308.862522 135.767499 308.411651 135.580742 307.941591 135.580742 
C 307.471531 135.580742 307.02066 135.767499 306.688277 136.099882 
C 306.355894 136.432265 306.169137 136.883136 306.169137 137.353196 
C 306.169137 137.823256 306.355894 138.274127 306.688277 138.60651 
C 307.02066 138.938893 307.471531 139.12565 307.941591 139.12565 
z
" clip-path="url(#pd98317635d)" style="fill: #ee7733; stroke: #ee7733; stroke-width: 0.886227"/>
    <path d="M 316.057955 144.726518 
C 316.528015 144.726518 316.978886 144.539761 317.311269 144.207378 
C 317.643651 143.874996 317.830408 143.424125 317.830408 142.954064 
C 317.830408 142.484004 317.643651 142.033133 317.311269 141.70075 
C 316.978886 141.368367 316.528015 141.18161 316.057955 141.18161 
C 315.587894 141.18161 315.137023 141.368367 314.80464 141.70075 
C 314.472258 142.033133 314.285501 142.484004 314.285501 142.954064 
C 314.285501 143.424125 314.472258 143.874996 314.80464 144.207378 
C 315.137023 144.539761 315.587894 144.726518 316.057955 144.726518 
z
" clip-path="url(#pd98317635d)" style="fill: #ee7733; stroke: #ee7733; stroke-width: 0.886227"/>
    <path d="M 324.174318 151.931467 
C 324.644378 151.931467 325.09525 151.74471 325.427632 151.412327 
C 325.760015 151.079944 325.946772 150.629073 325.946772 150.159013 
C 325.946772 149.688953 325.760015 149.238082 325.427632 148.905699 
C 325.09525 148.573316 324.644378 148.386559 324.174318 148.386559 
C 323.704258 148.386559 323.253387 148.573316 322.921004 148.905699 
C 322.588621 149.238082 322.401864 149.688953 322.401864 150.159013 
C 322.401864 150.629073 322.588621 151.079944 322.921004 151.412327 
C 323.253387 151.74471 323.704258 151.931467 324.174318 151.931467 
z
" clip-path="url(#pd98317635d)" style="fill: #ee7733; stroke: #ee7733; stroke-width: 0.886227"/>
    <path d="M 332.290682 149.242198 
C 332.760742 149.242198 333.211613 149.055441 333.543996 148.723058 
C 333.876379 148.390675 334.063136 147.939804 334.063136 147.469744 
C 334.063136 146.999684 333.876379 146.548813 333.543996 146.21643 
C 333.211613 145.884047 332.760742 145.69729 332.290682 145.69729 
C 331.820622 145.69729 331.36975 145.884047 331.037368 146.21643 
C 330.704985 146.548813 330.518228 146.999684 330.518228 147.469744 
C 330.518228 147.939804 330.704985 148.390675 331.037368 148.723058 
C 331.36975 149.055441 331.820622 149.242198 332.290682 149.242198 
z
" clip-path="url(#pd98317635d)" style="fill: #ee7733; stroke: #ee7733; stroke-width: 0.886227"/>
    <path d="M 340.407045 146.363316 
C 340.877106 146.363316 341.327977 146.176559 341.66036 145.844177 
C 341.992742 145.511794 342.179499 145.060923 342.179499 144.590862 
C 342.179499 144.120802 341.992742 143.669931 341.66036 143.337548 
C 341.327977 143.005166 340.877106 142.818409 340.407045 142.818409 
C 339.936985 142.818409 339.486114 143.005166 339.153731 143.337548 
C 338.821349 143.669931 338.634592 144.120802 338.634592 144.590862 
C 338.634592 145.060923 338.821349 145.511794 339.153731 145.844177 
C 339.486114 146.176559 339.936985 146.363316 340.407045 146.363316 
z
" clip-path="url(#pd98317635d)" style="fill: #ee7733; stroke: #ee7733; stroke-width: 0.886227"/>
    <path d="M 348.523409 146.008781 
C 348.993469 146.008781 349.44434 145.822024 349.776723 145.489641 
C 350.109106 145.157258 350.295863 144.706387 350.295863 144.236327 
C 350.295863 143.766267 350.109106 143.315396 349.776723 142.983013 
C 349.44434 142.65063 348.993469 142.463873 348.523409 142.463873 
C 348.053349 142.463873 347.602478 142.65063 347.270095 142.983013 
C 346.937712 143.315396 346.750955 143.766267 346.750955 144.236327 
C 346.750955 144.706387 346.937712 145.157258 347.270095 145.489641 
C 347.602478 145.822024 348.053349 146.008781 348.523409 146.008781 
z
" clip-path="url(#pd98317635d)" style="fill: #ee7733; stroke: #ee7733; stroke-width: 0.886227"/>
    <path d="M 356.639773 144.882571 
C 357.109833 144.882571 357.560704 144.695814 357.893087 144.363431 
C 358.22547 144.031048 358.412227 143.580177 358.412227 143.110117 
C 358.412227 142.640057 358.22547 142.189186 357.893087 141.856803 
C 357.560704 141.52442 357.109833 141.337663 356.639773 141.337663 
C 356.169712 141.337663 355.718841 141.52442 355.386459 141.856803 
C 355.054076 142.189186 354.867319 142.640057 354.867319 143.110117 
C 354.867319 143.580177 355.054076 144.031048 355.386459 144.363431 
C 355.718841 144.695814 356.169712 144.882571 356.639773 144.882571 
z
" clip-path="url(#pd98317635d)" style="fill: #ee7733; stroke: #ee7733; stroke-width: 0.886227"/>
    <path d="M 364.756136 145.28241 
C 365.226197 145.28241 365.677068 145.095653 366.009451 144.76327 
C 366.341833 144.430888 366.52859 143.980016 366.52859 143.509956 
C 366.52859 143.039896 366.341833 142.589025 366.009451 142.256642 
C 365.677068 141.924259 365.226197 141.737502 364.756136 141.737502 
C 364.286076 141.737502 363.835205 141.924259 363.502822 142.256642 
C 363.170439 142.589025 362.983683 143.039896 362.983683 143.509956 
C 362.983683 143.980016 363.170439 144.430888 363.502822 144.76327 
C 363.835205 145.095653 364.286076 145.28241 364.756136 145.28241 
z
" clip-path="url(#pd98317635d)" style="fill: #ee7733; stroke: #ee7733; stroke-width: 0.886227"/>
    <path d="M 372.8725 144.2727 
C 373.34256 144.2727 373.793431 144.085944 374.125814 143.753561 
C 374.458197 143.421178 374.644954 142.970307 374.644954 142.500247 
C 374.644954 142.030186 374.458197 141.579315 374.125814 141.246932 
C 373.793431 140.91455 373.34256 140.727793 372.8725 140.727793 
C 372.40244 140.727793 371.951569 140.91455 371.619186 141.246932 
C 371.286803 141.579315 371.100046 142.030186 371.100046 142.500247 
C 371.100046 142.970307 371.286803 143.421178 371.619186 143.753561 
C 371.951569 144.085944 372.40244 144.2727 372.8725 144.2727 
z
" clip-path="url(#pd98317635d)" style="fill: #ee7733; stroke: #ee7733; stroke-width: 0.886227"/>
    <path d="M 380.988864 141.53454 
C 381.458924 141.53454 381.909795 141.347783 382.242178 141.015401 
C 382.574561 140.683018 382.761317 140.232147 382.761317 139.762086 
C 382.761317 139.292026 382.574561 138.841155 382.242178 138.508772 
C 381.909795 138.176389 381.458924 137.989633 380.988864 137.989633 
C 380.518803 137.989633 380.067932 138.176389 379.735549 138.508772 
C 379.403167 138.841155 379.21641 139.292026 379.21641 139.762086 
C 379.21641 140.232147 379.403167 140.683018 379.735549 141.015401 
C 380.067932 141.347783 380.518803 141.53454 380.988864 141.53454 
z
" clip-path="url(#pd98317635d)" style="fill: #ee7733; stroke: #ee7733; stroke-width: 0.886227"/>
    <path d="M 389.105227 142.570765 
C 389.575288 142.570765 390.026159 142.384009 390.358541 142.051626 
C 390.690924 141.719243 390.877681 141.268372 390.877681 140.798312 
C 390.877681 140.328251 390.690924 139.87738 390.358541 139.544997 
C 390.026159 139.212615 389.575288 139.025858 389.105227 139.025858 
C 388.635167 139.025858 388.184296 139.212615 387.851913 139.544997 
C 387.51953 139.87738 387.332773 140.328251 387.332773 140.798312 
C 387.332773 141.268372 387.51953 141.719243 387.851913 142.051626 
C 388.184296 142.384009 388.635167 142.570765 389.105227 142.570765 
z
" clip-path="url(#pd98317635d)" style="fill: #ee7733; stroke: #ee7733; stroke-width: 0.886227"/>
    <path d="M 397.221591 139.648091 
C 397.691651 139.648091 398.142522 139.461334 398.474905 139.128951 
C 398.807288 138.796568 398.994045 138.345697 398.994045 137.875637 
C 398.994045 137.405576 398.807288 136.954705 398.474905 136.622323 
C 398.142522 136.28994 397.691651 136.103183 397.221591 136.103183 
C 396.751531 136.103183 396.30066 136.28994 395.968277 136.622323 
C 395.635894 136.954705 395.449137 137.405576 395.449137 137.875637 
C 395.449137 138.345697 395.635894 138.796568 395.968277 139.128951 
C 396.30066 139.461334 396.751531 139.648091 397.221591 139.648091 
z
" clip-path="url(#pd98317635d)" style="fill: #ee7733; stroke: #ee7733; stroke-width: 0.886227"/>
    <path d="M 405.337955 130.946098 
C 405.808015 130.946098 406.258886 130.759341 406.591269 130.426958 
C 406.923651 130.094575 407.110408 129.643704 407.110408 129.173644 
C 407.110408 128.703584 406.923651 128.252713 406.591269 127.92033 
C 406.258886 127.587947 405.808015 127.40119 405.337955 127.40119 
C 404.867894 127.40119 404.417023 127.587947 404.08464 127.92033 
C 403.752258 128.252713 403.565501 128.703584 403.565501 129.173644 
C 403.565501 129.643704 403.752258 130.094575 404.08464 130.426958 
C 404.417023 130.759341 404.867894 130.946098 405.337955 130.946098 
z
" clip-path="url(#pd98317635d)" style="fill: #ee7733; stroke: #ee7733; stroke-width: 0.886227"/>
    <path d="M 413.454318 126.670025 
C 413.924378 126.670025 414.37525 126.483268 414.707632 126.150885 
C 415.040015 125.818502 415.226772 125.367631 415.226772 124.897571 
C 415.226772 124.427511 415.040015 123.97664 414.707632 123.644257 
C 414.37525 123.311874 413.924378 123.125117 413.454318 123.125117 
C 412.984258 123.125117 412.533387 123.311874 412.201004 123.644257 
C 411.868621 123.97664 411.681864 124.427511 411.681864 124.897571 
C 411.681864 125.367631 411.868621 125.818502 412.201004 126.150885 
C 412.533387 126.483268 412.984258 126.670025 413.454318 126.670025 
z
" clip-path="url(#pd98317635d)" style="fill: #ee7733; stroke: #ee7733; stroke-width: 0.886227"/>
    <path d="M 421.570682 121.816729 
C 422.040742 121.816729 422.491613 121.629972 422.823996 121.297589 
C 423.156379 120.965206 423.343136 120.514335 423.343136 120.044275 
C 423.343136 119.574215 423.156379 119.123344 422.823996 118.790961 
C 422.491613 118.458578 422.040742 118.271821 421.570682 118.271821 
C 421.100622 118.271821 420.64975 118.458578 420.317368 118.790961 
C 419.984985 119.123344 419.798228 119.574215 419.798228 120.044275 
C 419.798228 120.514335 419.984985 120.965206 420.317368 121.297589 
C 420.64975 121.629972 421.100622 121.816729 421.570682 121.816729 
z
" clip-path="url(#pd98317635d)" style="fill: #ee7733; stroke: #ee7733; stroke-width: 0.886227"/>
    <path d="M 429.687045 115.555199 
C 430.157106 115.555199 430.607977 115.368442 430.94036 115.036059 
C 431.272742 114.703677 431.459499 114.252805 431.459499 113.782745 
C 431.459499 113.312685 431.272742 112.861814 430.94036 112.529431 
C 430.607977 112.197048 430.157106 112.010291 429.687045 112.010291 
C 429.216985 112.010291 428.766114 112.197048 428.433731 112.529431 
C 428.101349 112.861814 427.914592 113.312685 427.914592 113.782745 
C 427.914592 114.252805 428.101349 114.703677 428.433731 115.036059 
C 428.766114 115.368442 429.216985 115.555199 429.687045 115.555199 
z
" clip-path="url(#pd98317635d)" style="fill: #ee7733; stroke: #ee7733; stroke-width: 0.886227"/>
    <path d="M 437.803409 109.39832 
C 438.273469 109.39832 438.72434 109.211563 439.056723 108.879181 
C 439.389106 108.546798 439.575863 108.095927 439.575863 107.625866 
C 439.575863 107.155806 439.389106 106.704935 439.056723 106.372552 
C 438.72434 106.040169 438.273469 105.853413 437.803409 105.853413 
C 437.333349 105.853413 436.882478 106.040169 436.550095 106.372552 
C 436.217712 106.704935 436.030955 107.155806 436.030955 107.625866 
C 436.030955 108.095927 436.217712 108.546798 436.550095 108.879181 
C 436.882478 109.211563 437.333349 109.39832 437.803409 109.39832 
z
" clip-path="url(#pd98317635d)" style="fill: #ee7733; stroke: #ee7733; stroke-width: 0.886227"/>
    <path d="M 445.919773 106.071531 
C 446.389833 106.071531 446.840704 105.884774 447.173087 105.552392 
C 447.50547 105.220009 447.692227 104.769138 447.692227 104.299077 
C 447.692227 103.829017 447.50547 103.378146 447.173087 103.045763 
C 446.840704 102.71338 446.389833 102.526624 445.919773 102.526624 
C 445.449712 102.526624 444.998841 102.71338 444.666459 103.045763 
C 444.334076 103.378146 444.147319 103.829017 444.147319 104.299077 
C 444.147319 104.769138 444.334076 105.220009 444.666459 105.552392 
C 444.998841 105.884774 445.449712 106.071531 445.919773 106.071531 
z
" clip-path="url(#pd98317635d)" style="fill: #ee7733; stroke: #ee7733; stroke-width: 0.886227"/>
    <path d="M 454.036136 99.537069 
C 454.506197 99.537069 454.957068 99.350312 455.289451 99.017929 
C 455.621833 98.685546 455.80859 98.234675 455.80859 97.764615 
C 455.80859 97.294555 455.621833 96.843684 455.289451 96.511301 
C 454.957068 96.178918 454.506197 95.992161 454.036136 95.992161 
C 453.566076 95.992161 453.115205 96.178918 452.782822 96.511301 
C 452.450439 96.843684 452.263683 97.294555 452.263683 97.764615 
C 452.263683 98.234675 452.450439 98.685546 452.782822 99.017929 
C 453.115205 99.350312 453.566076 99.537069 454.036136 99.537069 
z
" clip-path="url(#pd98317635d)" style="fill: #ee7733; stroke: #ee7733; stroke-width: 0.886227"/>
    <path d="M 462.1525 104.218258 
C 462.62256 104.218258 463.073431 104.031501 463.405814 103.699119 
C 463.738197 103.366736 463.924954 102.915865 463.924954 102.445805 
C 463.924954 101.975744 463.738197 101.524873 463.405814 101.19249 
C 463.073431 100.860108 462.62256 100.673351 462.1525 100.673351 
C 461.68244 100.673351 461.231569 100.860108 460.899186 101.19249 
C 460.566803 101.524873 460.380046 101.975744 460.380046 102.445805 
C 460.380046 102.915865 460.566803 103.366736 460.899186 103.699119 
C 461.231569 104.031501 461.68244 104.218258 462.1525 104.218258 
z
" clip-path="url(#pd98317635d)" style="fill: #ee7733; stroke: #ee7733; stroke-width: 0.886227"/>
    <path d="M 470.268864 106.564701 
C 470.738924 106.564701 471.189795 106.377944 471.522178 106.045561 
C 471.854561 105.713178 472.041317 105.262307 472.041317 104.792247 
C 472.041317 104.322187 471.854561 103.871316 471.522178 103.538933 
C 471.189795 103.20655 470.738924 103.019793 470.268864 103.019793 
C 469.798803 103.019793 469.347932 103.20655 469.015549 103.538933 
C 468.683167 103.871316 468.49641 104.322187 468.49641 104.792247 
C 468.49641 105.262307 468.683167 105.713178 469.015549 106.045561 
C 469.347932 106.377944 469.798803 106.564701 470.268864 106.564701 
z
" clip-path="url(#pd98317635d)" style="fill: #ee7733; stroke: #ee7733; stroke-width: 0.886227"/>
    <path d="M 478.385227 107.475791 
C 478.855288 107.475791 479.306159 107.289034 479.638541 106.956651 
C 479.970924 106.624269 480.157681 106.173398 480.157681 105.703337 
C 480.157681 105.233277 479.970924 104.782406 479.638541 104.450023 
C 479.306159 104.11764 478.855288 103.930883 478.385227 103.930883 
C 477.915167 103.930883 477.464296 104.11764 477.131913 104.450023 
C 476.79953 104.782406 476.612773 105.233277 476.612773 105.703337 
C 476.612773 106.173398 476.79953 106.624269 477.131913 106.956651 
C 477.464296 107.289034 477.915167 107.475791 478.385227 107.475791 
z
" clip-path="url(#pd98317635d)" style="fill: #ee7733; stroke: #ee7733; stroke-width: 0.886227"/>
    <path d="M 486.501591 104.956995 
C 486.971651 104.956995 487.422522 104.770238 487.754905 104.437855 
C 488.087288 104.105472 488.274045 103.654601 488.274045 103.184541 
C 488.274045 102.714481 488.087288 102.263609 487.754905 101.931227 
C 487.422522 101.598844 486.971651 101.412087 486.501591 101.412087 
C 486.031531 101.412087 485.58066 101.598844 485.248277 101.931227 
C 484.915894 102.263609 484.729137 102.714481 484.729137 103.184541 
C 484.729137 103.654601 484.915894 104.105472 485.248277 104.437855 
C 485.58066 104.770238 486.031531 104.956995 486.501591 104.956995 
z
" clip-path="url(#pd98317635d)" style="fill: #ee7733; stroke: #ee7733; stroke-width: 0.886227"/>
   </g>
  </g>
 </g>
 <defs>
  <clipPath id="pd98317635d">
   <rect x="60.3925" y="7.2" width="446.4" height="221.76"/>
  </clipPath>
 </defs>
</svg>
