<?xml version="1.0" encoding="utf-8" standalone="no"?>
<!DOCTYPE svg PUBLIC "-//W3C//DTD SVG 1.1//EN"
  "http://www.w3.org/Graphics/SVG/1.1/DTD/svg11.dtd">
<!-- Created with matplotlib (https://matplotlib.org/) -->
<svg height="264.672687pt" version="1.1" viewBox="0 0 498.717 264.672687" width="498.717pt" xmlns="http://www.w3.org/2000/svg" xmlns:xlink="http://www.w3.org/1999/xlink">
 <defs>
  <style type="text/css">
*{stroke-linecap:butt;stroke-linejoin:round;}
  </style>
 </defs>
 <g id="figure_1">
  <g id="patch_1">
   <path d="M 0 264.672687 
L 498.717 264.672687 
L 498.717 0 
L 0 0 
z
" style="fill:#ffffff;stroke:#ffffff;stroke-linejoin:miter;"/>
  </g>
  <g id="axes_1">
   <g id="patch_2">
    <path d="M 45.117 228.96 
L 491.517 228.96 
L 491.517 7.2 
L 45.117 7.2 
z
" style="fill:#ffffff;stroke:#7f7f7f;stroke-linejoin:miter;"/>
   </g>
   <g id="matplotlib.axis_1">
    <g id="xtick_1">
     <g id="line2d_1">
      <path clip-path="url(#p4c8a4e8990)" d="M 65.407909 228.96 
L 65.407909 7.2 
" style="fill:none;stroke:#e5e5e5;stroke-width:0.8;"/>
     </g>
     <g id="line2d_2">
      <path d="M 65.407909 228.96 
" style="fill:none;stroke:#000000;stroke-width:1.5;"/>
      <defs>
       <path d="M 0 0 
L 0 2.75 
" id="mb2ac83bb3d" style="stroke:#000000;"/>
      </defs>
      <g>
       <use style="stroke:#000000;" x="65.407909" xlink:href="#mb2ac83bb3d" y="228.96"/>
      </g>
     </g>
     <g id="text_1">
      <!-- 1 -->
      <defs>
       <path d="M 12.40625 8.296875 
L 28.515625 8.296875 
L 28.515625 63.921875 
L 10.984375 60.40625 
L 10.984375 69.390625 
L 28.421875 72.90625 
L 38.28125 72.90625 
L 38.28125 8.296875 
L 54.390625 8.296875 
L 54.390625 0 
L 12.40625 0 
z
" id="DejaVuSans-49"/>
      </defs>
      <g transform="translate(62.608409 240.596625)scale(0.088 -0.088)">
       <use xlink:href="#DejaVuSans-49"/>
      </g>
     </g>
    </g>
    <g id="xtick_2">
     <g id="line2d_3">
      <path clip-path="url(#p4c8a4e8990)" d="M 200.680636 228.96 
L 200.680636 7.2 
" style="fill:none;stroke:#e5e5e5;stroke-width:0.8;"/>
     </g>
     <g id="line2d_4">
      <path d="M 200.680636 228.96 
" style="fill:none;stroke:#000000;stroke-width:1.5;"/>
      <g>
       <use style="stroke:#000000;" x="200.680636" xlink:href="#mb2ac83bb3d" y="228.96"/>
      </g>
     </g>
     <g id="text_2">
      <!-- 2 -->
      <defs>
       <path d="M 19.1875 8.296875 
L 53.609375 8.296875 
L 53.609375 0 
L 7.328125 0 
L 7.328125 8.296875 
Q 12.9375 14.109375 22.625 23.890625 
Q 32.328125 33.6875 34.8125 36.53125 
Q 39.546875 41.84375 41.421875 45.53125 
Q 43.3125 49.21875 43.3125 52.78125 
Q 43.3125 58.59375 39.234375 62.25 
Q 35.15625 65.921875 28.609375 65.921875 
Q 23.96875 65.921875 18.8125 64.3125 
Q 13.671875 62.703125 7.8125 59.421875 
L 7.8125 69.390625 
Q 13.765625 71.78125 18.9375 73 
Q 24.125 74.21875 28.421875 74.21875 
Q 39.75 74.21875 46.484375 68.546875 
Q 53.21875 62.890625 53.21875 53.421875 
Q 53.21875 48.921875 51.53125 44.890625 
Q 49.859375 40.875 45.40625 35.40625 
Q 44.1875 33.984375 37.640625 27.21875 
Q 31.109375 20.453125 19.1875 8.296875 
z
" id="DejaVuSans-50"/>
      </defs>
      <g transform="translate(197.881136 240.596625)scale(0.088 -0.088)">
       <use xlink:href="#DejaVuSans-50"/>
      </g>
     </g>
    </g>
    <g id="xtick_3">
     <g id="line2d_5">
      <path clip-path="url(#p4c8a4e8990)" d="M 335.953364 228.96 
L 335.953364 7.2 
" style="fill:none;stroke:#e5e5e5;stroke-width:0.8;"/>
     </g>
     <g id="line2d_6">
      <path d="M 335.953364 228.96 
" style="fill:none;stroke:#000000;stroke-width:1.5;"/>
      <g>
       <use style="stroke:#000000;" x="335.953364" xlink:href="#mb2ac83bb3d" y="228.96"/>
      </g>
     </g>
     <g id="text_3">
      <!-- 3 -->
      <defs>
       <path d="M 40.578125 39.3125 
Q 47.65625 37.796875 51.625 33 
Q 55.609375 28.21875 55.609375 21.1875 
Q 55.609375 10.40625 48.1875 4.484375 
Q 40.765625 -1.421875 27.09375 -1.421875 
Q 22.515625 -1.421875 17.65625 -0.515625 
Q 12.796875 0.390625 7.625 2.203125 
L 7.625 11.71875 
Q 11.71875 9.328125 16.59375 8.109375 
Q 21.484375 6.890625 26.8125 6.890625 
Q 36.078125 6.890625 40.9375 10.546875 
Q 45.796875 14.203125 45.796875 21.1875 
Q 45.796875 27.640625 41.28125 31.265625 
Q 36.765625 34.90625 28.71875 34.90625 
L 20.21875 34.90625 
L 20.21875 43.015625 
L 29.109375 43.015625 
Q 36.375 43.015625 40.234375 45.921875 
Q 44.09375 48.828125 44.09375 54.296875 
Q 44.09375 59.90625 40.109375 62.90625 
Q 36.140625 65.921875 28.71875 65.921875 
Q 24.65625 65.921875 20.015625 65.03125 
Q 15.375 64.15625 9.8125 62.3125 
L 9.8125 71.09375 
Q 15.4375 72.65625 20.34375 73.4375 
Q 25.25 74.21875 29.59375 74.21875 
Q 40.828125 74.21875 47.359375 69.109375 
Q 53.90625 64.015625 53.90625 55.328125 
Q 53.90625 49.265625 50.4375 45.09375 
Q 46.96875 40.921875 40.578125 39.3125 
z
" id="DejaVuSans-51"/>
      </defs>
      <g transform="translate(333.153864 240.596625)scale(0.088 -0.088)">
       <use xlink:href="#DejaVuSans-51"/>
      </g>
     </g>
    </g>
    <g id="xtick_4">
     <g id="line2d_7">
      <path clip-path="url(#p4c8a4e8990)" d="M 471.226091 228.96 
L 471.226091 7.2 
" style="fill:none;stroke:#e5e5e5;stroke-width:0.8;"/>
     </g>
     <g id="line2d_8">
      <path d="M 471.226091 228.96 
" style="fill:none;stroke:#000000;stroke-width:1.5;"/>
      <g>
       <use style="stroke:#000000;" x="471.226091" xlink:href="#mb2ac83bb3d" y="228.96"/>
      </g>
     </g>
     <g id="text_4">
      <!-- 4 -->
      <defs>
       <path d="M 37.796875 64.3125 
L 12.890625 25.390625 
L 37.796875 25.390625 
z
M 35.203125 72.90625 
L 47.609375 72.90625 
L 47.609375 25.390625 
L 58.015625 25.390625 
L 58.015625 17.1875 
L 47.609375 17.1875 
L 47.609375 0 
L 37.796875 0 
L 37.796875 17.1875 
L 4.890625 17.1875 
L 4.890625 26.703125 
z
" id="DejaVuSans-52"/>
      </defs>
      <g transform="translate(468.426591 240.596625)scale(0.088 -0.088)">
       <use xlink:href="#DejaVuSans-52"/>
      </g>
     </g>
    </g>
    <g id="xtick_5">
     <g id="line2d_9">
      <path clip-path="url(#p4c8a4e8990)" d="M 133.044273 228.96 
L 133.044273 7.2 
" style="fill:none;stroke:#fafafa;"/>
     </g>
     <g id="line2d_10">
      <path d="M 133.044273 228.96 
" style="fill:none;stroke:#000000;stroke-width:1.5;"/>
      <defs>
       <path d="M 0 0 
L 0 1.375 
" id="mda6e6db9a4" style="stroke:#000000;"/>
      </defs>
      <g>
       <use style="stroke:#000000;" x="133.044273" xlink:href="#mda6e6db9a4" y="228.96"/>
      </g>
     </g>
    </g>
    <g id="xtick_6">
     <g id="line2d_11">
      <path clip-path="url(#p4c8a4e8990)" d="M 268.317 228.96 
L 268.317 7.2 
" style="fill:none;stroke:#fafafa;"/>
     </g>
     <g id="line2d_12">
      <path d="M 268.317 228.96 
" style="fill:none;stroke:#000000;stroke-width:1.5;"/>
      <g>
       <use style="stroke:#000000;" x="268.317" xlink:href="#mda6e6db9a4" y="228.96"/>
      </g>
     </g>
    </g>
    <g id="xtick_7">
     <g id="line2d_13">
      <path clip-path="url(#p4c8a4e8990)" d="M 403.589727 228.96 
L 403.589727 7.2 
" style="fill:none;stroke:#fafafa;"/>
     </g>
     <g id="line2d_14">
      <path d="M 403.589727 228.96 
" style="fill:none;stroke:#000000;stroke-width:1.5;"/>
      <g>
       <use style="stroke:#000000;" x="403.589727" xlink:href="#mda6e6db9a4" y="228.96"/>
      </g>
     </g>
    </g>
    <g id="text_5">
     <!-- Resolution -->
     <defs>
      <path d="M 44.390625 34.1875 
Q 47.5625 33.109375 50.5625 29.59375 
Q 53.5625 26.078125 56.59375 19.921875 
L 66.609375 0 
L 56 0 
L 46.6875 18.703125 
Q 43.0625 26.03125 39.671875 28.421875 
Q 36.28125 30.8125 30.421875 30.8125 
L 19.671875 30.8125 
L 19.671875 0 
L 9.8125 0 
L 9.8125 72.90625 
L 32.078125 72.90625 
Q 44.578125 72.90625 50.734375 67.671875 
Q 56.890625 62.453125 56.890625 51.90625 
Q 56.890625 45.015625 53.6875 40.46875 
Q 50.484375 35.9375 44.390625 34.1875 
z
M 19.671875 64.796875 
L 19.671875 38.921875 
L 32.078125 38.921875 
Q 39.203125 38.921875 42.84375 42.21875 
Q 46.484375 45.515625 46.484375 51.90625 
Q 46.484375 58.296875 42.84375 61.546875 
Q 39.203125 64.796875 32.078125 64.796875 
z
" id="DejaVuSans-82"/>
      <path d="M 56.203125 29.59375 
L 56.203125 25.203125 
L 14.890625 25.203125 
Q 15.484375 15.921875 20.484375 11.0625 
Q 25.484375 6.203125 34.421875 6.203125 
Q 39.59375 6.203125 44.453125 7.46875 
Q 49.3125 8.734375 54.109375 11.28125 
L 54.109375 2.78125 
Q 49.265625 0.734375 44.1875 -0.34375 
Q 39.109375 -1.421875 33.890625 -1.421875 
Q 20.796875 -1.421875 13.15625 6.1875 
Q 5.515625 13.8125 5.515625 26.8125 
Q 5.515625 40.234375 12.765625 48.109375 
Q 20.015625 56 32.328125 56 
Q 43.359375 56 49.78125 48.890625 
Q 56.203125 41.796875 56.203125 29.59375 
z
M 47.21875 32.234375 
Q 47.125 39.59375 43.09375 43.984375 
Q 39.0625 48.390625 32.421875 48.390625 
Q 24.90625 48.390625 20.390625 44.140625 
Q 15.875 39.890625 15.1875 32.171875 
z
" id="DejaVuSans-101"/>
      <path d="M 44.28125 53.078125 
L 44.28125 44.578125 
Q 40.484375 46.53125 36.375 47.5 
Q 32.28125 48.484375 27.875 48.484375 
Q 21.1875 48.484375 17.84375 46.4375 
Q 14.5 44.390625 14.5 40.28125 
Q 14.5 37.15625 16.890625 35.375 
Q 19.28125 33.59375 26.515625 31.984375 
L 29.59375 31.296875 
Q 39.15625 29.25 43.1875 25.515625 
Q 47.21875 21.78125 47.21875 15.09375 
Q 47.21875 7.46875 41.1875 3.015625 
Q 35.15625 -1.421875 24.609375 -1.421875 
Q 20.21875 -1.421875 15.453125 -0.5625 
Q 10.6875 0.296875 5.421875 2 
L 5.421875 11.28125 
Q 10.40625 8.6875 15.234375 7.390625 
Q 20.0625 6.109375 24.8125 6.109375 
Q 31.15625 6.109375 34.5625 8.28125 
Q 37.984375 10.453125 37.984375 14.40625 
Q 37.984375 18.0625 35.515625 20.015625 
Q 33.0625 21.96875 24.703125 23.78125 
L 21.578125 24.515625 
Q 13.234375 26.265625 9.515625 29.90625 
Q 5.8125 33.546875 5.8125 39.890625 
Q 5.8125 47.609375 11.28125 51.796875 
Q 16.75 56 26.8125 56 
Q 31.78125 56 36.171875 55.265625 
Q 40.578125 54.546875 44.28125 53.078125 
z
" id="DejaVuSans-115"/>
      <path d="M 30.609375 48.390625 
Q 23.390625 48.390625 19.1875 42.75 
Q 14.984375 37.109375 14.984375 27.296875 
Q 14.984375 17.484375 19.15625 11.84375 
Q 23.34375 6.203125 30.609375 6.203125 
Q 37.796875 6.203125 41.984375 11.859375 
Q 46.1875 17.53125 46.1875 27.296875 
Q 46.1875 37.015625 41.984375 42.703125 
Q 37.796875 48.390625 30.609375 48.390625 
z
M 30.609375 56 
Q 42.328125 56 49.015625 48.375 
Q 55.71875 40.765625 55.71875 27.296875 
Q 55.71875 13.875 49.015625 6.21875 
Q 42.328125 -1.421875 30.609375 -1.421875 
Q 18.84375 -1.421875 12.171875 6.21875 
Q 5.515625 13.875 5.515625 27.296875 
Q 5.515625 40.765625 12.171875 48.375 
Q 18.84375 56 30.609375 56 
z
" id="DejaVuSans-111"/>
      <path d="M 9.421875 75.984375 
L 18.40625 75.984375 
L 18.40625 0 
L 9.421875 0 
z
" id="DejaVuSans-108"/>
      <path d="M 8.5 21.578125 
L 8.5 54.6875 
L 17.484375 54.6875 
L 17.484375 21.921875 
Q 17.484375 14.15625 20.5 10.265625 
Q 23.53125 6.390625 29.59375 6.390625 
Q 36.859375 6.390625 41.078125 11.03125 
Q 45.3125 15.671875 45.3125 23.6875 
L 45.3125 54.6875 
L 54.296875 54.6875 
L 54.296875 0 
L 45.3125 0 
L 45.3125 8.40625 
Q 42.046875 3.421875 37.71875 1 
Q 33.40625 -1.421875 27.6875 -1.421875 
Q 18.265625 -1.421875 13.375 4.4375 
Q 8.5 10.296875 8.5 21.578125 
z
M 31.109375 56 
z
" id="DejaVuSans-117"/>
      <path d="M 18.3125 70.21875 
L 18.3125 54.6875 
L 36.8125 54.6875 
L 36.8125 47.703125 
L 18.3125 47.703125 
L 18.3125 18.015625 
Q 18.3125 11.328125 20.140625 9.421875 
Q 21.96875 7.515625 27.59375 7.515625 
L 36.8125 7.515625 
L 36.8125 0 
L 27.59375 0 
Q 17.1875 0 13.234375 3.875 
Q 9.28125 7.765625 9.28125 18.015625 
L 9.28125 47.703125 
L 2.6875 47.703125 
L 2.6875 54.6875 
L 9.28125 54.6875 
L 9.28125 70.21875 
z
" id="DejaVuSans-116"/>
      <path d="M 9.421875 54.6875 
L 18.40625 54.6875 
L 18.40625 0 
L 9.421875 0 
z
M 9.421875 75.984375 
L 18.40625 75.984375 
L 18.40625 64.59375 
L 9.421875 64.59375 
z
" id="DejaVuSans-105"/>
      <path d="M 54.890625 33.015625 
L 54.890625 0 
L 45.90625 0 
L 45.90625 32.71875 
Q 45.90625 40.484375 42.875 44.328125 
Q 39.84375 48.1875 33.796875 48.1875 
Q 26.515625 48.1875 22.3125 43.546875 
Q 18.109375 38.921875 18.109375 30.90625 
L 18.109375 0 
L 9.078125 0 
L 9.078125 54.6875 
L 18.109375 54.6875 
L 18.109375 46.1875 
Q 21.34375 51.125 25.703125 53.5625 
Q 30.078125 56 35.796875 56 
Q 45.21875 56 50.046875 50.171875 
Q 54.890625 44.34375 54.890625 33.015625 
z
" id="DejaVuSans-110"/>
     </defs>
     <g transform="translate(232.135438 255.185031)scale(0.11 -0.11)">
      <use xlink:href="#DejaVuSans-82"/>
      <use x="69.419922" xlink:href="#DejaVuSans-101"/>
      <use x="130.943359" xlink:href="#DejaVuSans-115"/>
      <use x="183.042969" xlink:href="#DejaVuSans-111"/>
      <use x="244.224609" xlink:href="#DejaVuSans-108"/>
      <use x="272.007812" xlink:href="#DejaVuSans-117"/>
      <use x="335.386719" xlink:href="#DejaVuSans-116"/>
      <use x="374.595703" xlink:href="#DejaVuSans-105"/>
      <use x="402.378906" xlink:href="#DejaVuSans-111"/>
      <use x="463.560547" xlink:href="#DejaVuSans-110"/>
     </g>
    </g>
   </g>
   <g id="matplotlib.axis_2">
    <g id="ytick_1">
     <g id="line2d_15">
      <path clip-path="url(#p4c8a4e8990)" d="M 45.117 218.88 
L 491.517 218.88 
" style="fill:none;stroke:#e5e5e5;stroke-width:0.8;"/>
     </g>
     <g id="line2d_16">
      <path d="M 45.117 218.88 
" style="fill:none;stroke:#000000;stroke-width:1.5;"/>
      <defs>
       <path d="M 0 0 
L -2.75 0 
" id="m97f2ee4fc3" style="stroke:#000000;"/>
      </defs>
      <g>
       <use style="stroke:#000000;" x="45.117" xlink:href="#m97f2ee4fc3" y="218.88"/>
      </g>
     </g>
     <g id="text_6">
      <!-- 0 -->
      <defs>
       <path d="M 31.78125 66.40625 
Q 24.171875 66.40625 20.328125 58.90625 
Q 16.5 51.421875 16.5 36.375 
Q 16.5 21.390625 20.328125 13.890625 
Q 24.171875 6.390625 31.78125 6.390625 
Q 39.453125 6.390625 43.28125 13.890625 
Q 47.125 21.390625 47.125 36.375 
Q 47.125 51.421875 43.28125 58.90625 
Q 39.453125 66.40625 31.78125 66.40625 
z
M 31.78125 74.21875 
Q 44.046875 74.21875 50.515625 64.515625 
Q 56.984375 54.828125 56.984375 36.375 
Q 56.984375 17.96875 50.515625 8.265625 
Q 44.046875 -1.421875 31.78125 -1.421875 
Q 19.53125 -1.421875 13.0625 8.265625 
Q 6.59375 17.96875 6.59375 36.375 
Q 6.59375 54.828125 13.0625 64.515625 
Q 19.53125 74.21875 31.78125 74.21875 
z
" id="DejaVuSans-48"/>
      </defs>
      <g transform="translate(34.568 221.30825)scale(0.088 -0.088)">
       <use xlink:href="#DejaVuSans-48"/>
      </g>
     </g>
    </g>
    <g id="ytick_2">
     <g id="line2d_17">
      <path clip-path="url(#p4c8a4e8990)" d="M 45.117 168.48 
L 491.517 168.48 
" style="fill:none;stroke:#e5e5e5;stroke-width:0.8;"/>
     </g>
     <g id="line2d_18">
      <path d="M 45.117 168.48 
" style="fill:none;stroke:#000000;stroke-width:1.5;"/>
      <g>
       <use style="stroke:#000000;" x="45.117" xlink:href="#m97f2ee4fc3" y="168.48"/>
      </g>
     </g>
     <g id="text_7">
      <!-- 25 -->
      <defs>
       <path d="M 10.796875 72.90625 
L 49.515625 72.90625 
L 49.515625 64.59375 
L 19.828125 64.59375 
L 19.828125 46.734375 
Q 21.96875 47.46875 24.109375 47.828125 
Q 26.265625 48.1875 28.421875 48.1875 
Q 40.625 48.1875 47.75 41.5 
Q 54.890625 34.8125 54.890625 23.390625 
Q 54.890625 11.625 47.5625 5.09375 
Q 40.234375 -1.421875 26.90625 -1.421875 
Q 22.3125 -1.421875 17.546875 -0.640625 
Q 12.796875 0.140625 7.71875 1.703125 
L 7.71875 11.625 
Q 12.109375 9.234375 16.796875 8.0625 
Q 21.484375 6.890625 26.703125 6.890625 
Q 35.15625 6.890625 40.078125 11.328125 
Q 45.015625 15.765625 45.015625 23.390625 
Q 45.015625 31 40.078125 35.4375 
Q 35.15625 39.890625 26.703125 39.890625 
Q 22.75 39.890625 18.8125 39.015625 
Q 14.890625 38.140625 10.796875 36.28125 
z
" id="DejaVuSans-53"/>
      </defs>
      <g transform="translate(28.969 170.90825)scale(0.088 -0.088)">
       <use xlink:href="#DejaVuSans-50"/>
       <use x="63.623047" xlink:href="#DejaVuSans-53"/>
      </g>
     </g>
    </g>
    <g id="ytick_3">
     <g id="line2d_19">
      <path clip-path="url(#p4c8a4e8990)" d="M 45.117 118.08 
L 491.517 118.08 
" style="fill:none;stroke:#e5e5e5;stroke-width:0.8;"/>
     </g>
     <g id="line2d_20">
      <path d="M 45.117 118.08 
" style="fill:none;stroke:#000000;stroke-width:1.5;"/>
      <g>
       <use style="stroke:#000000;" x="45.117" xlink:href="#m97f2ee4fc3" y="118.08"/>
      </g>
     </g>
     <g id="text_8">
      <!-- 50 -->
      <g transform="translate(28.969 120.50825)scale(0.088 -0.088)">
       <use xlink:href="#DejaVuSans-53"/>
       <use x="63.623047" xlink:href="#DejaVuSans-48"/>
      </g>
     </g>
    </g>
    <g id="ytick_4">
     <g id="line2d_21">
      <path clip-path="url(#p4c8a4e8990)" d="M 45.117 67.68 
L 491.517 67.68 
" style="fill:none;stroke:#e5e5e5;stroke-width:0.8;"/>
     </g>
     <g id="line2d_22">
      <path d="M 45.117 67.68 
" style="fill:none;stroke:#000000;stroke-width:1.5;"/>
      <g>
       <use style="stroke:#000000;" x="45.117" xlink:href="#m97f2ee4fc3" y="67.68"/>
      </g>
     </g>
     <g id="text_9">
      <!-- 75 -->
      <defs>
       <path d="M 8.203125 72.90625 
L 55.078125 72.90625 
L 55.078125 68.703125 
L 28.609375 0 
L 18.3125 0 
L 43.21875 64.59375 
L 8.203125 64.59375 
z
" id="DejaVuSans-55"/>
      </defs>
      <g transform="translate(28.969 70.10825)scale(0.088 -0.088)">
       <use xlink:href="#DejaVuSans-55"/>
       <use x="63.623047" xlink:href="#DejaVuSans-53"/>
      </g>
     </g>
    </g>
    <g id="ytick_5">
     <g id="line2d_23">
      <path clip-path="url(#p4c8a4e8990)" d="M 45.117 17.28 
L 491.517 17.28 
" style="fill:none;stroke:#e5e5e5;stroke-width:0.8;"/>
     </g>
     <g id="line2d_24">
      <path d="M 45.117 17.28 
" style="fill:none;stroke:#000000;stroke-width:1.5;"/>
      <g>
       <use style="stroke:#000000;" x="45.117" xlink:href="#m97f2ee4fc3" y="17.28"/>
      </g>
     </g>
     <g id="text_10">
      <!-- 100 -->
      <g transform="translate(23.37 19.70825)scale(0.088 -0.088)">
       <use xlink:href="#DejaVuSans-49"/>
       <use x="63.623047" xlink:href="#DejaVuSans-48"/>
       <use x="127.246094" xlink:href="#DejaVuSans-48"/>
      </g>
     </g>
    </g>
    <g id="ytick_6">
     <g id="line2d_25">
      <path clip-path="url(#p4c8a4e8990)" d="M 45.117 193.68 
L 491.517 193.68 
" style="fill:none;stroke:#fafafa;"/>
     </g>
     <g id="line2d_26">
      <path d="M 45.117 193.68 
" style="fill:none;stroke:#000000;stroke-width:1.5;"/>
      <defs>
       <path d="M 0 0 
L -1.375 0 
" id="m960f01d41b" style="stroke:#000000;"/>
      </defs>
      <g>
       <use style="stroke:#000000;" x="45.117" xlink:href="#m960f01d41b" y="193.68"/>
      </g>
     </g>
    </g>
    <g id="ytick_7">
     <g id="line2d_27">
      <path clip-path="url(#p4c8a4e8990)" d="M 45.117 143.28 
L 491.517 143.28 
" style="fill:none;stroke:#fafafa;"/>
     </g>
     <g id="line2d_28">
      <path d="M 45.117 143.28 
" style="fill:none;stroke:#000000;stroke-width:1.5;"/>
      <g>
       <use style="stroke:#000000;" x="45.117" xlink:href="#m960f01d41b" y="143.28"/>
      </g>
     </g>
    </g>
    <g id="ytick_8">
     <g id="line2d_29">
      <path clip-path="url(#p4c8a4e8990)" d="M 45.117 92.88 
L 491.517 92.88 
" style="fill:none;stroke:#fafafa;"/>
     </g>
     <g id="line2d_30">
      <path d="M 45.117 92.88 
" style="fill:none;stroke:#000000;stroke-width:1.5;"/>
      <g>
       <use style="stroke:#000000;" x="45.117" xlink:href="#m960f01d41b" y="92.88"/>
      </g>
     </g>
    </g>
    <g id="ytick_9">
     <g id="line2d_31">
      <path clip-path="url(#p4c8a4e8990)" d="M 45.117 42.48 
L 491.517 42.48 
" style="fill:none;stroke:#fafafa;"/>
     </g>
     <g id="line2d_32">
      <path d="M 45.117 42.48 
" style="fill:none;stroke:#000000;stroke-width:1.5;"/>
      <g>
       <use style="stroke:#000000;" x="45.117" xlink:href="#m960f01d41b" y="42.48"/>
      </g>
     </g>
    </g>
    <g id="text_11">
     <!-- $P_{Q1p}$ [%] -->
     <defs>
      <path d="M 16.890625 72.90625 
L 39.703125 72.90625 
Q 49.65625 72.90625 54.875 68.265625 
Q 60.109375 63.625 60.109375 54.6875 
Q 60.109375 42.671875 52.390625 35.984375 
Q 44.671875 29.296875 30.71875 29.296875 
L 18.3125 29.296875 
L 12.59375 0 
L 2.6875 0 
z
M 25.203125 64.796875 
L 19.921875 37.40625 
L 32.328125 37.40625 
Q 40.71875 37.40625 45.203125 41.703125 
Q 49.703125 46 49.703125 54 
Q 49.703125 59.125 46.65625 61.953125 
Q 43.609375 64.796875 38.09375 64.796875 
z
" id="DejaVuSans-Oblique-80"/>
      <path d="M 36.078125 -1.3125 
Q 35.546875 -1.375 34.953125 -1.390625 
Q 34.375 -1.421875 33.203125 -1.421875 
Q 19.53125 -1.421875 11.8125 6.421875 
Q 4.109375 14.265625 4.109375 28.078125 
Q 4.109375 36.234375 7.0625 44.4375 
Q 10.015625 52.640625 15.28125 59.1875 
Q 21.390625 66.703125 29.03125 70.453125 
Q 36.671875 74.21875 45.90625 74.21875 
Q 59.28125 74.21875 66.984375 66.328125 
Q 74.703125 58.453125 74.703125 44.828125 
Q 74.703125 30.125 66.640625 17.921875 
Q 58.59375 5.71875 45.609375 0.6875 
L 55.515625 -12.890625 
L 44.484375 -12.890625 
z
M 45.609375 66.21875 
Q 37.5 66.21875 31.296875 62.28125 
Q 25.09375 58.34375 20.515625 50.296875 
Q 17.578125 45.171875 16.03125 39.40625 
Q 14.5 33.640625 14.5 27.78125 
Q 14.5 17.625 19.359375 12.109375 
Q 24.21875 6.59375 33.109375 6.59375 
Q 41.109375 6.59375 47.375 10.5625 
Q 53.65625 14.546875 58.109375 22.40625 
Q 61.078125 27.6875 62.640625 33.46875 
Q 64.203125 39.265625 64.203125 45.015625 
Q 64.203125 55.125 59.3125 60.671875 
Q 54.4375 66.21875 45.609375 66.21875 
z
" id="DejaVuSans-Oblique-81"/>
      <path d="M 49.609375 33.6875 
Q 49.609375 40.875 46.484375 44.671875 
Q 43.359375 48.484375 37.5 48.484375 
Q 33.5 48.484375 29.859375 46.4375 
Q 26.21875 44.390625 23.390625 40.484375 
Q 20.609375 36.625 18.9375 31.15625 
Q 17.28125 25.6875 17.28125 20.3125 
Q 17.28125 13.484375 20.40625 9.796875 
Q 23.53125 6.109375 29.296875 6.109375 
Q 33.546875 6.109375 37.1875 8.109375 
Q 40.828125 10.109375 43.40625 13.921875 
Q 46.1875 17.921875 47.890625 23.34375 
Q 49.609375 28.765625 49.609375 33.6875 
z
M 21.78125 46.390625 
Q 25.390625 51.125 30.296875 53.5625 
Q 35.203125 56 41.21875 56 
Q 49.609375 56 54.25 50.5 
Q 58.890625 45.015625 58.890625 35.109375 
Q 58.890625 27 56 19.65625 
Q 53.125 12.3125 47.703125 6.5 
Q 44.09375 2.640625 39.546875 0.609375 
Q 35.015625 -1.421875 29.984375 -1.421875 
Q 24.171875 -1.421875 20.21875 1 
Q 16.265625 3.421875 14.3125 8.203125 
L 8.6875 -20.796875 
L -0.296875 -20.796875 
L 14.40625 54.6875 
L 23.390625 54.6875 
z
" id="DejaVuSans-Oblique-112"/>
      <path id="DejaVuSans-32"/>
      <path d="M 8.59375 75.984375 
L 29.296875 75.984375 
L 29.296875 69 
L 17.578125 69 
L 17.578125 -6.203125 
L 29.296875 -6.203125 
L 29.296875 -13.1875 
L 8.59375 -13.1875 
z
" id="DejaVuSans-91"/>
      <path d="M 72.703125 32.078125 
Q 68.453125 32.078125 66.03125 28.46875 
Q 63.625 24.859375 63.625 18.40625 
Q 63.625 12.0625 66.03125 8.421875 
Q 68.453125 4.78125 72.703125 4.78125 
Q 76.859375 4.78125 79.265625 8.421875 
Q 81.6875 12.0625 81.6875 18.40625 
Q 81.6875 24.8125 79.265625 28.4375 
Q 76.859375 32.078125 72.703125 32.078125 
z
M 72.703125 38.28125 
Q 80.421875 38.28125 84.953125 32.90625 
Q 89.5 27.546875 89.5 18.40625 
Q 89.5 9.28125 84.9375 3.921875 
Q 80.375 -1.421875 72.703125 -1.421875 
Q 64.890625 -1.421875 60.34375 3.921875 
Q 55.8125 9.28125 55.8125 18.40625 
Q 55.8125 27.59375 60.375 32.9375 
Q 64.9375 38.28125 72.703125 38.28125 
z
M 22.3125 68.015625 
Q 18.109375 68.015625 15.6875 64.375 
Q 13.28125 60.75 13.28125 54.390625 
Q 13.28125 47.953125 15.671875 44.328125 
Q 18.0625 40.71875 22.3125 40.71875 
Q 26.5625 40.71875 28.96875 44.328125 
Q 31.390625 47.953125 31.390625 54.390625 
Q 31.390625 60.6875 28.953125 64.34375 
Q 26.515625 68.015625 22.3125 68.015625 
z
M 66.40625 74.21875 
L 74.21875 74.21875 
L 28.609375 -1.421875 
L 20.796875 -1.421875 
z
M 22.3125 74.21875 
Q 30.03125 74.21875 34.609375 68.875 
Q 39.203125 63.53125 39.203125 54.390625 
Q 39.203125 45.171875 34.640625 39.84375 
Q 30.078125 34.515625 22.3125 34.515625 
Q 14.546875 34.515625 10.03125 39.859375 
Q 5.515625 45.21875 5.515625 54.390625 
Q 5.515625 63.484375 10.046875 68.84375 
Q 14.59375 74.21875 22.3125 74.21875 
z
" id="DejaVuSans-37"/>
      <path d="M 30.421875 75.984375 
L 30.421875 -13.1875 
L 9.71875 -13.1875 
L 9.71875 -6.203125 
L 21.390625 -6.203125 
L 21.390625 69 
L 9.71875 69 
L 9.71875 75.984375 
z
" id="DejaVuSans-93"/>
     </defs>
     <g transform="translate(15.56 139.3)rotate(-90)scale(0.11 -0.11)">
      <use transform="translate(0 0.015625)" xlink:href="#DejaVuSans-Oblique-80"/>
      <use transform="translate(60.302734 -16.390625)scale(0.7)" xlink:href="#DejaVuSans-Oblique-81"/>
      <use transform="translate(115.400391 -16.390625)scale(0.7)" xlink:href="#DejaVuSans-49"/>
      <use transform="translate(159.936523 -16.390625)scale(0.7)" xlink:href="#DejaVuSans-Oblique-112"/>
      <use transform="translate(207.104492 0.015625)" xlink:href="#DejaVuSans-32"/>
      <use transform="translate(238.891602 0.015625)" xlink:href="#DejaVuSans-91"/>
      <use transform="translate(277.905273 0.015625)" xlink:href="#DejaVuSans-37"/>
      <use transform="translate(372.924805 0.015625)" xlink:href="#DejaVuSans-93"/>
     </g>
    </g>
   </g>
   <g id="PathCollection_1">
    <path clip-path="url(#p4c8a4e8990)" d="M 65.407909 54.545815 
C 65.877969 54.545815 66.32884 54.359058 66.661223 54.026676 
C 66.993606 53.694293 67.180363 53.243422 67.180363 52.773361 
C 67.180363 52.303301 66.993606 51.85243 66.661223 51.520047 
C 66.32884 51.187664 65.877969 51.000908 65.407909 51.000908 
C 64.937849 51.000908 64.486978 51.187664 64.154595 51.520047 
C 63.822212 51.85243 63.635455 52.303301 63.635455 52.773361 
C 63.635455 53.243422 63.822212 53.694293 64.154595 54.026676 
C 64.486978 54.359058 64.937849 54.545815 65.407909 54.545815 
z
" style="stroke:#000000;stroke-width:0.886227;"/>
    <path clip-path="url(#p4c8a4e8990)" d="M 78.935182 55.995458 
C 79.405242 55.995458 79.856113 55.808701 80.188496 55.476319 
C 80.520879 55.143936 80.707636 54.693065 80.707636 54.223005 
C 80.707636 53.752944 80.520879 53.302073 80.188496 52.96969 
C 79.856113 52.637308 79.405242 52.450551 78.935182 52.450551 
C 78.465122 52.450551 78.01425 52.637308 77.681868 52.96969 
C 77.349485 53.302073 77.162728 53.752944 77.162728 54.223005 
C 77.162728 54.693065 77.349485 55.143936 77.681868 55.476319 
C 78.01425 55.808701 78.465122 55.995458 78.935182 55.995458 
z
" style="stroke:#000000;stroke-width:0.886227;"/>
    <path clip-path="url(#p4c8a4e8990)" d="M 92.462455 62.739743 
C 92.932515 62.739743 93.383386 62.552986 93.715769 62.220603 
C 94.048151 61.88822 94.234908 61.437349 94.234908 60.967289 
C 94.234908 60.497228 94.048151 60.046357 93.715769 59.713975 
C 93.383386 59.381592 92.932515 59.194835 92.462455 59.194835 
C 91.992394 59.194835 91.541523 59.381592 91.20914 59.713975 
C 90.876758 60.046357 90.690001 60.497228 90.690001 60.967289 
C 90.690001 61.437349 90.876758 61.88822 91.20914 62.220603 
C 91.541523 62.552986 91.992394 62.739743 92.462455 62.739743 
z
" style="stroke:#000000;stroke-width:0.886227;"/>
    <path clip-path="url(#p4c8a4e8990)" d="M 105.989727 63.268106 
C 106.459788 63.268106 106.910659 63.081349 107.243041 62.748967 
C 107.575424 62.416584 107.762181 61.965713 107.762181 61.495652 
C 107.762181 61.025592 107.575424 60.574721 107.243041 60.242338 
C 106.910659 59.909956 106.459788 59.723199 105.989727 59.723199 
C 105.519667 59.723199 105.068796 59.909956 104.736413 60.242338 
C 104.40403 60.574721 104.217273 61.025592 104.217273 61.495652 
C 104.217273 61.965713 104.40403 62.416584 104.736413 62.748967 
C 105.068796 63.081349 105.519667 63.268106 105.989727 63.268106 
z
" style="stroke:#000000;stroke-width:0.886227;"/>
    <path clip-path="url(#p4c8a4e8990)" d="M 119.517 71.705188 
C 119.98706 71.705188 120.437931 71.518431 120.770314 71.186048 
C 121.102697 70.853665 121.289454 70.402794 121.289454 69.932734 
C 121.289454 69.462674 121.102697 69.011803 120.770314 68.67942 
C 120.437931 68.347037 119.98706 68.16028 119.517 68.16028 
C 119.04694 68.16028 118.596069 68.347037 118.263686 68.67942 
C 117.931303 69.011803 117.744546 69.462674 117.744546 69.932734 
C 117.744546 70.402794 117.931303 70.853665 118.263686 71.186048 
C 118.596069 71.518431 119.04694 71.705188 119.517 71.705188 
z
" style="stroke:#000000;stroke-width:0.886227;"/>
    <path clip-path="url(#p4c8a4e8990)" d="M 133.044273 78.844017 
C 133.514333 78.844017 133.965204 78.65726 134.297587 78.324877 
C 134.62997 77.992494 134.816727 77.541623 134.816727 77.071563 
C 134.816727 76.601503 134.62997 76.150631 134.297587 75.818249 
C 133.965204 75.485866 133.514333 75.299109 133.044273 75.299109 
C 132.574212 75.299109 132.123341 75.485866 131.790959 75.818249 
C 131.458576 76.150631 131.271819 76.601503 131.271819 77.071563 
C 131.271819 77.541623 131.458576 77.992494 131.790959 78.324877 
C 132.123341 78.65726 132.574212 78.844017 133.044273 78.844017 
z
" style="stroke:#000000;stroke-width:0.886227;"/>
    <path clip-path="url(#p4c8a4e8990)" d="M 146.571545 83.786408 
C 147.041606 83.786408 147.492477 83.599651 147.82486 83.267268 
C 148.157242 82.934885 148.343999 82.484014 148.343999 82.013954 
C 148.343999 81.543894 148.157242 81.093022 147.82486 80.76064 
C 147.492477 80.428257 147.041606 80.2415 146.571545 80.2415 
C 146.101485 80.2415 145.650614 80.428257 145.318231 80.76064 
C 144.985849 81.093022 144.799092 81.543894 144.799092 82.013954 
C 144.799092 82.484014 144.985849 82.934885 145.318231 83.267268 
C 145.650614 83.599651 146.101485 83.786408 146.571545 83.786408 
z
" style="stroke:#000000;stroke-width:0.886227;"/>
    <path clip-path="url(#p4c8a4e8990)" d="M 160.098818 92.344155 
C 160.568878 92.344155 161.01975 92.157398 161.352132 91.825015 
C 161.684515 91.492632 161.871272 91.041761 161.871272 90.571701 
C 161.871272 90.101641 161.684515 89.65077 161.352132 89.318387 
C 161.01975 88.986004 160.568878 88.799247 160.098818 88.799247 
C 159.628758 88.799247 159.177887 88.986004 158.845504 89.318387 
C 158.513121 89.65077 158.326364 90.101641 158.326364 90.571701 
C 158.326364 91.041761 158.513121 91.492632 158.845504 91.825015 
C 159.177887 92.157398 159.628758 92.344155 160.098818 92.344155 
z
" style="stroke:#000000;stroke-width:0.886227;"/>
    <path clip-path="url(#p4c8a4e8990)" d="M 173.626091 95.636505 
C 174.096151 95.636505 174.547022 95.449748 174.879405 95.117366 
C 175.211788 94.784983 175.398545 94.334112 175.398545 93.864051 
C 175.398545 93.393991 175.211788 92.94312 174.879405 92.610737 
C 174.547022 92.278355 174.096151 92.091598 173.626091 92.091598 
C 173.156031 92.091598 172.70516 92.278355 172.372777 92.610737 
C 172.040394 92.94312 171.853637 93.393991 171.853637 93.864051 
C 171.853637 94.334112 172.040394 94.784983 172.372777 95.117366 
C 172.70516 95.449748 173.156031 95.636505 173.626091 95.636505 
z
" style="stroke:#000000;stroke-width:0.886227;"/>
    <path clip-path="url(#p4c8a4e8990)" d="M 187.153364 107.593782 
C 187.623424 107.593782 188.074295 107.407025 188.406678 107.074643 
C 188.739061 106.74226 188.925817 106.291389 188.925817 105.821328 
C 188.925817 105.351268 188.739061 104.900397 188.406678 104.568014 
C 188.074295 104.235632 187.623424 104.048875 187.153364 104.048875 
C 186.683303 104.048875 186.232432 104.235632 185.900049 104.568014 
C 185.567667 104.900397 185.38091 105.351268 185.38091 105.821328 
C 185.38091 106.291389 185.567667 106.74226 185.900049 107.074643 
C 186.232432 107.407025 186.683303 107.593782 187.153364 107.593782 
z
" style="stroke:#000000;stroke-width:0.886227;"/>
    <path clip-path="url(#p4c8a4e8990)" d="M 200.680636 117.105463 
C 201.150697 117.105463 201.601568 116.918706 201.933951 116.586323 
C 202.266333 116.25394 202.45309 115.803069 202.45309 115.333009 
C 202.45309 114.862948 202.266333 114.412077 201.933951 114.079695 
C 201.601568 113.747312 201.150697 113.560555 200.680636 113.560555 
C 200.210576 113.560555 199.759705 113.747312 199.427322 114.079695 
C 199.094939 114.412077 198.908183 114.862948 198.908183 115.333009 
C 198.908183 115.803069 199.094939 116.25394 199.427322 116.586323 
C 199.759705 116.918706 200.210576 117.105463 200.680636 117.105463 
z
" style="stroke:#000000;stroke-width:0.886227;"/>
    <path clip-path="url(#p4c8a4e8990)" d="M 214.207909 124.417865 
C 214.677969 124.417865 215.12884 124.231108 215.461223 123.898725 
C 215.793606 123.566342 215.980363 123.115471 215.980363 122.645411 
C 215.980363 122.175351 215.793606 121.72448 215.461223 121.392097 
C 215.12884 121.059714 214.677969 120.872957 214.207909 120.872957 
C 213.737849 120.872957 213.286978 121.059714 212.954595 121.392097 
C 212.622212 121.72448 212.435455 122.175351 212.435455 122.645411 
C 212.435455 123.115471 212.622212 123.566342 212.954595 123.898725 
C 213.286978 124.231108 213.737849 124.417865 214.207909 124.417865 
z
" style="stroke:#000000;stroke-width:0.886227;"/>
    <path clip-path="url(#p4c8a4e8990)" d="M 227.735182 130.384142 
C 228.205242 130.384142 228.656113 130.197385 228.988496 129.865002 
C 229.320879 129.532619 229.507636 129.081748 229.507636 128.611688 
C 229.507636 128.141627 229.320879 127.690756 228.988496 127.358374 
C 228.656113 127.025991 228.205242 126.839234 227.735182 126.839234 
C 227.265122 126.839234 226.81425 127.025991 226.481868 127.358374 
C 226.149485 127.690756 225.962728 128.141627 225.962728 128.611688 
C 225.962728 129.081748 226.149485 129.532619 226.481868 129.865002 
C 226.81425 130.197385 227.265122 130.384142 227.735182 130.384142 
z
" style="stroke:#000000;stroke-width:0.886227;"/>
    <path clip-path="url(#p4c8a4e8990)" d="M 241.262455 141.781731 
C 241.732515 141.781731 242.183386 141.594974 242.515769 141.262591 
C 242.848151 140.930208 243.034908 140.479337 243.034908 140.009277 
C 243.034908 139.539217 242.848151 139.088346 242.515769 138.755963 
C 242.183386 138.42358 241.732515 138.236823 241.262455 138.236823 
C 240.792394 138.236823 240.341523 138.42358 240.00914 138.755963 
C 239.676758 139.088346 239.490001 139.539217 239.490001 140.009277 
C 239.490001 140.479337 239.676758 140.930208 240.00914 141.262591 
C 240.341523 141.594974 240.792394 141.781731 241.262455 141.781731 
z
" style="stroke:#000000;stroke-width:0.886227;"/>
    <path clip-path="url(#p4c8a4e8990)" d="M 254.789727 142.307905 
C 255.259788 142.307905 255.710659 142.121148 256.043041 141.788765 
C 256.375424 141.456382 256.562181 141.005511 256.562181 140.535451 
C 256.562181 140.065391 256.375424 139.61452 256.043041 139.282137 
C 255.710659 138.949754 255.259788 138.762997 254.789727 138.762997 
C 254.319667 138.762997 253.868796 138.949754 253.536413 139.282137 
C 253.20403 139.61452 253.017273 140.065391 253.017273 140.535451 
C 253.017273 141.005511 253.20403 141.456382 253.536413 141.788765 
C 253.868796 142.121148 254.319667 142.307905 254.789727 142.307905 
z
" style="stroke:#000000;stroke-width:0.886227;"/>
    <path clip-path="url(#p4c8a4e8990)" d="M 268.317 151.538408 
C 268.78706 151.538408 269.237931 151.351651 269.570314 151.019268 
C 269.902697 150.686885 270.089454 150.236014 270.089454 149.765954 
C 270.089454 149.295894 269.902697 148.845023 269.570314 148.51264 
C 269.237931 148.180257 268.78706 147.9935 268.317 147.9935 
C 267.84694 147.9935 267.396069 148.180257 267.063686 148.51264 
C 266.731303 148.845023 266.544546 149.295894 266.544546 149.765954 
C 266.544546 150.236014 266.731303 150.686885 267.063686 151.019268 
C 267.396069 151.351651 267.84694 151.538408 268.317 151.538408 
z
" style="stroke:#000000;stroke-width:0.886227;"/>
    <path clip-path="url(#p4c8a4e8990)" d="M 281.844273 149.668392 
C 282.314333 149.668392 282.765204 149.481635 283.097587 149.149252 
C 283.42997 148.816869 283.616727 148.365998 283.616727 147.895938 
C 283.616727 147.425878 283.42997 146.975006 283.097587 146.642624 
C 282.765204 146.310241 282.314333 146.123484 281.844273 146.123484 
C 281.374212 146.123484 280.923341 146.310241 280.590959 146.642624 
C 280.258576 146.975006 280.071819 147.425878 280.071819 147.895938 
C 280.071819 148.365998 280.258576 148.816869 280.590959 149.149252 
C 280.923341 149.481635 281.374212 149.668392 281.844273 149.668392 
z
" style="stroke:#000000;stroke-width:0.886227;"/>
    <path clip-path="url(#p4c8a4e8990)" d="M 295.371545 156.029424 
C 295.841606 156.029424 296.292477 155.842667 296.62486 155.510285 
C 296.957242 155.177902 297.143999 154.727031 297.143999 154.25697 
C 297.143999 153.78691 296.957242 153.336039 296.62486 153.003656 
C 296.292477 152.671274 295.841606 152.484517 295.371545 152.484517 
C 294.901485 152.484517 294.450614 152.671274 294.118231 153.003656 
C 293.785849 153.336039 293.599092 153.78691 293.599092 154.25697 
C 293.599092 154.727031 293.785849 155.177902 294.118231 155.510285 
C 294.450614 155.842667 294.901485 156.029424 295.371545 156.029424 
z
" style="stroke:#000000;stroke-width:0.886227;"/>
    <path clip-path="url(#p4c8a4e8990)" d="M 308.898818 158.059642 
C 309.368878 158.059642 309.81975 157.872885 310.152132 157.540502 
C 310.484515 157.208119 310.671272 156.757248 310.671272 156.287188 
C 310.671272 155.817128 310.484515 155.366257 310.152132 155.033874 
C 309.81975 154.701491 309.368878 154.514734 308.898818 154.514734 
C 308.428758 154.514734 307.977887 154.701491 307.645504 155.033874 
C 307.313121 155.366257 307.126364 155.817128 307.126364 156.287188 
C 307.126364 156.757248 307.313121 157.208119 307.645504 157.540502 
C 307.977887 157.872885 308.428758 158.059642 308.898818 158.059642 
z
" style="stroke:#000000;stroke-width:0.886227;"/>
    <path clip-path="url(#p4c8a4e8990)" d="M 322.426091 162.644222 
C 322.896151 162.644222 323.347022 162.457465 323.679405 162.125083 
C 324.011788 161.7927 324.198545 161.341829 324.198545 160.871768 
C 324.198545 160.401708 324.011788 159.950837 323.679405 159.618454 
C 323.347022 159.286072 322.896151 159.099315 322.426091 159.099315 
C 321.956031 159.099315 321.50516 159.286072 321.172777 159.618454 
C 320.840394 159.950837 320.653637 160.401708 320.653637 160.871768 
C 320.653637 161.341829 320.840394 161.7927 321.172777 162.125083 
C 321.50516 162.457465 321.956031 162.644222 322.426091 162.644222 
z
" style="stroke:#000000;stroke-width:0.886227;"/>
    <path clip-path="url(#p4c8a4e8990)" d="M 335.953364 156.805521 
C 336.423424 156.805521 336.874295 156.618764 337.206678 156.286381 
C 337.539061 155.953998 337.725817 155.503127 337.725817 155.033067 
C 337.725817 154.563007 337.539061 154.112136 337.206678 153.779753 
C 336.874295 153.44737 336.423424 153.260613 335.953364 153.260613 
C 335.483303 153.260613 335.032432 153.44737 334.700049 153.779753 
C 334.367667 154.112136 334.18091 154.563007 334.18091 155.033067 
C 334.18091 155.503127 334.367667 155.953998 334.700049 156.286381 
C 335.032432 156.618764 335.483303 156.805521 335.953364 156.805521 
z
" style="stroke:#000000;stroke-width:0.886227;"/>
    <path clip-path="url(#p4c8a4e8990)" d="M 349.480636 155.596771 
C 349.950697 155.596771 350.401568 155.410014 350.733951 155.077631 
C 351.066333 154.745248 351.25309 154.294377 351.25309 153.824317 
C 351.25309 153.354257 351.066333 152.903386 350.733951 152.571003 
C 350.401568 152.23862 349.950697 152.051863 349.480636 152.051863 
C 349.010576 152.051863 348.559705 152.23862 348.227322 152.571003 
C 347.894939 152.903386 347.708183 153.354257 347.708183 153.824317 
C 347.708183 154.294377 347.894939 154.745248 348.227322 155.077631 
C 348.559705 155.410014 349.010576 155.596771 349.480636 155.596771 
z
" style="stroke:#000000;stroke-width:0.886227;"/>
    <path clip-path="url(#p4c8a4e8990)" d="M 363.007909 162.220393 
C 363.477969 162.220393 363.92884 162.033636 364.261223 161.701253 
C 364.593606 161.368871 364.780363 160.917999 364.780363 160.447939 
C 364.780363 159.977879 364.593606 159.527008 364.261223 159.194625 
C 363.92884 158.862242 363.477969 158.675485 363.007909 158.675485 
C 362.537849 158.675485 362.086978 158.862242 361.754595 159.194625 
C 361.422212 159.527008 361.235455 159.977879 361.235455 160.447939 
C 361.235455 160.917999 361.422212 161.368871 361.754595 161.701253 
C 362.086978 162.033636 362.537849 162.220393 363.007909 162.220393 
z
" style="stroke:#000000;stroke-width:0.886227;"/>
    <path clip-path="url(#p4c8a4e8990)" d="M 376.535182 167.769206 
C 377.005242 167.769206 377.456113 167.582449 377.788496 167.250066 
C 378.120879 166.917684 378.307636 166.466812 378.307636 165.996752 
C 378.307636 165.526692 378.120879 165.075821 377.788496 164.743438 
C 377.456113 164.411055 377.005242 164.224298 376.535182 164.224298 
C 376.065122 164.224298 375.61425 164.411055 375.281868 164.743438 
C 374.949485 165.075821 374.762728 165.526692 374.762728 165.996752 
C 374.762728 166.466812 374.949485 166.917684 375.281868 167.250066 
C 375.61425 167.582449 376.065122 167.769206 376.535182 167.769206 
z
" style="stroke:#000000;stroke-width:0.886227;"/>
    <path clip-path="url(#p4c8a4e8990)" d="M 390.062455 176.395656 
C 390.532515 176.395656 390.983386 176.208899 391.315769 175.876516 
C 391.648151 175.544134 391.834908 175.093262 391.834908 174.623202 
C 391.834908 174.153142 391.648151 173.702271 391.315769 173.369888 
C 390.983386 173.037505 390.532515 172.850748 390.062455 172.850748 
C 389.592394 172.850748 389.141523 173.037505 388.80914 173.369888 
C 388.476758 173.702271 388.290001 174.153142 388.290001 174.623202 
C 388.290001 175.093262 388.476758 175.544134 388.80914 175.876516 
C 389.141523 176.208899 389.592394 176.395656 390.062455 176.395656 
z
" style="stroke:#000000;stroke-width:0.886227;"/>
    <path clip-path="url(#p4c8a4e8990)" d="M 403.589727 171.203971 
C 404.059788 171.203971 404.510659 171.017215 404.843041 170.684832 
C 405.175424 170.352449 405.362181 169.901578 405.362181 169.431518 
C 405.362181 168.961457 405.175424 168.510586 404.843041 168.178204 
C 404.510659 167.845821 404.059788 167.659064 403.589727 167.659064 
C 403.119667 167.659064 402.668796 167.845821 402.336413 168.178204 
C 402.00403 168.510586 401.817273 168.961457 401.817273 169.431518 
C 401.817273 169.901578 402.00403 170.352449 402.336413 170.684832 
C 402.668796 171.017215 403.119667 171.203971 403.589727 171.203971 
z
" style="stroke:#000000;stroke-width:0.886227;"/>
    <path clip-path="url(#p4c8a4e8990)" d="M 417.117 168.466708 
C 417.58706 168.466708 418.037931 168.279951 418.370314 167.947569 
C 418.702697 167.615186 418.889454 167.164315 418.889454 166.694254 
C 418.889454 166.224194 418.702697 165.773323 418.370314 165.44094 
C 418.037931 165.108558 417.58706 164.921801 417.117 164.921801 
C 416.64694 164.921801 416.196069 165.108558 415.863686 165.44094 
C 415.531303 165.773323 415.344546 166.224194 415.344546 166.694254 
C 415.344546 167.164315 415.531303 167.615186 415.863686 167.947569 
C 416.196069 168.279951 416.64694 168.466708 417.117 168.466708 
z
" style="stroke:#000000;stroke-width:0.886227;"/>
    <path clip-path="url(#p4c8a4e8990)" d="M 430.644273 174.594501 
C 431.114333 174.594501 431.565204 174.407744 431.897587 174.075361 
C 432.22997 173.742978 432.416727 173.292107 432.416727 172.822047 
C 432.416727 172.351987 432.22997 171.901116 431.897587 171.568733 
C 431.565204 171.23635 431.114333 171.049593 430.644273 171.049593 
C 430.174212 171.049593 429.723341 171.23635 429.390959 171.568733 
C 429.058576 171.901116 428.871819 172.351987 428.871819 172.822047 
C 428.871819 173.292107 429.058576 173.742978 429.390959 174.075361 
C 429.723341 174.407744 430.174212 174.594501 430.644273 174.594501 
z
" style="stroke:#000000;stroke-width:0.886227;"/>
    <path clip-path="url(#p4c8a4e8990)" d="M 444.171545 176.415026 
C 444.641606 176.415026 445.092477 176.228269 445.42486 175.895886 
C 445.757242 175.563503 445.943999 175.112632 445.943999 174.642572 
C 445.943999 174.172512 445.757242 173.721641 445.42486 173.389258 
C 445.092477 173.056875 444.641606 172.870118 444.171545 172.870118 
C 443.701485 172.870118 443.250614 173.056875 442.918231 173.389258 
C 442.585849 173.721641 442.399092 174.172512 442.399092 174.642572 
C 442.399092 175.112632 442.585849 175.563503 442.918231 175.895886 
C 443.250614 176.228269 443.701485 176.415026 444.171545 176.415026 
z
" style="stroke:#000000;stroke-width:0.886227;"/>
    <path clip-path="url(#p4c8a4e8990)" d="M 457.698818 181.603625 
C 458.168878 181.603625 458.61975 181.416868 458.952132 181.084485 
C 459.284515 180.752102 459.471272 180.301231 459.471272 179.831171 
C 459.471272 179.361111 459.284515 178.91024 458.952132 178.577857 
C 458.61975 178.245474 458.168878 178.058717 457.698818 178.058717 
C 457.228758 178.058717 456.777887 178.245474 456.445504 178.577857 
C 456.113121 178.91024 455.926364 179.361111 455.926364 179.831171 
C 455.926364 180.301231 456.113121 180.752102 456.445504 181.084485 
C 456.777887 181.416868 457.228758 181.603625 457.698818 181.603625 
z
" style="stroke:#000000;stroke-width:0.886227;"/>
    <path clip-path="url(#p4c8a4e8990)" d="M 471.226091 175.570777 
C 471.696151 175.570777 472.147022 175.38402 472.479405 175.051638 
C 472.811788 174.719255 472.998545 174.268384 472.998545 173.798324 
C 472.998545 173.328263 472.811788 172.877392 472.479405 172.545009 
C 472.147022 172.212627 471.696151 172.02587 471.226091 172.02587 
C 470.756031 172.02587 470.30516 172.212627 469.972777 172.545009 
C 469.640394 172.877392 469.453637 173.328263 469.453637 173.798324 
C 469.453637 174.268384 469.640394 174.719255 469.972777 175.051638 
C 470.30516 175.38402 470.756031 175.570777 471.226091 175.570777 
z
" style="stroke:#000000;stroke-width:0.886227;"/>
   </g>
   <g id="line2d_33">
    <path clip-path="url(#p4c8a4e8990)" d="M 65.407909 52.773361 
L 78.935182 54.223005 
L 92.462455 60.967289 
L 105.989727 61.495652 
L 119.517 69.932734 
L 133.044273 77.071563 
L 146.571545 82.013954 
L 160.098818 90.571701 
L 173.626091 93.864051 
L 187.153364 105.821328 
L 200.680636 115.333009 
L 214.207909 122.645411 
L 227.735182 128.611688 
L 241.262455 140.009277 
L 254.789727 140.535451 
L 268.317 149.765954 
L 281.844273 147.895938 
L 295.371545 154.25697 
L 308.898818 156.287188 
L 322.426091 160.871768 
L 335.953364 155.033067 
L 349.480636 153.824317 
L 363.007909 160.447939 
L 376.535182 165.996752 
L 390.062455 174.623202 
L 403.589727 169.431518 
L 417.117 166.694254 
L 430.644273 172.822047 
L 444.171545 174.642572 
L 457.698818 179.831171 
L 471.226091 173.798324 
" style="fill:none;stroke:#000000;stroke-width:0.886227;"/>
   </g>
  </g>
 </g>
 <defs>
  <clipPath id="p4c8a4e8990">
   <rect height="221.76" width="446.4" x="45.117" y="7.2"/>
  </clipPath>
 </defs>
</svg>
