<?xml version="1.0" encoding="utf-8" standalone="no"?>
<!DOCTYPE svg PUBLIC "-//W3C//DTD SVG 1.1//EN"
  "http://www.w3.org/Graphics/SVG/1.1/DTD/svg11.dtd">
<svg xmlns:xlink="http://www.w3.org/1999/xlink" width="513.9925pt" height="276.021875pt" viewBox="0 0 513.9925 276.021875" xmlns="http://www.w3.org/2000/svg" version="1.1">
 <metadata>
  <rdf:RDF xmlns:dc="http://purl.org/dc/elements/1.1/" xmlns:cc="http://creativecommons.org/ns#" xmlns:rdf="http://www.w3.org/1999/02/22-rdf-syntax-ns#">
   <cc:Work>
    <dc:type rdf:resource="http://purl.org/dc/dcmitype/StillImage"/>
    <dc:date>2023-11-24T10:41:55.822624</dc:date>
    <dc:format>image/svg+xml</dc:format>
    <dc:creator>
     <cc:Agent>
      <dc:title>Matplotlib v3.5.2, https://matplotlib.org/</dc:title>
     </cc:Agent>
    </dc:creator>
   </cc:Work>
  </rdf:RDF>
 </metadata>
 <defs>
  <style type="text/css">*{stroke-linejoin: round; stroke-linecap: butt}</style>
 </defs>
 <g id="figure_1">
  <g id="patch_1">
   <path d="M 0 276.021875 
L 513.9925 276.021875 
L 513.9925 0 
L 0 0 
z
" style="fill: #ffffff; stroke: #ffffff; stroke-linejoin: miter"/>
  </g>
  <g id="axes_1">
   <g id="patch_2">
    <path d="M 60.3925 228.96 
L 506.7925 228.96 
L 506.7925 7.2 
L 60.3925 7.2 
z
" style="fill: #ffffff"/>
   </g>
   <g id="matplotlib.axis_1">
    <g id="xtick_1">
     <g id="line2d_1">
      <path d="M 80.68341 228.96 
" style="fill: none; stroke: #333333; stroke-width: 1.5"/>
      <defs>
       <path id="m96fc5cb7f0" d="M 0 0 
L 0 2.75 
" style="stroke: #000000"/>
      </defs>
      <g>
       <use xlink:href="#m96fc5cb7f0" x="80.68341" y="228.96" style="fill: #333333; stroke: #000000"/>
      </g>
     </g>
     <g id="text_1">
      <!-- 1 -->
      <g transform="translate(76.22966 244.547812)scale(0.14 -0.14)">
       <defs>
        <path id="DejaVuSans-31" d="M 794 531 
L 1825 531 
L 1825 4091 
L 703 3866 
L 703 4441 
L 1819 4666 
L 2450 4666 
L 2450 531 
L 3481 531 
L 3481 0 
L 794 0 
L 794 531 
z
" transform="scale(0.015625)"/>
       </defs>
       <use xlink:href="#DejaVuSans-31"/>
      </g>
     </g>
    </g>
    <g id="xtick_2">
     <g id="line2d_2">
      <path d="M 215.956137 228.96 
" style="fill: none; stroke: #333333; stroke-width: 1.5"/>
      <g>
       <use xlink:href="#m96fc5cb7f0" x="215.956137" y="228.96" style="fill: #333333; stroke: #000000"/>
      </g>
     </g>
     <g id="text_2">
      <!-- 2 -->
      <g transform="translate(211.502387 244.547812)scale(0.14 -0.14)">
       <defs>
        <path id="DejaVuSans-32" d="M 1228 531 
L 3431 531 
L 3431 0 
L 469 0 
L 469 531 
Q 828 903 1448 1529 
Q 2069 2156 2228 2338 
Q 2531 2678 2651 2914 
Q 2772 3150 2772 3378 
Q 2772 3750 2511 3984 
Q 2250 4219 1831 4219 
Q 1534 4219 1204 4116 
Q 875 4013 500 3803 
L 500 4441 
Q 881 4594 1212 4672 
Q 1544 4750 1819 4750 
Q 2544 4750 2975 4387 
Q 3406 4025 3406 3419 
Q 3406 3131 3298 2873 
Q 3191 2616 2906 2266 
Q 2828 2175 2409 1742 
Q 1991 1309 1228 531 
z
" transform="scale(0.015625)"/>
       </defs>
       <use xlink:href="#DejaVuSans-32"/>
      </g>
     </g>
    </g>
    <g id="xtick_3">
     <g id="line2d_3">
      <path d="M 351.228863 228.96 
" style="fill: none; stroke: #333333; stroke-width: 1.5"/>
      <g>
       <use xlink:href="#m96fc5cb7f0" x="351.228863" y="228.96" style="fill: #333333; stroke: #000000"/>
      </g>
     </g>
     <g id="text_3">
      <!-- 3 -->
      <g transform="translate(346.775113 244.547812)scale(0.14 -0.14)">
       <defs>
        <path id="DejaVuSans-33" d="M 2597 2516 
Q 3050 2419 3304 2112 
Q 3559 1806 3559 1356 
Q 3559 666 3084 287 
Q 2609 -91 1734 -91 
Q 1441 -91 1130 -33 
Q 819 25 488 141 
L 488 750 
Q 750 597 1062 519 
Q 1375 441 1716 441 
Q 2309 441 2620 675 
Q 2931 909 2931 1356 
Q 2931 1769 2642 2001 
Q 2353 2234 1838 2234 
L 1294 2234 
L 1294 2753 
L 1863 2753 
Q 2328 2753 2575 2939 
Q 2822 3125 2822 3475 
Q 2822 3834 2567 4026 
Q 2313 4219 1838 4219 
Q 1578 4219 1281 4162 
Q 984 4106 628 3988 
L 628 4550 
Q 988 4650 1302 4700 
Q 1616 4750 1894 4750 
Q 2613 4750 3031 4423 
Q 3450 4097 3450 3541 
Q 3450 3153 3228 2886 
Q 3006 2619 2597 2516 
z
" transform="scale(0.015625)"/>
       </defs>
       <use xlink:href="#DejaVuSans-33"/>
      </g>
     </g>
    </g>
    <g id="xtick_4">
     <g id="line2d_4">
      <path d="M 486.50159 228.96 
" style="fill: none; stroke: #333333; stroke-width: 1.5"/>
      <g>
       <use xlink:href="#m96fc5cb7f0" x="486.50159" y="228.96" style="fill: #333333; stroke: #000000"/>
      </g>
     </g>
     <g id="text_4">
      <!-- 4 -->
      <g transform="translate(482.04784 244.547812)scale(0.14 -0.14)">
       <defs>
        <path id="DejaVuSans-34" d="M 2419 4116 
L 825 1625 
L 2419 1625 
L 2419 4116 
z
M 2253 4666 
L 3047 4666 
L 3047 1625 
L 3713 1625 
L 3713 1100 
L 3047 1100 
L 3047 0 
L 2419 0 
L 2419 1100 
L 313 1100 
L 313 1709 
L 2253 4666 
z
" transform="scale(0.015625)"/>
       </defs>
       <use xlink:href="#DejaVuSans-34"/>
      </g>
     </g>
    </g>
    <g id="xtick_5"/>
    <g id="xtick_6"/>
    <g id="xtick_7"/>
    <g id="text_5">
     <!-- Resolution [Å] -->
     <g transform="translate(220.335 265.494375)scale(0.16 -0.16)">
      <defs>
       <path id="DejaVuSans-52" d="M 2841 2188 
Q 3044 2119 3236 1894 
Q 3428 1669 3622 1275 
L 4263 0 
L 3584 0 
L 2988 1197 
Q 2756 1666 2539 1819 
Q 2322 1972 1947 1972 
L 1259 1972 
L 1259 0 
L 628 0 
L 628 4666 
L 2053 4666 
Q 2853 4666 3247 4331 
Q 3641 3997 3641 3322 
Q 3641 2881 3436 2590 
Q 3231 2300 2841 2188 
z
M 1259 4147 
L 1259 2491 
L 2053 2491 
Q 2509 2491 2742 2702 
Q 2975 2913 2975 3322 
Q 2975 3731 2742 3939 
Q 2509 4147 2053 4147 
L 1259 4147 
z
" transform="scale(0.015625)"/>
       <path id="DejaVuSans-65" d="M 3597 1894 
L 3597 1613 
L 953 1613 
Q 991 1019 1311 708 
Q 1631 397 2203 397 
Q 2534 397 2845 478 
Q 3156 559 3463 722 
L 3463 178 
Q 3153 47 2828 -22 
Q 2503 -91 2169 -91 
Q 1331 -91 842 396 
Q 353 884 353 1716 
Q 353 2575 817 3079 
Q 1281 3584 2069 3584 
Q 2775 3584 3186 3129 
Q 3597 2675 3597 1894 
z
M 3022 2063 
Q 3016 2534 2758 2815 
Q 2500 3097 2075 3097 
Q 1594 3097 1305 2825 
Q 1016 2553 972 2059 
L 3022 2063 
z
" transform="scale(0.015625)"/>
       <path id="DejaVuSans-73" d="M 2834 3397 
L 2834 2853 
Q 2591 2978 2328 3040 
Q 2066 3103 1784 3103 
Q 1356 3103 1142 2972 
Q 928 2841 928 2578 
Q 928 2378 1081 2264 
Q 1234 2150 1697 2047 
L 1894 2003 
Q 2506 1872 2764 1633 
Q 3022 1394 3022 966 
Q 3022 478 2636 193 
Q 2250 -91 1575 -91 
Q 1294 -91 989 -36 
Q 684 19 347 128 
L 347 722 
Q 666 556 975 473 
Q 1284 391 1588 391 
Q 1994 391 2212 530 
Q 2431 669 2431 922 
Q 2431 1156 2273 1281 
Q 2116 1406 1581 1522 
L 1381 1569 
Q 847 1681 609 1914 
Q 372 2147 372 2553 
Q 372 3047 722 3315 
Q 1072 3584 1716 3584 
Q 2034 3584 2315 3537 
Q 2597 3491 2834 3397 
z
" transform="scale(0.015625)"/>
       <path id="DejaVuSans-6f" d="M 1959 3097 
Q 1497 3097 1228 2736 
Q 959 2375 959 1747 
Q 959 1119 1226 758 
Q 1494 397 1959 397 
Q 2419 397 2687 759 
Q 2956 1122 2956 1747 
Q 2956 2369 2687 2733 
Q 2419 3097 1959 3097 
z
M 1959 3584 
Q 2709 3584 3137 3096 
Q 3566 2609 3566 1747 
Q 3566 888 3137 398 
Q 2709 -91 1959 -91 
Q 1206 -91 779 398 
Q 353 888 353 1747 
Q 353 2609 779 3096 
Q 1206 3584 1959 3584 
z
" transform="scale(0.015625)"/>
       <path id="DejaVuSans-6c" d="M 603 4863 
L 1178 4863 
L 1178 0 
L 603 0 
L 603 4863 
z
" transform="scale(0.015625)"/>
       <path id="DejaVuSans-75" d="M 544 1381 
L 544 3500 
L 1119 3500 
L 1119 1403 
Q 1119 906 1312 657 
Q 1506 409 1894 409 
Q 2359 409 2629 706 
Q 2900 1003 2900 1516 
L 2900 3500 
L 3475 3500 
L 3475 0 
L 2900 0 
L 2900 538 
Q 2691 219 2414 64 
Q 2138 -91 1772 -91 
Q 1169 -91 856 284 
Q 544 659 544 1381 
z
M 1991 3584 
L 1991 3584 
z
" transform="scale(0.015625)"/>
       <path id="DejaVuSans-74" d="M 1172 4494 
L 1172 3500 
L 2356 3500 
L 2356 3053 
L 1172 3053 
L 1172 1153 
Q 1172 725 1289 603 
Q 1406 481 1766 481 
L 2356 481 
L 2356 0 
L 1766 0 
Q 1100 0 847 248 
Q 594 497 594 1153 
L 594 3053 
L 172 3053 
L 172 3500 
L 594 3500 
L 594 4494 
L 1172 4494 
z
" transform="scale(0.015625)"/>
       <path id="DejaVuSans-69" d="M 603 3500 
L 1178 3500 
L 1178 0 
L 603 0 
L 603 3500 
z
M 603 4863 
L 1178 4863 
L 1178 4134 
L 603 4134 
L 603 4863 
z
" transform="scale(0.015625)"/>
       <path id="DejaVuSans-6e" d="M 3513 2113 
L 3513 0 
L 2938 0 
L 2938 2094 
Q 2938 2591 2744 2837 
Q 2550 3084 2163 3084 
Q 1697 3084 1428 2787 
Q 1159 2491 1159 1978 
L 1159 0 
L 581 0 
L 581 3500 
L 1159 3500 
L 1159 2956 
Q 1366 3272 1645 3428 
Q 1925 3584 2291 3584 
Q 2894 3584 3203 3211 
Q 3513 2838 3513 2113 
z
" transform="scale(0.015625)"/>
       <path id="DejaVuSans-20" transform="scale(0.015625)"/>
       <path id="DejaVuSans-5b" d="M 550 4863 
L 1875 4863 
L 1875 4416 
L 1125 4416 
L 1125 -397 
L 1875 -397 
L 1875 -844 
L 550 -844 
L 550 4863 
z
" transform="scale(0.015625)"/>
       <path id="DejaVuSans-c5" d="M 2663 5081 
Q 2663 5278 2523 5417 
Q 2384 5556 2188 5556 
Q 1988 5556 1852 5420 
Q 1716 5284 1716 5081 
Q 1716 4884 1853 4746 
Q 1991 4609 2188 4609 
Q 2384 4609 2523 4746 
Q 2663 4884 2663 5081 
z
M 2188 4044 
L 1338 1722 
L 3041 1722 
L 2188 4044 
z
M 1716 4366 
Q 1525 4494 1428 4673 
Q 1331 4853 1331 5081 
Q 1331 5441 1579 5691 
Q 1828 5941 2188 5941 
Q 2544 5941 2795 5689 
Q 3047 5438 3047 5081 
Q 3047 4863 2948 4678 
Q 2850 4494 2663 4366 
L 4325 0 
L 3669 0 
L 3244 1197 
L 1141 1197 
L 716 0 
L 50 0 
L 1716 4366 
z
" transform="scale(0.015625)"/>
       <path id="DejaVuSans-5d" d="M 1947 4863 
L 1947 -844 
L 622 -844 
L 622 -397 
L 1369 -397 
L 1369 4416 
L 622 4416 
L 622 4863 
L 1947 4863 
z
" transform="scale(0.015625)"/>
      </defs>
      <use xlink:href="#DejaVuSans-52"/>
      <use xlink:href="#DejaVuSans-65" x="64.982422"/>
      <use xlink:href="#DejaVuSans-73" x="126.505859"/>
      <use xlink:href="#DejaVuSans-6f" x="178.605469"/>
      <use xlink:href="#DejaVuSans-6c" x="239.787109"/>
      <use xlink:href="#DejaVuSans-75" x="267.570312"/>
      <use xlink:href="#DejaVuSans-74" x="330.949219"/>
      <use xlink:href="#DejaVuSans-69" x="370.158203"/>
      <use xlink:href="#DejaVuSans-6f" x="397.941406"/>
      <use xlink:href="#DejaVuSans-6e" x="459.123047"/>
      <use xlink:href="#DejaVuSans-20" x="522.501953"/>
      <use xlink:href="#DejaVuSans-5b" x="554.289062"/>
      <use xlink:href="#DejaVuSans-c5" x="593.302734"/>
      <use xlink:href="#DejaVuSans-5d" x="661.710938"/>
     </g>
    </g>
   </g>
   <g id="matplotlib.axis_2">
    <g id="ytick_1">
     <g id="line2d_5">
      <path d="M 60.3925 218.88 
" style="fill: none; stroke: #333333; stroke-width: 1.5"/>
      <defs>
       <path id="m794127c940" d="M 0 0 
L -2.75 0 
" style="stroke: #000000"/>
      </defs>
      <g>
       <use xlink:href="#m794127c940" x="60.3925" y="218.88" style="fill: #333333; stroke: #000000"/>
      </g>
     </g>
     <g id="text_6">
      <!-- 0 -->
      <g transform="translate(46.535 222.743125)scale(0.14 -0.14)">
       <defs>
        <path id="DejaVuSans-30" d="M 2034 4250 
Q 1547 4250 1301 3770 
Q 1056 3291 1056 2328 
Q 1056 1369 1301 889 
Q 1547 409 2034 409 
Q 2525 409 2770 889 
Q 3016 1369 3016 2328 
Q 3016 3291 2770 3770 
Q 2525 4250 2034 4250 
z
M 2034 4750 
Q 2819 4750 3233 4129 
Q 3647 3509 3647 2328 
Q 3647 1150 3233 529 
Q 2819 -91 2034 -91 
Q 1250 -91 836 529 
Q 422 1150 422 2328 
Q 422 3509 836 4129 
Q 1250 4750 2034 4750 
z
" transform="scale(0.015625)"/>
       </defs>
       <use xlink:href="#DejaVuSans-30"/>
      </g>
     </g>
    </g>
    <g id="ytick_2">
     <g id="line2d_6">
      <path d="M 60.3925 168.48 
" style="fill: none; stroke: #333333; stroke-width: 1.5"/>
      <g>
       <use xlink:href="#m794127c940" x="60.3925" y="168.48" style="fill: #333333; stroke: #000000"/>
      </g>
     </g>
     <g id="text_7">
      <!-- 25 -->
      <g transform="translate(37.6275 172.343125)scale(0.14 -0.14)">
       <defs>
        <path id="DejaVuSans-35" d="M 691 4666 
L 3169 4666 
L 3169 4134 
L 1269 4134 
L 1269 2991 
Q 1406 3038 1543 3061 
Q 1681 3084 1819 3084 
Q 2600 3084 3056 2656 
Q 3513 2228 3513 1497 
Q 3513 744 3044 326 
Q 2575 -91 1722 -91 
Q 1428 -91 1123 -41 
Q 819 9 494 109 
L 494 744 
Q 775 591 1075 516 
Q 1375 441 1709 441 
Q 2250 441 2565 725 
Q 2881 1009 2881 1497 
Q 2881 1984 2565 2268 
Q 2250 2553 1709 2553 
Q 1456 2553 1204 2497 
Q 953 2441 691 2322 
L 691 4666 
z
" transform="scale(0.015625)"/>
       </defs>
       <use xlink:href="#DejaVuSans-32"/>
       <use xlink:href="#DejaVuSans-35" x="63.623047"/>
      </g>
     </g>
    </g>
    <g id="ytick_3">
     <g id="line2d_7">
      <path d="M 60.3925 118.08 
" style="fill: none; stroke: #333333; stroke-width: 1.5"/>
      <g>
       <use xlink:href="#m794127c940" x="60.3925" y="118.08" style="fill: #333333; stroke: #000000"/>
      </g>
     </g>
     <g id="text_8">
      <!-- 50 -->
      <g transform="translate(37.6275 121.943125)scale(0.14 -0.14)">
       <use xlink:href="#DejaVuSans-35"/>
       <use xlink:href="#DejaVuSans-30" x="63.623047"/>
      </g>
     </g>
    </g>
    <g id="ytick_4">
     <g id="line2d_8">
      <path d="M 60.3925 67.68 
" style="fill: none; stroke: #333333; stroke-width: 1.5"/>
      <g>
       <use xlink:href="#m794127c940" x="60.3925" y="67.68" style="fill: #333333; stroke: #000000"/>
      </g>
     </g>
     <g id="text_9">
      <!-- 75 -->
      <g transform="translate(37.6275 71.543125)scale(0.14 -0.14)">
       <defs>
        <path id="DejaVuSans-37" d="M 525 4666 
L 3525 4666 
L 3525 4397 
L 1831 0 
L 1172 0 
L 2766 4134 
L 525 4134 
L 525 4666 
z
" transform="scale(0.015625)"/>
       </defs>
       <use xlink:href="#DejaVuSans-37"/>
       <use xlink:href="#DejaVuSans-35" x="63.623047"/>
      </g>
     </g>
    </g>
    <g id="ytick_5">
     <g id="line2d_9">
      <path d="M 60.3925 17.28 
" style="fill: none; stroke: #333333; stroke-width: 1.5"/>
      <g>
       <use xlink:href="#m794127c940" x="60.3925" y="17.28" style="fill: #333333; stroke: #000000"/>
      </g>
     </g>
     <g id="text_10">
      <!-- 100 -->
      <g transform="translate(28.72 21.143125)scale(0.14 -0.14)">
       <use xlink:href="#DejaVuSans-31"/>
       <use xlink:href="#DejaVuSans-30" x="63.623047"/>
       <use xlink:href="#DejaVuSans-30" x="127.246094"/>
      </g>
     </g>
    </g>
    <g id="ytick_6"/>
    <g id="ytick_7"/>
    <g id="ytick_8"/>
    <g id="ytick_9"/>
    <g id="text_11">
     <!-- $P_{Q1p}$ [%] -->
     <g transform="translate(19.36 149.6)rotate(-90)scale(0.16 -0.16)">
      <defs>
       <path id="DejaVuSans-Oblique-50" d="M 1081 4666 
L 2541 4666 
Q 3178 4666 3512 4369 
Q 3847 4072 3847 3500 
Q 3847 2731 3353 2303 
Q 2859 1875 1966 1875 
L 1172 1875 
L 806 0 
L 172 0 
L 1081 4666 
z
M 1613 4147 
L 1275 2394 
L 2069 2394 
Q 2606 2394 2893 2669 
Q 3181 2944 3181 3456 
Q 3181 3784 2986 3965 
Q 2791 4147 2438 4147 
L 1613 4147 
z
" transform="scale(0.015625)"/>
       <path id="DejaVuSans-Oblique-51" d="M 2309 -84 
Q 2275 -88 2237 -89 
Q 2200 -91 2125 -91 
Q 1250 -91 756 411 
Q 263 913 263 1797 
Q 263 2319 452 2844 
Q 641 3369 978 3788 
Q 1369 4269 1858 4509 
Q 2347 4750 2938 4750 
Q 3794 4750 4287 4245 
Q 4781 3741 4781 2869 
Q 4781 1928 4265 1147 
Q 3750 366 2919 44 
L 3553 -825 
L 2847 -825 
L 2309 -84 
z
M 2919 4238 
Q 2400 4238 2003 3986 
Q 1606 3734 1313 3219 
Q 1125 2891 1026 2522 
Q 928 2153 928 1778 
Q 928 1128 1239 775 
Q 1550 422 2119 422 
Q 2631 422 3032 676 
Q 3434 931 3719 1434 
Q 3909 1772 4009 2142 
Q 4109 2513 4109 2881 
Q 4109 3528 3796 3883 
Q 3484 4238 2919 4238 
z
" transform="scale(0.015625)"/>
       <path id="DejaVuSans-Oblique-70" d="M 3175 2156 
Q 3175 2616 2975 2859 
Q 2775 3103 2400 3103 
Q 2144 3103 1911 2972 
Q 1678 2841 1497 2591 
Q 1319 2344 1212 1994 
Q 1106 1644 1106 1300 
Q 1106 863 1306 627 
Q 1506 391 1875 391 
Q 2147 391 2380 519 
Q 2613 647 2778 891 
Q 2956 1147 3065 1494 
Q 3175 1841 3175 2156 
z
M 1394 2969 
Q 1625 3272 1939 3428 
Q 2253 3584 2638 3584 
Q 3175 3584 3472 3232 
Q 3769 2881 3769 2247 
Q 3769 1728 3584 1258 
Q 3400 788 3053 416 
Q 2822 169 2531 39 
Q 2241 -91 1919 -91 
Q 1547 -91 1294 64 
Q 1041 219 916 525 
L 556 -1331 
L -19 -1331 
L 922 3500 
L 1497 3500 
L 1394 2969 
z
" transform="scale(0.015625)"/>
       <path id="DejaVuSans-25" d="M 4653 2053 
Q 4381 2053 4226 1822 
Q 4072 1591 4072 1178 
Q 4072 772 4226 539 
Q 4381 306 4653 306 
Q 4919 306 5073 539 
Q 5228 772 5228 1178 
Q 5228 1588 5073 1820 
Q 4919 2053 4653 2053 
z
M 4653 2450 
Q 5147 2450 5437 2106 
Q 5728 1763 5728 1178 
Q 5728 594 5436 251 
Q 5144 -91 4653 -91 
Q 4153 -91 3862 251 
Q 3572 594 3572 1178 
Q 3572 1766 3864 2108 
Q 4156 2450 4653 2450 
z
M 1428 4353 
Q 1159 4353 1004 4120 
Q 850 3888 850 3481 
Q 850 3069 1003 2837 
Q 1156 2606 1428 2606 
Q 1700 2606 1854 2837 
Q 2009 3069 2009 3481 
Q 2009 3884 1853 4118 
Q 1697 4353 1428 4353 
z
M 4250 4750 
L 4750 4750 
L 1831 -91 
L 1331 -91 
L 4250 4750 
z
M 1428 4750 
Q 1922 4750 2215 4408 
Q 2509 4066 2509 3481 
Q 2509 2891 2217 2550 
Q 1925 2209 1428 2209 
Q 931 2209 642 2551 
Q 353 2894 353 3481 
Q 353 4063 643 4406 
Q 934 4750 1428 4750 
z
" transform="scale(0.015625)"/>
      </defs>
      <use xlink:href="#DejaVuSans-Oblique-50" transform="translate(0 0.015625)"/>
      <use xlink:href="#DejaVuSans-Oblique-51" transform="translate(60.302734 -16.390625)scale(0.7)"/>
      <use xlink:href="#DejaVuSans-31" transform="translate(115.400391 -16.390625)scale(0.7)"/>
      <use xlink:href="#DejaVuSans-Oblique-70" transform="translate(159.936523 -16.390625)scale(0.7)"/>
      <use xlink:href="#DejaVuSans-20" transform="translate(207.104492 0.015625)"/>
      <use xlink:href="#DejaVuSans-5b" transform="translate(238.891602 0.015625)"/>
      <use xlink:href="#DejaVuSans-25" transform="translate(277.905273 0.015625)"/>
      <use xlink:href="#DejaVuSans-5d" transform="translate(372.924805 0.015625)"/>
     </g>
    </g>
   </g>
   <g id="LineCollection_1">
    <path d="M 80.683409 52.248575 
L 80.68341 52.248575 
" clip-path="url(#p88a22ebab1)" style="fill: none; stroke: #9da0a2; stroke-width: 1.32934"/>
    <path d="M 94.210682 54.608612 
L 94.210683 54.608612 
" clip-path="url(#p88a22ebab1)" style="fill: none; stroke: #9da0a2; stroke-width: 1.32934"/>
    <path d="M 107.737954 61.573621 
L 107.737956 61.573621 
" clip-path="url(#p88a22ebab1)" style="fill: none; stroke: #9da0a2; stroke-width: 1.32934"/>
    <path d="M 121.265227 62.123615 
L 121.265228 62.123615 
" clip-path="url(#p88a22ebab1)" style="fill: none; stroke: #9da0a2; stroke-width: 1.32934"/>
    <path d="M 134.7925 69.837807 
L 134.792501 69.837807 
" clip-path="url(#p88a22ebab1)" style="fill: none; stroke: #9da0a2; stroke-width: 1.32934"/>
    <path d="M 148.319773 77.881847 
L 148.319774 77.881847 
" clip-path="url(#p88a22ebab1)" style="fill: none; stroke: #9da0a2; stroke-width: 1.32934"/>
    <path d="M 161.847045 83.047076 
L 161.847047 83.047076 
" clip-path="url(#p88a22ebab1)" style="fill: none; stroke: #9da0a2; stroke-width: 1.32934"/>
    <path d="M 175.374318 92.165183 
L 175.374319 92.165183 
" clip-path="url(#p88a22ebab1)" style="fill: none; stroke: #9da0a2; stroke-width: 1.32934"/>
    <path d="M 188.901591 95.588381 
L 188.901592 95.588381 
" clip-path="url(#p88a22ebab1)" style="fill: none; stroke: #9da0a2; stroke-width: 1.32934"/>
    <path d="M 202.428863 107.905528 
L 202.428865 107.905528 
" clip-path="url(#p88a22ebab1)" style="fill: none; stroke: #9da0a2; stroke-width: 1.32934"/>
    <path d="M 215.956136 117.476051 
L 215.956137 117.476051 
" clip-path="url(#p88a22ebab1)" style="fill: none; stroke: #9da0a2; stroke-width: 1.32934"/>
    <path d="M 229.483409 125.190962 
L 229.48341 125.190962 
" clip-path="url(#p88a22ebab1)" style="fill: none; stroke: #9da0a2; stroke-width: 1.32934"/>
    <path d="M 243.010681 130.676261 
L 243.010683 130.676261 
" clip-path="url(#p88a22ebab1)" style="fill: none; stroke: #9da0a2; stroke-width: 1.32934"/>
    <path d="M 256.537954 141.747201 
L 256.537955 141.747201 
" clip-path="url(#p88a22ebab1)" style="fill: none; stroke: #9da0a2; stroke-width: 1.32934"/>
    <path d="M 270.065227 143.380645 
L 270.065228 143.380645 
" clip-path="url(#p88a22ebab1)" style="fill: none; stroke: #9da0a2; stroke-width: 1.32934"/>
    <path d="M 283.592499 152.292899 
L 283.592501 152.292899 
" clip-path="url(#p88a22ebab1)" style="fill: none; stroke: #9da0a2; stroke-width: 1.32934"/>
    <path d="M 297.119772 150.788834 
L 297.119773 150.788834 
" clip-path="url(#p88a22ebab1)" style="fill: none; stroke: #9da0a2; stroke-width: 1.32934"/>
    <path d="M 310.647045 156.707011 
L 310.647046 156.707011 
" clip-path="url(#p88a22ebab1)" style="fill: none; stroke: #9da0a2; stroke-width: 1.32934"/>
    <path d="M 324.174317 158.686005 
L 324.174319 158.686005 
" clip-path="url(#p88a22ebab1)" style="fill: none; stroke: #9da0a2; stroke-width: 1.32934"/>
    <path d="M 337.70159 163.470396 
L 337.701591 163.470396 
" clip-path="url(#p88a22ebab1)" style="fill: none; stroke: #9da0a2; stroke-width: 1.32934"/>
    <path d="M 351.228863 156.642413 
L 351.228864 156.642413 
" clip-path="url(#p88a22ebab1)" style="fill: none; stroke: #9da0a2; stroke-width: 1.32934"/>
    <path d="M 364.756135 154.875923 
L 364.756137 154.875923 
" clip-path="url(#p88a22ebab1)" style="fill: none; stroke: #9da0a2; stroke-width: 1.32934"/>
    <path d="M 378.283408 162.163092 
L 378.283409 162.163092 
" clip-path="url(#p88a22ebab1)" style="fill: none; stroke: #9da0a2; stroke-width: 1.32934"/>
    <path d="M 391.810681 168.770403 
L 391.810682 168.770403 
" clip-path="url(#p88a22ebab1)" style="fill: none; stroke: #9da0a2; stroke-width: 1.32934"/>
    <path d="M 405.337953 176.577172 
L 405.337955 176.577172 
" clip-path="url(#p88a22ebab1)" style="fill: none; stroke: #9da0a2; stroke-width: 1.32934"/>
    <path d="M 418.865226 169.01742 
L 418.865227 169.01742 
" clip-path="url(#p88a22ebab1)" style="fill: none; stroke: #9da0a2; stroke-width: 1.32934"/>
    <path d="M 432.392499 167.475483 
L 432.3925 167.475483 
" clip-path="url(#p88a22ebab1)" style="fill: none; stroke: #9da0a2; stroke-width: 1.32934"/>
    <path d="M 445.919772 175.288696 
L 445.919773 175.288696 
" clip-path="url(#p88a22ebab1)" style="fill: none; stroke: #9da0a2; stroke-width: 1.32934"/>
    <path d="M 459.447044 176.373601 
L 459.447046 176.373601 
" clip-path="url(#p88a22ebab1)" style="fill: none; stroke: #9da0a2; stroke-width: 1.32934"/>
    <path d="M 472.974317 183.631546 
L 472.974318 183.631546 
" clip-path="url(#p88a22ebab1)" style="fill: none; stroke: #9da0a2; stroke-width: 1.32934"/>
    <path d="M 486.50159 176.172713 
L 486.501591 176.172713 
" clip-path="url(#p88a22ebab1)" style="fill: none; stroke: #9da0a2; stroke-width: 1.32934"/>
    <path d="M 80.683409 50.894403 
L 80.68341 50.894403 
" clip-path="url(#p88a22ebab1)" style="fill: none; stroke: #9da0a2; stroke-width: 1.32934"/>
    <path d="M 94.210682 53.024716 
L 94.210683 53.024716 
" clip-path="url(#p88a22ebab1)" style="fill: none; stroke: #9da0a2; stroke-width: 1.32934"/>
    <path d="M 107.737954 60.253268 
L 107.737956 60.253268 
" clip-path="url(#p88a22ebab1)" style="fill: none; stroke: #9da0a2; stroke-width: 1.32934"/>
    <path d="M 121.265227 60.696361 
L 121.265228 60.696361 
" clip-path="url(#p88a22ebab1)" style="fill: none; stroke: #9da0a2; stroke-width: 1.32934"/>
    <path d="M 134.7925 68.77347 
L 134.792501 68.77347 
" clip-path="url(#p88a22ebab1)" style="fill: none; stroke: #9da0a2; stroke-width: 1.32934"/>
    <path d="M 148.319773 76.771308 
L 148.319774 76.771308 
" clip-path="url(#p88a22ebab1)" style="fill: none; stroke: #9da0a2; stroke-width: 1.32934"/>
    <path d="M 161.847045 82.136535 
L 161.847047 82.136535 
" clip-path="url(#p88a22ebab1)" style="fill: none; stroke: #9da0a2; stroke-width: 1.32934"/>
    <path d="M 175.374318 91.117999 
L 175.374319 91.117999 
" clip-path="url(#p88a22ebab1)" style="fill: none; stroke: #9da0a2; stroke-width: 1.32934"/>
    <path d="M 188.901591 94.799967 
L 188.901592 94.799967 
" clip-path="url(#p88a22ebab1)" style="fill: none; stroke: #9da0a2; stroke-width: 1.32934"/>
    <path d="M 202.428863 106.948755 
L 202.428865 106.948755 
" clip-path="url(#p88a22ebab1)" style="fill: none; stroke: #9da0a2; stroke-width: 1.32934"/>
    <path d="M 215.956136 116.689916 
L 215.956137 116.689916 
" clip-path="url(#p88a22ebab1)" style="fill: none; stroke: #9da0a2; stroke-width: 1.32934"/>
    <path d="M 229.483409 124.116566 
L 229.48341 124.116566 
" clip-path="url(#p88a22ebab1)" style="fill: none; stroke: #9da0a2; stroke-width: 1.32934"/>
    <path d="M 243.010681 129.733018 
L 243.010683 129.733018 
" clip-path="url(#p88a22ebab1)" style="fill: none; stroke: #9da0a2; stroke-width: 1.32934"/>
    <path d="M 256.537954 140.691957 
L 256.537955 140.691957 
" clip-path="url(#p88a22ebab1)" style="fill: none; stroke: #9da0a2; stroke-width: 1.32934"/>
    <path d="M 270.065227 142.347299 
L 270.065228 142.347299 
" clip-path="url(#p88a22ebab1)" style="fill: none; stroke: #9da0a2; stroke-width: 1.32934"/>
    <path d="M 283.592499 151.221831 
L 283.592501 151.221831 
" clip-path="url(#p88a22ebab1)" style="fill: none; stroke: #9da0a2; stroke-width: 1.32934"/>
    <path d="M 297.119772 149.688251 
L 297.119773 149.688251 
" clip-path="url(#p88a22ebab1)" style="fill: none; stroke: #9da0a2; stroke-width: 1.32934"/>
    <path d="M 310.647045 155.404149 
L 310.647046 155.404149 
" clip-path="url(#p88a22ebab1)" style="fill: none; stroke: #9da0a2; stroke-width: 1.32934"/>
    <path d="M 324.174317 157.584549 
L 324.174319 157.584549 
" clip-path="url(#p88a22ebab1)" style="fill: none; stroke: #9da0a2; stroke-width: 1.32934"/>
    <path d="M 337.70159 161.973337 
L 337.701591 161.973337 
" clip-path="url(#p88a22ebab1)" style="fill: none; stroke: #9da0a2; stroke-width: 1.32934"/>
    <path d="M 351.228863 155.27483 
L 351.228864 155.27483 
" clip-path="url(#p88a22ebab1)" style="fill: none; stroke: #9da0a2; stroke-width: 1.32934"/>
    <path d="M 364.756135 152.91558 
L 364.756137 152.91558 
" clip-path="url(#p88a22ebab1)" style="fill: none; stroke: #9da0a2; stroke-width: 1.32934"/>
    <path d="M 378.283408 160.402971 
L 378.283409 160.402971 
" clip-path="url(#p88a22ebab1)" style="fill: none; stroke: #9da0a2; stroke-width: 1.32934"/>
    <path d="M 391.810681 166.425849 
L 391.810682 166.425849 
" clip-path="url(#p88a22ebab1)" style="fill: none; stroke: #9da0a2; stroke-width: 1.32934"/>
    <path d="M 405.337953 174.2285 
L 405.337955 174.2285 
" clip-path="url(#p88a22ebab1)" style="fill: none; stroke: #9da0a2; stroke-width: 1.32934"/>
    <path d="M 418.865226 166.473974 
L 418.865227 166.473974 
" clip-path="url(#p88a22ebab1)" style="fill: none; stroke: #9da0a2; stroke-width: 1.32934"/>
    <path d="M 432.392499 164.252069 
L 432.3925 164.252069 
" clip-path="url(#p88a22ebab1)" style="fill: none; stroke: #9da0a2; stroke-width: 1.32934"/>
    <path d="M 445.919772 170.630307 
L 445.919773 170.630307 
" clip-path="url(#p88a22ebab1)" style="fill: none; stroke: #9da0a2; stroke-width: 1.32934"/>
    <path d="M 459.447044 172.474489 
L 459.447046 172.474489 
" clip-path="url(#p88a22ebab1)" style="fill: none; stroke: #9da0a2; stroke-width: 1.32934"/>
    <path d="M 472.974317 178.594622 
L 472.974318 178.594622 
" clip-path="url(#p88a22ebab1)" style="fill: none; stroke: #9da0a2; stroke-width: 1.32934"/>
    <path d="M 486.50159 173.982137 
L 486.501591 173.982137 
" clip-path="url(#p88a22ebab1)" style="fill: none; stroke: #9da0a2; stroke-width: 1.32934"/>
    <path d="M 80.68341 50.894403 
L 80.68341 52.248575 
" clip-path="url(#p88a22ebab1)" style="fill: none; stroke: #9da0a2; stroke-width: 1.32934"/>
    <path d="M 94.210682 53.024716 
L 94.210682 54.608612 
" clip-path="url(#p88a22ebab1)" style="fill: none; stroke: #9da0a2; stroke-width: 1.32934"/>
    <path d="M 107.737955 60.253268 
L 107.737955 61.573621 
" clip-path="url(#p88a22ebab1)" style="fill: none; stroke: #9da0a2; stroke-width: 1.32934"/>
    <path d="M 121.265228 60.696361 
L 121.265228 62.123615 
" clip-path="url(#p88a22ebab1)" style="fill: none; stroke: #9da0a2; stroke-width: 1.32934"/>
    <path d="M 134.7925 68.77347 
L 134.7925 69.837807 
" clip-path="url(#p88a22ebab1)" style="fill: none; stroke: #9da0a2; stroke-width: 1.32934"/>
    <path d="M 148.319773 76.771308 
L 148.319773 77.881847 
" clip-path="url(#p88a22ebab1)" style="fill: none; stroke: #9da0a2; stroke-width: 1.32934"/>
    <path d="M 161.847046 82.136535 
L 161.847046 83.047076 
" clip-path="url(#p88a22ebab1)" style="fill: none; stroke: #9da0a2; stroke-width: 1.32934"/>
    <path d="M 175.374319 91.117999 
L 175.374319 92.165183 
" clip-path="url(#p88a22ebab1)" style="fill: none; stroke: #9da0a2; stroke-width: 1.32934"/>
    <path d="M 188.901591 94.799967 
L 188.901591 95.588381 
" clip-path="url(#p88a22ebab1)" style="fill: none; stroke: #9da0a2; stroke-width: 1.32934"/>
    <path d="M 202.428864 106.948755 
L 202.428864 107.905528 
" clip-path="url(#p88a22ebab1)" style="fill: none; stroke: #9da0a2; stroke-width: 1.32934"/>
    <path d="M 215.956137 116.689916 
L 215.956137 117.476051 
" clip-path="url(#p88a22ebab1)" style="fill: none; stroke: #9da0a2; stroke-width: 1.32934"/>
    <path d="M 229.483409 124.116566 
L 229.483409 125.190962 
" clip-path="url(#p88a22ebab1)" style="fill: none; stroke: #9da0a2; stroke-width: 1.32934"/>
    <path d="M 243.010682 129.733018 
L 243.010682 130.676261 
" clip-path="url(#p88a22ebab1)" style="fill: none; stroke: #9da0a2; stroke-width: 1.32934"/>
    <path d="M 256.537955 140.691957 
L 256.537955 141.747201 
" clip-path="url(#p88a22ebab1)" style="fill: none; stroke: #9da0a2; stroke-width: 1.32934"/>
    <path d="M 270.065227 142.347299 
L 270.065227 143.380645 
" clip-path="url(#p88a22ebab1)" style="fill: none; stroke: #9da0a2; stroke-width: 1.32934"/>
    <path d="M 283.5925 151.221831 
L 283.5925 152.292899 
" clip-path="url(#p88a22ebab1)" style="fill: none; stroke: #9da0a2; stroke-width: 1.32934"/>
    <path d="M 297.119773 149.688251 
L 297.119773 150.788834 
" clip-path="url(#p88a22ebab1)" style="fill: none; stroke: #9da0a2; stroke-width: 1.32934"/>
    <path d="M 310.647045 155.404149 
L 310.647045 156.707011 
" clip-path="url(#p88a22ebab1)" style="fill: none; stroke: #9da0a2; stroke-width: 1.32934"/>
    <path d="M 324.174318 157.584549 
L 324.174318 158.686005 
" clip-path="url(#p88a22ebab1)" style="fill: none; stroke: #9da0a2; stroke-width: 1.32934"/>
    <path d="M 337.701591 161.973337 
L 337.701591 163.470396 
" clip-path="url(#p88a22ebab1)" style="fill: none; stroke: #9da0a2; stroke-width: 1.32934"/>
    <path d="M 351.228863 155.27483 
L 351.228863 156.642413 
" clip-path="url(#p88a22ebab1)" style="fill: none; stroke: #9da0a2; stroke-width: 1.32934"/>
    <path d="M 364.756136 152.91558 
L 364.756136 154.875923 
" clip-path="url(#p88a22ebab1)" style="fill: none; stroke: #9da0a2; stroke-width: 1.32934"/>
    <path d="M 378.283409 160.402971 
L 378.283409 162.163092 
" clip-path="url(#p88a22ebab1)" style="fill: none; stroke: #9da0a2; stroke-width: 1.32934"/>
    <path d="M 391.810681 166.425849 
L 391.810681 168.770403 
" clip-path="url(#p88a22ebab1)" style="fill: none; stroke: #9da0a2; stroke-width: 1.32934"/>
    <path d="M 405.337954 174.2285 
L 405.337954 176.577172 
" clip-path="url(#p88a22ebab1)" style="fill: none; stroke: #9da0a2; stroke-width: 1.32934"/>
    <path d="M 418.865227 166.473974 
L 418.865227 169.01742 
" clip-path="url(#p88a22ebab1)" style="fill: none; stroke: #9da0a2; stroke-width: 1.32934"/>
    <path d="M 432.3925 164.252069 
L 432.3925 167.475483 
" clip-path="url(#p88a22ebab1)" style="fill: none; stroke: #9da0a2; stroke-width: 1.32934"/>
    <path d="M 445.919772 170.630307 
L 445.919772 175.288696 
" clip-path="url(#p88a22ebab1)" style="fill: none; stroke: #9da0a2; stroke-width: 1.32934"/>
    <path d="M 459.447045 172.474489 
L 459.447045 176.373601 
" clip-path="url(#p88a22ebab1)" style="fill: none; stroke: #9da0a2; stroke-width: 1.32934"/>
    <path d="M 472.974318 178.594622 
L 472.974318 183.631546 
" clip-path="url(#p88a22ebab1)" style="fill: none; stroke: #9da0a2; stroke-width: 1.32934"/>
    <path d="M 486.50159 173.982137 
L 486.50159 176.172713 
" clip-path="url(#p88a22ebab1)" style="fill: none; stroke: #9da0a2; stroke-width: 1.32934"/>
   </g>
   <g id="line2d_10">
    <path d="M 80.68341 51.571489 
L 94.210682 53.816664 
L 107.737955 60.913445 
L 121.265228 61.409988 
L 134.7925 69.305638 
L 148.319773 77.326578 
L 161.847046 82.591806 
L 175.374319 91.641591 
L 188.901591 95.194174 
L 202.428864 107.427141 
L 215.956137 117.082983 
L 229.483409 124.653764 
L 243.010682 130.204639 
L 256.537955 141.219579 
L 270.065227 142.863972 
L 283.5925 151.757365 
L 297.119773 150.238542 
L 310.647045 156.05558 
L 324.174318 158.135277 
L 337.701591 162.721867 
L 351.228863 155.958622 
L 364.756136 153.895751 
L 378.283409 161.283032 
L 391.810681 167.598126 
L 405.337954 175.402836 
L 418.865227 167.745697 
L 432.3925 165.863776 
L 445.919772 172.959501 
L 459.447045 174.424045 
L 472.974318 181.113084 
L 486.50159 175.077425 
" clip-path="url(#p88a22ebab1)" style="fill: none; stroke: #ee7733; stroke-width: 0.886227"/>
   </g>
   <g id="patch_3">
    <path d="M 60.3925 228.96 
L 60.3925 7.2 
" style="fill: none; stroke: #000000; stroke-linejoin: miter; stroke-linecap: square"/>
   </g>
   <g id="patch_4">
    <path d="M 60.3925 228.96 
L 506.7925 228.96 
" style="fill: none; stroke: #000000; stroke-linejoin: miter; stroke-linecap: square"/>
   </g>
   <g id="PathCollection_1">
    <path d="M 80.68341 53.343943 
C 81.15347 53.343943 81.604341 53.157186 81.936724 52.824803 
C 82.269107 52.49242 82.455864 52.041549 82.455864 51.571489 
C 82.455864 51.101429 82.269107 50.650558 81.936724 50.318175 
C 81.604341 49.985792 81.15347 49.799035 80.68341 49.799035 
C 80.21335 49.799035 79.762478 49.985792 79.430096 50.318175 
C 79.097713 50.650558 78.910956 51.101429 78.910956 51.571489 
C 78.910956 52.041549 79.097713 52.49242 79.430096 52.824803 
C 79.762478 53.157186 80.21335 53.343943 80.68341 53.343943 
z
" clip-path="url(#p88a22ebab1)" style="fill: #ee7733; stroke: #ee7733; stroke-width: 0.886227"/>
    <path d="M 94.210682 55.589118 
C 94.680743 55.589118 95.131614 55.402361 95.463997 55.069978 
C 95.796379 54.737595 95.983136 54.286724 95.983136 53.816664 
C 95.983136 53.346604 95.796379 52.895733 95.463997 52.56335 
C 95.131614 52.230967 94.680743 52.04421 94.210682 52.04421 
C 93.740622 52.04421 93.289751 52.230967 92.957368 52.56335 
C 92.624986 52.895733 92.438229 53.346604 92.438229 53.816664 
C 92.438229 54.286724 92.624986 54.737595 92.957368 55.069978 
C 93.289751 55.402361 93.740622 55.589118 94.210682 55.589118 
z
" clip-path="url(#p88a22ebab1)" style="fill: #ee7733; stroke: #ee7733; stroke-width: 0.886227"/>
    <path d="M 107.737955 62.685899 
C 108.208015 62.685899 108.658886 62.499142 108.991269 62.166759 
C 109.323652 61.834376 109.510409 61.383505 109.510409 60.913445 
C 109.510409 60.443385 109.323652 59.992513 108.991269 59.660131 
C 108.658886 59.327748 108.208015 59.140991 107.737955 59.140991 
C 107.267895 59.140991 106.817024 59.327748 106.484641 59.660131 
C 106.152258 59.992513 105.965501 60.443385 105.965501 60.913445 
C 105.965501 61.383505 106.152258 61.834376 106.484641 62.166759 
C 106.817024 62.499142 107.267895 62.685899 107.737955 62.685899 
z
" clip-path="url(#p88a22ebab1)" style="fill: #ee7733; stroke: #ee7733; stroke-width: 0.886227"/>
    <path d="M 121.265228 63.182442 
C 121.735288 63.182442 122.186159 62.995685 122.518542 62.663302 
C 122.850925 62.330919 123.037682 61.880048 123.037682 61.409988 
C 123.037682 60.939928 122.850925 60.489057 122.518542 60.156674 
C 122.186159 59.824291 121.735288 59.637534 121.265228 59.637534 
C 120.795168 59.637534 120.344296 59.824291 120.011914 60.156674 
C 119.679531 60.489057 119.492774 60.939928 119.492774 61.409988 
C 119.492774 61.880048 119.679531 62.330919 120.011914 62.663302 
C 120.344296 62.995685 120.795168 63.182442 121.265228 63.182442 
z
" clip-path="url(#p88a22ebab1)" style="fill: #ee7733; stroke: #ee7733; stroke-width: 0.886227"/>
    <path d="M 134.7925 71.078092 
C 135.262561 71.078092 135.713432 70.891335 136.045815 70.558953 
C 136.378197 70.22657 136.564954 69.775699 136.564954 69.305638 
C 136.564954 68.835578 136.378197 68.384707 136.045815 68.052324 
C 135.713432 67.719941 135.262561 67.533185 134.7925 67.533185 
C 134.32244 67.533185 133.871569 67.719941 133.539186 68.052324 
C 133.206804 68.384707 133.020047 68.835578 133.020047 69.305638 
C 133.020047 69.775699 133.206804 70.22657 133.539186 70.558953 
C 133.871569 70.891335 134.32244 71.078092 134.7925 71.078092 
z
" clip-path="url(#p88a22ebab1)" style="fill: #ee7733; stroke: #ee7733; stroke-width: 0.886227"/>
    <path d="M 148.319773 79.099031 
C 148.789833 79.099031 149.240705 78.912275 149.573087 78.579892 
C 149.90547 78.247509 150.092227 77.796638 150.092227 77.326578 
C 150.092227 76.856517 149.90547 76.405646 149.573087 76.073263 
C 149.240705 75.740881 148.789833 75.554124 148.319773 75.554124 
C 147.849713 75.554124 147.398842 75.740881 147.066459 76.073263 
C 146.734076 76.405646 146.547319 76.856517 146.547319 77.326578 
C 146.547319 77.796638 146.734076 78.247509 147.066459 78.579892 
C 147.398842 78.912275 147.849713 79.099031 148.319773 79.099031 
z
" clip-path="url(#p88a22ebab1)" style="fill: #ee7733; stroke: #ee7733; stroke-width: 0.886227"/>
    <path d="M 161.847046 84.36426 
C 162.317106 84.36426 162.767977 84.177503 163.10036 83.84512 
C 163.432743 83.512737 163.6195 83.061866 163.6195 82.591806 
C 163.6195 82.121745 163.432743 81.670874 163.10036 81.338492 
C 162.767977 81.006109 162.317106 80.819352 161.847046 80.819352 
C 161.376986 80.819352 160.926115 81.006109 160.593732 81.338492 
C 160.261349 81.670874 160.074592 82.121745 160.074592 82.591806 
C 160.074592 83.061866 160.261349 83.512737 160.593732 83.84512 
C 160.926115 84.177503 161.376986 84.36426 161.847046 84.36426 
z
" clip-path="url(#p88a22ebab1)" style="fill: #ee7733; stroke: #ee7733; stroke-width: 0.886227"/>
    <path d="M 175.374319 93.414045 
C 175.844379 93.414045 176.29525 93.227288 176.627633 92.894905 
C 176.960015 92.562522 177.146772 92.111651 177.146772 91.641591 
C 177.146772 91.171531 176.960015 90.72066 176.627633 90.388277 
C 176.29525 90.055894 175.844379 89.869137 175.374319 89.869137 
C 174.904258 89.869137 174.453387 90.055894 174.121004 90.388277 
C 173.788622 90.72066 173.601865 91.171531 173.601865 91.641591 
C 173.601865 92.111651 173.788622 92.562522 174.121004 92.894905 
C 174.453387 93.227288 174.904258 93.414045 175.374319 93.414045 
z
" clip-path="url(#p88a22ebab1)" style="fill: #ee7733; stroke: #ee7733; stroke-width: 0.886227"/>
    <path d="M 188.901591 96.966628 
C 189.371651 96.966628 189.822523 96.779871 190.154905 96.447488 
C 190.487288 96.115105 190.674045 95.664234 190.674045 95.194174 
C 190.674045 94.724114 190.487288 94.273242 190.154905 93.94086 
C 189.822523 93.608477 189.371651 93.42172 188.901591 93.42172 
C 188.431531 93.42172 187.98066 93.608477 187.648277 93.94086 
C 187.315894 94.273242 187.129137 94.724114 187.129137 95.194174 
C 187.129137 95.664234 187.315894 96.115105 187.648277 96.447488 
C 187.98066 96.779871 188.431531 96.966628 188.901591 96.966628 
z
" clip-path="url(#p88a22ebab1)" style="fill: #ee7733; stroke: #ee7733; stroke-width: 0.886227"/>
    <path d="M 202.428864 109.199595 
C 202.898924 109.199595 203.349795 109.012838 203.682178 108.680456 
C 204.014561 108.348073 204.201318 107.897202 204.201318 107.427141 
C 204.201318 106.957081 204.014561 106.50621 203.682178 106.173827 
C 203.349795 105.841445 202.898924 105.654688 202.428864 105.654688 
C 201.958804 105.654688 201.507933 105.841445 201.17555 106.173827 
C 200.843167 106.50621 200.65641 106.957081 200.65641 107.427141 
C 200.65641 107.897202 200.843167 108.348073 201.17555 108.680456 
C 201.507933 109.012838 201.958804 109.199595 202.428864 109.199595 
z
" clip-path="url(#p88a22ebab1)" style="fill: #ee7733; stroke: #ee7733; stroke-width: 0.886227"/>
    <path d="M 215.956137 118.855437 
C 216.426197 118.855437 216.877068 118.66868 217.209451 118.336298 
C 217.541834 118.003915 217.72859 117.553044 217.72859 117.082983 
C 217.72859 116.612923 217.541834 116.162052 217.209451 115.829669 
C 216.877068 115.497287 216.426197 115.31053 215.956137 115.31053 
C 215.486076 115.31053 215.035205 115.497287 214.702822 115.829669 
C 214.37044 116.162052 214.183683 116.612923 214.183683 117.082983 
C 214.183683 117.553044 214.37044 118.003915 214.702822 118.336298 
C 215.035205 118.66868 215.486076 118.855437 215.956137 118.855437 
z
" clip-path="url(#p88a22ebab1)" style="fill: #ee7733; stroke: #ee7733; stroke-width: 0.886227"/>
    <path d="M 229.483409 126.426218 
C 229.95347 126.426218 230.404341 126.239461 230.736723 125.907078 
C 231.069106 125.574695 231.255863 125.123824 231.255863 124.653764 
C 231.255863 124.183704 231.069106 123.732833 230.736723 123.40045 
C 230.404341 123.068067 229.95347 122.88131 229.483409 122.88131 
C 229.013349 122.88131 228.562478 123.068067 228.230095 123.40045 
C 227.897712 123.732833 227.710955 124.183704 227.710955 124.653764 
C 227.710955 125.123824 227.897712 125.574695 228.230095 125.907078 
C 228.562478 126.239461 229.013349 126.426218 229.483409 126.426218 
z
" clip-path="url(#p88a22ebab1)" style="fill: #ee7733; stroke: #ee7733; stroke-width: 0.886227"/>
    <path d="M 243.010682 131.977093 
C 243.480742 131.977093 243.931613 131.790336 244.263996 131.457953 
C 244.596379 131.12557 244.783136 130.674699 244.783136 130.204639 
C 244.783136 129.734579 244.596379 129.283708 244.263996 128.951325 
C 243.931613 128.618942 243.480742 128.432185 243.010682 128.432185 
C 242.540622 128.432185 242.089751 128.618942 241.757368 128.951325 
C 241.424985 129.283708 241.238228 129.734579 241.238228 130.204639 
C 241.238228 130.674699 241.424985 131.12557 241.757368 131.457953 
C 242.089751 131.790336 242.540622 131.977093 243.010682 131.977093 
z
" clip-path="url(#p88a22ebab1)" style="fill: #ee7733; stroke: #ee7733; stroke-width: 0.886227"/>
    <path d="M 256.537955 142.992033 
C 257.008015 142.992033 257.458886 142.805276 257.791269 142.472893 
C 258.123652 142.14051 258.310408 141.689639 258.310408 141.219579 
C 258.310408 140.749518 258.123652 140.298647 257.791269 139.966265 
C 257.458886 139.633882 257.008015 139.447125 256.537955 139.447125 
C 256.067894 139.447125 255.617023 139.633882 255.28464 139.966265 
C 254.952258 140.298647 254.765501 140.749518 254.765501 141.219579 
C 254.765501 141.689639 254.952258 142.14051 255.28464 142.472893 
C 255.617023 142.805276 256.067894 142.992033 256.537955 142.992033 
z
" clip-path="url(#p88a22ebab1)" style="fill: #ee7733; stroke: #ee7733; stroke-width: 0.886227"/>
    <path d="M 270.065227 144.636426 
C 270.535288 144.636426 270.986159 144.449669 271.318541 144.117286 
C 271.650924 143.784903 271.837681 143.334032 271.837681 142.863972 
C 271.837681 142.393912 271.650924 141.943041 271.318541 141.610658 
C 270.986159 141.278275 270.535288 141.091518 270.065227 141.091518 
C 269.595167 141.091518 269.144296 141.278275 268.811913 141.610658 
C 268.47953 141.943041 268.292773 142.393912 268.292773 142.863972 
C 268.292773 143.334032 268.47953 143.784903 268.811913 144.117286 
C 269.144296 144.449669 269.595167 144.636426 270.065227 144.636426 
z
" clip-path="url(#p88a22ebab1)" style="fill: #ee7733; stroke: #ee7733; stroke-width: 0.886227"/>
    <path d="M 283.5925 153.529819 
C 284.06256 153.529819 284.513431 153.343062 284.845814 153.010679 
C 285.178197 152.678296 285.364954 152.227425 285.364954 151.757365 
C 285.364954 151.287305 285.178197 150.836433 284.845814 150.504051 
C 284.513431 150.171668 284.06256 149.984911 283.5925 149.984911 
C 283.12244 149.984911 282.671569 150.171668 282.339186 150.504051 
C 282.006803 150.836433 281.820046 151.287305 281.820046 151.757365 
C 281.820046 152.227425 282.006803 152.678296 282.339186 153.010679 
C 282.671569 153.343062 283.12244 153.529819 283.5925 153.529819 
z
" clip-path="url(#p88a22ebab1)" style="fill: #ee7733; stroke: #ee7733; stroke-width: 0.886227"/>
    <path d="M 297.119773 152.010996 
C 297.589833 152.010996 298.040704 151.824239 298.373087 151.491857 
C 298.70547 151.159474 298.892227 150.708603 298.892227 150.238542 
C 298.892227 149.768482 298.70547 149.317611 298.373087 148.985228 
C 298.040704 148.652846 297.589833 148.466089 297.119773 148.466089 
C 296.649712 148.466089 296.198841 148.652846 295.866459 148.985228 
C 295.534076 149.317611 295.347319 149.768482 295.347319 150.238542 
C 295.347319 150.708603 295.534076 151.159474 295.866459 151.491857 
C 296.198841 151.824239 296.649712 152.010996 297.119773 152.010996 
z
" clip-path="url(#p88a22ebab1)" style="fill: #ee7733; stroke: #ee7733; stroke-width: 0.886227"/>
    <path d="M 310.647045 157.828034 
C 311.117106 157.828034 311.567977 157.641277 311.90036 157.308894 
C 312.232742 156.976511 312.419499 156.52564 312.419499 156.05558 
C 312.419499 155.585519 312.232742 155.134648 311.90036 154.802266 
C 311.567977 154.469883 311.117106 154.283126 310.647045 154.283126 
C 310.176985 154.283126 309.726114 154.469883 309.393731 154.802266 
C 309.061348 155.134648 308.874592 155.585519 308.874592 156.05558 
C 308.874592 156.52564 309.061348 156.976511 309.393731 157.308894 
C 309.726114 157.641277 310.176985 157.828034 310.647045 157.828034 
z
" clip-path="url(#p88a22ebab1)" style="fill: #ee7733; stroke: #ee7733; stroke-width: 0.886227"/>
    <path d="M 324.174318 159.907731 
C 324.644378 159.907731 325.095249 159.720974 325.427632 159.388591 
C 325.760015 159.056208 325.946772 158.605337 325.946772 158.135277 
C 325.946772 157.665216 325.760015 157.214345 325.427632 156.881963 
C 325.095249 156.54958 324.644378 156.362823 324.174318 156.362823 
C 323.704258 156.362823 323.253387 156.54958 322.921004 156.881963 
C 322.588621 157.214345 322.401864 157.665216 322.401864 158.135277 
C 322.401864 158.605337 322.588621 159.056208 322.921004 159.388591 
C 323.253387 159.720974 323.704258 159.907731 324.174318 159.907731 
z
" clip-path="url(#p88a22ebab1)" style="fill: #ee7733; stroke: #ee7733; stroke-width: 0.886227"/>
    <path d="M 337.701591 164.49432 
C 338.171651 164.49432 338.622522 164.307563 338.954905 163.975181 
C 339.287288 163.642798 339.474045 163.191927 339.474045 162.721867 
C 339.474045 162.251806 339.287288 161.800935 338.954905 161.468552 
C 338.622522 161.13617 338.171651 160.949413 337.701591 160.949413 
C 337.23153 160.949413 336.780659 161.13617 336.448277 161.468552 
C 336.115894 161.800935 335.929137 162.251806 335.929137 162.721867 
C 335.929137 163.191927 336.115894 163.642798 336.448277 163.975181 
C 336.780659 164.307563 337.23153 164.49432 337.701591 164.49432 
z
" clip-path="url(#p88a22ebab1)" style="fill: #ee7733; stroke: #ee7733; stroke-width: 0.886227"/>
    <path d="M 351.228863 157.731076 
C 351.698924 157.731076 352.149795 157.544319 352.482178 157.211936 
C 352.81456 156.879553 353.001317 156.428682 353.001317 155.958622 
C 353.001317 155.488561 352.81456 155.03769 352.482178 154.705308 
C 352.149795 154.372925 351.698924 154.186168 351.228863 154.186168 
C 350.758803 154.186168 350.307932 154.372925 349.975549 154.705308 
C 349.643166 155.03769 349.45641 155.488561 349.45641 155.958622 
C 349.45641 156.428682 349.643166 156.879553 349.975549 157.211936 
C 350.307932 157.544319 350.758803 157.731076 351.228863 157.731076 
z
" clip-path="url(#p88a22ebab1)" style="fill: #ee7733; stroke: #ee7733; stroke-width: 0.886227"/>
    <path d="M 364.756136 155.668205 
C 365.226196 155.668205 365.677067 155.481448 366.00945 155.149066 
C 366.341833 154.816683 366.52859 154.365812 366.52859 153.895751 
C 366.52859 153.425691 366.341833 152.97482 366.00945 152.642437 
C 365.677067 152.310054 365.226196 152.123298 364.756136 152.123298 
C 364.286076 152.123298 363.835205 152.310054 363.502822 152.642437 
C 363.170439 152.97482 362.983682 153.425691 362.983682 153.895751 
C 362.983682 154.365812 363.170439 154.816683 363.502822 155.149066 
C 363.835205 155.481448 364.286076 155.668205 364.756136 155.668205 
z
" clip-path="url(#p88a22ebab1)" style="fill: #ee7733; stroke: #ee7733; stroke-width: 0.886227"/>
    <path d="M 378.283409 163.055486 
C 378.753469 163.055486 379.20434 162.868729 379.536723 162.536346 
C 379.869106 162.203963 380.055863 161.753092 380.055863 161.283032 
C 380.055863 160.812972 379.869106 160.3621 379.536723 160.029718 
C 379.20434 159.697335 378.753469 159.510578 378.283409 159.510578 
C 377.813349 159.510578 377.362477 159.697335 377.030095 160.029718 
C 376.697712 160.3621 376.510955 160.812972 376.510955 161.283032 
C 376.510955 161.753092 376.697712 162.203963 377.030095 162.536346 
C 377.362477 162.868729 377.813349 163.055486 378.283409 163.055486 
z
" clip-path="url(#p88a22ebab1)" style="fill: #ee7733; stroke: #ee7733; stroke-width: 0.886227"/>
    <path d="M 391.810681 169.37058 
C 392.280742 169.37058 392.731613 169.183823 393.063996 168.85144 
C 393.396378 168.519057 393.583135 168.068186 393.583135 167.598126 
C 393.583135 167.128066 393.396378 166.677195 393.063996 166.344812 
C 392.731613 166.012429 392.280742 165.825672 391.810681 165.825672 
C 391.340621 165.825672 390.88975 166.012429 390.557367 166.344812 
C 390.224985 166.677195 390.038228 167.128066 390.038228 167.598126 
C 390.038228 168.068186 390.224985 168.519057 390.557367 168.85144 
C 390.88975 169.183823 391.340621 169.37058 391.810681 169.37058 
z
" clip-path="url(#p88a22ebab1)" style="fill: #ee7733; stroke: #ee7733; stroke-width: 0.886227"/>
    <path d="M 405.337954 177.17529 
C 405.808014 177.17529 406.258885 176.988533 406.591268 176.65615 
C 406.923651 176.323767 407.110408 175.872896 407.110408 175.402836 
C 407.110408 174.932776 406.923651 174.481905 406.591268 174.149522 
C 406.258885 173.817139 405.808014 173.630382 405.337954 173.630382 
C 404.867894 173.630382 404.417023 173.817139 404.08464 174.149522 
C 403.752257 174.481905 403.5655 174.932776 403.5655 175.402836 
C 403.5655 175.872896 403.752257 176.323767 404.08464 176.65615 
C 404.417023 176.988533 404.867894 177.17529 405.337954 177.17529 
z
" clip-path="url(#p88a22ebab1)" style="fill: #ee7733; stroke: #ee7733; stroke-width: 0.886227"/>
    <path d="M 418.865227 169.518151 
C 419.335287 169.518151 419.786158 169.331394 420.118541 168.999011 
C 420.450924 168.666628 420.637681 168.215757 420.637681 167.745697 
C 420.637681 167.275637 420.450924 166.824766 420.118541 166.492383 
C 419.786158 166.16 419.335287 165.973243 418.865227 165.973243 
C 418.395167 165.973243 417.944295 166.16 417.611913 166.492383 
C 417.27953 166.824766 417.092773 167.275637 417.092773 167.745697 
C 417.092773 168.215757 417.27953 168.666628 417.611913 168.999011 
C 417.944295 169.331394 418.395167 169.518151 418.865227 169.518151 
z
" clip-path="url(#p88a22ebab1)" style="fill: #ee7733; stroke: #ee7733; stroke-width: 0.886227"/>
    <path d="M 432.3925 167.636229 
C 432.86256 167.636229 433.313431 167.449473 433.645814 167.11709 
C 433.978196 166.784707 434.164953 166.333836 434.164953 165.863776 
C 434.164953 165.393715 433.978196 164.942844 433.645814 164.610461 
C 433.313431 164.278079 432.86256 164.091322 432.3925 164.091322 
C 431.922439 164.091322 431.471568 164.278079 431.139185 164.610461 
C 430.806803 164.942844 430.620046 165.393715 430.620046 165.863776 
C 430.620046 166.333836 430.806803 166.784707 431.139185 167.11709 
C 431.471568 167.449473 431.922439 167.636229 432.3925 167.636229 
z
" clip-path="url(#p88a22ebab1)" style="fill: #ee7733; stroke: #ee7733; stroke-width: 0.886227"/>
    <path d="M 445.919772 174.731955 
C 446.389832 174.731955 446.840704 174.545198 447.173086 174.212815 
C 447.505469 173.880433 447.692226 173.429561 447.692226 172.959501 
C 447.692226 172.489441 447.505469 172.03857 447.173086 171.706187 
C 446.840704 171.373804 446.389832 171.187047 445.919772 171.187047 
C 445.449712 171.187047 444.998841 171.373804 444.666458 171.706187 
C 444.334075 172.03857 444.147318 172.489441 444.147318 172.959501 
C 444.147318 173.429561 444.334075 173.880433 444.666458 174.212815 
C 444.998841 174.545198 445.449712 174.731955 445.919772 174.731955 
z
" clip-path="url(#p88a22ebab1)" style="fill: #ee7733; stroke: #ee7733; stroke-width: 0.886227"/>
    <path d="M 459.447045 176.196499 
C 459.917105 176.196499 460.367976 176.009742 460.700359 175.677359 
C 461.032742 175.344976 461.219499 174.894105 461.219499 174.424045 
C 461.219499 173.953985 461.032742 173.503114 460.700359 173.170731 
C 460.367976 172.838348 459.917105 172.651591 459.447045 172.651591 
C 458.976985 172.651591 458.526114 172.838348 458.193731 173.170731 
C 457.861348 173.503114 457.674591 173.953985 457.674591 174.424045 
C 457.674591 174.894105 457.861348 175.344976 458.193731 175.677359 
C 458.526114 176.009742 458.976985 176.196499 459.447045 176.196499 
z
" clip-path="url(#p88a22ebab1)" style="fill: #ee7733; stroke: #ee7733; stroke-width: 0.886227"/>
    <path d="M 472.974318 182.885538 
C 473.444378 182.885538 473.895249 182.698781 474.227632 182.366398 
C 474.560014 182.034015 474.746771 181.583144 474.746771 181.113084 
C 474.746771 180.643024 474.560014 180.192153 474.227632 179.85977 
C 473.895249 179.527387 473.444378 179.34063 472.974318 179.34063 
C 472.504257 179.34063 472.053386 179.527387 471.721003 179.85977 
C 471.388621 180.192153 471.201864 180.643024 471.201864 181.113084 
C 471.201864 181.583144 471.388621 182.034015 471.721003 182.366398 
C 472.053386 182.698781 472.504257 182.885538 472.974318 182.885538 
z
" clip-path="url(#p88a22ebab1)" style="fill: #ee7733; stroke: #ee7733; stroke-width: 0.886227"/>
    <path d="M 486.50159 176.849879 
C 486.97165 176.849879 487.422522 176.663122 487.754904 176.330739 
C 488.087287 175.998356 488.274044 175.547485 488.274044 175.077425 
C 488.274044 174.607365 488.087287 174.156494 487.754904 173.824111 
C 487.422522 173.491728 486.97165 173.304971 486.50159 173.304971 
C 486.03153 173.304971 485.580659 173.491728 485.248276 173.824111 
C 484.915893 174.156494 484.729136 174.607365 484.729136 175.077425 
C 484.729136 175.547485 484.915893 175.998356 485.248276 176.330739 
C 485.580659 176.663122 486.03153 176.849879 486.50159 176.849879 
z
" clip-path="url(#p88a22ebab1)" style="fill: #ee7733; stroke: #ee7733; stroke-width: 0.886227"/>
   </g>
  </g>
 </g>
 <defs>
  <clipPath id="p88a22ebab1">
   <rect x="60.3925" y="7.2" width="446.4" height="221.76"/>
  </clipPath>
 </defs>
</svg>
