<?xml version="1.0" encoding="utf-8" standalone="no"?>
<!DOCTYPE svg PUBLIC "-//W3C//DTD SVG 1.1//EN"
  "http://www.w3.org/Graphics/SVG/1.1/DTD/svg11.dtd">
<!-- Created with matplotlib (https://matplotlib.org/) -->
<svg height="264.672687pt" version="1.1" viewBox="0 0 498.167 264.672687" width="498.167pt" xmlns="http://www.w3.org/2000/svg" xmlns:xlink="http://www.w3.org/1999/xlink">
 <defs>
  <style type="text/css">
*{stroke-linecap:butt;stroke-linejoin:round;}
  </style>
 </defs>
 <g id="figure_1">
  <g id="patch_1">
   <path d="M 0 264.672687 
L 498.167 264.672687 
L 498.167 0 
L 0 0 
z
" style="fill:#ffffff;stroke:#ffffff;stroke-linejoin:miter;"/>
  </g>
  <g id="axes_1">
   <g id="patch_2">
    <path d="M 44.567 228.96 
L 490.967 228.96 
L 490.967 7.2 
L 44.567 7.2 
z
" style="fill:#ffffff;stroke:#7f7f7f;stroke-linejoin:miter;"/>
   </g>
   <g id="matplotlib.axis_1">
    <g id="xtick_1">
     <g id="line2d_1">
      <path clip-path="url(#pe65e8d446d)" d="M 64.857909 228.96 
L 64.857909 7.2 
" style="fill:none;stroke:#e5e5e5;stroke-width:0.8;"/>
     </g>
     <g id="line2d_2">
      <path d="M 64.857909 228.96 
" style="fill:none;stroke:#000000;stroke-width:1.5;"/>
      <defs>
       <path d="M 0 0 
L 0 2.75 
" id="m55e4e212b5" style="stroke:#000000;"/>
      </defs>
      <g>
       <use style="stroke:#000000;" x="64.857909" xlink:href="#m55e4e212b5" y="228.96"/>
      </g>
     </g>
     <g id="text_1">
      <!-- 1970 -->
      <defs>
       <path d="M 12.40625 8.296875 
L 28.515625 8.296875 
L 28.515625 63.921875 
L 10.984375 60.40625 
L 10.984375 69.390625 
L 28.421875 72.90625 
L 38.28125 72.90625 
L 38.28125 8.296875 
L 54.390625 8.296875 
L 54.390625 0 
L 12.40625 0 
z
" id="DejaVuSans-49"/>
       <path d="M 10.984375 1.515625 
L 10.984375 10.5 
Q 14.703125 8.734375 18.5 7.8125 
Q 22.3125 6.890625 25.984375 6.890625 
Q 35.75 6.890625 40.890625 13.453125 
Q 46.046875 20.015625 46.78125 33.40625 
Q 43.953125 29.203125 39.59375 26.953125 
Q 35.25 24.703125 29.984375 24.703125 
Q 19.046875 24.703125 12.671875 31.3125 
Q 6.296875 37.9375 6.296875 49.421875 
Q 6.296875 60.640625 12.9375 67.421875 
Q 19.578125 74.21875 30.609375 74.21875 
Q 43.265625 74.21875 49.921875 64.515625 
Q 56.59375 54.828125 56.59375 36.375 
Q 56.59375 19.140625 48.40625 8.859375 
Q 40.234375 -1.421875 26.421875 -1.421875 
Q 22.703125 -1.421875 18.890625 -0.6875 
Q 15.09375 0.046875 10.984375 1.515625 
z
M 30.609375 32.421875 
Q 37.25 32.421875 41.125 36.953125 
Q 45.015625 41.5 45.015625 49.421875 
Q 45.015625 57.28125 41.125 61.84375 
Q 37.25 66.40625 30.609375 66.40625 
Q 23.96875 66.40625 20.09375 61.84375 
Q 16.21875 57.28125 16.21875 49.421875 
Q 16.21875 41.5 20.09375 36.953125 
Q 23.96875 32.421875 30.609375 32.421875 
z
" id="DejaVuSans-57"/>
       <path d="M 8.203125 72.90625 
L 55.078125 72.90625 
L 55.078125 68.703125 
L 28.609375 0 
L 18.3125 0 
L 43.21875 64.59375 
L 8.203125 64.59375 
z
" id="DejaVuSans-55"/>
       <path d="M 31.78125 66.40625 
Q 24.171875 66.40625 20.328125 58.90625 
Q 16.5 51.421875 16.5 36.375 
Q 16.5 21.390625 20.328125 13.890625 
Q 24.171875 6.390625 31.78125 6.390625 
Q 39.453125 6.390625 43.28125 13.890625 
Q 47.125 21.390625 47.125 36.375 
Q 47.125 51.421875 43.28125 58.90625 
Q 39.453125 66.40625 31.78125 66.40625 
z
M 31.78125 74.21875 
Q 44.046875 74.21875 50.515625 64.515625 
Q 56.984375 54.828125 56.984375 36.375 
Q 56.984375 17.96875 50.515625 8.265625 
Q 44.046875 -1.421875 31.78125 -1.421875 
Q 19.53125 -1.421875 13.0625 8.265625 
Q 6.59375 17.96875 6.59375 36.375 
Q 6.59375 54.828125 13.0625 64.515625 
Q 19.53125 74.21875 31.78125 74.21875 
z
" id="DejaVuSans-48"/>
      </defs>
      <g transform="translate(53.659909 240.596625)scale(0.088 -0.088)">
       <use xlink:href="#DejaVuSans-49"/>
       <use x="63.623047" xlink:href="#DejaVuSans-57"/>
       <use x="127.246094" xlink:href="#DejaVuSans-55"/>
       <use x="190.869141" xlink:href="#DejaVuSans-48"/>
      </g>
     </g>
    </g>
    <g id="xtick_2">
     <g id="line2d_3">
      <path clip-path="url(#pe65e8d446d)" d="M 146.021545 228.96 
L 146.021545 7.2 
" style="fill:none;stroke:#e5e5e5;stroke-width:0.8;"/>
     </g>
     <g id="line2d_4">
      <path d="M 146.021545 228.96 
" style="fill:none;stroke:#000000;stroke-width:1.5;"/>
      <g>
       <use style="stroke:#000000;" x="146.021545" xlink:href="#m55e4e212b5" y="228.96"/>
      </g>
     </g>
     <g id="text_2">
      <!-- 1980 -->
      <defs>
       <path d="M 31.78125 34.625 
Q 24.75 34.625 20.71875 30.859375 
Q 16.703125 27.09375 16.703125 20.515625 
Q 16.703125 13.921875 20.71875 10.15625 
Q 24.75 6.390625 31.78125 6.390625 
Q 38.8125 6.390625 42.859375 10.171875 
Q 46.921875 13.96875 46.921875 20.515625 
Q 46.921875 27.09375 42.890625 30.859375 
Q 38.875 34.625 31.78125 34.625 
z
M 21.921875 38.8125 
Q 15.578125 40.375 12.03125 44.71875 
Q 8.5 49.078125 8.5 55.328125 
Q 8.5 64.0625 14.71875 69.140625 
Q 20.953125 74.21875 31.78125 74.21875 
Q 42.671875 74.21875 48.875 69.140625 
Q 55.078125 64.0625 55.078125 55.328125 
Q 55.078125 49.078125 51.53125 44.71875 
Q 48 40.375 41.703125 38.8125 
Q 48.828125 37.15625 52.796875 32.3125 
Q 56.78125 27.484375 56.78125 20.515625 
Q 56.78125 9.90625 50.3125 4.234375 
Q 43.84375 -1.421875 31.78125 -1.421875 
Q 19.734375 -1.421875 13.25 4.234375 
Q 6.78125 9.90625 6.78125 20.515625 
Q 6.78125 27.484375 10.78125 32.3125 
Q 14.796875 37.15625 21.921875 38.8125 
z
M 18.3125 54.390625 
Q 18.3125 48.734375 21.84375 45.5625 
Q 25.390625 42.390625 31.78125 42.390625 
Q 38.140625 42.390625 41.71875 45.5625 
Q 45.3125 48.734375 45.3125 54.390625 
Q 45.3125 60.0625 41.71875 63.234375 
Q 38.140625 66.40625 31.78125 66.40625 
Q 25.390625 66.40625 21.84375 63.234375 
Q 18.3125 60.0625 18.3125 54.390625 
z
" id="DejaVuSans-56"/>
      </defs>
      <g transform="translate(134.823545 240.596625)scale(0.088 -0.088)">
       <use xlink:href="#DejaVuSans-49"/>
       <use x="63.623047" xlink:href="#DejaVuSans-57"/>
       <use x="127.246094" xlink:href="#DejaVuSans-56"/>
       <use x="190.869141" xlink:href="#DejaVuSans-48"/>
      </g>
     </g>
    </g>
    <g id="xtick_3">
     <g id="line2d_5">
      <path clip-path="url(#pe65e8d446d)" d="M 227.185182 228.96 
L 227.185182 7.2 
" style="fill:none;stroke:#e5e5e5;stroke-width:0.8;"/>
     </g>
     <g id="line2d_6">
      <path d="M 227.185182 228.96 
" style="fill:none;stroke:#000000;stroke-width:1.5;"/>
      <g>
       <use style="stroke:#000000;" x="227.185182" xlink:href="#m55e4e212b5" y="228.96"/>
      </g>
     </g>
     <g id="text_3">
      <!-- 1990 -->
      <g transform="translate(215.987182 240.596625)scale(0.088 -0.088)">
       <use xlink:href="#DejaVuSans-49"/>
       <use x="63.623047" xlink:href="#DejaVuSans-57"/>
       <use x="127.246094" xlink:href="#DejaVuSans-57"/>
       <use x="190.869141" xlink:href="#DejaVuSans-48"/>
      </g>
     </g>
    </g>
    <g id="xtick_4">
     <g id="line2d_7">
      <path clip-path="url(#pe65e8d446d)" d="M 308.348818 228.96 
L 308.348818 7.2 
" style="fill:none;stroke:#e5e5e5;stroke-width:0.8;"/>
     </g>
     <g id="line2d_8">
      <path d="M 308.348818 228.96 
" style="fill:none;stroke:#000000;stroke-width:1.5;"/>
      <g>
       <use style="stroke:#000000;" x="308.348818" xlink:href="#m55e4e212b5" y="228.96"/>
      </g>
     </g>
     <g id="text_4">
      <!-- 2000 -->
      <defs>
       <path d="M 19.1875 8.296875 
L 53.609375 8.296875 
L 53.609375 0 
L 7.328125 0 
L 7.328125 8.296875 
Q 12.9375 14.109375 22.625 23.890625 
Q 32.328125 33.6875 34.8125 36.53125 
Q 39.546875 41.84375 41.421875 45.53125 
Q 43.3125 49.21875 43.3125 52.78125 
Q 43.3125 58.59375 39.234375 62.25 
Q 35.15625 65.921875 28.609375 65.921875 
Q 23.96875 65.921875 18.8125 64.3125 
Q 13.671875 62.703125 7.8125 59.421875 
L 7.8125 69.390625 
Q 13.765625 71.78125 18.9375 73 
Q 24.125 74.21875 28.421875 74.21875 
Q 39.75 74.21875 46.484375 68.546875 
Q 53.21875 62.890625 53.21875 53.421875 
Q 53.21875 48.921875 51.53125 44.890625 
Q 49.859375 40.875 45.40625 35.40625 
Q 44.1875 33.984375 37.640625 27.21875 
Q 31.109375 20.453125 19.1875 8.296875 
z
" id="DejaVuSans-50"/>
      </defs>
      <g transform="translate(297.150818 240.596625)scale(0.088 -0.088)">
       <use xlink:href="#DejaVuSans-50"/>
       <use x="63.623047" xlink:href="#DejaVuSans-48"/>
       <use x="127.246094" xlink:href="#DejaVuSans-48"/>
       <use x="190.869141" xlink:href="#DejaVuSans-48"/>
      </g>
     </g>
    </g>
    <g id="xtick_5">
     <g id="line2d_9">
      <path clip-path="url(#pe65e8d446d)" d="M 389.512455 228.96 
L 389.512455 7.2 
" style="fill:none;stroke:#e5e5e5;stroke-width:0.8;"/>
     </g>
     <g id="line2d_10">
      <path d="M 389.512455 228.96 
" style="fill:none;stroke:#000000;stroke-width:1.5;"/>
      <g>
       <use style="stroke:#000000;" x="389.512455" xlink:href="#m55e4e212b5" y="228.96"/>
      </g>
     </g>
     <g id="text_5">
      <!-- 2010 -->
      <g transform="translate(378.314455 240.596625)scale(0.088 -0.088)">
       <use xlink:href="#DejaVuSans-50"/>
       <use x="63.623047" xlink:href="#DejaVuSans-48"/>
       <use x="127.246094" xlink:href="#DejaVuSans-49"/>
       <use x="190.869141" xlink:href="#DejaVuSans-48"/>
      </g>
     </g>
    </g>
    <g id="xtick_6">
     <g id="line2d_11">
      <path clip-path="url(#pe65e8d446d)" d="M 470.676091 228.96 
L 470.676091 7.2 
" style="fill:none;stroke:#e5e5e5;stroke-width:0.8;"/>
     </g>
     <g id="line2d_12">
      <path d="M 470.676091 228.96 
" style="fill:none;stroke:#000000;stroke-width:1.5;"/>
      <g>
       <use style="stroke:#000000;" x="470.676091" xlink:href="#m55e4e212b5" y="228.96"/>
      </g>
     </g>
     <g id="text_6">
      <!-- 2020 -->
      <g transform="translate(459.478091 240.596625)scale(0.088 -0.088)">
       <use xlink:href="#DejaVuSans-50"/>
       <use x="63.623047" xlink:href="#DejaVuSans-48"/>
       <use x="127.246094" xlink:href="#DejaVuSans-50"/>
       <use x="190.869141" xlink:href="#DejaVuSans-48"/>
      </g>
     </g>
    </g>
    <g id="xtick_7">
     <g id="line2d_13">
      <path clip-path="url(#pe65e8d446d)" d="M 105.439727 228.96 
L 105.439727 7.2 
" style="fill:none;stroke:#fafafa;"/>
     </g>
     <g id="line2d_14">
      <path d="M 105.439727 228.96 
" style="fill:none;stroke:#000000;stroke-width:1.5;"/>
      <defs>
       <path d="M 0 0 
L 0 1.375 
" id="m104d8f97de" style="stroke:#000000;"/>
      </defs>
      <g>
       <use style="stroke:#000000;" x="105.439727" xlink:href="#m104d8f97de" y="228.96"/>
      </g>
     </g>
    </g>
    <g id="xtick_8">
     <g id="line2d_15">
      <path clip-path="url(#pe65e8d446d)" d="M 186.603364 228.96 
L 186.603364 7.2 
" style="fill:none;stroke:#fafafa;"/>
     </g>
     <g id="line2d_16">
      <path d="M 186.603364 228.96 
" style="fill:none;stroke:#000000;stroke-width:1.5;"/>
      <g>
       <use style="stroke:#000000;" x="186.603364" xlink:href="#m104d8f97de" y="228.96"/>
      </g>
     </g>
    </g>
    <g id="xtick_9">
     <g id="line2d_17">
      <path clip-path="url(#pe65e8d446d)" d="M 267.767 228.96 
L 267.767 7.2 
" style="fill:none;stroke:#fafafa;"/>
     </g>
     <g id="line2d_18">
      <path d="M 267.767 228.96 
" style="fill:none;stroke:#000000;stroke-width:1.5;"/>
      <g>
       <use style="stroke:#000000;" x="267.767" xlink:href="#m104d8f97de" y="228.96"/>
      </g>
     </g>
    </g>
    <g id="xtick_10">
     <g id="line2d_19">
      <path clip-path="url(#pe65e8d446d)" d="M 348.930636 228.96 
L 348.930636 7.2 
" style="fill:none;stroke:#fafafa;"/>
     </g>
     <g id="line2d_20">
      <path d="M 348.930636 228.96 
" style="fill:none;stroke:#000000;stroke-width:1.5;"/>
      <g>
       <use style="stroke:#000000;" x="348.930636" xlink:href="#m104d8f97de" y="228.96"/>
      </g>
     </g>
    </g>
    <g id="xtick_11">
     <g id="line2d_21">
      <path clip-path="url(#pe65e8d446d)" d="M 430.094273 228.96 
L 430.094273 7.2 
" style="fill:none;stroke:#fafafa;"/>
     </g>
     <g id="line2d_22">
      <path d="M 430.094273 228.96 
" style="fill:none;stroke:#000000;stroke-width:1.5;"/>
      <g>
       <use style="stroke:#000000;" x="430.094273" xlink:href="#m104d8f97de" y="228.96"/>
      </g>
     </g>
    </g>
    <g id="text_7">
     <!-- Year -->
     <defs>
      <path d="M -0.203125 72.90625 
L 10.40625 72.90625 
L 30.609375 42.921875 
L 50.6875 72.90625 
L 61.28125 72.90625 
L 35.5 34.71875 
L 35.5 0 
L 25.59375 0 
L 25.59375 34.71875 
z
" id="DejaVuSans-89"/>
      <path d="M 56.203125 29.59375 
L 56.203125 25.203125 
L 14.890625 25.203125 
Q 15.484375 15.921875 20.484375 11.0625 
Q 25.484375 6.203125 34.421875 6.203125 
Q 39.59375 6.203125 44.453125 7.46875 
Q 49.3125 8.734375 54.109375 11.28125 
L 54.109375 2.78125 
Q 49.265625 0.734375 44.1875 -0.34375 
Q 39.109375 -1.421875 33.890625 -1.421875 
Q 20.796875 -1.421875 13.15625 6.1875 
Q 5.515625 13.8125 5.515625 26.8125 
Q 5.515625 40.234375 12.765625 48.109375 
Q 20.015625 56 32.328125 56 
Q 43.359375 56 49.78125 48.890625 
Q 56.203125 41.796875 56.203125 29.59375 
z
M 47.21875 32.234375 
Q 47.125 39.59375 43.09375 43.984375 
Q 39.0625 48.390625 32.421875 48.390625 
Q 24.90625 48.390625 20.390625 44.140625 
Q 15.875 39.890625 15.1875 32.171875 
z
" id="DejaVuSans-101"/>
      <path d="M 34.28125 27.484375 
Q 23.390625 27.484375 19.1875 25 
Q 14.984375 22.515625 14.984375 16.5 
Q 14.984375 11.71875 18.140625 8.90625 
Q 21.296875 6.109375 26.703125 6.109375 
Q 34.1875 6.109375 38.703125 11.40625 
Q 43.21875 16.703125 43.21875 25.484375 
L 43.21875 27.484375 
z
M 52.203125 31.203125 
L 52.203125 0 
L 43.21875 0 
L 43.21875 8.296875 
Q 40.140625 3.328125 35.546875 0.953125 
Q 30.953125 -1.421875 24.3125 -1.421875 
Q 15.921875 -1.421875 10.953125 3.296875 
Q 6 8.015625 6 15.921875 
Q 6 25.140625 12.171875 29.828125 
Q 18.359375 34.515625 30.609375 34.515625 
L 43.21875 34.515625 
L 43.21875 35.40625 
Q 43.21875 41.609375 39.140625 45 
Q 35.0625 48.390625 27.6875 48.390625 
Q 23 48.390625 18.546875 47.265625 
Q 14.109375 46.140625 10.015625 43.890625 
L 10.015625 52.203125 
Q 14.9375 54.109375 19.578125 55.046875 
Q 24.21875 56 28.609375 56 
Q 40.484375 56 46.34375 49.84375 
Q 52.203125 43.703125 52.203125 31.203125 
z
" id="DejaVuSans-97"/>
      <path d="M 41.109375 46.296875 
Q 39.59375 47.171875 37.8125 47.578125 
Q 36.03125 48 33.890625 48 
Q 26.265625 48 22.1875 43.046875 
Q 18.109375 38.09375 18.109375 28.8125 
L 18.109375 0 
L 9.078125 0 
L 9.078125 54.6875 
L 18.109375 54.6875 
L 18.109375 46.1875 
Q 20.953125 51.171875 25.484375 53.578125 
Q 30.03125 56 36.53125 56 
Q 37.453125 56 38.578125 55.875 
Q 39.703125 55.765625 41.0625 55.515625 
z
" id="DejaVuSans-114"/>
     </defs>
     <g transform="translate(248.203172 255.185031)scale(0.11 -0.11)">
      <use xlink:href="#DejaVuSans-89"/>
      <use x="60.880859" xlink:href="#DejaVuSans-101"/>
      <use x="122.404297" xlink:href="#DejaVuSans-97"/>
      <use x="183.683594" xlink:href="#DejaVuSans-114"/>
     </g>
    </g>
   </g>
   <g id="matplotlib.axis_2">
    <g id="ytick_1">
     <g id="line2d_23">
      <path clip-path="url(#pe65e8d446d)" d="M 44.567 218.88 
L 490.967 218.88 
" style="fill:none;stroke:#e5e5e5;stroke-width:0.8;"/>
     </g>
     <g id="line2d_24">
      <path d="M 44.567 218.88 
" style="fill:none;stroke:#000000;stroke-width:1.5;"/>
      <defs>
       <path d="M 0 0 
L -2.75 0 
" id="ma59a86fc8d" style="stroke:#000000;"/>
      </defs>
      <g>
       <use style="stroke:#000000;" x="44.567" xlink:href="#ma59a86fc8d" y="218.88"/>
      </g>
     </g>
     <g id="text_8">
      <!-- 0 -->
      <g transform="translate(34.018 221.30825)scale(0.088 -0.088)">
       <use xlink:href="#DejaVuSans-48"/>
      </g>
     </g>
    </g>
    <g id="ytick_2">
     <g id="line2d_25">
      <path clip-path="url(#pe65e8d446d)" d="M 44.567 168.48 
L 490.967 168.48 
" style="fill:none;stroke:#e5e5e5;stroke-width:0.8;"/>
     </g>
     <g id="line2d_26">
      <path d="M 44.567 168.48 
" style="fill:none;stroke:#000000;stroke-width:1.5;"/>
      <g>
       <use style="stroke:#000000;" x="44.567" xlink:href="#ma59a86fc8d" y="168.48"/>
      </g>
     </g>
     <g id="text_9">
      <!-- 25 -->
      <defs>
       <path d="M 10.796875 72.90625 
L 49.515625 72.90625 
L 49.515625 64.59375 
L 19.828125 64.59375 
L 19.828125 46.734375 
Q 21.96875 47.46875 24.109375 47.828125 
Q 26.265625 48.1875 28.421875 48.1875 
Q 40.625 48.1875 47.75 41.5 
Q 54.890625 34.8125 54.890625 23.390625 
Q 54.890625 11.625 47.5625 5.09375 
Q 40.234375 -1.421875 26.90625 -1.421875 
Q 22.3125 -1.421875 17.546875 -0.640625 
Q 12.796875 0.140625 7.71875 1.703125 
L 7.71875 11.625 
Q 12.109375 9.234375 16.796875 8.0625 
Q 21.484375 6.890625 26.703125 6.890625 
Q 35.15625 6.890625 40.078125 11.328125 
Q 45.015625 15.765625 45.015625 23.390625 
Q 45.015625 31 40.078125 35.4375 
Q 35.15625 39.890625 26.703125 39.890625 
Q 22.75 39.890625 18.8125 39.015625 
Q 14.890625 38.140625 10.796875 36.28125 
z
" id="DejaVuSans-53"/>
      </defs>
      <g transform="translate(28.419 170.90825)scale(0.088 -0.088)">
       <use xlink:href="#DejaVuSans-50"/>
       <use x="63.623047" xlink:href="#DejaVuSans-53"/>
      </g>
     </g>
    </g>
    <g id="ytick_3">
     <g id="line2d_27">
      <path clip-path="url(#pe65e8d446d)" d="M 44.567 118.08 
L 490.967 118.08 
" style="fill:none;stroke:#e5e5e5;stroke-width:0.8;"/>
     </g>
     <g id="line2d_28">
      <path d="M 44.567 118.08 
" style="fill:none;stroke:#000000;stroke-width:1.5;"/>
      <g>
       <use style="stroke:#000000;" x="44.567" xlink:href="#ma59a86fc8d" y="118.08"/>
      </g>
     </g>
     <g id="text_10">
      <!-- 50 -->
      <g transform="translate(28.419 120.50825)scale(0.088 -0.088)">
       <use xlink:href="#DejaVuSans-53"/>
       <use x="63.623047" xlink:href="#DejaVuSans-48"/>
      </g>
     </g>
    </g>
    <g id="ytick_4">
     <g id="line2d_29">
      <path clip-path="url(#pe65e8d446d)" d="M 44.567 67.68 
L 490.967 67.68 
" style="fill:none;stroke:#e5e5e5;stroke-width:0.8;"/>
     </g>
     <g id="line2d_30">
      <path d="M 44.567 67.68 
" style="fill:none;stroke:#000000;stroke-width:1.5;"/>
      <g>
       <use style="stroke:#000000;" x="44.567" xlink:href="#ma59a86fc8d" y="67.68"/>
      </g>
     </g>
     <g id="text_11">
      <!-- 75 -->
      <g transform="translate(28.419 70.10825)scale(0.088 -0.088)">
       <use xlink:href="#DejaVuSans-55"/>
       <use x="63.623047" xlink:href="#DejaVuSans-53"/>
      </g>
     </g>
    </g>
    <g id="ytick_5">
     <g id="line2d_31">
      <path clip-path="url(#pe65e8d446d)" d="M 44.567 17.28 
L 490.967 17.28 
" style="fill:none;stroke:#e5e5e5;stroke-width:0.8;"/>
     </g>
     <g id="line2d_32">
      <path d="M 44.567 17.28 
" style="fill:none;stroke:#000000;stroke-width:1.5;"/>
      <g>
       <use style="stroke:#000000;" x="44.567" xlink:href="#ma59a86fc8d" y="17.28"/>
      </g>
     </g>
     <g id="text_12">
      <!-- 100 -->
      <g transform="translate(22.82 19.70825)scale(0.088 -0.088)">
       <use xlink:href="#DejaVuSans-49"/>
       <use x="63.623047" xlink:href="#DejaVuSans-48"/>
       <use x="127.246094" xlink:href="#DejaVuSans-48"/>
      </g>
     </g>
    </g>
    <g id="ytick_6">
     <g id="line2d_33">
      <path clip-path="url(#pe65e8d446d)" d="M 44.567 193.68 
L 490.967 193.68 
" style="fill:none;stroke:#fafafa;"/>
     </g>
     <g id="line2d_34">
      <path d="M 44.567 193.68 
" style="fill:none;stroke:#000000;stroke-width:1.5;"/>
      <defs>
       <path d="M 0 0 
L -1.375 0 
" id="mbcc6a03bf0" style="stroke:#000000;"/>
      </defs>
      <g>
       <use style="stroke:#000000;" x="44.567" xlink:href="#mbcc6a03bf0" y="193.68"/>
      </g>
     </g>
    </g>
    <g id="ytick_7">
     <g id="line2d_35">
      <path clip-path="url(#pe65e8d446d)" d="M 44.567 143.28 
L 490.967 143.28 
" style="fill:none;stroke:#fafafa;"/>
     </g>
     <g id="line2d_36">
      <path d="M 44.567 143.28 
" style="fill:none;stroke:#000000;stroke-width:1.5;"/>
      <g>
       <use style="stroke:#000000;" x="44.567" xlink:href="#mbcc6a03bf0" y="143.28"/>
      </g>
     </g>
    </g>
    <g id="ytick_8">
     <g id="line2d_37">
      <path clip-path="url(#pe65e8d446d)" d="M 44.567 92.88 
L 490.967 92.88 
" style="fill:none;stroke:#fafafa;"/>
     </g>
     <g id="line2d_38">
      <path d="M 44.567 92.88 
" style="fill:none;stroke:#000000;stroke-width:1.5;"/>
      <g>
       <use style="stroke:#000000;" x="44.567" xlink:href="#mbcc6a03bf0" y="92.88"/>
      </g>
     </g>
    </g>
    <g id="ytick_9">
     <g id="line2d_39">
      <path clip-path="url(#pe65e8d446d)" d="M 44.567 42.48 
L 490.967 42.48 
" style="fill:none;stroke:#fafafa;"/>
     </g>
     <g id="line2d_40">
      <path d="M 44.567 42.48 
" style="fill:none;stroke:#000000;stroke-width:1.5;"/>
      <g>
       <use style="stroke:#000000;" x="44.567" xlink:href="#mbcc6a03bf0" y="42.48"/>
      </g>
     </g>
    </g>
    <g id="text_13">
     <!-- $P_{Q1}$ [%] -->
     <defs>
      <path d="M 16.890625 72.90625 
L 39.703125 72.90625 
Q 49.65625 72.90625 54.875 68.265625 
Q 60.109375 63.625 60.109375 54.6875 
Q 60.109375 42.671875 52.390625 35.984375 
Q 44.671875 29.296875 30.71875 29.296875 
L 18.3125 29.296875 
L 12.59375 0 
L 2.6875 0 
z
M 25.203125 64.796875 
L 19.921875 37.40625 
L 32.328125 37.40625 
Q 40.71875 37.40625 45.203125 41.703125 
Q 49.703125 46 49.703125 54 
Q 49.703125 59.125 46.65625 61.953125 
Q 43.609375 64.796875 38.09375 64.796875 
z
" id="DejaVuSans-Oblique-80"/>
      <path d="M 36.078125 -1.3125 
Q 35.546875 -1.375 34.953125 -1.390625 
Q 34.375 -1.421875 33.203125 -1.421875 
Q 19.53125 -1.421875 11.8125 6.421875 
Q 4.109375 14.265625 4.109375 28.078125 
Q 4.109375 36.234375 7.0625 44.4375 
Q 10.015625 52.640625 15.28125 59.1875 
Q 21.390625 66.703125 29.03125 70.453125 
Q 36.671875 74.21875 45.90625 74.21875 
Q 59.28125 74.21875 66.984375 66.328125 
Q 74.703125 58.453125 74.703125 44.828125 
Q 74.703125 30.125 66.640625 17.921875 
Q 58.59375 5.71875 45.609375 0.6875 
L 55.515625 -12.890625 
L 44.484375 -12.890625 
z
M 45.609375 66.21875 
Q 37.5 66.21875 31.296875 62.28125 
Q 25.09375 58.34375 20.515625 50.296875 
Q 17.578125 45.171875 16.03125 39.40625 
Q 14.5 33.640625 14.5 27.78125 
Q 14.5 17.625 19.359375 12.109375 
Q 24.21875 6.59375 33.109375 6.59375 
Q 41.109375 6.59375 47.375 10.5625 
Q 53.65625 14.546875 58.109375 22.40625 
Q 61.078125 27.6875 62.640625 33.46875 
Q 64.203125 39.265625 64.203125 45.015625 
Q 64.203125 55.125 59.3125 60.671875 
Q 54.4375 66.21875 45.609375 66.21875 
z
" id="DejaVuSans-Oblique-81"/>
      <path id="DejaVuSans-32"/>
      <path d="M 8.59375 75.984375 
L 29.296875 75.984375 
L 29.296875 69 
L 17.578125 69 
L 17.578125 -6.203125 
L 29.296875 -6.203125 
L 29.296875 -13.1875 
L 8.59375 -13.1875 
z
" id="DejaVuSans-91"/>
      <path d="M 72.703125 32.078125 
Q 68.453125 32.078125 66.03125 28.46875 
Q 63.625 24.859375 63.625 18.40625 
Q 63.625 12.0625 66.03125 8.421875 
Q 68.453125 4.78125 72.703125 4.78125 
Q 76.859375 4.78125 79.265625 8.421875 
Q 81.6875 12.0625 81.6875 18.40625 
Q 81.6875 24.8125 79.265625 28.4375 
Q 76.859375 32.078125 72.703125 32.078125 
z
M 72.703125 38.28125 
Q 80.421875 38.28125 84.953125 32.90625 
Q 89.5 27.546875 89.5 18.40625 
Q 89.5 9.28125 84.9375 3.921875 
Q 80.375 -1.421875 72.703125 -1.421875 
Q 64.890625 -1.421875 60.34375 3.921875 
Q 55.8125 9.28125 55.8125 18.40625 
Q 55.8125 27.59375 60.375 32.9375 
Q 64.9375 38.28125 72.703125 38.28125 
z
M 22.3125 68.015625 
Q 18.109375 68.015625 15.6875 64.375 
Q 13.28125 60.75 13.28125 54.390625 
Q 13.28125 47.953125 15.671875 44.328125 
Q 18.0625 40.71875 22.3125 40.71875 
Q 26.5625 40.71875 28.96875 44.328125 
Q 31.390625 47.953125 31.390625 54.390625 
Q 31.390625 60.6875 28.953125 64.34375 
Q 26.515625 68.015625 22.3125 68.015625 
z
M 66.40625 74.21875 
L 74.21875 74.21875 
L 28.609375 -1.421875 
L 20.796875 -1.421875 
z
M 22.3125 74.21875 
Q 30.03125 74.21875 34.609375 68.875 
Q 39.203125 63.53125 39.203125 54.390625 
Q 39.203125 45.171875 34.640625 39.84375 
Q 30.078125 34.515625 22.3125 34.515625 
Q 14.546875 34.515625 10.03125 39.859375 
Q 5.515625 45.21875 5.515625 54.390625 
Q 5.515625 63.484375 10.046875 68.84375 
Q 14.59375 74.21875 22.3125 74.21875 
z
" id="DejaVuSans-37"/>
      <path d="M 30.421875 75.984375 
L 30.421875 -13.1875 
L 9.71875 -13.1875 
L 9.71875 -6.203125 
L 21.390625 -6.203125 
L 21.390625 69 
L 9.71875 69 
L 9.71875 75.984375 
z
" id="DejaVuSans-93"/>
     </defs>
     <g transform="translate(15.56 136.88)rotate(-90)scale(0.11 -0.11)">
      <use transform="translate(0 0.015625)" xlink:href="#DejaVuSans-Oblique-80"/>
      <use transform="translate(60.302734 -16.390625)scale(0.7)" xlink:href="#DejaVuSans-Oblique-81"/>
      <use transform="translate(115.400391 -16.390625)scale(0.7)" xlink:href="#DejaVuSans-49"/>
      <use transform="translate(162.670898 0.015625)" xlink:href="#DejaVuSans-32"/>
      <use transform="translate(194.458008 0.015625)" xlink:href="#DejaVuSans-91"/>
      <use transform="translate(233.47168 0.015625)" xlink:href="#DejaVuSans-37"/>
      <use transform="translate(328.491211 0.015625)" xlink:href="#DejaVuSans-93"/>
     </g>
    </g>
   </g>
   <g id="PathCollection_1">
    <path clip-path="url(#pe65e8d446d)" d="M 81.090636 218.245281 
C 81.560697 218.245281 82.011568 218.058524 82.343951 217.726141 
C 82.676333 217.393758 82.86309 216.942887 82.86309 216.472827 
C 82.86309 216.002767 82.676333 215.551896 82.343951 215.219513 
C 82.011568 214.88713 81.560697 214.700373 81.090636 214.700373 
C 80.620576 214.700373 80.169705 214.88713 79.837322 215.219513 
C 79.504939 215.551896 79.318183 216.002767 79.318183 216.472827 
C 79.318183 216.942887 79.504939 217.393758 79.837322 217.726141 
C 80.169705 218.058524 80.620576 218.245281 81.090636 218.245281 
z
" style="stroke:#000000;stroke-width:0.886227;"/>
    <path clip-path="url(#pe65e8d446d)" d="M 89.207 212.747642 
C 89.67706 212.747642 90.127931 212.560885 90.460314 212.228502 
C 90.792697 211.896119 90.979454 211.445248 90.979454 210.975188 
C 90.979454 210.505128 90.792697 210.054256 90.460314 209.721874 
C 90.127931 209.389491 89.67706 209.202734 89.207 209.202734 
C 88.73694 209.202734 88.286069 209.389491 87.953686 209.721874 
C 87.621303 210.054256 87.434546 210.505128 87.434546 210.975188 
C 87.434546 211.445248 87.621303 211.896119 87.953686 212.228502 
C 88.286069 212.560885 88.73694 212.747642 89.207 212.747642 
z
" style="stroke:#000000;stroke-width:0.886227;"/>
    <path clip-path="url(#pe65e8d446d)" d="M 97.323364 220.351193 
C 97.793424 220.351193 98.244295 220.164436 98.576678 219.832054 
C 98.909061 219.499671 99.095817 219.0488 99.095817 218.57874 
C 99.095817 218.108679 98.909061 217.657808 98.576678 217.325425 
C 98.244295 216.993043 97.793424 216.806286 97.323364 216.806286 
C 96.853303 216.806286 96.402432 216.993043 96.070049 217.325425 
C 95.737667 217.657808 95.55091 218.108679 95.55091 218.57874 
C 95.55091 219.0488 95.737667 219.499671 96.070049 219.832054 
C 96.402432 220.164436 96.853303 220.351193 97.323364 220.351193 
z
" style="stroke:#000000;stroke-width:0.886227;"/>
    <path clip-path="url(#pe65e8d446d)" d="M 105.439727 212.222652 
C 105.909788 212.222652 106.360659 212.035895 106.693041 211.703512 
C 107.025424 211.371129 107.212181 210.920258 107.212181 210.450198 
C 107.212181 209.980138 107.025424 209.529267 106.693041 209.196884 
C 106.360659 208.864501 105.909788 208.677744 105.439727 208.677744 
C 104.969667 208.677744 104.518796 208.864501 104.186413 209.196884 
C 103.85403 209.529267 103.667273 209.980138 103.667273 210.450198 
C 103.667273 210.920258 103.85403 211.371129 104.186413 211.703512 
C 104.518796 212.035895 104.969667 212.222652 105.439727 212.222652 
z
" style="stroke:#000000;stroke-width:0.886227;"/>
    <path clip-path="url(#pe65e8d446d)" d="M 113.556091 211.330673 
C 114.026151 211.330673 114.477022 211.143916 114.809405 210.811533 
C 115.141788 210.479151 115.328545 210.028279 115.328545 209.558219 
C 115.328545 209.088159 115.141788 208.637288 114.809405 208.304905 
C 114.477022 207.972522 114.026151 207.785765 113.556091 207.785765 
C 113.086031 207.785765 112.63516 207.972522 112.302777 208.304905 
C 111.970394 208.637288 111.783637 209.088159 111.783637 209.558219 
C 111.783637 210.028279 111.970394 210.479151 112.302777 210.811533 
C 112.63516 211.143916 113.086031 211.330673 113.556091 211.330673 
z
" style="stroke:#000000;stroke-width:0.886227;"/>
    <path clip-path="url(#pe65e8d446d)" d="M 121.672455 212.246684 
C 122.142515 212.246684 122.593386 212.059927 122.925769 211.727545 
C 123.258151 211.395162 123.444908 210.944291 123.444908 210.474231 
C 123.444908 210.00417 123.258151 209.553299 122.925769 209.220916 
C 122.593386 208.888534 122.142515 208.701777 121.672455 208.701777 
C 121.202394 208.701777 120.751523 208.888534 120.41914 209.220916 
C 120.086758 209.553299 119.900001 210.00417 119.900001 210.474231 
C 119.900001 210.944291 120.086758 211.395162 120.41914 211.727545 
C 120.751523 212.059927 121.202394 212.246684 121.672455 212.246684 
z
" style="stroke:#000000;stroke-width:0.886227;"/>
    <path clip-path="url(#pe65e8d446d)" d="M 129.788818 208.852359 
C 130.258878 208.852359 130.70975 208.665602 131.042132 208.333219 
C 131.374515 208.000836 131.561272 207.549965 131.561272 207.079905 
C 131.561272 206.609844 131.374515 206.158973 131.042132 205.826591 
C 130.70975 205.494208 130.258878 205.307451 129.788818 205.307451 
C 129.318758 205.307451 128.867887 205.494208 128.535504 205.826591 
C 128.203121 206.158973 128.016364 206.609844 128.016364 207.079905 
C 128.016364 207.549965 128.203121 208.000836 128.535504 208.333219 
C 128.867887 208.665602 129.318758 208.852359 129.788818 208.852359 
z
" style="stroke:#000000;stroke-width:0.886227;"/>
    <path clip-path="url(#pe65e8d446d)" d="M 137.905182 164.858873 
C 138.375242 164.858873 138.826113 164.672116 139.158496 164.339733 
C 139.490879 164.007351 139.677636 163.556479 139.677636 163.086419 
C 139.677636 162.616359 139.490879 162.165488 139.158496 161.833105 
C 138.826113 161.500722 138.375242 161.313965 137.905182 161.313965 
C 137.435122 161.313965 136.98425 161.500722 136.651868 161.833105 
C 136.319485 162.165488 136.132728 162.616359 136.132728 163.086419 
C 136.132728 163.556479 136.319485 164.007351 136.651868 164.339733 
C 136.98425 164.672116 137.435122 164.858873 137.905182 164.858873 
z
" style="stroke:#000000;stroke-width:0.886227;"/>
    <path clip-path="url(#pe65e8d446d)" d="M 146.021545 199.560493 
C 146.491606 199.560493 146.942477 199.373736 147.27486 199.041353 
C 147.607242 198.70897 147.793999 198.258099 147.793999 197.788039 
C 147.793999 197.317979 147.607242 196.867108 147.27486 196.534725 
C 146.942477 196.202342 146.491606 196.015585 146.021545 196.015585 
C 145.551485 196.015585 145.100614 196.202342 144.768231 196.534725 
C 144.435849 196.867108 144.249092 197.317979 144.249092 197.788039 
C 144.249092 198.258099 144.435849 198.70897 144.768231 199.041353 
C 145.100614 199.373736 145.551485 199.560493 146.021545 199.560493 
z
" style="stroke:#000000;stroke-width:0.886227;"/>
    <path clip-path="url(#pe65e8d446d)" d="M 154.137909 151.981378 
C 154.607969 151.981378 155.05884 151.794621 155.391223 151.462238 
C 155.723606 151.129856 155.910363 150.678984 155.910363 150.208924 
C 155.910363 149.738864 155.723606 149.287993 155.391223 148.95561 
C 155.05884 148.623227 154.607969 148.43647 154.137909 148.43647 
C 153.667849 148.43647 153.216978 148.623227 152.884595 148.95561 
C 152.552212 149.287993 152.365455 149.738864 152.365455 150.208924 
C 152.365455 150.678984 152.552212 151.129856 152.884595 151.462238 
C 153.216978 151.794621 153.667849 151.981378 154.137909 151.981378 
z
" style="stroke:#000000;stroke-width:0.886227;"/>
    <path clip-path="url(#pe65e8d446d)" d="M 162.254273 156.293027 
C 162.724333 156.293027 163.175204 156.10627 163.507587 155.773887 
C 163.83997 155.441504 164.026727 154.990633 164.026727 154.520573 
C 164.026727 154.050513 163.83997 153.599642 163.507587 153.267259 
C 163.175204 152.934876 162.724333 152.748119 162.254273 152.748119 
C 161.784212 152.748119 161.333341 152.934876 161.000959 153.267259 
C 160.668576 153.599642 160.481819 154.050513 160.481819 154.520573 
C 160.481819 154.990633 160.668576 155.441504 161.000959 155.773887 
C 161.333341 156.10627 161.784212 156.293027 162.254273 156.293027 
z
" style="stroke:#000000;stroke-width:0.886227;"/>
    <path clip-path="url(#pe65e8d446d)" d="M 170.370636 140.042083 
C 170.840697 140.042083 171.291568 139.855326 171.623951 139.522944 
C 171.956333 139.190561 172.14309 138.73969 172.14309 138.26963 
C 172.14309 137.799569 171.956333 137.348698 171.623951 137.016315 
C 171.291568 136.683933 170.840697 136.497176 170.370636 136.497176 
C 169.900576 136.497176 169.449705 136.683933 169.117322 137.016315 
C 168.784939 137.348698 168.598183 137.799569 168.598183 138.26963 
C 168.598183 138.73969 168.784939 139.190561 169.117322 139.522944 
C 169.449705 139.855326 169.900576 140.042083 170.370636 140.042083 
z
" style="stroke:#000000;stroke-width:0.886227;"/>
    <path clip-path="url(#pe65e8d446d)" d="M 178.487 165.881463 
C 178.95706 165.881463 179.407931 165.694706 179.740314 165.362323 
C 180.072697 165.02994 180.259454 164.579069 180.259454 164.109009 
C 180.259454 163.638948 180.072697 163.188077 179.740314 162.855695 
C 179.407931 162.523312 178.95706 162.336555 178.487 162.336555 
C 178.01694 162.336555 177.566069 162.523312 177.233686 162.855695 
C 176.901303 163.188077 176.714546 163.638948 176.714546 164.109009 
C 176.714546 164.579069 176.901303 165.02994 177.233686 165.362323 
C 177.566069 165.694706 178.01694 165.881463 178.487 165.881463 
z
" style="stroke:#000000;stroke-width:0.886227;"/>
    <path clip-path="url(#pe65e8d446d)" d="M 186.603364 139.986246 
C 187.073424 139.986246 187.524295 139.799489 187.856678 139.467106 
C 188.189061 139.134724 188.375817 138.683852 188.375817 138.213792 
C 188.375817 137.743732 188.189061 137.292861 187.856678 136.960478 
C 187.524295 136.628095 187.073424 136.441338 186.603364 136.441338 
C 186.133303 136.441338 185.682432 136.628095 185.350049 136.960478 
C 185.017667 137.292861 184.83091 137.743732 184.83091 138.213792 
C 184.83091 138.683852 185.017667 139.134724 185.350049 139.467106 
C 185.682432 139.799489 186.133303 139.986246 186.603364 139.986246 
z
" style="stroke:#000000;stroke-width:0.886227;"/>
    <path clip-path="url(#pe65e8d446d)" d="M 194.719727 164.20199 
C 195.189788 164.20199 195.640659 164.015233 195.973041 163.68285 
C 196.305424 163.350467 196.492181 162.899596 196.492181 162.429536 
C 196.492181 161.959476 196.305424 161.508605 195.973041 161.176222 
C 195.640659 160.843839 195.189788 160.657082 194.719727 160.657082 
C 194.249667 160.657082 193.798796 160.843839 193.466413 161.176222 
C 193.13403 161.508605 192.947273 161.959476 192.947273 162.429536 
C 192.947273 162.899596 193.13403 163.350467 193.466413 163.68285 
C 193.798796 164.015233 194.249667 164.20199 194.719727 164.20199 
z
" style="stroke:#000000;stroke-width:0.886227;"/>
    <path clip-path="url(#pe65e8d446d)" d="M 202.836091 142.633365 
C 203.306151 142.633365 203.757022 142.446608 204.089405 142.114225 
C 204.421788 141.781843 204.608545 141.330972 204.608545 140.860911 
C 204.608545 140.390851 204.421788 139.93998 204.089405 139.607597 
C 203.757022 139.275214 203.306151 139.088457 202.836091 139.088457 
C 202.366031 139.088457 201.91516 139.275214 201.582777 139.607597 
C 201.250394 139.93998 201.063637 140.390851 201.063637 140.860911 
C 201.063637 141.330972 201.250394 141.781843 201.582777 142.114225 
C 201.91516 142.446608 202.366031 142.633365 202.836091 142.633365 
z
" style="stroke:#000000;stroke-width:0.886227;"/>
    <path clip-path="url(#pe65e8d446d)" d="M 210.952455 170.600727 
C 211.422515 170.600727 211.873386 170.41397 212.205769 170.081587 
C 212.538151 169.749204 212.724908 169.298333 212.724908 168.828273 
C 212.724908 168.358213 212.538151 167.907341 212.205769 167.574959 
C 211.873386 167.242576 211.422515 167.055819 210.952455 167.055819 
C 210.482394 167.055819 210.031523 167.242576 209.69914 167.574959 
C 209.366758 167.907341 209.180001 168.358213 209.180001 168.828273 
C 209.180001 169.298333 209.366758 169.749204 209.69914 170.081587 
C 210.031523 170.41397 210.482394 170.600727 210.952455 170.600727 
z
" style="stroke:#000000;stroke-width:0.886227;"/>
    <path clip-path="url(#pe65e8d446d)" d="M 219.068818 166.560535 
C 219.538878 166.560535 219.98975 166.373778 220.322132 166.041395 
C 220.654515 165.709012 220.841272 165.258141 220.841272 164.788081 
C 220.841272 164.318021 220.654515 163.86715 220.322132 163.534767 
C 219.98975 163.202384 219.538878 163.015627 219.068818 163.015627 
C 218.598758 163.015627 218.147887 163.202384 217.815504 163.534767 
C 217.483121 163.86715 217.296364 164.318021 217.296364 164.788081 
C 217.296364 165.258141 217.483121 165.709012 217.815504 166.041395 
C 218.147887 166.373778 218.598758 166.560535 219.068818 166.560535 
z
" style="stroke:#000000;stroke-width:0.886227;"/>
    <path clip-path="url(#pe65e8d446d)" d="M 227.185182 154.736458 
C 227.655242 154.736458 228.106113 154.549701 228.438496 154.217318 
C 228.770879 153.884936 228.957636 153.434064 228.957636 152.964004 
C 228.957636 152.493944 228.770879 152.043073 228.438496 151.71069 
C 228.106113 151.378307 227.655242 151.19155 227.185182 151.19155 
C 226.715122 151.19155 226.26425 151.378307 225.931868 151.71069 
C 225.599485 152.043073 225.412728 152.493944 225.412728 152.964004 
C 225.412728 153.434064 225.599485 153.884936 225.931868 154.217318 
C 226.26425 154.549701 226.715122 154.736458 227.185182 154.736458 
z
" style="stroke:#000000;stroke-width:0.886227;"/>
    <path clip-path="url(#pe65e8d446d)" d="M 235.301545 146.763352 
C 235.771606 146.763352 236.222477 146.576595 236.55486 146.244212 
C 236.887242 145.911829 237.073999 145.460958 237.073999 144.990898 
C 237.073999 144.520838 236.887242 144.069966 236.55486 143.737584 
C 236.222477 143.405201 235.771606 143.218444 235.301545 143.218444 
C 234.831485 143.218444 234.380614 143.405201 234.048231 143.737584 
C 233.715849 144.069966 233.529092 144.520838 233.529092 144.990898 
C 233.529092 145.460958 233.715849 145.911829 234.048231 146.244212 
C 234.380614 146.576595 234.831485 146.763352 235.301545 146.763352 
z
" style="stroke:#000000;stroke-width:0.886227;"/>
    <path clip-path="url(#pe65e8d446d)" d="M 243.417909 141.300931 
C 243.887969 141.300931 244.33884 141.114174 244.671223 140.781792 
C 245.003606 140.449409 245.190363 139.998538 245.190363 139.528477 
C 245.190363 139.058417 245.003606 138.607546 244.671223 138.275163 
C 244.33884 137.942781 243.887969 137.756024 243.417909 137.756024 
C 242.947849 137.756024 242.496978 137.942781 242.164595 138.275163 
C 241.832212 138.607546 241.645455 139.058417 241.645455 139.528477 
C 241.645455 139.998538 241.832212 140.449409 242.164595 140.781792 
C 242.496978 141.114174 242.947849 141.300931 243.417909 141.300931 
z
" style="stroke:#000000;stroke-width:0.886227;"/>
    <path clip-path="url(#pe65e8d446d)" d="M 251.534273 145.785569 
C 252.004333 145.785569 252.455204 145.598812 252.787587 145.266429 
C 253.11997 144.934046 253.306727 144.483175 253.306727 144.013115 
C 253.306727 143.543055 253.11997 143.092184 252.787587 142.759801 
C 252.455204 142.427418 252.004333 142.240661 251.534273 142.240661 
C 251.064212 142.240661 250.613341 142.427418 250.280959 142.759801 
C 249.948576 143.092184 249.761819 143.543055 249.761819 144.013115 
C 249.761819 144.483175 249.948576 144.934046 250.280959 145.266429 
C 250.613341 145.598812 251.064212 145.785569 251.534273 145.785569 
z
" style="stroke:#000000;stroke-width:0.886227;"/>
    <path clip-path="url(#pe65e8d446d)" d="M 259.650636 144.309648 
C 260.120697 144.309648 260.571568 144.122891 260.903951 143.790509 
C 261.236333 143.458126 261.42309 143.007255 261.42309 142.537194 
C 261.42309 142.067134 261.236333 141.616263 260.903951 141.28388 
C 260.571568 140.951497 260.120697 140.764741 259.650636 140.764741 
C 259.180576 140.764741 258.729705 140.951497 258.397322 141.28388 
C 258.064939 141.616263 257.878183 142.067134 257.878183 142.537194 
C 257.878183 143.007255 258.064939 143.458126 258.397322 143.790509 
C 258.729705 144.122891 259.180576 144.309648 259.650636 144.309648 
z
" style="stroke:#000000;stroke-width:0.886227;"/>
    <path clip-path="url(#pe65e8d446d)" d="M 267.767 137.089009 
C 268.23706 137.089009 268.687931 136.902252 269.020314 136.569869 
C 269.352697 136.237486 269.539454 135.786615 269.539454 135.316555 
C 269.539454 134.846495 269.352697 134.395624 269.020314 134.063241 
C 268.687931 133.730858 268.23706 133.544101 267.767 133.544101 
C 267.29694 133.544101 266.846069 133.730858 266.513686 134.063241 
C 266.181303 134.395624 265.994546 134.846495 265.994546 135.316555 
C 265.994546 135.786615 266.181303 136.237486 266.513686 136.569869 
C 266.846069 136.902252 267.29694 137.089009 267.767 137.089009 
z
" style="stroke:#000000;stroke-width:0.886227;"/>
    <path clip-path="url(#pe65e8d446d)" d="M 275.883364 147.56784 
C 276.353424 147.56784 276.804295 147.381083 277.136678 147.0487 
C 277.469061 146.716317 277.655817 146.265446 277.655817 145.795386 
C 277.655817 145.325325 277.469061 144.874454 277.136678 144.542072 
C 276.804295 144.209689 276.353424 144.022932 275.883364 144.022932 
C 275.413303 144.022932 274.962432 144.209689 274.630049 144.542072 
C 274.297667 144.874454 274.11091 145.325325 274.11091 145.795386 
C 274.11091 146.265446 274.297667 146.716317 274.630049 147.0487 
C 274.962432 147.381083 275.413303 147.56784 275.883364 147.56784 
z
" style="stroke:#000000;stroke-width:0.886227;"/>
    <path clip-path="url(#pe65e8d446d)" d="M 283.999727 145.647057 
C 284.469788 145.647057 284.920659 145.4603 285.253041 145.127917 
C 285.585424 144.795534 285.772181 144.344663 285.772181 143.874603 
C 285.772181 143.404543 285.585424 142.953672 285.253041 142.621289 
C 284.920659 142.288906 284.469788 142.102149 283.999727 142.102149 
C 283.529667 142.102149 283.078796 142.288906 282.746413 142.621289 
C 282.41403 142.953672 282.227273 143.404543 282.227273 143.874603 
C 282.227273 144.344663 282.41403 144.795534 282.746413 145.127917 
C 283.078796 145.4603 283.529667 145.647057 283.999727 145.647057 
z
" style="stroke:#000000;stroke-width:0.886227;"/>
    <path clip-path="url(#pe65e8d446d)" d="M 292.116091 145.207054 
C 292.586151 145.207054 293.037022 145.020297 293.369405 144.687914 
C 293.701788 144.355531 293.888545 143.90466 293.888545 143.4346 
C 293.888545 142.964539 293.701788 142.513668 293.369405 142.181286 
C 293.037022 141.848903 292.586151 141.662146 292.116091 141.662146 
C 291.646031 141.662146 291.19516 141.848903 290.862777 142.181286 
C 290.530394 142.513668 290.343637 142.964539 290.343637 143.4346 
C 290.343637 143.90466 290.530394 144.355531 290.862777 144.687914 
C 291.19516 145.020297 291.646031 145.207054 292.116091 145.207054 
z
" style="stroke:#000000;stroke-width:0.886227;"/>
    <path clip-path="url(#pe65e8d446d)" d="M 300.232455 145.922519 
C 300.702515 145.922519 301.153386 145.735762 301.485769 145.403379 
C 301.818151 145.070996 302.004908 144.620125 302.004908 144.150065 
C 302.004908 143.680004 301.818151 143.229133 301.485769 142.896751 
C 301.153386 142.564368 300.702515 142.377611 300.232455 142.377611 
C 299.762394 142.377611 299.311523 142.564368 298.97914 142.896751 
C 298.646758 143.229133 298.460001 143.680004 298.460001 144.150065 
C 298.460001 144.620125 298.646758 145.070996 298.97914 145.403379 
C 299.311523 145.735762 299.762394 145.922519 300.232455 145.922519 
z
" style="stroke:#000000;stroke-width:0.886227;"/>
    <path clip-path="url(#pe65e8d446d)" d="M 308.348818 150.143658 
C 308.818878 150.143658 309.26975 149.956901 309.602132 149.624518 
C 309.934515 149.292135 310.121272 148.841264 310.121272 148.371204 
C 310.121272 147.901144 309.934515 147.450273 309.602132 147.11789 
C 309.26975 146.785507 308.818878 146.59875 308.348818 146.59875 
C 307.878758 146.59875 307.427887 146.785507 307.095504 147.11789 
C 306.763121 147.450273 306.576364 147.901144 306.576364 148.371204 
C 306.576364 148.841264 306.763121 149.292135 307.095504 149.624518 
C 307.427887 149.956901 307.878758 150.143658 308.348818 150.143658 
z
" style="stroke:#000000;stroke-width:0.886227;"/>
    <path clip-path="url(#pe65e8d446d)" d="M 316.465182 147.081549 
C 316.935242 147.081549 317.386113 146.894792 317.718496 146.562409 
C 318.050879 146.230026 318.237636 145.779155 318.237636 145.309095 
C 318.237636 144.839034 318.050879 144.388163 317.718496 144.055781 
C 317.386113 143.723398 316.935242 143.536641 316.465182 143.536641 
C 315.995122 143.536641 315.54425 143.723398 315.211868 144.055781 
C 314.879485 144.388163 314.692728 144.839034 314.692728 145.309095 
C 314.692728 145.779155 314.879485 146.230026 315.211868 146.562409 
C 315.54425 146.894792 315.995122 147.081549 316.465182 147.081549 
z
" style="stroke:#000000;stroke-width:0.886227;"/>
    <path clip-path="url(#pe65e8d446d)" d="M 324.581545 145.418809 
C 325.051606 145.418809 325.502477 145.232052 325.83486 144.89967 
C 326.167242 144.567287 326.353999 144.116416 326.353999 143.646355 
C 326.353999 143.176295 326.167242 142.725424 325.83486 142.393041 
C 325.502477 142.060658 325.051606 141.873902 324.581545 141.873902 
C 324.111485 141.873902 323.660614 142.060658 323.328231 142.393041 
C 322.995849 142.725424 322.809092 143.176295 322.809092 143.646355 
C 322.809092 144.116416 322.995849 144.567287 323.328231 144.89967 
C 323.660614 145.232052 324.111485 145.418809 324.581545 145.418809 
z
" style="stroke:#000000;stroke-width:0.886227;"/>
    <path clip-path="url(#pe65e8d446d)" d="M 332.697909 143.788243 
C 333.167969 143.788243 333.61884 143.601486 333.951223 143.269103 
C 334.283606 142.93672 334.470363 142.485849 334.470363 142.015789 
C 334.470363 141.545729 334.283606 141.094857 333.951223 140.762475 
C 333.61884 140.430092 333.167969 140.243335 332.697909 140.243335 
C 332.227849 140.243335 331.776978 140.430092 331.444595 140.762475 
C 331.112212 141.094857 330.925455 141.545729 330.925455 142.015789 
C 330.925455 142.485849 331.112212 142.93672 331.444595 143.269103 
C 331.776978 143.601486 332.227849 143.788243 332.697909 143.788243 
z
" style="stroke:#000000;stroke-width:0.886227;"/>
    <path clip-path="url(#pe65e8d446d)" d="M 340.814273 141.748069 
C 341.284333 141.748069 341.735204 141.561312 342.067587 141.22893 
C 342.39997 140.896547 342.586727 140.445676 342.586727 139.975615 
C 342.586727 139.505555 342.39997 139.054684 342.067587 138.722301 
C 341.735204 138.389918 341.284333 138.203162 340.814273 138.203162 
C 340.344212 138.203162 339.893341 138.389918 339.560959 138.722301 
C 339.228576 139.054684 339.041819 139.505555 339.041819 139.975615 
C 339.041819 140.445676 339.228576 140.896547 339.560959 141.22893 
C 339.893341 141.561312 340.344212 141.748069 340.814273 141.748069 
z
" style="stroke:#000000;stroke-width:0.886227;"/>
    <path clip-path="url(#pe65e8d446d)" d="M 348.930636 140.344926 
C 349.400697 140.344926 349.851568 140.158169 350.183951 139.825786 
C 350.516333 139.493404 350.70309 139.042533 350.70309 138.572472 
C 350.70309 138.102412 350.516333 137.651541 350.183951 137.319158 
C 349.851568 136.986775 349.400697 136.800019 348.930636 136.800019 
C 348.460576 136.800019 348.009705 136.986775 347.677322 137.319158 
C 347.344939 137.651541 347.158183 138.102412 347.158183 138.572472 
C 347.158183 139.042533 347.344939 139.493404 347.677322 139.825786 
C 348.009705 140.158169 348.460576 140.344926 348.930636 140.344926 
z
" style="stroke:#000000;stroke-width:0.886227;"/>
    <path clip-path="url(#pe65e8d446d)" d="M 357.047 138.528334 
C 357.51706 138.528334 357.967931 138.341578 358.300314 138.009195 
C 358.632697 137.676812 358.819454 137.225941 358.819454 136.755881 
C 358.819454 136.28582 358.632697 135.834949 358.300314 135.502566 
C 357.967931 135.170184 357.51706 134.983427 357.047 134.983427 
C 356.57694 134.983427 356.126069 135.170184 355.793686 135.502566 
C 355.461303 135.834949 355.274546 136.28582 355.274546 136.755881 
C 355.274546 137.225941 355.461303 137.676812 355.793686 138.009195 
C 356.126069 138.341578 356.57694 138.528334 357.047 138.528334 
z
" style="stroke:#000000;stroke-width:0.886227;"/>
    <path clip-path="url(#pe65e8d446d)" d="M 365.163364 135.885019 
C 365.633424 135.885019 366.084295 135.698262 366.416678 135.36588 
C 366.749061 135.033497 366.935817 134.582626 366.935817 134.112566 
C 366.935817 133.642505 366.749061 133.191634 366.416678 132.859251 
C 366.084295 132.526869 365.633424 132.340112 365.163364 132.340112 
C 364.693303 132.340112 364.242432 132.526869 363.910049 132.859251 
C 363.577667 133.191634 363.39091 133.642505 363.39091 134.112566 
C 363.39091 134.582626 363.577667 135.033497 363.910049 135.36588 
C 364.242432 135.698262 364.693303 135.885019 365.163364 135.885019 
z
" style="stroke:#000000;stroke-width:0.886227;"/>
    <path clip-path="url(#pe65e8d446d)" d="M 373.279727 136.199644 
C 373.749788 136.199644 374.200659 136.012887 374.533041 135.680504 
C 374.865424 135.348121 375.052181 134.89725 375.052181 134.42719 
C 375.052181 133.957129 374.865424 133.506258 374.533041 133.173876 
C 374.200659 132.841493 373.749788 132.654736 373.279727 132.654736 
C 372.809667 132.654736 372.358796 132.841493 372.026413 133.173876 
C 371.69403 133.506258 371.507273 133.957129 371.507273 134.42719 
C 371.507273 134.89725 371.69403 135.348121 372.026413 135.680504 
C 372.358796 136.012887 372.809667 136.199644 373.279727 136.199644 
z
" style="stroke:#000000;stroke-width:0.886227;"/>
    <path clip-path="url(#pe65e8d446d)" d="M 381.396091 132.975015 
C 381.866151 132.975015 382.317022 132.788258 382.649405 132.455875 
C 382.981788 132.123492 383.168545 131.672621 383.168545 131.202561 
C 383.168545 130.732501 382.981788 130.28163 382.649405 129.949247 
C 382.317022 129.616864 381.866151 129.430107 381.396091 129.430107 
C 380.926031 129.430107 380.47516 129.616864 380.142777 129.949247 
C 379.810394 130.28163 379.623637 130.732501 379.623637 131.202561 
C 379.623637 131.672621 379.810394 132.123492 380.142777 132.455875 
C 380.47516 132.788258 380.926031 132.975015 381.396091 132.975015 
z
" style="stroke:#000000;stroke-width:0.886227;"/>
    <path clip-path="url(#pe65e8d446d)" d="M 389.512455 124.098815 
C 389.982515 124.098815 390.433386 123.912058 390.765769 123.579675 
C 391.098151 123.247293 391.284908 122.796422 391.284908 122.326361 
C 391.284908 121.856301 391.098151 121.40543 390.765769 121.073047 
C 390.433386 120.740664 389.982515 120.553907 389.512455 120.553907 
C 389.042394 120.553907 388.591523 120.740664 388.25914 121.073047 
C 387.926758 121.40543 387.740001 121.856301 387.740001 122.326361 
C 387.740001 122.796422 387.926758 123.247293 388.25914 123.579675 
C 388.591523 123.912058 389.042394 124.098815 389.512455 124.098815 
z
" style="stroke:#000000;stroke-width:0.886227;"/>
    <path clip-path="url(#pe65e8d446d)" d="M 397.628818 119.805216 
C 398.098878 119.805216 398.54975 119.618459 398.882132 119.286076 
C 399.214515 118.953693 399.401272 118.502822 399.401272 118.032762 
C 399.401272 117.562702 399.214515 117.111831 398.882132 116.779448 
C 398.54975 116.447065 398.098878 116.260308 397.628818 116.260308 
C 397.158758 116.260308 396.707887 116.447065 396.375504 116.779448 
C 396.043121 117.111831 395.856364 117.562702 395.856364 118.032762 
C 395.856364 118.502822 396.043121 118.953693 396.375504 119.286076 
C 396.707887 119.618459 397.158758 119.805216 397.628818 119.805216 
z
" style="stroke:#000000;stroke-width:0.886227;"/>
    <path clip-path="url(#pe65e8d446d)" d="M 405.745182 115.249311 
C 406.215242 115.249311 406.666113 115.062554 406.998496 114.730172 
C 407.330879 114.397789 407.517636 113.946918 407.517636 113.476858 
C 407.517636 113.006797 407.330879 112.555926 406.998496 112.223543 
C 406.666113 111.891161 406.215242 111.704404 405.745182 111.704404 
C 405.275122 111.704404 404.82425 111.891161 404.491868 112.223543 
C 404.159485 112.555926 403.972728 113.006797 403.972728 113.476858 
C 403.972728 113.946918 404.159485 114.397789 404.491868 114.730172 
C 404.82425 115.062554 405.275122 115.249311 405.745182 115.249311 
z
" style="stroke:#000000;stroke-width:0.886227;"/>
    <path clip-path="url(#pe65e8d446d)" d="M 413.861545 109.154136 
C 414.331606 109.154136 414.782477 108.967379 415.11486 108.634996 
C 415.447242 108.302613 415.633999 107.851742 415.633999 107.381682 
C 415.633999 106.911622 415.447242 106.460751 415.11486 106.128368 
C 414.782477 105.795985 414.331606 105.609228 413.861545 105.609228 
C 413.391485 105.609228 412.940614 105.795985 412.608231 106.128368 
C 412.275849 106.460751 412.089092 106.911622 412.089092 107.381682 
C 412.089092 107.851742 412.275849 108.302613 412.608231 108.634996 
C 412.940614 108.967379 413.391485 109.154136 413.861545 109.154136 
z
" style="stroke:#000000;stroke-width:0.886227;"/>
    <path clip-path="url(#pe65e8d446d)" d="M 421.977909 103.637112 
C 422.447969 103.637112 422.89884 103.450355 423.231223 103.117972 
C 423.563606 102.78559 423.750363 102.334718 423.750363 101.864658 
C 423.750363 101.394598 423.563606 100.943727 423.231223 100.611344 
C 422.89884 100.278961 422.447969 100.092204 421.977909 100.092204 
C 421.507849 100.092204 421.056978 100.278961 420.724595 100.611344 
C 420.392212 100.943727 420.205455 101.394598 420.205455 101.864658 
C 420.205455 102.334718 420.392212 102.78559 420.724595 103.117972 
C 421.056978 103.450355 421.507849 103.637112 421.977909 103.637112 
z
" style="stroke:#000000;stroke-width:0.886227;"/>
    <path clip-path="url(#pe65e8d446d)" d="M 430.094273 100.565732 
C 430.564333 100.565732 431.015204 100.378975 431.347587 100.046593 
C 431.67997 99.71421 431.866727 99.263339 431.866727 98.793278 
C 431.866727 98.323218 431.67997 97.872347 431.347587 97.539964 
C 431.015204 97.207581 430.564333 97.020825 430.094273 97.020825 
C 429.624212 97.020825 429.173341 97.207581 428.840959 97.539964 
C 428.508576 97.872347 428.321819 98.323218 428.321819 98.793278 
C 428.321819 99.263339 428.508576 99.71421 428.840959 100.046593 
C 429.173341 100.378975 429.624212 100.565732 430.094273 100.565732 
z
" style="stroke:#000000;stroke-width:0.886227;"/>
    <path clip-path="url(#pe65e8d446d)" d="M 438.210636 94.311236 
C 438.680697 94.311236 439.131568 94.124479 439.463951 93.792096 
C 439.796333 93.459713 439.98309 93.008842 439.98309 92.538782 
C 439.98309 92.068721 439.796333 91.61785 439.463951 91.285468 
C 439.131568 90.953085 438.680697 90.766328 438.210636 90.766328 
C 437.740576 90.766328 437.289705 90.953085 436.957322 91.285468 
C 436.624939 91.61785 436.438183 92.068721 436.438183 92.538782 
C 436.438183 93.008842 436.624939 93.459713 436.957322 93.792096 
C 437.289705 94.124479 437.740576 94.311236 438.210636 94.311236 
z
" style="stroke:#000000;stroke-width:0.886227;"/>
    <path clip-path="url(#pe65e8d446d)" d="M 446.327 98.455839 
C 446.79706 98.455839 447.247931 98.269082 447.580314 97.936699 
C 447.912697 97.604316 448.099454 97.153445 448.099454 96.683385 
C 448.099454 96.213325 447.912697 95.762454 447.580314 95.430071 
C 447.247931 95.097688 446.79706 94.910931 446.327 94.910931 
C 445.85694 94.910931 445.406069 95.097688 445.073686 95.430071 
C 444.741303 95.762454 444.554546 96.213325 444.554546 96.683385 
C 444.554546 97.153445 444.741303 97.604316 445.073686 97.936699 
C 445.406069 98.269082 445.85694 98.455839 446.327 98.455839 
z
" style="stroke:#000000;stroke-width:0.886227;"/>
    <path clip-path="url(#pe65e8d446d)" d="M 454.443364 100.93814 
C 454.913424 100.93814 455.364295 100.751383 455.696678 100.419 
C 456.029061 100.086617 456.215817 99.635746 456.215817 99.165686 
C 456.215817 98.695626 456.029061 98.244755 455.696678 97.912372 
C 455.364295 97.579989 454.913424 97.393232 454.443364 97.393232 
C 453.973303 97.393232 453.522432 97.579989 453.190049 97.912372 
C 452.857667 98.244755 452.67091 98.695626 452.67091 99.165686 
C 452.67091 99.635746 452.857667 100.086617 453.190049 100.419 
C 453.522432 100.751383 453.973303 100.93814 454.443364 100.93814 
z
" style="stroke:#000000;stroke-width:0.886227;"/>
    <path clip-path="url(#pe65e8d446d)" d="M 462.559727 100.933222 
C 463.029788 100.933222 463.480659 100.746465 463.813041 100.414083 
C 464.145424 100.0817 464.332181 99.630829 464.332181 99.160768 
C 464.332181 98.690708 464.145424 98.239837 463.813041 97.907454 
C 463.480659 97.575071 463.029788 97.388315 462.559727 97.388315 
C 462.089667 97.388315 461.638796 97.575071 461.306413 97.907454 
C 460.97403 98.239837 460.787273 98.690708 460.787273 99.160768 
C 460.787273 99.630829 460.97403 100.0817 461.306413 100.414083 
C 461.638796 100.746465 462.089667 100.933222 462.559727 100.933222 
z
" style="stroke:#000000;stroke-width:0.886227;"/>
   </g>
   <g id="line2d_41">
    <path clip-path="url(#pe65e8d446d)" d="M 81.090636 216.472827 
L 89.207 210.975188 
L 97.323364 218.57874 
L 105.439727 210.450198 
L 113.556091 209.558219 
L 121.672455 210.474231 
L 129.788818 207.079905 
L 137.905182 163.086419 
L 146.021545 197.788039 
L 154.137909 150.208924 
L 162.254273 154.520573 
L 170.370636 138.26963 
L 178.487 164.109009 
L 186.603364 138.213792 
L 194.719727 162.429536 
L 202.836091 140.860911 
L 210.952455 168.828273 
L 219.068818 164.788081 
L 227.185182 152.964004 
L 235.301545 144.990898 
L 243.417909 139.528477 
L 251.534273 144.013115 
L 259.650636 142.537194 
L 267.767 135.316555 
L 275.883364 145.795386 
L 283.999727 143.874603 
L 292.116091 143.4346 
L 300.232455 144.150065 
L 308.348818 148.371204 
L 316.465182 145.309095 
L 324.581545 143.646355 
L 332.697909 142.015789 
L 340.814273 139.975615 
L 348.930636 138.572472 
L 357.047 136.755881 
L 365.163364 134.112566 
L 373.279727 134.42719 
L 381.396091 131.202561 
L 389.512455 122.326361 
L 397.628818 118.032762 
L 405.745182 113.476858 
L 413.861545 107.381682 
L 421.977909 101.864658 
L 430.094273 98.793278 
L 438.210636 92.538782 
L 446.327 96.683385 
L 454.443364 99.165686 
L 462.559727 99.160768 
" style="fill:none;stroke:#000000;stroke-width:0.886227;"/>
   </g>
  </g>
 </g>
 <defs>
  <clipPath id="pe65e8d446d">
   <rect height="221.76" width="446.4" x="44.567" y="7.2"/>
  </clipPath>
 </defs>
</svg>
