<?xml version="1.0" encoding="utf-8" standalone="no"?>
<!DOCTYPE svg PUBLIC "-//W3C//DTD SVG 1.1//EN"
  "http://www.w3.org/Graphics/SVG/1.1/DTD/svg11.dtd">
<!-- Created with matplotlib (https://matplotlib.org/) -->
<svg height="276.021875pt" version="1.1" viewBox="0 0 513.9925 276.021875" width="513.9925pt" xmlns="http://www.w3.org/2000/svg" xmlns:xlink="http://www.w3.org/1999/xlink">
 <defs>
  <style type="text/css">
*{stroke-linecap:butt;stroke-linejoin:round;}
  </style>
 </defs>
 <g id="figure_1">
  <g id="patch_1">
   <path d="M 0 276.021875 
L 513.9925 276.021875 
L 513.9925 0 
L 0 0 
z
" style="fill:#ffffff;stroke:#ffffff;stroke-linejoin:miter;"/>
  </g>
  <g id="axes_1">
   <g id="patch_2">
    <path d="M 60.3925 228.96 
L 506.7925 228.96 
L 506.7925 7.2 
L 60.3925 7.2 
z
" style="fill:#ffffff;"/>
   </g>
   <g id="matplotlib.axis_1">
    <g id="xtick_1">
     <g id="line2d_1">
      <path d="M 80.68341 228.96 
" style="fill:none;stroke:#000000;stroke-width:1.5;"/>
      <defs>
       <path d="M 0 0 
L 0 2.75 
" id="mf285e1b27b" style="stroke:#000000;"/>
      </defs>
      <g>
       <use style="stroke:#000000;" x="80.68341" xlink:href="#mf285e1b27b" y="228.96"/>
      </g>
     </g>
     <g id="text_1">
      <!-- 1 -->
      <defs>
       <path d="M 12.40625 8.296875 
L 28.515625 8.296875 
L 28.515625 63.921875 
L 10.984375 60.40625 
L 10.984375 69.390625 
L 28.421875 72.90625 
L 38.28125 72.90625 
L 38.28125 8.296875 
L 54.390625 8.296875 
L 54.390625 0 
L 12.40625 0 
z
" id="DejaVuSans-49"/>
      </defs>
      <g transform="translate(76.22966 244.547812)scale(0.14 -0.14)">
       <use xlink:href="#DejaVuSans-49"/>
      </g>
     </g>
    </g>
    <g id="xtick_2">
     <g id="line2d_2">
      <path d="M 215.956137 228.96 
" style="fill:none;stroke:#000000;stroke-width:1.5;"/>
      <g>
       <use style="stroke:#000000;" x="215.956137" xlink:href="#mf285e1b27b" y="228.96"/>
      </g>
     </g>
     <g id="text_2">
      <!-- 2 -->
      <defs>
       <path d="M 19.1875 8.296875 
L 53.609375 8.296875 
L 53.609375 0 
L 7.328125 0 
L 7.328125 8.296875 
Q 12.9375 14.109375 22.625 23.890625 
Q 32.328125 33.6875 34.8125 36.53125 
Q 39.546875 41.84375 41.421875 45.53125 
Q 43.3125 49.21875 43.3125 52.78125 
Q 43.3125 58.59375 39.234375 62.25 
Q 35.15625 65.921875 28.609375 65.921875 
Q 23.96875 65.921875 18.8125 64.3125 
Q 13.671875 62.703125 7.8125 59.421875 
L 7.8125 69.390625 
Q 13.765625 71.78125 18.9375 73 
Q 24.125 74.21875 28.421875 74.21875 
Q 39.75 74.21875 46.484375 68.546875 
Q 53.21875 62.890625 53.21875 53.421875 
Q 53.21875 48.921875 51.53125 44.890625 
Q 49.859375 40.875 45.40625 35.40625 
Q 44.1875 33.984375 37.640625 27.21875 
Q 31.109375 20.453125 19.1875 8.296875 
z
" id="DejaVuSans-50"/>
      </defs>
      <g transform="translate(211.502387 244.547812)scale(0.14 -0.14)">
       <use xlink:href="#DejaVuSans-50"/>
      </g>
     </g>
    </g>
    <g id="xtick_3">
     <g id="line2d_3">
      <path d="M 351.228863 228.96 
" style="fill:none;stroke:#000000;stroke-width:1.5;"/>
      <g>
       <use style="stroke:#000000;" x="351.228863" xlink:href="#mf285e1b27b" y="228.96"/>
      </g>
     </g>
     <g id="text_3">
      <!-- 3 -->
      <defs>
       <path d="M 40.578125 39.3125 
Q 47.65625 37.796875 51.625 33 
Q 55.609375 28.21875 55.609375 21.1875 
Q 55.609375 10.40625 48.1875 4.484375 
Q 40.765625 -1.421875 27.09375 -1.421875 
Q 22.515625 -1.421875 17.65625 -0.515625 
Q 12.796875 0.390625 7.625 2.203125 
L 7.625 11.71875 
Q 11.71875 9.328125 16.59375 8.109375 
Q 21.484375 6.890625 26.8125 6.890625 
Q 36.078125 6.890625 40.9375 10.546875 
Q 45.796875 14.203125 45.796875 21.1875 
Q 45.796875 27.640625 41.28125 31.265625 
Q 36.765625 34.90625 28.71875 34.90625 
L 20.21875 34.90625 
L 20.21875 43.015625 
L 29.109375 43.015625 
Q 36.375 43.015625 40.234375 45.921875 
Q 44.09375 48.828125 44.09375 54.296875 
Q 44.09375 59.90625 40.109375 62.90625 
Q 36.140625 65.921875 28.71875 65.921875 
Q 24.65625 65.921875 20.015625 65.03125 
Q 15.375 64.15625 9.8125 62.3125 
L 9.8125 71.09375 
Q 15.4375 72.65625 20.34375 73.4375 
Q 25.25 74.21875 29.59375 74.21875 
Q 40.828125 74.21875 47.359375 69.109375 
Q 53.90625 64.015625 53.90625 55.328125 
Q 53.90625 49.265625 50.4375 45.09375 
Q 46.96875 40.921875 40.578125 39.3125 
z
" id="DejaVuSans-51"/>
      </defs>
      <g transform="translate(346.775113 244.547812)scale(0.14 -0.14)">
       <use xlink:href="#DejaVuSans-51"/>
      </g>
     </g>
    </g>
    <g id="xtick_4">
     <g id="line2d_4">
      <path d="M 486.50159 228.96 
" style="fill:none;stroke:#000000;stroke-width:1.5;"/>
      <g>
       <use style="stroke:#000000;" x="486.50159" xlink:href="#mf285e1b27b" y="228.96"/>
      </g>
     </g>
     <g id="text_4">
      <!-- 4 -->
      <defs>
       <path d="M 37.796875 64.3125 
L 12.890625 25.390625 
L 37.796875 25.390625 
z
M 35.203125 72.90625 
L 47.609375 72.90625 
L 47.609375 25.390625 
L 58.015625 25.390625 
L 58.015625 17.1875 
L 47.609375 17.1875 
L 47.609375 0 
L 37.796875 0 
L 37.796875 17.1875 
L 4.890625 17.1875 
L 4.890625 26.703125 
z
" id="DejaVuSans-52"/>
      </defs>
      <g transform="translate(482.04784 244.547812)scale(0.14 -0.14)">
       <use xlink:href="#DejaVuSans-52"/>
      </g>
     </g>
    </g>
    <g id="xtick_5">
     <g id="line2d_5">
      <path d="M 148.319773 228.96 
" style="fill:none;stroke:#000000;stroke-width:1.5;"/>
      <defs>
       <path d="M 0 0 
L 0 1.375 
" id="mbaebd634bc" style="stroke:#000000;"/>
      </defs>
      <g>
       <use style="stroke:#000000;" x="148.319773" xlink:href="#mbaebd634bc" y="228.96"/>
      </g>
     </g>
    </g>
    <g id="xtick_6">
     <g id="line2d_6">
      <path d="M 283.5925 228.96 
" style="fill:none;stroke:#000000;stroke-width:1.5;"/>
      <g>
       <use style="stroke:#000000;" x="283.5925" xlink:href="#mbaebd634bc" y="228.96"/>
      </g>
     </g>
    </g>
    <g id="xtick_7">
     <g id="line2d_7">
      <path d="M 418.865227 228.96 
" style="fill:none;stroke:#000000;stroke-width:1.5;"/>
      <g>
       <use style="stroke:#000000;" x="418.865227" xlink:href="#mbaebd634bc" y="228.96"/>
      </g>
     </g>
    </g>
    <g id="text_5">
     <!-- Resolution [Å] -->
     <defs>
      <path d="M 44.390625 34.1875 
Q 47.5625 33.109375 50.5625 29.59375 
Q 53.5625 26.078125 56.59375 19.921875 
L 66.609375 0 
L 56 0 
L 46.6875 18.703125 
Q 43.0625 26.03125 39.671875 28.421875 
Q 36.28125 30.8125 30.421875 30.8125 
L 19.671875 30.8125 
L 19.671875 0 
L 9.8125 0 
L 9.8125 72.90625 
L 32.078125 72.90625 
Q 44.578125 72.90625 50.734375 67.671875 
Q 56.890625 62.453125 56.890625 51.90625 
Q 56.890625 45.015625 53.6875 40.46875 
Q 50.484375 35.9375 44.390625 34.1875 
z
M 19.671875 64.796875 
L 19.671875 38.921875 
L 32.078125 38.921875 
Q 39.203125 38.921875 42.84375 42.21875 
Q 46.484375 45.515625 46.484375 51.90625 
Q 46.484375 58.296875 42.84375 61.546875 
Q 39.203125 64.796875 32.078125 64.796875 
z
" id="DejaVuSans-82"/>
      <path d="M 56.203125 29.59375 
L 56.203125 25.203125 
L 14.890625 25.203125 
Q 15.484375 15.921875 20.484375 11.0625 
Q 25.484375 6.203125 34.421875 6.203125 
Q 39.59375 6.203125 44.453125 7.46875 
Q 49.3125 8.734375 54.109375 11.28125 
L 54.109375 2.78125 
Q 49.265625 0.734375 44.1875 -0.34375 
Q 39.109375 -1.421875 33.890625 -1.421875 
Q 20.796875 -1.421875 13.15625 6.1875 
Q 5.515625 13.8125 5.515625 26.8125 
Q 5.515625 40.234375 12.765625 48.109375 
Q 20.015625 56 32.328125 56 
Q 43.359375 56 49.78125 48.890625 
Q 56.203125 41.796875 56.203125 29.59375 
z
M 47.21875 32.234375 
Q 47.125 39.59375 43.09375 43.984375 
Q 39.0625 48.390625 32.421875 48.390625 
Q 24.90625 48.390625 20.390625 44.140625 
Q 15.875 39.890625 15.1875 32.171875 
z
" id="DejaVuSans-101"/>
      <path d="M 44.28125 53.078125 
L 44.28125 44.578125 
Q 40.484375 46.53125 36.375 47.5 
Q 32.28125 48.484375 27.875 48.484375 
Q 21.1875 48.484375 17.84375 46.4375 
Q 14.5 44.390625 14.5 40.28125 
Q 14.5 37.15625 16.890625 35.375 
Q 19.28125 33.59375 26.515625 31.984375 
L 29.59375 31.296875 
Q 39.15625 29.25 43.1875 25.515625 
Q 47.21875 21.78125 47.21875 15.09375 
Q 47.21875 7.46875 41.1875 3.015625 
Q 35.15625 -1.421875 24.609375 -1.421875 
Q 20.21875 -1.421875 15.453125 -0.5625 
Q 10.6875 0.296875 5.421875 2 
L 5.421875 11.28125 
Q 10.40625 8.6875 15.234375 7.390625 
Q 20.0625 6.109375 24.8125 6.109375 
Q 31.15625 6.109375 34.5625 8.28125 
Q 37.984375 10.453125 37.984375 14.40625 
Q 37.984375 18.0625 35.515625 20.015625 
Q 33.0625 21.96875 24.703125 23.78125 
L 21.578125 24.515625 
Q 13.234375 26.265625 9.515625 29.90625 
Q 5.8125 33.546875 5.8125 39.890625 
Q 5.8125 47.609375 11.28125 51.796875 
Q 16.75 56 26.8125 56 
Q 31.78125 56 36.171875 55.265625 
Q 40.578125 54.546875 44.28125 53.078125 
z
" id="DejaVuSans-115"/>
      <path d="M 30.609375 48.390625 
Q 23.390625 48.390625 19.1875 42.75 
Q 14.984375 37.109375 14.984375 27.296875 
Q 14.984375 17.484375 19.15625 11.84375 
Q 23.34375 6.203125 30.609375 6.203125 
Q 37.796875 6.203125 41.984375 11.859375 
Q 46.1875 17.53125 46.1875 27.296875 
Q 46.1875 37.015625 41.984375 42.703125 
Q 37.796875 48.390625 30.609375 48.390625 
z
M 30.609375 56 
Q 42.328125 56 49.015625 48.375 
Q 55.71875 40.765625 55.71875 27.296875 
Q 55.71875 13.875 49.015625 6.21875 
Q 42.328125 -1.421875 30.609375 -1.421875 
Q 18.84375 -1.421875 12.171875 6.21875 
Q 5.515625 13.875 5.515625 27.296875 
Q 5.515625 40.765625 12.171875 48.375 
Q 18.84375 56 30.609375 56 
z
" id="DejaVuSans-111"/>
      <path d="M 9.421875 75.984375 
L 18.40625 75.984375 
L 18.40625 0 
L 9.421875 0 
z
" id="DejaVuSans-108"/>
      <path d="M 8.5 21.578125 
L 8.5 54.6875 
L 17.484375 54.6875 
L 17.484375 21.921875 
Q 17.484375 14.15625 20.5 10.265625 
Q 23.53125 6.390625 29.59375 6.390625 
Q 36.859375 6.390625 41.078125 11.03125 
Q 45.3125 15.671875 45.3125 23.6875 
L 45.3125 54.6875 
L 54.296875 54.6875 
L 54.296875 0 
L 45.3125 0 
L 45.3125 8.40625 
Q 42.046875 3.421875 37.71875 1 
Q 33.40625 -1.421875 27.6875 -1.421875 
Q 18.265625 -1.421875 13.375 4.4375 
Q 8.5 10.296875 8.5 21.578125 
z
M 31.109375 56 
z
" id="DejaVuSans-117"/>
      <path d="M 18.3125 70.21875 
L 18.3125 54.6875 
L 36.8125 54.6875 
L 36.8125 47.703125 
L 18.3125 47.703125 
L 18.3125 18.015625 
Q 18.3125 11.328125 20.140625 9.421875 
Q 21.96875 7.515625 27.59375 7.515625 
L 36.8125 7.515625 
L 36.8125 0 
L 27.59375 0 
Q 17.1875 0 13.234375 3.875 
Q 9.28125 7.765625 9.28125 18.015625 
L 9.28125 47.703125 
L 2.6875 47.703125 
L 2.6875 54.6875 
L 9.28125 54.6875 
L 9.28125 70.21875 
z
" id="DejaVuSans-116"/>
      <path d="M 9.421875 54.6875 
L 18.40625 54.6875 
L 18.40625 0 
L 9.421875 0 
z
M 9.421875 75.984375 
L 18.40625 75.984375 
L 18.40625 64.59375 
L 9.421875 64.59375 
z
" id="DejaVuSans-105"/>
      <path d="M 54.890625 33.015625 
L 54.890625 0 
L 45.90625 0 
L 45.90625 32.71875 
Q 45.90625 40.484375 42.875 44.328125 
Q 39.84375 48.1875 33.796875 48.1875 
Q 26.515625 48.1875 22.3125 43.546875 
Q 18.109375 38.921875 18.109375 30.90625 
L 18.109375 0 
L 9.078125 0 
L 9.078125 54.6875 
L 18.109375 54.6875 
L 18.109375 46.1875 
Q 21.34375 51.125 25.703125 53.5625 
Q 30.078125 56 35.796875 56 
Q 45.21875 56 50.046875 50.171875 
Q 54.890625 44.34375 54.890625 33.015625 
z
" id="DejaVuSans-110"/>
      <path id="DejaVuSans-32"/>
      <path d="M 8.59375 75.984375 
L 29.296875 75.984375 
L 29.296875 69 
L 17.578125 69 
L 17.578125 -6.203125 
L 29.296875 -6.203125 
L 29.296875 -13.1875 
L 8.59375 -13.1875 
z
" id="DejaVuSans-91"/>
      <path d="M 41.609375 79.390625 
Q 41.609375 82.46875 39.421875 84.640625 
Q 37.25 86.8125 34.1875 86.8125 
Q 31.0625 86.8125 28.9375 84.6875 
Q 26.8125 82.5625 26.8125 79.390625 
Q 26.8125 76.3125 28.953125 74.15625 
Q 31.109375 72.015625 34.1875 72.015625 
Q 37.25 72.015625 39.421875 74.15625 
Q 41.609375 76.3125 41.609375 79.390625 
z
M 34.1875 63.1875 
L 20.90625 26.90625 
L 47.515625 26.90625 
z
M 26.8125 68.21875 
Q 23.828125 70.21875 22.3125 73.015625 
Q 20.796875 75.828125 20.796875 79.390625 
Q 20.796875 85.015625 24.671875 88.921875 
Q 28.5625 92.828125 34.1875 92.828125 
Q 39.75 92.828125 43.671875 88.890625 
Q 47.609375 84.96875 47.609375 79.390625 
Q 47.609375 75.984375 46.0625 73.09375 
Q 44.53125 70.21875 41.609375 68.21875 
L 67.578125 0 
L 57.328125 0 
L 50.6875 18.703125 
L 17.828125 18.703125 
L 11.1875 0 
L 0.78125 0 
z
" id="DejaVuSans-197"/>
      <path d="M 30.421875 75.984375 
L 30.421875 -13.1875 
L 9.71875 -13.1875 
L 9.71875 -6.203125 
L 21.390625 -6.203125 
L 21.390625 69 
L 9.71875 69 
L 9.71875 75.984375 
z
" id="DejaVuSans-93"/>
     </defs>
     <g transform="translate(219.98 265.494375)scale(0.16 -0.16)">
      <use xlink:href="#DejaVuSans-82"/>
      <use x="69.419922" xlink:href="#DejaVuSans-101"/>
      <use x="130.943359" xlink:href="#DejaVuSans-115"/>
      <use x="183.042969" xlink:href="#DejaVuSans-111"/>
      <use x="244.224609" xlink:href="#DejaVuSans-108"/>
      <use x="272.007812" xlink:href="#DejaVuSans-117"/>
      <use x="335.386719" xlink:href="#DejaVuSans-116"/>
      <use x="374.595703" xlink:href="#DejaVuSans-105"/>
      <use x="402.378906" xlink:href="#DejaVuSans-111"/>
      <use x="463.560547" xlink:href="#DejaVuSans-110"/>
      <use x="526.939453" xlink:href="#DejaVuSans-32"/>
      <use x="558.726562" xlink:href="#DejaVuSans-91"/>
      <use x="597.740234" xlink:href="#DejaVuSans-197"/>
      <use x="666.148438" xlink:href="#DejaVuSans-93"/>
     </g>
    </g>
   </g>
   <g id="matplotlib.axis_2">
    <g id="ytick_1">
     <g id="line2d_8">
      <path d="M 60.3925 218.88 
" style="fill:none;stroke:#000000;stroke-width:1.5;"/>
      <defs>
       <path d="M 0 0 
L -2.75 0 
" id="m6c272232c4" style="stroke:#000000;"/>
      </defs>
      <g>
       <use style="stroke:#000000;" x="60.3925" xlink:href="#m6c272232c4" y="218.88"/>
      </g>
     </g>
     <g id="text_6">
      <!-- 0 -->
      <defs>
       <path d="M 31.78125 66.40625 
Q 24.171875 66.40625 20.328125 58.90625 
Q 16.5 51.421875 16.5 36.375 
Q 16.5 21.390625 20.328125 13.890625 
Q 24.171875 6.390625 31.78125 6.390625 
Q 39.453125 6.390625 43.28125 13.890625 
Q 47.125 21.390625 47.125 36.375 
Q 47.125 51.421875 43.28125 58.90625 
Q 39.453125 66.40625 31.78125 66.40625 
z
M 31.78125 74.21875 
Q 44.046875 74.21875 50.515625 64.515625 
Q 56.984375 54.828125 56.984375 36.375 
Q 56.984375 17.96875 50.515625 8.265625 
Q 44.046875 -1.421875 31.78125 -1.421875 
Q 19.53125 -1.421875 13.0625 8.265625 
Q 6.59375 17.96875 6.59375 36.375 
Q 6.59375 54.828125 13.0625 64.515625 
Q 19.53125 74.21875 31.78125 74.21875 
z
" id="DejaVuSans-48"/>
      </defs>
      <g transform="translate(46.535 222.743125)scale(0.14 -0.14)">
       <use xlink:href="#DejaVuSans-48"/>
      </g>
     </g>
    </g>
    <g id="ytick_2">
     <g id="line2d_9">
      <path d="M 60.3925 168.48 
" style="fill:none;stroke:#000000;stroke-width:1.5;"/>
      <g>
       <use style="stroke:#000000;" x="60.3925" xlink:href="#m6c272232c4" y="168.48"/>
      </g>
     </g>
     <g id="text_7">
      <!-- 25 -->
      <defs>
       <path d="M 10.796875 72.90625 
L 49.515625 72.90625 
L 49.515625 64.59375 
L 19.828125 64.59375 
L 19.828125 46.734375 
Q 21.96875 47.46875 24.109375 47.828125 
Q 26.265625 48.1875 28.421875 48.1875 
Q 40.625 48.1875 47.75 41.5 
Q 54.890625 34.8125 54.890625 23.390625 
Q 54.890625 11.625 47.5625 5.09375 
Q 40.234375 -1.421875 26.90625 -1.421875 
Q 22.3125 -1.421875 17.546875 -0.640625 
Q 12.796875 0.140625 7.71875 1.703125 
L 7.71875 11.625 
Q 12.109375 9.234375 16.796875 8.0625 
Q 21.484375 6.890625 26.703125 6.890625 
Q 35.15625 6.890625 40.078125 11.328125 
Q 45.015625 15.765625 45.015625 23.390625 
Q 45.015625 31 40.078125 35.4375 
Q 35.15625 39.890625 26.703125 39.890625 
Q 22.75 39.890625 18.8125 39.015625 
Q 14.890625 38.140625 10.796875 36.28125 
z
" id="DejaVuSans-53"/>
      </defs>
      <g transform="translate(37.6275 172.343125)scale(0.14 -0.14)">
       <use xlink:href="#DejaVuSans-50"/>
       <use x="63.623047" xlink:href="#DejaVuSans-53"/>
      </g>
     </g>
    </g>
    <g id="ytick_3">
     <g id="line2d_10">
      <path d="M 60.3925 118.08 
" style="fill:none;stroke:#000000;stroke-width:1.5;"/>
      <g>
       <use style="stroke:#000000;" x="60.3925" xlink:href="#m6c272232c4" y="118.08"/>
      </g>
     </g>
     <g id="text_8">
      <!-- 50 -->
      <g transform="translate(37.6275 121.943125)scale(0.14 -0.14)">
       <use xlink:href="#DejaVuSans-53"/>
       <use x="63.623047" xlink:href="#DejaVuSans-48"/>
      </g>
     </g>
    </g>
    <g id="ytick_4">
     <g id="line2d_11">
      <path d="M 60.3925 67.68 
" style="fill:none;stroke:#000000;stroke-width:1.5;"/>
      <g>
       <use style="stroke:#000000;" x="60.3925" xlink:href="#m6c272232c4" y="67.68"/>
      </g>
     </g>
     <g id="text_9">
      <!-- 75 -->
      <defs>
       <path d="M 8.203125 72.90625 
L 55.078125 72.90625 
L 55.078125 68.703125 
L 28.609375 0 
L 18.3125 0 
L 43.21875 64.59375 
L 8.203125 64.59375 
z
" id="DejaVuSans-55"/>
      </defs>
      <g transform="translate(37.6275 71.543125)scale(0.14 -0.14)">
       <use xlink:href="#DejaVuSans-55"/>
       <use x="63.623047" xlink:href="#DejaVuSans-53"/>
      </g>
     </g>
    </g>
    <g id="ytick_5">
     <g id="line2d_12">
      <path d="M 60.3925 17.28 
" style="fill:none;stroke:#000000;stroke-width:1.5;"/>
      <g>
       <use style="stroke:#000000;" x="60.3925" xlink:href="#m6c272232c4" y="17.28"/>
      </g>
     </g>
     <g id="text_10">
      <!-- 100 -->
      <g transform="translate(28.72 21.143125)scale(0.14 -0.14)">
       <use xlink:href="#DejaVuSans-49"/>
       <use x="63.623047" xlink:href="#DejaVuSans-48"/>
       <use x="127.246094" xlink:href="#DejaVuSans-48"/>
      </g>
     </g>
    </g>
    <g id="ytick_6">
     <g id="line2d_13">
      <path d="M 60.3925 193.68 
" style="fill:none;stroke:#000000;stroke-width:1.5;"/>
      <defs>
       <path d="M 0 0 
L -1.375 0 
" id="m53eaf6d109" style="stroke:#000000;"/>
      </defs>
      <g>
       <use style="stroke:#000000;" x="60.3925" xlink:href="#m53eaf6d109" y="193.68"/>
      </g>
     </g>
    </g>
    <g id="ytick_7">
     <g id="line2d_14">
      <path d="M 60.3925 143.28 
" style="fill:none;stroke:#000000;stroke-width:1.5;"/>
      <g>
       <use style="stroke:#000000;" x="60.3925" xlink:href="#m53eaf6d109" y="143.28"/>
      </g>
     </g>
    </g>
    <g id="ytick_8">
     <g id="line2d_15">
      <path d="M 60.3925 92.88 
" style="fill:none;stroke:#000000;stroke-width:1.5;"/>
      <g>
       <use style="stroke:#000000;" x="60.3925" xlink:href="#m53eaf6d109" y="92.88"/>
      </g>
     </g>
    </g>
    <g id="ytick_9">
     <g id="line2d_16">
      <path d="M 60.3925 42.48 
" style="fill:none;stroke:#000000;stroke-width:1.5;"/>
      <g>
       <use style="stroke:#000000;" x="60.3925" xlink:href="#m53eaf6d109" y="42.48"/>
      </g>
     </g>
    </g>
    <g id="text_11">
     <!-- $P_{Q1p}$ [%] -->
     <defs>
      <path d="M 16.890625 72.90625 
L 39.703125 72.90625 
Q 49.65625 72.90625 54.875 68.265625 
Q 60.109375 63.625 60.109375 54.6875 
Q 60.109375 42.671875 52.390625 35.984375 
Q 44.671875 29.296875 30.71875 29.296875 
L 18.3125 29.296875 
L 12.59375 0 
L 2.6875 0 
z
M 25.203125 64.796875 
L 19.921875 37.40625 
L 32.328125 37.40625 
Q 40.71875 37.40625 45.203125 41.703125 
Q 49.703125 46 49.703125 54 
Q 49.703125 59.125 46.65625 61.953125 
Q 43.609375 64.796875 38.09375 64.796875 
z
" id="DejaVuSans-Oblique-80"/>
      <path d="M 36.078125 -1.3125 
Q 35.546875 -1.375 34.953125 -1.390625 
Q 34.375 -1.421875 33.203125 -1.421875 
Q 19.53125 -1.421875 11.8125 6.421875 
Q 4.109375 14.265625 4.109375 28.078125 
Q 4.109375 36.234375 7.0625 44.4375 
Q 10.015625 52.640625 15.28125 59.1875 
Q 21.390625 66.703125 29.03125 70.453125 
Q 36.671875 74.21875 45.90625 74.21875 
Q 59.28125 74.21875 66.984375 66.328125 
Q 74.703125 58.453125 74.703125 44.828125 
Q 74.703125 30.125 66.640625 17.921875 
Q 58.59375 5.71875 45.609375 0.6875 
L 55.515625 -12.890625 
L 44.484375 -12.890625 
z
M 45.609375 66.21875 
Q 37.5 66.21875 31.296875 62.28125 
Q 25.09375 58.34375 20.515625 50.296875 
Q 17.578125 45.171875 16.03125 39.40625 
Q 14.5 33.640625 14.5 27.78125 
Q 14.5 17.625 19.359375 12.109375 
Q 24.21875 6.59375 33.109375 6.59375 
Q 41.109375 6.59375 47.375 10.5625 
Q 53.65625 14.546875 58.109375 22.40625 
Q 61.078125 27.6875 62.640625 33.46875 
Q 64.203125 39.265625 64.203125 45.015625 
Q 64.203125 55.125 59.3125 60.671875 
Q 54.4375 66.21875 45.609375 66.21875 
z
" id="DejaVuSans-Oblique-81"/>
      <path d="M 49.609375 33.6875 
Q 49.609375 40.875 46.484375 44.671875 
Q 43.359375 48.484375 37.5 48.484375 
Q 33.5 48.484375 29.859375 46.4375 
Q 26.21875 44.390625 23.390625 40.484375 
Q 20.609375 36.625 18.9375 31.15625 
Q 17.28125 25.6875 17.28125 20.3125 
Q 17.28125 13.484375 20.40625 9.796875 
Q 23.53125 6.109375 29.296875 6.109375 
Q 33.546875 6.109375 37.1875 8.109375 
Q 40.828125 10.109375 43.40625 13.921875 
Q 46.1875 17.921875 47.890625 23.34375 
Q 49.609375 28.765625 49.609375 33.6875 
z
M 21.78125 46.390625 
Q 25.390625 51.125 30.296875 53.5625 
Q 35.203125 56 41.21875 56 
Q 49.609375 56 54.25 50.5 
Q 58.890625 45.015625 58.890625 35.109375 
Q 58.890625 27 56 19.65625 
Q 53.125 12.3125 47.703125 6.5 
Q 44.09375 2.640625 39.546875 0.609375 
Q 35.015625 -1.421875 29.984375 -1.421875 
Q 24.171875 -1.421875 20.21875 1 
Q 16.265625 3.421875 14.3125 8.203125 
L 8.6875 -20.796875 
L -0.296875 -20.796875 
L 14.40625 54.6875 
L 23.390625 54.6875 
z
" id="DejaVuSans-Oblique-112"/>
      <path d="M 72.703125 32.078125 
Q 68.453125 32.078125 66.03125 28.46875 
Q 63.625 24.859375 63.625 18.40625 
Q 63.625 12.0625 66.03125 8.421875 
Q 68.453125 4.78125 72.703125 4.78125 
Q 76.859375 4.78125 79.265625 8.421875 
Q 81.6875 12.0625 81.6875 18.40625 
Q 81.6875 24.8125 79.265625 28.4375 
Q 76.859375 32.078125 72.703125 32.078125 
z
M 72.703125 38.28125 
Q 80.421875 38.28125 84.953125 32.90625 
Q 89.5 27.546875 89.5 18.40625 
Q 89.5 9.28125 84.9375 3.921875 
Q 80.375 -1.421875 72.703125 -1.421875 
Q 64.890625 -1.421875 60.34375 3.921875 
Q 55.8125 9.28125 55.8125 18.40625 
Q 55.8125 27.59375 60.375 32.9375 
Q 64.9375 38.28125 72.703125 38.28125 
z
M 22.3125 68.015625 
Q 18.109375 68.015625 15.6875 64.375 
Q 13.28125 60.75 13.28125 54.390625 
Q 13.28125 47.953125 15.671875 44.328125 
Q 18.0625 40.71875 22.3125 40.71875 
Q 26.5625 40.71875 28.96875 44.328125 
Q 31.390625 47.953125 31.390625 54.390625 
Q 31.390625 60.6875 28.953125 64.34375 
Q 26.515625 68.015625 22.3125 68.015625 
z
M 66.40625 74.21875 
L 74.21875 74.21875 
L 28.609375 -1.421875 
L 20.796875 -1.421875 
z
M 22.3125 74.21875 
Q 30.03125 74.21875 34.609375 68.875 
Q 39.203125 63.53125 39.203125 54.390625 
Q 39.203125 45.171875 34.640625 39.84375 
Q 30.078125 34.515625 22.3125 34.515625 
Q 14.546875 34.515625 10.03125 39.859375 
Q 5.515625 45.21875 5.515625 54.390625 
Q 5.515625 63.484375 10.046875 68.84375 
Q 14.59375 74.21875 22.3125 74.21875 
z
" id="DejaVuSans-37"/>
     </defs>
     <g transform="translate(19.36 149.6)rotate(-90)scale(0.16 -0.16)">
      <use transform="translate(0 0.015625)" xlink:href="#DejaVuSans-Oblique-80"/>
      <use transform="translate(60.302734 -16.390625)scale(0.7)" xlink:href="#DejaVuSans-Oblique-81"/>
      <use transform="translate(115.400391 -16.390625)scale(0.7)" xlink:href="#DejaVuSans-49"/>
      <use transform="translate(159.936523 -16.390625)scale(0.7)" xlink:href="#DejaVuSans-Oblique-112"/>
      <use transform="translate(207.104492 0.015625)" xlink:href="#DejaVuSans-32"/>
      <use transform="translate(238.891602 0.015625)" xlink:href="#DejaVuSans-91"/>
      <use transform="translate(277.905273 0.015625)" xlink:href="#DejaVuSans-37"/>
      <use transform="translate(372.924805 0.015625)" xlink:href="#DejaVuSans-93"/>
     </g>
    </g>
   </g>
   <g id="LineCollection_1">
    <path clip-path="url(#p9720f3c5b6)" d="M 80.683409 54.975351 
L 80.68341 54.975351 
" style="fill:none;stroke:#9da0a2;stroke-width:1.32934;"/>
    <path clip-path="url(#p9720f3c5b6)" d="M 94.210682 55.867444 
L 94.210683 55.867444 
" style="fill:none;stroke:#9da0a2;stroke-width:1.32934;"/>
    <path clip-path="url(#p9720f3c5b6)" d="M 107.737954 62.05982 
L 107.737956 62.05982 
" style="fill:none;stroke:#9da0a2;stroke-width:1.32934;"/>
    <path clip-path="url(#p9720f3c5b6)" d="M 121.265227 63.772921 
L 121.265228 63.772921 
" style="fill:none;stroke:#9da0a2;stroke-width:1.32934;"/>
    <path clip-path="url(#p9720f3c5b6)" d="M 134.7925 71.651297 
L 134.792501 71.651297 
" style="fill:none;stroke:#9da0a2;stroke-width:1.32934;"/>
    <path clip-path="url(#p9720f3c5b6)" d="M 148.319773 78.201622 
L 148.319774 78.201622 
" style="fill:none;stroke:#9da0a2;stroke-width:1.32934;"/>
    <path clip-path="url(#p9720f3c5b6)" d="M 161.847045 82.924096 
L 161.847047 82.924096 
" style="fill:none;stroke:#9da0a2;stroke-width:1.32934;"/>
    <path clip-path="url(#p9720f3c5b6)" d="M 175.374318 91.091979 
L 175.374319 91.091979 
" style="fill:none;stroke:#9da0a2;stroke-width:1.32934;"/>
    <path clip-path="url(#p9720f3c5b6)" d="M 188.901591 94.301227 
L 188.901592 94.301227 
" style="fill:none;stroke:#9da0a2;stroke-width:1.32934;"/>
    <path clip-path="url(#p9720f3c5b6)" d="M 202.428863 106.477749 
L 202.428865 106.477749 
" style="fill:none;stroke:#9da0a2;stroke-width:1.32934;"/>
    <path clip-path="url(#p9720f3c5b6)" d="M 215.956136 116.067193 
L 215.956137 116.067193 
" style="fill:none;stroke:#9da0a2;stroke-width:1.32934;"/>
    <path clip-path="url(#p9720f3c5b6)" d="M 229.483409 124.010418 
L 229.48341 124.010418 
" style="fill:none;stroke:#9da0a2;stroke-width:1.32934;"/>
    <path clip-path="url(#p9720f3c5b6)" d="M 243.010681 129.725805 
L 243.010683 129.725805 
" style="fill:none;stroke:#9da0a2;stroke-width:1.32934;"/>
    <path clip-path="url(#p9720f3c5b6)" d="M 256.537954 141.801343 
L 256.537955 141.801343 
" style="fill:none;stroke:#9da0a2;stroke-width:1.32934;"/>
    <path clip-path="url(#p9720f3c5b6)" d="M 270.065227 142.209882 
L 270.065228 142.209882 
" style="fill:none;stroke:#9da0a2;stroke-width:1.32934;"/>
    <path clip-path="url(#p9720f3c5b6)" d="M 283.592499 151.602283 
L 283.592501 151.602283 
" style="fill:none;stroke:#9da0a2;stroke-width:1.32934;"/>
    <path clip-path="url(#p9720f3c5b6)" d="M 297.119772 150.085317 
L 297.119773 150.085317 
" style="fill:none;stroke:#9da0a2;stroke-width:1.32934;"/>
    <path clip-path="url(#p9720f3c5b6)" d="M 310.647045 155.783052 
L 310.647046 155.783052 
" style="fill:none;stroke:#9da0a2;stroke-width:1.32934;"/>
    <path clip-path="url(#p9720f3c5b6)" d="M 324.174317 157.788195 
L 324.174319 157.788195 
" style="fill:none;stroke:#9da0a2;stroke-width:1.32934;"/>
    <path clip-path="url(#p9720f3c5b6)" d="M 337.70159 162.568698 
L 337.701591 162.568698 
" style="fill:none;stroke:#9da0a2;stroke-width:1.32934;"/>
    <path clip-path="url(#p9720f3c5b6)" d="M 351.228863 154.598963 
L 351.228864 154.598963 
" style="fill:none;stroke:#9da0a2;stroke-width:1.32934;"/>
    <path clip-path="url(#p9720f3c5b6)" d="M 364.756135 155.85734 
L 364.756137 155.85734 
" style="fill:none;stroke:#9da0a2;stroke-width:1.32934;"/>
    <path clip-path="url(#p9720f3c5b6)" d="M 378.283408 161.437165 
L 378.283409 161.437165 
" style="fill:none;stroke:#9da0a2;stroke-width:1.32934;"/>
    <path clip-path="url(#p9720f3c5b6)" d="M 391.810681 168.86713 
L 391.810682 168.86713 
" style="fill:none;stroke:#9da0a2;stroke-width:1.32934;"/>
    <path clip-path="url(#p9720f3c5b6)" d="M 405.337953 178.042766 
L 405.337955 178.042766 
" style="fill:none;stroke:#9da0a2;stroke-width:1.32934;"/>
    <path clip-path="url(#p9720f3c5b6)" d="M 418.865226 169.546168 
L 418.865227 169.546168 
" style="fill:none;stroke:#9da0a2;stroke-width:1.32934;"/>
    <path clip-path="url(#p9720f3c5b6)" d="M 432.392499 169.106125 
L 432.3925 169.106125 
" style="fill:none;stroke:#9da0a2;stroke-width:1.32934;"/>
    <path clip-path="url(#p9720f3c5b6)" d="M 445.919772 177.877242 
L 445.919773 177.877242 
" style="fill:none;stroke:#9da0a2;stroke-width:1.32934;"/>
    <path clip-path="url(#p9720f3c5b6)" d="M 459.447044 176.080679 
L 459.447046 176.080679 
" style="fill:none;stroke:#9da0a2;stroke-width:1.32934;"/>
    <path clip-path="url(#p9720f3c5b6)" d="M 472.974317 184.025782 
L 472.974318 184.025782 
" style="fill:none;stroke:#9da0a2;stroke-width:1.32934;"/>
    <path clip-path="url(#p9720f3c5b6)" d="M 486.50159 176.331675 
L 486.501591 176.331675 
" style="fill:none;stroke:#9da0a2;stroke-width:1.32934;"/>
    <path clip-path="url(#p9720f3c5b6)" d="M 80.683409 52.810305 
L 80.68341 52.810305 
" style="fill:none;stroke:#9da0a2;stroke-width:1.32934;"/>
    <path clip-path="url(#p9720f3c5b6)" d="M 94.210682 53.740595 
L 94.210683 53.740595 
" style="fill:none;stroke:#9da0a2;stroke-width:1.32934;"/>
    <path clip-path="url(#p9720f3c5b6)" d="M 107.737954 60.363697 
L 107.737956 60.363697 
" style="fill:none;stroke:#9da0a2;stroke-width:1.32934;"/>
    <path clip-path="url(#p9720f3c5b6)" d="M 121.265227 61.981949 
L 121.265228 61.981949 
" style="fill:none;stroke:#9da0a2;stroke-width:1.32934;"/>
    <path clip-path="url(#p9720f3c5b6)" d="M 134.7925 70.337495 
L 134.792501 70.337495 
" style="fill:none;stroke:#9da0a2;stroke-width:1.32934;"/>
    <path clip-path="url(#p9720f3c5b6)" d="M 148.319773 76.842167 
L 148.319774 76.842167 
" style="fill:none;stroke:#9da0a2;stroke-width:1.32934;"/>
    <path clip-path="url(#p9720f3c5b6)" d="M 161.847045 81.822373 
L 161.847047 81.822373 
" style="fill:none;stroke:#9da0a2;stroke-width:1.32934;"/>
    <path clip-path="url(#p9720f3c5b6)" d="M 175.374318 89.842829 
L 175.374319 89.842829 
" style="fill:none;stroke:#9da0a2;stroke-width:1.32934;"/>
    <path clip-path="url(#p9720f3c5b6)" d="M 188.901591 93.356158 
L 188.901592 93.356158 
" style="fill:none;stroke:#9da0a2;stroke-width:1.32934;"/>
    <path clip-path="url(#p9720f3c5b6)" d="M 202.428863 105.341854 
L 202.428865 105.341854 
" style="fill:none;stroke:#9da0a2;stroke-width:1.32934;"/>
    <path clip-path="url(#p9720f3c5b6)" d="M 215.956136 115.135958 
L 215.956137 115.135958 
" style="fill:none;stroke:#9da0a2;stroke-width:1.32934;"/>
    <path clip-path="url(#p9720f3c5b6)" d="M 229.483409 122.706584 
L 229.48341 122.706584 
" style="fill:none;stroke:#9da0a2;stroke-width:1.32934;"/>
    <path clip-path="url(#p9720f3c5b6)" d="M 243.010681 128.586248 
L 243.010683 128.586248 
" style="fill:none;stroke:#9da0a2;stroke-width:1.32934;"/>
    <path clip-path="url(#p9720f3c5b6)" d="M 256.537954 140.527871 
L 256.537955 140.527871 
" style="fill:none;stroke:#9da0a2;stroke-width:1.32934;"/>
    <path clip-path="url(#p9720f3c5b6)" d="M 270.065227 140.957533 
L 270.065228 140.957533 
" style="fill:none;stroke:#9da0a2;stroke-width:1.32934;"/>
    <path clip-path="url(#p9720f3c5b6)" d="M 283.592499 150.295421 
L 283.592501 150.295421 
" style="fill:none;stroke:#9da0a2;stroke-width:1.32934;"/>
    <path clip-path="url(#p9720f3c5b6)" d="M 297.119772 148.773332 
L 297.119773 148.773332 
" style="fill:none;stroke:#9da0a2;stroke-width:1.32934;"/>
    <path clip-path="url(#p9720f3c5b6)" d="M 310.647045 154.218413 
L 310.647046 154.218413 
" style="fill:none;stroke:#9da0a2;stroke-width:1.32934;"/>
    <path clip-path="url(#p9720f3c5b6)" d="M 324.174317 156.482903 
L 324.174319 156.482903 
" style="fill:none;stroke:#9da0a2;stroke-width:1.32934;"/>
    <path clip-path="url(#p9720f3c5b6)" d="M 337.70159 160.781491 
L 337.701591 160.781491 
" style="fill:none;stroke:#9da0a2;stroke-width:1.32934;"/>
    <path clip-path="url(#p9720f3c5b6)" d="M 351.228863 152.981518 
L 351.228864 152.981518 
" style="fill:none;stroke:#9da0a2;stroke-width:1.32934;"/>
    <path clip-path="url(#p9720f3c5b6)" d="M 364.756135 153.548732 
L 364.756137 153.548732 
" style="fill:none;stroke:#9da0a2;stroke-width:1.32934;"/>
    <path clip-path="url(#p9720f3c5b6)" d="M 378.283408 159.328735 
L 378.283409 159.328735 
" style="fill:none;stroke:#9da0a2;stroke-width:1.32934;"/>
    <path clip-path="url(#p9720f3c5b6)" d="M 391.810681 166.156754 
L 391.810682 166.156754 
" style="fill:none;stroke:#9da0a2;stroke-width:1.32934;"/>
    <path clip-path="url(#p9720f3c5b6)" d="M 405.337953 175.211513 
L 405.337955 175.211513 
" style="fill:none;stroke:#9da0a2;stroke-width:1.32934;"/>
    <path clip-path="url(#p9720f3c5b6)" d="M 418.865226 166.464112 
L 418.865227 166.464112 
" style="fill:none;stroke:#9da0a2;stroke-width:1.32934;"/>
    <path clip-path="url(#p9720f3c5b6)" d="M 432.392499 165.363179 
L 432.3925 165.363179 
" style="fill:none;stroke:#9da0a2;stroke-width:1.32934;"/>
    <path clip-path="url(#p9720f3c5b6)" d="M 445.919772 172.317372 
L 445.919773 172.317372 
" style="fill:none;stroke:#9da0a2;stroke-width:1.32934;"/>
    <path clip-path="url(#p9720f3c5b6)" d="M 459.447044 171.668153 
L 459.447046 171.668153 
" style="fill:none;stroke:#9da0a2;stroke-width:1.32934;"/>
    <path clip-path="url(#p9720f3c5b6)" d="M 472.974317 178.007494 
L 472.974318 178.007494 
" style="fill:none;stroke:#9da0a2;stroke-width:1.32934;"/>
    <path clip-path="url(#p9720f3c5b6)" d="M 486.50159 173.265403 
L 486.501591 173.265403 
" style="fill:none;stroke:#9da0a2;stroke-width:1.32934;"/>
    <path clip-path="url(#p9720f3c5b6)" d="M 80.68341 52.810305 
L 80.68341 54.975351 
" style="fill:none;stroke:#9da0a2;stroke-width:1.32934;"/>
    <path clip-path="url(#p9720f3c5b6)" d="M 94.210682 53.740595 
L 94.210682 55.867444 
" style="fill:none;stroke:#9da0a2;stroke-width:1.32934;"/>
    <path clip-path="url(#p9720f3c5b6)" d="M 107.737955 60.363697 
L 107.737955 62.05982 
" style="fill:none;stroke:#9da0a2;stroke-width:1.32934;"/>
    <path clip-path="url(#p9720f3c5b6)" d="M 121.265228 61.981949 
L 121.265228 63.772921 
" style="fill:none;stroke:#9da0a2;stroke-width:1.32934;"/>
    <path clip-path="url(#p9720f3c5b6)" d="M 134.7925 70.337495 
L 134.7925 71.651297 
" style="fill:none;stroke:#9da0a2;stroke-width:1.32934;"/>
    <path clip-path="url(#p9720f3c5b6)" d="M 148.319773 76.842167 
L 148.319773 78.201622 
" style="fill:none;stroke:#9da0a2;stroke-width:1.32934;"/>
    <path clip-path="url(#p9720f3c5b6)" d="M 161.847046 81.822373 
L 161.847046 82.924096 
" style="fill:none;stroke:#9da0a2;stroke-width:1.32934;"/>
    <path clip-path="url(#p9720f3c5b6)" d="M 175.374319 89.842829 
L 175.374319 91.091979 
" style="fill:none;stroke:#9da0a2;stroke-width:1.32934;"/>
    <path clip-path="url(#p9720f3c5b6)" d="M 188.901591 93.356158 
L 188.901591 94.301227 
" style="fill:none;stroke:#9da0a2;stroke-width:1.32934;"/>
    <path clip-path="url(#p9720f3c5b6)" d="M 202.428864 105.341854 
L 202.428864 106.477749 
" style="fill:none;stroke:#9da0a2;stroke-width:1.32934;"/>
    <path clip-path="url(#p9720f3c5b6)" d="M 215.956137 115.135958 
L 215.956137 116.067193 
" style="fill:none;stroke:#9da0a2;stroke-width:1.32934;"/>
    <path clip-path="url(#p9720f3c5b6)" d="M 229.483409 122.706584 
L 229.483409 124.010418 
" style="fill:none;stroke:#9da0a2;stroke-width:1.32934;"/>
    <path clip-path="url(#p9720f3c5b6)" d="M 243.010682 128.586248 
L 243.010682 129.725805 
" style="fill:none;stroke:#9da0a2;stroke-width:1.32934;"/>
    <path clip-path="url(#p9720f3c5b6)" d="M 256.537955 140.527871 
L 256.537955 141.801343 
" style="fill:none;stroke:#9da0a2;stroke-width:1.32934;"/>
    <path clip-path="url(#p9720f3c5b6)" d="M 270.065227 140.957533 
L 270.065227 142.209882 
" style="fill:none;stroke:#9da0a2;stroke-width:1.32934;"/>
    <path clip-path="url(#p9720f3c5b6)" d="M 283.5925 150.295421 
L 283.5925 151.602283 
" style="fill:none;stroke:#9da0a2;stroke-width:1.32934;"/>
    <path clip-path="url(#p9720f3c5b6)" d="M 297.119773 148.773332 
L 297.119773 150.085317 
" style="fill:none;stroke:#9da0a2;stroke-width:1.32934;"/>
    <path clip-path="url(#p9720f3c5b6)" d="M 310.647045 154.218413 
L 310.647045 155.783052 
" style="fill:none;stroke:#9da0a2;stroke-width:1.32934;"/>
    <path clip-path="url(#p9720f3c5b6)" d="M 324.174318 156.482903 
L 324.174318 157.788195 
" style="fill:none;stroke:#9da0a2;stroke-width:1.32934;"/>
    <path clip-path="url(#p9720f3c5b6)" d="M 337.701591 160.781491 
L 337.701591 162.568698 
" style="fill:none;stroke:#9da0a2;stroke-width:1.32934;"/>
    <path clip-path="url(#p9720f3c5b6)" d="M 351.228863 152.981518 
L 351.228863 154.598963 
" style="fill:none;stroke:#9da0a2;stroke-width:1.32934;"/>
    <path clip-path="url(#p9720f3c5b6)" d="M 364.756136 153.548732 
L 364.756136 155.85734 
" style="fill:none;stroke:#9da0a2;stroke-width:1.32934;"/>
    <path clip-path="url(#p9720f3c5b6)" d="M 378.283409 159.328735 
L 378.283409 161.437165 
" style="fill:none;stroke:#9da0a2;stroke-width:1.32934;"/>
    <path clip-path="url(#p9720f3c5b6)" d="M 391.810681 166.156754 
L 391.810681 168.86713 
" style="fill:none;stroke:#9da0a2;stroke-width:1.32934;"/>
    <path clip-path="url(#p9720f3c5b6)" d="M 405.337954 175.211513 
L 405.337954 178.042766 
" style="fill:none;stroke:#9da0a2;stroke-width:1.32934;"/>
    <path clip-path="url(#p9720f3c5b6)" d="M 418.865227 166.464112 
L 418.865227 169.546168 
" style="fill:none;stroke:#9da0a2;stroke-width:1.32934;"/>
    <path clip-path="url(#p9720f3c5b6)" d="M 432.3925 165.363179 
L 432.3925 169.106125 
" style="fill:none;stroke:#9da0a2;stroke-width:1.32934;"/>
    <path clip-path="url(#p9720f3c5b6)" d="M 445.919772 172.317372 
L 445.919772 177.877242 
" style="fill:none;stroke:#9da0a2;stroke-width:1.32934;"/>
    <path clip-path="url(#p9720f3c5b6)" d="M 459.447045 171.668153 
L 459.447045 176.080679 
" style="fill:none;stroke:#9da0a2;stroke-width:1.32934;"/>
    <path clip-path="url(#p9720f3c5b6)" d="M 472.974318 178.007494 
L 472.974318 184.025782 
" style="fill:none;stroke:#9da0a2;stroke-width:1.32934;"/>
    <path clip-path="url(#p9720f3c5b6)" d="M 486.50159 173.265403 
L 486.50159 176.331675 
" style="fill:none;stroke:#9da0a2;stroke-width:1.32934;"/>
   </g>
   <g id="line2d_17">
    <path clip-path="url(#p9720f3c5b6)" d="M 80.68341 53.892828 
L 94.210682 54.804019 
L 107.737955 61.211759 
L 121.265228 62.877435 
L 134.7925 70.994396 
L 148.319773 77.521894 
L 161.847046 82.373234 
L 175.374319 90.467404 
L 188.901591 93.828693 
L 202.428864 105.909802 
L 215.956137 115.601576 
L 229.483409 123.358501 
L 243.010682 129.156027 
L 256.537955 141.164607 
L 270.065227 141.583708 
L 283.5925 150.948852 
L 297.119773 149.429324 
L 310.647045 155.000732 
L 324.174318 157.135549 
L 337.701591 161.675095 
L 351.228863 153.79024 
L 364.756136 154.703036 
L 378.283409 160.38295 
L 391.810681 167.511942 
L 405.337954 176.62714 
L 418.865227 168.00514 
L 432.3925 167.234652 
L 445.919772 175.097307 
L 459.447045 173.874416 
L 472.974318 181.016638 
L 486.50159 174.798539 
" style="fill:none;stroke:#ee7733;stroke-width:0.886227;"/>
   </g>
   <g id="patch_3">
    <path d="M 60.3925 228.96 
L 60.3925 7.2 
" style="fill:none;stroke:#000000;stroke-linecap:square;stroke-linejoin:miter;"/>
   </g>
   <g id="patch_4">
    <path d="M 60.3925 228.96 
L 506.7925 228.96 
" style="fill:none;stroke:#000000;stroke-linecap:square;stroke-linejoin:miter;"/>
   </g>
   <g id="PathCollection_1">
    <path clip-path="url(#p9720f3c5b6)" d="M 80.68341 55.665282 
C 81.15347 55.665282 81.604341 55.478525 81.936724 55.146142 
C 82.269107 54.813759 82.455864 54.362888 82.455864 53.892828 
C 82.455864 53.422768 82.269107 52.971897 81.936724 52.639514 
C 81.604341 52.307131 81.15347 52.120374 80.68341 52.120374 
C 80.21335 52.120374 79.762478 52.307131 79.430096 52.639514 
C 79.097713 52.971897 78.910956 53.422768 78.910956 53.892828 
C 78.910956 54.362888 79.097713 54.813759 79.430096 55.146142 
C 79.762478 55.478525 80.21335 55.665282 80.68341 55.665282 
z
" style="fill:#ee7733;stroke:#ee7733;stroke-width:0.886227;"/>
    <path clip-path="url(#p9720f3c5b6)" d="M 94.210682 56.576473 
C 94.680743 56.576473 95.131614 56.389716 95.463997 56.057333 
C 95.796379 55.724951 95.983136 55.27408 95.983136 54.804019 
C 95.983136 54.333959 95.796379 53.883088 95.463997 53.550705 
C 95.131614 53.218322 94.680743 53.031565 94.210682 53.031565 
C 93.740622 53.031565 93.289751 53.218322 92.957368 53.550705 
C 92.624986 53.883088 92.438229 54.333959 92.438229 54.804019 
C 92.438229 55.27408 92.624986 55.724951 92.957368 56.057333 
C 93.289751 56.389716 93.740622 56.576473 94.210682 56.576473 
z
" style="fill:#ee7733;stroke:#ee7733;stroke-width:0.886227;"/>
    <path clip-path="url(#p9720f3c5b6)" d="M 107.737955 62.984212 
C 108.208015 62.984212 108.658886 62.797456 108.991269 62.465073 
C 109.323652 62.13269 109.510409 61.681819 109.510409 61.211759 
C 109.510409 60.741698 109.323652 60.290827 108.991269 59.958444 
C 108.658886 59.626062 108.208015 59.439305 107.737955 59.439305 
C 107.267895 59.439305 106.817024 59.626062 106.484641 59.958444 
C 106.152258 60.290827 105.965501 60.741698 105.965501 61.211759 
C 105.965501 61.681819 106.152258 62.13269 106.484641 62.465073 
C 106.817024 62.797456 107.267895 62.984212 107.737955 62.984212 
z
" style="fill:#ee7733;stroke:#ee7733;stroke-width:0.886227;"/>
    <path clip-path="url(#p9720f3c5b6)" d="M 121.265228 64.649889 
C 121.735288 64.649889 122.186159 64.463132 122.518542 64.130749 
C 122.850925 63.798366 123.037682 63.347495 123.037682 62.877435 
C 123.037682 62.407375 122.850925 61.956504 122.518542 61.624121 
C 122.186159 61.291738 121.735288 61.104981 121.265228 61.104981 
C 120.795168 61.104981 120.344296 61.291738 120.011914 61.624121 
C 119.679531 61.956504 119.492774 62.407375 119.492774 62.877435 
C 119.492774 63.347495 119.679531 63.798366 120.011914 64.130749 
C 120.344296 64.463132 120.795168 64.649889 121.265228 64.649889 
z
" style="fill:#ee7733;stroke:#ee7733;stroke-width:0.886227;"/>
    <path clip-path="url(#p9720f3c5b6)" d="M 134.7925 72.76685 
C 135.262561 72.76685 135.713432 72.580093 136.045815 72.24771 
C 136.378197 71.915327 136.564954 71.464456 136.564954 70.994396 
C 136.564954 70.524336 136.378197 70.073465 136.045815 69.741082 
C 135.713432 69.408699 135.262561 69.221942 134.7925 69.221942 
C 134.32244 69.221942 133.871569 69.408699 133.539186 69.741082 
C 133.206804 70.073465 133.020047 70.524336 133.020047 70.994396 
C 133.020047 71.464456 133.206804 71.915327 133.539186 72.24771 
C 133.871569 72.580093 134.32244 72.76685 134.7925 72.76685 
z
" style="fill:#ee7733;stroke:#ee7733;stroke-width:0.886227;"/>
    <path clip-path="url(#p9720f3c5b6)" d="M 148.319773 79.294348 
C 148.789833 79.294348 149.240705 79.107591 149.573087 78.775208 
C 149.90547 78.442826 150.092227 77.991955 150.092227 77.521894 
C 150.092227 77.051834 149.90547 76.600963 149.573087 76.26858 
C 149.240705 75.936197 148.789833 75.74944 148.319773 75.74944 
C 147.849713 75.74944 147.398842 75.936197 147.066459 76.26858 
C 146.734076 76.600963 146.547319 77.051834 146.547319 77.521894 
C 146.547319 77.991955 146.734076 78.442826 147.066459 78.775208 
C 147.398842 79.107591 147.849713 79.294348 148.319773 79.294348 
z
" style="fill:#ee7733;stroke:#ee7733;stroke-width:0.886227;"/>
    <path clip-path="url(#p9720f3c5b6)" d="M 161.847046 84.145688 
C 162.317106 84.145688 162.767977 83.958931 163.10036 83.626548 
C 163.432743 83.294165 163.6195 82.843294 163.6195 82.373234 
C 163.6195 81.903174 163.432743 81.452303 163.10036 81.11992 
C 162.767977 80.787537 162.317106 80.60078 161.847046 80.60078 
C 161.376986 80.60078 160.926115 80.787537 160.593732 81.11992 
C 160.261349 81.452303 160.074592 81.903174 160.074592 82.373234 
C 160.074592 82.843294 160.261349 83.294165 160.593732 83.626548 
C 160.926115 83.958931 161.376986 84.145688 161.847046 84.145688 
z
" style="fill:#ee7733;stroke:#ee7733;stroke-width:0.886227;"/>
    <path clip-path="url(#p9720f3c5b6)" d="M 175.374319 92.239858 
C 175.844379 92.239858 176.29525 92.053101 176.627633 91.720718 
C 176.960015 91.388335 177.146772 90.937464 177.146772 90.467404 
C 177.146772 89.997344 176.960015 89.546472 176.627633 89.21409 
C 176.29525 88.881707 175.844379 88.69495 175.374319 88.69495 
C 174.904258 88.69495 174.453387 88.881707 174.121004 89.21409 
C 173.788622 89.546472 173.601865 89.997344 173.601865 90.467404 
C 173.601865 90.937464 173.788622 91.388335 174.121004 91.720718 
C 174.453387 92.053101 174.904258 92.239858 175.374319 92.239858 
z
" style="fill:#ee7733;stroke:#ee7733;stroke-width:0.886227;"/>
    <path clip-path="url(#p9720f3c5b6)" d="M 188.901591 95.601146 
C 189.371651 95.601146 189.822523 95.414389 190.154905 95.082007 
C 190.487288 94.749624 190.674045 94.298753 190.674045 93.828693 
C 190.674045 93.358632 190.487288 92.907761 190.154905 92.575378 
C 189.822523 92.242996 189.371651 92.056239 188.901591 92.056239 
C 188.431531 92.056239 187.98066 92.242996 187.648277 92.575378 
C 187.315894 92.907761 187.129137 93.358632 187.129137 93.828693 
C 187.129137 94.298753 187.315894 94.749624 187.648277 95.082007 
C 187.98066 95.414389 188.431531 95.601146 188.901591 95.601146 
z
" style="fill:#ee7733;stroke:#ee7733;stroke-width:0.886227;"/>
    <path clip-path="url(#p9720f3c5b6)" d="M 202.428864 107.682255 
C 202.898924 107.682255 203.349795 107.495498 203.682178 107.163116 
C 204.014561 106.830733 204.201318 106.379862 204.201318 105.909802 
C 204.201318 105.439741 204.014561 104.98887 203.682178 104.656487 
C 203.349795 104.324105 202.898924 104.137348 202.428864 104.137348 
C 201.958804 104.137348 201.507933 104.324105 201.17555 104.656487 
C 200.843167 104.98887 200.65641 105.439741 200.65641 105.909802 
C 200.65641 106.379862 200.843167 106.830733 201.17555 107.163116 
C 201.507933 107.495498 201.958804 107.682255 202.428864 107.682255 
z
" style="fill:#ee7733;stroke:#ee7733;stroke-width:0.886227;"/>
    <path clip-path="url(#p9720f3c5b6)" d="M 215.956137 117.37403 
C 216.426197 117.37403 216.877068 117.187273 217.209451 116.85489 
C 217.541834 116.522507 217.72859 116.071636 217.72859 115.601576 
C 217.72859 115.131516 217.541834 114.680645 217.209451 114.348262 
C 216.877068 114.015879 216.426197 113.829122 215.956137 113.829122 
C 215.486076 113.829122 215.035205 114.015879 214.702822 114.348262 
C 214.37044 114.680645 214.183683 115.131516 214.183683 115.601576 
C 214.183683 116.071636 214.37044 116.522507 214.702822 116.85489 
C 215.035205 117.187273 215.486076 117.37403 215.956137 117.37403 
z
" style="fill:#ee7733;stroke:#ee7733;stroke-width:0.886227;"/>
    <path clip-path="url(#p9720f3c5b6)" d="M 229.483409 125.130955 
C 229.95347 125.130955 230.404341 124.944198 230.736723 124.611815 
C 231.069106 124.279432 231.255863 123.828561 231.255863 123.358501 
C 231.255863 122.888441 231.069106 122.43757 230.736723 122.105187 
C 230.404341 121.772804 229.95347 121.586047 229.483409 121.586047 
C 229.013349 121.586047 228.562478 121.772804 228.230095 122.105187 
C 227.897712 122.43757 227.710955 122.888441 227.710955 123.358501 
C 227.710955 123.828561 227.897712 124.279432 228.230095 124.611815 
C 228.562478 124.944198 229.013349 125.130955 229.483409 125.130955 
z
" style="fill:#ee7733;stroke:#ee7733;stroke-width:0.886227;"/>
    <path clip-path="url(#p9720f3c5b6)" d="M 243.010682 130.928481 
C 243.480742 130.928481 243.931613 130.741724 244.263996 130.409341 
C 244.596379 130.076958 244.783136 129.626087 244.783136 129.156027 
C 244.783136 128.685966 244.596379 128.235095 244.263996 127.902713 
C 243.931613 127.57033 243.480742 127.383573 243.010682 127.383573 
C 242.540622 127.383573 242.089751 127.57033 241.757368 127.902713 
C 241.424985 128.235095 241.238228 128.685966 241.238228 129.156027 
C 241.238228 129.626087 241.424985 130.076958 241.757368 130.409341 
C 242.089751 130.741724 242.540622 130.928481 243.010682 130.928481 
z
" style="fill:#ee7733;stroke:#ee7733;stroke-width:0.886227;"/>
    <path clip-path="url(#p9720f3c5b6)" d="M 256.537955 142.937061 
C 257.008015 142.937061 257.458886 142.750304 257.791269 142.417921 
C 258.123652 142.085538 258.310408 141.634667 258.310408 141.164607 
C 258.310408 140.694546 258.123652 140.243675 257.791269 139.911293 
C 257.458886 139.57891 257.008015 139.392153 256.537955 139.392153 
C 256.067894 139.392153 255.617023 139.57891 255.28464 139.911293 
C 254.952258 140.243675 254.765501 140.694546 254.765501 141.164607 
C 254.765501 141.634667 254.952258 142.085538 255.28464 142.417921 
C 255.617023 142.750304 256.067894 142.937061 256.537955 142.937061 
z
" style="fill:#ee7733;stroke:#ee7733;stroke-width:0.886227;"/>
    <path clip-path="url(#p9720f3c5b6)" d="M 270.065227 143.356162 
C 270.535288 143.356162 270.986159 143.169405 271.318541 142.837022 
C 271.650924 142.504639 271.837681 142.053768 271.837681 141.583708 
C 271.837681 141.113648 271.650924 140.662776 271.318541 140.330394 
C 270.986159 139.998011 270.535288 139.811254 270.065227 139.811254 
C 269.595167 139.811254 269.144296 139.998011 268.811913 140.330394 
C 268.47953 140.662776 268.292773 141.113648 268.292773 141.583708 
C 268.292773 142.053768 268.47953 142.504639 268.811913 142.837022 
C 269.144296 143.169405 269.595167 143.356162 270.065227 143.356162 
z
" style="fill:#ee7733;stroke:#ee7733;stroke-width:0.886227;"/>
    <path clip-path="url(#p9720f3c5b6)" d="M 283.5925 152.721305 
C 284.06256 152.721305 284.513431 152.534548 284.845814 152.202166 
C 285.178197 151.869783 285.364954 151.418912 285.364954 150.948852 
C 285.364954 150.478791 285.178197 150.02792 284.845814 149.695537 
C 284.513431 149.363155 284.06256 149.176398 283.5925 149.176398 
C 283.12244 149.176398 282.671569 149.363155 282.339186 149.695537 
C 282.006803 150.02792 281.820046 150.478791 281.820046 150.948852 
C 281.820046 151.418912 282.006803 151.869783 282.339186 152.202166 
C 282.671569 152.534548 283.12244 152.721305 283.5925 152.721305 
z
" style="fill:#ee7733;stroke:#ee7733;stroke-width:0.886227;"/>
    <path clip-path="url(#p9720f3c5b6)" d="M 297.119773 151.201778 
C 297.589833 151.201778 298.040704 151.015021 298.373087 150.682638 
C 298.70547 150.350256 298.892227 149.899384 298.892227 149.429324 
C 298.892227 148.959264 298.70547 148.508393 298.373087 148.17601 
C 298.040704 147.843627 297.589833 147.65687 297.119773 147.65687 
C 296.649712 147.65687 296.198841 147.843627 295.866459 148.17601 
C 295.534076 148.508393 295.347319 148.959264 295.347319 149.429324 
C 295.347319 149.899384 295.534076 150.350256 295.866459 150.682638 
C 296.198841 151.015021 296.649712 151.201778 297.119773 151.201778 
z
" style="fill:#ee7733;stroke:#ee7733;stroke-width:0.886227;"/>
    <path clip-path="url(#p9720f3c5b6)" d="M 310.647045 156.773186 
C 311.117106 156.773186 311.567977 156.586429 311.90036 156.254046 
C 312.232742 155.921664 312.419499 155.470793 312.419499 155.000732 
C 312.419499 154.530672 312.232742 154.079801 311.90036 153.747418 
C 311.567977 153.415035 311.117106 153.228278 310.647045 153.228278 
C 310.176985 153.228278 309.726114 153.415035 309.393731 153.747418 
C 309.061348 154.079801 308.874592 154.530672 308.874592 155.000732 
C 308.874592 155.470793 309.061348 155.921664 309.393731 156.254046 
C 309.726114 156.586429 310.176985 156.773186 310.647045 156.773186 
z
" style="fill:#ee7733;stroke:#ee7733;stroke-width:0.886227;"/>
    <path clip-path="url(#p9720f3c5b6)" d="M 324.174318 158.908003 
C 324.644378 158.908003 325.095249 158.721246 325.427632 158.388863 
C 325.760015 158.05648 325.946772 157.605609 325.946772 157.135549 
C 325.946772 156.665489 325.760015 156.214618 325.427632 155.882235 
C 325.095249 155.549852 324.644378 155.363095 324.174318 155.363095 
C 323.704258 155.363095 323.253387 155.549852 322.921004 155.882235 
C 322.588621 156.214618 322.401864 156.665489 322.401864 157.135549 
C 322.401864 157.605609 322.588621 158.05648 322.921004 158.388863 
C 323.253387 158.721246 323.704258 158.908003 324.174318 158.908003 
z
" style="fill:#ee7733;stroke:#ee7733;stroke-width:0.886227;"/>
    <path clip-path="url(#p9720f3c5b6)" d="M 337.701591 163.447549 
C 338.171651 163.447549 338.622522 163.260792 338.954905 162.928409 
C 339.287288 162.596026 339.474045 162.145155 339.474045 161.675095 
C 339.474045 161.205034 339.287288 160.754163 338.954905 160.421781 
C 338.622522 160.089398 338.171651 159.902641 337.701591 159.902641 
C 337.23153 159.902641 336.780659 160.089398 336.448277 160.421781 
C 336.115894 160.754163 335.929137 161.205034 335.929137 161.675095 
C 335.929137 162.145155 336.115894 162.596026 336.448277 162.928409 
C 336.780659 163.260792 337.23153 163.447549 337.701591 163.447549 
z
" style="fill:#ee7733;stroke:#ee7733;stroke-width:0.886227;"/>
    <path clip-path="url(#p9720f3c5b6)" d="M 351.228863 155.562694 
C 351.698924 155.562694 352.149795 155.375937 352.482178 155.043554 
C 352.81456 154.711171 353.001317 154.2603 353.001317 153.79024 
C 353.001317 153.32018 352.81456 152.869309 352.482178 152.536926 
C 352.149795 152.204543 351.698924 152.017786 351.228863 152.017786 
C 350.758803 152.017786 350.307932 152.204543 349.975549 152.536926 
C 349.643166 152.869309 349.45641 153.32018 349.45641 153.79024 
C 349.45641 154.2603 349.643166 154.711171 349.975549 155.043554 
C 350.307932 155.375937 350.758803 155.562694 351.228863 155.562694 
z
" style="fill:#ee7733;stroke:#ee7733;stroke-width:0.886227;"/>
    <path clip-path="url(#p9720f3c5b6)" d="M 364.756136 156.47549 
C 365.226196 156.47549 365.677067 156.288733 366.00945 155.95635 
C 366.341833 155.623967 366.52859 155.173096 366.52859 154.703036 
C 366.52859 154.232976 366.341833 153.782105 366.00945 153.449722 
C 365.677067 153.117339 365.226196 152.930582 364.756136 152.930582 
C 364.286076 152.930582 363.835205 153.117339 363.502822 153.449722 
C 363.170439 153.782105 362.983682 154.232976 362.983682 154.703036 
C 362.983682 155.173096 363.170439 155.623967 363.502822 155.95635 
C 363.835205 156.288733 364.286076 156.47549 364.756136 156.47549 
z
" style="fill:#ee7733;stroke:#ee7733;stroke-width:0.886227;"/>
    <path clip-path="url(#p9720f3c5b6)" d="M 378.283409 162.155403 
C 378.753469 162.155403 379.20434 161.968647 379.536723 161.636264 
C 379.869106 161.303881 380.055863 160.85301 380.055863 160.38295 
C 380.055863 159.912889 379.869106 159.462018 379.536723 159.129635 
C 379.20434 158.797253 378.753469 158.610496 378.283409 158.610496 
C 377.813349 158.610496 377.362477 158.797253 377.030095 159.129635 
C 376.697712 159.462018 376.510955 159.912889 376.510955 160.38295 
C 376.510955 160.85301 376.697712 161.303881 377.030095 161.636264 
C 377.362477 161.968647 377.813349 162.155403 378.283409 162.155403 
z
" style="fill:#ee7733;stroke:#ee7733;stroke-width:0.886227;"/>
    <path clip-path="url(#p9720f3c5b6)" d="M 391.810681 169.284396 
C 392.280742 169.284396 392.731613 169.097639 393.063996 168.765256 
C 393.396378 168.432873 393.583135 167.982002 393.583135 167.511942 
C 393.583135 167.041881 393.396378 166.59101 393.063996 166.258628 
C 392.731613 165.926245 392.280742 165.739488 391.810681 165.739488 
C 391.340621 165.739488 390.88975 165.926245 390.557367 166.258628 
C 390.224985 166.59101 390.038228 167.041881 390.038228 167.511942 
C 390.038228 167.982002 390.224985 168.432873 390.557367 168.765256 
C 390.88975 169.097639 391.340621 169.284396 391.810681 169.284396 
z
" style="fill:#ee7733;stroke:#ee7733;stroke-width:0.886227;"/>
    <path clip-path="url(#p9720f3c5b6)" d="M 405.337954 178.399593 
C 405.808014 178.399593 406.258885 178.212837 406.591268 177.880454 
C 406.923651 177.548071 407.110408 177.0972 407.110408 176.62714 
C 407.110408 176.157079 406.923651 175.706208 406.591268 175.373826 
C 406.258885 175.041443 405.808014 174.854686 405.337954 174.854686 
C 404.867894 174.854686 404.417023 175.041443 404.08464 175.373826 
C 403.752257 175.706208 403.5655 176.157079 403.5655 176.62714 
C 403.5655 177.0972 403.752257 177.548071 404.08464 177.880454 
C 404.417023 178.212837 404.867894 178.399593 405.337954 178.399593 
z
" style="fill:#ee7733;stroke:#ee7733;stroke-width:0.886227;"/>
    <path clip-path="url(#p9720f3c5b6)" d="M 418.865227 169.777594 
C 419.335287 169.777594 419.786158 169.590837 420.118541 169.258454 
C 420.450924 168.926072 420.637681 168.475201 420.637681 168.00514 
C 420.637681 167.53508 420.450924 167.084209 420.118541 166.751826 
C 419.786158 166.419443 419.335287 166.232686 418.865227 166.232686 
C 418.395167 166.232686 417.944295 166.419443 417.611913 166.751826 
C 417.27953 167.084209 417.092773 167.53508 417.092773 168.00514 
C 417.092773 168.475201 417.27953 168.926072 417.611913 169.258454 
C 417.944295 169.590837 418.395167 169.777594 418.865227 169.777594 
z
" style="fill:#ee7733;stroke:#ee7733;stroke-width:0.886227;"/>
    <path clip-path="url(#p9720f3c5b6)" d="M 432.3925 169.007106 
C 432.86256 169.007106 433.313431 168.820349 433.645814 168.487966 
C 433.978196 168.155583 434.164953 167.704712 434.164953 167.234652 
C 434.164953 166.764592 433.978196 166.31372 433.645814 165.981338 
C 433.313431 165.648955 432.86256 165.462198 432.3925 165.462198 
C 431.922439 165.462198 431.471568 165.648955 431.139185 165.981338 
C 430.806803 166.31372 430.620046 166.764592 430.620046 167.234652 
C 430.620046 167.704712 430.806803 168.155583 431.139185 168.487966 
C 431.471568 168.820349 431.922439 169.007106 432.3925 169.007106 
z
" style="fill:#ee7733;stroke:#ee7733;stroke-width:0.886227;"/>
    <path clip-path="url(#p9720f3c5b6)" d="M 445.919772 176.869761 
C 446.389832 176.869761 446.840704 176.683004 447.173086 176.350621 
C 447.505469 176.018238 447.692226 175.567367 447.692226 175.097307 
C 447.692226 174.627247 447.505469 174.176376 447.173086 173.843993 
C 446.840704 173.51161 446.389832 173.324853 445.919772 173.324853 
C 445.449712 173.324853 444.998841 173.51161 444.666458 173.843993 
C 444.334075 174.176376 444.147318 174.627247 444.147318 175.097307 
C 444.147318 175.567367 444.334075 176.018238 444.666458 176.350621 
C 444.998841 176.683004 445.449712 176.869761 445.919772 176.869761 
z
" style="fill:#ee7733;stroke:#ee7733;stroke-width:0.886227;"/>
    <path clip-path="url(#p9720f3c5b6)" d="M 459.447045 175.64687 
C 459.917105 175.64687 460.367976 175.460113 460.700359 175.12773 
C 461.032742 174.795347 461.219499 174.344476 461.219499 173.874416 
C 461.219499 173.404355 461.032742 172.953484 460.700359 172.621102 
C 460.367976 172.288719 459.917105 172.101962 459.447045 172.101962 
C 458.976985 172.101962 458.526114 172.288719 458.193731 172.621102 
C 457.861348 172.953484 457.674591 173.404355 457.674591 173.874416 
C 457.674591 174.344476 457.861348 174.795347 458.193731 175.12773 
C 458.526114 175.460113 458.976985 175.64687 459.447045 175.64687 
z
" style="fill:#ee7733;stroke:#ee7733;stroke-width:0.886227;"/>
    <path clip-path="url(#p9720f3c5b6)" d="M 472.974318 182.789092 
C 473.444378 182.789092 473.895249 182.602335 474.227632 182.269952 
C 474.560014 181.93757 474.746771 181.486699 474.746771 181.016638 
C 474.746771 180.546578 474.560014 180.095707 474.227632 179.763324 
C 473.895249 179.430941 473.444378 179.244184 472.974318 179.244184 
C 472.504257 179.244184 472.053386 179.430941 471.721003 179.763324 
C 471.388621 180.095707 471.201864 180.546578 471.201864 181.016638 
C 471.201864 181.486699 471.388621 181.93757 471.721003 182.269952 
C 472.053386 182.602335 472.504257 182.789092 472.974318 182.789092 
z
" style="fill:#ee7733;stroke:#ee7733;stroke-width:0.886227;"/>
    <path clip-path="url(#p9720f3c5b6)" d="M 486.50159 176.570993 
C 486.97165 176.570993 487.422522 176.384236 487.754904 176.051853 
C 488.087287 175.71947 488.274044 175.268599 488.274044 174.798539 
C 488.274044 174.328479 488.087287 173.877608 487.754904 173.545225 
C 487.422522 173.212842 486.97165 173.026085 486.50159 173.026085 
C 486.03153 173.026085 485.580659 173.212842 485.248276 173.545225 
C 484.915893 173.877608 484.729136 174.328479 484.729136 174.798539 
C 484.729136 175.268599 484.915893 175.71947 485.248276 176.051853 
C 485.580659 176.384236 486.03153 176.570993 486.50159 176.570993 
z
" style="fill:#ee7733;stroke:#ee7733;stroke-width:0.886227;"/>
   </g>
  </g>
 </g>
 <defs>
  <clipPath id="p9720f3c5b6">
   <rect height="221.76" width="446.4" x="60.3925" y="7.2"/>
  </clipPath>
 </defs>
</svg>
