<?xml version="1.0" encoding="utf-8" standalone="no"?>
<!DOCTYPE svg PUBLIC "-//W3C//DTD SVG 1.1//EN"
  "http://www.w3.org/Graphics/SVG/1.1/DTD/svg11.dtd">
<!-- Created with matplotlib (https://matplotlib.org/) -->
<svg height="265.688469pt" version="1.1" viewBox="0 0 498.717 265.688469" width="498.717pt" xmlns="http://www.w3.org/2000/svg" xmlns:xlink="http://www.w3.org/1999/xlink">
 <defs>
  <style type="text/css">
*{stroke-linecap:butt;stroke-linejoin:round;}
  </style>
 </defs>
 <g id="figure_1">
  <g id="patch_1">
   <path d="M 0 265.688469 
L 498.717 265.688469 
L 498.717 0 
L 0 0 
z
" style="fill:#ffffff;stroke:#ffffff;stroke-linejoin:miter;"/>
  </g>
  <g id="axes_1">
   <g id="patch_2">
    <path d="M 45.117 228.96 
L 491.517 228.96 
L 491.517 7.2 
L 45.117 7.2 
z
" style="fill:#ffffff;"/>
   </g>
   <g id="matplotlib.axis_1">
    <g id="xtick_1">
     <g id="line2d_1">
      <path d="M 65.40791 228.96 
" style="fill:none;stroke:#000000;stroke-width:1.5;"/>
      <defs>
       <path d="M 0 0 
L 0 2.75 
" id="m7eeb065f5c" style="stroke:#000000;"/>
      </defs>
      <g>
       <use style="stroke:#000000;" x="65.40791" xlink:href="#m7eeb065f5c" y="228.96"/>
      </g>
     </g>
     <g id="text_1">
      <!-- 1 -->
      <defs>
       <path d="M 12.40625 8.296875 
L 28.515625 8.296875 
L 28.515625 63.921875 
L 10.984375 60.40625 
L 10.984375 69.390625 
L 28.421875 72.90625 
L 38.28125 72.90625 
L 38.28125 8.296875 
L 54.390625 8.296875 
L 54.390625 0 
L 12.40625 0 
z
" id="DejaVuSans-49"/>
      </defs>
      <g transform="translate(62.60841 240.596625)scale(0.088 -0.088)">
       <use xlink:href="#DejaVuSans-49"/>
      </g>
     </g>
    </g>
    <g id="xtick_2">
     <g id="line2d_2">
      <path d="M 200.680637 228.96 
" style="fill:none;stroke:#000000;stroke-width:1.5;"/>
      <g>
       <use style="stroke:#000000;" x="200.680637" xlink:href="#m7eeb065f5c" y="228.96"/>
      </g>
     </g>
     <g id="text_2">
      <!-- 2 -->
      <defs>
       <path d="M 19.1875 8.296875 
L 53.609375 8.296875 
L 53.609375 0 
L 7.328125 0 
L 7.328125 8.296875 
Q 12.9375 14.109375 22.625 23.890625 
Q 32.328125 33.6875 34.8125 36.53125 
Q 39.546875 41.84375 41.421875 45.53125 
Q 43.3125 49.21875 43.3125 52.78125 
Q 43.3125 58.59375 39.234375 62.25 
Q 35.15625 65.921875 28.609375 65.921875 
Q 23.96875 65.921875 18.8125 64.3125 
Q 13.671875 62.703125 7.8125 59.421875 
L 7.8125 69.390625 
Q 13.765625 71.78125 18.9375 73 
Q 24.125 74.21875 28.421875 74.21875 
Q 39.75 74.21875 46.484375 68.546875 
Q 53.21875 62.890625 53.21875 53.421875 
Q 53.21875 48.921875 51.53125 44.890625 
Q 49.859375 40.875 45.40625 35.40625 
Q 44.1875 33.984375 37.640625 27.21875 
Q 31.109375 20.453125 19.1875 8.296875 
z
" id="DejaVuSans-50"/>
      </defs>
      <g transform="translate(197.881137 240.596625)scale(0.088 -0.088)">
       <use xlink:href="#DejaVuSans-50"/>
      </g>
     </g>
    </g>
    <g id="xtick_3">
     <g id="line2d_3">
      <path d="M 335.953363 228.96 
" style="fill:none;stroke:#000000;stroke-width:1.5;"/>
      <g>
       <use style="stroke:#000000;" x="335.953363" xlink:href="#m7eeb065f5c" y="228.96"/>
      </g>
     </g>
     <g id="text_3">
      <!-- 3 -->
      <defs>
       <path d="M 40.578125 39.3125 
Q 47.65625 37.796875 51.625 33 
Q 55.609375 28.21875 55.609375 21.1875 
Q 55.609375 10.40625 48.1875 4.484375 
Q 40.765625 -1.421875 27.09375 -1.421875 
Q 22.515625 -1.421875 17.65625 -0.515625 
Q 12.796875 0.390625 7.625 2.203125 
L 7.625 11.71875 
Q 11.71875 9.328125 16.59375 8.109375 
Q 21.484375 6.890625 26.8125 6.890625 
Q 36.078125 6.890625 40.9375 10.546875 
Q 45.796875 14.203125 45.796875 21.1875 
Q 45.796875 27.640625 41.28125 31.265625 
Q 36.765625 34.90625 28.71875 34.90625 
L 20.21875 34.90625 
L 20.21875 43.015625 
L 29.109375 43.015625 
Q 36.375 43.015625 40.234375 45.921875 
Q 44.09375 48.828125 44.09375 54.296875 
Q 44.09375 59.90625 40.109375 62.90625 
Q 36.140625 65.921875 28.71875 65.921875 
Q 24.65625 65.921875 20.015625 65.03125 
Q 15.375 64.15625 9.8125 62.3125 
L 9.8125 71.09375 
Q 15.4375 72.65625 20.34375 73.4375 
Q 25.25 74.21875 29.59375 74.21875 
Q 40.828125 74.21875 47.359375 69.109375 
Q 53.90625 64.015625 53.90625 55.328125 
Q 53.90625 49.265625 50.4375 45.09375 
Q 46.96875 40.921875 40.578125 39.3125 
z
" id="DejaVuSans-51"/>
      </defs>
      <g transform="translate(333.153863 240.596625)scale(0.088 -0.088)">
       <use xlink:href="#DejaVuSans-51"/>
      </g>
     </g>
    </g>
    <g id="xtick_4">
     <g id="line2d_4">
      <path d="M 471.22609 228.96 
" style="fill:none;stroke:#000000;stroke-width:1.5;"/>
      <g>
       <use style="stroke:#000000;" x="471.22609" xlink:href="#m7eeb065f5c" y="228.96"/>
      </g>
     </g>
     <g id="text_4">
      <!-- 4 -->
      <defs>
       <path d="M 37.796875 64.3125 
L 12.890625 25.390625 
L 37.796875 25.390625 
z
M 35.203125 72.90625 
L 47.609375 72.90625 
L 47.609375 25.390625 
L 58.015625 25.390625 
L 58.015625 17.1875 
L 47.609375 17.1875 
L 47.609375 0 
L 37.796875 0 
L 37.796875 17.1875 
L 4.890625 17.1875 
L 4.890625 26.703125 
z
" id="DejaVuSans-52"/>
      </defs>
      <g transform="translate(468.42659 240.596625)scale(0.088 -0.088)">
       <use xlink:href="#DejaVuSans-52"/>
      </g>
     </g>
    </g>
    <g id="xtick_5">
     <g id="line2d_5">
      <path d="M 133.044273 228.96 
" style="fill:none;stroke:#000000;stroke-width:1.5;"/>
      <defs>
       <path d="M 0 0 
L 0 1.375 
" id="mddcd075b16" style="stroke:#000000;"/>
      </defs>
      <g>
       <use style="stroke:#000000;" x="133.044273" xlink:href="#mddcd075b16" y="228.96"/>
      </g>
     </g>
    </g>
    <g id="xtick_6">
     <g id="line2d_6">
      <path d="M 268.317 228.96 
" style="fill:none;stroke:#000000;stroke-width:1.5;"/>
      <g>
       <use style="stroke:#000000;" x="268.317" xlink:href="#mddcd075b16" y="228.96"/>
      </g>
     </g>
    </g>
    <g id="xtick_7">
     <g id="line2d_7">
      <path d="M 403.589727 228.96 
" style="fill:none;stroke:#000000;stroke-width:1.5;"/>
      <g>
       <use style="stroke:#000000;" x="403.589727" xlink:href="#mddcd075b16" y="228.96"/>
      </g>
     </g>
    </g>
    <g id="text_5">
     <!-- Resolution [Å] -->
     <defs>
      <path d="M 44.390625 34.1875 
Q 47.5625 33.109375 50.5625 29.59375 
Q 53.5625 26.078125 56.59375 19.921875 
L 66.609375 0 
L 56 0 
L 46.6875 18.703125 
Q 43.0625 26.03125 39.671875 28.421875 
Q 36.28125 30.8125 30.421875 30.8125 
L 19.671875 30.8125 
L 19.671875 0 
L 9.8125 0 
L 9.8125 72.90625 
L 32.078125 72.90625 
Q 44.578125 72.90625 50.734375 67.671875 
Q 56.890625 62.453125 56.890625 51.90625 
Q 56.890625 45.015625 53.6875 40.46875 
Q 50.484375 35.9375 44.390625 34.1875 
z
M 19.671875 64.796875 
L 19.671875 38.921875 
L 32.078125 38.921875 
Q 39.203125 38.921875 42.84375 42.21875 
Q 46.484375 45.515625 46.484375 51.90625 
Q 46.484375 58.296875 42.84375 61.546875 
Q 39.203125 64.796875 32.078125 64.796875 
z
" id="DejaVuSans-82"/>
      <path d="M 56.203125 29.59375 
L 56.203125 25.203125 
L 14.890625 25.203125 
Q 15.484375 15.921875 20.484375 11.0625 
Q 25.484375 6.203125 34.421875 6.203125 
Q 39.59375 6.203125 44.453125 7.46875 
Q 49.3125 8.734375 54.109375 11.28125 
L 54.109375 2.78125 
Q 49.265625 0.734375 44.1875 -0.34375 
Q 39.109375 -1.421875 33.890625 -1.421875 
Q 20.796875 -1.421875 13.15625 6.1875 
Q 5.515625 13.8125 5.515625 26.8125 
Q 5.515625 40.234375 12.765625 48.109375 
Q 20.015625 56 32.328125 56 
Q 43.359375 56 49.78125 48.890625 
Q 56.203125 41.796875 56.203125 29.59375 
z
M 47.21875 32.234375 
Q 47.125 39.59375 43.09375 43.984375 
Q 39.0625 48.390625 32.421875 48.390625 
Q 24.90625 48.390625 20.390625 44.140625 
Q 15.875 39.890625 15.1875 32.171875 
z
" id="DejaVuSans-101"/>
      <path d="M 44.28125 53.078125 
L 44.28125 44.578125 
Q 40.484375 46.53125 36.375 47.5 
Q 32.28125 48.484375 27.875 48.484375 
Q 21.1875 48.484375 17.84375 46.4375 
Q 14.5 44.390625 14.5 40.28125 
Q 14.5 37.15625 16.890625 35.375 
Q 19.28125 33.59375 26.515625 31.984375 
L 29.59375 31.296875 
Q 39.15625 29.25 43.1875 25.515625 
Q 47.21875 21.78125 47.21875 15.09375 
Q 47.21875 7.46875 41.1875 3.015625 
Q 35.15625 -1.421875 24.609375 -1.421875 
Q 20.21875 -1.421875 15.453125 -0.5625 
Q 10.6875 0.296875 5.421875 2 
L 5.421875 11.28125 
Q 10.40625 8.6875 15.234375 7.390625 
Q 20.0625 6.109375 24.8125 6.109375 
Q 31.15625 6.109375 34.5625 8.28125 
Q 37.984375 10.453125 37.984375 14.40625 
Q 37.984375 18.0625 35.515625 20.015625 
Q 33.0625 21.96875 24.703125 23.78125 
L 21.578125 24.515625 
Q 13.234375 26.265625 9.515625 29.90625 
Q 5.8125 33.546875 5.8125 39.890625 
Q 5.8125 47.609375 11.28125 51.796875 
Q 16.75 56 26.8125 56 
Q 31.78125 56 36.171875 55.265625 
Q 40.578125 54.546875 44.28125 53.078125 
z
" id="DejaVuSans-115"/>
      <path d="M 30.609375 48.390625 
Q 23.390625 48.390625 19.1875 42.75 
Q 14.984375 37.109375 14.984375 27.296875 
Q 14.984375 17.484375 19.15625 11.84375 
Q 23.34375 6.203125 30.609375 6.203125 
Q 37.796875 6.203125 41.984375 11.859375 
Q 46.1875 17.53125 46.1875 27.296875 
Q 46.1875 37.015625 41.984375 42.703125 
Q 37.796875 48.390625 30.609375 48.390625 
z
M 30.609375 56 
Q 42.328125 56 49.015625 48.375 
Q 55.71875 40.765625 55.71875 27.296875 
Q 55.71875 13.875 49.015625 6.21875 
Q 42.328125 -1.421875 30.609375 -1.421875 
Q 18.84375 -1.421875 12.171875 6.21875 
Q 5.515625 13.875 5.515625 27.296875 
Q 5.515625 40.765625 12.171875 48.375 
Q 18.84375 56 30.609375 56 
z
" id="DejaVuSans-111"/>
      <path d="M 9.421875 75.984375 
L 18.40625 75.984375 
L 18.40625 0 
L 9.421875 0 
z
" id="DejaVuSans-108"/>
      <path d="M 8.5 21.578125 
L 8.5 54.6875 
L 17.484375 54.6875 
L 17.484375 21.921875 
Q 17.484375 14.15625 20.5 10.265625 
Q 23.53125 6.390625 29.59375 6.390625 
Q 36.859375 6.390625 41.078125 11.03125 
Q 45.3125 15.671875 45.3125 23.6875 
L 45.3125 54.6875 
L 54.296875 54.6875 
L 54.296875 0 
L 45.3125 0 
L 45.3125 8.40625 
Q 42.046875 3.421875 37.71875 1 
Q 33.40625 -1.421875 27.6875 -1.421875 
Q 18.265625 -1.421875 13.375 4.4375 
Q 8.5 10.296875 8.5 21.578125 
z
M 31.109375 56 
z
" id="DejaVuSans-117"/>
      <path d="M 18.3125 70.21875 
L 18.3125 54.6875 
L 36.8125 54.6875 
L 36.8125 47.703125 
L 18.3125 47.703125 
L 18.3125 18.015625 
Q 18.3125 11.328125 20.140625 9.421875 
Q 21.96875 7.515625 27.59375 7.515625 
L 36.8125 7.515625 
L 36.8125 0 
L 27.59375 0 
Q 17.1875 0 13.234375 3.875 
Q 9.28125 7.765625 9.28125 18.015625 
L 9.28125 47.703125 
L 2.6875 47.703125 
L 2.6875 54.6875 
L 9.28125 54.6875 
L 9.28125 70.21875 
z
" id="DejaVuSans-116"/>
      <path d="M 9.421875 54.6875 
L 18.40625 54.6875 
L 18.40625 0 
L 9.421875 0 
z
M 9.421875 75.984375 
L 18.40625 75.984375 
L 18.40625 64.59375 
L 9.421875 64.59375 
z
" id="DejaVuSans-105"/>
      <path d="M 54.890625 33.015625 
L 54.890625 0 
L 45.90625 0 
L 45.90625 32.71875 
Q 45.90625 40.484375 42.875 44.328125 
Q 39.84375 48.1875 33.796875 48.1875 
Q 26.515625 48.1875 22.3125 43.546875 
Q 18.109375 38.921875 18.109375 30.90625 
L 18.109375 0 
L 9.078125 0 
L 9.078125 54.6875 
L 18.109375 54.6875 
L 18.109375 46.1875 
Q 21.34375 51.125 25.703125 53.5625 
Q 30.078125 56 35.796875 56 
Q 45.21875 56 50.046875 50.171875 
Q 54.890625 44.34375 54.890625 33.015625 
z
" id="DejaVuSans-110"/>
      <path id="DejaVuSans-32"/>
      <path d="M 8.59375 75.984375 
L 29.296875 75.984375 
L 29.296875 69 
L 17.578125 69 
L 17.578125 -6.203125 
L 29.296875 -6.203125 
L 29.296875 -13.1875 
L 8.59375 -13.1875 
z
" id="DejaVuSans-91"/>
      <path d="M 41.609375 79.390625 
Q 41.609375 82.46875 39.421875 84.640625 
Q 37.25 86.8125 34.1875 86.8125 
Q 31.0625 86.8125 28.9375 84.6875 
Q 26.8125 82.5625 26.8125 79.390625 
Q 26.8125 76.3125 28.953125 74.15625 
Q 31.109375 72.015625 34.1875 72.015625 
Q 37.25 72.015625 39.421875 74.15625 
Q 41.609375 76.3125 41.609375 79.390625 
z
M 34.1875 63.1875 
L 20.90625 26.90625 
L 47.515625 26.90625 
z
M 26.8125 68.21875 
Q 23.828125 70.21875 22.3125 73.015625 
Q 20.796875 75.828125 20.796875 79.390625 
Q 20.796875 85.015625 24.671875 88.921875 
Q 28.5625 92.828125 34.1875 92.828125 
Q 39.75 92.828125 43.671875 88.890625 
Q 47.609375 84.96875 47.609375 79.390625 
Q 47.609375 75.984375 46.0625 73.09375 
Q 44.53125 70.21875 41.609375 68.21875 
L 67.578125 0 
L 57.328125 0 
L 50.6875 18.703125 
L 17.828125 18.703125 
L 11.1875 0 
L 0.78125 0 
z
" id="DejaVuSans-197"/>
      <path d="M 30.421875 75.984375 
L 30.421875 -13.1875 
L 9.71875 -13.1875 
L 9.71875 -6.203125 
L 21.390625 -6.203125 
L 21.390625 69 
L 9.71875 69 
L 9.71875 75.984375 
z
" id="DejaVuSans-93"/>
     </defs>
     <g transform="translate(222.333406 256.200812)scale(0.11 -0.11)">
      <use xlink:href="#DejaVuSans-82"/>
      <use x="69.419922" xlink:href="#DejaVuSans-101"/>
      <use x="130.943359" xlink:href="#DejaVuSans-115"/>
      <use x="183.042969" xlink:href="#DejaVuSans-111"/>
      <use x="244.224609" xlink:href="#DejaVuSans-108"/>
      <use x="272.007812" xlink:href="#DejaVuSans-117"/>
      <use x="335.386719" xlink:href="#DejaVuSans-116"/>
      <use x="374.595703" xlink:href="#DejaVuSans-105"/>
      <use x="402.378906" xlink:href="#DejaVuSans-111"/>
      <use x="463.560547" xlink:href="#DejaVuSans-110"/>
      <use x="526.939453" xlink:href="#DejaVuSans-32"/>
      <use x="558.726562" xlink:href="#DejaVuSans-91"/>
      <use x="597.740234" xlink:href="#DejaVuSans-197"/>
      <use x="666.148438" xlink:href="#DejaVuSans-93"/>
     </g>
    </g>
   </g>
   <g id="matplotlib.axis_2">
    <g id="ytick_1">
     <g id="line2d_8">
      <path d="M 45.117 218.88 
" style="fill:none;stroke:#000000;stroke-width:1.5;"/>
      <defs>
       <path d="M 0 0 
L -2.75 0 
" id="m77b079ddef" style="stroke:#000000;"/>
      </defs>
      <g>
       <use style="stroke:#000000;" x="45.117" xlink:href="#m77b079ddef" y="218.88"/>
      </g>
     </g>
     <g id="text_6">
      <!-- 0 -->
      <defs>
       <path d="M 31.78125 66.40625 
Q 24.171875 66.40625 20.328125 58.90625 
Q 16.5 51.421875 16.5 36.375 
Q 16.5 21.390625 20.328125 13.890625 
Q 24.171875 6.390625 31.78125 6.390625 
Q 39.453125 6.390625 43.28125 13.890625 
Q 47.125 21.390625 47.125 36.375 
Q 47.125 51.421875 43.28125 58.90625 
Q 39.453125 66.40625 31.78125 66.40625 
z
M 31.78125 74.21875 
Q 44.046875 74.21875 50.515625 64.515625 
Q 56.984375 54.828125 56.984375 36.375 
Q 56.984375 17.96875 50.515625 8.265625 
Q 44.046875 -1.421875 31.78125 -1.421875 
Q 19.53125 -1.421875 13.0625 8.265625 
Q 6.59375 17.96875 6.59375 36.375 
Q 6.59375 54.828125 13.0625 64.515625 
Q 19.53125 74.21875 31.78125 74.21875 
z
" id="DejaVuSans-48"/>
      </defs>
      <g transform="translate(34.568 221.30825)scale(0.088 -0.088)">
       <use xlink:href="#DejaVuSans-48"/>
      </g>
     </g>
    </g>
    <g id="ytick_2">
     <g id="line2d_9">
      <path d="M 45.117 168.48 
" style="fill:none;stroke:#000000;stroke-width:1.5;"/>
      <g>
       <use style="stroke:#000000;" x="45.117" xlink:href="#m77b079ddef" y="168.48"/>
      </g>
     </g>
     <g id="text_7">
      <!-- 25 -->
      <defs>
       <path d="M 10.796875 72.90625 
L 49.515625 72.90625 
L 49.515625 64.59375 
L 19.828125 64.59375 
L 19.828125 46.734375 
Q 21.96875 47.46875 24.109375 47.828125 
Q 26.265625 48.1875 28.421875 48.1875 
Q 40.625 48.1875 47.75 41.5 
Q 54.890625 34.8125 54.890625 23.390625 
Q 54.890625 11.625 47.5625 5.09375 
Q 40.234375 -1.421875 26.90625 -1.421875 
Q 22.3125 -1.421875 17.546875 -0.640625 
Q 12.796875 0.140625 7.71875 1.703125 
L 7.71875 11.625 
Q 12.109375 9.234375 16.796875 8.0625 
Q 21.484375 6.890625 26.703125 6.890625 
Q 35.15625 6.890625 40.078125 11.328125 
Q 45.015625 15.765625 45.015625 23.390625 
Q 45.015625 31 40.078125 35.4375 
Q 35.15625 39.890625 26.703125 39.890625 
Q 22.75 39.890625 18.8125 39.015625 
Q 14.890625 38.140625 10.796875 36.28125 
z
" id="DejaVuSans-53"/>
      </defs>
      <g transform="translate(28.969 170.90825)scale(0.088 -0.088)">
       <use xlink:href="#DejaVuSans-50"/>
       <use x="63.623047" xlink:href="#DejaVuSans-53"/>
      </g>
     </g>
    </g>
    <g id="ytick_3">
     <g id="line2d_10">
      <path d="M 45.117 118.08 
" style="fill:none;stroke:#000000;stroke-width:1.5;"/>
      <g>
       <use style="stroke:#000000;" x="45.117" xlink:href="#m77b079ddef" y="118.08"/>
      </g>
     </g>
     <g id="text_8">
      <!-- 50 -->
      <g transform="translate(28.969 120.50825)scale(0.088 -0.088)">
       <use xlink:href="#DejaVuSans-53"/>
       <use x="63.623047" xlink:href="#DejaVuSans-48"/>
      </g>
     </g>
    </g>
    <g id="ytick_4">
     <g id="line2d_11">
      <path d="M 45.117 67.68 
" style="fill:none;stroke:#000000;stroke-width:1.5;"/>
      <g>
       <use style="stroke:#000000;" x="45.117" xlink:href="#m77b079ddef" y="67.68"/>
      </g>
     </g>
     <g id="text_9">
      <!-- 75 -->
      <defs>
       <path d="M 8.203125 72.90625 
L 55.078125 72.90625 
L 55.078125 68.703125 
L 28.609375 0 
L 18.3125 0 
L 43.21875 64.59375 
L 8.203125 64.59375 
z
" id="DejaVuSans-55"/>
      </defs>
      <g transform="translate(28.969 70.10825)scale(0.088 -0.088)">
       <use xlink:href="#DejaVuSans-55"/>
       <use x="63.623047" xlink:href="#DejaVuSans-53"/>
      </g>
     </g>
    </g>
    <g id="ytick_5">
     <g id="line2d_12">
      <path d="M 45.117 17.28 
" style="fill:none;stroke:#000000;stroke-width:1.5;"/>
      <g>
       <use style="stroke:#000000;" x="45.117" xlink:href="#m77b079ddef" y="17.28"/>
      </g>
     </g>
     <g id="text_10">
      <!-- 100 -->
      <g transform="translate(23.37 19.70825)scale(0.088 -0.088)">
       <use xlink:href="#DejaVuSans-49"/>
       <use x="63.623047" xlink:href="#DejaVuSans-48"/>
       <use x="127.246094" xlink:href="#DejaVuSans-48"/>
      </g>
     </g>
    </g>
    <g id="ytick_6">
     <g id="line2d_13">
      <path d="M 45.117 193.68 
" style="fill:none;stroke:#000000;stroke-width:1.5;"/>
      <defs>
       <path d="M 0 0 
L -1.375 0 
" id="mb12c605401" style="stroke:#000000;"/>
      </defs>
      <g>
       <use style="stroke:#000000;" x="45.117" xlink:href="#mb12c605401" y="193.68"/>
      </g>
     </g>
    </g>
    <g id="ytick_7">
     <g id="line2d_14">
      <path d="M 45.117 143.28 
" style="fill:none;stroke:#000000;stroke-width:1.5;"/>
      <g>
       <use style="stroke:#000000;" x="45.117" xlink:href="#mb12c605401" y="143.28"/>
      </g>
     </g>
    </g>
    <g id="ytick_8">
     <g id="line2d_15">
      <path d="M 45.117 92.88 
" style="fill:none;stroke:#000000;stroke-width:1.5;"/>
      <g>
       <use style="stroke:#000000;" x="45.117" xlink:href="#mb12c605401" y="92.88"/>
      </g>
     </g>
    </g>
    <g id="ytick_9">
     <g id="line2d_16">
      <path d="M 45.117 42.48 
" style="fill:none;stroke:#000000;stroke-width:1.5;"/>
      <g>
       <use style="stroke:#000000;" x="45.117" xlink:href="#mb12c605401" y="42.48"/>
      </g>
     </g>
    </g>
    <g id="text_11">
     <!-- $P_{Q1p}$ [%] -->
     <defs>
      <path d="M 16.890625 72.90625 
L 39.703125 72.90625 
Q 49.65625 72.90625 54.875 68.265625 
Q 60.109375 63.625 60.109375 54.6875 
Q 60.109375 42.671875 52.390625 35.984375 
Q 44.671875 29.296875 30.71875 29.296875 
L 18.3125 29.296875 
L 12.59375 0 
L 2.6875 0 
z
M 25.203125 64.796875 
L 19.921875 37.40625 
L 32.328125 37.40625 
Q 40.71875 37.40625 45.203125 41.703125 
Q 49.703125 46 49.703125 54 
Q 49.703125 59.125 46.65625 61.953125 
Q 43.609375 64.796875 38.09375 64.796875 
z
" id="DejaVuSans-Oblique-80"/>
      <path d="M 36.078125 -1.3125 
Q 35.546875 -1.375 34.953125 -1.390625 
Q 34.375 -1.421875 33.203125 -1.421875 
Q 19.53125 -1.421875 11.8125 6.421875 
Q 4.109375 14.265625 4.109375 28.078125 
Q 4.109375 36.234375 7.0625 44.4375 
Q 10.015625 52.640625 15.28125 59.1875 
Q 21.390625 66.703125 29.03125 70.453125 
Q 36.671875 74.21875 45.90625 74.21875 
Q 59.28125 74.21875 66.984375 66.328125 
Q 74.703125 58.453125 74.703125 44.828125 
Q 74.703125 30.125 66.640625 17.921875 
Q 58.59375 5.71875 45.609375 0.6875 
L 55.515625 -12.890625 
L 44.484375 -12.890625 
z
M 45.609375 66.21875 
Q 37.5 66.21875 31.296875 62.28125 
Q 25.09375 58.34375 20.515625 50.296875 
Q 17.578125 45.171875 16.03125 39.40625 
Q 14.5 33.640625 14.5 27.78125 
Q 14.5 17.625 19.359375 12.109375 
Q 24.21875 6.59375 33.109375 6.59375 
Q 41.109375 6.59375 47.375 10.5625 
Q 53.65625 14.546875 58.109375 22.40625 
Q 61.078125 27.6875 62.640625 33.46875 
Q 64.203125 39.265625 64.203125 45.015625 
Q 64.203125 55.125 59.3125 60.671875 
Q 54.4375 66.21875 45.609375 66.21875 
z
" id="DejaVuSans-Oblique-81"/>
      <path d="M 49.609375 33.6875 
Q 49.609375 40.875 46.484375 44.671875 
Q 43.359375 48.484375 37.5 48.484375 
Q 33.5 48.484375 29.859375 46.4375 
Q 26.21875 44.390625 23.390625 40.484375 
Q 20.609375 36.625 18.9375 31.15625 
Q 17.28125 25.6875 17.28125 20.3125 
Q 17.28125 13.484375 20.40625 9.796875 
Q 23.53125 6.109375 29.296875 6.109375 
Q 33.546875 6.109375 37.1875 8.109375 
Q 40.828125 10.109375 43.40625 13.921875 
Q 46.1875 17.921875 47.890625 23.34375 
Q 49.609375 28.765625 49.609375 33.6875 
z
M 21.78125 46.390625 
Q 25.390625 51.125 30.296875 53.5625 
Q 35.203125 56 41.21875 56 
Q 49.609375 56 54.25 50.5 
Q 58.890625 45.015625 58.890625 35.109375 
Q 58.890625 27 56 19.65625 
Q 53.125 12.3125 47.703125 6.5 
Q 44.09375 2.640625 39.546875 0.609375 
Q 35.015625 -1.421875 29.984375 -1.421875 
Q 24.171875 -1.421875 20.21875 1 
Q 16.265625 3.421875 14.3125 8.203125 
L 8.6875 -20.796875 
L -0.296875 -20.796875 
L 14.40625 54.6875 
L 23.390625 54.6875 
z
" id="DejaVuSans-Oblique-112"/>
      <path d="M 72.703125 32.078125 
Q 68.453125 32.078125 66.03125 28.46875 
Q 63.625 24.859375 63.625 18.40625 
Q 63.625 12.0625 66.03125 8.421875 
Q 68.453125 4.78125 72.703125 4.78125 
Q 76.859375 4.78125 79.265625 8.421875 
Q 81.6875 12.0625 81.6875 18.40625 
Q 81.6875 24.8125 79.265625 28.4375 
Q 76.859375 32.078125 72.703125 32.078125 
z
M 72.703125 38.28125 
Q 80.421875 38.28125 84.953125 32.90625 
Q 89.5 27.546875 89.5 18.40625 
Q 89.5 9.28125 84.9375 3.921875 
Q 80.375 -1.421875 72.703125 -1.421875 
Q 64.890625 -1.421875 60.34375 3.921875 
Q 55.8125 9.28125 55.8125 18.40625 
Q 55.8125 27.59375 60.375 32.9375 
Q 64.9375 38.28125 72.703125 38.28125 
z
M 22.3125 68.015625 
Q 18.109375 68.015625 15.6875 64.375 
Q 13.28125 60.75 13.28125 54.390625 
Q 13.28125 47.953125 15.671875 44.328125 
Q 18.0625 40.71875 22.3125 40.71875 
Q 26.5625 40.71875 28.96875 44.328125 
Q 31.390625 47.953125 31.390625 54.390625 
Q 31.390625 60.6875 28.953125 64.34375 
Q 26.515625 68.015625 22.3125 68.015625 
z
M 66.40625 74.21875 
L 74.21875 74.21875 
L 28.609375 -1.421875 
L 20.796875 -1.421875 
z
M 22.3125 74.21875 
Q 30.03125 74.21875 34.609375 68.875 
Q 39.203125 63.53125 39.203125 54.390625 
Q 39.203125 45.171875 34.640625 39.84375 
Q 30.078125 34.515625 22.3125 34.515625 
Q 14.546875 34.515625 10.03125 39.859375 
Q 5.515625 45.21875 5.515625 54.390625 
Q 5.515625 63.484375 10.046875 68.84375 
Q 14.59375 74.21875 22.3125 74.21875 
z
" id="DejaVuSans-37"/>
     </defs>
     <g transform="translate(15.56 139.3)rotate(-90)scale(0.11 -0.11)">
      <use transform="translate(0 0.015625)" xlink:href="#DejaVuSans-Oblique-80"/>
      <use transform="translate(60.302734 -16.390625)scale(0.7)" xlink:href="#DejaVuSans-Oblique-81"/>
      <use transform="translate(115.400391 -16.390625)scale(0.7)" xlink:href="#DejaVuSans-49"/>
      <use transform="translate(159.936523 -16.390625)scale(0.7)" xlink:href="#DejaVuSans-Oblique-112"/>
      <use transform="translate(207.104492 0.015625)" xlink:href="#DejaVuSans-32"/>
      <use transform="translate(238.891602 0.015625)" xlink:href="#DejaVuSans-91"/>
      <use transform="translate(277.905273 0.015625)" xlink:href="#DejaVuSans-37"/>
      <use transform="translate(372.924805 0.015625)" xlink:href="#DejaVuSans-93"/>
     </g>
    </g>
   </g>
   <g id="LineCollection_1">
    <path clip-path="url(#pd73f36682b)" d="M 65.407909 53.751566 
L 65.40791 53.751566 
" style="fill:none;stroke:#9da0a2;stroke-width:1.32934;"/>
    <path clip-path="url(#pd73f36682b)" d="M 78.935182 55.237184 
L 78.935183 55.237184 
" style="fill:none;stroke:#9da0a2;stroke-width:1.32934;"/>
    <path clip-path="url(#pd73f36682b)" d="M 92.462454 61.783633 
L 92.462456 61.783633 
" style="fill:none;stroke:#9da0a2;stroke-width:1.32934;"/>
    <path clip-path="url(#pd73f36682b)" d="M 105.989727 62.344679 
L 105.989728 62.344679 
" style="fill:none;stroke:#9da0a2;stroke-width:1.32934;"/>
    <path clip-path="url(#pd73f36682b)" d="M 119.517 70.563346 
L 119.517001 70.563346 
" style="fill:none;stroke:#9da0a2;stroke-width:1.32934;"/>
    <path clip-path="url(#pd73f36682b)" d="M 133.044273 77.724216 
L 133.044274 77.724216 
" style="fill:none;stroke:#9da0a2;stroke-width:1.32934;"/>
    <path clip-path="url(#pd73f36682b)" d="M 146.571545 82.543007 
L 146.571547 82.543007 
" style="fill:none;stroke:#9da0a2;stroke-width:1.32934;"/>
    <path clip-path="url(#pd73f36682b)" d="M 160.098818 91.162529 
L 160.098819 91.162529 
" style="fill:none;stroke:#9da0a2;stroke-width:1.32934;"/>
    <path clip-path="url(#pd73f36682b)" d="M 173.626091 94.303417 
L 173.626092 94.303417 
" style="fill:none;stroke:#9da0a2;stroke-width:1.32934;"/>
    <path clip-path="url(#pd73f36682b)" d="M 187.153363 106.355489 
L 187.153365 106.355489 
" style="fill:none;stroke:#9da0a2;stroke-width:1.32934;"/>
    <path clip-path="url(#pd73f36682b)" d="M 200.680636 115.76765 
L 200.680637 115.76765 
" style="fill:none;stroke:#9da0a2;stroke-width:1.32934;"/>
    <path clip-path="url(#pd73f36682b)" d="M 214.207909 123.260712 
L 214.20791 123.260712 
" style="fill:none;stroke:#9da0a2;stroke-width:1.32934;"/>
    <path clip-path="url(#pd73f36682b)" d="M 227.735181 129.147105 
L 227.735183 129.147105 
" style="fill:none;stroke:#9da0a2;stroke-width:1.32934;"/>
    <path clip-path="url(#pd73f36682b)" d="M 241.262454 140.610178 
L 241.262455 140.610178 
" style="fill:none;stroke:#9da0a2;stroke-width:1.32934;"/>
    <path clip-path="url(#pd73f36682b)" d="M 254.789727 141.131148 
L 254.789728 141.131148 
" style="fill:none;stroke:#9da0a2;stroke-width:1.32934;"/>
    <path clip-path="url(#pd73f36682b)" d="M 268.316999 150.376416 
L 268.317001 150.376416 
" style="fill:none;stroke:#9da0a2;stroke-width:1.32934;"/>
    <path clip-path="url(#pd73f36682b)" d="M 281.844272 148.531026 
L 281.844273 148.531026 
" style="fill:none;stroke:#9da0a2;stroke-width:1.32934;"/>
    <path clip-path="url(#pd73f36682b)" d="M 295.371545 155.005504 
L 295.371546 155.005504 
" style="fill:none;stroke:#9da0a2;stroke-width:1.32934;"/>
    <path clip-path="url(#pd73f36682b)" d="M 308.898817 156.91338 
L 308.898819 156.91338 
" style="fill:none;stroke:#9da0a2;stroke-width:1.32934;"/>
    <path clip-path="url(#pd73f36682b)" d="M 322.42609 161.727769 
L 322.426091 161.727769 
" style="fill:none;stroke:#9da0a2;stroke-width:1.32934;"/>
    <path clip-path="url(#pd73f36682b)" d="M 335.953363 155.799185 
L 335.953364 155.799185 
" style="fill:none;stroke:#9da0a2;stroke-width:1.32934;"/>
    <path clip-path="url(#pd73f36682b)" d="M 349.480635 154.953609 
L 349.480637 154.953609 
" style="fill:none;stroke:#9da0a2;stroke-width:1.32934;"/>
    <path clip-path="url(#pd73f36682b)" d="M 363.007908 161.468078 
L 363.007909 161.468078 
" style="fill:none;stroke:#9da0a2;stroke-width:1.32934;"/>
    <path clip-path="url(#pd73f36682b)" d="M 376.535181 167.349573 
L 376.535182 167.349573 
" style="fill:none;stroke:#9da0a2;stroke-width:1.32934;"/>
    <path clip-path="url(#pd73f36682b)" d="M 390.062453 176.033826 
L 390.062455 176.033826 
" style="fill:none;stroke:#9da0a2;stroke-width:1.32934;"/>
    <path clip-path="url(#pd73f36682b)" d="M 403.589726 170.876282 
L 403.589727 170.876282 
" style="fill:none;stroke:#9da0a2;stroke-width:1.32934;"/>
    <path clip-path="url(#pd73f36682b)" d="M 417.116999 168.571383 
L 417.117 168.571383 
" style="fill:none;stroke:#9da0a2;stroke-width:1.32934;"/>
    <path clip-path="url(#pd73f36682b)" d="M 430.644272 175.530675 
L 430.644273 175.530675 
" style="fill:none;stroke:#9da0a2;stroke-width:1.32934;"/>
    <path clip-path="url(#pd73f36682b)" d="M 444.171544 176.742486 
L 444.171546 176.742486 
" style="fill:none;stroke:#9da0a2;stroke-width:1.32934;"/>
    <path clip-path="url(#pd73f36682b)" d="M 457.698817 182.665272 
L 457.698818 182.665272 
" style="fill:none;stroke:#9da0a2;stroke-width:1.32934;"/>
    <path clip-path="url(#pd73f36682b)" d="M 471.22609 175.030441 
L 471.226091 175.030441 
" style="fill:none;stroke:#9da0a2;stroke-width:1.32934;"/>
    <path clip-path="url(#pd73f36682b)" d="M 65.407909 51.792284 
L 65.40791 51.792284 
" style="fill:none;stroke:#9da0a2;stroke-width:1.32934;"/>
    <path clip-path="url(#pd73f36682b)" d="M 78.935182 53.207751 
L 78.935183 53.207751 
" style="fill:none;stroke:#9da0a2;stroke-width:1.32934;"/>
    <path clip-path="url(#pd73f36682b)" d="M 92.462454 60.149592 
L 92.462456 60.149592 
" style="fill:none;stroke:#9da0a2;stroke-width:1.32934;"/>
    <path clip-path="url(#pd73f36682b)" d="M 105.989727 60.646247 
L 105.989728 60.646247 
" style="fill:none;stroke:#9da0a2;stroke-width:1.32934;"/>
    <path clip-path="url(#pd73f36682b)" d="M 119.517 69.301134 
L 119.517001 69.301134 
" style="fill:none;stroke:#9da0a2;stroke-width:1.32934;"/>
    <path clip-path="url(#pd73f36682b)" d="M 133.044273 76.416363 
L 133.044274 76.416363 
" style="fill:none;stroke:#9da0a2;stroke-width:1.32934;"/>
    <path clip-path="url(#pd73f36682b)" d="M 146.571545 81.484608 
L 146.571547 81.484608 
" style="fill:none;stroke:#9da0a2;stroke-width:1.32934;"/>
    <path clip-path="url(#pd73f36682b)" d="M 160.098818 89.973859 
L 160.098819 89.973859 
" style="fill:none;stroke:#9da0a2;stroke-width:1.32934;"/>
    <path clip-path="url(#pd73f36682b)" d="M 173.626091 93.419613 
L 173.626092 93.419613 
" style="fill:none;stroke:#9da0a2;stroke-width:1.32934;"/>
    <path clip-path="url(#pd73f36682b)" d="M 187.153363 105.282915 
L 187.153365 105.282915 
" style="fill:none;stroke:#9da0a2;stroke-width:1.32934;"/>
    <path clip-path="url(#pd73f36682b)" d="M 200.680636 114.896789 
L 200.680637 114.896789 
" style="fill:none;stroke:#9da0a2;stroke-width:1.32934;"/>
    <path clip-path="url(#pd73f36682b)" d="M 214.207909 122.030885 
L 214.20791 122.030885 
" style="fill:none;stroke:#9da0a2;stroke-width:1.32934;"/>
    <path clip-path="url(#pd73f36682b)" d="M 227.735181 128.077376 
L 227.735183 128.077376 
" style="fill:none;stroke:#9da0a2;stroke-width:1.32934;"/>
    <path clip-path="url(#pd73f36682b)" d="M 241.262454 139.410031 
L 241.262455 139.410031 
" style="fill:none;stroke:#9da0a2;stroke-width:1.32934;"/>
    <path clip-path="url(#pd73f36682b)" d="M 254.789727 139.944033 
L 254.789728 139.944033 
" style="fill:none;stroke:#9da0a2;stroke-width:1.32934;"/>
    <path clip-path="url(#pd73f36682b)" d="M 268.316999 149.159088 
L 268.317001 149.159088 
" style="fill:none;stroke:#9da0a2;stroke-width:1.32934;"/>
    <path clip-path="url(#pd73f36682b)" d="M 281.844272 147.267133 
L 281.844273 147.267133 
" style="fill:none;stroke:#9da0a2;stroke-width:1.32934;"/>
    <path clip-path="url(#pd73f36682b)" d="M 295.371545 153.513486 
L 295.371546 153.513486 
" style="fill:none;stroke:#9da0a2;stroke-width:1.32934;"/>
    <path clip-path="url(#pd73f36682b)" d="M 308.898817 155.666433 
L 308.898819 155.666433 
" style="fill:none;stroke:#9da0a2;stroke-width:1.32934;"/>
    <path clip-path="url(#pd73f36682b)" d="M 322.42609 160.020886 
L 322.426091 160.020886 
" style="fill:none;stroke:#9da0a2;stroke-width:1.32934;"/>
    <path clip-path="url(#pd73f36682b)" d="M 335.953363 154.268677 
L 335.953364 154.268677 
" style="fill:none;stroke:#9da0a2;stroke-width:1.32934;"/>
    <path clip-path="url(#pd73f36682b)" d="M 349.480635 152.699367 
L 349.480637 152.699367 
" style="fill:none;stroke:#9da0a2;stroke-width:1.32934;"/>
    <path clip-path="url(#pd73f36682b)" d="M 363.007908 159.433211 
L 363.007909 159.433211 
" style="fill:none;stroke:#9da0a2;stroke-width:1.32934;"/>
    <path clip-path="url(#pd73f36682b)" d="M 376.535181 164.64898 
L 376.535182 164.64898 
" style="fill:none;stroke:#9da0a2;stroke-width:1.32934;"/>
    <path clip-path="url(#pd73f36682b)" d="M 390.062453 173.218888 
L 390.062455 173.218888 
" style="fill:none;stroke:#9da0a2;stroke-width:1.32934;"/>
    <path clip-path="url(#pd73f36682b)" d="M 403.589726 167.991653 
L 403.589727 167.991653 
" style="fill:none;stroke:#9da0a2;stroke-width:1.32934;"/>
    <path clip-path="url(#pd73f36682b)" d="M 417.116999 164.823047 
L 417.117 164.823047 
" style="fill:none;stroke:#9da0a2;stroke-width:1.32934;"/>
    <path clip-path="url(#pd73f36682b)" d="M 430.644272 170.115445 
L 430.644273 170.115445 
" style="fill:none;stroke:#9da0a2;stroke-width:1.32934;"/>
    <path clip-path="url(#pd73f36682b)" d="M 444.171544 172.545735 
L 444.171546 172.545735 
" style="fill:none;stroke:#9da0a2;stroke-width:1.32934;"/>
    <path clip-path="url(#pd73f36682b)" d="M 457.698817 176.996367 
L 457.698818 176.996367 
" style="fill:none;stroke:#9da0a2;stroke-width:1.32934;"/>
    <path clip-path="url(#pd73f36682b)" d="M 471.22609 172.553902 
L 471.226091 172.553902 
" style="fill:none;stroke:#9da0a2;stroke-width:1.32934;"/>
    <path clip-path="url(#pd73f36682b)" d="M 65.40791 51.792284 
L 65.40791 53.751566 
" style="fill:none;stroke:#9da0a2;stroke-width:1.32934;"/>
    <path clip-path="url(#pd73f36682b)" d="M 78.935182 53.207751 
L 78.935182 55.237184 
" style="fill:none;stroke:#9da0a2;stroke-width:1.32934;"/>
    <path clip-path="url(#pd73f36682b)" d="M 92.462455 60.149592 
L 92.462455 61.783633 
" style="fill:none;stroke:#9da0a2;stroke-width:1.32934;"/>
    <path clip-path="url(#pd73f36682b)" d="M 105.989728 60.646247 
L 105.989728 62.344679 
" style="fill:none;stroke:#9da0a2;stroke-width:1.32934;"/>
    <path clip-path="url(#pd73f36682b)" d="M 119.517 69.301134 
L 119.517 70.563346 
" style="fill:none;stroke:#9da0a2;stroke-width:1.32934;"/>
    <path clip-path="url(#pd73f36682b)" d="M 133.044273 76.416363 
L 133.044273 77.724216 
" style="fill:none;stroke:#9da0a2;stroke-width:1.32934;"/>
    <path clip-path="url(#pd73f36682b)" d="M 146.571546 81.484608 
L 146.571546 82.543007 
" style="fill:none;stroke:#9da0a2;stroke-width:1.32934;"/>
    <path clip-path="url(#pd73f36682b)" d="M 160.098819 89.973859 
L 160.098819 91.162529 
" style="fill:none;stroke:#9da0a2;stroke-width:1.32934;"/>
    <path clip-path="url(#pd73f36682b)" d="M 173.626091 93.419613 
L 173.626091 94.303417 
" style="fill:none;stroke:#9da0a2;stroke-width:1.32934;"/>
    <path clip-path="url(#pd73f36682b)" d="M 187.153364 105.282915 
L 187.153364 106.355489 
" style="fill:none;stroke:#9da0a2;stroke-width:1.32934;"/>
    <path clip-path="url(#pd73f36682b)" d="M 200.680637 114.896789 
L 200.680637 115.76765 
" style="fill:none;stroke:#9da0a2;stroke-width:1.32934;"/>
    <path clip-path="url(#pd73f36682b)" d="M 214.207909 122.030885 
L 214.207909 123.260712 
" style="fill:none;stroke:#9da0a2;stroke-width:1.32934;"/>
    <path clip-path="url(#pd73f36682b)" d="M 227.735182 128.077376 
L 227.735182 129.147105 
" style="fill:none;stroke:#9da0a2;stroke-width:1.32934;"/>
    <path clip-path="url(#pd73f36682b)" d="M 241.262455 139.410031 
L 241.262455 140.610178 
" style="fill:none;stroke:#9da0a2;stroke-width:1.32934;"/>
    <path clip-path="url(#pd73f36682b)" d="M 254.789727 139.944033 
L 254.789727 141.131148 
" style="fill:none;stroke:#9da0a2;stroke-width:1.32934;"/>
    <path clip-path="url(#pd73f36682b)" d="M 268.317 149.159088 
L 268.317 150.376416 
" style="fill:none;stroke:#9da0a2;stroke-width:1.32934;"/>
    <path clip-path="url(#pd73f36682b)" d="M 281.844273 147.267133 
L 281.844273 148.531026 
" style="fill:none;stroke:#9da0a2;stroke-width:1.32934;"/>
    <path clip-path="url(#pd73f36682b)" d="M 295.371545 153.513486 
L 295.371545 155.005504 
" style="fill:none;stroke:#9da0a2;stroke-width:1.32934;"/>
    <path clip-path="url(#pd73f36682b)" d="M 308.898818 155.666433 
L 308.898818 156.91338 
" style="fill:none;stroke:#9da0a2;stroke-width:1.32934;"/>
    <path clip-path="url(#pd73f36682b)" d="M 322.426091 160.020886 
L 322.426091 161.727769 
" style="fill:none;stroke:#9da0a2;stroke-width:1.32934;"/>
    <path clip-path="url(#pd73f36682b)" d="M 335.953363 154.268677 
L 335.953363 155.799185 
" style="fill:none;stroke:#9da0a2;stroke-width:1.32934;"/>
    <path clip-path="url(#pd73f36682b)" d="M 349.480636 152.699367 
L 349.480636 154.953609 
" style="fill:none;stroke:#9da0a2;stroke-width:1.32934;"/>
    <path clip-path="url(#pd73f36682b)" d="M 363.007909 159.433211 
L 363.007909 161.468078 
" style="fill:none;stroke:#9da0a2;stroke-width:1.32934;"/>
    <path clip-path="url(#pd73f36682b)" d="M 376.535181 164.64898 
L 376.535181 167.349573 
" style="fill:none;stroke:#9da0a2;stroke-width:1.32934;"/>
    <path clip-path="url(#pd73f36682b)" d="M 390.062454 173.218888 
L 390.062454 176.033826 
" style="fill:none;stroke:#9da0a2;stroke-width:1.32934;"/>
    <path clip-path="url(#pd73f36682b)" d="M 403.589727 167.991653 
L 403.589727 170.876282 
" style="fill:none;stroke:#9da0a2;stroke-width:1.32934;"/>
    <path clip-path="url(#pd73f36682b)" d="M 417.117 164.823047 
L 417.117 168.571383 
" style="fill:none;stroke:#9da0a2;stroke-width:1.32934;"/>
    <path clip-path="url(#pd73f36682b)" d="M 430.644272 170.115445 
L 430.644272 175.530675 
" style="fill:none;stroke:#9da0a2;stroke-width:1.32934;"/>
    <path clip-path="url(#pd73f36682b)" d="M 444.171545 172.545735 
L 444.171545 176.742486 
" style="fill:none;stroke:#9da0a2;stroke-width:1.32934;"/>
    <path clip-path="url(#pd73f36682b)" d="M 457.698818 176.996367 
L 457.698818 182.665272 
" style="fill:none;stroke:#9da0a2;stroke-width:1.32934;"/>
    <path clip-path="url(#pd73f36682b)" d="M 471.22609 172.553902 
L 471.22609 175.030441 
" style="fill:none;stroke:#9da0a2;stroke-width:1.32934;"/>
   </g>
   <g id="line2d_17">
    <path clip-path="url(#pd73f36682b)" d="M 65.40791 52.771925 
L 78.935182 54.222467 
L 92.462455 60.966612 
L 105.989728 61.495463 
L 119.517 69.93224 
L 133.044273 77.070289 
L 146.571546 82.013808 
L 160.098819 90.568194 
L 173.626091 93.861515 
L 187.153364 105.819202 
L 200.680637 115.332219 
L 214.207909 122.645798 
L 227.735182 128.612241 
L 241.262455 140.010104 
L 254.789727 140.53759 
L 268.317 149.767752 
L 281.844273 147.899079 
L 295.371545 154.259495 
L 308.898818 156.289906 
L 322.426091 160.874327 
L 335.953363 155.033931 
L 349.480636 153.826488 
L 363.007909 160.450644 
L 376.535181 165.999277 
L 390.062454 174.626357 
L 403.589727 169.433967 
L 417.117 166.697215 
L 430.644272 172.82306 
L 444.171545 174.64411 
L 457.698818 179.830819 
L 471.22609 173.792171 
" style="fill:none;stroke:#ee7733;stroke-width:0.886227;"/>
   </g>
   <g id="patch_3">
    <path d="M 45.117 228.96 
L 45.117 7.2 
" style="fill:none;stroke:#000000;stroke-linecap:square;stroke-linejoin:miter;"/>
   </g>
   <g id="patch_4">
    <path d="M 45.117 228.96 
L 491.517 228.96 
" style="fill:none;stroke:#000000;stroke-linecap:square;stroke-linejoin:miter;"/>
   </g>
   <g id="PathCollection_1">
    <path clip-path="url(#pd73f36682b)" d="M 65.40791 54.544379 
C 65.87797 54.544379 66.328841 54.357622 66.661224 54.025239 
C 66.993607 53.692856 67.180364 53.241985 67.180364 52.771925 
C 67.180364 52.301865 66.993607 51.850994 66.661224 51.518611 
C 66.328841 51.186228 65.87797 50.999471 65.40791 50.999471 
C 64.93785 50.999471 64.486978 51.186228 64.154596 51.518611 
C 63.822213 51.850994 63.635456 52.301865 63.635456 52.771925 
C 63.635456 53.241985 63.822213 53.692856 64.154596 54.025239 
C 64.486978 54.357622 64.93785 54.544379 65.40791 54.544379 
z
" style="fill:#ee7733;stroke:#ee7733;stroke-width:0.886227;"/>
    <path clip-path="url(#pd73f36682b)" d="M 78.935182 55.994921 
C 79.405243 55.994921 79.856114 55.808164 80.188497 55.475782 
C 80.520879 55.143399 80.707636 54.692528 80.707636 54.222467 
C 80.707636 53.752407 80.520879 53.301536 80.188497 52.969153 
C 79.856114 52.636771 79.405243 52.450014 78.935182 52.450014 
C 78.465122 52.450014 78.014251 52.636771 77.681868 52.969153 
C 77.349486 53.301536 77.162729 53.752407 77.162729 54.222467 
C 77.162729 54.692528 77.349486 55.143399 77.681868 55.475782 
C 78.014251 55.808164 78.465122 55.994921 78.935182 55.994921 
z
" style="fill:#ee7733;stroke:#ee7733;stroke-width:0.886227;"/>
    <path clip-path="url(#pd73f36682b)" d="M 92.462455 62.739066 
C 92.932515 62.739066 93.383386 62.552309 93.715769 62.219926 
C 94.048152 61.887544 94.234909 61.436673 94.234909 60.966612 
C 94.234909 60.496552 94.048152 60.045681 93.715769 59.713298 
C 93.383386 59.380915 92.932515 59.194158 92.462455 59.194158 
C 91.992395 59.194158 91.541524 59.380915 91.209141 59.713298 
C 90.876758 60.045681 90.690001 60.496552 90.690001 60.966612 
C 90.690001 61.436673 90.876758 61.887544 91.209141 62.219926 
C 91.541524 62.552309 91.992395 62.739066 92.462455 62.739066 
z
" style="fill:#ee7733;stroke:#ee7733;stroke-width:0.886227;"/>
    <path clip-path="url(#pd73f36682b)" d="M 105.989728 63.267917 
C 106.459788 63.267917 106.910659 63.08116 107.243042 62.748777 
C 107.575425 62.416394 107.762182 61.965523 107.762182 61.495463 
C 107.762182 61.025403 107.575425 60.574532 107.243042 60.242149 
C 106.910659 59.909766 106.459788 59.723009 105.989728 59.723009 
C 105.519668 59.723009 105.068796 59.909766 104.736414 60.242149 
C 104.404031 60.574532 104.217274 61.025403 104.217274 61.495463 
C 104.217274 61.965523 104.404031 62.416394 104.736414 62.748777 
C 105.068796 63.08116 105.519668 63.267917 105.989728 63.267917 
z
" style="fill:#ee7733;stroke:#ee7733;stroke-width:0.886227;"/>
    <path clip-path="url(#pd73f36682b)" d="M 119.517 71.704694 
C 119.987061 71.704694 120.437932 71.517937 120.770315 71.185554 
C 121.102697 70.853171 121.289454 70.4023 121.289454 69.93224 
C 121.289454 69.46218 121.102697 69.011309 120.770315 68.678926 
C 120.437932 68.346543 119.987061 68.159786 119.517 68.159786 
C 119.04694 68.159786 118.596069 68.346543 118.263686 68.678926 
C 117.931304 69.011309 117.744547 69.46218 117.744547 69.93224 
C 117.744547 70.4023 117.931304 70.853171 118.263686 71.185554 
C 118.596069 71.517937 119.04694 71.704694 119.517 71.704694 
z
" style="fill:#ee7733;stroke:#ee7733;stroke-width:0.886227;"/>
    <path clip-path="url(#pd73f36682b)" d="M 133.044273 78.842743 
C 133.514333 78.842743 133.965205 78.655986 134.297587 78.323603 
C 134.62997 77.991221 134.816727 77.54035 134.816727 77.070289 
C 134.816727 76.600229 134.62997 76.149358 134.297587 75.816975 
C 133.965205 75.484592 133.514333 75.297836 133.044273 75.297836 
C 132.574213 75.297836 132.123342 75.484592 131.790959 75.816975 
C 131.458576 76.149358 131.271819 76.600229 131.271819 77.070289 
C 131.271819 77.54035 131.458576 77.991221 131.790959 78.323603 
C 132.123342 78.655986 132.574213 78.842743 133.044273 78.842743 
z
" style="fill:#ee7733;stroke:#ee7733;stroke-width:0.886227;"/>
    <path clip-path="url(#pd73f36682b)" d="M 146.571546 83.786262 
C 147.041606 83.786262 147.492477 83.599505 147.82486 83.267122 
C 148.157243 82.934739 148.344 82.483868 148.344 82.013808 
C 148.344 81.543747 148.157243 81.092876 147.82486 80.760494 
C 147.492477 80.428111 147.041606 80.241354 146.571546 80.241354 
C 146.101486 80.241354 145.650615 80.428111 145.318232 80.760494 
C 144.985849 81.092876 144.799092 81.543747 144.799092 82.013808 
C 144.799092 82.483868 144.985849 82.934739 145.318232 83.267122 
C 145.650615 83.599505 146.101486 83.786262 146.571546 83.786262 
z
" style="fill:#ee7733;stroke:#ee7733;stroke-width:0.886227;"/>
    <path clip-path="url(#pd73f36682b)" d="M 160.098819 92.340648 
C 160.568879 92.340648 161.01975 92.153891 161.352133 91.821508 
C 161.684515 91.489125 161.871272 91.038254 161.871272 90.568194 
C 161.871272 90.098134 161.684515 89.647263 161.352133 89.31488 
C 161.01975 88.982497 160.568879 88.79574 160.098819 88.79574 
C 159.628758 88.79574 159.177887 88.982497 158.845504 89.31488 
C 158.513122 89.647263 158.326365 90.098134 158.326365 90.568194 
C 158.326365 91.038254 158.513122 91.489125 158.845504 91.821508 
C 159.177887 92.153891 159.628758 92.340648 160.098819 92.340648 
z
" style="fill:#ee7733;stroke:#ee7733;stroke-width:0.886227;"/>
    <path clip-path="url(#pd73f36682b)" d="M 173.626091 95.633968 
C 174.096151 95.633968 174.547023 95.447211 174.879405 95.114829 
C 175.211788 94.782446 175.398545 94.331575 175.398545 93.861515 
C 175.398545 93.391454 175.211788 92.940583 174.879405 92.6082 
C 174.547023 92.275818 174.096151 92.089061 173.626091 92.089061 
C 173.156031 92.089061 172.70516 92.275818 172.372777 92.6082 
C 172.040394 92.940583 171.853637 93.391454 171.853637 93.861515 
C 171.853637 94.331575 172.040394 94.782446 172.372777 95.114829 
C 172.70516 95.447211 173.156031 95.633968 173.626091 95.633968 
z
" style="fill:#ee7733;stroke:#ee7733;stroke-width:0.886227;"/>
    <path clip-path="url(#pd73f36682b)" d="M 187.153364 107.591656 
C 187.623424 107.591656 188.074295 107.404899 188.406678 107.072516 
C 188.739061 106.740133 188.925818 106.289262 188.925818 105.819202 
C 188.925818 105.349142 188.739061 104.898271 188.406678 104.565888 
C 188.074295 104.233505 187.623424 104.046748 187.153364 104.046748 
C 186.683304 104.046748 186.232433 104.233505 185.90005 104.565888 
C 185.567667 104.898271 185.38091 105.349142 185.38091 105.819202 
C 185.38091 106.289262 185.567667 106.740133 185.90005 107.072516 
C 186.232433 107.404899 186.683304 107.591656 187.153364 107.591656 
z
" style="fill:#ee7733;stroke:#ee7733;stroke-width:0.886227;"/>
    <path clip-path="url(#pd73f36682b)" d="M 200.680637 117.104673 
C 201.150697 117.104673 201.601568 116.917916 201.933951 116.585533 
C 202.266334 116.253151 202.45309 115.802279 202.45309 115.332219 
C 202.45309 114.862159 202.266334 114.411288 201.933951 114.078905 
C 201.601568 113.746522 201.150697 113.559765 200.680637 113.559765 
C 200.210576 113.559765 199.759705 113.746522 199.427322 114.078905 
C 199.09494 114.411288 198.908183 114.862159 198.908183 115.332219 
C 198.908183 115.802279 199.09494 116.253151 199.427322 116.585533 
C 199.759705 116.917916 200.210576 117.104673 200.680637 117.104673 
z
" style="fill:#ee7733;stroke:#ee7733;stroke-width:0.886227;"/>
    <path clip-path="url(#pd73f36682b)" d="M 214.207909 124.418252 
C 214.67797 124.418252 215.128841 124.231495 215.461223 123.899112 
C 215.793606 123.566729 215.980363 123.115858 215.980363 122.645798 
C 215.980363 122.175738 215.793606 121.724867 215.461223 121.392484 
C 215.128841 121.060101 214.67797 120.873344 214.207909 120.873344 
C 213.737849 120.873344 213.286978 121.060101 212.954595 121.392484 
C 212.622212 121.724867 212.435455 122.175738 212.435455 122.645798 
C 212.435455 123.115858 212.622212 123.566729 212.954595 123.899112 
C 213.286978 124.231495 213.737849 124.418252 214.207909 124.418252 
z
" style="fill:#ee7733;stroke:#ee7733;stroke-width:0.886227;"/>
    <path clip-path="url(#pd73f36682b)" d="M 227.735182 130.384695 
C 228.205242 130.384695 228.656113 130.197938 228.988496 129.865555 
C 229.320879 129.533172 229.507636 129.082301 229.507636 128.612241 
C 229.507636 128.14218 229.320879 127.691309 228.988496 127.358927 
C 228.656113 127.026544 228.205242 126.839787 227.735182 126.839787 
C 227.265122 126.839787 226.814251 127.026544 226.481868 127.358927 
C 226.149485 127.691309 225.962728 128.14218 225.962728 128.612241 
C 225.962728 129.082301 226.149485 129.533172 226.481868 129.865555 
C 226.814251 130.197938 227.265122 130.384695 227.735182 130.384695 
z
" style="fill:#ee7733;stroke:#ee7733;stroke-width:0.886227;"/>
    <path clip-path="url(#pd73f36682b)" d="M 241.262455 141.782558 
C 241.732515 141.782558 242.183386 141.595801 242.515769 141.263419 
C 242.848152 140.931036 243.034908 140.480165 243.034908 140.010104 
C 243.034908 139.540044 242.848152 139.089173 242.515769 138.75679 
C 242.183386 138.424408 241.732515 138.237651 241.262455 138.237651 
C 240.792394 138.237651 240.341523 138.424408 240.00914 138.75679 
C 239.676758 139.089173 239.490001 139.540044 239.490001 140.010104 
C 239.490001 140.480165 239.676758 140.931036 240.00914 141.263419 
C 240.341523 141.595801 240.792394 141.782558 241.262455 141.782558 
z
" style="fill:#ee7733;stroke:#ee7733;stroke-width:0.886227;"/>
    <path clip-path="url(#pd73f36682b)" d="M 254.789727 142.310044 
C 255.259788 142.310044 255.710659 142.123287 256.043041 141.790905 
C 256.375424 141.458522 256.562181 141.007651 256.562181 140.53759 
C 256.562181 140.06753 256.375424 139.616659 256.043041 139.284276 
C 255.710659 138.951893 255.259788 138.765137 254.789727 138.765137 
C 254.319667 138.765137 253.868796 138.951893 253.536413 139.284276 
C 253.20403 139.616659 253.017273 140.06753 253.017273 140.53759 
C 253.017273 141.007651 253.20403 141.458522 253.536413 141.790905 
C 253.868796 142.123287 254.319667 142.310044 254.789727 142.310044 
z
" style="fill:#ee7733;stroke:#ee7733;stroke-width:0.886227;"/>
    <path clip-path="url(#pd73f36682b)" d="M 268.317 151.540206 
C 268.78706 151.540206 269.237931 151.353449 269.570314 151.021066 
C 269.902697 150.688684 270.089454 150.237813 270.089454 149.767752 
C 270.089454 149.297692 269.902697 148.846821 269.570314 148.514438 
C 269.237931 148.182055 268.78706 147.995299 268.317 147.995299 
C 267.84694 147.995299 267.396069 148.182055 267.063686 148.514438 
C 266.731303 148.846821 266.544546 149.297692 266.544546 149.767752 
C 266.544546 150.237813 266.731303 150.688684 267.063686 151.021066 
C 267.396069 151.353449 267.84694 151.540206 268.317 151.540206 
z
" style="fill:#ee7733;stroke:#ee7733;stroke-width:0.886227;"/>
    <path clip-path="url(#pd73f36682b)" d="M 281.844273 149.671533 
C 282.314333 149.671533 282.765204 149.484776 283.097587 149.152394 
C 283.42997 148.820011 283.616727 148.36914 283.616727 147.899079 
C 283.616727 147.429019 283.42997 146.978148 283.097587 146.645765 
C 282.765204 146.313383 282.314333 146.126626 281.844273 146.126626 
C 281.374212 146.126626 280.923341 146.313383 280.590959 146.645765 
C 280.258576 146.978148 280.071819 147.429019 280.071819 147.899079 
C 280.071819 148.36914 280.258576 148.820011 280.590959 149.152394 
C 280.923341 149.484776 281.374212 149.671533 281.844273 149.671533 
z
" style="fill:#ee7733;stroke:#ee7733;stroke-width:0.886227;"/>
    <path clip-path="url(#pd73f36682b)" d="M 295.371545 156.031949 
C 295.841606 156.031949 296.292477 155.845192 296.62486 155.512809 
C 296.957242 155.180426 297.143999 154.729555 297.143999 154.259495 
C 297.143999 153.789435 296.957242 153.338564 296.62486 153.006181 
C 296.292477 152.673798 295.841606 152.487041 295.371545 152.487041 
C 294.901485 152.487041 294.450614 152.673798 294.118231 153.006181 
C 293.785848 153.338564 293.599092 153.789435 293.599092 154.259495 
C 293.599092 154.729555 293.785848 155.180426 294.118231 155.512809 
C 294.450614 155.845192 294.901485 156.031949 295.371545 156.031949 
z
" style="fill:#ee7733;stroke:#ee7733;stroke-width:0.886227;"/>
    <path clip-path="url(#pd73f36682b)" d="M 308.898818 158.06236 
C 309.368878 158.06236 309.819749 157.875603 310.152132 157.54322 
C 310.484515 157.210838 310.671272 156.759967 310.671272 156.289906 
C 310.671272 155.819846 310.484515 155.368975 310.152132 155.036592 
C 309.819749 154.704209 309.368878 154.517452 308.898818 154.517452 
C 308.428758 154.517452 307.977887 154.704209 307.645504 155.036592 
C 307.313121 155.368975 307.126364 155.819846 307.126364 156.289906 
C 307.126364 156.759967 307.313121 157.210838 307.645504 157.54322 
C 307.977887 157.875603 308.428758 158.06236 308.898818 158.06236 
z
" style="fill:#ee7733;stroke:#ee7733;stroke-width:0.886227;"/>
    <path clip-path="url(#pd73f36682b)" d="M 322.426091 162.646781 
C 322.896151 162.646781 323.347022 162.460024 323.679405 162.127641 
C 324.011788 161.795259 324.198545 161.344388 324.198545 160.874327 
C 324.198545 160.404267 324.011788 159.953396 323.679405 159.621013 
C 323.347022 159.28863 322.896151 159.101873 322.426091 159.101873 
C 321.95603 159.101873 321.505159 159.28863 321.172777 159.621013 
C 320.840394 159.953396 320.653637 160.404267 320.653637 160.874327 
C 320.653637 161.344388 320.840394 161.795259 321.172777 162.127641 
C 321.505159 162.460024 321.95603 162.646781 322.426091 162.646781 
z
" style="fill:#ee7733;stroke:#ee7733;stroke-width:0.886227;"/>
    <path clip-path="url(#pd73f36682b)" d="M 335.953363 156.806385 
C 336.423424 156.806385 336.874295 156.619628 337.206678 156.287245 
C 337.53906 155.954862 337.725817 155.503991 337.725817 155.033931 
C 337.725817 154.563871 337.53906 154.113 337.206678 153.780617 
C 336.874295 153.448234 336.423424 153.261477 335.953363 153.261477 
C 335.483303 153.261477 335.032432 153.448234 334.700049 153.780617 
C 334.367666 154.113 334.18091 154.563871 334.18091 155.033931 
C 334.18091 155.503991 334.367666 155.954862 334.700049 156.287245 
C 335.032432 156.619628 335.483303 156.806385 335.953363 156.806385 
z
" style="fill:#ee7733;stroke:#ee7733;stroke-width:0.886227;"/>
    <path clip-path="url(#pd73f36682b)" d="M 349.480636 155.598942 
C 349.950696 155.598942 350.401567 155.412185 350.73395 155.079802 
C 351.066333 154.747419 351.25309 154.296548 351.25309 153.826488 
C 351.25309 153.356428 351.066333 152.905557 350.73395 152.573174 
C 350.401567 152.240791 349.950696 152.054034 349.480636 152.054034 
C 349.010576 152.054034 348.559705 152.240791 348.227322 152.573174 
C 347.894939 152.905557 347.708182 153.356428 347.708182 153.826488 
C 347.708182 154.296548 347.894939 154.747419 348.227322 155.079802 
C 348.559705 155.412185 349.010576 155.598942 349.480636 155.598942 
z
" style="fill:#ee7733;stroke:#ee7733;stroke-width:0.886227;"/>
    <path clip-path="url(#pd73f36682b)" d="M 363.007909 162.223098 
C 363.477969 162.223098 363.92884 162.036341 364.261223 161.703958 
C 364.593606 161.371576 364.780363 160.920705 364.780363 160.450644 
C 364.780363 159.980584 364.593606 159.529713 364.261223 159.19733 
C 363.92884 158.864947 363.477969 158.67819 363.007909 158.67819 
C 362.537849 158.67819 362.086977 158.864947 361.754595 159.19733 
C 361.422212 159.529713 361.235455 159.980584 361.235455 160.450644 
C 361.235455 160.920705 361.422212 161.371576 361.754595 161.703958 
C 362.086977 162.036341 362.537849 162.223098 363.007909 162.223098 
z
" style="fill:#ee7733;stroke:#ee7733;stroke-width:0.886227;"/>
    <path clip-path="url(#pd73f36682b)" d="M 376.535181 167.77173 
C 377.005242 167.77173 377.456113 167.584974 377.788496 167.252591 
C 378.120878 166.920208 378.307635 166.469337 378.307635 165.999277 
C 378.307635 165.529216 378.120878 165.078345 377.788496 164.745963 
C 377.456113 164.41358 377.005242 164.226823 376.535181 164.226823 
C 376.065121 164.226823 375.61425 164.41358 375.281867 164.745963 
C 374.949485 165.078345 374.762728 165.529216 374.762728 165.999277 
C 374.762728 166.469337 374.949485 166.920208 375.281867 167.252591 
C 375.61425 167.584974 376.065121 167.77173 376.535181 167.77173 
z
" style="fill:#ee7733;stroke:#ee7733;stroke-width:0.886227;"/>
    <path clip-path="url(#pd73f36682b)" d="M 390.062454 176.398811 
C 390.532514 176.398811 390.983385 176.212054 391.315768 175.879671 
C 391.648151 175.547288 391.834908 175.096417 391.834908 174.626357 
C 391.834908 174.156297 391.648151 173.705426 391.315768 173.373043 
C 390.983385 173.04066 390.532514 172.853903 390.062454 172.853903 
C 389.592394 172.853903 389.141523 173.04066 388.80914 173.373043 
C 388.476757 173.705426 388.29 174.156297 388.29 174.626357 
C 388.29 175.096417 388.476757 175.547288 388.80914 175.879671 
C 389.141523 176.212054 389.592394 176.398811 390.062454 176.398811 
z
" style="fill:#ee7733;stroke:#ee7733;stroke-width:0.886227;"/>
    <path clip-path="url(#pd73f36682b)" d="M 403.589727 171.206421 
C 404.059787 171.206421 404.510658 171.019664 404.843041 170.687282 
C 405.175424 170.354899 405.362181 169.904028 405.362181 169.433967 
C 405.362181 168.963907 405.175424 168.513036 404.843041 168.180653 
C 404.510658 167.848271 404.059787 167.661514 403.589727 167.661514 
C 403.119667 167.661514 402.668795 167.848271 402.336413 168.180653 
C 402.00403 168.513036 401.817273 168.963907 401.817273 169.433967 
C 401.817273 169.904028 402.00403 170.354899 402.336413 170.687282 
C 402.668795 171.019664 403.119667 171.206421 403.589727 171.206421 
z
" style="fill:#ee7733;stroke:#ee7733;stroke-width:0.886227;"/>
    <path clip-path="url(#pd73f36682b)" d="M 417.117 168.469669 
C 417.58706 168.469669 418.037931 168.282912 418.370314 167.950529 
C 418.702696 167.618146 418.889453 167.167275 418.889453 166.697215 
C 418.889453 166.227155 418.702696 165.776284 418.370314 165.443901 
C 418.037931 165.111518 417.58706 164.924761 417.117 164.924761 
C 416.646939 164.924761 416.196068 165.111518 415.863685 165.443901 
C 415.531303 165.776284 415.344546 166.227155 415.344546 166.697215 
C 415.344546 167.167275 415.531303 167.618146 415.863685 167.950529 
C 416.196068 168.282912 416.646939 168.469669 417.117 168.469669 
z
" style="fill:#ee7733;stroke:#ee7733;stroke-width:0.886227;"/>
    <path clip-path="url(#pd73f36682b)" d="M 430.644272 174.595514 
C 431.114332 174.595514 431.565204 174.408757 431.897586 174.076374 
C 432.229969 173.743992 432.416726 173.29312 432.416726 172.82306 
C 432.416726 172.353 432.229969 171.902129 431.897586 171.569746 
C 431.565204 171.237363 431.114332 171.050606 430.644272 171.050606 
C 430.174212 171.050606 429.723341 171.237363 429.390958 171.569746 
C 429.058575 171.902129 428.871818 172.353 428.871818 172.82306 
C 428.871818 173.29312 429.058575 173.743992 429.390958 174.076374 
C 429.723341 174.408757 430.174212 174.595514 430.644272 174.595514 
z
" style="fill:#ee7733;stroke:#ee7733;stroke-width:0.886227;"/>
    <path clip-path="url(#pd73f36682b)" d="M 444.171545 176.416564 
C 444.641605 176.416564 445.092476 176.229807 445.424859 175.897425 
C 445.757242 175.565042 445.943999 175.114171 445.943999 174.64411 
C 445.943999 174.17405 445.757242 173.723179 445.424859 173.390796 
C 445.092476 173.058414 444.641605 172.871657 444.171545 172.871657 
C 443.701485 172.871657 443.250614 173.058414 442.918231 173.390796 
C 442.585848 173.723179 442.399091 174.17405 442.399091 174.64411 
C 442.399091 175.114171 442.585848 175.565042 442.918231 175.897425 
C 443.250614 176.229807 443.701485 176.416564 444.171545 176.416564 
z
" style="fill:#ee7733;stroke:#ee7733;stroke-width:0.886227;"/>
    <path clip-path="url(#pd73f36682b)" d="M 457.698818 181.603273 
C 458.168878 181.603273 458.619749 181.416516 458.952132 181.084134 
C 459.284514 180.751751 459.471271 180.30088 459.471271 179.830819 
C 459.471271 179.360759 459.284514 178.909888 458.952132 178.577505 
C 458.619749 178.245122 458.168878 178.058366 457.698818 178.058366 
C 457.228757 178.058366 456.777886 178.245122 456.445503 178.577505 
C 456.113121 178.909888 455.926364 179.360759 455.926364 179.830819 
C 455.926364 180.30088 456.113121 180.751751 456.445503 181.084134 
C 456.777886 181.416516 457.228757 181.603273 457.698818 181.603273 
z
" style="fill:#ee7733;stroke:#ee7733;stroke-width:0.886227;"/>
    <path clip-path="url(#pd73f36682b)" d="M 471.22609 175.564625 
C 471.69615 175.564625 472.147022 175.377868 472.479404 175.045485 
C 472.811787 174.713103 472.998544 174.262232 472.998544 173.792171 
C 472.998544 173.322111 472.811787 172.87124 472.479404 172.538857 
C 472.147022 172.206474 471.69615 172.019717 471.22609 172.019717 
C 470.75603 172.019717 470.305159 172.206474 469.972776 172.538857 
C 469.640393 172.87124 469.453636 173.322111 469.453636 173.792171 
C 469.453636 174.262232 469.640393 174.713103 469.972776 175.045485 
C 470.305159 175.377868 470.75603 175.564625 471.22609 175.564625 
z
" style="fill:#ee7733;stroke:#ee7733;stroke-width:0.886227;"/>
   </g>
  </g>
 </g>
 <defs>
  <clipPath id="pd73f36682b">
   <rect height="221.76" width="446.4" x="45.117" y="7.2"/>
  </clipPath>
 </defs>
</svg>
