<?xml version="1.0" encoding="utf-8" standalone="no"?>
<!DOCTYPE svg PUBLIC "-//W3C//DTD SVG 1.1//EN"
  "http://www.w3.org/Graphics/SVG/1.1/DTD/svg11.dtd">
<!-- Created with matplotlib (https://matplotlib.org/) -->
<svg height="274.544375pt" version="1.1" viewBox="0 0 513.9925 274.544375" width="513.9925pt" xmlns="http://www.w3.org/2000/svg" xmlns:xlink="http://www.w3.org/1999/xlink">
 <defs>
  <style type="text/css">
*{stroke-linecap:butt;stroke-linejoin:round;}
  </style>
 </defs>
 <g id="figure_1">
  <g id="patch_1">
   <path d="M 0 274.544375 
L 513.9925 274.544375 
L 513.9925 0 
L 0 0 
z
" style="fill:#ffffff;stroke:#ffffff;stroke-linejoin:miter;"/>
  </g>
  <g id="axes_1">
   <g id="patch_2">
    <path d="M 60.3925 228.96 
L 506.7925 228.96 
L 506.7925 7.2 
L 60.3925 7.2 
z
" style="fill:#ffffff;"/>
   </g>
   <g id="matplotlib.axis_1">
    <g id="xtick_1">
     <g id="line2d_1">
      <path d="M 80.683409 228.96 
" style="fill:none;stroke:#000000;stroke-width:1.5;"/>
      <defs>
       <path d="M 0 0 
L 0 2.75 
" id="m7a0f0f778c" style="stroke:#000000;"/>
      </defs>
      <g>
       <use style="stroke:#000000;" x="80.683409" xlink:href="#m7a0f0f778c" y="228.96"/>
      </g>
     </g>
     <g id="text_1">
      <!-- 1970 -->
      <defs>
       <path d="M 12.40625 8.296875 
L 28.515625 8.296875 
L 28.515625 63.921875 
L 10.984375 60.40625 
L 10.984375 69.390625 
L 28.421875 72.90625 
L 38.28125 72.90625 
L 38.28125 8.296875 
L 54.390625 8.296875 
L 54.390625 0 
L 12.40625 0 
z
" id="DejaVuSans-49"/>
       <path d="M 10.984375 1.515625 
L 10.984375 10.5 
Q 14.703125 8.734375 18.5 7.8125 
Q 22.3125 6.890625 25.984375 6.890625 
Q 35.75 6.890625 40.890625 13.453125 
Q 46.046875 20.015625 46.78125 33.40625 
Q 43.953125 29.203125 39.59375 26.953125 
Q 35.25 24.703125 29.984375 24.703125 
Q 19.046875 24.703125 12.671875 31.3125 
Q 6.296875 37.9375 6.296875 49.421875 
Q 6.296875 60.640625 12.9375 67.421875 
Q 19.578125 74.21875 30.609375 74.21875 
Q 43.265625 74.21875 49.921875 64.515625 
Q 56.59375 54.828125 56.59375 36.375 
Q 56.59375 19.140625 48.40625 8.859375 
Q 40.234375 -1.421875 26.421875 -1.421875 
Q 22.703125 -1.421875 18.890625 -0.6875 
Q 15.09375 0.046875 10.984375 1.515625 
z
M 30.609375 32.421875 
Q 37.25 32.421875 41.125 36.953125 
Q 45.015625 41.5 45.015625 49.421875 
Q 45.015625 57.28125 41.125 61.84375 
Q 37.25 66.40625 30.609375 66.40625 
Q 23.96875 66.40625 20.09375 61.84375 
Q 16.21875 57.28125 16.21875 49.421875 
Q 16.21875 41.5 20.09375 36.953125 
Q 23.96875 32.421875 30.609375 32.421875 
z
" id="DejaVuSans-57"/>
       <path d="M 8.203125 72.90625 
L 55.078125 72.90625 
L 55.078125 68.703125 
L 28.609375 0 
L 18.3125 0 
L 43.21875 64.59375 
L 8.203125 64.59375 
z
" id="DejaVuSans-55"/>
       <path d="M 31.78125 66.40625 
Q 24.171875 66.40625 20.328125 58.90625 
Q 16.5 51.421875 16.5 36.375 
Q 16.5 21.390625 20.328125 13.890625 
Q 24.171875 6.390625 31.78125 6.390625 
Q 39.453125 6.390625 43.28125 13.890625 
Q 47.125 21.390625 47.125 36.375 
Q 47.125 51.421875 43.28125 58.90625 
Q 39.453125 66.40625 31.78125 66.40625 
z
M 31.78125 74.21875 
Q 44.046875 74.21875 50.515625 64.515625 
Q 56.984375 54.828125 56.984375 36.375 
Q 56.984375 17.96875 50.515625 8.265625 
Q 44.046875 -1.421875 31.78125 -1.421875 
Q 19.53125 -1.421875 13.0625 8.265625 
Q 6.59375 17.96875 6.59375 36.375 
Q 6.59375 54.828125 13.0625 64.515625 
Q 19.53125 74.21875 31.78125 74.21875 
z
" id="DejaVuSans-48"/>
      </defs>
      <g transform="translate(62.868409 244.547813)scale(0.14 -0.14)">
       <use xlink:href="#DejaVuSans-49"/>
       <use x="63.623047" xlink:href="#DejaVuSans-57"/>
       <use x="127.246094" xlink:href="#DejaVuSans-55"/>
       <use x="190.869141" xlink:href="#DejaVuSans-48"/>
      </g>
     </g>
    </g>
    <g id="xtick_2">
     <g id="line2d_2">
      <path d="M 161.847045 228.96 
" style="fill:none;stroke:#000000;stroke-width:1.5;"/>
      <g>
       <use style="stroke:#000000;" x="161.847045" xlink:href="#m7a0f0f778c" y="228.96"/>
      </g>
     </g>
     <g id="text_2">
      <!-- 1980 -->
      <defs>
       <path d="M 31.78125 34.625 
Q 24.75 34.625 20.71875 30.859375 
Q 16.703125 27.09375 16.703125 20.515625 
Q 16.703125 13.921875 20.71875 10.15625 
Q 24.75 6.390625 31.78125 6.390625 
Q 38.8125 6.390625 42.859375 10.171875 
Q 46.921875 13.96875 46.921875 20.515625 
Q 46.921875 27.09375 42.890625 30.859375 
Q 38.875 34.625 31.78125 34.625 
z
M 21.921875 38.8125 
Q 15.578125 40.375 12.03125 44.71875 
Q 8.5 49.078125 8.5 55.328125 
Q 8.5 64.0625 14.71875 69.140625 
Q 20.953125 74.21875 31.78125 74.21875 
Q 42.671875 74.21875 48.875 69.140625 
Q 55.078125 64.0625 55.078125 55.328125 
Q 55.078125 49.078125 51.53125 44.71875 
Q 48 40.375 41.703125 38.8125 
Q 48.828125 37.15625 52.796875 32.3125 
Q 56.78125 27.484375 56.78125 20.515625 
Q 56.78125 9.90625 50.3125 4.234375 
Q 43.84375 -1.421875 31.78125 -1.421875 
Q 19.734375 -1.421875 13.25 4.234375 
Q 6.78125 9.90625 6.78125 20.515625 
Q 6.78125 27.484375 10.78125 32.3125 
Q 14.796875 37.15625 21.921875 38.8125 
z
M 18.3125 54.390625 
Q 18.3125 48.734375 21.84375 45.5625 
Q 25.390625 42.390625 31.78125 42.390625 
Q 38.140625 42.390625 41.71875 45.5625 
Q 45.3125 48.734375 45.3125 54.390625 
Q 45.3125 60.0625 41.71875 63.234375 
Q 38.140625 66.40625 31.78125 66.40625 
Q 25.390625 66.40625 21.84375 63.234375 
Q 18.3125 60.0625 18.3125 54.390625 
z
" id="DejaVuSans-56"/>
      </defs>
      <g transform="translate(144.032045 244.547813)scale(0.14 -0.14)">
       <use xlink:href="#DejaVuSans-49"/>
       <use x="63.623047" xlink:href="#DejaVuSans-57"/>
       <use x="127.246094" xlink:href="#DejaVuSans-56"/>
       <use x="190.869141" xlink:href="#DejaVuSans-48"/>
      </g>
     </g>
    </g>
    <g id="xtick_3">
     <g id="line2d_3">
      <path d="M 243.010682 228.96 
" style="fill:none;stroke:#000000;stroke-width:1.5;"/>
      <g>
       <use style="stroke:#000000;" x="243.010682" xlink:href="#m7a0f0f778c" y="228.96"/>
      </g>
     </g>
     <g id="text_3">
      <!-- 1990 -->
      <g transform="translate(225.195682 244.547813)scale(0.14 -0.14)">
       <use xlink:href="#DejaVuSans-49"/>
       <use x="63.623047" xlink:href="#DejaVuSans-57"/>
       <use x="127.246094" xlink:href="#DejaVuSans-57"/>
       <use x="190.869141" xlink:href="#DejaVuSans-48"/>
      </g>
     </g>
    </g>
    <g id="xtick_4">
     <g id="line2d_4">
      <path d="M 324.174318 228.96 
" style="fill:none;stroke:#000000;stroke-width:1.5;"/>
      <g>
       <use style="stroke:#000000;" x="324.174318" xlink:href="#m7a0f0f778c" y="228.96"/>
      </g>
     </g>
     <g id="text_4">
      <!-- 2000 -->
      <defs>
       <path d="M 19.1875 8.296875 
L 53.609375 8.296875 
L 53.609375 0 
L 7.328125 0 
L 7.328125 8.296875 
Q 12.9375 14.109375 22.625 23.890625 
Q 32.328125 33.6875 34.8125 36.53125 
Q 39.546875 41.84375 41.421875 45.53125 
Q 43.3125 49.21875 43.3125 52.78125 
Q 43.3125 58.59375 39.234375 62.25 
Q 35.15625 65.921875 28.609375 65.921875 
Q 23.96875 65.921875 18.8125 64.3125 
Q 13.671875 62.703125 7.8125 59.421875 
L 7.8125 69.390625 
Q 13.765625 71.78125 18.9375 73 
Q 24.125 74.21875 28.421875 74.21875 
Q 39.75 74.21875 46.484375 68.546875 
Q 53.21875 62.890625 53.21875 53.421875 
Q 53.21875 48.921875 51.53125 44.890625 
Q 49.859375 40.875 45.40625 35.40625 
Q 44.1875 33.984375 37.640625 27.21875 
Q 31.109375 20.453125 19.1875 8.296875 
z
" id="DejaVuSans-50"/>
      </defs>
      <g transform="translate(306.359318 244.547813)scale(0.14 -0.14)">
       <use xlink:href="#DejaVuSans-50"/>
       <use x="63.623047" xlink:href="#DejaVuSans-48"/>
       <use x="127.246094" xlink:href="#DejaVuSans-48"/>
       <use x="190.869141" xlink:href="#DejaVuSans-48"/>
      </g>
     </g>
    </g>
    <g id="xtick_5">
     <g id="line2d_5">
      <path d="M 405.337955 228.96 
" style="fill:none;stroke:#000000;stroke-width:1.5;"/>
      <g>
       <use style="stroke:#000000;" x="405.337955" xlink:href="#m7a0f0f778c" y="228.96"/>
      </g>
     </g>
     <g id="text_5">
      <!-- 2010 -->
      <g transform="translate(387.522955 244.547813)scale(0.14 -0.14)">
       <use xlink:href="#DejaVuSans-50"/>
       <use x="63.623047" xlink:href="#DejaVuSans-48"/>
       <use x="127.246094" xlink:href="#DejaVuSans-49"/>
       <use x="190.869141" xlink:href="#DejaVuSans-48"/>
      </g>
     </g>
    </g>
    <g id="xtick_6">
     <g id="line2d_6">
      <path d="M 486.501591 228.96 
" style="fill:none;stroke:#000000;stroke-width:1.5;"/>
      <g>
       <use style="stroke:#000000;" x="486.501591" xlink:href="#m7a0f0f778c" y="228.96"/>
      </g>
     </g>
     <g id="text_6">
      <!-- 2020 -->
      <g transform="translate(468.686591 244.547813)scale(0.14 -0.14)">
       <use xlink:href="#DejaVuSans-50"/>
       <use x="63.623047" xlink:href="#DejaVuSans-48"/>
       <use x="127.246094" xlink:href="#DejaVuSans-50"/>
       <use x="190.869141" xlink:href="#DejaVuSans-48"/>
      </g>
     </g>
    </g>
    <g id="xtick_7">
     <g id="line2d_7">
      <path d="M 121.265227 228.96 
" style="fill:none;stroke:#000000;stroke-width:1.5;"/>
      <defs>
       <path d="M 0 0 
L 0 1.375 
" id="mc6a40d04b6" style="stroke:#000000;"/>
      </defs>
      <g>
       <use style="stroke:#000000;" x="121.265227" xlink:href="#mc6a40d04b6" y="228.96"/>
      </g>
     </g>
    </g>
    <g id="xtick_8">
     <g id="line2d_8">
      <path d="M 202.428864 228.96 
" style="fill:none;stroke:#000000;stroke-width:1.5;"/>
      <g>
       <use style="stroke:#000000;" x="202.428864" xlink:href="#mc6a40d04b6" y="228.96"/>
      </g>
     </g>
    </g>
    <g id="xtick_9">
     <g id="line2d_9">
      <path d="M 283.5925 228.96 
" style="fill:none;stroke:#000000;stroke-width:1.5;"/>
      <g>
       <use style="stroke:#000000;" x="283.5925" xlink:href="#mc6a40d04b6" y="228.96"/>
      </g>
     </g>
    </g>
    <g id="xtick_10">
     <g id="line2d_10">
      <path d="M 364.756136 228.96 
" style="fill:none;stroke:#000000;stroke-width:1.5;"/>
      <g>
       <use style="stroke:#000000;" x="364.756136" xlink:href="#mc6a40d04b6" y="228.96"/>
      </g>
     </g>
    </g>
    <g id="xtick_11">
     <g id="line2d_11">
      <path d="M 445.919773 228.96 
" style="fill:none;stroke:#000000;stroke-width:1.5;"/>
      <g>
       <use style="stroke:#000000;" x="445.919773" xlink:href="#mc6a40d04b6" y="228.96"/>
      </g>
     </g>
    </g>
    <g id="text_7">
     <!-- Year -->
     <defs>
      <path d="M -0.203125 72.90625 
L 10.40625 72.90625 
L 30.609375 42.921875 
L 50.6875 72.90625 
L 61.28125 72.90625 
L 35.5 34.71875 
L 35.5 0 
L 25.59375 0 
L 25.59375 34.71875 
z
" id="DejaVuSans-89"/>
      <path d="M 56.203125 29.59375 
L 56.203125 25.203125 
L 14.890625 25.203125 
Q 15.484375 15.921875 20.484375 11.0625 
Q 25.484375 6.203125 34.421875 6.203125 
Q 39.59375 6.203125 44.453125 7.46875 
Q 49.3125 8.734375 54.109375 11.28125 
L 54.109375 2.78125 
Q 49.265625 0.734375 44.1875 -0.34375 
Q 39.109375 -1.421875 33.890625 -1.421875 
Q 20.796875 -1.421875 13.15625 6.1875 
Q 5.515625 13.8125 5.515625 26.8125 
Q 5.515625 40.234375 12.765625 48.109375 
Q 20.015625 56 32.328125 56 
Q 43.359375 56 49.78125 48.890625 
Q 56.203125 41.796875 56.203125 29.59375 
z
M 47.21875 32.234375 
Q 47.125 39.59375 43.09375 43.984375 
Q 39.0625 48.390625 32.421875 48.390625 
Q 24.90625 48.390625 20.390625 44.140625 
Q 15.875 39.890625 15.1875 32.171875 
z
" id="DejaVuSans-101"/>
      <path d="M 34.28125 27.484375 
Q 23.390625 27.484375 19.1875 25 
Q 14.984375 22.515625 14.984375 16.5 
Q 14.984375 11.71875 18.140625 8.90625 
Q 21.296875 6.109375 26.703125 6.109375 
Q 34.1875 6.109375 38.703125 11.40625 
Q 43.21875 16.703125 43.21875 25.484375 
L 43.21875 27.484375 
z
M 52.203125 31.203125 
L 52.203125 0 
L 43.21875 0 
L 43.21875 8.296875 
Q 40.140625 3.328125 35.546875 0.953125 
Q 30.953125 -1.421875 24.3125 -1.421875 
Q 15.921875 -1.421875 10.953125 3.296875 
Q 6 8.015625 6 15.921875 
Q 6 25.140625 12.171875 29.828125 
Q 18.359375 34.515625 30.609375 34.515625 
L 43.21875 34.515625 
L 43.21875 35.40625 
Q 43.21875 41.609375 39.140625 45 
Q 35.0625 48.390625 27.6875 48.390625 
Q 23 48.390625 18.546875 47.265625 
Q 14.109375 46.140625 10.015625 43.890625 
L 10.015625 52.203125 
Q 14.9375 54.109375 19.578125 55.046875 
Q 24.21875 56 28.609375 56 
Q 40.484375 56 46.34375 49.84375 
Q 52.203125 43.703125 52.203125 31.203125 
z
" id="DejaVuSans-97"/>
      <path d="M 41.109375 46.296875 
Q 39.59375 47.171875 37.8125 47.578125 
Q 36.03125 48 33.890625 48 
Q 26.265625 48 22.1875 43.046875 
Q 18.109375 38.09375 18.109375 28.8125 
L 18.109375 0 
L 9.078125 0 
L 9.078125 54.6875 
L 18.109375 54.6875 
L 18.109375 46.1875 
Q 20.953125 51.171875 25.484375 53.578125 
Q 30.03125 56 36.53125 56 
Q 37.453125 56 38.578125 55.875 
Q 39.703125 55.765625 41.0625 55.515625 
z
" id="DejaVuSans-114"/>
     </defs>
     <g transform="translate(258.40875 264.016875)scale(0.16 -0.16)">
      <use xlink:href="#DejaVuSans-89"/>
      <use x="60.880859" xlink:href="#DejaVuSans-101"/>
      <use x="122.404297" xlink:href="#DejaVuSans-97"/>
      <use x="183.683594" xlink:href="#DejaVuSans-114"/>
     </g>
    </g>
   </g>
   <g id="matplotlib.axis_2">
    <g id="ytick_1">
     <g id="line2d_12">
      <path d="M 60.3925 218.88 
" style="fill:none;stroke:#000000;stroke-width:1.5;"/>
      <defs>
       <path d="M 0 0 
L -2.75 0 
" id="me55bd2eb5c" style="stroke:#000000;"/>
      </defs>
      <g>
       <use style="stroke:#000000;" x="60.3925" xlink:href="#me55bd2eb5c" y="218.88"/>
      </g>
     </g>
     <g id="text_8">
      <!-- 0 -->
      <g transform="translate(46.535 222.743125)scale(0.14 -0.14)">
       <use xlink:href="#DejaVuSans-48"/>
      </g>
     </g>
    </g>
    <g id="ytick_2">
     <g id="line2d_13">
      <path d="M 60.3925 168.48 
" style="fill:none;stroke:#000000;stroke-width:1.5;"/>
      <g>
       <use style="stroke:#000000;" x="60.3925" xlink:href="#me55bd2eb5c" y="168.48"/>
      </g>
     </g>
     <g id="text_9">
      <!-- 25 -->
      <defs>
       <path d="M 10.796875 72.90625 
L 49.515625 72.90625 
L 49.515625 64.59375 
L 19.828125 64.59375 
L 19.828125 46.734375 
Q 21.96875 47.46875 24.109375 47.828125 
Q 26.265625 48.1875 28.421875 48.1875 
Q 40.625 48.1875 47.75 41.5 
Q 54.890625 34.8125 54.890625 23.390625 
Q 54.890625 11.625 47.5625 5.09375 
Q 40.234375 -1.421875 26.90625 -1.421875 
Q 22.3125 -1.421875 17.546875 -0.640625 
Q 12.796875 0.140625 7.71875 1.703125 
L 7.71875 11.625 
Q 12.109375 9.234375 16.796875 8.0625 
Q 21.484375 6.890625 26.703125 6.890625 
Q 35.15625 6.890625 40.078125 11.328125 
Q 45.015625 15.765625 45.015625 23.390625 
Q 45.015625 31 40.078125 35.4375 
Q 35.15625 39.890625 26.703125 39.890625 
Q 22.75 39.890625 18.8125 39.015625 
Q 14.890625 38.140625 10.796875 36.28125 
z
" id="DejaVuSans-53"/>
      </defs>
      <g transform="translate(37.6275 172.343125)scale(0.14 -0.14)">
       <use xlink:href="#DejaVuSans-50"/>
       <use x="63.623047" xlink:href="#DejaVuSans-53"/>
      </g>
     </g>
    </g>
    <g id="ytick_3">
     <g id="line2d_14">
      <path d="M 60.3925 118.08 
" style="fill:none;stroke:#000000;stroke-width:1.5;"/>
      <g>
       <use style="stroke:#000000;" x="60.3925" xlink:href="#me55bd2eb5c" y="118.08"/>
      </g>
     </g>
     <g id="text_10">
      <!-- 50 -->
      <g transform="translate(37.6275 121.943125)scale(0.14 -0.14)">
       <use xlink:href="#DejaVuSans-53"/>
       <use x="63.623047" xlink:href="#DejaVuSans-48"/>
      </g>
     </g>
    </g>
    <g id="ytick_4">
     <g id="line2d_15">
      <path d="M 60.3925 67.68 
" style="fill:none;stroke:#000000;stroke-width:1.5;"/>
      <g>
       <use style="stroke:#000000;" x="60.3925" xlink:href="#me55bd2eb5c" y="67.68"/>
      </g>
     </g>
     <g id="text_11">
      <!-- 75 -->
      <g transform="translate(37.6275 71.543125)scale(0.14 -0.14)">
       <use xlink:href="#DejaVuSans-55"/>
       <use x="63.623047" xlink:href="#DejaVuSans-53"/>
      </g>
     </g>
    </g>
    <g id="ytick_5">
     <g id="line2d_16">
      <path d="M 60.3925 17.28 
" style="fill:none;stroke:#000000;stroke-width:1.5;"/>
      <g>
       <use style="stroke:#000000;" x="60.3925" xlink:href="#me55bd2eb5c" y="17.28"/>
      </g>
     </g>
     <g id="text_12">
      <!-- 100 -->
      <g transform="translate(28.72 21.143125)scale(0.14 -0.14)">
       <use xlink:href="#DejaVuSans-49"/>
       <use x="63.623047" xlink:href="#DejaVuSans-48"/>
       <use x="127.246094" xlink:href="#DejaVuSans-48"/>
      </g>
     </g>
    </g>
    <g id="ytick_6">
     <g id="line2d_17">
      <path d="M 60.3925 193.68 
" style="fill:none;stroke:#000000;stroke-width:1.5;"/>
      <defs>
       <path d="M 0 0 
L -1.375 0 
" id="mad895affb9" style="stroke:#000000;"/>
      </defs>
      <g>
       <use style="stroke:#000000;" x="60.3925" xlink:href="#mad895affb9" y="193.68"/>
      </g>
     </g>
    </g>
    <g id="ytick_7">
     <g id="line2d_18">
      <path d="M 60.3925 143.28 
" style="fill:none;stroke:#000000;stroke-width:1.5;"/>
      <g>
       <use style="stroke:#000000;" x="60.3925" xlink:href="#mad895affb9" y="143.28"/>
      </g>
     </g>
    </g>
    <g id="ytick_8">
     <g id="line2d_19">
      <path d="M 60.3925 92.88 
" style="fill:none;stroke:#000000;stroke-width:1.5;"/>
      <g>
       <use style="stroke:#000000;" x="60.3925" xlink:href="#mad895affb9" y="92.88"/>
      </g>
     </g>
    </g>
    <g id="ytick_9">
     <g id="line2d_20">
      <path d="M 60.3925 42.48 
" style="fill:none;stroke:#000000;stroke-width:1.5;"/>
      <g>
       <use style="stroke:#000000;" x="60.3925" xlink:href="#mad895affb9" y="42.48"/>
      </g>
     </g>
    </g>
    <g id="text_13">
     <!-- $P_{Q1p}$ [%] -->
     <defs>
      <path d="M 16.890625 72.90625 
L 39.703125 72.90625 
Q 49.65625 72.90625 54.875 68.265625 
Q 60.109375 63.625 60.109375 54.6875 
Q 60.109375 42.671875 52.390625 35.984375 
Q 44.671875 29.296875 30.71875 29.296875 
L 18.3125 29.296875 
L 12.59375 0 
L 2.6875 0 
z
M 25.203125 64.796875 
L 19.921875 37.40625 
L 32.328125 37.40625 
Q 40.71875 37.40625 45.203125 41.703125 
Q 49.703125 46 49.703125 54 
Q 49.703125 59.125 46.65625 61.953125 
Q 43.609375 64.796875 38.09375 64.796875 
z
" id="DejaVuSans-Oblique-80"/>
      <path d="M 36.078125 -1.3125 
Q 35.546875 -1.375 34.953125 -1.390625 
Q 34.375 -1.421875 33.203125 -1.421875 
Q 19.53125 -1.421875 11.8125 6.421875 
Q 4.109375 14.265625 4.109375 28.078125 
Q 4.109375 36.234375 7.0625 44.4375 
Q 10.015625 52.640625 15.28125 59.1875 
Q 21.390625 66.703125 29.03125 70.453125 
Q 36.671875 74.21875 45.90625 74.21875 
Q 59.28125 74.21875 66.984375 66.328125 
Q 74.703125 58.453125 74.703125 44.828125 
Q 74.703125 30.125 66.640625 17.921875 
Q 58.59375 5.71875 45.609375 0.6875 
L 55.515625 -12.890625 
L 44.484375 -12.890625 
z
M 45.609375 66.21875 
Q 37.5 66.21875 31.296875 62.28125 
Q 25.09375 58.34375 20.515625 50.296875 
Q 17.578125 45.171875 16.03125 39.40625 
Q 14.5 33.640625 14.5 27.78125 
Q 14.5 17.625 19.359375 12.109375 
Q 24.21875 6.59375 33.109375 6.59375 
Q 41.109375 6.59375 47.375 10.5625 
Q 53.65625 14.546875 58.109375 22.40625 
Q 61.078125 27.6875 62.640625 33.46875 
Q 64.203125 39.265625 64.203125 45.015625 
Q 64.203125 55.125 59.3125 60.671875 
Q 54.4375 66.21875 45.609375 66.21875 
z
" id="DejaVuSans-Oblique-81"/>
      <path d="M 49.609375 33.6875 
Q 49.609375 40.875 46.484375 44.671875 
Q 43.359375 48.484375 37.5 48.484375 
Q 33.5 48.484375 29.859375 46.4375 
Q 26.21875 44.390625 23.390625 40.484375 
Q 20.609375 36.625 18.9375 31.15625 
Q 17.28125 25.6875 17.28125 20.3125 
Q 17.28125 13.484375 20.40625 9.796875 
Q 23.53125 6.109375 29.296875 6.109375 
Q 33.546875 6.109375 37.1875 8.109375 
Q 40.828125 10.109375 43.40625 13.921875 
Q 46.1875 17.921875 47.890625 23.34375 
Q 49.609375 28.765625 49.609375 33.6875 
z
M 21.78125 46.390625 
Q 25.390625 51.125 30.296875 53.5625 
Q 35.203125 56 41.21875 56 
Q 49.609375 56 54.25 50.5 
Q 58.890625 45.015625 58.890625 35.109375 
Q 58.890625 27 56 19.65625 
Q 53.125 12.3125 47.703125 6.5 
Q 44.09375 2.640625 39.546875 0.609375 
Q 35.015625 -1.421875 29.984375 -1.421875 
Q 24.171875 -1.421875 20.21875 1 
Q 16.265625 3.421875 14.3125 8.203125 
L 8.6875 -20.796875 
L -0.296875 -20.796875 
L 14.40625 54.6875 
L 23.390625 54.6875 
z
" id="DejaVuSans-Oblique-112"/>
      <path id="DejaVuSans-32"/>
      <path d="M 8.59375 75.984375 
L 29.296875 75.984375 
L 29.296875 69 
L 17.578125 69 
L 17.578125 -6.203125 
L 29.296875 -6.203125 
L 29.296875 -13.1875 
L 8.59375 -13.1875 
z
" id="DejaVuSans-91"/>
      <path d="M 72.703125 32.078125 
Q 68.453125 32.078125 66.03125 28.46875 
Q 63.625 24.859375 63.625 18.40625 
Q 63.625 12.0625 66.03125 8.421875 
Q 68.453125 4.78125 72.703125 4.78125 
Q 76.859375 4.78125 79.265625 8.421875 
Q 81.6875 12.0625 81.6875 18.40625 
Q 81.6875 24.8125 79.265625 28.4375 
Q 76.859375 32.078125 72.703125 32.078125 
z
M 72.703125 38.28125 
Q 80.421875 38.28125 84.953125 32.90625 
Q 89.5 27.546875 89.5 18.40625 
Q 89.5 9.28125 84.9375 3.921875 
Q 80.375 -1.421875 72.703125 -1.421875 
Q 64.890625 -1.421875 60.34375 3.921875 
Q 55.8125 9.28125 55.8125 18.40625 
Q 55.8125 27.59375 60.375 32.9375 
Q 64.9375 38.28125 72.703125 38.28125 
z
M 22.3125 68.015625 
Q 18.109375 68.015625 15.6875 64.375 
Q 13.28125 60.75 13.28125 54.390625 
Q 13.28125 47.953125 15.671875 44.328125 
Q 18.0625 40.71875 22.3125 40.71875 
Q 26.5625 40.71875 28.96875 44.328125 
Q 31.390625 47.953125 31.390625 54.390625 
Q 31.390625 60.6875 28.953125 64.34375 
Q 26.515625 68.015625 22.3125 68.015625 
z
M 66.40625 74.21875 
L 74.21875 74.21875 
L 28.609375 -1.421875 
L 20.796875 -1.421875 
z
M 22.3125 74.21875 
Q 30.03125 74.21875 34.609375 68.875 
Q 39.203125 63.53125 39.203125 54.390625 
Q 39.203125 45.171875 34.640625 39.84375 
Q 30.078125 34.515625 22.3125 34.515625 
Q 14.546875 34.515625 10.03125 39.859375 
Q 5.515625 45.21875 5.515625 54.390625 
Q 5.515625 63.484375 10.046875 68.84375 
Q 14.59375 74.21875 22.3125 74.21875 
z
" id="DejaVuSans-37"/>
      <path d="M 30.421875 75.984375 
L 30.421875 -13.1875 
L 9.71875 -13.1875 
L 9.71875 -6.203125 
L 21.390625 -6.203125 
L 21.390625 69 
L 9.71875 69 
L 9.71875 75.984375 
z
" id="DejaVuSans-93"/>
     </defs>
     <g transform="translate(19.36 149.6)rotate(-90)scale(0.16 -0.16)">
      <use transform="translate(0 0.015625)" xlink:href="#DejaVuSans-Oblique-80"/>
      <use transform="translate(60.302734 -16.390625)scale(0.7)" xlink:href="#DejaVuSans-Oblique-81"/>
      <use transform="translate(115.400391 -16.390625)scale(0.7)" xlink:href="#DejaVuSans-49"/>
      <use transform="translate(159.936523 -16.390625)scale(0.7)" xlink:href="#DejaVuSans-Oblique-112"/>
      <use transform="translate(207.104492 0.015625)" xlink:href="#DejaVuSans-32"/>
      <use transform="translate(238.891602 0.015625)" xlink:href="#DejaVuSans-91"/>
      <use transform="translate(277.905273 0.015625)" xlink:href="#DejaVuSans-37"/>
      <use transform="translate(372.924805 0.015625)" xlink:href="#DejaVuSans-93"/>
     </g>
    </g>
   </g>
   <g id="LineCollection_1">
    <path clip-path="url(#p953338c3ca)" d="M 105.0325 211.012747 
L 105.0325 211.012747 
" style="fill:none;stroke:#9da0a2;stroke-width:1.32934;"/>
    <path clip-path="url(#p953338c3ca)" d="M 121.265227 212.531761 
L 121.265227 212.531761 
" style="fill:none;stroke:#9da0a2;stroke-width:1.32934;"/>
    <path clip-path="url(#p953338c3ca)" d="M 129.381591 213.33154 
L 129.381591 213.33154 
" style="fill:none;stroke:#9da0a2;stroke-width:1.32934;"/>
    <path clip-path="url(#p953338c3ca)" d="M 137.497955 213.977077 
L 137.497955 213.977077 
" style="fill:none;stroke:#9da0a2;stroke-width:1.32934;"/>
    <path clip-path="url(#p953338c3ca)" d="M 145.614318 218.063847 
L 145.614318 218.063847 
" style="fill:none;stroke:#9da0a2;stroke-width:1.32934;"/>
    <path clip-path="url(#p953338c3ca)" d="M 153.730682 179.429732 
L 153.730682 179.429732 
" style="fill:none;stroke:#9da0a2;stroke-width:1.32934;"/>
    <path clip-path="url(#p953338c3ca)" d="M 161.847045 210.057577 
L 161.847045 210.057577 
" style="fill:none;stroke:#9da0a2;stroke-width:1.32934;"/>
    <path clip-path="url(#p953338c3ca)" d="M 169.963409 160.189538 
L 169.963409 160.189538 
" style="fill:none;stroke:#9da0a2;stroke-width:1.32934;"/>
    <path clip-path="url(#p953338c3ca)" d="M 178.079773 162.721104 
L 178.079773 162.721104 
" style="fill:none;stroke:#9da0a2;stroke-width:1.32934;"/>
    <path clip-path="url(#p953338c3ca)" d="M 186.196136 152.955432 
L 186.196136 152.955432 
" style="fill:none;stroke:#9da0a2;stroke-width:1.32934;"/>
    <path clip-path="url(#p953338c3ca)" d="M 194.3125 173.292504 
L 194.3125 173.292504 
" style="fill:none;stroke:#9da0a2;stroke-width:1.32934;"/>
    <path clip-path="url(#p953338c3ca)" d="M 202.428864 154.822975 
L 202.428864 154.822975 
" style="fill:none;stroke:#9da0a2;stroke-width:1.32934;"/>
    <path clip-path="url(#p953338c3ca)" d="M 210.545227 175.29298 
L 210.545227 175.29298 
" style="fill:none;stroke:#9da0a2;stroke-width:1.32934;"/>
    <path clip-path="url(#p953338c3ca)" d="M 218.661591 149.526921 
L 218.661591 149.526921 
" style="fill:none;stroke:#9da0a2;stroke-width:1.32934;"/>
    <path clip-path="url(#p953338c3ca)" d="M 226.777955 174.012085 
L 226.777955 174.012085 
" style="fill:none;stroke:#9da0a2;stroke-width:1.32934;"/>
    <path clip-path="url(#p953338c3ca)" d="M 234.894318 168.271754 
L 234.894318 168.271754 
" style="fill:none;stroke:#9da0a2;stroke-width:1.32934;"/>
    <path clip-path="url(#p953338c3ca)" d="M 243.010682 156.584936 
L 243.010682 156.584936 
" style="fill:none;stroke:#9da0a2;stroke-width:1.32934;"/>
    <path clip-path="url(#p953338c3ca)" d="M 251.127045 147.556916 
L 251.127045 147.556916 
" style="fill:none;stroke:#9da0a2;stroke-width:1.32934;"/>
    <path clip-path="url(#p953338c3ca)" d="M 259.243409 141.982211 
L 259.243409 141.982211 
" style="fill:none;stroke:#9da0a2;stroke-width:1.32934;"/>
    <path clip-path="url(#p953338c3ca)" d="M 267.359773 146.129584 
L 267.359773 146.129584 
" style="fill:none;stroke:#9da0a2;stroke-width:1.32934;"/>
    <path clip-path="url(#p953338c3ca)" d="M 275.476136 144.36672 
L 275.476136 144.36672 
" style="fill:none;stroke:#9da0a2;stroke-width:1.32934;"/>
    <path clip-path="url(#p953338c3ca)" d="M 283.5925 137.148696 
L 283.5925 137.148696 
" style="fill:none;stroke:#9da0a2;stroke-width:1.32934;"/>
    <path clip-path="url(#p953338c3ca)" d="M 291.708864 147.35623 
L 291.708864 147.35623 
" style="fill:none;stroke:#9da0a2;stroke-width:1.32934;"/>
    <path clip-path="url(#p953338c3ca)" d="M 299.825227 145.301661 
L 299.825227 145.301661 
" style="fill:none;stroke:#9da0a2;stroke-width:1.32934;"/>
    <path clip-path="url(#p953338c3ca)" d="M 307.941591 144.83741 
L 307.941591 144.83741 
" style="fill:none;stroke:#9da0a2;stroke-width:1.32934;"/>
    <path clip-path="url(#p953338c3ca)" d="M 316.057955 145.448521 
L 316.057955 145.448521 
" style="fill:none;stroke:#9da0a2;stroke-width:1.32934;"/>
    <path clip-path="url(#p953338c3ca)" d="M 324.174318 149.551495 
L 324.174318 149.551495 
" style="fill:none;stroke:#9da0a2;stroke-width:1.32934;"/>
    <path clip-path="url(#p953338c3ca)" d="M 332.290682 146.475134 
L 332.290682 146.475134 
" style="fill:none;stroke:#9da0a2;stroke-width:1.32934;"/>
    <path clip-path="url(#p953338c3ca)" d="M 340.407045 144.800344 
L 340.407045 144.800344 
" style="fill:none;stroke:#9da0a2;stroke-width:1.32934;"/>
    <path clip-path="url(#p953338c3ca)" d="M 348.523409 143.011283 
L 348.523409 143.011283 
" style="fill:none;stroke:#9da0a2;stroke-width:1.32934;"/>
    <path clip-path="url(#p953338c3ca)" d="M 356.639773 140.926051 
L 356.639773 140.926051 
" style="fill:none;stroke:#9da0a2;stroke-width:1.32934;"/>
    <path clip-path="url(#p953338c3ca)" d="M 364.756136 139.454121 
L 364.756136 139.454121 
" style="fill:none;stroke:#9da0a2;stroke-width:1.32934;"/>
    <path clip-path="url(#p953338c3ca)" d="M 372.8725 137.600017 
L 372.8725 137.600017 
" style="fill:none;stroke:#9da0a2;stroke-width:1.32934;"/>
    <path clip-path="url(#p953338c3ca)" d="M 380.988864 134.897239 
L 380.988864 134.897239 
" style="fill:none;stroke:#9da0a2;stroke-width:1.32934;"/>
    <path clip-path="url(#p953338c3ca)" d="M 389.105227 135.239776 
L 389.105227 135.239776 
" style="fill:none;stroke:#9da0a2;stroke-width:1.32934;"/>
    <path clip-path="url(#p953338c3ca)" d="M 397.221591 131.962578 
L 397.221591 131.962578 
" style="fill:none;stroke:#9da0a2;stroke-width:1.32934;"/>
    <path clip-path="url(#p953338c3ca)" d="M 405.337955 123.078574 
L 405.337955 123.078574 
" style="fill:none;stroke:#9da0a2;stroke-width:1.32934;"/>
    <path clip-path="url(#p953338c3ca)" d="M 413.454318 118.769386 
L 413.454318 118.769386 
" style="fill:none;stroke:#9da0a2;stroke-width:1.32934;"/>
    <path clip-path="url(#p953338c3ca)" d="M 421.570682 114.186372 
L 421.570682 114.186372 
" style="fill:none;stroke:#9da0a2;stroke-width:1.32934;"/>
    <path clip-path="url(#p953338c3ca)" d="M 429.687045 108.073862 
L 429.687045 108.073862 
" style="fill:none;stroke:#9da0a2;stroke-width:1.32934;"/>
    <path clip-path="url(#p953338c3ca)" d="M 437.803409 102.56036 
L 437.803409 102.56036 
" style="fill:none;stroke:#9da0a2;stroke-width:1.32934;"/>
    <path clip-path="url(#p953338c3ca)" d="M 445.919773 99.464276 
L 445.919773 99.464276 
" style="fill:none;stroke:#9da0a2;stroke-width:1.32934;"/>
    <path clip-path="url(#p953338c3ca)" d="M 454.036136 93.178117 
L 454.036136 93.178117 
" style="fill:none;stroke:#9da0a2;stroke-width:1.32934;"/>
    <path clip-path="url(#p953338c3ca)" d="M 462.1525 97.295388 
L 462.1525 97.295388 
" style="fill:none;stroke:#9da0a2;stroke-width:1.32934;"/>
    <path clip-path="url(#p953338c3ca)" d="M 470.268864 99.795458 
L 470.268864 99.795458 
" style="fill:none;stroke:#9da0a2;stroke-width:1.32934;"/>
    <path clip-path="url(#p953338c3ca)" d="M 478.385227 99.547934 
L 478.385227 99.547934 
" style="fill:none;stroke:#9da0a2;stroke-width:1.32934;"/>
    <path clip-path="url(#p953338c3ca)" d="M 105.0325 210.938814 
L 105.0325 210.938814 
" style="fill:none;stroke:#9da0a2;stroke-width:1.32934;"/>
    <path clip-path="url(#p953338c3ca)" d="M 121.265227 208.371835 
L 121.265227 208.371835 
" style="fill:none;stroke:#9da0a2;stroke-width:1.32934;"/>
    <path clip-path="url(#p953338c3ca)" d="M 129.381591 205.810428 
L 129.381591 205.810428 
" style="fill:none;stroke:#9da0a2;stroke-width:1.32934;"/>
    <path clip-path="url(#p953338c3ca)" d="M 137.497955 206.996798 
L 137.497955 206.996798 
" style="fill:none;stroke:#9da0a2;stroke-width:1.32934;"/>
    <path clip-path="url(#p953338c3ca)" d="M 145.614318 196.133534 
L 145.614318 196.133534 
" style="fill:none;stroke:#9da0a2;stroke-width:1.32934;"/>
    <path clip-path="url(#p953338c3ca)" d="M 153.730682 146.823874 
L 153.730682 146.823874 
" style="fill:none;stroke:#9da0a2;stroke-width:1.32934;"/>
    <path clip-path="url(#p953338c3ca)" d="M 161.847045 185.565431 
L 161.847045 185.565431 
" style="fill:none;stroke:#9da0a2;stroke-width:1.32934;"/>
    <path clip-path="url(#p953338c3ca)" d="M 169.963409 140.374548 
L 169.963409 140.374548 
" style="fill:none;stroke:#9da0a2;stroke-width:1.32934;"/>
    <path clip-path="url(#p953338c3ca)" d="M 178.079773 146.480245 
L 178.079773 146.480245 
" style="fill:none;stroke:#9da0a2;stroke-width:1.32934;"/>
    <path clip-path="url(#p953338c3ca)" d="M 186.196136 123.756581 
L 186.196136 123.756581 
" style="fill:none;stroke:#9da0a2;stroke-width:1.32934;"/>
    <path clip-path="url(#p953338c3ca)" d="M 194.3125 155.02507 
L 194.3125 155.02507 
" style="fill:none;stroke:#9da0a2;stroke-width:1.32934;"/>
    <path clip-path="url(#p953338c3ca)" d="M 202.428864 121.75975 
L 202.428864 121.75975 
" style="fill:none;stroke:#9da0a2;stroke-width:1.32934;"/>
    <path clip-path="url(#p953338c3ca)" d="M 210.545227 149.647967 
L 210.545227 149.647967 
" style="fill:none;stroke:#9da0a2;stroke-width:1.32934;"/>
    <path clip-path="url(#p953338c3ca)" d="M 218.661591 132.334145 
L 218.661591 132.334145 
" style="fill:none;stroke:#9da0a2;stroke-width:1.32934;"/>
    <path clip-path="url(#p953338c3ca)" d="M 226.777955 163.754962 
L 226.777955 163.754962 
" style="fill:none;stroke:#9da0a2;stroke-width:1.32934;"/>
    <path clip-path="url(#p953338c3ca)" d="M 234.894318 161.455134 
L 234.894318 161.455134 
" style="fill:none;stroke:#9da0a2;stroke-width:1.32934;"/>
    <path clip-path="url(#p953338c3ca)" d="M 243.010682 149.486618 
L 243.010682 149.486618 
" style="fill:none;stroke:#9da0a2;stroke-width:1.32934;"/>
    <path clip-path="url(#p953338c3ca)" d="M 251.127045 142.591745 
L 251.127045 142.591745 
" style="fill:none;stroke:#9da0a2;stroke-width:1.32934;"/>
    <path clip-path="url(#p953338c3ca)" d="M 259.243409 137.244524 
L 259.243409 137.244524 
" style="fill:none;stroke:#9da0a2;stroke-width:1.32934;"/>
    <path clip-path="url(#p953338c3ca)" d="M 267.359773 142.05622 
L 267.359773 142.05622 
" style="fill:none;stroke:#9da0a2;stroke-width:1.32934;"/>
    <path clip-path="url(#p953338c3ca)" d="M 275.476136 140.877471 
L 275.476136 140.877471 
" style="fill:none;stroke:#9da0a2;stroke-width:1.32934;"/>
    <path clip-path="url(#p953338c3ca)" d="M 283.5925 133.667416 
L 283.5925 133.667416 
" style="fill:none;stroke:#9da0a2;stroke-width:1.32934;"/>
    <path clip-path="url(#p953338c3ca)" d="M 291.708864 144.403416 
L 291.708864 144.403416 
" style="fill:none;stroke:#9da0a2;stroke-width:1.32934;"/>
    <path clip-path="url(#p953338c3ca)" d="M 299.825227 142.624965 
L 299.825227 142.624965 
" style="fill:none;stroke:#9da0a2;stroke-width:1.32934;"/>
    <path clip-path="url(#p953338c3ca)" d="M 307.941591 142.199125 
L 307.941591 142.199125 
" style="fill:none;stroke:#9da0a2;stroke-width:1.32934;"/>
    <path clip-path="url(#p953338c3ca)" d="M 316.057955 143.018575 
L 316.057955 143.018575 
" style="fill:none;stroke:#9da0a2;stroke-width:1.32934;"/>
    <path clip-path="url(#p953338c3ca)" d="M 324.174318 147.35872 
L 324.174318 147.35872 
" style="fill:none;stroke:#9da0a2;stroke-width:1.32934;"/>
    <path clip-path="url(#p953338c3ca)" d="M 332.290682 144.315263 
L 332.290682 144.315263 
" style="fill:none;stroke:#9da0a2;stroke-width:1.32934;"/>
    <path clip-path="url(#p953338c3ca)" d="M 340.407045 142.667151 
L 340.407045 142.667151 
" style="fill:none;stroke:#9da0a2;stroke-width:1.32934;"/>
    <path clip-path="url(#p953338c3ca)" d="M 348.523409 141.197781 
L 348.523409 141.197781 
" style="fill:none;stroke:#9da0a2;stroke-width:1.32934;"/>
    <path clip-path="url(#p953338c3ca)" d="M 356.639773 139.199828 
L 356.639773 139.199828 
" style="fill:none;stroke:#9da0a2;stroke-width:1.32934;"/>
    <path clip-path="url(#p953338c3ca)" d="M 364.756136 137.872175 
L 364.756136 137.872175 
" style="fill:none;stroke:#9da0a2;stroke-width:1.32934;"/>
    <path clip-path="url(#p953338c3ca)" d="M 372.8725 136.096885 
L 372.8725 136.096885 
" style="fill:none;stroke:#9da0a2;stroke-width:1.32934;"/>
    <path clip-path="url(#p953338c3ca)" d="M 380.988864 133.518098 
L 380.988864 133.518098 
" style="fill:none;stroke:#9da0a2;stroke-width:1.32934;"/>
    <path clip-path="url(#p953338c3ca)" d="M 389.105227 133.803688 
L 389.105227 133.803688 
" style="fill:none;stroke:#9da0a2;stroke-width:1.32934;"/>
    <path clip-path="url(#p953338c3ca)" d="M 397.221591 130.633196 
L 397.221591 130.633196 
" style="fill:none;stroke:#9da0a2;stroke-width:1.32934;"/>
    <path clip-path="url(#p953338c3ca)" d="M 405.337955 121.769366 
L 405.337955 121.769366 
" style="fill:none;stroke:#9da0a2;stroke-width:1.32934;"/>
    <path clip-path="url(#p953338c3ca)" d="M 413.454318 117.474804 
L 413.454318 117.474804 
" style="fill:none;stroke:#9da0a2;stroke-width:1.32934;"/>
    <path clip-path="url(#p953338c3ca)" d="M 421.570682 112.96668 
L 421.570682 112.96668 
" style="fill:none;stroke:#9da0a2;stroke-width:1.32934;"/>
    <path clip-path="url(#p953338c3ca)" d="M 429.687045 106.864604 
L 429.687045 106.864604 
" style="fill:none;stroke:#9da0a2;stroke-width:1.32934;"/>
    <path clip-path="url(#p953338c3ca)" d="M 437.803409 101.363794 
L 437.803409 101.363794 
" style="fill:none;stroke:#9da0a2;stroke-width:1.32934;"/>
    <path clip-path="url(#p953338c3ca)" d="M 445.919773 98.311225 
L 445.919773 98.311225 
" style="fill:none;stroke:#9da0a2;stroke-width:1.32934;"/>
    <path clip-path="url(#p953338c3ca)" d="M 454.036136 92.060358 
L 454.036136 92.060358 
" style="fill:none;stroke:#9da0a2;stroke-width:1.32934;"/>
    <path clip-path="url(#p953338c3ca)" d="M 462.1525 96.279019 
L 462.1525 96.279019 
" style="fill:none;stroke:#9da0a2;stroke-width:1.32934;"/>
    <path clip-path="url(#p953338c3ca)" d="M 470.268864 98.67372 
L 470.268864 98.67372 
" style="fill:none;stroke:#9da0a2;stroke-width:1.32934;"/>
    <path clip-path="url(#p953338c3ca)" d="M 478.385227 97.691861 
L 478.385227 97.691861 
" style="fill:none;stroke:#9da0a2;stroke-width:1.32934;"/>
    <path clip-path="url(#p953338c3ca)" d="M 105.0325 210.938814 
L 105.0325 211.012747 
" style="fill:none;stroke:#9da0a2;stroke-width:1.32934;"/>
    <path clip-path="url(#p953338c3ca)" d="M 121.265227 208.371835 
L 121.265227 212.531761 
" style="fill:none;stroke:#9da0a2;stroke-width:1.32934;"/>
    <path clip-path="url(#p953338c3ca)" d="M 129.381591 205.810428 
L 129.381591 213.33154 
" style="fill:none;stroke:#9da0a2;stroke-width:1.32934;"/>
    <path clip-path="url(#p953338c3ca)" d="M 137.497955 206.996798 
L 137.497955 213.977077 
" style="fill:none;stroke:#9da0a2;stroke-width:1.32934;"/>
    <path clip-path="url(#p953338c3ca)" d="M 145.614318 196.133534 
L 145.614318 218.063847 
" style="fill:none;stroke:#9da0a2;stroke-width:1.32934;"/>
    <path clip-path="url(#p953338c3ca)" d="M 153.730682 146.823874 
L 153.730682 179.429732 
" style="fill:none;stroke:#9da0a2;stroke-width:1.32934;"/>
    <path clip-path="url(#p953338c3ca)" d="M 161.847045 185.565431 
L 161.847045 210.057577 
" style="fill:none;stroke:#9da0a2;stroke-width:1.32934;"/>
    <path clip-path="url(#p953338c3ca)" d="M 169.963409 140.374548 
L 169.963409 160.189538 
" style="fill:none;stroke:#9da0a2;stroke-width:1.32934;"/>
    <path clip-path="url(#p953338c3ca)" d="M 178.079773 146.480245 
L 178.079773 162.721104 
" style="fill:none;stroke:#9da0a2;stroke-width:1.32934;"/>
    <path clip-path="url(#p953338c3ca)" d="M 186.196136 123.756581 
L 186.196136 152.955432 
" style="fill:none;stroke:#9da0a2;stroke-width:1.32934;"/>
    <path clip-path="url(#p953338c3ca)" d="M 194.3125 155.02507 
L 194.3125 173.292504 
" style="fill:none;stroke:#9da0a2;stroke-width:1.32934;"/>
    <path clip-path="url(#p953338c3ca)" d="M 202.428864 121.75975 
L 202.428864 154.822975 
" style="fill:none;stroke:#9da0a2;stroke-width:1.32934;"/>
    <path clip-path="url(#p953338c3ca)" d="M 210.545227 149.647967 
L 210.545227 175.29298 
" style="fill:none;stroke:#9da0a2;stroke-width:1.32934;"/>
    <path clip-path="url(#p953338c3ca)" d="M 218.661591 132.334145 
L 218.661591 149.526921 
" style="fill:none;stroke:#9da0a2;stroke-width:1.32934;"/>
    <path clip-path="url(#p953338c3ca)" d="M 226.777955 163.754962 
L 226.777955 174.012085 
" style="fill:none;stroke:#9da0a2;stroke-width:1.32934;"/>
    <path clip-path="url(#p953338c3ca)" d="M 234.894318 161.455134 
L 234.894318 168.271754 
" style="fill:none;stroke:#9da0a2;stroke-width:1.32934;"/>
    <path clip-path="url(#p953338c3ca)" d="M 243.010682 149.486618 
L 243.010682 156.584936 
" style="fill:none;stroke:#9da0a2;stroke-width:1.32934;"/>
    <path clip-path="url(#p953338c3ca)" d="M 251.127045 142.591745 
L 251.127045 147.556916 
" style="fill:none;stroke:#9da0a2;stroke-width:1.32934;"/>
    <path clip-path="url(#p953338c3ca)" d="M 259.243409 137.244524 
L 259.243409 141.982211 
" style="fill:none;stroke:#9da0a2;stroke-width:1.32934;"/>
    <path clip-path="url(#p953338c3ca)" d="M 267.359773 142.05622 
L 267.359773 146.129584 
" style="fill:none;stroke:#9da0a2;stroke-width:1.32934;"/>
    <path clip-path="url(#p953338c3ca)" d="M 275.476136 140.877471 
L 275.476136 144.36672 
" style="fill:none;stroke:#9da0a2;stroke-width:1.32934;"/>
    <path clip-path="url(#p953338c3ca)" d="M 283.5925 133.667416 
L 283.5925 137.148696 
" style="fill:none;stroke:#9da0a2;stroke-width:1.32934;"/>
    <path clip-path="url(#p953338c3ca)" d="M 291.708864 144.403416 
L 291.708864 147.35623 
" style="fill:none;stroke:#9da0a2;stroke-width:1.32934;"/>
    <path clip-path="url(#p953338c3ca)" d="M 299.825227 142.624965 
L 299.825227 145.301661 
" style="fill:none;stroke:#9da0a2;stroke-width:1.32934;"/>
    <path clip-path="url(#p953338c3ca)" d="M 307.941591 142.199125 
L 307.941591 144.83741 
" style="fill:none;stroke:#9da0a2;stroke-width:1.32934;"/>
    <path clip-path="url(#p953338c3ca)" d="M 316.057955 143.018575 
L 316.057955 145.448521 
" style="fill:none;stroke:#9da0a2;stroke-width:1.32934;"/>
    <path clip-path="url(#p953338c3ca)" d="M 324.174318 147.35872 
L 324.174318 149.551495 
" style="fill:none;stroke:#9da0a2;stroke-width:1.32934;"/>
    <path clip-path="url(#p953338c3ca)" d="M 332.290682 144.315263 
L 332.290682 146.475134 
" style="fill:none;stroke:#9da0a2;stroke-width:1.32934;"/>
    <path clip-path="url(#p953338c3ca)" d="M 340.407045 142.667151 
L 340.407045 144.800344 
" style="fill:none;stroke:#9da0a2;stroke-width:1.32934;"/>
    <path clip-path="url(#p953338c3ca)" d="M 348.523409 141.197781 
L 348.523409 143.011283 
" style="fill:none;stroke:#9da0a2;stroke-width:1.32934;"/>
    <path clip-path="url(#p953338c3ca)" d="M 356.639773 139.199828 
L 356.639773 140.926051 
" style="fill:none;stroke:#9da0a2;stroke-width:1.32934;"/>
    <path clip-path="url(#p953338c3ca)" d="M 364.756136 137.872175 
L 364.756136 139.454121 
" style="fill:none;stroke:#9da0a2;stroke-width:1.32934;"/>
    <path clip-path="url(#p953338c3ca)" d="M 372.8725 136.096885 
L 372.8725 137.600017 
" style="fill:none;stroke:#9da0a2;stroke-width:1.32934;"/>
    <path clip-path="url(#p953338c3ca)" d="M 380.988864 133.518098 
L 380.988864 134.897239 
" style="fill:none;stroke:#9da0a2;stroke-width:1.32934;"/>
    <path clip-path="url(#p953338c3ca)" d="M 389.105227 133.803688 
L 389.105227 135.239776 
" style="fill:none;stroke:#9da0a2;stroke-width:1.32934;"/>
    <path clip-path="url(#p953338c3ca)" d="M 397.221591 130.633196 
L 397.221591 131.962578 
" style="fill:none;stroke:#9da0a2;stroke-width:1.32934;"/>
    <path clip-path="url(#p953338c3ca)" d="M 405.337955 121.769366 
L 405.337955 123.078574 
" style="fill:none;stroke:#9da0a2;stroke-width:1.32934;"/>
    <path clip-path="url(#p953338c3ca)" d="M 413.454318 117.474804 
L 413.454318 118.769386 
" style="fill:none;stroke:#9da0a2;stroke-width:1.32934;"/>
    <path clip-path="url(#p953338c3ca)" d="M 421.570682 112.96668 
L 421.570682 114.186372 
" style="fill:none;stroke:#9da0a2;stroke-width:1.32934;"/>
    <path clip-path="url(#p953338c3ca)" d="M 429.687045 106.864604 
L 429.687045 108.073862 
" style="fill:none;stroke:#9da0a2;stroke-width:1.32934;"/>
    <path clip-path="url(#p953338c3ca)" d="M 437.803409 101.363794 
L 437.803409 102.56036 
" style="fill:none;stroke:#9da0a2;stroke-width:1.32934;"/>
    <path clip-path="url(#p953338c3ca)" d="M 445.919773 98.311225 
L 445.919773 99.464276 
" style="fill:none;stroke:#9da0a2;stroke-width:1.32934;"/>
    <path clip-path="url(#p953338c3ca)" d="M 454.036136 92.060358 
L 454.036136 93.178117 
" style="fill:none;stroke:#9da0a2;stroke-width:1.32934;"/>
    <path clip-path="url(#p953338c3ca)" d="M 462.1525 96.279019 
L 462.1525 97.295388 
" style="fill:none;stroke:#9da0a2;stroke-width:1.32934;"/>
    <path clip-path="url(#p953338c3ca)" d="M 470.268864 98.67372 
L 470.268864 99.795458 
" style="fill:none;stroke:#9da0a2;stroke-width:1.32934;"/>
    <path clip-path="url(#p953338c3ca)" d="M 478.385227 97.691861 
L 478.385227 99.547934 
" style="fill:none;stroke:#9da0a2;stroke-width:1.32934;"/>
   </g>
   <g id="line2d_21">
    <path clip-path="url(#p953338c3ca)" d="M 96.916136 216.47503 
L 105.0325 210.97578 
L 113.148864 218.584271 
L 121.265227 210.451798 
L 129.381591 209.570984 
L 137.497955 210.486938 
L 145.614318 207.09869 
L 153.730682 163.126803 
L 161.847045 197.811504 
L 169.963409 150.282043 
L 178.079773 154.600674 
L 186.196136 138.356006 
L 194.3125 164.158787 
L 202.428864 138.291362 
L 210.545227 162.470474 
L 218.661591 140.930533 
L 226.777955 168.883523 
L 234.894318 164.863444 
L 243.010682 153.035777 
L 251.127045 145.07433 
L 259.243409 139.613368 
L 267.359773 144.092902 
L 275.476136 142.622095 
L 283.5925 135.408056 
L 291.708864 145.879823 
L 299.825227 143.963313 
L 307.941591 143.518267 
L 316.057955 144.233548 
L 324.174318 148.455107 
L 332.290682 145.395199 
L 340.407045 143.733748 
L 348.523409 142.104532 
L 356.639773 140.06294 
L 364.756136 138.663148 
L 372.8725 136.848451 
L 380.988864 134.207668 
L 389.105227 134.521732 
L 397.221591 131.297887 
L 405.337955 122.42397 
L 413.454318 118.122095 
L 421.570682 113.576526 
L 429.687045 107.469233 
L 437.803409 101.962077 
L 445.919773 98.88775 
L 454.036136 92.619237 
L 462.1525 96.787203 
L 470.268864 99.234589 
L 478.385227 98.619898 
" style="fill:none;stroke:#ee7733;stroke-width:0.886227;"/>
   </g>
   <g id="patch_3">
    <path d="M 60.3925 228.96 
L 60.3925 7.2 
" style="fill:none;stroke:#000000;stroke-linecap:square;stroke-linejoin:miter;"/>
   </g>
   <g id="patch_4">
    <path d="M 60.3925 228.96 
L 506.7925 228.96 
" style="fill:none;stroke:#000000;stroke-linecap:square;stroke-linejoin:miter;"/>
   </g>
   <g id="PathCollection_1">
    <path clip-path="url(#p953338c3ca)" d="M 96.916136 218.247484 
C 97.386197 218.247484 97.837068 218.060727 98.169451 217.728344 
C 98.501833 217.395961 98.68859 216.94509 98.68859 216.47503 
C 98.68859 216.00497 98.501833 215.554098 98.169451 215.221716 
C 97.837068 214.889333 97.386197 214.702576 96.916136 214.702576 
C 96.446076 214.702576 95.995205 214.889333 95.662822 215.221716 
C 95.330439 215.554098 95.143683 216.00497 95.143683 216.47503 
C 95.143683 216.94509 95.330439 217.395961 95.662822 217.728344 
C 95.995205 218.060727 96.446076 218.247484 96.916136 218.247484 
z
" style="fill:#ee7733;stroke:#ee7733;stroke-width:0.886227;"/>
    <path clip-path="url(#p953338c3ca)" d="M 105.0325 212.748234 
C 105.50256 212.748234 105.953431 212.561477 106.285814 212.229095 
C 106.618197 211.896712 106.804954 211.445841 106.804954 210.97578 
C 106.804954 210.50572 106.618197 210.054849 106.285814 209.722466 
C 105.953431 209.390084 105.50256 209.203327 105.0325 209.203327 
C 104.56244 209.203327 104.111569 209.390084 103.779186 209.722466 
C 103.446803 210.054849 103.260046 210.50572 103.260046 210.97578 
C 103.260046 211.445841 103.446803 211.896712 103.779186 212.229095 
C 104.111569 212.561477 104.56244 212.748234 105.0325 212.748234 
z
" style="fill:#ee7733;stroke:#ee7733;stroke-width:0.886227;"/>
    <path clip-path="url(#p953338c3ca)" d="M 113.148864 220.356725 
C 113.618924 220.356725 114.069795 220.169968 114.402178 219.837585 
C 114.734561 219.505203 114.921317 219.054332 114.921317 218.584271 
C 114.921317 218.114211 114.734561 217.66334 114.402178 217.330957 
C 114.069795 216.998574 113.618924 216.811817 113.148864 216.811817 
C 112.678803 216.811817 112.227932 216.998574 111.895549 217.330957 
C 111.563167 217.66334 111.37641 218.114211 111.37641 218.584271 
C 111.37641 219.054332 111.563167 219.505203 111.895549 219.837585 
C 112.227932 220.169968 112.678803 220.356725 113.148864 220.356725 
z
" style="fill:#ee7733;stroke:#ee7733;stroke-width:0.886227;"/>
    <path clip-path="url(#p953338c3ca)" d="M 121.265227 212.224252 
C 121.735288 212.224252 122.186159 212.037495 122.518541 211.705112 
C 122.850924 211.372729 123.037681 210.921858 123.037681 210.451798 
C 123.037681 209.981737 122.850924 209.530866 122.518541 209.198484 
C 122.186159 208.866101 121.735288 208.679344 121.265227 208.679344 
C 120.795167 208.679344 120.344296 208.866101 120.011913 209.198484 
C 119.67953 209.530866 119.492773 209.981737 119.492773 210.451798 
C 119.492773 210.921858 119.67953 211.372729 120.011913 211.705112 
C 120.344296 212.037495 120.795167 212.224252 121.265227 212.224252 
z
" style="fill:#ee7733;stroke:#ee7733;stroke-width:0.886227;"/>
    <path clip-path="url(#p953338c3ca)" d="M 129.381591 211.343438 
C 129.851651 211.343438 130.302522 211.156681 130.634905 210.824298 
C 130.967288 210.491915 131.154045 210.041044 131.154045 209.570984 
C 131.154045 209.100924 130.967288 208.650053 130.634905 208.31767 
C 130.302522 207.985287 129.851651 207.79853 129.381591 207.79853 
C 128.911531 207.79853 128.46066 207.985287 128.128277 208.31767 
C 127.795894 208.650053 127.609137 209.100924 127.609137 209.570984 
C 127.609137 210.041044 127.795894 210.491915 128.128277 210.824298 
C 128.46066 211.156681 128.911531 211.343438 129.381591 211.343438 
z
" style="fill:#ee7733;stroke:#ee7733;stroke-width:0.886227;"/>
    <path clip-path="url(#p953338c3ca)" d="M 137.497955 212.259391 
C 137.968015 212.259391 138.418886 212.072635 138.751269 211.740252 
C 139.083651 211.407869 139.270408 210.956998 139.270408 210.486938 
C 139.270408 210.016877 139.083651 209.566006 138.751269 209.233623 
C 138.418886 208.901241 137.968015 208.714484 137.497955 208.714484 
C 137.027894 208.714484 136.577023 208.901241 136.24464 209.233623 
C 135.912258 209.566006 135.725501 210.016877 135.725501 210.486938 
C 135.725501 210.956998 135.912258 211.407869 136.24464 211.740252 
C 136.577023 212.072635 137.027894 212.259391 137.497955 212.259391 
z
" style="fill:#ee7733;stroke:#ee7733;stroke-width:0.886227;"/>
    <path clip-path="url(#p953338c3ca)" d="M 145.614318 208.871144 
C 146.084378 208.871144 146.53525 208.684387 146.867632 208.352004 
C 147.200015 208.019621 147.386772 207.56875 147.386772 207.09869 
C 147.386772 206.62863 147.200015 206.177759 146.867632 205.845376 
C 146.53525 205.512993 146.084378 205.326236 145.614318 205.326236 
C 145.144258 205.326236 144.693387 205.512993 144.361004 205.845376 
C 144.028621 206.177759 143.841864 206.62863 143.841864 207.09869 
C 143.841864 207.56875 144.028621 208.019621 144.361004 208.352004 
C 144.693387 208.684387 145.144258 208.871144 145.614318 208.871144 
z
" style="fill:#ee7733;stroke:#ee7733;stroke-width:0.886227;"/>
    <path clip-path="url(#p953338c3ca)" d="M 153.730682 164.899257 
C 154.200742 164.899257 154.651613 164.7125 154.983996 164.380117 
C 155.316379 164.047734 155.503136 163.596863 155.503136 163.126803 
C 155.503136 162.656743 155.316379 162.205872 154.983996 161.873489 
C 154.651613 161.541106 154.200742 161.354349 153.730682 161.354349 
C 153.260622 161.354349 152.80975 161.541106 152.477368 161.873489 
C 152.144985 162.205872 151.958228 162.656743 151.958228 163.126803 
C 151.958228 163.596863 152.144985 164.047734 152.477368 164.380117 
C 152.80975 164.7125 153.260622 164.899257 153.730682 164.899257 
z
" style="fill:#ee7733;stroke:#ee7733;stroke-width:0.886227;"/>
    <path clip-path="url(#p953338c3ca)" d="M 161.847045 199.583958 
C 162.317106 199.583958 162.767977 199.397201 163.10036 199.064818 
C 163.432742 198.732435 163.619499 198.281564 163.619499 197.811504 
C 163.619499 197.341444 163.432742 196.890573 163.10036 196.55819 
C 162.767977 196.225807 162.317106 196.03905 161.847045 196.03905 
C 161.376985 196.03905 160.926114 196.225807 160.593731 196.55819 
C 160.261349 196.890573 160.074592 197.341444 160.074592 197.811504 
C 160.074592 198.281564 160.261349 198.732435 160.593731 199.064818 
C 160.926114 199.397201 161.376985 199.583958 161.847045 199.583958 
z
" style="fill:#ee7733;stroke:#ee7733;stroke-width:0.886227;"/>
    <path clip-path="url(#p953338c3ca)" d="M 169.963409 152.054497 
C 170.433469 152.054497 170.88434 151.86774 171.216723 151.535357 
C 171.549106 151.202974 171.735863 150.752103 171.735863 150.282043 
C 171.735863 149.811982 171.549106 149.361111 171.216723 149.028729 
C 170.88434 148.696346 170.433469 148.509589 169.963409 148.509589 
C 169.493349 148.509589 169.042478 148.696346 168.710095 149.028729 
C 168.377712 149.361111 168.190955 149.811982 168.190955 150.282043 
C 168.190955 150.752103 168.377712 151.202974 168.710095 151.535357 
C 169.042478 151.86774 169.493349 152.054497 169.963409 152.054497 
z
" style="fill:#ee7733;stroke:#ee7733;stroke-width:0.886227;"/>
    <path clip-path="url(#p953338c3ca)" d="M 178.079773 156.373128 
C 178.549833 156.373128 179.000704 156.186371 179.333087 155.853988 
C 179.66547 155.521605 179.852227 155.070734 179.852227 154.600674 
C 179.852227 154.130614 179.66547 153.679743 179.333087 153.34736 
C 179.000704 153.014977 178.549833 152.82822 178.079773 152.82822 
C 177.609712 152.82822 177.158841 153.014977 176.826459 153.34736 
C 176.494076 153.679743 176.307319 154.130614 176.307319 154.600674 
C 176.307319 155.070734 176.494076 155.521605 176.826459 155.853988 
C 177.158841 156.186371 177.609712 156.373128 178.079773 156.373128 
z
" style="fill:#ee7733;stroke:#ee7733;stroke-width:0.886227;"/>
    <path clip-path="url(#p953338c3ca)" d="M 186.196136 140.12846 
C 186.666197 140.12846 187.117068 139.941703 187.449451 139.60932 
C 187.781833 139.276937 187.96859 138.826066 187.96859 138.356006 
C 187.96859 137.885946 187.781833 137.435075 187.449451 137.102692 
C 187.117068 136.770309 186.666197 136.583552 186.196136 136.583552 
C 185.726076 136.583552 185.275205 136.770309 184.942822 137.102692 
C 184.610439 137.435075 184.423683 137.885946 184.423683 138.356006 
C 184.423683 138.826066 184.610439 139.276937 184.942822 139.60932 
C 185.275205 139.941703 185.726076 140.12846 186.196136 140.12846 
z
" style="fill:#ee7733;stroke:#ee7733;stroke-width:0.886227;"/>
    <path clip-path="url(#p953338c3ca)" d="M 194.3125 165.931241 
C 194.78256 165.931241 195.233431 165.744484 195.565814 165.412101 
C 195.898197 165.079718 196.084954 164.628847 196.084954 164.158787 
C 196.084954 163.688727 195.898197 163.237856 195.565814 162.905473 
C 195.233431 162.57309 194.78256 162.386333 194.3125 162.386333 
C 193.84244 162.386333 193.391569 162.57309 193.059186 162.905473 
C 192.726803 163.237856 192.540046 163.688727 192.540046 164.158787 
C 192.540046 164.628847 192.726803 165.079718 193.059186 165.412101 
C 193.391569 165.744484 193.84244 165.931241 194.3125 165.931241 
z
" style="fill:#ee7733;stroke:#ee7733;stroke-width:0.886227;"/>
    <path clip-path="url(#p953338c3ca)" d="M 202.428864 140.063816 
C 202.898924 140.063816 203.349795 139.877059 203.682178 139.544676 
C 204.014561 139.212294 204.201317 138.761422 204.201317 138.291362 
C 204.201317 137.821302 204.014561 137.370431 203.682178 137.038048 
C 203.349795 136.705665 202.898924 136.518908 202.428864 136.518908 
C 201.958803 136.518908 201.507932 136.705665 201.175549 137.038048 
C 200.843167 137.370431 200.65641 137.821302 200.65641 138.291362 
C 200.65641 138.761422 200.843167 139.212294 201.175549 139.544676 
C 201.507932 139.877059 201.958803 140.063816 202.428864 140.063816 
z
" style="fill:#ee7733;stroke:#ee7733;stroke-width:0.886227;"/>
    <path clip-path="url(#p953338c3ca)" d="M 210.545227 164.242928 
C 211.015288 164.242928 211.466159 164.056171 211.798541 163.723788 
C 212.130924 163.391405 212.317681 162.940534 212.317681 162.470474 
C 212.317681 162.000413 212.130924 161.549542 211.798541 161.21716 
C 211.466159 160.884777 211.015288 160.69802 210.545227 160.69802 
C 210.075167 160.69802 209.624296 160.884777 209.291913 161.21716 
C 208.95953 161.549542 208.772773 162.000413 208.772773 162.470474 
C 208.772773 162.940534 208.95953 163.391405 209.291913 163.723788 
C 209.624296 164.056171 210.075167 164.242928 210.545227 164.242928 
z
" style="fill:#ee7733;stroke:#ee7733;stroke-width:0.886227;"/>
    <path clip-path="url(#p953338c3ca)" d="M 218.661591 142.702987 
C 219.131651 142.702987 219.582522 142.51623 219.914905 142.183847 
C 220.247288 141.851465 220.434045 141.400594 220.434045 140.930533 
C 220.434045 140.460473 220.247288 140.009602 219.914905 139.677219 
C 219.582522 139.344836 219.131651 139.158079 218.661591 139.158079 
C 218.191531 139.158079 217.74066 139.344836 217.408277 139.677219 
C 217.075894 140.009602 216.889137 140.460473 216.889137 140.930533 
C 216.889137 141.400594 217.075894 141.851465 217.408277 142.183847 
C 217.74066 142.51623 218.191531 142.702987 218.661591 142.702987 
z
" style="fill:#ee7733;stroke:#ee7733;stroke-width:0.886227;"/>
    <path clip-path="url(#p953338c3ca)" d="M 226.777955 170.655977 
C 227.248015 170.655977 227.698886 170.46922 228.031269 170.136838 
C 228.363651 169.804455 228.550408 169.353584 228.550408 168.883523 
C 228.550408 168.413463 228.363651 167.962592 228.031269 167.630209 
C 227.698886 167.297827 227.248015 167.11107 226.777955 167.11107 
C 226.307894 167.11107 225.857023 167.297827 225.52464 167.630209 
C 225.192258 167.962592 225.005501 168.413463 225.005501 168.883523 
C 225.005501 169.353584 225.192258 169.804455 225.52464 170.136838 
C 225.857023 170.46922 226.307894 170.655977 226.777955 170.655977 
z
" style="fill:#ee7733;stroke:#ee7733;stroke-width:0.886227;"/>
    <path clip-path="url(#p953338c3ca)" d="M 234.894318 166.635898 
C 235.364378 166.635898 235.81525 166.449141 236.147632 166.116758 
C 236.480015 165.784375 236.666772 165.333504 236.666772 164.863444 
C 236.666772 164.393384 236.480015 163.942513 236.147632 163.61013 
C 235.81525 163.277747 235.364378 163.09099 234.894318 163.09099 
C 234.424258 163.09099 233.973387 163.277747 233.641004 163.61013 
C 233.308621 163.942513 233.121864 164.393384 233.121864 164.863444 
C 233.121864 165.333504 233.308621 165.784375 233.641004 166.116758 
C 233.973387 166.449141 234.424258 166.635898 234.894318 166.635898 
z
" style="fill:#ee7733;stroke:#ee7733;stroke-width:0.886227;"/>
    <path clip-path="url(#p953338c3ca)" d="M 243.010682 154.808231 
C 243.480742 154.808231 243.931613 154.621474 244.263996 154.289091 
C 244.596379 153.956708 244.783136 153.505837 244.783136 153.035777 
C 244.783136 152.565717 244.596379 152.114845 244.263996 151.782463 
C 243.931613 151.45008 243.480742 151.263323 243.010682 151.263323 
C 242.540622 151.263323 242.08975 151.45008 241.757368 151.782463 
C 241.424985 152.114845 241.238228 152.565717 241.238228 153.035777 
C 241.238228 153.505837 241.424985 153.956708 241.757368 154.289091 
C 242.08975 154.621474 242.540622 154.808231 243.010682 154.808231 
z
" style="fill:#ee7733;stroke:#ee7733;stroke-width:0.886227;"/>
    <path clip-path="url(#p953338c3ca)" d="M 251.127045 146.846784 
C 251.597106 146.846784 252.047977 146.660027 252.38036 146.327645 
C 252.712742 145.995262 252.899499 145.544391 252.899499 145.07433 
C 252.899499 144.60427 252.712742 144.153399 252.38036 143.821016 
C 252.047977 143.488634 251.597106 143.301877 251.127045 143.301877 
C 250.656985 143.301877 250.206114 143.488634 249.873731 143.821016 
C 249.541349 144.153399 249.354592 144.60427 249.354592 145.07433 
C 249.354592 145.544391 249.541349 145.995262 249.873731 146.327645 
C 250.206114 146.660027 250.656985 146.846784 251.127045 146.846784 
z
" style="fill:#ee7733;stroke:#ee7733;stroke-width:0.886227;"/>
    <path clip-path="url(#p953338c3ca)" d="M 259.243409 141.385822 
C 259.713469 141.385822 260.16434 141.199065 260.496723 140.866682 
C 260.829106 140.534299 261.015863 140.083428 261.015863 139.613368 
C 261.015863 139.143308 260.829106 138.692437 260.496723 138.360054 
C 260.16434 138.027671 259.713469 137.840914 259.243409 137.840914 
C 258.773349 137.840914 258.322478 138.027671 257.990095 138.360054 
C 257.657712 138.692437 257.470955 139.143308 257.470955 139.613368 
C 257.470955 140.083428 257.657712 140.534299 257.990095 140.866682 
C 258.322478 141.199065 258.773349 141.385822 259.243409 141.385822 
z
" style="fill:#ee7733;stroke:#ee7733;stroke-width:0.886227;"/>
    <path clip-path="url(#p953338c3ca)" d="M 267.359773 145.865355 
C 267.829833 145.865355 268.280704 145.678598 268.613087 145.346216 
C 268.94547 145.013833 269.132227 144.562962 269.132227 144.092902 
C 269.132227 143.622841 268.94547 143.17197 268.613087 142.839587 
C 268.280704 142.507205 267.829833 142.320448 267.359773 142.320448 
C 266.889712 142.320448 266.438841 142.507205 266.106459 142.839587 
C 265.774076 143.17197 265.587319 143.622841 265.587319 144.092902 
C 265.587319 144.562962 265.774076 145.013833 266.106459 145.346216 
C 266.438841 145.678598 266.889712 145.865355 267.359773 145.865355 
z
" style="fill:#ee7733;stroke:#ee7733;stroke-width:0.886227;"/>
    <path clip-path="url(#p953338c3ca)" d="M 275.476136 144.394549 
C 275.946197 144.394549 276.397068 144.207792 276.729451 143.875409 
C 277.061833 143.543027 277.24859 143.092155 277.24859 142.622095 
C 277.24859 142.152035 277.061833 141.701164 276.729451 141.368781 
C 276.397068 141.036398 275.946197 140.849641 275.476136 140.849641 
C 275.006076 140.849641 274.555205 141.036398 274.222822 141.368781 
C 273.890439 141.701164 273.703683 142.152035 273.703683 142.622095 
C 273.703683 143.092155 273.890439 143.543027 274.222822 143.875409 
C 274.555205 144.207792 275.006076 144.394549 275.476136 144.394549 
z
" style="fill:#ee7733;stroke:#ee7733;stroke-width:0.886227;"/>
    <path clip-path="url(#p953338c3ca)" d="M 283.5925 137.18051 
C 284.06256 137.18051 284.513431 136.993753 284.845814 136.66137 
C 285.178197 136.328987 285.364954 135.878116 285.364954 135.408056 
C 285.364954 134.937996 285.178197 134.487124 284.845814 134.154742 
C 284.513431 133.822359 284.06256 133.635602 283.5925 133.635602 
C 283.12244 133.635602 282.671569 133.822359 282.339186 134.154742 
C 282.006803 134.487124 281.820046 134.937996 281.820046 135.408056 
C 281.820046 135.878116 282.006803 136.328987 282.339186 136.66137 
C 282.671569 136.993753 283.12244 137.18051 283.5925 137.18051 
z
" style="fill:#ee7733;stroke:#ee7733;stroke-width:0.886227;"/>
    <path clip-path="url(#p953338c3ca)" d="M 291.708864 147.652277 
C 292.178924 147.652277 292.629795 147.46552 292.962178 147.133137 
C 293.294561 146.800754 293.481317 146.349883 293.481317 145.879823 
C 293.481317 145.409763 293.294561 144.958891 292.962178 144.626509 
C 292.629795 144.294126 292.178924 144.107369 291.708864 144.107369 
C 291.238803 144.107369 290.787932 144.294126 290.455549 144.626509 
C 290.123167 144.958891 289.93641 145.409763 289.93641 145.879823 
C 289.93641 146.349883 290.123167 146.800754 290.455549 147.133137 
C 290.787932 147.46552 291.238803 147.652277 291.708864 147.652277 
z
" style="fill:#ee7733;stroke:#ee7733;stroke-width:0.886227;"/>
    <path clip-path="url(#p953338c3ca)" d="M 299.825227 145.735767 
C 300.295288 145.735767 300.746159 145.54901 301.078541 145.216627 
C 301.410924 144.884244 301.597681 144.433373 301.597681 143.963313 
C 301.597681 143.493253 301.410924 143.042382 301.078541 142.709999 
C 300.746159 142.377616 300.295288 142.190859 299.825227 142.190859 
C 299.355167 142.190859 298.904296 142.377616 298.571913 142.709999 
C 298.23953 143.042382 298.052773 143.493253 298.052773 143.963313 
C 298.052773 144.433373 298.23953 144.884244 298.571913 145.216627 
C 298.904296 145.54901 299.355167 145.735767 299.825227 145.735767 
z
" style="fill:#ee7733;stroke:#ee7733;stroke-width:0.886227;"/>
    <path clip-path="url(#p953338c3ca)" d="M 307.941591 145.290721 
C 308.411651 145.290721 308.862522 145.103964 309.194905 144.771582 
C 309.527288 144.439199 309.714045 143.988328 309.714045 143.518267 
C 309.714045 143.048207 309.527288 142.597336 309.194905 142.264953 
C 308.862522 141.93257 308.411651 141.745814 307.941591 141.745814 
C 307.471531 141.745814 307.02066 141.93257 306.688277 142.264953 
C 306.355894 142.597336 306.169137 143.048207 306.169137 143.518267 
C 306.169137 143.988328 306.355894 144.439199 306.688277 144.771582 
C 307.02066 145.103964 307.471531 145.290721 307.941591 145.290721 
z
" style="fill:#ee7733;stroke:#ee7733;stroke-width:0.886227;"/>
    <path clip-path="url(#p953338c3ca)" d="M 316.057955 146.006002 
C 316.528015 146.006002 316.978886 145.819245 317.311269 145.486862 
C 317.643651 145.154479 317.830408 144.703608 317.830408 144.233548 
C 317.830408 143.763488 317.643651 143.312617 317.311269 142.980234 
C 316.978886 142.647851 316.528015 142.461094 316.057955 142.461094 
C 315.587894 142.461094 315.137023 142.647851 314.80464 142.980234 
C 314.472258 143.312617 314.285501 143.763488 314.285501 144.233548 
C 314.285501 144.703608 314.472258 145.154479 314.80464 145.486862 
C 315.137023 145.819245 315.587894 146.006002 316.057955 146.006002 
z
" style="fill:#ee7733;stroke:#ee7733;stroke-width:0.886227;"/>
    <path clip-path="url(#p953338c3ca)" d="M 324.174318 150.227561 
C 324.644378 150.227561 325.09525 150.040804 325.427632 149.708422 
C 325.760015 149.376039 325.946772 148.925168 325.946772 148.455107 
C 325.946772 147.985047 325.760015 147.534176 325.427632 147.201793 
C 325.09525 146.869411 324.644378 146.682654 324.174318 146.682654 
C 323.704258 146.682654 323.253387 146.869411 322.921004 147.201793 
C 322.588621 147.534176 322.401864 147.985047 322.401864 148.455107 
C 322.401864 148.925168 322.588621 149.376039 322.921004 149.708422 
C 323.253387 150.040804 323.704258 150.227561 324.174318 150.227561 
z
" style="fill:#ee7733;stroke:#ee7733;stroke-width:0.886227;"/>
    <path clip-path="url(#p953338c3ca)" d="M 332.290682 147.167652 
C 332.760742 147.167652 333.211613 146.980896 333.543996 146.648513 
C 333.876379 146.31613 334.063136 145.865259 334.063136 145.395199 
C 334.063136 144.925138 333.876379 144.474267 333.543996 144.141884 
C 333.211613 143.809502 332.760742 143.622745 332.290682 143.622745 
C 331.820622 143.622745 331.36975 143.809502 331.037368 144.141884 
C 330.704985 144.474267 330.518228 144.925138 330.518228 145.395199 
C 330.518228 145.865259 330.704985 146.31613 331.037368 146.648513 
C 331.36975 146.980896 331.820622 147.167652 332.290682 147.167652 
z
" style="fill:#ee7733;stroke:#ee7733;stroke-width:0.886227;"/>
    <path clip-path="url(#p953338c3ca)" d="M 340.407045 145.506202 
C 340.877106 145.506202 341.327977 145.319445 341.66036 144.987062 
C 341.992742 144.654679 342.179499 144.203808 342.179499 143.733748 
C 342.179499 143.263687 341.992742 142.812816 341.66036 142.480434 
C 341.327977 142.148051 340.877106 141.961294 340.407045 141.961294 
C 339.936985 141.961294 339.486114 142.148051 339.153731 142.480434 
C 338.821349 142.812816 338.634592 143.263687 338.634592 143.733748 
C 338.634592 144.203808 338.821349 144.654679 339.153731 144.987062 
C 339.486114 145.319445 339.936985 145.506202 340.407045 145.506202 
z
" style="fill:#ee7733;stroke:#ee7733;stroke-width:0.886227;"/>
    <path clip-path="url(#p953338c3ca)" d="M 348.523409 143.876986 
C 348.993469 143.876986 349.44434 143.690229 349.776723 143.357846 
C 350.109106 143.025464 350.295863 142.574593 350.295863 142.104532 
C 350.295863 141.634472 350.109106 141.183601 349.776723 140.851218 
C 349.44434 140.518835 348.993469 140.332078 348.523409 140.332078 
C 348.053349 140.332078 347.602478 140.518835 347.270095 140.851218 
C 346.937712 141.183601 346.750955 141.634472 346.750955 142.104532 
C 346.750955 142.574593 346.937712 143.025464 347.270095 143.357846 
C 347.602478 143.690229 348.053349 143.876986 348.523409 143.876986 
z
" style="fill:#ee7733;stroke:#ee7733;stroke-width:0.886227;"/>
    <path clip-path="url(#p953338c3ca)" d="M 356.639773 141.835393 
C 357.109833 141.835393 357.560704 141.648636 357.893087 141.316254 
C 358.22547 140.983871 358.412227 140.533 358.412227 140.06294 
C 358.412227 139.592879 358.22547 139.142008 357.893087 138.809625 
C 357.560704 138.477243 357.109833 138.290486 356.639773 138.290486 
C 356.169712 138.290486 355.718841 138.477243 355.386459 138.809625 
C 355.054076 139.142008 354.867319 139.592879 354.867319 140.06294 
C 354.867319 140.533 355.054076 140.983871 355.386459 141.316254 
C 355.718841 141.648636 356.169712 141.835393 356.639773 141.835393 
z
" style="fill:#ee7733;stroke:#ee7733;stroke-width:0.886227;"/>
    <path clip-path="url(#p953338c3ca)" d="M 364.756136 140.435602 
C 365.226197 140.435602 365.677068 140.248845 366.009451 139.916462 
C 366.341833 139.584079 366.52859 139.133208 366.52859 138.663148 
C 366.52859 138.193088 366.341833 137.742217 366.009451 137.409834 
C 365.677068 137.077451 365.226197 136.890694 364.756136 136.890694 
C 364.286076 136.890694 363.835205 137.077451 363.502822 137.409834 
C 363.170439 137.742217 362.983683 138.193088 362.983683 138.663148 
C 362.983683 139.133208 363.170439 139.584079 363.502822 139.916462 
C 363.835205 140.248845 364.286076 140.435602 364.756136 140.435602 
z
" style="fill:#ee7733;stroke:#ee7733;stroke-width:0.886227;"/>
    <path clip-path="url(#p953338c3ca)" d="M 372.8725 138.620905 
C 373.34256 138.620905 373.793431 138.434148 374.125814 138.101765 
C 374.458197 137.769382 374.644954 137.318511 374.644954 136.848451 
C 374.644954 136.378391 374.458197 135.92752 374.125814 135.595137 
C 373.793431 135.262754 373.34256 135.075997 372.8725 135.075997 
C 372.40244 135.075997 371.951569 135.262754 371.619186 135.595137 
C 371.286803 135.92752 371.100046 136.378391 371.100046 136.848451 
C 371.100046 137.318511 371.286803 137.769382 371.619186 138.101765 
C 371.951569 138.434148 372.40244 138.620905 372.8725 138.620905 
z
" style="fill:#ee7733;stroke:#ee7733;stroke-width:0.886227;"/>
    <path clip-path="url(#p953338c3ca)" d="M 380.988864 135.980122 
C 381.458924 135.980122 381.909795 135.793365 382.242178 135.460983 
C 382.574561 135.1286 382.761317 134.677729 382.761317 134.207668 
C 382.761317 133.737608 382.574561 133.286737 382.242178 132.954354 
C 381.909795 132.621972 381.458924 132.435215 380.988864 132.435215 
C 380.518803 132.435215 380.067932 132.621972 379.735549 132.954354 
C 379.403167 133.286737 379.21641 133.737608 379.21641 134.207668 
C 379.21641 134.677729 379.403167 135.1286 379.735549 135.460983 
C 380.067932 135.793365 380.518803 135.980122 380.988864 135.980122 
z
" style="fill:#ee7733;stroke:#ee7733;stroke-width:0.886227;"/>
    <path clip-path="url(#p953338c3ca)" d="M 389.105227 136.294186 
C 389.575288 136.294186 390.026159 136.107429 390.358541 135.775046 
C 390.690924 135.442663 390.877681 134.991792 390.877681 134.521732 
C 390.877681 134.051672 390.690924 133.600801 390.358541 133.268418 
C 390.026159 132.936035 389.575288 132.749278 389.105227 132.749278 
C 388.635167 132.749278 388.184296 132.936035 387.851913 133.268418 
C 387.51953 133.600801 387.332773 134.051672 387.332773 134.521732 
C 387.332773 134.991792 387.51953 135.442663 387.851913 135.775046 
C 388.184296 136.107429 388.635167 136.294186 389.105227 136.294186 
z
" style="fill:#ee7733;stroke:#ee7733;stroke-width:0.886227;"/>
    <path clip-path="url(#p953338c3ca)" d="M 397.221591 133.070341 
C 397.691651 133.070341 398.142522 132.883584 398.474905 132.551201 
C 398.807288 132.218818 398.994045 131.767947 398.994045 131.297887 
C 398.994045 130.827827 398.807288 130.376956 398.474905 130.044573 
C 398.142522 129.71219 397.691651 129.525433 397.221591 129.525433 
C 396.751531 129.525433 396.30066 129.71219 395.968277 130.044573 
C 395.635894 130.376956 395.449137 130.827827 395.449137 131.297887 
C 395.449137 131.767947 395.635894 132.218818 395.968277 132.551201 
C 396.30066 132.883584 396.751531 133.070341 397.221591 133.070341 
z
" style="fill:#ee7733;stroke:#ee7733;stroke-width:0.886227;"/>
    <path clip-path="url(#p953338c3ca)" d="M 405.337955 124.196424 
C 405.808015 124.196424 406.258886 124.009667 406.591269 123.677284 
C 406.923651 123.344901 407.110408 122.89403 407.110408 122.42397 
C 407.110408 121.95391 406.923651 121.503039 406.591269 121.170656 
C 406.258886 120.838273 405.808015 120.651516 405.337955 120.651516 
C 404.867894 120.651516 404.417023 120.838273 404.08464 121.170656 
C 403.752258 121.503039 403.565501 121.95391 403.565501 122.42397 
C 403.565501 122.89403 403.752258 123.344901 404.08464 123.677284 
C 404.417023 124.009667 404.867894 124.196424 405.337955 124.196424 
z
" style="fill:#ee7733;stroke:#ee7733;stroke-width:0.886227;"/>
    <path clip-path="url(#p953338c3ca)" d="M 413.454318 119.894549 
C 413.924378 119.894549 414.37525 119.707792 414.707632 119.375409 
C 415.040015 119.043026 415.226772 118.592155 415.226772 118.122095 
C 415.226772 117.652035 415.040015 117.201164 414.707632 116.868781 
C 414.37525 116.536398 413.924378 116.349641 413.454318 116.349641 
C 412.984258 116.349641 412.533387 116.536398 412.201004 116.868781 
C 411.868621 117.201164 411.681864 117.652035 411.681864 118.122095 
C 411.681864 118.592155 411.868621 119.043026 412.201004 119.375409 
C 412.533387 119.707792 412.984258 119.894549 413.454318 119.894549 
z
" style="fill:#ee7733;stroke:#ee7733;stroke-width:0.886227;"/>
    <path clip-path="url(#p953338c3ca)" d="M 421.570682 115.34898 
C 422.040742 115.34898 422.491613 115.162223 422.823996 114.82984 
C 423.156379 114.497457 423.343136 114.046586 423.343136 113.576526 
C 423.343136 113.106465 423.156379 112.655594 422.823996 112.323212 
C 422.491613 111.990829 422.040742 111.804072 421.570682 111.804072 
C 421.100622 111.804072 420.64975 111.990829 420.317368 112.323212 
C 419.984985 112.655594 419.798228 113.106465 419.798228 113.576526 
C 419.798228 114.046586 419.984985 114.497457 420.317368 114.82984 
C 420.64975 115.162223 421.100622 115.34898 421.570682 115.34898 
z
" style="fill:#ee7733;stroke:#ee7733;stroke-width:0.886227;"/>
    <path clip-path="url(#p953338c3ca)" d="M 429.687045 109.241687 
C 430.157106 109.241687 430.607977 109.05493 430.94036 108.722547 
C 431.272742 108.390165 431.459499 107.939293 431.459499 107.469233 
C 431.459499 106.999173 431.272742 106.548302 430.94036 106.215919 
C 430.607977 105.883536 430.157106 105.696779 429.687045 105.696779 
C 429.216985 105.696779 428.766114 105.883536 428.433731 106.215919 
C 428.101349 106.548302 427.914592 106.999173 427.914592 107.469233 
C 427.914592 107.939293 428.101349 108.390165 428.433731 108.722547 
C 428.766114 109.05493 429.216985 109.241687 429.687045 109.241687 
z
" style="fill:#ee7733;stroke:#ee7733;stroke-width:0.886227;"/>
    <path clip-path="url(#p953338c3ca)" d="M 437.803409 103.734531 
C 438.273469 103.734531 438.72434 103.547774 439.056723 103.215391 
C 439.389106 102.883008 439.575863 102.432137 439.575863 101.962077 
C 439.575863 101.492017 439.389106 101.041146 439.056723 100.708763 
C 438.72434 100.37638 438.273469 100.189623 437.803409 100.189623 
C 437.333349 100.189623 436.882478 100.37638 436.550095 100.708763 
C 436.217712 101.041146 436.030955 101.492017 436.030955 101.962077 
C 436.030955 102.432137 436.217712 102.883008 436.550095 103.215391 
C 436.882478 103.547774 437.333349 103.734531 437.803409 103.734531 
z
" style="fill:#ee7733;stroke:#ee7733;stroke-width:0.886227;"/>
    <path clip-path="url(#p953338c3ca)" d="M 445.919773 100.660204 
C 446.389833 100.660204 446.840704 100.473447 447.173087 100.141064 
C 447.50547 99.808681 447.692227 99.35781 447.692227 98.88775 
C 447.692227 98.41769 447.50547 97.966819 447.173087 97.634436 
C 446.840704 97.302053 446.389833 97.115296 445.919773 97.115296 
C 445.449712 97.115296 444.998841 97.302053 444.666459 97.634436 
C 444.334076 97.966819 444.147319 98.41769 444.147319 98.88775 
C 444.147319 99.35781 444.334076 99.808681 444.666459 100.141064 
C 444.998841 100.473447 445.449712 100.660204 445.919773 100.660204 
z
" style="fill:#ee7733;stroke:#ee7733;stroke-width:0.886227;"/>
    <path clip-path="url(#p953338c3ca)" d="M 454.036136 94.391691 
C 454.506197 94.391691 454.957068 94.204934 455.289451 93.872551 
C 455.621833 93.540169 455.80859 93.089298 455.80859 92.619237 
C 455.80859 92.149177 455.621833 91.698306 455.289451 91.365923 
C 454.957068 91.03354 454.506197 90.846783 454.036136 90.846783 
C 453.566076 90.846783 453.115205 91.03354 452.782822 91.365923 
C 452.450439 91.698306 452.263683 92.149177 452.263683 92.619237 
C 452.263683 93.089298 452.450439 93.540169 452.782822 93.872551 
C 453.115205 94.204934 453.566076 94.391691 454.036136 94.391691 
z
" style="fill:#ee7733;stroke:#ee7733;stroke-width:0.886227;"/>
    <path clip-path="url(#p953338c3ca)" d="M 462.1525 98.559657 
C 462.62256 98.559657 463.073431 98.3729 463.405814 98.040517 
C 463.738197 97.708135 463.924954 97.257264 463.924954 96.787203 
C 463.924954 96.317143 463.738197 95.866272 463.405814 95.533889 
C 463.073431 95.201506 462.62256 95.014749 462.1525 95.014749 
C 461.68244 95.014749 461.231569 95.201506 460.899186 95.533889 
C 460.566803 95.866272 460.380046 96.317143 460.380046 96.787203 
C 460.380046 97.257264 460.566803 97.708135 460.899186 98.040517 
C 461.231569 98.3729 461.68244 98.559657 462.1525 98.559657 
z
" style="fill:#ee7733;stroke:#ee7733;stroke-width:0.886227;"/>
    <path clip-path="url(#p953338c3ca)" d="M 470.268864 101.007043 
C 470.738924 101.007043 471.189795 100.820286 471.522178 100.487904 
C 471.854561 100.155521 472.041317 99.70465 472.041317 99.234589 
C 472.041317 98.764529 471.854561 98.313658 471.522178 97.981275 
C 471.189795 97.648893 470.738924 97.462136 470.268864 97.462136 
C 469.798803 97.462136 469.347932 97.648893 469.015549 97.981275 
C 468.683167 98.313658 468.49641 98.764529 468.49641 99.234589 
C 468.49641 99.70465 468.683167 100.155521 469.015549 100.487904 
C 469.347932 100.820286 469.798803 101.007043 470.268864 101.007043 
z
" style="fill:#ee7733;stroke:#ee7733;stroke-width:0.886227;"/>
    <path clip-path="url(#p953338c3ca)" d="M 478.385227 100.392351 
C 478.855288 100.392351 479.306159 100.205594 479.638541 99.873212 
C 479.970924 99.540829 480.157681 99.089958 480.157681 98.619898 
C 480.157681 98.149837 479.970924 97.698966 479.638541 97.366583 
C 479.306159 97.034201 478.855288 96.847444 478.385227 96.847444 
C 477.915167 96.847444 477.464296 97.034201 477.131913 97.366583 
C 476.79953 97.698966 476.612773 98.149837 476.612773 98.619898 
C 476.612773 99.089958 476.79953 99.540829 477.131913 99.873212 
C 477.464296 100.205594 477.915167 100.392351 478.385227 100.392351 
z
" style="fill:#ee7733;stroke:#ee7733;stroke-width:0.886227;"/>
   </g>
  </g>
 </g>
 <defs>
  <clipPath id="p953338c3ca">
   <rect height="221.76" width="446.4" x="60.3925" y="7.2"/>
  </clipPath>
 </defs>
</svg>
