<?xml version="1.0" encoding="utf-8" standalone="no"?>
<!DOCTYPE svg PUBLIC "-//W3C//DTD SVG 1.1//EN"
  "http://www.w3.org/Graphics/SVG/1.1/DTD/svg11.dtd">
<!-- Created with matplotlib (https://matplotlib.org/) -->
<svg height="264.672687pt" version="1.1" viewBox="0 0 498.717 264.672687" width="498.717pt" xmlns="http://www.w3.org/2000/svg" xmlns:xlink="http://www.w3.org/1999/xlink">
 <defs>
  <style type="text/css">
*{stroke-linecap:butt;stroke-linejoin:round;}
  </style>
 </defs>
 <g id="figure_1">
  <g id="patch_1">
   <path d="M 0 264.672687 
L 498.717 264.672687 
L 498.717 0 
L 0 0 
z
" style="fill:#ffffff;stroke:#ffffff;stroke-linejoin:miter;"/>
  </g>
  <g id="axes_1">
   <g id="patch_2">
    <path d="M 45.117 228.96 
L 491.517 228.96 
L 491.517 7.2 
L 45.117 7.2 
z
" style="fill:#ffffff;"/>
   </g>
   <g id="matplotlib.axis_1">
    <g id="xtick_1">
     <g id="line2d_1">
      <path d="M 65.407909 228.96 
" style="fill:none;stroke:#000000;stroke-width:1.5;"/>
      <defs>
       <path d="M 0 0 
L 0 2.75 
" id="m855339fec4" style="stroke:#000000;"/>
      </defs>
      <g>
       <use style="stroke:#000000;" x="65.407909" xlink:href="#m855339fec4" y="228.96"/>
      </g>
     </g>
     <g id="text_1">
      <!-- 1970 -->
      <defs>
       <path d="M 12.40625 8.296875 
L 28.515625 8.296875 
L 28.515625 63.921875 
L 10.984375 60.40625 
L 10.984375 69.390625 
L 28.421875 72.90625 
L 38.28125 72.90625 
L 38.28125 8.296875 
L 54.390625 8.296875 
L 54.390625 0 
L 12.40625 0 
z
" id="DejaVuSans-49"/>
       <path d="M 10.984375 1.515625 
L 10.984375 10.5 
Q 14.703125 8.734375 18.5 7.8125 
Q 22.3125 6.890625 25.984375 6.890625 
Q 35.75 6.890625 40.890625 13.453125 
Q 46.046875 20.015625 46.78125 33.40625 
Q 43.953125 29.203125 39.59375 26.953125 
Q 35.25 24.703125 29.984375 24.703125 
Q 19.046875 24.703125 12.671875 31.3125 
Q 6.296875 37.9375 6.296875 49.421875 
Q 6.296875 60.640625 12.9375 67.421875 
Q 19.578125 74.21875 30.609375 74.21875 
Q 43.265625 74.21875 49.921875 64.515625 
Q 56.59375 54.828125 56.59375 36.375 
Q 56.59375 19.140625 48.40625 8.859375 
Q 40.234375 -1.421875 26.421875 -1.421875 
Q 22.703125 -1.421875 18.890625 -0.6875 
Q 15.09375 0.046875 10.984375 1.515625 
z
M 30.609375 32.421875 
Q 37.25 32.421875 41.125 36.953125 
Q 45.015625 41.5 45.015625 49.421875 
Q 45.015625 57.28125 41.125 61.84375 
Q 37.25 66.40625 30.609375 66.40625 
Q 23.96875 66.40625 20.09375 61.84375 
Q 16.21875 57.28125 16.21875 49.421875 
Q 16.21875 41.5 20.09375 36.953125 
Q 23.96875 32.421875 30.609375 32.421875 
z
" id="DejaVuSans-57"/>
       <path d="M 8.203125 72.90625 
L 55.078125 72.90625 
L 55.078125 68.703125 
L 28.609375 0 
L 18.3125 0 
L 43.21875 64.59375 
L 8.203125 64.59375 
z
" id="DejaVuSans-55"/>
       <path d="M 31.78125 66.40625 
Q 24.171875 66.40625 20.328125 58.90625 
Q 16.5 51.421875 16.5 36.375 
Q 16.5 21.390625 20.328125 13.890625 
Q 24.171875 6.390625 31.78125 6.390625 
Q 39.453125 6.390625 43.28125 13.890625 
Q 47.125 21.390625 47.125 36.375 
Q 47.125 51.421875 43.28125 58.90625 
Q 39.453125 66.40625 31.78125 66.40625 
z
M 31.78125 74.21875 
Q 44.046875 74.21875 50.515625 64.515625 
Q 56.984375 54.828125 56.984375 36.375 
Q 56.984375 17.96875 50.515625 8.265625 
Q 44.046875 -1.421875 31.78125 -1.421875 
Q 19.53125 -1.421875 13.0625 8.265625 
Q 6.59375 17.96875 6.59375 36.375 
Q 6.59375 54.828125 13.0625 64.515625 
Q 19.53125 74.21875 31.78125 74.21875 
z
" id="DejaVuSans-48"/>
      </defs>
      <g transform="translate(54.209909 240.596625)scale(0.088 -0.088)">
       <use xlink:href="#DejaVuSans-49"/>
       <use x="63.623047" xlink:href="#DejaVuSans-57"/>
       <use x="127.246094" xlink:href="#DejaVuSans-55"/>
       <use x="190.869141" xlink:href="#DejaVuSans-48"/>
      </g>
     </g>
    </g>
    <g id="xtick_2">
     <g id="line2d_2">
      <path d="M 146.571545 228.96 
" style="fill:none;stroke:#000000;stroke-width:1.5;"/>
      <g>
       <use style="stroke:#000000;" x="146.571545" xlink:href="#m855339fec4" y="228.96"/>
      </g>
     </g>
     <g id="text_2">
      <!-- 1980 -->
      <defs>
       <path d="M 31.78125 34.625 
Q 24.75 34.625 20.71875 30.859375 
Q 16.703125 27.09375 16.703125 20.515625 
Q 16.703125 13.921875 20.71875 10.15625 
Q 24.75 6.390625 31.78125 6.390625 
Q 38.8125 6.390625 42.859375 10.171875 
Q 46.921875 13.96875 46.921875 20.515625 
Q 46.921875 27.09375 42.890625 30.859375 
Q 38.875 34.625 31.78125 34.625 
z
M 21.921875 38.8125 
Q 15.578125 40.375 12.03125 44.71875 
Q 8.5 49.078125 8.5 55.328125 
Q 8.5 64.0625 14.71875 69.140625 
Q 20.953125 74.21875 31.78125 74.21875 
Q 42.671875 74.21875 48.875 69.140625 
Q 55.078125 64.0625 55.078125 55.328125 
Q 55.078125 49.078125 51.53125 44.71875 
Q 48 40.375 41.703125 38.8125 
Q 48.828125 37.15625 52.796875 32.3125 
Q 56.78125 27.484375 56.78125 20.515625 
Q 56.78125 9.90625 50.3125 4.234375 
Q 43.84375 -1.421875 31.78125 -1.421875 
Q 19.734375 -1.421875 13.25 4.234375 
Q 6.78125 9.90625 6.78125 20.515625 
Q 6.78125 27.484375 10.78125 32.3125 
Q 14.796875 37.15625 21.921875 38.8125 
z
M 18.3125 54.390625 
Q 18.3125 48.734375 21.84375 45.5625 
Q 25.390625 42.390625 31.78125 42.390625 
Q 38.140625 42.390625 41.71875 45.5625 
Q 45.3125 48.734375 45.3125 54.390625 
Q 45.3125 60.0625 41.71875 63.234375 
Q 38.140625 66.40625 31.78125 66.40625 
Q 25.390625 66.40625 21.84375 63.234375 
Q 18.3125 60.0625 18.3125 54.390625 
z
" id="DejaVuSans-56"/>
      </defs>
      <g transform="translate(135.373545 240.596625)scale(0.088 -0.088)">
       <use xlink:href="#DejaVuSans-49"/>
       <use x="63.623047" xlink:href="#DejaVuSans-57"/>
       <use x="127.246094" xlink:href="#DejaVuSans-56"/>
       <use x="190.869141" xlink:href="#DejaVuSans-48"/>
      </g>
     </g>
    </g>
    <g id="xtick_3">
     <g id="line2d_3">
      <path d="M 227.735182 228.96 
" style="fill:none;stroke:#000000;stroke-width:1.5;"/>
      <g>
       <use style="stroke:#000000;" x="227.735182" xlink:href="#m855339fec4" y="228.96"/>
      </g>
     </g>
     <g id="text_3">
      <!-- 1990 -->
      <g transform="translate(216.537182 240.596625)scale(0.088 -0.088)">
       <use xlink:href="#DejaVuSans-49"/>
       <use x="63.623047" xlink:href="#DejaVuSans-57"/>
       <use x="127.246094" xlink:href="#DejaVuSans-57"/>
       <use x="190.869141" xlink:href="#DejaVuSans-48"/>
      </g>
     </g>
    </g>
    <g id="xtick_4">
     <g id="line2d_4">
      <path d="M 308.898818 228.96 
" style="fill:none;stroke:#000000;stroke-width:1.5;"/>
      <g>
       <use style="stroke:#000000;" x="308.898818" xlink:href="#m855339fec4" y="228.96"/>
      </g>
     </g>
     <g id="text_4">
      <!-- 2000 -->
      <defs>
       <path d="M 19.1875 8.296875 
L 53.609375 8.296875 
L 53.609375 0 
L 7.328125 0 
L 7.328125 8.296875 
Q 12.9375 14.109375 22.625 23.890625 
Q 32.328125 33.6875 34.8125 36.53125 
Q 39.546875 41.84375 41.421875 45.53125 
Q 43.3125 49.21875 43.3125 52.78125 
Q 43.3125 58.59375 39.234375 62.25 
Q 35.15625 65.921875 28.609375 65.921875 
Q 23.96875 65.921875 18.8125 64.3125 
Q 13.671875 62.703125 7.8125 59.421875 
L 7.8125 69.390625 
Q 13.765625 71.78125 18.9375 73 
Q 24.125 74.21875 28.421875 74.21875 
Q 39.75 74.21875 46.484375 68.546875 
Q 53.21875 62.890625 53.21875 53.421875 
Q 53.21875 48.921875 51.53125 44.890625 
Q 49.859375 40.875 45.40625 35.40625 
Q 44.1875 33.984375 37.640625 27.21875 
Q 31.109375 20.453125 19.1875 8.296875 
z
" id="DejaVuSans-50"/>
      </defs>
      <g transform="translate(297.700818 240.596625)scale(0.088 -0.088)">
       <use xlink:href="#DejaVuSans-50"/>
       <use x="63.623047" xlink:href="#DejaVuSans-48"/>
       <use x="127.246094" xlink:href="#DejaVuSans-48"/>
       <use x="190.869141" xlink:href="#DejaVuSans-48"/>
      </g>
     </g>
    </g>
    <g id="xtick_5">
     <g id="line2d_5">
      <path d="M 390.062455 228.96 
" style="fill:none;stroke:#000000;stroke-width:1.5;"/>
      <g>
       <use style="stroke:#000000;" x="390.062455" xlink:href="#m855339fec4" y="228.96"/>
      </g>
     </g>
     <g id="text_5">
      <!-- 2010 -->
      <g transform="translate(378.864455 240.596625)scale(0.088 -0.088)">
       <use xlink:href="#DejaVuSans-50"/>
       <use x="63.623047" xlink:href="#DejaVuSans-48"/>
       <use x="127.246094" xlink:href="#DejaVuSans-49"/>
       <use x="190.869141" xlink:href="#DejaVuSans-48"/>
      </g>
     </g>
    </g>
    <g id="xtick_6">
     <g id="line2d_6">
      <path d="M 471.226091 228.96 
" style="fill:none;stroke:#000000;stroke-width:1.5;"/>
      <g>
       <use style="stroke:#000000;" x="471.226091" xlink:href="#m855339fec4" y="228.96"/>
      </g>
     </g>
     <g id="text_6">
      <!-- 2020 -->
      <g transform="translate(460.028091 240.596625)scale(0.088 -0.088)">
       <use xlink:href="#DejaVuSans-50"/>
       <use x="63.623047" xlink:href="#DejaVuSans-48"/>
       <use x="127.246094" xlink:href="#DejaVuSans-50"/>
       <use x="190.869141" xlink:href="#DejaVuSans-48"/>
      </g>
     </g>
    </g>
    <g id="xtick_7">
     <g id="line2d_7">
      <path d="M 105.989727 228.96 
" style="fill:none;stroke:#000000;stroke-width:1.5;"/>
      <defs>
       <path d="M 0 0 
L 0 1.375 
" id="mb266746dcc" style="stroke:#000000;"/>
      </defs>
      <g>
       <use style="stroke:#000000;" x="105.989727" xlink:href="#mb266746dcc" y="228.96"/>
      </g>
     </g>
    </g>
    <g id="xtick_8">
     <g id="line2d_8">
      <path d="M 187.153364 228.96 
" style="fill:none;stroke:#000000;stroke-width:1.5;"/>
      <g>
       <use style="stroke:#000000;" x="187.153364" xlink:href="#mb266746dcc" y="228.96"/>
      </g>
     </g>
    </g>
    <g id="xtick_9">
     <g id="line2d_9">
      <path d="M 268.317 228.96 
" style="fill:none;stroke:#000000;stroke-width:1.5;"/>
      <g>
       <use style="stroke:#000000;" x="268.317" xlink:href="#mb266746dcc" y="228.96"/>
      </g>
     </g>
    </g>
    <g id="xtick_10">
     <g id="line2d_10">
      <path d="M 349.480636 228.96 
" style="fill:none;stroke:#000000;stroke-width:1.5;"/>
      <g>
       <use style="stroke:#000000;" x="349.480636" xlink:href="#mb266746dcc" y="228.96"/>
      </g>
     </g>
    </g>
    <g id="xtick_11">
     <g id="line2d_11">
      <path d="M 430.644273 228.96 
" style="fill:none;stroke:#000000;stroke-width:1.5;"/>
      <g>
       <use style="stroke:#000000;" x="430.644273" xlink:href="#mb266746dcc" y="228.96"/>
      </g>
     </g>
    </g>
    <g id="text_7">
     <!-- Year -->
     <defs>
      <path d="M -0.203125 72.90625 
L 10.40625 72.90625 
L 30.609375 42.921875 
L 50.6875 72.90625 
L 61.28125 72.90625 
L 35.5 34.71875 
L 35.5 0 
L 25.59375 0 
L 25.59375 34.71875 
z
" id="DejaVuSans-89"/>
      <path d="M 56.203125 29.59375 
L 56.203125 25.203125 
L 14.890625 25.203125 
Q 15.484375 15.921875 20.484375 11.0625 
Q 25.484375 6.203125 34.421875 6.203125 
Q 39.59375 6.203125 44.453125 7.46875 
Q 49.3125 8.734375 54.109375 11.28125 
L 54.109375 2.78125 
Q 49.265625 0.734375 44.1875 -0.34375 
Q 39.109375 -1.421875 33.890625 -1.421875 
Q 20.796875 -1.421875 13.15625 6.1875 
Q 5.515625 13.8125 5.515625 26.8125 
Q 5.515625 40.234375 12.765625 48.109375 
Q 20.015625 56 32.328125 56 
Q 43.359375 56 49.78125 48.890625 
Q 56.203125 41.796875 56.203125 29.59375 
z
M 47.21875 32.234375 
Q 47.125 39.59375 43.09375 43.984375 
Q 39.0625 48.390625 32.421875 48.390625 
Q 24.90625 48.390625 20.390625 44.140625 
Q 15.875 39.890625 15.1875 32.171875 
z
" id="DejaVuSans-101"/>
      <path d="M 34.28125 27.484375 
Q 23.390625 27.484375 19.1875 25 
Q 14.984375 22.515625 14.984375 16.5 
Q 14.984375 11.71875 18.140625 8.90625 
Q 21.296875 6.109375 26.703125 6.109375 
Q 34.1875 6.109375 38.703125 11.40625 
Q 43.21875 16.703125 43.21875 25.484375 
L 43.21875 27.484375 
z
M 52.203125 31.203125 
L 52.203125 0 
L 43.21875 0 
L 43.21875 8.296875 
Q 40.140625 3.328125 35.546875 0.953125 
Q 30.953125 -1.421875 24.3125 -1.421875 
Q 15.921875 -1.421875 10.953125 3.296875 
Q 6 8.015625 6 15.921875 
Q 6 25.140625 12.171875 29.828125 
Q 18.359375 34.515625 30.609375 34.515625 
L 43.21875 34.515625 
L 43.21875 35.40625 
Q 43.21875 41.609375 39.140625 45 
Q 35.0625 48.390625 27.6875 48.390625 
Q 23 48.390625 18.546875 47.265625 
Q 14.109375 46.140625 10.015625 43.890625 
L 10.015625 52.203125 
Q 14.9375 54.109375 19.578125 55.046875 
Q 24.21875 56 28.609375 56 
Q 40.484375 56 46.34375 49.84375 
Q 52.203125 43.703125 52.203125 31.203125 
z
" id="DejaVuSans-97"/>
      <path d="M 41.109375 46.296875 
Q 39.59375 47.171875 37.8125 47.578125 
Q 36.03125 48 33.890625 48 
Q 26.265625 48 22.1875 43.046875 
Q 18.109375 38.09375 18.109375 28.8125 
L 18.109375 0 
L 9.078125 0 
L 9.078125 54.6875 
L 18.109375 54.6875 
L 18.109375 46.1875 
Q 20.953125 51.171875 25.484375 53.578125 
Q 30.03125 56 36.53125 56 
Q 37.453125 56 38.578125 55.875 
Q 39.703125 55.765625 41.0625 55.515625 
z
" id="DejaVuSans-114"/>
     </defs>
     <g transform="translate(248.753172 255.185031)scale(0.11 -0.11)">
      <use xlink:href="#DejaVuSans-89"/>
      <use x="60.880859" xlink:href="#DejaVuSans-101"/>
      <use x="122.404297" xlink:href="#DejaVuSans-97"/>
      <use x="183.683594" xlink:href="#DejaVuSans-114"/>
     </g>
    </g>
   </g>
   <g id="matplotlib.axis_2">
    <g id="ytick_1">
     <g id="line2d_12">
      <path d="M 45.117 218.88 
" style="fill:none;stroke:#000000;stroke-width:1.5;"/>
      <defs>
       <path d="M 0 0 
L -2.75 0 
" id="m81f8e39b85" style="stroke:#000000;"/>
      </defs>
      <g>
       <use style="stroke:#000000;" x="45.117" xlink:href="#m81f8e39b85" y="218.88"/>
      </g>
     </g>
     <g id="text_8">
      <!-- 0 -->
      <g transform="translate(34.568 221.30825)scale(0.088 -0.088)">
       <use xlink:href="#DejaVuSans-48"/>
      </g>
     </g>
    </g>
    <g id="ytick_2">
     <g id="line2d_13">
      <path d="M 45.117 168.48 
" style="fill:none;stroke:#000000;stroke-width:1.5;"/>
      <g>
       <use style="stroke:#000000;" x="45.117" xlink:href="#m81f8e39b85" y="168.48"/>
      </g>
     </g>
     <g id="text_9">
      <!-- 25 -->
      <defs>
       <path d="M 10.796875 72.90625 
L 49.515625 72.90625 
L 49.515625 64.59375 
L 19.828125 64.59375 
L 19.828125 46.734375 
Q 21.96875 47.46875 24.109375 47.828125 
Q 26.265625 48.1875 28.421875 48.1875 
Q 40.625 48.1875 47.75 41.5 
Q 54.890625 34.8125 54.890625 23.390625 
Q 54.890625 11.625 47.5625 5.09375 
Q 40.234375 -1.421875 26.90625 -1.421875 
Q 22.3125 -1.421875 17.546875 -0.640625 
Q 12.796875 0.140625 7.71875 1.703125 
L 7.71875 11.625 
Q 12.109375 9.234375 16.796875 8.0625 
Q 21.484375 6.890625 26.703125 6.890625 
Q 35.15625 6.890625 40.078125 11.328125 
Q 45.015625 15.765625 45.015625 23.390625 
Q 45.015625 31 40.078125 35.4375 
Q 35.15625 39.890625 26.703125 39.890625 
Q 22.75 39.890625 18.8125 39.015625 
Q 14.890625 38.140625 10.796875 36.28125 
z
" id="DejaVuSans-53"/>
      </defs>
      <g transform="translate(28.969 170.90825)scale(0.088 -0.088)">
       <use xlink:href="#DejaVuSans-50"/>
       <use x="63.623047" xlink:href="#DejaVuSans-53"/>
      </g>
     </g>
    </g>
    <g id="ytick_3">
     <g id="line2d_14">
      <path d="M 45.117 118.08 
" style="fill:none;stroke:#000000;stroke-width:1.5;"/>
      <g>
       <use style="stroke:#000000;" x="45.117" xlink:href="#m81f8e39b85" y="118.08"/>
      </g>
     </g>
     <g id="text_10">
      <!-- 50 -->
      <g transform="translate(28.969 120.50825)scale(0.088 -0.088)">
       <use xlink:href="#DejaVuSans-53"/>
       <use x="63.623047" xlink:href="#DejaVuSans-48"/>
      </g>
     </g>
    </g>
    <g id="ytick_4">
     <g id="line2d_15">
      <path d="M 45.117 67.68 
" style="fill:none;stroke:#000000;stroke-width:1.5;"/>
      <g>
       <use style="stroke:#000000;" x="45.117" xlink:href="#m81f8e39b85" y="67.68"/>
      </g>
     </g>
     <g id="text_11">
      <!-- 75 -->
      <g transform="translate(28.969 70.10825)scale(0.088 -0.088)">
       <use xlink:href="#DejaVuSans-55"/>
       <use x="63.623047" xlink:href="#DejaVuSans-53"/>
      </g>
     </g>
    </g>
    <g id="ytick_5">
     <g id="line2d_16">
      <path d="M 45.117 17.28 
" style="fill:none;stroke:#000000;stroke-width:1.5;"/>
      <g>
       <use style="stroke:#000000;" x="45.117" xlink:href="#m81f8e39b85" y="17.28"/>
      </g>
     </g>
     <g id="text_12">
      <!-- 100 -->
      <g transform="translate(23.37 19.70825)scale(0.088 -0.088)">
       <use xlink:href="#DejaVuSans-49"/>
       <use x="63.623047" xlink:href="#DejaVuSans-48"/>
       <use x="127.246094" xlink:href="#DejaVuSans-48"/>
      </g>
     </g>
    </g>
    <g id="ytick_6">
     <g id="line2d_17">
      <path d="M 45.117 193.68 
" style="fill:none;stroke:#000000;stroke-width:1.5;"/>
      <defs>
       <path d="M 0 0 
L -1.375 0 
" id="m7997cf88e4" style="stroke:#000000;"/>
      </defs>
      <g>
       <use style="stroke:#000000;" x="45.117" xlink:href="#m7997cf88e4" y="193.68"/>
      </g>
     </g>
    </g>
    <g id="ytick_7">
     <g id="line2d_18">
      <path d="M 45.117 143.28 
" style="fill:none;stroke:#000000;stroke-width:1.5;"/>
      <g>
       <use style="stroke:#000000;" x="45.117" xlink:href="#m7997cf88e4" y="143.28"/>
      </g>
     </g>
    </g>
    <g id="ytick_8">
     <g id="line2d_19">
      <path d="M 45.117 92.88 
" style="fill:none;stroke:#000000;stroke-width:1.5;"/>
      <g>
       <use style="stroke:#000000;" x="45.117" xlink:href="#m7997cf88e4" y="92.88"/>
      </g>
     </g>
    </g>
    <g id="ytick_9">
     <g id="line2d_20">
      <path d="M 45.117 42.48 
" style="fill:none;stroke:#000000;stroke-width:1.5;"/>
      <g>
       <use style="stroke:#000000;" x="45.117" xlink:href="#m7997cf88e4" y="42.48"/>
      </g>
     </g>
    </g>
    <g id="text_13">
     <!-- $P_{Q1p}$ [%] -->
     <defs>
      <path d="M 16.890625 72.90625 
L 39.703125 72.90625 
Q 49.65625 72.90625 54.875 68.265625 
Q 60.109375 63.625 60.109375 54.6875 
Q 60.109375 42.671875 52.390625 35.984375 
Q 44.671875 29.296875 30.71875 29.296875 
L 18.3125 29.296875 
L 12.59375 0 
L 2.6875 0 
z
M 25.203125 64.796875 
L 19.921875 37.40625 
L 32.328125 37.40625 
Q 40.71875 37.40625 45.203125 41.703125 
Q 49.703125 46 49.703125 54 
Q 49.703125 59.125 46.65625 61.953125 
Q 43.609375 64.796875 38.09375 64.796875 
z
" id="DejaVuSans-Oblique-80"/>
      <path d="M 36.078125 -1.3125 
Q 35.546875 -1.375 34.953125 -1.390625 
Q 34.375 -1.421875 33.203125 -1.421875 
Q 19.53125 -1.421875 11.8125 6.421875 
Q 4.109375 14.265625 4.109375 28.078125 
Q 4.109375 36.234375 7.0625 44.4375 
Q 10.015625 52.640625 15.28125 59.1875 
Q 21.390625 66.703125 29.03125 70.453125 
Q 36.671875 74.21875 45.90625 74.21875 
Q 59.28125 74.21875 66.984375 66.328125 
Q 74.703125 58.453125 74.703125 44.828125 
Q 74.703125 30.125 66.640625 17.921875 
Q 58.59375 5.71875 45.609375 0.6875 
L 55.515625 -12.890625 
L 44.484375 -12.890625 
z
M 45.609375 66.21875 
Q 37.5 66.21875 31.296875 62.28125 
Q 25.09375 58.34375 20.515625 50.296875 
Q 17.578125 45.171875 16.03125 39.40625 
Q 14.5 33.640625 14.5 27.78125 
Q 14.5 17.625 19.359375 12.109375 
Q 24.21875 6.59375 33.109375 6.59375 
Q 41.109375 6.59375 47.375 10.5625 
Q 53.65625 14.546875 58.109375 22.40625 
Q 61.078125 27.6875 62.640625 33.46875 
Q 64.203125 39.265625 64.203125 45.015625 
Q 64.203125 55.125 59.3125 60.671875 
Q 54.4375 66.21875 45.609375 66.21875 
z
" id="DejaVuSans-Oblique-81"/>
      <path d="M 49.609375 33.6875 
Q 49.609375 40.875 46.484375 44.671875 
Q 43.359375 48.484375 37.5 48.484375 
Q 33.5 48.484375 29.859375 46.4375 
Q 26.21875 44.390625 23.390625 40.484375 
Q 20.609375 36.625 18.9375 31.15625 
Q 17.28125 25.6875 17.28125 20.3125 
Q 17.28125 13.484375 20.40625 9.796875 
Q 23.53125 6.109375 29.296875 6.109375 
Q 33.546875 6.109375 37.1875 8.109375 
Q 40.828125 10.109375 43.40625 13.921875 
Q 46.1875 17.921875 47.890625 23.34375 
Q 49.609375 28.765625 49.609375 33.6875 
z
M 21.78125 46.390625 
Q 25.390625 51.125 30.296875 53.5625 
Q 35.203125 56 41.21875 56 
Q 49.609375 56 54.25 50.5 
Q 58.890625 45.015625 58.890625 35.109375 
Q 58.890625 27 56 19.65625 
Q 53.125 12.3125 47.703125 6.5 
Q 44.09375 2.640625 39.546875 0.609375 
Q 35.015625 -1.421875 29.984375 -1.421875 
Q 24.171875 -1.421875 20.21875 1 
Q 16.265625 3.421875 14.3125 8.203125 
L 8.6875 -20.796875 
L -0.296875 -20.796875 
L 14.40625 54.6875 
L 23.390625 54.6875 
z
" id="DejaVuSans-Oblique-112"/>
      <path id="DejaVuSans-32"/>
      <path d="M 8.59375 75.984375 
L 29.296875 75.984375 
L 29.296875 69 
L 17.578125 69 
L 17.578125 -6.203125 
L 29.296875 -6.203125 
L 29.296875 -13.1875 
L 8.59375 -13.1875 
z
" id="DejaVuSans-91"/>
      <path d="M 72.703125 32.078125 
Q 68.453125 32.078125 66.03125 28.46875 
Q 63.625 24.859375 63.625 18.40625 
Q 63.625 12.0625 66.03125 8.421875 
Q 68.453125 4.78125 72.703125 4.78125 
Q 76.859375 4.78125 79.265625 8.421875 
Q 81.6875 12.0625 81.6875 18.40625 
Q 81.6875 24.8125 79.265625 28.4375 
Q 76.859375 32.078125 72.703125 32.078125 
z
M 72.703125 38.28125 
Q 80.421875 38.28125 84.953125 32.90625 
Q 89.5 27.546875 89.5 18.40625 
Q 89.5 9.28125 84.9375 3.921875 
Q 80.375 -1.421875 72.703125 -1.421875 
Q 64.890625 -1.421875 60.34375 3.921875 
Q 55.8125 9.28125 55.8125 18.40625 
Q 55.8125 27.59375 60.375 32.9375 
Q 64.9375 38.28125 72.703125 38.28125 
z
M 22.3125 68.015625 
Q 18.109375 68.015625 15.6875 64.375 
Q 13.28125 60.75 13.28125 54.390625 
Q 13.28125 47.953125 15.671875 44.328125 
Q 18.0625 40.71875 22.3125 40.71875 
Q 26.5625 40.71875 28.96875 44.328125 
Q 31.390625 47.953125 31.390625 54.390625 
Q 31.390625 60.6875 28.953125 64.34375 
Q 26.515625 68.015625 22.3125 68.015625 
z
M 66.40625 74.21875 
L 74.21875 74.21875 
L 28.609375 -1.421875 
L 20.796875 -1.421875 
z
M 22.3125 74.21875 
Q 30.03125 74.21875 34.609375 68.875 
Q 39.203125 63.53125 39.203125 54.390625 
Q 39.203125 45.171875 34.640625 39.84375 
Q 30.078125 34.515625 22.3125 34.515625 
Q 14.546875 34.515625 10.03125 39.859375 
Q 5.515625 45.21875 5.515625 54.390625 
Q 5.515625 63.484375 10.046875 68.84375 
Q 14.59375 74.21875 22.3125 74.21875 
z
" id="DejaVuSans-37"/>
      <path d="M 30.421875 75.984375 
L 30.421875 -13.1875 
L 9.71875 -13.1875 
L 9.71875 -6.203125 
L 21.390625 -6.203125 
L 21.390625 69 
L 9.71875 69 
L 9.71875 75.984375 
z
" id="DejaVuSans-93"/>
     </defs>
     <g transform="translate(15.56 139.3)rotate(-90)scale(0.11 -0.11)">
      <use transform="translate(0 0.015625)" xlink:href="#DejaVuSans-Oblique-80"/>
      <use transform="translate(60.302734 -16.390625)scale(0.7)" xlink:href="#DejaVuSans-Oblique-81"/>
      <use transform="translate(115.400391 -16.390625)scale(0.7)" xlink:href="#DejaVuSans-49"/>
      <use transform="translate(159.936523 -16.390625)scale(0.7)" xlink:href="#DejaVuSans-Oblique-112"/>
      <use transform="translate(207.104492 0.015625)" xlink:href="#DejaVuSans-32"/>
      <use transform="translate(238.891602 0.015625)" xlink:href="#DejaVuSans-91"/>
      <use transform="translate(277.905273 0.015625)" xlink:href="#DejaVuSans-37"/>
      <use transform="translate(372.924805 0.015625)" xlink:href="#DejaVuSans-93"/>
     </g>
    </g>
   </g>
   <g id="LineCollection_1">
    <path clip-path="url(#p035c851162)" d="M 89.757 210.848936 
L 89.757 210.848936 
" style="fill:none;stroke:#9da0a2;stroke-width:1.32934;"/>
    <path clip-path="url(#p035c851162)" d="M 105.989727 212.455879 
L 105.989727 212.455879 
" style="fill:none;stroke:#9da0a2;stroke-width:1.32934;"/>
    <path clip-path="url(#p035c851162)" d="M 114.106091 213.261149 
L 114.106091 213.261149 
" style="fill:none;stroke:#9da0a2;stroke-width:1.32934;"/>
    <path clip-path="url(#p035c851162)" d="M 122.222455 213.901356 
L 122.222455 213.901356 
" style="fill:none;stroke:#9da0a2;stroke-width:1.32934;"/>
    <path clip-path="url(#p035c851162)" d="M 130.338818 218.053699 
L 130.338818 218.053699 
" style="fill:none;stroke:#9da0a2;stroke-width:1.32934;"/>
    <path clip-path="url(#p035c851162)" d="M 138.455182 179.242031 
L 138.455182 179.242031 
" style="fill:none;stroke:#9da0a2;stroke-width:1.32934;"/>
    <path clip-path="url(#p035c851162)" d="M 146.571545 209.961877 
L 146.571545 209.961877 
" style="fill:none;stroke:#9da0a2;stroke-width:1.32934;"/>
    <path clip-path="url(#p035c851162)" d="M 154.687909 160.066905 
L 154.687909 160.066905 
" style="fill:none;stroke:#9da0a2;stroke-width:1.32934;"/>
    <path clip-path="url(#p035c851162)" d="M 162.804273 162.57636 
L 162.804273 162.57636 
" style="fill:none;stroke:#9da0a2;stroke-width:1.32934;"/>
    <path clip-path="url(#p035c851162)" d="M 170.920636 152.93013 
L 170.920636 152.93013 
" style="fill:none;stroke:#9da0a2;stroke-width:1.32934;"/>
    <path clip-path="url(#p035c851162)" d="M 179.037 173.227844 
L 179.037 173.227844 
" style="fill:none;stroke:#9da0a2;stroke-width:1.32934;"/>
    <path clip-path="url(#p035c851162)" d="M 187.153364 154.615991 
L 187.153364 154.615991 
" style="fill:none;stroke:#9da0a2;stroke-width:1.32934;"/>
    <path clip-path="url(#p035c851162)" d="M 195.269727 174.987198 
L 195.269727 174.987198 
" style="fill:none;stroke:#9da0a2;stroke-width:1.32934;"/>
    <path clip-path="url(#p035c851162)" d="M 203.386091 149.317338 
L 203.386091 149.317338 
" style="fill:none;stroke:#9da0a2;stroke-width:1.32934;"/>
    <path clip-path="url(#p035c851162)" d="M 211.502455 173.778334 
L 211.502455 173.778334 
" style="fill:none;stroke:#9da0a2;stroke-width:1.32934;"/>
    <path clip-path="url(#p035c851162)" d="M 219.618818 168.077724 
L 219.618818 168.077724 
" style="fill:none;stroke:#9da0a2;stroke-width:1.32934;"/>
    <path clip-path="url(#p035c851162)" d="M 227.735182 156.427634 
L 227.735182 156.427634 
" style="fill:none;stroke:#9da0a2;stroke-width:1.32934;"/>
    <path clip-path="url(#p035c851162)" d="M 235.851545 147.406699 
L 235.851545 147.406699 
" style="fill:none;stroke:#9da0a2;stroke-width:1.32934;"/>
    <path clip-path="url(#p035c851162)" d="M 243.967909 141.862563 
L 243.967909 141.862563 
" style="fill:none;stroke:#9da0a2;stroke-width:1.32934;"/>
    <path clip-path="url(#p035c851162)" d="M 252.084273 146.037841 
L 252.084273 146.037841 
" style="fill:none;stroke:#9da0a2;stroke-width:1.32934;"/>
    <path clip-path="url(#p035c851162)" d="M 260.200636 144.295211 
L 260.200636 144.295211 
" style="fill:none;stroke:#9da0a2;stroke-width:1.32934;"/>
    <path clip-path="url(#p035c851162)" d="M 268.317 137.110246 
L 268.317 137.110246 
" style="fill:none;stroke:#9da0a2;stroke-width:1.32934;"/>
    <path clip-path="url(#p035c851162)" d="M 276.433364 147.353984 
L 276.433364 147.353984 
" style="fill:none;stroke:#9da0a2;stroke-width:1.32934;"/>
    <path clip-path="url(#p035c851162)" d="M 284.549727 145.298846 
L 284.549727 145.298846 
" style="fill:none;stroke:#9da0a2;stroke-width:1.32934;"/>
    <path clip-path="url(#p035c851162)" d="M 292.666091 144.834612 
L 292.666091 144.834612 
" style="fill:none;stroke:#9da0a2;stroke-width:1.32934;"/>
    <path clip-path="url(#p035c851162)" d="M 300.782455 145.445268 
L 300.782455 145.445268 
" style="fill:none;stroke:#9da0a2;stroke-width:1.32934;"/>
    <path clip-path="url(#p035c851162)" d="M 308.898818 149.551744 
L 308.898818 149.551744 
" style="fill:none;stroke:#9da0a2;stroke-width:1.32934;"/>
    <path clip-path="url(#p035c851162)" d="M 317.015182 146.478126 
L 317.015182 146.478126 
" style="fill:none;stroke:#9da0a2;stroke-width:1.32934;"/>
    <path clip-path="url(#p035c851162)" d="M 325.131545 144.805422 
L 325.131545 144.805422 
" style="fill:none;stroke:#9da0a2;stroke-width:1.32934;"/>
    <path clip-path="url(#p035c851162)" d="M 333.247909 143.014439 
L 333.247909 143.014439 
" style="fill:none;stroke:#9da0a2;stroke-width:1.32934;"/>
    <path clip-path="url(#p035c851162)" d="M 341.364273 140.929443 
L 341.364273 140.929443 
" style="fill:none;stroke:#9da0a2;stroke-width:1.32934;"/>
    <path clip-path="url(#p035c851162)" d="M 349.480636 139.457855 
L 349.480636 139.457855 
" style="fill:none;stroke:#9da0a2;stroke-width:1.32934;"/>
    <path clip-path="url(#p035c851162)" d="M 357.597 137.603356 
L 357.597 137.603356 
" style="fill:none;stroke:#9da0a2;stroke-width:1.32934;"/>
    <path clip-path="url(#p035c851162)" d="M 365.713364 134.900692 
L 365.713364 134.900692 
" style="fill:none;stroke:#9da0a2;stroke-width:1.32934;"/>
    <path clip-path="url(#p035c851162)" d="M 373.829727 135.242977 
L 373.829727 135.242977 
" style="fill:none;stroke:#9da0a2;stroke-width:1.32934;"/>
    <path clip-path="url(#p035c851162)" d="M 381.946091 131.965786 
L 381.946091 131.965786 
" style="fill:none;stroke:#9da0a2;stroke-width:1.32934;"/>
    <path clip-path="url(#p035c851162)" d="M 390.062455 123.081312 
L 390.062455 123.081312 
" style="fill:none;stroke:#9da0a2;stroke-width:1.32934;"/>
    <path clip-path="url(#p035c851162)" d="M 398.178818 118.772212 
L 398.178818 118.772212 
" style="fill:none;stroke:#9da0a2;stroke-width:1.32934;"/>
    <path clip-path="url(#p035c851162)" d="M 406.295182 114.189151 
L 406.295182 114.189151 
" style="fill:none;stroke:#9da0a2;stroke-width:1.32934;"/>
    <path clip-path="url(#p035c851162)" d="M 414.411545 108.076392 
L 414.411545 108.076392 
" style="fill:none;stroke:#9da0a2;stroke-width:1.32934;"/>
    <path clip-path="url(#p035c851162)" d="M 422.527909 102.562873 
L 422.527909 102.562873 
" style="fill:none;stroke:#9da0a2;stroke-width:1.32934;"/>
    <path clip-path="url(#p035c851162)" d="M 430.644273 99.466779 
L 430.644273 99.466779 
" style="fill:none;stroke:#9da0a2;stroke-width:1.32934;"/>
    <path clip-path="url(#p035c851162)" d="M 438.760636 93.180346 
L 438.760636 93.180346 
" style="fill:none;stroke:#9da0a2;stroke-width:1.32934;"/>
    <path clip-path="url(#p035c851162)" d="M 446.877 97.297824 
L 446.877 97.297824 
" style="fill:none;stroke:#9da0a2;stroke-width:1.32934;"/>
    <path clip-path="url(#p035c851162)" d="M 454.993364 99.798005 
L 454.993364 99.798005 
" style="fill:none;stroke:#9da0a2;stroke-width:1.32934;"/>
    <path clip-path="url(#p035c851162)" d="M 463.109727 99.550832 
L 463.109727 99.550832 
" style="fill:none;stroke:#9da0a2;stroke-width:1.32934;"/>
    <path clip-path="url(#p035c851162)" d="M 89.757 210.837339 
L 89.757 210.837339 
" style="fill:none;stroke:#9da0a2;stroke-width:1.32934;"/>
    <path clip-path="url(#p035c851162)" d="M 105.989727 208.24068 
L 105.989727 208.24068 
" style="fill:none;stroke:#9da0a2;stroke-width:1.32934;"/>
    <path clip-path="url(#p035c851162)" d="M 114.106091 205.698589 
L 114.106091 205.698589 
" style="fill:none;stroke:#9da0a2;stroke-width:1.32934;"/>
    <path clip-path="url(#p035c851162)" d="M 122.222455 206.856935 
L 122.222455 206.856935 
" style="fill:none;stroke:#9da0a2;stroke-width:1.32934;"/>
    <path clip-path="url(#p035c851162)" d="M 130.338818 195.950878 
L 130.338818 195.950878 
" style="fill:none;stroke:#9da0a2;stroke-width:1.32934;"/>
    <path clip-path="url(#p035c851162)" d="M 138.455182 146.59782 
L 138.455182 146.59782 
" style="fill:none;stroke:#9da0a2;stroke-width:1.32934;"/>
    <path clip-path="url(#p035c851162)" d="M 146.571545 185.404905 
L 146.571545 185.404905 
" style="fill:none;stroke:#9da0a2;stroke-width:1.32934;"/>
    <path clip-path="url(#p035c851162)" d="M 154.687909 140.241845 
L 154.687909 140.241845 
" style="fill:none;stroke:#9da0a2;stroke-width:1.32934;"/>
    <path clip-path="url(#p035c851162)" d="M 162.804273 146.348031 
L 162.804273 146.348031 
" style="fill:none;stroke:#9da0a2;stroke-width:1.32934;"/>
    <path clip-path="url(#p035c851162)" d="M 170.920636 123.741378 
L 170.920636 123.741378 
" style="fill:none;stroke:#9da0a2;stroke-width:1.32934;"/>
    <path clip-path="url(#p035c851162)" d="M 179.037 154.951233 
L 179.037 154.951233 
" style="fill:none;stroke:#9da0a2;stroke-width:1.32934;"/>
    <path clip-path="url(#p035c851162)" d="M 187.153364 121.623724 
L 187.153364 121.623724 
" style="fill:none;stroke:#9da0a2;stroke-width:1.32934;"/>
    <path clip-path="url(#p035c851162)" d="M 195.269727 149.390603 
L 195.269727 149.390603 
" style="fill:none;stroke:#9da0a2;stroke-width:1.32934;"/>
    <path clip-path="url(#p035c851162)" d="M 203.386091 132.123039 
L 203.386091 132.123039 
" style="fill:none;stroke:#9da0a2;stroke-width:1.32934;"/>
    <path clip-path="url(#p035c851162)" d="M 211.502455 163.53095 
L 211.502455 163.53095 
" style="fill:none;stroke:#9da0a2;stroke-width:1.32934;"/>
    <path clip-path="url(#p035c851162)" d="M 219.618818 161.263454 
L 219.618818 161.263454 
" style="fill:none;stroke:#9da0a2;stroke-width:1.32934;"/>
    <path clip-path="url(#p035c851162)" d="M 227.735182 149.3303 
L 227.735182 149.3303 
" style="fill:none;stroke:#9da0a2;stroke-width:1.32934;"/>
    <path clip-path="url(#p035c851162)" d="M 235.851545 142.442034 
L 235.851545 142.442034 
" style="fill:none;stroke:#9da0a2;stroke-width:1.32934;"/>
    <path clip-path="url(#p035c851162)" d="M 243.967909 137.124763 
L 243.967909 137.124763 
" style="fill:none;stroke:#9da0a2;stroke-width:1.32934;"/>
    <path clip-path="url(#p035c851162)" d="M 252.084273 141.965193 
L 252.084273 141.965193 
" style="fill:none;stroke:#9da0a2;stroke-width:1.32934;"/>
    <path clip-path="url(#p035c851162)" d="M 260.200636 140.806663 
L 260.200636 140.806663 
" style="fill:none;stroke:#9da0a2;stroke-width:1.32934;"/>
    <path clip-path="url(#p035c851162)" d="M 268.317 133.629716 
L 268.317 133.629716 
" style="fill:none;stroke:#9da0a2;stroke-width:1.32934;"/>
    <path clip-path="url(#p035c851162)" d="M 276.433364 144.401245 
L 276.433364 144.401245 
" style="fill:none;stroke:#9da0a2;stroke-width:1.32934;"/>
    <path clip-path="url(#p035c851162)" d="M 284.549727 142.622143 
L 284.549727 142.622143 
" style="fill:none;stroke:#9da0a2;stroke-width:1.32934;"/>
    <path clip-path="url(#p035c851162)" d="M 292.666091 142.196259 
L 292.666091 142.196259 
" style="fill:none;stroke:#9da0a2;stroke-width:1.32934;"/>
    <path clip-path="url(#p035c851162)" d="M 300.782455 143.015072 
L 300.782455 143.015072 
" style="fill:none;stroke:#9da0a2;stroke-width:1.32934;"/>
    <path clip-path="url(#p035c851162)" d="M 308.898818 147.358939 
L 308.898818 147.358939 
" style="fill:none;stroke:#9da0a2;stroke-width:1.32934;"/>
    <path clip-path="url(#p035c851162)" d="M 317.015182 144.318211 
L 317.015182 144.318211 
" style="fill:none;stroke:#9da0a2;stroke-width:1.32934;"/>
    <path clip-path="url(#p035c851162)" d="M 325.131545 142.672163 
L 325.131545 142.672163 
" style="fill:none;stroke:#9da0a2;stroke-width:1.32934;"/>
    <path clip-path="url(#p035c851162)" d="M 333.247909 141.200871 
L 333.247909 141.200871 
" style="fill:none;stroke:#9da0a2;stroke-width:1.32934;"/>
    <path clip-path="url(#p035c851162)" d="M 341.364273 139.203163 
L 341.364273 139.203163 
" style="fill:none;stroke:#9da0a2;stroke-width:1.32934;"/>
    <path clip-path="url(#p035c851162)" d="M 349.480636 137.875864 
L 349.480636 137.875864 
" style="fill:none;stroke:#9da0a2;stroke-width:1.32934;"/>
    <path clip-path="url(#p035c851162)" d="M 357.597 136.100186 
L 357.597 136.100186 
" style="fill:none;stroke:#9da0a2;stroke-width:1.32934;"/>
    <path clip-path="url(#p035c851162)" d="M 365.713364 133.52151 
L 365.713364 133.52151 
" style="fill:none;stroke:#9da0a2;stroke-width:1.32934;"/>
    <path clip-path="url(#p035c851162)" d="M 373.829727 133.806842 
L 373.829727 133.806842 
" style="fill:none;stroke:#9da0a2;stroke-width:1.32934;"/>
    <path clip-path="url(#p035c851162)" d="M 381.946091 130.636364 
L 381.946091 130.636364 
" style="fill:none;stroke:#9da0a2;stroke-width:1.32934;"/>
    <path clip-path="url(#p035c851162)" d="M 390.062455 121.772069 
L 390.062455 121.772069 
" style="fill:none;stroke:#9da0a2;stroke-width:1.32934;"/>
    <path clip-path="url(#p035c851162)" d="M 398.178818 117.47759 
L 398.178818 117.47759 
" style="fill:none;stroke:#9da0a2;stroke-width:1.32934;"/>
    <path clip-path="url(#p035c851162)" d="M 406.295182 112.969422 
L 406.295182 112.969422 
" style="fill:none;stroke:#9da0a2;stroke-width:1.32934;"/>
    <path clip-path="url(#p035c851162)" d="M 414.411545 106.8671 
L 414.411545 106.8671 
" style="fill:none;stroke:#9da0a2;stroke-width:1.32934;"/>
    <path clip-path="url(#p035c851162)" d="M 422.527909 101.366272 
L 422.527909 101.366272 
" style="fill:none;stroke:#9da0a2;stroke-width:1.32934;"/>
    <path clip-path="url(#p035c851162)" d="M 430.644273 98.313697 
L 430.644273 98.313697 
" style="fill:none;stroke:#9da0a2;stroke-width:1.32934;"/>
    <path clip-path="url(#p035c851162)" d="M 438.760636 92.062556 
L 438.760636 92.062556 
" style="fill:none;stroke:#9da0a2;stroke-width:1.32934;"/>
    <path clip-path="url(#p035c851162)" d="M 446.877 96.28143 
L 446.877 96.28143 
" style="fill:none;stroke:#9da0a2;stroke-width:1.32934;"/>
    <path clip-path="url(#p035c851162)" d="M 454.993364 98.676235 
L 454.993364 98.676235 
" style="fill:none;stroke:#9da0a2;stroke-width:1.32934;"/>
    <path clip-path="url(#p035c851162)" d="M 463.109727 97.6947 
L 463.109727 97.6947 
" style="fill:none;stroke:#9da0a2;stroke-width:1.32934;"/>
    <path clip-path="url(#p035c851162)" d="M 89.757 210.837339 
L 89.757 210.848936 
" style="fill:none;stroke:#9da0a2;stroke-width:1.32934;"/>
    <path clip-path="url(#p035c851162)" d="M 105.989727 208.24068 
L 105.989727 212.455879 
" style="fill:none;stroke:#9da0a2;stroke-width:1.32934;"/>
    <path clip-path="url(#p035c851162)" d="M 114.106091 205.698589 
L 114.106091 213.261149 
" style="fill:none;stroke:#9da0a2;stroke-width:1.32934;"/>
    <path clip-path="url(#p035c851162)" d="M 122.222455 206.856935 
L 122.222455 213.901356 
" style="fill:none;stroke:#9da0a2;stroke-width:1.32934;"/>
    <path clip-path="url(#p035c851162)" d="M 130.338818 195.950878 
L 130.338818 218.053699 
" style="fill:none;stroke:#9da0a2;stroke-width:1.32934;"/>
    <path clip-path="url(#p035c851162)" d="M 138.455182 146.59782 
L 138.455182 179.242031 
" style="fill:none;stroke:#9da0a2;stroke-width:1.32934;"/>
    <path clip-path="url(#p035c851162)" d="M 146.571545 185.404905 
L 146.571545 209.961877 
" style="fill:none;stroke:#9da0a2;stroke-width:1.32934;"/>
    <path clip-path="url(#p035c851162)" d="M 154.687909 140.241845 
L 154.687909 160.066905 
" style="fill:none;stroke:#9da0a2;stroke-width:1.32934;"/>
    <path clip-path="url(#p035c851162)" d="M 162.804273 146.348031 
L 162.804273 162.57636 
" style="fill:none;stroke:#9da0a2;stroke-width:1.32934;"/>
    <path clip-path="url(#p035c851162)" d="M 170.920636 123.741378 
L 170.920636 152.93013 
" style="fill:none;stroke:#9da0a2;stroke-width:1.32934;"/>
    <path clip-path="url(#p035c851162)" d="M 179.037 154.951233 
L 179.037 173.227844 
" style="fill:none;stroke:#9da0a2;stroke-width:1.32934;"/>
    <path clip-path="url(#p035c851162)" d="M 187.153364 121.623724 
L 187.153364 154.615991 
" style="fill:none;stroke:#9da0a2;stroke-width:1.32934;"/>
    <path clip-path="url(#p035c851162)" d="M 195.269727 149.390603 
L 195.269727 174.987198 
" style="fill:none;stroke:#9da0a2;stroke-width:1.32934;"/>
    <path clip-path="url(#p035c851162)" d="M 203.386091 132.123039 
L 203.386091 149.317338 
" style="fill:none;stroke:#9da0a2;stroke-width:1.32934;"/>
    <path clip-path="url(#p035c851162)" d="M 211.502455 163.53095 
L 211.502455 173.778334 
" style="fill:none;stroke:#9da0a2;stroke-width:1.32934;"/>
    <path clip-path="url(#p035c851162)" d="M 219.618818 161.263454 
L 219.618818 168.077724 
" style="fill:none;stroke:#9da0a2;stroke-width:1.32934;"/>
    <path clip-path="url(#p035c851162)" d="M 227.735182 149.3303 
L 227.735182 156.427634 
" style="fill:none;stroke:#9da0a2;stroke-width:1.32934;"/>
    <path clip-path="url(#p035c851162)" d="M 235.851545 142.442034 
L 235.851545 147.406699 
" style="fill:none;stroke:#9da0a2;stroke-width:1.32934;"/>
    <path clip-path="url(#p035c851162)" d="M 243.967909 137.124763 
L 243.967909 141.862563 
" style="fill:none;stroke:#9da0a2;stroke-width:1.32934;"/>
    <path clip-path="url(#p035c851162)" d="M 252.084273 141.965193 
L 252.084273 146.037841 
" style="fill:none;stroke:#9da0a2;stroke-width:1.32934;"/>
    <path clip-path="url(#p035c851162)" d="M 260.200636 140.806663 
L 260.200636 144.295211 
" style="fill:none;stroke:#9da0a2;stroke-width:1.32934;"/>
    <path clip-path="url(#p035c851162)" d="M 268.317 133.629716 
L 268.317 137.110246 
" style="fill:none;stroke:#9da0a2;stroke-width:1.32934;"/>
    <path clip-path="url(#p035c851162)" d="M 276.433364 144.401245 
L 276.433364 147.353984 
" style="fill:none;stroke:#9da0a2;stroke-width:1.32934;"/>
    <path clip-path="url(#p035c851162)" d="M 284.549727 142.622143 
L 284.549727 145.298846 
" style="fill:none;stroke:#9da0a2;stroke-width:1.32934;"/>
    <path clip-path="url(#p035c851162)" d="M 292.666091 142.196259 
L 292.666091 144.834612 
" style="fill:none;stroke:#9da0a2;stroke-width:1.32934;"/>
    <path clip-path="url(#p035c851162)" d="M 300.782455 143.015072 
L 300.782455 145.445268 
" style="fill:none;stroke:#9da0a2;stroke-width:1.32934;"/>
    <path clip-path="url(#p035c851162)" d="M 308.898818 147.358939 
L 308.898818 149.551744 
" style="fill:none;stroke:#9da0a2;stroke-width:1.32934;"/>
    <path clip-path="url(#p035c851162)" d="M 317.015182 144.318211 
L 317.015182 146.478126 
" style="fill:none;stroke:#9da0a2;stroke-width:1.32934;"/>
    <path clip-path="url(#p035c851162)" d="M 325.131545 142.672163 
L 325.131545 144.805422 
" style="fill:none;stroke:#9da0a2;stroke-width:1.32934;"/>
    <path clip-path="url(#p035c851162)" d="M 333.247909 141.200871 
L 333.247909 143.014439 
" style="fill:none;stroke:#9da0a2;stroke-width:1.32934;"/>
    <path clip-path="url(#p035c851162)" d="M 341.364273 139.203163 
L 341.364273 140.929443 
" style="fill:none;stroke:#9da0a2;stroke-width:1.32934;"/>
    <path clip-path="url(#p035c851162)" d="M 349.480636 137.875864 
L 349.480636 139.457855 
" style="fill:none;stroke:#9da0a2;stroke-width:1.32934;"/>
    <path clip-path="url(#p035c851162)" d="M 357.597 136.100186 
L 357.597 137.603356 
" style="fill:none;stroke:#9da0a2;stroke-width:1.32934;"/>
    <path clip-path="url(#p035c851162)" d="M 365.713364 133.52151 
L 365.713364 134.900692 
" style="fill:none;stroke:#9da0a2;stroke-width:1.32934;"/>
    <path clip-path="url(#p035c851162)" d="M 373.829727 133.806842 
L 373.829727 135.242977 
" style="fill:none;stroke:#9da0a2;stroke-width:1.32934;"/>
    <path clip-path="url(#p035c851162)" d="M 381.946091 130.636364 
L 381.946091 131.965786 
" style="fill:none;stroke:#9da0a2;stroke-width:1.32934;"/>
    <path clip-path="url(#p035c851162)" d="M 390.062455 121.772069 
L 390.062455 123.081312 
" style="fill:none;stroke:#9da0a2;stroke-width:1.32934;"/>
    <path clip-path="url(#p035c851162)" d="M 398.178818 117.47759 
L 398.178818 118.772212 
" style="fill:none;stroke:#9da0a2;stroke-width:1.32934;"/>
    <path clip-path="url(#p035c851162)" d="M 406.295182 112.969422 
L 406.295182 114.189151 
" style="fill:none;stroke:#9da0a2;stroke-width:1.32934;"/>
    <path clip-path="url(#p035c851162)" d="M 414.411545 106.8671 
L 414.411545 108.076392 
" style="fill:none;stroke:#9da0a2;stroke-width:1.32934;"/>
    <path clip-path="url(#p035c851162)" d="M 422.527909 101.366272 
L 422.527909 102.562873 
" style="fill:none;stroke:#9da0a2;stroke-width:1.32934;"/>
    <path clip-path="url(#p035c851162)" d="M 430.644273 98.313697 
L 430.644273 99.466779 
" style="fill:none;stroke:#9da0a2;stroke-width:1.32934;"/>
    <path clip-path="url(#p035c851162)" d="M 438.760636 92.062556 
L 438.760636 93.180346 
" style="fill:none;stroke:#9da0a2;stroke-width:1.32934;"/>
    <path clip-path="url(#p035c851162)" d="M 446.877 96.28143 
L 446.877 97.297824 
" style="fill:none;stroke:#9da0a2;stroke-width:1.32934;"/>
    <path clip-path="url(#p035c851162)" d="M 454.993364 98.676235 
L 454.993364 99.798005 
" style="fill:none;stroke:#9da0a2;stroke-width:1.32934;"/>
    <path clip-path="url(#p035c851162)" d="M 463.109727 97.6947 
L 463.109727 99.550832 
" style="fill:none;stroke:#9da0a2;stroke-width:1.32934;"/>
   </g>
   <g id="line2d_21">
    <path clip-path="url(#p035c851162)" d="M 81.640636 216.476479 
L 89.757 210.843137 
L 97.873364 218.579922 
L 105.989727 210.348279 
L 114.106091 209.479869 
L 122.222455 210.379146 
L 130.338818 207.002288 
L 138.455182 162.919926 
L 146.571545 197.683391 
L 154.687909 150.154375 
L 162.804273 154.462195 
L 170.920636 138.335754 
L 179.037 164.089538 
L 187.153364 138.119857 
L 195.269727 162.1889 
L 203.386091 140.720189 
L 211.502455 168.654642 
L 219.618818 164.670589 
L 227.735182 152.878967 
L 235.851545 144.924367 
L 243.967909 139.493663 
L 252.084273 144.001517 
L 260.200636 142.550937 
L 268.317 135.369981 
L 276.433364 145.877615 
L 284.549727 143.960494 
L 292.666091 143.515436 
L 300.782455 144.23017 
L 308.898818 148.455341 
L 317.015182 145.398169 
L 325.131545 143.738793 
L 333.247909 142.107655 
L 341.364273 140.066303 
L 349.480636 138.666859 
L 357.597 136.851771 
L 365.713364 134.211101 
L 373.829727 134.52491 
L 381.946091 131.301075 
L 390.062455 122.42669 
L 398.178818 118.124901 
L 406.295182 113.579286 
L 414.411545 107.471746 
L 422.527909 101.964573 
L 430.644273 98.890238 
L 438.760636 92.621451 
L 446.877 96.789627 
L 454.993364 99.23712 
L 463.109727 98.622766 
" style="fill:none;stroke:#ee7733;stroke-width:0.886227;"/>
   </g>
   <g id="patch_3">
    <path d="M 45.117 228.96 
L 45.117 7.2 
" style="fill:none;stroke:#000000;stroke-linecap:square;stroke-linejoin:miter;"/>
   </g>
   <g id="patch_4">
    <path d="M 45.117 228.96 
L 491.517 228.96 
" style="fill:none;stroke:#000000;stroke-linecap:square;stroke-linejoin:miter;"/>
   </g>
   <g id="PathCollection_1">
    <path clip-path="url(#p035c851162)" d="M 81.640636 218.248933 
C 82.110697 218.248933 82.561568 218.062176 82.893951 217.729794 
C 83.226333 217.397411 83.41309 216.94654 83.41309 216.476479 
C 83.41309 216.006419 83.226333 215.555548 82.893951 215.223165 
C 82.561568 214.890782 82.110697 214.704026 81.640636 214.704026 
C 81.170576 214.704026 80.719705 214.890782 80.387322 215.223165 
C 80.054939 215.555548 79.868183 216.006419 79.868183 216.476479 
C 79.868183 216.94654 80.054939 217.397411 80.387322 217.729794 
C 80.719705 218.062176 81.170576 218.248933 81.640636 218.248933 
z
" style="fill:#ee7733;stroke:#ee7733;stroke-width:0.886227;"/>
    <path clip-path="url(#p035c851162)" d="M 89.757 212.615591 
C 90.22706 212.615591 90.677931 212.428834 91.010314 212.096452 
C 91.342697 211.764069 91.529454 211.313198 91.529454 210.843137 
C 91.529454 210.373077 91.342697 209.922206 91.010314 209.589823 
C 90.677931 209.257441 90.22706 209.070684 89.757 209.070684 
C 89.28694 209.070684 88.836069 209.257441 88.503686 209.589823 
C 88.171303 209.922206 87.984546 210.373077 87.984546 210.843137 
C 87.984546 211.313198 88.171303 211.764069 88.503686 212.096452 
C 88.836069 212.428834 89.28694 212.615591 89.757 212.615591 
z
" style="fill:#ee7733;stroke:#ee7733;stroke-width:0.886227;"/>
    <path clip-path="url(#p035c851162)" d="M 97.873364 220.352376 
C 98.343424 220.352376 98.794295 220.165619 99.126678 219.833236 
C 99.459061 219.500854 99.645817 219.049983 99.645817 218.579922 
C 99.645817 218.109862 99.459061 217.658991 99.126678 217.326608 
C 98.794295 216.994225 98.343424 216.807468 97.873364 216.807468 
C 97.403303 216.807468 96.952432 216.994225 96.620049 217.326608 
C 96.287667 217.658991 96.10091 218.109862 96.10091 218.579922 
C 96.10091 219.049983 96.287667 219.500854 96.620049 219.833236 
C 96.952432 220.165619 97.403303 220.352376 97.873364 220.352376 
z
" style="fill:#ee7733;stroke:#ee7733;stroke-width:0.886227;"/>
    <path clip-path="url(#p035c851162)" d="M 105.989727 212.120733 
C 106.459788 212.120733 106.910659 211.933976 107.243041 211.601594 
C 107.575424 211.269211 107.762181 210.81834 107.762181 210.348279 
C 107.762181 209.878219 107.575424 209.427348 107.243041 209.094965 
C 106.910659 208.762583 106.459788 208.575826 105.989727 208.575826 
C 105.519667 208.575826 105.068796 208.762583 104.736413 209.094965 
C 104.40403 209.427348 104.217273 209.878219 104.217273 210.348279 
C 104.217273 210.81834 104.40403 211.269211 104.736413 211.601594 
C 105.068796 211.933976 105.519667 212.120733 105.989727 212.120733 
z
" style="fill:#ee7733;stroke:#ee7733;stroke-width:0.886227;"/>
    <path clip-path="url(#p035c851162)" d="M 114.106091 211.252323 
C 114.576151 211.252323 115.027022 211.065566 115.359405 210.733183 
C 115.691788 210.4008 115.878545 209.949929 115.878545 209.479869 
C 115.878545 209.009809 115.691788 208.558938 115.359405 208.226555 
C 115.027022 207.894172 114.576151 207.707415 114.106091 207.707415 
C 113.636031 207.707415 113.18516 207.894172 112.852777 208.226555 
C 112.520394 208.558938 112.333637 209.009809 112.333637 209.479869 
C 112.333637 209.949929 112.520394 210.4008 112.852777 210.733183 
C 113.18516 211.065566 113.636031 211.252323 114.106091 211.252323 
z
" style="fill:#ee7733;stroke:#ee7733;stroke-width:0.886227;"/>
    <path clip-path="url(#p035c851162)" d="M 122.222455 212.1516 
C 122.692515 212.1516 123.143386 211.964843 123.475769 211.63246 
C 123.808151 211.300077 123.994908 210.849206 123.994908 210.379146 
C 123.994908 209.909085 123.808151 209.458214 123.475769 209.125832 
C 123.143386 208.793449 122.692515 208.606692 122.222455 208.606692 
C 121.752394 208.606692 121.301523 208.793449 120.96914 209.125832 
C 120.636758 209.458214 120.450001 209.909085 120.450001 210.379146 
C 120.450001 210.849206 120.636758 211.300077 120.96914 211.63246 
C 121.301523 211.964843 121.752394 212.1516 122.222455 212.1516 
z
" style="fill:#ee7733;stroke:#ee7733;stroke-width:0.886227;"/>
    <path clip-path="url(#p035c851162)" d="M 130.338818 208.774742 
C 130.808878 208.774742 131.25975 208.587985 131.592132 208.255603 
C 131.924515 207.92322 132.111272 207.472349 132.111272 207.002288 
C 132.111272 206.532228 131.924515 206.081357 131.592132 205.748974 
C 131.25975 205.416591 130.808878 205.229835 130.338818 205.229835 
C 129.868758 205.229835 129.417887 205.416591 129.085504 205.748974 
C 128.753121 206.081357 128.566364 206.532228 128.566364 207.002288 
C 128.566364 207.472349 128.753121 207.92322 129.085504 208.255603 
C 129.417887 208.587985 129.868758 208.774742 130.338818 208.774742 
z
" style="fill:#ee7733;stroke:#ee7733;stroke-width:0.886227;"/>
    <path clip-path="url(#p035c851162)" d="M 138.455182 164.69238 
C 138.925242 164.69238 139.376113 164.505623 139.708496 164.17324 
C 140.040879 163.840857 140.227636 163.389986 140.227636 162.919926 
C 140.227636 162.449866 140.040879 161.998994 139.708496 161.666612 
C 139.376113 161.334229 138.925242 161.147472 138.455182 161.147472 
C 137.985122 161.147472 137.53425 161.334229 137.201868 161.666612 
C 136.869485 161.998994 136.682728 162.449866 136.682728 162.919926 
C 136.682728 163.389986 136.869485 163.840857 137.201868 164.17324 
C 137.53425 164.505623 137.985122 164.69238 138.455182 164.69238 
z
" style="fill:#ee7733;stroke:#ee7733;stroke-width:0.886227;"/>
    <path clip-path="url(#p035c851162)" d="M 146.571545 199.455845 
C 147.041606 199.455845 147.492477 199.269088 147.82486 198.936705 
C 148.157242 198.604322 148.343999 198.153451 148.343999 197.683391 
C 148.343999 197.213331 148.157242 196.76246 147.82486 196.430077 
C 147.492477 196.097694 147.041606 195.910937 146.571545 195.910937 
C 146.101485 195.910937 145.650614 196.097694 145.318231 196.430077 
C 144.985849 196.76246 144.799092 197.213331 144.799092 197.683391 
C 144.799092 198.153451 144.985849 198.604322 145.318231 198.936705 
C 145.650614 199.269088 146.101485 199.455845 146.571545 199.455845 
z
" style="fill:#ee7733;stroke:#ee7733;stroke-width:0.886227;"/>
    <path clip-path="url(#p035c851162)" d="M 154.687909 151.926828 
C 155.157969 151.926828 155.60884 151.740072 155.941223 151.407689 
C 156.273606 151.075306 156.460363 150.624435 156.460363 150.154375 
C 156.460363 149.684314 156.273606 149.233443 155.941223 148.90106 
C 155.60884 148.568678 155.157969 148.381921 154.687909 148.381921 
C 154.217849 148.381921 153.766978 148.568678 153.434595 148.90106 
C 153.102212 149.233443 152.915455 149.684314 152.915455 150.154375 
C 152.915455 150.624435 153.102212 151.075306 153.434595 151.407689 
C 153.766978 151.740072 154.217849 151.926828 154.687909 151.926828 
z
" style="fill:#ee7733;stroke:#ee7733;stroke-width:0.886227;"/>
    <path clip-path="url(#p035c851162)" d="M 162.804273 156.234649 
C 163.274333 156.234649 163.725204 156.047892 164.057587 155.715509 
C 164.38997 155.383127 164.576727 154.932256 164.576727 154.462195 
C 164.576727 153.992135 164.38997 153.541264 164.057587 153.208881 
C 163.725204 152.876498 163.274333 152.689741 162.804273 152.689741 
C 162.334212 152.689741 161.883341 152.876498 161.550959 153.208881 
C 161.218576 153.541264 161.031819 153.992135 161.031819 154.462195 
C 161.031819 154.932256 161.218576 155.383127 161.550959 155.715509 
C 161.883341 156.047892 162.334212 156.234649 162.804273 156.234649 
z
" style="fill:#ee7733;stroke:#ee7733;stroke-width:0.886227;"/>
    <path clip-path="url(#p035c851162)" d="M 170.920636 140.108208 
C 171.390697 140.108208 171.841568 139.921451 172.173951 139.589068 
C 172.506333 139.256685 172.69309 138.805814 172.69309 138.335754 
C 172.69309 137.865693 172.506333 137.414822 172.173951 137.08244 
C 171.841568 136.750057 171.390697 136.5633 170.920636 136.5633 
C 170.450576 136.5633 169.999705 136.750057 169.667322 137.08244 
C 169.334939 137.414822 169.148183 137.865693 169.148183 138.335754 
C 169.148183 138.805814 169.334939 139.256685 169.667322 139.589068 
C 169.999705 139.921451 170.450576 140.108208 170.920636 140.108208 
z
" style="fill:#ee7733;stroke:#ee7733;stroke-width:0.886227;"/>
    <path clip-path="url(#p035c851162)" d="M 179.037 165.861992 
C 179.50706 165.861992 179.957931 165.675235 180.290314 165.342852 
C 180.622697 165.01047 180.809454 164.559598 180.809454 164.089538 
C 180.809454 163.619478 180.622697 163.168607 180.290314 162.836224 
C 179.957931 162.503841 179.50706 162.317084 179.037 162.317084 
C 178.56694 162.317084 178.116069 162.503841 177.783686 162.836224 
C 177.451303 163.168607 177.264546 163.619478 177.264546 164.089538 
C 177.264546 164.559598 177.451303 165.01047 177.783686 165.342852 
C 178.116069 165.675235 178.56694 165.861992 179.037 165.861992 
z
" style="fill:#ee7733;stroke:#ee7733;stroke-width:0.886227;"/>
    <path clip-path="url(#p035c851162)" d="M 187.153364 139.892311 
C 187.623424 139.892311 188.074295 139.705554 188.406678 139.373172 
C 188.739061 139.040789 188.925817 138.589918 188.925817 138.119857 
C 188.925817 137.649797 188.739061 137.198926 188.406678 136.866543 
C 188.074295 136.53416 187.623424 136.347404 187.153364 136.347404 
C 186.683303 136.347404 186.232432 136.53416 185.900049 136.866543 
C 185.567667 137.198926 185.38091 137.649797 185.38091 138.119857 
C 185.38091 138.589918 185.567667 139.040789 185.900049 139.373172 
C 186.232432 139.705554 186.683303 139.892311 187.153364 139.892311 
z
" style="fill:#ee7733;stroke:#ee7733;stroke-width:0.886227;"/>
    <path clip-path="url(#p035c851162)" d="M 195.269727 163.961354 
C 195.739788 163.961354 196.190659 163.774597 196.523041 163.442215 
C 196.855424 163.109832 197.042181 162.658961 197.042181 162.1889 
C 197.042181 161.71884 196.855424 161.267969 196.523041 160.935586 
C 196.190659 160.603203 195.739788 160.416447 195.269727 160.416447 
C 194.799667 160.416447 194.348796 160.603203 194.016413 160.935586 
C 193.68403 161.267969 193.497273 161.71884 193.497273 162.1889 
C 193.497273 162.658961 193.68403 163.109832 194.016413 163.442215 
C 194.348796 163.774597 194.799667 163.961354 195.269727 163.961354 
z
" style="fill:#ee7733;stroke:#ee7733;stroke-width:0.886227;"/>
    <path clip-path="url(#p035c851162)" d="M 203.386091 142.492643 
C 203.856151 142.492643 204.307022 142.305886 204.639405 141.973503 
C 204.971788 141.64112 205.158545 141.190249 205.158545 140.720189 
C 205.158545 140.250129 204.971788 139.799258 204.639405 139.466875 
C 204.307022 139.134492 203.856151 138.947735 203.386091 138.947735 
C 202.916031 138.947735 202.46516 139.134492 202.132777 139.466875 
C 201.800394 139.799258 201.613637 140.250129 201.613637 140.720189 
C 201.613637 141.190249 201.800394 141.64112 202.132777 141.973503 
C 202.46516 142.305886 202.916031 142.492643 203.386091 142.492643 
z
" style="fill:#ee7733;stroke:#ee7733;stroke-width:0.886227;"/>
    <path clip-path="url(#p035c851162)" d="M 211.502455 170.427096 
C 211.972515 170.427096 212.423386 170.240339 212.755769 169.907956 
C 213.088151 169.575573 213.274908 169.124702 213.274908 168.654642 
C 213.274908 168.184582 213.088151 167.733711 212.755769 167.401328 
C 212.423386 167.068945 211.972515 166.882188 211.502455 166.882188 
C 211.032394 166.882188 210.581523 167.068945 210.24914 167.401328 
C 209.916758 167.733711 209.730001 168.184582 209.730001 168.654642 
C 209.730001 169.124702 209.916758 169.575573 210.24914 169.907956 
C 210.581523 170.240339 211.032394 170.427096 211.502455 170.427096 
z
" style="fill:#ee7733;stroke:#ee7733;stroke-width:0.886227;"/>
    <path clip-path="url(#p035c851162)" d="M 219.618818 166.443043 
C 220.088878 166.443043 220.53975 166.256286 220.872132 165.923903 
C 221.204515 165.59152 221.391272 165.140649 221.391272 164.670589 
C 221.391272 164.200529 221.204515 163.749657 220.872132 163.417275 
C 220.53975 163.084892 220.088878 162.898135 219.618818 162.898135 
C 219.148758 162.898135 218.697887 163.084892 218.365504 163.417275 
C 218.033121 163.749657 217.846364 164.200529 217.846364 164.670589 
C 217.846364 165.140649 218.033121 165.59152 218.365504 165.923903 
C 218.697887 166.256286 219.148758 166.443043 219.618818 166.443043 
z
" style="fill:#ee7733;stroke:#ee7733;stroke-width:0.886227;"/>
    <path clip-path="url(#p035c851162)" d="M 227.735182 154.651421 
C 228.205242 154.651421 228.656113 154.464664 228.988496 154.132281 
C 229.320879 153.799898 229.507636 153.349027 229.507636 152.878967 
C 229.507636 152.408907 229.320879 151.958036 228.988496 151.625653 
C 228.656113 151.29327 228.205242 151.106513 227.735182 151.106513 
C 227.265122 151.106513 226.81425 151.29327 226.481868 151.625653 
C 226.149485 151.958036 225.962728 152.408907 225.962728 152.878967 
C 225.962728 153.349027 226.149485 153.799898 226.481868 154.132281 
C 226.81425 154.464664 227.265122 154.651421 227.735182 154.651421 
z
" style="fill:#ee7733;stroke:#ee7733;stroke-width:0.886227;"/>
    <path clip-path="url(#p035c851162)" d="M 235.851545 146.696821 
C 236.321606 146.696821 236.772477 146.510064 237.10486 146.177681 
C 237.437242 145.845298 237.623999 145.394427 237.623999 144.924367 
C 237.623999 144.454307 237.437242 144.003436 237.10486 143.671053 
C 236.772477 143.33867 236.321606 143.151913 235.851545 143.151913 
C 235.381485 143.151913 234.930614 143.33867 234.598231 143.671053 
C 234.265849 144.003436 234.079092 144.454307 234.079092 144.924367 
C 234.079092 145.394427 234.265849 145.845298 234.598231 146.177681 
C 234.930614 146.510064 235.381485 146.696821 235.851545 146.696821 
z
" style="fill:#ee7733;stroke:#ee7733;stroke-width:0.886227;"/>
    <path clip-path="url(#p035c851162)" d="M 243.967909 141.266117 
C 244.437969 141.266117 244.88884 141.07936 245.221223 140.746977 
C 245.553606 140.414594 245.740363 139.963723 245.740363 139.493663 
C 245.740363 139.023603 245.553606 138.572732 245.221223 138.240349 
C 244.88884 137.907966 244.437969 137.721209 243.967909 137.721209 
C 243.497849 137.721209 243.046978 137.907966 242.714595 138.240349 
C 242.382212 138.572732 242.195455 139.023603 242.195455 139.493663 
C 242.195455 139.963723 242.382212 140.414594 242.714595 140.746977 
C 243.046978 141.07936 243.497849 141.266117 243.967909 141.266117 
z
" style="fill:#ee7733;stroke:#ee7733;stroke-width:0.886227;"/>
    <path clip-path="url(#p035c851162)" d="M 252.084273 145.773971 
C 252.554333 145.773971 253.005204 145.587214 253.337587 145.254831 
C 253.66997 144.922448 253.856727 144.471577 253.856727 144.001517 
C 253.856727 143.531457 253.66997 143.080586 253.337587 142.748203 
C 253.005204 142.41582 252.554333 142.229063 252.084273 142.229063 
C 251.614212 142.229063 251.163341 142.41582 250.830959 142.748203 
C 250.498576 143.080586 250.311819 143.531457 250.311819 144.001517 
C 250.311819 144.471577 250.498576 144.922448 250.830959 145.254831 
C 251.163341 145.587214 251.614212 145.773971 252.084273 145.773971 
z
" style="fill:#ee7733;stroke:#ee7733;stroke-width:0.886227;"/>
    <path clip-path="url(#p035c851162)" d="M 260.200636 144.323391 
C 260.670697 144.323391 261.121568 144.136634 261.453951 143.804252 
C 261.786333 143.471869 261.97309 143.020998 261.97309 142.550937 
C 261.97309 142.080877 261.786333 141.630006 261.453951 141.297623 
C 261.121568 140.96524 260.670697 140.778484 260.200636 140.778484 
C 259.730576 140.778484 259.279705 140.96524 258.947322 141.297623 
C 258.614939 141.630006 258.428183 142.080877 258.428183 142.550937 
C 258.428183 143.020998 258.614939 143.471869 258.947322 143.804252 
C 259.279705 144.136634 259.730576 144.323391 260.200636 144.323391 
z
" style="fill:#ee7733;stroke:#ee7733;stroke-width:0.886227;"/>
    <path clip-path="url(#p035c851162)" d="M 268.317 137.142435 
C 268.78706 137.142435 269.237931 136.955678 269.570314 136.623295 
C 269.902697 136.290912 270.089454 135.840041 270.089454 135.369981 
C 270.089454 134.899921 269.902697 134.44905 269.570314 134.116667 
C 269.237931 133.784284 268.78706 133.597527 268.317 133.597527 
C 267.84694 133.597527 267.396069 133.784284 267.063686 134.116667 
C 266.731303 134.44905 266.544546 134.899921 266.544546 135.369981 
C 266.544546 135.840041 266.731303 136.290912 267.063686 136.623295 
C 267.396069 136.955678 267.84694 137.142435 268.317 137.142435 
z
" style="fill:#ee7733;stroke:#ee7733;stroke-width:0.886227;"/>
    <path clip-path="url(#p035c851162)" d="M 276.433364 147.650069 
C 276.903424 147.650069 277.354295 147.463312 277.686678 147.130929 
C 278.019061 146.798546 278.205817 146.347675 278.205817 145.877615 
C 278.205817 145.407555 278.019061 144.956684 277.686678 144.624301 
C 277.354295 144.291918 276.903424 144.105161 276.433364 144.105161 
C 275.963303 144.105161 275.512432 144.291918 275.180049 144.624301 
C 274.847667 144.956684 274.66091 145.407555 274.66091 145.877615 
C 274.66091 146.347675 274.847667 146.798546 275.180049 147.130929 
C 275.512432 147.463312 275.963303 147.650069 276.433364 147.650069 
z
" style="fill:#ee7733;stroke:#ee7733;stroke-width:0.886227;"/>
    <path clip-path="url(#p035c851162)" d="M 284.549727 145.732948 
C 285.019788 145.732948 285.470659 145.546191 285.803041 145.213808 
C 286.135424 144.881426 286.322181 144.430555 286.322181 143.960494 
C 286.322181 143.490434 286.135424 143.039563 285.803041 142.70718 
C 285.470659 142.374797 285.019788 142.18804 284.549727 142.18804 
C 284.079667 142.18804 283.628796 142.374797 283.296413 142.70718 
C 282.96403 143.039563 282.777273 143.490434 282.777273 143.960494 
C 282.777273 144.430555 282.96403 144.881426 283.296413 145.213808 
C 283.628796 145.546191 284.079667 145.732948 284.549727 145.732948 
z
" style="fill:#ee7733;stroke:#ee7733;stroke-width:0.886227;"/>
    <path clip-path="url(#p035c851162)" d="M 292.666091 145.287889 
C 293.136151 145.287889 293.587022 145.101132 293.919405 144.76875 
C 294.251788 144.436367 294.438545 143.985496 294.438545 143.515436 
C 294.438545 143.045375 294.251788 142.594504 293.919405 142.262121 
C 293.587022 141.929739 293.136151 141.742982 292.666091 141.742982 
C 292.196031 141.742982 291.74516 141.929739 291.412777 142.262121 
C 291.080394 142.594504 290.893637 143.045375 290.893637 143.515436 
C 290.893637 143.985496 291.080394 144.436367 291.412777 144.76875 
C 291.74516 145.101132 292.196031 145.287889 292.666091 145.287889 
z
" style="fill:#ee7733;stroke:#ee7733;stroke-width:0.886227;"/>
    <path clip-path="url(#p035c851162)" d="M 300.782455 146.002624 
C 301.252515 146.002624 301.703386 145.815867 302.035769 145.483484 
C 302.368151 145.151101 302.554908 144.70023 302.554908 144.23017 
C 302.554908 143.76011 302.368151 143.309238 302.035769 142.976856 
C 301.703386 142.644473 301.252515 142.457716 300.782455 142.457716 
C 300.312394 142.457716 299.861523 142.644473 299.52914 142.976856 
C 299.196758 143.309238 299.010001 143.76011 299.010001 144.23017 
C 299.010001 144.70023 299.196758 145.151101 299.52914 145.483484 
C 299.861523 145.815867 300.312394 146.002624 300.782455 146.002624 
z
" style="fill:#ee7733;stroke:#ee7733;stroke-width:0.886227;"/>
    <path clip-path="url(#p035c851162)" d="M 308.898818 150.227795 
C 309.368878 150.227795 309.81975 150.041038 310.152132 149.708656 
C 310.484515 149.376273 310.671272 148.925402 310.671272 148.455341 
C 310.671272 147.985281 310.484515 147.53441 310.152132 147.202027 
C 309.81975 146.869644 309.368878 146.682888 308.898818 146.682888 
C 308.428758 146.682888 307.977887 146.869644 307.645504 147.202027 
C 307.313121 147.53441 307.126364 147.985281 307.126364 148.455341 
C 307.126364 148.925402 307.313121 149.376273 307.645504 149.708656 
C 307.977887 150.041038 308.428758 150.227795 308.898818 150.227795 
z
" style="fill:#ee7733;stroke:#ee7733;stroke-width:0.886227;"/>
    <path clip-path="url(#p035c851162)" d="M 317.015182 147.170623 
C 317.485242 147.170623 317.936113 146.983866 318.268496 146.651483 
C 318.600879 146.3191 318.787636 145.868229 318.787636 145.398169 
C 318.787636 144.928108 318.600879 144.477237 318.268496 144.144855 
C 317.936113 143.812472 317.485242 143.625715 317.015182 143.625715 
C 316.545122 143.625715 316.09425 143.812472 315.761868 144.144855 
C 315.429485 144.477237 315.242728 144.928108 315.242728 145.398169 
C 315.242728 145.868229 315.429485 146.3191 315.761868 146.651483 
C 316.09425 146.983866 316.545122 147.170623 317.015182 147.170623 
z
" style="fill:#ee7733;stroke:#ee7733;stroke-width:0.886227;"/>
    <path clip-path="url(#p035c851162)" d="M 325.131545 145.511247 
C 325.601606 145.511247 326.052477 145.32449 326.38486 144.992107 
C 326.717242 144.659724 326.903999 144.208853 326.903999 143.738793 
C 326.903999 143.268732 326.717242 142.817861 326.38486 142.485479 
C 326.052477 142.153096 325.601606 141.966339 325.131545 141.966339 
C 324.661485 141.966339 324.210614 142.153096 323.878231 142.485479 
C 323.545849 142.817861 323.359092 143.268732 323.359092 143.738793 
C 323.359092 144.208853 323.545849 144.659724 323.878231 144.992107 
C 324.210614 145.32449 324.661485 145.511247 325.131545 145.511247 
z
" style="fill:#ee7733;stroke:#ee7733;stroke-width:0.886227;"/>
    <path clip-path="url(#p035c851162)" d="M 333.247909 143.880109 
C 333.717969 143.880109 334.16884 143.693352 334.501223 143.360969 
C 334.833606 143.028586 335.020363 142.577715 335.020363 142.107655 
C 335.020363 141.637595 334.833606 141.186723 334.501223 140.854341 
C 334.16884 140.521958 333.717969 140.335201 333.247909 140.335201 
C 332.777849 140.335201 332.326978 140.521958 331.994595 140.854341 
C 331.662212 141.186723 331.475455 141.637595 331.475455 142.107655 
C 331.475455 142.577715 331.662212 143.028586 331.994595 143.360969 
C 332.326978 143.693352 332.777849 143.880109 333.247909 143.880109 
z
" style="fill:#ee7733;stroke:#ee7733;stroke-width:0.886227;"/>
    <path clip-path="url(#p035c851162)" d="M 341.364273 141.838757 
C 341.834333 141.838757 342.285204 141.652 342.617587 141.319617 
C 342.94997 140.987234 343.136727 140.536363 343.136727 140.066303 
C 343.136727 139.596243 342.94997 139.145372 342.617587 138.812989 
C 342.285204 138.480606 341.834333 138.293849 341.364273 138.293849 
C 340.894212 138.293849 340.443341 138.480606 340.110959 138.812989 
C 339.778576 139.145372 339.591819 139.596243 339.591819 140.066303 
C 339.591819 140.536363 339.778576 140.987234 340.110959 141.319617 
C 340.443341 141.652 340.894212 141.838757 341.364273 141.838757 
z
" style="fill:#ee7733;stroke:#ee7733;stroke-width:0.886227;"/>
    <path clip-path="url(#p035c851162)" d="M 349.480636 140.439313 
C 349.950697 140.439313 350.401568 140.252556 350.733951 139.920173 
C 351.066333 139.587791 351.25309 139.13692 351.25309 138.666859 
C 351.25309 138.196799 351.066333 137.745928 350.733951 137.413545 
C 350.401568 137.081162 349.950697 136.894405 349.480636 136.894405 
C 349.010576 136.894405 348.559705 137.081162 348.227322 137.413545 
C 347.894939 137.745928 347.708183 138.196799 347.708183 138.666859 
C 347.708183 139.13692 347.894939 139.587791 348.227322 139.920173 
C 348.559705 140.252556 349.010576 140.439313 349.480636 140.439313 
z
" style="fill:#ee7733;stroke:#ee7733;stroke-width:0.886227;"/>
    <path clip-path="url(#p035c851162)" d="M 357.597 138.624225 
C 358.06706 138.624225 358.517931 138.437468 358.850314 138.105085 
C 359.182697 137.772702 359.369454 137.321831 359.369454 136.851771 
C 359.369454 136.381711 359.182697 135.93084 358.850314 135.598457 
C 358.517931 135.266074 358.06706 135.079317 357.597 135.079317 
C 357.12694 135.079317 356.676069 135.266074 356.343686 135.598457 
C 356.011303 135.93084 355.824546 136.381711 355.824546 136.851771 
C 355.824546 137.321831 356.011303 137.772702 356.343686 138.105085 
C 356.676069 138.437468 357.12694 138.624225 357.597 138.624225 
z
" style="fill:#ee7733;stroke:#ee7733;stroke-width:0.886227;"/>
    <path clip-path="url(#p035c851162)" d="M 365.713364 135.983555 
C 366.183424 135.983555 366.634295 135.796798 366.966678 135.464415 
C 367.299061 135.132032 367.485817 134.681161 367.485817 134.211101 
C 367.485817 133.741041 367.299061 133.29017 366.966678 132.957787 
C 366.634295 132.625404 366.183424 132.438647 365.713364 132.438647 
C 365.243303 132.438647 364.792432 132.625404 364.460049 132.957787 
C 364.127667 133.29017 363.94091 133.741041 363.94091 134.211101 
C 363.94091 134.681161 364.127667 135.132032 364.460049 135.464415 
C 364.792432 135.796798 365.243303 135.983555 365.713364 135.983555 
z
" style="fill:#ee7733;stroke:#ee7733;stroke-width:0.886227;"/>
    <path clip-path="url(#p035c851162)" d="M 373.829727 136.297363 
C 374.299788 136.297363 374.750659 136.110607 375.083041 135.778224 
C 375.415424 135.445841 375.602181 134.99497 375.602181 134.52491 
C 375.602181 134.054849 375.415424 133.603978 375.083041 133.271595 
C 374.750659 132.939213 374.299788 132.752456 373.829727 132.752456 
C 373.359667 132.752456 372.908796 132.939213 372.576413 133.271595 
C 372.24403 133.603978 372.057273 134.054849 372.057273 134.52491 
C 372.057273 134.99497 372.24403 135.445841 372.576413 135.778224 
C 372.908796 136.110607 373.359667 136.297363 373.829727 136.297363 
z
" style="fill:#ee7733;stroke:#ee7733;stroke-width:0.886227;"/>
    <path clip-path="url(#p035c851162)" d="M 381.946091 133.073529 
C 382.416151 133.073529 382.867022 132.886772 383.199405 132.554389 
C 383.531788 132.222006 383.718545 131.771135 383.718545 131.301075 
C 383.718545 130.831015 383.531788 130.380144 383.199405 130.047761 
C 382.867022 129.715378 382.416151 129.528621 381.946091 129.528621 
C 381.476031 129.528621 381.02516 129.715378 380.692777 130.047761 
C 380.360394 130.380144 380.173637 130.831015 380.173637 131.301075 
C 380.173637 131.771135 380.360394 132.222006 380.692777 132.554389 
C 381.02516 132.886772 381.476031 133.073529 381.946091 133.073529 
z
" style="fill:#ee7733;stroke:#ee7733;stroke-width:0.886227;"/>
    <path clip-path="url(#p035c851162)" d="M 390.062455 124.199144 
C 390.532515 124.199144 390.983386 124.012387 391.315769 123.680004 
C 391.648151 123.347622 391.834908 122.89675 391.834908 122.42669 
C 391.834908 121.95663 391.648151 121.505759 391.315769 121.173376 
C 390.983386 120.840993 390.532515 120.654236 390.062455 120.654236 
C 389.592394 120.654236 389.141523 120.840993 388.80914 121.173376 
C 388.476758 121.505759 388.290001 121.95663 388.290001 122.42669 
C 388.290001 122.89675 388.476758 123.347622 388.80914 123.680004 
C 389.141523 124.012387 389.592394 124.199144 390.062455 124.199144 
z
" style="fill:#ee7733;stroke:#ee7733;stroke-width:0.886227;"/>
    <path clip-path="url(#p035c851162)" d="M 398.178818 119.897355 
C 398.648878 119.897355 399.09975 119.710598 399.432132 119.378215 
C 399.764515 119.045833 399.951272 118.594962 399.951272 118.124901 
C 399.951272 117.654841 399.764515 117.20397 399.432132 116.871587 
C 399.09975 116.539204 398.648878 116.352447 398.178818 116.352447 
C 397.708758 116.352447 397.257887 116.539204 396.925504 116.871587 
C 396.593121 117.20397 396.406364 117.654841 396.406364 118.124901 
C 396.406364 118.594962 396.593121 119.045833 396.925504 119.378215 
C 397.257887 119.710598 397.708758 119.897355 398.178818 119.897355 
z
" style="fill:#ee7733;stroke:#ee7733;stroke-width:0.886227;"/>
    <path clip-path="url(#p035c851162)" d="M 406.295182 115.35174 
C 406.765242 115.35174 407.216113 115.164983 407.548496 114.8326 
C 407.880879 114.500218 408.067636 114.049346 408.067636 113.579286 
C 408.067636 113.109226 407.880879 112.658355 407.548496 112.325972 
C 407.216113 111.993589 406.765242 111.806832 406.295182 111.806832 
C 405.825122 111.806832 405.37425 111.993589 405.041868 112.325972 
C 404.709485 112.658355 404.522728 113.109226 404.522728 113.579286 
C 404.522728 114.049346 404.709485 114.500218 405.041868 114.8326 
C 405.37425 115.164983 405.825122 115.35174 406.295182 115.35174 
z
" style="fill:#ee7733;stroke:#ee7733;stroke-width:0.886227;"/>
    <path clip-path="url(#p035c851162)" d="M 414.411545 109.2442 
C 414.881606 109.2442 415.332477 109.057443 415.66486 108.72506 
C 415.997242 108.392677 416.183999 107.941806 416.183999 107.471746 
C 416.183999 107.001685 415.997242 106.550814 415.66486 106.218432 
C 415.332477 105.886049 414.881606 105.699292 414.411545 105.699292 
C 413.941485 105.699292 413.490614 105.886049 413.158231 106.218432 
C 412.825849 106.550814 412.639092 107.001685 412.639092 107.471746 
C 412.639092 107.941806 412.825849 108.392677 413.158231 108.72506 
C 413.490614 109.057443 413.941485 109.2442 414.411545 109.2442 
z
" style="fill:#ee7733;stroke:#ee7733;stroke-width:0.886227;"/>
    <path clip-path="url(#p035c851162)" d="M 422.527909 103.737027 
C 422.997969 103.737027 423.44884 103.55027 423.781223 103.217887 
C 424.113606 102.885504 424.300363 102.434633 424.300363 101.964573 
C 424.300363 101.494512 424.113606 101.043641 423.781223 100.711259 
C 423.44884 100.378876 422.997969 100.192119 422.527909 100.192119 
C 422.057849 100.192119 421.606978 100.378876 421.274595 100.711259 
C 420.942212 101.043641 420.755455 101.494512 420.755455 101.964573 
C 420.755455 102.434633 420.942212 102.885504 421.274595 103.217887 
C 421.606978 103.55027 422.057849 103.737027 422.527909 103.737027 
z
" style="fill:#ee7733;stroke:#ee7733;stroke-width:0.886227;"/>
    <path clip-path="url(#p035c851162)" d="M 430.644273 100.662692 
C 431.114333 100.662692 431.565204 100.475935 431.897587 100.143552 
C 432.22997 99.811169 432.416727 99.360298 432.416727 98.890238 
C 432.416727 98.420178 432.22997 97.969307 431.897587 97.636924 
C 431.565204 97.304541 431.114333 97.117784 430.644273 97.117784 
C 430.174212 97.117784 429.723341 97.304541 429.390959 97.636924 
C 429.058576 97.969307 428.871819 98.420178 428.871819 98.890238 
C 428.871819 99.360298 429.058576 99.811169 429.390959 100.143552 
C 429.723341 100.475935 430.174212 100.662692 430.644273 100.662692 
z
" style="fill:#ee7733;stroke:#ee7733;stroke-width:0.886227;"/>
    <path clip-path="url(#p035c851162)" d="M 438.760636 94.393905 
C 439.230697 94.393905 439.681568 94.207148 440.013951 93.874765 
C 440.346333 93.542382 440.53309 93.091511 440.53309 92.621451 
C 440.53309 92.151391 440.346333 91.700519 440.013951 91.368137 
C 439.681568 91.035754 439.230697 90.848997 438.760636 90.848997 
C 438.290576 90.848997 437.839705 91.035754 437.507322 91.368137 
C 437.174939 91.700519 436.988183 92.151391 436.988183 92.621451 
C 436.988183 93.091511 437.174939 93.542382 437.507322 93.874765 
C 437.839705 94.207148 438.290576 94.393905 438.760636 94.393905 
z
" style="fill:#ee7733;stroke:#ee7733;stroke-width:0.886227;"/>
    <path clip-path="url(#p035c851162)" d="M 446.877 98.562081 
C 447.34706 98.562081 447.797931 98.375324 448.130314 98.042941 
C 448.462697 97.710558 448.649454 97.259687 448.649454 96.789627 
C 448.649454 96.319567 448.462697 95.868696 448.130314 95.536313 
C 447.797931 95.20393 447.34706 95.017173 446.877 95.017173 
C 446.40694 95.017173 445.956069 95.20393 445.623686 95.536313 
C 445.291303 95.868696 445.104546 96.319567 445.104546 96.789627 
C 445.104546 97.259687 445.291303 97.710558 445.623686 98.042941 
C 445.956069 98.375324 446.40694 98.562081 446.877 98.562081 
z
" style="fill:#ee7733;stroke:#ee7733;stroke-width:0.886227;"/>
    <path clip-path="url(#p035c851162)" d="M 454.993364 101.009574 
C 455.463424 101.009574 455.914295 100.822817 456.246678 100.490434 
C 456.579061 100.158051 456.765817 99.70718 456.765817 99.23712 
C 456.765817 98.76706 456.579061 98.316189 456.246678 97.983806 
C 455.914295 97.651423 455.463424 97.464666 454.993364 97.464666 
C 454.523303 97.464666 454.072432 97.651423 453.740049 97.983806 
C 453.407667 98.316189 453.22091 98.76706 453.22091 99.23712 
C 453.22091 99.70718 453.407667 100.158051 453.740049 100.490434 
C 454.072432 100.822817 454.523303 101.009574 454.993364 101.009574 
z
" style="fill:#ee7733;stroke:#ee7733;stroke-width:0.886227;"/>
    <path clip-path="url(#p035c851162)" d="M 463.109727 100.39522 
C 463.579788 100.39522 464.030659 100.208463 464.363041 99.87608 
C 464.695424 99.543697 464.882181 99.092826 464.882181 98.622766 
C 464.882181 98.152706 464.695424 97.701835 464.363041 97.369452 
C 464.030659 97.037069 463.579788 96.850312 463.109727 96.850312 
C 462.639667 96.850312 462.188796 97.037069 461.856413 97.369452 
C 461.52403 97.701835 461.337273 98.152706 461.337273 98.622766 
C 461.337273 99.092826 461.52403 99.543697 461.856413 99.87608 
C 462.188796 100.208463 462.639667 100.39522 463.109727 100.39522 
z
" style="fill:#ee7733;stroke:#ee7733;stroke-width:0.886227;"/>
   </g>
  </g>
 </g>
 <defs>
  <clipPath id="p035c851162">
   <rect height="221.76" width="446.4" x="45.117" y="7.2"/>
  </clipPath>
 </defs>
</svg>
