<?xml version="1.0" encoding="utf-8" standalone="no"?>
<!DOCTYPE svg PUBLIC "-//W3C//DTD SVG 1.1//EN"
  "http://www.w3.org/Graphics/SVG/1.1/DTD/svg11.dtd">
<!-- Created with matplotlib (https://matplotlib.org/) -->
<svg height="274.544375pt" version="1.1" viewBox="0 0 513.9925 274.544375" width="513.9925pt" xmlns="http://www.w3.org/2000/svg" xmlns:xlink="http://www.w3.org/1999/xlink">
 <defs>
  <style type="text/css">
*{stroke-linecap:butt;stroke-linejoin:round;}
  </style>
 </defs>
 <g id="figure_1">
  <g id="patch_1">
   <path d="M 0 274.544375 
L 513.9925 274.544375 
L 513.9925 0 
L 0 0 
z
" style="fill:#ffffff;stroke:#ffffff;stroke-linejoin:miter;"/>
  </g>
  <g id="axes_1">
   <g id="patch_2">
    <path d="M 60.3925 228.96 
L 506.7925 228.96 
L 506.7925 7.2 
L 60.3925 7.2 
z
" style="fill:#ffffff;"/>
   </g>
   <g id="matplotlib.axis_1">
    <g id="xtick_1">
     <g id="line2d_1">
      <path d="M 80.683409 228.96 
" style="fill:none;stroke:#000000;stroke-width:1.5;"/>
      <defs>
       <path d="M 0 0 
L 0 2.75 
" id="ma32b689b25" style="stroke:#000000;"/>
      </defs>
      <g>
       <use style="stroke:#000000;" x="80.683409" xlink:href="#ma32b689b25" y="228.96"/>
      </g>
     </g>
     <g id="text_1">
      <!-- 1970 -->
      <defs>
       <path d="M 12.40625 8.296875 
L 28.515625 8.296875 
L 28.515625 63.921875 
L 10.984375 60.40625 
L 10.984375 69.390625 
L 28.421875 72.90625 
L 38.28125 72.90625 
L 38.28125 8.296875 
L 54.390625 8.296875 
L 54.390625 0 
L 12.40625 0 
z
" id="DejaVuSans-49"/>
       <path d="M 10.984375 1.515625 
L 10.984375 10.5 
Q 14.703125 8.734375 18.5 7.8125 
Q 22.3125 6.890625 25.984375 6.890625 
Q 35.75 6.890625 40.890625 13.453125 
Q 46.046875 20.015625 46.78125 33.40625 
Q 43.953125 29.203125 39.59375 26.953125 
Q 35.25 24.703125 29.984375 24.703125 
Q 19.046875 24.703125 12.671875 31.3125 
Q 6.296875 37.9375 6.296875 49.421875 
Q 6.296875 60.640625 12.9375 67.421875 
Q 19.578125 74.21875 30.609375 74.21875 
Q 43.265625 74.21875 49.921875 64.515625 
Q 56.59375 54.828125 56.59375 36.375 
Q 56.59375 19.140625 48.40625 8.859375 
Q 40.234375 -1.421875 26.421875 -1.421875 
Q 22.703125 -1.421875 18.890625 -0.6875 
Q 15.09375 0.046875 10.984375 1.515625 
z
M 30.609375 32.421875 
Q 37.25 32.421875 41.125 36.953125 
Q 45.015625 41.5 45.015625 49.421875 
Q 45.015625 57.28125 41.125 61.84375 
Q 37.25 66.40625 30.609375 66.40625 
Q 23.96875 66.40625 20.09375 61.84375 
Q 16.21875 57.28125 16.21875 49.421875 
Q 16.21875 41.5 20.09375 36.953125 
Q 23.96875 32.421875 30.609375 32.421875 
z
" id="DejaVuSans-57"/>
       <path d="M 8.203125 72.90625 
L 55.078125 72.90625 
L 55.078125 68.703125 
L 28.609375 0 
L 18.3125 0 
L 43.21875 64.59375 
L 8.203125 64.59375 
z
" id="DejaVuSans-55"/>
       <path d="M 31.78125 66.40625 
Q 24.171875 66.40625 20.328125 58.90625 
Q 16.5 51.421875 16.5 36.375 
Q 16.5 21.390625 20.328125 13.890625 
Q 24.171875 6.390625 31.78125 6.390625 
Q 39.453125 6.390625 43.28125 13.890625 
Q 47.125 21.390625 47.125 36.375 
Q 47.125 51.421875 43.28125 58.90625 
Q 39.453125 66.40625 31.78125 66.40625 
z
M 31.78125 74.21875 
Q 44.046875 74.21875 50.515625 64.515625 
Q 56.984375 54.828125 56.984375 36.375 
Q 56.984375 17.96875 50.515625 8.265625 
Q 44.046875 -1.421875 31.78125 -1.421875 
Q 19.53125 -1.421875 13.0625 8.265625 
Q 6.59375 17.96875 6.59375 36.375 
Q 6.59375 54.828125 13.0625 64.515625 
Q 19.53125 74.21875 31.78125 74.21875 
z
" id="DejaVuSans-48"/>
      </defs>
      <g transform="translate(62.868409 244.547813)scale(0.14 -0.14)">
       <use xlink:href="#DejaVuSans-49"/>
       <use x="63.623047" xlink:href="#DejaVuSans-57"/>
       <use x="127.246094" xlink:href="#DejaVuSans-55"/>
       <use x="190.869141" xlink:href="#DejaVuSans-48"/>
      </g>
     </g>
    </g>
    <g id="xtick_2">
     <g id="line2d_2">
      <path d="M 161.847045 228.96 
" style="fill:none;stroke:#000000;stroke-width:1.5;"/>
      <g>
       <use style="stroke:#000000;" x="161.847045" xlink:href="#ma32b689b25" y="228.96"/>
      </g>
     </g>
     <g id="text_2">
      <!-- 1980 -->
      <defs>
       <path d="M 31.78125 34.625 
Q 24.75 34.625 20.71875 30.859375 
Q 16.703125 27.09375 16.703125 20.515625 
Q 16.703125 13.921875 20.71875 10.15625 
Q 24.75 6.390625 31.78125 6.390625 
Q 38.8125 6.390625 42.859375 10.171875 
Q 46.921875 13.96875 46.921875 20.515625 
Q 46.921875 27.09375 42.890625 30.859375 
Q 38.875 34.625 31.78125 34.625 
z
M 21.921875 38.8125 
Q 15.578125 40.375 12.03125 44.71875 
Q 8.5 49.078125 8.5 55.328125 
Q 8.5 64.0625 14.71875 69.140625 
Q 20.953125 74.21875 31.78125 74.21875 
Q 42.671875 74.21875 48.875 69.140625 
Q 55.078125 64.0625 55.078125 55.328125 
Q 55.078125 49.078125 51.53125 44.71875 
Q 48 40.375 41.703125 38.8125 
Q 48.828125 37.15625 52.796875 32.3125 
Q 56.78125 27.484375 56.78125 20.515625 
Q 56.78125 9.90625 50.3125 4.234375 
Q 43.84375 -1.421875 31.78125 -1.421875 
Q 19.734375 -1.421875 13.25 4.234375 
Q 6.78125 9.90625 6.78125 20.515625 
Q 6.78125 27.484375 10.78125 32.3125 
Q 14.796875 37.15625 21.921875 38.8125 
z
M 18.3125 54.390625 
Q 18.3125 48.734375 21.84375 45.5625 
Q 25.390625 42.390625 31.78125 42.390625 
Q 38.140625 42.390625 41.71875 45.5625 
Q 45.3125 48.734375 45.3125 54.390625 
Q 45.3125 60.0625 41.71875 63.234375 
Q 38.140625 66.40625 31.78125 66.40625 
Q 25.390625 66.40625 21.84375 63.234375 
Q 18.3125 60.0625 18.3125 54.390625 
z
" id="DejaVuSans-56"/>
      </defs>
      <g transform="translate(144.032045 244.547813)scale(0.14 -0.14)">
       <use xlink:href="#DejaVuSans-49"/>
       <use x="63.623047" xlink:href="#DejaVuSans-57"/>
       <use x="127.246094" xlink:href="#DejaVuSans-56"/>
       <use x="190.869141" xlink:href="#DejaVuSans-48"/>
      </g>
     </g>
    </g>
    <g id="xtick_3">
     <g id="line2d_3">
      <path d="M 243.010682 228.96 
" style="fill:none;stroke:#000000;stroke-width:1.5;"/>
      <g>
       <use style="stroke:#000000;" x="243.010682" xlink:href="#ma32b689b25" y="228.96"/>
      </g>
     </g>
     <g id="text_3">
      <!-- 1990 -->
      <g transform="translate(225.195682 244.547813)scale(0.14 -0.14)">
       <use xlink:href="#DejaVuSans-49"/>
       <use x="63.623047" xlink:href="#DejaVuSans-57"/>
       <use x="127.246094" xlink:href="#DejaVuSans-57"/>
       <use x="190.869141" xlink:href="#DejaVuSans-48"/>
      </g>
     </g>
    </g>
    <g id="xtick_4">
     <g id="line2d_4">
      <path d="M 324.174318 228.96 
" style="fill:none;stroke:#000000;stroke-width:1.5;"/>
      <g>
       <use style="stroke:#000000;" x="324.174318" xlink:href="#ma32b689b25" y="228.96"/>
      </g>
     </g>
     <g id="text_4">
      <!-- 2000 -->
      <defs>
       <path d="M 19.1875 8.296875 
L 53.609375 8.296875 
L 53.609375 0 
L 7.328125 0 
L 7.328125 8.296875 
Q 12.9375 14.109375 22.625 23.890625 
Q 32.328125 33.6875 34.8125 36.53125 
Q 39.546875 41.84375 41.421875 45.53125 
Q 43.3125 49.21875 43.3125 52.78125 
Q 43.3125 58.59375 39.234375 62.25 
Q 35.15625 65.921875 28.609375 65.921875 
Q 23.96875 65.921875 18.8125 64.3125 
Q 13.671875 62.703125 7.8125 59.421875 
L 7.8125 69.390625 
Q 13.765625 71.78125 18.9375 73 
Q 24.125 74.21875 28.421875 74.21875 
Q 39.75 74.21875 46.484375 68.546875 
Q 53.21875 62.890625 53.21875 53.421875 
Q 53.21875 48.921875 51.53125 44.890625 
Q 49.859375 40.875 45.40625 35.40625 
Q 44.1875 33.984375 37.640625 27.21875 
Q 31.109375 20.453125 19.1875 8.296875 
z
" id="DejaVuSans-50"/>
      </defs>
      <g transform="translate(306.359318 244.547813)scale(0.14 -0.14)">
       <use xlink:href="#DejaVuSans-50"/>
       <use x="63.623047" xlink:href="#DejaVuSans-48"/>
       <use x="127.246094" xlink:href="#DejaVuSans-48"/>
       <use x="190.869141" xlink:href="#DejaVuSans-48"/>
      </g>
     </g>
    </g>
    <g id="xtick_5">
     <g id="line2d_5">
      <path d="M 405.337955 228.96 
" style="fill:none;stroke:#000000;stroke-width:1.5;"/>
      <g>
       <use style="stroke:#000000;" x="405.337955" xlink:href="#ma32b689b25" y="228.96"/>
      </g>
     </g>
     <g id="text_5">
      <!-- 2010 -->
      <g transform="translate(387.522955 244.547813)scale(0.14 -0.14)">
       <use xlink:href="#DejaVuSans-50"/>
       <use x="63.623047" xlink:href="#DejaVuSans-48"/>
       <use x="127.246094" xlink:href="#DejaVuSans-49"/>
       <use x="190.869141" xlink:href="#DejaVuSans-48"/>
      </g>
     </g>
    </g>
    <g id="xtick_6">
     <g id="line2d_6">
      <path d="M 486.501591 228.96 
" style="fill:none;stroke:#000000;stroke-width:1.5;"/>
      <g>
       <use style="stroke:#000000;" x="486.501591" xlink:href="#ma32b689b25" y="228.96"/>
      </g>
     </g>
     <g id="text_6">
      <!-- 2020 -->
      <g transform="translate(468.686591 244.547813)scale(0.14 -0.14)">
       <use xlink:href="#DejaVuSans-50"/>
       <use x="63.623047" xlink:href="#DejaVuSans-48"/>
       <use x="127.246094" xlink:href="#DejaVuSans-50"/>
       <use x="190.869141" xlink:href="#DejaVuSans-48"/>
      </g>
     </g>
    </g>
    <g id="xtick_7">
     <g id="line2d_7">
      <path d="M 121.265227 228.96 
" style="fill:none;stroke:#000000;stroke-width:1.5;"/>
      <defs>
       <path d="M 0 0 
L 0 1.375 
" id="m12556726ba" style="stroke:#000000;"/>
      </defs>
      <g>
       <use style="stroke:#000000;" x="121.265227" xlink:href="#m12556726ba" y="228.96"/>
      </g>
     </g>
    </g>
    <g id="xtick_8">
     <g id="line2d_8">
      <path d="M 202.428864 228.96 
" style="fill:none;stroke:#000000;stroke-width:1.5;"/>
      <g>
       <use style="stroke:#000000;" x="202.428864" xlink:href="#m12556726ba" y="228.96"/>
      </g>
     </g>
    </g>
    <g id="xtick_9">
     <g id="line2d_9">
      <path d="M 283.5925 228.96 
" style="fill:none;stroke:#000000;stroke-width:1.5;"/>
      <g>
       <use style="stroke:#000000;" x="283.5925" xlink:href="#m12556726ba" y="228.96"/>
      </g>
     </g>
    </g>
    <g id="xtick_10">
     <g id="line2d_10">
      <path d="M 364.756136 228.96 
" style="fill:none;stroke:#000000;stroke-width:1.5;"/>
      <g>
       <use style="stroke:#000000;" x="364.756136" xlink:href="#m12556726ba" y="228.96"/>
      </g>
     </g>
    </g>
    <g id="xtick_11">
     <g id="line2d_11">
      <path d="M 445.919773 228.96 
" style="fill:none;stroke:#000000;stroke-width:1.5;"/>
      <g>
       <use style="stroke:#000000;" x="445.919773" xlink:href="#m12556726ba" y="228.96"/>
      </g>
     </g>
    </g>
    <g id="text_7">
     <!-- Year -->
     <defs>
      <path d="M -0.203125 72.90625 
L 10.40625 72.90625 
L 30.609375 42.921875 
L 50.6875 72.90625 
L 61.28125 72.90625 
L 35.5 34.71875 
L 35.5 0 
L 25.59375 0 
L 25.59375 34.71875 
z
" id="DejaVuSans-89"/>
      <path d="M 56.203125 29.59375 
L 56.203125 25.203125 
L 14.890625 25.203125 
Q 15.484375 15.921875 20.484375 11.0625 
Q 25.484375 6.203125 34.421875 6.203125 
Q 39.59375 6.203125 44.453125 7.46875 
Q 49.3125 8.734375 54.109375 11.28125 
L 54.109375 2.78125 
Q 49.265625 0.734375 44.1875 -0.34375 
Q 39.109375 -1.421875 33.890625 -1.421875 
Q 20.796875 -1.421875 13.15625 6.1875 
Q 5.515625 13.8125 5.515625 26.8125 
Q 5.515625 40.234375 12.765625 48.109375 
Q 20.015625 56 32.328125 56 
Q 43.359375 56 49.78125 48.890625 
Q 56.203125 41.796875 56.203125 29.59375 
z
M 47.21875 32.234375 
Q 47.125 39.59375 43.09375 43.984375 
Q 39.0625 48.390625 32.421875 48.390625 
Q 24.90625 48.390625 20.390625 44.140625 
Q 15.875 39.890625 15.1875 32.171875 
z
" id="DejaVuSans-101"/>
      <path d="M 34.28125 27.484375 
Q 23.390625 27.484375 19.1875 25 
Q 14.984375 22.515625 14.984375 16.5 
Q 14.984375 11.71875 18.140625 8.90625 
Q 21.296875 6.109375 26.703125 6.109375 
Q 34.1875 6.109375 38.703125 11.40625 
Q 43.21875 16.703125 43.21875 25.484375 
L 43.21875 27.484375 
z
M 52.203125 31.203125 
L 52.203125 0 
L 43.21875 0 
L 43.21875 8.296875 
Q 40.140625 3.328125 35.546875 0.953125 
Q 30.953125 -1.421875 24.3125 -1.421875 
Q 15.921875 -1.421875 10.953125 3.296875 
Q 6 8.015625 6 15.921875 
Q 6 25.140625 12.171875 29.828125 
Q 18.359375 34.515625 30.609375 34.515625 
L 43.21875 34.515625 
L 43.21875 35.40625 
Q 43.21875 41.609375 39.140625 45 
Q 35.0625 48.390625 27.6875 48.390625 
Q 23 48.390625 18.546875 47.265625 
Q 14.109375 46.140625 10.015625 43.890625 
L 10.015625 52.203125 
Q 14.9375 54.109375 19.578125 55.046875 
Q 24.21875 56 28.609375 56 
Q 40.484375 56 46.34375 49.84375 
Q 52.203125 43.703125 52.203125 31.203125 
z
" id="DejaVuSans-97"/>
      <path d="M 41.109375 46.296875 
Q 39.59375 47.171875 37.8125 47.578125 
Q 36.03125 48 33.890625 48 
Q 26.265625 48 22.1875 43.046875 
Q 18.109375 38.09375 18.109375 28.8125 
L 18.109375 0 
L 9.078125 0 
L 9.078125 54.6875 
L 18.109375 54.6875 
L 18.109375 46.1875 
Q 20.953125 51.171875 25.484375 53.578125 
Q 30.03125 56 36.53125 56 
Q 37.453125 56 38.578125 55.875 
Q 39.703125 55.765625 41.0625 55.515625 
z
" id="DejaVuSans-114"/>
     </defs>
     <g transform="translate(258.40875 264.016875)scale(0.16 -0.16)">
      <use xlink:href="#DejaVuSans-89"/>
      <use x="60.880859" xlink:href="#DejaVuSans-101"/>
      <use x="122.404297" xlink:href="#DejaVuSans-97"/>
      <use x="183.683594" xlink:href="#DejaVuSans-114"/>
     </g>
    </g>
   </g>
   <g id="matplotlib.axis_2">
    <g id="ytick_1">
     <g id="line2d_12">
      <path d="M 60.3925 218.88 
" style="fill:none;stroke:#000000;stroke-width:1.5;"/>
      <defs>
       <path d="M 0 0 
L -2.75 0 
" id="mfbfb0dc663" style="stroke:#000000;"/>
      </defs>
      <g>
       <use style="stroke:#000000;" x="60.3925" xlink:href="#mfbfb0dc663" y="218.88"/>
      </g>
     </g>
     <g id="text_8">
      <!-- 0 -->
      <g transform="translate(46.535 222.743125)scale(0.14 -0.14)">
       <use xlink:href="#DejaVuSans-48"/>
      </g>
     </g>
    </g>
    <g id="ytick_2">
     <g id="line2d_13">
      <path d="M 60.3925 168.48 
" style="fill:none;stroke:#000000;stroke-width:1.5;"/>
      <g>
       <use style="stroke:#000000;" x="60.3925" xlink:href="#mfbfb0dc663" y="168.48"/>
      </g>
     </g>
     <g id="text_9">
      <!-- 25 -->
      <defs>
       <path d="M 10.796875 72.90625 
L 49.515625 72.90625 
L 49.515625 64.59375 
L 19.828125 64.59375 
L 19.828125 46.734375 
Q 21.96875 47.46875 24.109375 47.828125 
Q 26.265625 48.1875 28.421875 48.1875 
Q 40.625 48.1875 47.75 41.5 
Q 54.890625 34.8125 54.890625 23.390625 
Q 54.890625 11.625 47.5625 5.09375 
Q 40.234375 -1.421875 26.90625 -1.421875 
Q 22.3125 -1.421875 17.546875 -0.640625 
Q 12.796875 0.140625 7.71875 1.703125 
L 7.71875 11.625 
Q 12.109375 9.234375 16.796875 8.0625 
Q 21.484375 6.890625 26.703125 6.890625 
Q 35.15625 6.890625 40.078125 11.328125 
Q 45.015625 15.765625 45.015625 23.390625 
Q 45.015625 31 40.078125 35.4375 
Q 35.15625 39.890625 26.703125 39.890625 
Q 22.75 39.890625 18.8125 39.015625 
Q 14.890625 38.140625 10.796875 36.28125 
z
" id="DejaVuSans-53"/>
      </defs>
      <g transform="translate(37.6275 172.343125)scale(0.14 -0.14)">
       <use xlink:href="#DejaVuSans-50"/>
       <use x="63.623047" xlink:href="#DejaVuSans-53"/>
      </g>
     </g>
    </g>
    <g id="ytick_3">
     <g id="line2d_14">
      <path d="M 60.3925 118.08 
" style="fill:none;stroke:#000000;stroke-width:1.5;"/>
      <g>
       <use style="stroke:#000000;" x="60.3925" xlink:href="#mfbfb0dc663" y="118.08"/>
      </g>
     </g>
     <g id="text_10">
      <!-- 50 -->
      <g transform="translate(37.6275 121.943125)scale(0.14 -0.14)">
       <use xlink:href="#DejaVuSans-53"/>
       <use x="63.623047" xlink:href="#DejaVuSans-48"/>
      </g>
     </g>
    </g>
    <g id="ytick_4">
     <g id="line2d_15">
      <path d="M 60.3925 67.68 
" style="fill:none;stroke:#000000;stroke-width:1.5;"/>
      <g>
       <use style="stroke:#000000;" x="60.3925" xlink:href="#mfbfb0dc663" y="67.68"/>
      </g>
     </g>
     <g id="text_11">
      <!-- 75 -->
      <g transform="translate(37.6275 71.543125)scale(0.14 -0.14)">
       <use xlink:href="#DejaVuSans-55"/>
       <use x="63.623047" xlink:href="#DejaVuSans-53"/>
      </g>
     </g>
    </g>
    <g id="ytick_5">
     <g id="line2d_16">
      <path d="M 60.3925 17.28 
" style="fill:none;stroke:#000000;stroke-width:1.5;"/>
      <g>
       <use style="stroke:#000000;" x="60.3925" xlink:href="#mfbfb0dc663" y="17.28"/>
      </g>
     </g>
     <g id="text_12">
      <!-- 100 -->
      <g transform="translate(28.72 21.143125)scale(0.14 -0.14)">
       <use xlink:href="#DejaVuSans-49"/>
       <use x="63.623047" xlink:href="#DejaVuSans-48"/>
       <use x="127.246094" xlink:href="#DejaVuSans-48"/>
      </g>
     </g>
    </g>
    <g id="ytick_6">
     <g id="line2d_17">
      <path d="M 60.3925 193.68 
" style="fill:none;stroke:#000000;stroke-width:1.5;"/>
      <defs>
       <path d="M 0 0 
L -1.375 0 
" id="m22ccd4d551" style="stroke:#000000;"/>
      </defs>
      <g>
       <use style="stroke:#000000;" x="60.3925" xlink:href="#m22ccd4d551" y="193.68"/>
      </g>
     </g>
    </g>
    <g id="ytick_7">
     <g id="line2d_18">
      <path d="M 60.3925 143.28 
" style="fill:none;stroke:#000000;stroke-width:1.5;"/>
      <g>
       <use style="stroke:#000000;" x="60.3925" xlink:href="#m22ccd4d551" y="143.28"/>
      </g>
     </g>
    </g>
    <g id="ytick_8">
     <g id="line2d_19">
      <path d="M 60.3925 92.88 
" style="fill:none;stroke:#000000;stroke-width:1.5;"/>
      <g>
       <use style="stroke:#000000;" x="60.3925" xlink:href="#m22ccd4d551" y="92.88"/>
      </g>
     </g>
    </g>
    <g id="ytick_9">
     <g id="line2d_20">
      <path d="M 60.3925 42.48 
" style="fill:none;stroke:#000000;stroke-width:1.5;"/>
      <g>
       <use style="stroke:#000000;" x="60.3925" xlink:href="#m22ccd4d551" y="42.48"/>
      </g>
     </g>
    </g>
    <g id="text_13">
     <!-- $P_{Q1p}$ [%] -->
     <defs>
      <path d="M 16.890625 72.90625 
L 39.703125 72.90625 
Q 49.65625 72.90625 54.875 68.265625 
Q 60.109375 63.625 60.109375 54.6875 
Q 60.109375 42.671875 52.390625 35.984375 
Q 44.671875 29.296875 30.71875 29.296875 
L 18.3125 29.296875 
L 12.59375 0 
L 2.6875 0 
z
M 25.203125 64.796875 
L 19.921875 37.40625 
L 32.328125 37.40625 
Q 40.71875 37.40625 45.203125 41.703125 
Q 49.703125 46 49.703125 54 
Q 49.703125 59.125 46.65625 61.953125 
Q 43.609375 64.796875 38.09375 64.796875 
z
" id="DejaVuSans-Oblique-80"/>
      <path d="M 36.078125 -1.3125 
Q 35.546875 -1.375 34.953125 -1.390625 
Q 34.375 -1.421875 33.203125 -1.421875 
Q 19.53125 -1.421875 11.8125 6.421875 
Q 4.109375 14.265625 4.109375 28.078125 
Q 4.109375 36.234375 7.0625 44.4375 
Q 10.015625 52.640625 15.28125 59.1875 
Q 21.390625 66.703125 29.03125 70.453125 
Q 36.671875 74.21875 45.90625 74.21875 
Q 59.28125 74.21875 66.984375 66.328125 
Q 74.703125 58.453125 74.703125 44.828125 
Q 74.703125 30.125 66.640625 17.921875 
Q 58.59375 5.71875 45.609375 0.6875 
L 55.515625 -12.890625 
L 44.484375 -12.890625 
z
M 45.609375 66.21875 
Q 37.5 66.21875 31.296875 62.28125 
Q 25.09375 58.34375 20.515625 50.296875 
Q 17.578125 45.171875 16.03125 39.40625 
Q 14.5 33.640625 14.5 27.78125 
Q 14.5 17.625 19.359375 12.109375 
Q 24.21875 6.59375 33.109375 6.59375 
Q 41.109375 6.59375 47.375 10.5625 
Q 53.65625 14.546875 58.109375 22.40625 
Q 61.078125 27.6875 62.640625 33.46875 
Q 64.203125 39.265625 64.203125 45.015625 
Q 64.203125 55.125 59.3125 60.671875 
Q 54.4375 66.21875 45.609375 66.21875 
z
" id="DejaVuSans-Oblique-81"/>
      <path d="M 49.609375 33.6875 
Q 49.609375 40.875 46.484375 44.671875 
Q 43.359375 48.484375 37.5 48.484375 
Q 33.5 48.484375 29.859375 46.4375 
Q 26.21875 44.390625 23.390625 40.484375 
Q 20.609375 36.625 18.9375 31.15625 
Q 17.28125 25.6875 17.28125 20.3125 
Q 17.28125 13.484375 20.40625 9.796875 
Q 23.53125 6.109375 29.296875 6.109375 
Q 33.546875 6.109375 37.1875 8.109375 
Q 40.828125 10.109375 43.40625 13.921875 
Q 46.1875 17.921875 47.890625 23.34375 
Q 49.609375 28.765625 49.609375 33.6875 
z
M 21.78125 46.390625 
Q 25.390625 51.125 30.296875 53.5625 
Q 35.203125 56 41.21875 56 
Q 49.609375 56 54.25 50.5 
Q 58.890625 45.015625 58.890625 35.109375 
Q 58.890625 27 56 19.65625 
Q 53.125 12.3125 47.703125 6.5 
Q 44.09375 2.640625 39.546875 0.609375 
Q 35.015625 -1.421875 29.984375 -1.421875 
Q 24.171875 -1.421875 20.21875 1 
Q 16.265625 3.421875 14.3125 8.203125 
L 8.6875 -20.796875 
L -0.296875 -20.796875 
L 14.40625 54.6875 
L 23.390625 54.6875 
z
" id="DejaVuSans-Oblique-112"/>
      <path id="DejaVuSans-32"/>
      <path d="M 8.59375 75.984375 
L 29.296875 75.984375 
L 29.296875 69 
L 17.578125 69 
L 17.578125 -6.203125 
L 29.296875 -6.203125 
L 29.296875 -13.1875 
L 8.59375 -13.1875 
z
" id="DejaVuSans-91"/>
      <path d="M 72.703125 32.078125 
Q 68.453125 32.078125 66.03125 28.46875 
Q 63.625 24.859375 63.625 18.40625 
Q 63.625 12.0625 66.03125 8.421875 
Q 68.453125 4.78125 72.703125 4.78125 
Q 76.859375 4.78125 79.265625 8.421875 
Q 81.6875 12.0625 81.6875 18.40625 
Q 81.6875 24.8125 79.265625 28.4375 
Q 76.859375 32.078125 72.703125 32.078125 
z
M 72.703125 38.28125 
Q 80.421875 38.28125 84.953125 32.90625 
Q 89.5 27.546875 89.5 18.40625 
Q 89.5 9.28125 84.9375 3.921875 
Q 80.375 -1.421875 72.703125 -1.421875 
Q 64.890625 -1.421875 60.34375 3.921875 
Q 55.8125 9.28125 55.8125 18.40625 
Q 55.8125 27.59375 60.375 32.9375 
Q 64.9375 38.28125 72.703125 38.28125 
z
M 22.3125 68.015625 
Q 18.109375 68.015625 15.6875 64.375 
Q 13.28125 60.75 13.28125 54.390625 
Q 13.28125 47.953125 15.671875 44.328125 
Q 18.0625 40.71875 22.3125 40.71875 
Q 26.5625 40.71875 28.96875 44.328125 
Q 31.390625 47.953125 31.390625 54.390625 
Q 31.390625 60.6875 28.953125 64.34375 
Q 26.515625 68.015625 22.3125 68.015625 
z
M 66.40625 74.21875 
L 74.21875 74.21875 
L 28.609375 -1.421875 
L 20.796875 -1.421875 
z
M 22.3125 74.21875 
Q 30.03125 74.21875 34.609375 68.875 
Q 39.203125 63.53125 39.203125 54.390625 
Q 39.203125 45.171875 34.640625 39.84375 
Q 30.078125 34.515625 22.3125 34.515625 
Q 14.546875 34.515625 10.03125 39.859375 
Q 5.515625 45.21875 5.515625 54.390625 
Q 5.515625 63.484375 10.046875 68.84375 
Q 14.59375 74.21875 22.3125 74.21875 
z
" id="DejaVuSans-37"/>
      <path d="M 30.421875 75.984375 
L 30.421875 -13.1875 
L 9.71875 -13.1875 
L 9.71875 -6.203125 
L 21.390625 -6.203125 
L 21.390625 69 
L 9.71875 69 
L 9.71875 75.984375 
z
" id="DejaVuSans-93"/>
     </defs>
     <g transform="translate(19.36 149.6)rotate(-90)scale(0.16 -0.16)">
      <use transform="translate(0 0.015625)" xlink:href="#DejaVuSans-Oblique-80"/>
      <use transform="translate(60.302734 -16.390625)scale(0.7)" xlink:href="#DejaVuSans-Oblique-81"/>
      <use transform="translate(115.400391 -16.390625)scale(0.7)" xlink:href="#DejaVuSans-49"/>
      <use transform="translate(159.936523 -16.390625)scale(0.7)" xlink:href="#DejaVuSans-Oblique-112"/>
      <use transform="translate(207.104492 0.015625)" xlink:href="#DejaVuSans-32"/>
      <use transform="translate(238.891602 0.015625)" xlink:href="#DejaVuSans-91"/>
      <use transform="translate(277.905273 0.015625)" xlink:href="#DejaVuSans-37"/>
      <use transform="translate(372.924805 0.015625)" xlink:href="#DejaVuSans-93"/>
     </g>
    </g>
   </g>
   <g id="LineCollection_1">
    <path clip-path="url(#p1353779bbb)" d="M 275.476136 146.961737 
L 275.476136 146.961737 
" style="fill:none;stroke:#9da0a2;stroke-width:1.32934;"/>
    <path clip-path="url(#p1353779bbb)" d="M 283.5925 136.182942 
L 283.5925 136.182942 
" style="fill:none;stroke:#9da0a2;stroke-width:1.32934;"/>
    <path clip-path="url(#p1353779bbb)" d="M 291.708864 144.949674 
L 291.708864 144.949674 
" style="fill:none;stroke:#9da0a2;stroke-width:1.32934;"/>
    <path clip-path="url(#p1353779bbb)" d="M 299.825227 148.116919 
L 299.825227 148.116919 
" style="fill:none;stroke:#9da0a2;stroke-width:1.32934;"/>
    <path clip-path="url(#p1353779bbb)" d="M 307.941591 137.085402 
L 307.941591 137.085402 
" style="fill:none;stroke:#9da0a2;stroke-width:1.32934;"/>
    <path clip-path="url(#p1353779bbb)" d="M 316.057955 142.427136 
L 316.057955 142.427136 
" style="fill:none;stroke:#9da0a2;stroke-width:1.32934;"/>
    <path clip-path="url(#p1353779bbb)" d="M 324.174318 148.920522 
L 324.174318 148.920522 
" style="fill:none;stroke:#9da0a2;stroke-width:1.32934;"/>
    <path clip-path="url(#p1353779bbb)" d="M 332.290682 145.953518 
L 332.290682 145.953518 
" style="fill:none;stroke:#9da0a2;stroke-width:1.32934;"/>
    <path clip-path="url(#p1353779bbb)" d="M 340.407045 143.160116 
L 340.407045 143.160116 
" style="fill:none;stroke:#9da0a2;stroke-width:1.32934;"/>
    <path clip-path="url(#p1353779bbb)" d="M 348.523409 142.505183 
L 348.523409 142.505183 
" style="fill:none;stroke:#9da0a2;stroke-width:1.32934;"/>
    <path clip-path="url(#p1353779bbb)" d="M 356.639773 141.456989 
L 356.639773 141.456989 
" style="fill:none;stroke:#9da0a2;stroke-width:1.32934;"/>
    <path clip-path="url(#p1353779bbb)" d="M 364.756136 141.446949 
L 364.756136 141.446949 
" style="fill:none;stroke:#9da0a2;stroke-width:1.32934;"/>
    <path clip-path="url(#p1353779bbb)" d="M 372.8725 140.433174 
L 372.8725 140.433174 
" style="fill:none;stroke:#9da0a2;stroke-width:1.32934;"/>
    <path clip-path="url(#p1353779bbb)" d="M 380.988864 137.542938 
L 380.988864 137.542938 
" style="fill:none;stroke:#9da0a2;stroke-width:1.32934;"/>
    <path clip-path="url(#p1353779bbb)" d="M 389.105227 138.818755 
L 389.105227 138.818755 
" style="fill:none;stroke:#9da0a2;stroke-width:1.32934;"/>
    <path clip-path="url(#p1353779bbb)" d="M 397.221591 135.815464 
L 397.221591 135.815464 
" style="fill:none;stroke:#9da0a2;stroke-width:1.32934;"/>
    <path clip-path="url(#p1353779bbb)" d="M 405.337955 126.955947 
L 405.337955 126.955947 
" style="fill:none;stroke:#9da0a2;stroke-width:1.32934;"/>
    <path clip-path="url(#p1353779bbb)" d="M 413.454318 122.630859 
L 413.454318 122.630859 
" style="fill:none;stroke:#9da0a2;stroke-width:1.32934;"/>
    <path clip-path="url(#p1353779bbb)" d="M 421.570682 117.727118 
L 421.570682 117.727118 
" style="fill:none;stroke:#9da0a2;stroke-width:1.32934;"/>
    <path clip-path="url(#p1353779bbb)" d="M 429.687045 111.515584 
L 429.687045 111.515584 
" style="fill:none;stroke:#9da0a2;stroke-width:1.32934;"/>
    <path clip-path="url(#p1353779bbb)" d="M 437.803409 105.515084 
L 437.803409 105.515084 
" style="fill:none;stroke:#9da0a2;stroke-width:1.32934;"/>
    <path clip-path="url(#p1353779bbb)" d="M 445.919773 102.247482 
L 445.919773 102.247482 
" style="fill:none;stroke:#9da0a2;stroke-width:1.32934;"/>
    <path clip-path="url(#p1353779bbb)" d="M 454.036136 95.830534 
L 454.036136 95.830534 
" style="fill:none;stroke:#9da0a2;stroke-width:1.32934;"/>
    <path clip-path="url(#p1353779bbb)" d="M 462.1525 100.433557 
L 462.1525 100.433557 
" style="fill:none;stroke:#9da0a2;stroke-width:1.32934;"/>
    <path clip-path="url(#p1353779bbb)" d="M 470.268864 102.698071 
L 470.268864 102.698071 
" style="fill:none;stroke:#9da0a2;stroke-width:1.32934;"/>
    <path clip-path="url(#p1353779bbb)" d="M 478.385227 102.616624 
L 478.385227 102.616624 
" style="fill:none;stroke:#9da0a2;stroke-width:1.32934;"/>
    <path clip-path="url(#p1353779bbb)" d="M 275.476136 115.859073 
L 275.476136 115.859073 
" style="fill:none;stroke:#9da0a2;stroke-width:1.32934;"/>
    <path clip-path="url(#p1353779bbb)" d="M 283.5925 126.406474 
L 283.5925 126.406474 
" style="fill:none;stroke:#9da0a2;stroke-width:1.32934;"/>
    <path clip-path="url(#p1353779bbb)" d="M 291.708864 137.738222 
L 291.708864 137.738222 
" style="fill:none;stroke:#9da0a2;stroke-width:1.32934;"/>
    <path clip-path="url(#p1353779bbb)" d="M 299.825227 143.8282 
L 299.825227 143.8282 
" style="fill:none;stroke:#9da0a2;stroke-width:1.32934;"/>
    <path clip-path="url(#p1353779bbb)" d="M 307.941591 132.705086 
L 307.941591 132.705086 
" style="fill:none;stroke:#9da0a2;stroke-width:1.32934;"/>
    <path clip-path="url(#p1353779bbb)" d="M 316.057955 138.643742 
L 316.057955 138.643742 
" style="fill:none;stroke:#9da0a2;stroke-width:1.32934;"/>
    <path clip-path="url(#p1353779bbb)" d="M 324.174318 145.898417 
L 324.174318 145.898417 
" style="fill:none;stroke:#9da0a2;stroke-width:1.32934;"/>
    <path clip-path="url(#p1353779bbb)" d="M 332.290682 143.22214 
L 332.290682 143.22214 
" style="fill:none;stroke:#9da0a2;stroke-width:1.32934;"/>
    <path clip-path="url(#p1353779bbb)" d="M 340.407045 140.522288 
L 340.407045 140.522288 
" style="fill:none;stroke:#9da0a2;stroke-width:1.32934;"/>
    <path clip-path="url(#p1353779bbb)" d="M 348.523409 140.436832 
L 348.523409 140.436832 
" style="fill:none;stroke:#9da0a2;stroke-width:1.32934;"/>
    <path clip-path="url(#p1353779bbb)" d="M 356.639773 139.550225 
L 356.639773 139.550225 
" style="fill:none;stroke:#9da0a2;stroke-width:1.32934;"/>
    <path clip-path="url(#p1353779bbb)" d="M 364.756136 139.766642 
L 364.756136 139.766642 
" style="fill:none;stroke:#9da0a2;stroke-width:1.32934;"/>
    <path clip-path="url(#p1353779bbb)" d="M 372.8725 138.847715 
L 372.8725 138.847715 
" style="fill:none;stroke:#9da0a2;stroke-width:1.32934;"/>
    <path clip-path="url(#p1353779bbb)" d="M 380.988864 136.103239 
L 380.988864 136.103239 
" style="fill:none;stroke:#9da0a2;stroke-width:1.32934;"/>
    <path clip-path="url(#p1353779bbb)" d="M 389.105227 137.35487 
L 389.105227 137.35487 
" style="fill:none;stroke:#9da0a2;stroke-width:1.32934;"/>
    <path clip-path="url(#p1353779bbb)" d="M 397.221591 134.472074 
L 397.221591 134.472074 
" style="fill:none;stroke:#9da0a2;stroke-width:1.32934;"/>
    <path clip-path="url(#p1353779bbb)" d="M 405.337955 125.635623 
L 405.337955 125.635623 
" style="fill:none;stroke:#9da0a2;stroke-width:1.32934;"/>
    <path clip-path="url(#p1353779bbb)" d="M 413.454318 121.325259 
L 413.454318 121.325259 
" style="fill:none;stroke:#9da0a2;stroke-width:1.32934;"/>
    <path clip-path="url(#p1353779bbb)" d="M 421.570682 116.494394 
L 421.570682 116.494394 
" style="fill:none;stroke:#9da0a2;stroke-width:1.32934;"/>
    <path clip-path="url(#p1353779bbb)" d="M 429.687045 110.293465 
L 429.687045 110.293465 
" style="fill:none;stroke:#9da0a2;stroke-width:1.32934;"/>
    <path clip-path="url(#p1353779bbb)" d="M 437.803409 104.297607 
L 437.803409 104.297607 
" style="fill:none;stroke:#9da0a2;stroke-width:1.32934;"/>
    <path clip-path="url(#p1353779bbb)" d="M 445.919773 101.074498 
L 445.919773 101.074498 
" style="fill:none;stroke:#9da0a2;stroke-width:1.32934;"/>
    <path clip-path="url(#p1353779bbb)" d="M 454.036136 94.690513 
L 454.036136 94.690513 
" style="fill:none;stroke:#9da0a2;stroke-width:1.32934;"/>
    <path clip-path="url(#p1353779bbb)" d="M 462.1525 99.397409 
L 462.1525 99.397409 
" style="fill:none;stroke:#9da0a2;stroke-width:1.32934;"/>
    <path clip-path="url(#p1353779bbb)" d="M 470.268864 101.555007 
L 470.268864 101.555007 
" style="fill:none;stroke:#9da0a2;stroke-width:1.32934;"/>
    <path clip-path="url(#p1353779bbb)" d="M 478.385227 100.722952 
L 478.385227 100.722952 
" style="fill:none;stroke:#9da0a2;stroke-width:1.32934;"/>
    <path clip-path="url(#p1353779bbb)" d="M 275.476136 115.859073 
L 275.476136 146.961737 
" style="fill:none;stroke:#9da0a2;stroke-width:1.32934;"/>
    <path clip-path="url(#p1353779bbb)" d="M 283.5925 126.406474 
L 283.5925 136.182942 
" style="fill:none;stroke:#9da0a2;stroke-width:1.32934;"/>
    <path clip-path="url(#p1353779bbb)" d="M 291.708864 137.738222 
L 291.708864 144.949674 
" style="fill:none;stroke:#9da0a2;stroke-width:1.32934;"/>
    <path clip-path="url(#p1353779bbb)" d="M 299.825227 143.8282 
L 299.825227 148.116919 
" style="fill:none;stroke:#9da0a2;stroke-width:1.32934;"/>
    <path clip-path="url(#p1353779bbb)" d="M 307.941591 132.705086 
L 307.941591 137.085402 
" style="fill:none;stroke:#9da0a2;stroke-width:1.32934;"/>
    <path clip-path="url(#p1353779bbb)" d="M 316.057955 138.643742 
L 316.057955 142.427136 
" style="fill:none;stroke:#9da0a2;stroke-width:1.32934;"/>
    <path clip-path="url(#p1353779bbb)" d="M 324.174318 145.898417 
L 324.174318 148.920522 
" style="fill:none;stroke:#9da0a2;stroke-width:1.32934;"/>
    <path clip-path="url(#p1353779bbb)" d="M 332.290682 143.22214 
L 332.290682 145.953518 
" style="fill:none;stroke:#9da0a2;stroke-width:1.32934;"/>
    <path clip-path="url(#p1353779bbb)" d="M 340.407045 140.522288 
L 340.407045 143.160116 
" style="fill:none;stroke:#9da0a2;stroke-width:1.32934;"/>
    <path clip-path="url(#p1353779bbb)" d="M 348.523409 140.436832 
L 348.523409 142.505183 
" style="fill:none;stroke:#9da0a2;stroke-width:1.32934;"/>
    <path clip-path="url(#p1353779bbb)" d="M 356.639773 139.550225 
L 356.639773 141.456989 
" style="fill:none;stroke:#9da0a2;stroke-width:1.32934;"/>
    <path clip-path="url(#p1353779bbb)" d="M 364.756136 139.766642 
L 364.756136 141.446949 
" style="fill:none;stroke:#9da0a2;stroke-width:1.32934;"/>
    <path clip-path="url(#p1353779bbb)" d="M 372.8725 138.847715 
L 372.8725 140.433174 
" style="fill:none;stroke:#9da0a2;stroke-width:1.32934;"/>
    <path clip-path="url(#p1353779bbb)" d="M 380.988864 136.103239 
L 380.988864 137.542938 
" style="fill:none;stroke:#9da0a2;stroke-width:1.32934;"/>
    <path clip-path="url(#p1353779bbb)" d="M 389.105227 137.35487 
L 389.105227 138.818755 
" style="fill:none;stroke:#9da0a2;stroke-width:1.32934;"/>
    <path clip-path="url(#p1353779bbb)" d="M 397.221591 134.472074 
L 397.221591 135.815464 
" style="fill:none;stroke:#9da0a2;stroke-width:1.32934;"/>
    <path clip-path="url(#p1353779bbb)" d="M 405.337955 125.635623 
L 405.337955 126.955947 
" style="fill:none;stroke:#9da0a2;stroke-width:1.32934;"/>
    <path clip-path="url(#p1353779bbb)" d="M 413.454318 121.325259 
L 413.454318 122.630859 
" style="fill:none;stroke:#9da0a2;stroke-width:1.32934;"/>
    <path clip-path="url(#p1353779bbb)" d="M 421.570682 116.494394 
L 421.570682 117.727118 
" style="fill:none;stroke:#9da0a2;stroke-width:1.32934;"/>
    <path clip-path="url(#p1353779bbb)" d="M 429.687045 110.293465 
L 429.687045 111.515584 
" style="fill:none;stroke:#9da0a2;stroke-width:1.32934;"/>
    <path clip-path="url(#p1353779bbb)" d="M 437.803409 104.297607 
L 437.803409 105.515084 
" style="fill:none;stroke:#9da0a2;stroke-width:1.32934;"/>
    <path clip-path="url(#p1353779bbb)" d="M 445.919773 101.074498 
L 445.919773 102.247482 
" style="fill:none;stroke:#9da0a2;stroke-width:1.32934;"/>
    <path clip-path="url(#p1353779bbb)" d="M 454.036136 94.690513 
L 454.036136 95.830534 
" style="fill:none;stroke:#9da0a2;stroke-width:1.32934;"/>
    <path clip-path="url(#p1353779bbb)" d="M 462.1525 99.397409 
L 462.1525 100.433557 
" style="fill:none;stroke:#9da0a2;stroke-width:1.32934;"/>
    <path clip-path="url(#p1353779bbb)" d="M 470.268864 101.555007 
L 470.268864 102.698071 
" style="fill:none;stroke:#9da0a2;stroke-width:1.32934;"/>
    <path clip-path="url(#p1353779bbb)" d="M 478.385227 100.722952 
L 478.385227 102.616624 
" style="fill:none;stroke:#9da0a2;stroke-width:1.32934;"/>
   </g>
   <g id="line2d_21">
    <path clip-path="url(#p1353779bbb)" d="M 267.359773 43.461554 
L 275.476136 131.410405 
L 283.5925 131.294708 
L 291.708864 141.343948 
L 299.825227 145.972559 
L 307.941591 134.895244 
L 316.057955 140.535439 
L 324.174318 147.409469 
L 332.290682 144.587829 
L 340.407045 141.841202 
L 348.523409 141.471008 
L 356.639773 140.503607 
L 364.756136 140.606796 
L 372.8725 139.640444 
L 380.988864 136.823088 
L 389.105227 138.086812 
L 397.221591 135.143769 
L 405.337955 126.295785 
L 413.454318 121.978059 
L 421.570682 117.110756 
L 429.687045 110.904525 
L 437.803409 104.906345 
L 445.919773 101.66099 
L 454.036136 95.260524 
L 462.1525 99.915483 
L 470.268864 102.126539 
L 478.385227 101.669788 
" style="fill:none;stroke:#ee7733;stroke-width:0.886227;"/>
   </g>
   <g id="patch_3">
    <path d="M 60.3925 228.96 
L 60.3925 7.2 
" style="fill:none;stroke:#000000;stroke-linecap:square;stroke-linejoin:miter;"/>
   </g>
   <g id="patch_4">
    <path d="M 60.3925 228.96 
L 506.7925 228.96 
" style="fill:none;stroke:#000000;stroke-linecap:square;stroke-linejoin:miter;"/>
   </g>
   <g id="PathCollection_1">
    <path clip-path="url(#p1353779bbb)" d="M 267.359773 45.234008 
C 267.829833 45.234008 268.280704 45.047251 268.613087 44.714868 
C 268.94547 44.382485 269.132227 43.931614 269.132227 43.461554 
C 269.132227 42.991494 268.94547 42.540622 268.613087 42.20824 
C 268.280704 41.875857 267.829833 41.6891 267.359773 41.6891 
C 266.889712 41.6891 266.438841 41.875857 266.106459 42.20824 
C 265.774076 42.540622 265.587319 42.991494 265.587319 43.461554 
C 265.587319 43.931614 265.774076 44.382485 266.106459 44.714868 
C 266.438841 45.047251 266.889712 45.234008 267.359773 45.234008 
z
" style="fill:#ee7733;stroke:#ee7733;stroke-width:0.886227;"/>
    <path clip-path="url(#p1353779bbb)" d="M 275.476136 133.182859 
C 275.946197 133.182859 276.397068 132.996102 276.729451 132.663719 
C 277.061833 132.331336 277.24859 131.880465 277.24859 131.410405 
C 277.24859 130.940344 277.061833 130.489473 276.729451 130.157091 
C 276.397068 129.824708 275.946197 129.637951 275.476136 129.637951 
C 275.006076 129.637951 274.555205 129.824708 274.222822 130.157091 
C 273.890439 130.489473 273.703683 130.940344 273.703683 131.410405 
C 273.703683 131.880465 273.890439 132.331336 274.222822 132.663719 
C 274.555205 132.996102 275.006076 133.182859 275.476136 133.182859 
z
" style="fill:#ee7733;stroke:#ee7733;stroke-width:0.886227;"/>
    <path clip-path="url(#p1353779bbb)" d="M 283.5925 133.067162 
C 284.06256 133.067162 284.513431 132.880405 284.845814 132.548022 
C 285.178197 132.21564 285.364954 131.764769 285.364954 131.294708 
C 285.364954 130.824648 285.178197 130.373777 284.845814 130.041394 
C 284.513431 129.709011 284.06256 129.522254 283.5925 129.522254 
C 283.12244 129.522254 282.671569 129.709011 282.339186 130.041394 
C 282.006803 130.373777 281.820046 130.824648 281.820046 131.294708 
C 281.820046 131.764769 282.006803 132.21564 282.339186 132.548022 
C 282.671569 132.880405 283.12244 133.067162 283.5925 133.067162 
z
" style="fill:#ee7733;stroke:#ee7733;stroke-width:0.886227;"/>
    <path clip-path="url(#p1353779bbb)" d="M 291.708864 143.116402 
C 292.178924 143.116402 292.629795 142.929645 292.962178 142.597263 
C 293.294561 142.26488 293.481317 141.814009 293.481317 141.343948 
C 293.481317 140.873888 293.294561 140.423017 292.962178 140.090634 
C 292.629795 139.758251 292.178924 139.571495 291.708864 139.571495 
C 291.238803 139.571495 290.787932 139.758251 290.455549 140.090634 
C 290.123167 140.423017 289.93641 140.873888 289.93641 141.343948 
C 289.93641 141.814009 290.123167 142.26488 290.455549 142.597263 
C 290.787932 142.929645 291.238803 143.116402 291.708864 143.116402 
z
" style="fill:#ee7733;stroke:#ee7733;stroke-width:0.886227;"/>
    <path clip-path="url(#p1353779bbb)" d="M 299.825227 147.745013 
C 300.295288 147.745013 300.746159 147.558256 301.078541 147.225873 
C 301.410924 146.893491 301.597681 146.442619 301.597681 145.972559 
C 301.597681 145.502499 301.410924 145.051628 301.078541 144.719245 
C 300.746159 144.386862 300.295288 144.200105 299.825227 144.200105 
C 299.355167 144.200105 298.904296 144.386862 298.571913 144.719245 
C 298.23953 145.051628 298.052773 145.502499 298.052773 145.972559 
C 298.052773 146.442619 298.23953 146.893491 298.571913 147.225873 
C 298.904296 147.558256 299.355167 147.745013 299.825227 147.745013 
z
" style="fill:#ee7733;stroke:#ee7733;stroke-width:0.886227;"/>
    <path clip-path="url(#p1353779bbb)" d="M 307.941591 136.667698 
C 308.411651 136.667698 308.862522 136.480941 309.194905 136.148558 
C 309.527288 135.816176 309.714045 135.365305 309.714045 134.895244 
C 309.714045 134.425184 309.527288 133.974313 309.194905 133.64193 
C 308.862522 133.309547 308.411651 133.12279 307.941591 133.12279 
C 307.471531 133.12279 307.02066 133.309547 306.688277 133.64193 
C 306.355894 133.974313 306.169137 134.425184 306.169137 134.895244 
C 306.169137 135.365305 306.355894 135.816176 306.688277 136.148558 
C 307.02066 136.480941 307.471531 136.667698 307.941591 136.667698 
z
" style="fill:#ee7733;stroke:#ee7733;stroke-width:0.886227;"/>
    <path clip-path="url(#p1353779bbb)" d="M 316.057955 142.307893 
C 316.528015 142.307893 316.978886 142.121136 317.311269 141.788753 
C 317.643651 141.456371 317.830408 141.0055 317.830408 140.535439 
C 317.830408 140.065379 317.643651 139.614508 317.311269 139.282125 
C 316.978886 138.949742 316.528015 138.762985 316.057955 138.762985 
C 315.587894 138.762985 315.137023 138.949742 314.80464 139.282125 
C 314.472258 139.614508 314.285501 140.065379 314.285501 140.535439 
C 314.285501 141.0055 314.472258 141.456371 314.80464 141.788753 
C 315.137023 142.121136 315.587894 142.307893 316.057955 142.307893 
z
" style="fill:#ee7733;stroke:#ee7733;stroke-width:0.886227;"/>
    <path clip-path="url(#p1353779bbb)" d="M 324.174318 149.181923 
C 324.644378 149.181923 325.09525 148.995166 325.427632 148.662784 
C 325.760015 148.330401 325.946772 147.87953 325.946772 147.409469 
C 325.946772 146.939409 325.760015 146.488538 325.427632 146.156155 
C 325.09525 145.823772 324.644378 145.637016 324.174318 145.637016 
C 323.704258 145.637016 323.253387 145.823772 322.921004 146.156155 
C 322.588621 146.488538 322.401864 146.939409 322.401864 147.409469 
C 322.401864 147.87953 322.588621 148.330401 322.921004 148.662784 
C 323.253387 148.995166 323.704258 149.181923 324.174318 149.181923 
z
" style="fill:#ee7733;stroke:#ee7733;stroke-width:0.886227;"/>
    <path clip-path="url(#p1353779bbb)" d="M 332.290682 146.360283 
C 332.760742 146.360283 333.211613 146.173526 333.543996 145.841143 
C 333.876379 145.50876 334.063136 145.057889 334.063136 144.587829 
C 334.063136 144.117769 333.876379 143.666898 333.543996 143.334515 
C 333.211613 143.002132 332.760742 142.815375 332.290682 142.815375 
C 331.820622 142.815375 331.36975 143.002132 331.037368 143.334515 
C 330.704985 143.666898 330.518228 144.117769 330.518228 144.587829 
C 330.518228 145.057889 330.704985 145.50876 331.037368 145.841143 
C 331.36975 146.173526 331.820622 146.360283 332.290682 146.360283 
z
" style="fill:#ee7733;stroke:#ee7733;stroke-width:0.886227;"/>
    <path clip-path="url(#p1353779bbb)" d="M 340.407045 143.613656 
C 340.877106 143.613656 341.327977 143.426899 341.66036 143.094516 
C 341.992742 142.762134 342.179499 142.311263 342.179499 141.841202 
C 342.179499 141.371142 341.992742 140.920271 341.66036 140.587888 
C 341.327977 140.255505 340.877106 140.068748 340.407045 140.068748 
C 339.936985 140.068748 339.486114 140.255505 339.153731 140.587888 
C 338.821349 140.920271 338.634592 141.371142 338.634592 141.841202 
C 338.634592 142.311263 338.821349 142.762134 339.153731 143.094516 
C 339.486114 143.426899 339.936985 143.613656 340.407045 143.613656 
z
" style="fill:#ee7733;stroke:#ee7733;stroke-width:0.886227;"/>
    <path clip-path="url(#p1353779bbb)" d="M 348.523409 143.243461 
C 348.993469 143.243461 349.44434 143.056704 349.776723 142.724322 
C 350.109106 142.391939 350.295863 141.941068 350.295863 141.471008 
C 350.295863 141.000947 350.109106 140.550076 349.776723 140.217693 
C 349.44434 139.885311 348.993469 139.698554 348.523409 139.698554 
C 348.053349 139.698554 347.602478 139.885311 347.270095 140.217693 
C 346.937712 140.550076 346.750955 141.000947 346.750955 141.471008 
C 346.750955 141.941068 346.937712 142.391939 347.270095 142.724322 
C 347.602478 143.056704 348.053349 143.243461 348.523409 143.243461 
z
" style="fill:#ee7733;stroke:#ee7733;stroke-width:0.886227;"/>
    <path clip-path="url(#p1353779bbb)" d="M 356.639773 142.276061 
C 357.109833 142.276061 357.560704 142.089304 357.893087 141.756921 
C 358.22547 141.424539 358.412227 140.973668 358.412227 140.503607 
C 358.412227 140.033547 358.22547 139.582676 357.893087 139.250293 
C 357.560704 138.91791 357.109833 138.731153 356.639773 138.731153 
C 356.169712 138.731153 355.718841 138.91791 355.386459 139.250293 
C 355.054076 139.582676 354.867319 140.033547 354.867319 140.503607 
C 354.867319 140.973668 355.054076 141.424539 355.386459 141.756921 
C 355.718841 142.089304 356.169712 142.276061 356.639773 142.276061 
z
" style="fill:#ee7733;stroke:#ee7733;stroke-width:0.886227;"/>
    <path clip-path="url(#p1353779bbb)" d="M 364.756136 142.37925 
C 365.226197 142.37925 365.677068 142.192493 366.009451 141.86011 
C 366.341833 141.527727 366.52859 141.076856 366.52859 140.606796 
C 366.52859 140.136736 366.341833 139.685864 366.009451 139.353482 
C 365.677068 139.021099 365.226197 138.834342 364.756136 138.834342 
C 364.286076 138.834342 363.835205 139.021099 363.502822 139.353482 
C 363.170439 139.685864 362.983683 140.136736 362.983683 140.606796 
C 362.983683 141.076856 363.170439 141.527727 363.502822 141.86011 
C 363.835205 142.192493 364.286076 142.37925 364.756136 142.37925 
z
" style="fill:#ee7733;stroke:#ee7733;stroke-width:0.886227;"/>
    <path clip-path="url(#p1353779bbb)" d="M 372.8725 141.412898 
C 373.34256 141.412898 373.793431 141.226141 374.125814 140.893758 
C 374.458197 140.561376 374.644954 140.110505 374.644954 139.640444 
C 374.644954 139.170384 374.458197 138.719513 374.125814 138.38713 
C 373.793431 138.054747 373.34256 137.86799 372.8725 137.86799 
C 372.40244 137.86799 371.951569 138.054747 371.619186 138.38713 
C 371.286803 138.719513 371.100046 139.170384 371.100046 139.640444 
C 371.100046 140.110505 371.286803 140.561376 371.619186 140.893758 
C 371.951569 141.226141 372.40244 141.412898 372.8725 141.412898 
z
" style="fill:#ee7733;stroke:#ee7733;stroke-width:0.886227;"/>
    <path clip-path="url(#p1353779bbb)" d="M 380.988864 138.595542 
C 381.458924 138.595542 381.909795 138.408785 382.242178 138.076402 
C 382.574561 137.74402 382.761317 137.293148 382.761317 136.823088 
C 382.761317 136.353028 382.574561 135.902157 382.242178 135.569774 
C 381.909795 135.237391 381.458924 135.050634 380.988864 135.050634 
C 380.518803 135.050634 380.067932 135.237391 379.735549 135.569774 
C 379.403167 135.902157 379.21641 136.353028 379.21641 136.823088 
C 379.21641 137.293148 379.403167 137.74402 379.735549 138.076402 
C 380.067932 138.408785 380.518803 138.595542 380.988864 138.595542 
z
" style="fill:#ee7733;stroke:#ee7733;stroke-width:0.886227;"/>
    <path clip-path="url(#p1353779bbb)" d="M 389.105227 139.859266 
C 389.575288 139.859266 390.026159 139.672509 390.358541 139.340127 
C 390.690924 139.007744 390.877681 138.556873 390.877681 138.086812 
C 390.877681 137.616752 390.690924 137.165881 390.358541 136.833498 
C 390.026159 136.501116 389.575288 136.314359 389.105227 136.314359 
C 388.635167 136.314359 388.184296 136.501116 387.851913 136.833498 
C 387.51953 137.165881 387.332773 137.616752 387.332773 138.086812 
C 387.332773 138.556873 387.51953 139.007744 387.851913 139.340127 
C 388.184296 139.672509 388.635167 139.859266 389.105227 139.859266 
z
" style="fill:#ee7733;stroke:#ee7733;stroke-width:0.886227;"/>
    <path clip-path="url(#p1353779bbb)" d="M 397.221591 136.916223 
C 397.691651 136.916223 398.142522 136.729466 398.474905 136.397083 
C 398.807288 136.0647 398.994045 135.613829 398.994045 135.143769 
C 398.994045 134.673709 398.807288 134.222838 398.474905 133.890455 
C 398.142522 133.558072 397.691651 133.371315 397.221591 133.371315 
C 396.751531 133.371315 396.30066 133.558072 395.968277 133.890455 
C 395.635894 134.222838 395.449137 134.673709 395.449137 135.143769 
C 395.449137 135.613829 395.635894 136.0647 395.968277 136.397083 
C 396.30066 136.729466 396.751531 136.916223 397.221591 136.916223 
z
" style="fill:#ee7733;stroke:#ee7733;stroke-width:0.886227;"/>
    <path clip-path="url(#p1353779bbb)" d="M 405.337955 128.068239 
C 405.808015 128.068239 406.258886 127.881482 406.591269 127.549099 
C 406.923651 127.216716 407.110408 126.765845 407.110408 126.295785 
C 407.110408 125.825725 406.923651 125.374854 406.591269 125.042471 
C 406.258886 124.710088 405.808015 124.523331 405.337955 124.523331 
C 404.867894 124.523331 404.417023 124.710088 404.08464 125.042471 
C 403.752258 125.374854 403.565501 125.825725 403.565501 126.295785 
C 403.565501 126.765845 403.752258 127.216716 404.08464 127.549099 
C 404.417023 127.881482 404.867894 128.068239 405.337955 128.068239 
z
" style="fill:#ee7733;stroke:#ee7733;stroke-width:0.886227;"/>
    <path clip-path="url(#p1353779bbb)" d="M 413.454318 123.750513 
C 413.924378 123.750513 414.37525 123.563756 414.707632 123.231373 
C 415.040015 122.89899 415.226772 122.448119 415.226772 121.978059 
C 415.226772 121.507999 415.040015 121.057128 414.707632 120.724745 
C 414.37525 120.392362 413.924378 120.205605 413.454318 120.205605 
C 412.984258 120.205605 412.533387 120.392362 412.201004 120.724745 
C 411.868621 121.057128 411.681864 121.507999 411.681864 121.978059 
C 411.681864 122.448119 411.868621 122.89899 412.201004 123.231373 
C 412.533387 123.563756 412.984258 123.750513 413.454318 123.750513 
z
" style="fill:#ee7733;stroke:#ee7733;stroke-width:0.886227;"/>
    <path clip-path="url(#p1353779bbb)" d="M 421.570682 118.88321 
C 422.040742 118.88321 422.491613 118.696453 422.823996 118.36407 
C 423.156379 118.031687 423.343136 117.580816 423.343136 117.110756 
C 423.343136 116.640696 423.156379 116.189825 422.823996 115.857442 
C 422.491613 115.525059 422.040742 115.338302 421.570682 115.338302 
C 421.100622 115.338302 420.64975 115.525059 420.317368 115.857442 
C 419.984985 116.189825 419.798228 116.640696 419.798228 117.110756 
C 419.798228 117.580816 419.984985 118.031687 420.317368 118.36407 
C 420.64975 118.696453 421.100622 118.88321 421.570682 118.88321 
z
" style="fill:#ee7733;stroke:#ee7733;stroke-width:0.886227;"/>
    <path clip-path="url(#p1353779bbb)" d="M 429.687045 112.676978 
C 430.157106 112.676978 430.607977 112.490222 430.94036 112.157839 
C 431.272742 111.825456 431.459499 111.374585 431.459499 110.904525 
C 431.459499 110.434464 431.272742 109.983593 430.94036 109.65121 
C 430.607977 109.318828 430.157106 109.132071 429.687045 109.132071 
C 429.216985 109.132071 428.766114 109.318828 428.433731 109.65121 
C 428.101349 109.983593 427.914592 110.434464 427.914592 110.904525 
C 427.914592 111.374585 428.101349 111.825456 428.433731 112.157839 
C 428.766114 112.490222 429.216985 112.676978 429.687045 112.676978 
z
" style="fill:#ee7733;stroke:#ee7733;stroke-width:0.886227;"/>
    <path clip-path="url(#p1353779bbb)" d="M 437.803409 106.678799 
C 438.273469 106.678799 438.72434 106.492042 439.056723 106.159659 
C 439.389106 105.827277 439.575863 105.376406 439.575863 104.906345 
C 439.575863 104.436285 439.389106 103.985414 439.056723 103.653031 
C 438.72434 103.320648 438.273469 103.133891 437.803409 103.133891 
C 437.333349 103.133891 436.882478 103.320648 436.550095 103.653031 
C 436.217712 103.985414 436.030955 104.436285 436.030955 104.906345 
C 436.030955 105.376406 436.217712 105.827277 436.550095 106.159659 
C 436.882478 106.492042 437.333349 106.678799 437.803409 106.678799 
z
" style="fill:#ee7733;stroke:#ee7733;stroke-width:0.886227;"/>
    <path clip-path="url(#p1353779bbb)" d="M 445.919773 103.433444 
C 446.389833 103.433444 446.840704 103.246687 447.173087 102.914304 
C 447.50547 102.581921 447.692227 102.13105 447.692227 101.66099 
C 447.692227 101.19093 447.50547 100.740059 447.173087 100.407676 
C 446.840704 100.075293 446.389833 99.888536 445.919773 99.888536 
C 445.449712 99.888536 444.998841 100.075293 444.666459 100.407676 
C 444.334076 100.740059 444.147319 101.19093 444.147319 101.66099 
C 444.147319 102.13105 444.334076 102.581921 444.666459 102.914304 
C 444.998841 103.246687 445.449712 103.433444 445.919773 103.433444 
z
" style="fill:#ee7733;stroke:#ee7733;stroke-width:0.886227;"/>
    <path clip-path="url(#p1353779bbb)" d="M 454.036136 97.032978 
C 454.506197 97.032978 454.957068 96.846221 455.289451 96.513838 
C 455.621833 96.181455 455.80859 95.730584 455.80859 95.260524 
C 455.80859 94.790464 455.621833 94.339592 455.289451 94.00721 
C 454.957068 93.674827 454.506197 93.48807 454.036136 93.48807 
C 453.566076 93.48807 453.115205 93.674827 452.782822 94.00721 
C 452.450439 94.339592 452.263683 94.790464 452.263683 95.260524 
C 452.263683 95.730584 452.450439 96.181455 452.782822 96.513838 
C 453.115205 96.846221 453.566076 97.032978 454.036136 97.032978 
z
" style="fill:#ee7733;stroke:#ee7733;stroke-width:0.886227;"/>
    <path clip-path="url(#p1353779bbb)" d="M 462.1525 101.687937 
C 462.62256 101.687937 463.073431 101.50118 463.405814 101.168797 
C 463.738197 100.836415 463.924954 100.385544 463.924954 99.915483 
C 463.924954 99.445423 463.738197 98.994552 463.405814 98.662169 
C 463.073431 98.329786 462.62256 98.143029 462.1525 98.143029 
C 461.68244 98.143029 461.231569 98.329786 460.899186 98.662169 
C 460.566803 98.994552 460.380046 99.445423 460.380046 99.915483 
C 460.380046 100.385544 460.566803 100.836415 460.899186 101.168797 
C 461.231569 101.50118 461.68244 101.687937 462.1525 101.687937 
z
" style="fill:#ee7733;stroke:#ee7733;stroke-width:0.886227;"/>
    <path clip-path="url(#p1353779bbb)" d="M 470.268864 103.898993 
C 470.738924 103.898993 471.189795 103.712236 471.522178 103.379853 
C 471.854561 103.04747 472.041317 102.596599 472.041317 102.126539 
C 472.041317 101.656478 471.854561 101.205607 471.522178 100.873225 
C 471.189795 100.540842 470.738924 100.354085 470.268864 100.354085 
C 469.798803 100.354085 469.347932 100.540842 469.015549 100.873225 
C 468.683167 101.205607 468.49641 101.656478 468.49641 102.126539 
C 468.49641 102.596599 468.683167 103.04747 469.015549 103.379853 
C 469.347932 103.712236 469.798803 103.898993 470.268864 103.898993 
z
" style="fill:#ee7733;stroke:#ee7733;stroke-width:0.886227;"/>
    <path clip-path="url(#p1353779bbb)" d="M 478.385227 103.442242 
C 478.855288 103.442242 479.306159 103.255485 479.638541 102.923102 
C 479.970924 102.590719 480.157681 102.139848 480.157681 101.669788 
C 480.157681 101.199728 479.970924 100.748857 479.638541 100.416474 
C 479.306159 100.084091 478.855288 99.897334 478.385227 99.897334 
C 477.915167 99.897334 477.464296 100.084091 477.131913 100.416474 
C 476.79953 100.748857 476.612773 101.199728 476.612773 101.669788 
C 476.612773 102.139848 476.79953 102.590719 477.131913 102.923102 
C 477.464296 103.255485 477.915167 103.442242 478.385227 103.442242 
z
" style="fill:#ee7733;stroke:#ee7733;stroke-width:0.886227;"/>
   </g>
  </g>
 </g>
 <defs>
  <clipPath id="p1353779bbb">
   <rect height="221.76" width="446.4" x="60.3925" y="7.2"/>
  </clipPath>
 </defs>
</svg>
