<?xml version="1.0" encoding="utf-8" standalone="no"?>
<!DOCTYPE svg PUBLIC "-//W3C//DTD SVG 1.1//EN"
  "http://www.w3.org/Graphics/SVG/1.1/DTD/svg11.dtd">
<!-- Created with matplotlib (https://matplotlib.org/) -->
<svg height="276.021875pt" version="1.1" viewBox="0 0 513.9925 276.021875" width="513.9925pt" xmlns="http://www.w3.org/2000/svg" xmlns:xlink="http://www.w3.org/1999/xlink">
 <defs>
  <style type="text/css">
*{stroke-linecap:butt;stroke-linejoin:round;}
  </style>
 </defs>
 <g id="figure_1">
  <g id="patch_1">
   <path d="M 0 276.021875 
L 513.9925 276.021875 
L 513.9925 0 
L 0 0 
z
" style="fill:#ffffff;stroke:#ffffff;stroke-linejoin:miter;"/>
  </g>
  <g id="axes_1">
   <g id="patch_2">
    <path d="M 60.3925 228.96 
L 506.7925 228.96 
L 506.7925 7.2 
L 60.3925 7.2 
z
" style="fill:#ffffff;"/>
   </g>
   <g id="matplotlib.axis_1">
    <g id="xtick_1">
     <g id="line2d_1">
      <path d="M 80.68341 228.96 
" style="fill:none;stroke:#000000;stroke-width:1.5;"/>
      <defs>
       <path d="M 0 0 
L 0 2.75 
" id="m781a6da694" style="stroke:#000000;"/>
      </defs>
      <g>
       <use style="stroke:#000000;" x="80.68341" xlink:href="#m781a6da694" y="228.96"/>
      </g>
     </g>
     <g id="text_1">
      <!-- 1 -->
      <defs>
       <path d="M 12.40625 8.296875 
L 28.515625 8.296875 
L 28.515625 63.921875 
L 10.984375 60.40625 
L 10.984375 69.390625 
L 28.421875 72.90625 
L 38.28125 72.90625 
L 38.28125 8.296875 
L 54.390625 8.296875 
L 54.390625 0 
L 12.40625 0 
z
" id="DejaVuSans-49"/>
      </defs>
      <g transform="translate(76.22966 244.547812)scale(0.14 -0.14)">
       <use xlink:href="#DejaVuSans-49"/>
      </g>
     </g>
    </g>
    <g id="xtick_2">
     <g id="line2d_2">
      <path d="M 215.956137 228.96 
" style="fill:none;stroke:#000000;stroke-width:1.5;"/>
      <g>
       <use style="stroke:#000000;" x="215.956137" xlink:href="#m781a6da694" y="228.96"/>
      </g>
     </g>
     <g id="text_2">
      <!-- 2 -->
      <defs>
       <path d="M 19.1875 8.296875 
L 53.609375 8.296875 
L 53.609375 0 
L 7.328125 0 
L 7.328125 8.296875 
Q 12.9375 14.109375 22.625 23.890625 
Q 32.328125 33.6875 34.8125 36.53125 
Q 39.546875 41.84375 41.421875 45.53125 
Q 43.3125 49.21875 43.3125 52.78125 
Q 43.3125 58.59375 39.234375 62.25 
Q 35.15625 65.921875 28.609375 65.921875 
Q 23.96875 65.921875 18.8125 64.3125 
Q 13.671875 62.703125 7.8125 59.421875 
L 7.8125 69.390625 
Q 13.765625 71.78125 18.9375 73 
Q 24.125 74.21875 28.421875 74.21875 
Q 39.75 74.21875 46.484375 68.546875 
Q 53.21875 62.890625 53.21875 53.421875 
Q 53.21875 48.921875 51.53125 44.890625 
Q 49.859375 40.875 45.40625 35.40625 
Q 44.1875 33.984375 37.640625 27.21875 
Q 31.109375 20.453125 19.1875 8.296875 
z
" id="DejaVuSans-50"/>
      </defs>
      <g transform="translate(211.502387 244.547812)scale(0.14 -0.14)">
       <use xlink:href="#DejaVuSans-50"/>
      </g>
     </g>
    </g>
    <g id="xtick_3">
     <g id="line2d_3">
      <path d="M 351.228863 228.96 
" style="fill:none;stroke:#000000;stroke-width:1.5;"/>
      <g>
       <use style="stroke:#000000;" x="351.228863" xlink:href="#m781a6da694" y="228.96"/>
      </g>
     </g>
     <g id="text_3">
      <!-- 3 -->
      <defs>
       <path d="M 40.578125 39.3125 
Q 47.65625 37.796875 51.625 33 
Q 55.609375 28.21875 55.609375 21.1875 
Q 55.609375 10.40625 48.1875 4.484375 
Q 40.765625 -1.421875 27.09375 -1.421875 
Q 22.515625 -1.421875 17.65625 -0.515625 
Q 12.796875 0.390625 7.625 2.203125 
L 7.625 11.71875 
Q 11.71875 9.328125 16.59375 8.109375 
Q 21.484375 6.890625 26.8125 6.890625 
Q 36.078125 6.890625 40.9375 10.546875 
Q 45.796875 14.203125 45.796875 21.1875 
Q 45.796875 27.640625 41.28125 31.265625 
Q 36.765625 34.90625 28.71875 34.90625 
L 20.21875 34.90625 
L 20.21875 43.015625 
L 29.109375 43.015625 
Q 36.375 43.015625 40.234375 45.921875 
Q 44.09375 48.828125 44.09375 54.296875 
Q 44.09375 59.90625 40.109375 62.90625 
Q 36.140625 65.921875 28.71875 65.921875 
Q 24.65625 65.921875 20.015625 65.03125 
Q 15.375 64.15625 9.8125 62.3125 
L 9.8125 71.09375 
Q 15.4375 72.65625 20.34375 73.4375 
Q 25.25 74.21875 29.59375 74.21875 
Q 40.828125 74.21875 47.359375 69.109375 
Q 53.90625 64.015625 53.90625 55.328125 
Q 53.90625 49.265625 50.4375 45.09375 
Q 46.96875 40.921875 40.578125 39.3125 
z
" id="DejaVuSans-51"/>
      </defs>
      <g transform="translate(346.775113 244.547812)scale(0.14 -0.14)">
       <use xlink:href="#DejaVuSans-51"/>
      </g>
     </g>
    </g>
    <g id="xtick_4">
     <g id="line2d_4">
      <path d="M 486.50159 228.96 
" style="fill:none;stroke:#000000;stroke-width:1.5;"/>
      <g>
       <use style="stroke:#000000;" x="486.50159" xlink:href="#m781a6da694" y="228.96"/>
      </g>
     </g>
     <g id="text_4">
      <!-- 4 -->
      <defs>
       <path d="M 37.796875 64.3125 
L 12.890625 25.390625 
L 37.796875 25.390625 
z
M 35.203125 72.90625 
L 47.609375 72.90625 
L 47.609375 25.390625 
L 58.015625 25.390625 
L 58.015625 17.1875 
L 47.609375 17.1875 
L 47.609375 0 
L 37.796875 0 
L 37.796875 17.1875 
L 4.890625 17.1875 
L 4.890625 26.703125 
z
" id="DejaVuSans-52"/>
      </defs>
      <g transform="translate(482.04784 244.547812)scale(0.14 -0.14)">
       <use xlink:href="#DejaVuSans-52"/>
      </g>
     </g>
    </g>
    <g id="xtick_5">
     <g id="line2d_5">
      <path d="M 148.319773 228.96 
" style="fill:none;stroke:#000000;stroke-width:1.5;"/>
      <defs>
       <path d="M 0 0 
L 0 1.375 
" id="m2d102cc869" style="stroke:#000000;"/>
      </defs>
      <g>
       <use style="stroke:#000000;" x="148.319773" xlink:href="#m2d102cc869" y="228.96"/>
      </g>
     </g>
    </g>
    <g id="xtick_6">
     <g id="line2d_6">
      <path d="M 283.5925 228.96 
" style="fill:none;stroke:#000000;stroke-width:1.5;"/>
      <g>
       <use style="stroke:#000000;" x="283.5925" xlink:href="#m2d102cc869" y="228.96"/>
      </g>
     </g>
    </g>
    <g id="xtick_7">
     <g id="line2d_7">
      <path d="M 418.865227 228.96 
" style="fill:none;stroke:#000000;stroke-width:1.5;"/>
      <g>
       <use style="stroke:#000000;" x="418.865227" xlink:href="#m2d102cc869" y="228.96"/>
      </g>
     </g>
    </g>
    <g id="text_5">
     <!-- Resolution [Å] -->
     <defs>
      <path d="M 44.390625 34.1875 
Q 47.5625 33.109375 50.5625 29.59375 
Q 53.5625 26.078125 56.59375 19.921875 
L 66.609375 0 
L 56 0 
L 46.6875 18.703125 
Q 43.0625 26.03125 39.671875 28.421875 
Q 36.28125 30.8125 30.421875 30.8125 
L 19.671875 30.8125 
L 19.671875 0 
L 9.8125 0 
L 9.8125 72.90625 
L 32.078125 72.90625 
Q 44.578125 72.90625 50.734375 67.671875 
Q 56.890625 62.453125 56.890625 51.90625 
Q 56.890625 45.015625 53.6875 40.46875 
Q 50.484375 35.9375 44.390625 34.1875 
z
M 19.671875 64.796875 
L 19.671875 38.921875 
L 32.078125 38.921875 
Q 39.203125 38.921875 42.84375 42.21875 
Q 46.484375 45.515625 46.484375 51.90625 
Q 46.484375 58.296875 42.84375 61.546875 
Q 39.203125 64.796875 32.078125 64.796875 
z
" id="DejaVuSans-82"/>
      <path d="M 56.203125 29.59375 
L 56.203125 25.203125 
L 14.890625 25.203125 
Q 15.484375 15.921875 20.484375 11.0625 
Q 25.484375 6.203125 34.421875 6.203125 
Q 39.59375 6.203125 44.453125 7.46875 
Q 49.3125 8.734375 54.109375 11.28125 
L 54.109375 2.78125 
Q 49.265625 0.734375 44.1875 -0.34375 
Q 39.109375 -1.421875 33.890625 -1.421875 
Q 20.796875 -1.421875 13.15625 6.1875 
Q 5.515625 13.8125 5.515625 26.8125 
Q 5.515625 40.234375 12.765625 48.109375 
Q 20.015625 56 32.328125 56 
Q 43.359375 56 49.78125 48.890625 
Q 56.203125 41.796875 56.203125 29.59375 
z
M 47.21875 32.234375 
Q 47.125 39.59375 43.09375 43.984375 
Q 39.0625 48.390625 32.421875 48.390625 
Q 24.90625 48.390625 20.390625 44.140625 
Q 15.875 39.890625 15.1875 32.171875 
z
" id="DejaVuSans-101"/>
      <path d="M 44.28125 53.078125 
L 44.28125 44.578125 
Q 40.484375 46.53125 36.375 47.5 
Q 32.28125 48.484375 27.875 48.484375 
Q 21.1875 48.484375 17.84375 46.4375 
Q 14.5 44.390625 14.5 40.28125 
Q 14.5 37.15625 16.890625 35.375 
Q 19.28125 33.59375 26.515625 31.984375 
L 29.59375 31.296875 
Q 39.15625 29.25 43.1875 25.515625 
Q 47.21875 21.78125 47.21875 15.09375 
Q 47.21875 7.46875 41.1875 3.015625 
Q 35.15625 -1.421875 24.609375 -1.421875 
Q 20.21875 -1.421875 15.453125 -0.5625 
Q 10.6875 0.296875 5.421875 2 
L 5.421875 11.28125 
Q 10.40625 8.6875 15.234375 7.390625 
Q 20.0625 6.109375 24.8125 6.109375 
Q 31.15625 6.109375 34.5625 8.28125 
Q 37.984375 10.453125 37.984375 14.40625 
Q 37.984375 18.0625 35.515625 20.015625 
Q 33.0625 21.96875 24.703125 23.78125 
L 21.578125 24.515625 
Q 13.234375 26.265625 9.515625 29.90625 
Q 5.8125 33.546875 5.8125 39.890625 
Q 5.8125 47.609375 11.28125 51.796875 
Q 16.75 56 26.8125 56 
Q 31.78125 56 36.171875 55.265625 
Q 40.578125 54.546875 44.28125 53.078125 
z
" id="DejaVuSans-115"/>
      <path d="M 30.609375 48.390625 
Q 23.390625 48.390625 19.1875 42.75 
Q 14.984375 37.109375 14.984375 27.296875 
Q 14.984375 17.484375 19.15625 11.84375 
Q 23.34375 6.203125 30.609375 6.203125 
Q 37.796875 6.203125 41.984375 11.859375 
Q 46.1875 17.53125 46.1875 27.296875 
Q 46.1875 37.015625 41.984375 42.703125 
Q 37.796875 48.390625 30.609375 48.390625 
z
M 30.609375 56 
Q 42.328125 56 49.015625 48.375 
Q 55.71875 40.765625 55.71875 27.296875 
Q 55.71875 13.875 49.015625 6.21875 
Q 42.328125 -1.421875 30.609375 -1.421875 
Q 18.84375 -1.421875 12.171875 6.21875 
Q 5.515625 13.875 5.515625 27.296875 
Q 5.515625 40.765625 12.171875 48.375 
Q 18.84375 56 30.609375 56 
z
" id="DejaVuSans-111"/>
      <path d="M 9.421875 75.984375 
L 18.40625 75.984375 
L 18.40625 0 
L 9.421875 0 
z
" id="DejaVuSans-108"/>
      <path d="M 8.5 21.578125 
L 8.5 54.6875 
L 17.484375 54.6875 
L 17.484375 21.921875 
Q 17.484375 14.15625 20.5 10.265625 
Q 23.53125 6.390625 29.59375 6.390625 
Q 36.859375 6.390625 41.078125 11.03125 
Q 45.3125 15.671875 45.3125 23.6875 
L 45.3125 54.6875 
L 54.296875 54.6875 
L 54.296875 0 
L 45.3125 0 
L 45.3125 8.40625 
Q 42.046875 3.421875 37.71875 1 
Q 33.40625 -1.421875 27.6875 -1.421875 
Q 18.265625 -1.421875 13.375 4.4375 
Q 8.5 10.296875 8.5 21.578125 
z
M 31.109375 56 
z
" id="DejaVuSans-117"/>
      <path d="M 18.3125 70.21875 
L 18.3125 54.6875 
L 36.8125 54.6875 
L 36.8125 47.703125 
L 18.3125 47.703125 
L 18.3125 18.015625 
Q 18.3125 11.328125 20.140625 9.421875 
Q 21.96875 7.515625 27.59375 7.515625 
L 36.8125 7.515625 
L 36.8125 0 
L 27.59375 0 
Q 17.1875 0 13.234375 3.875 
Q 9.28125 7.765625 9.28125 18.015625 
L 9.28125 47.703125 
L 2.6875 47.703125 
L 2.6875 54.6875 
L 9.28125 54.6875 
L 9.28125 70.21875 
z
" id="DejaVuSans-116"/>
      <path d="M 9.421875 54.6875 
L 18.40625 54.6875 
L 18.40625 0 
L 9.421875 0 
z
M 9.421875 75.984375 
L 18.40625 75.984375 
L 18.40625 64.59375 
L 9.421875 64.59375 
z
" id="DejaVuSans-105"/>
      <path d="M 54.890625 33.015625 
L 54.890625 0 
L 45.90625 0 
L 45.90625 32.71875 
Q 45.90625 40.484375 42.875 44.328125 
Q 39.84375 48.1875 33.796875 48.1875 
Q 26.515625 48.1875 22.3125 43.546875 
Q 18.109375 38.921875 18.109375 30.90625 
L 18.109375 0 
L 9.078125 0 
L 9.078125 54.6875 
L 18.109375 54.6875 
L 18.109375 46.1875 
Q 21.34375 51.125 25.703125 53.5625 
Q 30.078125 56 35.796875 56 
Q 45.21875 56 50.046875 50.171875 
Q 54.890625 44.34375 54.890625 33.015625 
z
" id="DejaVuSans-110"/>
      <path id="DejaVuSans-32"/>
      <path d="M 8.59375 75.984375 
L 29.296875 75.984375 
L 29.296875 69 
L 17.578125 69 
L 17.578125 -6.203125 
L 29.296875 -6.203125 
L 29.296875 -13.1875 
L 8.59375 -13.1875 
z
" id="DejaVuSans-91"/>
      <path d="M 41.609375 79.390625 
Q 41.609375 82.46875 39.421875 84.640625 
Q 37.25 86.8125 34.1875 86.8125 
Q 31.0625 86.8125 28.9375 84.6875 
Q 26.8125 82.5625 26.8125 79.390625 
Q 26.8125 76.3125 28.953125 74.15625 
Q 31.109375 72.015625 34.1875 72.015625 
Q 37.25 72.015625 39.421875 74.15625 
Q 41.609375 76.3125 41.609375 79.390625 
z
M 34.1875 63.1875 
L 20.90625 26.90625 
L 47.515625 26.90625 
z
M 26.8125 68.21875 
Q 23.828125 70.21875 22.3125 73.015625 
Q 20.796875 75.828125 20.796875 79.390625 
Q 20.796875 85.015625 24.671875 88.921875 
Q 28.5625 92.828125 34.1875 92.828125 
Q 39.75 92.828125 43.671875 88.890625 
Q 47.609375 84.96875 47.609375 79.390625 
Q 47.609375 75.984375 46.0625 73.09375 
Q 44.53125 70.21875 41.609375 68.21875 
L 67.578125 0 
L 57.328125 0 
L 50.6875 18.703125 
L 17.828125 18.703125 
L 11.1875 0 
L 0.78125 0 
z
" id="DejaVuSans-197"/>
      <path d="M 30.421875 75.984375 
L 30.421875 -13.1875 
L 9.71875 -13.1875 
L 9.71875 -6.203125 
L 21.390625 -6.203125 
L 21.390625 69 
L 9.71875 69 
L 9.71875 75.984375 
z
" id="DejaVuSans-93"/>
     </defs>
     <g transform="translate(219.98 265.494375)scale(0.16 -0.16)">
      <use xlink:href="#DejaVuSans-82"/>
      <use x="69.419922" xlink:href="#DejaVuSans-101"/>
      <use x="130.943359" xlink:href="#DejaVuSans-115"/>
      <use x="183.042969" xlink:href="#DejaVuSans-111"/>
      <use x="244.224609" xlink:href="#DejaVuSans-108"/>
      <use x="272.007812" xlink:href="#DejaVuSans-117"/>
      <use x="335.386719" xlink:href="#DejaVuSans-116"/>
      <use x="374.595703" xlink:href="#DejaVuSans-105"/>
      <use x="402.378906" xlink:href="#DejaVuSans-111"/>
      <use x="463.560547" xlink:href="#DejaVuSans-110"/>
      <use x="526.939453" xlink:href="#DejaVuSans-32"/>
      <use x="558.726562" xlink:href="#DejaVuSans-91"/>
      <use x="597.740234" xlink:href="#DejaVuSans-197"/>
      <use x="666.148438" xlink:href="#DejaVuSans-93"/>
     </g>
    </g>
   </g>
   <g id="matplotlib.axis_2">
    <g id="ytick_1">
     <g id="line2d_8">
      <path d="M 60.3925 218.88 
" style="fill:none;stroke:#000000;stroke-width:1.5;"/>
      <defs>
       <path d="M 0 0 
L -2.75 0 
" id="m4e74433bc6" style="stroke:#000000;"/>
      </defs>
      <g>
       <use style="stroke:#000000;" x="60.3925" xlink:href="#m4e74433bc6" y="218.88"/>
      </g>
     </g>
     <g id="text_6">
      <!-- 0 -->
      <defs>
       <path d="M 31.78125 66.40625 
Q 24.171875 66.40625 20.328125 58.90625 
Q 16.5 51.421875 16.5 36.375 
Q 16.5 21.390625 20.328125 13.890625 
Q 24.171875 6.390625 31.78125 6.390625 
Q 39.453125 6.390625 43.28125 13.890625 
Q 47.125 21.390625 47.125 36.375 
Q 47.125 51.421875 43.28125 58.90625 
Q 39.453125 66.40625 31.78125 66.40625 
z
M 31.78125 74.21875 
Q 44.046875 74.21875 50.515625 64.515625 
Q 56.984375 54.828125 56.984375 36.375 
Q 56.984375 17.96875 50.515625 8.265625 
Q 44.046875 -1.421875 31.78125 -1.421875 
Q 19.53125 -1.421875 13.0625 8.265625 
Q 6.59375 17.96875 6.59375 36.375 
Q 6.59375 54.828125 13.0625 64.515625 
Q 19.53125 74.21875 31.78125 74.21875 
z
" id="DejaVuSans-48"/>
      </defs>
      <g transform="translate(46.535 222.743125)scale(0.14 -0.14)">
       <use xlink:href="#DejaVuSans-48"/>
      </g>
     </g>
    </g>
    <g id="ytick_2">
     <g id="line2d_9">
      <path d="M 60.3925 168.48 
" style="fill:none;stroke:#000000;stroke-width:1.5;"/>
      <g>
       <use style="stroke:#000000;" x="60.3925" xlink:href="#m4e74433bc6" y="168.48"/>
      </g>
     </g>
     <g id="text_7">
      <!-- 25 -->
      <defs>
       <path d="M 10.796875 72.90625 
L 49.515625 72.90625 
L 49.515625 64.59375 
L 19.828125 64.59375 
L 19.828125 46.734375 
Q 21.96875 47.46875 24.109375 47.828125 
Q 26.265625 48.1875 28.421875 48.1875 
Q 40.625 48.1875 47.75 41.5 
Q 54.890625 34.8125 54.890625 23.390625 
Q 54.890625 11.625 47.5625 5.09375 
Q 40.234375 -1.421875 26.90625 -1.421875 
Q 22.3125 -1.421875 17.546875 -0.640625 
Q 12.796875 0.140625 7.71875 1.703125 
L 7.71875 11.625 
Q 12.109375 9.234375 16.796875 8.0625 
Q 21.484375 6.890625 26.703125 6.890625 
Q 35.15625 6.890625 40.078125 11.328125 
Q 45.015625 15.765625 45.015625 23.390625 
Q 45.015625 31 40.078125 35.4375 
Q 35.15625 39.890625 26.703125 39.890625 
Q 22.75 39.890625 18.8125 39.015625 
Q 14.890625 38.140625 10.796875 36.28125 
z
" id="DejaVuSans-53"/>
      </defs>
      <g transform="translate(37.6275 172.343125)scale(0.14 -0.14)">
       <use xlink:href="#DejaVuSans-50"/>
       <use x="63.623047" xlink:href="#DejaVuSans-53"/>
      </g>
     </g>
    </g>
    <g id="ytick_3">
     <g id="line2d_10">
      <path d="M 60.3925 118.08 
" style="fill:none;stroke:#000000;stroke-width:1.5;"/>
      <g>
       <use style="stroke:#000000;" x="60.3925" xlink:href="#m4e74433bc6" y="118.08"/>
      </g>
     </g>
     <g id="text_8">
      <!-- 50 -->
      <g transform="translate(37.6275 121.943125)scale(0.14 -0.14)">
       <use xlink:href="#DejaVuSans-53"/>
       <use x="63.623047" xlink:href="#DejaVuSans-48"/>
      </g>
     </g>
    </g>
    <g id="ytick_4">
     <g id="line2d_11">
      <path d="M 60.3925 67.68 
" style="fill:none;stroke:#000000;stroke-width:1.5;"/>
      <g>
       <use style="stroke:#000000;" x="60.3925" xlink:href="#m4e74433bc6" y="67.68"/>
      </g>
     </g>
     <g id="text_9">
      <!-- 75 -->
      <defs>
       <path d="M 8.203125 72.90625 
L 55.078125 72.90625 
L 55.078125 68.703125 
L 28.609375 0 
L 18.3125 0 
L 43.21875 64.59375 
L 8.203125 64.59375 
z
" id="DejaVuSans-55"/>
      </defs>
      <g transform="translate(37.6275 71.543125)scale(0.14 -0.14)">
       <use xlink:href="#DejaVuSans-55"/>
       <use x="63.623047" xlink:href="#DejaVuSans-53"/>
      </g>
     </g>
    </g>
    <g id="ytick_5">
     <g id="line2d_12">
      <path d="M 60.3925 17.28 
" style="fill:none;stroke:#000000;stroke-width:1.5;"/>
      <g>
       <use style="stroke:#000000;" x="60.3925" xlink:href="#m4e74433bc6" y="17.28"/>
      </g>
     </g>
     <g id="text_10">
      <!-- 100 -->
      <g transform="translate(28.72 21.143125)scale(0.14 -0.14)">
       <use xlink:href="#DejaVuSans-49"/>
       <use x="63.623047" xlink:href="#DejaVuSans-48"/>
       <use x="127.246094" xlink:href="#DejaVuSans-48"/>
      </g>
     </g>
    </g>
    <g id="ytick_6">
     <g id="line2d_13">
      <path d="M 60.3925 193.68 
" style="fill:none;stroke:#000000;stroke-width:1.5;"/>
      <defs>
       <path d="M 0 0 
L -1.375 0 
" id="m268fb7e379" style="stroke:#000000;"/>
      </defs>
      <g>
       <use style="stroke:#000000;" x="60.3925" xlink:href="#m268fb7e379" y="193.68"/>
      </g>
     </g>
    </g>
    <g id="ytick_7">
     <g id="line2d_14">
      <path d="M 60.3925 143.28 
" style="fill:none;stroke:#000000;stroke-width:1.5;"/>
      <g>
       <use style="stroke:#000000;" x="60.3925" xlink:href="#m268fb7e379" y="143.28"/>
      </g>
     </g>
    </g>
    <g id="ytick_8">
     <g id="line2d_15">
      <path d="M 60.3925 92.88 
" style="fill:none;stroke:#000000;stroke-width:1.5;"/>
      <g>
       <use style="stroke:#000000;" x="60.3925" xlink:href="#m268fb7e379" y="92.88"/>
      </g>
     </g>
    </g>
    <g id="ytick_9">
     <g id="line2d_16">
      <path d="M 60.3925 42.48 
" style="fill:none;stroke:#000000;stroke-width:1.5;"/>
      <g>
       <use style="stroke:#000000;" x="60.3925" xlink:href="#m268fb7e379" y="42.48"/>
      </g>
     </g>
    </g>
    <g id="text_11">
     <!-- $P_{Q1p}$ [%] -->
     <defs>
      <path d="M 16.890625 72.90625 
L 39.703125 72.90625 
Q 49.65625 72.90625 54.875 68.265625 
Q 60.109375 63.625 60.109375 54.6875 
Q 60.109375 42.671875 52.390625 35.984375 
Q 44.671875 29.296875 30.71875 29.296875 
L 18.3125 29.296875 
L 12.59375 0 
L 2.6875 0 
z
M 25.203125 64.796875 
L 19.921875 37.40625 
L 32.328125 37.40625 
Q 40.71875 37.40625 45.203125 41.703125 
Q 49.703125 46 49.703125 54 
Q 49.703125 59.125 46.65625 61.953125 
Q 43.609375 64.796875 38.09375 64.796875 
z
" id="DejaVuSans-Oblique-80"/>
      <path d="M 36.078125 -1.3125 
Q 35.546875 -1.375 34.953125 -1.390625 
Q 34.375 -1.421875 33.203125 -1.421875 
Q 19.53125 -1.421875 11.8125 6.421875 
Q 4.109375 14.265625 4.109375 28.078125 
Q 4.109375 36.234375 7.0625 44.4375 
Q 10.015625 52.640625 15.28125 59.1875 
Q 21.390625 66.703125 29.03125 70.453125 
Q 36.671875 74.21875 45.90625 74.21875 
Q 59.28125 74.21875 66.984375 66.328125 
Q 74.703125 58.453125 74.703125 44.828125 
Q 74.703125 30.125 66.640625 17.921875 
Q 58.59375 5.71875 45.609375 0.6875 
L 55.515625 -12.890625 
L 44.484375 -12.890625 
z
M 45.609375 66.21875 
Q 37.5 66.21875 31.296875 62.28125 
Q 25.09375 58.34375 20.515625 50.296875 
Q 17.578125 45.171875 16.03125 39.40625 
Q 14.5 33.640625 14.5 27.78125 
Q 14.5 17.625 19.359375 12.109375 
Q 24.21875 6.59375 33.109375 6.59375 
Q 41.109375 6.59375 47.375 10.5625 
Q 53.65625 14.546875 58.109375 22.40625 
Q 61.078125 27.6875 62.640625 33.46875 
Q 64.203125 39.265625 64.203125 45.015625 
Q 64.203125 55.125 59.3125 60.671875 
Q 54.4375 66.21875 45.609375 66.21875 
z
" id="DejaVuSans-Oblique-81"/>
      <path d="M 49.609375 33.6875 
Q 49.609375 40.875 46.484375 44.671875 
Q 43.359375 48.484375 37.5 48.484375 
Q 33.5 48.484375 29.859375 46.4375 
Q 26.21875 44.390625 23.390625 40.484375 
Q 20.609375 36.625 18.9375 31.15625 
Q 17.28125 25.6875 17.28125 20.3125 
Q 17.28125 13.484375 20.40625 9.796875 
Q 23.53125 6.109375 29.296875 6.109375 
Q 33.546875 6.109375 37.1875 8.109375 
Q 40.828125 10.109375 43.40625 13.921875 
Q 46.1875 17.921875 47.890625 23.34375 
Q 49.609375 28.765625 49.609375 33.6875 
z
M 21.78125 46.390625 
Q 25.390625 51.125 30.296875 53.5625 
Q 35.203125 56 41.21875 56 
Q 49.609375 56 54.25 50.5 
Q 58.890625 45.015625 58.890625 35.109375 
Q 58.890625 27 56 19.65625 
Q 53.125 12.3125 47.703125 6.5 
Q 44.09375 2.640625 39.546875 0.609375 
Q 35.015625 -1.421875 29.984375 -1.421875 
Q 24.171875 -1.421875 20.21875 1 
Q 16.265625 3.421875 14.3125 8.203125 
L 8.6875 -20.796875 
L -0.296875 -20.796875 
L 14.40625 54.6875 
L 23.390625 54.6875 
z
" id="DejaVuSans-Oblique-112"/>
      <path d="M 72.703125 32.078125 
Q 68.453125 32.078125 66.03125 28.46875 
Q 63.625 24.859375 63.625 18.40625 
Q 63.625 12.0625 66.03125 8.421875 
Q 68.453125 4.78125 72.703125 4.78125 
Q 76.859375 4.78125 79.265625 8.421875 
Q 81.6875 12.0625 81.6875 18.40625 
Q 81.6875 24.8125 79.265625 28.4375 
Q 76.859375 32.078125 72.703125 32.078125 
z
M 72.703125 38.28125 
Q 80.421875 38.28125 84.953125 32.90625 
Q 89.5 27.546875 89.5 18.40625 
Q 89.5 9.28125 84.9375 3.921875 
Q 80.375 -1.421875 72.703125 -1.421875 
Q 64.890625 -1.421875 60.34375 3.921875 
Q 55.8125 9.28125 55.8125 18.40625 
Q 55.8125 27.59375 60.375 32.9375 
Q 64.9375 38.28125 72.703125 38.28125 
z
M 22.3125 68.015625 
Q 18.109375 68.015625 15.6875 64.375 
Q 13.28125 60.75 13.28125 54.390625 
Q 13.28125 47.953125 15.671875 44.328125 
Q 18.0625 40.71875 22.3125 40.71875 
Q 26.5625 40.71875 28.96875 44.328125 
Q 31.390625 47.953125 31.390625 54.390625 
Q 31.390625 60.6875 28.953125 64.34375 
Q 26.515625 68.015625 22.3125 68.015625 
z
M 66.40625 74.21875 
L 74.21875 74.21875 
L 28.609375 -1.421875 
L 20.796875 -1.421875 
z
M 22.3125 74.21875 
Q 30.03125 74.21875 34.609375 68.875 
Q 39.203125 63.53125 39.203125 54.390625 
Q 39.203125 45.171875 34.640625 39.84375 
Q 30.078125 34.515625 22.3125 34.515625 
Q 14.546875 34.515625 10.03125 39.859375 
Q 5.515625 45.21875 5.515625 54.390625 
Q 5.515625 63.484375 10.046875 68.84375 
Q 14.59375 74.21875 22.3125 74.21875 
z
" id="DejaVuSans-37"/>
     </defs>
     <g transform="translate(19.36 149.6)rotate(-90)scale(0.16 -0.16)">
      <use transform="translate(0 0.015625)" xlink:href="#DejaVuSans-Oblique-80"/>
      <use transform="translate(60.302734 -16.390625)scale(0.7)" xlink:href="#DejaVuSans-Oblique-81"/>
      <use transform="translate(115.400391 -16.390625)scale(0.7)" xlink:href="#DejaVuSans-49"/>
      <use transform="translate(159.936523 -16.390625)scale(0.7)" xlink:href="#DejaVuSans-Oblique-112"/>
      <use transform="translate(207.104492 0.015625)" xlink:href="#DejaVuSans-32"/>
      <use transform="translate(238.891602 0.015625)" xlink:href="#DejaVuSans-91"/>
      <use transform="translate(277.905273 0.015625)" xlink:href="#DejaVuSans-37"/>
      <use transform="translate(372.924805 0.015625)" xlink:href="#DejaVuSans-93"/>
     </g>
    </g>
   </g>
   <g id="LineCollection_1">
    <path clip-path="url(#pd47f8105dc)" d="M 80.683409 53.753034 
L 80.68341 53.753034 
" style="fill:none;stroke:#9da0a2;stroke-width:1.32934;"/>
    <path clip-path="url(#pd47f8105dc)" d="M 94.210682 55.237735 
L 94.210683 55.237735 
" style="fill:none;stroke:#9da0a2;stroke-width:1.32934;"/>
    <path clip-path="url(#pd47f8105dc)" d="M 107.737954 61.784321 
L 107.737956 61.784321 
" style="fill:none;stroke:#9da0a2;stroke-width:1.32934;"/>
    <path clip-path="url(#pd47f8105dc)" d="M 121.265227 62.344864 
L 121.265228 62.344864 
" style="fill:none;stroke:#9da0a2;stroke-width:1.32934;"/>
    <path clip-path="url(#pd47f8105dc)" d="M 134.7925 70.563848 
L 134.792501 70.563848 
" style="fill:none;stroke:#9da0a2;stroke-width:1.32934;"/>
    <path clip-path="url(#pd47f8105dc)" d="M 148.319773 77.725499 
L 148.319774 77.725499 
" style="fill:none;stroke:#9da0a2;stroke-width:1.32934;"/>
    <path clip-path="url(#pd47f8105dc)" d="M 161.847045 82.543154 
L 161.847047 82.543154 
" style="fill:none;stroke:#9da0a2;stroke-width:1.32934;"/>
    <path clip-path="url(#pd47f8105dc)" d="M 175.374318 91.166078 
L 175.374319 91.166078 
" style="fill:none;stroke:#9da0a2;stroke-width:1.32934;"/>
    <path clip-path="url(#pd47f8105dc)" d="M 188.901591 94.305965 
L 188.901592 94.305965 
" style="fill:none;stroke:#9da0a2;stroke-width:1.32934;"/>
    <path clip-path="url(#pd47f8105dc)" d="M 202.428863 106.357632 
L 202.428865 106.357632 
" style="fill:none;stroke:#9da0a2;stroke-width:1.32934;"/>
    <path clip-path="url(#pd47f8105dc)" d="M 215.956136 115.768449 
L 215.956137 115.768449 
" style="fill:none;stroke:#9da0a2;stroke-width:1.32934;"/>
    <path clip-path="url(#pd47f8105dc)" d="M 229.483409 123.260329 
L 229.48341 123.260329 
" style="fill:none;stroke:#9da0a2;stroke-width:1.32934;"/>
    <path clip-path="url(#pd47f8105dc)" d="M 243.010681 129.146564 
L 243.010683 129.146564 
" style="fill:none;stroke:#9da0a2;stroke-width:1.32934;"/>
    <path clip-path="url(#pd47f8105dc)" d="M 256.537954 140.609361 
L 256.537955 140.609361 
" style="fill:none;stroke:#9da0a2;stroke-width:1.32934;"/>
    <path clip-path="url(#pd47f8105dc)" d="M 270.065227 141.12901 
L 270.065228 141.12901 
" style="fill:none;stroke:#9da0a2;stroke-width:1.32934;"/>
    <path clip-path="url(#pd47f8105dc)" d="M 283.592499 150.374624 
L 283.592501 150.374624 
" style="fill:none;stroke:#9da0a2;stroke-width:1.32934;"/>
    <path clip-path="url(#pd47f8105dc)" d="M 297.119772 148.527879 
L 297.119773 148.527879 
" style="fill:none;stroke:#9da0a2;stroke-width:1.32934;"/>
    <path clip-path="url(#pd47f8105dc)" d="M 310.647045 155.002982 
L 310.647046 155.002982 
" style="fill:none;stroke:#9da0a2;stroke-width:1.32934;"/>
    <path clip-path="url(#pd47f8105dc)" d="M 324.174317 156.910658 
L 324.174319 156.910658 
" style="fill:none;stroke:#9da0a2;stroke-width:1.32934;"/>
    <path clip-path="url(#pd47f8105dc)" d="M 337.70159 161.725207 
L 337.701591 161.725207 
" style="fill:none;stroke:#9da0a2;stroke-width:1.32934;"/>
    <path clip-path="url(#pd47f8105dc)" d="M 351.228863 155.798345 
L 351.228864 155.798345 
" style="fill:none;stroke:#9da0a2;stroke-width:1.32934;"/>
    <path clip-path="url(#pd47f8105dc)" d="M 364.756135 154.951431 
L 364.756137 154.951431 
" style="fill:none;stroke:#9da0a2;stroke-width:1.32934;"/>
    <path clip-path="url(#pd47f8105dc)" d="M 378.283408 161.465363 
L 378.283409 161.465363 
" style="fill:none;stroke:#9da0a2;stroke-width:1.32934;"/>
    <path clip-path="url(#pd47f8105dc)" d="M 391.810681 167.347045 
L 391.810682 167.347045 
" style="fill:none;stroke:#9da0a2;stroke-width:1.32934;"/>
    <path clip-path="url(#pd47f8105dc)" d="M 405.337953 176.030659 
L 405.337955 176.030659 
" style="fill:none;stroke:#9da0a2;stroke-width:1.32934;"/>
    <path clip-path="url(#pd47f8105dc)" d="M 418.865226 170.873818 
L 418.865227 170.873818 
" style="fill:none;stroke:#9da0a2;stroke-width:1.32934;"/>
    <path clip-path="url(#pd47f8105dc)" d="M 432.392499 168.568384 
L 432.3925 168.568384 
" style="fill:none;stroke:#9da0a2;stroke-width:1.32934;"/>
    <path clip-path="url(#pd47f8105dc)" d="M 445.919772 175.529491 
L 445.919773 175.529491 
" style="fill:none;stroke:#9da0a2;stroke-width:1.32934;"/>
    <path clip-path="url(#pd47f8105dc)" d="M 459.447044 176.740976 
L 459.447046 176.740976 
" style="fill:none;stroke:#9da0a2;stroke-width:1.32934;"/>
    <path clip-path="url(#pd47f8105dc)" d="M 472.974317 182.66574 
L 472.974318 182.66574 
" style="fill:none;stroke:#9da0a2;stroke-width:1.32934;"/>
    <path clip-path="url(#pd47f8105dc)" d="M 486.50159 175.036611 
L 486.501591 175.036611 
" style="fill:none;stroke:#9da0a2;stroke-width:1.32934;"/>
    <path clip-path="url(#pd47f8105dc)" d="M 80.683409 51.793688 
L 80.68341 51.793688 
" style="fill:none;stroke:#9da0a2;stroke-width:1.32934;"/>
    <path clip-path="url(#pd47f8105dc)" d="M 94.210682 53.208274 
L 94.210683 53.208274 
" style="fill:none;stroke:#9da0a2;stroke-width:1.32934;"/>
    <path clip-path="url(#pd47f8105dc)" d="M 107.737954 60.150256 
L 107.737956 60.150256 
" style="fill:none;stroke:#9da0a2;stroke-width:1.32934;"/>
    <path clip-path="url(#pd47f8105dc)" d="M 121.265227 60.646441 
L 121.265228 60.646441 
" style="fill:none;stroke:#9da0a2;stroke-width:1.32934;"/>
    <path clip-path="url(#pd47f8105dc)" d="M 134.7925 69.30162 
L 134.792501 69.30162 
" style="fill:none;stroke:#9da0a2;stroke-width:1.32934;"/>
    <path clip-path="url(#pd47f8105dc)" d="M 148.319773 76.417626 
L 148.319774 76.417626 
" style="fill:none;stroke:#9da0a2;stroke-width:1.32934;"/>
    <path clip-path="url(#pd47f8105dc)" d="M 161.847045 81.484753 
L 161.847047 81.484753 
" style="fill:none;stroke:#9da0a2;stroke-width:1.32934;"/>
    <path clip-path="url(#pd47f8105dc)" d="M 175.374318 89.977324 
L 175.374319 89.977324 
" style="fill:none;stroke:#9da0a2;stroke-width:1.32934;"/>
    <path clip-path="url(#pd47f8105dc)" d="M 188.901591 93.422138 
L 188.901592 93.422138 
" style="fill:none;stroke:#9da0a2;stroke-width:1.32934;"/>
    <path clip-path="url(#pd47f8105dc)" d="M 202.428863 105.285025 
L 202.428865 105.285025 
" style="fill:none;stroke:#9da0a2;stroke-width:1.32934;"/>
    <path clip-path="url(#pd47f8105dc)" d="M 215.956136 114.897568 
L 215.956137 114.897568 
" style="fill:none;stroke:#9da0a2;stroke-width:1.32934;"/>
    <path clip-path="url(#pd47f8105dc)" d="M 229.483409 122.030493 
L 229.48341 122.030493 
" style="fill:none;stroke:#9da0a2;stroke-width:1.32934;"/>
    <path clip-path="url(#pd47f8105dc)" d="M 243.010681 128.076811 
L 243.010683 128.076811 
" style="fill:none;stroke:#9da0a2;stroke-width:1.32934;"/>
    <path clip-path="url(#pd47f8105dc)" d="M 256.537954 139.409193 
L 256.537955 139.409193 
" style="fill:none;stroke:#9da0a2;stroke-width:1.32934;"/>
    <path clip-path="url(#pd47f8105dc)" d="M 270.065227 139.941892 
L 270.065228 139.941892 
" style="fill:none;stroke:#9da0a2;stroke-width:1.32934;"/>
    <path clip-path="url(#pd47f8105dc)" d="M 283.592499 149.157284 
L 283.592501 149.157284 
" style="fill:none;stroke:#9da0a2;stroke-width:1.32934;"/>
    <path clip-path="url(#pd47f8105dc)" d="M 297.119772 147.263997 
L 297.119773 147.263997 
" style="fill:none;stroke:#9da0a2;stroke-width:1.32934;"/>
    <path clip-path="url(#pd47f8105dc)" d="M 310.647045 153.510959 
L 310.647046 153.510959 
" style="fill:none;stroke:#9da0a2;stroke-width:1.32934;"/>
    <path clip-path="url(#pd47f8105dc)" d="M 324.174317 155.663718 
L 324.174319 155.663718 
" style="fill:none;stroke:#9da0a2;stroke-width:1.32934;"/>
    <path clip-path="url(#pd47f8105dc)" d="M 337.70159 160.01833 
L 337.701591 160.01833 
" style="fill:none;stroke:#9da0a2;stroke-width:1.32934;"/>
    <path clip-path="url(#pd47f8105dc)" d="M 351.228863 154.267789 
L 351.228864 154.267789 
" style="fill:none;stroke:#9da0a2;stroke-width:1.32934;"/>
    <path clip-path="url(#pd47f8105dc)" d="M 364.756135 152.697203 
L 364.756137 152.697203 
" style="fill:none;stroke:#9da0a2;stroke-width:1.32934;"/>
    <path clip-path="url(#pd47f8105dc)" d="M 378.283408 159.430515 
L 378.283409 159.430515 
" style="fill:none;stroke:#9da0a2;stroke-width:1.32934;"/>
    <path clip-path="url(#pd47f8105dc)" d="M 391.810681 164.64646 
L 391.810682 164.64646 
" style="fill:none;stroke:#9da0a2;stroke-width:1.32934;"/>
    <path clip-path="url(#pd47f8105dc)" d="M 405.337953 173.215745 
L 405.337955 173.215745 
" style="fill:none;stroke:#9da0a2;stroke-width:1.32934;"/>
    <path clip-path="url(#pd47f8105dc)" d="M 418.865226 167.989217 
L 418.865227 167.989217 
" style="fill:none;stroke:#9da0a2;stroke-width:1.32934;"/>
    <path clip-path="url(#pd47f8105dc)" d="M 432.392499 164.820125 
L 432.3925 164.820125 
" style="fill:none;stroke:#9da0a2;stroke-width:1.32934;"/>
    <path clip-path="url(#pd47f8105dc)" d="M 445.919772 170.114603 
L 445.919773 170.114603 
" style="fill:none;stroke:#9da0a2;stroke-width:1.32934;"/>
    <path clip-path="url(#pd47f8105dc)" d="M 459.447044 172.544168 
L 459.447046 172.544168 
" style="fill:none;stroke:#9da0a2;stroke-width:1.32934;"/>
    <path clip-path="url(#pd47f8105dc)" d="M 472.974317 176.996603 
L 472.974318 176.996603 
" style="fill:none;stroke:#9da0a2;stroke-width:1.32934;"/>
    <path clip-path="url(#pd47f8105dc)" d="M 486.50159 172.560036 
L 486.501591 172.560036 
" style="fill:none;stroke:#9da0a2;stroke-width:1.32934;"/>
    <path clip-path="url(#pd47f8105dc)" d="M 80.68341 51.793688 
L 80.68341 53.753034 
" style="fill:none;stroke:#9da0a2;stroke-width:1.32934;"/>
    <path clip-path="url(#pd47f8105dc)" d="M 94.210682 53.208274 
L 94.210682 55.237735 
" style="fill:none;stroke:#9da0a2;stroke-width:1.32934;"/>
    <path clip-path="url(#pd47f8105dc)" d="M 107.737955 60.150256 
L 107.737955 61.784321 
" style="fill:none;stroke:#9da0a2;stroke-width:1.32934;"/>
    <path clip-path="url(#pd47f8105dc)" d="M 121.265228 60.646441 
L 121.265228 62.344864 
" style="fill:none;stroke:#9da0a2;stroke-width:1.32934;"/>
    <path clip-path="url(#pd47f8105dc)" d="M 134.7925 69.30162 
L 134.7925 70.563848 
" style="fill:none;stroke:#9da0a2;stroke-width:1.32934;"/>
    <path clip-path="url(#pd47f8105dc)" d="M 148.319773 76.417626 
L 148.319773 77.725499 
" style="fill:none;stroke:#9da0a2;stroke-width:1.32934;"/>
    <path clip-path="url(#pd47f8105dc)" d="M 161.847046 81.484753 
L 161.847046 82.543154 
" style="fill:none;stroke:#9da0a2;stroke-width:1.32934;"/>
    <path clip-path="url(#pd47f8105dc)" d="M 175.374319 89.977324 
L 175.374319 91.166078 
" style="fill:none;stroke:#9da0a2;stroke-width:1.32934;"/>
    <path clip-path="url(#pd47f8105dc)" d="M 188.901591 93.422138 
L 188.901591 94.305965 
" style="fill:none;stroke:#9da0a2;stroke-width:1.32934;"/>
    <path clip-path="url(#pd47f8105dc)" d="M 202.428864 105.285025 
L 202.428864 106.357632 
" style="fill:none;stroke:#9da0a2;stroke-width:1.32934;"/>
    <path clip-path="url(#pd47f8105dc)" d="M 215.956137 114.897568 
L 215.956137 115.768449 
" style="fill:none;stroke:#9da0a2;stroke-width:1.32934;"/>
    <path clip-path="url(#pd47f8105dc)" d="M 229.483409 122.030493 
L 229.483409 123.260329 
" style="fill:none;stroke:#9da0a2;stroke-width:1.32934;"/>
    <path clip-path="url(#pd47f8105dc)" d="M 243.010682 128.076811 
L 243.010682 129.146564 
" style="fill:none;stroke:#9da0a2;stroke-width:1.32934;"/>
    <path clip-path="url(#pd47f8105dc)" d="M 256.537955 139.409193 
L 256.537955 140.609361 
" style="fill:none;stroke:#9da0a2;stroke-width:1.32934;"/>
    <path clip-path="url(#pd47f8105dc)" d="M 270.065227 139.941892 
L 270.065227 141.12901 
" style="fill:none;stroke:#9da0a2;stroke-width:1.32934;"/>
    <path clip-path="url(#pd47f8105dc)" d="M 283.5925 149.157284 
L 283.5925 150.374624 
" style="fill:none;stroke:#9da0a2;stroke-width:1.32934;"/>
    <path clip-path="url(#pd47f8105dc)" d="M 297.119773 147.263997 
L 297.119773 148.527879 
" style="fill:none;stroke:#9da0a2;stroke-width:1.32934;"/>
    <path clip-path="url(#pd47f8105dc)" d="M 310.647045 153.510959 
L 310.647045 155.002982 
" style="fill:none;stroke:#9da0a2;stroke-width:1.32934;"/>
    <path clip-path="url(#pd47f8105dc)" d="M 324.174318 155.663718 
L 324.174318 156.910658 
" style="fill:none;stroke:#9da0a2;stroke-width:1.32934;"/>
    <path clip-path="url(#pd47f8105dc)" d="M 337.701591 160.01833 
L 337.701591 161.725207 
" style="fill:none;stroke:#9da0a2;stroke-width:1.32934;"/>
    <path clip-path="url(#pd47f8105dc)" d="M 351.228863 154.267789 
L 351.228863 155.798345 
" style="fill:none;stroke:#9da0a2;stroke-width:1.32934;"/>
    <path clip-path="url(#pd47f8105dc)" d="M 364.756136 152.697203 
L 364.756136 154.951431 
" style="fill:none;stroke:#9da0a2;stroke-width:1.32934;"/>
    <path clip-path="url(#pd47f8105dc)" d="M 378.283409 159.430515 
L 378.283409 161.465363 
" style="fill:none;stroke:#9da0a2;stroke-width:1.32934;"/>
    <path clip-path="url(#pd47f8105dc)" d="M 391.810681 164.64646 
L 391.810681 167.347045 
" style="fill:none;stroke:#9da0a2;stroke-width:1.32934;"/>
    <path clip-path="url(#pd47f8105dc)" d="M 405.337954 173.215745 
L 405.337954 176.030659 
" style="fill:none;stroke:#9da0a2;stroke-width:1.32934;"/>
    <path clip-path="url(#pd47f8105dc)" d="M 418.865227 167.989217 
L 418.865227 170.873818 
" style="fill:none;stroke:#9da0a2;stroke-width:1.32934;"/>
    <path clip-path="url(#pd47f8105dc)" d="M 432.3925 164.820125 
L 432.3925 168.568384 
" style="fill:none;stroke:#9da0a2;stroke-width:1.32934;"/>
    <path clip-path="url(#pd47f8105dc)" d="M 445.919772 170.114603 
L 445.919772 175.529491 
" style="fill:none;stroke:#9da0a2;stroke-width:1.32934;"/>
    <path clip-path="url(#pd47f8105dc)" d="M 459.447045 172.544168 
L 459.447045 176.740976 
" style="fill:none;stroke:#9da0a2;stroke-width:1.32934;"/>
    <path clip-path="url(#pd47f8105dc)" d="M 472.974318 176.996603 
L 472.974318 182.66574 
" style="fill:none;stroke:#9da0a2;stroke-width:1.32934;"/>
    <path clip-path="url(#pd47f8105dc)" d="M 486.50159 172.560036 
L 486.50159 175.036611 
" style="fill:none;stroke:#9da0a2;stroke-width:1.32934;"/>
   </g>
   <g id="line2d_17">
    <path clip-path="url(#pd47f8105dc)" d="M 80.68341 52.773361 
L 94.210682 54.223005 
L 107.737955 60.967289 
L 121.265228 61.495652 
L 134.7925 69.932734 
L 148.319773 77.071563 
L 161.847046 82.013954 
L 175.374319 90.571701 
L 188.901591 93.864051 
L 202.428864 105.821328 
L 215.956137 115.333009 
L 229.483409 122.645411 
L 243.010682 128.611688 
L 256.537955 140.009277 
L 270.065227 140.535451 
L 283.5925 149.765954 
L 297.119773 147.895938 
L 310.647045 154.25697 
L 324.174318 156.287188 
L 337.701591 160.871768 
L 351.228863 155.033067 
L 364.756136 153.824317 
L 378.283409 160.447939 
L 391.810681 165.996752 
L 405.337954 174.623202 
L 418.865227 169.431518 
L 432.3925 166.694254 
L 445.919772 172.822047 
L 459.447045 174.642572 
L 472.974318 179.831171 
L 486.50159 173.798324 
" style="fill:none;stroke:#ee7733;stroke-width:0.886227;"/>
   </g>
   <g id="patch_3">
    <path d="M 60.3925 228.96 
L 60.3925 7.2 
" style="fill:none;stroke:#000000;stroke-linecap:square;stroke-linejoin:miter;"/>
   </g>
   <g id="patch_4">
    <path d="M 60.3925 228.96 
L 506.7925 228.96 
" style="fill:none;stroke:#000000;stroke-linecap:square;stroke-linejoin:miter;"/>
   </g>
   <g id="PathCollection_1">
    <path clip-path="url(#pd47f8105dc)" d="M 80.68341 54.545815 
C 81.15347 54.545815 81.604341 54.359058 81.936724 54.026676 
C 82.269107 53.694293 82.455864 53.243422 82.455864 52.773361 
C 82.455864 52.303301 82.269107 51.85243 81.936724 51.520047 
C 81.604341 51.187664 81.15347 51.000908 80.68341 51.000908 
C 80.21335 51.000908 79.762478 51.187664 79.430096 51.520047 
C 79.097713 51.85243 78.910956 52.303301 78.910956 52.773361 
C 78.910956 53.243422 79.097713 53.694293 79.430096 54.026676 
C 79.762478 54.359058 80.21335 54.545815 80.68341 54.545815 
z
" style="fill:#ee7733;stroke:#ee7733;stroke-width:0.886227;"/>
    <path clip-path="url(#pd47f8105dc)" d="M 94.210682 55.995458 
C 94.680743 55.995458 95.131614 55.808701 95.463997 55.476319 
C 95.796379 55.143936 95.983136 54.693065 95.983136 54.223005 
C 95.983136 53.752944 95.796379 53.302073 95.463997 52.96969 
C 95.131614 52.637308 94.680743 52.450551 94.210682 52.450551 
C 93.740622 52.450551 93.289751 52.637308 92.957368 52.96969 
C 92.624986 53.302073 92.438229 53.752944 92.438229 54.223005 
C 92.438229 54.693065 92.624986 55.143936 92.957368 55.476319 
C 93.289751 55.808701 93.740622 55.995458 94.210682 55.995458 
z
" style="fill:#ee7733;stroke:#ee7733;stroke-width:0.886227;"/>
    <path clip-path="url(#pd47f8105dc)" d="M 107.737955 62.739743 
C 108.208015 62.739743 108.658886 62.552986 108.991269 62.220603 
C 109.323652 61.88822 109.510409 61.437349 109.510409 60.967289 
C 109.510409 60.497228 109.323652 60.046357 108.991269 59.713975 
C 108.658886 59.381592 108.208015 59.194835 107.737955 59.194835 
C 107.267895 59.194835 106.817024 59.381592 106.484641 59.713975 
C 106.152258 60.046357 105.965501 60.497228 105.965501 60.967289 
C 105.965501 61.437349 106.152258 61.88822 106.484641 62.220603 
C 106.817024 62.552986 107.267895 62.739743 107.737955 62.739743 
z
" style="fill:#ee7733;stroke:#ee7733;stroke-width:0.886227;"/>
    <path clip-path="url(#pd47f8105dc)" d="M 121.265228 63.268106 
C 121.735288 63.268106 122.186159 63.081349 122.518542 62.748967 
C 122.850925 62.416584 123.037682 61.965713 123.037682 61.495652 
C 123.037682 61.025592 122.850925 60.574721 122.518542 60.242338 
C 122.186159 59.909956 121.735288 59.723199 121.265228 59.723199 
C 120.795168 59.723199 120.344296 59.909956 120.011914 60.242338 
C 119.679531 60.574721 119.492774 61.025592 119.492774 61.495652 
C 119.492774 61.965713 119.679531 62.416584 120.011914 62.748967 
C 120.344296 63.081349 120.795168 63.268106 121.265228 63.268106 
z
" style="fill:#ee7733;stroke:#ee7733;stroke-width:0.886227;"/>
    <path clip-path="url(#pd47f8105dc)" d="M 134.7925 71.705188 
C 135.262561 71.705188 135.713432 71.518431 136.045815 71.186048 
C 136.378197 70.853665 136.564954 70.402794 136.564954 69.932734 
C 136.564954 69.462674 136.378197 69.011803 136.045815 68.67942 
C 135.713432 68.347037 135.262561 68.16028 134.7925 68.16028 
C 134.32244 68.16028 133.871569 68.347037 133.539186 68.67942 
C 133.206804 69.011803 133.020047 69.462674 133.020047 69.932734 
C 133.020047 70.402794 133.206804 70.853665 133.539186 71.186048 
C 133.871569 71.518431 134.32244 71.705188 134.7925 71.705188 
z
" style="fill:#ee7733;stroke:#ee7733;stroke-width:0.886227;"/>
    <path clip-path="url(#pd47f8105dc)" d="M 148.319773 78.844017 
C 148.789833 78.844017 149.240705 78.65726 149.573087 78.324877 
C 149.90547 77.992494 150.092227 77.541623 150.092227 77.071563 
C 150.092227 76.601503 149.90547 76.150631 149.573087 75.818249 
C 149.240705 75.485866 148.789833 75.299109 148.319773 75.299109 
C 147.849713 75.299109 147.398842 75.485866 147.066459 75.818249 
C 146.734076 76.150631 146.547319 76.601503 146.547319 77.071563 
C 146.547319 77.541623 146.734076 77.992494 147.066459 78.324877 
C 147.398842 78.65726 147.849713 78.844017 148.319773 78.844017 
z
" style="fill:#ee7733;stroke:#ee7733;stroke-width:0.886227;"/>
    <path clip-path="url(#pd47f8105dc)" d="M 161.847046 83.786408 
C 162.317106 83.786408 162.767977 83.599651 163.10036 83.267268 
C 163.432743 82.934885 163.6195 82.484014 163.6195 82.013954 
C 163.6195 81.543894 163.432743 81.093022 163.10036 80.76064 
C 162.767977 80.428257 162.317106 80.2415 161.847046 80.2415 
C 161.376986 80.2415 160.926115 80.428257 160.593732 80.76064 
C 160.261349 81.093022 160.074592 81.543894 160.074592 82.013954 
C 160.074592 82.484014 160.261349 82.934885 160.593732 83.267268 
C 160.926115 83.599651 161.376986 83.786408 161.847046 83.786408 
z
" style="fill:#ee7733;stroke:#ee7733;stroke-width:0.886227;"/>
    <path clip-path="url(#pd47f8105dc)" d="M 175.374319 92.344155 
C 175.844379 92.344155 176.29525 92.157398 176.627633 91.825015 
C 176.960015 91.492632 177.146772 91.041761 177.146772 90.571701 
C 177.146772 90.101641 176.960015 89.65077 176.627633 89.318387 
C 176.29525 88.986004 175.844379 88.799247 175.374319 88.799247 
C 174.904258 88.799247 174.453387 88.986004 174.121004 89.318387 
C 173.788622 89.65077 173.601865 90.101641 173.601865 90.571701 
C 173.601865 91.041761 173.788622 91.492632 174.121004 91.825015 
C 174.453387 92.157398 174.904258 92.344155 175.374319 92.344155 
z
" style="fill:#ee7733;stroke:#ee7733;stroke-width:0.886227;"/>
    <path clip-path="url(#pd47f8105dc)" d="M 188.901591 95.636505 
C 189.371651 95.636505 189.822523 95.449748 190.154905 95.117366 
C 190.487288 94.784983 190.674045 94.334112 190.674045 93.864051 
C 190.674045 93.393991 190.487288 92.94312 190.154905 92.610737 
C 189.822523 92.278355 189.371651 92.091598 188.901591 92.091598 
C 188.431531 92.091598 187.98066 92.278355 187.648277 92.610737 
C 187.315894 92.94312 187.129137 93.393991 187.129137 93.864051 
C 187.129137 94.334112 187.315894 94.784983 187.648277 95.117366 
C 187.98066 95.449748 188.431531 95.636505 188.901591 95.636505 
z
" style="fill:#ee7733;stroke:#ee7733;stroke-width:0.886227;"/>
    <path clip-path="url(#pd47f8105dc)" d="M 202.428864 107.593782 
C 202.898924 107.593782 203.349795 107.407025 203.682178 107.074643 
C 204.014561 106.74226 204.201318 106.291389 204.201318 105.821328 
C 204.201318 105.351268 204.014561 104.900397 203.682178 104.568014 
C 203.349795 104.235632 202.898924 104.048875 202.428864 104.048875 
C 201.958804 104.048875 201.507933 104.235632 201.17555 104.568014 
C 200.843167 104.900397 200.65641 105.351268 200.65641 105.821328 
C 200.65641 106.291389 200.843167 106.74226 201.17555 107.074643 
C 201.507933 107.407025 201.958804 107.593782 202.428864 107.593782 
z
" style="fill:#ee7733;stroke:#ee7733;stroke-width:0.886227;"/>
    <path clip-path="url(#pd47f8105dc)" d="M 215.956137 117.105463 
C 216.426197 117.105463 216.877068 116.918706 217.209451 116.586323 
C 217.541834 116.25394 217.72859 115.803069 217.72859 115.333009 
C 217.72859 114.862948 217.541834 114.412077 217.209451 114.079695 
C 216.877068 113.747312 216.426197 113.560555 215.956137 113.560555 
C 215.486076 113.560555 215.035205 113.747312 214.702822 114.079695 
C 214.37044 114.412077 214.183683 114.862948 214.183683 115.333009 
C 214.183683 115.803069 214.37044 116.25394 214.702822 116.586323 
C 215.035205 116.918706 215.486076 117.105463 215.956137 117.105463 
z
" style="fill:#ee7733;stroke:#ee7733;stroke-width:0.886227;"/>
    <path clip-path="url(#pd47f8105dc)" d="M 229.483409 124.417865 
C 229.95347 124.417865 230.404341 124.231108 230.736723 123.898725 
C 231.069106 123.566342 231.255863 123.115471 231.255863 122.645411 
C 231.255863 122.175351 231.069106 121.72448 230.736723 121.392097 
C 230.404341 121.059714 229.95347 120.872957 229.483409 120.872957 
C 229.013349 120.872957 228.562478 121.059714 228.230095 121.392097 
C 227.897712 121.72448 227.710955 122.175351 227.710955 122.645411 
C 227.710955 123.115471 227.897712 123.566342 228.230095 123.898725 
C 228.562478 124.231108 229.013349 124.417865 229.483409 124.417865 
z
" style="fill:#ee7733;stroke:#ee7733;stroke-width:0.886227;"/>
    <path clip-path="url(#pd47f8105dc)" d="M 243.010682 130.384142 
C 243.480742 130.384142 243.931613 130.197385 244.263996 129.865002 
C 244.596379 129.532619 244.783136 129.081748 244.783136 128.611688 
C 244.783136 128.141627 244.596379 127.690756 244.263996 127.358374 
C 243.931613 127.025991 243.480742 126.839234 243.010682 126.839234 
C 242.540622 126.839234 242.089751 127.025991 241.757368 127.358374 
C 241.424985 127.690756 241.238228 128.141627 241.238228 128.611688 
C 241.238228 129.081748 241.424985 129.532619 241.757368 129.865002 
C 242.089751 130.197385 242.540622 130.384142 243.010682 130.384142 
z
" style="fill:#ee7733;stroke:#ee7733;stroke-width:0.886227;"/>
    <path clip-path="url(#pd47f8105dc)" d="M 256.537955 141.781731 
C 257.008015 141.781731 257.458886 141.594974 257.791269 141.262591 
C 258.123652 140.930208 258.310408 140.479337 258.310408 140.009277 
C 258.310408 139.539217 258.123652 139.088346 257.791269 138.755963 
C 257.458886 138.42358 257.008015 138.236823 256.537955 138.236823 
C 256.067894 138.236823 255.617023 138.42358 255.28464 138.755963 
C 254.952258 139.088346 254.765501 139.539217 254.765501 140.009277 
C 254.765501 140.479337 254.952258 140.930208 255.28464 141.262591 
C 255.617023 141.594974 256.067894 141.781731 256.537955 141.781731 
z
" style="fill:#ee7733;stroke:#ee7733;stroke-width:0.886227;"/>
    <path clip-path="url(#pd47f8105dc)" d="M 270.065227 142.307905 
C 270.535288 142.307905 270.986159 142.121148 271.318541 141.788765 
C 271.650924 141.456382 271.837681 141.005511 271.837681 140.535451 
C 271.837681 140.065391 271.650924 139.61452 271.318541 139.282137 
C 270.986159 138.949754 270.535288 138.762997 270.065227 138.762997 
C 269.595167 138.762997 269.144296 138.949754 268.811913 139.282137 
C 268.47953 139.61452 268.292773 140.065391 268.292773 140.535451 
C 268.292773 141.005511 268.47953 141.456382 268.811913 141.788765 
C 269.144296 142.121148 269.595167 142.307905 270.065227 142.307905 
z
" style="fill:#ee7733;stroke:#ee7733;stroke-width:0.886227;"/>
    <path clip-path="url(#pd47f8105dc)" d="M 283.5925 151.538408 
C 284.06256 151.538408 284.513431 151.351651 284.845814 151.019268 
C 285.178197 150.686885 285.364954 150.236014 285.364954 149.765954 
C 285.364954 149.295894 285.178197 148.845023 284.845814 148.51264 
C 284.513431 148.180257 284.06256 147.9935 283.5925 147.9935 
C 283.12244 147.9935 282.671569 148.180257 282.339186 148.51264 
C 282.006803 148.845023 281.820046 149.295894 281.820046 149.765954 
C 281.820046 150.236014 282.006803 150.686885 282.339186 151.019268 
C 282.671569 151.351651 283.12244 151.538408 283.5925 151.538408 
z
" style="fill:#ee7733;stroke:#ee7733;stroke-width:0.886227;"/>
    <path clip-path="url(#pd47f8105dc)" d="M 297.119773 149.668392 
C 297.589833 149.668392 298.040704 149.481635 298.373087 149.149252 
C 298.70547 148.816869 298.892227 148.365998 298.892227 147.895938 
C 298.892227 147.425878 298.70547 146.975006 298.373087 146.642624 
C 298.040704 146.310241 297.589833 146.123484 297.119773 146.123484 
C 296.649712 146.123484 296.198841 146.310241 295.866459 146.642624 
C 295.534076 146.975006 295.347319 147.425878 295.347319 147.895938 
C 295.347319 148.365998 295.534076 148.816869 295.866459 149.149252 
C 296.198841 149.481635 296.649712 149.668392 297.119773 149.668392 
z
" style="fill:#ee7733;stroke:#ee7733;stroke-width:0.886227;"/>
    <path clip-path="url(#pd47f8105dc)" d="M 310.647045 156.029424 
C 311.117106 156.029424 311.567977 155.842667 311.90036 155.510285 
C 312.232742 155.177902 312.419499 154.727031 312.419499 154.25697 
C 312.419499 153.78691 312.232742 153.336039 311.90036 153.003656 
C 311.567977 152.671274 311.117106 152.484517 310.647045 152.484517 
C 310.176985 152.484517 309.726114 152.671274 309.393731 153.003656 
C 309.061348 153.336039 308.874592 153.78691 308.874592 154.25697 
C 308.874592 154.727031 309.061348 155.177902 309.393731 155.510285 
C 309.726114 155.842667 310.176985 156.029424 310.647045 156.029424 
z
" style="fill:#ee7733;stroke:#ee7733;stroke-width:0.886227;"/>
    <path clip-path="url(#pd47f8105dc)" d="M 324.174318 158.059642 
C 324.644378 158.059642 325.095249 157.872885 325.427632 157.540502 
C 325.760015 157.208119 325.946772 156.757248 325.946772 156.287188 
C 325.946772 155.817128 325.760015 155.366257 325.427632 155.033874 
C 325.095249 154.701491 324.644378 154.514734 324.174318 154.514734 
C 323.704258 154.514734 323.253387 154.701491 322.921004 155.033874 
C 322.588621 155.366257 322.401864 155.817128 322.401864 156.287188 
C 322.401864 156.757248 322.588621 157.208119 322.921004 157.540502 
C 323.253387 157.872885 323.704258 158.059642 324.174318 158.059642 
z
" style="fill:#ee7733;stroke:#ee7733;stroke-width:0.886227;"/>
    <path clip-path="url(#pd47f8105dc)" d="M 337.701591 162.644222 
C 338.171651 162.644222 338.622522 162.457465 338.954905 162.125083 
C 339.287288 161.7927 339.474045 161.341829 339.474045 160.871768 
C 339.474045 160.401708 339.287288 159.950837 338.954905 159.618454 
C 338.622522 159.286072 338.171651 159.099315 337.701591 159.099315 
C 337.23153 159.099315 336.780659 159.286072 336.448277 159.618454 
C 336.115894 159.950837 335.929137 160.401708 335.929137 160.871768 
C 335.929137 161.341829 336.115894 161.7927 336.448277 162.125083 
C 336.780659 162.457465 337.23153 162.644222 337.701591 162.644222 
z
" style="fill:#ee7733;stroke:#ee7733;stroke-width:0.886227;"/>
    <path clip-path="url(#pd47f8105dc)" d="M 351.228863 156.805521 
C 351.698924 156.805521 352.149795 156.618764 352.482178 156.286381 
C 352.81456 155.953998 353.001317 155.503127 353.001317 155.033067 
C 353.001317 154.563007 352.81456 154.112136 352.482178 153.779753 
C 352.149795 153.44737 351.698924 153.260613 351.228863 153.260613 
C 350.758803 153.260613 350.307932 153.44737 349.975549 153.779753 
C 349.643166 154.112136 349.45641 154.563007 349.45641 155.033067 
C 349.45641 155.503127 349.643166 155.953998 349.975549 156.286381 
C 350.307932 156.618764 350.758803 156.805521 351.228863 156.805521 
z
" style="fill:#ee7733;stroke:#ee7733;stroke-width:0.886227;"/>
    <path clip-path="url(#pd47f8105dc)" d="M 364.756136 155.596771 
C 365.226196 155.596771 365.677067 155.410014 366.00945 155.077631 
C 366.341833 154.745248 366.52859 154.294377 366.52859 153.824317 
C 366.52859 153.354257 366.341833 152.903386 366.00945 152.571003 
C 365.677067 152.23862 365.226196 152.051863 364.756136 152.051863 
C 364.286076 152.051863 363.835205 152.23862 363.502822 152.571003 
C 363.170439 152.903386 362.983682 153.354257 362.983682 153.824317 
C 362.983682 154.294377 363.170439 154.745248 363.502822 155.077631 
C 363.835205 155.410014 364.286076 155.596771 364.756136 155.596771 
z
" style="fill:#ee7733;stroke:#ee7733;stroke-width:0.886227;"/>
    <path clip-path="url(#pd47f8105dc)" d="M 378.283409 162.220393 
C 378.753469 162.220393 379.20434 162.033636 379.536723 161.701253 
C 379.869106 161.368871 380.055863 160.917999 380.055863 160.447939 
C 380.055863 159.977879 379.869106 159.527008 379.536723 159.194625 
C 379.20434 158.862242 378.753469 158.675485 378.283409 158.675485 
C 377.813349 158.675485 377.362477 158.862242 377.030095 159.194625 
C 376.697712 159.527008 376.510955 159.977879 376.510955 160.447939 
C 376.510955 160.917999 376.697712 161.368871 377.030095 161.701253 
C 377.362477 162.033636 377.813349 162.220393 378.283409 162.220393 
z
" style="fill:#ee7733;stroke:#ee7733;stroke-width:0.886227;"/>
    <path clip-path="url(#pd47f8105dc)" d="M 391.810681 167.769206 
C 392.280742 167.769206 392.731613 167.582449 393.063996 167.250066 
C 393.396378 166.917684 393.583135 166.466812 393.583135 165.996752 
C 393.583135 165.526692 393.396378 165.075821 393.063996 164.743438 
C 392.731613 164.411055 392.280742 164.224298 391.810681 164.224298 
C 391.340621 164.224298 390.88975 164.411055 390.557367 164.743438 
C 390.224985 165.075821 390.038228 165.526692 390.038228 165.996752 
C 390.038228 166.466812 390.224985 166.917684 390.557367 167.250066 
C 390.88975 167.582449 391.340621 167.769206 391.810681 167.769206 
z
" style="fill:#ee7733;stroke:#ee7733;stroke-width:0.886227;"/>
    <path clip-path="url(#pd47f8105dc)" d="M 405.337954 176.395656 
C 405.808014 176.395656 406.258885 176.208899 406.591268 175.876516 
C 406.923651 175.544134 407.110408 175.093262 407.110408 174.623202 
C 407.110408 174.153142 406.923651 173.702271 406.591268 173.369888 
C 406.258885 173.037505 405.808014 172.850748 405.337954 172.850748 
C 404.867894 172.850748 404.417023 173.037505 404.08464 173.369888 
C 403.752257 173.702271 403.5655 174.153142 403.5655 174.623202 
C 403.5655 175.093262 403.752257 175.544134 404.08464 175.876516 
C 404.417023 176.208899 404.867894 176.395656 405.337954 176.395656 
z
" style="fill:#ee7733;stroke:#ee7733;stroke-width:0.886227;"/>
    <path clip-path="url(#pd47f8105dc)" d="M 418.865227 171.203971 
C 419.335287 171.203971 419.786158 171.017215 420.118541 170.684832 
C 420.450924 170.352449 420.637681 169.901578 420.637681 169.431518 
C 420.637681 168.961457 420.450924 168.510586 420.118541 168.178204 
C 419.786158 167.845821 419.335287 167.659064 418.865227 167.659064 
C 418.395167 167.659064 417.944295 167.845821 417.611913 168.178204 
C 417.27953 168.510586 417.092773 168.961457 417.092773 169.431518 
C 417.092773 169.901578 417.27953 170.352449 417.611913 170.684832 
C 417.944295 171.017215 418.395167 171.203971 418.865227 171.203971 
z
" style="fill:#ee7733;stroke:#ee7733;stroke-width:0.886227;"/>
    <path clip-path="url(#pd47f8105dc)" d="M 432.3925 168.466708 
C 432.86256 168.466708 433.313431 168.279951 433.645814 167.947569 
C 433.978196 167.615186 434.164953 167.164315 434.164953 166.694254 
C 434.164953 166.224194 433.978196 165.773323 433.645814 165.44094 
C 433.313431 165.108558 432.86256 164.921801 432.3925 164.921801 
C 431.922439 164.921801 431.471568 165.108558 431.139185 165.44094 
C 430.806803 165.773323 430.620046 166.224194 430.620046 166.694254 
C 430.620046 167.164315 430.806803 167.615186 431.139185 167.947569 
C 431.471568 168.279951 431.922439 168.466708 432.3925 168.466708 
z
" style="fill:#ee7733;stroke:#ee7733;stroke-width:0.886227;"/>
    <path clip-path="url(#pd47f8105dc)" d="M 445.919772 174.594501 
C 446.389832 174.594501 446.840704 174.407744 447.173086 174.075361 
C 447.505469 173.742978 447.692226 173.292107 447.692226 172.822047 
C 447.692226 172.351987 447.505469 171.901116 447.173086 171.568733 
C 446.840704 171.23635 446.389832 171.049593 445.919772 171.049593 
C 445.449712 171.049593 444.998841 171.23635 444.666458 171.568733 
C 444.334075 171.901116 444.147318 172.351987 444.147318 172.822047 
C 444.147318 173.292107 444.334075 173.742978 444.666458 174.075361 
C 444.998841 174.407744 445.449712 174.594501 445.919772 174.594501 
z
" style="fill:#ee7733;stroke:#ee7733;stroke-width:0.886227;"/>
    <path clip-path="url(#pd47f8105dc)" d="M 459.447045 176.415026 
C 459.917105 176.415026 460.367976 176.228269 460.700359 175.895886 
C 461.032742 175.563503 461.219499 175.112632 461.219499 174.642572 
C 461.219499 174.172512 461.032742 173.721641 460.700359 173.389258 
C 460.367976 173.056875 459.917105 172.870118 459.447045 172.870118 
C 458.976985 172.870118 458.526114 173.056875 458.193731 173.389258 
C 457.861348 173.721641 457.674591 174.172512 457.674591 174.642572 
C 457.674591 175.112632 457.861348 175.563503 458.193731 175.895886 
C 458.526114 176.228269 458.976985 176.415026 459.447045 176.415026 
z
" style="fill:#ee7733;stroke:#ee7733;stroke-width:0.886227;"/>
    <path clip-path="url(#pd47f8105dc)" d="M 472.974318 181.603625 
C 473.444378 181.603625 473.895249 181.416868 474.227632 181.084485 
C 474.560014 180.752102 474.746771 180.301231 474.746771 179.831171 
C 474.746771 179.361111 474.560014 178.91024 474.227632 178.577857 
C 473.895249 178.245474 473.444378 178.058717 472.974318 178.058717 
C 472.504257 178.058717 472.053386 178.245474 471.721003 178.577857 
C 471.388621 178.91024 471.201864 179.361111 471.201864 179.831171 
C 471.201864 180.301231 471.388621 180.752102 471.721003 181.084485 
C 472.053386 181.416868 472.504257 181.603625 472.974318 181.603625 
z
" style="fill:#ee7733;stroke:#ee7733;stroke-width:0.886227;"/>
    <path clip-path="url(#pd47f8105dc)" d="M 486.50159 175.570777 
C 486.97165 175.570777 487.422522 175.38402 487.754904 175.051638 
C 488.087287 174.719255 488.274044 174.268384 488.274044 173.798324 
C 488.274044 173.328263 488.087287 172.877392 487.754904 172.545009 
C 487.422522 172.212627 486.97165 172.02587 486.50159 172.02587 
C 486.03153 172.02587 485.580659 172.212627 485.248276 172.545009 
C 484.915893 172.877392 484.729136 173.328263 484.729136 173.798324 
C 484.729136 174.268384 484.915893 174.719255 485.248276 175.051638 
C 485.580659 175.38402 486.03153 175.570777 486.50159 175.570777 
z
" style="fill:#ee7733;stroke:#ee7733;stroke-width:0.886227;"/>
   </g>
  </g>
 </g>
 <defs>
  <clipPath id="pd47f8105dc">
   <rect height="221.76" width="446.4" x="60.3925" y="7.2"/>
  </clipPath>
 </defs>
</svg>
