<?xml version="1.0" encoding="utf-8" standalone="no"?>
<!DOCTYPE svg PUBLIC "-//W3C//DTD SVG 1.1//EN"
  "http://www.w3.org/Graphics/SVG/1.1/DTD/svg11.dtd">
<!-- Created with matplotlib (https://matplotlib.org/) -->
<svg height="264.672687pt" version="1.1" viewBox="0 0 498.717 264.672687" width="498.717pt" xmlns="http://www.w3.org/2000/svg" xmlns:xlink="http://www.w3.org/1999/xlink">
 <defs>
  <style type="text/css">
*{stroke-linecap:butt;stroke-linejoin:round;}
  </style>
 </defs>
 <g id="figure_1">
  <g id="patch_1">
   <path d="M 0 264.672687 
L 498.717 264.672687 
L 498.717 0 
L 0 0 
z
" style="fill:#ffffff;stroke:#ffffff;stroke-linejoin:miter;"/>
  </g>
  <g id="axes_1">
   <g id="patch_2">
    <path d="M 45.117 228.96 
L 491.517 228.96 
L 491.517 7.2 
L 45.117 7.2 
z
" style="fill:#ffffff;stroke:#7f7f7f;stroke-linejoin:miter;"/>
   </g>
   <g id="matplotlib.axis_1">
    <g id="xtick_1">
     <g id="line2d_1">
      <path clip-path="url(#p366a996e92)" d="M 65.407909 228.96 
L 65.407909 7.2 
" style="fill:none;stroke:#e5e5e5;stroke-width:0.8;"/>
     </g>
     <g id="line2d_2">
      <path d="M 65.407909 228.96 
" style="fill:none;stroke:#000000;stroke-width:1.5;"/>
      <defs>
       <path d="M 0 0 
L 0 2.75 
" id="m7f8e374101" style="stroke:#000000;"/>
      </defs>
      <g>
       <use style="stroke:#000000;" x="65.407909" xlink:href="#m7f8e374101" y="228.96"/>
      </g>
     </g>
     <g id="text_1">
      <!-- 1 -->
      <defs>
       <path d="M 12.40625 8.296875 
L 28.515625 8.296875 
L 28.515625 63.921875 
L 10.984375 60.40625 
L 10.984375 69.390625 
L 28.421875 72.90625 
L 38.28125 72.90625 
L 38.28125 8.296875 
L 54.390625 8.296875 
L 54.390625 0 
L 12.40625 0 
z
" id="DejaVuSans-49"/>
      </defs>
      <g transform="translate(62.608409 240.596625)scale(0.088 -0.088)">
       <use xlink:href="#DejaVuSans-49"/>
      </g>
     </g>
    </g>
    <g id="xtick_2">
     <g id="line2d_3">
      <path clip-path="url(#p366a996e92)" d="M 200.680636 228.96 
L 200.680636 7.2 
" style="fill:none;stroke:#e5e5e5;stroke-width:0.8;"/>
     </g>
     <g id="line2d_4">
      <path d="M 200.680636 228.96 
" style="fill:none;stroke:#000000;stroke-width:1.5;"/>
      <g>
       <use style="stroke:#000000;" x="200.680636" xlink:href="#m7f8e374101" y="228.96"/>
      </g>
     </g>
     <g id="text_2">
      <!-- 2 -->
      <defs>
       <path d="M 19.1875 8.296875 
L 53.609375 8.296875 
L 53.609375 0 
L 7.328125 0 
L 7.328125 8.296875 
Q 12.9375 14.109375 22.625 23.890625 
Q 32.328125 33.6875 34.8125 36.53125 
Q 39.546875 41.84375 41.421875 45.53125 
Q 43.3125 49.21875 43.3125 52.78125 
Q 43.3125 58.59375 39.234375 62.25 
Q 35.15625 65.921875 28.609375 65.921875 
Q 23.96875 65.921875 18.8125 64.3125 
Q 13.671875 62.703125 7.8125 59.421875 
L 7.8125 69.390625 
Q 13.765625 71.78125 18.9375 73 
Q 24.125 74.21875 28.421875 74.21875 
Q 39.75 74.21875 46.484375 68.546875 
Q 53.21875 62.890625 53.21875 53.421875 
Q 53.21875 48.921875 51.53125 44.890625 
Q 49.859375 40.875 45.40625 35.40625 
Q 44.1875 33.984375 37.640625 27.21875 
Q 31.109375 20.453125 19.1875 8.296875 
z
" id="DejaVuSans-50"/>
      </defs>
      <g transform="translate(197.881136 240.596625)scale(0.088 -0.088)">
       <use xlink:href="#DejaVuSans-50"/>
      </g>
     </g>
    </g>
    <g id="xtick_3">
     <g id="line2d_5">
      <path clip-path="url(#p366a996e92)" d="M 335.953364 228.96 
L 335.953364 7.2 
" style="fill:none;stroke:#e5e5e5;stroke-width:0.8;"/>
     </g>
     <g id="line2d_6">
      <path d="M 335.953364 228.96 
" style="fill:none;stroke:#000000;stroke-width:1.5;"/>
      <g>
       <use style="stroke:#000000;" x="335.953364" xlink:href="#m7f8e374101" y="228.96"/>
      </g>
     </g>
     <g id="text_3">
      <!-- 3 -->
      <defs>
       <path d="M 40.578125 39.3125 
Q 47.65625 37.796875 51.625 33 
Q 55.609375 28.21875 55.609375 21.1875 
Q 55.609375 10.40625 48.1875 4.484375 
Q 40.765625 -1.421875 27.09375 -1.421875 
Q 22.515625 -1.421875 17.65625 -0.515625 
Q 12.796875 0.390625 7.625 2.203125 
L 7.625 11.71875 
Q 11.71875 9.328125 16.59375 8.109375 
Q 21.484375 6.890625 26.8125 6.890625 
Q 36.078125 6.890625 40.9375 10.546875 
Q 45.796875 14.203125 45.796875 21.1875 
Q 45.796875 27.640625 41.28125 31.265625 
Q 36.765625 34.90625 28.71875 34.90625 
L 20.21875 34.90625 
L 20.21875 43.015625 
L 29.109375 43.015625 
Q 36.375 43.015625 40.234375 45.921875 
Q 44.09375 48.828125 44.09375 54.296875 
Q 44.09375 59.90625 40.109375 62.90625 
Q 36.140625 65.921875 28.71875 65.921875 
Q 24.65625 65.921875 20.015625 65.03125 
Q 15.375 64.15625 9.8125 62.3125 
L 9.8125 71.09375 
Q 15.4375 72.65625 20.34375 73.4375 
Q 25.25 74.21875 29.59375 74.21875 
Q 40.828125 74.21875 47.359375 69.109375 
Q 53.90625 64.015625 53.90625 55.328125 
Q 53.90625 49.265625 50.4375 45.09375 
Q 46.96875 40.921875 40.578125 39.3125 
z
" id="DejaVuSans-51"/>
      </defs>
      <g transform="translate(333.153864 240.596625)scale(0.088 -0.088)">
       <use xlink:href="#DejaVuSans-51"/>
      </g>
     </g>
    </g>
    <g id="xtick_4">
     <g id="line2d_7">
      <path clip-path="url(#p366a996e92)" d="M 471.226091 228.96 
L 471.226091 7.2 
" style="fill:none;stroke:#e5e5e5;stroke-width:0.8;"/>
     </g>
     <g id="line2d_8">
      <path d="M 471.226091 228.96 
" style="fill:none;stroke:#000000;stroke-width:1.5;"/>
      <g>
       <use style="stroke:#000000;" x="471.226091" xlink:href="#m7f8e374101" y="228.96"/>
      </g>
     </g>
     <g id="text_4">
      <!-- 4 -->
      <defs>
       <path d="M 37.796875 64.3125 
L 12.890625 25.390625 
L 37.796875 25.390625 
z
M 35.203125 72.90625 
L 47.609375 72.90625 
L 47.609375 25.390625 
L 58.015625 25.390625 
L 58.015625 17.1875 
L 47.609375 17.1875 
L 47.609375 0 
L 37.796875 0 
L 37.796875 17.1875 
L 4.890625 17.1875 
L 4.890625 26.703125 
z
" id="DejaVuSans-52"/>
      </defs>
      <g transform="translate(468.426591 240.596625)scale(0.088 -0.088)">
       <use xlink:href="#DejaVuSans-52"/>
      </g>
     </g>
    </g>
    <g id="xtick_5">
     <g id="line2d_9">
      <path clip-path="url(#p366a996e92)" d="M 133.044273 228.96 
L 133.044273 7.2 
" style="fill:none;stroke:#fafafa;"/>
     </g>
     <g id="line2d_10">
      <path d="M 133.044273 228.96 
" style="fill:none;stroke:#000000;stroke-width:1.5;"/>
      <defs>
       <path d="M 0 0 
L 0 1.375 
" id="mc54b2a7202" style="stroke:#000000;"/>
      </defs>
      <g>
       <use style="stroke:#000000;" x="133.044273" xlink:href="#mc54b2a7202" y="228.96"/>
      </g>
     </g>
    </g>
    <g id="xtick_6">
     <g id="line2d_11">
      <path clip-path="url(#p366a996e92)" d="M 268.317 228.96 
L 268.317 7.2 
" style="fill:none;stroke:#fafafa;"/>
     </g>
     <g id="line2d_12">
      <path d="M 268.317 228.96 
" style="fill:none;stroke:#000000;stroke-width:1.5;"/>
      <g>
       <use style="stroke:#000000;" x="268.317" xlink:href="#mc54b2a7202" y="228.96"/>
      </g>
     </g>
    </g>
    <g id="xtick_7">
     <g id="line2d_13">
      <path clip-path="url(#p366a996e92)" d="M 403.589727 228.96 
L 403.589727 7.2 
" style="fill:none;stroke:#fafafa;"/>
     </g>
     <g id="line2d_14">
      <path d="M 403.589727 228.96 
" style="fill:none;stroke:#000000;stroke-width:1.5;"/>
      <g>
       <use style="stroke:#000000;" x="403.589727" xlink:href="#mc54b2a7202" y="228.96"/>
      </g>
     </g>
    </g>
    <g id="text_5">
     <!-- Resolution -->
     <defs>
      <path d="M 44.390625 34.1875 
Q 47.5625 33.109375 50.5625 29.59375 
Q 53.5625 26.078125 56.59375 19.921875 
L 66.609375 0 
L 56 0 
L 46.6875 18.703125 
Q 43.0625 26.03125 39.671875 28.421875 
Q 36.28125 30.8125 30.421875 30.8125 
L 19.671875 30.8125 
L 19.671875 0 
L 9.8125 0 
L 9.8125 72.90625 
L 32.078125 72.90625 
Q 44.578125 72.90625 50.734375 67.671875 
Q 56.890625 62.453125 56.890625 51.90625 
Q 56.890625 45.015625 53.6875 40.46875 
Q 50.484375 35.9375 44.390625 34.1875 
z
M 19.671875 64.796875 
L 19.671875 38.921875 
L 32.078125 38.921875 
Q 39.203125 38.921875 42.84375 42.21875 
Q 46.484375 45.515625 46.484375 51.90625 
Q 46.484375 58.296875 42.84375 61.546875 
Q 39.203125 64.796875 32.078125 64.796875 
z
" id="DejaVuSans-82"/>
      <path d="M 56.203125 29.59375 
L 56.203125 25.203125 
L 14.890625 25.203125 
Q 15.484375 15.921875 20.484375 11.0625 
Q 25.484375 6.203125 34.421875 6.203125 
Q 39.59375 6.203125 44.453125 7.46875 
Q 49.3125 8.734375 54.109375 11.28125 
L 54.109375 2.78125 
Q 49.265625 0.734375 44.1875 -0.34375 
Q 39.109375 -1.421875 33.890625 -1.421875 
Q 20.796875 -1.421875 13.15625 6.1875 
Q 5.515625 13.8125 5.515625 26.8125 
Q 5.515625 40.234375 12.765625 48.109375 
Q 20.015625 56 32.328125 56 
Q 43.359375 56 49.78125 48.890625 
Q 56.203125 41.796875 56.203125 29.59375 
z
M 47.21875 32.234375 
Q 47.125 39.59375 43.09375 43.984375 
Q 39.0625 48.390625 32.421875 48.390625 
Q 24.90625 48.390625 20.390625 44.140625 
Q 15.875 39.890625 15.1875 32.171875 
z
" id="DejaVuSans-101"/>
      <path d="M 44.28125 53.078125 
L 44.28125 44.578125 
Q 40.484375 46.53125 36.375 47.5 
Q 32.28125 48.484375 27.875 48.484375 
Q 21.1875 48.484375 17.84375 46.4375 
Q 14.5 44.390625 14.5 40.28125 
Q 14.5 37.15625 16.890625 35.375 
Q 19.28125 33.59375 26.515625 31.984375 
L 29.59375 31.296875 
Q 39.15625 29.25 43.1875 25.515625 
Q 47.21875 21.78125 47.21875 15.09375 
Q 47.21875 7.46875 41.1875 3.015625 
Q 35.15625 -1.421875 24.609375 -1.421875 
Q 20.21875 -1.421875 15.453125 -0.5625 
Q 10.6875 0.296875 5.421875 2 
L 5.421875 11.28125 
Q 10.40625 8.6875 15.234375 7.390625 
Q 20.0625 6.109375 24.8125 6.109375 
Q 31.15625 6.109375 34.5625 8.28125 
Q 37.984375 10.453125 37.984375 14.40625 
Q 37.984375 18.0625 35.515625 20.015625 
Q 33.0625 21.96875 24.703125 23.78125 
L 21.578125 24.515625 
Q 13.234375 26.265625 9.515625 29.90625 
Q 5.8125 33.546875 5.8125 39.890625 
Q 5.8125 47.609375 11.28125 51.796875 
Q 16.75 56 26.8125 56 
Q 31.78125 56 36.171875 55.265625 
Q 40.578125 54.546875 44.28125 53.078125 
z
" id="DejaVuSans-115"/>
      <path d="M 30.609375 48.390625 
Q 23.390625 48.390625 19.1875 42.75 
Q 14.984375 37.109375 14.984375 27.296875 
Q 14.984375 17.484375 19.15625 11.84375 
Q 23.34375 6.203125 30.609375 6.203125 
Q 37.796875 6.203125 41.984375 11.859375 
Q 46.1875 17.53125 46.1875 27.296875 
Q 46.1875 37.015625 41.984375 42.703125 
Q 37.796875 48.390625 30.609375 48.390625 
z
M 30.609375 56 
Q 42.328125 56 49.015625 48.375 
Q 55.71875 40.765625 55.71875 27.296875 
Q 55.71875 13.875 49.015625 6.21875 
Q 42.328125 -1.421875 30.609375 -1.421875 
Q 18.84375 -1.421875 12.171875 6.21875 
Q 5.515625 13.875 5.515625 27.296875 
Q 5.515625 40.765625 12.171875 48.375 
Q 18.84375 56 30.609375 56 
z
" id="DejaVuSans-111"/>
      <path d="M 9.421875 75.984375 
L 18.40625 75.984375 
L 18.40625 0 
L 9.421875 0 
z
" id="DejaVuSans-108"/>
      <path d="M 8.5 21.578125 
L 8.5 54.6875 
L 17.484375 54.6875 
L 17.484375 21.921875 
Q 17.484375 14.15625 20.5 10.265625 
Q 23.53125 6.390625 29.59375 6.390625 
Q 36.859375 6.390625 41.078125 11.03125 
Q 45.3125 15.671875 45.3125 23.6875 
L 45.3125 54.6875 
L 54.296875 54.6875 
L 54.296875 0 
L 45.3125 0 
L 45.3125 8.40625 
Q 42.046875 3.421875 37.71875 1 
Q 33.40625 -1.421875 27.6875 -1.421875 
Q 18.265625 -1.421875 13.375 4.4375 
Q 8.5 10.296875 8.5 21.578125 
z
M 31.109375 56 
z
" id="DejaVuSans-117"/>
      <path d="M 18.3125 70.21875 
L 18.3125 54.6875 
L 36.8125 54.6875 
L 36.8125 47.703125 
L 18.3125 47.703125 
L 18.3125 18.015625 
Q 18.3125 11.328125 20.140625 9.421875 
Q 21.96875 7.515625 27.59375 7.515625 
L 36.8125 7.515625 
L 36.8125 0 
L 27.59375 0 
Q 17.1875 0 13.234375 3.875 
Q 9.28125 7.765625 9.28125 18.015625 
L 9.28125 47.703125 
L 2.6875 47.703125 
L 2.6875 54.6875 
L 9.28125 54.6875 
L 9.28125 70.21875 
z
" id="DejaVuSans-116"/>
      <path d="M 9.421875 54.6875 
L 18.40625 54.6875 
L 18.40625 0 
L 9.421875 0 
z
M 9.421875 75.984375 
L 18.40625 75.984375 
L 18.40625 64.59375 
L 9.421875 64.59375 
z
" id="DejaVuSans-105"/>
      <path d="M 54.890625 33.015625 
L 54.890625 0 
L 45.90625 0 
L 45.90625 32.71875 
Q 45.90625 40.484375 42.875 44.328125 
Q 39.84375 48.1875 33.796875 48.1875 
Q 26.515625 48.1875 22.3125 43.546875 
Q 18.109375 38.921875 18.109375 30.90625 
L 18.109375 0 
L 9.078125 0 
L 9.078125 54.6875 
L 18.109375 54.6875 
L 18.109375 46.1875 
Q 21.34375 51.125 25.703125 53.5625 
Q 30.078125 56 35.796875 56 
Q 45.21875 56 50.046875 50.171875 
Q 54.890625 44.34375 54.890625 33.015625 
z
" id="DejaVuSans-110"/>
     </defs>
     <g transform="translate(232.135438 255.185031)scale(0.11 -0.11)">
      <use xlink:href="#DejaVuSans-82"/>
      <use x="69.419922" xlink:href="#DejaVuSans-101"/>
      <use x="130.943359" xlink:href="#DejaVuSans-115"/>
      <use x="183.042969" xlink:href="#DejaVuSans-111"/>
      <use x="244.224609" xlink:href="#DejaVuSans-108"/>
      <use x="272.007812" xlink:href="#DejaVuSans-117"/>
      <use x="335.386719" xlink:href="#DejaVuSans-116"/>
      <use x="374.595703" xlink:href="#DejaVuSans-105"/>
      <use x="402.378906" xlink:href="#DejaVuSans-111"/>
      <use x="463.560547" xlink:href="#DejaVuSans-110"/>
     </g>
    </g>
   </g>
   <g id="matplotlib.axis_2">
    <g id="ytick_1">
     <g id="line2d_15">
      <path clip-path="url(#p366a996e92)" d="M 45.117 218.88 
L 491.517 218.88 
" style="fill:none;stroke:#e5e5e5;stroke-width:0.8;"/>
     </g>
     <g id="line2d_16">
      <path d="M 45.117 218.88 
" style="fill:none;stroke:#000000;stroke-width:1.5;"/>
      <defs>
       <path d="M 0 0 
L -2.75 0 
" id="m2905c2417b" style="stroke:#000000;"/>
      </defs>
      <g>
       <use style="stroke:#000000;" x="45.117" xlink:href="#m2905c2417b" y="218.88"/>
      </g>
     </g>
     <g id="text_6">
      <!-- 0 -->
      <defs>
       <path d="M 31.78125 66.40625 
Q 24.171875 66.40625 20.328125 58.90625 
Q 16.5 51.421875 16.5 36.375 
Q 16.5 21.390625 20.328125 13.890625 
Q 24.171875 6.390625 31.78125 6.390625 
Q 39.453125 6.390625 43.28125 13.890625 
Q 47.125 21.390625 47.125 36.375 
Q 47.125 51.421875 43.28125 58.90625 
Q 39.453125 66.40625 31.78125 66.40625 
z
M 31.78125 74.21875 
Q 44.046875 74.21875 50.515625 64.515625 
Q 56.984375 54.828125 56.984375 36.375 
Q 56.984375 17.96875 50.515625 8.265625 
Q 44.046875 -1.421875 31.78125 -1.421875 
Q 19.53125 -1.421875 13.0625 8.265625 
Q 6.59375 17.96875 6.59375 36.375 
Q 6.59375 54.828125 13.0625 64.515625 
Q 19.53125 74.21875 31.78125 74.21875 
z
" id="DejaVuSans-48"/>
      </defs>
      <g transform="translate(34.568 221.30825)scale(0.088 -0.088)">
       <use xlink:href="#DejaVuSans-48"/>
      </g>
     </g>
    </g>
    <g id="ytick_2">
     <g id="line2d_17">
      <path clip-path="url(#p366a996e92)" d="M 45.117 168.48 
L 491.517 168.48 
" style="fill:none;stroke:#e5e5e5;stroke-width:0.8;"/>
     </g>
     <g id="line2d_18">
      <path d="M 45.117 168.48 
" style="fill:none;stroke:#000000;stroke-width:1.5;"/>
      <g>
       <use style="stroke:#000000;" x="45.117" xlink:href="#m2905c2417b" y="168.48"/>
      </g>
     </g>
     <g id="text_7">
      <!-- 25 -->
      <defs>
       <path d="M 10.796875 72.90625 
L 49.515625 72.90625 
L 49.515625 64.59375 
L 19.828125 64.59375 
L 19.828125 46.734375 
Q 21.96875 47.46875 24.109375 47.828125 
Q 26.265625 48.1875 28.421875 48.1875 
Q 40.625 48.1875 47.75 41.5 
Q 54.890625 34.8125 54.890625 23.390625 
Q 54.890625 11.625 47.5625 5.09375 
Q 40.234375 -1.421875 26.90625 -1.421875 
Q 22.3125 -1.421875 17.546875 -0.640625 
Q 12.796875 0.140625 7.71875 1.703125 
L 7.71875 11.625 
Q 12.109375 9.234375 16.796875 8.0625 
Q 21.484375 6.890625 26.703125 6.890625 
Q 35.15625 6.890625 40.078125 11.328125 
Q 45.015625 15.765625 45.015625 23.390625 
Q 45.015625 31 40.078125 35.4375 
Q 35.15625 39.890625 26.703125 39.890625 
Q 22.75 39.890625 18.8125 39.015625 
Q 14.890625 38.140625 10.796875 36.28125 
z
" id="DejaVuSans-53"/>
      </defs>
      <g transform="translate(28.969 170.90825)scale(0.088 -0.088)">
       <use xlink:href="#DejaVuSans-50"/>
       <use x="63.623047" xlink:href="#DejaVuSans-53"/>
      </g>
     </g>
    </g>
    <g id="ytick_3">
     <g id="line2d_19">
      <path clip-path="url(#p366a996e92)" d="M 45.117 118.08 
L 491.517 118.08 
" style="fill:none;stroke:#e5e5e5;stroke-width:0.8;"/>
     </g>
     <g id="line2d_20">
      <path d="M 45.117 118.08 
" style="fill:none;stroke:#000000;stroke-width:1.5;"/>
      <g>
       <use style="stroke:#000000;" x="45.117" xlink:href="#m2905c2417b" y="118.08"/>
      </g>
     </g>
     <g id="text_8">
      <!-- 50 -->
      <g transform="translate(28.969 120.50825)scale(0.088 -0.088)">
       <use xlink:href="#DejaVuSans-53"/>
       <use x="63.623047" xlink:href="#DejaVuSans-48"/>
      </g>
     </g>
    </g>
    <g id="ytick_4">
     <g id="line2d_21">
      <path clip-path="url(#p366a996e92)" d="M 45.117 67.68 
L 491.517 67.68 
" style="fill:none;stroke:#e5e5e5;stroke-width:0.8;"/>
     </g>
     <g id="line2d_22">
      <path d="M 45.117 67.68 
" style="fill:none;stroke:#000000;stroke-width:1.5;"/>
      <g>
       <use style="stroke:#000000;" x="45.117" xlink:href="#m2905c2417b" y="67.68"/>
      </g>
     </g>
     <g id="text_9">
      <!-- 75 -->
      <defs>
       <path d="M 8.203125 72.90625 
L 55.078125 72.90625 
L 55.078125 68.703125 
L 28.609375 0 
L 18.3125 0 
L 43.21875 64.59375 
L 8.203125 64.59375 
z
" id="DejaVuSans-55"/>
      </defs>
      <g transform="translate(28.969 70.10825)scale(0.088 -0.088)">
       <use xlink:href="#DejaVuSans-55"/>
       <use x="63.623047" xlink:href="#DejaVuSans-53"/>
      </g>
     </g>
    </g>
    <g id="ytick_5">
     <g id="line2d_23">
      <path clip-path="url(#p366a996e92)" d="M 45.117 17.28 
L 491.517 17.28 
" style="fill:none;stroke:#e5e5e5;stroke-width:0.8;"/>
     </g>
     <g id="line2d_24">
      <path d="M 45.117 17.28 
" style="fill:none;stroke:#000000;stroke-width:1.5;"/>
      <g>
       <use style="stroke:#000000;" x="45.117" xlink:href="#m2905c2417b" y="17.28"/>
      </g>
     </g>
     <g id="text_10">
      <!-- 100 -->
      <g transform="translate(23.37 19.70825)scale(0.088 -0.088)">
       <use xlink:href="#DejaVuSans-49"/>
       <use x="63.623047" xlink:href="#DejaVuSans-48"/>
       <use x="127.246094" xlink:href="#DejaVuSans-48"/>
      </g>
     </g>
    </g>
    <g id="ytick_6">
     <g id="line2d_25">
      <path clip-path="url(#p366a996e92)" d="M 45.117 193.68 
L 491.517 193.68 
" style="fill:none;stroke:#fafafa;"/>
     </g>
     <g id="line2d_26">
      <path d="M 45.117 193.68 
" style="fill:none;stroke:#000000;stroke-width:1.5;"/>
      <defs>
       <path d="M 0 0 
L -1.375 0 
" id="m9fdcf3275f" style="stroke:#000000;"/>
      </defs>
      <g>
       <use style="stroke:#000000;" x="45.117" xlink:href="#m9fdcf3275f" y="193.68"/>
      </g>
     </g>
    </g>
    <g id="ytick_7">
     <g id="line2d_27">
      <path clip-path="url(#p366a996e92)" d="M 45.117 143.28 
L 491.517 143.28 
" style="fill:none;stroke:#fafafa;"/>
     </g>
     <g id="line2d_28">
      <path d="M 45.117 143.28 
" style="fill:none;stroke:#000000;stroke-width:1.5;"/>
      <g>
       <use style="stroke:#000000;" x="45.117" xlink:href="#m9fdcf3275f" y="143.28"/>
      </g>
     </g>
    </g>
    <g id="ytick_8">
     <g id="line2d_29">
      <path clip-path="url(#p366a996e92)" d="M 45.117 92.88 
L 491.517 92.88 
" style="fill:none;stroke:#fafafa;"/>
     </g>
     <g id="line2d_30">
      <path d="M 45.117 92.88 
" style="fill:none;stroke:#000000;stroke-width:1.5;"/>
      <g>
       <use style="stroke:#000000;" x="45.117" xlink:href="#m9fdcf3275f" y="92.88"/>
      </g>
     </g>
    </g>
    <g id="ytick_9">
     <g id="line2d_31">
      <path clip-path="url(#p366a996e92)" d="M 45.117 42.48 
L 491.517 42.48 
" style="fill:none;stroke:#fafafa;"/>
     </g>
     <g id="line2d_32">
      <path d="M 45.117 42.48 
" style="fill:none;stroke:#000000;stroke-width:1.5;"/>
      <g>
       <use style="stroke:#000000;" x="45.117" xlink:href="#m9fdcf3275f" y="42.48"/>
      </g>
     </g>
    </g>
    <g id="text_11">
     <!-- $P_{Q1p}$ [%] -->
     <defs>
      <path d="M 16.890625 72.90625 
L 39.703125 72.90625 
Q 49.65625 72.90625 54.875 68.265625 
Q 60.109375 63.625 60.109375 54.6875 
Q 60.109375 42.671875 52.390625 35.984375 
Q 44.671875 29.296875 30.71875 29.296875 
L 18.3125 29.296875 
L 12.59375 0 
L 2.6875 0 
z
M 25.203125 64.796875 
L 19.921875 37.40625 
L 32.328125 37.40625 
Q 40.71875 37.40625 45.203125 41.703125 
Q 49.703125 46 49.703125 54 
Q 49.703125 59.125 46.65625 61.953125 
Q 43.609375 64.796875 38.09375 64.796875 
z
" id="DejaVuSans-Oblique-80"/>
      <path d="M 36.078125 -1.3125 
Q 35.546875 -1.375 34.953125 -1.390625 
Q 34.375 -1.421875 33.203125 -1.421875 
Q 19.53125 -1.421875 11.8125 6.421875 
Q 4.109375 14.265625 4.109375 28.078125 
Q 4.109375 36.234375 7.0625 44.4375 
Q 10.015625 52.640625 15.28125 59.1875 
Q 21.390625 66.703125 29.03125 70.453125 
Q 36.671875 74.21875 45.90625 74.21875 
Q 59.28125 74.21875 66.984375 66.328125 
Q 74.703125 58.453125 74.703125 44.828125 
Q 74.703125 30.125 66.640625 17.921875 
Q 58.59375 5.71875 45.609375 0.6875 
L 55.515625 -12.890625 
L 44.484375 -12.890625 
z
M 45.609375 66.21875 
Q 37.5 66.21875 31.296875 62.28125 
Q 25.09375 58.34375 20.515625 50.296875 
Q 17.578125 45.171875 16.03125 39.40625 
Q 14.5 33.640625 14.5 27.78125 
Q 14.5 17.625 19.359375 12.109375 
Q 24.21875 6.59375 33.109375 6.59375 
Q 41.109375 6.59375 47.375 10.5625 
Q 53.65625 14.546875 58.109375 22.40625 
Q 61.078125 27.6875 62.640625 33.46875 
Q 64.203125 39.265625 64.203125 45.015625 
Q 64.203125 55.125 59.3125 60.671875 
Q 54.4375 66.21875 45.609375 66.21875 
z
" id="DejaVuSans-Oblique-81"/>
      <path d="M 49.609375 33.6875 
Q 49.609375 40.875 46.484375 44.671875 
Q 43.359375 48.484375 37.5 48.484375 
Q 33.5 48.484375 29.859375 46.4375 
Q 26.21875 44.390625 23.390625 40.484375 
Q 20.609375 36.625 18.9375 31.15625 
Q 17.28125 25.6875 17.28125 20.3125 
Q 17.28125 13.484375 20.40625 9.796875 
Q 23.53125 6.109375 29.296875 6.109375 
Q 33.546875 6.109375 37.1875 8.109375 
Q 40.828125 10.109375 43.40625 13.921875 
Q 46.1875 17.921875 47.890625 23.34375 
Q 49.609375 28.765625 49.609375 33.6875 
z
M 21.78125 46.390625 
Q 25.390625 51.125 30.296875 53.5625 
Q 35.203125 56 41.21875 56 
Q 49.609375 56 54.25 50.5 
Q 58.890625 45.015625 58.890625 35.109375 
Q 58.890625 27 56 19.65625 
Q 53.125 12.3125 47.703125 6.5 
Q 44.09375 2.640625 39.546875 0.609375 
Q 35.015625 -1.421875 29.984375 -1.421875 
Q 24.171875 -1.421875 20.21875 1 
Q 16.265625 3.421875 14.3125 8.203125 
L 8.6875 -20.796875 
L -0.296875 -20.796875 
L 14.40625 54.6875 
L 23.390625 54.6875 
z
" id="DejaVuSans-Oblique-112"/>
      <path id="DejaVuSans-32"/>
      <path d="M 8.59375 75.984375 
L 29.296875 75.984375 
L 29.296875 69 
L 17.578125 69 
L 17.578125 -6.203125 
L 29.296875 -6.203125 
L 29.296875 -13.1875 
L 8.59375 -13.1875 
z
" id="DejaVuSans-91"/>
      <path d="M 72.703125 32.078125 
Q 68.453125 32.078125 66.03125 28.46875 
Q 63.625 24.859375 63.625 18.40625 
Q 63.625 12.0625 66.03125 8.421875 
Q 68.453125 4.78125 72.703125 4.78125 
Q 76.859375 4.78125 79.265625 8.421875 
Q 81.6875 12.0625 81.6875 18.40625 
Q 81.6875 24.8125 79.265625 28.4375 
Q 76.859375 32.078125 72.703125 32.078125 
z
M 72.703125 38.28125 
Q 80.421875 38.28125 84.953125 32.90625 
Q 89.5 27.546875 89.5 18.40625 
Q 89.5 9.28125 84.9375 3.921875 
Q 80.375 -1.421875 72.703125 -1.421875 
Q 64.890625 -1.421875 60.34375 3.921875 
Q 55.8125 9.28125 55.8125 18.40625 
Q 55.8125 27.59375 60.375 32.9375 
Q 64.9375 38.28125 72.703125 38.28125 
z
M 22.3125 68.015625 
Q 18.109375 68.015625 15.6875 64.375 
Q 13.28125 60.75 13.28125 54.390625 
Q 13.28125 47.953125 15.671875 44.328125 
Q 18.0625 40.71875 22.3125 40.71875 
Q 26.5625 40.71875 28.96875 44.328125 
Q 31.390625 47.953125 31.390625 54.390625 
Q 31.390625 60.6875 28.953125 64.34375 
Q 26.515625 68.015625 22.3125 68.015625 
z
M 66.40625 74.21875 
L 74.21875 74.21875 
L 28.609375 -1.421875 
L 20.796875 -1.421875 
z
M 22.3125 74.21875 
Q 30.03125 74.21875 34.609375 68.875 
Q 39.203125 63.53125 39.203125 54.390625 
Q 39.203125 45.171875 34.640625 39.84375 
Q 30.078125 34.515625 22.3125 34.515625 
Q 14.546875 34.515625 10.03125 39.859375 
Q 5.515625 45.21875 5.515625 54.390625 
Q 5.515625 63.484375 10.046875 68.84375 
Q 14.59375 74.21875 22.3125 74.21875 
z
" id="DejaVuSans-37"/>
      <path d="M 30.421875 75.984375 
L 30.421875 -13.1875 
L 9.71875 -13.1875 
L 9.71875 -6.203125 
L 21.390625 -6.203125 
L 21.390625 69 
L 9.71875 69 
L 9.71875 75.984375 
z
" id="DejaVuSans-93"/>
     </defs>
     <g transform="translate(15.56 139.3)rotate(-90)scale(0.11 -0.11)">
      <use transform="translate(0 0.015625)" xlink:href="#DejaVuSans-Oblique-80"/>
      <use transform="translate(60.302734 -16.390625)scale(0.7)" xlink:href="#DejaVuSans-Oblique-81"/>
      <use transform="translate(115.400391 -16.390625)scale(0.7)" xlink:href="#DejaVuSans-49"/>
      <use transform="translate(159.936523 -16.390625)scale(0.7)" xlink:href="#DejaVuSans-Oblique-112"/>
      <use transform="translate(207.104492 0.015625)" xlink:href="#DejaVuSans-32"/>
      <use transform="translate(238.891602 0.015625)" xlink:href="#DejaVuSans-91"/>
      <use transform="translate(277.905273 0.015625)" xlink:href="#DejaVuSans-37"/>
      <use transform="translate(372.924805 0.015625)" xlink:href="#DejaVuSans-93"/>
     </g>
    </g>
   </g>
   <g id="PathCollection_1">
    <path clip-path="url(#p366a996e92)" d="M 65.407909 54.552351 
C 65.877969 54.552351 66.32884 54.365594 66.661223 54.033211 
C 66.993606 53.700828 67.180363 53.249957 67.180363 52.779897 
C 67.180363 52.309837 66.993606 51.858966 66.661223 51.526583 
C 66.32884 51.1942 65.877969 51.007443 65.407909 51.007443 
C 64.937849 51.007443 64.486978 51.1942 64.154595 51.526583 
C 63.822212 51.858966 63.635455 52.309837 63.635455 52.779897 
C 63.635455 53.249957 63.822212 53.700828 64.154595 54.033211 
C 64.486978 54.365594 64.937849 54.552351 65.407909 54.552351 
z
" style="stroke:#000000;stroke-width:0.886227;"/>
    <path clip-path="url(#p366a996e92)" d="M 78.935182 56.025465 
C 79.405242 56.025465 79.856113 55.838708 80.188496 55.506326 
C 80.520879 55.173943 80.707636 54.723072 80.707636 54.253012 
C 80.707636 53.782951 80.520879 53.33208 80.188496 52.999697 
C 79.856113 52.667315 79.405242 52.480558 78.935182 52.480558 
C 78.465122 52.480558 78.01425 52.667315 77.681868 52.999697 
C 77.349485 53.33208 77.162728 53.782951 77.162728 54.253012 
C 77.162728 54.723072 77.349485 55.173943 77.681868 55.506326 
C 78.01425 55.838708 78.465122 56.025465 78.935182 56.025465 
z
" style="stroke:#000000;stroke-width:0.886227;"/>
    <path clip-path="url(#p366a996e92)" d="M 92.462455 62.755847 
C 92.932515 62.755847 93.383386 62.56909 93.715769 62.236707 
C 94.048151 61.904325 94.234908 61.453454 94.234908 60.983393 
C 94.234908 60.513333 94.048151 60.062462 93.715769 59.730079 
C 93.383386 59.397696 92.932515 59.210939 92.462455 59.210939 
C 91.992394 59.210939 91.541523 59.397696 91.20914 59.730079 
C 90.876758 60.062462 90.690001 60.513333 90.690001 60.983393 
C 90.690001 61.453454 90.876758 61.904325 91.20914 62.236707 
C 91.541523 62.56909 91.992394 62.755847 92.462455 62.755847 
z
" style="stroke:#000000;stroke-width:0.886227;"/>
    <path clip-path="url(#p366a996e92)" d="M 105.989727 63.251292 
C 106.459788 63.251292 106.910659 63.064535 107.243041 62.732152 
C 107.575424 62.399769 107.762181 61.948898 107.762181 61.478838 
C 107.762181 61.008777 107.575424 60.557906 107.243041 60.225524 
C 106.910659 59.893141 106.459788 59.706384 105.989727 59.706384 
C 105.519667 59.706384 105.068796 59.893141 104.736413 60.225524 
C 104.40403 60.557906 104.217273 61.008777 104.217273 61.478838 
C 104.217273 61.948898 104.40403 62.399769 104.736413 62.732152 
C 105.068796 63.064535 105.519667 63.251292 105.989727 63.251292 
z
" style="stroke:#000000;stroke-width:0.886227;"/>
    <path clip-path="url(#p366a996e92)" d="M 119.517 71.649893 
C 119.98706 71.649893 120.437931 71.463136 120.770314 71.130753 
C 121.102697 70.798371 121.289454 70.3475 121.289454 69.877439 
C 121.289454 69.407379 121.102697 68.956508 120.770314 68.624125 
C 120.437931 68.291742 119.98706 68.104985 119.517 68.104985 
C 119.04694 68.104985 118.596069 68.291742 118.263686 68.624125 
C 117.931303 68.956508 117.744546 69.407379 117.744546 69.877439 
C 117.744546 70.3475 117.931303 70.798371 118.263686 71.130753 
C 118.596069 71.463136 119.04694 71.649893 119.517 71.649893 
z
" style="stroke:#000000;stroke-width:0.886227;"/>
    <path clip-path="url(#p366a996e92)" d="M 133.044273 78.798576 
C 133.514333 78.798576 133.965204 78.611819 134.297587 78.279436 
C 134.62997 77.947053 134.816727 77.496182 134.816727 77.026122 
C 134.816727 76.556061 134.62997 76.10519 134.297587 75.772808 
C 133.965204 75.440425 133.514333 75.253668 133.044273 75.253668 
C 132.574212 75.253668 132.123341 75.440425 131.790959 75.772808 
C 131.458576 76.10519 131.271819 76.556061 131.271819 77.026122 
C 131.271819 77.496182 131.458576 77.947053 131.790959 78.279436 
C 132.123341 78.611819 132.574212 78.798576 133.044273 78.798576 
z
" style="stroke:#000000;stroke-width:0.886227;"/>
    <path clip-path="url(#p366a996e92)" d="M 146.571545 83.802359 
C 147.041606 83.802359 147.492477 83.615602 147.82486 83.283219 
C 148.157242 82.950836 148.343999 82.499965 148.343999 82.029905 
C 148.343999 81.559844 148.157242 81.108973 147.82486 80.776591 
C 147.492477 80.444208 147.041606 80.257451 146.571545 80.257451 
C 146.101485 80.257451 145.650614 80.444208 145.318231 80.776591 
C 144.985849 81.108973 144.799092 81.559844 144.799092 82.029905 
C 144.799092 82.499965 144.985849 82.950836 145.318231 83.283219 
C 145.650614 83.615602 146.101485 83.802359 146.571545 83.802359 
z
" style="stroke:#000000;stroke-width:0.886227;"/>
    <path clip-path="url(#p366a996e92)" d="M 160.098818 92.356477 
C 160.568878 92.356477 161.01975 92.16972 161.352132 91.837337 
C 161.684515 91.504954 161.871272 91.054083 161.871272 90.584023 
C 161.871272 90.113963 161.684515 89.663092 161.352132 89.330709 
C 161.01975 88.998326 160.568878 88.811569 160.098818 88.811569 
C 159.628758 88.811569 159.177887 88.998326 158.845504 89.330709 
C 158.513121 89.663092 158.326364 90.113963 158.326364 90.584023 
C 158.326364 91.054083 158.513121 91.504954 158.845504 91.837337 
C 159.177887 92.16972 159.628758 92.356477 160.098818 92.356477 
z
" style="stroke:#000000;stroke-width:0.886227;"/>
    <path clip-path="url(#p366a996e92)" d="M 173.626091 95.585618 
C 174.096151 95.585618 174.547022 95.398861 174.879405 95.066479 
C 175.211788 94.734096 175.398545 94.283225 175.398545 93.813164 
C 175.398545 93.343104 175.211788 92.892233 174.879405 92.55985 
C 174.547022 92.227467 174.096151 92.040711 173.626091 92.040711 
C 173.156031 92.040711 172.70516 92.227467 172.372777 92.55985 
C 172.040394 92.892233 171.853637 93.343104 171.853637 93.813164 
C 171.853637 94.283225 172.040394 94.734096 172.372777 95.066479 
C 172.70516 95.398861 173.156031 95.585618 173.626091 95.585618 
z
" style="stroke:#000000;stroke-width:0.886227;"/>
    <path clip-path="url(#p366a996e92)" d="M 187.153364 107.624138 
C 187.623424 107.624138 188.074295 107.437381 188.406678 107.104998 
C 188.739061 106.772615 188.925817 106.321744 188.925817 105.851684 
C 188.925817 105.381624 188.739061 104.930753 188.406678 104.59837 
C 188.074295 104.265987 187.623424 104.07923 187.153364 104.07923 
C 186.683303 104.07923 186.232432 104.265987 185.900049 104.59837 
C 185.567667 104.930753 185.38091 105.381624 185.38091 105.851684 
C 185.38091 106.321744 185.567667 106.772615 185.900049 107.104998 
C 186.232432 107.437381 186.683303 107.624138 187.153364 107.624138 
z
" style="stroke:#000000;stroke-width:0.886227;"/>
    <path clip-path="url(#p366a996e92)" d="M 200.680636 117.046576 
C 201.150697 117.046576 201.601568 116.859819 201.933951 116.527436 
C 202.266333 116.195053 202.45309 115.744182 202.45309 115.274122 
C 202.45309 114.804061 202.266333 114.35319 201.933951 114.020808 
C 201.601568 113.688425 201.150697 113.501668 200.680636 113.501668 
C 200.210576 113.501668 199.759705 113.688425 199.427322 114.020808 
C 199.094939 114.35319 198.908183 114.804061 198.908183 115.274122 
C 198.908183 115.744182 199.094939 116.195053 199.427322 116.527436 
C 199.759705 116.859819 200.210576 117.046576 200.680636 117.046576 
z
" style="stroke:#000000;stroke-width:0.886227;"/>
    <path clip-path="url(#p366a996e92)" d="M 214.207909 124.363233 
C 214.677969 124.363233 215.12884 124.176476 215.461223 123.844093 
C 215.793606 123.51171 215.980363 123.060839 215.980363 122.590779 
C 215.980363 122.120719 215.793606 121.669848 215.461223 121.337465 
C 215.12884 121.005082 214.677969 120.818325 214.207909 120.818325 
C 213.737849 120.818325 213.286978 121.005082 212.954595 121.337465 
C 212.622212 121.669848 212.435455 122.120719 212.435455 122.590779 
C 212.435455 123.060839 212.622212 123.51171 212.954595 123.844093 
C 213.286978 124.176476 213.737849 124.363233 214.207909 124.363233 
z
" style="stroke:#000000;stroke-width:0.886227;"/>
    <path clip-path="url(#p366a996e92)" d="M 227.735182 130.362046 
C 228.205242 130.362046 228.656113 130.17529 228.988496 129.842907 
C 229.320879 129.510524 229.507636 129.059653 229.507636 128.589593 
C 229.507636 128.119532 229.320879 127.668661 228.988496 127.336278 
C 228.656113 127.003896 228.205242 126.817139 227.735182 126.817139 
C 227.265122 126.817139 226.81425 127.003896 226.481868 127.336278 
C 226.149485 127.668661 225.962728 128.119532 225.962728 128.589593 
C 225.962728 129.059653 226.149485 129.510524 226.481868 129.842907 
C 226.81425 130.17529 227.265122 130.362046 227.735182 130.362046 
z
" style="stroke:#000000;stroke-width:0.886227;"/>
    <path clip-path="url(#p366a996e92)" d="M 241.262455 141.754737 
C 241.732515 141.754737 242.183386 141.56798 242.515769 141.235597 
C 242.848151 140.903214 243.034908 140.452343 243.034908 139.982283 
C 243.034908 139.512223 242.848151 139.061352 242.515769 138.728969 
C 242.183386 138.396586 241.732515 138.209829 241.262455 138.209829 
C 240.792394 138.209829 240.341523 138.396586 240.00914 138.728969 
C 239.676758 139.061352 239.490001 139.512223 239.490001 139.982283 
C 239.490001 140.452343 239.676758 140.903214 240.00914 141.235597 
C 240.341523 141.56798 240.792394 141.754737 241.262455 141.754737 
z
" style="stroke:#000000;stroke-width:0.886227;"/>
    <path clip-path="url(#p366a996e92)" d="M 254.789727 142.269336 
C 255.259788 142.269336 255.710659 142.082579 256.043041 141.750197 
C 256.375424 141.417814 256.562181 140.966943 256.562181 140.496882 
C 256.562181 140.026822 256.375424 139.575951 256.043041 139.243568 
C 255.710659 138.911185 255.259788 138.724429 254.789727 138.724429 
C 254.319667 138.724429 253.868796 138.911185 253.536413 139.243568 
C 253.20403 139.575951 253.017273 140.026822 253.017273 140.496882 
C 253.017273 140.966943 253.20403 141.417814 253.536413 141.750197 
C 253.868796 142.082579 254.319667 142.269336 254.789727 142.269336 
z
" style="stroke:#000000;stroke-width:0.886227;"/>
    <path clip-path="url(#p366a996e92)" d="M 268.317 151.553147 
C 268.78706 151.553147 269.237931 151.36639 269.570314 151.034007 
C 269.902697 150.701625 270.089454 150.250753 270.089454 149.780693 
C 270.089454 149.310633 269.902697 148.859762 269.570314 148.527379 
C 269.237931 148.194996 268.78706 148.008239 268.317 148.008239 
C 267.84694 148.008239 267.396069 148.194996 267.063686 148.527379 
C 266.731303 148.859762 266.544546 149.310633 266.544546 149.780693 
C 266.544546 150.250753 266.731303 150.701625 267.063686 151.034007 
C 267.396069 151.36639 267.84694 151.553147 268.317 151.553147 
z
" style="stroke:#000000;stroke-width:0.886227;"/>
    <path clip-path="url(#p366a996e92)" d="M 281.844273 149.54646 
C 282.314333 149.54646 282.765204 149.359703 283.097587 149.02732 
C 283.42997 148.694938 283.616727 148.244067 283.616727 147.774006 
C 283.616727 147.303946 283.42997 146.853075 283.097587 146.520692 
C 282.765204 146.188309 282.314333 146.001552 281.844273 146.001552 
C 281.374212 146.001552 280.923341 146.188309 280.590959 146.520692 
C 280.258576 146.853075 280.071819 147.303946 280.071819 147.774006 
C 280.071819 148.244067 280.258576 148.694938 280.590959 149.02732 
C 280.923341 149.359703 281.374212 149.54646 281.844273 149.54646 
z
" style="stroke:#000000;stroke-width:0.886227;"/>
    <path clip-path="url(#p366a996e92)" d="M 295.371545 156.089954 
C 295.841606 156.089954 296.292477 155.903197 296.62486 155.570814 
C 296.957242 155.238431 297.143999 154.78756 297.143999 154.3175 
C 297.143999 153.847439 296.957242 153.396568 296.62486 153.064186 
C 296.292477 152.731803 295.841606 152.545046 295.371545 152.545046 
C 294.901485 152.545046 294.450614 152.731803 294.118231 153.064186 
C 293.785849 153.396568 293.599092 153.847439 293.599092 154.3175 
C 293.599092 154.78756 293.785849 155.238431 294.118231 155.570814 
C 294.450614 155.903197 294.901485 156.089954 295.371545 156.089954 
z
" style="stroke:#000000;stroke-width:0.886227;"/>
    <path clip-path="url(#p366a996e92)" d="M 308.898818 158.106817 
C 309.368878 158.106817 309.81975 157.92006 310.152132 157.587677 
C 310.484515 157.255294 310.671272 156.804423 310.671272 156.334363 
C 310.671272 155.864303 310.484515 155.413432 310.152132 155.081049 
C 309.81975 154.748666 309.368878 154.561909 308.898818 154.561909 
C 308.428758 154.561909 307.977887 154.748666 307.645504 155.081049 
C 307.313121 155.413432 307.126364 155.864303 307.126364 156.334363 
C 307.126364 156.804423 307.313121 157.255294 307.645504 157.587677 
C 307.977887 157.92006 308.428758 158.106817 308.898818 158.106817 
z
" style="stroke:#000000;stroke-width:0.886227;"/>
    <path clip-path="url(#p366a996e92)" d="M 322.426091 162.5783 
C 322.896151 162.5783 323.347022 162.391543 323.679405 162.05916 
C 324.011788 161.726777 324.198545 161.275906 324.198545 160.805846 
C 324.198545 160.335786 324.011788 159.884915 323.679405 159.552532 
C 323.347022 159.220149 322.896151 159.033392 322.426091 159.033392 
C 321.956031 159.033392 321.50516 159.220149 321.172777 159.552532 
C 320.840394 159.884915 320.653637 160.335786 320.653637 160.805846 
C 320.653637 161.275906 320.840394 161.726777 321.172777 162.05916 
C 321.50516 162.391543 321.956031 162.5783 322.426091 162.5783 
z
" style="stroke:#000000;stroke-width:0.886227;"/>
    <path clip-path="url(#p366a996e92)" d="M 335.953364 156.710672 
C 336.423424 156.710672 336.874295 156.523916 337.206678 156.191533 
C 337.539061 155.85915 337.725817 155.408279 337.725817 154.938219 
C 337.725817 154.468158 337.539061 154.017287 337.206678 153.684904 
C 336.874295 153.352522 336.423424 153.165765 335.953364 153.165765 
C 335.483303 153.165765 335.032432 153.352522 334.700049 153.684904 
C 334.367667 154.017287 334.18091 154.468158 334.18091 154.938219 
C 334.18091 155.408279 334.367667 155.85915 334.700049 156.191533 
C 335.032432 156.523916 335.483303 156.710672 335.953364 156.710672 
z
" style="stroke:#000000;stroke-width:0.886227;"/>
    <path clip-path="url(#p366a996e92)" d="M 349.480636 155.847195 
C 349.950697 155.847195 350.401568 155.660439 350.733951 155.328056 
C 351.066333 154.995673 351.25309 154.544802 351.25309 154.074742 
C 351.25309 153.604681 351.066333 153.15381 350.733951 152.821427 
C 350.401568 152.489045 349.950697 152.302288 349.480636 152.302288 
C 349.010576 152.302288 348.559705 152.489045 348.227322 152.821427 
C 347.894939 153.15381 347.708183 153.604681 347.708183 154.074742 
C 347.708183 154.544802 347.894939 154.995673 348.227322 155.328056 
C 348.559705 155.660439 349.010576 155.847195 349.480636 155.847195 
z
" style="stroke:#000000;stroke-width:0.886227;"/>
    <path clip-path="url(#p366a996e92)" d="M 363.007909 162.223628 
C 363.477969 162.223628 363.92884 162.036871 364.261223 161.704488 
C 364.593606 161.372106 364.780363 160.921234 364.780363 160.451174 
C 364.780363 159.981114 364.593606 159.530243 364.261223 159.19786 
C 363.92884 158.865477 363.477969 158.67872 363.007909 158.67872 
C 362.537849 158.67872 362.086978 158.865477 361.754595 159.19786 
C 361.422212 159.530243 361.235455 159.981114 361.235455 160.451174 
C 361.235455 160.921234 361.422212 161.372106 361.754595 161.704488 
C 362.086978 162.036871 362.537849 162.223628 363.007909 162.223628 
z
" style="stroke:#000000;stroke-width:0.886227;"/>
    <path clip-path="url(#p366a996e92)" d="M 376.535182 168.058671 
C 377.005242 168.058671 377.456113 167.871914 377.788496 167.539532 
C 378.120879 167.207149 378.307636 166.756278 378.307636 166.286217 
C 378.307636 165.816157 378.120879 165.365286 377.788496 165.032903 
C 377.456113 164.70052 377.005242 164.513764 376.535182 164.513764 
C 376.065122 164.513764 375.61425 164.70052 375.281868 165.032903 
C 374.949485 165.365286 374.762728 165.816157 374.762728 166.286217 
C 374.762728 166.756278 374.949485 167.207149 375.281868 167.539532 
C 375.61425 167.871914 376.065122 168.058671 376.535182 168.058671 
z
" style="stroke:#000000;stroke-width:0.886227;"/>
    <path clip-path="url(#p366a996e92)" d="M 390.062455 176.394868 
C 390.532515 176.394868 390.983386 176.208111 391.315769 175.875728 
C 391.648151 175.543346 391.834908 175.092474 391.834908 174.622414 
C 391.834908 174.152354 391.648151 173.701483 391.315769 173.3691 
C 390.983386 173.036717 390.532515 172.84996 390.062455 172.84996 
C 389.592394 172.84996 389.141523 173.036717 388.80914 173.3691 
C 388.476758 173.701483 388.290001 174.152354 388.290001 174.622414 
C 388.290001 175.092474 388.476758 175.543346 388.80914 175.875728 
C 389.141523 176.208111 389.592394 176.394868 390.062455 176.394868 
z
" style="stroke:#000000;stroke-width:0.886227;"/>
    <path clip-path="url(#p366a996e92)" d="M 403.589727 171.362511 
C 404.059788 171.362511 404.510659 171.175754 404.843041 170.843371 
C 405.175424 170.510988 405.362181 170.060117 405.362181 169.590057 
C 405.362181 169.119997 405.175424 168.669126 404.843041 168.336743 
C 404.510659 168.00436 404.059788 167.817603 403.589727 167.817603 
C 403.119667 167.817603 402.668796 168.00436 402.336413 168.336743 
C 402.00403 168.669126 401.817273 169.119997 401.817273 169.590057 
C 401.817273 170.060117 402.00403 170.510988 402.336413 170.843371 
C 402.668796 171.175754 403.119667 171.362511 403.589727 171.362511 
z
" style="stroke:#000000;stroke-width:0.886227;"/>
    <path clip-path="url(#p366a996e92)" d="M 417.117 168.474085 
C 417.58706 168.474085 418.037931 168.287328 418.370314 167.954945 
C 418.702697 167.622562 418.889454 167.171691 418.889454 166.701631 
C 418.889454 166.23157 418.702697 165.780699 418.370314 165.448317 
C 418.037931 165.115934 417.58706 164.929177 417.117 164.929177 
C 416.64694 164.929177 416.196069 165.115934 415.863686 165.448317 
C 415.531303 165.780699 415.344546 166.23157 415.344546 166.701631 
C 415.344546 167.171691 415.531303 167.622562 415.863686 167.954945 
C 416.196069 168.287328 416.64694 168.474085 417.117 168.474085 
z
" style="stroke:#000000;stroke-width:0.886227;"/>
    <path clip-path="url(#p366a996e92)" d="M 430.644273 174.272751 
C 431.114333 174.272751 431.565204 174.085994 431.897587 173.753611 
C 432.22997 173.421228 432.416727 172.970357 432.416727 172.500297 
C 432.416727 172.030237 432.22997 171.579365 431.897587 171.246983 
C 431.565204 170.9146 431.114333 170.727843 430.644273 170.727843 
C 430.174212 170.727843 429.723341 170.9146 429.390959 171.246983 
C 429.058576 171.579365 428.871819 172.030237 428.871819 172.500297 
C 428.871819 172.970357 429.058576 173.421228 429.390959 173.753611 
C 429.723341 174.085994 430.174212 174.272751 430.644273 174.272751 
z
" style="stroke:#000000;stroke-width:0.886227;"/>
    <path clip-path="url(#p366a996e92)" d="M 444.171545 176.438003 
C 444.641606 176.438003 445.092477 176.251246 445.42486 175.918863 
C 445.757242 175.58648 445.943999 175.135609 445.943999 174.665549 
C 445.943999 174.195488 445.757242 173.744617 445.42486 173.412235 
C 445.092477 173.079852 444.641606 172.893095 444.171545 172.893095 
C 443.701485 172.893095 443.250614 173.079852 442.918231 173.412235 
C 442.585849 173.744617 442.399092 174.195488 442.399092 174.665549 
C 442.399092 175.135609 442.585849 175.58648 442.918231 175.918863 
C 443.250614 176.251246 443.701485 176.438003 444.171545 176.438003 
z
" style="stroke:#000000;stroke-width:0.886227;"/>
    <path clip-path="url(#p366a996e92)" d="M 457.698818 181.546883 
C 458.168878 181.546883 458.61975 181.360126 458.952132 181.027743 
C 459.284515 180.695361 459.471272 180.24449 459.471272 179.774429 
C 459.471272 179.304369 459.284515 178.853498 458.952132 178.521115 
C 458.61975 178.188732 458.168878 178.001975 457.698818 178.001975 
C 457.228758 178.001975 456.777887 178.188732 456.445504 178.521115 
C 456.113121 178.853498 455.926364 179.304369 455.926364 179.774429 
C 455.926364 180.24449 456.113121 180.695361 456.445504 181.027743 
C 456.777887 181.360126 457.228758 181.546883 457.698818 181.546883 
z
" style="stroke:#000000;stroke-width:0.886227;"/>
    <path clip-path="url(#p366a996e92)" d="M 471.226091 175.777054 
C 471.696151 175.777054 472.147022 175.590297 472.479405 175.257915 
C 472.811788 174.925532 472.998545 174.474661 472.998545 174.0046 
C 472.998545 173.53454 472.811788 173.083669 472.479405 172.751286 
C 472.147022 172.418903 471.696151 172.232147 471.226091 172.232147 
C 470.756031 172.232147 470.30516 172.418903 469.972777 172.751286 
C 469.640394 173.083669 469.453637 173.53454 469.453637 174.0046 
C 469.453637 174.474661 469.640394 174.925532 469.972777 175.257915 
C 470.30516 175.590297 470.756031 175.777054 471.226091 175.777054 
z
" style="stroke:#000000;stroke-width:0.886227;"/>
   </g>
   <g id="line2d_33">
    <path clip-path="url(#p366a996e92)" d="M 65.407909 52.779897 
L 78.935182 54.253012 
L 92.462455 60.983393 
L 105.989727 61.478838 
L 119.517 69.877439 
L 133.044273 77.026122 
L 146.571545 82.029905 
L 160.098818 90.584023 
L 173.626091 93.813164 
L 187.153364 105.851684 
L 200.680636 115.274122 
L 214.207909 122.590779 
L 227.735182 128.589593 
L 241.262455 139.982283 
L 254.789727 140.496882 
L 268.317 149.780693 
L 281.844273 147.774006 
L 295.371545 154.3175 
L 308.898818 156.334363 
L 322.426091 160.805846 
L 335.953364 154.938219 
L 349.480636 154.074742 
L 363.007909 160.451174 
L 376.535182 166.286217 
L 390.062455 174.622414 
L 403.589727 169.590057 
L 417.117 166.701631 
L 430.644273 172.500297 
L 444.171545 174.665549 
L 457.698818 179.774429 
L 471.226091 174.0046 
" style="fill:none;stroke:#000000;stroke-width:0.886227;"/>
   </g>
  </g>
 </g>
 <defs>
  <clipPath id="p366a996e92">
   <rect height="221.76" width="446.4" x="45.117" y="7.2"/>
  </clipPath>
 </defs>
</svg>
