<?xml version="1.0" encoding="utf-8" standalone="no"?>
<!DOCTYPE svg PUBLIC "-//W3C//DTD SVG 1.1//EN"
  "http://www.w3.org/Graphics/SVG/1.1/DTD/svg11.dtd">
<!-- Created with matplotlib (https://matplotlib.org/) -->
<svg height="265.688469pt" version="1.1" viewBox="0 0 498.717 265.688469" width="498.717pt" xmlns="http://www.w3.org/2000/svg" xmlns:xlink="http://www.w3.org/1999/xlink">
 <defs>
  <style type="text/css">
*{stroke-linecap:butt;stroke-linejoin:round;}
  </style>
 </defs>
 <g id="figure_1">
  <g id="patch_1">
   <path d="M 0 265.688469 
L 498.717 265.688469 
L 498.717 0 
L 0 0 
z
" style="fill:#ffffff;stroke:#ffffff;stroke-linejoin:miter;"/>
  </g>
  <g id="axes_1">
   <g id="patch_2">
    <path d="M 45.117 228.96 
L 491.517 228.96 
L 491.517 7.2 
L 45.117 7.2 
z
" style="fill:#ffffff;"/>
   </g>
   <g id="matplotlib.axis_1">
    <g id="xtick_1">
     <g id="line2d_1">
      <path d="M 66.082026 228.96 
" style="fill:none;stroke:#000000;stroke-width:1.5;"/>
      <defs>
       <path d="M 0 0 
L 0 2.75 
" id="m3e4f101d46" style="stroke:#000000;"/>
      </defs>
      <g>
       <use style="stroke:#000000;" x="66.082026" xlink:href="#m3e4f101d46" y="228.96"/>
      </g>
     </g>
     <g id="text_1">
      <!-- 1 -->
      <defs>
       <path d="M 12.40625 8.296875 
L 28.515625 8.296875 
L 28.515625 63.921875 
L 10.984375 60.40625 
L 10.984375 69.390625 
L 28.421875 72.90625 
L 38.28125 72.90625 
L 38.28125 8.296875 
L 54.390625 8.296875 
L 54.390625 0 
L 12.40625 0 
z
" id="DejaVuSans-49"/>
      </defs>
      <g transform="translate(63.282526 240.596625)scale(0.088 -0.088)">
       <use xlink:href="#DejaVuSans-49"/>
      </g>
     </g>
    </g>
    <g id="xtick_2">
     <g id="line2d_2">
      <path d="M 200.905342 228.96 
" style="fill:none;stroke:#000000;stroke-width:1.5;"/>
      <g>
       <use style="stroke:#000000;" x="200.905342" xlink:href="#m3e4f101d46" y="228.96"/>
      </g>
     </g>
     <g id="text_2">
      <!-- 2 -->
      <defs>
       <path d="M 19.1875 8.296875 
L 53.609375 8.296875 
L 53.609375 0 
L 7.328125 0 
L 7.328125 8.296875 
Q 12.9375 14.109375 22.625 23.890625 
Q 32.328125 33.6875 34.8125 36.53125 
Q 39.546875 41.84375 41.421875 45.53125 
Q 43.3125 49.21875 43.3125 52.78125 
Q 43.3125 58.59375 39.234375 62.25 
Q 35.15625 65.921875 28.609375 65.921875 
Q 23.96875 65.921875 18.8125 64.3125 
Q 13.671875 62.703125 7.8125 59.421875 
L 7.8125 69.390625 
Q 13.765625 71.78125 18.9375 73 
Q 24.125 74.21875 28.421875 74.21875 
Q 39.75 74.21875 46.484375 68.546875 
Q 53.21875 62.890625 53.21875 53.421875 
Q 53.21875 48.921875 51.53125 44.890625 
Q 49.859375 40.875 45.40625 35.40625 
Q 44.1875 33.984375 37.640625 27.21875 
Q 31.109375 20.453125 19.1875 8.296875 
z
" id="DejaVuSans-50"/>
      </defs>
      <g transform="translate(198.105842 240.596625)scale(0.088 -0.088)">
       <use xlink:href="#DejaVuSans-50"/>
      </g>
     </g>
    </g>
    <g id="xtick_3">
     <g id="line2d_3">
      <path d="M 335.728658 228.96 
" style="fill:none;stroke:#000000;stroke-width:1.5;"/>
      <g>
       <use style="stroke:#000000;" x="335.728658" xlink:href="#m3e4f101d46" y="228.96"/>
      </g>
     </g>
     <g id="text_3">
      <!-- 3 -->
      <defs>
       <path d="M 40.578125 39.3125 
Q 47.65625 37.796875 51.625 33 
Q 55.609375 28.21875 55.609375 21.1875 
Q 55.609375 10.40625 48.1875 4.484375 
Q 40.765625 -1.421875 27.09375 -1.421875 
Q 22.515625 -1.421875 17.65625 -0.515625 
Q 12.796875 0.390625 7.625 2.203125 
L 7.625 11.71875 
Q 11.71875 9.328125 16.59375 8.109375 
Q 21.484375 6.890625 26.8125 6.890625 
Q 36.078125 6.890625 40.9375 10.546875 
Q 45.796875 14.203125 45.796875 21.1875 
Q 45.796875 27.640625 41.28125 31.265625 
Q 36.765625 34.90625 28.71875 34.90625 
L 20.21875 34.90625 
L 20.21875 43.015625 
L 29.109375 43.015625 
Q 36.375 43.015625 40.234375 45.921875 
Q 44.09375 48.828125 44.09375 54.296875 
Q 44.09375 59.90625 40.109375 62.90625 
Q 36.140625 65.921875 28.71875 65.921875 
Q 24.65625 65.921875 20.015625 65.03125 
Q 15.375 64.15625 9.8125 62.3125 
L 9.8125 71.09375 
Q 15.4375 72.65625 20.34375 73.4375 
Q 25.25 74.21875 29.59375 74.21875 
Q 40.828125 74.21875 47.359375 69.109375 
Q 53.90625 64.015625 53.90625 55.328125 
Q 53.90625 49.265625 50.4375 45.09375 
Q 46.96875 40.921875 40.578125 39.3125 
z
" id="DejaVuSans-51"/>
      </defs>
      <g transform="translate(332.929158 240.596625)scale(0.088 -0.088)">
       <use xlink:href="#DejaVuSans-51"/>
      </g>
     </g>
    </g>
    <g id="xtick_4">
     <g id="line2d_4">
      <path d="M 470.551974 228.96 
" style="fill:none;stroke:#000000;stroke-width:1.5;"/>
      <g>
       <use style="stroke:#000000;" x="470.551974" xlink:href="#m3e4f101d46" y="228.96"/>
      </g>
     </g>
     <g id="text_4">
      <!-- 4 -->
      <defs>
       <path d="M 37.796875 64.3125 
L 12.890625 25.390625 
L 37.796875 25.390625 
z
M 35.203125 72.90625 
L 47.609375 72.90625 
L 47.609375 25.390625 
L 58.015625 25.390625 
L 58.015625 17.1875 
L 47.609375 17.1875 
L 47.609375 0 
L 37.796875 0 
L 37.796875 17.1875 
L 4.890625 17.1875 
L 4.890625 26.703125 
z
" id="DejaVuSans-52"/>
      </defs>
      <g transform="translate(467.752474 240.596625)scale(0.088 -0.088)">
       <use xlink:href="#DejaVuSans-52"/>
      </g>
     </g>
    </g>
    <g id="xtick_5">
     <g id="line2d_5">
      <path d="M 133.493684 228.96 
" style="fill:none;stroke:#000000;stroke-width:1.5;"/>
      <defs>
       <path d="M 0 0 
L 0 1.375 
" id="mff1c9265b0" style="stroke:#000000;"/>
      </defs>
      <g>
       <use style="stroke:#000000;" x="133.493684" xlink:href="#mff1c9265b0" y="228.96"/>
      </g>
     </g>
    </g>
    <g id="xtick_6">
     <g id="line2d_6">
      <path d="M 268.317 228.96 
" style="fill:none;stroke:#000000;stroke-width:1.5;"/>
      <g>
       <use style="stroke:#000000;" x="268.317" xlink:href="#mff1c9265b0" y="228.96"/>
      </g>
     </g>
    </g>
    <g id="xtick_7">
     <g id="line2d_7">
      <path d="M 403.140316 228.96 
" style="fill:none;stroke:#000000;stroke-width:1.5;"/>
      <g>
       <use style="stroke:#000000;" x="403.140316" xlink:href="#mff1c9265b0" y="228.96"/>
      </g>
     </g>
    </g>
    <g id="text_5">
     <!-- Resolution [Å] -->
     <defs>
      <path d="M 44.390625 34.1875 
Q 47.5625 33.109375 50.5625 29.59375 
Q 53.5625 26.078125 56.59375 19.921875 
L 66.609375 0 
L 56 0 
L 46.6875 18.703125 
Q 43.0625 26.03125 39.671875 28.421875 
Q 36.28125 30.8125 30.421875 30.8125 
L 19.671875 30.8125 
L 19.671875 0 
L 9.8125 0 
L 9.8125 72.90625 
L 32.078125 72.90625 
Q 44.578125 72.90625 50.734375 67.671875 
Q 56.890625 62.453125 56.890625 51.90625 
Q 56.890625 45.015625 53.6875 40.46875 
Q 50.484375 35.9375 44.390625 34.1875 
z
M 19.671875 64.796875 
L 19.671875 38.921875 
L 32.078125 38.921875 
Q 39.203125 38.921875 42.84375 42.21875 
Q 46.484375 45.515625 46.484375 51.90625 
Q 46.484375 58.296875 42.84375 61.546875 
Q 39.203125 64.796875 32.078125 64.796875 
z
" id="DejaVuSans-82"/>
      <path d="M 56.203125 29.59375 
L 56.203125 25.203125 
L 14.890625 25.203125 
Q 15.484375 15.921875 20.484375 11.0625 
Q 25.484375 6.203125 34.421875 6.203125 
Q 39.59375 6.203125 44.453125 7.46875 
Q 49.3125 8.734375 54.109375 11.28125 
L 54.109375 2.78125 
Q 49.265625 0.734375 44.1875 -0.34375 
Q 39.109375 -1.421875 33.890625 -1.421875 
Q 20.796875 -1.421875 13.15625 6.1875 
Q 5.515625 13.8125 5.515625 26.8125 
Q 5.515625 40.234375 12.765625 48.109375 
Q 20.015625 56 32.328125 56 
Q 43.359375 56 49.78125 48.890625 
Q 56.203125 41.796875 56.203125 29.59375 
z
M 47.21875 32.234375 
Q 47.125 39.59375 43.09375 43.984375 
Q 39.0625 48.390625 32.421875 48.390625 
Q 24.90625 48.390625 20.390625 44.140625 
Q 15.875 39.890625 15.1875 32.171875 
z
" id="DejaVuSans-101"/>
      <path d="M 44.28125 53.078125 
L 44.28125 44.578125 
Q 40.484375 46.53125 36.375 47.5 
Q 32.28125 48.484375 27.875 48.484375 
Q 21.1875 48.484375 17.84375 46.4375 
Q 14.5 44.390625 14.5 40.28125 
Q 14.5 37.15625 16.890625 35.375 
Q 19.28125 33.59375 26.515625 31.984375 
L 29.59375 31.296875 
Q 39.15625 29.25 43.1875 25.515625 
Q 47.21875 21.78125 47.21875 15.09375 
Q 47.21875 7.46875 41.1875 3.015625 
Q 35.15625 -1.421875 24.609375 -1.421875 
Q 20.21875 -1.421875 15.453125 -0.5625 
Q 10.6875 0.296875 5.421875 2 
L 5.421875 11.28125 
Q 10.40625 8.6875 15.234375 7.390625 
Q 20.0625 6.109375 24.8125 6.109375 
Q 31.15625 6.109375 34.5625 8.28125 
Q 37.984375 10.453125 37.984375 14.40625 
Q 37.984375 18.0625 35.515625 20.015625 
Q 33.0625 21.96875 24.703125 23.78125 
L 21.578125 24.515625 
Q 13.234375 26.265625 9.515625 29.90625 
Q 5.8125 33.546875 5.8125 39.890625 
Q 5.8125 47.609375 11.28125 51.796875 
Q 16.75 56 26.8125 56 
Q 31.78125 56 36.171875 55.265625 
Q 40.578125 54.546875 44.28125 53.078125 
z
" id="DejaVuSans-115"/>
      <path d="M 30.609375 48.390625 
Q 23.390625 48.390625 19.1875 42.75 
Q 14.984375 37.109375 14.984375 27.296875 
Q 14.984375 17.484375 19.15625 11.84375 
Q 23.34375 6.203125 30.609375 6.203125 
Q 37.796875 6.203125 41.984375 11.859375 
Q 46.1875 17.53125 46.1875 27.296875 
Q 46.1875 37.015625 41.984375 42.703125 
Q 37.796875 48.390625 30.609375 48.390625 
z
M 30.609375 56 
Q 42.328125 56 49.015625 48.375 
Q 55.71875 40.765625 55.71875 27.296875 
Q 55.71875 13.875 49.015625 6.21875 
Q 42.328125 -1.421875 30.609375 -1.421875 
Q 18.84375 -1.421875 12.171875 6.21875 
Q 5.515625 13.875 5.515625 27.296875 
Q 5.515625 40.765625 12.171875 48.375 
Q 18.84375 56 30.609375 56 
z
" id="DejaVuSans-111"/>
      <path d="M 9.421875 75.984375 
L 18.40625 75.984375 
L 18.40625 0 
L 9.421875 0 
z
" id="DejaVuSans-108"/>
      <path d="M 8.5 21.578125 
L 8.5 54.6875 
L 17.484375 54.6875 
L 17.484375 21.921875 
Q 17.484375 14.15625 20.5 10.265625 
Q 23.53125 6.390625 29.59375 6.390625 
Q 36.859375 6.390625 41.078125 11.03125 
Q 45.3125 15.671875 45.3125 23.6875 
L 45.3125 54.6875 
L 54.296875 54.6875 
L 54.296875 0 
L 45.3125 0 
L 45.3125 8.40625 
Q 42.046875 3.421875 37.71875 1 
Q 33.40625 -1.421875 27.6875 -1.421875 
Q 18.265625 -1.421875 13.375 4.4375 
Q 8.5 10.296875 8.5 21.578125 
z
M 31.109375 56 
z
" id="DejaVuSans-117"/>
      <path d="M 18.3125 70.21875 
L 18.3125 54.6875 
L 36.8125 54.6875 
L 36.8125 47.703125 
L 18.3125 47.703125 
L 18.3125 18.015625 
Q 18.3125 11.328125 20.140625 9.421875 
Q 21.96875 7.515625 27.59375 7.515625 
L 36.8125 7.515625 
L 36.8125 0 
L 27.59375 0 
Q 17.1875 0 13.234375 3.875 
Q 9.28125 7.765625 9.28125 18.015625 
L 9.28125 47.703125 
L 2.6875 47.703125 
L 2.6875 54.6875 
L 9.28125 54.6875 
L 9.28125 70.21875 
z
" id="DejaVuSans-116"/>
      <path d="M 9.421875 54.6875 
L 18.40625 54.6875 
L 18.40625 0 
L 9.421875 0 
z
M 9.421875 75.984375 
L 18.40625 75.984375 
L 18.40625 64.59375 
L 9.421875 64.59375 
z
" id="DejaVuSans-105"/>
      <path d="M 54.890625 33.015625 
L 54.890625 0 
L 45.90625 0 
L 45.90625 32.71875 
Q 45.90625 40.484375 42.875 44.328125 
Q 39.84375 48.1875 33.796875 48.1875 
Q 26.515625 48.1875 22.3125 43.546875 
Q 18.109375 38.921875 18.109375 30.90625 
L 18.109375 0 
L 9.078125 0 
L 9.078125 54.6875 
L 18.109375 54.6875 
L 18.109375 46.1875 
Q 21.34375 51.125 25.703125 53.5625 
Q 30.078125 56 35.796875 56 
Q 45.21875 56 50.046875 50.171875 
Q 54.890625 44.34375 54.890625 33.015625 
z
" id="DejaVuSans-110"/>
      <path id="DejaVuSans-32"/>
      <path d="M 8.59375 75.984375 
L 29.296875 75.984375 
L 29.296875 69 
L 17.578125 69 
L 17.578125 -6.203125 
L 29.296875 -6.203125 
L 29.296875 -13.1875 
L 8.59375 -13.1875 
z
" id="DejaVuSans-91"/>
      <path d="M 41.609375 79.390625 
Q 41.609375 82.46875 39.421875 84.640625 
Q 37.25 86.8125 34.1875 86.8125 
Q 31.0625 86.8125 28.9375 84.6875 
Q 26.8125 82.5625 26.8125 79.390625 
Q 26.8125 76.3125 28.953125 74.15625 
Q 31.109375 72.015625 34.1875 72.015625 
Q 37.25 72.015625 39.421875 74.15625 
Q 41.609375 76.3125 41.609375 79.390625 
z
M 34.1875 63.1875 
L 20.90625 26.90625 
L 47.515625 26.90625 
z
M 26.8125 68.21875 
Q 23.828125 70.21875 22.3125 73.015625 
Q 20.796875 75.828125 20.796875 79.390625 
Q 20.796875 85.015625 24.671875 88.921875 
Q 28.5625 92.828125 34.1875 92.828125 
Q 39.75 92.828125 43.671875 88.890625 
Q 47.609375 84.96875 47.609375 79.390625 
Q 47.609375 75.984375 46.0625 73.09375 
Q 44.53125 70.21875 41.609375 68.21875 
L 67.578125 0 
L 57.328125 0 
L 50.6875 18.703125 
L 17.828125 18.703125 
L 11.1875 0 
L 0.78125 0 
z
" id="DejaVuSans-197"/>
      <path d="M 30.421875 75.984375 
L 30.421875 -13.1875 
L 9.71875 -13.1875 
L 9.71875 -6.203125 
L 21.390625 -6.203125 
L 21.390625 69 
L 9.71875 69 
L 9.71875 75.984375 
z
" id="DejaVuSans-93"/>
     </defs>
     <g transform="translate(222.333406 256.200812)scale(0.11 -0.11)">
      <use xlink:href="#DejaVuSans-82"/>
      <use x="69.419922" xlink:href="#DejaVuSans-101"/>
      <use x="130.943359" xlink:href="#DejaVuSans-115"/>
      <use x="183.042969" xlink:href="#DejaVuSans-111"/>
      <use x="244.224609" xlink:href="#DejaVuSans-108"/>
      <use x="272.007812" xlink:href="#DejaVuSans-117"/>
      <use x="335.386719" xlink:href="#DejaVuSans-116"/>
      <use x="374.595703" xlink:href="#DejaVuSans-105"/>
      <use x="402.378906" xlink:href="#DejaVuSans-111"/>
      <use x="463.560547" xlink:href="#DejaVuSans-110"/>
      <use x="526.939453" xlink:href="#DejaVuSans-32"/>
      <use x="558.726562" xlink:href="#DejaVuSans-91"/>
      <use x="597.740234" xlink:href="#DejaVuSans-197"/>
      <use x="666.148438" xlink:href="#DejaVuSans-93"/>
     </g>
    </g>
   </g>
   <g id="matplotlib.axis_2">
    <g id="ytick_1">
     <g id="line2d_8">
      <path d="M 45.117 218.88 
" style="fill:none;stroke:#000000;stroke-width:1.5;"/>
      <defs>
       <path d="M 0 0 
L -2.75 0 
" id="mf71b9427d6" style="stroke:#000000;"/>
      </defs>
      <g>
       <use style="stroke:#000000;" x="45.117" xlink:href="#mf71b9427d6" y="218.88"/>
      </g>
     </g>
     <g id="text_6">
      <!-- 0 -->
      <defs>
       <path d="M 31.78125 66.40625 
Q 24.171875 66.40625 20.328125 58.90625 
Q 16.5 51.421875 16.5 36.375 
Q 16.5 21.390625 20.328125 13.890625 
Q 24.171875 6.390625 31.78125 6.390625 
Q 39.453125 6.390625 43.28125 13.890625 
Q 47.125 21.390625 47.125 36.375 
Q 47.125 51.421875 43.28125 58.90625 
Q 39.453125 66.40625 31.78125 66.40625 
z
M 31.78125 74.21875 
Q 44.046875 74.21875 50.515625 64.515625 
Q 56.984375 54.828125 56.984375 36.375 
Q 56.984375 17.96875 50.515625 8.265625 
Q 44.046875 -1.421875 31.78125 -1.421875 
Q 19.53125 -1.421875 13.0625 8.265625 
Q 6.59375 17.96875 6.59375 36.375 
Q 6.59375 54.828125 13.0625 64.515625 
Q 19.53125 74.21875 31.78125 74.21875 
z
" id="DejaVuSans-48"/>
      </defs>
      <g transform="translate(34.568 221.30825)scale(0.088 -0.088)">
       <use xlink:href="#DejaVuSans-48"/>
      </g>
     </g>
    </g>
    <g id="ytick_2">
     <g id="line2d_9">
      <path d="M 45.117 168.48 
" style="fill:none;stroke:#000000;stroke-width:1.5;"/>
      <g>
       <use style="stroke:#000000;" x="45.117" xlink:href="#mf71b9427d6" y="168.48"/>
      </g>
     </g>
     <g id="text_7">
      <!-- 25 -->
      <defs>
       <path d="M 10.796875 72.90625 
L 49.515625 72.90625 
L 49.515625 64.59375 
L 19.828125 64.59375 
L 19.828125 46.734375 
Q 21.96875 47.46875 24.109375 47.828125 
Q 26.265625 48.1875 28.421875 48.1875 
Q 40.625 48.1875 47.75 41.5 
Q 54.890625 34.8125 54.890625 23.390625 
Q 54.890625 11.625 47.5625 5.09375 
Q 40.234375 -1.421875 26.90625 -1.421875 
Q 22.3125 -1.421875 17.546875 -0.640625 
Q 12.796875 0.140625 7.71875 1.703125 
L 7.71875 11.625 
Q 12.109375 9.234375 16.796875 8.0625 
Q 21.484375 6.890625 26.703125 6.890625 
Q 35.15625 6.890625 40.078125 11.328125 
Q 45.015625 15.765625 45.015625 23.390625 
Q 45.015625 31 40.078125 35.4375 
Q 35.15625 39.890625 26.703125 39.890625 
Q 22.75 39.890625 18.8125 39.015625 
Q 14.890625 38.140625 10.796875 36.28125 
z
" id="DejaVuSans-53"/>
      </defs>
      <g transform="translate(28.969 170.90825)scale(0.088 -0.088)">
       <use xlink:href="#DejaVuSans-50"/>
       <use x="63.623047" xlink:href="#DejaVuSans-53"/>
      </g>
     </g>
    </g>
    <g id="ytick_3">
     <g id="line2d_10">
      <path d="M 45.117 118.08 
" style="fill:none;stroke:#000000;stroke-width:1.5;"/>
      <g>
       <use style="stroke:#000000;" x="45.117" xlink:href="#mf71b9427d6" y="118.08"/>
      </g>
     </g>
     <g id="text_8">
      <!-- 50 -->
      <g transform="translate(28.969 120.50825)scale(0.088 -0.088)">
       <use xlink:href="#DejaVuSans-53"/>
       <use x="63.623047" xlink:href="#DejaVuSans-48"/>
      </g>
     </g>
    </g>
    <g id="ytick_4">
     <g id="line2d_11">
      <path d="M 45.117 67.68 
" style="fill:none;stroke:#000000;stroke-width:1.5;"/>
      <g>
       <use style="stroke:#000000;" x="45.117" xlink:href="#mf71b9427d6" y="67.68"/>
      </g>
     </g>
     <g id="text_9">
      <!-- 75 -->
      <defs>
       <path d="M 8.203125 72.90625 
L 55.078125 72.90625 
L 55.078125 68.703125 
L 28.609375 0 
L 18.3125 0 
L 43.21875 64.59375 
L 8.203125 64.59375 
z
" id="DejaVuSans-55"/>
      </defs>
      <g transform="translate(28.969 70.10825)scale(0.088 -0.088)">
       <use xlink:href="#DejaVuSans-55"/>
       <use x="63.623047" xlink:href="#DejaVuSans-53"/>
      </g>
     </g>
    </g>
    <g id="ytick_5">
     <g id="line2d_12">
      <path d="M 45.117 17.28 
" style="fill:none;stroke:#000000;stroke-width:1.5;"/>
      <g>
       <use style="stroke:#000000;" x="45.117" xlink:href="#mf71b9427d6" y="17.28"/>
      </g>
     </g>
     <g id="text_10">
      <!-- 100 -->
      <g transform="translate(23.37 19.70825)scale(0.088 -0.088)">
       <use xlink:href="#DejaVuSans-49"/>
       <use x="63.623047" xlink:href="#DejaVuSans-48"/>
       <use x="127.246094" xlink:href="#DejaVuSans-48"/>
      </g>
     </g>
    </g>
    <g id="ytick_6">
     <g id="line2d_13">
      <path d="M 45.117 193.68 
" style="fill:none;stroke:#000000;stroke-width:1.5;"/>
      <defs>
       <path d="M 0 0 
L -1.375 0 
" id="m6a80b087c2" style="stroke:#000000;"/>
      </defs>
      <g>
       <use style="stroke:#000000;" x="45.117" xlink:href="#m6a80b087c2" y="193.68"/>
      </g>
     </g>
    </g>
    <g id="ytick_7">
     <g id="line2d_14">
      <path d="M 45.117 143.28 
" style="fill:none;stroke:#000000;stroke-width:1.5;"/>
      <g>
       <use style="stroke:#000000;" x="45.117" xlink:href="#m6a80b087c2" y="143.28"/>
      </g>
     </g>
    </g>
    <g id="ytick_8">
     <g id="line2d_15">
      <path d="M 45.117 92.88 
" style="fill:none;stroke:#000000;stroke-width:1.5;"/>
      <g>
       <use style="stroke:#000000;" x="45.117" xlink:href="#m6a80b087c2" y="92.88"/>
      </g>
     </g>
    </g>
    <g id="ytick_9">
     <g id="line2d_16">
      <path d="M 45.117 42.48 
" style="fill:none;stroke:#000000;stroke-width:1.5;"/>
      <g>
       <use style="stroke:#000000;" x="45.117" xlink:href="#m6a80b087c2" y="42.48"/>
      </g>
     </g>
    </g>
    <g id="text_11">
     <!-- $P_{Q1p_{min}}$ [%] -->
     <defs>
      <path d="M 16.890625 72.90625 
L 39.703125 72.90625 
Q 49.65625 72.90625 54.875 68.265625 
Q 60.109375 63.625 60.109375 54.6875 
Q 60.109375 42.671875 52.390625 35.984375 
Q 44.671875 29.296875 30.71875 29.296875 
L 18.3125 29.296875 
L 12.59375 0 
L 2.6875 0 
z
M 25.203125 64.796875 
L 19.921875 37.40625 
L 32.328125 37.40625 
Q 40.71875 37.40625 45.203125 41.703125 
Q 49.703125 46 49.703125 54 
Q 49.703125 59.125 46.65625 61.953125 
Q 43.609375 64.796875 38.09375 64.796875 
z
" id="DejaVuSans-Oblique-80"/>
      <path d="M 36.078125 -1.3125 
Q 35.546875 -1.375 34.953125 -1.390625 
Q 34.375 -1.421875 33.203125 -1.421875 
Q 19.53125 -1.421875 11.8125 6.421875 
Q 4.109375 14.265625 4.109375 28.078125 
Q 4.109375 36.234375 7.0625 44.4375 
Q 10.015625 52.640625 15.28125 59.1875 
Q 21.390625 66.703125 29.03125 70.453125 
Q 36.671875 74.21875 45.90625 74.21875 
Q 59.28125 74.21875 66.984375 66.328125 
Q 74.703125 58.453125 74.703125 44.828125 
Q 74.703125 30.125 66.640625 17.921875 
Q 58.59375 5.71875 45.609375 0.6875 
L 55.515625 -12.890625 
L 44.484375 -12.890625 
z
M 45.609375 66.21875 
Q 37.5 66.21875 31.296875 62.28125 
Q 25.09375 58.34375 20.515625 50.296875 
Q 17.578125 45.171875 16.03125 39.40625 
Q 14.5 33.640625 14.5 27.78125 
Q 14.5 17.625 19.359375 12.109375 
Q 24.21875 6.59375 33.109375 6.59375 
Q 41.109375 6.59375 47.375 10.5625 
Q 53.65625 14.546875 58.109375 22.40625 
Q 61.078125 27.6875 62.640625 33.46875 
Q 64.203125 39.265625 64.203125 45.015625 
Q 64.203125 55.125 59.3125 60.671875 
Q 54.4375 66.21875 45.609375 66.21875 
z
" id="DejaVuSans-Oblique-81"/>
      <path d="M 49.609375 33.6875 
Q 49.609375 40.875 46.484375 44.671875 
Q 43.359375 48.484375 37.5 48.484375 
Q 33.5 48.484375 29.859375 46.4375 
Q 26.21875 44.390625 23.390625 40.484375 
Q 20.609375 36.625 18.9375 31.15625 
Q 17.28125 25.6875 17.28125 20.3125 
Q 17.28125 13.484375 20.40625 9.796875 
Q 23.53125 6.109375 29.296875 6.109375 
Q 33.546875 6.109375 37.1875 8.109375 
Q 40.828125 10.109375 43.40625 13.921875 
Q 46.1875 17.921875 47.890625 23.34375 
Q 49.609375 28.765625 49.609375 33.6875 
z
M 21.78125 46.390625 
Q 25.390625 51.125 30.296875 53.5625 
Q 35.203125 56 41.21875 56 
Q 49.609375 56 54.25 50.5 
Q 58.890625 45.015625 58.890625 35.109375 
Q 58.890625 27 56 19.65625 
Q 53.125 12.3125 47.703125 6.5 
Q 44.09375 2.640625 39.546875 0.609375 
Q 35.015625 -1.421875 29.984375 -1.421875 
Q 24.171875 -1.421875 20.21875 1 
Q 16.265625 3.421875 14.3125 8.203125 
L 8.6875 -20.796875 
L -0.296875 -20.796875 
L 14.40625 54.6875 
L 23.390625 54.6875 
z
" id="DejaVuSans-Oblique-112"/>
      <path d="M 89.796875 33.015625 
L 83.40625 0 
L 74.421875 0 
L 80.71875 32.71875 
Q 81.109375 34.8125 81.296875 36.328125 
Q 81.5 37.84375 81.5 38.921875 
Q 81.5 43.3125 79.046875 45.75 
Q 76.609375 48.1875 72.21875 48.1875 
Q 65.671875 48.1875 60.546875 43.28125 
Q 55.421875 38.375 53.90625 30.515625 
L 47.90625 0 
L 38.921875 0 
L 45.3125 32.71875 
Q 45.703125 34.515625 45.890625 36.046875 
Q 46.09375 37.59375 46.09375 38.8125 
Q 46.09375 43.265625 43.65625 45.71875 
Q 41.21875 48.1875 36.921875 48.1875 
Q 30.28125 48.1875 25.140625 43.28125 
Q 20.015625 38.375 18.5 30.515625 
L 12.5 0 
L 3.515625 0 
L 14.203125 54.6875 
L 23.1875 54.6875 
L 21.484375 46.1875 
Q 25.140625 50.984375 30.046875 53.484375 
Q 34.96875 56 40.578125 56 
Q 46.53125 56 50.359375 52.875 
Q 54.203125 49.75 54.984375 44.1875 
Q 59.078125 49.953125 64.46875 52.96875 
Q 69.875 56 75.875 56 
Q 82.90625 56 86.734375 51.953125 
Q 90.578125 47.90625 90.578125 40.484375 
Q 90.578125 38.875 90.375 36.9375 
Q 90.1875 35.015625 89.796875 33.015625 
z
" id="DejaVuSans-Oblique-109"/>
      <path d="M 18.3125 75.984375 
L 27.296875 75.984375 
L 25.09375 64.59375 
L 16.109375 64.59375 
z
M 14.203125 54.6875 
L 23.1875 54.6875 
L 12.5 0 
L 3.515625 0 
z
" id="DejaVuSans-Oblique-105"/>
      <path d="M 55.71875 33.015625 
L 49.3125 0 
L 40.28125 0 
L 46.6875 32.671875 
Q 47.125 34.96875 47.359375 36.71875 
Q 47.609375 38.484375 47.609375 39.5 
Q 47.609375 43.609375 45.015625 45.890625 
Q 42.4375 48.1875 37.796875 48.1875 
Q 30.5625 48.1875 25.34375 43.375 
Q 20.125 38.578125 18.5 30.328125 
L 12.5 0 
L 3.515625 0 
L 14.109375 54.6875 
L 23.09375 54.6875 
L 21.296875 46.09375 
Q 25.046875 50.828125 30.3125 53.40625 
Q 35.59375 56 41.40625 56 
Q 48.640625 56 52.609375 52.09375 
Q 56.59375 48.1875 56.59375 41.109375 
Q 56.59375 39.359375 56.375 37.359375 
Q 56.15625 35.359375 55.71875 33.015625 
z
" id="DejaVuSans-Oblique-110"/>
      <path d="M 72.703125 32.078125 
Q 68.453125 32.078125 66.03125 28.46875 
Q 63.625 24.859375 63.625 18.40625 
Q 63.625 12.0625 66.03125 8.421875 
Q 68.453125 4.78125 72.703125 4.78125 
Q 76.859375 4.78125 79.265625 8.421875 
Q 81.6875 12.0625 81.6875 18.40625 
Q 81.6875 24.8125 79.265625 28.4375 
Q 76.859375 32.078125 72.703125 32.078125 
z
M 72.703125 38.28125 
Q 80.421875 38.28125 84.953125 32.90625 
Q 89.5 27.546875 89.5 18.40625 
Q 89.5 9.28125 84.9375 3.921875 
Q 80.375 -1.421875 72.703125 -1.421875 
Q 64.890625 -1.421875 60.34375 3.921875 
Q 55.8125 9.28125 55.8125 18.40625 
Q 55.8125 27.59375 60.375 32.9375 
Q 64.9375 38.28125 72.703125 38.28125 
z
M 22.3125 68.015625 
Q 18.109375 68.015625 15.6875 64.375 
Q 13.28125 60.75 13.28125 54.390625 
Q 13.28125 47.953125 15.671875 44.328125 
Q 18.0625 40.71875 22.3125 40.71875 
Q 26.5625 40.71875 28.96875 44.328125 
Q 31.390625 47.953125 31.390625 54.390625 
Q 31.390625 60.6875 28.953125 64.34375 
Q 26.515625 68.015625 22.3125 68.015625 
z
M 66.40625 74.21875 
L 74.21875 74.21875 
L 28.609375 -1.421875 
L 20.796875 -1.421875 
z
M 22.3125 74.21875 
Q 30.03125 74.21875 34.609375 68.875 
Q 39.203125 63.53125 39.203125 54.390625 
Q 39.203125 45.171875 34.640625 39.84375 
Q 30.078125 34.515625 22.3125 34.515625 
Q 14.546875 34.515625 10.03125 39.859375 
Q 5.515625 45.21875 5.515625 54.390625 
Q 5.515625 63.484375 10.046875 68.84375 
Q 14.59375 74.21875 22.3125 74.21875 
z
" id="DejaVuSans-37"/>
     </defs>
     <g transform="translate(15.56 144.525)rotate(-90)scale(0.11 -0.11)">
      <use transform="translate(0 0.015625)" xlink:href="#DejaVuSans-Oblique-80"/>
      <use transform="translate(60.302734 -16.390625)scale(0.7)" xlink:href="#DejaVuSans-Oblique-81"/>
      <use transform="translate(115.400391 -16.390625)scale(0.7)" xlink:href="#DejaVuSans-49"/>
      <use transform="translate(159.936523 -16.390625)scale(0.7)" xlink:href="#DejaVuSans-Oblique-112"/>
      <use transform="translate(204.370117 -27.875)scale(0.49)" xlink:href="#DejaVuSans-Oblique-109"/>
      <use transform="translate(252.102051 -27.875)scale(0.49)" xlink:href="#DejaVuSans-Oblique-105"/>
      <use transform="translate(265.71582 -27.875)scale(0.49)" xlink:href="#DejaVuSans-Oblique-110"/>
      <use transform="translate(301.419922 0.015625)" xlink:href="#DejaVuSans-32"/>
      <use transform="translate(333.207031 0.015625)" xlink:href="#DejaVuSans-91"/>
      <use transform="translate(372.220703 0.015625)" xlink:href="#DejaVuSans-37"/>
      <use transform="translate(467.240234 0.015625)" xlink:href="#DejaVuSans-93"/>
     </g>
    </g>
   </g>
   <g id="LineCollection_1">
    <path clip-path="url(#peabddb14af)" d="M 65.407909 78.596846 
L 66.756142 78.596846 
" style="fill:none;stroke:#9da0a2;stroke-width:1.32934;"/>
    <path clip-path="url(#peabddb14af)" d="M 78.890241 80.090464 
L 80.238474 80.090464 
" style="fill:none;stroke:#9da0a2;stroke-width:1.32934;"/>
    <path clip-path="url(#peabddb14af)" d="M 92.372572 83.741971 
L 93.720805 83.741971 
" style="fill:none;stroke:#9da0a2;stroke-width:1.32934;"/>
    <path clip-path="url(#peabddb14af)" d="M 105.854904 81.467405 
L 107.203137 81.467405 
" style="fill:none;stroke:#9da0a2;stroke-width:1.32934;"/>
    <path clip-path="url(#peabddb14af)" d="M 119.337236 87.123879 
L 120.685469 87.123879 
" style="fill:none;stroke:#9da0a2;stroke-width:1.32934;"/>
    <path clip-path="url(#peabddb14af)" d="M 132.819567 91.059955 
L 134.1678 91.059955 
" style="fill:none;stroke:#9da0a2;stroke-width:1.32934;"/>
    <path clip-path="url(#peabddb14af)" d="M 146.301899 89.182257 
L 147.650132 89.182257 
" style="fill:none;stroke:#9da0a2;stroke-width:1.32934;"/>
    <path clip-path="url(#peabddb14af)" d="M 159.78423 95.790464 
L 161.132464 95.790464 
" style="fill:none;stroke:#9da0a2;stroke-width:1.32934;"/>
    <path clip-path="url(#peabddb14af)" d="M 173.266562 93.566939 
L 174.614795 93.566939 
" style="fill:none;stroke:#9da0a2;stroke-width:1.32934;"/>
    <path clip-path="url(#peabddb14af)" d="M 186.748894 103.370147 
L 188.097127 103.370147 
" style="fill:none;stroke:#9da0a2;stroke-width:1.32934;"/>
    <path clip-path="url(#peabddb14af)" d="M 200.231225 110.055591 
L 201.579458 110.055591 
" style="fill:none;stroke:#9da0a2;stroke-width:1.32934;"/>
    <path clip-path="url(#peabddb14af)" d="M 213.713557 116.551794 
L 215.06179 116.551794 
" style="fill:none;stroke:#9da0a2;stroke-width:1.32934;"/>
    <path clip-path="url(#peabddb14af)" d="M 227.195889 120.820638 
L 228.544122 120.820638 
" style="fill:none;stroke:#9da0a2;stroke-width:1.32934;"/>
    <path clip-path="url(#peabddb14af)" d="M 240.67822 131.462502 
L 242.026453 131.462502 
" style="fill:none;stroke:#9da0a2;stroke-width:1.32934;"/>
    <path clip-path="url(#peabddb14af)" d="M 254.160552 133.752594 
L 255.508785 133.752594 
" style="fill:none;stroke:#9da0a2;stroke-width:1.32934;"/>
    <path clip-path="url(#peabddb14af)" d="M 267.642883 142.312437 
L 268.991117 142.312437 
" style="fill:none;stroke:#9da0a2;stroke-width:1.32934;"/>
    <path clip-path="url(#peabddb14af)" d="M 281.125215 143.203689 
L 282.473448 143.203689 
" style="fill:none;stroke:#9da0a2;stroke-width:1.32934;"/>
    <path clip-path="url(#peabddb14af)" d="M 294.607547 149.744058 
L 295.95578 149.744058 
" style="fill:none;stroke:#9da0a2;stroke-width:1.32934;"/>
    <path clip-path="url(#peabddb14af)" d="M 308.089878 155.396345 
L 309.438111 155.396345 
" style="fill:none;stroke:#9da0a2;stroke-width:1.32934;"/>
    <path clip-path="url(#peabddb14af)" d="M 321.57221 160.430347 
L 322.920443 160.430347 
" style="fill:none;stroke:#9da0a2;stroke-width:1.32934;"/>
    <path clip-path="url(#peabddb14af)" d="M 335.054542 164.466678 
L 336.402775 164.466678 
" style="fill:none;stroke:#9da0a2;stroke-width:1.32934;"/>
    <path clip-path="url(#peabddb14af)" d="M 348.536873 165.148857 
L 349.885106 165.148857 
" style="fill:none;stroke:#9da0a2;stroke-width:1.32934;"/>
    <path clip-path="url(#peabddb14af)" d="M 362.019205 169.627777 
L 363.367438 169.627777 
" style="fill:none;stroke:#9da0a2;stroke-width:1.32934;"/>
    <path clip-path="url(#peabddb14af)" d="M 375.501536 172.384416 
L 376.84977 172.384416 
" style="fill:none;stroke:#9da0a2;stroke-width:1.32934;"/>
    <path clip-path="url(#peabddb14af)" d="M 388.983868 178.424659 
L 390.332101 178.424659 
" style="fill:none;stroke:#9da0a2;stroke-width:1.32934;"/>
    <path clip-path="url(#peabddb14af)" d="M 402.4662 185.997743 
L 403.814433 185.997743 
" style="fill:none;stroke:#9da0a2;stroke-width:1.32934;"/>
    <path clip-path="url(#peabddb14af)" d="M 415.948531 186.227431 
L 417.296764 186.227431 
" style="fill:none;stroke:#9da0a2;stroke-width:1.32934;"/>
    <path clip-path="url(#peabddb14af)" d="M 429.430863 190.095602 
L 430.779096 190.095602 
" style="fill:none;stroke:#9da0a2;stroke-width:1.32934;"/>
    <path clip-path="url(#peabddb14af)" d="M 442.913195 192.481346 
L 444.261428 192.481346 
" style="fill:none;stroke:#9da0a2;stroke-width:1.32934;"/>
    <path clip-path="url(#peabddb14af)" d="M 456.395526 192.9262 
L 457.743759 192.9262 
" style="fill:none;stroke:#9da0a2;stroke-width:1.32934;"/>
    <path clip-path="url(#peabddb14af)" d="M 469.877858 198.630535 
L 471.226091 198.630535 
" style="fill:none;stroke:#9da0a2;stroke-width:1.32934;"/>
    <path clip-path="url(#peabddb14af)" d="M 65.407909 75.402725 
L 66.756142 75.402725 
" style="fill:none;stroke:#9da0a2;stroke-width:1.32934;"/>
    <path clip-path="url(#peabddb14af)" d="M 78.890241 76.739264 
L 80.238474 76.739264 
" style="fill:none;stroke:#9da0a2;stroke-width:1.32934;"/>
    <path clip-path="url(#peabddb14af)" d="M 92.372572 81.360363 
L 93.720805 81.360363 
" style="fill:none;stroke:#9da0a2;stroke-width:1.32934;"/>
    <path clip-path="url(#peabddb14af)" d="M 105.854904 79.047382 
L 107.203137 79.047382 
" style="fill:none;stroke:#9da0a2;stroke-width:1.32934;"/>
    <path clip-path="url(#peabddb14af)" d="M 119.337236 85.4971 
L 120.685469 85.4971 
" style="fill:none;stroke:#9da0a2;stroke-width:1.32934;"/>
    <path clip-path="url(#peabddb14af)" d="M 132.819567 89.482845 
L 134.1678 89.482845 
" style="fill:none;stroke:#9da0a2;stroke-width:1.32934;"/>
    <path clip-path="url(#peabddb14af)" d="M 146.301899 87.9892 
L 147.650132 87.9892 
" style="fill:none;stroke:#9da0a2;stroke-width:1.32934;"/>
    <path clip-path="url(#peabddb14af)" d="M 159.78423 94.483881 
L 161.132464 94.483881 
" style="fill:none;stroke:#9da0a2;stroke-width:1.32934;"/>
    <path clip-path="url(#peabddb14af)" d="M 173.266562 92.648879 
L 174.614795 92.648879 
" style="fill:none;stroke:#9da0a2;stroke-width:1.32934;"/>
    <path clip-path="url(#peabddb14af)" d="M 186.748894 102.28213 
L 188.097127 102.28213 
" style="fill:none;stroke:#9da0a2;stroke-width:1.32934;"/>
    <path clip-path="url(#peabddb14af)" d="M 200.231225 109.194079 
L 201.579458 109.194079 
" style="fill:none;stroke:#9da0a2;stroke-width:1.32934;"/>
    <path clip-path="url(#peabddb14af)" d="M 213.713557 115.349208 
L 215.06179 115.349208 
" style="fill:none;stroke:#9da0a2;stroke-width:1.32934;"/>
    <path clip-path="url(#peabddb14af)" d="M 227.195889 119.787071 
L 228.544122 119.787071 
" style="fill:none;stroke:#9da0a2;stroke-width:1.32934;"/>
    <path clip-path="url(#peabddb14af)" d="M 240.67822 130.290476 
L 242.026453 130.290476 
" style="fill:none;stroke:#9da0a2;stroke-width:1.32934;"/>
    <path clip-path="url(#peabddb14af)" d="M 254.160552 132.603005 
L 255.508785 132.603005 
" style="fill:none;stroke:#9da0a2;stroke-width:1.32934;"/>
    <path clip-path="url(#peabddb14af)" d="M 267.642883 141.125842 
L 268.991117 141.125842 
" style="fill:none;stroke:#9da0a2;stroke-width:1.32934;"/>
    <path clip-path="url(#peabddb14af)" d="M 281.125215 141.970658 
L 282.473448 141.970658 
" style="fill:none;stroke:#9da0a2;stroke-width:1.32934;"/>
    <path clip-path="url(#peabddb14af)" d="M 294.607547 148.288242 
L 295.95578 148.288242 
" style="fill:none;stroke:#9da0a2;stroke-width:1.32934;"/>
    <path clip-path="url(#peabddb14af)" d="M 308.089878 154.134733 
L 309.438111 154.134733 
" style="fill:none;stroke:#9da0a2;stroke-width:1.32934;"/>
    <path clip-path="url(#peabddb14af)" d="M 321.57221 158.697553 
L 322.920443 158.697553 
" style="fill:none;stroke:#9da0a2;stroke-width:1.32934;"/>
    <path clip-path="url(#peabddb14af)" d="M 335.054542 162.928927 
L 336.402775 162.928927 
" style="fill:none;stroke:#9da0a2;stroke-width:1.32934;"/>
    <path clip-path="url(#peabddb14af)" d="M 348.536873 162.825989 
L 349.885106 162.825989 
" style="fill:none;stroke:#9da0a2;stroke-width:1.32934;"/>
    <path clip-path="url(#peabddb14af)" d="M 362.019205 167.579559 
L 363.367438 167.579559 
" style="fill:none;stroke:#9da0a2;stroke-width:1.32934;"/>
    <path clip-path="url(#peabddb14af)" d="M 375.501536 169.647837 
L 376.84977 169.647837 
" style="fill:none;stroke:#9da0a2;stroke-width:1.32934;"/>
    <path clip-path="url(#peabddb14af)" d="M 388.983868 175.543398 
L 390.332101 175.543398 
" style="fill:none;stroke:#9da0a2;stroke-width:1.32934;"/>
    <path clip-path="url(#peabddb14af)" d="M 402.4662 183.221459 
L 403.814433 183.221459 
" style="fill:none;stroke:#9da0a2;stroke-width:1.32934;"/>
    <path clip-path="url(#peabddb14af)" d="M 415.948531 182.537512 
L 417.296764 182.537512 
" style="fill:none;stroke:#9da0a2;stroke-width:1.32934;"/>
    <path clip-path="url(#peabddb14af)" d="M 429.430863 185.074705 
L 430.779096 185.074705 
" style="fill:none;stroke:#9da0a2;stroke-width:1.32934;"/>
    <path clip-path="url(#peabddb14af)" d="M 442.913195 188.663867 
L 444.261428 188.663867 
" style="fill:none;stroke:#9da0a2;stroke-width:1.32934;"/>
    <path clip-path="url(#peabddb14af)" d="M 456.395526 187.424353 
L 457.743759 187.424353 
" style="fill:none;stroke:#9da0a2;stroke-width:1.32934;"/>
    <path clip-path="url(#peabddb14af)" d="M 469.877858 196.54774 
L 471.226091 196.54774 
" style="fill:none;stroke:#9da0a2;stroke-width:1.32934;"/>
    <path clip-path="url(#peabddb14af)" d="M 66.082026 75.402725 
L 66.082026 78.596846 
" style="fill:none;stroke:#9da0a2;stroke-width:1.32934;"/>
    <path clip-path="url(#peabddb14af)" d="M 79.564357 76.739264 
L 79.564357 80.090464 
" style="fill:none;stroke:#9da0a2;stroke-width:1.32934;"/>
    <path clip-path="url(#peabddb14af)" d="M 93.046689 81.360363 
L 93.046689 83.741971 
" style="fill:none;stroke:#9da0a2;stroke-width:1.32934;"/>
    <path clip-path="url(#peabddb14af)" d="M 106.529021 79.047382 
L 106.529021 81.467405 
" style="fill:none;stroke:#9da0a2;stroke-width:1.32934;"/>
    <path clip-path="url(#peabddb14af)" d="M 120.011352 85.4971 
L 120.011352 87.123879 
" style="fill:none;stroke:#9da0a2;stroke-width:1.32934;"/>
    <path clip-path="url(#peabddb14af)" d="M 133.493684 89.482845 
L 133.493684 91.059955 
" style="fill:none;stroke:#9da0a2;stroke-width:1.32934;"/>
    <path clip-path="url(#peabddb14af)" d="M 146.976015 87.9892 
L 146.976015 89.182257 
" style="fill:none;stroke:#9da0a2;stroke-width:1.32934;"/>
    <path clip-path="url(#peabddb14af)" d="M 160.458347 94.483881 
L 160.458347 95.790464 
" style="fill:none;stroke:#9da0a2;stroke-width:1.32934;"/>
    <path clip-path="url(#peabddb14af)" d="M 173.940679 92.648879 
L 173.940679 93.566939 
" style="fill:none;stroke:#9da0a2;stroke-width:1.32934;"/>
    <path clip-path="url(#peabddb14af)" d="M 187.42301 102.28213 
L 187.42301 103.370147 
" style="fill:none;stroke:#9da0a2;stroke-width:1.32934;"/>
    <path clip-path="url(#peabddb14af)" d="M 200.905342 109.194079 
L 200.905342 110.055591 
" style="fill:none;stroke:#9da0a2;stroke-width:1.32934;"/>
    <path clip-path="url(#peabddb14af)" d="M 214.387674 115.349208 
L 214.387674 116.551794 
" style="fill:none;stroke:#9da0a2;stroke-width:1.32934;"/>
    <path clip-path="url(#peabddb14af)" d="M 227.870005 119.787071 
L 227.870005 120.820638 
" style="fill:none;stroke:#9da0a2;stroke-width:1.32934;"/>
    <path clip-path="url(#peabddb14af)" d="M 241.352337 130.290476 
L 241.352337 131.462502 
" style="fill:none;stroke:#9da0a2;stroke-width:1.32934;"/>
    <path clip-path="url(#peabddb14af)" d="M 254.834668 132.603005 
L 254.834668 133.752594 
" style="fill:none;stroke:#9da0a2;stroke-width:1.32934;"/>
    <path clip-path="url(#peabddb14af)" d="M 268.317 141.125842 
L 268.317 142.312437 
" style="fill:none;stroke:#9da0a2;stroke-width:1.32934;"/>
    <path clip-path="url(#peabddb14af)" d="M 281.799332 141.970658 
L 281.799332 143.203689 
" style="fill:none;stroke:#9da0a2;stroke-width:1.32934;"/>
    <path clip-path="url(#peabddb14af)" d="M 295.281663 148.288242 
L 295.281663 149.744058 
" style="fill:none;stroke:#9da0a2;stroke-width:1.32934;"/>
    <path clip-path="url(#peabddb14af)" d="M 308.763995 154.134733 
L 308.763995 155.396345 
" style="fill:none;stroke:#9da0a2;stroke-width:1.32934;"/>
    <path clip-path="url(#peabddb14af)" d="M 322.246326 158.697553 
L 322.246326 160.430347 
" style="fill:none;stroke:#9da0a2;stroke-width:1.32934;"/>
    <path clip-path="url(#peabddb14af)" d="M 335.728658 162.928927 
L 335.728658 164.466678 
" style="fill:none;stroke:#9da0a2;stroke-width:1.32934;"/>
    <path clip-path="url(#peabddb14af)" d="M 349.21099 162.825989 
L 349.21099 165.148857 
" style="fill:none;stroke:#9da0a2;stroke-width:1.32934;"/>
    <path clip-path="url(#peabddb14af)" d="M 362.693321 167.579559 
L 362.693321 169.627777 
" style="fill:none;stroke:#9da0a2;stroke-width:1.32934;"/>
    <path clip-path="url(#peabddb14af)" d="M 376.175653 169.647837 
L 376.175653 172.384416 
" style="fill:none;stroke:#9da0a2;stroke-width:1.32934;"/>
    <path clip-path="url(#peabddb14af)" d="M 389.657985 175.543398 
L 389.657985 178.424659 
" style="fill:none;stroke:#9da0a2;stroke-width:1.32934;"/>
    <path clip-path="url(#peabddb14af)" d="M 403.140316 183.221459 
L 403.140316 185.997743 
" style="fill:none;stroke:#9da0a2;stroke-width:1.32934;"/>
    <path clip-path="url(#peabddb14af)" d="M 416.622648 182.537512 
L 416.622648 186.227431 
" style="fill:none;stroke:#9da0a2;stroke-width:1.32934;"/>
    <path clip-path="url(#peabddb14af)" d="M 430.104979 185.074705 
L 430.104979 190.095602 
" style="fill:none;stroke:#9da0a2;stroke-width:1.32934;"/>
    <path clip-path="url(#peabddb14af)" d="M 443.587311 188.663867 
L 443.587311 192.481346 
" style="fill:none;stroke:#9da0a2;stroke-width:1.32934;"/>
    <path clip-path="url(#peabddb14af)" d="M 457.069643 187.424353 
L 457.069643 192.9262 
" style="fill:none;stroke:#9da0a2;stroke-width:1.32934;"/>
    <path clip-path="url(#peabddb14af)" d="M 470.551974 196.54774 
L 470.551974 198.630535 
" style="fill:none;stroke:#9da0a2;stroke-width:1.32934;"/>
   </g>
   <g id="line2d_17">
    <path clip-path="url(#peabddb14af)" d="M 66.082026 76.999785 
L 79.564357 78.414864 
L 93.046689 82.551167 
L 106.529021 80.257394 
L 120.011352 86.310489 
L 133.493684 90.2714 
L 146.976015 88.585729 
L 160.458347 95.137173 
L 173.940679 93.107909 
L 187.42301 102.826138 
L 200.905342 109.624835 
L 214.387674 115.950501 
L 227.870005 120.303855 
L 241.352337 130.876489 
L 254.834668 133.177799 
L 268.317 141.71914 
L 281.799332 142.587173 
L 295.281663 149.01615 
L 308.763995 154.765539 
L 322.246326 159.56395 
L 335.728658 163.697802 
L 349.21099 163.987423 
L 362.693321 168.603668 
L 376.175653 171.016127 
L 389.657985 176.984028 
L 403.140316 184.609601 
L 416.622648 184.382471 
L 430.104979 187.585154 
L 443.587311 190.572606 
L 457.069643 190.175277 
L 470.551974 197.589138 
" style="fill:none;stroke:#ee7733;stroke-width:0.886227;"/>
   </g>
   <g id="patch_3">
    <path d="M 45.117 228.96 
L 45.117 7.2 
" style="fill:none;stroke:#000000;stroke-linecap:square;stroke-linejoin:miter;"/>
   </g>
   <g id="patch_4">
    <path d="M 45.117 228.96 
L 491.517 228.96 
" style="fill:none;stroke:#000000;stroke-linecap:square;stroke-linejoin:miter;"/>
   </g>
   <g id="PathCollection_1">
    <path clip-path="url(#peabddb14af)" d="M 66.082026 78.772239 
C 66.552086 78.772239 67.002957 78.585482 67.33534 78.2531 
C 67.667723 77.920717 67.85448 77.469846 67.85448 76.999785 
C 67.85448 76.529725 67.667723 76.078854 67.33534 75.746471 
C 67.002957 75.414089 66.552086 75.227332 66.082026 75.227332 
C 65.611965 75.227332 65.161094 75.414089 64.828712 75.746471 
C 64.496329 76.078854 64.309572 76.529725 64.309572 76.999785 
C 64.309572 77.469846 64.496329 77.920717 64.828712 78.2531 
C 65.161094 78.585482 65.611965 78.772239 66.082026 78.772239 
z
" style="fill:#ee7733;stroke:#ee7733;stroke-width:0.886227;"/>
    <path clip-path="url(#peabddb14af)" d="M 79.564357 80.187318 
C 80.034418 80.187318 80.485289 80.000561 80.817671 79.668178 
C 81.150054 79.335796 81.336811 78.884925 81.336811 78.414864 
C 81.336811 77.944804 81.150054 77.493933 80.817671 77.16155 
C 80.485289 76.829167 80.034418 76.64241 79.564357 76.64241 
C 79.094297 76.64241 78.643426 76.829167 78.311043 77.16155 
C 77.97866 77.493933 77.791903 77.944804 77.791903 78.414864 
C 77.791903 78.884925 77.97866 79.335796 78.311043 79.668178 
C 78.643426 80.000561 79.094297 80.187318 79.564357 80.187318 
z
" style="fill:#ee7733;stroke:#ee7733;stroke-width:0.886227;"/>
    <path clip-path="url(#peabddb14af)" d="M 93.046689 84.32362 
C 93.516749 84.32362 93.96762 84.136864 94.300003 83.804481 
C 94.632386 83.472098 94.819143 83.021227 94.819143 82.551167 
C 94.819143 82.081106 94.632386 81.630235 94.300003 81.297853 
C 93.96762 80.96547 93.516749 80.778713 93.046689 80.778713 
C 92.576629 80.778713 92.125758 80.96547 91.793375 81.297853 
C 91.460992 81.630235 91.274235 82.081106 91.274235 82.551167 
C 91.274235 83.021227 91.460992 83.472098 91.793375 83.804481 
C 92.125758 84.136864 92.576629 84.32362 93.046689 84.32362 
z
" style="fill:#ee7733;stroke:#ee7733;stroke-width:0.886227;"/>
    <path clip-path="url(#peabddb14af)" d="M 106.529021 82.029848 
C 106.999081 82.029848 107.449952 81.843091 107.782335 81.510708 
C 108.114717 81.178325 108.301474 80.727454 108.301474 80.257394 
C 108.301474 79.787333 108.114717 79.336462 107.782335 79.00408 
C 107.449952 78.671697 106.999081 78.48494 106.529021 78.48494 
C 106.05896 78.48494 105.608089 78.671697 105.275706 79.00408 
C 104.943324 79.336462 104.756567 79.787333 104.756567 80.257394 
C 104.756567 80.727454 104.943324 81.178325 105.275706 81.510708 
C 105.608089 81.843091 106.05896 82.029848 106.529021 82.029848 
z
" style="fill:#ee7733;stroke:#ee7733;stroke-width:0.886227;"/>
    <path clip-path="url(#peabddb14af)" d="M 120.011352 88.082943 
C 120.481412 88.082943 120.932284 87.896186 121.264666 87.563804 
C 121.597049 87.231421 121.783806 86.78055 121.783806 86.310489 
C 121.783806 85.840429 121.597049 85.389558 121.264666 85.057175 
C 120.932284 84.724792 120.481412 84.538036 120.011352 84.538036 
C 119.541292 84.538036 119.090421 84.724792 118.758038 85.057175 
C 118.425655 85.389558 118.238898 85.840429 118.238898 86.310489 
C 118.238898 86.78055 118.425655 87.231421 118.758038 87.563804 
C 119.090421 87.896186 119.541292 88.082943 120.011352 88.082943 
z
" style="fill:#ee7733;stroke:#ee7733;stroke-width:0.886227;"/>
    <path clip-path="url(#peabddb14af)" d="M 133.493684 92.043854 
C 133.963744 92.043854 134.414615 91.857097 134.746998 91.524714 
C 135.079381 91.192332 135.266138 90.74146 135.266138 90.2714 
C 135.266138 89.80134 135.079381 89.350469 134.746998 89.018086 
C 134.414615 88.685703 133.963744 88.498946 133.493684 88.498946 
C 133.023624 88.498946 132.572752 88.685703 132.24037 89.018086 
C 131.907987 89.350469 131.72123 89.80134 131.72123 90.2714 
C 131.72123 90.74146 131.907987 91.192332 132.24037 91.524714 
C 132.572752 91.857097 133.023624 92.043854 133.493684 92.043854 
z
" style="fill:#ee7733;stroke:#ee7733;stroke-width:0.886227;"/>
    <path clip-path="url(#peabddb14af)" d="M 146.976015 90.358182 
C 147.446076 90.358182 147.896947 90.171426 148.22933 89.839043 
C 148.561712 89.50666 148.748469 89.055789 148.748469 88.585729 
C 148.748469 88.115668 148.561712 87.664797 148.22933 87.332414 
C 147.896947 87.000032 147.446076 86.813275 146.976015 86.813275 
C 146.505955 86.813275 146.055084 87.000032 145.722701 87.332414 
C 145.390318 87.664797 145.203562 88.115668 145.203562 88.585729 
C 145.203562 89.055789 145.390318 89.50666 145.722701 89.839043 
C 146.055084 90.171426 146.505955 90.358182 146.976015 90.358182 
z
" style="fill:#ee7733;stroke:#ee7733;stroke-width:0.886227;"/>
    <path clip-path="url(#peabddb14af)" d="M 160.458347 96.909626 
C 160.928407 96.909626 161.379278 96.72287 161.711661 96.390487 
C 162.044044 96.058104 162.230801 95.607233 162.230801 95.137173 
C 162.230801 94.667112 162.044044 94.216241 161.711661 93.883858 
C 161.379278 93.551476 160.928407 93.364719 160.458347 93.364719 
C 159.988287 93.364719 159.537416 93.551476 159.205033 93.883858 
C 158.87265 94.216241 158.685893 94.667112 158.685893 95.137173 
C 158.685893 95.607233 158.87265 96.058104 159.205033 96.390487 
C 159.537416 96.72287 159.988287 96.909626 160.458347 96.909626 
z
" style="fill:#ee7733;stroke:#ee7733;stroke-width:0.886227;"/>
    <path clip-path="url(#peabddb14af)" d="M 173.940679 94.880363 
C 174.410739 94.880363 174.86161 94.693606 175.193993 94.361223 
C 175.526376 94.02884 175.713132 93.577969 175.713132 93.107909 
C 175.713132 92.637849 175.526376 92.186978 175.193993 91.854595 
C 174.86161 91.522212 174.410739 91.335455 173.940679 91.335455 
C 173.470618 91.335455 173.019747 91.522212 172.687365 91.854595 
C 172.354982 92.186978 172.168225 92.637849 172.168225 93.107909 
C 172.168225 93.577969 172.354982 94.02884 172.687365 94.361223 
C 173.019747 94.693606 173.470618 94.880363 173.940679 94.880363 
z
" style="fill:#ee7733;stroke:#ee7733;stroke-width:0.886227;"/>
    <path clip-path="url(#peabddb14af)" d="M 187.42301 104.598592 
C 187.893071 104.598592 188.343942 104.411835 188.676324 104.079453 
C 189.008707 103.74707 189.195464 103.296199 189.195464 102.826138 
C 189.195464 102.356078 189.008707 101.905207 188.676324 101.572824 
C 188.343942 101.240442 187.893071 101.053685 187.42301 101.053685 
C 186.95295 101.053685 186.502079 101.240442 186.169696 101.572824 
C 185.837313 101.905207 185.650556 102.356078 185.650556 102.826138 
C 185.650556 103.296199 185.837313 103.74707 186.169696 104.079453 
C 186.502079 104.411835 186.95295 104.598592 187.42301 104.598592 
z
" style="fill:#ee7733;stroke:#ee7733;stroke-width:0.886227;"/>
    <path clip-path="url(#peabddb14af)" d="M 200.905342 111.397289 
C 201.375402 111.397289 201.826273 111.210532 202.158656 110.878149 
C 202.491039 110.545766 202.677796 110.094895 202.677796 109.624835 
C 202.677796 109.154775 202.491039 108.703904 202.158656 108.371521 
C 201.826273 108.039138 201.375402 107.852381 200.905342 107.852381 
C 200.435282 107.852381 199.984411 108.039138 199.652028 108.371521 
C 199.319645 108.703904 199.132888 109.154775 199.132888 109.624835 
C 199.132888 110.094895 199.319645 110.545766 199.652028 110.878149 
C 199.984411 111.210532 200.435282 111.397289 200.905342 111.397289 
z
" style="fill:#ee7733;stroke:#ee7733;stroke-width:0.886227;"/>
    <path clip-path="url(#peabddb14af)" d="M 214.387674 117.722955 
C 214.857734 117.722955 215.308605 117.536198 215.640988 117.203815 
C 215.97337 116.871433 216.160127 116.420561 216.160127 115.950501 
C 216.160127 115.480441 215.97337 115.02957 215.640988 114.697187 
C 215.308605 114.364804 214.857734 114.178047 214.387674 114.178047 
C 213.917613 114.178047 213.466742 114.364804 213.134359 114.697187 
C 212.801977 115.02957 212.61522 115.480441 212.61522 115.950501 
C 212.61522 116.420561 212.801977 116.871433 213.134359 117.203815 
C 213.466742 117.536198 213.917613 117.722955 214.387674 117.722955 
z
" style="fill:#ee7733;stroke:#ee7733;stroke-width:0.886227;"/>
    <path clip-path="url(#peabddb14af)" d="M 227.870005 122.076309 
C 228.340065 122.076309 228.790936 121.889552 229.123319 121.557169 
C 229.455702 121.224786 229.642459 120.773915 229.642459 120.303855 
C 229.642459 119.833795 229.455702 119.382924 229.123319 119.050541 
C 228.790936 118.718158 228.340065 118.531401 227.870005 118.531401 
C 227.399945 118.531401 226.949074 118.718158 226.616691 119.050541 
C 226.284308 119.382924 226.097551 119.833795 226.097551 120.303855 
C 226.097551 120.773915 226.284308 121.224786 226.616691 121.557169 
C 226.949074 121.889552 227.399945 122.076309 227.870005 122.076309 
z
" style="fill:#ee7733;stroke:#ee7733;stroke-width:0.886227;"/>
    <path clip-path="url(#peabddb14af)" d="M 241.352337 132.648943 
C 241.822397 132.648943 242.273268 132.462186 242.605651 132.129803 
C 242.938034 131.797421 243.124791 131.346549 243.124791 130.876489 
C 243.124791 130.406429 242.938034 129.955558 242.605651 129.623175 
C 242.273268 129.290792 241.822397 129.104035 241.352337 129.104035 
C 240.882277 129.104035 240.431405 129.290792 240.099023 129.623175 
C 239.76664 129.955558 239.579883 130.406429 239.579883 130.876489 
C 239.579883 131.346549 239.76664 131.797421 240.099023 132.129803 
C 240.431405 132.462186 240.882277 132.648943 241.352337 132.648943 
z
" style="fill:#ee7733;stroke:#ee7733;stroke-width:0.886227;"/>
    <path clip-path="url(#peabddb14af)" d="M 254.834668 134.950253 
C 255.304729 134.950253 255.7556 134.763496 256.087983 134.431114 
C 256.420365 134.098731 256.607122 133.64786 256.607122 133.177799 
C 256.607122 132.707739 256.420365 132.256868 256.087983 131.924485 
C 255.7556 131.592103 255.304729 131.405346 254.834668 131.405346 
C 254.364608 131.405346 253.913737 131.592103 253.581354 131.924485 
C 253.248971 132.256868 253.062215 132.707739 253.062215 133.177799 
C 253.062215 133.64786 253.248971 134.098731 253.581354 134.431114 
C 253.913737 134.763496 254.364608 134.950253 254.834668 134.950253 
z
" style="fill:#ee7733;stroke:#ee7733;stroke-width:0.886227;"/>
    <path clip-path="url(#peabddb14af)" d="M 268.317 143.491594 
C 268.78706 143.491594 269.237931 143.304837 269.570314 142.972454 
C 269.902697 142.640071 270.089454 142.1892 270.089454 141.71914 
C 270.089454 141.249079 269.902697 140.798208 269.570314 140.465826 
C 269.237931 140.133443 268.78706 139.946686 268.317 139.946686 
C 267.84694 139.946686 267.396069 140.133443 267.063686 140.465826 
C 266.731303 140.798208 266.544546 141.249079 266.544546 141.71914 
C 266.544546 142.1892 266.731303 142.640071 267.063686 142.972454 
C 267.396069 143.304837 267.84694 143.491594 268.317 143.491594 
z
" style="fill:#ee7733;stroke:#ee7733;stroke-width:0.886227;"/>
    <path clip-path="url(#peabddb14af)" d="M 281.799332 144.359627 
C 282.269392 144.359627 282.720263 144.17287 283.052646 143.840487 
C 283.385029 143.508105 283.571785 143.057233 283.571785 142.587173 
C 283.571785 142.117113 283.385029 141.666242 283.052646 141.333859 
C 282.720263 141.001476 282.269392 140.814719 281.799332 140.814719 
C 281.329271 140.814719 280.8784 141.001476 280.546017 141.333859 
C 280.213635 141.666242 280.026878 142.117113 280.026878 142.587173 
C 280.026878 143.057233 280.213635 143.508105 280.546017 143.840487 
C 280.8784 144.17287 281.329271 144.359627 281.799332 144.359627 
z
" style="fill:#ee7733;stroke:#ee7733;stroke-width:0.886227;"/>
    <path clip-path="url(#peabddb14af)" d="M 295.281663 150.788604 
C 295.751723 150.788604 296.202595 150.601847 296.534977 150.269464 
C 296.86736 149.937081 297.054117 149.48621 297.054117 149.01615 
C 297.054117 148.54609 296.86736 148.095219 296.534977 147.762836 
C 296.202595 147.430453 295.751723 147.243696 295.281663 147.243696 
C 294.811603 147.243696 294.360732 147.430453 294.028349 147.762836 
C 293.695966 148.095219 293.509209 148.54609 293.509209 149.01615 
C 293.509209 149.48621 293.695966 149.937081 294.028349 150.269464 
C 294.360732 150.601847 294.811603 150.788604 295.281663 150.788604 
z
" style="fill:#ee7733;stroke:#ee7733;stroke-width:0.886227;"/>
    <path clip-path="url(#peabddb14af)" d="M 308.763995 156.537993 
C 309.234055 156.537993 309.684926 156.351236 310.017309 156.018853 
C 310.349692 155.68647 310.536449 155.235599 310.536449 154.765539 
C 310.536449 154.295479 310.349692 153.844608 310.017309 153.512225 
C 309.684926 153.179842 309.234055 152.993085 308.763995 152.993085 
C 308.293935 152.993085 307.843064 153.179842 307.510681 153.512225 
C 307.178298 153.844608 306.991541 154.295479 306.991541 154.765539 
C 306.991541 155.235599 307.178298 155.68647 307.510681 156.018853 
C 307.843064 156.351236 308.293935 156.537993 308.763995 156.537993 
z
" style="fill:#ee7733;stroke:#ee7733;stroke-width:0.886227;"/>
    <path clip-path="url(#peabddb14af)" d="M 322.246326 161.336404 
C 322.716387 161.336404 323.167258 161.149647 323.499641 160.817264 
C 323.832023 160.484881 324.01878 160.03401 324.01878 159.56395 
C 324.01878 159.09389 323.832023 158.643019 323.499641 158.310636 
C 323.167258 157.978253 322.716387 157.791496 322.246326 157.791496 
C 321.776266 157.791496 321.325395 157.978253 320.993012 158.310636 
C 320.66063 158.643019 320.473873 159.09389 320.473873 159.56395 
C 320.473873 160.03401 320.66063 160.484881 320.993012 160.817264 
C 321.325395 161.149647 321.776266 161.336404 322.246326 161.336404 
z
" style="fill:#ee7733;stroke:#ee7733;stroke-width:0.886227;"/>
    <path clip-path="url(#peabddb14af)" d="M 335.728658 165.470256 
C 336.198718 165.470256 336.649589 165.283499 336.981972 164.951116 
C 337.314355 164.618734 337.501112 164.167863 337.501112 163.697802 
C 337.501112 163.227742 337.314355 162.776871 336.981972 162.444488 
C 336.649589 162.112105 336.198718 161.925348 335.728658 161.925348 
C 335.258598 161.925348 334.807727 162.112105 334.475344 162.444488 
C 334.142961 162.776871 333.956204 163.227742 333.956204 163.697802 
C 333.956204 164.167863 334.142961 164.618734 334.475344 164.951116 
C 334.807727 165.283499 335.258598 165.470256 335.728658 165.470256 
z
" style="fill:#ee7733;stroke:#ee7733;stroke-width:0.886227;"/>
    <path clip-path="url(#peabddb14af)" d="M 349.21099 165.759877 
C 349.68105 165.759877 350.131921 165.57312 350.464304 165.240737 
C 350.796687 164.908354 350.983444 164.457483 350.983444 163.987423 
C 350.983444 163.517363 350.796687 163.066492 350.464304 162.734109 
C 350.131921 162.401726 349.68105 162.214969 349.21099 162.214969 
C 348.740929 162.214969 348.290058 162.401726 347.957676 162.734109 
C 347.625293 163.066492 347.438536 163.517363 347.438536 163.987423 
C 347.438536 164.457483 347.625293 164.908354 347.957676 165.240737 
C 348.290058 165.57312 348.740929 165.759877 349.21099 165.759877 
z
" style="fill:#ee7733;stroke:#ee7733;stroke-width:0.886227;"/>
    <path clip-path="url(#peabddb14af)" d="M 362.693321 170.376122 
C 363.163382 170.376122 363.614253 170.189365 363.946635 169.856982 
C 364.279018 169.5246 364.465775 169.073728 364.465775 168.603668 
C 364.465775 168.133608 364.279018 167.682737 363.946635 167.350354 
C 363.614253 167.017971 363.163382 166.831214 362.693321 166.831214 
C 362.223261 166.831214 361.77239 167.017971 361.440007 167.350354 
C 361.107624 167.682737 360.920868 168.133608 360.920868 168.603668 
C 360.920868 169.073728 361.107624 169.5246 361.440007 169.856982 
C 361.77239 170.189365 362.223261 170.376122 362.693321 170.376122 
z
" style="fill:#ee7733;stroke:#ee7733;stroke-width:0.886227;"/>
    <path clip-path="url(#peabddb14af)" d="M 376.175653 172.78858 
C 376.645713 172.78858 377.096584 172.601824 377.428967 172.269441 
C 377.76135 171.937058 377.948107 171.486187 377.948107 171.016127 
C 377.948107 170.546066 377.76135 170.095195 377.428967 169.762812 
C 377.096584 169.43043 376.645713 169.243673 376.175653 169.243673 
C 375.705593 169.243673 375.254722 169.43043 374.922339 169.762812 
C 374.589956 170.095195 374.403199 170.546066 374.403199 171.016127 
C 374.403199 171.486187 374.589956 171.937058 374.922339 172.269441 
C 375.254722 172.601824 375.705593 172.78858 376.175653 172.78858 
z
" style="fill:#ee7733;stroke:#ee7733;stroke-width:0.886227;"/>
    <path clip-path="url(#peabddb14af)" d="M 389.657985 178.756482 
C 390.128045 178.756482 390.578916 178.569725 390.911299 178.237343 
C 391.243682 177.90496 391.430438 177.454089 391.430438 176.984028 
C 391.430438 176.513968 391.243682 176.063097 390.911299 175.730714 
C 390.578916 175.398332 390.128045 175.211575 389.657985 175.211575 
C 389.187924 175.211575 388.737053 175.398332 388.40467 175.730714 
C 388.072288 176.063097 387.885531 176.513968 387.885531 176.984028 
C 387.885531 177.454089 388.072288 177.90496 388.40467 178.237343 
C 388.737053 178.569725 389.187924 178.756482 389.657985 178.756482 
z
" style="fill:#ee7733;stroke:#ee7733;stroke-width:0.886227;"/>
    <path clip-path="url(#peabddb14af)" d="M 403.140316 186.382055 
C 403.610376 186.382055 404.061248 186.195298 404.39363 185.862915 
C 404.726013 185.530533 404.91277 185.079662 404.91277 184.609601 
C 404.91277 184.139541 404.726013 183.68867 404.39363 183.356287 
C 404.061248 183.023904 403.610376 182.837147 403.140316 182.837147 
C 402.670256 182.837147 402.219385 183.023904 401.887002 183.356287 
C 401.554619 183.68867 401.367862 184.139541 401.367862 184.609601 
C 401.367862 185.079662 401.554619 185.530533 401.887002 185.862915 
C 402.219385 186.195298 402.670256 186.382055 403.140316 186.382055 
z
" style="fill:#ee7733;stroke:#ee7733;stroke-width:0.886227;"/>
    <path clip-path="url(#peabddb14af)" d="M 416.622648 186.154925 
C 417.092708 186.154925 417.543579 185.968168 417.875962 185.635786 
C 418.208345 185.303403 418.395102 184.852532 418.395102 184.382471 
C 418.395102 183.912411 418.208345 183.46154 417.875962 183.129157 
C 417.543579 182.796774 417.092708 182.610018 416.622648 182.610018 
C 416.152588 182.610018 415.701716 182.796774 415.369334 183.129157 
C 415.036951 183.46154 414.850194 183.912411 414.850194 184.382471 
C 414.850194 184.852532 415.036951 185.303403 415.369334 185.635786 
C 415.701716 185.968168 416.152588 186.154925 416.622648 186.154925 
z
" style="fill:#ee7733;stroke:#ee7733;stroke-width:0.886227;"/>
    <path clip-path="url(#peabddb14af)" d="M 430.104979 189.357608 
C 430.57504 189.357608 431.025911 189.170851 431.358294 188.838468 
C 431.690676 188.506085 431.877433 188.055214 431.877433 187.585154 
C 431.877433 187.115094 431.690676 186.664223 431.358294 186.33184 
C 431.025911 185.999457 430.57504 185.8127 430.104979 185.8127 
C 429.634919 185.8127 429.184048 185.999457 428.851665 186.33184 
C 428.519283 186.664223 428.332526 187.115094 428.332526 187.585154 
C 428.332526 188.055214 428.519283 188.506085 428.851665 188.838468 
C 429.184048 189.170851 429.634919 189.357608 430.104979 189.357608 
z
" style="fill:#ee7733;stroke:#ee7733;stroke-width:0.886227;"/>
    <path clip-path="url(#peabddb14af)" d="M 443.587311 192.34506 
C 444.057371 192.34506 444.508242 192.158303 444.840625 191.82592 
C 445.173008 191.493538 445.359765 191.042667 445.359765 190.572606 
C 445.359765 190.102546 445.173008 189.651675 444.840625 189.319292 
C 444.508242 188.986909 444.057371 188.800152 443.587311 188.800152 
C 443.117251 188.800152 442.66638 188.986909 442.333997 189.319292 
C 442.001614 189.651675 441.814857 190.102546 441.814857 190.572606 
C 441.814857 191.042667 442.001614 191.493538 442.333997 191.82592 
C 442.66638 192.158303 443.117251 192.34506 443.587311 192.34506 
z
" style="fill:#ee7733;stroke:#ee7733;stroke-width:0.886227;"/>
    <path clip-path="url(#peabddb14af)" d="M 457.069643 191.947731 
C 457.539703 191.947731 457.990574 191.760974 458.322957 191.428591 
C 458.65534 191.096208 458.842097 190.645337 458.842097 190.175277 
C 458.842097 189.705217 458.65534 189.254345 458.322957 188.921963 
C 457.990574 188.58958 457.539703 188.402823 457.069643 188.402823 
C 456.599582 188.402823 456.148711 188.58958 455.816329 188.921963 
C 455.483946 189.254345 455.297189 189.705217 455.297189 190.175277 
C 455.297189 190.645337 455.483946 191.096208 455.816329 191.428591 
C 456.148711 191.760974 456.599582 191.947731 457.069643 191.947731 
z
" style="fill:#ee7733;stroke:#ee7733;stroke-width:0.886227;"/>
    <path clip-path="url(#peabddb14af)" d="M 470.551974 199.361591 
C 471.022035 199.361591 471.472906 199.174835 471.805288 198.842452 
C 472.137671 198.510069 472.324428 198.059198 472.324428 197.589138 
C 472.324428 197.119077 472.137671 196.668206 471.805288 196.335823 
C 471.472906 196.003441 471.022035 195.816684 470.551974 195.816684 
C 470.081914 195.816684 469.631043 196.003441 469.29866 196.335823 
C 468.966277 196.668206 468.77952 197.119077 468.77952 197.589138 
C 468.77952 198.059198 468.966277 198.510069 469.29866 198.842452 
C 469.631043 199.174835 470.081914 199.361591 470.551974 199.361591 
z
" style="fill:#ee7733;stroke:#ee7733;stroke-width:0.886227;"/>
   </g>
  </g>
 </g>
 <defs>
  <clipPath id="peabddb14af">
   <rect height="221.76" width="446.4" x="45.117" y="7.2"/>
  </clipPath>
 </defs>
</svg>
