<?xml version="1.0" encoding="utf-8" standalone="no"?>
<!DOCTYPE svg PUBLIC "-//W3C//DTD SVG 1.1//EN"
  "http://www.w3.org/Graphics/SVG/1.1/DTD/svg11.dtd">
<!-- Created with matplotlib (https://matplotlib.org/) -->
<svg height="283.578058pt" version="1.1" viewBox="0 0 500.389687 283.578058" width="500.389687pt" xmlns="http://www.w3.org/2000/svg" xmlns:xlink="http://www.w3.org/1999/xlink">
 <defs>
  <style type="text/css">
*{stroke-linecap:butt;stroke-linejoin:round;}
  </style>
 </defs>
 <g id="figure_1">
  <g id="patch_1">
   <path d="M 0 283.578058 
L 500.389687 283.578058 
L 500.389687 0 
L 0 0 
z
" style="fill:#ffffff;stroke:#ffffff;stroke-linejoin:miter;"/>
  </g>
  <g id="axes_1">
   <g id="patch_2">
    <path d="M 46.789687 247.865371 
L 493.189687 247.865371 
L 493.189687 26.105371 
L 46.789687 26.105371 
z
" style="fill:#ffffff;stroke:#7f7f7f;stroke-linejoin:miter;"/>
   </g>
   <g id="matplotlib.axis_1">
    <g id="xtick_1">
     <g id="line2d_1">
      <path clip-path="url(#pc71bab2910)" d="M 67.080597 247.865371 
L 67.080597 26.105371 
" style="fill:none;stroke:#e5e5e5;stroke-width:0.8;"/>
     </g>
     <g id="line2d_2">
      <path d="M 67.080597 247.865371 
" style="fill:none;stroke:#000000;stroke-width:1.5;"/>
      <defs>
       <path d="M 0 0 
L 0 2.75 
" id="mf890f6b27f" style="stroke:#000000;"/>
      </defs>
      <g>
       <use style="stroke:#000000;" x="67.080597" xlink:href="#mf890f6b27f" y="247.865371"/>
      </g>
     </g>
     <g id="text_1">
      <!-- 1 -->
      <defs>
       <path d="M 12.40625 8.296875 
L 28.515625 8.296875 
L 28.515625 63.921875 
L 10.984375 60.40625 
L 10.984375 69.390625 
L 28.421875 72.90625 
L 38.28125 72.90625 
L 38.28125 8.296875 
L 54.390625 8.296875 
L 54.390625 0 
L 12.40625 0 
z
" id="DejaVuSans-49"/>
      </defs>
      <g style="fill:#4d4d4d;" transform="translate(64.281097 259.501996)scale(0.088 -0.088)">
       <use xlink:href="#DejaVuSans-49"/>
      </g>
     </g>
    </g>
    <g id="xtick_2">
     <g id="line2d_3">
      <path clip-path="url(#pc71bab2910)" d="M 202.353324 247.865371 
L 202.353324 26.105371 
" style="fill:none;stroke:#e5e5e5;stroke-width:0.8;"/>
     </g>
     <g id="line2d_4">
      <path d="M 202.353324 247.865371 
" style="fill:none;stroke:#000000;stroke-width:1.5;"/>
      <g>
       <use style="stroke:#000000;" x="202.353324" xlink:href="#mf890f6b27f" y="247.865371"/>
      </g>
     </g>
     <g id="text_2">
      <!-- 2 -->
      <defs>
       <path d="M 19.1875 8.296875 
L 53.609375 8.296875 
L 53.609375 0 
L 7.328125 0 
L 7.328125 8.296875 
Q 12.9375 14.109375 22.625 23.890625 
Q 32.328125 33.6875 34.8125 36.53125 
Q 39.546875 41.84375 41.421875 45.53125 
Q 43.3125 49.21875 43.3125 52.78125 
Q 43.3125 58.59375 39.234375 62.25 
Q 35.15625 65.921875 28.609375 65.921875 
Q 23.96875 65.921875 18.8125 64.3125 
Q 13.671875 62.703125 7.8125 59.421875 
L 7.8125 69.390625 
Q 13.765625 71.78125 18.9375 73 
Q 24.125 74.21875 28.421875 74.21875 
Q 39.75 74.21875 46.484375 68.546875 
Q 53.21875 62.890625 53.21875 53.421875 
Q 53.21875 48.921875 51.53125 44.890625 
Q 49.859375 40.875 45.40625 35.40625 
Q 44.1875 33.984375 37.640625 27.21875 
Q 31.109375 20.453125 19.1875 8.296875 
z
" id="DejaVuSans-50"/>
      </defs>
      <g style="fill:#4d4d4d;" transform="translate(199.553824 259.501996)scale(0.088 -0.088)">
       <use xlink:href="#DejaVuSans-50"/>
      </g>
     </g>
    </g>
    <g id="xtick_3">
     <g id="line2d_5">
      <path clip-path="url(#pc71bab2910)" d="M 337.626051 247.865371 
L 337.626051 26.105371 
" style="fill:none;stroke:#e5e5e5;stroke-width:0.8;"/>
     </g>
     <g id="line2d_6">
      <path d="M 337.626051 247.865371 
" style="fill:none;stroke:#000000;stroke-width:1.5;"/>
      <g>
       <use style="stroke:#000000;" x="337.626051" xlink:href="#mf890f6b27f" y="247.865371"/>
      </g>
     </g>
     <g id="text_3">
      <!-- 3 -->
      <defs>
       <path d="M 40.578125 39.3125 
Q 47.65625 37.796875 51.625 33 
Q 55.609375 28.21875 55.609375 21.1875 
Q 55.609375 10.40625 48.1875 4.484375 
Q 40.765625 -1.421875 27.09375 -1.421875 
Q 22.515625 -1.421875 17.65625 -0.515625 
Q 12.796875 0.390625 7.625 2.203125 
L 7.625 11.71875 
Q 11.71875 9.328125 16.59375 8.109375 
Q 21.484375 6.890625 26.8125 6.890625 
Q 36.078125 6.890625 40.9375 10.546875 
Q 45.796875 14.203125 45.796875 21.1875 
Q 45.796875 27.640625 41.28125 31.265625 
Q 36.765625 34.90625 28.71875 34.90625 
L 20.21875 34.90625 
L 20.21875 43.015625 
L 29.109375 43.015625 
Q 36.375 43.015625 40.234375 45.921875 
Q 44.09375 48.828125 44.09375 54.296875 
Q 44.09375 59.90625 40.109375 62.90625 
Q 36.140625 65.921875 28.71875 65.921875 
Q 24.65625 65.921875 20.015625 65.03125 
Q 15.375 64.15625 9.8125 62.3125 
L 9.8125 71.09375 
Q 15.4375 72.65625 20.34375 73.4375 
Q 25.25 74.21875 29.59375 74.21875 
Q 40.828125 74.21875 47.359375 69.109375 
Q 53.90625 64.015625 53.90625 55.328125 
Q 53.90625 49.265625 50.4375 45.09375 
Q 46.96875 40.921875 40.578125 39.3125 
z
" id="DejaVuSans-51"/>
      </defs>
      <g style="fill:#4d4d4d;" transform="translate(334.826551 259.501996)scale(0.088 -0.088)">
       <use xlink:href="#DejaVuSans-51"/>
      </g>
     </g>
    </g>
    <g id="xtick_4">
     <g id="line2d_7">
      <path clip-path="url(#pc71bab2910)" d="M 472.898778 247.865371 
L 472.898778 26.105371 
" style="fill:none;stroke:#e5e5e5;stroke-width:0.8;"/>
     </g>
     <g id="line2d_8">
      <path d="M 472.898778 247.865371 
" style="fill:none;stroke:#000000;stroke-width:1.5;"/>
      <g>
       <use style="stroke:#000000;" x="472.898778" xlink:href="#mf890f6b27f" y="247.865371"/>
      </g>
     </g>
     <g id="text_4">
      <!-- 4 -->
      <defs>
       <path d="M 37.796875 64.3125 
L 12.890625 25.390625 
L 37.796875 25.390625 
z
M 35.203125 72.90625 
L 47.609375 72.90625 
L 47.609375 25.390625 
L 58.015625 25.390625 
L 58.015625 17.1875 
L 47.609375 17.1875 
L 47.609375 0 
L 37.796875 0 
L 37.796875 17.1875 
L 4.890625 17.1875 
L 4.890625 26.703125 
z
" id="DejaVuSans-52"/>
      </defs>
      <g style="fill:#4d4d4d;" transform="translate(470.099278 259.501996)scale(0.088 -0.088)">
       <use xlink:href="#DejaVuSans-52"/>
      </g>
     </g>
    </g>
    <g id="xtick_5">
     <g id="line2d_9">
      <path clip-path="url(#pc71bab2910)" d="M 134.71696 247.865371 
L 134.71696 26.105371 
" style="fill:none;stroke:#fafafa;"/>
     </g>
     <g id="line2d_10">
      <path d="M 134.71696 247.865371 
" style="fill:none;stroke:#000000;stroke-width:1.5;"/>
      <defs>
       <path d="M 0 0 
L 0 1.375 
" id="ma4736701c7" style="stroke:#000000;"/>
      </defs>
      <g>
       <use style="stroke:#000000;" x="134.71696" xlink:href="#ma4736701c7" y="247.865371"/>
      </g>
     </g>
    </g>
    <g id="xtick_6">
     <g id="line2d_11">
      <path clip-path="url(#pc71bab2910)" d="M 269.989688 247.865371 
L 269.989688 26.105371 
" style="fill:none;stroke:#fafafa;"/>
     </g>
     <g id="line2d_12">
      <path d="M 269.989688 247.865371 
" style="fill:none;stroke:#000000;stroke-width:1.5;"/>
      <g>
       <use style="stroke:#000000;" x="269.989688" xlink:href="#ma4736701c7" y="247.865371"/>
      </g>
     </g>
    </g>
    <g id="xtick_7">
     <g id="line2d_13">
      <path clip-path="url(#pc71bab2910)" d="M 405.262415 247.865371 
L 405.262415 26.105371 
" style="fill:none;stroke:#fafafa;"/>
     </g>
     <g id="line2d_14">
      <path d="M 405.262415 247.865371 
" style="fill:none;stroke:#000000;stroke-width:1.5;"/>
      <g>
       <use style="stroke:#000000;" x="405.262415" xlink:href="#ma4736701c7" y="247.865371"/>
      </g>
     </g>
    </g>
    <g id="text_5">
     <!-- Resolution -->
     <defs>
      <path d="M 44.390625 34.1875 
Q 47.5625 33.109375 50.5625 29.59375 
Q 53.5625 26.078125 56.59375 19.921875 
L 66.609375 0 
L 56 0 
L 46.6875 18.703125 
Q 43.0625 26.03125 39.671875 28.421875 
Q 36.28125 30.8125 30.421875 30.8125 
L 19.671875 30.8125 
L 19.671875 0 
L 9.8125 0 
L 9.8125 72.90625 
L 32.078125 72.90625 
Q 44.578125 72.90625 50.734375 67.671875 
Q 56.890625 62.453125 56.890625 51.90625 
Q 56.890625 45.015625 53.6875 40.46875 
Q 50.484375 35.9375 44.390625 34.1875 
z
M 19.671875 64.796875 
L 19.671875 38.921875 
L 32.078125 38.921875 
Q 39.203125 38.921875 42.84375 42.21875 
Q 46.484375 45.515625 46.484375 51.90625 
Q 46.484375 58.296875 42.84375 61.546875 
Q 39.203125 64.796875 32.078125 64.796875 
z
" id="DejaVuSans-82"/>
      <path d="M 56.203125 29.59375 
L 56.203125 25.203125 
L 14.890625 25.203125 
Q 15.484375 15.921875 20.484375 11.0625 
Q 25.484375 6.203125 34.421875 6.203125 
Q 39.59375 6.203125 44.453125 7.46875 
Q 49.3125 8.734375 54.109375 11.28125 
L 54.109375 2.78125 
Q 49.265625 0.734375 44.1875 -0.34375 
Q 39.109375 -1.421875 33.890625 -1.421875 
Q 20.796875 -1.421875 13.15625 6.1875 
Q 5.515625 13.8125 5.515625 26.8125 
Q 5.515625 40.234375 12.765625 48.109375 
Q 20.015625 56 32.328125 56 
Q 43.359375 56 49.78125 48.890625 
Q 56.203125 41.796875 56.203125 29.59375 
z
M 47.21875 32.234375 
Q 47.125 39.59375 43.09375 43.984375 
Q 39.0625 48.390625 32.421875 48.390625 
Q 24.90625 48.390625 20.390625 44.140625 
Q 15.875 39.890625 15.1875 32.171875 
z
" id="DejaVuSans-101"/>
      <path d="M 44.28125 53.078125 
L 44.28125 44.578125 
Q 40.484375 46.53125 36.375 47.5 
Q 32.28125 48.484375 27.875 48.484375 
Q 21.1875 48.484375 17.84375 46.4375 
Q 14.5 44.390625 14.5 40.28125 
Q 14.5 37.15625 16.890625 35.375 
Q 19.28125 33.59375 26.515625 31.984375 
L 29.59375 31.296875 
Q 39.15625 29.25 43.1875 25.515625 
Q 47.21875 21.78125 47.21875 15.09375 
Q 47.21875 7.46875 41.1875 3.015625 
Q 35.15625 -1.421875 24.609375 -1.421875 
Q 20.21875 -1.421875 15.453125 -0.5625 
Q 10.6875 0.296875 5.421875 2 
L 5.421875 11.28125 
Q 10.40625 8.6875 15.234375 7.390625 
Q 20.0625 6.109375 24.8125 6.109375 
Q 31.15625 6.109375 34.5625 8.28125 
Q 37.984375 10.453125 37.984375 14.40625 
Q 37.984375 18.0625 35.515625 20.015625 
Q 33.0625 21.96875 24.703125 23.78125 
L 21.578125 24.515625 
Q 13.234375 26.265625 9.515625 29.90625 
Q 5.8125 33.546875 5.8125 39.890625 
Q 5.8125 47.609375 11.28125 51.796875 
Q 16.75 56 26.8125 56 
Q 31.78125 56 36.171875 55.265625 
Q 40.578125 54.546875 44.28125 53.078125 
z
" id="DejaVuSans-115"/>
      <path d="M 30.609375 48.390625 
Q 23.390625 48.390625 19.1875 42.75 
Q 14.984375 37.109375 14.984375 27.296875 
Q 14.984375 17.484375 19.15625 11.84375 
Q 23.34375 6.203125 30.609375 6.203125 
Q 37.796875 6.203125 41.984375 11.859375 
Q 46.1875 17.53125 46.1875 27.296875 
Q 46.1875 37.015625 41.984375 42.703125 
Q 37.796875 48.390625 30.609375 48.390625 
z
M 30.609375 56 
Q 42.328125 56 49.015625 48.375 
Q 55.71875 40.765625 55.71875 27.296875 
Q 55.71875 13.875 49.015625 6.21875 
Q 42.328125 -1.421875 30.609375 -1.421875 
Q 18.84375 -1.421875 12.171875 6.21875 
Q 5.515625 13.875 5.515625 27.296875 
Q 5.515625 40.765625 12.171875 48.375 
Q 18.84375 56 30.609375 56 
z
" id="DejaVuSans-111"/>
      <path d="M 9.421875 75.984375 
L 18.40625 75.984375 
L 18.40625 0 
L 9.421875 0 
z
" id="DejaVuSans-108"/>
      <path d="M 8.5 21.578125 
L 8.5 54.6875 
L 17.484375 54.6875 
L 17.484375 21.921875 
Q 17.484375 14.15625 20.5 10.265625 
Q 23.53125 6.390625 29.59375 6.390625 
Q 36.859375 6.390625 41.078125 11.03125 
Q 45.3125 15.671875 45.3125 23.6875 
L 45.3125 54.6875 
L 54.296875 54.6875 
L 54.296875 0 
L 45.3125 0 
L 45.3125 8.40625 
Q 42.046875 3.421875 37.71875 1 
Q 33.40625 -1.421875 27.6875 -1.421875 
Q 18.265625 -1.421875 13.375 4.4375 
Q 8.5 10.296875 8.5 21.578125 
z
M 31.109375 56 
z
" id="DejaVuSans-117"/>
      <path d="M 18.3125 70.21875 
L 18.3125 54.6875 
L 36.8125 54.6875 
L 36.8125 47.703125 
L 18.3125 47.703125 
L 18.3125 18.015625 
Q 18.3125 11.328125 20.140625 9.421875 
Q 21.96875 7.515625 27.59375 7.515625 
L 36.8125 7.515625 
L 36.8125 0 
L 27.59375 0 
Q 17.1875 0 13.234375 3.875 
Q 9.28125 7.765625 9.28125 18.015625 
L 9.28125 47.703125 
L 2.6875 47.703125 
L 2.6875 54.6875 
L 9.28125 54.6875 
L 9.28125 70.21875 
z
" id="DejaVuSans-116"/>
      <path d="M 9.421875 54.6875 
L 18.40625 54.6875 
L 18.40625 0 
L 9.421875 0 
z
M 9.421875 75.984375 
L 18.40625 75.984375 
L 18.40625 64.59375 
L 9.421875 64.59375 
z
" id="DejaVuSans-105"/>
      <path d="M 54.890625 33.015625 
L 54.890625 0 
L 45.90625 0 
L 45.90625 32.71875 
Q 45.90625 40.484375 42.875 44.328125 
Q 39.84375 48.1875 33.796875 48.1875 
Q 26.515625 48.1875 22.3125 43.546875 
Q 18.109375 38.921875 18.109375 30.90625 
L 18.109375 0 
L 9.078125 0 
L 9.078125 54.6875 
L 18.109375 54.6875 
L 18.109375 46.1875 
Q 21.34375 51.125 25.703125 53.5625 
Q 30.078125 56 35.796875 56 
Q 45.21875 56 50.046875 50.171875 
Q 54.890625 44.34375 54.890625 33.015625 
z
" id="DejaVuSans-110"/>
     </defs>
     <g transform="translate(233.808125 274.090402)scale(0.11 -0.11)">
      <use xlink:href="#DejaVuSans-82"/>
      <use x="69.419922" xlink:href="#DejaVuSans-101"/>
      <use x="130.943359" xlink:href="#DejaVuSans-115"/>
      <use x="183.042969" xlink:href="#DejaVuSans-111"/>
      <use x="244.224609" xlink:href="#DejaVuSans-108"/>
      <use x="272.007812" xlink:href="#DejaVuSans-117"/>
      <use x="335.386719" xlink:href="#DejaVuSans-116"/>
      <use x="374.595703" xlink:href="#DejaVuSans-105"/>
      <use x="402.378906" xlink:href="#DejaVuSans-111"/>
      <use x="463.560547" xlink:href="#DejaVuSans-110"/>
     </g>
    </g>
   </g>
   <g id="matplotlib.axis_2">
    <g id="ytick_1">
     <g id="line2d_15">
      <path clip-path="url(#pc71bab2910)" d="M 46.789687 237.785371 
L 493.189687 237.785371 
" style="fill:none;stroke:#e5e5e5;stroke-width:0.8;"/>
     </g>
     <g id="line2d_16">
      <path d="M 46.789687 237.785371 
" style="fill:none;stroke:#000000;stroke-width:1.5;"/>
      <defs>
       <path d="M 0 0 
L -2.75 0 
" id="m9a4901f517" style="stroke:#000000;"/>
      </defs>
      <g>
       <use style="stroke:#000000;" x="46.789687" xlink:href="#m9a4901f517" y="237.785371"/>
      </g>
     </g>
     <g id="text_6">
      <!-- 0 -->
      <defs>
       <path d="M 31.78125 66.40625 
Q 24.171875 66.40625 20.328125 58.90625 
Q 16.5 51.421875 16.5 36.375 
Q 16.5 21.390625 20.328125 13.890625 
Q 24.171875 6.390625 31.78125 6.390625 
Q 39.453125 6.390625 43.28125 13.890625 
Q 47.125 21.390625 47.125 36.375 
Q 47.125 51.421875 43.28125 58.90625 
Q 39.453125 66.40625 31.78125 66.40625 
z
M 31.78125 74.21875 
Q 44.046875 74.21875 50.515625 64.515625 
Q 56.984375 54.828125 56.984375 36.375 
Q 56.984375 17.96875 50.515625 8.265625 
Q 44.046875 -1.421875 31.78125 -1.421875 
Q 19.53125 -1.421875 13.0625 8.265625 
Q 6.59375 17.96875 6.59375 36.375 
Q 6.59375 54.828125 13.0625 64.515625 
Q 19.53125 74.21875 31.78125 74.21875 
z
" id="DejaVuSans-48"/>
      </defs>
      <g style="fill:#4d4d4d;" transform="translate(36.240687 240.213621)scale(0.088 -0.088)">
       <use xlink:href="#DejaVuSans-48"/>
      </g>
     </g>
    </g>
    <g id="ytick_2">
     <g id="line2d_17">
      <path clip-path="url(#pc71bab2910)" d="M 46.789687 187.385371 
L 493.189687 187.385371 
" style="fill:none;stroke:#e5e5e5;stroke-width:0.8;"/>
     </g>
     <g id="line2d_18">
      <path d="M 46.789687 187.385371 
" style="fill:none;stroke:#000000;stroke-width:1.5;"/>
      <g>
       <use style="stroke:#000000;" x="46.789687" xlink:href="#m9a4901f517" y="187.385371"/>
      </g>
     </g>
     <g id="text_7">
      <!-- 0.25 -->
      <defs>
       <path d="M 10.6875 12.40625 
L 21 12.40625 
L 21 0 
L 10.6875 0 
z
" id="DejaVuSans-46"/>
       <path d="M 10.796875 72.90625 
L 49.515625 72.90625 
L 49.515625 64.59375 
L 19.828125 64.59375 
L 19.828125 46.734375 
Q 21.96875 47.46875 24.109375 47.828125 
Q 26.265625 48.1875 28.421875 48.1875 
Q 40.625 48.1875 47.75 41.5 
Q 54.890625 34.8125 54.890625 23.390625 
Q 54.890625 11.625 47.5625 5.09375 
Q 40.234375 -1.421875 26.90625 -1.421875 
Q 22.3125 -1.421875 17.546875 -0.640625 
Q 12.796875 0.140625 7.71875 1.703125 
L 7.71875 11.625 
Q 12.109375 9.234375 16.796875 8.0625 
Q 21.484375 6.890625 26.703125 6.890625 
Q 35.15625 6.890625 40.078125 11.328125 
Q 45.015625 15.765625 45.015625 23.390625 
Q 45.015625 31 40.078125 35.4375 
Q 35.15625 39.890625 26.703125 39.890625 
Q 22.75 39.890625 18.8125 39.015625 
Q 14.890625 38.140625 10.796875 36.28125 
z
" id="DejaVuSans-53"/>
      </defs>
      <g style="fill:#4d4d4d;" transform="translate(22.245937 189.813621)scale(0.088 -0.088)">
       <use xlink:href="#DejaVuSans-48"/>
       <use x="63.623047" xlink:href="#DejaVuSans-46"/>
       <use x="95.410156" xlink:href="#DejaVuSans-50"/>
       <use x="159.033203" xlink:href="#DejaVuSans-53"/>
      </g>
     </g>
    </g>
    <g id="ytick_3">
     <g id="line2d_19">
      <path clip-path="url(#pc71bab2910)" d="M 46.789687 136.985371 
L 493.189687 136.985371 
" style="fill:none;stroke:#e5e5e5;stroke-width:0.8;"/>
     </g>
     <g id="line2d_20">
      <path d="M 46.789687 136.985371 
" style="fill:none;stroke:#000000;stroke-width:1.5;"/>
      <g>
       <use style="stroke:#000000;" x="46.789687" xlink:href="#m9a4901f517" y="136.985371"/>
      </g>
     </g>
     <g id="text_8">
      <!-- 0.50 -->
      <g style="fill:#4d4d4d;" transform="translate(22.245937 139.413621)scale(0.088 -0.088)">
       <use xlink:href="#DejaVuSans-48"/>
       <use x="63.623047" xlink:href="#DejaVuSans-46"/>
       <use x="95.410156" xlink:href="#DejaVuSans-53"/>
       <use x="159.033203" xlink:href="#DejaVuSans-48"/>
      </g>
     </g>
    </g>
    <g id="ytick_4">
     <g id="line2d_21">
      <path clip-path="url(#pc71bab2910)" d="M 46.789687 86.585371 
L 493.189687 86.585371 
" style="fill:none;stroke:#e5e5e5;stroke-width:0.8;"/>
     </g>
     <g id="line2d_22">
      <path d="M 46.789687 86.585371 
" style="fill:none;stroke:#000000;stroke-width:1.5;"/>
      <g>
       <use style="stroke:#000000;" x="46.789687" xlink:href="#m9a4901f517" y="86.585371"/>
      </g>
     </g>
     <g id="text_9">
      <!-- 0.75 -->
      <defs>
       <path d="M 8.203125 72.90625 
L 55.078125 72.90625 
L 55.078125 68.703125 
L 28.609375 0 
L 18.3125 0 
L 43.21875 64.59375 
L 8.203125 64.59375 
z
" id="DejaVuSans-55"/>
      </defs>
      <g style="fill:#4d4d4d;" transform="translate(22.245937 89.013621)scale(0.088 -0.088)">
       <use xlink:href="#DejaVuSans-48"/>
       <use x="63.623047" xlink:href="#DejaVuSans-46"/>
       <use x="95.410156" xlink:href="#DejaVuSans-55"/>
       <use x="159.033203" xlink:href="#DejaVuSans-53"/>
      </g>
     </g>
    </g>
    <g id="ytick_5">
     <g id="line2d_23">
      <path clip-path="url(#pc71bab2910)" d="M 46.789687 36.185371 
L 493.189687 36.185371 
" style="fill:none;stroke:#e5e5e5;stroke-width:0.8;"/>
     </g>
     <g id="line2d_24">
      <path d="M 46.789687 36.185371 
" style="fill:none;stroke:#000000;stroke-width:1.5;"/>
      <g>
       <use style="stroke:#000000;" x="46.789687" xlink:href="#m9a4901f517" y="36.185371"/>
      </g>
     </g>
     <g id="text_10">
      <!-- 1 -->
      <g style="fill:#4d4d4d;" transform="translate(36.240687 38.613621)scale(0.088 -0.088)">
       <use xlink:href="#DejaVuSans-49"/>
      </g>
     </g>
    </g>
    <g id="ytick_6">
     <g id="line2d_25">
      <path clip-path="url(#pc71bab2910)" d="M 46.789687 212.585371 
L 493.189687 212.585371 
" style="fill:none;stroke:#fafafa;"/>
     </g>
     <g id="line2d_26">
      <path d="M 46.789687 212.585371 
" style="fill:none;stroke:#000000;stroke-width:1.5;"/>
      <defs>
       <path d="M 0 0 
L -1.375 0 
" id="mc077f043a8" style="stroke:#000000;"/>
      </defs>
      <g>
       <use style="stroke:#000000;" x="46.789687" xlink:href="#mc077f043a8" y="212.585371"/>
      </g>
     </g>
    </g>
    <g id="ytick_7">
     <g id="line2d_27">
      <path clip-path="url(#pc71bab2910)" d="M 46.789687 162.185371 
L 493.189687 162.185371 
" style="fill:none;stroke:#fafafa;"/>
     </g>
     <g id="line2d_28">
      <path d="M 46.789687 162.185371 
" style="fill:none;stroke:#000000;stroke-width:1.5;"/>
      <g>
       <use style="stroke:#000000;" x="46.789687" xlink:href="#mc077f043a8" y="162.185371"/>
      </g>
     </g>
    </g>
    <g id="ytick_8">
     <g id="line2d_29">
      <path clip-path="url(#pc71bab2910)" d="M 46.789687 111.785371 
L 493.189687 111.785371 
" style="fill:none;stroke:#fafafa;"/>
     </g>
     <g id="line2d_30">
      <path d="M 46.789687 111.785371 
" style="fill:none;stroke:#000000;stroke-width:1.5;"/>
      <g>
       <use style="stroke:#000000;" x="46.789687" xlink:href="#mc077f043a8" y="111.785371"/>
      </g>
     </g>
    </g>
    <g id="ytick_9">
     <g id="line2d_31">
      <path clip-path="url(#pc71bab2910)" d="M 46.789687 61.385371 
L 493.189687 61.385371 
" style="fill:none;stroke:#fafafa;"/>
     </g>
     <g id="line2d_32">
      <path d="M 46.789687 61.385371 
" style="fill:none;stroke:#000000;stroke-width:1.5;"/>
      <g>
       <use style="stroke:#000000;" x="46.789687" xlink:href="#mc077f043a8" y="61.385371"/>
      </g>
     </g>
    </g>
    <g id="text_11">
     <!-- Q1(td) percentile -->
     <defs>
      <path d="M 39.40625 66.21875 
Q 28.65625 66.21875 22.328125 58.203125 
Q 16.015625 50.203125 16.015625 36.375 
Q 16.015625 22.609375 22.328125 14.59375 
Q 28.65625 6.59375 39.40625 6.59375 
Q 50.140625 6.59375 56.421875 14.59375 
Q 62.703125 22.609375 62.703125 36.375 
Q 62.703125 50.203125 56.421875 58.203125 
Q 50.140625 66.21875 39.40625 66.21875 
z
M 53.21875 1.3125 
L 66.21875 -12.890625 
L 54.296875 -12.890625 
L 43.5 -1.21875 
Q 41.890625 -1.3125 41.03125 -1.359375 
Q 40.1875 -1.421875 39.40625 -1.421875 
Q 24.03125 -1.421875 14.8125 8.859375 
Q 5.609375 19.140625 5.609375 36.375 
Q 5.609375 53.65625 14.8125 63.9375 
Q 24.03125 74.21875 39.40625 74.21875 
Q 54.734375 74.21875 63.90625 63.9375 
Q 73.09375 53.65625 73.09375 36.375 
Q 73.09375 23.6875 67.984375 14.640625 
Q 62.890625 5.609375 53.21875 1.3125 
z
" id="DejaVuSans-81"/>
      <path d="M 31 75.875 
Q 24.46875 64.65625 21.28125 53.65625 
Q 18.109375 42.671875 18.109375 31.390625 
Q 18.109375 20.125 21.3125 9.0625 
Q 24.515625 -2 31 -13.1875 
L 23.1875 -13.1875 
Q 15.875 -1.703125 12.234375 9.375 
Q 8.59375 20.453125 8.59375 31.390625 
Q 8.59375 42.28125 12.203125 53.3125 
Q 15.828125 64.359375 23.1875 75.875 
z
" id="DejaVuSans-40"/>
      <path d="M 45.40625 46.390625 
L 45.40625 75.984375 
L 54.390625 75.984375 
L 54.390625 0 
L 45.40625 0 
L 45.40625 8.203125 
Q 42.578125 3.328125 38.25 0.953125 
Q 33.9375 -1.421875 27.875 -1.421875 
Q 17.96875 -1.421875 11.734375 6.484375 
Q 5.515625 14.40625 5.515625 27.296875 
Q 5.515625 40.1875 11.734375 48.09375 
Q 17.96875 56 27.875 56 
Q 33.9375 56 38.25 53.625 
Q 42.578125 51.265625 45.40625 46.390625 
z
M 14.796875 27.296875 
Q 14.796875 17.390625 18.875 11.75 
Q 22.953125 6.109375 30.078125 6.109375 
Q 37.203125 6.109375 41.296875 11.75 
Q 45.40625 17.390625 45.40625 27.296875 
Q 45.40625 37.203125 41.296875 42.84375 
Q 37.203125 48.484375 30.078125 48.484375 
Q 22.953125 48.484375 18.875 42.84375 
Q 14.796875 37.203125 14.796875 27.296875 
z
" id="DejaVuSans-100"/>
      <path d="M 8.015625 75.875 
L 15.828125 75.875 
Q 23.140625 64.359375 26.78125 53.3125 
Q 30.421875 42.28125 30.421875 31.390625 
Q 30.421875 20.453125 26.78125 9.375 
Q 23.140625 -1.703125 15.828125 -13.1875 
L 8.015625 -13.1875 
Q 14.5 -2 17.703125 9.0625 
Q 20.90625 20.125 20.90625 31.390625 
Q 20.90625 42.671875 17.703125 53.65625 
Q 14.5 64.65625 8.015625 75.875 
z
" id="DejaVuSans-41"/>
      <path id="DejaVuSans-32"/>
      <path d="M 18.109375 8.203125 
L 18.109375 -20.796875 
L 9.078125 -20.796875 
L 9.078125 54.6875 
L 18.109375 54.6875 
L 18.109375 46.390625 
Q 20.953125 51.265625 25.265625 53.625 
Q 29.59375 56 35.59375 56 
Q 45.5625 56 51.78125 48.09375 
Q 58.015625 40.1875 58.015625 27.296875 
Q 58.015625 14.40625 51.78125 6.484375 
Q 45.5625 -1.421875 35.59375 -1.421875 
Q 29.59375 -1.421875 25.265625 0.953125 
Q 20.953125 3.328125 18.109375 8.203125 
z
M 48.6875 27.296875 
Q 48.6875 37.203125 44.609375 42.84375 
Q 40.53125 48.484375 33.40625 48.484375 
Q 26.265625 48.484375 22.1875 42.84375 
Q 18.109375 37.203125 18.109375 27.296875 
Q 18.109375 17.390625 22.1875 11.75 
Q 26.265625 6.109375 33.40625 6.109375 
Q 40.53125 6.109375 44.609375 11.75 
Q 48.6875 17.390625 48.6875 27.296875 
z
" id="DejaVuSans-112"/>
      <path d="M 41.109375 46.296875 
Q 39.59375 47.171875 37.8125 47.578125 
Q 36.03125 48 33.890625 48 
Q 26.265625 48 22.1875 43.046875 
Q 18.109375 38.09375 18.109375 28.8125 
L 18.109375 0 
L 9.078125 0 
L 9.078125 54.6875 
L 18.109375 54.6875 
L 18.109375 46.1875 
Q 20.953125 51.171875 25.484375 53.578125 
Q 30.03125 56 36.53125 56 
Q 37.453125 56 38.578125 55.875 
Q 39.703125 55.765625 41.0625 55.515625 
z
" id="DejaVuSans-114"/>
      <path d="M 48.78125 52.59375 
L 48.78125 44.1875 
Q 44.96875 46.296875 41.140625 47.34375 
Q 37.3125 48.390625 33.40625 48.390625 
Q 24.65625 48.390625 19.8125 42.84375 
Q 14.984375 37.3125 14.984375 27.296875 
Q 14.984375 17.28125 19.8125 11.734375 
Q 24.65625 6.203125 33.40625 6.203125 
Q 37.3125 6.203125 41.140625 7.25 
Q 44.96875 8.296875 48.78125 10.40625 
L 48.78125 2.09375 
Q 45.015625 0.34375 40.984375 -0.53125 
Q 36.96875 -1.421875 32.421875 -1.421875 
Q 20.0625 -1.421875 12.78125 6.34375 
Q 5.515625 14.109375 5.515625 27.296875 
Q 5.515625 40.671875 12.859375 48.328125 
Q 20.21875 56 33.015625 56 
Q 37.15625 56 41.109375 55.140625 
Q 45.0625 54.296875 48.78125 52.59375 
z
" id="DejaVuSans-99"/>
     </defs>
     <g transform="translate(15.558281 182.687246)rotate(-90)scale(0.11 -0.11)">
      <use xlink:href="#DejaVuSans-81"/>
      <use x="78.710938" xlink:href="#DejaVuSans-49"/>
      <use x="142.333984" xlink:href="#DejaVuSans-40"/>
      <use x="181.347656" xlink:href="#DejaVuSans-116"/>
      <use x="220.556641" xlink:href="#DejaVuSans-100"/>
      <use x="284.033203" xlink:href="#DejaVuSans-41"/>
      <use x="323.046875" xlink:href="#DejaVuSans-32"/>
      <use x="354.833984" xlink:href="#DejaVuSans-112"/>
      <use x="418.310547" xlink:href="#DejaVuSans-101"/>
      <use x="479.833984" xlink:href="#DejaVuSans-114"/>
      <use x="520.916016" xlink:href="#DejaVuSans-99"/>
      <use x="575.896484" xlink:href="#DejaVuSans-101"/>
      <use x="637.419922" xlink:href="#DejaVuSans-110"/>
      <use x="700.798828" xlink:href="#DejaVuSans-116"/>
      <use x="740.007812" xlink:href="#DejaVuSans-105"/>
      <use x="767.791016" xlink:href="#DejaVuSans-108"/>
      <use x="795.574219" xlink:href="#DejaVuSans-101"/>
     </g>
    </g>
   </g>
   <g id="PathCollection_1">
    <path clip-path="url(#pc71bab2910)" d="M 67.080597 127.740679 
C 67.550657 127.740679 68.001528 127.553923 68.333911 127.22154 
C 68.666294 126.889157 68.85305 126.438286 68.85305 125.968226 
C 68.85305 125.498165 68.666294 125.047294 68.333911 124.714912 
C 68.001528 124.382529 67.550657 124.195772 67.080597 124.195772 
C 66.610536 124.195772 66.159665 124.382529 65.827282 124.714912 
C 65.4949 125.047294 65.308143 125.498165 65.308143 125.968226 
C 65.308143 126.438286 65.4949 126.889157 65.827282 127.22154 
C 66.159665 127.553923 66.610536 127.740679 67.080597 127.740679 
z
" style="stroke:#000000;stroke-width:0.886227;"/>
    <path clip-path="url(#pc71bab2910)" d="M 80.607869 128.005548 
C 81.07793 128.005548 81.528801 127.818791 81.861183 127.486408 
C 82.193566 127.154025 82.380323 126.703154 82.380323 126.233094 
C 82.380323 125.763034 82.193566 125.312163 81.861183 124.97978 
C 81.528801 124.647397 81.07793 124.46064 80.607869 124.46064 
C 80.137809 124.46064 79.686938 124.647397 79.354555 124.97978 
C 79.022172 125.312163 78.835415 125.763034 78.835415 126.233094 
C 78.835415 126.703154 79.022172 127.154025 79.354555 127.486408 
C 79.686938 127.818791 80.137809 128.005548 80.607869 128.005548 
z
" style="stroke:#000000;stroke-width:0.886227;"/>
    <path clip-path="url(#pc71bab2910)" d="M 94.135142 122.105178 
C 94.605202 122.105178 95.056073 121.918421 95.388456 121.586039 
C 95.720839 121.253656 95.907596 120.802785 95.907596 120.332724 
C 95.907596 119.862664 95.720839 119.411793 95.388456 119.07941 
C 95.056073 118.747028 94.605202 118.560271 94.135142 118.560271 
C 93.665082 118.560271 93.214211 118.747028 92.881828 119.07941 
C 92.549445 119.411793 92.362688 119.862664 92.362688 120.332724 
C 92.362688 120.802785 92.549445 121.253656 92.881828 121.586039 
C 93.214211 121.918421 93.665082 122.105178 94.135142 122.105178 
z
" style="stroke:#000000;stroke-width:0.886227;"/>
    <path clip-path="url(#pc71bab2910)" d="M 107.662415 124.483073 
C 108.132475 124.483073 108.583346 124.296316 108.915729 123.963933 
C 109.248112 123.63155 109.434869 123.180679 109.434869 122.710619 
C 109.434869 122.240559 109.248112 121.789687 108.915729 121.457305 
C 108.583346 121.124922 108.132475 120.938165 107.662415 120.938165 
C 107.192355 120.938165 106.741483 121.124922 106.409101 121.457305 
C 106.076718 121.789687 105.889961 122.240559 105.889961 122.710619 
C 105.889961 123.180679 106.076718 123.63155 106.409101 123.963933 
C 106.741483 124.296316 107.192355 124.483073 107.662415 124.483073 
z
" style="stroke:#000000;stroke-width:0.886227;"/>
    <path clip-path="url(#pc71bab2910)" d="M 121.189688 120.988188 
C 121.659748 120.988188 122.110619 120.801431 122.443002 120.469048 
C 122.775384 120.136665 122.962141 119.685794 122.962141 119.215734 
C 122.962141 118.745673 122.775384 118.294802 122.443002 117.96242 
C 122.110619 117.630037 121.659748 117.44328 121.189688 117.44328 
C 120.719627 117.44328 120.268756 117.630037 119.936373 117.96242 
C 119.603991 118.294802 119.417234 118.745673 119.417234 119.215734 
C 119.417234 119.685794 119.603991 120.136665 119.936373 120.469048 
C 120.268756 120.801431 120.719627 120.988188 121.189688 120.988188 
z
" style="stroke:#000000;stroke-width:0.886227;"/>
    <path clip-path="url(#pc71bab2910)" d="M 134.71696 120.949883 
C 135.18702 120.949883 135.637892 120.763126 135.970274 120.430743 
C 136.302657 120.09836 136.489414 119.647489 136.489414 119.177429 
C 136.489414 118.707369 136.302657 118.256498 135.970274 117.924115 
C 135.637892 117.591732 135.18702 117.404975 134.71696 117.404975 
C 134.2469 117.404975 133.796029 117.591732 133.463646 117.924115 
C 133.131263 118.256498 132.944506 118.707369 132.944506 119.177429 
C 132.944506 119.647489 133.131263 120.09836 133.463646 120.430743 
C 133.796029 120.763126 134.2469 120.949883 134.71696 120.949883 
z
" style="stroke:#000000;stroke-width:0.886227;"/>
    <path clip-path="url(#pc71bab2910)" d="M 148.244233 120.888487 
C 148.714293 120.888487 149.165164 120.70173 149.497547 120.369347 
C 149.82993 120.036964 150.016687 119.586093 150.016687 119.116033 
C 150.016687 118.645973 149.82993 118.195102 149.497547 117.862719 
C 149.165164 117.530336 148.714293 117.343579 148.244233 117.343579 
C 147.774173 117.343579 147.323302 117.530336 146.990919 117.862719 
C 146.658536 118.195102 146.471779 118.645973 146.471779 119.116033 
C 146.471779 119.586093 146.658536 120.036964 146.990919 120.369347 
C 147.323302 120.70173 147.774173 120.888487 148.244233 120.888487 
z
" style="stroke:#000000;stroke-width:0.886227;"/>
    <path clip-path="url(#pc71bab2910)" d="M 161.771506 121.081184 
C 162.241566 121.081184 162.692437 120.894427 163.02482 120.562044 
C 163.357203 120.229661 163.54396 119.77879 163.54396 119.30873 
C 163.54396 118.83867 163.357203 118.387799 163.02482 118.055416 
C 162.692437 117.723033 162.241566 117.536276 161.771506 117.536276 
C 161.301445 117.536276 160.850574 117.723033 160.518192 118.055416 
C 160.185809 118.387799 159.999052 118.83867 159.999052 119.30873 
C 159.999052 119.77879 160.185809 120.229661 160.518192 120.562044 
C 160.850574 120.894427 161.301445 121.081184 161.771506 121.081184 
z
" style="stroke:#000000;stroke-width:0.886227;"/>
    <path clip-path="url(#pc71bab2910)" d="M 175.298778 122.359747 
C 175.768839 122.359747 176.21971 122.17299 176.552093 121.840608 
C 176.884475 121.508225 177.071232 121.057354 177.071232 120.587294 
C 177.071232 120.117233 176.884475 119.666362 176.552093 119.333979 
C 176.21971 119.001597 175.768839 118.81484 175.298778 118.81484 
C 174.828718 118.81484 174.377847 119.001597 174.045464 119.333979 
C 173.713081 119.666362 173.526325 120.117233 173.526325 120.587294 
C 173.526325 121.057354 173.713081 121.508225 174.045464 121.840608 
C 174.377847 122.17299 174.828718 122.359747 175.298778 122.359747 
z
" style="stroke:#000000;stroke-width:0.886227;"/>
    <path clip-path="url(#pc71bab2910)" d="M 188.826051 120.475908 
C 189.296111 120.475908 189.746982 120.289151 190.079365 119.956769 
C 190.411748 119.624386 190.598505 119.173515 190.598505 118.703455 
C 190.598505 118.233394 190.411748 117.782523 190.079365 117.45014 
C 189.746982 117.117758 189.296111 116.931001 188.826051 116.931001 
C 188.355991 116.931001 187.90512 117.117758 187.572737 117.45014 
C 187.240354 117.782523 187.053597 118.233394 187.053597 118.703455 
C 187.053597 119.173515 187.240354 119.624386 187.572737 119.956769 
C 187.90512 120.289151 188.355991 120.475908 188.826051 120.475908 
z
" style="stroke:#000000;stroke-width:0.886227;"/>
    <path clip-path="url(#pc71bab2910)" d="M 202.353324 121.541622 
C 202.823384 121.541622 203.274255 121.354865 203.606638 121.022482 
C 203.939021 120.690099 204.125778 120.239228 204.125778 119.769168 
C 204.125778 119.299108 203.939021 118.848237 203.606638 118.515854 
C 203.274255 118.183471 202.823384 117.996714 202.353324 117.996714 
C 201.883264 117.996714 201.432393 118.183471 201.10001 118.515854 
C 200.767627 118.848237 200.58087 119.299108 200.58087 119.769168 
C 200.58087 120.239228 200.767627 120.690099 201.10001 121.022482 
C 201.432393 121.354865 201.883264 121.541622 202.353324 121.541622 
z
" style="stroke:#000000;stroke-width:0.886227;"/>
    <path clip-path="url(#pc71bab2910)" d="M 215.880597 121.559087 
C 216.350657 121.559087 216.801528 121.37233 217.133911 121.039947 
C 217.466294 120.707565 217.65305 120.256694 217.65305 119.786633 
C 217.65305 119.316573 217.466294 118.865702 217.133911 118.533319 
C 216.801528 118.200936 216.350657 118.014179 215.880597 118.014179 
C 215.410536 118.014179 214.959665 118.200936 214.627282 118.533319 
C 214.2949 118.865702 214.108143 119.316573 214.108143 119.786633 
C 214.108143 120.256694 214.2949 120.707565 214.627282 121.039947 
C 214.959665 121.37233 215.410536 121.559087 215.880597 121.559087 
z
" style="stroke:#000000;stroke-width:0.886227;"/>
    <path clip-path="url(#pc71bab2910)" d="M 229.407869 121.366374 
C 229.87793 121.366374 230.328801 121.179617 230.661183 120.847234 
C 230.993566 120.514851 231.180323 120.06398 231.180323 119.59392 
C 231.180323 119.123859 230.993566 118.672988 230.661183 118.340606 
C 230.328801 118.008223 229.87793 117.821466 229.407869 117.821466 
C 228.937809 117.821466 228.486938 118.008223 228.154555 118.340606 
C 227.822172 118.672988 227.635415 119.123859 227.635415 119.59392 
C 227.635415 120.06398 227.822172 120.514851 228.154555 120.847234 
C 228.486938 121.179617 228.937809 121.366374 229.407869 121.366374 
z
" style="stroke:#000000;stroke-width:0.886227;"/>
    <path clip-path="url(#pc71bab2910)" d="M 242.935142 121.801917 
C 243.405202 121.801917 243.856073 121.61516 244.188456 121.282777 
C 244.520839 120.950395 244.707596 120.499523 244.707596 120.029463 
C 244.707596 119.559403 244.520839 119.108532 244.188456 118.776149 
C 243.856073 118.443766 243.405202 118.257009 242.935142 118.257009 
C 242.465082 118.257009 242.014211 118.443766 241.681828 118.776149 
C 241.349445 119.108532 241.162688 119.559403 241.162688 120.029463 
C 241.162688 120.499523 241.349445 120.950395 241.681828 121.282777 
C 242.014211 121.61516 242.465082 121.801917 242.935142 121.801917 
z
" style="stroke:#000000;stroke-width:0.886227;"/>
    <path clip-path="url(#pc71bab2910)" d="M 256.462415 120.607476 
C 256.932475 120.607476 257.383346 120.420719 257.715729 120.088336 
C 258.048112 119.755954 258.234869 119.305083 258.234869 118.835022 
C 258.234869 118.364962 258.048112 117.914091 257.715729 117.581708 
C 257.383346 117.249325 256.932475 117.062568 256.462415 117.062568 
C 255.992355 117.062568 255.541483 117.249325 255.209101 117.581708 
C 254.876718 117.914091 254.689961 118.364962 254.689961 118.835022 
C 254.689961 119.305083 254.876718 119.755954 255.209101 120.088336 
C 255.541483 120.420719 255.992355 120.607476 256.462415 120.607476 
z
" style="stroke:#000000;stroke-width:0.886227;"/>
    <path clip-path="url(#pc71bab2910)" d="M 269.989688 123.016782 
C 270.459748 123.016782 270.910619 122.830025 271.243002 122.497642 
C 271.575384 122.16526 271.762141 121.714389 271.762141 121.244328 
C 271.762141 120.774268 271.575384 120.323397 271.243002 119.991014 
C 270.910619 119.658631 270.459748 119.471874 269.989688 119.471874 
C 269.519627 119.471874 269.068756 119.658631 268.736373 119.991014 
C 268.403991 120.323397 268.217234 120.774268 268.217234 121.244328 
C 268.217234 121.714389 268.403991 122.16526 268.736373 122.497642 
C 269.068756 122.830025 269.519627 123.016782 269.989688 123.016782 
z
" style="stroke:#000000;stroke-width:0.886227;"/>
    <path clip-path="url(#pc71bab2910)" d="M 283.51696 121.249785 
C 283.98702 121.249785 284.437892 121.063028 284.770274 120.730645 
C 285.102657 120.398262 285.289414 119.947391 285.289414 119.477331 
C 285.289414 119.007271 285.102657 118.556399 284.770274 118.224017 
C 284.437892 117.891634 283.98702 117.704877 283.51696 117.704877 
C 283.0469 117.704877 282.596029 117.891634 282.263646 118.224017 
C 281.931263 118.556399 281.744506 119.007271 281.744506 119.477331 
C 281.744506 119.947391 281.931263 120.398262 282.263646 120.730645 
C 282.596029 121.063028 283.0469 121.249785 283.51696 121.249785 
z
" style="stroke:#000000;stroke-width:0.886227;"/>
    <path clip-path="url(#pc71bab2910)" d="M 297.044233 119.274714 
C 297.514293 119.274714 297.965164 119.087957 298.297547 118.755575 
C 298.62993 118.423192 298.816687 117.972321 298.816687 117.50226 
C 298.816687 117.0322 298.62993 116.581329 298.297547 116.248946 
C 297.965164 115.916564 297.514293 115.729807 297.044233 115.729807 
C 296.574173 115.729807 296.123302 115.916564 295.790919 116.248946 
C 295.458536 116.581329 295.271779 117.0322 295.271779 117.50226 
C 295.271779 117.972321 295.458536 118.423192 295.790919 118.755575 
C 296.123302 119.087957 296.574173 119.274714 297.044233 119.274714 
z
" style="stroke:#000000;stroke-width:0.886227;"/>
    <path clip-path="url(#pc71bab2910)" d="M 310.571506 120.903709 
C 311.041566 120.903709 311.492437 120.716952 311.82482 120.384569 
C 312.157203 120.052186 312.34396 119.601315 312.34396 119.131255 
C 312.34396 118.661194 312.157203 118.210323 311.82482 117.877941 
C 311.492437 117.545558 311.041566 117.358801 310.571506 117.358801 
C 310.101445 117.358801 309.650574 117.545558 309.318192 117.877941 
C 308.985809 118.210323 308.799052 118.661194 308.799052 119.131255 
C 308.799052 119.601315 308.985809 120.052186 309.318192 120.384569 
C 309.650574 120.716952 310.101445 120.903709 310.571506 120.903709 
z
" style="stroke:#000000;stroke-width:0.886227;"/>
    <path clip-path="url(#pc71bab2910)" d="M 324.098778 121.778043 
C 324.568839 121.778043 325.01971 121.591287 325.352093 121.258904 
C 325.684475 120.926521 325.871232 120.47565 325.871232 120.00559 
C 325.871232 119.535529 325.684475 119.084658 325.352093 118.752275 
C 325.01971 118.419893 324.568839 118.233136 324.098778 118.233136 
C 323.628718 118.233136 323.177847 118.419893 322.845464 118.752275 
C 322.513081 119.084658 322.326325 119.535529 322.326325 120.00559 
C 322.326325 120.47565 322.513081 120.926521 322.845464 121.258904 
C 323.177847 121.591287 323.628718 121.778043 324.098778 121.778043 
z
" style="stroke:#000000;stroke-width:0.886227;"/>
    <path clip-path="url(#pc71bab2910)" d="M 337.626051 116.75085 
C 338.096111 116.75085 338.546982 116.564093 338.879365 116.23171 
C 339.211748 115.899327 339.398505 115.448456 339.398505 114.978396 
C 339.398505 114.508335 339.211748 114.057464 338.879365 113.725082 
C 338.546982 113.392699 338.096111 113.205942 337.626051 113.205942 
C 337.155991 113.205942 336.70512 113.392699 336.372737 113.725082 
C 336.040354 114.057464 335.853597 114.508335 335.853597 114.978396 
C 335.853597 115.448456 336.040354 115.899327 336.372737 116.23171 
C 336.70512 116.564093 337.155991 116.75085 337.626051 116.75085 
z
" style="stroke:#000000;stroke-width:0.886227;"/>
    <path clip-path="url(#pc71bab2910)" d="M 351.153324 117.223128 
C 351.623384 117.223128 352.074255 117.036371 352.406638 116.703989 
C 352.739021 116.371606 352.925778 115.920735 352.925778 115.450674 
C 352.925778 114.980614 352.739021 114.529743 352.406638 114.19736 
C 352.074255 113.864977 351.623384 113.678221 351.153324 113.678221 
C 350.683264 113.678221 350.232393 113.864977 349.90001 114.19736 
C 349.567627 114.529743 349.38087 114.980614 349.38087 115.450674 
C 349.38087 115.920735 349.567627 116.371606 349.90001 116.703989 
C 350.232393 117.036371 350.683264 117.223128 351.153324 117.223128 
z
" style="stroke:#000000;stroke-width:0.886227;"/>
    <path clip-path="url(#pc71bab2910)" d="M 364.680597 117.870145 
C 365.150657 117.870145 365.601528 117.683388 365.933911 117.351005 
C 366.266294 117.018622 366.45305 116.567751 366.45305 116.097691 
C 366.45305 115.627631 366.266294 115.176759 365.933911 114.844377 
C 365.601528 114.511994 365.150657 114.325237 364.680597 114.325237 
C 364.210536 114.325237 363.759665 114.511994 363.427282 114.844377 
C 363.0949 115.176759 362.908143 115.627631 362.908143 116.097691 
C 362.908143 116.567751 363.0949 117.018622 363.427282 117.351005 
C 363.759665 117.683388 364.210536 117.870145 364.680597 117.870145 
z
" style="stroke:#000000;stroke-width:0.886227;"/>
    <path clip-path="url(#pc71bab2910)" d="M 378.207869 117.336967 
C 378.67793 117.336967 379.128801 117.15021 379.461183 116.817827 
C 379.793566 116.485444 379.980323 116.034573 379.980323 115.564513 
C 379.980323 115.094453 379.793566 114.643582 379.461183 114.311199 
C 379.128801 113.978816 378.67793 113.792059 378.207869 113.792059 
C 377.737809 113.792059 377.286938 113.978816 376.954555 114.311199 
C 376.622172 114.643582 376.435415 115.094453 376.435415 115.564513 
C 376.435415 116.034573 376.622172 116.485444 376.954555 116.817827 
C 377.286938 117.15021 377.737809 117.336967 378.207869 117.336967 
z
" style="stroke:#000000;stroke-width:0.886227;"/>
    <path clip-path="url(#pc71bab2910)" d="M 391.735142 122.026461 
C 392.205202 122.026461 392.656073 121.839705 392.988456 121.507322 
C 393.320839 121.174939 393.507596 120.724068 393.507596 120.254008 
C 393.507596 119.783947 393.320839 119.333076 392.988456 119.000693 
C 392.656073 118.668311 392.205202 118.481554 391.735142 118.481554 
C 391.265082 118.481554 390.814211 118.668311 390.481828 119.000693 
C 390.149445 119.333076 389.962688 119.783947 389.962688 120.254008 
C 389.962688 120.724068 390.149445 121.174939 390.481828 121.507322 
C 390.814211 121.839705 391.265082 122.026461 391.735142 122.026461 
z
" style="stroke:#000000;stroke-width:0.886227;"/>
    <path clip-path="url(#pc71bab2910)" d="M 405.262415 119.136696 
C 405.732475 119.136696 406.183346 118.949939 406.515729 118.617556 
C 406.848112 118.285173 407.034869 117.834302 407.034869 117.364242 
C 407.034869 116.894182 406.848112 116.443311 406.515729 116.110928 
C 406.183346 115.778545 405.732475 115.591788 405.262415 115.591788 
C 404.792355 115.591788 404.341483 115.778545 404.009101 116.110928 
C 403.676718 116.443311 403.489961 116.894182 403.489961 117.364242 
C 403.489961 117.834302 403.676718 118.285173 404.009101 118.617556 
C 404.341483 118.949939 404.792355 119.136696 405.262415 119.136696 
z
" style="stroke:#000000;stroke-width:0.886227;"/>
    <path clip-path="url(#pc71bab2910)" d="M 418.789688 113.942515 
C 419.259748 113.942515 419.710619 113.755758 420.043002 113.423375 
C 420.375384 113.090992 420.562141 112.640121 420.562141 112.170061 
C 420.562141 111.700001 420.375384 111.24913 420.043002 110.916747 
C 419.710619 110.584364 419.259748 110.397607 418.789688 110.397607 
C 418.319627 110.397607 417.868756 110.584364 417.536373 110.916747 
C 417.203991 111.24913 417.017234 111.700001 417.017234 112.170061 
C 417.017234 112.640121 417.203991 113.090992 417.536373 113.423375 
C 417.868756 113.755758 418.319627 113.942515 418.789688 113.942515 
z
" style="stroke:#000000;stroke-width:0.886227;"/>
    <path clip-path="url(#pc71bab2910)" d="M 432.31696 116.90901 
C 432.78702 116.90901 433.237892 116.722253 433.570274 116.38987 
C 433.902657 116.057487 434.089414 115.606616 434.089414 115.136556 
C 434.089414 114.666496 433.902657 114.215624 433.570274 113.883242 
C 433.237892 113.550859 432.78702 113.364102 432.31696 113.364102 
C 431.8469 113.364102 431.396029 113.550859 431.063646 113.883242 
C 430.731263 114.215624 430.544506 114.666496 430.544506 115.136556 
C 430.544506 115.606616 430.731263 116.057487 431.063646 116.38987 
C 431.396029 116.722253 431.8469 116.90901 432.31696 116.90901 
z
" style="stroke:#000000;stroke-width:0.886227;"/>
    <path clip-path="url(#pc71bab2910)" d="M 445.844233 121.605005 
C 446.314293 121.605005 446.765164 121.418248 447.097547 121.085865 
C 447.42993 120.753482 447.616687 120.302611 447.616687 119.832551 
C 447.616687 119.362491 447.42993 118.91162 447.097547 118.579237 
C 446.765164 118.246854 446.314293 118.060097 445.844233 118.060097 
C 445.374173 118.060097 444.923302 118.246854 444.590919 118.579237 
C 444.258536 118.91162 444.071779 119.362491 444.071779 119.832551 
C 444.071779 120.302611 444.258536 120.753482 444.590919 121.085865 
C 444.923302 121.418248 445.374173 121.605005 445.844233 121.605005 
z
" style="stroke:#000000;stroke-width:0.886227;"/>
    <path clip-path="url(#pc71bab2910)" d="M 459.371506 120.857524 
C 459.841566 120.857524 460.292437 120.670767 460.62482 120.338385 
C 460.957203 120.006002 461.14396 119.555131 461.14396 119.08507 
C 461.14396 118.61501 460.957203 118.164139 460.62482 117.831756 
C 460.292437 117.499374 459.841566 117.312617 459.371506 117.312617 
C 458.901445 117.312617 458.450574 117.499374 458.118192 117.831756 
C 457.785809 118.164139 457.599052 118.61501 457.599052 119.08507 
C 457.599052 119.555131 457.785809 120.006002 458.118192 120.338385 
C 458.450574 120.670767 458.901445 120.857524 459.371506 120.857524 
z
" style="stroke:#000000;stroke-width:0.886227;"/>
    <path clip-path="url(#pc71bab2910)" d="M 472.898778 120.4651 
C 473.368839 120.4651 473.81971 120.278343 474.152093 119.94596 
C 474.484475 119.613577 474.671232 119.162706 474.671232 118.692646 
C 474.671232 118.222586 474.484475 117.771715 474.152093 117.439332 
C 473.81971 117.106949 473.368839 116.920192 472.898778 116.920192 
C 472.428718 116.920192 471.977847 117.106949 471.645464 117.439332 
C 471.313081 117.771715 471.126325 118.222586 471.126325 118.692646 
C 471.126325 119.162706 471.313081 119.613577 471.645464 119.94596 
C 471.977847 120.278343 472.428718 120.4651 472.898778 120.4651 
z
" style="stroke:#000000;stroke-width:0.886227;"/>
   </g>
   <g id="line2d_33">
    <path clip-path="url(#pc71bab2910)" d="M 67.080597 125.968226 
L 80.607869 126.233094 
L 94.135142 120.332724 
L 107.662415 122.710619 
L 121.189688 119.215734 
L 134.71696 119.177429 
L 148.244233 119.116033 
L 161.771506 119.30873 
L 175.298778 120.587294 
L 188.826051 118.703455 
L 202.353324 119.769168 
L 215.880597 119.786633 
L 229.407869 119.59392 
L 242.935142 120.029463 
L 256.462415 118.835022 
L 269.989688 121.244328 
L 283.51696 119.477331 
L 297.044233 117.50226 
L 310.571506 119.131255 
L 324.098778 120.00559 
L 337.626051 114.978396 
L 351.153324 115.450674 
L 364.680597 116.097691 
L 378.207869 115.564513 
L 391.735142 120.254008 
L 405.262415 117.364242 
L 418.789688 112.170061 
L 432.31696 115.136556 
L 445.844233 119.832551 
L 459.371506 119.08507 
L 472.898778 118.692646 
" style="fill:none;stroke:#000000;stroke-width:0.886227;"/>
   </g>
  </g>
  <g id="text_12">
   <!-- All data with imputed missing values Q1(td) -->
   <defs>
    <path d="M 34.1875 63.1875 
L 20.796875 26.90625 
L 47.609375 26.90625 
z
M 28.609375 72.90625 
L 39.796875 72.90625 
L 67.578125 0 
L 57.328125 0 
L 50.6875 18.703125 
L 17.828125 18.703125 
L 11.1875 0 
L 0.78125 0 
z
" id="DejaVuSans-65"/>
    <path d="M 34.28125 27.484375 
Q 23.390625 27.484375 19.1875 25 
Q 14.984375 22.515625 14.984375 16.5 
Q 14.984375 11.71875 18.140625 8.90625 
Q 21.296875 6.109375 26.703125 6.109375 
Q 34.1875 6.109375 38.703125 11.40625 
Q 43.21875 16.703125 43.21875 25.484375 
L 43.21875 27.484375 
z
M 52.203125 31.203125 
L 52.203125 0 
L 43.21875 0 
L 43.21875 8.296875 
Q 40.140625 3.328125 35.546875 0.953125 
Q 30.953125 -1.421875 24.3125 -1.421875 
Q 15.921875 -1.421875 10.953125 3.296875 
Q 6 8.015625 6 15.921875 
Q 6 25.140625 12.171875 29.828125 
Q 18.359375 34.515625 30.609375 34.515625 
L 43.21875 34.515625 
L 43.21875 35.40625 
Q 43.21875 41.609375 39.140625 45 
Q 35.0625 48.390625 27.6875 48.390625 
Q 23 48.390625 18.546875 47.265625 
Q 14.109375 46.140625 10.015625 43.890625 
L 10.015625 52.203125 
Q 14.9375 54.109375 19.578125 55.046875 
Q 24.21875 56 28.609375 56 
Q 40.484375 56 46.34375 49.84375 
Q 52.203125 43.703125 52.203125 31.203125 
z
" id="DejaVuSans-97"/>
    <path d="M 4.203125 54.6875 
L 13.1875 54.6875 
L 24.421875 12.015625 
L 35.59375 54.6875 
L 46.1875 54.6875 
L 57.421875 12.015625 
L 68.609375 54.6875 
L 77.59375 54.6875 
L 63.28125 0 
L 52.6875 0 
L 40.921875 44.828125 
L 29.109375 0 
L 18.5 0 
z
" id="DejaVuSans-119"/>
    <path d="M 54.890625 33.015625 
L 54.890625 0 
L 45.90625 0 
L 45.90625 32.71875 
Q 45.90625 40.484375 42.875 44.328125 
Q 39.84375 48.1875 33.796875 48.1875 
Q 26.515625 48.1875 22.3125 43.546875 
Q 18.109375 38.921875 18.109375 30.90625 
L 18.109375 0 
L 9.078125 0 
L 9.078125 75.984375 
L 18.109375 75.984375 
L 18.109375 46.1875 
Q 21.34375 51.125 25.703125 53.5625 
Q 30.078125 56 35.796875 56 
Q 45.21875 56 50.046875 50.171875 
Q 54.890625 44.34375 54.890625 33.015625 
z
" id="DejaVuSans-104"/>
    <path d="M 52 44.1875 
Q 55.375 50.25 60.0625 53.125 
Q 64.75 56 71.09375 56 
Q 79.640625 56 84.28125 50.015625 
Q 88.921875 44.046875 88.921875 33.015625 
L 88.921875 0 
L 79.890625 0 
L 79.890625 32.71875 
Q 79.890625 40.578125 77.09375 44.375 
Q 74.3125 48.1875 68.609375 48.1875 
Q 61.625 48.1875 57.5625 43.546875 
Q 53.515625 38.921875 53.515625 30.90625 
L 53.515625 0 
L 44.484375 0 
L 44.484375 32.71875 
Q 44.484375 40.625 41.703125 44.40625 
Q 38.921875 48.1875 33.109375 48.1875 
Q 26.21875 48.1875 22.15625 43.53125 
Q 18.109375 38.875 18.109375 30.90625 
L 18.109375 0 
L 9.078125 0 
L 9.078125 54.6875 
L 18.109375 54.6875 
L 18.109375 46.1875 
Q 21.1875 51.21875 25.484375 53.609375 
Q 29.78125 56 35.6875 56 
Q 41.65625 56 45.828125 52.96875 
Q 50 49.953125 52 44.1875 
z
" id="DejaVuSans-109"/>
    <path d="M 45.40625 27.984375 
Q 45.40625 37.75 41.375 43.109375 
Q 37.359375 48.484375 30.078125 48.484375 
Q 22.859375 48.484375 18.828125 43.109375 
Q 14.796875 37.75 14.796875 27.984375 
Q 14.796875 18.265625 18.828125 12.890625 
Q 22.859375 7.515625 30.078125 7.515625 
Q 37.359375 7.515625 41.375 12.890625 
Q 45.40625 18.265625 45.40625 27.984375 
z
M 54.390625 6.78125 
Q 54.390625 -7.171875 48.1875 -13.984375 
Q 42 -20.796875 29.203125 -20.796875 
Q 24.46875 -20.796875 20.265625 -20.09375 
Q 16.0625 -19.390625 12.109375 -17.921875 
L 12.109375 -9.1875 
Q 16.0625 -11.328125 19.921875 -12.34375 
Q 23.78125 -13.375 27.78125 -13.375 
Q 36.625 -13.375 41.015625 -8.765625 
Q 45.40625 -4.15625 45.40625 5.171875 
L 45.40625 9.625 
Q 42.625 4.78125 38.28125 2.390625 
Q 33.9375 0 27.875 0 
Q 17.828125 0 11.671875 7.65625 
Q 5.515625 15.328125 5.515625 27.984375 
Q 5.515625 40.671875 11.671875 48.328125 
Q 17.828125 56 27.875 56 
Q 33.9375 56 38.28125 53.609375 
Q 42.625 51.21875 45.40625 46.390625 
L 45.40625 54.6875 
L 54.390625 54.6875 
z
" id="DejaVuSans-103"/>
    <path d="M 2.984375 54.6875 
L 12.5 54.6875 
L 29.59375 8.796875 
L 46.6875 54.6875 
L 56.203125 54.6875 
L 35.6875 0 
L 23.484375 0 
z
" id="DejaVuSans-118"/>
   </defs>
   <g transform="translate(117.547406 17.229938)scale(0.132 -0.132)">
    <use xlink:href="#DejaVuSans-65"/>
    <use x="68.408203" xlink:href="#DejaVuSans-108"/>
    <use x="96.191406" xlink:href="#DejaVuSans-108"/>
    <use x="123.974609" xlink:href="#DejaVuSans-32"/>
    <use x="155.761719" xlink:href="#DejaVuSans-100"/>
    <use x="219.238281" xlink:href="#DejaVuSans-97"/>
    <use x="280.517578" xlink:href="#DejaVuSans-116"/>
    <use x="319.726562" xlink:href="#DejaVuSans-97"/>
    <use x="381.005859" xlink:href="#DejaVuSans-32"/>
    <use x="412.792969" xlink:href="#DejaVuSans-119"/>
    <use x="494.580078" xlink:href="#DejaVuSans-105"/>
    <use x="522.363281" xlink:href="#DejaVuSans-116"/>
    <use x="561.572266" xlink:href="#DejaVuSans-104"/>
    <use x="624.951172" xlink:href="#DejaVuSans-32"/>
    <use x="656.738281" xlink:href="#DejaVuSans-105"/>
    <use x="684.521484" xlink:href="#DejaVuSans-109"/>
    <use x="781.933594" xlink:href="#DejaVuSans-112"/>
    <use x="845.410156" xlink:href="#DejaVuSans-117"/>
    <use x="908.789062" xlink:href="#DejaVuSans-116"/>
    <use x="947.998047" xlink:href="#DejaVuSans-101"/>
    <use x="1009.521484" xlink:href="#DejaVuSans-100"/>
    <use x="1072.998047" xlink:href="#DejaVuSans-32"/>
    <use x="1104.785156" xlink:href="#DejaVuSans-109"/>
    <use x="1202.197266" xlink:href="#DejaVuSans-105"/>
    <use x="1229.980469" xlink:href="#DejaVuSans-115"/>
    <use x="1282.080078" xlink:href="#DejaVuSans-115"/>
    <use x="1334.179688" xlink:href="#DejaVuSans-105"/>
    <use x="1361.962891" xlink:href="#DejaVuSans-110"/>
    <use x="1425.341797" xlink:href="#DejaVuSans-103"/>
    <use x="1488.818359" xlink:href="#DejaVuSans-32"/>
    <use x="1520.605469" xlink:href="#DejaVuSans-118"/>
    <use x="1579.785156" xlink:href="#DejaVuSans-97"/>
    <use x="1641.064453" xlink:href="#DejaVuSans-108"/>
    <use x="1668.847656" xlink:href="#DejaVuSans-117"/>
    <use x="1732.226562" xlink:href="#DejaVuSans-101"/>
    <use x="1793.75" xlink:href="#DejaVuSans-115"/>
    <use x="1845.849609" xlink:href="#DejaVuSans-32"/>
    <use x="1877.636719" xlink:href="#DejaVuSans-81"/>
    <use x="1956.347656" xlink:href="#DejaVuSans-49"/>
    <use x="2019.970703" xlink:href="#DejaVuSans-40"/>
    <use x="2058.984375" xlink:href="#DejaVuSans-116"/>
    <use x="2098.193359" xlink:href="#DejaVuSans-100"/>
    <use x="2161.669922" xlink:href="#DejaVuSans-41"/>
   </g>
  </g>
 </g>
 <defs>
  <clipPath id="pc71bab2910">
   <rect height="221.76" width="446.4" x="46.789687" y="26.105371"/>
  </clipPath>
 </defs>
</svg>
