<?xml version="1.0" encoding="utf-8" standalone="no"?>
<!DOCTYPE svg PUBLIC "-//W3C//DTD SVG 1.1//EN"
  "http://www.w3.org/Graphics/SVG/1.1/DTD/svg11.dtd">
<!-- Created with matplotlib (https://matplotlib.org/) -->
<svg height="264.672687pt" version="1.1" viewBox="0 0 500.389687 264.672687" width="500.389687pt" xmlns="http://www.w3.org/2000/svg" xmlns:xlink="http://www.w3.org/1999/xlink">
 <defs>
  <style type="text/css">
*{stroke-linecap:butt;stroke-linejoin:round;}
  </style>
 </defs>
 <g id="figure_1">
  <g id="patch_1">
   <path d="M 0 264.672687 
L 500.389687 264.672687 
L 500.389687 0 
L 0 0 
z
" style="fill:#ffffff;stroke:#ffffff;stroke-linejoin:miter;"/>
  </g>
  <g id="axes_1">
   <g id="patch_2">
    <path d="M 46.789687 228.96 
L 493.189687 228.96 
L 493.189687 7.2 
L 46.789687 7.2 
z
" style="fill:#ffffff;stroke:#7f7f7f;stroke-linejoin:miter;"/>
   </g>
   <g id="matplotlib.axis_1">
    <g id="xtick_1">
     <g id="line2d_1">
      <path clip-path="url(#pffc38cc01d)" d="M 67.080597 228.96 
L 67.080597 7.2 
" style="fill:none;stroke:#e5e5e5;stroke-width:0.8;"/>
     </g>
     <g id="line2d_2">
      <path d="M 67.080597 228.96 
" style="fill:none;stroke:#000000;stroke-width:1.5;"/>
      <defs>
       <path d="M 0 0 
L 0 2.75 
" id="m6a2cdae4c6" style="stroke:#000000;"/>
      </defs>
      <g>
       <use style="stroke:#000000;" x="67.080597" xlink:href="#m6a2cdae4c6" y="228.96"/>
      </g>
     </g>
     <g id="text_1">
      <!-- 1970 -->
      <defs>
       <path d="M 12.40625 8.296875 
L 28.515625 8.296875 
L 28.515625 63.921875 
L 10.984375 60.40625 
L 10.984375 69.390625 
L 28.421875 72.90625 
L 38.28125 72.90625 
L 38.28125 8.296875 
L 54.390625 8.296875 
L 54.390625 0 
L 12.40625 0 
z
" id="DejaVuSans-49"/>
       <path d="M 10.984375 1.515625 
L 10.984375 10.5 
Q 14.703125 8.734375 18.5 7.8125 
Q 22.3125 6.890625 25.984375 6.890625 
Q 35.75 6.890625 40.890625 13.453125 
Q 46.046875 20.015625 46.78125 33.40625 
Q 43.953125 29.203125 39.59375 26.953125 
Q 35.25 24.703125 29.984375 24.703125 
Q 19.046875 24.703125 12.671875 31.3125 
Q 6.296875 37.9375 6.296875 49.421875 
Q 6.296875 60.640625 12.9375 67.421875 
Q 19.578125 74.21875 30.609375 74.21875 
Q 43.265625 74.21875 49.921875 64.515625 
Q 56.59375 54.828125 56.59375 36.375 
Q 56.59375 19.140625 48.40625 8.859375 
Q 40.234375 -1.421875 26.421875 -1.421875 
Q 22.703125 -1.421875 18.890625 -0.6875 
Q 15.09375 0.046875 10.984375 1.515625 
z
M 30.609375 32.421875 
Q 37.25 32.421875 41.125 36.953125 
Q 45.015625 41.5 45.015625 49.421875 
Q 45.015625 57.28125 41.125 61.84375 
Q 37.25 66.40625 30.609375 66.40625 
Q 23.96875 66.40625 20.09375 61.84375 
Q 16.21875 57.28125 16.21875 49.421875 
Q 16.21875 41.5 20.09375 36.953125 
Q 23.96875 32.421875 30.609375 32.421875 
z
" id="DejaVuSans-57"/>
       <path d="M 8.203125 72.90625 
L 55.078125 72.90625 
L 55.078125 68.703125 
L 28.609375 0 
L 18.3125 0 
L 43.21875 64.59375 
L 8.203125 64.59375 
z
" id="DejaVuSans-55"/>
       <path d="M 31.78125 66.40625 
Q 24.171875 66.40625 20.328125 58.90625 
Q 16.5 51.421875 16.5 36.375 
Q 16.5 21.390625 20.328125 13.890625 
Q 24.171875 6.390625 31.78125 6.390625 
Q 39.453125 6.390625 43.28125 13.890625 
Q 47.125 21.390625 47.125 36.375 
Q 47.125 51.421875 43.28125 58.90625 
Q 39.453125 66.40625 31.78125 66.40625 
z
M 31.78125 74.21875 
Q 44.046875 74.21875 50.515625 64.515625 
Q 56.984375 54.828125 56.984375 36.375 
Q 56.984375 17.96875 50.515625 8.265625 
Q 44.046875 -1.421875 31.78125 -1.421875 
Q 19.53125 -1.421875 13.0625 8.265625 
Q 6.59375 17.96875 6.59375 36.375 
Q 6.59375 54.828125 13.0625 64.515625 
Q 19.53125 74.21875 31.78125 74.21875 
z
" id="DejaVuSans-48"/>
      </defs>
      <g style="fill:#4d4d4d;" transform="translate(55.882597 240.596625)scale(0.088 -0.088)">
       <use xlink:href="#DejaVuSans-49"/>
       <use x="63.623047" xlink:href="#DejaVuSans-57"/>
       <use x="127.246094" xlink:href="#DejaVuSans-55"/>
       <use x="190.869141" xlink:href="#DejaVuSans-48"/>
      </g>
     </g>
    </g>
    <g id="xtick_2">
     <g id="line2d_3">
      <path clip-path="url(#pffc38cc01d)" d="M 148.244233 228.96 
L 148.244233 7.2 
" style="fill:none;stroke:#e5e5e5;stroke-width:0.8;"/>
     </g>
     <g id="line2d_4">
      <path d="M 148.244233 228.96 
" style="fill:none;stroke:#000000;stroke-width:1.5;"/>
      <g>
       <use style="stroke:#000000;" x="148.244233" xlink:href="#m6a2cdae4c6" y="228.96"/>
      </g>
     </g>
     <g id="text_2">
      <!-- 1980 -->
      <defs>
       <path d="M 31.78125 34.625 
Q 24.75 34.625 20.71875 30.859375 
Q 16.703125 27.09375 16.703125 20.515625 
Q 16.703125 13.921875 20.71875 10.15625 
Q 24.75 6.390625 31.78125 6.390625 
Q 38.8125 6.390625 42.859375 10.171875 
Q 46.921875 13.96875 46.921875 20.515625 
Q 46.921875 27.09375 42.890625 30.859375 
Q 38.875 34.625 31.78125 34.625 
z
M 21.921875 38.8125 
Q 15.578125 40.375 12.03125 44.71875 
Q 8.5 49.078125 8.5 55.328125 
Q 8.5 64.0625 14.71875 69.140625 
Q 20.953125 74.21875 31.78125 74.21875 
Q 42.671875 74.21875 48.875 69.140625 
Q 55.078125 64.0625 55.078125 55.328125 
Q 55.078125 49.078125 51.53125 44.71875 
Q 48 40.375 41.703125 38.8125 
Q 48.828125 37.15625 52.796875 32.3125 
Q 56.78125 27.484375 56.78125 20.515625 
Q 56.78125 9.90625 50.3125 4.234375 
Q 43.84375 -1.421875 31.78125 -1.421875 
Q 19.734375 -1.421875 13.25 4.234375 
Q 6.78125 9.90625 6.78125 20.515625 
Q 6.78125 27.484375 10.78125 32.3125 
Q 14.796875 37.15625 21.921875 38.8125 
z
M 18.3125 54.390625 
Q 18.3125 48.734375 21.84375 45.5625 
Q 25.390625 42.390625 31.78125 42.390625 
Q 38.140625 42.390625 41.71875 45.5625 
Q 45.3125 48.734375 45.3125 54.390625 
Q 45.3125 60.0625 41.71875 63.234375 
Q 38.140625 66.40625 31.78125 66.40625 
Q 25.390625 66.40625 21.84375 63.234375 
Q 18.3125 60.0625 18.3125 54.390625 
z
" id="DejaVuSans-56"/>
      </defs>
      <g style="fill:#4d4d4d;" transform="translate(137.046233 240.596625)scale(0.088 -0.088)">
       <use xlink:href="#DejaVuSans-49"/>
       <use x="63.623047" xlink:href="#DejaVuSans-57"/>
       <use x="127.246094" xlink:href="#DejaVuSans-56"/>
       <use x="190.869141" xlink:href="#DejaVuSans-48"/>
      </g>
     </g>
    </g>
    <g id="xtick_3">
     <g id="line2d_5">
      <path clip-path="url(#pffc38cc01d)" d="M 229.407869 228.96 
L 229.407869 7.2 
" style="fill:none;stroke:#e5e5e5;stroke-width:0.8;"/>
     </g>
     <g id="line2d_6">
      <path d="M 229.407869 228.96 
" style="fill:none;stroke:#000000;stroke-width:1.5;"/>
      <g>
       <use style="stroke:#000000;" x="229.407869" xlink:href="#m6a2cdae4c6" y="228.96"/>
      </g>
     </g>
     <g id="text_3">
      <!-- 1990 -->
      <g style="fill:#4d4d4d;" transform="translate(218.209869 240.596625)scale(0.088 -0.088)">
       <use xlink:href="#DejaVuSans-49"/>
       <use x="63.623047" xlink:href="#DejaVuSans-57"/>
       <use x="127.246094" xlink:href="#DejaVuSans-57"/>
       <use x="190.869141" xlink:href="#DejaVuSans-48"/>
      </g>
     </g>
    </g>
    <g id="xtick_4">
     <g id="line2d_7">
      <path clip-path="url(#pffc38cc01d)" d="M 310.571506 228.96 
L 310.571506 7.2 
" style="fill:none;stroke:#e5e5e5;stroke-width:0.8;"/>
     </g>
     <g id="line2d_8">
      <path d="M 310.571506 228.96 
" style="fill:none;stroke:#000000;stroke-width:1.5;"/>
      <g>
       <use style="stroke:#000000;" x="310.571506" xlink:href="#m6a2cdae4c6" y="228.96"/>
      </g>
     </g>
     <g id="text_4">
      <!-- 2000 -->
      <defs>
       <path d="M 19.1875 8.296875 
L 53.609375 8.296875 
L 53.609375 0 
L 7.328125 0 
L 7.328125 8.296875 
Q 12.9375 14.109375 22.625 23.890625 
Q 32.328125 33.6875 34.8125 36.53125 
Q 39.546875 41.84375 41.421875 45.53125 
Q 43.3125 49.21875 43.3125 52.78125 
Q 43.3125 58.59375 39.234375 62.25 
Q 35.15625 65.921875 28.609375 65.921875 
Q 23.96875 65.921875 18.8125 64.3125 
Q 13.671875 62.703125 7.8125 59.421875 
L 7.8125 69.390625 
Q 13.765625 71.78125 18.9375 73 
Q 24.125 74.21875 28.421875 74.21875 
Q 39.75 74.21875 46.484375 68.546875 
Q 53.21875 62.890625 53.21875 53.421875 
Q 53.21875 48.921875 51.53125 44.890625 
Q 49.859375 40.875 45.40625 35.40625 
Q 44.1875 33.984375 37.640625 27.21875 
Q 31.109375 20.453125 19.1875 8.296875 
z
" id="DejaVuSans-50"/>
      </defs>
      <g style="fill:#4d4d4d;" transform="translate(299.373506 240.596625)scale(0.088 -0.088)">
       <use xlink:href="#DejaVuSans-50"/>
       <use x="63.623047" xlink:href="#DejaVuSans-48"/>
       <use x="127.246094" xlink:href="#DejaVuSans-48"/>
       <use x="190.869141" xlink:href="#DejaVuSans-48"/>
      </g>
     </g>
    </g>
    <g id="xtick_5">
     <g id="line2d_9">
      <path clip-path="url(#pffc38cc01d)" d="M 391.735142 228.96 
L 391.735142 7.2 
" style="fill:none;stroke:#e5e5e5;stroke-width:0.8;"/>
     </g>
     <g id="line2d_10">
      <path d="M 391.735142 228.96 
" style="fill:none;stroke:#000000;stroke-width:1.5;"/>
      <g>
       <use style="stroke:#000000;" x="391.735142" xlink:href="#m6a2cdae4c6" y="228.96"/>
      </g>
     </g>
     <g id="text_5">
      <!-- 2010 -->
      <g style="fill:#4d4d4d;" transform="translate(380.537142 240.596625)scale(0.088 -0.088)">
       <use xlink:href="#DejaVuSans-50"/>
       <use x="63.623047" xlink:href="#DejaVuSans-48"/>
       <use x="127.246094" xlink:href="#DejaVuSans-49"/>
       <use x="190.869141" xlink:href="#DejaVuSans-48"/>
      </g>
     </g>
    </g>
    <g id="xtick_6">
     <g id="line2d_11">
      <path clip-path="url(#pffc38cc01d)" d="M 472.898778 228.96 
L 472.898778 7.2 
" style="fill:none;stroke:#e5e5e5;stroke-width:0.8;"/>
     </g>
     <g id="line2d_12">
      <path d="M 472.898778 228.96 
" style="fill:none;stroke:#000000;stroke-width:1.5;"/>
      <g>
       <use style="stroke:#000000;" x="472.898778" xlink:href="#m6a2cdae4c6" y="228.96"/>
      </g>
     </g>
     <g id="text_6">
      <!-- 2020 -->
      <g style="fill:#4d4d4d;" transform="translate(461.700778 240.596625)scale(0.088 -0.088)">
       <use xlink:href="#DejaVuSans-50"/>
       <use x="63.623047" xlink:href="#DejaVuSans-48"/>
       <use x="127.246094" xlink:href="#DejaVuSans-50"/>
       <use x="190.869141" xlink:href="#DejaVuSans-48"/>
      </g>
     </g>
    </g>
    <g id="xtick_7">
     <g id="line2d_13">
      <path clip-path="url(#pffc38cc01d)" d="M 107.662415 228.96 
L 107.662415 7.2 
" style="fill:none;stroke:#fafafa;"/>
     </g>
     <g id="line2d_14">
      <path d="M 107.662415 228.96 
" style="fill:none;stroke:#000000;stroke-width:1.5;"/>
      <defs>
       <path d="M 0 0 
L 0 1.375 
" id="m7fe4628116" style="stroke:#000000;"/>
      </defs>
      <g>
       <use style="stroke:#000000;" x="107.662415" xlink:href="#m7fe4628116" y="228.96"/>
      </g>
     </g>
    </g>
    <g id="xtick_8">
     <g id="line2d_15">
      <path clip-path="url(#pffc38cc01d)" d="M 188.826051 228.96 
L 188.826051 7.2 
" style="fill:none;stroke:#fafafa;"/>
     </g>
     <g id="line2d_16">
      <path d="M 188.826051 228.96 
" style="fill:none;stroke:#000000;stroke-width:1.5;"/>
      <g>
       <use style="stroke:#000000;" x="188.826051" xlink:href="#m7fe4628116" y="228.96"/>
      </g>
     </g>
    </g>
    <g id="xtick_9">
     <g id="line2d_17">
      <path clip-path="url(#pffc38cc01d)" d="M 269.989687 228.96 
L 269.989687 7.2 
" style="fill:none;stroke:#fafafa;"/>
     </g>
     <g id="line2d_18">
      <path d="M 269.989687 228.96 
" style="fill:none;stroke:#000000;stroke-width:1.5;"/>
      <g>
       <use style="stroke:#000000;" x="269.989687" xlink:href="#m7fe4628116" y="228.96"/>
      </g>
     </g>
    </g>
    <g id="xtick_10">
     <g id="line2d_19">
      <path clip-path="url(#pffc38cc01d)" d="M 351.153324 228.96 
L 351.153324 7.2 
" style="fill:none;stroke:#fafafa;"/>
     </g>
     <g id="line2d_20">
      <path d="M 351.153324 228.96 
" style="fill:none;stroke:#000000;stroke-width:1.5;"/>
      <g>
       <use style="stroke:#000000;" x="351.153324" xlink:href="#m7fe4628116" y="228.96"/>
      </g>
     </g>
    </g>
    <g id="xtick_11">
     <g id="line2d_21">
      <path clip-path="url(#pffc38cc01d)" d="M 432.31696 228.96 
L 432.31696 7.2 
" style="fill:none;stroke:#fafafa;"/>
     </g>
     <g id="line2d_22">
      <path d="M 432.31696 228.96 
" style="fill:none;stroke:#000000;stroke-width:1.5;"/>
      <g>
       <use style="stroke:#000000;" x="432.31696" xlink:href="#m7fe4628116" y="228.96"/>
      </g>
     </g>
    </g>
    <g id="text_7">
     <!-- Year -->
     <defs>
      <path d="M -0.203125 72.90625 
L 10.40625 72.90625 
L 30.609375 42.921875 
L 50.6875 72.90625 
L 61.28125 72.90625 
L 35.5 34.71875 
L 35.5 0 
L 25.59375 0 
L 25.59375 34.71875 
z
" id="DejaVuSans-89"/>
      <path d="M 56.203125 29.59375 
L 56.203125 25.203125 
L 14.890625 25.203125 
Q 15.484375 15.921875 20.484375 11.0625 
Q 25.484375 6.203125 34.421875 6.203125 
Q 39.59375 6.203125 44.453125 7.46875 
Q 49.3125 8.734375 54.109375 11.28125 
L 54.109375 2.78125 
Q 49.265625 0.734375 44.1875 -0.34375 
Q 39.109375 -1.421875 33.890625 -1.421875 
Q 20.796875 -1.421875 13.15625 6.1875 
Q 5.515625 13.8125 5.515625 26.8125 
Q 5.515625 40.234375 12.765625 48.109375 
Q 20.015625 56 32.328125 56 
Q 43.359375 56 49.78125 48.890625 
Q 56.203125 41.796875 56.203125 29.59375 
z
M 47.21875 32.234375 
Q 47.125 39.59375 43.09375 43.984375 
Q 39.0625 48.390625 32.421875 48.390625 
Q 24.90625 48.390625 20.390625 44.140625 
Q 15.875 39.890625 15.1875 32.171875 
z
" id="DejaVuSans-101"/>
      <path d="M 34.28125 27.484375 
Q 23.390625 27.484375 19.1875 25 
Q 14.984375 22.515625 14.984375 16.5 
Q 14.984375 11.71875 18.140625 8.90625 
Q 21.296875 6.109375 26.703125 6.109375 
Q 34.1875 6.109375 38.703125 11.40625 
Q 43.21875 16.703125 43.21875 25.484375 
L 43.21875 27.484375 
z
M 52.203125 31.203125 
L 52.203125 0 
L 43.21875 0 
L 43.21875 8.296875 
Q 40.140625 3.328125 35.546875 0.953125 
Q 30.953125 -1.421875 24.3125 -1.421875 
Q 15.921875 -1.421875 10.953125 3.296875 
Q 6 8.015625 6 15.921875 
Q 6 25.140625 12.171875 29.828125 
Q 18.359375 34.515625 30.609375 34.515625 
L 43.21875 34.515625 
L 43.21875 35.40625 
Q 43.21875 41.609375 39.140625 45 
Q 35.0625 48.390625 27.6875 48.390625 
Q 23 48.390625 18.546875 47.265625 
Q 14.109375 46.140625 10.015625 43.890625 
L 10.015625 52.203125 
Q 14.9375 54.109375 19.578125 55.046875 
Q 24.21875 56 28.609375 56 
Q 40.484375 56 46.34375 49.84375 
Q 52.203125 43.703125 52.203125 31.203125 
z
" id="DejaVuSans-97"/>
      <path d="M 41.109375 46.296875 
Q 39.59375 47.171875 37.8125 47.578125 
Q 36.03125 48 33.890625 48 
Q 26.265625 48 22.1875 43.046875 
Q 18.109375 38.09375 18.109375 28.8125 
L 18.109375 0 
L 9.078125 0 
L 9.078125 54.6875 
L 18.109375 54.6875 
L 18.109375 46.1875 
Q 20.953125 51.171875 25.484375 53.578125 
Q 30.03125 56 36.53125 56 
Q 37.453125 56 38.578125 55.875 
Q 39.703125 55.765625 41.0625 55.515625 
z
" id="DejaVuSans-114"/>
     </defs>
     <g transform="translate(250.425859 255.185031)scale(0.11 -0.11)">
      <use xlink:href="#DejaVuSans-89"/>
      <use x="60.880859" xlink:href="#DejaVuSans-101"/>
      <use x="122.404297" xlink:href="#DejaVuSans-97"/>
      <use x="183.683594" xlink:href="#DejaVuSans-114"/>
     </g>
    </g>
   </g>
   <g id="matplotlib.axis_2">
    <g id="ytick_1">
     <g id="line2d_23">
      <path clip-path="url(#pffc38cc01d)" d="M 46.789687 218.88 
L 493.189687 218.88 
" style="fill:none;stroke:#e5e5e5;stroke-width:0.8;"/>
     </g>
     <g id="line2d_24">
      <path d="M 46.789687 218.88 
" style="fill:none;stroke:#000000;stroke-width:1.5;"/>
      <defs>
       <path d="M 0 0 
L -2.75 0 
" id="m7d41b8411b" style="stroke:#000000;"/>
      </defs>
      <g>
       <use style="stroke:#000000;" x="46.789687" xlink:href="#m7d41b8411b" y="218.88"/>
      </g>
     </g>
     <g id="text_8">
      <!-- 0 -->
      <g style="fill:#4d4d4d;" transform="translate(36.240687 221.30825)scale(0.088 -0.088)">
       <use xlink:href="#DejaVuSans-48"/>
      </g>
     </g>
    </g>
    <g id="ytick_2">
     <g id="line2d_25">
      <path clip-path="url(#pffc38cc01d)" d="M 46.789687 168.48 
L 493.189687 168.48 
" style="fill:none;stroke:#e5e5e5;stroke-width:0.8;"/>
     </g>
     <g id="line2d_26">
      <path d="M 46.789687 168.48 
" style="fill:none;stroke:#000000;stroke-width:1.5;"/>
      <g>
       <use style="stroke:#000000;" x="46.789687" xlink:href="#m7d41b8411b" y="168.48"/>
      </g>
     </g>
     <g id="text_9">
      <!-- 0.25 -->
      <defs>
       <path d="M 10.6875 12.40625 
L 21 12.40625 
L 21 0 
L 10.6875 0 
z
" id="DejaVuSans-46"/>
       <path d="M 10.796875 72.90625 
L 49.515625 72.90625 
L 49.515625 64.59375 
L 19.828125 64.59375 
L 19.828125 46.734375 
Q 21.96875 47.46875 24.109375 47.828125 
Q 26.265625 48.1875 28.421875 48.1875 
Q 40.625 48.1875 47.75 41.5 
Q 54.890625 34.8125 54.890625 23.390625 
Q 54.890625 11.625 47.5625 5.09375 
Q 40.234375 -1.421875 26.90625 -1.421875 
Q 22.3125 -1.421875 17.546875 -0.640625 
Q 12.796875 0.140625 7.71875 1.703125 
L 7.71875 11.625 
Q 12.109375 9.234375 16.796875 8.0625 
Q 21.484375 6.890625 26.703125 6.890625 
Q 35.15625 6.890625 40.078125 11.328125 
Q 45.015625 15.765625 45.015625 23.390625 
Q 45.015625 31 40.078125 35.4375 
Q 35.15625 39.890625 26.703125 39.890625 
Q 22.75 39.890625 18.8125 39.015625 
Q 14.890625 38.140625 10.796875 36.28125 
z
" id="DejaVuSans-53"/>
      </defs>
      <g style="fill:#4d4d4d;" transform="translate(22.245937 170.90825)scale(0.088 -0.088)">
       <use xlink:href="#DejaVuSans-48"/>
       <use x="63.623047" xlink:href="#DejaVuSans-46"/>
       <use x="95.410156" xlink:href="#DejaVuSans-50"/>
       <use x="159.033203" xlink:href="#DejaVuSans-53"/>
      </g>
     </g>
    </g>
    <g id="ytick_3">
     <g id="line2d_27">
      <path clip-path="url(#pffc38cc01d)" d="M 46.789687 118.08 
L 493.189687 118.08 
" style="fill:none;stroke:#e5e5e5;stroke-width:0.8;"/>
     </g>
     <g id="line2d_28">
      <path d="M 46.789687 118.08 
" style="fill:none;stroke:#000000;stroke-width:1.5;"/>
      <g>
       <use style="stroke:#000000;" x="46.789687" xlink:href="#m7d41b8411b" y="118.08"/>
      </g>
     </g>
     <g id="text_10">
      <!-- 0.50 -->
      <g style="fill:#4d4d4d;" transform="translate(22.245937 120.50825)scale(0.088 -0.088)">
       <use xlink:href="#DejaVuSans-48"/>
       <use x="63.623047" xlink:href="#DejaVuSans-46"/>
       <use x="95.410156" xlink:href="#DejaVuSans-53"/>
       <use x="159.033203" xlink:href="#DejaVuSans-48"/>
      </g>
     </g>
    </g>
    <g id="ytick_4">
     <g id="line2d_29">
      <path clip-path="url(#pffc38cc01d)" d="M 46.789687 67.68 
L 493.189687 67.68 
" style="fill:none;stroke:#e5e5e5;stroke-width:0.8;"/>
     </g>
     <g id="line2d_30">
      <path d="M 46.789687 67.68 
" style="fill:none;stroke:#000000;stroke-width:1.5;"/>
      <g>
       <use style="stroke:#000000;" x="46.789687" xlink:href="#m7d41b8411b" y="67.68"/>
      </g>
     </g>
     <g id="text_11">
      <!-- 0.75 -->
      <g style="fill:#4d4d4d;" transform="translate(22.245937 70.10825)scale(0.088 -0.088)">
       <use xlink:href="#DejaVuSans-48"/>
       <use x="63.623047" xlink:href="#DejaVuSans-46"/>
       <use x="95.410156" xlink:href="#DejaVuSans-55"/>
       <use x="159.033203" xlink:href="#DejaVuSans-53"/>
      </g>
     </g>
    </g>
    <g id="ytick_5">
     <g id="line2d_31">
      <path clip-path="url(#pffc38cc01d)" d="M 46.789687 17.28 
L 493.189687 17.28 
" style="fill:none;stroke:#e5e5e5;stroke-width:0.8;"/>
     </g>
     <g id="line2d_32">
      <path d="M 46.789687 17.28 
" style="fill:none;stroke:#000000;stroke-width:1.5;"/>
      <g>
       <use style="stroke:#000000;" x="46.789687" xlink:href="#m7d41b8411b" y="17.28"/>
      </g>
     </g>
     <g id="text_12">
      <!-- 1 -->
      <g style="fill:#4d4d4d;" transform="translate(36.240687 19.70825)scale(0.088 -0.088)">
       <use xlink:href="#DejaVuSans-49"/>
      </g>
     </g>
    </g>
    <g id="ytick_6">
     <g id="line2d_33">
      <path clip-path="url(#pffc38cc01d)" d="M 46.789687 193.68 
L 493.189687 193.68 
" style="fill:none;stroke:#fafafa;"/>
     </g>
     <g id="line2d_34">
      <path d="M 46.789687 193.68 
" style="fill:none;stroke:#000000;stroke-width:1.5;"/>
      <defs>
       <path d="M 0 0 
L -1.375 0 
" id="m5a5b3e0161" style="stroke:#000000;"/>
      </defs>
      <g>
       <use style="stroke:#000000;" x="46.789687" xlink:href="#m5a5b3e0161" y="193.68"/>
      </g>
     </g>
    </g>
    <g id="ytick_7">
     <g id="line2d_35">
      <path clip-path="url(#pffc38cc01d)" d="M 46.789687 143.28 
L 493.189687 143.28 
" style="fill:none;stroke:#fafafa;"/>
     </g>
     <g id="line2d_36">
      <path d="M 46.789687 143.28 
" style="fill:none;stroke:#000000;stroke-width:1.5;"/>
      <g>
       <use style="stroke:#000000;" x="46.789687" xlink:href="#m5a5b3e0161" y="143.28"/>
      </g>
     </g>
    </g>
    <g id="ytick_8">
     <g id="line2d_37">
      <path clip-path="url(#pffc38cc01d)" d="M 46.789687 92.88 
L 493.189687 92.88 
" style="fill:none;stroke:#fafafa;"/>
     </g>
     <g id="line2d_38">
      <path d="M 46.789687 92.88 
" style="fill:none;stroke:#000000;stroke-width:1.5;"/>
      <g>
       <use style="stroke:#000000;" x="46.789687" xlink:href="#m5a5b3e0161" y="92.88"/>
      </g>
     </g>
    </g>
    <g id="ytick_9">
     <g id="line2d_39">
      <path clip-path="url(#pffc38cc01d)" d="M 46.789687 42.48 
L 493.189687 42.48 
" style="fill:none;stroke:#fafafa;"/>
     </g>
     <g id="line2d_40">
      <path d="M 46.789687 42.48 
" style="fill:none;stroke:#000000;stroke-width:1.5;"/>
      <g>
       <use style="stroke:#000000;" x="46.789687" xlink:href="#m5a5b3e0161" y="42.48"/>
      </g>
     </g>
    </g>
    <g id="text_13">
     <!-- Q1(t) percentile -->
     <defs>
      <path d="M 39.40625 66.21875 
Q 28.65625 66.21875 22.328125 58.203125 
Q 16.015625 50.203125 16.015625 36.375 
Q 16.015625 22.609375 22.328125 14.59375 
Q 28.65625 6.59375 39.40625 6.59375 
Q 50.140625 6.59375 56.421875 14.59375 
Q 62.703125 22.609375 62.703125 36.375 
Q 62.703125 50.203125 56.421875 58.203125 
Q 50.140625 66.21875 39.40625 66.21875 
z
M 53.21875 1.3125 
L 66.21875 -12.890625 
L 54.296875 -12.890625 
L 43.5 -1.21875 
Q 41.890625 -1.3125 41.03125 -1.359375 
Q 40.1875 -1.421875 39.40625 -1.421875 
Q 24.03125 -1.421875 14.8125 8.859375 
Q 5.609375 19.140625 5.609375 36.375 
Q 5.609375 53.65625 14.8125 63.9375 
Q 24.03125 74.21875 39.40625 74.21875 
Q 54.734375 74.21875 63.90625 63.9375 
Q 73.09375 53.65625 73.09375 36.375 
Q 73.09375 23.6875 67.984375 14.640625 
Q 62.890625 5.609375 53.21875 1.3125 
z
" id="DejaVuSans-81"/>
      <path d="M 31 75.875 
Q 24.46875 64.65625 21.28125 53.65625 
Q 18.109375 42.671875 18.109375 31.390625 
Q 18.109375 20.125 21.3125 9.0625 
Q 24.515625 -2 31 -13.1875 
L 23.1875 -13.1875 
Q 15.875 -1.703125 12.234375 9.375 
Q 8.59375 20.453125 8.59375 31.390625 
Q 8.59375 42.28125 12.203125 53.3125 
Q 15.828125 64.359375 23.1875 75.875 
z
" id="DejaVuSans-40"/>
      <path d="M 18.3125 70.21875 
L 18.3125 54.6875 
L 36.8125 54.6875 
L 36.8125 47.703125 
L 18.3125 47.703125 
L 18.3125 18.015625 
Q 18.3125 11.328125 20.140625 9.421875 
Q 21.96875 7.515625 27.59375 7.515625 
L 36.8125 7.515625 
L 36.8125 0 
L 27.59375 0 
Q 17.1875 0 13.234375 3.875 
Q 9.28125 7.765625 9.28125 18.015625 
L 9.28125 47.703125 
L 2.6875 47.703125 
L 2.6875 54.6875 
L 9.28125 54.6875 
L 9.28125 70.21875 
z
" id="DejaVuSans-116"/>
      <path d="M 8.015625 75.875 
L 15.828125 75.875 
Q 23.140625 64.359375 26.78125 53.3125 
Q 30.421875 42.28125 30.421875 31.390625 
Q 30.421875 20.453125 26.78125 9.375 
Q 23.140625 -1.703125 15.828125 -13.1875 
L 8.015625 -13.1875 
Q 14.5 -2 17.703125 9.0625 
Q 20.90625 20.125 20.90625 31.390625 
Q 20.90625 42.671875 17.703125 53.65625 
Q 14.5 64.65625 8.015625 75.875 
z
" id="DejaVuSans-41"/>
      <path id="DejaVuSans-32"/>
      <path d="M 18.109375 8.203125 
L 18.109375 -20.796875 
L 9.078125 -20.796875 
L 9.078125 54.6875 
L 18.109375 54.6875 
L 18.109375 46.390625 
Q 20.953125 51.265625 25.265625 53.625 
Q 29.59375 56 35.59375 56 
Q 45.5625 56 51.78125 48.09375 
Q 58.015625 40.1875 58.015625 27.296875 
Q 58.015625 14.40625 51.78125 6.484375 
Q 45.5625 -1.421875 35.59375 -1.421875 
Q 29.59375 -1.421875 25.265625 0.953125 
Q 20.953125 3.328125 18.109375 8.203125 
z
M 48.6875 27.296875 
Q 48.6875 37.203125 44.609375 42.84375 
Q 40.53125 48.484375 33.40625 48.484375 
Q 26.265625 48.484375 22.1875 42.84375 
Q 18.109375 37.203125 18.109375 27.296875 
Q 18.109375 17.390625 22.1875 11.75 
Q 26.265625 6.109375 33.40625 6.109375 
Q 40.53125 6.109375 44.609375 11.75 
Q 48.6875 17.390625 48.6875 27.296875 
z
" id="DejaVuSans-112"/>
      <path d="M 48.78125 52.59375 
L 48.78125 44.1875 
Q 44.96875 46.296875 41.140625 47.34375 
Q 37.3125 48.390625 33.40625 48.390625 
Q 24.65625 48.390625 19.8125 42.84375 
Q 14.984375 37.3125 14.984375 27.296875 
Q 14.984375 17.28125 19.8125 11.734375 
Q 24.65625 6.203125 33.40625 6.203125 
Q 37.3125 6.203125 41.140625 7.25 
Q 44.96875 8.296875 48.78125 10.40625 
L 48.78125 2.09375 
Q 45.015625 0.34375 40.984375 -0.53125 
Q 36.96875 -1.421875 32.421875 -1.421875 
Q 20.0625 -1.421875 12.78125 6.34375 
Q 5.515625 14.109375 5.515625 27.296875 
Q 5.515625 40.671875 12.859375 48.328125 
Q 20.21875 56 33.015625 56 
Q 37.15625 56 41.109375 55.140625 
Q 45.0625 54.296875 48.78125 52.59375 
z
" id="DejaVuSans-99"/>
      <path d="M 54.890625 33.015625 
L 54.890625 0 
L 45.90625 0 
L 45.90625 32.71875 
Q 45.90625 40.484375 42.875 44.328125 
Q 39.84375 48.1875 33.796875 48.1875 
Q 26.515625 48.1875 22.3125 43.546875 
Q 18.109375 38.921875 18.109375 30.90625 
L 18.109375 0 
L 9.078125 0 
L 9.078125 54.6875 
L 18.109375 54.6875 
L 18.109375 46.1875 
Q 21.34375 51.125 25.703125 53.5625 
Q 30.078125 56 35.796875 56 
Q 45.21875 56 50.046875 50.171875 
Q 54.890625 44.34375 54.890625 33.015625 
z
" id="DejaVuSans-110"/>
      <path d="M 9.421875 54.6875 
L 18.40625 54.6875 
L 18.40625 0 
L 9.421875 0 
z
M 9.421875 75.984375 
L 18.40625 75.984375 
L 18.40625 64.59375 
L 9.421875 64.59375 
z
" id="DejaVuSans-105"/>
      <path d="M 9.421875 75.984375 
L 18.40625 75.984375 
L 18.40625 0 
L 9.421875 0 
z
" id="DejaVuSans-108"/>
     </defs>
     <g transform="translate(15.558281 160.290234)rotate(-90)scale(0.11 -0.11)">
      <use xlink:href="#DejaVuSans-81"/>
      <use x="78.710938" xlink:href="#DejaVuSans-49"/>
      <use x="142.333984" xlink:href="#DejaVuSans-40"/>
      <use x="181.347656" xlink:href="#DejaVuSans-116"/>
      <use x="220.556641" xlink:href="#DejaVuSans-41"/>
      <use x="259.570312" xlink:href="#DejaVuSans-32"/>
      <use x="291.357422" xlink:href="#DejaVuSans-112"/>
      <use x="354.833984" xlink:href="#DejaVuSans-101"/>
      <use x="416.357422" xlink:href="#DejaVuSans-114"/>
      <use x="457.439453" xlink:href="#DejaVuSans-99"/>
      <use x="512.419922" xlink:href="#DejaVuSans-101"/>
      <use x="573.943359" xlink:href="#DejaVuSans-110"/>
      <use x="637.322266" xlink:href="#DejaVuSans-116"/>
      <use x="676.53125" xlink:href="#DejaVuSans-105"/>
      <use x="704.314453" xlink:href="#DejaVuSans-108"/>
      <use x="732.097656" xlink:href="#DejaVuSans-101"/>
     </g>
    </g>
   </g>
   <g id="PathCollection_1">
    <path clip-path="url(#pffc38cc01d)" d="M 83.313324 19.052454 
C 83.783384 19.052454 84.234255 18.865697 84.566638 18.533314 
C 84.899021 18.200931 85.085778 17.75006 85.085778 17.28 
C 85.085778 16.80994 84.899021 16.359069 84.566638 16.026686 
C 84.234255 15.694303 83.783384 15.507546 83.313324 15.507546 
C 82.843264 15.507546 82.392393 15.694303 82.06001 16.026686 
C 81.727627 16.359069 81.54087 16.80994 81.54087 17.28 
C 81.54087 17.75006 81.727627 18.200931 82.06001 18.533314 
C 82.392393 18.865697 82.843264 19.052454 83.313324 19.052454 
z
" style="stroke:#000000;stroke-width:0.886227;"/>
    <path clip-path="url(#pffc38cc01d)" d="M 91.429688 52.652454 
C 91.899748 52.652454 92.350619 52.465697 92.683002 52.133314 
C 93.015384 51.800931 93.202141 51.35006 93.202141 50.88 
C 93.202141 50.40994 93.015384 49.959069 92.683002 49.626686 
C 92.350619 49.294303 91.899748 49.107546 91.429688 49.107546 
C 90.959627 49.107546 90.508756 49.294303 90.176373 49.626686 
C 89.843991 49.959069 89.657234 50.40994 89.657234 50.88 
C 89.657234 51.35006 89.843991 51.800931 90.176373 52.133314 
C 90.508756 52.465697 90.959627 52.652454 91.429688 52.652454 
z
" style="stroke:#000000;stroke-width:0.886227;"/>
    <path clip-path="url(#pffc38cc01d)" d="M 99.546051 170.252454 
C 100.016111 170.252454 100.466982 170.065697 100.799365 169.733314 
C 101.131748 169.400931 101.318505 168.95006 101.318505 168.48 
C 101.318505 168.00994 101.131748 167.559069 100.799365 167.226686 
C 100.466982 166.894303 100.016111 166.707546 99.546051 166.707546 
C 99.075991 166.707546 98.62512 166.894303 98.292737 167.226686 
C 97.960354 167.559069 97.773597 168.00994 97.773597 168.48 
C 97.773597 168.95006 97.960354 169.400931 98.292737 169.733314 
C 98.62512 170.065697 99.075991 170.252454 99.546051 170.252454 
z
" style="stroke:#000000;stroke-width:0.886227;"/>
    <path clip-path="url(#pffc38cc01d)" d="M 107.662415 110.656268 
C 108.132475 110.656268 108.583346 110.469511 108.915729 110.137129 
C 109.248112 109.804746 109.434869 109.353875 109.434869 108.883814 
C 109.434869 108.413754 109.248112 107.962883 108.915729 107.6305 
C 108.583346 107.298117 108.132475 107.111361 107.662415 107.111361 
C 107.192355 107.111361 106.741483 107.298117 106.409101 107.6305 
C 106.076718 107.962883 105.889961 108.413754 105.889961 108.883814 
C 105.889961 109.353875 106.076718 109.804746 106.409101 110.137129 
C 106.741483 110.469511 107.192355 110.656268 107.662415 110.656268 
z
" style="stroke:#000000;stroke-width:0.886227;"/>
    <path clip-path="url(#pffc38cc01d)" d="M 115.778778 121.839624 
C 116.248839 121.839624 116.69971 121.652867 117.032093 121.320484 
C 117.364475 120.988101 117.551232 120.53723 117.551232 120.06717 
C 117.551232 119.59711 117.364475 119.146239 117.032093 118.813856 
C 116.69971 118.481473 116.248839 118.294716 115.778778 118.294716 
C 115.308718 118.294716 114.857847 118.481473 114.525464 118.813856 
C 114.193081 119.146239 114.006325 119.59711 114.006325 120.06717 
C 114.006325 120.53723 114.193081 120.988101 114.525464 121.320484 
C 114.857847 121.652867 115.308718 121.839624 115.778778 121.839624 
z
" style="stroke:#000000;stroke-width:0.886227;"/>
    <path clip-path="url(#pffc38cc01d)" d="M 123.895142 96.371114 
C 124.365202 96.371114 124.816073 96.184357 125.148456 95.851974 
C 125.480839 95.519591 125.667596 95.06872 125.667596 94.59866 
C 125.667596 94.128599 125.480839 93.677728 125.148456 93.345346 
C 124.816073 93.012963 124.365202 92.826206 123.895142 92.826206 
C 123.425082 92.826206 122.974211 93.012963 122.641828 93.345346 
C 122.309445 93.677728 122.122688 94.128599 122.122688 94.59866 
C 122.122688 95.06872 122.309445 95.519591 122.641828 95.851974 
C 122.974211 96.184357 123.425082 96.371114 123.895142 96.371114 
z
" style="stroke:#000000;stroke-width:0.886227;"/>
    <path clip-path="url(#pffc38cc01d)" d="M 132.011506 119.340259 
C 132.481566 119.340259 132.932437 119.153502 133.26482 118.821119 
C 133.597203 118.488736 133.78396 118.037865 133.78396 117.567805 
C 133.78396 117.097745 133.597203 116.646874 133.26482 116.314491 
C 132.932437 115.982108 132.481566 115.795351 132.011506 115.795351 
C 131.541445 115.795351 131.090574 115.982108 130.758192 116.314491 
C 130.425809 116.646874 130.239052 117.097745 130.239052 117.567805 
C 130.239052 118.037865 130.425809 118.488736 130.758192 118.821119 
C 131.090574 119.153502 131.541445 119.340259 132.011506 119.340259 
z
" style="stroke:#000000;stroke-width:0.886227;"/>
    <path clip-path="url(#pffc38cc01d)" d="M 140.127869 76.381358 
C 140.59793 76.381358 141.048801 76.194601 141.381183 75.862218 
C 141.713566 75.529836 141.900323 75.078964 141.900323 74.608904 
C 141.900323 74.138844 141.713566 73.687973 141.381183 73.35559 
C 141.048801 73.023207 140.59793 72.83645 140.127869 72.83645 
C 139.657809 72.83645 139.206938 73.023207 138.874555 73.35559 
C 138.542172 73.687973 138.355415 74.138844 138.355415 74.608904 
C 138.355415 75.078964 138.542172 75.529836 138.874555 75.862218 
C 139.206938 76.194601 139.657809 76.381358 140.127869 76.381358 
z
" style="stroke:#000000;stroke-width:0.886227;"/>
    <path clip-path="url(#pffc38cc01d)" d="M 148.244233 130.65544 
C 148.714293 130.65544 149.165164 130.468683 149.497547 130.1363 
C 149.82993 129.803918 150.016687 129.353047 150.016687 128.882986 
C 150.016687 128.412926 149.82993 127.962055 149.497547 127.629672 
C 149.165164 127.297289 148.714293 127.110532 148.244233 127.110532 
C 147.774173 127.110532 147.323302 127.297289 146.990919 127.629672 
C 146.658536 127.962055 146.471779 128.412926 146.471779 128.882986 
C 146.471779 129.353047 146.658536 129.803918 146.990919 130.1363 
C 147.323302 130.468683 147.774173 130.65544 148.244233 130.65544 
z
" style="stroke:#000000;stroke-width:0.886227;"/>
    <path clip-path="url(#pffc38cc01d)" d="M 156.360597 65.744947 
C 156.830657 65.744947 157.281528 65.55819 157.613911 65.225807 
C 157.946294 64.893424 158.13305 64.442553 158.13305 63.972493 
C 158.13305 63.502433 157.946294 63.051562 157.613911 62.719179 
C 157.281528 62.386796 156.830657 62.200039 156.360597 62.200039 
C 155.890536 62.200039 155.439665 62.386796 155.107282 62.719179 
C 154.7749 63.051562 154.588143 63.502433 154.588143 63.972493 
C 154.588143 64.442553 154.7749 64.893424 155.107282 65.225807 
C 155.439665 65.55819 155.890536 65.744947 156.360597 65.744947 
z
" style="stroke:#000000;stroke-width:0.886227;"/>
    <path clip-path="url(#pffc38cc01d)" d="M 164.47696 85.364582 
C 164.94702 85.364582 165.397892 85.177826 165.730274 84.845443 
C 166.062657 84.51306 166.249414 84.062189 166.249414 83.592129 
C 166.249414 83.122068 166.062657 82.671197 165.730274 82.338814 
C 165.397892 82.006432 164.94702 81.819675 164.47696 81.819675 
C 164.0069 81.819675 163.556029 82.006432 163.223646 82.338814 
C 162.891263 82.671197 162.704506 83.122068 162.704506 83.592129 
C 162.704506 84.062189 162.891263 84.51306 163.223646 84.845443 
C 163.556029 85.177826 164.0069 85.364582 164.47696 85.364582 
z
" style="stroke:#000000;stroke-width:0.886227;"/>
    <path clip-path="url(#pffc38cc01d)" d="M 172.593324 90.810299 
C 173.063384 90.810299 173.514255 90.623542 173.846638 90.291159 
C 174.179021 89.958776 174.365778 89.507905 174.365778 89.037845 
C 174.365778 88.567785 174.179021 88.116914 173.846638 87.784531 
C 173.514255 87.452148 173.063384 87.265391 172.593324 87.265391 
C 172.123264 87.265391 171.672393 87.452148 171.34001 87.784531 
C 171.007627 88.116914 170.82087 88.567785 170.82087 89.037845 
C 170.82087 89.507905 171.007627 89.958776 171.34001 90.291159 
C 171.672393 90.623542 172.123264 90.810299 172.593324 90.810299 
z
" style="stroke:#000000;stroke-width:0.886227;"/>
    <path clip-path="url(#pffc38cc01d)" d="M 180.709687 101.969997 
C 181.179748 101.969997 181.630619 101.78324 181.963002 101.450857 
C 182.295384 101.118474 182.482141 100.667603 182.482141 100.197543 
C 182.482141 99.727483 182.295384 99.276612 181.963002 98.944229 
C 181.630619 98.611846 181.179748 98.425089 180.709687 98.425089 
C 180.239627 98.425089 179.788756 98.611846 179.456373 98.944229 
C 179.123991 99.276612 178.937234 99.727483 178.937234 100.197543 
C 178.937234 100.667603 179.123991 101.118474 179.456373 101.450857 
C 179.788756 101.78324 180.239627 101.969997 180.709687 101.969997 
z
" style="stroke:#000000;stroke-width:0.886227;"/>
    <path clip-path="url(#pffc38cc01d)" d="M 188.826051 88.639254 
C 189.296111 88.639254 189.746982 88.452497 190.079365 88.120115 
C 190.411748 87.787732 190.598505 87.336861 190.598505 86.866801 
C 190.598505 86.39674 190.411748 85.945869 190.079365 85.613486 
C 189.746982 85.281104 189.296111 85.094347 188.826051 85.094347 
C 188.355991 85.094347 187.90512 85.281104 187.572737 85.613486 
C 187.240354 85.945869 187.053597 86.39674 187.053597 86.866801 
C 187.053597 87.336861 187.240354 87.787732 187.572737 88.120115 
C 187.90512 88.452497 188.355991 88.639254 188.826051 88.639254 
z
" style="stroke:#000000;stroke-width:0.886227;"/>
    <path clip-path="url(#pffc38cc01d)" d="M 196.942415 111.410945 
C 197.412475 111.410945 197.863346 111.224188 198.195729 110.891805 
C 198.528112 110.559422 198.714869 110.108551 198.714869 109.638491 
C 198.714869 109.168431 198.528112 108.71756 198.195729 108.385177 
C 197.863346 108.052794 197.412475 107.866037 196.942415 107.866037 
C 196.472355 107.866037 196.021483 108.052794 195.689101 108.385177 
C 195.356718 108.71756 195.169961 109.168431 195.169961 109.638491 
C 195.169961 110.108551 195.356718 110.559422 195.689101 110.891805 
C 196.021483 111.224188 196.472355 111.410945 196.942415 111.410945 
z
" style="stroke:#000000;stroke-width:0.886227;"/>
    <path clip-path="url(#pffc38cc01d)" d="M 205.058778 97.592633 
C 205.528839 97.592633 205.97971 97.405876 206.312093 97.073494 
C 206.644475 96.741111 206.831232 96.29024 206.831232 95.820179 
C 206.831232 95.350119 206.644475 94.899248 206.312093 94.566865 
C 205.97971 94.234483 205.528839 94.047726 205.058778 94.047726 
C 204.588718 94.047726 204.137847 94.234483 203.805464 94.566865 
C 203.473081 94.899248 203.286325 95.350119 203.286325 95.820179 
C 203.286325 96.29024 203.473081 96.741111 203.805464 97.073494 
C 204.137847 97.405876 204.588718 97.592633 205.058778 97.592633 
z
" style="stroke:#000000;stroke-width:0.886227;"/>
    <path clip-path="url(#pffc38cc01d)" d="M 213.175142 118.791354 
C 213.645202 118.791354 214.096073 118.604597 214.428456 118.272214 
C 214.760839 117.939831 214.947596 117.48896 214.947596 117.0189 
C 214.947596 116.548839 214.760839 116.097968 214.428456 115.765586 
C 214.096073 115.433203 213.645202 115.246446 213.175142 115.246446 
C 212.705082 115.246446 212.254211 115.433203 211.921828 115.765586 
C 211.589445 116.097968 211.402688 116.548839 211.402688 117.0189 
C 211.402688 117.48896 211.589445 117.939831 211.921828 118.272214 
C 212.254211 118.604597 212.705082 118.791354 213.175142 118.791354 
z
" style="stroke:#000000;stroke-width:0.886227;"/>
    <path clip-path="url(#pffc38cc01d)" d="M 221.291506 112.317119 
C 221.761566 112.317119 222.212437 112.130362 222.54482 111.79798 
C 222.877203 111.465597 223.06396 111.014726 223.06396 110.544665 
C 223.06396 110.074605 222.877203 109.623734 222.54482 109.291351 
C 222.212437 108.958968 221.761566 108.772212 221.291506 108.772212 
C 220.821445 108.772212 220.370574 108.958968 220.038192 109.291351 
C 219.705809 109.623734 219.519052 110.074605 219.519052 110.544665 
C 219.519052 111.014726 219.705809 111.465597 220.038192 111.79798 
C 220.370574 112.130362 220.821445 112.317119 221.291506 112.317119 
z
" style="stroke:#000000;stroke-width:0.886227;"/>
    <path clip-path="url(#pffc38cc01d)" d="M 229.407869 105.950421 
C 229.87793 105.950421 230.328801 105.763664 230.661183 105.431282 
C 230.993566 105.098899 231.180323 104.648028 231.180323 104.177967 
C 231.180323 103.707907 230.993566 103.257036 230.661183 102.924653 
C 230.328801 102.59227 229.87793 102.405514 229.407869 102.405514 
C 228.937809 102.405514 228.486938 102.59227 228.154555 102.924653 
C 227.822172 103.257036 227.635415 103.707907 227.635415 104.177967 
C 227.635415 104.648028 227.822172 105.098899 228.154555 105.431282 
C 228.486938 105.763664 228.937809 105.950421 229.407869 105.950421 
z
" style="stroke:#000000;stroke-width:0.886227;"/>
    <path clip-path="url(#pffc38cc01d)" d="M 237.524233 102.427305 
C 237.994293 102.427305 238.445164 102.240549 238.777547 101.908166 
C 239.10993 101.575783 239.296687 101.124912 239.296687 100.654852 
C 239.296687 100.184791 239.10993 99.73392 238.777547 99.401537 
C 238.445164 99.069155 237.994293 98.882398 237.524233 98.882398 
C 237.054173 98.882398 236.603302 99.069155 236.270919 99.401537 
C 235.938536 99.73392 235.751779 100.184791 235.751779 100.654852 
C 235.751779 101.124912 235.938536 101.575783 236.270919 101.908166 
C 236.603302 102.240549 237.054173 102.427305 237.524233 102.427305 
z
" style="stroke:#000000;stroke-width:0.886227;"/>
    <path clip-path="url(#pffc38cc01d)" d="M 245.640597 105.569361 
C 246.110657 105.569361 246.561528 105.382604 246.893911 105.050222 
C 247.226294 104.717839 247.41305 104.266968 247.41305 103.796907 
C 247.41305 103.326847 247.226294 102.875976 246.893911 102.543593 
C 246.561528 102.211211 246.110657 102.024454 245.640597 102.024454 
C 245.170536 102.024454 244.719665 102.211211 244.387282 102.543593 
C 244.0549 102.875976 243.868143 103.326847 243.868143 103.796907 
C 243.868143 104.266968 244.0549 104.717839 244.387282 105.050222 
C 244.719665 105.382604 245.170536 105.569361 245.640597 105.569361 
z
" style="stroke:#000000;stroke-width:0.886227;"/>
    <path clip-path="url(#pffc38cc01d)" d="M 253.75696 113.179996 
C 254.22702 113.179996 254.677892 112.993239 255.010274 112.660856 
C 255.342657 112.328473 255.529414 111.877602 255.529414 111.407542 
C 255.529414 110.937481 255.342657 110.48661 255.010274 110.154228 
C 254.677892 109.821845 254.22702 109.635088 253.75696 109.635088 
C 253.2869 109.635088 252.836029 109.821845 252.503646 110.154228 
C 252.171263 110.48661 251.984506 110.937481 251.984506 111.407542 
C 251.984506 111.877602 252.171263 112.328473 252.503646 112.660856 
C 252.836029 112.993239 253.2869 113.179996 253.75696 113.179996 
z
" style="stroke:#000000;stroke-width:0.886227;"/>
    <path clip-path="url(#pffc38cc01d)" d="M 261.873324 112.367206 
C 262.343384 112.367206 262.794255 112.180449 263.126638 111.848066 
C 263.459021 111.515683 263.645778 111.064812 263.645778 110.594752 
C 263.645778 110.124691 263.459021 109.67382 263.126638 109.341438 
C 262.794255 109.009055 262.343384 108.822298 261.873324 108.822298 
C 261.403264 108.822298 260.952393 109.009055 260.62001 109.341438 
C 260.287627 109.67382 260.10087 110.124691 260.10087 110.594752 
C 260.10087 111.064812 260.287627 111.515683 260.62001 111.848066 
C 260.952393 112.180449 261.403264 112.367206 261.873324 112.367206 
z
" style="stroke:#000000;stroke-width:0.886227;"/>
    <path clip-path="url(#pffc38cc01d)" d="M 269.989687 108.382012 
C 270.459748 108.382012 270.910619 108.195255 271.243002 107.862872 
C 271.575384 107.530489 271.762141 107.079618 271.762141 106.609558 
C 271.762141 106.139498 271.575384 105.688626 271.243002 105.356244 
C 270.910619 105.023861 270.459748 104.837104 269.989687 104.837104 
C 269.519627 104.837104 269.068756 105.023861 268.736373 105.356244 
C 268.403991 105.688626 268.217234 106.139498 268.217234 106.609558 
C 268.217234 107.079618 268.403991 107.530489 268.736373 107.862872 
C 269.068756 108.195255 269.519627 108.382012 269.989687 108.382012 
z
" style="stroke:#000000;stroke-width:0.886227;"/>
    <path clip-path="url(#pffc38cc01d)" d="M 278.106051 119.722632 
C 278.576111 119.722632 279.026982 119.535876 279.359365 119.203493 
C 279.691748 118.87111 279.878505 118.420239 279.878505 117.950179 
C 279.878505 117.480118 279.691748 117.029247 279.359365 116.696864 
C 279.026982 116.364482 278.576111 116.177725 278.106051 116.177725 
C 277.635991 116.177725 277.18512 116.364482 276.852737 116.696864 
C 276.520354 117.029247 276.333597 117.480118 276.333597 117.950179 
C 276.333597 118.420239 276.520354 118.87111 276.852737 119.203493 
C 277.18512 119.535876 277.635991 119.722632 278.106051 119.722632 
z
" style="stroke:#000000;stroke-width:0.886227;"/>
    <path clip-path="url(#pffc38cc01d)" d="M 286.222415 118.477383 
C 286.692475 118.477383 287.143346 118.290626 287.475729 117.958243 
C 287.808112 117.625861 287.994869 117.17499 287.994869 116.704929 
C 287.994869 116.234869 287.808112 115.783998 287.475729 115.451615 
C 287.143346 115.119232 286.692475 114.932475 286.222415 114.932475 
C 285.752355 114.932475 285.301483 115.119232 284.969101 115.451615 
C 284.636718 115.783998 284.449961 116.234869 284.449961 116.704929 
C 284.449961 117.17499 284.636718 117.625861 284.969101 117.958243 
C 285.301483 118.290626 285.752355 118.477383 286.222415 118.477383 
z
" style="stroke:#000000;stroke-width:0.886227;"/>
    <path clip-path="url(#pffc38cc01d)" d="M 294.338778 119.862057 
C 294.808839 119.862057 295.25971 119.6753 295.592093 119.342917 
C 295.924475 119.010534 296.111232 118.559663 296.111232 118.089603 
C 296.111232 117.619543 295.924475 117.168671 295.592093 116.836289 
C 295.25971 116.503906 294.808839 116.317149 294.338778 116.317149 
C 293.868718 116.317149 293.417847 116.503906 293.085464 116.836289 
C 292.753081 117.168671 292.566325 117.619543 292.566325 118.089603 
C 292.566325 118.559663 292.753081 119.010534 293.085464 119.342917 
C 293.417847 119.6753 293.868718 119.862057 294.338778 119.862057 
z
" style="stroke:#000000;stroke-width:0.886227;"/>
    <path clip-path="url(#pffc38cc01d)" d="M 302.455142 120.997187 
C 302.925202 120.997187 303.376073 120.81043 303.708456 120.478047 
C 304.040839 120.145664 304.227596 119.694793 304.227596 119.224733 
C 304.227596 118.754673 304.040839 118.303802 303.708456 117.971419 
C 303.376073 117.639036 302.925202 117.452279 302.455142 117.452279 
C 301.985082 117.452279 301.534211 117.639036 301.201828 117.971419 
C 300.869445 118.303802 300.682688 118.754673 300.682688 119.224733 
C 300.682688 119.694793 300.869445 120.145664 301.201828 120.478047 
C 301.534211 120.81043 301.985082 120.997187 302.455142 120.997187 
z
" style="stroke:#000000;stroke-width:0.886227;"/>
    <path clip-path="url(#pffc38cc01d)" d="M 310.571506 125.086882 
C 311.041566 125.086882 311.492437 124.900125 311.82482 124.567742 
C 312.157203 124.235359 312.34396 123.784488 312.34396 123.314428 
C 312.34396 122.844367 312.157203 122.393496 311.82482 122.061114 
C 311.492437 121.728731 311.041566 121.541974 310.571506 121.541974 
C 310.101445 121.541974 309.650574 121.728731 309.318192 122.061114 
C 308.985809 122.393496 308.799052 122.844367 308.799052 123.314428 
C 308.799052 123.784488 308.985809 124.235359 309.318192 124.567742 
C 309.650574 124.900125 310.101445 125.086882 310.571506 125.086882 
z
" style="stroke:#000000;stroke-width:0.886227;"/>
    <path clip-path="url(#pffc38cc01d)" d="M 318.687869 120.717569 
C 319.15793 120.717569 319.608801 120.530812 319.941183 120.198429 
C 320.273566 119.866046 320.460323 119.415175 320.460323 118.945115 
C 320.460323 118.475055 320.273566 118.024184 319.941183 117.691801 
C 319.608801 117.359418 319.15793 117.172661 318.687869 117.172661 
C 318.217809 117.172661 317.766938 117.359418 317.434555 117.691801 
C 317.102172 118.024184 316.915415 118.475055 316.915415 118.945115 
C 316.915415 119.415175 317.102172 119.866046 317.434555 120.198429 
C 317.766938 120.530812 318.217809 120.717569 318.687869 120.717569 
z
" style="stroke:#000000;stroke-width:0.886227;"/>
    <path clip-path="url(#pffc38cc01d)" d="M 326.804233 119.580689 
C 327.274293 119.580689 327.725164 119.393932 328.057547 119.061549 
C 328.38993 118.729166 328.576687 118.278295 328.576687 117.808235 
C 328.576687 117.338175 328.38993 116.887304 328.057547 116.554921 
C 327.725164 116.222538 327.274293 116.035781 326.804233 116.035781 
C 326.334173 116.035781 325.883302 116.222538 325.550919 116.554921 
C 325.218536 116.887304 325.031779 117.338175 325.031779 117.808235 
C 325.031779 118.278295 325.218536 118.729166 325.550919 119.061549 
C 325.883302 119.393932 326.334173 119.580689 326.804233 119.580689 
z
" style="stroke:#000000;stroke-width:0.886227;"/>
    <path clip-path="url(#pffc38cc01d)" d="M 334.920597 117.746535 
C 335.390657 117.746535 335.841528 117.559778 336.173911 117.227395 
C 336.506294 116.895012 336.69305 116.444141 336.69305 115.974081 
C 336.69305 115.504021 336.506294 115.053149 336.173911 114.720767 
C 335.841528 114.388384 335.390657 114.201627 334.920597 114.201627 
C 334.450536 114.201627 333.999665 114.388384 333.667282 114.720767 
C 333.3349 115.053149 333.148143 115.504021 333.148143 115.974081 
C 333.148143 116.444141 333.3349 116.895012 333.667282 117.227395 
C 333.999665 117.559778 334.450536 117.746535 334.920597 117.746535 
z
" style="stroke:#000000;stroke-width:0.886227;"/>
    <path clip-path="url(#pffc38cc01d)" d="M 343.03696 116.380395 
C 343.50702 116.380395 343.957892 116.193638 344.290274 115.861255 
C 344.622657 115.528872 344.809414 115.078001 344.809414 114.607941 
C 344.809414 114.137881 344.622657 113.68701 344.290274 113.354627 
C 343.957892 113.022244 343.50702 112.835487 343.03696 112.835487 
C 342.5669 112.835487 342.116029 113.022244 341.783646 113.354627 
C 341.451263 113.68701 341.264506 114.137881 341.264506 114.607941 
C 341.264506 115.078001 341.451263 115.528872 341.783646 115.861255 
C 342.116029 116.193638 342.5669 116.380395 343.03696 116.380395 
z
" style="stroke:#000000;stroke-width:0.886227;"/>
    <path clip-path="url(#pffc38cc01d)" d="M 351.153324 115.593647 
C 351.623384 115.593647 352.074255 115.40689 352.406638 115.074507 
C 352.739021 114.742125 352.925778 114.291253 352.925778 113.821193 
C 352.925778 113.351133 352.739021 112.900262 352.406638 112.567879 
C 352.074255 112.235496 351.623384 112.048739 351.153324 112.048739 
C 350.683264 112.048739 350.232393 112.235496 349.90001 112.567879 
C 349.567627 112.900262 349.38087 113.351133 349.38087 113.821193 
C 349.38087 114.291253 349.567627 114.742125 349.90001 115.074507 
C 350.232393 115.40689 350.683264 115.593647 351.153324 115.593647 
z
" style="stroke:#000000;stroke-width:0.886227;"/>
    <path clip-path="url(#pffc38cc01d)" d="M 359.269688 114.399973 
C 359.739748 114.399973 360.190619 114.213216 360.523002 113.880833 
C 360.855384 113.54845 361.042141 113.097579 361.042141 112.627519 
C 361.042141 112.157458 360.855384 111.706587 360.523002 111.374205 
C 360.190619 111.041822 359.739748 110.855065 359.269688 110.855065 
C 358.799627 110.855065 358.348756 111.041822 358.016373 111.374205 
C 357.683991 111.706587 357.497234 112.157458 357.497234 112.627519 
C 357.497234 113.097579 357.683991 113.54845 358.016373 113.880833 
C 358.348756 114.213216 358.799627 114.399973 359.269688 114.399973 
z
" style="stroke:#000000;stroke-width:0.886227;"/>
    <path clip-path="url(#pffc38cc01d)" d="M 367.386051 112.154702 
C 367.856111 112.154702 368.306982 111.967945 368.639365 111.635562 
C 368.971748 111.303179 369.158505 110.852308 369.158505 110.382248 
C 369.158505 109.912188 368.971748 109.461317 368.639365 109.128934 
C 368.306982 108.796551 367.856111 108.609794 367.386051 108.609794 
C 366.915991 108.609794 366.46512 108.796551 366.132737 109.128934 
C 365.800354 109.461317 365.613597 109.912188 365.613597 110.382248 
C 365.613597 110.852308 365.800354 111.303179 366.132737 111.635562 
C 366.46512 111.967945 366.915991 112.154702 367.386051 112.154702 
z
" style="stroke:#000000;stroke-width:0.886227;"/>
    <path clip-path="url(#pffc38cc01d)" d="M 375.502415 113.373116 
C 375.972475 113.373116 376.423346 113.186359 376.755729 112.853976 
C 377.088112 112.521593 377.274869 112.070722 377.274869 111.600662 
C 377.274869 111.130602 377.088112 110.679731 376.755729 110.347348 
C 376.423346 110.014965 375.972475 109.828208 375.502415 109.828208 
C 375.032355 109.828208 374.581483 110.014965 374.249101 110.347348 
C 373.916718 110.679731 373.729961 111.130602 373.729961 111.600662 
C 373.729961 112.070722 373.916718 112.521593 374.249101 112.853976 
C 374.581483 113.186359 375.032355 113.373116 375.502415 113.373116 
z
" style="stroke:#000000;stroke-width:0.886227;"/>
    <path clip-path="url(#pffc38cc01d)" d="M 383.618778 111.405162 
C 384.088839 111.405162 384.53971 111.218406 384.872093 110.886023 
C 385.204475 110.55364 385.391232 110.102769 385.391232 109.632709 
C 385.391232 109.162648 385.204475 108.711777 384.872093 108.379394 
C 384.53971 108.047012 384.088839 107.860255 383.618778 107.860255 
C 383.148718 107.860255 382.697847 108.047012 382.365464 108.379394 
C 382.033081 108.711777 381.846325 109.162648 381.846325 109.632709 
C 381.846325 110.102769 382.033081 110.55364 382.365464 110.886023 
C 382.697847 111.218406 383.148718 111.405162 383.618778 111.405162 
z
" style="stroke:#000000;stroke-width:0.886227;"/>
    <path clip-path="url(#pffc38cc01d)" d="M 391.735142 103.807289 
C 392.205202 103.807289 392.656073 103.620532 392.988456 103.28815 
C 393.320839 102.955767 393.507596 102.504896 393.507596 102.034835 
C 393.507596 101.564775 393.320839 101.113904 392.988456 100.781521 
C 392.656073 100.449139 392.205202 100.262382 391.735142 100.262382 
C 391.265082 100.262382 390.814211 100.449139 390.481828 100.781521 
C 390.149445 101.113904 389.962688 101.564775 389.962688 102.034835 
C 389.962688 102.504896 390.149445 102.955767 390.481828 103.28815 
C 390.814211 103.620532 391.265082 103.807289 391.735142 103.807289 
z
" style="stroke:#000000;stroke-width:0.886227;"/>
    <path clip-path="url(#pffc38cc01d)" d="M 399.851506 101.886073 
C 400.321566 101.886073 400.772437 101.699316 401.10482 101.366933 
C 401.437203 101.03455 401.62396 100.583679 401.62396 100.113619 
C 401.62396 99.643559 401.437203 99.192688 401.10482 98.860305 
C 400.772437 98.527922 400.321566 98.341165 399.851506 98.341165 
C 399.381445 98.341165 398.930574 98.527922 398.598192 98.860305 
C 398.265809 99.192688 398.079052 99.643559 398.079052 100.113619 
C 398.079052 100.583679 398.265809 101.03455 398.598192 101.366933 
C 398.930574 101.699316 399.381445 101.886073 399.851506 101.886073 
z
" style="stroke:#000000;stroke-width:0.886227;"/>
    <path clip-path="url(#pffc38cc01d)" d="M 407.967869 99.408696 
C 408.43793 99.408696 408.888801 99.221939 409.221183 98.889557 
C 409.553566 98.557174 409.740323 98.106303 409.740323 97.636243 
C 409.740323 97.166182 409.553566 96.715311 409.221183 96.382928 
C 408.888801 96.050546 408.43793 95.863789 407.967869 95.863789 
C 407.497809 95.863789 407.046938 96.050546 406.714555 96.382928 
C 406.382172 96.715311 406.195415 97.166182 406.195415 97.636243 
C 406.195415 98.106303 406.382172 98.557174 406.714555 98.889557 
C 407.046938 99.221939 407.497809 99.408696 407.967869 99.408696 
z
" style="stroke:#000000;stroke-width:0.886227;"/>
    <path clip-path="url(#pffc38cc01d)" d="M 416.084233 95.933394 
C 416.554293 95.933394 417.005164 95.746637 417.337547 95.414254 
C 417.66993 95.081871 417.856687 94.631 417.856687 94.16094 
C 417.856687 93.69088 417.66993 93.240008 417.337547 92.907626 
C 417.005164 92.575243 416.554293 92.388486 416.084233 92.388486 
C 415.614173 92.388486 415.163302 92.575243 414.830919 92.907626 
C 414.498536 93.240008 414.311779 93.69088 414.311779 94.16094 
C 414.311779 94.631 414.498536 95.081871 414.830919 95.414254 
C 415.163302 95.746637 415.614173 95.933394 416.084233 95.933394 
z
" style="stroke:#000000;stroke-width:0.886227;"/>
    <path clip-path="url(#pffc38cc01d)" d="M 424.200597 92.924562 
C 424.670657 92.924562 425.121528 92.737805 425.453911 92.405422 
C 425.786294 92.07304 425.97305 91.622169 425.97305 91.152108 
C 425.97305 90.682048 425.786294 90.231177 425.453911 89.898794 
C 425.121528 89.566411 424.670657 89.379654 424.200597 89.379654 
C 423.730536 89.379654 423.279665 89.566411 422.947282 89.898794 
C 422.6149 90.231177 422.428143 90.682048 422.428143 91.152108 
C 422.428143 91.622169 422.6149 92.07304 422.947282 92.405422 
C 423.279665 92.737805 423.730536 92.924562 424.200597 92.924562 
z
" style="stroke:#000000;stroke-width:0.886227;"/>
    <path clip-path="url(#pffc38cc01d)" d="M 432.31696 92.912518 
C 432.78702 92.912518 433.237892 92.725762 433.570274 92.393379 
C 433.902657 92.060996 434.089414 91.610125 434.089414 91.140065 
C 434.089414 90.670004 433.902657 90.219133 433.570274 89.886751 
C 433.237892 89.554368 432.78702 89.367611 432.31696 89.367611 
C 431.8469 89.367611 431.396029 89.554368 431.063646 89.886751 
C 430.731263 90.219133 430.544506 90.670004 430.544506 91.140065 
C 430.544506 91.610125 430.731263 92.060996 431.063646 92.393379 
C 431.396029 92.725762 431.8469 92.912518 432.31696 92.912518 
z
" style="stroke:#000000;stroke-width:0.886227;"/>
    <path clip-path="url(#pffc38cc01d)" d="M 440.433324 89.191862 
C 440.903384 89.191862 441.354255 89.005105 441.686638 88.672722 
C 442.019021 88.340339 442.205778 87.889468 442.205778 87.419408 
C 442.205778 86.949347 442.019021 86.498476 441.686638 86.166094 
C 441.354255 85.833711 440.903384 85.646954 440.433324 85.646954 
C 439.963264 85.646954 439.512393 85.833711 439.18001 86.166094 
C 438.847627 86.498476 438.66087 86.949347 438.66087 87.419408 
C 438.66087 87.889468 438.847627 88.340339 439.18001 88.672722 
C 439.512393 89.005105 439.963264 89.191862 440.433324 89.191862 
z
" style="stroke:#000000;stroke-width:0.886227;"/>
    <path clip-path="url(#pffc38cc01d)" d="M 448.549687 95.561037 
C 449.019748 95.561037 449.470619 95.37428 449.803002 95.041897 
C 450.135384 94.709514 450.322141 94.258643 450.322141 93.788583 
C 450.322141 93.318523 450.135384 92.867651 449.803002 92.535269 
C 449.470619 92.202886 449.019748 92.016129 448.549687 92.016129 
C 448.079627 92.016129 447.628756 92.202886 447.296373 92.535269 
C 446.963991 92.867651 446.777234 93.318523 446.777234 93.788583 
C 446.777234 94.258643 446.963991 94.709514 447.296373 95.041897 
C 447.628756 95.37428 448.079627 95.561037 448.549687 95.561037 
z
" style="stroke:#000000;stroke-width:0.886227;"/>
    <path clip-path="url(#pffc38cc01d)" d="M 456.666051 99.993541 
C 457.136111 99.993541 457.586982 99.806784 457.919365 99.474401 
C 458.251748 99.142019 458.438505 98.691147 458.438505 98.221087 
C 458.438505 97.751027 458.251748 97.300156 457.919365 96.967773 
C 457.586982 96.63539 457.136111 96.448633 456.666051 96.448633 
C 456.195991 96.448633 455.74512 96.63539 455.412737 96.967773 
C 455.080354 97.300156 454.893597 97.751027 454.893597 98.221087 
C 454.893597 98.691147 455.080354 99.142019 455.412737 99.474401 
C 455.74512 99.806784 456.195991 99.993541 456.666051 99.993541 
z
" style="stroke:#000000;stroke-width:0.886227;"/>
    <path clip-path="url(#pffc38cc01d)" d="M 464.782415 100.970622 
C 465.252475 100.970622 465.703346 100.783865 466.035729 100.451483 
C 466.368112 100.1191 466.554869 99.668229 466.554869 99.198168 
C 466.554869 98.728108 466.368112 98.277237 466.035729 97.944854 
C 465.703346 97.612472 465.252475 97.425715 464.782415 97.425715 
C 464.312355 97.425715 463.861483 97.612472 463.529101 97.944854 
C 463.196718 98.277237 463.009961 98.728108 463.009961 99.198168 
C 463.009961 99.668229 463.196718 100.1191 463.529101 100.451483 
C 463.861483 100.783865 464.312355 100.970622 464.782415 100.970622 
z
" style="stroke:#000000;stroke-width:0.886227;"/>
   </g>
   <g id="line2d_41">
    <path clip-path="url(#pffc38cc01d)" d="M 83.313324 17.28 
L 91.429688 50.88 
L 99.546051 168.48 
L 107.662415 108.883814 
L 115.778778 120.06717 
L 123.895142 94.59866 
L 132.011506 117.567805 
L 140.127869 74.608904 
L 148.244233 128.882986 
L 156.360597 63.972493 
L 164.47696 83.592129 
L 172.593324 89.037845 
L 180.709687 100.197543 
L 188.826051 86.866801 
L 196.942415 109.638491 
L 205.058778 95.820179 
L 213.175142 117.0189 
L 221.291506 110.544665 
L 229.407869 104.177967 
L 237.524233 100.654852 
L 245.640597 103.796907 
L 253.75696 111.407542 
L 261.873324 110.594752 
L 269.989687 106.609558 
L 278.106051 117.950179 
L 286.222415 116.704929 
L 294.338778 118.089603 
L 302.455142 119.224733 
L 310.571506 123.314428 
L 318.687869 118.945115 
L 326.804233 117.808235 
L 334.920597 115.974081 
L 343.03696 114.607941 
L 351.153324 113.821193 
L 359.269688 112.627519 
L 367.386051 110.382248 
L 375.502415 111.600662 
L 383.618778 109.632709 
L 391.735142 102.034835 
L 399.851506 100.113619 
L 407.967869 97.636243 
L 416.084233 94.16094 
L 424.200597 91.152108 
L 432.31696 91.140065 
L 440.433324 87.419408 
L 448.549687 93.788583 
L 456.666051 98.221087 
L 464.782415 99.198168 
" style="fill:none;stroke:#000000;stroke-width:0.886227;"/>
   </g>
  </g>
 </g>
 <defs>
  <clipPath id="pffc38cc01d">
   <rect height="221.76" width="446.4" x="46.789687" y="7.2"/>
  </clipPath>
 </defs>
</svg>
