<?xml version="1.0" encoding="utf-8" standalone="no"?>
<!DOCTYPE svg PUBLIC "-//W3C//DTD SVG 1.1//EN"
  "http://www.w3.org/Graphics/SVG/1.1/DTD/svg11.dtd">
<!-- Created with matplotlib (https://matplotlib.org/) -->
<svg height="283.578058pt" version="1.1" viewBox="0 0 500.389687 283.578058" width="500.389687pt" xmlns="http://www.w3.org/2000/svg" xmlns:xlink="http://www.w3.org/1999/xlink">
 <defs>
  <style type="text/css">
*{stroke-linecap:butt;stroke-linejoin:round;}
  </style>
 </defs>
 <g id="figure_1">
  <g id="patch_1">
   <path d="M 0 283.578058 
L 500.389687 283.578058 
L 500.389687 0 
L 0 0 
z
" style="fill:#ffffff;stroke:#ffffff;stroke-linejoin:miter;"/>
  </g>
  <g id="axes_1">
   <g id="patch_2">
    <path d="M 46.789687 247.865371 
L 493.189687 247.865371 
L 493.189687 26.105371 
L 46.789687 26.105371 
z
" style="fill:#ffffff;stroke:#7f7f7f;stroke-linejoin:miter;"/>
   </g>
   <g id="matplotlib.axis_1">
    <g id="xtick_1">
     <g id="line2d_1">
      <path clip-path="url(#p33b0a559e8)" d="M 67.080597 247.865371 
L 67.080597 26.105371 
" style="fill:none;stroke:#e5e5e5;stroke-width:0.8;"/>
     </g>
     <g id="line2d_2">
      <path d="M 67.080597 247.865371 
" style="fill:none;stroke:#000000;stroke-width:1.5;"/>
      <defs>
       <path d="M 0 0 
L 0 2.75 
" id="mda03c5d5d5" style="stroke:#000000;"/>
      </defs>
      <g>
       <use style="stroke:#000000;" x="67.080597" xlink:href="#mda03c5d5d5" y="247.865371"/>
      </g>
     </g>
     <g id="text_1">
      <!-- 1 -->
      <defs>
       <path d="M 12.40625 8.296875 
L 28.515625 8.296875 
L 28.515625 63.921875 
L 10.984375 60.40625 
L 10.984375 69.390625 
L 28.421875 72.90625 
L 38.28125 72.90625 
L 38.28125 8.296875 
L 54.390625 8.296875 
L 54.390625 0 
L 12.40625 0 
z
" id="DejaVuSans-49"/>
      </defs>
      <g style="fill:#4d4d4d;" transform="translate(64.281097 259.501996)scale(0.088 -0.088)">
       <use xlink:href="#DejaVuSans-49"/>
      </g>
     </g>
    </g>
    <g id="xtick_2">
     <g id="line2d_3">
      <path clip-path="url(#p33b0a559e8)" d="M 202.353324 247.865371 
L 202.353324 26.105371 
" style="fill:none;stroke:#e5e5e5;stroke-width:0.8;"/>
     </g>
     <g id="line2d_4">
      <path d="M 202.353324 247.865371 
" style="fill:none;stroke:#000000;stroke-width:1.5;"/>
      <g>
       <use style="stroke:#000000;" x="202.353324" xlink:href="#mda03c5d5d5" y="247.865371"/>
      </g>
     </g>
     <g id="text_2">
      <!-- 2 -->
      <defs>
       <path d="M 19.1875 8.296875 
L 53.609375 8.296875 
L 53.609375 0 
L 7.328125 0 
L 7.328125 8.296875 
Q 12.9375 14.109375 22.625 23.890625 
Q 32.328125 33.6875 34.8125 36.53125 
Q 39.546875 41.84375 41.421875 45.53125 
Q 43.3125 49.21875 43.3125 52.78125 
Q 43.3125 58.59375 39.234375 62.25 
Q 35.15625 65.921875 28.609375 65.921875 
Q 23.96875 65.921875 18.8125 64.3125 
Q 13.671875 62.703125 7.8125 59.421875 
L 7.8125 69.390625 
Q 13.765625 71.78125 18.9375 73 
Q 24.125 74.21875 28.421875 74.21875 
Q 39.75 74.21875 46.484375 68.546875 
Q 53.21875 62.890625 53.21875 53.421875 
Q 53.21875 48.921875 51.53125 44.890625 
Q 49.859375 40.875 45.40625 35.40625 
Q 44.1875 33.984375 37.640625 27.21875 
Q 31.109375 20.453125 19.1875 8.296875 
z
" id="DejaVuSans-50"/>
      </defs>
      <g style="fill:#4d4d4d;" transform="translate(199.553824 259.501996)scale(0.088 -0.088)">
       <use xlink:href="#DejaVuSans-50"/>
      </g>
     </g>
    </g>
    <g id="xtick_3">
     <g id="line2d_5">
      <path clip-path="url(#p33b0a559e8)" d="M 337.626051 247.865371 
L 337.626051 26.105371 
" style="fill:none;stroke:#e5e5e5;stroke-width:0.8;"/>
     </g>
     <g id="line2d_6">
      <path d="M 337.626051 247.865371 
" style="fill:none;stroke:#000000;stroke-width:1.5;"/>
      <g>
       <use style="stroke:#000000;" x="337.626051" xlink:href="#mda03c5d5d5" y="247.865371"/>
      </g>
     </g>
     <g id="text_3">
      <!-- 3 -->
      <defs>
       <path d="M 40.578125 39.3125 
Q 47.65625 37.796875 51.625 33 
Q 55.609375 28.21875 55.609375 21.1875 
Q 55.609375 10.40625 48.1875 4.484375 
Q 40.765625 -1.421875 27.09375 -1.421875 
Q 22.515625 -1.421875 17.65625 -0.515625 
Q 12.796875 0.390625 7.625 2.203125 
L 7.625 11.71875 
Q 11.71875 9.328125 16.59375 8.109375 
Q 21.484375 6.890625 26.8125 6.890625 
Q 36.078125 6.890625 40.9375 10.546875 
Q 45.796875 14.203125 45.796875 21.1875 
Q 45.796875 27.640625 41.28125 31.265625 
Q 36.765625 34.90625 28.71875 34.90625 
L 20.21875 34.90625 
L 20.21875 43.015625 
L 29.109375 43.015625 
Q 36.375 43.015625 40.234375 45.921875 
Q 44.09375 48.828125 44.09375 54.296875 
Q 44.09375 59.90625 40.109375 62.90625 
Q 36.140625 65.921875 28.71875 65.921875 
Q 24.65625 65.921875 20.015625 65.03125 
Q 15.375 64.15625 9.8125 62.3125 
L 9.8125 71.09375 
Q 15.4375 72.65625 20.34375 73.4375 
Q 25.25 74.21875 29.59375 74.21875 
Q 40.828125 74.21875 47.359375 69.109375 
Q 53.90625 64.015625 53.90625 55.328125 
Q 53.90625 49.265625 50.4375 45.09375 
Q 46.96875 40.921875 40.578125 39.3125 
z
" id="DejaVuSans-51"/>
      </defs>
      <g style="fill:#4d4d4d;" transform="translate(334.826551 259.501996)scale(0.088 -0.088)">
       <use xlink:href="#DejaVuSans-51"/>
      </g>
     </g>
    </g>
    <g id="xtick_4">
     <g id="line2d_7">
      <path clip-path="url(#p33b0a559e8)" d="M 472.898778 247.865371 
L 472.898778 26.105371 
" style="fill:none;stroke:#e5e5e5;stroke-width:0.8;"/>
     </g>
     <g id="line2d_8">
      <path d="M 472.898778 247.865371 
" style="fill:none;stroke:#000000;stroke-width:1.5;"/>
      <g>
       <use style="stroke:#000000;" x="472.898778" xlink:href="#mda03c5d5d5" y="247.865371"/>
      </g>
     </g>
     <g id="text_4">
      <!-- 4 -->
      <defs>
       <path d="M 37.796875 64.3125 
L 12.890625 25.390625 
L 37.796875 25.390625 
z
M 35.203125 72.90625 
L 47.609375 72.90625 
L 47.609375 25.390625 
L 58.015625 25.390625 
L 58.015625 17.1875 
L 47.609375 17.1875 
L 47.609375 0 
L 37.796875 0 
L 37.796875 17.1875 
L 4.890625 17.1875 
L 4.890625 26.703125 
z
" id="DejaVuSans-52"/>
      </defs>
      <g style="fill:#4d4d4d;" transform="translate(470.099278 259.501996)scale(0.088 -0.088)">
       <use xlink:href="#DejaVuSans-52"/>
      </g>
     </g>
    </g>
    <g id="xtick_5">
     <g id="line2d_9">
      <path clip-path="url(#p33b0a559e8)" d="M 134.71696 247.865371 
L 134.71696 26.105371 
" style="fill:none;stroke:#fafafa;"/>
     </g>
     <g id="line2d_10">
      <path d="M 134.71696 247.865371 
" style="fill:none;stroke:#000000;stroke-width:1.5;"/>
      <defs>
       <path d="M 0 0 
L 0 1.375 
" id="m754b5058e4" style="stroke:#000000;"/>
      </defs>
      <g>
       <use style="stroke:#000000;" x="134.71696" xlink:href="#m754b5058e4" y="247.865371"/>
      </g>
     </g>
    </g>
    <g id="xtick_6">
     <g id="line2d_11">
      <path clip-path="url(#p33b0a559e8)" d="M 269.989688 247.865371 
L 269.989688 26.105371 
" style="fill:none;stroke:#fafafa;"/>
     </g>
     <g id="line2d_12">
      <path d="M 269.989688 247.865371 
" style="fill:none;stroke:#000000;stroke-width:1.5;"/>
      <g>
       <use style="stroke:#000000;" x="269.989688" xlink:href="#m754b5058e4" y="247.865371"/>
      </g>
     </g>
    </g>
    <g id="xtick_7">
     <g id="line2d_13">
      <path clip-path="url(#p33b0a559e8)" d="M 405.262415 247.865371 
L 405.262415 26.105371 
" style="fill:none;stroke:#fafafa;"/>
     </g>
     <g id="line2d_14">
      <path d="M 405.262415 247.865371 
" style="fill:none;stroke:#000000;stroke-width:1.5;"/>
      <g>
       <use style="stroke:#000000;" x="405.262415" xlink:href="#m754b5058e4" y="247.865371"/>
      </g>
     </g>
    </g>
    <g id="text_5">
     <!-- Resolution -->
     <defs>
      <path d="M 44.390625 34.1875 
Q 47.5625 33.109375 50.5625 29.59375 
Q 53.5625 26.078125 56.59375 19.921875 
L 66.609375 0 
L 56 0 
L 46.6875 18.703125 
Q 43.0625 26.03125 39.671875 28.421875 
Q 36.28125 30.8125 30.421875 30.8125 
L 19.671875 30.8125 
L 19.671875 0 
L 9.8125 0 
L 9.8125 72.90625 
L 32.078125 72.90625 
Q 44.578125 72.90625 50.734375 67.671875 
Q 56.890625 62.453125 56.890625 51.90625 
Q 56.890625 45.015625 53.6875 40.46875 
Q 50.484375 35.9375 44.390625 34.1875 
z
M 19.671875 64.796875 
L 19.671875 38.921875 
L 32.078125 38.921875 
Q 39.203125 38.921875 42.84375 42.21875 
Q 46.484375 45.515625 46.484375 51.90625 
Q 46.484375 58.296875 42.84375 61.546875 
Q 39.203125 64.796875 32.078125 64.796875 
z
" id="DejaVuSans-82"/>
      <path d="M 56.203125 29.59375 
L 56.203125 25.203125 
L 14.890625 25.203125 
Q 15.484375 15.921875 20.484375 11.0625 
Q 25.484375 6.203125 34.421875 6.203125 
Q 39.59375 6.203125 44.453125 7.46875 
Q 49.3125 8.734375 54.109375 11.28125 
L 54.109375 2.78125 
Q 49.265625 0.734375 44.1875 -0.34375 
Q 39.109375 -1.421875 33.890625 -1.421875 
Q 20.796875 -1.421875 13.15625 6.1875 
Q 5.515625 13.8125 5.515625 26.8125 
Q 5.515625 40.234375 12.765625 48.109375 
Q 20.015625 56 32.328125 56 
Q 43.359375 56 49.78125 48.890625 
Q 56.203125 41.796875 56.203125 29.59375 
z
M 47.21875 32.234375 
Q 47.125 39.59375 43.09375 43.984375 
Q 39.0625 48.390625 32.421875 48.390625 
Q 24.90625 48.390625 20.390625 44.140625 
Q 15.875 39.890625 15.1875 32.171875 
z
" id="DejaVuSans-101"/>
      <path d="M 44.28125 53.078125 
L 44.28125 44.578125 
Q 40.484375 46.53125 36.375 47.5 
Q 32.28125 48.484375 27.875 48.484375 
Q 21.1875 48.484375 17.84375 46.4375 
Q 14.5 44.390625 14.5 40.28125 
Q 14.5 37.15625 16.890625 35.375 
Q 19.28125 33.59375 26.515625 31.984375 
L 29.59375 31.296875 
Q 39.15625 29.25 43.1875 25.515625 
Q 47.21875 21.78125 47.21875 15.09375 
Q 47.21875 7.46875 41.1875 3.015625 
Q 35.15625 -1.421875 24.609375 -1.421875 
Q 20.21875 -1.421875 15.453125 -0.5625 
Q 10.6875 0.296875 5.421875 2 
L 5.421875 11.28125 
Q 10.40625 8.6875 15.234375 7.390625 
Q 20.0625 6.109375 24.8125 6.109375 
Q 31.15625 6.109375 34.5625 8.28125 
Q 37.984375 10.453125 37.984375 14.40625 
Q 37.984375 18.0625 35.515625 20.015625 
Q 33.0625 21.96875 24.703125 23.78125 
L 21.578125 24.515625 
Q 13.234375 26.265625 9.515625 29.90625 
Q 5.8125 33.546875 5.8125 39.890625 
Q 5.8125 47.609375 11.28125 51.796875 
Q 16.75 56 26.8125 56 
Q 31.78125 56 36.171875 55.265625 
Q 40.578125 54.546875 44.28125 53.078125 
z
" id="DejaVuSans-115"/>
      <path d="M 30.609375 48.390625 
Q 23.390625 48.390625 19.1875 42.75 
Q 14.984375 37.109375 14.984375 27.296875 
Q 14.984375 17.484375 19.15625 11.84375 
Q 23.34375 6.203125 30.609375 6.203125 
Q 37.796875 6.203125 41.984375 11.859375 
Q 46.1875 17.53125 46.1875 27.296875 
Q 46.1875 37.015625 41.984375 42.703125 
Q 37.796875 48.390625 30.609375 48.390625 
z
M 30.609375 56 
Q 42.328125 56 49.015625 48.375 
Q 55.71875 40.765625 55.71875 27.296875 
Q 55.71875 13.875 49.015625 6.21875 
Q 42.328125 -1.421875 30.609375 -1.421875 
Q 18.84375 -1.421875 12.171875 6.21875 
Q 5.515625 13.875 5.515625 27.296875 
Q 5.515625 40.765625 12.171875 48.375 
Q 18.84375 56 30.609375 56 
z
" id="DejaVuSans-111"/>
      <path d="M 9.421875 75.984375 
L 18.40625 75.984375 
L 18.40625 0 
L 9.421875 0 
z
" id="DejaVuSans-108"/>
      <path d="M 8.5 21.578125 
L 8.5 54.6875 
L 17.484375 54.6875 
L 17.484375 21.921875 
Q 17.484375 14.15625 20.5 10.265625 
Q 23.53125 6.390625 29.59375 6.390625 
Q 36.859375 6.390625 41.078125 11.03125 
Q 45.3125 15.671875 45.3125 23.6875 
L 45.3125 54.6875 
L 54.296875 54.6875 
L 54.296875 0 
L 45.3125 0 
L 45.3125 8.40625 
Q 42.046875 3.421875 37.71875 1 
Q 33.40625 -1.421875 27.6875 -1.421875 
Q 18.265625 -1.421875 13.375 4.4375 
Q 8.5 10.296875 8.5 21.578125 
z
M 31.109375 56 
z
" id="DejaVuSans-117"/>
      <path d="M 18.3125 70.21875 
L 18.3125 54.6875 
L 36.8125 54.6875 
L 36.8125 47.703125 
L 18.3125 47.703125 
L 18.3125 18.015625 
Q 18.3125 11.328125 20.140625 9.421875 
Q 21.96875 7.515625 27.59375 7.515625 
L 36.8125 7.515625 
L 36.8125 0 
L 27.59375 0 
Q 17.1875 0 13.234375 3.875 
Q 9.28125 7.765625 9.28125 18.015625 
L 9.28125 47.703125 
L 2.6875 47.703125 
L 2.6875 54.6875 
L 9.28125 54.6875 
L 9.28125 70.21875 
z
" id="DejaVuSans-116"/>
      <path d="M 9.421875 54.6875 
L 18.40625 54.6875 
L 18.40625 0 
L 9.421875 0 
z
M 9.421875 75.984375 
L 18.40625 75.984375 
L 18.40625 64.59375 
L 9.421875 64.59375 
z
" id="DejaVuSans-105"/>
      <path d="M 54.890625 33.015625 
L 54.890625 0 
L 45.90625 0 
L 45.90625 32.71875 
Q 45.90625 40.484375 42.875 44.328125 
Q 39.84375 48.1875 33.796875 48.1875 
Q 26.515625 48.1875 22.3125 43.546875 
Q 18.109375 38.921875 18.109375 30.90625 
L 18.109375 0 
L 9.078125 0 
L 9.078125 54.6875 
L 18.109375 54.6875 
L 18.109375 46.1875 
Q 21.34375 51.125 25.703125 53.5625 
Q 30.078125 56 35.796875 56 
Q 45.21875 56 50.046875 50.171875 
Q 54.890625 44.34375 54.890625 33.015625 
z
" id="DejaVuSans-110"/>
     </defs>
     <g transform="translate(233.808125 274.090402)scale(0.11 -0.11)">
      <use xlink:href="#DejaVuSans-82"/>
      <use x="69.419922" xlink:href="#DejaVuSans-101"/>
      <use x="130.943359" xlink:href="#DejaVuSans-115"/>
      <use x="183.042969" xlink:href="#DejaVuSans-111"/>
      <use x="244.224609" xlink:href="#DejaVuSans-108"/>
      <use x="272.007812" xlink:href="#DejaVuSans-117"/>
      <use x="335.386719" xlink:href="#DejaVuSans-116"/>
      <use x="374.595703" xlink:href="#DejaVuSans-105"/>
      <use x="402.378906" xlink:href="#DejaVuSans-111"/>
      <use x="463.560547" xlink:href="#DejaVuSans-110"/>
     </g>
    </g>
   </g>
   <g id="matplotlib.axis_2">
    <g id="ytick_1">
     <g id="line2d_15">
      <path clip-path="url(#p33b0a559e8)" d="M 46.789687 237.785371 
L 493.189687 237.785371 
" style="fill:none;stroke:#e5e5e5;stroke-width:0.8;"/>
     </g>
     <g id="line2d_16">
      <path d="M 46.789687 237.785371 
" style="fill:none;stroke:#000000;stroke-width:1.5;"/>
      <defs>
       <path d="M 0 0 
L -2.75 0 
" id="mcc6b7fc00f" style="stroke:#000000;"/>
      </defs>
      <g>
       <use style="stroke:#000000;" x="46.789687" xlink:href="#mcc6b7fc00f" y="237.785371"/>
      </g>
     </g>
     <g id="text_6">
      <!-- 0 -->
      <defs>
       <path d="M 31.78125 66.40625 
Q 24.171875 66.40625 20.328125 58.90625 
Q 16.5 51.421875 16.5 36.375 
Q 16.5 21.390625 20.328125 13.890625 
Q 24.171875 6.390625 31.78125 6.390625 
Q 39.453125 6.390625 43.28125 13.890625 
Q 47.125 21.390625 47.125 36.375 
Q 47.125 51.421875 43.28125 58.90625 
Q 39.453125 66.40625 31.78125 66.40625 
z
M 31.78125 74.21875 
Q 44.046875 74.21875 50.515625 64.515625 
Q 56.984375 54.828125 56.984375 36.375 
Q 56.984375 17.96875 50.515625 8.265625 
Q 44.046875 -1.421875 31.78125 -1.421875 
Q 19.53125 -1.421875 13.0625 8.265625 
Q 6.59375 17.96875 6.59375 36.375 
Q 6.59375 54.828125 13.0625 64.515625 
Q 19.53125 74.21875 31.78125 74.21875 
z
" id="DejaVuSans-48"/>
      </defs>
      <g style="fill:#4d4d4d;" transform="translate(36.240687 240.213621)scale(0.088 -0.088)">
       <use xlink:href="#DejaVuSans-48"/>
      </g>
     </g>
    </g>
    <g id="ytick_2">
     <g id="line2d_17">
      <path clip-path="url(#p33b0a559e8)" d="M 46.789687 187.385371 
L 493.189687 187.385371 
" style="fill:none;stroke:#e5e5e5;stroke-width:0.8;"/>
     </g>
     <g id="line2d_18">
      <path d="M 46.789687 187.385371 
" style="fill:none;stroke:#000000;stroke-width:1.5;"/>
      <g>
       <use style="stroke:#000000;" x="46.789687" xlink:href="#mcc6b7fc00f" y="187.385371"/>
      </g>
     </g>
     <g id="text_7">
      <!-- 0.25 -->
      <defs>
       <path d="M 10.6875 12.40625 
L 21 12.40625 
L 21 0 
L 10.6875 0 
z
" id="DejaVuSans-46"/>
       <path d="M 10.796875 72.90625 
L 49.515625 72.90625 
L 49.515625 64.59375 
L 19.828125 64.59375 
L 19.828125 46.734375 
Q 21.96875 47.46875 24.109375 47.828125 
Q 26.265625 48.1875 28.421875 48.1875 
Q 40.625 48.1875 47.75 41.5 
Q 54.890625 34.8125 54.890625 23.390625 
Q 54.890625 11.625 47.5625 5.09375 
Q 40.234375 -1.421875 26.90625 -1.421875 
Q 22.3125 -1.421875 17.546875 -0.640625 
Q 12.796875 0.140625 7.71875 1.703125 
L 7.71875 11.625 
Q 12.109375 9.234375 16.796875 8.0625 
Q 21.484375 6.890625 26.703125 6.890625 
Q 35.15625 6.890625 40.078125 11.328125 
Q 45.015625 15.765625 45.015625 23.390625 
Q 45.015625 31 40.078125 35.4375 
Q 35.15625 39.890625 26.703125 39.890625 
Q 22.75 39.890625 18.8125 39.015625 
Q 14.890625 38.140625 10.796875 36.28125 
z
" id="DejaVuSans-53"/>
      </defs>
      <g style="fill:#4d4d4d;" transform="translate(22.245937 189.813621)scale(0.088 -0.088)">
       <use xlink:href="#DejaVuSans-48"/>
       <use x="63.623047" xlink:href="#DejaVuSans-46"/>
       <use x="95.410156" xlink:href="#DejaVuSans-50"/>
       <use x="159.033203" xlink:href="#DejaVuSans-53"/>
      </g>
     </g>
    </g>
    <g id="ytick_3">
     <g id="line2d_19">
      <path clip-path="url(#p33b0a559e8)" d="M 46.789687 136.985371 
L 493.189687 136.985371 
" style="fill:none;stroke:#e5e5e5;stroke-width:0.8;"/>
     </g>
     <g id="line2d_20">
      <path d="M 46.789687 136.985371 
" style="fill:none;stroke:#000000;stroke-width:1.5;"/>
      <g>
       <use style="stroke:#000000;" x="46.789687" xlink:href="#mcc6b7fc00f" y="136.985371"/>
      </g>
     </g>
     <g id="text_8">
      <!-- 0.50 -->
      <g style="fill:#4d4d4d;" transform="translate(22.245937 139.413621)scale(0.088 -0.088)">
       <use xlink:href="#DejaVuSans-48"/>
       <use x="63.623047" xlink:href="#DejaVuSans-46"/>
       <use x="95.410156" xlink:href="#DejaVuSans-53"/>
       <use x="159.033203" xlink:href="#DejaVuSans-48"/>
      </g>
     </g>
    </g>
    <g id="ytick_4">
     <g id="line2d_21">
      <path clip-path="url(#p33b0a559e8)" d="M 46.789687 86.585371 
L 493.189687 86.585371 
" style="fill:none;stroke:#e5e5e5;stroke-width:0.8;"/>
     </g>
     <g id="line2d_22">
      <path d="M 46.789687 86.585371 
" style="fill:none;stroke:#000000;stroke-width:1.5;"/>
      <g>
       <use style="stroke:#000000;" x="46.789687" xlink:href="#mcc6b7fc00f" y="86.585371"/>
      </g>
     </g>
     <g id="text_9">
      <!-- 0.75 -->
      <defs>
       <path d="M 8.203125 72.90625 
L 55.078125 72.90625 
L 55.078125 68.703125 
L 28.609375 0 
L 18.3125 0 
L 43.21875 64.59375 
L 8.203125 64.59375 
z
" id="DejaVuSans-55"/>
      </defs>
      <g style="fill:#4d4d4d;" transform="translate(22.245937 89.013621)scale(0.088 -0.088)">
       <use xlink:href="#DejaVuSans-48"/>
       <use x="63.623047" xlink:href="#DejaVuSans-46"/>
       <use x="95.410156" xlink:href="#DejaVuSans-55"/>
       <use x="159.033203" xlink:href="#DejaVuSans-53"/>
      </g>
     </g>
    </g>
    <g id="ytick_5">
     <g id="line2d_23">
      <path clip-path="url(#p33b0a559e8)" d="M 46.789687 36.185371 
L 493.189687 36.185371 
" style="fill:none;stroke:#e5e5e5;stroke-width:0.8;"/>
     </g>
     <g id="line2d_24">
      <path d="M 46.789687 36.185371 
" style="fill:none;stroke:#000000;stroke-width:1.5;"/>
      <g>
       <use style="stroke:#000000;" x="46.789687" xlink:href="#mcc6b7fc00f" y="36.185371"/>
      </g>
     </g>
     <g id="text_10">
      <!-- 1 -->
      <g style="fill:#4d4d4d;" transform="translate(36.240687 38.613621)scale(0.088 -0.088)">
       <use xlink:href="#DejaVuSans-49"/>
      </g>
     </g>
    </g>
    <g id="ytick_6">
     <g id="line2d_25">
      <path clip-path="url(#p33b0a559e8)" d="M 46.789687 212.585371 
L 493.189687 212.585371 
" style="fill:none;stroke:#fafafa;"/>
     </g>
     <g id="line2d_26">
      <path d="M 46.789687 212.585371 
" style="fill:none;stroke:#000000;stroke-width:1.5;"/>
      <defs>
       <path d="M 0 0 
L -1.375 0 
" id="m2ff0346c96" style="stroke:#000000;"/>
      </defs>
      <g>
       <use style="stroke:#000000;" x="46.789687" xlink:href="#m2ff0346c96" y="212.585371"/>
      </g>
     </g>
    </g>
    <g id="ytick_7">
     <g id="line2d_27">
      <path clip-path="url(#p33b0a559e8)" d="M 46.789687 162.185371 
L 493.189687 162.185371 
" style="fill:none;stroke:#fafafa;"/>
     </g>
     <g id="line2d_28">
      <path d="M 46.789687 162.185371 
" style="fill:none;stroke:#000000;stroke-width:1.5;"/>
      <g>
       <use style="stroke:#000000;" x="46.789687" xlink:href="#m2ff0346c96" y="162.185371"/>
      </g>
     </g>
    </g>
    <g id="ytick_8">
     <g id="line2d_29">
      <path clip-path="url(#p33b0a559e8)" d="M 46.789687 111.785371 
L 493.189687 111.785371 
" style="fill:none;stroke:#fafafa;"/>
     </g>
     <g id="line2d_30">
      <path d="M 46.789687 111.785371 
" style="fill:none;stroke:#000000;stroke-width:1.5;"/>
      <g>
       <use style="stroke:#000000;" x="46.789687" xlink:href="#m2ff0346c96" y="111.785371"/>
      </g>
     </g>
    </g>
    <g id="ytick_9">
     <g id="line2d_31">
      <path clip-path="url(#p33b0a559e8)" d="M 46.789687 61.385371 
L 493.189687 61.385371 
" style="fill:none;stroke:#fafafa;"/>
     </g>
     <g id="line2d_32">
      <path d="M 46.789687 61.385371 
" style="fill:none;stroke:#000000;stroke-width:1.5;"/>
      <g>
       <use style="stroke:#000000;" x="46.789687" xlink:href="#m2ff0346c96" y="61.385371"/>
      </g>
     </g>
    </g>
    <g id="text_11">
     <!-- Q1(t) percentile -->
     <defs>
      <path d="M 39.40625 66.21875 
Q 28.65625 66.21875 22.328125 58.203125 
Q 16.015625 50.203125 16.015625 36.375 
Q 16.015625 22.609375 22.328125 14.59375 
Q 28.65625 6.59375 39.40625 6.59375 
Q 50.140625 6.59375 56.421875 14.59375 
Q 62.703125 22.609375 62.703125 36.375 
Q 62.703125 50.203125 56.421875 58.203125 
Q 50.140625 66.21875 39.40625 66.21875 
z
M 53.21875 1.3125 
L 66.21875 -12.890625 
L 54.296875 -12.890625 
L 43.5 -1.21875 
Q 41.890625 -1.3125 41.03125 -1.359375 
Q 40.1875 -1.421875 39.40625 -1.421875 
Q 24.03125 -1.421875 14.8125 8.859375 
Q 5.609375 19.140625 5.609375 36.375 
Q 5.609375 53.65625 14.8125 63.9375 
Q 24.03125 74.21875 39.40625 74.21875 
Q 54.734375 74.21875 63.90625 63.9375 
Q 73.09375 53.65625 73.09375 36.375 
Q 73.09375 23.6875 67.984375 14.640625 
Q 62.890625 5.609375 53.21875 1.3125 
z
" id="DejaVuSans-81"/>
      <path d="M 31 75.875 
Q 24.46875 64.65625 21.28125 53.65625 
Q 18.109375 42.671875 18.109375 31.390625 
Q 18.109375 20.125 21.3125 9.0625 
Q 24.515625 -2 31 -13.1875 
L 23.1875 -13.1875 
Q 15.875 -1.703125 12.234375 9.375 
Q 8.59375 20.453125 8.59375 31.390625 
Q 8.59375 42.28125 12.203125 53.3125 
Q 15.828125 64.359375 23.1875 75.875 
z
" id="DejaVuSans-40"/>
      <path d="M 8.015625 75.875 
L 15.828125 75.875 
Q 23.140625 64.359375 26.78125 53.3125 
Q 30.421875 42.28125 30.421875 31.390625 
Q 30.421875 20.453125 26.78125 9.375 
Q 23.140625 -1.703125 15.828125 -13.1875 
L 8.015625 -13.1875 
Q 14.5 -2 17.703125 9.0625 
Q 20.90625 20.125 20.90625 31.390625 
Q 20.90625 42.671875 17.703125 53.65625 
Q 14.5 64.65625 8.015625 75.875 
z
" id="DejaVuSans-41"/>
      <path id="DejaVuSans-32"/>
      <path d="M 18.109375 8.203125 
L 18.109375 -20.796875 
L 9.078125 -20.796875 
L 9.078125 54.6875 
L 18.109375 54.6875 
L 18.109375 46.390625 
Q 20.953125 51.265625 25.265625 53.625 
Q 29.59375 56 35.59375 56 
Q 45.5625 56 51.78125 48.09375 
Q 58.015625 40.1875 58.015625 27.296875 
Q 58.015625 14.40625 51.78125 6.484375 
Q 45.5625 -1.421875 35.59375 -1.421875 
Q 29.59375 -1.421875 25.265625 0.953125 
Q 20.953125 3.328125 18.109375 8.203125 
z
M 48.6875 27.296875 
Q 48.6875 37.203125 44.609375 42.84375 
Q 40.53125 48.484375 33.40625 48.484375 
Q 26.265625 48.484375 22.1875 42.84375 
Q 18.109375 37.203125 18.109375 27.296875 
Q 18.109375 17.390625 22.1875 11.75 
Q 26.265625 6.109375 33.40625 6.109375 
Q 40.53125 6.109375 44.609375 11.75 
Q 48.6875 17.390625 48.6875 27.296875 
z
" id="DejaVuSans-112"/>
      <path d="M 41.109375 46.296875 
Q 39.59375 47.171875 37.8125 47.578125 
Q 36.03125 48 33.890625 48 
Q 26.265625 48 22.1875 43.046875 
Q 18.109375 38.09375 18.109375 28.8125 
L 18.109375 0 
L 9.078125 0 
L 9.078125 54.6875 
L 18.109375 54.6875 
L 18.109375 46.1875 
Q 20.953125 51.171875 25.484375 53.578125 
Q 30.03125 56 36.53125 56 
Q 37.453125 56 38.578125 55.875 
Q 39.703125 55.765625 41.0625 55.515625 
z
" id="DejaVuSans-114"/>
      <path d="M 48.78125 52.59375 
L 48.78125 44.1875 
Q 44.96875 46.296875 41.140625 47.34375 
Q 37.3125 48.390625 33.40625 48.390625 
Q 24.65625 48.390625 19.8125 42.84375 
Q 14.984375 37.3125 14.984375 27.296875 
Q 14.984375 17.28125 19.8125 11.734375 
Q 24.65625 6.203125 33.40625 6.203125 
Q 37.3125 6.203125 41.140625 7.25 
Q 44.96875 8.296875 48.78125 10.40625 
L 48.78125 2.09375 
Q 45.015625 0.34375 40.984375 -0.53125 
Q 36.96875 -1.421875 32.421875 -1.421875 
Q 20.0625 -1.421875 12.78125 6.34375 
Q 5.515625 14.109375 5.515625 27.296875 
Q 5.515625 40.671875 12.859375 48.328125 
Q 20.21875 56 33.015625 56 
Q 37.15625 56 41.109375 55.140625 
Q 45.0625 54.296875 48.78125 52.59375 
z
" id="DejaVuSans-99"/>
     </defs>
     <g transform="translate(15.558281 179.195605)rotate(-90)scale(0.11 -0.11)">
      <use xlink:href="#DejaVuSans-81"/>
      <use x="78.710938" xlink:href="#DejaVuSans-49"/>
      <use x="142.333984" xlink:href="#DejaVuSans-40"/>
      <use x="181.347656" xlink:href="#DejaVuSans-116"/>
      <use x="220.556641" xlink:href="#DejaVuSans-41"/>
      <use x="259.570312" xlink:href="#DejaVuSans-32"/>
      <use x="291.357422" xlink:href="#DejaVuSans-112"/>
      <use x="354.833984" xlink:href="#DejaVuSans-101"/>
      <use x="416.357422" xlink:href="#DejaVuSans-114"/>
      <use x="457.439453" xlink:href="#DejaVuSans-99"/>
      <use x="512.419922" xlink:href="#DejaVuSans-101"/>
      <use x="573.943359" xlink:href="#DejaVuSans-110"/>
      <use x="637.322266" xlink:href="#DejaVuSans-116"/>
      <use x="676.53125" xlink:href="#DejaVuSans-105"/>
      <use x="704.314453" xlink:href="#DejaVuSans-108"/>
      <use x="732.097656" xlink:href="#DejaVuSans-101"/>
     </g>
    </g>
   </g>
   <g id="PathCollection_1">
    <path clip-path="url(#p33b0a559e8)" d="M 67.080597 64.034046 
C 67.550657 64.034046 68.001528 63.847289 68.333911 63.514906 
C 68.666294 63.182523 68.85305 62.731652 68.85305 62.261592 
C 68.85305 61.791532 68.666294 61.340661 68.333911 61.008278 
C 68.001528 60.675895 67.550657 60.489138 67.080597 60.489138 
C 66.610536 60.489138 66.159665 60.675895 65.827282 61.008278 
C 65.4949 61.340661 65.308143 61.791532 65.308143 62.261592 
C 65.308143 62.731652 65.4949 63.182523 65.827282 63.514906 
C 66.159665 63.847289 66.610536 64.034046 67.080597 64.034046 
z
" style="stroke:#000000;stroke-width:0.886227;"/>
    <path clip-path="url(#p33b0a559e8)" d="M 80.607869 65.61475 
C 81.07793 65.61475 81.528801 65.427993 81.861183 65.09561 
C 82.193566 64.763227 82.380323 64.312356 82.380323 63.842296 
C 82.380323 63.372236 82.193566 62.921365 81.861183 62.588982 
C 81.528801 62.256599 81.07793 62.069842 80.607869 62.069842 
C 80.137809 62.069842 79.686938 62.256599 79.354555 62.588982 
C 79.022172 62.921365 78.835415 63.372236 78.835415 63.842296 
C 78.835415 64.312356 79.022172 64.763227 79.354555 65.09561 
C 79.686938 65.427993 80.137809 65.61475 80.607869 65.61475 
z
" style="stroke:#000000;stroke-width:0.886227;"/>
    <path clip-path="url(#p33b0a559e8)" d="M 94.135142 70.089519 
C 94.605202 70.089519 95.056073 69.902763 95.388456 69.57038 
C 95.720839 69.237997 95.907596 68.787126 95.907596 68.317066 
C 95.907596 67.847005 95.720839 67.396134 95.388456 67.063751 
C 95.056073 66.731369 94.605202 66.544612 94.135142 66.544612 
C 93.665082 66.544612 93.214211 66.731369 92.881828 67.063751 
C 92.549445 67.396134 92.362688 67.847005 92.362688 68.317066 
C 92.362688 68.787126 92.549445 69.237997 92.881828 69.57038 
C 93.214211 69.902763 93.665082 70.089519 94.135142 70.089519 
z
" style="stroke:#000000;stroke-width:0.886227;"/>
    <path clip-path="url(#p33b0a559e8)" d="M 107.662415 71.343875 
C 108.132475 71.343875 108.583346 71.157118 108.915729 70.824735 
C 109.248112 70.492352 109.434869 70.041481 109.434869 69.571421 
C 109.434869 69.101361 109.248112 68.65049 108.915729 68.318107 
C 108.583346 67.985724 108.132475 67.798967 107.662415 67.798967 
C 107.192355 67.798967 106.741483 67.985724 106.409101 68.318107 
C 106.076718 68.65049 105.889961 69.101361 105.889961 69.571421 
C 105.889961 70.041481 106.076718 70.492352 106.409101 70.824735 
C 106.741483 71.157118 107.192355 71.343875 107.662415 71.343875 
z
" style="stroke:#000000;stroke-width:0.886227;"/>
    <path clip-path="url(#p33b0a559e8)" d="M 121.189688 77.776621 
C 121.659748 77.776621 122.110619 77.589864 122.443002 77.257481 
C 122.775384 76.925098 122.962141 76.474227 122.962141 76.004167 
C 122.962141 75.534107 122.775384 75.083236 122.443002 74.750853 
C 122.110619 74.41847 121.659748 74.231713 121.189688 74.231713 
C 120.719627 74.231713 120.268756 74.41847 119.936373 74.750853 
C 119.603991 75.083236 119.417234 75.534107 119.417234 76.004167 
C 119.417234 76.474227 119.603991 76.925098 119.936373 77.257481 
C 120.268756 77.589864 120.719627 77.776621 121.189688 77.776621 
z
" style="stroke:#000000;stroke-width:0.886227;"/>
    <path clip-path="url(#p33b0a559e8)" d="M 134.71696 83.948173 
C 135.18702 83.948173 135.637892 83.761416 135.970274 83.429034 
C 136.302657 83.096651 136.489414 82.64578 136.489414 82.17572 
C 136.489414 81.705659 136.302657 81.254788 135.970274 80.922405 
C 135.637892 80.590023 135.18702 80.403266 134.71696 80.403266 
C 134.2469 80.403266 133.796029 80.590023 133.463646 80.922405 
C 133.131263 81.254788 132.944506 81.705659 132.944506 82.17572 
C 132.944506 82.64578 133.131263 83.096651 133.463646 83.429034 
C 133.796029 83.761416 134.2469 83.948173 134.71696 83.948173 
z
" style="stroke:#000000;stroke-width:0.886227;"/>
    <path clip-path="url(#p33b0a559e8)" d="M 148.244233 87.894433 
C 148.714293 87.894433 149.165164 87.707676 149.497547 87.375293 
C 149.82993 87.04291 150.016687 86.592039 150.016687 86.121979 
C 150.016687 85.651918 149.82993 85.201047 149.497547 84.868665 
C 149.165164 84.536282 148.714293 84.349525 148.244233 84.349525 
C 147.774173 84.349525 147.323302 84.536282 146.990919 84.868665 
C 146.658536 85.201047 146.471779 85.651918 146.471779 86.121979 
C 146.471779 86.592039 146.658536 87.04291 146.990919 87.375293 
C 147.323302 87.707676 147.774173 87.894433 148.244233 87.894433 
z
" style="stroke:#000000;stroke-width:0.886227;"/>
    <path clip-path="url(#p33b0a559e8)" d="M 161.771506 95.119945 
C 162.241566 95.119945 162.692437 94.933188 163.02482 94.600805 
C 163.357203 94.268422 163.54396 93.817551 163.54396 93.347491 
C 163.54396 92.87743 163.357203 92.426559 163.02482 92.094177 
C 162.692437 91.761794 162.241566 91.575037 161.771506 91.575037 
C 161.301445 91.575037 160.850574 91.761794 160.518192 92.094177 
C 160.185809 92.426559 159.999052 92.87743 159.999052 93.347491 
C 159.999052 93.817551 160.185809 94.268422 160.518192 94.600805 
C 160.850574 94.933188 161.301445 95.119945 161.771506 95.119945 
z
" style="stroke:#000000;stroke-width:0.886227;"/>
    <path clip-path="url(#p33b0a559e8)" d="M 175.298778 97.458681 
C 175.768839 97.458681 176.21971 97.271924 176.552093 96.939541 
C 176.884475 96.607158 177.071232 96.156287 177.071232 95.686227 
C 177.071232 95.216167 176.884475 94.765296 176.552093 94.432913 
C 176.21971 94.10053 175.768839 93.913773 175.298778 93.913773 
C 174.828718 93.913773 174.377847 94.10053 174.045464 94.432913 
C 173.713081 94.765296 173.526325 95.216167 173.526325 95.686227 
C 173.526325 96.156287 173.713081 96.607158 174.045464 96.939541 
C 174.377847 97.271924 174.828718 97.458681 175.298778 97.458681 
z
" style="stroke:#000000;stroke-width:0.886227;"/>
    <path clip-path="url(#p33b0a559e8)" d="M 188.826051 109.296627 
C 189.296111 109.296627 189.746982 109.10987 190.079365 108.777487 
C 190.411748 108.445105 190.598505 107.994234 190.598505 107.524173 
C 190.598505 107.054113 190.411748 106.603242 190.079365 106.270859 
C 189.746982 105.938476 189.296111 105.751719 188.826051 105.751719 
C 188.355991 105.751719 187.90512 105.938476 187.572737 106.270859 
C 187.240354 106.603242 187.053597 107.054113 187.053597 107.524173 
C 187.053597 107.994234 187.240354 108.445105 187.572737 108.777487 
C 187.90512 109.10987 188.355991 109.296627 188.826051 109.296627 
z
" style="stroke:#000000;stroke-width:0.886227;"/>
    <path clip-path="url(#p33b0a559e8)" d="M 202.353324 118.095139 
C 202.823384 118.095139 203.274255 117.908382 203.606638 117.575999 
C 203.939021 117.243616 204.125778 116.792745 204.125778 116.322685 
C 204.125778 115.852625 203.939021 115.401754 203.606638 115.069371 
C 203.274255 114.736988 202.823384 114.550231 202.353324 114.550231 
C 201.883264 114.550231 201.432393 114.736988 201.10001 115.069371 
C 200.767627 115.401754 200.58087 115.852625 200.58087 116.322685 
C 200.58087 116.792745 200.767627 117.243616 201.10001 117.575999 
C 201.432393 117.908382 201.883264 118.095139 202.353324 118.095139 
z
" style="stroke:#000000;stroke-width:0.886227;"/>
    <path clip-path="url(#p33b0a559e8)" d="M 215.880597 126.348307 
C 216.350657 126.348307 216.801528 126.16155 217.133911 125.829167 
C 217.466294 125.496784 217.65305 125.045913 217.65305 124.575853 
C 217.65305 124.105792 217.466294 123.654921 217.133911 123.322539 
C 216.801528 122.990156 216.350657 122.803399 215.880597 122.803399 
C 215.410536 122.803399 214.959665 122.990156 214.627282 123.322539 
C 214.2949 123.654921 214.108143 124.105792 214.108143 124.575853 
C 214.108143 125.045913 214.2949 125.496784 214.627282 125.829167 
C 214.959665 126.16155 215.410536 126.348307 215.880597 126.348307 
z
" style="stroke:#000000;stroke-width:0.886227;"/>
    <path clip-path="url(#p33b0a559e8)" d="M 229.407869 131.794839 
C 229.87793 131.794839 230.328801 131.608082 230.661183 131.275699 
C 230.993566 130.943316 231.180323 130.492445 231.180323 130.022385 
C 231.180323 129.552325 230.993566 129.101454 230.661183 128.769071 
C 230.328801 128.436688 229.87793 128.249931 229.407869 128.249931 
C 228.937809 128.249931 228.486938 128.436688 228.154555 128.769071 
C 227.822172 129.101454 227.635415 129.552325 227.635415 130.022385 
C 227.635415 130.492445 227.822172 130.943316 228.154555 131.275699 
C 228.486938 131.608082 228.937809 131.794839 229.407869 131.794839 
z
" style="stroke:#000000;stroke-width:0.886227;"/>
    <path clip-path="url(#p33b0a559e8)" d="M 242.935142 144.305508 
C 243.405202 144.305508 243.856073 144.118751 244.188456 143.786368 
C 244.520839 143.453985 244.707596 143.003114 244.707596 142.533054 
C 244.707596 142.062994 244.520839 141.612123 244.188456 141.27974 
C 243.856073 140.947357 243.405202 140.7606 242.935142 140.7606 
C 242.465082 140.7606 242.014211 140.947357 241.681828 141.27974 
C 241.349445 141.612123 241.162688 142.062994 241.162688 142.533054 
C 241.162688 143.003114 241.349445 143.453985 241.681828 143.786368 
C 242.014211 144.118751 242.465082 144.305508 242.935142 144.305508 
z
" style="stroke:#000000;stroke-width:0.886227;"/>
    <path clip-path="url(#p33b0a559e8)" d="M 256.462415 145.184309 
C 256.932475 145.184309 257.383346 144.997552 257.715729 144.665169 
C 258.048112 144.332787 258.234869 143.881915 258.234869 143.411855 
C 258.234869 142.941795 258.048112 142.490924 257.715729 142.158541 
C 257.383346 141.826158 256.932475 141.639401 256.462415 141.639401 
C 255.992355 141.639401 255.541483 141.826158 255.209101 142.158541 
C 254.876718 142.490924 254.689961 142.941795 254.689961 143.411855 
C 254.689961 143.881915 254.876718 144.332787 255.209101 144.665169 
C 255.541483 144.997552 255.992355 145.184309 256.462415 145.184309 
z
" style="stroke:#000000;stroke-width:0.886227;"/>
    <path clip-path="url(#p33b0a559e8)" d="M 269.989688 154.044414 
C 270.459748 154.044414 270.910619 153.857657 271.243002 153.525274 
C 271.575384 153.192892 271.762141 152.74202 271.762141 152.27196 
C 271.762141 151.8019 271.575384 151.351029 271.243002 151.018646 
C 270.910619 150.686263 270.459748 150.499506 269.989688 150.499506 
C 269.519627 150.499506 269.068756 150.686263 268.736373 151.018646 
C 268.403991 151.351029 268.217234 151.8019 268.217234 152.27196 
C 268.217234 152.74202 268.403991 153.192892 268.736373 153.525274 
C 269.068756 153.857657 269.519627 154.044414 269.989688 154.044414 
z
" style="stroke:#000000;stroke-width:0.886227;"/>
    <path clip-path="url(#p33b0a559e8)" d="M 283.51696 153.294789 
C 283.98702 153.294789 284.437892 153.108033 284.770274 152.77565 
C 285.102657 152.443267 285.289414 151.992396 285.289414 151.522336 
C 285.289414 151.052275 285.102657 150.601404 284.770274 150.269021 
C 284.437892 149.936639 283.98702 149.749882 283.51696 149.749882 
C 283.0469 149.749882 282.596029 149.936639 282.263646 150.269021 
C 281.931263 150.601404 281.744506 151.052275 281.744506 151.522336 
C 281.744506 151.992396 281.931263 152.443267 282.263646 152.77565 
C 282.596029 153.108033 283.0469 153.294789 283.51696 153.294789 
z
" style="stroke:#000000;stroke-width:0.886227;"/>
    <path clip-path="url(#p33b0a559e8)" d="M 297.044233 160.559807 
C 297.514293 160.559807 297.965164 160.37305 298.297547 160.040668 
C 298.62993 159.708285 298.816687 159.257414 298.816687 158.787354 
C 298.816687 158.317293 298.62993 157.866422 298.297547 157.534039 
C 297.965164 157.201657 297.514293 157.0149 297.044233 157.0149 
C 296.574173 157.0149 296.123302 157.201657 295.790919 157.534039 
C 295.458536 157.866422 295.271779 158.317293 295.271779 158.787354 
C 295.271779 159.257414 295.458536 159.708285 295.790919 160.040668 
C 296.123302 160.37305 296.574173 160.559807 297.044233 160.559807 
z
" style="stroke:#000000;stroke-width:0.886227;"/>
    <path clip-path="url(#p33b0a559e8)" d="M 310.571506 161.748616 
C 311.041566 161.748616 311.492437 161.561859 311.82482 161.229476 
C 312.157203 160.897093 312.34396 160.446222 312.34396 159.976162 
C 312.34396 159.506101 312.157203 159.05523 311.82482 158.722848 
C 311.492437 158.390465 311.041566 158.203708 310.571506 158.203708 
C 310.101445 158.203708 309.650574 158.390465 309.318192 158.722848 
C 308.985809 159.05523 308.799052 159.506101 308.799052 159.976162 
C 308.799052 160.446222 308.985809 160.897093 309.318192 161.229476 
C 309.650574 161.561859 310.101445 161.748616 310.571506 161.748616 
z
" style="stroke:#000000;stroke-width:0.886227;"/>
    <path clip-path="url(#p33b0a559e8)" d="M 324.098778 167.630784 
C 324.568839 167.630784 325.01971 167.444027 325.352093 167.111644 
C 325.684475 166.779261 325.871232 166.32839 325.871232 165.85833 
C 325.871232 165.38827 325.684475 164.937399 325.352093 164.605016 
C 325.01971 164.272633 324.568839 164.085876 324.098778 164.085876 
C 323.628718 164.085876 323.177847 164.272633 322.845464 164.605016 
C 322.513081 164.937399 322.326325 165.38827 322.326325 165.85833 
C 322.326325 166.32839 322.513081 166.779261 322.845464 167.111644 
C 323.177847 167.444027 323.628718 167.630784 324.098778 167.630784 
z
" style="stroke:#000000;stroke-width:0.886227;"/>
    <path clip-path="url(#p33b0a559e8)" d="M 337.626051 160.057287 
C 338.096111 160.057287 338.546982 159.87053 338.879365 159.538148 
C 339.211748 159.205765 339.398505 158.754894 339.398505 158.284834 
C 339.398505 157.814773 339.211748 157.363902 338.879365 157.031519 
C 338.546982 156.699137 338.096111 156.51238 337.626051 156.51238 
C 337.155991 156.51238 336.70512 156.699137 336.372737 157.031519 
C 336.040354 157.363902 335.853597 157.814773 335.853597 158.284834 
C 335.853597 158.754894 336.040354 159.205765 336.372737 159.538148 
C 336.70512 159.87053 337.155991 160.057287 337.626051 160.057287 
z
" style="stroke:#000000;stroke-width:0.886227;"/>
    <path clip-path="url(#p33b0a559e8)" d="M 351.153324 160.799889 
C 351.623384 160.799889 352.074255 160.613132 352.406638 160.280749 
C 352.739021 159.948367 352.925778 159.497495 352.925778 159.027435 
C 352.925778 158.557375 352.739021 158.106504 352.406638 157.774121 
C 352.074255 157.441738 351.623384 157.254981 351.153324 157.254981 
C 350.683264 157.254981 350.232393 157.441738 349.90001 157.774121 
C 349.567627 158.106504 349.38087 158.557375 349.38087 159.027435 
C 349.38087 159.497495 349.567627 159.948367 349.90001 160.280749 
C 350.232393 160.613132 350.683264 160.799889 351.153324 160.799889 
z
" style="stroke:#000000;stroke-width:0.886227;"/>
    <path clip-path="url(#p33b0a559e8)" d="M 364.680597 168.403156 
C 365.150657 168.403156 365.601528 168.216399 365.933911 167.884017 
C 366.266294 167.551634 366.45305 167.100763 366.45305 166.630702 
C 366.45305 166.160642 366.266294 165.709771 365.933911 165.377388 
C 365.601528 165.045005 365.150657 164.858249 364.680597 164.858249 
C 364.210536 164.858249 363.759665 165.045005 363.427282 165.377388 
C 363.0949 165.709771 362.908143 166.160642 362.908143 166.630702 
C 362.908143 167.100763 363.0949 167.551634 363.427282 167.884017 
C 363.759665 168.216399 364.210536 168.403156 364.680597 168.403156 
z
" style="stroke:#000000;stroke-width:0.886227;"/>
    <path clip-path="url(#p33b0a559e8)" d="M 378.207869 176.174004 
C 378.67793 176.174004 379.128801 175.987247 379.461183 175.654864 
C 379.793566 175.322482 379.980323 174.87161 379.980323 174.40155 
C 379.980323 173.93149 379.793566 173.480619 379.461183 173.148236 
C 379.128801 172.815853 378.67793 172.629096 378.207869 172.629096 
C 377.737809 172.629096 377.286938 172.815853 376.954555 173.148236 
C 376.622172 173.480619 376.435415 173.93149 376.435415 174.40155 
C 376.435415 174.87161 376.622172 175.322482 376.954555 175.654864 
C 377.286938 175.987247 377.737809 176.174004 378.207869 176.174004 
z
" style="stroke:#000000;stroke-width:0.886227;"/>
    <path clip-path="url(#p33b0a559e8)" d="M 391.735142 185.951813 
C 392.205202 185.951813 392.656073 185.765056 392.988456 185.432673 
C 393.320839 185.10029 393.507596 184.649419 393.507596 184.179359 
C 393.507596 183.709299 393.320839 183.258427 392.988456 182.926045 
C 392.656073 182.593662 392.205202 182.406905 391.735142 182.406905 
C 391.265082 182.406905 390.814211 182.593662 390.481828 182.926045 
C 390.149445 183.258427 389.962688 183.709299 389.962688 184.179359 
C 389.962688 184.649419 390.149445 185.10029 390.481828 185.432673 
C 390.814211 185.765056 391.265082 185.951813 391.735142 185.951813 
z
" style="stroke:#000000;stroke-width:0.886227;"/>
    <path clip-path="url(#p33b0a559e8)" d="M 405.262415 178.278455 
C 405.732475 178.278455 406.183346 178.091698 406.515729 177.759315 
C 406.848112 177.426933 407.034869 176.976061 407.034869 176.506001 
C 407.034869 176.035941 406.848112 175.58507 406.515729 175.252687 
C 406.183346 174.920304 405.732475 174.733547 405.262415 174.733547 
C 404.792355 174.733547 404.341483 174.920304 404.009101 175.252687 
C 403.676718 175.58507 403.489961 176.035941 403.489961 176.506001 
C 403.489961 176.976061 403.676718 177.426933 404.009101 177.759315 
C 404.341483 178.091698 404.792355 178.278455 405.262415 178.278455 
z
" style="stroke:#000000;stroke-width:0.886227;"/>
    <path clip-path="url(#p33b0a559e8)" d="M 418.789688 177.501899 
C 419.259748 177.501899 419.710619 177.315142 420.043002 176.982759 
C 420.375384 176.650376 420.562141 176.199505 420.562141 175.729445 
C 420.562141 175.259385 420.375384 174.808513 420.043002 174.476131 
C 419.710619 174.143748 419.259748 173.956991 418.789688 173.956991 
C 418.319627 173.956991 417.868756 174.143748 417.536373 174.476131 
C 417.203991 174.808513 417.017234 175.259385 417.017234 175.729445 
C 417.017234 176.199505 417.203991 176.650376 417.536373 176.982759 
C 417.868756 177.315142 418.319627 177.501899 418.789688 177.501899 
z
" style="stroke:#000000;stroke-width:0.886227;"/>
    <path clip-path="url(#p33b0a559e8)" d="M 432.31696 185.13217 
C 432.78702 185.13217 433.237892 184.945413 433.570274 184.61303 
C 433.902657 184.280648 434.089414 183.829777 434.089414 183.359716 
C 434.089414 182.889656 433.902657 182.438785 433.570274 182.106402 
C 433.237892 181.774019 432.78702 181.587263 432.31696 181.587263 
C 431.8469 181.587263 431.396029 181.774019 431.063646 182.106402 
C 430.731263 182.438785 430.544506 182.889656 430.544506 183.359716 
C 430.544506 183.829777 430.731263 184.280648 431.063646 184.61303 
C 431.396029 184.945413 431.8469 185.13217 432.31696 185.13217 
z
" style="stroke:#000000;stroke-width:0.886227;"/>
    <path clip-path="url(#p33b0a559e8)" d="M 445.844233 185.665232 
C 446.314293 185.665232 446.765164 185.478475 447.097547 185.146093 
C 447.42993 184.81371 447.616687 184.362839 447.616687 183.892778 
C 447.616687 183.422718 447.42993 182.971847 447.097547 182.639464 
C 446.765164 182.307082 446.314293 182.120325 445.844233 182.120325 
C 445.374173 182.120325 444.923302 182.307082 444.590919 182.639464 
C 444.258536 182.971847 444.071779 183.422718 444.071779 183.892778 
C 444.071779 184.362839 444.258536 184.81371 444.590919 185.146093 
C 444.923302 185.478475 445.374173 185.665232 445.844233 185.665232 
z
" style="stroke:#000000;stroke-width:0.886227;"/>
    <path clip-path="url(#p33b0a559e8)" d="M 459.371506 191.66138 
C 459.841566 191.66138 460.292437 191.474623 460.62482 191.142241 
C 460.957203 190.809858 461.14396 190.358987 461.14396 189.888927 
C 461.14396 189.418866 460.957203 188.967995 460.62482 188.635612 
C 460.292437 188.30323 459.841566 188.116473 459.371506 188.116473 
C 458.901445 188.116473 458.450574 188.30323 458.118192 188.635612 
C 457.785809 188.967995 457.599052 189.418866 457.599052 189.888927 
C 457.599052 190.358987 457.785809 190.809858 458.118192 191.142241 
C 458.450574 191.474623 458.901445 191.66138 459.371506 191.66138 
z
" style="stroke:#000000;stroke-width:0.886227;"/>
    <path clip-path="url(#p33b0a559e8)" d="M 472.898778 183.81357 
C 473.368839 183.81357 473.81971 183.626813 474.152093 183.29443 
C 474.484475 182.962047 474.671232 182.511176 474.671232 182.041116 
C 474.671232 181.571056 474.484475 181.120185 474.152093 180.787802 
C 473.81971 180.455419 473.368839 180.268662 472.898778 180.268662 
C 472.428718 180.268662 471.977847 180.455419 471.645464 180.787802 
C 471.313081 181.120185 471.126325 181.571056 471.126325 182.041116 
C 471.126325 182.511176 471.313081 182.962047 471.645464 183.29443 
C 471.977847 183.626813 472.428718 183.81357 472.898778 183.81357 
z
" style="stroke:#000000;stroke-width:0.886227;"/>
   </g>
   <g id="line2d_33">
    <path clip-path="url(#p33b0a559e8)" d="M 67.080597 62.261592 
L 80.607869 63.842296 
L 94.135142 68.317066 
L 107.662415 69.571421 
L 121.189688 76.004167 
L 134.71696 82.17572 
L 148.244233 86.121979 
L 161.771506 93.347491 
L 175.298778 95.686227 
L 188.826051 107.524173 
L 202.353324 116.322685 
L 215.880597 124.575853 
L 229.407869 130.022385 
L 242.935142 142.533054 
L 256.462415 143.411855 
L 269.989688 152.27196 
L 283.51696 151.522336 
L 297.044233 158.787354 
L 310.571506 159.976162 
L 324.098778 165.85833 
L 337.626051 158.284834 
L 351.153324 159.027435 
L 364.680597 166.630702 
L 378.207869 174.40155 
L 391.735142 184.179359 
L 405.262415 176.506001 
L 418.789688 175.729445 
L 432.31696 183.359716 
L 445.844233 183.892778 
L 459.371506 189.888927 
L 472.898778 182.041116 
" style="fill:none;stroke:#000000;stroke-width:0.886227;"/>
   </g>
  </g>
  <g id="text_12">
   <!-- All data with imputed missing values Q1(t) -->
   <defs>
    <path d="M 34.1875 63.1875 
L 20.796875 26.90625 
L 47.609375 26.90625 
z
M 28.609375 72.90625 
L 39.796875 72.90625 
L 67.578125 0 
L 57.328125 0 
L 50.6875 18.703125 
L 17.828125 18.703125 
L 11.1875 0 
L 0.78125 0 
z
" id="DejaVuSans-65"/>
    <path d="M 45.40625 46.390625 
L 45.40625 75.984375 
L 54.390625 75.984375 
L 54.390625 0 
L 45.40625 0 
L 45.40625 8.203125 
Q 42.578125 3.328125 38.25 0.953125 
Q 33.9375 -1.421875 27.875 -1.421875 
Q 17.96875 -1.421875 11.734375 6.484375 
Q 5.515625 14.40625 5.515625 27.296875 
Q 5.515625 40.1875 11.734375 48.09375 
Q 17.96875 56 27.875 56 
Q 33.9375 56 38.25 53.625 
Q 42.578125 51.265625 45.40625 46.390625 
z
M 14.796875 27.296875 
Q 14.796875 17.390625 18.875 11.75 
Q 22.953125 6.109375 30.078125 6.109375 
Q 37.203125 6.109375 41.296875 11.75 
Q 45.40625 17.390625 45.40625 27.296875 
Q 45.40625 37.203125 41.296875 42.84375 
Q 37.203125 48.484375 30.078125 48.484375 
Q 22.953125 48.484375 18.875 42.84375 
Q 14.796875 37.203125 14.796875 27.296875 
z
" id="DejaVuSans-100"/>
    <path d="M 34.28125 27.484375 
Q 23.390625 27.484375 19.1875 25 
Q 14.984375 22.515625 14.984375 16.5 
Q 14.984375 11.71875 18.140625 8.90625 
Q 21.296875 6.109375 26.703125 6.109375 
Q 34.1875 6.109375 38.703125 11.40625 
Q 43.21875 16.703125 43.21875 25.484375 
L 43.21875 27.484375 
z
M 52.203125 31.203125 
L 52.203125 0 
L 43.21875 0 
L 43.21875 8.296875 
Q 40.140625 3.328125 35.546875 0.953125 
Q 30.953125 -1.421875 24.3125 -1.421875 
Q 15.921875 -1.421875 10.953125 3.296875 
Q 6 8.015625 6 15.921875 
Q 6 25.140625 12.171875 29.828125 
Q 18.359375 34.515625 30.609375 34.515625 
L 43.21875 34.515625 
L 43.21875 35.40625 
Q 43.21875 41.609375 39.140625 45 
Q 35.0625 48.390625 27.6875 48.390625 
Q 23 48.390625 18.546875 47.265625 
Q 14.109375 46.140625 10.015625 43.890625 
L 10.015625 52.203125 
Q 14.9375 54.109375 19.578125 55.046875 
Q 24.21875 56 28.609375 56 
Q 40.484375 56 46.34375 49.84375 
Q 52.203125 43.703125 52.203125 31.203125 
z
" id="DejaVuSans-97"/>
    <path d="M 4.203125 54.6875 
L 13.1875 54.6875 
L 24.421875 12.015625 
L 35.59375 54.6875 
L 46.1875 54.6875 
L 57.421875 12.015625 
L 68.609375 54.6875 
L 77.59375 54.6875 
L 63.28125 0 
L 52.6875 0 
L 40.921875 44.828125 
L 29.109375 0 
L 18.5 0 
z
" id="DejaVuSans-119"/>
    <path d="M 54.890625 33.015625 
L 54.890625 0 
L 45.90625 0 
L 45.90625 32.71875 
Q 45.90625 40.484375 42.875 44.328125 
Q 39.84375 48.1875 33.796875 48.1875 
Q 26.515625 48.1875 22.3125 43.546875 
Q 18.109375 38.921875 18.109375 30.90625 
L 18.109375 0 
L 9.078125 0 
L 9.078125 75.984375 
L 18.109375 75.984375 
L 18.109375 46.1875 
Q 21.34375 51.125 25.703125 53.5625 
Q 30.078125 56 35.796875 56 
Q 45.21875 56 50.046875 50.171875 
Q 54.890625 44.34375 54.890625 33.015625 
z
" id="DejaVuSans-104"/>
    <path d="M 52 44.1875 
Q 55.375 50.25 60.0625 53.125 
Q 64.75 56 71.09375 56 
Q 79.640625 56 84.28125 50.015625 
Q 88.921875 44.046875 88.921875 33.015625 
L 88.921875 0 
L 79.890625 0 
L 79.890625 32.71875 
Q 79.890625 40.578125 77.09375 44.375 
Q 74.3125 48.1875 68.609375 48.1875 
Q 61.625 48.1875 57.5625 43.546875 
Q 53.515625 38.921875 53.515625 30.90625 
L 53.515625 0 
L 44.484375 0 
L 44.484375 32.71875 
Q 44.484375 40.625 41.703125 44.40625 
Q 38.921875 48.1875 33.109375 48.1875 
Q 26.21875 48.1875 22.15625 43.53125 
Q 18.109375 38.875 18.109375 30.90625 
L 18.109375 0 
L 9.078125 0 
L 9.078125 54.6875 
L 18.109375 54.6875 
L 18.109375 46.1875 
Q 21.1875 51.21875 25.484375 53.609375 
Q 29.78125 56 35.6875 56 
Q 41.65625 56 45.828125 52.96875 
Q 50 49.953125 52 44.1875 
z
" id="DejaVuSans-109"/>
    <path d="M 45.40625 27.984375 
Q 45.40625 37.75 41.375 43.109375 
Q 37.359375 48.484375 30.078125 48.484375 
Q 22.859375 48.484375 18.828125 43.109375 
Q 14.796875 37.75 14.796875 27.984375 
Q 14.796875 18.265625 18.828125 12.890625 
Q 22.859375 7.515625 30.078125 7.515625 
Q 37.359375 7.515625 41.375 12.890625 
Q 45.40625 18.265625 45.40625 27.984375 
z
M 54.390625 6.78125 
Q 54.390625 -7.171875 48.1875 -13.984375 
Q 42 -20.796875 29.203125 -20.796875 
Q 24.46875 -20.796875 20.265625 -20.09375 
Q 16.0625 -19.390625 12.109375 -17.921875 
L 12.109375 -9.1875 
Q 16.0625 -11.328125 19.921875 -12.34375 
Q 23.78125 -13.375 27.78125 -13.375 
Q 36.625 -13.375 41.015625 -8.765625 
Q 45.40625 -4.15625 45.40625 5.171875 
L 45.40625 9.625 
Q 42.625 4.78125 38.28125 2.390625 
Q 33.9375 0 27.875 0 
Q 17.828125 0 11.671875 7.65625 
Q 5.515625 15.328125 5.515625 27.984375 
Q 5.515625 40.671875 11.671875 48.328125 
Q 17.828125 56 27.875 56 
Q 33.9375 56 38.28125 53.609375 
Q 42.625 51.21875 45.40625 46.390625 
L 45.40625 54.6875 
L 54.390625 54.6875 
z
" id="DejaVuSans-103"/>
    <path d="M 2.984375 54.6875 
L 12.5 54.6875 
L 29.59375 8.796875 
L 46.6875 54.6875 
L 56.203125 54.6875 
L 35.6875 0 
L 23.484375 0 
z
" id="DejaVuSans-118"/>
   </defs>
   <g transform="translate(121.737375 17.229938)scale(0.132 -0.132)">
    <use xlink:href="#DejaVuSans-65"/>
    <use x="68.408203" xlink:href="#DejaVuSans-108"/>
    <use x="96.191406" xlink:href="#DejaVuSans-108"/>
    <use x="123.974609" xlink:href="#DejaVuSans-32"/>
    <use x="155.761719" xlink:href="#DejaVuSans-100"/>
    <use x="219.238281" xlink:href="#DejaVuSans-97"/>
    <use x="280.517578" xlink:href="#DejaVuSans-116"/>
    <use x="319.726562" xlink:href="#DejaVuSans-97"/>
    <use x="381.005859" xlink:href="#DejaVuSans-32"/>
    <use x="412.792969" xlink:href="#DejaVuSans-119"/>
    <use x="494.580078" xlink:href="#DejaVuSans-105"/>
    <use x="522.363281" xlink:href="#DejaVuSans-116"/>
    <use x="561.572266" xlink:href="#DejaVuSans-104"/>
    <use x="624.951172" xlink:href="#DejaVuSans-32"/>
    <use x="656.738281" xlink:href="#DejaVuSans-105"/>
    <use x="684.521484" xlink:href="#DejaVuSans-109"/>
    <use x="781.933594" xlink:href="#DejaVuSans-112"/>
    <use x="845.410156" xlink:href="#DejaVuSans-117"/>
    <use x="908.789062" xlink:href="#DejaVuSans-116"/>
    <use x="947.998047" xlink:href="#DejaVuSans-101"/>
    <use x="1009.521484" xlink:href="#DejaVuSans-100"/>
    <use x="1072.998047" xlink:href="#DejaVuSans-32"/>
    <use x="1104.785156" xlink:href="#DejaVuSans-109"/>
    <use x="1202.197266" xlink:href="#DejaVuSans-105"/>
    <use x="1229.980469" xlink:href="#DejaVuSans-115"/>
    <use x="1282.080078" xlink:href="#DejaVuSans-115"/>
    <use x="1334.179688" xlink:href="#DejaVuSans-105"/>
    <use x="1361.962891" xlink:href="#DejaVuSans-110"/>
    <use x="1425.341797" xlink:href="#DejaVuSans-103"/>
    <use x="1488.818359" xlink:href="#DejaVuSans-32"/>
    <use x="1520.605469" xlink:href="#DejaVuSans-118"/>
    <use x="1579.785156" xlink:href="#DejaVuSans-97"/>
    <use x="1641.064453" xlink:href="#DejaVuSans-108"/>
    <use x="1668.847656" xlink:href="#DejaVuSans-117"/>
    <use x="1732.226562" xlink:href="#DejaVuSans-101"/>
    <use x="1793.75" xlink:href="#DejaVuSans-115"/>
    <use x="1845.849609" xlink:href="#DejaVuSans-32"/>
    <use x="1877.636719" xlink:href="#DejaVuSans-81"/>
    <use x="1956.347656" xlink:href="#DejaVuSans-49"/>
    <use x="2019.970703" xlink:href="#DejaVuSans-40"/>
    <use x="2058.984375" xlink:href="#DejaVuSans-116"/>
    <use x="2098.193359" xlink:href="#DejaVuSans-41"/>
   </g>
  </g>
 </g>
 <defs>
  <clipPath id="p33b0a559e8">
   <rect height="221.76" width="446.4" x="46.789687" y="26.105371"/>
  </clipPath>
 </defs>
</svg>
