<?xml version="1.0" encoding="utf-8" standalone="no"?>
<!DOCTYPE svg PUBLIC "-//W3C//DTD SVG 1.1//EN"
  "http://www.w3.org/Graphics/SVG/1.1/DTD/svg11.dtd">
<!-- Created with matplotlib (https://matplotlib.org/) -->
<svg height="264.672687pt" version="1.1" viewBox="0 0 500.389687 264.672687" width="500.389687pt" xmlns="http://www.w3.org/2000/svg" xmlns:xlink="http://www.w3.org/1999/xlink">
 <defs>
  <style type="text/css">
*{stroke-linecap:butt;stroke-linejoin:round;}
  </style>
 </defs>
 <g id="figure_1">
  <g id="patch_1">
   <path d="M 0 264.672687 
L 500.389687 264.672687 
L 500.389687 0 
L 0 0 
z
" style="fill:#ffffff;stroke:#ffffff;stroke-linejoin:miter;"/>
  </g>
  <g id="axes_1">
   <g id="patch_2">
    <path d="M 46.789687 228.96 
L 493.189687 228.96 
L 493.189687 7.2 
L 46.789687 7.2 
z
" style="fill:#ffffff;stroke:#7f7f7f;stroke-linejoin:miter;"/>
   </g>
   <g id="matplotlib.axis_1">
    <g id="xtick_1">
     <g id="line2d_1">
      <path clip-path="url(#pa4b5a53e04)" d="M 67.080597 228.96 
L 67.080597 7.2 
" style="fill:none;stroke:#e5e5e5;stroke-width:0.8;"/>
     </g>
     <g id="line2d_2">
      <path d="M 67.080597 228.96 
" style="fill:none;stroke:#000000;stroke-width:1.5;"/>
      <defs>
       <path d="M 0 0 
L 0 2.75 
" id="mf791df667e" style="stroke:#000000;"/>
      </defs>
      <g>
       <use style="stroke:#000000;" x="67.080597" xlink:href="#mf791df667e" y="228.96"/>
      </g>
     </g>
     <g id="text_1">
      <!-- 1970 -->
      <defs>
       <path d="M 12.40625 8.296875 
L 28.515625 8.296875 
L 28.515625 63.921875 
L 10.984375 60.40625 
L 10.984375 69.390625 
L 28.421875 72.90625 
L 38.28125 72.90625 
L 38.28125 8.296875 
L 54.390625 8.296875 
L 54.390625 0 
L 12.40625 0 
z
" id="DejaVuSans-49"/>
       <path d="M 10.984375 1.515625 
L 10.984375 10.5 
Q 14.703125 8.734375 18.5 7.8125 
Q 22.3125 6.890625 25.984375 6.890625 
Q 35.75 6.890625 40.890625 13.453125 
Q 46.046875 20.015625 46.78125 33.40625 
Q 43.953125 29.203125 39.59375 26.953125 
Q 35.25 24.703125 29.984375 24.703125 
Q 19.046875 24.703125 12.671875 31.3125 
Q 6.296875 37.9375 6.296875 49.421875 
Q 6.296875 60.640625 12.9375 67.421875 
Q 19.578125 74.21875 30.609375 74.21875 
Q 43.265625 74.21875 49.921875 64.515625 
Q 56.59375 54.828125 56.59375 36.375 
Q 56.59375 19.140625 48.40625 8.859375 
Q 40.234375 -1.421875 26.421875 -1.421875 
Q 22.703125 -1.421875 18.890625 -0.6875 
Q 15.09375 0.046875 10.984375 1.515625 
z
M 30.609375 32.421875 
Q 37.25 32.421875 41.125 36.953125 
Q 45.015625 41.5 45.015625 49.421875 
Q 45.015625 57.28125 41.125 61.84375 
Q 37.25 66.40625 30.609375 66.40625 
Q 23.96875 66.40625 20.09375 61.84375 
Q 16.21875 57.28125 16.21875 49.421875 
Q 16.21875 41.5 20.09375 36.953125 
Q 23.96875 32.421875 30.609375 32.421875 
z
" id="DejaVuSans-57"/>
       <path d="M 8.203125 72.90625 
L 55.078125 72.90625 
L 55.078125 68.703125 
L 28.609375 0 
L 18.3125 0 
L 43.21875 64.59375 
L 8.203125 64.59375 
z
" id="DejaVuSans-55"/>
       <path d="M 31.78125 66.40625 
Q 24.171875 66.40625 20.328125 58.90625 
Q 16.5 51.421875 16.5 36.375 
Q 16.5 21.390625 20.328125 13.890625 
Q 24.171875 6.390625 31.78125 6.390625 
Q 39.453125 6.390625 43.28125 13.890625 
Q 47.125 21.390625 47.125 36.375 
Q 47.125 51.421875 43.28125 58.90625 
Q 39.453125 66.40625 31.78125 66.40625 
z
M 31.78125 74.21875 
Q 44.046875 74.21875 50.515625 64.515625 
Q 56.984375 54.828125 56.984375 36.375 
Q 56.984375 17.96875 50.515625 8.265625 
Q 44.046875 -1.421875 31.78125 -1.421875 
Q 19.53125 -1.421875 13.0625 8.265625 
Q 6.59375 17.96875 6.59375 36.375 
Q 6.59375 54.828125 13.0625 64.515625 
Q 19.53125 74.21875 31.78125 74.21875 
z
" id="DejaVuSans-48"/>
      </defs>
      <g style="fill:#4d4d4d;" transform="translate(55.882597 240.596625)scale(0.088 -0.088)">
       <use xlink:href="#DejaVuSans-49"/>
       <use x="63.623047" xlink:href="#DejaVuSans-57"/>
       <use x="127.246094" xlink:href="#DejaVuSans-55"/>
       <use x="190.869141" xlink:href="#DejaVuSans-48"/>
      </g>
     </g>
    </g>
    <g id="xtick_2">
     <g id="line2d_3">
      <path clip-path="url(#pa4b5a53e04)" d="M 148.244233 228.96 
L 148.244233 7.2 
" style="fill:none;stroke:#e5e5e5;stroke-width:0.8;"/>
     </g>
     <g id="line2d_4">
      <path d="M 148.244233 228.96 
" style="fill:none;stroke:#000000;stroke-width:1.5;"/>
      <g>
       <use style="stroke:#000000;" x="148.244233" xlink:href="#mf791df667e" y="228.96"/>
      </g>
     </g>
     <g id="text_2">
      <!-- 1980 -->
      <defs>
       <path d="M 31.78125 34.625 
Q 24.75 34.625 20.71875 30.859375 
Q 16.703125 27.09375 16.703125 20.515625 
Q 16.703125 13.921875 20.71875 10.15625 
Q 24.75 6.390625 31.78125 6.390625 
Q 38.8125 6.390625 42.859375 10.171875 
Q 46.921875 13.96875 46.921875 20.515625 
Q 46.921875 27.09375 42.890625 30.859375 
Q 38.875 34.625 31.78125 34.625 
z
M 21.921875 38.8125 
Q 15.578125 40.375 12.03125 44.71875 
Q 8.5 49.078125 8.5 55.328125 
Q 8.5 64.0625 14.71875 69.140625 
Q 20.953125 74.21875 31.78125 74.21875 
Q 42.671875 74.21875 48.875 69.140625 
Q 55.078125 64.0625 55.078125 55.328125 
Q 55.078125 49.078125 51.53125 44.71875 
Q 48 40.375 41.703125 38.8125 
Q 48.828125 37.15625 52.796875 32.3125 
Q 56.78125 27.484375 56.78125 20.515625 
Q 56.78125 9.90625 50.3125 4.234375 
Q 43.84375 -1.421875 31.78125 -1.421875 
Q 19.734375 -1.421875 13.25 4.234375 
Q 6.78125 9.90625 6.78125 20.515625 
Q 6.78125 27.484375 10.78125 32.3125 
Q 14.796875 37.15625 21.921875 38.8125 
z
M 18.3125 54.390625 
Q 18.3125 48.734375 21.84375 45.5625 
Q 25.390625 42.390625 31.78125 42.390625 
Q 38.140625 42.390625 41.71875 45.5625 
Q 45.3125 48.734375 45.3125 54.390625 
Q 45.3125 60.0625 41.71875 63.234375 
Q 38.140625 66.40625 31.78125 66.40625 
Q 25.390625 66.40625 21.84375 63.234375 
Q 18.3125 60.0625 18.3125 54.390625 
z
" id="DejaVuSans-56"/>
      </defs>
      <g style="fill:#4d4d4d;" transform="translate(137.046233 240.596625)scale(0.088 -0.088)">
       <use xlink:href="#DejaVuSans-49"/>
       <use x="63.623047" xlink:href="#DejaVuSans-57"/>
       <use x="127.246094" xlink:href="#DejaVuSans-56"/>
       <use x="190.869141" xlink:href="#DejaVuSans-48"/>
      </g>
     </g>
    </g>
    <g id="xtick_3">
     <g id="line2d_5">
      <path clip-path="url(#pa4b5a53e04)" d="M 229.407869 228.96 
L 229.407869 7.2 
" style="fill:none;stroke:#e5e5e5;stroke-width:0.8;"/>
     </g>
     <g id="line2d_6">
      <path d="M 229.407869 228.96 
" style="fill:none;stroke:#000000;stroke-width:1.5;"/>
      <g>
       <use style="stroke:#000000;" x="229.407869" xlink:href="#mf791df667e" y="228.96"/>
      </g>
     </g>
     <g id="text_3">
      <!-- 1990 -->
      <g style="fill:#4d4d4d;" transform="translate(218.209869 240.596625)scale(0.088 -0.088)">
       <use xlink:href="#DejaVuSans-49"/>
       <use x="63.623047" xlink:href="#DejaVuSans-57"/>
       <use x="127.246094" xlink:href="#DejaVuSans-57"/>
       <use x="190.869141" xlink:href="#DejaVuSans-48"/>
      </g>
     </g>
    </g>
    <g id="xtick_4">
     <g id="line2d_7">
      <path clip-path="url(#pa4b5a53e04)" d="M 310.571506 228.96 
L 310.571506 7.2 
" style="fill:none;stroke:#e5e5e5;stroke-width:0.8;"/>
     </g>
     <g id="line2d_8">
      <path d="M 310.571506 228.96 
" style="fill:none;stroke:#000000;stroke-width:1.5;"/>
      <g>
       <use style="stroke:#000000;" x="310.571506" xlink:href="#mf791df667e" y="228.96"/>
      </g>
     </g>
     <g id="text_4">
      <!-- 2000 -->
      <defs>
       <path d="M 19.1875 8.296875 
L 53.609375 8.296875 
L 53.609375 0 
L 7.328125 0 
L 7.328125 8.296875 
Q 12.9375 14.109375 22.625 23.890625 
Q 32.328125 33.6875 34.8125 36.53125 
Q 39.546875 41.84375 41.421875 45.53125 
Q 43.3125 49.21875 43.3125 52.78125 
Q 43.3125 58.59375 39.234375 62.25 
Q 35.15625 65.921875 28.609375 65.921875 
Q 23.96875 65.921875 18.8125 64.3125 
Q 13.671875 62.703125 7.8125 59.421875 
L 7.8125 69.390625 
Q 13.765625 71.78125 18.9375 73 
Q 24.125 74.21875 28.421875 74.21875 
Q 39.75 74.21875 46.484375 68.546875 
Q 53.21875 62.890625 53.21875 53.421875 
Q 53.21875 48.921875 51.53125 44.890625 
Q 49.859375 40.875 45.40625 35.40625 
Q 44.1875 33.984375 37.640625 27.21875 
Q 31.109375 20.453125 19.1875 8.296875 
z
" id="DejaVuSans-50"/>
      </defs>
      <g style="fill:#4d4d4d;" transform="translate(299.373506 240.596625)scale(0.088 -0.088)">
       <use xlink:href="#DejaVuSans-50"/>
       <use x="63.623047" xlink:href="#DejaVuSans-48"/>
       <use x="127.246094" xlink:href="#DejaVuSans-48"/>
       <use x="190.869141" xlink:href="#DejaVuSans-48"/>
      </g>
     </g>
    </g>
    <g id="xtick_5">
     <g id="line2d_9">
      <path clip-path="url(#pa4b5a53e04)" d="M 391.735142 228.96 
L 391.735142 7.2 
" style="fill:none;stroke:#e5e5e5;stroke-width:0.8;"/>
     </g>
     <g id="line2d_10">
      <path d="M 391.735142 228.96 
" style="fill:none;stroke:#000000;stroke-width:1.5;"/>
      <g>
       <use style="stroke:#000000;" x="391.735142" xlink:href="#mf791df667e" y="228.96"/>
      </g>
     </g>
     <g id="text_5">
      <!-- 2010 -->
      <g style="fill:#4d4d4d;" transform="translate(380.537142 240.596625)scale(0.088 -0.088)">
       <use xlink:href="#DejaVuSans-50"/>
       <use x="63.623047" xlink:href="#DejaVuSans-48"/>
       <use x="127.246094" xlink:href="#DejaVuSans-49"/>
       <use x="190.869141" xlink:href="#DejaVuSans-48"/>
      </g>
     </g>
    </g>
    <g id="xtick_6">
     <g id="line2d_11">
      <path clip-path="url(#pa4b5a53e04)" d="M 472.898778 228.96 
L 472.898778 7.2 
" style="fill:none;stroke:#e5e5e5;stroke-width:0.8;"/>
     </g>
     <g id="line2d_12">
      <path d="M 472.898778 228.96 
" style="fill:none;stroke:#000000;stroke-width:1.5;"/>
      <g>
       <use style="stroke:#000000;" x="472.898778" xlink:href="#mf791df667e" y="228.96"/>
      </g>
     </g>
     <g id="text_6">
      <!-- 2020 -->
      <g style="fill:#4d4d4d;" transform="translate(461.700778 240.596625)scale(0.088 -0.088)">
       <use xlink:href="#DejaVuSans-50"/>
       <use x="63.623047" xlink:href="#DejaVuSans-48"/>
       <use x="127.246094" xlink:href="#DejaVuSans-50"/>
       <use x="190.869141" xlink:href="#DejaVuSans-48"/>
      </g>
     </g>
    </g>
    <g id="xtick_7">
     <g id="line2d_13">
      <path clip-path="url(#pa4b5a53e04)" d="M 107.662415 228.96 
L 107.662415 7.2 
" style="fill:none;stroke:#fafafa;"/>
     </g>
     <g id="line2d_14">
      <path d="M 107.662415 228.96 
" style="fill:none;stroke:#000000;stroke-width:1.5;"/>
      <defs>
       <path d="M 0 0 
L 0 1.375 
" id="m8ca3ae2662" style="stroke:#000000;"/>
      </defs>
      <g>
       <use style="stroke:#000000;" x="107.662415" xlink:href="#m8ca3ae2662" y="228.96"/>
      </g>
     </g>
    </g>
    <g id="xtick_8">
     <g id="line2d_15">
      <path clip-path="url(#pa4b5a53e04)" d="M 188.826051 228.96 
L 188.826051 7.2 
" style="fill:none;stroke:#fafafa;"/>
     </g>
     <g id="line2d_16">
      <path d="M 188.826051 228.96 
" style="fill:none;stroke:#000000;stroke-width:1.5;"/>
      <g>
       <use style="stroke:#000000;" x="188.826051" xlink:href="#m8ca3ae2662" y="228.96"/>
      </g>
     </g>
    </g>
    <g id="xtick_9">
     <g id="line2d_17">
      <path clip-path="url(#pa4b5a53e04)" d="M 269.989687 228.96 
L 269.989687 7.2 
" style="fill:none;stroke:#fafafa;"/>
     </g>
     <g id="line2d_18">
      <path d="M 269.989687 228.96 
" style="fill:none;stroke:#000000;stroke-width:1.5;"/>
      <g>
       <use style="stroke:#000000;" x="269.989687" xlink:href="#m8ca3ae2662" y="228.96"/>
      </g>
     </g>
    </g>
    <g id="xtick_10">
     <g id="line2d_19">
      <path clip-path="url(#pa4b5a53e04)" d="M 351.153324 228.96 
L 351.153324 7.2 
" style="fill:none;stroke:#fafafa;"/>
     </g>
     <g id="line2d_20">
      <path d="M 351.153324 228.96 
" style="fill:none;stroke:#000000;stroke-width:1.5;"/>
      <g>
       <use style="stroke:#000000;" x="351.153324" xlink:href="#m8ca3ae2662" y="228.96"/>
      </g>
     </g>
    </g>
    <g id="xtick_11">
     <g id="line2d_21">
      <path clip-path="url(#pa4b5a53e04)" d="M 432.31696 228.96 
L 432.31696 7.2 
" style="fill:none;stroke:#fafafa;"/>
     </g>
     <g id="line2d_22">
      <path d="M 432.31696 228.96 
" style="fill:none;stroke:#000000;stroke-width:1.5;"/>
      <g>
       <use style="stroke:#000000;" x="432.31696" xlink:href="#m8ca3ae2662" y="228.96"/>
      </g>
     </g>
    </g>
    <g id="text_7">
     <!-- Year -->
     <defs>
      <path d="M -0.203125 72.90625 
L 10.40625 72.90625 
L 30.609375 42.921875 
L 50.6875 72.90625 
L 61.28125 72.90625 
L 35.5 34.71875 
L 35.5 0 
L 25.59375 0 
L 25.59375 34.71875 
z
" id="DejaVuSans-89"/>
      <path d="M 56.203125 29.59375 
L 56.203125 25.203125 
L 14.890625 25.203125 
Q 15.484375 15.921875 20.484375 11.0625 
Q 25.484375 6.203125 34.421875 6.203125 
Q 39.59375 6.203125 44.453125 7.46875 
Q 49.3125 8.734375 54.109375 11.28125 
L 54.109375 2.78125 
Q 49.265625 0.734375 44.1875 -0.34375 
Q 39.109375 -1.421875 33.890625 -1.421875 
Q 20.796875 -1.421875 13.15625 6.1875 
Q 5.515625 13.8125 5.515625 26.8125 
Q 5.515625 40.234375 12.765625 48.109375 
Q 20.015625 56 32.328125 56 
Q 43.359375 56 49.78125 48.890625 
Q 56.203125 41.796875 56.203125 29.59375 
z
M 47.21875 32.234375 
Q 47.125 39.59375 43.09375 43.984375 
Q 39.0625 48.390625 32.421875 48.390625 
Q 24.90625 48.390625 20.390625 44.140625 
Q 15.875 39.890625 15.1875 32.171875 
z
" id="DejaVuSans-101"/>
      <path d="M 34.28125 27.484375 
Q 23.390625 27.484375 19.1875 25 
Q 14.984375 22.515625 14.984375 16.5 
Q 14.984375 11.71875 18.140625 8.90625 
Q 21.296875 6.109375 26.703125 6.109375 
Q 34.1875 6.109375 38.703125 11.40625 
Q 43.21875 16.703125 43.21875 25.484375 
L 43.21875 27.484375 
z
M 52.203125 31.203125 
L 52.203125 0 
L 43.21875 0 
L 43.21875 8.296875 
Q 40.140625 3.328125 35.546875 0.953125 
Q 30.953125 -1.421875 24.3125 -1.421875 
Q 15.921875 -1.421875 10.953125 3.296875 
Q 6 8.015625 6 15.921875 
Q 6 25.140625 12.171875 29.828125 
Q 18.359375 34.515625 30.609375 34.515625 
L 43.21875 34.515625 
L 43.21875 35.40625 
Q 43.21875 41.609375 39.140625 45 
Q 35.0625 48.390625 27.6875 48.390625 
Q 23 48.390625 18.546875 47.265625 
Q 14.109375 46.140625 10.015625 43.890625 
L 10.015625 52.203125 
Q 14.9375 54.109375 19.578125 55.046875 
Q 24.21875 56 28.609375 56 
Q 40.484375 56 46.34375 49.84375 
Q 52.203125 43.703125 52.203125 31.203125 
z
" id="DejaVuSans-97"/>
      <path d="M 41.109375 46.296875 
Q 39.59375 47.171875 37.8125 47.578125 
Q 36.03125 48 33.890625 48 
Q 26.265625 48 22.1875 43.046875 
Q 18.109375 38.09375 18.109375 28.8125 
L 18.109375 0 
L 9.078125 0 
L 9.078125 54.6875 
L 18.109375 54.6875 
L 18.109375 46.1875 
Q 20.953125 51.171875 25.484375 53.578125 
Q 30.03125 56 36.53125 56 
Q 37.453125 56 38.578125 55.875 
Q 39.703125 55.765625 41.0625 55.515625 
z
" id="DejaVuSans-114"/>
     </defs>
     <g transform="translate(250.425859 255.185031)scale(0.11 -0.11)">
      <use xlink:href="#DejaVuSans-89"/>
      <use x="60.880859" xlink:href="#DejaVuSans-101"/>
      <use x="122.404297" xlink:href="#DejaVuSans-97"/>
      <use x="183.683594" xlink:href="#DejaVuSans-114"/>
     </g>
    </g>
   </g>
   <g id="matplotlib.axis_2">
    <g id="ytick_1">
     <g id="line2d_23">
      <path clip-path="url(#pa4b5a53e04)" d="M 46.789687 218.88 
L 493.189687 218.88 
" style="fill:none;stroke:#e5e5e5;stroke-width:0.8;"/>
     </g>
     <g id="line2d_24">
      <path d="M 46.789687 218.88 
" style="fill:none;stroke:#000000;stroke-width:1.5;"/>
      <defs>
       <path d="M 0 0 
L -2.75 0 
" id="m8b3de16319" style="stroke:#000000;"/>
      </defs>
      <g>
       <use style="stroke:#000000;" x="46.789687" xlink:href="#m8b3de16319" y="218.88"/>
      </g>
     </g>
     <g id="text_8">
      <!-- 0 -->
      <g style="fill:#4d4d4d;" transform="translate(36.240687 221.30825)scale(0.088 -0.088)">
       <use xlink:href="#DejaVuSans-48"/>
      </g>
     </g>
    </g>
    <g id="ytick_2">
     <g id="line2d_25">
      <path clip-path="url(#pa4b5a53e04)" d="M 46.789687 168.48 
L 493.189687 168.48 
" style="fill:none;stroke:#e5e5e5;stroke-width:0.8;"/>
     </g>
     <g id="line2d_26">
      <path d="M 46.789687 168.48 
" style="fill:none;stroke:#000000;stroke-width:1.5;"/>
      <g>
       <use style="stroke:#000000;" x="46.789687" xlink:href="#m8b3de16319" y="168.48"/>
      </g>
     </g>
     <g id="text_9">
      <!-- 0.25 -->
      <defs>
       <path d="M 10.6875 12.40625 
L 21 12.40625 
L 21 0 
L 10.6875 0 
z
" id="DejaVuSans-46"/>
       <path d="M 10.796875 72.90625 
L 49.515625 72.90625 
L 49.515625 64.59375 
L 19.828125 64.59375 
L 19.828125 46.734375 
Q 21.96875 47.46875 24.109375 47.828125 
Q 26.265625 48.1875 28.421875 48.1875 
Q 40.625 48.1875 47.75 41.5 
Q 54.890625 34.8125 54.890625 23.390625 
Q 54.890625 11.625 47.5625 5.09375 
Q 40.234375 -1.421875 26.90625 -1.421875 
Q 22.3125 -1.421875 17.546875 -0.640625 
Q 12.796875 0.140625 7.71875 1.703125 
L 7.71875 11.625 
Q 12.109375 9.234375 16.796875 8.0625 
Q 21.484375 6.890625 26.703125 6.890625 
Q 35.15625 6.890625 40.078125 11.328125 
Q 45.015625 15.765625 45.015625 23.390625 
Q 45.015625 31 40.078125 35.4375 
Q 35.15625 39.890625 26.703125 39.890625 
Q 22.75 39.890625 18.8125 39.015625 
Q 14.890625 38.140625 10.796875 36.28125 
z
" id="DejaVuSans-53"/>
      </defs>
      <g style="fill:#4d4d4d;" transform="translate(22.245937 170.90825)scale(0.088 -0.088)">
       <use xlink:href="#DejaVuSans-48"/>
       <use x="63.623047" xlink:href="#DejaVuSans-46"/>
       <use x="95.410156" xlink:href="#DejaVuSans-50"/>
       <use x="159.033203" xlink:href="#DejaVuSans-53"/>
      </g>
     </g>
    </g>
    <g id="ytick_3">
     <g id="line2d_27">
      <path clip-path="url(#pa4b5a53e04)" d="M 46.789687 118.08 
L 493.189687 118.08 
" style="fill:none;stroke:#e5e5e5;stroke-width:0.8;"/>
     </g>
     <g id="line2d_28">
      <path d="M 46.789687 118.08 
" style="fill:none;stroke:#000000;stroke-width:1.5;"/>
      <g>
       <use style="stroke:#000000;" x="46.789687" xlink:href="#m8b3de16319" y="118.08"/>
      </g>
     </g>
     <g id="text_10">
      <!-- 0.50 -->
      <g style="fill:#4d4d4d;" transform="translate(22.245937 120.50825)scale(0.088 -0.088)">
       <use xlink:href="#DejaVuSans-48"/>
       <use x="63.623047" xlink:href="#DejaVuSans-46"/>
       <use x="95.410156" xlink:href="#DejaVuSans-53"/>
       <use x="159.033203" xlink:href="#DejaVuSans-48"/>
      </g>
     </g>
    </g>
    <g id="ytick_4">
     <g id="line2d_29">
      <path clip-path="url(#pa4b5a53e04)" d="M 46.789687 67.68 
L 493.189687 67.68 
" style="fill:none;stroke:#e5e5e5;stroke-width:0.8;"/>
     </g>
     <g id="line2d_30">
      <path d="M 46.789687 67.68 
" style="fill:none;stroke:#000000;stroke-width:1.5;"/>
      <g>
       <use style="stroke:#000000;" x="46.789687" xlink:href="#m8b3de16319" y="67.68"/>
      </g>
     </g>
     <g id="text_11">
      <!-- 0.75 -->
      <g style="fill:#4d4d4d;" transform="translate(22.245937 70.10825)scale(0.088 -0.088)">
       <use xlink:href="#DejaVuSans-48"/>
       <use x="63.623047" xlink:href="#DejaVuSans-46"/>
       <use x="95.410156" xlink:href="#DejaVuSans-55"/>
       <use x="159.033203" xlink:href="#DejaVuSans-53"/>
      </g>
     </g>
    </g>
    <g id="ytick_5">
     <g id="line2d_31">
      <path clip-path="url(#pa4b5a53e04)" d="M 46.789687 17.28 
L 493.189687 17.28 
" style="fill:none;stroke:#e5e5e5;stroke-width:0.8;"/>
     </g>
     <g id="line2d_32">
      <path d="M 46.789687 17.28 
" style="fill:none;stroke:#000000;stroke-width:1.5;"/>
      <g>
       <use style="stroke:#000000;" x="46.789687" xlink:href="#m8b3de16319" y="17.28"/>
      </g>
     </g>
     <g id="text_12">
      <!-- 1 -->
      <g style="fill:#4d4d4d;" transform="translate(36.240687 19.70825)scale(0.088 -0.088)">
       <use xlink:href="#DejaVuSans-49"/>
      </g>
     </g>
    </g>
    <g id="ytick_6">
     <g id="line2d_33">
      <path clip-path="url(#pa4b5a53e04)" d="M 46.789687 193.68 
L 493.189687 193.68 
" style="fill:none;stroke:#fafafa;"/>
     </g>
     <g id="line2d_34">
      <path d="M 46.789687 193.68 
" style="fill:none;stroke:#000000;stroke-width:1.5;"/>
      <defs>
       <path d="M 0 0 
L -1.375 0 
" id="m43f5fd5214" style="stroke:#000000;"/>
      </defs>
      <g>
       <use style="stroke:#000000;" x="46.789687" xlink:href="#m43f5fd5214" y="193.68"/>
      </g>
     </g>
    </g>
    <g id="ytick_7">
     <g id="line2d_35">
      <path clip-path="url(#pa4b5a53e04)" d="M 46.789687 143.28 
L 493.189687 143.28 
" style="fill:none;stroke:#fafafa;"/>
     </g>
     <g id="line2d_36">
      <path d="M 46.789687 143.28 
" style="fill:none;stroke:#000000;stroke-width:1.5;"/>
      <g>
       <use style="stroke:#000000;" x="46.789687" xlink:href="#m43f5fd5214" y="143.28"/>
      </g>
     </g>
    </g>
    <g id="ytick_8">
     <g id="line2d_37">
      <path clip-path="url(#pa4b5a53e04)" d="M 46.789687 92.88 
L 493.189687 92.88 
" style="fill:none;stroke:#fafafa;"/>
     </g>
     <g id="line2d_38">
      <path d="M 46.789687 92.88 
" style="fill:none;stroke:#000000;stroke-width:1.5;"/>
      <g>
       <use style="stroke:#000000;" x="46.789687" xlink:href="#m43f5fd5214" y="92.88"/>
      </g>
     </g>
    </g>
    <g id="ytick_9">
     <g id="line2d_39">
      <path clip-path="url(#pa4b5a53e04)" d="M 46.789687 42.48 
L 493.189687 42.48 
" style="fill:none;stroke:#fafafa;"/>
     </g>
     <g id="line2d_40">
      <path d="M 46.789687 42.48 
" style="fill:none;stroke:#000000;stroke-width:1.5;"/>
      <g>
       <use style="stroke:#000000;" x="46.789687" xlink:href="#m43f5fd5214" y="42.48"/>
      </g>
     </g>
    </g>
    <g id="text_13">
     <!-- Q1(td) percentile -->
     <defs>
      <path d="M 39.40625 66.21875 
Q 28.65625 66.21875 22.328125 58.203125 
Q 16.015625 50.203125 16.015625 36.375 
Q 16.015625 22.609375 22.328125 14.59375 
Q 28.65625 6.59375 39.40625 6.59375 
Q 50.140625 6.59375 56.421875 14.59375 
Q 62.703125 22.609375 62.703125 36.375 
Q 62.703125 50.203125 56.421875 58.203125 
Q 50.140625 66.21875 39.40625 66.21875 
z
M 53.21875 1.3125 
L 66.21875 -12.890625 
L 54.296875 -12.890625 
L 43.5 -1.21875 
Q 41.890625 -1.3125 41.03125 -1.359375 
Q 40.1875 -1.421875 39.40625 -1.421875 
Q 24.03125 -1.421875 14.8125 8.859375 
Q 5.609375 19.140625 5.609375 36.375 
Q 5.609375 53.65625 14.8125 63.9375 
Q 24.03125 74.21875 39.40625 74.21875 
Q 54.734375 74.21875 63.90625 63.9375 
Q 73.09375 53.65625 73.09375 36.375 
Q 73.09375 23.6875 67.984375 14.640625 
Q 62.890625 5.609375 53.21875 1.3125 
z
" id="DejaVuSans-81"/>
      <path d="M 31 75.875 
Q 24.46875 64.65625 21.28125 53.65625 
Q 18.109375 42.671875 18.109375 31.390625 
Q 18.109375 20.125 21.3125 9.0625 
Q 24.515625 -2 31 -13.1875 
L 23.1875 -13.1875 
Q 15.875 -1.703125 12.234375 9.375 
Q 8.59375 20.453125 8.59375 31.390625 
Q 8.59375 42.28125 12.203125 53.3125 
Q 15.828125 64.359375 23.1875 75.875 
z
" id="DejaVuSans-40"/>
      <path d="M 18.3125 70.21875 
L 18.3125 54.6875 
L 36.8125 54.6875 
L 36.8125 47.703125 
L 18.3125 47.703125 
L 18.3125 18.015625 
Q 18.3125 11.328125 20.140625 9.421875 
Q 21.96875 7.515625 27.59375 7.515625 
L 36.8125 7.515625 
L 36.8125 0 
L 27.59375 0 
Q 17.1875 0 13.234375 3.875 
Q 9.28125 7.765625 9.28125 18.015625 
L 9.28125 47.703125 
L 2.6875 47.703125 
L 2.6875 54.6875 
L 9.28125 54.6875 
L 9.28125 70.21875 
z
" id="DejaVuSans-116"/>
      <path d="M 45.40625 46.390625 
L 45.40625 75.984375 
L 54.390625 75.984375 
L 54.390625 0 
L 45.40625 0 
L 45.40625 8.203125 
Q 42.578125 3.328125 38.25 0.953125 
Q 33.9375 -1.421875 27.875 -1.421875 
Q 17.96875 -1.421875 11.734375 6.484375 
Q 5.515625 14.40625 5.515625 27.296875 
Q 5.515625 40.1875 11.734375 48.09375 
Q 17.96875 56 27.875 56 
Q 33.9375 56 38.25 53.625 
Q 42.578125 51.265625 45.40625 46.390625 
z
M 14.796875 27.296875 
Q 14.796875 17.390625 18.875 11.75 
Q 22.953125 6.109375 30.078125 6.109375 
Q 37.203125 6.109375 41.296875 11.75 
Q 45.40625 17.390625 45.40625 27.296875 
Q 45.40625 37.203125 41.296875 42.84375 
Q 37.203125 48.484375 30.078125 48.484375 
Q 22.953125 48.484375 18.875 42.84375 
Q 14.796875 37.203125 14.796875 27.296875 
z
" id="DejaVuSans-100"/>
      <path d="M 8.015625 75.875 
L 15.828125 75.875 
Q 23.140625 64.359375 26.78125 53.3125 
Q 30.421875 42.28125 30.421875 31.390625 
Q 30.421875 20.453125 26.78125 9.375 
Q 23.140625 -1.703125 15.828125 -13.1875 
L 8.015625 -13.1875 
Q 14.5 -2 17.703125 9.0625 
Q 20.90625 20.125 20.90625 31.390625 
Q 20.90625 42.671875 17.703125 53.65625 
Q 14.5 64.65625 8.015625 75.875 
z
" id="DejaVuSans-41"/>
      <path id="DejaVuSans-32"/>
      <path d="M 18.109375 8.203125 
L 18.109375 -20.796875 
L 9.078125 -20.796875 
L 9.078125 54.6875 
L 18.109375 54.6875 
L 18.109375 46.390625 
Q 20.953125 51.265625 25.265625 53.625 
Q 29.59375 56 35.59375 56 
Q 45.5625 56 51.78125 48.09375 
Q 58.015625 40.1875 58.015625 27.296875 
Q 58.015625 14.40625 51.78125 6.484375 
Q 45.5625 -1.421875 35.59375 -1.421875 
Q 29.59375 -1.421875 25.265625 0.953125 
Q 20.953125 3.328125 18.109375 8.203125 
z
M 48.6875 27.296875 
Q 48.6875 37.203125 44.609375 42.84375 
Q 40.53125 48.484375 33.40625 48.484375 
Q 26.265625 48.484375 22.1875 42.84375 
Q 18.109375 37.203125 18.109375 27.296875 
Q 18.109375 17.390625 22.1875 11.75 
Q 26.265625 6.109375 33.40625 6.109375 
Q 40.53125 6.109375 44.609375 11.75 
Q 48.6875 17.390625 48.6875 27.296875 
z
" id="DejaVuSans-112"/>
      <path d="M 48.78125 52.59375 
L 48.78125 44.1875 
Q 44.96875 46.296875 41.140625 47.34375 
Q 37.3125 48.390625 33.40625 48.390625 
Q 24.65625 48.390625 19.8125 42.84375 
Q 14.984375 37.3125 14.984375 27.296875 
Q 14.984375 17.28125 19.8125 11.734375 
Q 24.65625 6.203125 33.40625 6.203125 
Q 37.3125 6.203125 41.140625 7.25 
Q 44.96875 8.296875 48.78125 10.40625 
L 48.78125 2.09375 
Q 45.015625 0.34375 40.984375 -0.53125 
Q 36.96875 -1.421875 32.421875 -1.421875 
Q 20.0625 -1.421875 12.78125 6.34375 
Q 5.515625 14.109375 5.515625 27.296875 
Q 5.515625 40.671875 12.859375 48.328125 
Q 20.21875 56 33.015625 56 
Q 37.15625 56 41.109375 55.140625 
Q 45.0625 54.296875 48.78125 52.59375 
z
" id="DejaVuSans-99"/>
      <path d="M 54.890625 33.015625 
L 54.890625 0 
L 45.90625 0 
L 45.90625 32.71875 
Q 45.90625 40.484375 42.875 44.328125 
Q 39.84375 48.1875 33.796875 48.1875 
Q 26.515625 48.1875 22.3125 43.546875 
Q 18.109375 38.921875 18.109375 30.90625 
L 18.109375 0 
L 9.078125 0 
L 9.078125 54.6875 
L 18.109375 54.6875 
L 18.109375 46.1875 
Q 21.34375 51.125 25.703125 53.5625 
Q 30.078125 56 35.796875 56 
Q 45.21875 56 50.046875 50.171875 
Q 54.890625 44.34375 54.890625 33.015625 
z
" id="DejaVuSans-110"/>
      <path d="M 9.421875 54.6875 
L 18.40625 54.6875 
L 18.40625 0 
L 9.421875 0 
z
M 9.421875 75.984375 
L 18.40625 75.984375 
L 18.40625 64.59375 
L 9.421875 64.59375 
z
" id="DejaVuSans-105"/>
      <path d="M 9.421875 75.984375 
L 18.40625 75.984375 
L 18.40625 0 
L 9.421875 0 
z
" id="DejaVuSans-108"/>
     </defs>
     <g transform="translate(15.558281 163.781875)rotate(-90)scale(0.11 -0.11)">
      <use xlink:href="#DejaVuSans-81"/>
      <use x="78.710938" xlink:href="#DejaVuSans-49"/>
      <use x="142.333984" xlink:href="#DejaVuSans-40"/>
      <use x="181.347656" xlink:href="#DejaVuSans-116"/>
      <use x="220.556641" xlink:href="#DejaVuSans-100"/>
      <use x="284.033203" xlink:href="#DejaVuSans-41"/>
      <use x="323.046875" xlink:href="#DejaVuSans-32"/>
      <use x="354.833984" xlink:href="#DejaVuSans-112"/>
      <use x="418.310547" xlink:href="#DejaVuSans-101"/>
      <use x="479.833984" xlink:href="#DejaVuSans-114"/>
      <use x="520.916016" xlink:href="#DejaVuSans-99"/>
      <use x="575.896484" xlink:href="#DejaVuSans-101"/>
      <use x="637.419922" xlink:href="#DejaVuSans-110"/>
      <use x="700.798828" xlink:href="#DejaVuSans-116"/>
      <use x="740.007812" xlink:href="#DejaVuSans-105"/>
      <use x="767.791016" xlink:href="#DejaVuSans-108"/>
      <use x="795.574219" xlink:href="#DejaVuSans-101"/>
     </g>
    </g>
   </g>
   <g id="PathCollection_1">
    <path clip-path="url(#pa4b5a53e04)" d="M 83.313324 19.052454 
C 83.783384 19.052454 84.234255 18.865697 84.566638 18.533314 
C 84.899021 18.200931 85.085778 17.75006 85.085778 17.28 
C 85.085778 16.80994 84.899021 16.359069 84.566638 16.026686 
C 84.234255 15.694303 83.783384 15.507546 83.313324 15.507546 
C 82.843264 15.507546 82.392393 15.694303 82.06001 16.026686 
C 81.727627 16.359069 81.54087 16.80994 81.54087 17.28 
C 81.54087 17.75006 81.727627 18.200931 82.06001 18.533314 
C 82.392393 18.865697 82.843264 19.052454 83.313324 19.052454 
z
" style="stroke:#000000;stroke-width:0.886227;"/>
    <path clip-path="url(#pa4b5a53e04)" d="M 91.429688 19.052454 
C 91.899748 19.052454 92.350619 18.865697 92.683002 18.533314 
C 93.015384 18.200931 93.202141 17.75006 93.202141 17.28 
C 93.202141 16.80994 93.015384 16.359069 92.683002 16.026686 
C 92.350619 15.694303 91.899748 15.507546 91.429688 15.507546 
C 90.959627 15.507546 90.508756 15.694303 90.176373 16.026686 
C 89.843991 16.359069 89.657234 16.80994 89.657234 17.28 
C 89.657234 17.75006 89.843991 18.200931 90.176373 18.533314 
C 90.508756 18.865697 90.959627 19.052454 91.429688 19.052454 
z
" style="stroke:#000000;stroke-width:0.886227;"/>
    <path clip-path="url(#pa4b5a53e04)" d="M 99.546051 19.052454 
C 100.016111 19.052454 100.466982 18.865697 100.799365 18.533314 
C 101.131748 18.200931 101.318505 17.75006 101.318505 17.28 
C 101.318505 16.80994 101.131748 16.359069 100.799365 16.026686 
C 100.466982 15.694303 100.016111 15.507546 99.546051 15.507546 
C 99.075991 15.507546 98.62512 15.694303 98.292737 16.026686 
C 97.960354 16.359069 97.773597 16.80994 97.773597 17.28 
C 97.773597 17.75006 97.960354 18.200931 98.292737 18.533314 
C 98.62512 18.865697 99.075991 19.052454 99.546051 19.052454 
z
" style="stroke:#000000;stroke-width:0.886227;"/>
    <path clip-path="url(#pa4b5a53e04)" d="M 107.662415 103.703363 
C 108.132475 103.703363 108.583346 103.516606 108.915729 103.184223 
C 109.248112 102.85184 109.434869 102.400969 109.434869 101.930909 
C 109.434869 101.460849 109.248112 101.009978 108.915729 100.677595 
C 108.583346 100.345212 108.132475 100.158455 107.662415 100.158455 
C 107.192355 100.158455 106.741483 100.345212 106.409101 100.677595 
C 106.076718 101.009978 105.889961 101.460849 105.889961 101.930909 
C 105.889961 102.400969 106.076718 102.85184 106.409101 103.184223 
C 106.741483 103.516606 107.192355 103.703363 107.662415 103.703363 
z
" style="stroke:#000000;stroke-width:0.886227;"/>
    <path clip-path="url(#pa4b5a53e04)" d="M 115.778778 93.444326 
C 116.248839 93.444326 116.69971 93.257569 117.032093 92.925186 
C 117.364475 92.592803 117.551232 92.141932 117.551232 91.671872 
C 117.551232 91.201811 117.364475 90.75094 117.032093 90.418558 
C 116.69971 90.086175 116.248839 89.899418 115.778778 89.899418 
C 115.308718 89.899418 114.857847 90.086175 114.525464 90.418558 
C 114.193081 90.75094 114.006325 91.201811 114.006325 91.671872 
C 114.006325 92.141932 114.193081 92.592803 114.525464 92.925186 
C 114.857847 93.257569 115.308718 93.444326 115.778778 93.444326 
z
" style="stroke:#000000;stroke-width:0.886227;"/>
    <path clip-path="url(#pa4b5a53e04)" d="M 123.895142 67.902454 
C 124.365202 67.902454 124.816073 67.715697 125.148456 67.383314 
C 125.480839 67.050931 125.667596 66.60006 125.667596 66.13 
C 125.667596 65.65994 125.480839 65.209069 125.148456 64.876686 
C 124.816073 64.544303 124.365202 64.357546 123.895142 64.357546 
C 123.425082 64.357546 122.974211 64.544303 122.641828 64.876686 
C 122.309445 65.209069 122.122688 65.65994 122.122688 66.13 
C 122.122688 66.60006 122.309445 67.050931 122.641828 67.383314 
C 122.974211 67.715697 123.425082 67.902454 123.895142 67.902454 
z
" style="stroke:#000000;stroke-width:0.886227;"/>
    <path clip-path="url(#pa4b5a53e04)" d="M 132.011506 44.252454 
C 132.481566 44.252454 132.932437 44.065697 133.26482 43.733314 
C 133.597203 43.400931 133.78396 42.95006 133.78396 42.48 
C 133.78396 42.00994 133.597203 41.559069 133.26482 41.226686 
C 132.932437 40.894303 132.481566 40.707546 132.011506 40.707546 
C 131.541445 40.707546 131.090574 40.894303 130.758192 41.226686 
C 130.425809 41.559069 130.239052 42.00994 130.239052 42.48 
C 130.239052 42.95006 130.425809 43.400931 130.758192 43.733314 
C 131.090574 44.065697 131.541445 44.252454 132.011506 44.252454 
z
" style="stroke:#000000;stroke-width:0.886227;"/>
    <path clip-path="url(#pa4b5a53e04)" d="M 140.127869 83.254692 
C 140.59793 83.254692 141.048801 83.067935 141.381183 82.735552 
C 141.713566 82.403169 141.900323 81.952298 141.900323 81.482238 
C 141.900323 81.012178 141.713566 80.561306 141.381183 80.228924 
C 141.048801 79.896541 140.59793 79.709784 140.127869 79.709784 
C 139.657809 79.709784 139.206938 79.896541 138.874555 80.228924 
C 138.542172 80.561306 138.355415 81.012178 138.355415 81.482238 
C 138.355415 81.952298 138.542172 82.403169 138.874555 82.735552 
C 139.206938 83.067935 139.657809 83.254692 140.127869 83.254692 
z
" style="stroke:#000000;stroke-width:0.886227;"/>
    <path clip-path="url(#pa4b5a53e04)" d="M 148.244233 98.912454 
C 148.714293 98.912454 149.165164 98.725697 149.497547 98.393314 
C 149.82993 98.060931 150.016687 97.61006 150.016687 97.14 
C 150.016687 96.66994 149.82993 96.219069 149.497547 95.886686 
C 149.165164 95.554303 148.714293 95.367546 148.244233 95.367546 
C 147.774173 95.367546 147.323302 95.554303 146.990919 95.886686 
C 146.658536 96.219069 146.471779 96.66994 146.471779 97.14 
C 146.471779 97.61006 146.658536 98.060931 146.990919 98.393314 
C 147.323302 98.725697 147.774173 98.912454 148.244233 98.912454 
z
" style="stroke:#000000;stroke-width:0.886227;"/>
    <path clip-path="url(#pa4b5a53e04)" d="M 156.360597 46.377545 
C 156.830657 46.377545 157.281528 46.190788 157.613911 45.858405 
C 157.946294 45.526022 158.13305 45.075151 158.13305 44.605091 
C 158.13305 44.135031 157.946294 43.68416 157.613911 43.351777 
C 157.281528 43.019394 156.830657 42.832637 156.360597 42.832637 
C 155.890536 42.832637 155.439665 43.019394 155.107282 43.351777 
C 154.7749 43.68416 154.588143 44.135031 154.588143 44.605091 
C 154.588143 45.075151 154.7749 45.526022 155.107282 45.858405 
C 155.439665 46.190788 155.890536 46.377545 156.360597 46.377545 
z
" style="stroke:#000000;stroke-width:0.886227;"/>
    <path clip-path="url(#pa4b5a53e04)" d="M 164.47696 75.284489 
C 164.94702 75.284489 165.397892 75.097732 165.730274 74.765349 
C 166.062657 74.432966 166.249414 73.982095 166.249414 73.512035 
C 166.249414 73.041975 166.062657 72.591104 165.730274 72.258721 
C 165.397892 71.926338 164.94702 71.739581 164.47696 71.739581 
C 164.0069 71.739581 163.556029 71.926338 163.223646 72.258721 
C 162.891263 72.591104 162.704506 73.041975 162.704506 73.512035 
C 162.704506 73.982095 162.891263 74.432966 163.223646 74.765349 
C 163.556029 75.097732 164.0069 75.284489 164.47696 75.284489 
z
" style="stroke:#000000;stroke-width:0.886227;"/>
    <path clip-path="url(#pa4b5a53e04)" d="M 172.593324 81.554676 
C 173.063384 81.554676 173.514255 81.367919 173.846638 81.035536 
C 174.179021 80.703154 174.365778 80.252282 174.365778 79.782222 
C 174.365778 79.312162 174.179021 78.861291 173.846638 78.528908 
C 173.514255 78.196525 173.063384 78.009768 172.593324 78.009768 
C 172.123264 78.009768 171.672393 78.196525 171.34001 78.528908 
C 171.007627 78.861291 170.82087 79.312162 170.82087 79.782222 
C 170.82087 80.252282 171.007627 80.703154 171.34001 81.035536 
C 171.672393 81.367919 172.123264 81.554676 172.593324 81.554676 
z
" style="stroke:#000000;stroke-width:0.886227;"/>
    <path clip-path="url(#pa4b5a53e04)" d="M 180.709687 85.61861 
C 181.179748 85.61861 181.630619 85.431854 181.963002 85.099471 
C 182.295384 84.767088 182.482141 84.316217 182.482141 83.846157 
C 182.482141 83.376096 182.295384 82.925225 181.963002 82.592842 
C 181.630619 82.26046 181.179748 82.073703 180.709687 82.073703 
C 180.239627 82.073703 179.788756 82.26046 179.456373 82.592842 
C 179.123991 82.925225 178.937234 83.376096 178.937234 83.846157 
C 178.937234 84.316217 179.123991 84.767088 179.456373 85.099471 
C 179.788756 85.431854 180.239627 85.61861 180.709687 85.61861 
z
" style="stroke:#000000;stroke-width:0.886227;"/>
    <path clip-path="url(#pa4b5a53e04)" d="M 188.826051 102.783739 
C 189.296111 102.783739 189.746982 102.596982 190.079365 102.2646 
C 190.411748 101.932217 190.598505 101.481346 190.598505 101.011285 
C 190.598505 100.541225 190.411748 100.090354 190.079365 99.757971 
C 189.746982 99.425588 189.296111 99.238832 188.826051 99.238832 
C 188.355991 99.238832 187.90512 99.425588 187.572737 99.757971 
C 187.240354 100.090354 187.053597 100.541225 187.053597 101.011285 
C 187.053597 101.481346 187.240354 101.932217 187.572737 102.2646 
C 187.90512 102.596982 188.355991 102.783739 188.826051 102.783739 
z
" style="stroke:#000000;stroke-width:0.886227;"/>
    <path clip-path="url(#pa4b5a53e04)" d="M 196.942415 105.364642 
C 197.412475 105.364642 197.863346 105.177886 198.195729 104.845503 
C 198.528112 104.51312 198.714869 104.062249 198.714869 103.592189 
C 198.714869 103.122128 198.528112 102.671257 198.195729 102.338874 
C 197.863346 102.006492 197.412475 101.819735 196.942415 101.819735 
C 196.472355 101.819735 196.021483 102.006492 195.689101 102.338874 
C 195.356718 102.671257 195.169961 103.122128 195.169961 103.592189 
C 195.169961 104.062249 195.356718 104.51312 195.689101 104.845503 
C 196.021483 105.177886 196.472355 105.364642 196.942415 105.364642 
z
" style="stroke:#000000;stroke-width:0.886227;"/>
    <path clip-path="url(#pa4b5a53e04)" d="M 205.058778 91.115193 
C 205.528839 91.115193 205.97971 90.928436 206.312093 90.596054 
C 206.644475 90.263671 206.831232 89.8128 206.831232 89.342739 
C 206.831232 88.872679 206.644475 88.421808 206.312093 88.089425 
C 205.97971 87.757042 205.528839 87.570286 205.058778 87.570286 
C 204.588718 87.570286 204.137847 87.757042 203.805464 88.089425 
C 203.473081 88.421808 203.286325 88.872679 203.286325 89.342739 
C 203.286325 89.8128 203.473081 90.263671 203.805464 90.596054 
C 204.137847 90.928436 204.588718 91.115193 205.058778 91.115193 
z
" style="stroke:#000000;stroke-width:0.886227;"/>
    <path clip-path="url(#pa4b5a53e04)" d="M 213.175142 105.379861 
C 213.645202 105.379861 214.096073 105.193104 214.428456 104.860721 
C 214.760839 104.528338 214.947596 104.077467 214.947596 103.607407 
C 214.947596 103.137347 214.760839 102.686476 214.428456 102.354093 
C 214.096073 102.02171 213.645202 101.834953 213.175142 101.834953 
C 212.705082 101.834953 212.254211 102.02171 211.921828 102.354093 
C 211.589445 102.686476 211.402688 103.137347 211.402688 103.607407 
C 211.402688 104.077467 211.589445 104.528338 211.921828 104.860721 
C 212.254211 105.193104 212.705082 105.379861 213.175142 105.379861 
z
" style="stroke:#000000;stroke-width:0.886227;"/>
    <path clip-path="url(#pa4b5a53e04)" d="M 221.291506 102.26742 
C 221.761566 102.26742 222.212437 102.080663 222.54482 101.748281 
C 222.877203 101.415898 223.06396 100.965027 223.06396 100.494967 
C 223.06396 100.024906 222.877203 99.574035 222.54482 99.241652 
C 222.212437 98.90927 221.761566 98.722513 221.291506 98.722513 
C 220.821445 98.722513 220.370574 98.90927 220.038192 99.241652 
C 219.705809 99.574035 219.519052 100.024906 219.519052 100.494967 
C 219.519052 100.965027 219.705809 101.415898 220.038192 101.748281 
C 220.370574 102.080663 220.821445 102.26742 221.291506 102.26742 
z
" style="stroke:#000000;stroke-width:0.886227;"/>
    <path clip-path="url(#pa4b5a53e04)" d="M 229.407869 102.678088 
C 229.87793 102.678088 230.328801 102.491331 230.661183 102.158948 
C 230.993566 101.826565 231.180323 101.375694 231.180323 100.905634 
C 231.180323 100.435574 230.993566 99.984703 230.661183 99.65232 
C 230.328801 99.319937 229.87793 99.13318 229.407869 99.13318 
C 228.937809 99.13318 228.486938 99.319937 228.154555 99.65232 
C 227.822172 99.984703 227.635415 100.435574 227.635415 100.905634 
C 227.635415 101.375694 227.822172 101.826565 228.154555 102.158948 
C 228.486938 102.491331 228.937809 102.678088 229.407869 102.678088 
z
" style="stroke:#000000;stroke-width:0.886227;"/>
    <path clip-path="url(#pa4b5a53e04)" d="M 237.524233 99.841419 
C 237.994293 99.841419 238.445164 99.654662 238.777547 99.322279 
C 239.10993 98.989896 239.296687 98.539025 239.296687 98.068965 
C 239.296687 97.598904 239.10993 97.148033 238.777547 96.815651 
C 238.445164 96.483268 237.994293 96.296511 237.524233 96.296511 
C 237.054173 96.296511 236.603302 96.483268 236.270919 96.815651 
C 235.938536 97.148033 235.751779 97.598904 235.751779 98.068965 
C 235.751779 98.539025 235.938536 98.989896 236.270919 99.322279 
C 236.603302 99.654662 237.054173 99.841419 237.524233 99.841419 
z
" style="stroke:#000000;stroke-width:0.886227;"/>
    <path clip-path="url(#pa4b5a53e04)" d="M 245.640597 99.464354 
C 246.110657 99.464354 246.561528 99.277597 246.893911 98.945214 
C 247.226294 98.612832 247.41305 98.161961 247.41305 97.6919 
C 247.41305 97.22184 247.226294 96.770969 246.893911 96.438586 
C 246.561528 96.106203 246.110657 95.919446 245.640597 95.919446 
C 245.170536 95.919446 244.719665 96.106203 244.387282 96.438586 
C 244.0549 96.770969 243.868143 97.22184 243.868143 97.6919 
C 243.868143 98.161961 244.0549 98.612832 244.387282 98.945214 
C 244.719665 99.277597 245.170536 99.464354 245.640597 99.464354 
z
" style="stroke:#000000;stroke-width:0.886227;"/>
    <path clip-path="url(#pa4b5a53e04)" d="M 253.75696 106.555428 
C 254.22702 106.555428 254.677892 106.368671 255.010274 106.036288 
C 255.342657 105.703905 255.529414 105.253034 255.529414 104.782974 
C 255.529414 104.312914 255.342657 103.862043 255.010274 103.52966 
C 254.677892 103.197277 254.22702 103.01052 253.75696 103.01052 
C 253.2869 103.01052 252.836029 103.197277 252.503646 103.52966 
C 252.171263 103.862043 251.984506 104.312914 251.984506 104.782974 
C 251.984506 105.253034 252.171263 105.703905 252.503646 106.036288 
C 252.836029 106.368671 253.2869 106.555428 253.75696 106.555428 
z
" style="stroke:#000000;stroke-width:0.886227;"/>
    <path clip-path="url(#pa4b5a53e04)" d="M 261.873324 109.445152 
C 262.343384 109.445152 262.794255 109.258395 263.126638 108.926012 
C 263.459021 108.593629 263.645778 108.142758 263.645778 107.672698 
C 263.645778 107.202638 263.459021 106.751767 263.126638 106.419384 
C 262.794255 106.087001 262.343384 105.900244 261.873324 105.900244 
C 261.403264 105.900244 260.952393 106.087001 260.62001 106.419384 
C 260.287627 106.751767 260.10087 107.202638 260.10087 107.672698 
C 260.10087 108.142758 260.287627 108.593629 260.62001 108.926012 
C 260.952393 109.258395 261.403264 109.445152 261.873324 109.445152 
z
" style="stroke:#000000;stroke-width:0.886227;"/>
    <path clip-path="url(#pa4b5a53e04)" d="M 269.989687 101.958389 
C 270.459748 101.958389 270.910619 101.771632 271.243002 101.439249 
C 271.575384 101.106866 271.762141 100.655995 271.762141 100.185935 
C 271.762141 99.715875 271.575384 99.265004 271.243002 98.932621 
C 270.910619 98.600238 270.459748 98.413481 269.989687 98.413481 
C 269.519627 98.413481 269.068756 98.600238 268.736373 98.932621 
C 268.403991 99.265004 268.217234 99.715875 268.217234 100.185935 
C 268.217234 100.655995 268.403991 101.106866 268.736373 101.439249 
C 269.068756 101.771632 269.519627 101.958389 269.989687 101.958389 
z
" style="stroke:#000000;stroke-width:0.886227;"/>
    <path clip-path="url(#pa4b5a53e04)" d="M 278.106051 113.46827 
C 278.576111 113.46827 279.026982 113.281513 279.359365 112.94913 
C 279.691748 112.616748 279.878505 112.165877 279.878505 111.695816 
C 279.878505 111.225756 279.691748 110.774885 279.359365 110.442502 
C 279.026982 110.110119 278.576111 109.923362 278.106051 109.923362 
C 277.635991 109.923362 277.18512 110.110119 276.852737 110.442502 
C 276.520354 110.774885 276.333597 111.225756 276.333597 111.695816 
C 276.333597 112.165877 276.520354 112.616748 276.852737 112.94913 
C 277.18512 113.281513 277.635991 113.46827 278.106051 113.46827 
z
" style="stroke:#000000;stroke-width:0.886227;"/>
    <path clip-path="url(#pa4b5a53e04)" d="M 286.222415 116.665201 
C 286.692475 116.665201 287.143346 116.478444 287.475729 116.146061 
C 287.808112 115.813678 287.994869 115.362807 287.994869 114.892747 
C 287.994869 114.422687 287.808112 113.971816 287.475729 113.639433 
C 287.143346 113.30705 286.692475 113.120293 286.222415 113.120293 
C 285.752355 113.120293 285.301483 113.30705 284.969101 113.639433 
C 284.636718 113.971816 284.449961 114.422687 284.449961 114.892747 
C 284.449961 115.362807 284.636718 115.813678 284.969101 116.146061 
C 285.301483 116.478444 285.752355 116.665201 286.222415 116.665201 
z
" style="stroke:#000000;stroke-width:0.886227;"/>
    <path clip-path="url(#pa4b5a53e04)" d="M 294.338778 118.43061 
C 294.808839 118.43061 295.25971 118.243853 295.592093 117.911471 
C 295.924475 117.579088 296.111232 117.128217 296.111232 116.658157 
C 296.111232 116.188096 295.924475 115.737225 295.592093 115.404842 
C 295.25971 115.07246 294.808839 114.885703 294.338778 114.885703 
C 293.868718 114.885703 293.417847 115.07246 293.085464 115.404842 
C 292.753081 115.737225 292.566325 116.188096 292.566325 116.658157 
C 292.566325 117.128217 292.753081 117.579088 293.085464 117.911471 
C 293.417847 118.243853 293.868718 118.43061 294.338778 118.43061 
z
" style="stroke:#000000;stroke-width:0.886227;"/>
    <path clip-path="url(#pa4b5a53e04)" d="M 302.455142 122.635833 
C 302.925202 122.635833 303.376073 122.449076 303.708456 122.116693 
C 304.040839 121.78431 304.227596 121.333439 304.227596 120.863379 
C 304.227596 120.393319 304.040839 119.942448 303.708456 119.610065 
C 303.376073 119.277682 302.925202 119.090925 302.455142 119.090925 
C 301.985082 119.090925 301.534211 119.277682 301.201828 119.610065 
C 300.869445 119.942448 300.682688 120.393319 300.682688 120.863379 
C 300.682688 121.333439 300.869445 121.78431 301.201828 122.116693 
C 301.534211 122.449076 301.985082 122.635833 302.455142 122.635833 
z
" style="stroke:#000000;stroke-width:0.886227;"/>
    <path clip-path="url(#pa4b5a53e04)" d="M 310.571506 128.4588 
C 311.041566 128.4588 311.492437 128.272043 311.82482 127.93966 
C 312.157203 127.607277 312.34396 127.156406 312.34396 126.686346 
C 312.34396 126.216286 312.157203 125.765415 311.82482 125.433032 
C 311.492437 125.100649 311.041566 124.913892 310.571506 124.913892 
C 310.101445 124.913892 309.650574 125.100649 309.318192 125.433032 
C 308.985809 125.765415 308.799052 126.216286 308.799052 126.686346 
C 308.799052 127.156406 308.985809 127.607277 309.318192 127.93966 
C 309.650574 128.272043 310.101445 128.4588 310.571506 128.4588 
z
" style="stroke:#000000;stroke-width:0.886227;"/>
    <path clip-path="url(#pa4b5a53e04)" d="M 318.687869 122.992292 
C 319.15793 122.992292 319.608801 122.805535 319.941183 122.473152 
C 320.273566 122.140769 320.460323 121.689898 320.460323 121.219838 
C 320.460323 120.749778 320.273566 120.298906 319.941183 119.966524 
C 319.608801 119.634141 319.15793 119.447384 318.687869 119.447384 
C 318.217809 119.447384 317.766938 119.634141 317.434555 119.966524 
C 317.102172 120.298906 316.915415 120.749778 316.915415 121.219838 
C 316.915415 121.689898 317.102172 122.140769 317.434555 122.473152 
C 317.766938 122.805535 318.217809 122.992292 318.687869 122.992292 
z
" style="stroke:#000000;stroke-width:0.886227;"/>
    <path clip-path="url(#pa4b5a53e04)" d="M 326.804233 122.331222 
C 327.274293 122.331222 327.725164 122.144465 328.057547 121.812083 
C 328.38993 121.4797 328.576687 121.028829 328.576687 120.558768 
C 328.576687 120.088708 328.38993 119.637837 328.057547 119.305454 
C 327.725164 118.973072 327.274293 118.786315 326.804233 118.786315 
C 326.334173 118.786315 325.883302 118.973072 325.550919 119.305454 
C 325.218536 119.637837 325.031779 120.088708 325.031779 120.558768 
C 325.031779 121.028829 325.218536 121.4797 325.550919 121.812083 
C 325.883302 122.144465 326.334173 122.331222 326.804233 122.331222 
z
" style="stroke:#000000;stroke-width:0.886227;"/>
    <path clip-path="url(#pa4b5a53e04)" d="M 334.920597 119.36124 
C 335.390657 119.36124 335.841528 119.174483 336.173911 118.8421 
C 336.506294 118.509717 336.69305 118.058846 336.69305 117.588786 
C 336.69305 117.118726 336.506294 116.667854 336.173911 116.335472 
C 335.841528 116.003089 335.390657 115.816332 334.920597 115.816332 
C 334.450536 115.816332 333.999665 116.003089 333.667282 116.335472 
C 333.3349 116.667854 333.148143 117.118726 333.148143 117.588786 
C 333.148143 118.058846 333.3349 118.509717 333.667282 118.8421 
C 333.999665 119.174483 334.450536 119.36124 334.920597 119.36124 
z
" style="stroke:#000000;stroke-width:0.886227;"/>
    <path clip-path="url(#pa4b5a53e04)" d="M 343.03696 116.381445 
C 343.50702 116.381445 343.957892 116.194689 344.290274 115.862306 
C 344.622657 115.529923 344.809414 115.079052 344.809414 114.608992 
C 344.809414 114.138931 344.622657 113.68806 344.290274 113.355678 
C 343.957892 113.023295 343.50702 112.836538 343.03696 112.836538 
C 342.5669 112.836538 342.116029 113.023295 341.783646 113.355678 
C 341.451263 113.68806 341.264506 114.138931 341.264506 114.608992 
C 341.264506 115.079052 341.451263 115.529923 341.783646 115.862306 
C 342.116029 116.194689 342.5669 116.381445 343.03696 116.381445 
z
" style="stroke:#000000;stroke-width:0.886227;"/>
    <path clip-path="url(#pa4b5a53e04)" d="M 351.153324 116.125639 
C 351.623384 116.125639 352.074255 115.938882 352.406638 115.606499 
C 352.739021 115.274116 352.925778 114.823245 352.925778 114.353185 
C 352.925778 113.883124 352.739021 113.432253 352.406638 113.099871 
C 352.074255 112.767488 351.623384 112.580731 351.153324 112.580731 
C 350.683264 112.580731 350.232393 112.767488 349.90001 113.099871 
C 349.567627 113.432253 349.38087 113.883124 349.38087 114.353185 
C 349.38087 114.823245 349.567627 115.274116 349.90001 115.606499 
C 350.232393 115.938882 350.683264 116.125639 351.153324 116.125639 
z
" style="stroke:#000000;stroke-width:0.886227;"/>
    <path clip-path="url(#pa4b5a53e04)" d="M 359.269688 114.568568 
C 359.739748 114.568568 360.190619 114.381811 360.523002 114.049428 
C 360.855384 113.717045 361.042141 113.266174 361.042141 112.796114 
C 361.042141 112.326054 360.855384 111.875183 360.523002 111.5428 
C 360.190619 111.210417 359.739748 111.02366 359.269688 111.02366 
C 358.799627 111.02366 358.348756 111.210417 358.016373 111.5428 
C 357.683991 111.875183 357.497234 112.326054 357.497234 112.796114 
C 357.497234 113.266174 357.683991 113.717045 358.016373 114.049428 
C 358.348756 114.381811 358.799627 114.568568 359.269688 114.568568 
z
" style="stroke:#000000;stroke-width:0.886227;"/>
    <path clip-path="url(#pa4b5a53e04)" d="M 367.386051 112.466995 
C 367.856111 112.466995 368.306982 112.280238 368.639365 111.947855 
C 368.971748 111.615472 369.158505 111.164601 369.158505 110.694541 
C 369.158505 110.224481 368.971748 109.77361 368.639365 109.441227 
C 368.306982 109.108844 367.856111 108.922087 367.386051 108.922087 
C 366.915991 108.922087 366.46512 109.108844 366.132737 109.441227 
C 365.800354 109.77361 365.613597 110.224481 365.613597 110.694541 
C 365.613597 111.164601 365.800354 111.615472 366.132737 111.947855 
C 366.46512 112.280238 366.915991 112.466995 367.386051 112.466995 
z
" style="stroke:#000000;stroke-width:0.886227;"/>
    <path clip-path="url(#pa4b5a53e04)" d="M 375.502415 111.463037 
C 375.972475 111.463037 376.423346 111.27628 376.755729 110.943897 
C 377.088112 110.611514 377.274869 110.160643 377.274869 109.690583 
C 377.274869 109.220523 377.088112 108.769652 376.755729 108.437269 
C 376.423346 108.104886 375.972475 107.918129 375.502415 107.918129 
C 375.032355 107.918129 374.581483 108.104886 374.249101 108.437269 
C 373.916718 108.769652 373.729961 109.220523 373.729961 109.690583 
C 373.729961 110.160643 373.916718 110.611514 374.249101 110.943897 
C 374.581483 111.27628 375.032355 111.463037 375.502415 111.463037 
z
" style="stroke:#000000;stroke-width:0.886227;"/>
    <path clip-path="url(#pa4b5a53e04)" d="M 383.618778 108.904072 
C 384.088839 108.904072 384.53971 108.717316 384.872093 108.384933 
C 385.204475 108.05255 385.391232 107.601679 385.391232 107.131619 
C 385.391232 106.661558 385.204475 106.210687 384.872093 105.878304 
C 384.53971 105.545922 384.088839 105.359165 383.618778 105.359165 
C 383.148718 105.359165 382.697847 105.545922 382.365464 105.878304 
C 382.033081 106.210687 381.846325 106.661558 381.846325 107.131619 
C 381.846325 107.601679 382.033081 108.05255 382.365464 108.384933 
C 382.697847 108.717316 383.148718 108.904072 383.618778 108.904072 
z
" style="stroke:#000000;stroke-width:0.886227;"/>
    <path clip-path="url(#pa4b5a53e04)" d="M 391.735142 101.635147 
C 392.205202 101.635147 392.656073 101.44839 392.988456 101.116007 
C 393.320839 100.783625 393.507596 100.332753 393.507596 99.862693 
C 393.507596 99.392633 393.320839 98.941762 392.988456 98.609379 
C 392.656073 98.276996 392.205202 98.090239 391.735142 98.090239 
C 391.265082 98.090239 390.814211 98.276996 390.481828 98.609379 
C 390.149445 98.941762 389.962688 99.392633 389.962688 99.862693 
C 389.962688 100.332753 390.149445 100.783625 390.481828 101.116007 
C 390.814211 101.44839 391.265082 101.635147 391.735142 101.635147 
z
" style="stroke:#000000;stroke-width:0.886227;"/>
    <path clip-path="url(#pa4b5a53e04)" d="M 399.851506 98.530305 
C 400.321566 98.530305 400.772437 98.343548 401.10482 98.011165 
C 401.437203 97.678782 401.62396 97.227911 401.62396 96.757851 
C 401.62396 96.287791 401.437203 95.836919 401.10482 95.504537 
C 400.772437 95.172154 400.321566 94.985397 399.851506 94.985397 
C 399.381445 94.985397 398.930574 95.172154 398.598192 95.504537 
C 398.265809 95.836919 398.079052 96.287791 398.079052 96.757851 
C 398.079052 97.227911 398.265809 97.678782 398.598192 98.011165 
C 398.930574 98.343548 399.381445 98.530305 399.851506 98.530305 
z
" style="stroke:#000000;stroke-width:0.886227;"/>
    <path clip-path="url(#pa4b5a53e04)" d="M 407.967869 95.987866 
C 408.43793 95.987866 408.888801 95.801109 409.221183 95.468726 
C 409.553566 95.136343 409.740323 94.685472 409.740323 94.215412 
C 409.740323 93.745352 409.553566 93.294481 409.221183 92.962098 
C 408.888801 92.629715 408.43793 92.442958 407.967869 92.442958 
C 407.497809 92.442958 407.046938 92.629715 406.714555 92.962098 
C 406.382172 93.294481 406.195415 93.745352 406.195415 94.215412 
C 406.195415 94.685472 406.382172 95.136343 406.714555 95.468726 
C 407.046938 95.801109 407.497809 95.987866 407.967869 95.987866 
z
" style="stroke:#000000;stroke-width:0.886227;"/>
    <path clip-path="url(#pa4b5a53e04)" d="M 416.084233 92.49838 
C 416.554293 92.49838 417.005164 92.311623 417.337547 91.97924 
C 417.66993 91.646857 417.856687 91.195986 417.856687 90.725926 
C 417.856687 90.255866 417.66993 89.804995 417.337547 89.472612 
C 417.005164 89.140229 416.554293 88.953472 416.084233 88.953472 
C 415.614173 88.953472 415.163302 89.140229 414.830919 89.472612 
C 414.498536 89.804995 414.311779 90.255866 414.311779 90.725926 
C 414.311779 91.195986 414.498536 91.646857 414.830919 91.97924 
C 415.163302 92.311623 415.614173 92.49838 416.084233 92.49838 
z
" style="stroke:#000000;stroke-width:0.886227;"/>
    <path clip-path="url(#pa4b5a53e04)" d="M 424.200597 88.84968 
C 424.670657 88.84968 425.121528 88.662923 425.453911 88.33054 
C 425.786294 87.998157 425.97305 87.547286 425.97305 87.077226 
C 425.97305 86.607166 425.786294 86.156295 425.453911 85.823912 
C 425.121528 85.491529 424.670657 85.304772 424.200597 85.304772 
C 423.730536 85.304772 423.279665 85.491529 422.947282 85.823912 
C 422.6149 86.156295 422.428143 86.607166 422.428143 87.077226 
C 422.428143 87.547286 422.6149 87.998157 422.947282 88.33054 
C 423.279665 88.662923 423.730536 88.84968 424.200597 88.84968 
z
" style="stroke:#000000;stroke-width:0.886227;"/>
    <path clip-path="url(#pa4b5a53e04)" d="M 432.31696 88.176783 
C 432.78702 88.176783 433.237892 87.990027 433.570274 87.657644 
C 433.902657 87.325261 434.089414 86.87439 434.089414 86.40433 
C 434.089414 85.934269 433.902657 85.483398 433.570274 85.151015 
C 433.237892 84.818633 432.78702 84.631876 432.31696 84.631876 
C 431.8469 84.631876 431.396029 84.818633 431.063646 85.151015 
C 430.731263 85.483398 430.544506 85.934269 430.544506 86.40433 
C 430.544506 86.87439 430.731263 87.325261 431.063646 87.657644 
C 431.396029 87.990027 431.8469 88.176783 432.31696 88.176783 
z
" style="stroke:#000000;stroke-width:0.886227;"/>
    <path clip-path="url(#pa4b5a53e04)" d="M 440.433324 85.94176 
C 440.903384 85.94176 441.354255 85.755003 441.686638 85.42262 
C 442.019021 85.090237 442.205778 84.639366 442.205778 84.169306 
C 442.205778 83.699246 442.019021 83.248375 441.686638 82.915992 
C 441.354255 82.583609 440.903384 82.396852 440.433324 82.396852 
C 439.963264 82.396852 439.512393 82.583609 439.18001 82.915992 
C 438.847627 83.248375 438.66087 83.699246 438.66087 84.169306 
C 438.66087 84.639366 438.847627 85.090237 439.18001 85.42262 
C 439.512393 85.755003 439.963264 85.94176 440.433324 85.94176 
z
" style="stroke:#000000;stroke-width:0.886227;"/>
    <path clip-path="url(#pa4b5a53e04)" d="M 448.549687 95.924283 
C 449.019748 95.924283 449.470619 95.737526 449.803002 95.405143 
C 450.135384 95.072761 450.322141 94.621889 450.322141 94.151829 
C 450.322141 93.681769 450.135384 93.230898 449.803002 92.898515 
C 449.470619 92.566132 449.019748 92.379375 448.549687 92.379375 
C 448.079627 92.379375 447.628756 92.566132 447.296373 92.898515 
C 446.963991 93.230898 446.777234 93.681769 446.777234 94.151829 
C 446.777234 94.621889 446.963991 95.072761 447.296373 95.405143 
C 447.628756 95.737526 448.079627 95.924283 448.549687 95.924283 
z
" style="stroke:#000000;stroke-width:0.886227;"/>
    <path clip-path="url(#pa4b5a53e04)" d="M 456.666051 98.412505 
C 457.136111 98.412505 457.586982 98.225748 457.919365 97.893366 
C 458.251748 97.560983 458.438505 97.110112 458.438505 96.640051 
C 458.438505 96.169991 458.251748 95.71912 457.919365 95.386737 
C 457.586982 95.054355 457.136111 94.867598 456.666051 94.867598 
C 456.195991 94.867598 455.74512 95.054355 455.412737 95.386737 
C 455.080354 95.71912 454.893597 96.169991 454.893597 96.640051 
C 454.893597 97.110112 455.080354 97.560983 455.412737 97.893366 
C 455.74512 98.225748 456.195991 98.412505 456.666051 98.412505 
z
" style="stroke:#000000;stroke-width:0.886227;"/>
    <path clip-path="url(#pa4b5a53e04)" d="M 464.782415 99.644894 
C 465.252475 99.644894 465.703346 99.458138 466.035729 99.125755 
C 466.368112 98.793372 466.554869 98.342501 466.554869 97.872441 
C 466.554869 97.40238 466.368112 96.951509 466.035729 96.619126 
C 465.703346 96.286744 465.252475 96.099987 464.782415 96.099987 
C 464.312355 96.099987 463.861483 96.286744 463.529101 96.619126 
C 463.196718 96.951509 463.009961 97.40238 463.009961 97.872441 
C 463.009961 98.342501 463.196718 98.793372 463.529101 99.125755 
C 463.861483 99.458138 464.312355 99.644894 464.782415 99.644894 
z
" style="stroke:#000000;stroke-width:0.886227;"/>
   </g>
   <g id="line2d_41">
    <path clip-path="url(#pa4b5a53e04)" d="M 83.313324 17.28 
L 91.429688 17.28 
L 99.546051 17.28 
L 107.662415 101.930909 
L 115.778778 91.671872 
L 123.895142 66.13 
L 132.011506 42.48 
L 140.127869 81.482238 
L 148.244233 97.14 
L 156.360597 44.605091 
L 164.47696 73.512035 
L 172.593324 79.782222 
L 180.709687 83.846157 
L 188.826051 101.011285 
L 196.942415 103.592189 
L 205.058778 89.342739 
L 213.175142 103.607407 
L 221.291506 100.494967 
L 229.407869 100.905634 
L 237.524233 98.068965 
L 245.640597 97.6919 
L 253.75696 104.782974 
L 261.873324 107.672698 
L 269.989687 100.185935 
L 278.106051 111.695816 
L 286.222415 114.892747 
L 294.338778 116.658157 
L 302.455142 120.863379 
L 310.571506 126.686346 
L 318.687869 121.219838 
L 326.804233 120.558768 
L 334.920597 117.588786 
L 343.03696 114.608992 
L 351.153324 114.353185 
L 359.269688 112.796114 
L 367.386051 110.694541 
L 375.502415 109.690583 
L 383.618778 107.131619 
L 391.735142 99.862693 
L 399.851506 96.757851 
L 407.967869 94.215412 
L 416.084233 90.725926 
L 424.200597 87.077226 
L 432.31696 86.40433 
L 440.433324 84.169306 
L 448.549687 94.151829 
L 456.666051 96.640051 
L 464.782415 97.872441 
" style="fill:none;stroke:#000000;stroke-width:0.886227;"/>
   </g>
  </g>
 </g>
 <defs>
  <clipPath id="pa4b5a53e04">
   <rect height="221.76" width="446.4" x="46.789687" y="7.2"/>
  </clipPath>
 </defs>
</svg>
