<?xml version="1.0" encoding="utf-8" standalone="no"?>
<!DOCTYPE svg PUBLIC "-//W3C//DTD SVG 1.1//EN"
  "http://www.w3.org/Graphics/SVG/1.1/DTD/svg11.dtd">
<!-- Created with matplotlib (https://matplotlib.org/) -->
<svg height="283.578058pt" version="1.1" viewBox="0 0 498.167 283.578058" width="498.167pt" xmlns="http://www.w3.org/2000/svg" xmlns:xlink="http://www.w3.org/1999/xlink">
 <defs>
  <style type="text/css">
*{stroke-linecap:butt;stroke-linejoin:round;}
  </style>
 </defs>
 <g id="figure_1">
  <g id="patch_1">
   <path d="M 0 283.578058 
L 498.167 283.578058 
L 498.167 0 
L 0 0 
z
" style="fill:#ffffff;stroke:#ffffff;stroke-linejoin:miter;"/>
  </g>
  <g id="axes_1">
   <g id="patch_2">
    <path d="M 44.567 247.865371 
L 490.967 247.865371 
L 490.967 26.105371 
L 44.567 26.105371 
z
" style="fill:#ffffff;stroke:#7f7f7f;stroke-linejoin:miter;"/>
   </g>
   <g id="matplotlib.axis_1">
    <g id="xtick_1">
     <g id="line2d_1">
      <path clip-path="url(#p5a4cce368a)" d="M 64.857909 247.865371 
L 64.857909 26.105371 
" style="fill:none;stroke:#e5e5e5;stroke-width:0.8;"/>
     </g>
     <g id="line2d_2">
      <path d="M 64.857909 247.865371 
" style="fill:none;stroke:#000000;stroke-width:1.5;"/>
      <defs>
       <path d="M 0 0 
L 0 2.75 
" id="mea19bfc15e" style="stroke:#000000;"/>
      </defs>
      <g>
       <use style="stroke:#000000;" x="64.857909" xlink:href="#mea19bfc15e" y="247.865371"/>
      </g>
     </g>
     <g id="text_1">
      <!-- 1 -->
      <defs>
       <path d="M 12.40625 8.296875 
L 28.515625 8.296875 
L 28.515625 63.921875 
L 10.984375 60.40625 
L 10.984375 69.390625 
L 28.421875 72.90625 
L 38.28125 72.90625 
L 38.28125 8.296875 
L 54.390625 8.296875 
L 54.390625 0 
L 12.40625 0 
z
" id="DejaVuSans-49"/>
      </defs>
      <g style="fill:#4d4d4d;" transform="translate(62.058409 259.501996)scale(0.088 -0.088)">
       <use xlink:href="#DejaVuSans-49"/>
      </g>
     </g>
    </g>
    <g id="xtick_2">
     <g id="line2d_3">
      <path clip-path="url(#p5a4cce368a)" d="M 200.130636 247.865371 
L 200.130636 26.105371 
" style="fill:none;stroke:#e5e5e5;stroke-width:0.8;"/>
     </g>
     <g id="line2d_4">
      <path d="M 200.130636 247.865371 
" style="fill:none;stroke:#000000;stroke-width:1.5;"/>
      <g>
       <use style="stroke:#000000;" x="200.130636" xlink:href="#mea19bfc15e" y="247.865371"/>
      </g>
     </g>
     <g id="text_2">
      <!-- 2 -->
      <defs>
       <path d="M 19.1875 8.296875 
L 53.609375 8.296875 
L 53.609375 0 
L 7.328125 0 
L 7.328125 8.296875 
Q 12.9375 14.109375 22.625 23.890625 
Q 32.328125 33.6875 34.8125 36.53125 
Q 39.546875 41.84375 41.421875 45.53125 
Q 43.3125 49.21875 43.3125 52.78125 
Q 43.3125 58.59375 39.234375 62.25 
Q 35.15625 65.921875 28.609375 65.921875 
Q 23.96875 65.921875 18.8125 64.3125 
Q 13.671875 62.703125 7.8125 59.421875 
L 7.8125 69.390625 
Q 13.765625 71.78125 18.9375 73 
Q 24.125 74.21875 28.421875 74.21875 
Q 39.75 74.21875 46.484375 68.546875 
Q 53.21875 62.890625 53.21875 53.421875 
Q 53.21875 48.921875 51.53125 44.890625 
Q 49.859375 40.875 45.40625 35.40625 
Q 44.1875 33.984375 37.640625 27.21875 
Q 31.109375 20.453125 19.1875 8.296875 
z
" id="DejaVuSans-50"/>
      </defs>
      <g style="fill:#4d4d4d;" transform="translate(197.331136 259.501996)scale(0.088 -0.088)">
       <use xlink:href="#DejaVuSans-50"/>
      </g>
     </g>
    </g>
    <g id="xtick_3">
     <g id="line2d_5">
      <path clip-path="url(#p5a4cce368a)" d="M 335.403364 247.865371 
L 335.403364 26.105371 
" style="fill:none;stroke:#e5e5e5;stroke-width:0.8;"/>
     </g>
     <g id="line2d_6">
      <path d="M 335.403364 247.865371 
" style="fill:none;stroke:#000000;stroke-width:1.5;"/>
      <g>
       <use style="stroke:#000000;" x="335.403364" xlink:href="#mea19bfc15e" y="247.865371"/>
      </g>
     </g>
     <g id="text_3">
      <!-- 3 -->
      <defs>
       <path d="M 40.578125 39.3125 
Q 47.65625 37.796875 51.625 33 
Q 55.609375 28.21875 55.609375 21.1875 
Q 55.609375 10.40625 48.1875 4.484375 
Q 40.765625 -1.421875 27.09375 -1.421875 
Q 22.515625 -1.421875 17.65625 -0.515625 
Q 12.796875 0.390625 7.625 2.203125 
L 7.625 11.71875 
Q 11.71875 9.328125 16.59375 8.109375 
Q 21.484375 6.890625 26.8125 6.890625 
Q 36.078125 6.890625 40.9375 10.546875 
Q 45.796875 14.203125 45.796875 21.1875 
Q 45.796875 27.640625 41.28125 31.265625 
Q 36.765625 34.90625 28.71875 34.90625 
L 20.21875 34.90625 
L 20.21875 43.015625 
L 29.109375 43.015625 
Q 36.375 43.015625 40.234375 45.921875 
Q 44.09375 48.828125 44.09375 54.296875 
Q 44.09375 59.90625 40.109375 62.90625 
Q 36.140625 65.921875 28.71875 65.921875 
Q 24.65625 65.921875 20.015625 65.03125 
Q 15.375 64.15625 9.8125 62.3125 
L 9.8125 71.09375 
Q 15.4375 72.65625 20.34375 73.4375 
Q 25.25 74.21875 29.59375 74.21875 
Q 40.828125 74.21875 47.359375 69.109375 
Q 53.90625 64.015625 53.90625 55.328125 
Q 53.90625 49.265625 50.4375 45.09375 
Q 46.96875 40.921875 40.578125 39.3125 
z
" id="DejaVuSans-51"/>
      </defs>
      <g style="fill:#4d4d4d;" transform="translate(332.603864 259.501996)scale(0.088 -0.088)">
       <use xlink:href="#DejaVuSans-51"/>
      </g>
     </g>
    </g>
    <g id="xtick_4">
     <g id="line2d_7">
      <path clip-path="url(#p5a4cce368a)" d="M 470.676091 247.865371 
L 470.676091 26.105371 
" style="fill:none;stroke:#e5e5e5;stroke-width:0.8;"/>
     </g>
     <g id="line2d_8">
      <path d="M 470.676091 247.865371 
" style="fill:none;stroke:#000000;stroke-width:1.5;"/>
      <g>
       <use style="stroke:#000000;" x="470.676091" xlink:href="#mea19bfc15e" y="247.865371"/>
      </g>
     </g>
     <g id="text_4">
      <!-- 4 -->
      <defs>
       <path d="M 37.796875 64.3125 
L 12.890625 25.390625 
L 37.796875 25.390625 
z
M 35.203125 72.90625 
L 47.609375 72.90625 
L 47.609375 25.390625 
L 58.015625 25.390625 
L 58.015625 17.1875 
L 47.609375 17.1875 
L 47.609375 0 
L 37.796875 0 
L 37.796875 17.1875 
L 4.890625 17.1875 
L 4.890625 26.703125 
z
" id="DejaVuSans-52"/>
      </defs>
      <g style="fill:#4d4d4d;" transform="translate(467.876591 259.501996)scale(0.088 -0.088)">
       <use xlink:href="#DejaVuSans-52"/>
      </g>
     </g>
    </g>
    <g id="xtick_5">
     <g id="line2d_9">
      <path clip-path="url(#p5a4cce368a)" d="M 132.494273 247.865371 
L 132.494273 26.105371 
" style="fill:none;stroke:#fafafa;"/>
     </g>
     <g id="line2d_10">
      <path d="M 132.494273 247.865371 
" style="fill:none;stroke:#000000;stroke-width:1.5;"/>
      <defs>
       <path d="M 0 0 
L 0 1.375 
" id="m78cad7ad80" style="stroke:#000000;"/>
      </defs>
      <g>
       <use style="stroke:#000000;" x="132.494273" xlink:href="#m78cad7ad80" y="247.865371"/>
      </g>
     </g>
    </g>
    <g id="xtick_6">
     <g id="line2d_11">
      <path clip-path="url(#p5a4cce368a)" d="M 267.767 247.865371 
L 267.767 26.105371 
" style="fill:none;stroke:#fafafa;"/>
     </g>
     <g id="line2d_12">
      <path d="M 267.767 247.865371 
" style="fill:none;stroke:#000000;stroke-width:1.5;"/>
      <g>
       <use style="stroke:#000000;" x="267.767" xlink:href="#m78cad7ad80" y="247.865371"/>
      </g>
     </g>
    </g>
    <g id="xtick_7">
     <g id="line2d_13">
      <path clip-path="url(#p5a4cce368a)" d="M 403.039727 247.865371 
L 403.039727 26.105371 
" style="fill:none;stroke:#fafafa;"/>
     </g>
     <g id="line2d_14">
      <path d="M 403.039727 247.865371 
" style="fill:none;stroke:#000000;stroke-width:1.5;"/>
      <g>
       <use style="stroke:#000000;" x="403.039727" xlink:href="#m78cad7ad80" y="247.865371"/>
      </g>
     </g>
    </g>
    <g id="text_5">
     <!-- Resolution -->
     <defs>
      <path d="M 44.390625 34.1875 
Q 47.5625 33.109375 50.5625 29.59375 
Q 53.5625 26.078125 56.59375 19.921875 
L 66.609375 0 
L 56 0 
L 46.6875 18.703125 
Q 43.0625 26.03125 39.671875 28.421875 
Q 36.28125 30.8125 30.421875 30.8125 
L 19.671875 30.8125 
L 19.671875 0 
L 9.8125 0 
L 9.8125 72.90625 
L 32.078125 72.90625 
Q 44.578125 72.90625 50.734375 67.671875 
Q 56.890625 62.453125 56.890625 51.90625 
Q 56.890625 45.015625 53.6875 40.46875 
Q 50.484375 35.9375 44.390625 34.1875 
z
M 19.671875 64.796875 
L 19.671875 38.921875 
L 32.078125 38.921875 
Q 39.203125 38.921875 42.84375 42.21875 
Q 46.484375 45.515625 46.484375 51.90625 
Q 46.484375 58.296875 42.84375 61.546875 
Q 39.203125 64.796875 32.078125 64.796875 
z
" id="DejaVuSans-82"/>
      <path d="M 56.203125 29.59375 
L 56.203125 25.203125 
L 14.890625 25.203125 
Q 15.484375 15.921875 20.484375 11.0625 
Q 25.484375 6.203125 34.421875 6.203125 
Q 39.59375 6.203125 44.453125 7.46875 
Q 49.3125 8.734375 54.109375 11.28125 
L 54.109375 2.78125 
Q 49.265625 0.734375 44.1875 -0.34375 
Q 39.109375 -1.421875 33.890625 -1.421875 
Q 20.796875 -1.421875 13.15625 6.1875 
Q 5.515625 13.8125 5.515625 26.8125 
Q 5.515625 40.234375 12.765625 48.109375 
Q 20.015625 56 32.328125 56 
Q 43.359375 56 49.78125 48.890625 
Q 56.203125 41.796875 56.203125 29.59375 
z
M 47.21875 32.234375 
Q 47.125 39.59375 43.09375 43.984375 
Q 39.0625 48.390625 32.421875 48.390625 
Q 24.90625 48.390625 20.390625 44.140625 
Q 15.875 39.890625 15.1875 32.171875 
z
" id="DejaVuSans-101"/>
      <path d="M 44.28125 53.078125 
L 44.28125 44.578125 
Q 40.484375 46.53125 36.375 47.5 
Q 32.28125 48.484375 27.875 48.484375 
Q 21.1875 48.484375 17.84375 46.4375 
Q 14.5 44.390625 14.5 40.28125 
Q 14.5 37.15625 16.890625 35.375 
Q 19.28125 33.59375 26.515625 31.984375 
L 29.59375 31.296875 
Q 39.15625 29.25 43.1875 25.515625 
Q 47.21875 21.78125 47.21875 15.09375 
Q 47.21875 7.46875 41.1875 3.015625 
Q 35.15625 -1.421875 24.609375 -1.421875 
Q 20.21875 -1.421875 15.453125 -0.5625 
Q 10.6875 0.296875 5.421875 2 
L 5.421875 11.28125 
Q 10.40625 8.6875 15.234375 7.390625 
Q 20.0625 6.109375 24.8125 6.109375 
Q 31.15625 6.109375 34.5625 8.28125 
Q 37.984375 10.453125 37.984375 14.40625 
Q 37.984375 18.0625 35.515625 20.015625 
Q 33.0625 21.96875 24.703125 23.78125 
L 21.578125 24.515625 
Q 13.234375 26.265625 9.515625 29.90625 
Q 5.8125 33.546875 5.8125 39.890625 
Q 5.8125 47.609375 11.28125 51.796875 
Q 16.75 56 26.8125 56 
Q 31.78125 56 36.171875 55.265625 
Q 40.578125 54.546875 44.28125 53.078125 
z
" id="DejaVuSans-115"/>
      <path d="M 30.609375 48.390625 
Q 23.390625 48.390625 19.1875 42.75 
Q 14.984375 37.109375 14.984375 27.296875 
Q 14.984375 17.484375 19.15625 11.84375 
Q 23.34375 6.203125 30.609375 6.203125 
Q 37.796875 6.203125 41.984375 11.859375 
Q 46.1875 17.53125 46.1875 27.296875 
Q 46.1875 37.015625 41.984375 42.703125 
Q 37.796875 48.390625 30.609375 48.390625 
z
M 30.609375 56 
Q 42.328125 56 49.015625 48.375 
Q 55.71875 40.765625 55.71875 27.296875 
Q 55.71875 13.875 49.015625 6.21875 
Q 42.328125 -1.421875 30.609375 -1.421875 
Q 18.84375 -1.421875 12.171875 6.21875 
Q 5.515625 13.875 5.515625 27.296875 
Q 5.515625 40.765625 12.171875 48.375 
Q 18.84375 56 30.609375 56 
z
" id="DejaVuSans-111"/>
      <path d="M 9.421875 75.984375 
L 18.40625 75.984375 
L 18.40625 0 
L 9.421875 0 
z
" id="DejaVuSans-108"/>
      <path d="M 8.5 21.578125 
L 8.5 54.6875 
L 17.484375 54.6875 
L 17.484375 21.921875 
Q 17.484375 14.15625 20.5 10.265625 
Q 23.53125 6.390625 29.59375 6.390625 
Q 36.859375 6.390625 41.078125 11.03125 
Q 45.3125 15.671875 45.3125 23.6875 
L 45.3125 54.6875 
L 54.296875 54.6875 
L 54.296875 0 
L 45.3125 0 
L 45.3125 8.40625 
Q 42.046875 3.421875 37.71875 1 
Q 33.40625 -1.421875 27.6875 -1.421875 
Q 18.265625 -1.421875 13.375 4.4375 
Q 8.5 10.296875 8.5 21.578125 
z
M 31.109375 56 
z
" id="DejaVuSans-117"/>
      <path d="M 18.3125 70.21875 
L 18.3125 54.6875 
L 36.8125 54.6875 
L 36.8125 47.703125 
L 18.3125 47.703125 
L 18.3125 18.015625 
Q 18.3125 11.328125 20.140625 9.421875 
Q 21.96875 7.515625 27.59375 7.515625 
L 36.8125 7.515625 
L 36.8125 0 
L 27.59375 0 
Q 17.1875 0 13.234375 3.875 
Q 9.28125 7.765625 9.28125 18.015625 
L 9.28125 47.703125 
L 2.6875 47.703125 
L 2.6875 54.6875 
L 9.28125 54.6875 
L 9.28125 70.21875 
z
" id="DejaVuSans-116"/>
      <path d="M 9.421875 54.6875 
L 18.40625 54.6875 
L 18.40625 0 
L 9.421875 0 
z
M 9.421875 75.984375 
L 18.40625 75.984375 
L 18.40625 64.59375 
L 9.421875 64.59375 
z
" id="DejaVuSans-105"/>
      <path d="M 54.890625 33.015625 
L 54.890625 0 
L 45.90625 0 
L 45.90625 32.71875 
Q 45.90625 40.484375 42.875 44.328125 
Q 39.84375 48.1875 33.796875 48.1875 
Q 26.515625 48.1875 22.3125 43.546875 
Q 18.109375 38.921875 18.109375 30.90625 
L 18.109375 0 
L 9.078125 0 
L 9.078125 54.6875 
L 18.109375 54.6875 
L 18.109375 46.1875 
Q 21.34375 51.125 25.703125 53.5625 
Q 30.078125 56 35.796875 56 
Q 45.21875 56 50.046875 50.171875 
Q 54.890625 44.34375 54.890625 33.015625 
z
" id="DejaVuSans-110"/>
     </defs>
     <g transform="translate(231.585438 274.090402)scale(0.11 -0.11)">
      <use xlink:href="#DejaVuSans-82"/>
      <use x="69.419922" xlink:href="#DejaVuSans-101"/>
      <use x="130.943359" xlink:href="#DejaVuSans-115"/>
      <use x="183.042969" xlink:href="#DejaVuSans-111"/>
      <use x="244.224609" xlink:href="#DejaVuSans-108"/>
      <use x="272.007812" xlink:href="#DejaVuSans-117"/>
      <use x="335.386719" xlink:href="#DejaVuSans-116"/>
      <use x="374.595703" xlink:href="#DejaVuSans-105"/>
      <use x="402.378906" xlink:href="#DejaVuSans-111"/>
      <use x="463.560547" xlink:href="#DejaVuSans-110"/>
     </g>
    </g>
   </g>
   <g id="matplotlib.axis_2">
    <g id="ytick_1">
     <g id="line2d_15">
      <path clip-path="url(#p5a4cce368a)" d="M 44.567 237.785371 
L 490.967 237.785371 
" style="fill:none;stroke:#e5e5e5;stroke-width:0.8;"/>
     </g>
     <g id="line2d_16">
      <path d="M 44.567 237.785371 
" style="fill:none;stroke:#000000;stroke-width:1.5;"/>
      <defs>
       <path d="M 0 0 
L -2.75 0 
" id="maecbb88a55" style="stroke:#000000;"/>
      </defs>
      <g>
       <use style="stroke:#000000;" x="44.567" xlink:href="#maecbb88a55" y="237.785371"/>
      </g>
     </g>
     <g id="text_6">
      <!-- 0 -->
      <defs>
       <path d="M 31.78125 66.40625 
Q 24.171875 66.40625 20.328125 58.90625 
Q 16.5 51.421875 16.5 36.375 
Q 16.5 21.390625 20.328125 13.890625 
Q 24.171875 6.390625 31.78125 6.390625 
Q 39.453125 6.390625 43.28125 13.890625 
Q 47.125 21.390625 47.125 36.375 
Q 47.125 51.421875 43.28125 58.90625 
Q 39.453125 66.40625 31.78125 66.40625 
z
M 31.78125 74.21875 
Q 44.046875 74.21875 50.515625 64.515625 
Q 56.984375 54.828125 56.984375 36.375 
Q 56.984375 17.96875 50.515625 8.265625 
Q 44.046875 -1.421875 31.78125 -1.421875 
Q 19.53125 -1.421875 13.0625 8.265625 
Q 6.59375 17.96875 6.59375 36.375 
Q 6.59375 54.828125 13.0625 64.515625 
Q 19.53125 74.21875 31.78125 74.21875 
z
" id="DejaVuSans-48"/>
      </defs>
      <g style="fill:#4d4d4d;" transform="translate(34.018 240.213621)scale(0.088 -0.088)">
       <use xlink:href="#DejaVuSans-48"/>
      </g>
     </g>
    </g>
    <g id="ytick_2">
     <g id="line2d_17">
      <path clip-path="url(#p5a4cce368a)" d="M 44.567 187.385371 
L 490.967 187.385371 
" style="fill:none;stroke:#e5e5e5;stroke-width:0.8;"/>
     </g>
     <g id="line2d_18">
      <path d="M 44.567 187.385371 
" style="fill:none;stroke:#000000;stroke-width:1.5;"/>
      <g>
       <use style="stroke:#000000;" x="44.567" xlink:href="#maecbb88a55" y="187.385371"/>
      </g>
     </g>
     <g id="text_7">
      <!-- 25 -->
      <defs>
       <path d="M 10.796875 72.90625 
L 49.515625 72.90625 
L 49.515625 64.59375 
L 19.828125 64.59375 
L 19.828125 46.734375 
Q 21.96875 47.46875 24.109375 47.828125 
Q 26.265625 48.1875 28.421875 48.1875 
Q 40.625 48.1875 47.75 41.5 
Q 54.890625 34.8125 54.890625 23.390625 
Q 54.890625 11.625 47.5625 5.09375 
Q 40.234375 -1.421875 26.90625 -1.421875 
Q 22.3125 -1.421875 17.546875 -0.640625 
Q 12.796875 0.140625 7.71875 1.703125 
L 7.71875 11.625 
Q 12.109375 9.234375 16.796875 8.0625 
Q 21.484375 6.890625 26.703125 6.890625 
Q 35.15625 6.890625 40.078125 11.328125 
Q 45.015625 15.765625 45.015625 23.390625 
Q 45.015625 31 40.078125 35.4375 
Q 35.15625 39.890625 26.703125 39.890625 
Q 22.75 39.890625 18.8125 39.015625 
Q 14.890625 38.140625 10.796875 36.28125 
z
" id="DejaVuSans-53"/>
      </defs>
      <g style="fill:#4d4d4d;" transform="translate(28.419 189.813621)scale(0.088 -0.088)">
       <use xlink:href="#DejaVuSans-50"/>
       <use x="63.623047" xlink:href="#DejaVuSans-53"/>
      </g>
     </g>
    </g>
    <g id="ytick_3">
     <g id="line2d_19">
      <path clip-path="url(#p5a4cce368a)" d="M 44.567 136.985371 
L 490.967 136.985371 
" style="fill:none;stroke:#e5e5e5;stroke-width:0.8;"/>
     </g>
     <g id="line2d_20">
      <path d="M 44.567 136.985371 
" style="fill:none;stroke:#000000;stroke-width:1.5;"/>
      <g>
       <use style="stroke:#000000;" x="44.567" xlink:href="#maecbb88a55" y="136.985371"/>
      </g>
     </g>
     <g id="text_8">
      <!-- 50 -->
      <g style="fill:#4d4d4d;" transform="translate(28.419 139.413621)scale(0.088 -0.088)">
       <use xlink:href="#DejaVuSans-53"/>
       <use x="63.623047" xlink:href="#DejaVuSans-48"/>
      </g>
     </g>
    </g>
    <g id="ytick_4">
     <g id="line2d_21">
      <path clip-path="url(#p5a4cce368a)" d="M 44.567 86.585371 
L 490.967 86.585371 
" style="fill:none;stroke:#e5e5e5;stroke-width:0.8;"/>
     </g>
     <g id="line2d_22">
      <path d="M 44.567 86.585371 
" style="fill:none;stroke:#000000;stroke-width:1.5;"/>
      <g>
       <use style="stroke:#000000;" x="44.567" xlink:href="#maecbb88a55" y="86.585371"/>
      </g>
     </g>
     <g id="text_9">
      <!-- 75 -->
      <defs>
       <path d="M 8.203125 72.90625 
L 55.078125 72.90625 
L 55.078125 68.703125 
L 28.609375 0 
L 18.3125 0 
L 43.21875 64.59375 
L 8.203125 64.59375 
z
" id="DejaVuSans-55"/>
      </defs>
      <g style="fill:#4d4d4d;" transform="translate(28.419 89.013621)scale(0.088 -0.088)">
       <use xlink:href="#DejaVuSans-55"/>
       <use x="63.623047" xlink:href="#DejaVuSans-53"/>
      </g>
     </g>
    </g>
    <g id="ytick_5">
     <g id="line2d_23">
      <path clip-path="url(#p5a4cce368a)" d="M 44.567 36.185371 
L 490.967 36.185371 
" style="fill:none;stroke:#e5e5e5;stroke-width:0.8;"/>
     </g>
     <g id="line2d_24">
      <path d="M 44.567 36.185371 
" style="fill:none;stroke:#000000;stroke-width:1.5;"/>
      <g>
       <use style="stroke:#000000;" x="44.567" xlink:href="#maecbb88a55" y="36.185371"/>
      </g>
     </g>
     <g id="text_10">
      <!-- 100 -->
      <g style="fill:#4d4d4d;" transform="translate(22.82 38.613621)scale(0.088 -0.088)">
       <use xlink:href="#DejaVuSans-49"/>
       <use x="63.623047" xlink:href="#DejaVuSans-48"/>
       <use x="127.246094" xlink:href="#DejaVuSans-48"/>
      </g>
     </g>
    </g>
    <g id="ytick_6">
     <g id="line2d_25">
      <path clip-path="url(#p5a4cce368a)" d="M 44.567 212.585371 
L 490.967 212.585371 
" style="fill:none;stroke:#fafafa;"/>
     </g>
     <g id="line2d_26">
      <path d="M 44.567 212.585371 
" style="fill:none;stroke:#000000;stroke-width:1.5;"/>
      <defs>
       <path d="M 0 0 
L -1.375 0 
" id="m8e1bcfd14d" style="stroke:#000000;"/>
      </defs>
      <g>
       <use style="stroke:#000000;" x="44.567" xlink:href="#m8e1bcfd14d" y="212.585371"/>
      </g>
     </g>
    </g>
    <g id="ytick_7">
     <g id="line2d_27">
      <path clip-path="url(#p5a4cce368a)" d="M 44.567 162.185371 
L 490.967 162.185371 
" style="fill:none;stroke:#fafafa;"/>
     </g>
     <g id="line2d_28">
      <path d="M 44.567 162.185371 
" style="fill:none;stroke:#000000;stroke-width:1.5;"/>
      <g>
       <use style="stroke:#000000;" x="44.567" xlink:href="#m8e1bcfd14d" y="162.185371"/>
      </g>
     </g>
    </g>
    <g id="ytick_8">
     <g id="line2d_29">
      <path clip-path="url(#p5a4cce368a)" d="M 44.567 111.785371 
L 490.967 111.785371 
" style="fill:none;stroke:#fafafa;"/>
     </g>
     <g id="line2d_30">
      <path d="M 44.567 111.785371 
" style="fill:none;stroke:#000000;stroke-width:1.5;"/>
      <g>
       <use style="stroke:#000000;" x="44.567" xlink:href="#m8e1bcfd14d" y="111.785371"/>
      </g>
     </g>
    </g>
    <g id="ytick_9">
     <g id="line2d_31">
      <path clip-path="url(#p5a4cce368a)" d="M 44.567 61.385371 
L 490.967 61.385371 
" style="fill:none;stroke:#fafafa;"/>
     </g>
     <g id="line2d_32">
      <path d="M 44.567 61.385371 
" style="fill:none;stroke:#000000;stroke-width:1.5;"/>
      <g>
       <use style="stroke:#000000;" x="44.567" xlink:href="#m8e1bcfd14d" y="61.385371"/>
      </g>
     </g>
    </g>
    <g id="text_11">
     <!-- $P_{Q1}(t)$ [%] -->
     <defs>
      <path d="M 16.890625 72.90625 
L 39.703125 72.90625 
Q 49.65625 72.90625 54.875 68.265625 
Q 60.109375 63.625 60.109375 54.6875 
Q 60.109375 42.671875 52.390625 35.984375 
Q 44.671875 29.296875 30.71875 29.296875 
L 18.3125 29.296875 
L 12.59375 0 
L 2.6875 0 
z
M 25.203125 64.796875 
L 19.921875 37.40625 
L 32.328125 37.40625 
Q 40.71875 37.40625 45.203125 41.703125 
Q 49.703125 46 49.703125 54 
Q 49.703125 59.125 46.65625 61.953125 
Q 43.609375 64.796875 38.09375 64.796875 
z
" id="DejaVuSans-Oblique-80"/>
      <path d="M 36.078125 -1.3125 
Q 35.546875 -1.375 34.953125 -1.390625 
Q 34.375 -1.421875 33.203125 -1.421875 
Q 19.53125 -1.421875 11.8125 6.421875 
Q 4.109375 14.265625 4.109375 28.078125 
Q 4.109375 36.234375 7.0625 44.4375 
Q 10.015625 52.640625 15.28125 59.1875 
Q 21.390625 66.703125 29.03125 70.453125 
Q 36.671875 74.21875 45.90625 74.21875 
Q 59.28125 74.21875 66.984375 66.328125 
Q 74.703125 58.453125 74.703125 44.828125 
Q 74.703125 30.125 66.640625 17.921875 
Q 58.59375 5.71875 45.609375 0.6875 
L 55.515625 -12.890625 
L 44.484375 -12.890625 
z
M 45.609375 66.21875 
Q 37.5 66.21875 31.296875 62.28125 
Q 25.09375 58.34375 20.515625 50.296875 
Q 17.578125 45.171875 16.03125 39.40625 
Q 14.5 33.640625 14.5 27.78125 
Q 14.5 17.625 19.359375 12.109375 
Q 24.21875 6.59375 33.109375 6.59375 
Q 41.109375 6.59375 47.375 10.5625 
Q 53.65625 14.546875 58.109375 22.40625 
Q 61.078125 27.6875 62.640625 33.46875 
Q 64.203125 39.265625 64.203125 45.015625 
Q 64.203125 55.125 59.3125 60.671875 
Q 54.4375 66.21875 45.609375 66.21875 
z
" id="DejaVuSans-Oblique-81"/>
      <path d="M 31 75.875 
Q 24.46875 64.65625 21.28125 53.65625 
Q 18.109375 42.671875 18.109375 31.390625 
Q 18.109375 20.125 21.3125 9.0625 
Q 24.515625 -2 31 -13.1875 
L 23.1875 -13.1875 
Q 15.875 -1.703125 12.234375 9.375 
Q 8.59375 20.453125 8.59375 31.390625 
Q 8.59375 42.28125 12.203125 53.3125 
Q 15.828125 64.359375 23.1875 75.875 
z
" id="DejaVuSans-40"/>
      <path d="M 42.28125 54.6875 
L 40.921875 47.703125 
L 23 47.703125 
L 17.1875 18.015625 
Q 16.890625 16.359375 16.75 15.234375 
Q 16.609375 14.109375 16.609375 13.484375 
Q 16.609375 10.359375 18.484375 8.9375 
Q 20.359375 7.515625 24.515625 7.515625 
L 33.59375 7.515625 
L 32.078125 0 
L 23.484375 0 
Q 15.484375 0 11.546875 3.125 
Q 7.625 6.25 7.625 12.59375 
Q 7.625 13.71875 7.765625 15.0625 
Q 7.90625 16.40625 8.203125 18.015625 
L 14.015625 47.703125 
L 6.390625 47.703125 
L 7.8125 54.6875 
L 15.28125 54.6875 
L 18.3125 70.21875 
L 27.296875 70.21875 
L 24.3125 54.6875 
z
" id="DejaVuSans-Oblique-116"/>
      <path d="M 8.015625 75.875 
L 15.828125 75.875 
Q 23.140625 64.359375 26.78125 53.3125 
Q 30.421875 42.28125 30.421875 31.390625 
Q 30.421875 20.453125 26.78125 9.375 
Q 23.140625 -1.703125 15.828125 -13.1875 
L 8.015625 -13.1875 
Q 14.5 -2 17.703125 9.0625 
Q 20.90625 20.125 20.90625 31.390625 
Q 20.90625 42.671875 17.703125 53.65625 
Q 14.5 64.65625 8.015625 75.875 
z
" id="DejaVuSans-41"/>
      <path id="DejaVuSans-32"/>
      <path d="M 8.59375 75.984375 
L 29.296875 75.984375 
L 29.296875 69 
L 17.578125 69 
L 17.578125 -6.203125 
L 29.296875 -6.203125 
L 29.296875 -13.1875 
L 8.59375 -13.1875 
z
" id="DejaVuSans-91"/>
      <path d="M 72.703125 32.078125 
Q 68.453125 32.078125 66.03125 28.46875 
Q 63.625 24.859375 63.625 18.40625 
Q 63.625 12.0625 66.03125 8.421875 
Q 68.453125 4.78125 72.703125 4.78125 
Q 76.859375 4.78125 79.265625 8.421875 
Q 81.6875 12.0625 81.6875 18.40625 
Q 81.6875 24.8125 79.265625 28.4375 
Q 76.859375 32.078125 72.703125 32.078125 
z
M 72.703125 38.28125 
Q 80.421875 38.28125 84.953125 32.90625 
Q 89.5 27.546875 89.5 18.40625 
Q 89.5 9.28125 84.9375 3.921875 
Q 80.375 -1.421875 72.703125 -1.421875 
Q 64.890625 -1.421875 60.34375 3.921875 
Q 55.8125 9.28125 55.8125 18.40625 
Q 55.8125 27.59375 60.375 32.9375 
Q 64.9375 38.28125 72.703125 38.28125 
z
M 22.3125 68.015625 
Q 18.109375 68.015625 15.6875 64.375 
Q 13.28125 60.75 13.28125 54.390625 
Q 13.28125 47.953125 15.671875 44.328125 
Q 18.0625 40.71875 22.3125 40.71875 
Q 26.5625 40.71875 28.96875 44.328125 
Q 31.390625 47.953125 31.390625 54.390625 
Q 31.390625 60.6875 28.953125 64.34375 
Q 26.515625 68.015625 22.3125 68.015625 
z
M 66.40625 74.21875 
L 74.21875 74.21875 
L 28.609375 -1.421875 
L 20.796875 -1.421875 
z
M 22.3125 74.21875 
Q 30.03125 74.21875 34.609375 68.875 
Q 39.203125 63.53125 39.203125 54.390625 
Q 39.203125 45.171875 34.640625 39.84375 
Q 30.078125 34.515625 22.3125 34.515625 
Q 14.546875 34.515625 10.03125 39.859375 
Q 5.515625 45.21875 5.515625 54.390625 
Q 5.515625 63.484375 10.046875 68.84375 
Q 14.59375 74.21875 22.3125 74.21875 
z
" id="DejaVuSans-37"/>
      <path d="M 30.421875 75.984375 
L 30.421875 -13.1875 
L 9.71875 -13.1875 
L 9.71875 -6.203125 
L 21.390625 -6.203125 
L 21.390625 69 
L 9.71875 69 
L 9.71875 75.984375 
z
" id="DejaVuSans-93"/>
     </defs>
     <g transform="translate(15.56 162.220371)rotate(-90)scale(0.11 -0.11)">
      <use transform="translate(0 0.015625)" xlink:href="#DejaVuSans-Oblique-80"/>
      <use transform="translate(60.302734 -16.390625)scale(0.7)" xlink:href="#DejaVuSans-Oblique-81"/>
      <use transform="translate(115.400391 -16.390625)scale(0.7)" xlink:href="#DejaVuSans-49"/>
      <use transform="translate(162.670898 0.015625)" xlink:href="#DejaVuSans-40"/>
      <use transform="translate(201.68457 0.015625)" xlink:href="#DejaVuSans-Oblique-116"/>
      <use transform="translate(240.893555 0.015625)" xlink:href="#DejaVuSans-41"/>
      <use transform="translate(279.907227 0.015625)" xlink:href="#DejaVuSans-32"/>
      <use transform="translate(311.694336 0.015625)" xlink:href="#DejaVuSans-91"/>
      <use transform="translate(350.708008 0.015625)" xlink:href="#DejaVuSans-37"/>
      <use transform="translate(445.727539 0.015625)" xlink:href="#DejaVuSans-93"/>
     </g>
    </g>
   </g>
   <g id="PathCollection_1">
    <path clip-path="url(#p5a4cce368a)" d="M 64.857909 64.034046 
C 65.327969 64.034046 65.77884 63.847289 66.111223 63.514906 
C 66.443606 63.182523 66.630363 62.731652 66.630363 62.261592 
C 66.630363 61.791532 66.443606 61.340661 66.111223 61.008278 
C 65.77884 60.675895 65.327969 60.489138 64.857909 60.489138 
C 64.387849 60.489138 63.936978 60.675895 63.604595 61.008278 
C 63.272212 61.340661 63.085455 61.791532 63.085455 62.261592 
C 63.085455 62.731652 63.272212 63.182523 63.604595 63.514906 
C 63.936978 63.847289 64.387849 64.034046 64.857909 64.034046 
z
" style="stroke:#000000;stroke-width:0.886227;"/>
    <path clip-path="url(#p5a4cce368a)" d="M 78.385182 65.61475 
C 78.855242 65.61475 79.306113 65.427993 79.638496 65.09561 
C 79.970879 64.763227 80.157636 64.312356 80.157636 63.842296 
C 80.157636 63.372236 79.970879 62.921365 79.638496 62.588982 
C 79.306113 62.256599 78.855242 62.069842 78.385182 62.069842 
C 77.915122 62.069842 77.46425 62.256599 77.131868 62.588982 
C 76.799485 62.921365 76.612728 63.372236 76.612728 63.842296 
C 76.612728 64.312356 76.799485 64.763227 77.131868 65.09561 
C 77.46425 65.427993 77.915122 65.61475 78.385182 65.61475 
z
" style="stroke:#000000;stroke-width:0.886227;"/>
    <path clip-path="url(#p5a4cce368a)" d="M 91.912455 70.089519 
C 92.382515 70.089519 92.833386 69.902763 93.165769 69.57038 
C 93.498151 69.237997 93.684908 68.787126 93.684908 68.317066 
C 93.684908 67.847005 93.498151 67.396134 93.165769 67.063751 
C 92.833386 66.731369 92.382515 66.544612 91.912455 66.544612 
C 91.442394 66.544612 90.991523 66.731369 90.65914 67.063751 
C 90.326758 67.396134 90.140001 67.847005 90.140001 68.317066 
C 90.140001 68.787126 90.326758 69.237997 90.65914 69.57038 
C 90.991523 69.902763 91.442394 70.089519 91.912455 70.089519 
z
" style="stroke:#000000;stroke-width:0.886227;"/>
    <path clip-path="url(#p5a4cce368a)" d="M 105.439727 71.343875 
C 105.909788 71.343875 106.360659 71.157118 106.693041 70.824735 
C 107.025424 70.492352 107.212181 70.041481 107.212181 69.571421 
C 107.212181 69.101361 107.025424 68.65049 106.693041 68.318107 
C 106.360659 67.985724 105.909788 67.798967 105.439727 67.798967 
C 104.969667 67.798967 104.518796 67.985724 104.186413 68.318107 
C 103.85403 68.65049 103.667273 69.101361 103.667273 69.571421 
C 103.667273 70.041481 103.85403 70.492352 104.186413 70.824735 
C 104.518796 71.157118 104.969667 71.343875 105.439727 71.343875 
z
" style="stroke:#000000;stroke-width:0.886227;"/>
    <path clip-path="url(#p5a4cce368a)" d="M 118.967 77.776621 
C 119.43706 77.776621 119.887931 77.589864 120.220314 77.257481 
C 120.552697 76.925098 120.739454 76.474227 120.739454 76.004167 
C 120.739454 75.534107 120.552697 75.083236 120.220314 74.750853 
C 119.887931 74.41847 119.43706 74.231713 118.967 74.231713 
C 118.49694 74.231713 118.046069 74.41847 117.713686 74.750853 
C 117.381303 75.083236 117.194546 75.534107 117.194546 76.004167 
C 117.194546 76.474227 117.381303 76.925098 117.713686 77.257481 
C 118.046069 77.589864 118.49694 77.776621 118.967 77.776621 
z
" style="stroke:#000000;stroke-width:0.886227;"/>
    <path clip-path="url(#p5a4cce368a)" d="M 132.494273 83.948173 
C 132.964333 83.948173 133.415204 83.761416 133.747587 83.429034 
C 134.07997 83.096651 134.266727 82.64578 134.266727 82.17572 
C 134.266727 81.705659 134.07997 81.254788 133.747587 80.922405 
C 133.415204 80.590023 132.964333 80.403266 132.494273 80.403266 
C 132.024212 80.403266 131.573341 80.590023 131.240959 80.922405 
C 130.908576 81.254788 130.721819 81.705659 130.721819 82.17572 
C 130.721819 82.64578 130.908576 83.096651 131.240959 83.429034 
C 131.573341 83.761416 132.024212 83.948173 132.494273 83.948173 
z
" style="stroke:#000000;stroke-width:0.886227;"/>
    <path clip-path="url(#p5a4cce368a)" d="M 146.021545 87.894433 
C 146.491606 87.894433 146.942477 87.707676 147.27486 87.375293 
C 147.607242 87.04291 147.793999 86.592039 147.793999 86.121979 
C 147.793999 85.651918 147.607242 85.201047 147.27486 84.868665 
C 146.942477 84.536282 146.491606 84.349525 146.021545 84.349525 
C 145.551485 84.349525 145.100614 84.536282 144.768231 84.868665 
C 144.435849 85.201047 144.249092 85.651918 144.249092 86.121979 
C 144.249092 86.592039 144.435849 87.04291 144.768231 87.375293 
C 145.100614 87.707676 145.551485 87.894433 146.021545 87.894433 
z
" style="stroke:#000000;stroke-width:0.886227;"/>
    <path clip-path="url(#p5a4cce368a)" d="M 159.548818 95.119945 
C 160.018878 95.119945 160.46975 94.933188 160.802132 94.600805 
C 161.134515 94.268422 161.321272 93.817551 161.321272 93.347491 
C 161.321272 92.87743 161.134515 92.426559 160.802132 92.094177 
C 160.46975 91.761794 160.018878 91.575037 159.548818 91.575037 
C 159.078758 91.575037 158.627887 91.761794 158.295504 92.094177 
C 157.963121 92.426559 157.776364 92.87743 157.776364 93.347491 
C 157.776364 93.817551 157.963121 94.268422 158.295504 94.600805 
C 158.627887 94.933188 159.078758 95.119945 159.548818 95.119945 
z
" style="stroke:#000000;stroke-width:0.886227;"/>
    <path clip-path="url(#p5a4cce368a)" d="M 173.076091 97.458681 
C 173.546151 97.458681 173.997022 97.271924 174.329405 96.939541 
C 174.661788 96.607158 174.848545 96.156287 174.848545 95.686227 
C 174.848545 95.216167 174.661788 94.765296 174.329405 94.432913 
C 173.997022 94.10053 173.546151 93.913773 173.076091 93.913773 
C 172.606031 93.913773 172.15516 94.10053 171.822777 94.432913 
C 171.490394 94.765296 171.303637 95.216167 171.303637 95.686227 
C 171.303637 96.156287 171.490394 96.607158 171.822777 96.939541 
C 172.15516 97.271924 172.606031 97.458681 173.076091 97.458681 
z
" style="stroke:#000000;stroke-width:0.886227;"/>
    <path clip-path="url(#p5a4cce368a)" d="M 186.603364 109.296627 
C 187.073424 109.296627 187.524295 109.10987 187.856678 108.777487 
C 188.189061 108.445105 188.375817 107.994234 188.375817 107.524173 
C 188.375817 107.054113 188.189061 106.603242 187.856678 106.270859 
C 187.524295 105.938476 187.073424 105.751719 186.603364 105.751719 
C 186.133303 105.751719 185.682432 105.938476 185.350049 106.270859 
C 185.017667 106.603242 184.83091 107.054113 184.83091 107.524173 
C 184.83091 107.994234 185.017667 108.445105 185.350049 108.777487 
C 185.682432 109.10987 186.133303 109.296627 186.603364 109.296627 
z
" style="stroke:#000000;stroke-width:0.886227;"/>
    <path clip-path="url(#p5a4cce368a)" d="M 200.130636 118.095139 
C 200.600697 118.095139 201.051568 117.908382 201.383951 117.575999 
C 201.716333 117.243616 201.90309 116.792745 201.90309 116.322685 
C 201.90309 115.852625 201.716333 115.401754 201.383951 115.069371 
C 201.051568 114.736988 200.600697 114.550231 200.130636 114.550231 
C 199.660576 114.550231 199.209705 114.736988 198.877322 115.069371 
C 198.544939 115.401754 198.358183 115.852625 198.358183 116.322685 
C 198.358183 116.792745 198.544939 117.243616 198.877322 117.575999 
C 199.209705 117.908382 199.660576 118.095139 200.130636 118.095139 
z
" style="stroke:#000000;stroke-width:0.886227;"/>
    <path clip-path="url(#p5a4cce368a)" d="M 213.657909 126.348307 
C 214.127969 126.348307 214.57884 126.16155 214.911223 125.829167 
C 215.243606 125.496784 215.430363 125.045913 215.430363 124.575853 
C 215.430363 124.105792 215.243606 123.654921 214.911223 123.322539 
C 214.57884 122.990156 214.127969 122.803399 213.657909 122.803399 
C 213.187849 122.803399 212.736978 122.990156 212.404595 123.322539 
C 212.072212 123.654921 211.885455 124.105792 211.885455 124.575853 
C 211.885455 125.045913 212.072212 125.496784 212.404595 125.829167 
C 212.736978 126.16155 213.187849 126.348307 213.657909 126.348307 
z
" style="stroke:#000000;stroke-width:0.886227;"/>
    <path clip-path="url(#p5a4cce368a)" d="M 227.185182 131.794839 
C 227.655242 131.794839 228.106113 131.608082 228.438496 131.275699 
C 228.770879 130.943316 228.957636 130.492445 228.957636 130.022385 
C 228.957636 129.552325 228.770879 129.101454 228.438496 128.769071 
C 228.106113 128.436688 227.655242 128.249931 227.185182 128.249931 
C 226.715122 128.249931 226.26425 128.436688 225.931868 128.769071 
C 225.599485 129.101454 225.412728 129.552325 225.412728 130.022385 
C 225.412728 130.492445 225.599485 130.943316 225.931868 131.275699 
C 226.26425 131.608082 226.715122 131.794839 227.185182 131.794839 
z
" style="stroke:#000000;stroke-width:0.886227;"/>
    <path clip-path="url(#p5a4cce368a)" d="M 240.712455 144.305508 
C 241.182515 144.305508 241.633386 144.118751 241.965769 143.786368 
C 242.298151 143.453985 242.484908 143.003114 242.484908 142.533054 
C 242.484908 142.062994 242.298151 141.612123 241.965769 141.27974 
C 241.633386 140.947357 241.182515 140.7606 240.712455 140.7606 
C 240.242394 140.7606 239.791523 140.947357 239.45914 141.27974 
C 239.126758 141.612123 238.940001 142.062994 238.940001 142.533054 
C 238.940001 143.003114 239.126758 143.453985 239.45914 143.786368 
C 239.791523 144.118751 240.242394 144.305508 240.712455 144.305508 
z
" style="stroke:#000000;stroke-width:0.886227;"/>
    <path clip-path="url(#p5a4cce368a)" d="M 254.239727 145.184309 
C 254.709788 145.184309 255.160659 144.997552 255.493041 144.665169 
C 255.825424 144.332787 256.012181 143.881915 256.012181 143.411855 
C 256.012181 142.941795 255.825424 142.490924 255.493041 142.158541 
C 255.160659 141.826158 254.709788 141.639401 254.239727 141.639401 
C 253.769667 141.639401 253.318796 141.826158 252.986413 142.158541 
C 252.65403 142.490924 252.467273 142.941795 252.467273 143.411855 
C 252.467273 143.881915 252.65403 144.332787 252.986413 144.665169 
C 253.318796 144.997552 253.769667 145.184309 254.239727 145.184309 
z
" style="stroke:#000000;stroke-width:0.886227;"/>
    <path clip-path="url(#p5a4cce368a)" d="M 267.767 154.044414 
C 268.23706 154.044414 268.687931 153.857657 269.020314 153.525274 
C 269.352697 153.192892 269.539454 152.74202 269.539454 152.27196 
C 269.539454 151.8019 269.352697 151.351029 269.020314 151.018646 
C 268.687931 150.686263 268.23706 150.499506 267.767 150.499506 
C 267.29694 150.499506 266.846069 150.686263 266.513686 151.018646 
C 266.181303 151.351029 265.994546 151.8019 265.994546 152.27196 
C 265.994546 152.74202 266.181303 153.192892 266.513686 153.525274 
C 266.846069 153.857657 267.29694 154.044414 267.767 154.044414 
z
" style="stroke:#000000;stroke-width:0.886227;"/>
    <path clip-path="url(#p5a4cce368a)" d="M 281.294273 153.294789 
C 281.764333 153.294789 282.215204 153.108033 282.547587 152.77565 
C 282.87997 152.443267 283.066727 151.992396 283.066727 151.522336 
C 283.066727 151.052275 282.87997 150.601404 282.547587 150.269021 
C 282.215204 149.936639 281.764333 149.749882 281.294273 149.749882 
C 280.824212 149.749882 280.373341 149.936639 280.040959 150.269021 
C 279.708576 150.601404 279.521819 151.052275 279.521819 151.522336 
C 279.521819 151.992396 279.708576 152.443267 280.040959 152.77565 
C 280.373341 153.108033 280.824212 153.294789 281.294273 153.294789 
z
" style="stroke:#000000;stroke-width:0.886227;"/>
    <path clip-path="url(#p5a4cce368a)" d="M 294.821545 160.559807 
C 295.291606 160.559807 295.742477 160.37305 296.07486 160.040668 
C 296.407242 159.708285 296.593999 159.257414 296.593999 158.787354 
C 296.593999 158.317293 296.407242 157.866422 296.07486 157.534039 
C 295.742477 157.201657 295.291606 157.0149 294.821545 157.0149 
C 294.351485 157.0149 293.900614 157.201657 293.568231 157.534039 
C 293.235849 157.866422 293.049092 158.317293 293.049092 158.787354 
C 293.049092 159.257414 293.235849 159.708285 293.568231 160.040668 
C 293.900614 160.37305 294.351485 160.559807 294.821545 160.559807 
z
" style="stroke:#000000;stroke-width:0.886227;"/>
    <path clip-path="url(#p5a4cce368a)" d="M 308.348818 161.748616 
C 308.818878 161.748616 309.26975 161.561859 309.602132 161.229476 
C 309.934515 160.897093 310.121272 160.446222 310.121272 159.976162 
C 310.121272 159.506101 309.934515 159.05523 309.602132 158.722848 
C 309.26975 158.390465 308.818878 158.203708 308.348818 158.203708 
C 307.878758 158.203708 307.427887 158.390465 307.095504 158.722848 
C 306.763121 159.05523 306.576364 159.506101 306.576364 159.976162 
C 306.576364 160.446222 306.763121 160.897093 307.095504 161.229476 
C 307.427887 161.561859 307.878758 161.748616 308.348818 161.748616 
z
" style="stroke:#000000;stroke-width:0.886227;"/>
    <path clip-path="url(#p5a4cce368a)" d="M 321.876091 167.630784 
C 322.346151 167.630784 322.797022 167.444027 323.129405 167.111644 
C 323.461788 166.779261 323.648545 166.32839 323.648545 165.85833 
C 323.648545 165.38827 323.461788 164.937399 323.129405 164.605016 
C 322.797022 164.272633 322.346151 164.085876 321.876091 164.085876 
C 321.406031 164.085876 320.95516 164.272633 320.622777 164.605016 
C 320.290394 164.937399 320.103637 165.38827 320.103637 165.85833 
C 320.103637 166.32839 320.290394 166.779261 320.622777 167.111644 
C 320.95516 167.444027 321.406031 167.630784 321.876091 167.630784 
z
" style="stroke:#000000;stroke-width:0.886227;"/>
    <path clip-path="url(#p5a4cce368a)" d="M 335.403364 160.057287 
C 335.873424 160.057287 336.324295 159.87053 336.656678 159.538148 
C 336.989061 159.205765 337.175817 158.754894 337.175817 158.284834 
C 337.175817 157.814773 336.989061 157.363902 336.656678 157.031519 
C 336.324295 156.699137 335.873424 156.51238 335.403364 156.51238 
C 334.933303 156.51238 334.482432 156.699137 334.150049 157.031519 
C 333.817667 157.363902 333.63091 157.814773 333.63091 158.284834 
C 333.63091 158.754894 333.817667 159.205765 334.150049 159.538148 
C 334.482432 159.87053 334.933303 160.057287 335.403364 160.057287 
z
" style="stroke:#000000;stroke-width:0.886227;"/>
    <path clip-path="url(#p5a4cce368a)" d="M 348.930636 160.799889 
C 349.400697 160.799889 349.851568 160.613132 350.183951 160.280749 
C 350.516333 159.948367 350.70309 159.497495 350.70309 159.027435 
C 350.70309 158.557375 350.516333 158.106504 350.183951 157.774121 
C 349.851568 157.441738 349.400697 157.254981 348.930636 157.254981 
C 348.460576 157.254981 348.009705 157.441738 347.677322 157.774121 
C 347.344939 158.106504 347.158183 158.557375 347.158183 159.027435 
C 347.158183 159.497495 347.344939 159.948367 347.677322 160.280749 
C 348.009705 160.613132 348.460576 160.799889 348.930636 160.799889 
z
" style="stroke:#000000;stroke-width:0.886227;"/>
    <path clip-path="url(#p5a4cce368a)" d="M 362.457909 168.403156 
C 362.927969 168.403156 363.37884 168.216399 363.711223 167.884017 
C 364.043606 167.551634 364.230363 167.100763 364.230363 166.630702 
C 364.230363 166.160642 364.043606 165.709771 363.711223 165.377388 
C 363.37884 165.045005 362.927969 164.858249 362.457909 164.858249 
C 361.987849 164.858249 361.536978 165.045005 361.204595 165.377388 
C 360.872212 165.709771 360.685455 166.160642 360.685455 166.630702 
C 360.685455 167.100763 360.872212 167.551634 361.204595 167.884017 
C 361.536978 168.216399 361.987849 168.403156 362.457909 168.403156 
z
" style="stroke:#000000;stroke-width:0.886227;"/>
    <path clip-path="url(#p5a4cce368a)" d="M 375.985182 176.174004 
C 376.455242 176.174004 376.906113 175.987247 377.238496 175.654864 
C 377.570879 175.322482 377.757636 174.87161 377.757636 174.40155 
C 377.757636 173.93149 377.570879 173.480619 377.238496 173.148236 
C 376.906113 172.815853 376.455242 172.629096 375.985182 172.629096 
C 375.515122 172.629096 375.06425 172.815853 374.731868 173.148236 
C 374.399485 173.480619 374.212728 173.93149 374.212728 174.40155 
C 374.212728 174.87161 374.399485 175.322482 374.731868 175.654864 
C 375.06425 175.987247 375.515122 176.174004 375.985182 176.174004 
z
" style="stroke:#000000;stroke-width:0.886227;"/>
    <path clip-path="url(#p5a4cce368a)" d="M 389.512455 185.951813 
C 389.982515 185.951813 390.433386 185.765056 390.765769 185.432673 
C 391.098151 185.10029 391.284908 184.649419 391.284908 184.179359 
C 391.284908 183.709299 391.098151 183.258427 390.765769 182.926045 
C 390.433386 182.593662 389.982515 182.406905 389.512455 182.406905 
C 389.042394 182.406905 388.591523 182.593662 388.25914 182.926045 
C 387.926758 183.258427 387.740001 183.709299 387.740001 184.179359 
C 387.740001 184.649419 387.926758 185.10029 388.25914 185.432673 
C 388.591523 185.765056 389.042394 185.951813 389.512455 185.951813 
z
" style="stroke:#000000;stroke-width:0.886227;"/>
    <path clip-path="url(#p5a4cce368a)" d="M 403.039727 178.278455 
C 403.509788 178.278455 403.960659 178.091698 404.293041 177.759315 
C 404.625424 177.426933 404.812181 176.976061 404.812181 176.506001 
C 404.812181 176.035941 404.625424 175.58507 404.293041 175.252687 
C 403.960659 174.920304 403.509788 174.733547 403.039727 174.733547 
C 402.569667 174.733547 402.118796 174.920304 401.786413 175.252687 
C 401.45403 175.58507 401.267273 176.035941 401.267273 176.506001 
C 401.267273 176.976061 401.45403 177.426933 401.786413 177.759315 
C 402.118796 178.091698 402.569667 178.278455 403.039727 178.278455 
z
" style="stroke:#000000;stroke-width:0.886227;"/>
    <path clip-path="url(#p5a4cce368a)" d="M 416.567 177.501899 
C 417.03706 177.501899 417.487931 177.315142 417.820314 176.982759 
C 418.152697 176.650376 418.339454 176.199505 418.339454 175.729445 
C 418.339454 175.259385 418.152697 174.808513 417.820314 174.476131 
C 417.487931 174.143748 417.03706 173.956991 416.567 173.956991 
C 416.09694 173.956991 415.646069 174.143748 415.313686 174.476131 
C 414.981303 174.808513 414.794546 175.259385 414.794546 175.729445 
C 414.794546 176.199505 414.981303 176.650376 415.313686 176.982759 
C 415.646069 177.315142 416.09694 177.501899 416.567 177.501899 
z
" style="stroke:#000000;stroke-width:0.886227;"/>
    <path clip-path="url(#p5a4cce368a)" d="M 430.094273 185.13217 
C 430.564333 185.13217 431.015204 184.945413 431.347587 184.61303 
C 431.67997 184.280648 431.866727 183.829777 431.866727 183.359716 
C 431.866727 182.889656 431.67997 182.438785 431.347587 182.106402 
C 431.015204 181.774019 430.564333 181.587263 430.094273 181.587263 
C 429.624212 181.587263 429.173341 181.774019 428.840959 182.106402 
C 428.508576 182.438785 428.321819 182.889656 428.321819 183.359716 
C 428.321819 183.829777 428.508576 184.280648 428.840959 184.61303 
C 429.173341 184.945413 429.624212 185.13217 430.094273 185.13217 
z
" style="stroke:#000000;stroke-width:0.886227;"/>
    <path clip-path="url(#p5a4cce368a)" d="M 443.621545 185.665232 
C 444.091606 185.665232 444.542477 185.478475 444.87486 185.146093 
C 445.207242 184.81371 445.393999 184.362839 445.393999 183.892778 
C 445.393999 183.422718 445.207242 182.971847 444.87486 182.639464 
C 444.542477 182.307082 444.091606 182.120325 443.621545 182.120325 
C 443.151485 182.120325 442.700614 182.307082 442.368231 182.639464 
C 442.035849 182.971847 441.849092 183.422718 441.849092 183.892778 
C 441.849092 184.362839 442.035849 184.81371 442.368231 185.146093 
C 442.700614 185.478475 443.151485 185.665232 443.621545 185.665232 
z
" style="stroke:#000000;stroke-width:0.886227;"/>
    <path clip-path="url(#p5a4cce368a)" d="M 457.148818 191.66138 
C 457.618878 191.66138 458.06975 191.474623 458.402132 191.142241 
C 458.734515 190.809858 458.921272 190.358987 458.921272 189.888927 
C 458.921272 189.418866 458.734515 188.967995 458.402132 188.635612 
C 458.06975 188.30323 457.618878 188.116473 457.148818 188.116473 
C 456.678758 188.116473 456.227887 188.30323 455.895504 188.635612 
C 455.563121 188.967995 455.376364 189.418866 455.376364 189.888927 
C 455.376364 190.358987 455.563121 190.809858 455.895504 191.142241 
C 456.227887 191.474623 456.678758 191.66138 457.148818 191.66138 
z
" style="stroke:#000000;stroke-width:0.886227;"/>
    <path clip-path="url(#p5a4cce368a)" d="M 470.676091 183.81357 
C 471.146151 183.81357 471.597022 183.626813 471.929405 183.29443 
C 472.261788 182.962047 472.448545 182.511176 472.448545 182.041116 
C 472.448545 181.571056 472.261788 181.120185 471.929405 180.787802 
C 471.597022 180.455419 471.146151 180.268662 470.676091 180.268662 
C 470.206031 180.268662 469.75516 180.455419 469.422777 180.787802 
C 469.090394 181.120185 468.903637 181.571056 468.903637 182.041116 
C 468.903637 182.511176 469.090394 182.962047 469.422777 183.29443 
C 469.75516 183.626813 470.206031 183.81357 470.676091 183.81357 
z
" style="stroke:#000000;stroke-width:0.886227;"/>
   </g>
   <g id="line2d_33">
    <path clip-path="url(#p5a4cce368a)" d="M 64.857909 62.261592 
L 78.385182 63.842296 
L 91.912455 68.317066 
L 105.439727 69.571421 
L 118.967 76.004167 
L 132.494273 82.17572 
L 146.021545 86.121979 
L 159.548818 93.347491 
L 173.076091 95.686227 
L 186.603364 107.524173 
L 200.130636 116.322685 
L 213.657909 124.575853 
L 227.185182 130.022385 
L 240.712455 142.533054 
L 254.239727 143.411855 
L 267.767 152.27196 
L 281.294273 151.522336 
L 294.821545 158.787354 
L 308.348818 159.976162 
L 321.876091 165.85833 
L 335.403364 158.284834 
L 348.930636 159.027435 
L 362.457909 166.630702 
L 375.985182 174.40155 
L 389.512455 184.179359 
L 403.039727 176.506001 
L 416.567 175.729445 
L 430.094273 183.359716 
L 443.621545 183.892778 
L 457.148818 189.888927 
L 470.676091 182.041116 
" style="fill:none;stroke:#000000;stroke-width:0.886227;"/>
   </g>
  </g>
  <g id="text_12">
   <!-- All data with imputed missing values Q1(t) -->
   <defs>
    <path d="M 34.1875 63.1875 
L 20.796875 26.90625 
L 47.609375 26.90625 
z
M 28.609375 72.90625 
L 39.796875 72.90625 
L 67.578125 0 
L 57.328125 0 
L 50.6875 18.703125 
L 17.828125 18.703125 
L 11.1875 0 
L 0.78125 0 
z
" id="DejaVuSans-65"/>
    <path d="M 45.40625 46.390625 
L 45.40625 75.984375 
L 54.390625 75.984375 
L 54.390625 0 
L 45.40625 0 
L 45.40625 8.203125 
Q 42.578125 3.328125 38.25 0.953125 
Q 33.9375 -1.421875 27.875 -1.421875 
Q 17.96875 -1.421875 11.734375 6.484375 
Q 5.515625 14.40625 5.515625 27.296875 
Q 5.515625 40.1875 11.734375 48.09375 
Q 17.96875 56 27.875 56 
Q 33.9375 56 38.25 53.625 
Q 42.578125 51.265625 45.40625 46.390625 
z
M 14.796875 27.296875 
Q 14.796875 17.390625 18.875 11.75 
Q 22.953125 6.109375 30.078125 6.109375 
Q 37.203125 6.109375 41.296875 11.75 
Q 45.40625 17.390625 45.40625 27.296875 
Q 45.40625 37.203125 41.296875 42.84375 
Q 37.203125 48.484375 30.078125 48.484375 
Q 22.953125 48.484375 18.875 42.84375 
Q 14.796875 37.203125 14.796875 27.296875 
z
" id="DejaVuSans-100"/>
    <path d="M 34.28125 27.484375 
Q 23.390625 27.484375 19.1875 25 
Q 14.984375 22.515625 14.984375 16.5 
Q 14.984375 11.71875 18.140625 8.90625 
Q 21.296875 6.109375 26.703125 6.109375 
Q 34.1875 6.109375 38.703125 11.40625 
Q 43.21875 16.703125 43.21875 25.484375 
L 43.21875 27.484375 
z
M 52.203125 31.203125 
L 52.203125 0 
L 43.21875 0 
L 43.21875 8.296875 
Q 40.140625 3.328125 35.546875 0.953125 
Q 30.953125 -1.421875 24.3125 -1.421875 
Q 15.921875 -1.421875 10.953125 3.296875 
Q 6 8.015625 6 15.921875 
Q 6 25.140625 12.171875 29.828125 
Q 18.359375 34.515625 30.609375 34.515625 
L 43.21875 34.515625 
L 43.21875 35.40625 
Q 43.21875 41.609375 39.140625 45 
Q 35.0625 48.390625 27.6875 48.390625 
Q 23 48.390625 18.546875 47.265625 
Q 14.109375 46.140625 10.015625 43.890625 
L 10.015625 52.203125 
Q 14.9375 54.109375 19.578125 55.046875 
Q 24.21875 56 28.609375 56 
Q 40.484375 56 46.34375 49.84375 
Q 52.203125 43.703125 52.203125 31.203125 
z
" id="DejaVuSans-97"/>
    <path d="M 4.203125 54.6875 
L 13.1875 54.6875 
L 24.421875 12.015625 
L 35.59375 54.6875 
L 46.1875 54.6875 
L 57.421875 12.015625 
L 68.609375 54.6875 
L 77.59375 54.6875 
L 63.28125 0 
L 52.6875 0 
L 40.921875 44.828125 
L 29.109375 0 
L 18.5 0 
z
" id="DejaVuSans-119"/>
    <path d="M 54.890625 33.015625 
L 54.890625 0 
L 45.90625 0 
L 45.90625 32.71875 
Q 45.90625 40.484375 42.875 44.328125 
Q 39.84375 48.1875 33.796875 48.1875 
Q 26.515625 48.1875 22.3125 43.546875 
Q 18.109375 38.921875 18.109375 30.90625 
L 18.109375 0 
L 9.078125 0 
L 9.078125 75.984375 
L 18.109375 75.984375 
L 18.109375 46.1875 
Q 21.34375 51.125 25.703125 53.5625 
Q 30.078125 56 35.796875 56 
Q 45.21875 56 50.046875 50.171875 
Q 54.890625 44.34375 54.890625 33.015625 
z
" id="DejaVuSans-104"/>
    <path d="M 52 44.1875 
Q 55.375 50.25 60.0625 53.125 
Q 64.75 56 71.09375 56 
Q 79.640625 56 84.28125 50.015625 
Q 88.921875 44.046875 88.921875 33.015625 
L 88.921875 0 
L 79.890625 0 
L 79.890625 32.71875 
Q 79.890625 40.578125 77.09375 44.375 
Q 74.3125 48.1875 68.609375 48.1875 
Q 61.625 48.1875 57.5625 43.546875 
Q 53.515625 38.921875 53.515625 30.90625 
L 53.515625 0 
L 44.484375 0 
L 44.484375 32.71875 
Q 44.484375 40.625 41.703125 44.40625 
Q 38.921875 48.1875 33.109375 48.1875 
Q 26.21875 48.1875 22.15625 43.53125 
Q 18.109375 38.875 18.109375 30.90625 
L 18.109375 0 
L 9.078125 0 
L 9.078125 54.6875 
L 18.109375 54.6875 
L 18.109375 46.1875 
Q 21.1875 51.21875 25.484375 53.609375 
Q 29.78125 56 35.6875 56 
Q 41.65625 56 45.828125 52.96875 
Q 50 49.953125 52 44.1875 
z
" id="DejaVuSans-109"/>
    <path d="M 18.109375 8.203125 
L 18.109375 -20.796875 
L 9.078125 -20.796875 
L 9.078125 54.6875 
L 18.109375 54.6875 
L 18.109375 46.390625 
Q 20.953125 51.265625 25.265625 53.625 
Q 29.59375 56 35.59375 56 
Q 45.5625 56 51.78125 48.09375 
Q 58.015625 40.1875 58.015625 27.296875 
Q 58.015625 14.40625 51.78125 6.484375 
Q 45.5625 -1.421875 35.59375 -1.421875 
Q 29.59375 -1.421875 25.265625 0.953125 
Q 20.953125 3.328125 18.109375 8.203125 
z
M 48.6875 27.296875 
Q 48.6875 37.203125 44.609375 42.84375 
Q 40.53125 48.484375 33.40625 48.484375 
Q 26.265625 48.484375 22.1875 42.84375 
Q 18.109375 37.203125 18.109375 27.296875 
Q 18.109375 17.390625 22.1875 11.75 
Q 26.265625 6.109375 33.40625 6.109375 
Q 40.53125 6.109375 44.609375 11.75 
Q 48.6875 17.390625 48.6875 27.296875 
z
" id="DejaVuSans-112"/>
    <path d="M 45.40625 27.984375 
Q 45.40625 37.75 41.375 43.109375 
Q 37.359375 48.484375 30.078125 48.484375 
Q 22.859375 48.484375 18.828125 43.109375 
Q 14.796875 37.75 14.796875 27.984375 
Q 14.796875 18.265625 18.828125 12.890625 
Q 22.859375 7.515625 30.078125 7.515625 
Q 37.359375 7.515625 41.375 12.890625 
Q 45.40625 18.265625 45.40625 27.984375 
z
M 54.390625 6.78125 
Q 54.390625 -7.171875 48.1875 -13.984375 
Q 42 -20.796875 29.203125 -20.796875 
Q 24.46875 -20.796875 20.265625 -20.09375 
Q 16.0625 -19.390625 12.109375 -17.921875 
L 12.109375 -9.1875 
Q 16.0625 -11.328125 19.921875 -12.34375 
Q 23.78125 -13.375 27.78125 -13.375 
Q 36.625 -13.375 41.015625 -8.765625 
Q 45.40625 -4.15625 45.40625 5.171875 
L 45.40625 9.625 
Q 42.625 4.78125 38.28125 2.390625 
Q 33.9375 0 27.875 0 
Q 17.828125 0 11.671875 7.65625 
Q 5.515625 15.328125 5.515625 27.984375 
Q 5.515625 40.671875 11.671875 48.328125 
Q 17.828125 56 27.875 56 
Q 33.9375 56 38.28125 53.609375 
Q 42.625 51.21875 45.40625 46.390625 
L 45.40625 54.6875 
L 54.390625 54.6875 
z
" id="DejaVuSans-103"/>
    <path d="M 2.984375 54.6875 
L 12.5 54.6875 
L 29.59375 8.796875 
L 46.6875 54.6875 
L 56.203125 54.6875 
L 35.6875 0 
L 23.484375 0 
z
" id="DejaVuSans-118"/>
    <path d="M 39.40625 66.21875 
Q 28.65625 66.21875 22.328125 58.203125 
Q 16.015625 50.203125 16.015625 36.375 
Q 16.015625 22.609375 22.328125 14.59375 
Q 28.65625 6.59375 39.40625 6.59375 
Q 50.140625 6.59375 56.421875 14.59375 
Q 62.703125 22.609375 62.703125 36.375 
Q 62.703125 50.203125 56.421875 58.203125 
Q 50.140625 66.21875 39.40625 66.21875 
z
M 53.21875 1.3125 
L 66.21875 -12.890625 
L 54.296875 -12.890625 
L 43.5 -1.21875 
Q 41.890625 -1.3125 41.03125 -1.359375 
Q 40.1875 -1.421875 39.40625 -1.421875 
Q 24.03125 -1.421875 14.8125 8.859375 
Q 5.609375 19.140625 5.609375 36.375 
Q 5.609375 53.65625 14.8125 63.9375 
Q 24.03125 74.21875 39.40625 74.21875 
Q 54.734375 74.21875 63.90625 63.9375 
Q 73.09375 53.65625 73.09375 36.375 
Q 73.09375 23.6875 67.984375 14.640625 
Q 62.890625 5.609375 53.21875 1.3125 
z
" id="DejaVuSans-81"/>
   </defs>
   <g transform="translate(119.514688 17.229938)scale(0.132 -0.132)">
    <use xlink:href="#DejaVuSans-65"/>
    <use x="68.408203" xlink:href="#DejaVuSans-108"/>
    <use x="96.191406" xlink:href="#DejaVuSans-108"/>
    <use x="123.974609" xlink:href="#DejaVuSans-32"/>
    <use x="155.761719" xlink:href="#DejaVuSans-100"/>
    <use x="219.238281" xlink:href="#DejaVuSans-97"/>
    <use x="280.517578" xlink:href="#DejaVuSans-116"/>
    <use x="319.726562" xlink:href="#DejaVuSans-97"/>
    <use x="381.005859" xlink:href="#DejaVuSans-32"/>
    <use x="412.792969" xlink:href="#DejaVuSans-119"/>
    <use x="494.580078" xlink:href="#DejaVuSans-105"/>
    <use x="522.363281" xlink:href="#DejaVuSans-116"/>
    <use x="561.572266" xlink:href="#DejaVuSans-104"/>
    <use x="624.951172" xlink:href="#DejaVuSans-32"/>
    <use x="656.738281" xlink:href="#DejaVuSans-105"/>
    <use x="684.521484" xlink:href="#DejaVuSans-109"/>
    <use x="781.933594" xlink:href="#DejaVuSans-112"/>
    <use x="845.410156" xlink:href="#DejaVuSans-117"/>
    <use x="908.789062" xlink:href="#DejaVuSans-116"/>
    <use x="947.998047" xlink:href="#DejaVuSans-101"/>
    <use x="1009.521484" xlink:href="#DejaVuSans-100"/>
    <use x="1072.998047" xlink:href="#DejaVuSans-32"/>
    <use x="1104.785156" xlink:href="#DejaVuSans-109"/>
    <use x="1202.197266" xlink:href="#DejaVuSans-105"/>
    <use x="1229.980469" xlink:href="#DejaVuSans-115"/>
    <use x="1282.080078" xlink:href="#DejaVuSans-115"/>
    <use x="1334.179688" xlink:href="#DejaVuSans-105"/>
    <use x="1361.962891" xlink:href="#DejaVuSans-110"/>
    <use x="1425.341797" xlink:href="#DejaVuSans-103"/>
    <use x="1488.818359" xlink:href="#DejaVuSans-32"/>
    <use x="1520.605469" xlink:href="#DejaVuSans-118"/>
    <use x="1579.785156" xlink:href="#DejaVuSans-97"/>
    <use x="1641.064453" xlink:href="#DejaVuSans-108"/>
    <use x="1668.847656" xlink:href="#DejaVuSans-117"/>
    <use x="1732.226562" xlink:href="#DejaVuSans-101"/>
    <use x="1793.75" xlink:href="#DejaVuSans-115"/>
    <use x="1845.849609" xlink:href="#DejaVuSans-32"/>
    <use x="1877.636719" xlink:href="#DejaVuSans-81"/>
    <use x="1956.347656" xlink:href="#DejaVuSans-49"/>
    <use x="2019.970703" xlink:href="#DejaVuSans-40"/>
    <use x="2058.984375" xlink:href="#DejaVuSans-116"/>
    <use x="2098.193359" xlink:href="#DejaVuSans-41"/>
   </g>
  </g>
 </g>
 <defs>
  <clipPath id="p5a4cce368a">
   <rect height="221.76" width="446.4" x="44.567" y="26.105371"/>
  </clipPath>
 </defs>
</svg>
