<?xml version="1.0" encoding="utf-8" standalone="no"?>
<!DOCTYPE svg PUBLIC "-//W3C//DTD SVG 1.1//EN"
  "http://www.w3.org/Graphics/SVG/1.1/DTD/svg11.dtd">
<!-- Created with matplotlib (https://matplotlib.org/) -->
<svg height="264.672687pt" version="1.1" viewBox="0 0 500.389687 264.672687" width="500.389687pt" xmlns="http://www.w3.org/2000/svg" xmlns:xlink="http://www.w3.org/1999/xlink">
 <defs>
  <style type="text/css">
*{stroke-linecap:butt;stroke-linejoin:round;}
  </style>
 </defs>
 <g id="figure_1">
  <g id="patch_1">
   <path d="M 0 264.672687 
L 500.389687 264.672687 
L 500.389687 0 
L 0 0 
z
" style="fill:#ffffff;stroke:#ffffff;stroke-linejoin:miter;"/>
  </g>
  <g id="axes_1">
   <g id="patch_2">
    <path d="M 46.789687 228.96 
L 493.189687 228.96 
L 493.189687 7.2 
L 46.789687 7.2 
z
" style="fill:#ffffff;stroke:#7f7f7f;stroke-linejoin:miter;"/>
   </g>
   <g id="matplotlib.axis_1">
    <g id="xtick_1">
     <g id="line2d_1">
      <path clip-path="url(#p3ab02d6fa7)" d="M 67.080597 228.96 
L 67.080597 7.2 
" style="fill:none;stroke:#e5e5e5;stroke-width:0.8;"/>
     </g>
     <g id="line2d_2">
      <path d="M 67.080597 228.96 
" style="fill:none;stroke:#000000;stroke-width:1.5;"/>
      <defs>
       <path d="M 0 0 
L 0 2.75 
" id="mae946cb44c" style="stroke:#000000;"/>
      </defs>
      <g>
       <use style="stroke:#000000;" x="67.080597" xlink:href="#mae946cb44c" y="228.96"/>
      </g>
     </g>
     <g id="text_1">
      <!-- 1970 -->
      <defs>
       <path d="M 12.40625 8.296875 
L 28.515625 8.296875 
L 28.515625 63.921875 
L 10.984375 60.40625 
L 10.984375 69.390625 
L 28.421875 72.90625 
L 38.28125 72.90625 
L 38.28125 8.296875 
L 54.390625 8.296875 
L 54.390625 0 
L 12.40625 0 
z
" id="DejaVuSans-49"/>
       <path d="M 10.984375 1.515625 
L 10.984375 10.5 
Q 14.703125 8.734375 18.5 7.8125 
Q 22.3125 6.890625 25.984375 6.890625 
Q 35.75 6.890625 40.890625 13.453125 
Q 46.046875 20.015625 46.78125 33.40625 
Q 43.953125 29.203125 39.59375 26.953125 
Q 35.25 24.703125 29.984375 24.703125 
Q 19.046875 24.703125 12.671875 31.3125 
Q 6.296875 37.9375 6.296875 49.421875 
Q 6.296875 60.640625 12.9375 67.421875 
Q 19.578125 74.21875 30.609375 74.21875 
Q 43.265625 74.21875 49.921875 64.515625 
Q 56.59375 54.828125 56.59375 36.375 
Q 56.59375 19.140625 48.40625 8.859375 
Q 40.234375 -1.421875 26.421875 -1.421875 
Q 22.703125 -1.421875 18.890625 -0.6875 
Q 15.09375 0.046875 10.984375 1.515625 
z
M 30.609375 32.421875 
Q 37.25 32.421875 41.125 36.953125 
Q 45.015625 41.5 45.015625 49.421875 
Q 45.015625 57.28125 41.125 61.84375 
Q 37.25 66.40625 30.609375 66.40625 
Q 23.96875 66.40625 20.09375 61.84375 
Q 16.21875 57.28125 16.21875 49.421875 
Q 16.21875 41.5 20.09375 36.953125 
Q 23.96875 32.421875 30.609375 32.421875 
z
" id="DejaVuSans-57"/>
       <path d="M 8.203125 72.90625 
L 55.078125 72.90625 
L 55.078125 68.703125 
L 28.609375 0 
L 18.3125 0 
L 43.21875 64.59375 
L 8.203125 64.59375 
z
" id="DejaVuSans-55"/>
       <path d="M 31.78125 66.40625 
Q 24.171875 66.40625 20.328125 58.90625 
Q 16.5 51.421875 16.5 36.375 
Q 16.5 21.390625 20.328125 13.890625 
Q 24.171875 6.390625 31.78125 6.390625 
Q 39.453125 6.390625 43.28125 13.890625 
Q 47.125 21.390625 47.125 36.375 
Q 47.125 51.421875 43.28125 58.90625 
Q 39.453125 66.40625 31.78125 66.40625 
z
M 31.78125 74.21875 
Q 44.046875 74.21875 50.515625 64.515625 
Q 56.984375 54.828125 56.984375 36.375 
Q 56.984375 17.96875 50.515625 8.265625 
Q 44.046875 -1.421875 31.78125 -1.421875 
Q 19.53125 -1.421875 13.0625 8.265625 
Q 6.59375 17.96875 6.59375 36.375 
Q 6.59375 54.828125 13.0625 64.515625 
Q 19.53125 74.21875 31.78125 74.21875 
z
" id="DejaVuSans-48"/>
      </defs>
      <g style="fill:#4d4d4d;" transform="translate(55.882597 240.596625)scale(0.088 -0.088)">
       <use xlink:href="#DejaVuSans-49"/>
       <use x="63.623047" xlink:href="#DejaVuSans-57"/>
       <use x="127.246094" xlink:href="#DejaVuSans-55"/>
       <use x="190.869141" xlink:href="#DejaVuSans-48"/>
      </g>
     </g>
    </g>
    <g id="xtick_2">
     <g id="line2d_3">
      <path clip-path="url(#p3ab02d6fa7)" d="M 148.244233 228.96 
L 148.244233 7.2 
" style="fill:none;stroke:#e5e5e5;stroke-width:0.8;"/>
     </g>
     <g id="line2d_4">
      <path d="M 148.244233 228.96 
" style="fill:none;stroke:#000000;stroke-width:1.5;"/>
      <g>
       <use style="stroke:#000000;" x="148.244233" xlink:href="#mae946cb44c" y="228.96"/>
      </g>
     </g>
     <g id="text_2">
      <!-- 1980 -->
      <defs>
       <path d="M 31.78125 34.625 
Q 24.75 34.625 20.71875 30.859375 
Q 16.703125 27.09375 16.703125 20.515625 
Q 16.703125 13.921875 20.71875 10.15625 
Q 24.75 6.390625 31.78125 6.390625 
Q 38.8125 6.390625 42.859375 10.171875 
Q 46.921875 13.96875 46.921875 20.515625 
Q 46.921875 27.09375 42.890625 30.859375 
Q 38.875 34.625 31.78125 34.625 
z
M 21.921875 38.8125 
Q 15.578125 40.375 12.03125 44.71875 
Q 8.5 49.078125 8.5 55.328125 
Q 8.5 64.0625 14.71875 69.140625 
Q 20.953125 74.21875 31.78125 74.21875 
Q 42.671875 74.21875 48.875 69.140625 
Q 55.078125 64.0625 55.078125 55.328125 
Q 55.078125 49.078125 51.53125 44.71875 
Q 48 40.375 41.703125 38.8125 
Q 48.828125 37.15625 52.796875 32.3125 
Q 56.78125 27.484375 56.78125 20.515625 
Q 56.78125 9.90625 50.3125 4.234375 
Q 43.84375 -1.421875 31.78125 -1.421875 
Q 19.734375 -1.421875 13.25 4.234375 
Q 6.78125 9.90625 6.78125 20.515625 
Q 6.78125 27.484375 10.78125 32.3125 
Q 14.796875 37.15625 21.921875 38.8125 
z
M 18.3125 54.390625 
Q 18.3125 48.734375 21.84375 45.5625 
Q 25.390625 42.390625 31.78125 42.390625 
Q 38.140625 42.390625 41.71875 45.5625 
Q 45.3125 48.734375 45.3125 54.390625 
Q 45.3125 60.0625 41.71875 63.234375 
Q 38.140625 66.40625 31.78125 66.40625 
Q 25.390625 66.40625 21.84375 63.234375 
Q 18.3125 60.0625 18.3125 54.390625 
z
" id="DejaVuSans-56"/>
      </defs>
      <g style="fill:#4d4d4d;" transform="translate(137.046233 240.596625)scale(0.088 -0.088)">
       <use xlink:href="#DejaVuSans-49"/>
       <use x="63.623047" xlink:href="#DejaVuSans-57"/>
       <use x="127.246094" xlink:href="#DejaVuSans-56"/>
       <use x="190.869141" xlink:href="#DejaVuSans-48"/>
      </g>
     </g>
    </g>
    <g id="xtick_3">
     <g id="line2d_5">
      <path clip-path="url(#p3ab02d6fa7)" d="M 229.407869 228.96 
L 229.407869 7.2 
" style="fill:none;stroke:#e5e5e5;stroke-width:0.8;"/>
     </g>
     <g id="line2d_6">
      <path d="M 229.407869 228.96 
" style="fill:none;stroke:#000000;stroke-width:1.5;"/>
      <g>
       <use style="stroke:#000000;" x="229.407869" xlink:href="#mae946cb44c" y="228.96"/>
      </g>
     </g>
     <g id="text_3">
      <!-- 1990 -->
      <g style="fill:#4d4d4d;" transform="translate(218.209869 240.596625)scale(0.088 -0.088)">
       <use xlink:href="#DejaVuSans-49"/>
       <use x="63.623047" xlink:href="#DejaVuSans-57"/>
       <use x="127.246094" xlink:href="#DejaVuSans-57"/>
       <use x="190.869141" xlink:href="#DejaVuSans-48"/>
      </g>
     </g>
    </g>
    <g id="xtick_4">
     <g id="line2d_7">
      <path clip-path="url(#p3ab02d6fa7)" d="M 310.571506 228.96 
L 310.571506 7.2 
" style="fill:none;stroke:#e5e5e5;stroke-width:0.8;"/>
     </g>
     <g id="line2d_8">
      <path d="M 310.571506 228.96 
" style="fill:none;stroke:#000000;stroke-width:1.5;"/>
      <g>
       <use style="stroke:#000000;" x="310.571506" xlink:href="#mae946cb44c" y="228.96"/>
      </g>
     </g>
     <g id="text_4">
      <!-- 2000 -->
      <defs>
       <path d="M 19.1875 8.296875 
L 53.609375 8.296875 
L 53.609375 0 
L 7.328125 0 
L 7.328125 8.296875 
Q 12.9375 14.109375 22.625 23.890625 
Q 32.328125 33.6875 34.8125 36.53125 
Q 39.546875 41.84375 41.421875 45.53125 
Q 43.3125 49.21875 43.3125 52.78125 
Q 43.3125 58.59375 39.234375 62.25 
Q 35.15625 65.921875 28.609375 65.921875 
Q 23.96875 65.921875 18.8125 64.3125 
Q 13.671875 62.703125 7.8125 59.421875 
L 7.8125 69.390625 
Q 13.765625 71.78125 18.9375 73 
Q 24.125 74.21875 28.421875 74.21875 
Q 39.75 74.21875 46.484375 68.546875 
Q 53.21875 62.890625 53.21875 53.421875 
Q 53.21875 48.921875 51.53125 44.890625 
Q 49.859375 40.875 45.40625 35.40625 
Q 44.1875 33.984375 37.640625 27.21875 
Q 31.109375 20.453125 19.1875 8.296875 
z
" id="DejaVuSans-50"/>
      </defs>
      <g style="fill:#4d4d4d;" transform="translate(299.373506 240.596625)scale(0.088 -0.088)">
       <use xlink:href="#DejaVuSans-50"/>
       <use x="63.623047" xlink:href="#DejaVuSans-48"/>
       <use x="127.246094" xlink:href="#DejaVuSans-48"/>
       <use x="190.869141" xlink:href="#DejaVuSans-48"/>
      </g>
     </g>
    </g>
    <g id="xtick_5">
     <g id="line2d_9">
      <path clip-path="url(#p3ab02d6fa7)" d="M 391.735142 228.96 
L 391.735142 7.2 
" style="fill:none;stroke:#e5e5e5;stroke-width:0.8;"/>
     </g>
     <g id="line2d_10">
      <path d="M 391.735142 228.96 
" style="fill:none;stroke:#000000;stroke-width:1.5;"/>
      <g>
       <use style="stroke:#000000;" x="391.735142" xlink:href="#mae946cb44c" y="228.96"/>
      </g>
     </g>
     <g id="text_5">
      <!-- 2010 -->
      <g style="fill:#4d4d4d;" transform="translate(380.537142 240.596625)scale(0.088 -0.088)">
       <use xlink:href="#DejaVuSans-50"/>
       <use x="63.623047" xlink:href="#DejaVuSans-48"/>
       <use x="127.246094" xlink:href="#DejaVuSans-49"/>
       <use x="190.869141" xlink:href="#DejaVuSans-48"/>
      </g>
     </g>
    </g>
    <g id="xtick_6">
     <g id="line2d_11">
      <path clip-path="url(#p3ab02d6fa7)" d="M 472.898778 228.96 
L 472.898778 7.2 
" style="fill:none;stroke:#e5e5e5;stroke-width:0.8;"/>
     </g>
     <g id="line2d_12">
      <path d="M 472.898778 228.96 
" style="fill:none;stroke:#000000;stroke-width:1.5;"/>
      <g>
       <use style="stroke:#000000;" x="472.898778" xlink:href="#mae946cb44c" y="228.96"/>
      </g>
     </g>
     <g id="text_6">
      <!-- 2020 -->
      <g style="fill:#4d4d4d;" transform="translate(461.700778 240.596625)scale(0.088 -0.088)">
       <use xlink:href="#DejaVuSans-50"/>
       <use x="63.623047" xlink:href="#DejaVuSans-48"/>
       <use x="127.246094" xlink:href="#DejaVuSans-50"/>
       <use x="190.869141" xlink:href="#DejaVuSans-48"/>
      </g>
     </g>
    </g>
    <g id="xtick_7">
     <g id="line2d_13">
      <path clip-path="url(#p3ab02d6fa7)" d="M 107.662415 228.96 
L 107.662415 7.2 
" style="fill:none;stroke:#fafafa;"/>
     </g>
     <g id="line2d_14">
      <path d="M 107.662415 228.96 
" style="fill:none;stroke:#000000;stroke-width:1.5;"/>
      <defs>
       <path d="M 0 0 
L 0 1.375 
" id="meb5a2f110d" style="stroke:#000000;"/>
      </defs>
      <g>
       <use style="stroke:#000000;" x="107.662415" xlink:href="#meb5a2f110d" y="228.96"/>
      </g>
     </g>
    </g>
    <g id="xtick_8">
     <g id="line2d_15">
      <path clip-path="url(#p3ab02d6fa7)" d="M 188.826051 228.96 
L 188.826051 7.2 
" style="fill:none;stroke:#fafafa;"/>
     </g>
     <g id="line2d_16">
      <path d="M 188.826051 228.96 
" style="fill:none;stroke:#000000;stroke-width:1.5;"/>
      <g>
       <use style="stroke:#000000;" x="188.826051" xlink:href="#meb5a2f110d" y="228.96"/>
      </g>
     </g>
    </g>
    <g id="xtick_9">
     <g id="line2d_17">
      <path clip-path="url(#p3ab02d6fa7)" d="M 269.989687 228.96 
L 269.989687 7.2 
" style="fill:none;stroke:#fafafa;"/>
     </g>
     <g id="line2d_18">
      <path d="M 269.989687 228.96 
" style="fill:none;stroke:#000000;stroke-width:1.5;"/>
      <g>
       <use style="stroke:#000000;" x="269.989687" xlink:href="#meb5a2f110d" y="228.96"/>
      </g>
     </g>
    </g>
    <g id="xtick_10">
     <g id="line2d_19">
      <path clip-path="url(#p3ab02d6fa7)" d="M 351.153324 228.96 
L 351.153324 7.2 
" style="fill:none;stroke:#fafafa;"/>
     </g>
     <g id="line2d_20">
      <path d="M 351.153324 228.96 
" style="fill:none;stroke:#000000;stroke-width:1.5;"/>
      <g>
       <use style="stroke:#000000;" x="351.153324" xlink:href="#meb5a2f110d" y="228.96"/>
      </g>
     </g>
    </g>
    <g id="xtick_11">
     <g id="line2d_21">
      <path clip-path="url(#p3ab02d6fa7)" d="M 432.31696 228.96 
L 432.31696 7.2 
" style="fill:none;stroke:#fafafa;"/>
     </g>
     <g id="line2d_22">
      <path d="M 432.31696 228.96 
" style="fill:none;stroke:#000000;stroke-width:1.5;"/>
      <g>
       <use style="stroke:#000000;" x="432.31696" xlink:href="#meb5a2f110d" y="228.96"/>
      </g>
     </g>
    </g>
    <g id="text_7">
     <!-- Year -->
     <defs>
      <path d="M -0.203125 72.90625 
L 10.40625 72.90625 
L 30.609375 42.921875 
L 50.6875 72.90625 
L 61.28125 72.90625 
L 35.5 34.71875 
L 35.5 0 
L 25.59375 0 
L 25.59375 34.71875 
z
" id="DejaVuSans-89"/>
      <path d="M 56.203125 29.59375 
L 56.203125 25.203125 
L 14.890625 25.203125 
Q 15.484375 15.921875 20.484375 11.0625 
Q 25.484375 6.203125 34.421875 6.203125 
Q 39.59375 6.203125 44.453125 7.46875 
Q 49.3125 8.734375 54.109375 11.28125 
L 54.109375 2.78125 
Q 49.265625 0.734375 44.1875 -0.34375 
Q 39.109375 -1.421875 33.890625 -1.421875 
Q 20.796875 -1.421875 13.15625 6.1875 
Q 5.515625 13.8125 5.515625 26.8125 
Q 5.515625 40.234375 12.765625 48.109375 
Q 20.015625 56 32.328125 56 
Q 43.359375 56 49.78125 48.890625 
Q 56.203125 41.796875 56.203125 29.59375 
z
M 47.21875 32.234375 
Q 47.125 39.59375 43.09375 43.984375 
Q 39.0625 48.390625 32.421875 48.390625 
Q 24.90625 48.390625 20.390625 44.140625 
Q 15.875 39.890625 15.1875 32.171875 
z
" id="DejaVuSans-101"/>
      <path d="M 34.28125 27.484375 
Q 23.390625 27.484375 19.1875 25 
Q 14.984375 22.515625 14.984375 16.5 
Q 14.984375 11.71875 18.140625 8.90625 
Q 21.296875 6.109375 26.703125 6.109375 
Q 34.1875 6.109375 38.703125 11.40625 
Q 43.21875 16.703125 43.21875 25.484375 
L 43.21875 27.484375 
z
M 52.203125 31.203125 
L 52.203125 0 
L 43.21875 0 
L 43.21875 8.296875 
Q 40.140625 3.328125 35.546875 0.953125 
Q 30.953125 -1.421875 24.3125 -1.421875 
Q 15.921875 -1.421875 10.953125 3.296875 
Q 6 8.015625 6 15.921875 
Q 6 25.140625 12.171875 29.828125 
Q 18.359375 34.515625 30.609375 34.515625 
L 43.21875 34.515625 
L 43.21875 35.40625 
Q 43.21875 41.609375 39.140625 45 
Q 35.0625 48.390625 27.6875 48.390625 
Q 23 48.390625 18.546875 47.265625 
Q 14.109375 46.140625 10.015625 43.890625 
L 10.015625 52.203125 
Q 14.9375 54.109375 19.578125 55.046875 
Q 24.21875 56 28.609375 56 
Q 40.484375 56 46.34375 49.84375 
Q 52.203125 43.703125 52.203125 31.203125 
z
" id="DejaVuSans-97"/>
      <path d="M 41.109375 46.296875 
Q 39.59375 47.171875 37.8125 47.578125 
Q 36.03125 48 33.890625 48 
Q 26.265625 48 22.1875 43.046875 
Q 18.109375 38.09375 18.109375 28.8125 
L 18.109375 0 
L 9.078125 0 
L 9.078125 54.6875 
L 18.109375 54.6875 
L 18.109375 46.1875 
Q 20.953125 51.171875 25.484375 53.578125 
Q 30.03125 56 36.53125 56 
Q 37.453125 56 38.578125 55.875 
Q 39.703125 55.765625 41.0625 55.515625 
z
" id="DejaVuSans-114"/>
     </defs>
     <g transform="translate(250.425859 255.185031)scale(0.11 -0.11)">
      <use xlink:href="#DejaVuSans-89"/>
      <use x="60.880859" xlink:href="#DejaVuSans-101"/>
      <use x="122.404297" xlink:href="#DejaVuSans-97"/>
      <use x="183.683594" xlink:href="#DejaVuSans-114"/>
     </g>
    </g>
   </g>
   <g id="matplotlib.axis_2">
    <g id="ytick_1">
     <g id="line2d_23">
      <path clip-path="url(#p3ab02d6fa7)" d="M 46.789687 218.88 
L 493.189687 218.88 
" style="fill:none;stroke:#e5e5e5;stroke-width:0.8;"/>
     </g>
     <g id="line2d_24">
      <path d="M 46.789687 218.88 
" style="fill:none;stroke:#000000;stroke-width:1.5;"/>
      <defs>
       <path d="M 0 0 
L -2.75 0 
" id="m76fdf402a0" style="stroke:#000000;"/>
      </defs>
      <g>
       <use style="stroke:#000000;" x="46.789687" xlink:href="#m76fdf402a0" y="218.88"/>
      </g>
     </g>
     <g id="text_8">
      <!-- 0 -->
      <g style="fill:#4d4d4d;" transform="translate(36.240687 221.30825)scale(0.088 -0.088)">
       <use xlink:href="#DejaVuSans-48"/>
      </g>
     </g>
    </g>
    <g id="ytick_2">
     <g id="line2d_25">
      <path clip-path="url(#p3ab02d6fa7)" d="M 46.789687 168.48 
L 493.189687 168.48 
" style="fill:none;stroke:#e5e5e5;stroke-width:0.8;"/>
     </g>
     <g id="line2d_26">
      <path d="M 46.789687 168.48 
" style="fill:none;stroke:#000000;stroke-width:1.5;"/>
      <g>
       <use style="stroke:#000000;" x="46.789687" xlink:href="#m76fdf402a0" y="168.48"/>
      </g>
     </g>
     <g id="text_9">
      <!-- 0.25 -->
      <defs>
       <path d="M 10.6875 12.40625 
L 21 12.40625 
L 21 0 
L 10.6875 0 
z
" id="DejaVuSans-46"/>
       <path d="M 10.796875 72.90625 
L 49.515625 72.90625 
L 49.515625 64.59375 
L 19.828125 64.59375 
L 19.828125 46.734375 
Q 21.96875 47.46875 24.109375 47.828125 
Q 26.265625 48.1875 28.421875 48.1875 
Q 40.625 48.1875 47.75 41.5 
Q 54.890625 34.8125 54.890625 23.390625 
Q 54.890625 11.625 47.5625 5.09375 
Q 40.234375 -1.421875 26.90625 -1.421875 
Q 22.3125 -1.421875 17.546875 -0.640625 
Q 12.796875 0.140625 7.71875 1.703125 
L 7.71875 11.625 
Q 12.109375 9.234375 16.796875 8.0625 
Q 21.484375 6.890625 26.703125 6.890625 
Q 35.15625 6.890625 40.078125 11.328125 
Q 45.015625 15.765625 45.015625 23.390625 
Q 45.015625 31 40.078125 35.4375 
Q 35.15625 39.890625 26.703125 39.890625 
Q 22.75 39.890625 18.8125 39.015625 
Q 14.890625 38.140625 10.796875 36.28125 
z
" id="DejaVuSans-53"/>
      </defs>
      <g style="fill:#4d4d4d;" transform="translate(22.245937 170.90825)scale(0.088 -0.088)">
       <use xlink:href="#DejaVuSans-48"/>
       <use x="63.623047" xlink:href="#DejaVuSans-46"/>
       <use x="95.410156" xlink:href="#DejaVuSans-50"/>
       <use x="159.033203" xlink:href="#DejaVuSans-53"/>
      </g>
     </g>
    </g>
    <g id="ytick_3">
     <g id="line2d_27">
      <path clip-path="url(#p3ab02d6fa7)" d="M 46.789687 118.08 
L 493.189687 118.08 
" style="fill:none;stroke:#e5e5e5;stroke-width:0.8;"/>
     </g>
     <g id="line2d_28">
      <path d="M 46.789687 118.08 
" style="fill:none;stroke:#000000;stroke-width:1.5;"/>
      <g>
       <use style="stroke:#000000;" x="46.789687" xlink:href="#m76fdf402a0" y="118.08"/>
      </g>
     </g>
     <g id="text_10">
      <!-- 0.50 -->
      <g style="fill:#4d4d4d;" transform="translate(22.245937 120.50825)scale(0.088 -0.088)">
       <use xlink:href="#DejaVuSans-48"/>
       <use x="63.623047" xlink:href="#DejaVuSans-46"/>
       <use x="95.410156" xlink:href="#DejaVuSans-53"/>
       <use x="159.033203" xlink:href="#DejaVuSans-48"/>
      </g>
     </g>
    </g>
    <g id="ytick_4">
     <g id="line2d_29">
      <path clip-path="url(#p3ab02d6fa7)" d="M 46.789687 67.68 
L 493.189687 67.68 
" style="fill:none;stroke:#e5e5e5;stroke-width:0.8;"/>
     </g>
     <g id="line2d_30">
      <path d="M 46.789687 67.68 
" style="fill:none;stroke:#000000;stroke-width:1.5;"/>
      <g>
       <use style="stroke:#000000;" x="46.789687" xlink:href="#m76fdf402a0" y="67.68"/>
      </g>
     </g>
     <g id="text_11">
      <!-- 0.75 -->
      <g style="fill:#4d4d4d;" transform="translate(22.245937 70.10825)scale(0.088 -0.088)">
       <use xlink:href="#DejaVuSans-48"/>
       <use x="63.623047" xlink:href="#DejaVuSans-46"/>
       <use x="95.410156" xlink:href="#DejaVuSans-55"/>
       <use x="159.033203" xlink:href="#DejaVuSans-53"/>
      </g>
     </g>
    </g>
    <g id="ytick_5">
     <g id="line2d_31">
      <path clip-path="url(#p3ab02d6fa7)" d="M 46.789687 17.28 
L 493.189687 17.28 
" style="fill:none;stroke:#e5e5e5;stroke-width:0.8;"/>
     </g>
     <g id="line2d_32">
      <path d="M 46.789687 17.28 
" style="fill:none;stroke:#000000;stroke-width:1.5;"/>
      <g>
       <use style="stroke:#000000;" x="46.789687" xlink:href="#m76fdf402a0" y="17.28"/>
      </g>
     </g>
     <g id="text_12">
      <!-- 1 -->
      <g style="fill:#4d4d4d;" transform="translate(36.240687 19.70825)scale(0.088 -0.088)">
       <use xlink:href="#DejaVuSans-49"/>
      </g>
     </g>
    </g>
    <g id="ytick_6">
     <g id="line2d_33">
      <path clip-path="url(#p3ab02d6fa7)" d="M 46.789687 193.68 
L 493.189687 193.68 
" style="fill:none;stroke:#fafafa;"/>
     </g>
     <g id="line2d_34">
      <path d="M 46.789687 193.68 
" style="fill:none;stroke:#000000;stroke-width:1.5;"/>
      <defs>
       <path d="M 0 0 
L -1.375 0 
" id="m64918c3c46" style="stroke:#000000;"/>
      </defs>
      <g>
       <use style="stroke:#000000;" x="46.789687" xlink:href="#m64918c3c46" y="193.68"/>
      </g>
     </g>
    </g>
    <g id="ytick_7">
     <g id="line2d_35">
      <path clip-path="url(#p3ab02d6fa7)" d="M 46.789687 143.28 
L 493.189687 143.28 
" style="fill:none;stroke:#fafafa;"/>
     </g>
     <g id="line2d_36">
      <path d="M 46.789687 143.28 
" style="fill:none;stroke:#000000;stroke-width:1.5;"/>
      <g>
       <use style="stroke:#000000;" x="46.789687" xlink:href="#m64918c3c46" y="143.28"/>
      </g>
     </g>
    </g>
    <g id="ytick_8">
     <g id="line2d_37">
      <path clip-path="url(#p3ab02d6fa7)" d="M 46.789687 92.88 
L 493.189687 92.88 
" style="fill:none;stroke:#fafafa;"/>
     </g>
     <g id="line2d_38">
      <path d="M 46.789687 92.88 
" style="fill:none;stroke:#000000;stroke-width:1.5;"/>
      <g>
       <use style="stroke:#000000;" x="46.789687" xlink:href="#m64918c3c46" y="92.88"/>
      </g>
     </g>
    </g>
    <g id="ytick_9">
     <g id="line2d_39">
      <path clip-path="url(#p3ab02d6fa7)" d="M 46.789687 42.48 
L 493.189687 42.48 
" style="fill:none;stroke:#fafafa;"/>
     </g>
     <g id="line2d_40">
      <path d="M 46.789687 42.48 
" style="fill:none;stroke:#000000;stroke-width:1.5;"/>
      <g>
       <use style="stroke:#000000;" x="46.789687" xlink:href="#m64918c3c46" y="42.48"/>
      </g>
     </g>
    </g>
    <g id="text_13">
     <!-- Q1 percentile -->
     <defs>
      <path d="M 39.40625 66.21875 
Q 28.65625 66.21875 22.328125 58.203125 
Q 16.015625 50.203125 16.015625 36.375 
Q 16.015625 22.609375 22.328125 14.59375 
Q 28.65625 6.59375 39.40625 6.59375 
Q 50.140625 6.59375 56.421875 14.59375 
Q 62.703125 22.609375 62.703125 36.375 
Q 62.703125 50.203125 56.421875 58.203125 
Q 50.140625 66.21875 39.40625 66.21875 
z
M 53.21875 1.3125 
L 66.21875 -12.890625 
L 54.296875 -12.890625 
L 43.5 -1.21875 
Q 41.890625 -1.3125 41.03125 -1.359375 
Q 40.1875 -1.421875 39.40625 -1.421875 
Q 24.03125 -1.421875 14.8125 8.859375 
Q 5.609375 19.140625 5.609375 36.375 
Q 5.609375 53.65625 14.8125 63.9375 
Q 24.03125 74.21875 39.40625 74.21875 
Q 54.734375 74.21875 63.90625 63.9375 
Q 73.09375 53.65625 73.09375 36.375 
Q 73.09375 23.6875 67.984375 14.640625 
Q 62.890625 5.609375 53.21875 1.3125 
z
" id="DejaVuSans-81"/>
      <path id="DejaVuSans-32"/>
      <path d="M 18.109375 8.203125 
L 18.109375 -20.796875 
L 9.078125 -20.796875 
L 9.078125 54.6875 
L 18.109375 54.6875 
L 18.109375 46.390625 
Q 20.953125 51.265625 25.265625 53.625 
Q 29.59375 56 35.59375 56 
Q 45.5625 56 51.78125 48.09375 
Q 58.015625 40.1875 58.015625 27.296875 
Q 58.015625 14.40625 51.78125 6.484375 
Q 45.5625 -1.421875 35.59375 -1.421875 
Q 29.59375 -1.421875 25.265625 0.953125 
Q 20.953125 3.328125 18.109375 8.203125 
z
M 48.6875 27.296875 
Q 48.6875 37.203125 44.609375 42.84375 
Q 40.53125 48.484375 33.40625 48.484375 
Q 26.265625 48.484375 22.1875 42.84375 
Q 18.109375 37.203125 18.109375 27.296875 
Q 18.109375 17.390625 22.1875 11.75 
Q 26.265625 6.109375 33.40625 6.109375 
Q 40.53125 6.109375 44.609375 11.75 
Q 48.6875 17.390625 48.6875 27.296875 
z
" id="DejaVuSans-112"/>
      <path d="M 48.78125 52.59375 
L 48.78125 44.1875 
Q 44.96875 46.296875 41.140625 47.34375 
Q 37.3125 48.390625 33.40625 48.390625 
Q 24.65625 48.390625 19.8125 42.84375 
Q 14.984375 37.3125 14.984375 27.296875 
Q 14.984375 17.28125 19.8125 11.734375 
Q 24.65625 6.203125 33.40625 6.203125 
Q 37.3125 6.203125 41.140625 7.25 
Q 44.96875 8.296875 48.78125 10.40625 
L 48.78125 2.09375 
Q 45.015625 0.34375 40.984375 -0.53125 
Q 36.96875 -1.421875 32.421875 -1.421875 
Q 20.0625 -1.421875 12.78125 6.34375 
Q 5.515625 14.109375 5.515625 27.296875 
Q 5.515625 40.671875 12.859375 48.328125 
Q 20.21875 56 33.015625 56 
Q 37.15625 56 41.109375 55.140625 
Q 45.0625 54.296875 48.78125 52.59375 
z
" id="DejaVuSans-99"/>
      <path d="M 54.890625 33.015625 
L 54.890625 0 
L 45.90625 0 
L 45.90625 32.71875 
Q 45.90625 40.484375 42.875 44.328125 
Q 39.84375 48.1875 33.796875 48.1875 
Q 26.515625 48.1875 22.3125 43.546875 
Q 18.109375 38.921875 18.109375 30.90625 
L 18.109375 0 
L 9.078125 0 
L 9.078125 54.6875 
L 18.109375 54.6875 
L 18.109375 46.1875 
Q 21.34375 51.125 25.703125 53.5625 
Q 30.078125 56 35.796875 56 
Q 45.21875 56 50.046875 50.171875 
Q 54.890625 44.34375 54.890625 33.015625 
z
" id="DejaVuSans-110"/>
      <path d="M 18.3125 70.21875 
L 18.3125 54.6875 
L 36.8125 54.6875 
L 36.8125 47.703125 
L 18.3125 47.703125 
L 18.3125 18.015625 
Q 18.3125 11.328125 20.140625 9.421875 
Q 21.96875 7.515625 27.59375 7.515625 
L 36.8125 7.515625 
L 36.8125 0 
L 27.59375 0 
Q 17.1875 0 13.234375 3.875 
Q 9.28125 7.765625 9.28125 18.015625 
L 9.28125 47.703125 
L 2.6875 47.703125 
L 2.6875 54.6875 
L 9.28125 54.6875 
L 9.28125 70.21875 
z
" id="DejaVuSans-116"/>
      <path d="M 9.421875 54.6875 
L 18.40625 54.6875 
L 18.40625 0 
L 9.421875 0 
z
M 9.421875 75.984375 
L 18.40625 75.984375 
L 18.40625 64.59375 
L 9.421875 64.59375 
z
" id="DejaVuSans-105"/>
      <path d="M 9.421875 75.984375 
L 18.40625 75.984375 
L 18.40625 0 
L 9.421875 0 
z
" id="DejaVuSans-108"/>
     </defs>
     <g transform="translate(15.558281 153.842344)rotate(-90)scale(0.11 -0.11)">
      <use xlink:href="#DejaVuSans-81"/>
      <use x="78.710938" xlink:href="#DejaVuSans-49"/>
      <use x="142.333984" xlink:href="#DejaVuSans-32"/>
      <use x="174.121094" xlink:href="#DejaVuSans-112"/>
      <use x="237.597656" xlink:href="#DejaVuSans-101"/>
      <use x="299.121094" xlink:href="#DejaVuSans-114"/>
      <use x="340.203125" xlink:href="#DejaVuSans-99"/>
      <use x="395.183594" xlink:href="#DejaVuSans-101"/>
      <use x="456.707031" xlink:href="#DejaVuSans-110"/>
      <use x="520.085938" xlink:href="#DejaVuSans-116"/>
      <use x="559.294922" xlink:href="#DejaVuSans-105"/>
      <use x="587.078125" xlink:href="#DejaVuSans-108"/>
      <use x="614.861328" xlink:href="#DejaVuSans-101"/>
     </g>
    </g>
   </g>
   <g id="PathCollection_1">
    <path clip-path="url(#p3ab02d6fa7)" d="M 261.873324 100.325989 
C 262.343384 100.325989 262.794255 100.139232 263.126638 99.806849 
C 263.459021 99.474467 263.645778 99.023596 263.645778 98.553535 
C 263.645778 98.083475 263.459021 97.632604 263.126638 97.300221 
C 262.794255 96.967838 262.343384 96.781082 261.873324 96.781082 
C 261.403264 96.781082 260.952393 96.967838 260.62001 97.300221 
C 260.287627 97.632604 260.10087 98.083475 260.10087 98.553535 
C 260.10087 99.023596 260.287627 99.474467 260.62001 99.806849 
C 260.952393 100.139232 261.403264 100.325989 261.873324 100.325989 
z
" style="stroke:#000000;stroke-width:0.886227;"/>
    <path clip-path="url(#p3ab02d6fa7)" d="M 269.989687 167.254474 
C 270.459748 167.254474 270.910619 167.067717 271.243002 166.735334 
C 271.575384 166.402952 271.762141 165.95208 271.762141 165.48202 
C 271.762141 165.01196 271.575384 164.561089 271.243002 164.228706 
C 270.910619 163.896323 270.459748 163.709566 269.989687 163.709566 
C 269.519627 163.709566 269.068756 163.896323 268.736373 164.228706 
C 268.403991 164.561089 268.217234 165.01196 268.217234 165.48202 
C 268.217234 165.95208 268.403991 166.402952 268.736373 166.735334 
C 269.068756 167.067717 269.519627 167.254474 269.989687 167.254474 
z
" style="stroke:#000000;stroke-width:0.886227;"/>
    <path clip-path="url(#p3ab02d6fa7)" d="M 278.106051 149.266595 
C 278.576111 149.266595 279.026982 149.079838 279.359365 148.747456 
C 279.691748 148.415073 279.878505 147.964202 279.878505 147.494141 
C 279.878505 147.024081 279.691748 146.57321 279.359365 146.240827 
C 279.026982 145.908444 278.576111 145.721688 278.106051 145.721688 
C 277.635991 145.721688 277.18512 145.908444 276.852737 146.240827 
C 276.520354 146.57321 276.333597 147.024081 276.333597 147.494141 
C 276.333597 147.964202 276.520354 148.415073 276.852737 148.747456 
C 277.18512 149.079838 277.635991 149.266595 278.106051 149.266595 
z
" style="stroke:#000000;stroke-width:0.886227;"/>
    <path clip-path="url(#p3ab02d6fa7)" d="M 286.222415 111.184628 
C 286.692475 111.184628 287.143346 110.997871 287.475729 110.665488 
C 287.808112 110.333105 287.994869 109.882234 287.994869 109.412174 
C 287.994869 108.942114 287.808112 108.491243 287.475729 108.15886 
C 287.143346 107.826477 286.692475 107.63972 286.222415 107.63972 
C 285.752355 107.63972 285.301483 107.826477 284.969101 108.15886 
C 284.636718 108.491243 284.449961 108.942114 284.449961 109.412174 
C 284.449961 109.882234 284.636718 110.333105 284.969101 110.665488 
C 285.301483 110.997871 285.752355 111.184628 286.222415 111.184628 
z
" style="stroke:#000000;stroke-width:0.886227;"/>
    <path clip-path="url(#p3ab02d6fa7)" d="M 294.338778 119.925554 
C 294.808839 119.925554 295.25971 119.738797 295.592093 119.406414 
C 295.924475 119.074032 296.111232 118.62316 296.111232 118.1531 
C 296.111232 117.68304 295.924475 117.232169 295.592093 116.899786 
C 295.25971 116.567403 294.808839 116.380646 294.338778 116.380646 
C 293.868718 116.380646 293.417847 116.567403 293.085464 116.899786 
C 292.753081 117.232169 292.566325 117.68304 292.566325 118.1531 
C 292.566325 118.62316 292.753081 119.074032 293.085464 119.406414 
C 293.417847 119.738797 293.868718 119.925554 294.338778 119.925554 
z
" style="stroke:#000000;stroke-width:0.886227;"/>
    <path clip-path="url(#p3ab02d6fa7)" d="M 302.455142 116.745916 
C 302.925202 116.745916 303.376073 116.559159 303.708456 116.226776 
C 304.040839 115.894394 304.227596 115.443523 304.227596 114.973462 
C 304.227596 114.503402 304.040839 114.052531 303.708456 113.720148 
C 303.376073 113.387765 302.925202 113.201008 302.455142 113.201008 
C 301.985082 113.201008 301.534211 113.387765 301.201828 113.720148 
C 300.869445 114.052531 300.682688 114.503402 300.682688 114.973462 
C 300.682688 115.443523 300.869445 115.894394 301.201828 116.226776 
C 301.534211 116.559159 301.985082 116.745916 302.455142 116.745916 
z
" style="stroke:#000000;stroke-width:0.886227;"/>
    <path clip-path="url(#p3ab02d6fa7)" d="M 310.571506 134.746489 
C 311.041566 134.746489 311.492437 134.559732 311.82482 134.227349 
C 312.157203 133.894966 312.34396 133.444095 312.34396 132.974035 
C 312.34396 132.503975 312.157203 132.053104 311.82482 131.720721 
C 311.492437 131.388338 311.041566 131.201581 310.571506 131.201581 
C 310.101445 131.201581 309.650574 131.388338 309.318192 131.720721 
C 308.985809 132.053104 308.799052 132.503975 308.799052 132.974035 
C 308.799052 133.444095 308.985809 133.894966 309.318192 134.227349 
C 309.650574 134.559732 310.101445 134.746489 310.571506 134.746489 
z
" style="stroke:#000000;stroke-width:0.886227;"/>
    <path clip-path="url(#p3ab02d6fa7)" d="M 318.687869 112.157784 
C 319.15793 112.157784 319.608801 111.971027 319.941183 111.638644 
C 320.273566 111.306262 320.460323 110.85539 320.460323 110.38533 
C 320.460323 109.91527 320.273566 109.464399 319.941183 109.132016 
C 319.608801 108.799633 319.15793 108.612876 318.687869 108.612876 
C 318.217809 108.612876 317.766938 108.799633 317.434555 109.132016 
C 317.102172 109.464399 316.915415 109.91527 316.915415 110.38533 
C 316.915415 110.85539 317.102172 111.306262 317.434555 111.638644 
C 317.766938 111.971027 318.217809 112.157784 318.687869 112.157784 
z
" style="stroke:#000000;stroke-width:0.886227;"/>
    <path clip-path="url(#p3ab02d6fa7)" d="M 326.804233 112.279121 
C 327.274293 112.279121 327.725164 112.092364 328.057547 111.759981 
C 328.38993 111.427598 328.576687 110.976727 328.576687 110.506667 
C 328.576687 110.036606 328.38993 109.585735 328.057547 109.253353 
C 327.725164 108.92097 327.274293 108.734213 326.804233 108.734213 
C 326.334173 108.734213 325.883302 108.92097 325.550919 109.253353 
C 325.218536 109.585735 325.031779 110.036606 325.031779 110.506667 
C 325.031779 110.976727 325.218536 111.427598 325.550919 111.759981 
C 325.883302 112.092364 326.334173 112.279121 326.804233 112.279121 
z
" style="stroke:#000000;stroke-width:0.886227;"/>
    <path clip-path="url(#p3ab02d6fa7)" d="M 334.920597 112.147294 
C 335.390657 112.147294 335.841528 111.960537 336.173911 111.628154 
C 336.506294 111.295772 336.69305 110.844901 336.69305 110.37484 
C 336.69305 109.90478 336.506294 109.453909 336.173911 109.121526 
C 335.841528 108.789143 335.390657 108.602386 334.920597 108.602386 
C 334.450536 108.602386 333.999665 108.789143 333.667282 109.121526 
C 333.3349 109.453909 333.148143 109.90478 333.148143 110.37484 
C 333.148143 110.844901 333.3349 111.295772 333.667282 111.628154 
C 333.999665 111.960537 334.450536 112.147294 334.920597 112.147294 
z
" style="stroke:#000000;stroke-width:0.886227;"/>
    <path clip-path="url(#p3ab02d6fa7)" d="M 343.03696 127.281108 
C 343.50702 127.281108 343.957892 127.094351 344.290274 126.761969 
C 344.622657 126.429586 344.809414 125.978715 344.809414 125.508655 
C 344.809414 125.038594 344.622657 124.587723 344.290274 124.25534 
C 343.957892 123.922958 343.50702 123.736201 343.03696 123.736201 
C 342.5669 123.736201 342.116029 123.922958 341.783646 124.25534 
C 341.451263 124.587723 341.264506 125.038594 341.264506 125.508655 
C 341.264506 125.978715 341.451263 126.429586 341.783646 126.761969 
C 342.116029 127.094351 342.5669 127.281108 343.03696 127.281108 
z
" style="stroke:#000000;stroke-width:0.886227;"/>
    <path clip-path="url(#p3ab02d6fa7)" d="M 351.153324 150.536937 
C 351.623384 150.536937 352.074255 150.35018 352.406638 150.017798 
C 352.739021 149.685415 352.925778 149.234544 352.925778 148.764483 
C 352.925778 148.294423 352.739021 147.843552 352.406638 147.511169 
C 352.074255 147.178786 351.623384 146.99203 351.153324 146.99203 
C 350.683264 146.99203 350.232393 147.178786 349.90001 147.511169 
C 349.567627 147.843552 349.38087 148.294423 349.38087 148.764483 
C 349.38087 149.234544 349.567627 149.685415 349.90001 150.017798 
C 350.232393 150.35018 350.683264 150.536937 351.153324 150.536937 
z
" style="stroke:#000000;stroke-width:0.886227;"/>
    <path clip-path="url(#p3ab02d6fa7)" d="M 359.269688 145.662058 
C 359.739748 145.662058 360.190619 145.475301 360.523002 145.142918 
C 360.855384 144.810535 361.042141 144.359664 361.042141 143.889604 
C 361.042141 143.419543 360.855384 142.968672 360.523002 142.63629 
C 360.190619 142.303907 359.739748 142.11715 359.269688 142.11715 
C 358.799627 142.11715 358.348756 142.303907 358.016373 142.63629 
C 357.683991 142.968672 357.497234 143.419543 357.497234 143.889604 
C 357.497234 144.359664 357.683991 144.810535 358.016373 145.142918 
C 358.348756 145.475301 358.799627 145.662058 359.269688 145.662058 
z
" style="stroke:#000000;stroke-width:0.886227;"/>
    <path clip-path="url(#p3ab02d6fa7)" d="M 367.386051 128.986144 
C 367.856111 128.986144 368.306982 128.799387 368.639365 128.467004 
C 368.971748 128.134621 369.158505 127.68375 369.158505 127.21369 
C 369.158505 126.74363 368.971748 126.292758 368.639365 125.960376 
C 368.306982 125.627993 367.856111 125.441236 367.386051 125.441236 
C 366.915991 125.441236 366.46512 125.627993 366.132737 125.960376 
C 365.800354 126.292758 365.613597 126.74363 365.613597 127.21369 
C 365.613597 127.68375 365.800354 128.134621 366.132737 128.467004 
C 366.46512 128.799387 366.915991 128.986144 367.386051 128.986144 
z
" style="stroke:#000000;stroke-width:0.886227;"/>
    <path clip-path="url(#p3ab02d6fa7)" d="M 375.502415 122.144042 
C 375.972475 122.144042 376.423346 121.957285 376.755729 121.624902 
C 377.088112 121.292519 377.274869 120.841648 377.274869 120.371588 
C 377.274869 119.901528 377.088112 119.450657 376.755729 119.118274 
C 376.423346 118.785891 375.972475 118.599134 375.502415 118.599134 
C 375.032355 118.599134 374.581483 118.785891 374.249101 119.118274 
C 373.916718 119.450657 373.729961 119.901528 373.729961 120.371588 
C 373.729961 120.841648 373.916718 121.292519 374.249101 121.624902 
C 374.581483 121.957285 375.032355 122.144042 375.502415 122.144042 
z
" style="stroke:#000000;stroke-width:0.886227;"/>
    <path clip-path="url(#p3ab02d6fa7)" d="M 383.618778 132.994303 
C 384.088839 132.994303 384.53971 132.807546 384.872093 132.475163 
C 385.204475 132.14278 385.391232 131.691909 385.391232 131.221849 
C 385.391232 130.751789 385.204475 130.300918 384.872093 129.968535 
C 384.53971 129.636152 384.088839 129.449395 383.618778 129.449395 
C 383.148718 129.449395 382.697847 129.636152 382.365464 129.968535 
C 382.033081 130.300918 381.846325 130.751789 381.846325 131.221849 
C 381.846325 131.691909 382.033081 132.14278 382.365464 132.475163 
C 382.697847 132.807546 383.148718 132.994303 383.618778 132.994303 
z
" style="stroke:#000000;stroke-width:0.886227;"/>
    <path clip-path="url(#p3ab02d6fa7)" d="M 391.735142 106.750716 
C 392.205202 106.750716 392.656073 106.56396 392.988456 106.231577 
C 393.320839 105.899194 393.507596 105.448323 393.507596 104.978263 
C 393.507596 104.508202 393.320839 104.057331 392.988456 103.724948 
C 392.656073 103.392566 392.205202 103.205809 391.735142 103.205809 
C 391.265082 103.205809 390.814211 103.392566 390.481828 103.724948 
C 390.149445 104.057331 389.962688 104.508202 389.962688 104.978263 
C 389.962688 105.448323 390.149445 105.899194 390.481828 106.231577 
C 390.814211 106.56396 391.265082 106.750716 391.735142 106.750716 
z
" style="stroke:#000000;stroke-width:0.886227;"/>
    <path clip-path="url(#p3ab02d6fa7)" d="M 399.851506 123.469279 
C 400.321566 123.469279 400.772437 123.282522 401.10482 122.950139 
C 401.437203 122.617756 401.62396 122.166885 401.62396 121.696825 
C 401.62396 121.226765 401.437203 120.775894 401.10482 120.443511 
C 400.772437 120.111128 400.321566 119.924371 399.851506 119.924371 
C 399.381445 119.924371 398.930574 120.111128 398.598192 120.443511 
C 398.265809 120.775894 398.079052 121.226765 398.079052 121.696825 
C 398.079052 122.166885 398.265809 122.617756 398.598192 122.950139 
C 398.930574 123.282522 399.381445 123.469279 399.851506 123.469279 
z
" style="stroke:#000000;stroke-width:0.886227;"/>
    <path clip-path="url(#p3ab02d6fa7)" d="M 407.967869 126.310824 
C 408.43793 126.310824 408.888801 126.124067 409.221183 125.791684 
C 409.553566 125.459301 409.740323 125.00843 409.740323 124.53837 
C 409.740323 124.06831 409.553566 123.617439 409.221183 123.285056 
C 408.888801 122.952673 408.43793 122.765916 407.967869 122.765916 
C 407.497809 122.765916 407.046938 122.952673 406.714555 123.285056 
C 406.382172 123.617439 406.195415 124.06831 406.195415 124.53837 
C 406.195415 125.00843 406.382172 125.459301 406.714555 125.791684 
C 407.046938 126.124067 407.497809 126.310824 407.967869 126.310824 
z
" style="stroke:#000000;stroke-width:0.886227;"/>
    <path clip-path="url(#p3ab02d6fa7)" d="M 416.084233 107.042266 
C 416.554293 107.042266 417.005164 106.855509 417.337547 106.523126 
C 417.66993 106.190743 417.856687 105.739872 417.856687 105.269812 
C 417.856687 104.799752 417.66993 104.348881 417.337547 104.016498 
C 417.005164 103.684115 416.554293 103.497358 416.084233 103.497358 
C 415.614173 103.497358 415.163302 103.684115 414.830919 104.016498 
C 414.498536 104.348881 414.311779 104.799752 414.311779 105.269812 
C 414.311779 105.739872 414.498536 106.190743 414.830919 106.523126 
C 415.163302 106.855509 415.614173 107.042266 416.084233 107.042266 
z
" style="stroke:#000000;stroke-width:0.886227;"/>
    <path clip-path="url(#p3ab02d6fa7)" d="M 424.200597 98.45706 
C 424.670657 98.45706 425.121528 98.270303 425.453911 97.93792 
C 425.786294 97.605537 425.97305 97.154666 425.97305 96.684606 
C 425.97305 96.214546 425.786294 95.763675 425.453911 95.431292 
C 425.121528 95.098909 424.670657 94.912152 424.200597 94.912152 
C 423.730536 94.912152 423.279665 95.098909 422.947282 95.431292 
C 422.6149 95.763675 422.428143 96.214546 422.428143 96.684606 
C 422.428143 97.154666 422.6149 97.605537 422.947282 97.93792 
C 423.279665 98.270303 423.730536 98.45706 424.200597 98.45706 
z
" style="stroke:#000000;stroke-width:0.886227;"/>
    <path clip-path="url(#p3ab02d6fa7)" d="M 432.31696 121.675665 
C 432.78702 121.675665 433.237892 121.488908 433.570274 121.156526 
C 433.902657 120.824143 434.089414 120.373272 434.089414 119.903212 
C 434.089414 119.433151 433.902657 118.98228 433.570274 118.649897 
C 433.237892 118.317515 432.78702 118.130758 432.31696 118.130758 
C 431.8469 118.130758 431.396029 118.317515 431.063646 118.649897 
C 430.731263 118.98228 430.544506 119.433151 430.544506 119.903212 
C 430.544506 120.373272 430.731263 120.824143 431.063646 121.156526 
C 431.396029 121.488908 431.8469 121.675665 432.31696 121.675665 
z
" style="stroke:#000000;stroke-width:0.886227;"/>
    <path clip-path="url(#p3ab02d6fa7)" d="M 440.433324 101.31163 
C 440.903384 101.31163 441.354255 101.124873 441.686638 100.79249 
C 442.019021 100.460107 442.205778 100.009236 442.205778 99.539176 
C 442.205778 99.069116 442.019021 98.618245 441.686638 98.285862 
C 441.354255 97.953479 440.903384 97.766722 440.433324 97.766722 
C 439.963264 97.766722 439.512393 97.953479 439.18001 98.285862 
C 438.847627 98.618245 438.66087 99.069116 438.66087 99.539176 
C 438.66087 100.009236 438.847627 100.460107 439.18001 100.79249 
C 439.512393 101.124873 439.963264 101.31163 440.433324 101.31163 
z
" style="stroke:#000000;stroke-width:0.886227;"/>
    <path clip-path="url(#p3ab02d6fa7)" d="M 448.549687 95.778643 
C 449.019748 95.778643 449.470619 95.591886 449.803002 95.259503 
C 450.135384 94.92712 450.322141 94.476249 450.322141 94.006189 
C 450.322141 93.536129 450.135384 93.085258 449.803002 92.752875 
C 449.470619 92.420492 449.019748 92.233735 448.549687 92.233735 
C 448.079627 92.233735 447.628756 92.420492 447.296373 92.752875 
C 446.963991 93.085258 446.777234 93.536129 446.777234 94.006189 
C 446.777234 94.476249 446.963991 94.92712 447.296373 95.259503 
C 447.628756 95.591886 448.079627 95.778643 448.549687 95.778643 
z
" style="stroke:#000000;stroke-width:0.886227;"/>
    <path clip-path="url(#p3ab02d6fa7)" d="M 456.666051 116.584026 
C 457.136111 116.584026 457.586982 116.397269 457.919365 116.064886 
C 458.251748 115.732504 458.438505 115.281633 458.438505 114.811572 
C 458.438505 114.341512 458.251748 113.890641 457.919365 113.558258 
C 457.586982 113.225875 457.136111 113.039118 456.666051 113.039118 
C 456.195991 113.039118 455.74512 113.225875 455.412737 113.558258 
C 455.080354 113.890641 454.893597 114.341512 454.893597 114.811572 
C 454.893597 115.281633 455.080354 115.732504 455.412737 116.064886 
C 455.74512 116.397269 456.195991 116.584026 456.666051 116.584026 
z
" style="stroke:#000000;stroke-width:0.886227;"/>
    <path clip-path="url(#p3ab02d6fa7)" d="M 464.782415 136.132415 
C 465.252475 136.132415 465.703346 135.945658 466.035729 135.613275 
C 466.368112 135.280892 466.554869 134.830021 466.554869 134.359961 
C 466.554869 133.889901 466.368112 133.43903 466.035729 133.106647 
C 465.703346 132.774264 465.252475 132.587507 464.782415 132.587507 
C 464.312355 132.587507 463.861483 132.774264 463.529101 133.106647 
C 463.196718 133.43903 463.009961 133.889901 463.009961 134.359961 
C 463.009961 134.830021 463.196718 135.280892 463.529101 135.613275 
C 463.861483 135.945658 464.312355 136.132415 464.782415 136.132415 
z
" style="stroke:#000000;stroke-width:0.886227;"/>
   </g>
   <g id="line2d_41">
    <path clip-path="url(#p3ab02d6fa7)" d="M 261.873324 98.553535 
L 269.989687 165.48202 
L 278.106051 147.494141 
L 286.222415 109.412174 
L 294.338778 118.1531 
L 302.455142 114.973462 
L 310.571506 132.974035 
L 318.687869 110.38533 
L 326.804233 110.506667 
L 334.920597 110.37484 
L 343.03696 125.508655 
L 351.153324 148.764483 
L 359.269688 143.889604 
L 367.386051 127.21369 
L 375.502415 120.371588 
L 383.618778 131.221849 
L 391.735142 104.978263 
L 399.851506 121.696825 
L 407.967869 124.53837 
L 416.084233 105.269812 
L 424.200597 96.684606 
L 432.31696 119.903212 
L 440.433324 99.539176 
L 448.549687 94.006189 
L 456.666051 114.811572 
L 464.782415 134.359961 
" style="fill:none;stroke:#000000;stroke-width:0.886227;"/>
   </g>
  </g>
 </g>
 <defs>
  <clipPath id="p3ab02d6fa7">
   <rect height="221.76" width="446.4" x="46.789687" y="7.2"/>
  </clipPath>
 </defs>
</svg>
