<?xml version="1.0" encoding="utf-8" standalone="no"?>
<!DOCTYPE svg PUBLIC "-//W3C//DTD SVG 1.1//EN"
  "http://www.w3.org/Graphics/SVG/1.1/DTD/svg11.dtd">
<!-- Created with matplotlib (https://matplotlib.org/) -->
<svg height="283.578058pt" version="1.1" viewBox="0 0 500.389687 283.578058" width="500.389687pt" xmlns="http://www.w3.org/2000/svg" xmlns:xlink="http://www.w3.org/1999/xlink">
 <defs>
  <style type="text/css">
*{stroke-linecap:butt;stroke-linejoin:round;}
  </style>
 </defs>
 <g id="figure_1">
  <g id="patch_1">
   <path d="M 0 283.578058 
L 500.389687 283.578058 
L 500.389687 0 
L 0 0 
z
" style="fill:#ffffff;stroke:#ffffff;stroke-linejoin:miter;"/>
  </g>
  <g id="axes_1">
   <g id="patch_2">
    <path d="M 46.789687 247.865371 
L 493.189687 247.865371 
L 493.189687 26.105371 
L 46.789687 26.105371 
z
" style="fill:#ffffff;stroke:#7f7f7f;stroke-linejoin:miter;"/>
   </g>
   <g id="matplotlib.axis_1">
    <g id="xtick_1">
     <g id="line2d_1">
      <path clip-path="url(#p3ffee80efe)" d="M 67.080597 247.865371 
L 67.080597 26.105371 
" style="fill:none;stroke:#e5e5e5;stroke-width:0.8;"/>
     </g>
     <g id="line2d_2">
      <path d="M 67.080597 247.865371 
" style="fill:none;stroke:#000000;stroke-width:1.5;"/>
      <defs>
       <path d="M 0 0 
L 0 2.75 
" id="me371546a44" style="stroke:#000000;"/>
      </defs>
      <g>
       <use style="stroke:#000000;" x="67.080597" xlink:href="#me371546a44" y="247.865371"/>
      </g>
     </g>
     <g id="text_1">
      <!-- 1 -->
      <defs>
       <path d="M 12.40625 8.296875 
L 28.515625 8.296875 
L 28.515625 63.921875 
L 10.984375 60.40625 
L 10.984375 69.390625 
L 28.421875 72.90625 
L 38.28125 72.90625 
L 38.28125 8.296875 
L 54.390625 8.296875 
L 54.390625 0 
L 12.40625 0 
z
" id="DejaVuSans-49"/>
      </defs>
      <g style="fill:#4d4d4d;" transform="translate(64.281097 259.501996)scale(0.088 -0.088)">
       <use xlink:href="#DejaVuSans-49"/>
      </g>
     </g>
    </g>
    <g id="xtick_2">
     <g id="line2d_3">
      <path clip-path="url(#p3ffee80efe)" d="M 202.353324 247.865371 
L 202.353324 26.105371 
" style="fill:none;stroke:#e5e5e5;stroke-width:0.8;"/>
     </g>
     <g id="line2d_4">
      <path d="M 202.353324 247.865371 
" style="fill:none;stroke:#000000;stroke-width:1.5;"/>
      <g>
       <use style="stroke:#000000;" x="202.353324" xlink:href="#me371546a44" y="247.865371"/>
      </g>
     </g>
     <g id="text_2">
      <!-- 2 -->
      <defs>
       <path d="M 19.1875 8.296875 
L 53.609375 8.296875 
L 53.609375 0 
L 7.328125 0 
L 7.328125 8.296875 
Q 12.9375 14.109375 22.625 23.890625 
Q 32.328125 33.6875 34.8125 36.53125 
Q 39.546875 41.84375 41.421875 45.53125 
Q 43.3125 49.21875 43.3125 52.78125 
Q 43.3125 58.59375 39.234375 62.25 
Q 35.15625 65.921875 28.609375 65.921875 
Q 23.96875 65.921875 18.8125 64.3125 
Q 13.671875 62.703125 7.8125 59.421875 
L 7.8125 69.390625 
Q 13.765625 71.78125 18.9375 73 
Q 24.125 74.21875 28.421875 74.21875 
Q 39.75 74.21875 46.484375 68.546875 
Q 53.21875 62.890625 53.21875 53.421875 
Q 53.21875 48.921875 51.53125 44.890625 
Q 49.859375 40.875 45.40625 35.40625 
Q 44.1875 33.984375 37.640625 27.21875 
Q 31.109375 20.453125 19.1875 8.296875 
z
" id="DejaVuSans-50"/>
      </defs>
      <g style="fill:#4d4d4d;" transform="translate(199.553824 259.501996)scale(0.088 -0.088)">
       <use xlink:href="#DejaVuSans-50"/>
      </g>
     </g>
    </g>
    <g id="xtick_3">
     <g id="line2d_5">
      <path clip-path="url(#p3ffee80efe)" d="M 337.626051 247.865371 
L 337.626051 26.105371 
" style="fill:none;stroke:#e5e5e5;stroke-width:0.8;"/>
     </g>
     <g id="line2d_6">
      <path d="M 337.626051 247.865371 
" style="fill:none;stroke:#000000;stroke-width:1.5;"/>
      <g>
       <use style="stroke:#000000;" x="337.626051" xlink:href="#me371546a44" y="247.865371"/>
      </g>
     </g>
     <g id="text_3">
      <!-- 3 -->
      <defs>
       <path d="M 40.578125 39.3125 
Q 47.65625 37.796875 51.625 33 
Q 55.609375 28.21875 55.609375 21.1875 
Q 55.609375 10.40625 48.1875 4.484375 
Q 40.765625 -1.421875 27.09375 -1.421875 
Q 22.515625 -1.421875 17.65625 -0.515625 
Q 12.796875 0.390625 7.625 2.203125 
L 7.625 11.71875 
Q 11.71875 9.328125 16.59375 8.109375 
Q 21.484375 6.890625 26.8125 6.890625 
Q 36.078125 6.890625 40.9375 10.546875 
Q 45.796875 14.203125 45.796875 21.1875 
Q 45.796875 27.640625 41.28125 31.265625 
Q 36.765625 34.90625 28.71875 34.90625 
L 20.21875 34.90625 
L 20.21875 43.015625 
L 29.109375 43.015625 
Q 36.375 43.015625 40.234375 45.921875 
Q 44.09375 48.828125 44.09375 54.296875 
Q 44.09375 59.90625 40.109375 62.90625 
Q 36.140625 65.921875 28.71875 65.921875 
Q 24.65625 65.921875 20.015625 65.03125 
Q 15.375 64.15625 9.8125 62.3125 
L 9.8125 71.09375 
Q 15.4375 72.65625 20.34375 73.4375 
Q 25.25 74.21875 29.59375 74.21875 
Q 40.828125 74.21875 47.359375 69.109375 
Q 53.90625 64.015625 53.90625 55.328125 
Q 53.90625 49.265625 50.4375 45.09375 
Q 46.96875 40.921875 40.578125 39.3125 
z
" id="DejaVuSans-51"/>
      </defs>
      <g style="fill:#4d4d4d;" transform="translate(334.826551 259.501996)scale(0.088 -0.088)">
       <use xlink:href="#DejaVuSans-51"/>
      </g>
     </g>
    </g>
    <g id="xtick_4">
     <g id="line2d_7">
      <path clip-path="url(#p3ffee80efe)" d="M 472.898778 247.865371 
L 472.898778 26.105371 
" style="fill:none;stroke:#e5e5e5;stroke-width:0.8;"/>
     </g>
     <g id="line2d_8">
      <path d="M 472.898778 247.865371 
" style="fill:none;stroke:#000000;stroke-width:1.5;"/>
      <g>
       <use style="stroke:#000000;" x="472.898778" xlink:href="#me371546a44" y="247.865371"/>
      </g>
     </g>
     <g id="text_4">
      <!-- 4 -->
      <defs>
       <path d="M 37.796875 64.3125 
L 12.890625 25.390625 
L 37.796875 25.390625 
z
M 35.203125 72.90625 
L 47.609375 72.90625 
L 47.609375 25.390625 
L 58.015625 25.390625 
L 58.015625 17.1875 
L 47.609375 17.1875 
L 47.609375 0 
L 37.796875 0 
L 37.796875 17.1875 
L 4.890625 17.1875 
L 4.890625 26.703125 
z
" id="DejaVuSans-52"/>
      </defs>
      <g style="fill:#4d4d4d;" transform="translate(470.099278 259.501996)scale(0.088 -0.088)">
       <use xlink:href="#DejaVuSans-52"/>
      </g>
     </g>
    </g>
    <g id="xtick_5">
     <g id="line2d_9">
      <path clip-path="url(#p3ffee80efe)" d="M 134.71696 247.865371 
L 134.71696 26.105371 
" style="fill:none;stroke:#fafafa;"/>
     </g>
     <g id="line2d_10">
      <path d="M 134.71696 247.865371 
" style="fill:none;stroke:#000000;stroke-width:1.5;"/>
      <defs>
       <path d="M 0 0 
L 0 1.375 
" id="mc06d49ffab" style="stroke:#000000;"/>
      </defs>
      <g>
       <use style="stroke:#000000;" x="134.71696" xlink:href="#mc06d49ffab" y="247.865371"/>
      </g>
     </g>
    </g>
    <g id="xtick_6">
     <g id="line2d_11">
      <path clip-path="url(#p3ffee80efe)" d="M 269.989688 247.865371 
L 269.989688 26.105371 
" style="fill:none;stroke:#fafafa;"/>
     </g>
     <g id="line2d_12">
      <path d="M 269.989688 247.865371 
" style="fill:none;stroke:#000000;stroke-width:1.5;"/>
      <g>
       <use style="stroke:#000000;" x="269.989688" xlink:href="#mc06d49ffab" y="247.865371"/>
      </g>
     </g>
    </g>
    <g id="xtick_7">
     <g id="line2d_13">
      <path clip-path="url(#p3ffee80efe)" d="M 405.262415 247.865371 
L 405.262415 26.105371 
" style="fill:none;stroke:#fafafa;"/>
     </g>
     <g id="line2d_14">
      <path d="M 405.262415 247.865371 
" style="fill:none;stroke:#000000;stroke-width:1.5;"/>
      <g>
       <use style="stroke:#000000;" x="405.262415" xlink:href="#mc06d49ffab" y="247.865371"/>
      </g>
     </g>
    </g>
    <g id="text_5">
     <!-- Resolution -->
     <defs>
      <path d="M 44.390625 34.1875 
Q 47.5625 33.109375 50.5625 29.59375 
Q 53.5625 26.078125 56.59375 19.921875 
L 66.609375 0 
L 56 0 
L 46.6875 18.703125 
Q 43.0625 26.03125 39.671875 28.421875 
Q 36.28125 30.8125 30.421875 30.8125 
L 19.671875 30.8125 
L 19.671875 0 
L 9.8125 0 
L 9.8125 72.90625 
L 32.078125 72.90625 
Q 44.578125 72.90625 50.734375 67.671875 
Q 56.890625 62.453125 56.890625 51.90625 
Q 56.890625 45.015625 53.6875 40.46875 
Q 50.484375 35.9375 44.390625 34.1875 
z
M 19.671875 64.796875 
L 19.671875 38.921875 
L 32.078125 38.921875 
Q 39.203125 38.921875 42.84375 42.21875 
Q 46.484375 45.515625 46.484375 51.90625 
Q 46.484375 58.296875 42.84375 61.546875 
Q 39.203125 64.796875 32.078125 64.796875 
z
" id="DejaVuSans-82"/>
      <path d="M 56.203125 29.59375 
L 56.203125 25.203125 
L 14.890625 25.203125 
Q 15.484375 15.921875 20.484375 11.0625 
Q 25.484375 6.203125 34.421875 6.203125 
Q 39.59375 6.203125 44.453125 7.46875 
Q 49.3125 8.734375 54.109375 11.28125 
L 54.109375 2.78125 
Q 49.265625 0.734375 44.1875 -0.34375 
Q 39.109375 -1.421875 33.890625 -1.421875 
Q 20.796875 -1.421875 13.15625 6.1875 
Q 5.515625 13.8125 5.515625 26.8125 
Q 5.515625 40.234375 12.765625 48.109375 
Q 20.015625 56 32.328125 56 
Q 43.359375 56 49.78125 48.890625 
Q 56.203125 41.796875 56.203125 29.59375 
z
M 47.21875 32.234375 
Q 47.125 39.59375 43.09375 43.984375 
Q 39.0625 48.390625 32.421875 48.390625 
Q 24.90625 48.390625 20.390625 44.140625 
Q 15.875 39.890625 15.1875 32.171875 
z
" id="DejaVuSans-101"/>
      <path d="M 44.28125 53.078125 
L 44.28125 44.578125 
Q 40.484375 46.53125 36.375 47.5 
Q 32.28125 48.484375 27.875 48.484375 
Q 21.1875 48.484375 17.84375 46.4375 
Q 14.5 44.390625 14.5 40.28125 
Q 14.5 37.15625 16.890625 35.375 
Q 19.28125 33.59375 26.515625 31.984375 
L 29.59375 31.296875 
Q 39.15625 29.25 43.1875 25.515625 
Q 47.21875 21.78125 47.21875 15.09375 
Q 47.21875 7.46875 41.1875 3.015625 
Q 35.15625 -1.421875 24.609375 -1.421875 
Q 20.21875 -1.421875 15.453125 -0.5625 
Q 10.6875 0.296875 5.421875 2 
L 5.421875 11.28125 
Q 10.40625 8.6875 15.234375 7.390625 
Q 20.0625 6.109375 24.8125 6.109375 
Q 31.15625 6.109375 34.5625 8.28125 
Q 37.984375 10.453125 37.984375 14.40625 
Q 37.984375 18.0625 35.515625 20.015625 
Q 33.0625 21.96875 24.703125 23.78125 
L 21.578125 24.515625 
Q 13.234375 26.265625 9.515625 29.90625 
Q 5.8125 33.546875 5.8125 39.890625 
Q 5.8125 47.609375 11.28125 51.796875 
Q 16.75 56 26.8125 56 
Q 31.78125 56 36.171875 55.265625 
Q 40.578125 54.546875 44.28125 53.078125 
z
" id="DejaVuSans-115"/>
      <path d="M 30.609375 48.390625 
Q 23.390625 48.390625 19.1875 42.75 
Q 14.984375 37.109375 14.984375 27.296875 
Q 14.984375 17.484375 19.15625 11.84375 
Q 23.34375 6.203125 30.609375 6.203125 
Q 37.796875 6.203125 41.984375 11.859375 
Q 46.1875 17.53125 46.1875 27.296875 
Q 46.1875 37.015625 41.984375 42.703125 
Q 37.796875 48.390625 30.609375 48.390625 
z
M 30.609375 56 
Q 42.328125 56 49.015625 48.375 
Q 55.71875 40.765625 55.71875 27.296875 
Q 55.71875 13.875 49.015625 6.21875 
Q 42.328125 -1.421875 30.609375 -1.421875 
Q 18.84375 -1.421875 12.171875 6.21875 
Q 5.515625 13.875 5.515625 27.296875 
Q 5.515625 40.765625 12.171875 48.375 
Q 18.84375 56 30.609375 56 
z
" id="DejaVuSans-111"/>
      <path d="M 9.421875 75.984375 
L 18.40625 75.984375 
L 18.40625 0 
L 9.421875 0 
z
" id="DejaVuSans-108"/>
      <path d="M 8.5 21.578125 
L 8.5 54.6875 
L 17.484375 54.6875 
L 17.484375 21.921875 
Q 17.484375 14.15625 20.5 10.265625 
Q 23.53125 6.390625 29.59375 6.390625 
Q 36.859375 6.390625 41.078125 11.03125 
Q 45.3125 15.671875 45.3125 23.6875 
L 45.3125 54.6875 
L 54.296875 54.6875 
L 54.296875 0 
L 45.3125 0 
L 45.3125 8.40625 
Q 42.046875 3.421875 37.71875 1 
Q 33.40625 -1.421875 27.6875 -1.421875 
Q 18.265625 -1.421875 13.375 4.4375 
Q 8.5 10.296875 8.5 21.578125 
z
M 31.109375 56 
z
" id="DejaVuSans-117"/>
      <path d="M 18.3125 70.21875 
L 18.3125 54.6875 
L 36.8125 54.6875 
L 36.8125 47.703125 
L 18.3125 47.703125 
L 18.3125 18.015625 
Q 18.3125 11.328125 20.140625 9.421875 
Q 21.96875 7.515625 27.59375 7.515625 
L 36.8125 7.515625 
L 36.8125 0 
L 27.59375 0 
Q 17.1875 0 13.234375 3.875 
Q 9.28125 7.765625 9.28125 18.015625 
L 9.28125 47.703125 
L 2.6875 47.703125 
L 2.6875 54.6875 
L 9.28125 54.6875 
L 9.28125 70.21875 
z
" id="DejaVuSans-116"/>
      <path d="M 9.421875 54.6875 
L 18.40625 54.6875 
L 18.40625 0 
L 9.421875 0 
z
M 9.421875 75.984375 
L 18.40625 75.984375 
L 18.40625 64.59375 
L 9.421875 64.59375 
z
" id="DejaVuSans-105"/>
      <path d="M 54.890625 33.015625 
L 54.890625 0 
L 45.90625 0 
L 45.90625 32.71875 
Q 45.90625 40.484375 42.875 44.328125 
Q 39.84375 48.1875 33.796875 48.1875 
Q 26.515625 48.1875 22.3125 43.546875 
Q 18.109375 38.921875 18.109375 30.90625 
L 18.109375 0 
L 9.078125 0 
L 9.078125 54.6875 
L 18.109375 54.6875 
L 18.109375 46.1875 
Q 21.34375 51.125 25.703125 53.5625 
Q 30.078125 56 35.796875 56 
Q 45.21875 56 50.046875 50.171875 
Q 54.890625 44.34375 54.890625 33.015625 
z
" id="DejaVuSans-110"/>
     </defs>
     <g transform="translate(233.808125 274.090402)scale(0.11 -0.11)">
      <use xlink:href="#DejaVuSans-82"/>
      <use x="69.419922" xlink:href="#DejaVuSans-101"/>
      <use x="130.943359" xlink:href="#DejaVuSans-115"/>
      <use x="183.042969" xlink:href="#DejaVuSans-111"/>
      <use x="244.224609" xlink:href="#DejaVuSans-108"/>
      <use x="272.007812" xlink:href="#DejaVuSans-117"/>
      <use x="335.386719" xlink:href="#DejaVuSans-116"/>
      <use x="374.595703" xlink:href="#DejaVuSans-105"/>
      <use x="402.378906" xlink:href="#DejaVuSans-111"/>
      <use x="463.560547" xlink:href="#DejaVuSans-110"/>
     </g>
    </g>
   </g>
   <g id="matplotlib.axis_2">
    <g id="ytick_1">
     <g id="line2d_15">
      <path clip-path="url(#p3ffee80efe)" d="M 46.789687 237.785371 
L 493.189687 237.785371 
" style="fill:none;stroke:#e5e5e5;stroke-width:0.8;"/>
     </g>
     <g id="line2d_16">
      <path d="M 46.789687 237.785371 
" style="fill:none;stroke:#000000;stroke-width:1.5;"/>
      <defs>
       <path d="M 0 0 
L -2.75 0 
" id="m956b421421" style="stroke:#000000;"/>
      </defs>
      <g>
       <use style="stroke:#000000;" x="46.789687" xlink:href="#m956b421421" y="237.785371"/>
      </g>
     </g>
     <g id="text_6">
      <!-- 0 -->
      <defs>
       <path d="M 31.78125 66.40625 
Q 24.171875 66.40625 20.328125 58.90625 
Q 16.5 51.421875 16.5 36.375 
Q 16.5 21.390625 20.328125 13.890625 
Q 24.171875 6.390625 31.78125 6.390625 
Q 39.453125 6.390625 43.28125 13.890625 
Q 47.125 21.390625 47.125 36.375 
Q 47.125 51.421875 43.28125 58.90625 
Q 39.453125 66.40625 31.78125 66.40625 
z
M 31.78125 74.21875 
Q 44.046875 74.21875 50.515625 64.515625 
Q 56.984375 54.828125 56.984375 36.375 
Q 56.984375 17.96875 50.515625 8.265625 
Q 44.046875 -1.421875 31.78125 -1.421875 
Q 19.53125 -1.421875 13.0625 8.265625 
Q 6.59375 17.96875 6.59375 36.375 
Q 6.59375 54.828125 13.0625 64.515625 
Q 19.53125 74.21875 31.78125 74.21875 
z
" id="DejaVuSans-48"/>
      </defs>
      <g style="fill:#4d4d4d;" transform="translate(36.240687 240.213621)scale(0.088 -0.088)">
       <use xlink:href="#DejaVuSans-48"/>
      </g>
     </g>
    </g>
    <g id="ytick_2">
     <g id="line2d_17">
      <path clip-path="url(#p3ffee80efe)" d="M 46.789687 187.385371 
L 493.189687 187.385371 
" style="fill:none;stroke:#e5e5e5;stroke-width:0.8;"/>
     </g>
     <g id="line2d_18">
      <path d="M 46.789687 187.385371 
" style="fill:none;stroke:#000000;stroke-width:1.5;"/>
      <g>
       <use style="stroke:#000000;" x="46.789687" xlink:href="#m956b421421" y="187.385371"/>
      </g>
     </g>
     <g id="text_7">
      <!-- 0.25 -->
      <defs>
       <path d="M 10.6875 12.40625 
L 21 12.40625 
L 21 0 
L 10.6875 0 
z
" id="DejaVuSans-46"/>
       <path d="M 10.796875 72.90625 
L 49.515625 72.90625 
L 49.515625 64.59375 
L 19.828125 64.59375 
L 19.828125 46.734375 
Q 21.96875 47.46875 24.109375 47.828125 
Q 26.265625 48.1875 28.421875 48.1875 
Q 40.625 48.1875 47.75 41.5 
Q 54.890625 34.8125 54.890625 23.390625 
Q 54.890625 11.625 47.5625 5.09375 
Q 40.234375 -1.421875 26.90625 -1.421875 
Q 22.3125 -1.421875 17.546875 -0.640625 
Q 12.796875 0.140625 7.71875 1.703125 
L 7.71875 11.625 
Q 12.109375 9.234375 16.796875 8.0625 
Q 21.484375 6.890625 26.703125 6.890625 
Q 35.15625 6.890625 40.078125 11.328125 
Q 45.015625 15.765625 45.015625 23.390625 
Q 45.015625 31 40.078125 35.4375 
Q 35.15625 39.890625 26.703125 39.890625 
Q 22.75 39.890625 18.8125 39.015625 
Q 14.890625 38.140625 10.796875 36.28125 
z
" id="DejaVuSans-53"/>
      </defs>
      <g style="fill:#4d4d4d;" transform="translate(22.245937 189.813621)scale(0.088 -0.088)">
       <use xlink:href="#DejaVuSans-48"/>
       <use x="63.623047" xlink:href="#DejaVuSans-46"/>
       <use x="95.410156" xlink:href="#DejaVuSans-50"/>
       <use x="159.033203" xlink:href="#DejaVuSans-53"/>
      </g>
     </g>
    </g>
    <g id="ytick_3">
     <g id="line2d_19">
      <path clip-path="url(#p3ffee80efe)" d="M 46.789687 136.985371 
L 493.189687 136.985371 
" style="fill:none;stroke:#e5e5e5;stroke-width:0.8;"/>
     </g>
     <g id="line2d_20">
      <path d="M 46.789687 136.985371 
" style="fill:none;stroke:#000000;stroke-width:1.5;"/>
      <g>
       <use style="stroke:#000000;" x="46.789687" xlink:href="#m956b421421" y="136.985371"/>
      </g>
     </g>
     <g id="text_8">
      <!-- 0.50 -->
      <g style="fill:#4d4d4d;" transform="translate(22.245937 139.413621)scale(0.088 -0.088)">
       <use xlink:href="#DejaVuSans-48"/>
       <use x="63.623047" xlink:href="#DejaVuSans-46"/>
       <use x="95.410156" xlink:href="#DejaVuSans-53"/>
       <use x="159.033203" xlink:href="#DejaVuSans-48"/>
      </g>
     </g>
    </g>
    <g id="ytick_4">
     <g id="line2d_21">
      <path clip-path="url(#p3ffee80efe)" d="M 46.789687 86.585371 
L 493.189687 86.585371 
" style="fill:none;stroke:#e5e5e5;stroke-width:0.8;"/>
     </g>
     <g id="line2d_22">
      <path d="M 46.789687 86.585371 
" style="fill:none;stroke:#000000;stroke-width:1.5;"/>
      <g>
       <use style="stroke:#000000;" x="46.789687" xlink:href="#m956b421421" y="86.585371"/>
      </g>
     </g>
     <g id="text_9">
      <!-- 0.75 -->
      <defs>
       <path d="M 8.203125 72.90625 
L 55.078125 72.90625 
L 55.078125 68.703125 
L 28.609375 0 
L 18.3125 0 
L 43.21875 64.59375 
L 8.203125 64.59375 
z
" id="DejaVuSans-55"/>
      </defs>
      <g style="fill:#4d4d4d;" transform="translate(22.245937 89.013621)scale(0.088 -0.088)">
       <use xlink:href="#DejaVuSans-48"/>
       <use x="63.623047" xlink:href="#DejaVuSans-46"/>
       <use x="95.410156" xlink:href="#DejaVuSans-55"/>
       <use x="159.033203" xlink:href="#DejaVuSans-53"/>
      </g>
     </g>
    </g>
    <g id="ytick_5">
     <g id="line2d_23">
      <path clip-path="url(#p3ffee80efe)" d="M 46.789687 36.185371 
L 493.189687 36.185371 
" style="fill:none;stroke:#e5e5e5;stroke-width:0.8;"/>
     </g>
     <g id="line2d_24">
      <path d="M 46.789687 36.185371 
" style="fill:none;stroke:#000000;stroke-width:1.5;"/>
      <g>
       <use style="stroke:#000000;" x="46.789687" xlink:href="#m956b421421" y="36.185371"/>
      </g>
     </g>
     <g id="text_10">
      <!-- 1 -->
      <g style="fill:#4d4d4d;" transform="translate(36.240687 38.613621)scale(0.088 -0.088)">
       <use xlink:href="#DejaVuSans-49"/>
      </g>
     </g>
    </g>
    <g id="ytick_6">
     <g id="line2d_25">
      <path clip-path="url(#p3ffee80efe)" d="M 46.789687 212.585371 
L 493.189687 212.585371 
" style="fill:none;stroke:#fafafa;"/>
     </g>
     <g id="line2d_26">
      <path d="M 46.789687 212.585371 
" style="fill:none;stroke:#000000;stroke-width:1.5;"/>
      <defs>
       <path d="M 0 0 
L -1.375 0 
" id="mb3df655d86" style="stroke:#000000;"/>
      </defs>
      <g>
       <use style="stroke:#000000;" x="46.789687" xlink:href="#mb3df655d86" y="212.585371"/>
      </g>
     </g>
    </g>
    <g id="ytick_7">
     <g id="line2d_27">
      <path clip-path="url(#p3ffee80efe)" d="M 46.789687 162.185371 
L 493.189687 162.185371 
" style="fill:none;stroke:#fafafa;"/>
     </g>
     <g id="line2d_28">
      <path d="M 46.789687 162.185371 
" style="fill:none;stroke:#000000;stroke-width:1.5;"/>
      <g>
       <use style="stroke:#000000;" x="46.789687" xlink:href="#mb3df655d86" y="162.185371"/>
      </g>
     </g>
    </g>
    <g id="ytick_8">
     <g id="line2d_29">
      <path clip-path="url(#p3ffee80efe)" d="M 46.789687 111.785371 
L 493.189687 111.785371 
" style="fill:none;stroke:#fafafa;"/>
     </g>
     <g id="line2d_30">
      <path d="M 46.789687 111.785371 
" style="fill:none;stroke:#000000;stroke-width:1.5;"/>
      <g>
       <use style="stroke:#000000;" x="46.789687" xlink:href="#mb3df655d86" y="111.785371"/>
      </g>
     </g>
    </g>
    <g id="ytick_9">
     <g id="line2d_31">
      <path clip-path="url(#p3ffee80efe)" d="M 46.789687 61.385371 
L 493.189687 61.385371 
" style="fill:none;stroke:#fafafa;"/>
     </g>
     <g id="line2d_32">
      <path d="M 46.789687 61.385371 
" style="fill:none;stroke:#000000;stroke-width:1.5;"/>
      <g>
       <use style="stroke:#000000;" x="46.789687" xlink:href="#mb3df655d86" y="61.385371"/>
      </g>
     </g>
    </g>
    <g id="text_11">
     <!-- Q1 percentile -->
     <defs>
      <path d="M 39.40625 66.21875 
Q 28.65625 66.21875 22.328125 58.203125 
Q 16.015625 50.203125 16.015625 36.375 
Q 16.015625 22.609375 22.328125 14.59375 
Q 28.65625 6.59375 39.40625 6.59375 
Q 50.140625 6.59375 56.421875 14.59375 
Q 62.703125 22.609375 62.703125 36.375 
Q 62.703125 50.203125 56.421875 58.203125 
Q 50.140625 66.21875 39.40625 66.21875 
z
M 53.21875 1.3125 
L 66.21875 -12.890625 
L 54.296875 -12.890625 
L 43.5 -1.21875 
Q 41.890625 -1.3125 41.03125 -1.359375 
Q 40.1875 -1.421875 39.40625 -1.421875 
Q 24.03125 -1.421875 14.8125 8.859375 
Q 5.609375 19.140625 5.609375 36.375 
Q 5.609375 53.65625 14.8125 63.9375 
Q 24.03125 74.21875 39.40625 74.21875 
Q 54.734375 74.21875 63.90625 63.9375 
Q 73.09375 53.65625 73.09375 36.375 
Q 73.09375 23.6875 67.984375 14.640625 
Q 62.890625 5.609375 53.21875 1.3125 
z
" id="DejaVuSans-81"/>
      <path id="DejaVuSans-32"/>
      <path d="M 18.109375 8.203125 
L 18.109375 -20.796875 
L 9.078125 -20.796875 
L 9.078125 54.6875 
L 18.109375 54.6875 
L 18.109375 46.390625 
Q 20.953125 51.265625 25.265625 53.625 
Q 29.59375 56 35.59375 56 
Q 45.5625 56 51.78125 48.09375 
Q 58.015625 40.1875 58.015625 27.296875 
Q 58.015625 14.40625 51.78125 6.484375 
Q 45.5625 -1.421875 35.59375 -1.421875 
Q 29.59375 -1.421875 25.265625 0.953125 
Q 20.953125 3.328125 18.109375 8.203125 
z
M 48.6875 27.296875 
Q 48.6875 37.203125 44.609375 42.84375 
Q 40.53125 48.484375 33.40625 48.484375 
Q 26.265625 48.484375 22.1875 42.84375 
Q 18.109375 37.203125 18.109375 27.296875 
Q 18.109375 17.390625 22.1875 11.75 
Q 26.265625 6.109375 33.40625 6.109375 
Q 40.53125 6.109375 44.609375 11.75 
Q 48.6875 17.390625 48.6875 27.296875 
z
" id="DejaVuSans-112"/>
      <path d="M 41.109375 46.296875 
Q 39.59375 47.171875 37.8125 47.578125 
Q 36.03125 48 33.890625 48 
Q 26.265625 48 22.1875 43.046875 
Q 18.109375 38.09375 18.109375 28.8125 
L 18.109375 0 
L 9.078125 0 
L 9.078125 54.6875 
L 18.109375 54.6875 
L 18.109375 46.1875 
Q 20.953125 51.171875 25.484375 53.578125 
Q 30.03125 56 36.53125 56 
Q 37.453125 56 38.578125 55.875 
Q 39.703125 55.765625 41.0625 55.515625 
z
" id="DejaVuSans-114"/>
      <path d="M 48.78125 52.59375 
L 48.78125 44.1875 
Q 44.96875 46.296875 41.140625 47.34375 
Q 37.3125 48.390625 33.40625 48.390625 
Q 24.65625 48.390625 19.8125 42.84375 
Q 14.984375 37.3125 14.984375 27.296875 
Q 14.984375 17.28125 19.8125 11.734375 
Q 24.65625 6.203125 33.40625 6.203125 
Q 37.3125 6.203125 41.140625 7.25 
Q 44.96875 8.296875 48.78125 10.40625 
L 48.78125 2.09375 
Q 45.015625 0.34375 40.984375 -0.53125 
Q 36.96875 -1.421875 32.421875 -1.421875 
Q 20.0625 -1.421875 12.78125 6.34375 
Q 5.515625 14.109375 5.515625 27.296875 
Q 5.515625 40.671875 12.859375 48.328125 
Q 20.21875 56 33.015625 56 
Q 37.15625 56 41.109375 55.140625 
Q 45.0625 54.296875 48.78125 52.59375 
z
" id="DejaVuSans-99"/>
     </defs>
     <g transform="translate(15.558281 172.747714)rotate(-90)scale(0.11 -0.11)">
      <use xlink:href="#DejaVuSans-81"/>
      <use x="78.710938" xlink:href="#DejaVuSans-49"/>
      <use x="142.333984" xlink:href="#DejaVuSans-32"/>
      <use x="174.121094" xlink:href="#DejaVuSans-112"/>
      <use x="237.597656" xlink:href="#DejaVuSans-101"/>
      <use x="299.121094" xlink:href="#DejaVuSans-114"/>
      <use x="340.203125" xlink:href="#DejaVuSans-99"/>
      <use x="395.183594" xlink:href="#DejaVuSans-101"/>
      <use x="456.707031" xlink:href="#DejaVuSans-110"/>
      <use x="520.085938" xlink:href="#DejaVuSans-116"/>
      <use x="559.294922" xlink:href="#DejaVuSans-105"/>
      <use x="587.078125" xlink:href="#DejaVuSans-108"/>
      <use x="614.861328" xlink:href="#DejaVuSans-101"/>
     </g>
    </g>
   </g>
   <g id="PathCollection_1">
    <path clip-path="url(#p3ffee80efe)" d="M 67.080597 99.134339 
C 67.550657 99.134339 68.001528 98.947582 68.333911 98.615199 
C 68.666294 98.282817 68.85305 97.831945 68.85305 97.361885 
C 68.85305 96.891825 68.666294 96.440954 68.333911 96.108571 
C 68.001528 95.776188 67.550657 95.589431 67.080597 95.589431 
C 66.610536 95.589431 66.159665 95.776188 65.827282 96.108571 
C 65.4949 96.440954 65.308143 96.891825 65.308143 97.361885 
C 65.308143 97.831945 65.4949 98.282817 65.827282 98.615199 
C 66.159665 98.947582 66.610536 99.134339 67.080597 99.134339 
z
" style="stroke:#000000;stroke-width:0.886227;"/>
    <path clip-path="url(#p3ffee80efe)" d="M 80.607869 98.91323 
C 81.07793 98.91323 81.528801 98.726473 81.861183 98.39409 
C 82.193566 98.061707 82.380323 97.610836 82.380323 97.140776 
C 82.380323 96.670716 82.193566 96.219845 81.861183 95.887462 
C 81.528801 95.555079 81.07793 95.368322 80.607869 95.368322 
C 80.137809 95.368322 79.686938 95.555079 79.354555 95.887462 
C 79.022172 96.219845 78.835415 96.670716 78.835415 97.140776 
C 78.835415 97.610836 79.022172 98.061707 79.354555 98.39409 
C 79.686938 98.726473 80.137809 98.91323 80.607869 98.91323 
z
" style="stroke:#000000;stroke-width:0.886227;"/>
    <path clip-path="url(#p3ffee80efe)" d="M 94.135142 89.780631 
C 94.605202 89.780631 95.056073 89.593874 95.388456 89.261491 
C 95.720839 88.929108 95.907596 88.478237 95.907596 88.008177 
C 95.907596 87.538117 95.720839 87.087246 95.388456 86.754863 
C 95.056073 86.42248 94.605202 86.235723 94.135142 86.235723 
C 93.665082 86.235723 93.214211 86.42248 92.881828 86.754863 
C 92.549445 87.087246 92.362688 87.538117 92.362688 88.008177 
C 92.362688 88.478237 92.549445 88.929108 92.881828 89.261491 
C 93.214211 89.593874 93.665082 89.780631 94.135142 89.780631 
z
" style="stroke:#000000;stroke-width:0.886227;"/>
    <path clip-path="url(#p3ffee80efe)" d="M 107.662415 103.211267 
C 108.132475 103.211267 108.583346 103.02451 108.915729 102.692127 
C 109.248112 102.359744 109.434869 101.908873 109.434869 101.438813 
C 109.434869 100.968753 109.248112 100.517881 108.915729 100.185499 
C 108.583346 99.853116 108.132475 99.666359 107.662415 99.666359 
C 107.192355 99.666359 106.741483 99.853116 106.409101 100.185499 
C 106.076718 100.517881 105.889961 100.968753 105.889961 101.438813 
C 105.889961 101.908873 106.076718 102.359744 106.409101 102.692127 
C 106.741483 103.02451 107.192355 103.211267 107.662415 103.211267 
z
" style="stroke:#000000;stroke-width:0.886227;"/>
    <path clip-path="url(#p3ffee80efe)" d="M 121.189688 92.469201 
C 121.659748 92.469201 122.110619 92.282444 122.443002 91.950061 
C 122.775384 91.617679 122.962141 91.166807 122.962141 90.696747 
C 122.962141 90.226687 122.775384 89.775816 122.443002 89.443433 
C 122.110619 89.11105 121.659748 88.924293 121.189688 88.924293 
C 120.719627 88.924293 120.268756 89.11105 119.936373 89.443433 
C 119.603991 89.775816 119.417234 90.226687 119.417234 90.696747 
C 119.417234 91.166807 119.603991 91.617679 119.936373 91.950061 
C 120.268756 92.282444 120.719627 92.469201 121.189688 92.469201 
z
" style="stroke:#000000;stroke-width:0.886227;"/>
    <path clip-path="url(#p3ffee80efe)" d="M 134.71696 106.280087 
C 135.18702 106.280087 135.637892 106.09333 135.970274 105.760947 
C 136.302657 105.428565 136.489414 104.977693 136.489414 104.507633 
C 136.489414 104.037573 136.302657 103.586702 135.970274 103.254319 
C 135.637892 102.921936 135.18702 102.735179 134.71696 102.735179 
C 134.2469 102.735179 133.796029 102.921936 133.463646 103.254319 
C 133.131263 103.586702 132.944506 104.037573 132.944506 104.507633 
C 132.944506 104.977693 133.131263 105.428565 133.463646 105.760947 
C 133.796029 106.09333 134.2469 106.280087 134.71696 106.280087 
z
" style="stroke:#000000;stroke-width:0.886227;"/>
    <path clip-path="url(#p3ffee80efe)" d="M 148.244233 109.820671 
C 148.714293 109.820671 149.165164 109.633914 149.497547 109.301531 
C 149.82993 108.969148 150.016687 108.518277 150.016687 108.048217 
C 150.016687 107.578156 149.82993 107.127285 149.497547 106.794903 
C 149.165164 106.46252 148.714293 106.275763 148.244233 106.275763 
C 147.774173 106.275763 147.323302 106.46252 146.990919 106.794903 
C 146.658536 107.127285 146.471779 107.578156 146.471779 108.048217 
C 146.471779 108.518277 146.658536 108.969148 146.990919 109.301531 
C 147.323302 109.633914 147.774173 109.820671 148.244233 109.820671 
z
" style="stroke:#000000;stroke-width:0.886227;"/>
    <path clip-path="url(#p3ffee80efe)" d="M 161.771506 122.592647 
C 162.241566 122.592647 162.692437 122.40589 163.02482 122.073507 
C 163.357203 121.741124 163.54396 121.290253 163.54396 120.820193 
C 163.54396 120.350133 163.357203 119.899262 163.02482 119.566879 
C 162.692437 119.234496 162.241566 119.047739 161.771506 119.047739 
C 161.301445 119.047739 160.850574 119.234496 160.518192 119.566879 
C 160.185809 119.899262 159.999052 120.350133 159.999052 120.820193 
C 159.999052 121.290253 160.185809 121.741124 160.518192 122.073507 
C 160.850574 122.40589 161.301445 122.592647 161.771506 122.592647 
z
" style="stroke:#000000;stroke-width:0.886227;"/>
    <path clip-path="url(#p3ffee80efe)" d="M 175.298778 128.448189 
C 175.768839 128.448189 176.21971 128.261432 176.552093 127.929049 
C 176.884475 127.596666 177.071232 127.145795 177.071232 126.675735 
C 177.071232 126.205675 176.884475 125.754804 176.552093 125.422421 
C 176.21971 125.090038 175.768839 124.903281 175.298778 124.903281 
C 174.828718 124.903281 174.377847 125.090038 174.045464 125.422421 
C 173.713081 125.754804 173.526325 126.205675 173.526325 126.675735 
C 173.526325 127.145795 173.713081 127.596666 174.045464 127.929049 
C 174.377847 128.261432 174.828718 128.448189 175.298778 128.448189 
z
" style="stroke:#000000;stroke-width:0.886227;"/>
    <path clip-path="url(#p3ffee80efe)" d="M 188.826051 127.596753 
C 189.296111 127.596753 189.746982 127.409996 190.079365 127.077614 
C 190.411748 126.745231 190.598505 126.29436 190.598505 125.8243 
C 190.598505 125.354239 190.411748 124.903368 190.079365 124.570985 
C 189.746982 124.238603 189.296111 124.051846 188.826051 124.051846 
C 188.355991 124.051846 187.90512 124.238603 187.572737 124.570985 
C 187.240354 124.903368 187.053597 125.354239 187.053597 125.8243 
C 187.053597 126.29436 187.240354 126.745231 187.572737 127.077614 
C 187.90512 127.409996 188.355991 127.596753 188.826051 127.596753 
z
" style="stroke:#000000;stroke-width:0.886227;"/>
    <path clip-path="url(#p3ffee80efe)" d="M 202.353324 154.505255 
C 202.823384 154.505255 203.274255 154.318498 203.606638 153.986115 
C 203.939021 153.653733 204.125778 153.202862 204.125778 152.732801 
C 204.125778 152.262741 203.939021 151.81187 203.606638 151.479487 
C 203.274255 151.147104 202.823384 150.960347 202.353324 150.960347 
C 201.883264 150.960347 201.432393 151.147104 201.10001 151.479487 
C 200.767627 151.81187 200.58087 152.262741 200.58087 152.732801 
C 200.58087 153.202862 200.767627 153.653733 201.10001 153.986115 
C 201.432393 154.318498 201.883264 154.505255 202.353324 154.505255 
z
" style="stroke:#000000;stroke-width:0.886227;"/>
    <path clip-path="url(#p3ffee80efe)" d="M 215.880597 140.416235 
C 216.350657 140.416235 216.801528 140.229478 217.133911 139.897096 
C 217.466294 139.564713 217.65305 139.113842 217.65305 138.643781 
C 217.65305 138.173721 217.466294 137.72285 217.133911 137.390467 
C 216.801528 137.058084 216.350657 136.871328 215.880597 136.871328 
C 215.410536 136.871328 214.959665 137.058084 214.627282 137.390467 
C 214.2949 137.72285 214.108143 138.173721 214.108143 138.643781 
C 214.108143 139.113842 214.2949 139.564713 214.627282 139.897096 
C 214.959665 140.229478 215.410536 140.416235 215.880597 140.416235 
z
" style="stroke:#000000;stroke-width:0.886227;"/>
    <path clip-path="url(#p3ffee80efe)" d="M 229.407869 152.185185 
C 229.87793 152.185185 230.328801 151.998428 230.661183 151.666045 
C 230.993566 151.333662 231.180323 150.882791 231.180323 150.412731 
C 231.180323 149.942671 230.993566 149.4918 230.661183 149.159417 
C 230.328801 148.827034 229.87793 148.640277 229.407869 148.640277 
C 228.937809 148.640277 228.486938 148.827034 228.154555 149.159417 
C 227.822172 149.4918 227.635415 149.942671 227.635415 150.412731 
C 227.635415 150.882791 227.822172 151.333662 228.154555 151.666045 
C 228.486938 151.998428 228.937809 152.185185 229.407869 152.185185 
z
" style="stroke:#000000;stroke-width:0.886227;"/>
    <path clip-path="url(#p3ffee80efe)" d="M 242.935142 147.597357 
C 243.405202 147.597357 243.856073 147.4106 244.188456 147.078217 
C 244.520839 146.745834 244.707596 146.294963 244.707596 145.824903 
C 244.707596 145.354843 244.520839 144.903971 244.188456 144.571589 
C 243.856073 144.239206 243.405202 144.052449 242.935142 144.052449 
C 242.465082 144.052449 242.014211 144.239206 241.681828 144.571589 
C 241.349445 144.903971 241.162688 145.354843 241.162688 145.824903 
C 241.162688 146.294963 241.349445 146.745834 241.681828 147.078217 
C 242.014211 147.4106 242.465082 147.597357 242.935142 147.597357 
z
" style="stroke:#000000;stroke-width:0.886227;"/>
    <path clip-path="url(#p3ffee80efe)" d="M 256.462415 164.650539 
C 256.932475 164.650539 257.383346 164.463782 257.715729 164.131399 
C 258.048112 163.799017 258.234869 163.348145 258.234869 162.878085 
C 258.234869 162.408025 258.048112 161.957154 257.715729 161.624771 
C 257.383346 161.292388 256.932475 161.105631 256.462415 161.105631 
C 255.992355 161.105631 255.541483 161.292388 255.209101 161.624771 
C 254.876718 161.957154 254.689961 162.408025 254.689961 162.878085 
C 254.689961 163.348145 254.876718 163.799017 255.209101 164.131399 
C 255.541483 164.463782 255.992355 164.650539 256.462415 164.650539 
z
" style="stroke:#000000;stroke-width:0.886227;"/>
    <path clip-path="url(#p3ffee80efe)" d="M 269.989688 174.325294 
C 270.459748 174.325294 270.910619 174.138537 271.243002 173.806154 
C 271.575384 173.473771 271.762141 173.0229 271.762141 172.55284 
C 271.762141 172.08278 271.575384 171.631909 271.243002 171.299526 
C 270.910619 170.967143 270.459748 170.780386 269.989688 170.780386 
C 269.519627 170.780386 269.068756 170.967143 268.736373 171.299526 
C 268.403991 171.631909 268.217234 172.08278 268.217234 172.55284 
C 268.217234 173.0229 268.403991 173.473771 268.736373 173.806154 
C 269.068756 174.138537 269.519627 174.325294 269.989688 174.325294 
z
" style="stroke:#000000;stroke-width:0.886227;"/>
    <path clip-path="url(#p3ffee80efe)" d="M 283.51696 160.783829 
C 283.98702 160.783829 284.437892 160.597072 284.770274 160.264689 
C 285.102657 159.932306 285.289414 159.481435 285.289414 159.011375 
C 285.289414 158.541315 285.102657 158.090444 284.770274 157.758061 
C 284.437892 157.425678 283.98702 157.238921 283.51696 157.238921 
C 283.0469 157.238921 282.596029 157.425678 282.263646 157.758061 
C 281.931263 158.090444 281.744506 158.541315 281.744506 159.011375 
C 281.744506 159.481435 281.931263 159.932306 282.263646 160.264689 
C 282.596029 160.597072 283.0469 160.783829 283.51696 160.783829 
z
" style="stroke:#000000;stroke-width:0.886227;"/>
    <path clip-path="url(#p3ffee80efe)" d="M 297.044233 172.230041 
C 297.514293 172.230041 297.965164 172.043284 298.297547 171.710901 
C 298.62993 171.378518 298.816687 170.927647 298.816687 170.457587 
C 298.816687 169.987527 298.62993 169.536656 298.297547 169.204273 
C 297.965164 168.87189 297.514293 168.685133 297.044233 168.685133 
C 296.574173 168.685133 296.123302 168.87189 295.790919 169.204273 
C 295.458536 169.536656 295.271779 169.987527 295.271779 170.457587 
C 295.271779 170.927647 295.458536 171.378518 295.790919 171.710901 
C 296.123302 172.043284 296.574173 172.230041 297.044233 172.230041 
z
" style="stroke:#000000;stroke-width:0.886227;"/>
    <path clip-path="url(#p3ffee80efe)" d="M 310.571506 164.284465 
C 311.041566 164.284465 311.492437 164.097709 311.82482 163.765326 
C 312.157203 163.432943 312.34396 162.982072 312.34396 162.512012 
C 312.34396 162.041951 312.157203 161.59108 311.82482 161.258698 
C 311.492437 160.926315 311.041566 160.739558 310.571506 160.739558 
C 310.101445 160.739558 309.650574 160.926315 309.318192 161.258698 
C 308.985809 161.59108 308.799052 162.041951 308.799052 162.512012 
C 308.799052 162.982072 308.985809 163.432943 309.318192 163.765326 
C 309.650574 164.097709 310.101445 164.284465 310.571506 164.284465 
z
" style="stroke:#000000;stroke-width:0.886227;"/>
    <path clip-path="url(#p3ffee80efe)" d="M 324.098778 161.912227 
C 324.568839 161.912227 325.01971 161.72547 325.352093 161.393088 
C 325.684475 161.060705 325.871232 160.609834 325.871232 160.139774 
C 325.871232 159.669713 325.684475 159.218842 325.352093 158.886459 
C 325.01971 158.554077 324.568839 158.36732 324.098778 158.36732 
C 323.628718 158.36732 323.177847 158.554077 322.845464 158.886459 
C 322.513081 159.218842 322.326325 159.669713 322.326325 160.139774 
C 322.326325 160.609834 322.513081 161.060705 322.845464 161.393088 
C 323.177847 161.72547 323.628718 161.912227 324.098778 161.912227 
z
" style="stroke:#000000;stroke-width:0.886227;"/>
    <path clip-path="url(#p3ffee80efe)" d="M 337.626051 165.343589 
C 338.096111 165.343589 338.546982 165.156832 338.879365 164.824449 
C 339.211748 164.492066 339.398505 164.041195 339.398505 163.571135 
C 339.398505 163.101074 339.211748 162.650203 338.879365 162.317821 
C 338.546982 161.985438 338.096111 161.798681 337.626051 161.798681 
C 337.155991 161.798681 336.70512 161.985438 336.372737 162.317821 
C 336.040354 162.650203 335.853597 163.101074 335.853597 163.571135 
C 335.853597 164.041195 336.040354 164.492066 336.372737 164.824449 
C 336.70512 165.156832 337.155991 165.343589 337.626051 165.343589 
z
" style="stroke:#000000;stroke-width:0.886227;"/>
    <path clip-path="url(#p3ffee80efe)" d="M 351.153324 169.173158 
C 351.623384 169.173158 352.074255 168.986401 352.406638 168.654019 
C 352.739021 168.321636 352.925778 167.870765 352.925778 167.400704 
C 352.925778 166.930644 352.739021 166.479773 352.406638 166.14739 
C 352.074255 165.815007 351.623384 165.628251 351.153324 165.628251 
C 350.683264 165.628251 350.232393 165.815007 349.90001 166.14739 
C 349.567627 166.479773 349.38087 166.930644 349.38087 167.400704 
C 349.38087 167.870765 349.567627 168.321636 349.90001 168.654019 
C 350.232393 168.986401 350.683264 169.173158 351.153324 169.173158 
z
" style="stroke:#000000;stroke-width:0.886227;"/>
    <path clip-path="url(#p3ffee80efe)" d="M 364.680597 171.272812 
C 365.150657 171.272812 365.601528 171.086055 365.933911 170.753673 
C 366.266294 170.42129 366.45305 169.970419 366.45305 169.500358 
C 366.45305 169.030298 366.266294 168.579427 365.933911 168.247044 
C 365.601528 167.914662 365.150657 167.727905 364.680597 167.727905 
C 364.210536 167.727905 363.759665 167.914662 363.427282 168.247044 
C 363.0949 168.579427 362.908143 169.030298 362.908143 169.500358 
C 362.908143 169.970419 363.0949 170.42129 363.427282 170.753673 
C 363.759665 171.086055 364.210536 171.272812 364.680597 171.272812 
z
" style="stroke:#000000;stroke-width:0.886227;"/>
    <path clip-path="url(#p3ffee80efe)" d="M 378.207869 185.283103 
C 378.67793 185.283103 379.128801 185.096346 379.461183 184.763963 
C 379.793566 184.43158 379.980323 183.980709 379.980323 183.510649 
C 379.980323 183.040589 379.793566 182.589718 379.461183 182.257335 
C 379.128801 181.924952 378.67793 181.738195 378.207869 181.738195 
C 377.737809 181.738195 377.286938 181.924952 376.954555 182.257335 
C 376.622172 182.589718 376.435415 183.040589 376.435415 183.510649 
C 376.435415 183.980709 376.622172 184.43158 376.954555 184.763963 
C 377.286938 185.096346 377.737809 185.283103 378.207869 185.283103 
z
" style="stroke:#000000;stroke-width:0.886227;"/>
    <path clip-path="url(#p3ffee80efe)" d="M 391.735142 186.567284 
C 392.205202 186.567284 392.656073 186.380527 392.988456 186.048144 
C 393.320839 185.715762 393.507596 185.26489 393.507596 184.79483 
C 393.507596 184.32477 393.320839 183.873899 392.988456 183.541516 
C 392.656073 183.209133 392.205202 183.022376 391.735142 183.022376 
C 391.265082 183.022376 390.814211 183.209133 390.481828 183.541516 
C 390.149445 183.873899 389.962688 184.32477 389.962688 184.79483 
C 389.962688 185.26489 390.149445 185.715762 390.481828 186.048144 
C 390.814211 186.380527 391.265082 186.567284 391.735142 186.567284 
z
" style="stroke:#000000;stroke-width:0.886227;"/>
    <path clip-path="url(#p3ffee80efe)" d="M 405.262415 184.62655 
C 405.732475 184.62655 406.183346 184.439794 406.515729 184.107411 
C 406.848112 183.775028 407.034869 183.324157 407.034869 182.854097 
C 407.034869 182.384036 406.848112 181.933165 406.515729 181.600782 
C 406.183346 181.2684 405.732475 181.081643 405.262415 181.081643 
C 404.792355 181.081643 404.341483 181.2684 404.009101 181.600782 
C 403.676718 181.933165 403.489961 182.384036 403.489961 182.854097 
C 403.489961 183.324157 403.676718 183.775028 404.009101 184.107411 
C 404.341483 184.439794 404.792355 184.62655 405.262415 184.62655 
z
" style="stroke:#000000;stroke-width:0.886227;"/>
    <path clip-path="url(#p3ffee80efe)" d="M 418.789688 212.569987 
C 419.259748 212.569987 419.710619 212.38323 420.043002 212.050847 
C 420.375384 211.718464 420.562141 211.267593 420.562141 210.797533 
C 420.562141 210.327473 420.375384 209.876602 420.043002 209.544219 
C 419.710619 209.211836 419.259748 209.025079 418.789688 209.025079 
C 418.319627 209.025079 417.868756 209.211836 417.536373 209.544219 
C 417.203991 209.876602 417.017234 210.327473 417.017234 210.797533 
C 417.017234 211.267593 417.203991 211.718464 417.536373 212.050847 
C 417.868756 212.38323 418.319627 212.569987 418.789688 212.569987 
z
" style="stroke:#000000;stroke-width:0.886227;"/>
    <path clip-path="url(#p3ffee80efe)" d="M 432.31696 213.44045 
C 432.78702 213.44045 433.237892 213.253693 433.570274 212.92131 
C 433.902657 212.588928 434.089414 212.138056 434.089414 211.667996 
C 434.089414 211.197936 433.902657 210.747065 433.570274 210.414682 
C 433.237892 210.082299 432.78702 209.895542 432.31696 209.895542 
C 431.8469 209.895542 431.396029 210.082299 431.063646 210.414682 
C 430.731263 210.747065 430.544506 211.197936 430.544506 211.667996 
C 430.544506 212.138056 430.731263 212.588928 431.063646 212.92131 
C 431.396029 213.253693 431.8469 213.44045 432.31696 213.44045 
z
" style="stroke:#000000;stroke-width:0.886227;"/>
    <path clip-path="url(#p3ffee80efe)" d="M 445.844233 234.206473 
C 446.314293 234.206473 446.765164 234.019716 447.097547 233.687334 
C 447.42993 233.354951 447.616687 232.90408 447.616687 232.434019 
C 447.616687 231.963959 447.42993 231.513088 447.097547 231.180705 
C 446.765164 230.848322 446.314293 230.661566 445.844233 230.661566 
C 445.374173 230.661566 444.923302 230.848322 444.590919 231.180705 
C 444.258536 231.513088 444.071779 231.963959 444.071779 232.434019 
C 444.071779 232.90408 444.258536 233.354951 444.590919 233.687334 
C 444.923302 234.019716 445.374173 234.206473 445.844233 234.206473 
z
" style="stroke:#000000;stroke-width:0.886227;"/>
    <path clip-path="url(#p3ffee80efe)" d="M 459.371506 154.301068 
C 459.841566 154.301068 460.292437 154.114311 460.62482 153.781928 
C 460.957203 153.449545 461.14396 152.998674 461.14396 152.528614 
C 461.14396 152.058554 460.957203 151.607683 460.62482 151.2753 
C 460.292437 150.942917 459.841566 150.75616 459.371506 150.75616 
C 458.901445 150.75616 458.450574 150.942917 458.118192 151.2753 
C 457.785809 151.607683 457.599052 152.058554 457.599052 152.528614 
C 457.599052 152.998674 457.785809 153.449545 458.118192 153.781928 
C 458.450574 154.114311 458.901445 154.301068 459.371506 154.301068 
z
" style="stroke:#000000;stroke-width:0.886227;"/>
    <path clip-path="url(#p3ffee80efe)" d="M 472.898778 171.33157 
C 473.368839 171.33157 473.81971 171.144813 474.152093 170.81243 
C 474.484475 170.480047 474.671232 170.029176 474.671232 169.559116 
C 474.671232 169.089056 474.484475 168.638185 474.152093 168.305802 
C 473.81971 167.973419 473.368839 167.786662 472.898778 167.786662 
C 472.428718 167.786662 471.977847 167.973419 471.645464 168.305802 
C 471.313081 168.638185 471.126325 169.089056 471.126325 169.559116 
C 471.126325 170.029176 471.313081 170.480047 471.645464 170.81243 
C 471.977847 171.144813 472.428718 171.33157 472.898778 171.33157 
z
" style="stroke:#000000;stroke-width:0.886227;"/>
   </g>
   <g id="line2d_33">
    <path clip-path="url(#p3ffee80efe)" d="M 67.080597 97.361885 
L 80.607869 97.140776 
L 94.135142 88.008177 
L 107.662415 101.438813 
L 121.189688 90.696747 
L 134.71696 104.507633 
L 148.244233 108.048217 
L 161.771506 120.820193 
L 175.298778 126.675735 
L 188.826051 125.8243 
L 202.353324 152.732801 
L 215.880597 138.643781 
L 229.407869 150.412731 
L 242.935142 145.824903 
L 256.462415 162.878085 
L 269.989688 172.55284 
L 283.51696 159.011375 
L 297.044233 170.457587 
L 310.571506 162.512012 
L 324.098778 160.139774 
L 337.626051 163.571135 
L 351.153324 167.400704 
L 364.680597 169.500358 
L 378.207869 183.510649 
L 391.735142 184.79483 
L 405.262415 182.854097 
L 418.789688 210.797533 
L 432.31696 211.667996 
L 445.844233 232.434019 
L 459.371506 152.528614 
L 472.898778 169.559116 
" style="fill:none;stroke:#000000;stroke-width:0.886227;"/>
   </g>
  </g>
  <g id="text_12">
   <!-- Nucleic acids data with imputed missing values -->
   <defs>
    <path d="M 9.8125 72.90625 
L 23.09375 72.90625 
L 55.421875 11.921875 
L 55.421875 72.90625 
L 64.984375 72.90625 
L 64.984375 0 
L 51.703125 0 
L 19.390625 60.984375 
L 19.390625 0 
L 9.8125 0 
z
" id="DejaVuSans-78"/>
    <path d="M 34.28125 27.484375 
Q 23.390625 27.484375 19.1875 25 
Q 14.984375 22.515625 14.984375 16.5 
Q 14.984375 11.71875 18.140625 8.90625 
Q 21.296875 6.109375 26.703125 6.109375 
Q 34.1875 6.109375 38.703125 11.40625 
Q 43.21875 16.703125 43.21875 25.484375 
L 43.21875 27.484375 
z
M 52.203125 31.203125 
L 52.203125 0 
L 43.21875 0 
L 43.21875 8.296875 
Q 40.140625 3.328125 35.546875 0.953125 
Q 30.953125 -1.421875 24.3125 -1.421875 
Q 15.921875 -1.421875 10.953125 3.296875 
Q 6 8.015625 6 15.921875 
Q 6 25.140625 12.171875 29.828125 
Q 18.359375 34.515625 30.609375 34.515625 
L 43.21875 34.515625 
L 43.21875 35.40625 
Q 43.21875 41.609375 39.140625 45 
Q 35.0625 48.390625 27.6875 48.390625 
Q 23 48.390625 18.546875 47.265625 
Q 14.109375 46.140625 10.015625 43.890625 
L 10.015625 52.203125 
Q 14.9375 54.109375 19.578125 55.046875 
Q 24.21875 56 28.609375 56 
Q 40.484375 56 46.34375 49.84375 
Q 52.203125 43.703125 52.203125 31.203125 
z
" id="DejaVuSans-97"/>
    <path d="M 45.40625 46.390625 
L 45.40625 75.984375 
L 54.390625 75.984375 
L 54.390625 0 
L 45.40625 0 
L 45.40625 8.203125 
Q 42.578125 3.328125 38.25 0.953125 
Q 33.9375 -1.421875 27.875 -1.421875 
Q 17.96875 -1.421875 11.734375 6.484375 
Q 5.515625 14.40625 5.515625 27.296875 
Q 5.515625 40.1875 11.734375 48.09375 
Q 17.96875 56 27.875 56 
Q 33.9375 56 38.25 53.625 
Q 42.578125 51.265625 45.40625 46.390625 
z
M 14.796875 27.296875 
Q 14.796875 17.390625 18.875 11.75 
Q 22.953125 6.109375 30.078125 6.109375 
Q 37.203125 6.109375 41.296875 11.75 
Q 45.40625 17.390625 45.40625 27.296875 
Q 45.40625 37.203125 41.296875 42.84375 
Q 37.203125 48.484375 30.078125 48.484375 
Q 22.953125 48.484375 18.875 42.84375 
Q 14.796875 37.203125 14.796875 27.296875 
z
" id="DejaVuSans-100"/>
    <path d="M 4.203125 54.6875 
L 13.1875 54.6875 
L 24.421875 12.015625 
L 35.59375 54.6875 
L 46.1875 54.6875 
L 57.421875 12.015625 
L 68.609375 54.6875 
L 77.59375 54.6875 
L 63.28125 0 
L 52.6875 0 
L 40.921875 44.828125 
L 29.109375 0 
L 18.5 0 
z
" id="DejaVuSans-119"/>
    <path d="M 54.890625 33.015625 
L 54.890625 0 
L 45.90625 0 
L 45.90625 32.71875 
Q 45.90625 40.484375 42.875 44.328125 
Q 39.84375 48.1875 33.796875 48.1875 
Q 26.515625 48.1875 22.3125 43.546875 
Q 18.109375 38.921875 18.109375 30.90625 
L 18.109375 0 
L 9.078125 0 
L 9.078125 75.984375 
L 18.109375 75.984375 
L 18.109375 46.1875 
Q 21.34375 51.125 25.703125 53.5625 
Q 30.078125 56 35.796875 56 
Q 45.21875 56 50.046875 50.171875 
Q 54.890625 44.34375 54.890625 33.015625 
z
" id="DejaVuSans-104"/>
    <path d="M 52 44.1875 
Q 55.375 50.25 60.0625 53.125 
Q 64.75 56 71.09375 56 
Q 79.640625 56 84.28125 50.015625 
Q 88.921875 44.046875 88.921875 33.015625 
L 88.921875 0 
L 79.890625 0 
L 79.890625 32.71875 
Q 79.890625 40.578125 77.09375 44.375 
Q 74.3125 48.1875 68.609375 48.1875 
Q 61.625 48.1875 57.5625 43.546875 
Q 53.515625 38.921875 53.515625 30.90625 
L 53.515625 0 
L 44.484375 0 
L 44.484375 32.71875 
Q 44.484375 40.625 41.703125 44.40625 
Q 38.921875 48.1875 33.109375 48.1875 
Q 26.21875 48.1875 22.15625 43.53125 
Q 18.109375 38.875 18.109375 30.90625 
L 18.109375 0 
L 9.078125 0 
L 9.078125 54.6875 
L 18.109375 54.6875 
L 18.109375 46.1875 
Q 21.1875 51.21875 25.484375 53.609375 
Q 29.78125 56 35.6875 56 
Q 41.65625 56 45.828125 52.96875 
Q 50 49.953125 52 44.1875 
z
" id="DejaVuSans-109"/>
    <path d="M 45.40625 27.984375 
Q 45.40625 37.75 41.375 43.109375 
Q 37.359375 48.484375 30.078125 48.484375 
Q 22.859375 48.484375 18.828125 43.109375 
Q 14.796875 37.75 14.796875 27.984375 
Q 14.796875 18.265625 18.828125 12.890625 
Q 22.859375 7.515625 30.078125 7.515625 
Q 37.359375 7.515625 41.375 12.890625 
Q 45.40625 18.265625 45.40625 27.984375 
z
M 54.390625 6.78125 
Q 54.390625 -7.171875 48.1875 -13.984375 
Q 42 -20.796875 29.203125 -20.796875 
Q 24.46875 -20.796875 20.265625 -20.09375 
Q 16.0625 -19.390625 12.109375 -17.921875 
L 12.109375 -9.1875 
Q 16.0625 -11.328125 19.921875 -12.34375 
Q 23.78125 -13.375 27.78125 -13.375 
Q 36.625 -13.375 41.015625 -8.765625 
Q 45.40625 -4.15625 45.40625 5.171875 
L 45.40625 9.625 
Q 42.625 4.78125 38.28125 2.390625 
Q 33.9375 0 27.875 0 
Q 17.828125 0 11.671875 7.65625 
Q 5.515625 15.328125 5.515625 27.984375 
Q 5.515625 40.671875 11.671875 48.328125 
Q 17.828125 56 27.875 56 
Q 33.9375 56 38.28125 53.609375 
Q 42.625 51.21875 45.40625 46.390625 
L 45.40625 54.6875 
L 54.390625 54.6875 
z
" id="DejaVuSans-103"/>
    <path d="M 2.984375 54.6875 
L 12.5 54.6875 
L 29.59375 8.796875 
L 46.6875 54.6875 
L 56.203125 54.6875 
L 35.6875 0 
L 23.484375 0 
z
" id="DejaVuSans-118"/>
   </defs>
   <g transform="translate(105.809719 17.229938)scale(0.132 -0.132)">
    <use xlink:href="#DejaVuSans-78"/>
    <use x="74.804688" xlink:href="#DejaVuSans-117"/>
    <use x="138.183594" xlink:href="#DejaVuSans-99"/>
    <use x="193.164062" xlink:href="#DejaVuSans-108"/>
    <use x="220.947266" xlink:href="#DejaVuSans-101"/>
    <use x="282.470703" xlink:href="#DejaVuSans-105"/>
    <use x="310.253906" xlink:href="#DejaVuSans-99"/>
    <use x="365.234375" xlink:href="#DejaVuSans-32"/>
    <use x="397.021484" xlink:href="#DejaVuSans-97"/>
    <use x="458.300781" xlink:href="#DejaVuSans-99"/>
    <use x="513.28125" xlink:href="#DejaVuSans-105"/>
    <use x="541.064453" xlink:href="#DejaVuSans-100"/>
    <use x="604.541016" xlink:href="#DejaVuSans-115"/>
    <use x="656.640625" xlink:href="#DejaVuSans-32"/>
    <use x="688.427734" xlink:href="#DejaVuSans-100"/>
    <use x="751.904297" xlink:href="#DejaVuSans-97"/>
    <use x="813.183594" xlink:href="#DejaVuSans-116"/>
    <use x="852.392578" xlink:href="#DejaVuSans-97"/>
    <use x="913.671875" xlink:href="#DejaVuSans-32"/>
    <use x="945.458984" xlink:href="#DejaVuSans-119"/>
    <use x="1027.246094" xlink:href="#DejaVuSans-105"/>
    <use x="1055.029297" xlink:href="#DejaVuSans-116"/>
    <use x="1094.238281" xlink:href="#DejaVuSans-104"/>
    <use x="1157.617188" xlink:href="#DejaVuSans-32"/>
    <use x="1189.404297" xlink:href="#DejaVuSans-105"/>
    <use x="1217.1875" xlink:href="#DejaVuSans-109"/>
    <use x="1314.599609" xlink:href="#DejaVuSans-112"/>
    <use x="1378.076172" xlink:href="#DejaVuSans-117"/>
    <use x="1441.455078" xlink:href="#DejaVuSans-116"/>
    <use x="1480.664062" xlink:href="#DejaVuSans-101"/>
    <use x="1542.1875" xlink:href="#DejaVuSans-100"/>
    <use x="1605.664062" xlink:href="#DejaVuSans-32"/>
    <use x="1637.451172" xlink:href="#DejaVuSans-109"/>
    <use x="1734.863281" xlink:href="#DejaVuSans-105"/>
    <use x="1762.646484" xlink:href="#DejaVuSans-115"/>
    <use x="1814.746094" xlink:href="#DejaVuSans-115"/>
    <use x="1866.845703" xlink:href="#DejaVuSans-105"/>
    <use x="1894.628906" xlink:href="#DejaVuSans-110"/>
    <use x="1958.007812" xlink:href="#DejaVuSans-103"/>
    <use x="2021.484375" xlink:href="#DejaVuSans-32"/>
    <use x="2053.271484" xlink:href="#DejaVuSans-118"/>
    <use x="2112.451172" xlink:href="#DejaVuSans-97"/>
    <use x="2173.730469" xlink:href="#DejaVuSans-108"/>
    <use x="2201.513672" xlink:href="#DejaVuSans-117"/>
    <use x="2264.892578" xlink:href="#DejaVuSans-101"/>
    <use x="2326.416016" xlink:href="#DejaVuSans-115"/>
   </g>
  </g>
 </g>
 <defs>
  <clipPath id="p3ffee80efe">
   <rect height="221.76" width="446.4" x="46.789687" y="26.105371"/>
  </clipPath>
 </defs>
</svg>
