<?xml version="1.0" encoding="utf-8" standalone="no"?>
<!DOCTYPE svg PUBLIC "-//W3C//DTD SVG 1.1//EN"
  "http://www.w3.org/Graphics/SVG/1.1/DTD/svg11.dtd">
<!-- Created with matplotlib (https://matplotlib.org/) -->
<svg height="264.672687pt" version="1.1" viewBox="0 0 500.389687 264.672687" width="500.389687pt" xmlns="http://www.w3.org/2000/svg" xmlns:xlink="http://www.w3.org/1999/xlink">
 <defs>
  <style type="text/css">
*{stroke-linecap:butt;stroke-linejoin:round;}
  </style>
 </defs>
 <g id="figure_1">
  <g id="patch_1">
   <path d="M 0 264.672687 
L 500.389687 264.672687 
L 500.389687 0 
L 0 0 
z
" style="fill:#ffffff;stroke:#ffffff;stroke-linejoin:miter;"/>
  </g>
  <g id="axes_1">
   <g id="patch_2">
    <path d="M 46.789687 228.96 
L 493.189687 228.96 
L 493.189687 7.2 
L 46.789687 7.2 
z
" style="fill:#ffffff;stroke:#7f7f7f;stroke-linejoin:miter;"/>
   </g>
   <g id="matplotlib.axis_1">
    <g id="xtick_1">
     <g id="line2d_1">
      <path clip-path="url(#p902aedf479)" d="M 67.080597 228.96 
L 67.080597 7.2 
" style="fill:none;stroke:#e5e5e5;stroke-width:0.8;"/>
     </g>
     <g id="line2d_2">
      <path d="M 67.080597 228.96 
" style="fill:none;stroke:#000000;stroke-width:1.5;"/>
      <defs>
       <path d="M 0 0 
L 0 2.75 
" id="m2c288a5a96" style="stroke:#000000;"/>
      </defs>
      <g>
       <use style="stroke:#000000;" x="67.080597" xlink:href="#m2c288a5a96" y="228.96"/>
      </g>
     </g>
     <g id="text_1">
      <!-- 1970 -->
      <defs>
       <path d="M 12.40625 8.296875 
L 28.515625 8.296875 
L 28.515625 63.921875 
L 10.984375 60.40625 
L 10.984375 69.390625 
L 28.421875 72.90625 
L 38.28125 72.90625 
L 38.28125 8.296875 
L 54.390625 8.296875 
L 54.390625 0 
L 12.40625 0 
z
" id="DejaVuSans-49"/>
       <path d="M 10.984375 1.515625 
L 10.984375 10.5 
Q 14.703125 8.734375 18.5 7.8125 
Q 22.3125 6.890625 25.984375 6.890625 
Q 35.75 6.890625 40.890625 13.453125 
Q 46.046875 20.015625 46.78125 33.40625 
Q 43.953125 29.203125 39.59375 26.953125 
Q 35.25 24.703125 29.984375 24.703125 
Q 19.046875 24.703125 12.671875 31.3125 
Q 6.296875 37.9375 6.296875 49.421875 
Q 6.296875 60.640625 12.9375 67.421875 
Q 19.578125 74.21875 30.609375 74.21875 
Q 43.265625 74.21875 49.921875 64.515625 
Q 56.59375 54.828125 56.59375 36.375 
Q 56.59375 19.140625 48.40625 8.859375 
Q 40.234375 -1.421875 26.421875 -1.421875 
Q 22.703125 -1.421875 18.890625 -0.6875 
Q 15.09375 0.046875 10.984375 1.515625 
z
M 30.609375 32.421875 
Q 37.25 32.421875 41.125 36.953125 
Q 45.015625 41.5 45.015625 49.421875 
Q 45.015625 57.28125 41.125 61.84375 
Q 37.25 66.40625 30.609375 66.40625 
Q 23.96875 66.40625 20.09375 61.84375 
Q 16.21875 57.28125 16.21875 49.421875 
Q 16.21875 41.5 20.09375 36.953125 
Q 23.96875 32.421875 30.609375 32.421875 
z
" id="DejaVuSans-57"/>
       <path d="M 8.203125 72.90625 
L 55.078125 72.90625 
L 55.078125 68.703125 
L 28.609375 0 
L 18.3125 0 
L 43.21875 64.59375 
L 8.203125 64.59375 
z
" id="DejaVuSans-55"/>
       <path d="M 31.78125 66.40625 
Q 24.171875 66.40625 20.328125 58.90625 
Q 16.5 51.421875 16.5 36.375 
Q 16.5 21.390625 20.328125 13.890625 
Q 24.171875 6.390625 31.78125 6.390625 
Q 39.453125 6.390625 43.28125 13.890625 
Q 47.125 21.390625 47.125 36.375 
Q 47.125 51.421875 43.28125 58.90625 
Q 39.453125 66.40625 31.78125 66.40625 
z
M 31.78125 74.21875 
Q 44.046875 74.21875 50.515625 64.515625 
Q 56.984375 54.828125 56.984375 36.375 
Q 56.984375 17.96875 50.515625 8.265625 
Q 44.046875 -1.421875 31.78125 -1.421875 
Q 19.53125 -1.421875 13.0625 8.265625 
Q 6.59375 17.96875 6.59375 36.375 
Q 6.59375 54.828125 13.0625 64.515625 
Q 19.53125 74.21875 31.78125 74.21875 
z
" id="DejaVuSans-48"/>
      </defs>
      <g style="fill:#4d4d4d;" transform="translate(55.882597 240.596625)scale(0.088 -0.088)">
       <use xlink:href="#DejaVuSans-49"/>
       <use x="63.623047" xlink:href="#DejaVuSans-57"/>
       <use x="127.246094" xlink:href="#DejaVuSans-55"/>
       <use x="190.869141" xlink:href="#DejaVuSans-48"/>
      </g>
     </g>
    </g>
    <g id="xtick_2">
     <g id="line2d_3">
      <path clip-path="url(#p902aedf479)" d="M 148.244233 228.96 
L 148.244233 7.2 
" style="fill:none;stroke:#e5e5e5;stroke-width:0.8;"/>
     </g>
     <g id="line2d_4">
      <path d="M 148.244233 228.96 
" style="fill:none;stroke:#000000;stroke-width:1.5;"/>
      <g>
       <use style="stroke:#000000;" x="148.244233" xlink:href="#m2c288a5a96" y="228.96"/>
      </g>
     </g>
     <g id="text_2">
      <!-- 1980 -->
      <defs>
       <path d="M 31.78125 34.625 
Q 24.75 34.625 20.71875 30.859375 
Q 16.703125 27.09375 16.703125 20.515625 
Q 16.703125 13.921875 20.71875 10.15625 
Q 24.75 6.390625 31.78125 6.390625 
Q 38.8125 6.390625 42.859375 10.171875 
Q 46.921875 13.96875 46.921875 20.515625 
Q 46.921875 27.09375 42.890625 30.859375 
Q 38.875 34.625 31.78125 34.625 
z
M 21.921875 38.8125 
Q 15.578125 40.375 12.03125 44.71875 
Q 8.5 49.078125 8.5 55.328125 
Q 8.5 64.0625 14.71875 69.140625 
Q 20.953125 74.21875 31.78125 74.21875 
Q 42.671875 74.21875 48.875 69.140625 
Q 55.078125 64.0625 55.078125 55.328125 
Q 55.078125 49.078125 51.53125 44.71875 
Q 48 40.375 41.703125 38.8125 
Q 48.828125 37.15625 52.796875 32.3125 
Q 56.78125 27.484375 56.78125 20.515625 
Q 56.78125 9.90625 50.3125 4.234375 
Q 43.84375 -1.421875 31.78125 -1.421875 
Q 19.734375 -1.421875 13.25 4.234375 
Q 6.78125 9.90625 6.78125 20.515625 
Q 6.78125 27.484375 10.78125 32.3125 
Q 14.796875 37.15625 21.921875 38.8125 
z
M 18.3125 54.390625 
Q 18.3125 48.734375 21.84375 45.5625 
Q 25.390625 42.390625 31.78125 42.390625 
Q 38.140625 42.390625 41.71875 45.5625 
Q 45.3125 48.734375 45.3125 54.390625 
Q 45.3125 60.0625 41.71875 63.234375 
Q 38.140625 66.40625 31.78125 66.40625 
Q 25.390625 66.40625 21.84375 63.234375 
Q 18.3125 60.0625 18.3125 54.390625 
z
" id="DejaVuSans-56"/>
      </defs>
      <g style="fill:#4d4d4d;" transform="translate(137.046233 240.596625)scale(0.088 -0.088)">
       <use xlink:href="#DejaVuSans-49"/>
       <use x="63.623047" xlink:href="#DejaVuSans-57"/>
       <use x="127.246094" xlink:href="#DejaVuSans-56"/>
       <use x="190.869141" xlink:href="#DejaVuSans-48"/>
      </g>
     </g>
    </g>
    <g id="xtick_3">
     <g id="line2d_5">
      <path clip-path="url(#p902aedf479)" d="M 229.407869 228.96 
L 229.407869 7.2 
" style="fill:none;stroke:#e5e5e5;stroke-width:0.8;"/>
     </g>
     <g id="line2d_6">
      <path d="M 229.407869 228.96 
" style="fill:none;stroke:#000000;stroke-width:1.5;"/>
      <g>
       <use style="stroke:#000000;" x="229.407869" xlink:href="#m2c288a5a96" y="228.96"/>
      </g>
     </g>
     <g id="text_3">
      <!-- 1990 -->
      <g style="fill:#4d4d4d;" transform="translate(218.209869 240.596625)scale(0.088 -0.088)">
       <use xlink:href="#DejaVuSans-49"/>
       <use x="63.623047" xlink:href="#DejaVuSans-57"/>
       <use x="127.246094" xlink:href="#DejaVuSans-57"/>
       <use x="190.869141" xlink:href="#DejaVuSans-48"/>
      </g>
     </g>
    </g>
    <g id="xtick_4">
     <g id="line2d_7">
      <path clip-path="url(#p902aedf479)" d="M 310.571506 228.96 
L 310.571506 7.2 
" style="fill:none;stroke:#e5e5e5;stroke-width:0.8;"/>
     </g>
     <g id="line2d_8">
      <path d="M 310.571506 228.96 
" style="fill:none;stroke:#000000;stroke-width:1.5;"/>
      <g>
       <use style="stroke:#000000;" x="310.571506" xlink:href="#m2c288a5a96" y="228.96"/>
      </g>
     </g>
     <g id="text_4">
      <!-- 2000 -->
      <defs>
       <path d="M 19.1875 8.296875 
L 53.609375 8.296875 
L 53.609375 0 
L 7.328125 0 
L 7.328125 8.296875 
Q 12.9375 14.109375 22.625 23.890625 
Q 32.328125 33.6875 34.8125 36.53125 
Q 39.546875 41.84375 41.421875 45.53125 
Q 43.3125 49.21875 43.3125 52.78125 
Q 43.3125 58.59375 39.234375 62.25 
Q 35.15625 65.921875 28.609375 65.921875 
Q 23.96875 65.921875 18.8125 64.3125 
Q 13.671875 62.703125 7.8125 59.421875 
L 7.8125 69.390625 
Q 13.765625 71.78125 18.9375 73 
Q 24.125 74.21875 28.421875 74.21875 
Q 39.75 74.21875 46.484375 68.546875 
Q 53.21875 62.890625 53.21875 53.421875 
Q 53.21875 48.921875 51.53125 44.890625 
Q 49.859375 40.875 45.40625 35.40625 
Q 44.1875 33.984375 37.640625 27.21875 
Q 31.109375 20.453125 19.1875 8.296875 
z
" id="DejaVuSans-50"/>
      </defs>
      <g style="fill:#4d4d4d;" transform="translate(299.373506 240.596625)scale(0.088 -0.088)">
       <use xlink:href="#DejaVuSans-50"/>
       <use x="63.623047" xlink:href="#DejaVuSans-48"/>
       <use x="127.246094" xlink:href="#DejaVuSans-48"/>
       <use x="190.869141" xlink:href="#DejaVuSans-48"/>
      </g>
     </g>
    </g>
    <g id="xtick_5">
     <g id="line2d_9">
      <path clip-path="url(#p902aedf479)" d="M 391.735142 228.96 
L 391.735142 7.2 
" style="fill:none;stroke:#e5e5e5;stroke-width:0.8;"/>
     </g>
     <g id="line2d_10">
      <path d="M 391.735142 228.96 
" style="fill:none;stroke:#000000;stroke-width:1.5;"/>
      <g>
       <use style="stroke:#000000;" x="391.735142" xlink:href="#m2c288a5a96" y="228.96"/>
      </g>
     </g>
     <g id="text_5">
      <!-- 2010 -->
      <g style="fill:#4d4d4d;" transform="translate(380.537142 240.596625)scale(0.088 -0.088)">
       <use xlink:href="#DejaVuSans-50"/>
       <use x="63.623047" xlink:href="#DejaVuSans-48"/>
       <use x="127.246094" xlink:href="#DejaVuSans-49"/>
       <use x="190.869141" xlink:href="#DejaVuSans-48"/>
      </g>
     </g>
    </g>
    <g id="xtick_6">
     <g id="line2d_11">
      <path clip-path="url(#p902aedf479)" d="M 472.898778 228.96 
L 472.898778 7.2 
" style="fill:none;stroke:#e5e5e5;stroke-width:0.8;"/>
     </g>
     <g id="line2d_12">
      <path d="M 472.898778 228.96 
" style="fill:none;stroke:#000000;stroke-width:1.5;"/>
      <g>
       <use style="stroke:#000000;" x="472.898778" xlink:href="#m2c288a5a96" y="228.96"/>
      </g>
     </g>
     <g id="text_6">
      <!-- 2020 -->
      <g style="fill:#4d4d4d;" transform="translate(461.700778 240.596625)scale(0.088 -0.088)">
       <use xlink:href="#DejaVuSans-50"/>
       <use x="63.623047" xlink:href="#DejaVuSans-48"/>
       <use x="127.246094" xlink:href="#DejaVuSans-50"/>
       <use x="190.869141" xlink:href="#DejaVuSans-48"/>
      </g>
     </g>
    </g>
    <g id="xtick_7">
     <g id="line2d_13">
      <path clip-path="url(#p902aedf479)" d="M 107.662415 228.96 
L 107.662415 7.2 
" style="fill:none;stroke:#fafafa;"/>
     </g>
     <g id="line2d_14">
      <path d="M 107.662415 228.96 
" style="fill:none;stroke:#000000;stroke-width:1.5;"/>
      <defs>
       <path d="M 0 0 
L 0 1.375 
" id="m6da85ab472" style="stroke:#000000;"/>
      </defs>
      <g>
       <use style="stroke:#000000;" x="107.662415" xlink:href="#m6da85ab472" y="228.96"/>
      </g>
     </g>
    </g>
    <g id="xtick_8">
     <g id="line2d_15">
      <path clip-path="url(#p902aedf479)" d="M 188.826051 228.96 
L 188.826051 7.2 
" style="fill:none;stroke:#fafafa;"/>
     </g>
     <g id="line2d_16">
      <path d="M 188.826051 228.96 
" style="fill:none;stroke:#000000;stroke-width:1.5;"/>
      <g>
       <use style="stroke:#000000;" x="188.826051" xlink:href="#m6da85ab472" y="228.96"/>
      </g>
     </g>
    </g>
    <g id="xtick_9">
     <g id="line2d_17">
      <path clip-path="url(#p902aedf479)" d="M 269.989687 228.96 
L 269.989687 7.2 
" style="fill:none;stroke:#fafafa;"/>
     </g>
     <g id="line2d_18">
      <path d="M 269.989687 228.96 
" style="fill:none;stroke:#000000;stroke-width:1.5;"/>
      <g>
       <use style="stroke:#000000;" x="269.989687" xlink:href="#m6da85ab472" y="228.96"/>
      </g>
     </g>
    </g>
    <g id="xtick_10">
     <g id="line2d_19">
      <path clip-path="url(#p902aedf479)" d="M 351.153324 228.96 
L 351.153324 7.2 
" style="fill:none;stroke:#fafafa;"/>
     </g>
     <g id="line2d_20">
      <path d="M 351.153324 228.96 
" style="fill:none;stroke:#000000;stroke-width:1.5;"/>
      <g>
       <use style="stroke:#000000;" x="351.153324" xlink:href="#m6da85ab472" y="228.96"/>
      </g>
     </g>
    </g>
    <g id="xtick_11">
     <g id="line2d_21">
      <path clip-path="url(#p902aedf479)" d="M 432.31696 228.96 
L 432.31696 7.2 
" style="fill:none;stroke:#fafafa;"/>
     </g>
     <g id="line2d_22">
      <path d="M 432.31696 228.96 
" style="fill:none;stroke:#000000;stroke-width:1.5;"/>
      <g>
       <use style="stroke:#000000;" x="432.31696" xlink:href="#m6da85ab472" y="228.96"/>
      </g>
     </g>
    </g>
    <g id="text_7">
     <!-- Year -->
     <defs>
      <path d="M -0.203125 72.90625 
L 10.40625 72.90625 
L 30.609375 42.921875 
L 50.6875 72.90625 
L 61.28125 72.90625 
L 35.5 34.71875 
L 35.5 0 
L 25.59375 0 
L 25.59375 34.71875 
z
" id="DejaVuSans-89"/>
      <path d="M 56.203125 29.59375 
L 56.203125 25.203125 
L 14.890625 25.203125 
Q 15.484375 15.921875 20.484375 11.0625 
Q 25.484375 6.203125 34.421875 6.203125 
Q 39.59375 6.203125 44.453125 7.46875 
Q 49.3125 8.734375 54.109375 11.28125 
L 54.109375 2.78125 
Q 49.265625 0.734375 44.1875 -0.34375 
Q 39.109375 -1.421875 33.890625 -1.421875 
Q 20.796875 -1.421875 13.15625 6.1875 
Q 5.515625 13.8125 5.515625 26.8125 
Q 5.515625 40.234375 12.765625 48.109375 
Q 20.015625 56 32.328125 56 
Q 43.359375 56 49.78125 48.890625 
Q 56.203125 41.796875 56.203125 29.59375 
z
M 47.21875 32.234375 
Q 47.125 39.59375 43.09375 43.984375 
Q 39.0625 48.390625 32.421875 48.390625 
Q 24.90625 48.390625 20.390625 44.140625 
Q 15.875 39.890625 15.1875 32.171875 
z
" id="DejaVuSans-101"/>
      <path d="M 34.28125 27.484375 
Q 23.390625 27.484375 19.1875 25 
Q 14.984375 22.515625 14.984375 16.5 
Q 14.984375 11.71875 18.140625 8.90625 
Q 21.296875 6.109375 26.703125 6.109375 
Q 34.1875 6.109375 38.703125 11.40625 
Q 43.21875 16.703125 43.21875 25.484375 
L 43.21875 27.484375 
z
M 52.203125 31.203125 
L 52.203125 0 
L 43.21875 0 
L 43.21875 8.296875 
Q 40.140625 3.328125 35.546875 0.953125 
Q 30.953125 -1.421875 24.3125 -1.421875 
Q 15.921875 -1.421875 10.953125 3.296875 
Q 6 8.015625 6 15.921875 
Q 6 25.140625 12.171875 29.828125 
Q 18.359375 34.515625 30.609375 34.515625 
L 43.21875 34.515625 
L 43.21875 35.40625 
Q 43.21875 41.609375 39.140625 45 
Q 35.0625 48.390625 27.6875 48.390625 
Q 23 48.390625 18.546875 47.265625 
Q 14.109375 46.140625 10.015625 43.890625 
L 10.015625 52.203125 
Q 14.9375 54.109375 19.578125 55.046875 
Q 24.21875 56 28.609375 56 
Q 40.484375 56 46.34375 49.84375 
Q 52.203125 43.703125 52.203125 31.203125 
z
" id="DejaVuSans-97"/>
      <path d="M 41.109375 46.296875 
Q 39.59375 47.171875 37.8125 47.578125 
Q 36.03125 48 33.890625 48 
Q 26.265625 48 22.1875 43.046875 
Q 18.109375 38.09375 18.109375 28.8125 
L 18.109375 0 
L 9.078125 0 
L 9.078125 54.6875 
L 18.109375 54.6875 
L 18.109375 46.1875 
Q 20.953125 51.171875 25.484375 53.578125 
Q 30.03125 56 36.53125 56 
Q 37.453125 56 38.578125 55.875 
Q 39.703125 55.765625 41.0625 55.515625 
z
" id="DejaVuSans-114"/>
     </defs>
     <g transform="translate(250.425859 255.185031)scale(0.11 -0.11)">
      <use xlink:href="#DejaVuSans-89"/>
      <use x="60.880859" xlink:href="#DejaVuSans-101"/>
      <use x="122.404297" xlink:href="#DejaVuSans-97"/>
      <use x="183.683594" xlink:href="#DejaVuSans-114"/>
     </g>
    </g>
   </g>
   <g id="matplotlib.axis_2">
    <g id="ytick_1">
     <g id="line2d_23">
      <path clip-path="url(#p902aedf479)" d="M 46.789687 218.88 
L 493.189687 218.88 
" style="fill:none;stroke:#e5e5e5;stroke-width:0.8;"/>
     </g>
     <g id="line2d_24">
      <path d="M 46.789687 218.88 
" style="fill:none;stroke:#000000;stroke-width:1.5;"/>
      <defs>
       <path d="M 0 0 
L -2.75 0 
" id="m0aff5ac4ca" style="stroke:#000000;"/>
      </defs>
      <g>
       <use style="stroke:#000000;" x="46.789687" xlink:href="#m0aff5ac4ca" y="218.88"/>
      </g>
     </g>
     <g id="text_8">
      <!-- 0 -->
      <g style="fill:#4d4d4d;" transform="translate(36.240687 221.30825)scale(0.088 -0.088)">
       <use xlink:href="#DejaVuSans-48"/>
      </g>
     </g>
    </g>
    <g id="ytick_2">
     <g id="line2d_25">
      <path clip-path="url(#p902aedf479)" d="M 46.789687 168.48 
L 493.189687 168.48 
" style="fill:none;stroke:#e5e5e5;stroke-width:0.8;"/>
     </g>
     <g id="line2d_26">
      <path d="M 46.789687 168.48 
" style="fill:none;stroke:#000000;stroke-width:1.5;"/>
      <g>
       <use style="stroke:#000000;" x="46.789687" xlink:href="#m0aff5ac4ca" y="168.48"/>
      </g>
     </g>
     <g id="text_9">
      <!-- 0.25 -->
      <defs>
       <path d="M 10.6875 12.40625 
L 21 12.40625 
L 21 0 
L 10.6875 0 
z
" id="DejaVuSans-46"/>
       <path d="M 10.796875 72.90625 
L 49.515625 72.90625 
L 49.515625 64.59375 
L 19.828125 64.59375 
L 19.828125 46.734375 
Q 21.96875 47.46875 24.109375 47.828125 
Q 26.265625 48.1875 28.421875 48.1875 
Q 40.625 48.1875 47.75 41.5 
Q 54.890625 34.8125 54.890625 23.390625 
Q 54.890625 11.625 47.5625 5.09375 
Q 40.234375 -1.421875 26.90625 -1.421875 
Q 22.3125 -1.421875 17.546875 -0.640625 
Q 12.796875 0.140625 7.71875 1.703125 
L 7.71875 11.625 
Q 12.109375 9.234375 16.796875 8.0625 
Q 21.484375 6.890625 26.703125 6.890625 
Q 35.15625 6.890625 40.078125 11.328125 
Q 45.015625 15.765625 45.015625 23.390625 
Q 45.015625 31 40.078125 35.4375 
Q 35.15625 39.890625 26.703125 39.890625 
Q 22.75 39.890625 18.8125 39.015625 
Q 14.890625 38.140625 10.796875 36.28125 
z
" id="DejaVuSans-53"/>
      </defs>
      <g style="fill:#4d4d4d;" transform="translate(22.245937 170.90825)scale(0.088 -0.088)">
       <use xlink:href="#DejaVuSans-48"/>
       <use x="63.623047" xlink:href="#DejaVuSans-46"/>
       <use x="95.410156" xlink:href="#DejaVuSans-50"/>
       <use x="159.033203" xlink:href="#DejaVuSans-53"/>
      </g>
     </g>
    </g>
    <g id="ytick_3">
     <g id="line2d_27">
      <path clip-path="url(#p902aedf479)" d="M 46.789687 118.08 
L 493.189687 118.08 
" style="fill:none;stroke:#e5e5e5;stroke-width:0.8;"/>
     </g>
     <g id="line2d_28">
      <path d="M 46.789687 118.08 
" style="fill:none;stroke:#000000;stroke-width:1.5;"/>
      <g>
       <use style="stroke:#000000;" x="46.789687" xlink:href="#m0aff5ac4ca" y="118.08"/>
      </g>
     </g>
     <g id="text_10">
      <!-- 0.50 -->
      <g style="fill:#4d4d4d;" transform="translate(22.245937 120.50825)scale(0.088 -0.088)">
       <use xlink:href="#DejaVuSans-48"/>
       <use x="63.623047" xlink:href="#DejaVuSans-46"/>
       <use x="95.410156" xlink:href="#DejaVuSans-53"/>
       <use x="159.033203" xlink:href="#DejaVuSans-48"/>
      </g>
     </g>
    </g>
    <g id="ytick_4">
     <g id="line2d_29">
      <path clip-path="url(#p902aedf479)" d="M 46.789687 67.68 
L 493.189687 67.68 
" style="fill:none;stroke:#e5e5e5;stroke-width:0.8;"/>
     </g>
     <g id="line2d_30">
      <path d="M 46.789687 67.68 
" style="fill:none;stroke:#000000;stroke-width:1.5;"/>
      <g>
       <use style="stroke:#000000;" x="46.789687" xlink:href="#m0aff5ac4ca" y="67.68"/>
      </g>
     </g>
     <g id="text_11">
      <!-- 0.75 -->
      <g style="fill:#4d4d4d;" transform="translate(22.245937 70.10825)scale(0.088 -0.088)">
       <use xlink:href="#DejaVuSans-48"/>
       <use x="63.623047" xlink:href="#DejaVuSans-46"/>
       <use x="95.410156" xlink:href="#DejaVuSans-55"/>
       <use x="159.033203" xlink:href="#DejaVuSans-53"/>
      </g>
     </g>
    </g>
    <g id="ytick_5">
     <g id="line2d_31">
      <path clip-path="url(#p902aedf479)" d="M 46.789687 17.28 
L 493.189687 17.28 
" style="fill:none;stroke:#e5e5e5;stroke-width:0.8;"/>
     </g>
     <g id="line2d_32">
      <path d="M 46.789687 17.28 
" style="fill:none;stroke:#000000;stroke-width:1.5;"/>
      <g>
       <use style="stroke:#000000;" x="46.789687" xlink:href="#m0aff5ac4ca" y="17.28"/>
      </g>
     </g>
     <g id="text_12">
      <!-- 1 -->
      <g style="fill:#4d4d4d;" transform="translate(36.240687 19.70825)scale(0.088 -0.088)">
       <use xlink:href="#DejaVuSans-49"/>
      </g>
     </g>
    </g>
    <g id="ytick_6">
     <g id="line2d_33">
      <path clip-path="url(#p902aedf479)" d="M 46.789687 193.68 
L 493.189687 193.68 
" style="fill:none;stroke:#fafafa;"/>
     </g>
     <g id="line2d_34">
      <path d="M 46.789687 193.68 
" style="fill:none;stroke:#000000;stroke-width:1.5;"/>
      <defs>
       <path d="M 0 0 
L -1.375 0 
" id="mcabfd3a953" style="stroke:#000000;"/>
      </defs>
      <g>
       <use style="stroke:#000000;" x="46.789687" xlink:href="#mcabfd3a953" y="193.68"/>
      </g>
     </g>
    </g>
    <g id="ytick_7">
     <g id="line2d_35">
      <path clip-path="url(#p902aedf479)" d="M 46.789687 143.28 
L 493.189687 143.28 
" style="fill:none;stroke:#fafafa;"/>
     </g>
     <g id="line2d_36">
      <path d="M 46.789687 143.28 
" style="fill:none;stroke:#000000;stroke-width:1.5;"/>
      <g>
       <use style="stroke:#000000;" x="46.789687" xlink:href="#mcabfd3a953" y="143.28"/>
      </g>
     </g>
    </g>
    <g id="ytick_8">
     <g id="line2d_37">
      <path clip-path="url(#p902aedf479)" d="M 46.789687 92.88 
L 493.189687 92.88 
" style="fill:none;stroke:#fafafa;"/>
     </g>
     <g id="line2d_38">
      <path d="M 46.789687 92.88 
" style="fill:none;stroke:#000000;stroke-width:1.5;"/>
      <g>
       <use style="stroke:#000000;" x="46.789687" xlink:href="#mcabfd3a953" y="92.88"/>
      </g>
     </g>
    </g>
    <g id="ytick_9">
     <g id="line2d_39">
      <path clip-path="url(#p902aedf479)" d="M 46.789687 42.48 
L 493.189687 42.48 
" style="fill:none;stroke:#fafafa;"/>
     </g>
     <g id="line2d_40">
      <path d="M 46.789687 42.48 
" style="fill:none;stroke:#000000;stroke-width:1.5;"/>
      <g>
       <use style="stroke:#000000;" x="46.789687" xlink:href="#mcabfd3a953" y="42.48"/>
      </g>
     </g>
    </g>
    <g id="text_13">
     <!-- Q1 percentile -->
     <defs>
      <path d="M 39.40625 66.21875 
Q 28.65625 66.21875 22.328125 58.203125 
Q 16.015625 50.203125 16.015625 36.375 
Q 16.015625 22.609375 22.328125 14.59375 
Q 28.65625 6.59375 39.40625 6.59375 
Q 50.140625 6.59375 56.421875 14.59375 
Q 62.703125 22.609375 62.703125 36.375 
Q 62.703125 50.203125 56.421875 58.203125 
Q 50.140625 66.21875 39.40625 66.21875 
z
M 53.21875 1.3125 
L 66.21875 -12.890625 
L 54.296875 -12.890625 
L 43.5 -1.21875 
Q 41.890625 -1.3125 41.03125 -1.359375 
Q 40.1875 -1.421875 39.40625 -1.421875 
Q 24.03125 -1.421875 14.8125 8.859375 
Q 5.609375 19.140625 5.609375 36.375 
Q 5.609375 53.65625 14.8125 63.9375 
Q 24.03125 74.21875 39.40625 74.21875 
Q 54.734375 74.21875 63.90625 63.9375 
Q 73.09375 53.65625 73.09375 36.375 
Q 73.09375 23.6875 67.984375 14.640625 
Q 62.890625 5.609375 53.21875 1.3125 
z
" id="DejaVuSans-81"/>
      <path id="DejaVuSans-32"/>
      <path d="M 18.109375 8.203125 
L 18.109375 -20.796875 
L 9.078125 -20.796875 
L 9.078125 54.6875 
L 18.109375 54.6875 
L 18.109375 46.390625 
Q 20.953125 51.265625 25.265625 53.625 
Q 29.59375 56 35.59375 56 
Q 45.5625 56 51.78125 48.09375 
Q 58.015625 40.1875 58.015625 27.296875 
Q 58.015625 14.40625 51.78125 6.484375 
Q 45.5625 -1.421875 35.59375 -1.421875 
Q 29.59375 -1.421875 25.265625 0.953125 
Q 20.953125 3.328125 18.109375 8.203125 
z
M 48.6875 27.296875 
Q 48.6875 37.203125 44.609375 42.84375 
Q 40.53125 48.484375 33.40625 48.484375 
Q 26.265625 48.484375 22.1875 42.84375 
Q 18.109375 37.203125 18.109375 27.296875 
Q 18.109375 17.390625 22.1875 11.75 
Q 26.265625 6.109375 33.40625 6.109375 
Q 40.53125 6.109375 44.609375 11.75 
Q 48.6875 17.390625 48.6875 27.296875 
z
" id="DejaVuSans-112"/>
      <path d="M 48.78125 52.59375 
L 48.78125 44.1875 
Q 44.96875 46.296875 41.140625 47.34375 
Q 37.3125 48.390625 33.40625 48.390625 
Q 24.65625 48.390625 19.8125 42.84375 
Q 14.984375 37.3125 14.984375 27.296875 
Q 14.984375 17.28125 19.8125 11.734375 
Q 24.65625 6.203125 33.40625 6.203125 
Q 37.3125 6.203125 41.140625 7.25 
Q 44.96875 8.296875 48.78125 10.40625 
L 48.78125 2.09375 
Q 45.015625 0.34375 40.984375 -0.53125 
Q 36.96875 -1.421875 32.421875 -1.421875 
Q 20.0625 -1.421875 12.78125 6.34375 
Q 5.515625 14.109375 5.515625 27.296875 
Q 5.515625 40.671875 12.859375 48.328125 
Q 20.21875 56 33.015625 56 
Q 37.15625 56 41.109375 55.140625 
Q 45.0625 54.296875 48.78125 52.59375 
z
" id="DejaVuSans-99"/>
      <path d="M 54.890625 33.015625 
L 54.890625 0 
L 45.90625 0 
L 45.90625 32.71875 
Q 45.90625 40.484375 42.875 44.328125 
Q 39.84375 48.1875 33.796875 48.1875 
Q 26.515625 48.1875 22.3125 43.546875 
Q 18.109375 38.921875 18.109375 30.90625 
L 18.109375 0 
L 9.078125 0 
L 9.078125 54.6875 
L 18.109375 54.6875 
L 18.109375 46.1875 
Q 21.34375 51.125 25.703125 53.5625 
Q 30.078125 56 35.796875 56 
Q 45.21875 56 50.046875 50.171875 
Q 54.890625 44.34375 54.890625 33.015625 
z
" id="DejaVuSans-110"/>
      <path d="M 18.3125 70.21875 
L 18.3125 54.6875 
L 36.8125 54.6875 
L 36.8125 47.703125 
L 18.3125 47.703125 
L 18.3125 18.015625 
Q 18.3125 11.328125 20.140625 9.421875 
Q 21.96875 7.515625 27.59375 7.515625 
L 36.8125 7.515625 
L 36.8125 0 
L 27.59375 0 
Q 17.1875 0 13.234375 3.875 
Q 9.28125 7.765625 9.28125 18.015625 
L 9.28125 47.703125 
L 2.6875 47.703125 
L 2.6875 54.6875 
L 9.28125 54.6875 
L 9.28125 70.21875 
z
" id="DejaVuSans-116"/>
      <path d="M 9.421875 54.6875 
L 18.40625 54.6875 
L 18.40625 0 
L 9.421875 0 
z
M 9.421875 75.984375 
L 18.40625 75.984375 
L 18.40625 64.59375 
L 9.421875 64.59375 
z
" id="DejaVuSans-105"/>
      <path d="M 9.421875 75.984375 
L 18.40625 75.984375 
L 18.40625 0 
L 9.421875 0 
z
" id="DejaVuSans-108"/>
     </defs>
     <g transform="translate(15.558281 153.842344)rotate(-90)scale(0.11 -0.11)">
      <use xlink:href="#DejaVuSans-81"/>
      <use x="78.710938" xlink:href="#DejaVuSans-49"/>
      <use x="142.333984" xlink:href="#DejaVuSans-32"/>
      <use x="174.121094" xlink:href="#DejaVuSans-112"/>
      <use x="237.597656" xlink:href="#DejaVuSans-101"/>
      <use x="299.121094" xlink:href="#DejaVuSans-114"/>
      <use x="340.203125" xlink:href="#DejaVuSans-99"/>
      <use x="395.183594" xlink:href="#DejaVuSans-101"/>
      <use x="456.707031" xlink:href="#DejaVuSans-110"/>
      <use x="520.085938" xlink:href="#DejaVuSans-116"/>
      <use x="559.294922" xlink:href="#DejaVuSans-105"/>
      <use x="587.078125" xlink:href="#DejaVuSans-108"/>
      <use x="614.861328" xlink:href="#DejaVuSans-101"/>
     </g>
    </g>
   </g>
   <g id="PathCollection_1">
    <path clip-path="url(#p902aedf479)" d="M 123.895142 125.690292 
C 124.365202 125.690292 124.816073 125.503535 125.148456 125.171152 
C 125.480839 124.838769 125.667596 124.387898 125.667596 123.917838 
C 125.667596 123.447778 125.480839 122.996906 125.148456 122.664524 
C 124.816073 122.332141 124.365202 122.145384 123.895142 122.145384 
C 123.425082 122.145384 122.974211 122.332141 122.641828 122.664524 
C 122.309445 122.996906 122.122688 123.447778 122.122688 123.917838 
C 122.122688 124.387898 122.309445 124.838769 122.641828 125.171152 
C 122.974211 125.503535 123.425082 125.690292 123.895142 125.690292 
z
" style="stroke:#000000;stroke-width:0.886227;"/>
    <path clip-path="url(#p902aedf479)" d="M 132.011506 190.976778 
C 132.481566 190.976778 132.932437 190.790021 133.26482 190.457638 
C 133.597203 190.125256 133.78396 189.674385 133.78396 189.204324 
C 133.78396 188.734264 133.597203 188.283393 133.26482 187.95101 
C 132.932437 187.618627 132.481566 187.43187 132.011506 187.43187 
C 131.541445 187.43187 131.090574 187.618627 130.758192 187.95101 
C 130.425809 188.283393 130.239052 188.734264 130.239052 189.204324 
C 130.239052 189.674385 130.425809 190.125256 130.758192 190.457638 
C 131.090574 190.790021 131.541445 190.976778 132.011506 190.976778 
z
" style="stroke:#000000;stroke-width:0.886227;"/>
    <path clip-path="url(#p902aedf479)" d="M 156.360597 161.641643 
C 156.830657 161.641643 157.281528 161.454886 157.613911 161.122503 
C 157.946294 160.790121 158.13305 160.339249 158.13305 159.869189 
C 158.13305 159.399129 157.946294 158.948258 157.613911 158.615875 
C 157.281528 158.283492 156.830657 158.096735 156.360597 158.096735 
C 155.890536 158.096735 155.439665 158.283492 155.107282 158.615875 
C 154.7749 158.948258 154.588143 159.399129 154.588143 159.869189 
C 154.588143 160.339249 154.7749 160.790121 155.107282 161.122503 
C 155.439665 161.454886 155.890536 161.641643 156.360597 161.641643 
z
" style="stroke:#000000;stroke-width:0.886227;"/>
    <path clip-path="url(#p902aedf479)" d="M 164.47696 140.803805 
C 164.94702 140.803805 165.397892 140.617048 165.730274 140.284665 
C 166.062657 139.952283 166.249414 139.501412 166.249414 139.031351 
C 166.249414 138.561291 166.062657 138.11042 165.730274 137.778037 
C 165.397892 137.445654 164.94702 137.258898 164.47696 137.258898 
C 164.0069 137.258898 163.556029 137.445654 163.223646 137.778037 
C 162.891263 138.11042 162.704506 138.561291 162.704506 139.031351 
C 162.704506 139.501412 162.891263 139.952283 163.223646 140.284665 
C 163.556029 140.617048 164.0069 140.803805 164.47696 140.803805 
z
" style="stroke:#000000;stroke-width:0.886227;"/>
    <path clip-path="url(#p902aedf479)" d="M 172.593324 212.965967 
C 173.063384 212.965967 173.514255 212.77921 173.846638 212.446828 
C 174.179021 212.114445 174.365778 211.663574 174.365778 211.193514 
C 174.365778 210.723453 174.179021 210.272582 173.846638 209.940199 
C 173.514255 209.607817 173.063384 209.42106 172.593324 209.42106 
C 172.123264 209.42106 171.672393 209.607817 171.34001 209.940199 
C 171.007627 210.272582 170.82087 210.723453 170.82087 211.193514 
C 170.82087 211.663574 171.007627 212.114445 171.34001 212.446828 
C 171.672393 212.77921 172.123264 212.965967 172.593324 212.965967 
z
" style="stroke:#000000;stroke-width:0.886227;"/>
    <path clip-path="url(#p902aedf479)" d="M 180.709687 101.074075 
C 181.179748 101.074075 181.630619 100.887319 181.963002 100.554936 
C 182.295384 100.222553 182.482141 99.771682 182.482141 99.301622 
C 182.482141 98.831561 182.295384 98.38069 181.963002 98.048307 
C 181.630619 97.715925 181.179748 97.529168 180.709687 97.529168 
C 180.239627 97.529168 179.788756 97.715925 179.456373 98.048307 
C 179.123991 98.38069 178.937234 98.831561 178.937234 99.301622 
C 178.937234 99.771682 179.123991 100.222553 179.456373 100.554936 
C 179.788756 100.887319 180.239627 101.074075 180.709687 101.074075 
z
" style="stroke:#000000;stroke-width:0.886227;"/>
    <path clip-path="url(#p902aedf479)" d="M 188.826051 146.73894 
C 189.296111 146.73894 189.746982 146.552183 190.079365 146.219801 
C 190.411748 145.887418 190.598505 145.436547 190.598505 144.966486 
C 190.598505 144.496426 190.411748 144.045555 190.079365 143.713172 
C 189.746982 143.38079 189.296111 143.194033 188.826051 143.194033 
C 188.355991 143.194033 187.90512 143.38079 187.572737 143.713172 
C 187.240354 144.045555 187.053597 144.496426 187.053597 144.966486 
C 187.053597 145.436547 187.240354 145.887418 187.572737 146.219801 
C 187.90512 146.552183 188.355991 146.73894 188.826051 146.73894 
z
" style="stroke:#000000;stroke-width:0.886227;"/>
    <path clip-path="url(#p902aedf479)" d="M 196.942415 155.382184 
C 197.412475 155.382184 197.863346 155.195427 198.195729 154.863044 
C 198.528112 154.530661 198.714869 154.07979 198.714869 153.60973 
C 198.714869 153.139669 198.528112 152.688798 198.195729 152.356416 
C 197.863346 152.024033 197.412475 151.837276 196.942415 151.837276 
C 196.472355 151.837276 196.021483 152.024033 195.689101 152.356416 
C 195.356718 152.688798 195.169961 153.139669 195.169961 153.60973 
C 195.169961 154.07979 195.356718 154.530661 195.689101 154.863044 
C 196.021483 155.195427 196.472355 155.382184 196.942415 155.382184 
z
" style="stroke:#000000;stroke-width:0.886227;"/>
    <path clip-path="url(#p902aedf479)" d="M 205.058778 177.517319 
C 205.528839 177.517319 205.97971 177.330562 206.312093 176.998179 
C 206.644475 176.665796 206.831232 176.214925 206.831232 175.744865 
C 206.831232 175.274805 206.644475 174.823934 206.312093 174.491551 
C 205.97971 174.159168 205.528839 173.972411 205.058778 173.972411 
C 204.588718 173.972411 204.137847 174.159168 203.805464 174.491551 
C 203.473081 174.823934 203.286325 175.274805 203.286325 175.744865 
C 203.286325 176.214925 203.473081 176.665796 203.805464 176.998179 
C 204.137847 177.330562 204.588718 177.517319 205.058778 177.517319 
z
" style="stroke:#000000;stroke-width:0.886227;"/>
    <path clip-path="url(#p902aedf479)" d="M 213.175142 143.657859 
C 213.645202 143.657859 214.096073 143.471102 214.428456 143.13872 
C 214.760839 142.806337 214.947596 142.355466 214.947596 141.885405 
C 214.947596 141.415345 214.760839 140.964474 214.428456 140.632091 
C 214.096073 140.299708 213.645202 140.112952 213.175142 140.112952 
C 212.705082 140.112952 212.254211 140.299708 211.921828 140.632091 
C 211.589445 140.964474 211.402688 141.415345 211.402688 141.885405 
C 211.402688 142.355466 211.589445 142.806337 211.921828 143.13872 
C 212.254211 143.471102 212.705082 143.657859 213.175142 143.657859 
z
" style="stroke:#000000;stroke-width:0.886227;"/>
    <path clip-path="url(#p902aedf479)" d="M 221.291506 145.271373 
C 221.761566 145.271373 222.212437 145.084616 222.54482 144.752233 
C 222.877203 144.41985 223.06396 143.968979 223.06396 143.498919 
C 223.06396 143.028859 222.877203 142.577988 222.54482 142.245605 
C 222.212437 141.913222 221.761566 141.726465 221.291506 141.726465 
C 220.821445 141.726465 220.370574 141.913222 220.038192 142.245605 
C 219.705809 142.577988 219.519052 143.028859 219.519052 143.498919 
C 219.519052 143.968979 219.705809 144.41985 220.038192 144.752233 
C 220.370574 145.084616 220.821445 145.271373 221.291506 145.271373 
z
" style="stroke:#000000;stroke-width:0.886227;"/>
    <path clip-path="url(#p902aedf479)" d="M 229.407869 164.915002 
C 229.87793 164.915002 230.328801 164.728245 230.661183 164.395862 
C 230.993566 164.06348 231.180323 163.612609 231.180323 163.142548 
C 231.180323 162.672488 230.993566 162.221617 230.661183 161.889234 
C 230.328801 161.556851 229.87793 161.370094 229.407869 161.370094 
C 228.937809 161.370094 228.486938 161.556851 228.154555 161.889234 
C 227.822172 162.221617 227.635415 162.672488 227.635415 163.142548 
C 227.635415 163.612609 227.822172 164.06348 228.154555 164.395862 
C 228.486938 164.728245 228.937809 164.915002 229.407869 164.915002 
z
" style="stroke:#000000;stroke-width:0.886227;"/>
    <path clip-path="url(#p902aedf479)" d="M 237.524233 139.291783 
C 237.994293 139.291783 238.445164 139.105026 238.777547 138.772643 
C 239.10993 138.44026 239.296687 137.989389 239.296687 137.519329 
C 239.296687 137.049269 239.10993 136.598398 238.777547 136.266015 
C 238.445164 135.933632 237.994293 135.746875 237.524233 135.746875 
C 237.054173 135.746875 236.603302 135.933632 236.270919 136.266015 
C 235.938536 136.598398 235.751779 137.049269 235.751779 137.519329 
C 235.751779 137.989389 235.938536 138.44026 236.270919 138.772643 
C 236.603302 139.105026 237.054173 139.291783 237.524233 139.291783 
z
" style="stroke:#000000;stroke-width:0.886227;"/>
    <path clip-path="url(#p902aedf479)" d="M 245.640597 158.572145 
C 246.110657 158.572145 246.561528 158.385388 246.893911 158.053005 
C 247.226294 157.720622 247.41305 157.269751 247.41305 156.799691 
C 247.41305 156.329631 247.226294 155.87876 246.893911 155.546377 
C 246.561528 155.213994 246.110657 155.027237 245.640597 155.027237 
C 245.170536 155.027237 244.719665 155.213994 244.387282 155.546377 
C 244.0549 155.87876 243.868143 156.329631 243.868143 156.799691 
C 243.868143 157.269751 244.0549 157.720622 244.387282 158.053005 
C 244.719665 158.385388 245.170536 158.572145 245.640597 158.572145 
z
" style="stroke:#000000;stroke-width:0.886227;"/>
    <path clip-path="url(#p902aedf479)" d="M 253.75696 138.72118 
C 254.22702 138.72118 254.677892 138.534423 255.010274 138.20204 
C 255.342657 137.869657 255.529414 137.418786 255.529414 136.948726 
C 255.529414 136.478666 255.342657 136.027795 255.010274 135.695412 
C 254.677892 135.363029 254.22702 135.176272 253.75696 135.176272 
C 253.2869 135.176272 252.836029 135.363029 252.503646 135.695412 
C 252.171263 136.027795 251.984506 136.478666 251.984506 136.948726 
C 251.984506 137.418786 252.171263 137.869657 252.503646 138.20204 
C 252.836029 138.534423 253.2869 138.72118 253.75696 138.72118 
z
" style="stroke:#000000;stroke-width:0.886227;"/>
    <path clip-path="url(#p902aedf479)" d="M 261.873324 119.528593 
C 262.343384 119.528593 262.794255 119.341836 263.126638 119.009453 
C 263.459021 118.67707 263.645778 118.226199 263.645778 117.756139 
C 263.645778 117.286079 263.459021 116.835208 263.126638 116.502825 
C 262.794255 116.170442 262.343384 115.983685 261.873324 115.983685 
C 261.403264 115.983685 260.952393 116.170442 260.62001 116.502825 
C 260.287627 116.835208 260.10087 117.286079 260.10087 117.756139 
C 260.10087 118.226199 260.287627 118.67707 260.62001 119.009453 
C 260.952393 119.341836 261.403264 119.528593 261.873324 119.528593 
z
" style="stroke:#000000;stroke-width:0.886227;"/>
    <path clip-path="url(#p902aedf479)" d="M 269.989687 124.225041 
C 270.459748 124.225041 270.910619 124.038284 271.243002 123.705901 
C 271.575384 123.373518 271.762141 122.922647 271.762141 122.452587 
C 271.762141 121.982527 271.575384 121.531656 271.243002 121.199273 
C 270.910619 120.86689 270.459748 120.680133 269.989687 120.680133 
C 269.519627 120.680133 269.068756 120.86689 268.736373 121.199273 
C 268.403991 121.531656 268.217234 121.982527 268.217234 122.452587 
C 268.217234 122.922647 268.403991 123.373518 268.736373 123.705901 
C 269.068756 124.038284 269.519627 124.225041 269.989687 124.225041 
z
" style="stroke:#000000;stroke-width:0.886227;"/>
    <path clip-path="url(#p902aedf479)" d="M 278.106051 118.445766 
C 278.576111 118.445766 279.026982 118.259009 279.359365 117.926626 
C 279.691748 117.594243 279.878505 117.143372 279.878505 116.673312 
C 279.878505 116.203252 279.691748 115.752381 279.359365 115.419998 
C 279.026982 115.087615 278.576111 114.900858 278.106051 114.900858 
C 277.635991 114.900858 277.18512 115.087615 276.852737 115.419998 
C 276.520354 115.752381 276.333597 116.203252 276.333597 116.673312 
C 276.333597 117.143372 276.520354 117.594243 276.852737 117.926626 
C 277.18512 118.259009 277.635991 118.445766 278.106051 118.445766 
z
" style="stroke:#000000;stroke-width:0.886227;"/>
    <path clip-path="url(#p902aedf479)" d="M 286.222415 113.750221 
C 286.692475 113.750221 287.143346 113.563464 287.475729 113.231081 
C 287.808112 112.898699 287.994869 112.447828 287.994869 111.977767 
C 287.994869 111.507707 287.808112 111.056836 287.475729 110.724453 
C 287.143346 110.39207 286.692475 110.205313 286.222415 110.205313 
C 285.752355 110.205313 285.301483 110.39207 284.969101 110.724453 
C 284.636718 111.056836 284.449961 111.507707 284.449961 111.977767 
C 284.449961 112.447828 284.636718 112.898699 284.969101 113.231081 
C 285.301483 113.563464 285.752355 113.750221 286.222415 113.750221 
z
" style="stroke:#000000;stroke-width:0.886227;"/>
    <path clip-path="url(#p902aedf479)" d="M 294.338778 117.299115 
C 294.808839 117.299115 295.25971 117.112358 295.592093 116.779976 
C 295.924475 116.447593 296.111232 115.996722 296.111232 115.526661 
C 296.111232 115.056601 295.924475 114.60573 295.592093 114.273347 
C 295.25971 113.940964 294.808839 113.754208 294.338778 113.754208 
C 293.868718 113.754208 293.417847 113.940964 293.085464 114.273347 
C 292.753081 114.60573 292.566325 115.056601 292.566325 115.526661 
C 292.566325 115.996722 292.753081 116.447593 293.085464 116.779976 
C 293.417847 117.112358 293.868718 117.299115 294.338778 117.299115 
z
" style="stroke:#000000;stroke-width:0.886227;"/>
    <path clip-path="url(#p902aedf479)" d="M 302.455142 127.782792 
C 302.925202 127.782792 303.376073 127.596035 303.708456 127.263652 
C 304.040839 126.931269 304.227596 126.480398 304.227596 126.010338 
C 304.227596 125.540278 304.040839 125.089406 303.708456 124.757024 
C 303.376073 124.424641 302.925202 124.237884 302.455142 124.237884 
C 301.985082 124.237884 301.534211 124.424641 301.201828 124.757024 
C 300.869445 125.089406 300.682688 125.540278 300.682688 126.010338 
C 300.682688 126.480398 300.869445 126.931269 301.201828 127.263652 
C 301.534211 127.596035 301.985082 127.782792 302.455142 127.782792 
z
" style="stroke:#000000;stroke-width:0.886227;"/>
    <path clip-path="url(#p902aedf479)" d="M 310.571506 138.255795 
C 311.041566 138.255795 311.492437 138.069038 311.82482 137.736656 
C 312.157203 137.404273 312.34396 136.953402 312.34396 136.483342 
C 312.34396 136.013281 312.157203 135.56241 311.82482 135.230027 
C 311.492437 134.897645 311.041566 134.710888 310.571506 134.710888 
C 310.101445 134.710888 309.650574 134.897645 309.318192 135.230027 
C 308.985809 135.56241 308.799052 136.013281 308.799052 136.483342 
C 308.799052 136.953402 308.985809 137.404273 309.318192 137.736656 
C 309.650574 138.069038 310.101445 138.255795 310.571506 138.255795 
z
" style="stroke:#000000;stroke-width:0.886227;"/>
    <path clip-path="url(#p902aedf479)" d="M 318.687869 113.434756 
C 319.15793 113.434756 319.608801 113.247999 319.941183 112.915616 
C 320.273566 112.583233 320.460323 112.132362 320.460323 111.662302 
C 320.460323 111.192241 320.273566 110.74137 319.941183 110.408988 
C 319.608801 110.076605 319.15793 109.889848 318.687869 109.889848 
C 318.217809 109.889848 317.766938 110.076605 317.434555 110.408988 
C 317.102172 110.74137 316.915415 111.192241 316.915415 111.662302 
C 316.915415 112.132362 317.102172 112.583233 317.434555 112.915616 
C 317.766938 113.247999 318.217809 113.434756 318.687869 113.434756 
z
" style="stroke:#000000;stroke-width:0.886227;"/>
    <path clip-path="url(#p902aedf479)" d="M 326.804233 121.426303 
C 327.274293 121.426303 327.725164 121.239546 328.057547 120.907164 
C 328.38993 120.574781 328.576687 120.12391 328.576687 119.65385 
C 328.576687 119.183789 328.38993 118.732918 328.057547 118.400535 
C 327.725164 118.068153 327.274293 117.881396 326.804233 117.881396 
C 326.334173 117.881396 325.883302 118.068153 325.550919 118.400535 
C 325.218536 118.732918 325.031779 119.183789 325.031779 119.65385 
C 325.031779 120.12391 325.218536 120.574781 325.550919 120.907164 
C 325.883302 121.239546 326.334173 121.426303 326.804233 121.426303 
z
" style="stroke:#000000;stroke-width:0.886227;"/>
    <path clip-path="url(#p902aedf479)" d="M 334.920597 112.506508 
C 335.390657 112.506508 335.841528 112.319751 336.173911 111.987368 
C 336.506294 111.654985 336.69305 111.204114 336.69305 110.734054 
C 336.69305 110.263994 336.506294 109.813123 336.173911 109.48074 
C 335.841528 109.148357 335.390657 108.9616 334.920597 108.9616 
C 334.450536 108.9616 333.999665 109.148357 333.667282 109.48074 
C 333.3349 109.813123 333.148143 110.263994 333.148143 110.734054 
C 333.148143 111.204114 333.3349 111.654985 333.667282 111.987368 
C 333.999665 112.319751 334.450536 112.506508 334.920597 112.506508 
z
" style="stroke:#000000;stroke-width:0.886227;"/>
    <path clip-path="url(#p902aedf479)" d="M 343.03696 123.122633 
C 343.50702 123.122633 343.957892 122.935876 344.290274 122.603493 
C 344.622657 122.27111 344.809414 121.820239 344.809414 121.350179 
C 344.809414 120.880118 344.622657 120.429247 344.290274 120.096865 
C 343.957892 119.764482 343.50702 119.577725 343.03696 119.577725 
C 342.5669 119.577725 342.116029 119.764482 341.783646 120.096865 
C 341.451263 120.429247 341.264506 120.880118 341.264506 121.350179 
C 341.264506 121.820239 341.451263 122.27111 341.783646 122.603493 
C 342.116029 122.935876 342.5669 123.122633 343.03696 123.122633 
z
" style="stroke:#000000;stroke-width:0.886227;"/>
    <path clip-path="url(#p902aedf479)" d="M 351.153324 146.110562 
C 351.623384 146.110562 352.074255 145.923805 352.406638 145.591422 
C 352.739021 145.259039 352.925778 144.808168 352.925778 144.338108 
C 352.925778 143.868048 352.739021 143.417177 352.406638 143.084794 
C 352.074255 142.752411 351.623384 142.565654 351.153324 142.565654 
C 350.683264 142.565654 350.232393 142.752411 349.90001 143.084794 
C 349.567627 143.417177 349.38087 143.868048 349.38087 144.338108 
C 349.38087 144.808168 349.567627 145.259039 349.90001 145.591422 
C 350.232393 145.923805 350.683264 146.110562 351.153324 146.110562 
z
" style="stroke:#000000;stroke-width:0.886227;"/>
    <path clip-path="url(#p902aedf479)" d="M 359.269688 146.835456 
C 359.739748 146.835456 360.190619 146.648699 360.523002 146.316316 
C 360.855384 145.983934 361.042141 145.533063 361.042141 145.063002 
C 361.042141 144.592942 360.855384 144.142071 360.523002 143.809688 
C 360.190619 143.477305 359.739748 143.290548 359.269688 143.290548 
C 358.799627 143.290548 358.348756 143.477305 358.016373 143.809688 
C 357.683991 144.142071 357.497234 144.592942 357.497234 145.063002 
C 357.497234 145.533063 357.683991 145.983934 358.016373 146.316316 
C 358.348756 146.648699 358.799627 146.835456 359.269688 146.835456 
z
" style="stroke:#000000;stroke-width:0.886227;"/>
    <path clip-path="url(#p902aedf479)" d="M 367.386051 119.883973 
C 367.856111 119.883973 368.306982 119.697216 368.639365 119.364833 
C 368.971748 119.03245 369.158505 118.581579 369.158505 118.111519 
C 369.158505 117.641459 368.971748 117.190587 368.639365 116.858205 
C 368.306982 116.525822 367.856111 116.339065 367.386051 116.339065 
C 366.915991 116.339065 366.46512 116.525822 366.132737 116.858205 
C 365.800354 117.190587 365.613597 117.641459 365.613597 118.111519 
C 365.613597 118.581579 365.800354 119.03245 366.132737 119.364833 
C 366.46512 119.697216 366.915991 119.883973 367.386051 119.883973 
z
" style="stroke:#000000;stroke-width:0.886227;"/>
    <path clip-path="url(#p902aedf479)" d="M 375.502415 116.204406 
C 375.972475 116.204406 376.423346 116.017649 376.755729 115.685266 
C 377.088112 115.352883 377.274869 114.902012 377.274869 114.431952 
C 377.274869 113.961892 377.088112 113.511021 376.755729 113.178638 
C 376.423346 112.846255 375.972475 112.659498 375.502415 112.659498 
C 375.032355 112.659498 374.581483 112.846255 374.249101 113.178638 
C 373.916718 113.511021 373.729961 113.961892 373.729961 114.431952 
C 373.729961 114.902012 373.916718 115.352883 374.249101 115.685266 
C 374.581483 116.017649 375.032355 116.204406 375.502415 116.204406 
z
" style="stroke:#000000;stroke-width:0.886227;"/>
    <path clip-path="url(#p902aedf479)" d="M 383.618778 126.921389 
C 384.088839 126.921389 384.53971 126.734632 384.872093 126.402249 
C 385.204475 126.069866 385.391232 125.618995 385.391232 125.148935 
C 385.391232 124.678875 385.204475 124.228003 384.872093 123.895621 
C 384.53971 123.563238 384.088839 123.376481 383.618778 123.376481 
C 383.148718 123.376481 382.697847 123.563238 382.365464 123.895621 
C 382.033081 124.228003 381.846325 124.678875 381.846325 125.148935 
C 381.846325 125.618995 382.033081 126.069866 382.365464 126.402249 
C 382.697847 126.734632 383.148718 126.921389 383.618778 126.921389 
z
" style="stroke:#000000;stroke-width:0.886227;"/>
    <path clip-path="url(#p902aedf479)" d="M 391.735142 105.215019 
C 392.205202 105.215019 392.656073 105.028262 392.988456 104.69588 
C 393.320839 104.363497 393.507596 103.912626 393.507596 103.442566 
C 393.507596 102.972505 393.320839 102.521634 392.988456 102.189251 
C 392.656073 101.856869 392.205202 101.670112 391.735142 101.670112 
C 391.265082 101.670112 390.814211 101.856869 390.481828 102.189251 
C 390.149445 102.521634 389.962688 102.972505 389.962688 103.442566 
C 389.962688 103.912626 390.149445 104.363497 390.481828 104.69588 
C 390.814211 105.028262 391.265082 105.215019 391.735142 105.215019 
z
" style="stroke:#000000;stroke-width:0.886227;"/>
    <path clip-path="url(#p902aedf479)" d="M 399.851506 116.925427 
C 400.321566 116.925427 400.772437 116.73867 401.10482 116.406287 
C 401.437203 116.073904 401.62396 115.623033 401.62396 115.152973 
C 401.62396 114.682913 401.437203 114.232042 401.10482 113.899659 
C 400.772437 113.567276 400.321566 113.380519 399.851506 113.380519 
C 399.381445 113.380519 398.930574 113.567276 398.598192 113.899659 
C 398.265809 114.232042 398.079052 114.682913 398.079052 115.152973 
C 398.079052 115.623033 398.265809 116.073904 398.598192 116.406287 
C 398.930574 116.73867 399.381445 116.925427 399.851506 116.925427 
z
" style="stroke:#000000;stroke-width:0.886227;"/>
    <path clip-path="url(#p902aedf479)" d="M 407.967869 118.144138 
C 408.43793 118.144138 408.888801 117.957381 409.221183 117.624998 
C 409.553566 117.292615 409.740323 116.841744 409.740323 116.371684 
C 409.740323 115.901624 409.553566 115.450753 409.221183 115.11837 
C 408.888801 114.785987 408.43793 114.59923 407.967869 114.59923 
C 407.497809 114.59923 407.046938 114.785987 406.714555 115.11837 
C 406.382172 115.450753 406.195415 115.901624 406.195415 116.371684 
C 406.195415 116.841744 406.382172 117.292615 406.714555 117.624998 
C 407.046938 117.957381 407.497809 118.144138 407.967869 118.144138 
z
" style="stroke:#000000;stroke-width:0.886227;"/>
    <path clip-path="url(#p902aedf479)" d="M 416.084233 102.099901 
C 416.554293 102.099901 417.005164 101.913144 417.337547 101.580762 
C 417.66993 101.248379 417.856687 100.797508 417.856687 100.327447 
C 417.856687 99.857387 417.66993 99.406516 417.337547 99.074133 
C 417.005164 98.741751 416.554293 98.554994 416.084233 98.554994 
C 415.614173 98.554994 415.163302 98.741751 414.830919 99.074133 
C 414.498536 99.406516 414.311779 99.857387 414.311779 100.327447 
C 414.311779 100.797508 414.498536 101.248379 414.830919 101.580762 
C 415.163302 101.913144 415.614173 102.099901 416.084233 102.099901 
z
" style="stroke:#000000;stroke-width:0.886227;"/>
    <path clip-path="url(#p902aedf479)" d="M 424.200597 92.51242 
C 424.670657 92.51242 425.121528 92.325663 425.453911 91.99328 
C 425.786294 91.660898 425.97305 91.210026 425.97305 90.739966 
C 425.97305 90.269906 425.786294 89.819035 425.453911 89.486652 
C 425.121528 89.154269 424.670657 88.967512 424.200597 88.967512 
C 423.730536 88.967512 423.279665 89.154269 422.947282 89.486652 
C 422.6149 89.819035 422.428143 90.269906 422.428143 90.739966 
C 422.428143 91.210026 422.6149 91.660898 422.947282 91.99328 
C 423.279665 92.325663 423.730536 92.51242 424.200597 92.51242 
z
" style="stroke:#000000;stroke-width:0.886227;"/>
    <path clip-path="url(#p902aedf479)" d="M 432.31696 118.899896 
C 432.78702 118.899896 433.237892 118.713139 433.570274 118.380756 
C 433.902657 118.048373 434.089414 117.597502 434.089414 117.127442 
C 434.089414 116.657382 433.902657 116.206511 433.570274 115.874128 
C 433.237892 115.541745 432.78702 115.354988 432.31696 115.354988 
C 431.8469 115.354988 431.396029 115.541745 431.063646 115.874128 
C 430.731263 116.206511 430.544506 116.657382 430.544506 117.127442 
C 430.544506 117.597502 430.731263 118.048373 431.063646 118.380756 
C 431.396029 118.713139 431.8469 118.899896 432.31696 118.899896 
z
" style="stroke:#000000;stroke-width:0.886227;"/>
    <path clip-path="url(#p902aedf479)" d="M 440.433324 95.014859 
C 440.903384 95.014859 441.354255 94.828102 441.686638 94.495719 
C 442.019021 94.163336 442.205778 93.712465 442.205778 93.242405 
C 442.205778 92.772345 442.019021 92.321474 441.686638 91.989091 
C 441.354255 91.656708 440.903384 91.469951 440.433324 91.469951 
C 439.963264 91.469951 439.512393 91.656708 439.18001 91.989091 
C 438.847627 92.321474 438.66087 92.772345 438.66087 93.242405 
C 438.66087 93.712465 438.847627 94.163336 439.18001 94.495719 
C 439.512393 94.828102 439.963264 95.014859 440.433324 95.014859 
z
" style="stroke:#000000;stroke-width:0.886227;"/>
    <path clip-path="url(#p902aedf479)" d="M 448.549687 92.30256 
C 449.019748 92.30256 449.470619 92.115803 449.803002 91.78342 
C 450.135384 91.451038 450.322141 91.000167 450.322141 90.530106 
C 450.322141 90.060046 450.135384 89.609175 449.803002 89.276792 
C 449.470619 88.944409 449.019748 88.757652 448.549687 88.757652 
C 448.079627 88.757652 447.628756 88.944409 447.296373 89.276792 
C 446.963991 89.609175 446.777234 90.060046 446.777234 90.530106 
C 446.777234 91.000167 446.963991 91.451038 447.296373 91.78342 
C 447.628756 92.115803 448.079627 92.30256 448.549687 92.30256 
z
" style="stroke:#000000;stroke-width:0.886227;"/>
    <path clip-path="url(#p902aedf479)" d="M 456.666051 109.691899 
C 457.136111 109.691899 457.586982 109.505142 457.919365 109.172759 
C 458.251748 108.840376 458.438505 108.389505 458.438505 107.919445 
C 458.438505 107.449385 458.251748 106.998514 457.919365 106.666131 
C 457.586982 106.333748 457.136111 106.146991 456.666051 106.146991 
C 456.195991 106.146991 455.74512 106.333748 455.412737 106.666131 
C 455.080354 106.998514 454.893597 107.449385 454.893597 107.919445 
C 454.893597 108.389505 455.080354 108.840376 455.412737 109.172759 
C 455.74512 109.505142 456.195991 109.691899 456.666051 109.691899 
z
" style="stroke:#000000;stroke-width:0.886227;"/>
    <path clip-path="url(#p902aedf479)" d="M 464.782415 126.988112 
C 465.252475 126.988112 465.703346 126.801355 466.035729 126.468972 
C 466.368112 126.13659 466.554869 125.685718 466.554869 125.215658 
C 466.554869 124.745598 466.368112 124.294727 466.035729 123.962344 
C 465.703346 123.629961 465.252475 123.443204 464.782415 123.443204 
C 464.312355 123.443204 463.861483 123.629961 463.529101 123.962344 
C 463.196718 124.294727 463.009961 124.745598 463.009961 125.215658 
C 463.009961 125.685718 463.196718 126.13659 463.529101 126.468972 
C 463.861483 126.801355 464.312355 126.988112 464.782415 126.988112 
z
" style="stroke:#000000;stroke-width:0.886227;"/>
   </g>
   <g id="line2d_41">
    <path clip-path="url(#p902aedf479)" d="M 123.895142 123.917838 
L 132.011506 189.204324 
L 156.360597 159.869189 
L 164.47696 139.031351 
L 172.593324 211.193514 
L 180.709687 99.301622 
L 188.826051 144.966486 
L 196.942415 153.60973 
L 205.058778 175.744865 
L 213.175142 141.885405 
L 221.291506 143.498919 
L 229.407869 163.142548 
L 237.524233 137.519329 
L 245.640597 156.799691 
L 253.75696 136.948726 
L 261.873324 117.756139 
L 269.989687 122.452587 
L 278.106051 116.673312 
L 286.222415 111.977767 
L 294.338778 115.526661 
L 302.455142 126.010338 
L 310.571506 136.483342 
L 318.687869 111.662302 
L 326.804233 119.65385 
L 334.920597 110.734054 
L 343.03696 121.350179 
L 351.153324 144.338108 
L 359.269688 145.063002 
L 367.386051 118.111519 
L 375.502415 114.431952 
L 383.618778 125.148935 
L 391.735142 103.442566 
L 399.851506 115.152973 
L 407.967869 116.371684 
L 416.084233 100.327447 
L 424.200597 90.739966 
L 432.31696 117.127442 
L 440.433324 93.242405 
L 448.549687 90.530106 
L 456.666051 107.919445 
L 464.782415 125.215658 
" style="fill:none;stroke:#000000;stroke-width:0.886227;"/>
   </g>
  </g>
 </g>
 <defs>
  <clipPath id="p902aedf479">
   <rect height="221.76" width="446.4" x="46.789687" y="7.2"/>
  </clipPath>
 </defs>
</svg>
