<?xml version="1.0" encoding="utf-8" standalone="no"?>
<!DOCTYPE svg PUBLIC "-//W3C//DTD SVG 1.1//EN"
  "http://www.w3.org/Graphics/SVG/1.1/DTD/svg11.dtd">
<!-- Created with matplotlib (https://matplotlib.org/) -->
<svg height="264.672687pt" version="1.1" viewBox="0 0 500.389687 264.672687" width="500.389687pt" xmlns="http://www.w3.org/2000/svg" xmlns:xlink="http://www.w3.org/1999/xlink">
 <defs>
  <style type="text/css">
*{stroke-linecap:butt;stroke-linejoin:round;}
  </style>
 </defs>
 <g id="figure_1">
  <g id="patch_1">
   <path d="M 0 264.672687 
L 500.389687 264.672687 
L 500.389687 0 
L 0 0 
z
" style="fill:#ffffff;stroke:#ffffff;stroke-linejoin:miter;"/>
  </g>
  <g id="axes_1">
   <g id="patch_2">
    <path d="M 46.789687 228.96 
L 493.189687 228.96 
L 493.189687 7.2 
L 46.789687 7.2 
z
" style="fill:#ffffff;stroke:#7f7f7f;stroke-linejoin:miter;"/>
   </g>
   <g id="matplotlib.axis_1">
    <g id="xtick_1">
     <g id="line2d_1">
      <path clip-path="url(#p224b418efb)" d="M 67.080597 228.96 
L 67.080597 7.2 
" style="fill:none;stroke:#e5e5e5;stroke-width:0.8;"/>
     </g>
     <g id="line2d_2">
      <path d="M 67.080597 228.96 
" style="fill:none;stroke:#000000;stroke-width:1.5;"/>
      <defs>
       <path d="M 0 0 
L 0 2.75 
" id="m4db9394f6b" style="stroke:#000000;"/>
      </defs>
      <g>
       <use style="stroke:#000000;" x="67.080597" xlink:href="#m4db9394f6b" y="228.96"/>
      </g>
     </g>
     <g id="text_1">
      <!-- 1970 -->
      <defs>
       <path d="M 12.40625 8.296875 
L 28.515625 8.296875 
L 28.515625 63.921875 
L 10.984375 60.40625 
L 10.984375 69.390625 
L 28.421875 72.90625 
L 38.28125 72.90625 
L 38.28125 8.296875 
L 54.390625 8.296875 
L 54.390625 0 
L 12.40625 0 
z
" id="DejaVuSans-49"/>
       <path d="M 10.984375 1.515625 
L 10.984375 10.5 
Q 14.703125 8.734375 18.5 7.8125 
Q 22.3125 6.890625 25.984375 6.890625 
Q 35.75 6.890625 40.890625 13.453125 
Q 46.046875 20.015625 46.78125 33.40625 
Q 43.953125 29.203125 39.59375 26.953125 
Q 35.25 24.703125 29.984375 24.703125 
Q 19.046875 24.703125 12.671875 31.3125 
Q 6.296875 37.9375 6.296875 49.421875 
Q 6.296875 60.640625 12.9375 67.421875 
Q 19.578125 74.21875 30.609375 74.21875 
Q 43.265625 74.21875 49.921875 64.515625 
Q 56.59375 54.828125 56.59375 36.375 
Q 56.59375 19.140625 48.40625 8.859375 
Q 40.234375 -1.421875 26.421875 -1.421875 
Q 22.703125 -1.421875 18.890625 -0.6875 
Q 15.09375 0.046875 10.984375 1.515625 
z
M 30.609375 32.421875 
Q 37.25 32.421875 41.125 36.953125 
Q 45.015625 41.5 45.015625 49.421875 
Q 45.015625 57.28125 41.125 61.84375 
Q 37.25 66.40625 30.609375 66.40625 
Q 23.96875 66.40625 20.09375 61.84375 
Q 16.21875 57.28125 16.21875 49.421875 
Q 16.21875 41.5 20.09375 36.953125 
Q 23.96875 32.421875 30.609375 32.421875 
z
" id="DejaVuSans-57"/>
       <path d="M 8.203125 72.90625 
L 55.078125 72.90625 
L 55.078125 68.703125 
L 28.609375 0 
L 18.3125 0 
L 43.21875 64.59375 
L 8.203125 64.59375 
z
" id="DejaVuSans-55"/>
       <path d="M 31.78125 66.40625 
Q 24.171875 66.40625 20.328125 58.90625 
Q 16.5 51.421875 16.5 36.375 
Q 16.5 21.390625 20.328125 13.890625 
Q 24.171875 6.390625 31.78125 6.390625 
Q 39.453125 6.390625 43.28125 13.890625 
Q 47.125 21.390625 47.125 36.375 
Q 47.125 51.421875 43.28125 58.90625 
Q 39.453125 66.40625 31.78125 66.40625 
z
M 31.78125 74.21875 
Q 44.046875 74.21875 50.515625 64.515625 
Q 56.984375 54.828125 56.984375 36.375 
Q 56.984375 17.96875 50.515625 8.265625 
Q 44.046875 -1.421875 31.78125 -1.421875 
Q 19.53125 -1.421875 13.0625 8.265625 
Q 6.59375 17.96875 6.59375 36.375 
Q 6.59375 54.828125 13.0625 64.515625 
Q 19.53125 74.21875 31.78125 74.21875 
z
" id="DejaVuSans-48"/>
      </defs>
      <g style="fill:#4d4d4d;" transform="translate(55.882597 240.596625)scale(0.088 -0.088)">
       <use xlink:href="#DejaVuSans-49"/>
       <use x="63.623047" xlink:href="#DejaVuSans-57"/>
       <use x="127.246094" xlink:href="#DejaVuSans-55"/>
       <use x="190.869141" xlink:href="#DejaVuSans-48"/>
      </g>
     </g>
    </g>
    <g id="xtick_2">
     <g id="line2d_3">
      <path clip-path="url(#p224b418efb)" d="M 148.244233 228.96 
L 148.244233 7.2 
" style="fill:none;stroke:#e5e5e5;stroke-width:0.8;"/>
     </g>
     <g id="line2d_4">
      <path d="M 148.244233 228.96 
" style="fill:none;stroke:#000000;stroke-width:1.5;"/>
      <g>
       <use style="stroke:#000000;" x="148.244233" xlink:href="#m4db9394f6b" y="228.96"/>
      </g>
     </g>
     <g id="text_2">
      <!-- 1980 -->
      <defs>
       <path d="M 31.78125 34.625 
Q 24.75 34.625 20.71875 30.859375 
Q 16.703125 27.09375 16.703125 20.515625 
Q 16.703125 13.921875 20.71875 10.15625 
Q 24.75 6.390625 31.78125 6.390625 
Q 38.8125 6.390625 42.859375 10.171875 
Q 46.921875 13.96875 46.921875 20.515625 
Q 46.921875 27.09375 42.890625 30.859375 
Q 38.875 34.625 31.78125 34.625 
z
M 21.921875 38.8125 
Q 15.578125 40.375 12.03125 44.71875 
Q 8.5 49.078125 8.5 55.328125 
Q 8.5 64.0625 14.71875 69.140625 
Q 20.953125 74.21875 31.78125 74.21875 
Q 42.671875 74.21875 48.875 69.140625 
Q 55.078125 64.0625 55.078125 55.328125 
Q 55.078125 49.078125 51.53125 44.71875 
Q 48 40.375 41.703125 38.8125 
Q 48.828125 37.15625 52.796875 32.3125 
Q 56.78125 27.484375 56.78125 20.515625 
Q 56.78125 9.90625 50.3125 4.234375 
Q 43.84375 -1.421875 31.78125 -1.421875 
Q 19.734375 -1.421875 13.25 4.234375 
Q 6.78125 9.90625 6.78125 20.515625 
Q 6.78125 27.484375 10.78125 32.3125 
Q 14.796875 37.15625 21.921875 38.8125 
z
M 18.3125 54.390625 
Q 18.3125 48.734375 21.84375 45.5625 
Q 25.390625 42.390625 31.78125 42.390625 
Q 38.140625 42.390625 41.71875 45.5625 
Q 45.3125 48.734375 45.3125 54.390625 
Q 45.3125 60.0625 41.71875 63.234375 
Q 38.140625 66.40625 31.78125 66.40625 
Q 25.390625 66.40625 21.84375 63.234375 
Q 18.3125 60.0625 18.3125 54.390625 
z
" id="DejaVuSans-56"/>
      </defs>
      <g style="fill:#4d4d4d;" transform="translate(137.046233 240.596625)scale(0.088 -0.088)">
       <use xlink:href="#DejaVuSans-49"/>
       <use x="63.623047" xlink:href="#DejaVuSans-57"/>
       <use x="127.246094" xlink:href="#DejaVuSans-56"/>
       <use x="190.869141" xlink:href="#DejaVuSans-48"/>
      </g>
     </g>
    </g>
    <g id="xtick_3">
     <g id="line2d_5">
      <path clip-path="url(#p224b418efb)" d="M 229.407869 228.96 
L 229.407869 7.2 
" style="fill:none;stroke:#e5e5e5;stroke-width:0.8;"/>
     </g>
     <g id="line2d_6">
      <path d="M 229.407869 228.96 
" style="fill:none;stroke:#000000;stroke-width:1.5;"/>
      <g>
       <use style="stroke:#000000;" x="229.407869" xlink:href="#m4db9394f6b" y="228.96"/>
      </g>
     </g>
     <g id="text_3">
      <!-- 1990 -->
      <g style="fill:#4d4d4d;" transform="translate(218.209869 240.596625)scale(0.088 -0.088)">
       <use xlink:href="#DejaVuSans-49"/>
       <use x="63.623047" xlink:href="#DejaVuSans-57"/>
       <use x="127.246094" xlink:href="#DejaVuSans-57"/>
       <use x="190.869141" xlink:href="#DejaVuSans-48"/>
      </g>
     </g>
    </g>
    <g id="xtick_4">
     <g id="line2d_7">
      <path clip-path="url(#p224b418efb)" d="M 310.571506 228.96 
L 310.571506 7.2 
" style="fill:none;stroke:#e5e5e5;stroke-width:0.8;"/>
     </g>
     <g id="line2d_8">
      <path d="M 310.571506 228.96 
" style="fill:none;stroke:#000000;stroke-width:1.5;"/>
      <g>
       <use style="stroke:#000000;" x="310.571506" xlink:href="#m4db9394f6b" y="228.96"/>
      </g>
     </g>
     <g id="text_4">
      <!-- 2000 -->
      <defs>
       <path d="M 19.1875 8.296875 
L 53.609375 8.296875 
L 53.609375 0 
L 7.328125 0 
L 7.328125 8.296875 
Q 12.9375 14.109375 22.625 23.890625 
Q 32.328125 33.6875 34.8125 36.53125 
Q 39.546875 41.84375 41.421875 45.53125 
Q 43.3125 49.21875 43.3125 52.78125 
Q 43.3125 58.59375 39.234375 62.25 
Q 35.15625 65.921875 28.609375 65.921875 
Q 23.96875 65.921875 18.8125 64.3125 
Q 13.671875 62.703125 7.8125 59.421875 
L 7.8125 69.390625 
Q 13.765625 71.78125 18.9375 73 
Q 24.125 74.21875 28.421875 74.21875 
Q 39.75 74.21875 46.484375 68.546875 
Q 53.21875 62.890625 53.21875 53.421875 
Q 53.21875 48.921875 51.53125 44.890625 
Q 49.859375 40.875 45.40625 35.40625 
Q 44.1875 33.984375 37.640625 27.21875 
Q 31.109375 20.453125 19.1875 8.296875 
z
" id="DejaVuSans-50"/>
      </defs>
      <g style="fill:#4d4d4d;" transform="translate(299.373506 240.596625)scale(0.088 -0.088)">
       <use xlink:href="#DejaVuSans-50"/>
       <use x="63.623047" xlink:href="#DejaVuSans-48"/>
       <use x="127.246094" xlink:href="#DejaVuSans-48"/>
       <use x="190.869141" xlink:href="#DejaVuSans-48"/>
      </g>
     </g>
    </g>
    <g id="xtick_5">
     <g id="line2d_9">
      <path clip-path="url(#p224b418efb)" d="M 391.735142 228.96 
L 391.735142 7.2 
" style="fill:none;stroke:#e5e5e5;stroke-width:0.8;"/>
     </g>
     <g id="line2d_10">
      <path d="M 391.735142 228.96 
" style="fill:none;stroke:#000000;stroke-width:1.5;"/>
      <g>
       <use style="stroke:#000000;" x="391.735142" xlink:href="#m4db9394f6b" y="228.96"/>
      </g>
     </g>
     <g id="text_5">
      <!-- 2010 -->
      <g style="fill:#4d4d4d;" transform="translate(380.537142 240.596625)scale(0.088 -0.088)">
       <use xlink:href="#DejaVuSans-50"/>
       <use x="63.623047" xlink:href="#DejaVuSans-48"/>
       <use x="127.246094" xlink:href="#DejaVuSans-49"/>
       <use x="190.869141" xlink:href="#DejaVuSans-48"/>
      </g>
     </g>
    </g>
    <g id="xtick_6">
     <g id="line2d_11">
      <path clip-path="url(#p224b418efb)" d="M 472.898778 228.96 
L 472.898778 7.2 
" style="fill:none;stroke:#e5e5e5;stroke-width:0.8;"/>
     </g>
     <g id="line2d_12">
      <path d="M 472.898778 228.96 
" style="fill:none;stroke:#000000;stroke-width:1.5;"/>
      <g>
       <use style="stroke:#000000;" x="472.898778" xlink:href="#m4db9394f6b" y="228.96"/>
      </g>
     </g>
     <g id="text_6">
      <!-- 2020 -->
      <g style="fill:#4d4d4d;" transform="translate(461.700778 240.596625)scale(0.088 -0.088)">
       <use xlink:href="#DejaVuSans-50"/>
       <use x="63.623047" xlink:href="#DejaVuSans-48"/>
       <use x="127.246094" xlink:href="#DejaVuSans-50"/>
       <use x="190.869141" xlink:href="#DejaVuSans-48"/>
      </g>
     </g>
    </g>
    <g id="xtick_7">
     <g id="line2d_13">
      <path clip-path="url(#p224b418efb)" d="M 107.662415 228.96 
L 107.662415 7.2 
" style="fill:none;stroke:#fafafa;"/>
     </g>
     <g id="line2d_14">
      <path d="M 107.662415 228.96 
" style="fill:none;stroke:#000000;stroke-width:1.5;"/>
      <defs>
       <path d="M 0 0 
L 0 1.375 
" id="mae071049fa" style="stroke:#000000;"/>
      </defs>
      <g>
       <use style="stroke:#000000;" x="107.662415" xlink:href="#mae071049fa" y="228.96"/>
      </g>
     </g>
    </g>
    <g id="xtick_8">
     <g id="line2d_15">
      <path clip-path="url(#p224b418efb)" d="M 188.826051 228.96 
L 188.826051 7.2 
" style="fill:none;stroke:#fafafa;"/>
     </g>
     <g id="line2d_16">
      <path d="M 188.826051 228.96 
" style="fill:none;stroke:#000000;stroke-width:1.5;"/>
      <g>
       <use style="stroke:#000000;" x="188.826051" xlink:href="#mae071049fa" y="228.96"/>
      </g>
     </g>
    </g>
    <g id="xtick_9">
     <g id="line2d_17">
      <path clip-path="url(#p224b418efb)" d="M 269.989687 228.96 
L 269.989687 7.2 
" style="fill:none;stroke:#fafafa;"/>
     </g>
     <g id="line2d_18">
      <path d="M 269.989687 228.96 
" style="fill:none;stroke:#000000;stroke-width:1.5;"/>
      <g>
       <use style="stroke:#000000;" x="269.989687" xlink:href="#mae071049fa" y="228.96"/>
      </g>
     </g>
    </g>
    <g id="xtick_10">
     <g id="line2d_19">
      <path clip-path="url(#p224b418efb)" d="M 351.153324 228.96 
L 351.153324 7.2 
" style="fill:none;stroke:#fafafa;"/>
     </g>
     <g id="line2d_20">
      <path d="M 351.153324 228.96 
" style="fill:none;stroke:#000000;stroke-width:1.5;"/>
      <g>
       <use style="stroke:#000000;" x="351.153324" xlink:href="#mae071049fa" y="228.96"/>
      </g>
     </g>
    </g>
    <g id="xtick_11">
     <g id="line2d_21">
      <path clip-path="url(#p224b418efb)" d="M 432.31696 228.96 
L 432.31696 7.2 
" style="fill:none;stroke:#fafafa;"/>
     </g>
     <g id="line2d_22">
      <path d="M 432.31696 228.96 
" style="fill:none;stroke:#000000;stroke-width:1.5;"/>
      <g>
       <use style="stroke:#000000;" x="432.31696" xlink:href="#mae071049fa" y="228.96"/>
      </g>
     </g>
    </g>
    <g id="text_7">
     <!-- Year -->
     <defs>
      <path d="M -0.203125 72.90625 
L 10.40625 72.90625 
L 30.609375 42.921875 
L 50.6875 72.90625 
L 61.28125 72.90625 
L 35.5 34.71875 
L 35.5 0 
L 25.59375 0 
L 25.59375 34.71875 
z
" id="DejaVuSans-89"/>
      <path d="M 56.203125 29.59375 
L 56.203125 25.203125 
L 14.890625 25.203125 
Q 15.484375 15.921875 20.484375 11.0625 
Q 25.484375 6.203125 34.421875 6.203125 
Q 39.59375 6.203125 44.453125 7.46875 
Q 49.3125 8.734375 54.109375 11.28125 
L 54.109375 2.78125 
Q 49.265625 0.734375 44.1875 -0.34375 
Q 39.109375 -1.421875 33.890625 -1.421875 
Q 20.796875 -1.421875 13.15625 6.1875 
Q 5.515625 13.8125 5.515625 26.8125 
Q 5.515625 40.234375 12.765625 48.109375 
Q 20.015625 56 32.328125 56 
Q 43.359375 56 49.78125 48.890625 
Q 56.203125 41.796875 56.203125 29.59375 
z
M 47.21875 32.234375 
Q 47.125 39.59375 43.09375 43.984375 
Q 39.0625 48.390625 32.421875 48.390625 
Q 24.90625 48.390625 20.390625 44.140625 
Q 15.875 39.890625 15.1875 32.171875 
z
" id="DejaVuSans-101"/>
      <path d="M 34.28125 27.484375 
Q 23.390625 27.484375 19.1875 25 
Q 14.984375 22.515625 14.984375 16.5 
Q 14.984375 11.71875 18.140625 8.90625 
Q 21.296875 6.109375 26.703125 6.109375 
Q 34.1875 6.109375 38.703125 11.40625 
Q 43.21875 16.703125 43.21875 25.484375 
L 43.21875 27.484375 
z
M 52.203125 31.203125 
L 52.203125 0 
L 43.21875 0 
L 43.21875 8.296875 
Q 40.140625 3.328125 35.546875 0.953125 
Q 30.953125 -1.421875 24.3125 -1.421875 
Q 15.921875 -1.421875 10.953125 3.296875 
Q 6 8.015625 6 15.921875 
Q 6 25.140625 12.171875 29.828125 
Q 18.359375 34.515625 30.609375 34.515625 
L 43.21875 34.515625 
L 43.21875 35.40625 
Q 43.21875 41.609375 39.140625 45 
Q 35.0625 48.390625 27.6875 48.390625 
Q 23 48.390625 18.546875 47.265625 
Q 14.109375 46.140625 10.015625 43.890625 
L 10.015625 52.203125 
Q 14.9375 54.109375 19.578125 55.046875 
Q 24.21875 56 28.609375 56 
Q 40.484375 56 46.34375 49.84375 
Q 52.203125 43.703125 52.203125 31.203125 
z
" id="DejaVuSans-97"/>
      <path d="M 41.109375 46.296875 
Q 39.59375 47.171875 37.8125 47.578125 
Q 36.03125 48 33.890625 48 
Q 26.265625 48 22.1875 43.046875 
Q 18.109375 38.09375 18.109375 28.8125 
L 18.109375 0 
L 9.078125 0 
L 9.078125 54.6875 
L 18.109375 54.6875 
L 18.109375 46.1875 
Q 20.953125 51.171875 25.484375 53.578125 
Q 30.03125 56 36.53125 56 
Q 37.453125 56 38.578125 55.875 
Q 39.703125 55.765625 41.0625 55.515625 
z
" id="DejaVuSans-114"/>
     </defs>
     <g transform="translate(250.425859 255.185031)scale(0.11 -0.11)">
      <use xlink:href="#DejaVuSans-89"/>
      <use x="60.880859" xlink:href="#DejaVuSans-101"/>
      <use x="122.404297" xlink:href="#DejaVuSans-97"/>
      <use x="183.683594" xlink:href="#DejaVuSans-114"/>
     </g>
    </g>
   </g>
   <g id="matplotlib.axis_2">
    <g id="ytick_1">
     <g id="line2d_23">
      <path clip-path="url(#p224b418efb)" d="M 46.789687 218.88 
L 493.189687 218.88 
" style="fill:none;stroke:#e5e5e5;stroke-width:0.8;"/>
     </g>
     <g id="line2d_24">
      <path d="M 46.789687 218.88 
" style="fill:none;stroke:#000000;stroke-width:1.5;"/>
      <defs>
       <path d="M 0 0 
L -2.75 0 
" id="mf6efcd3e4f" style="stroke:#000000;"/>
      </defs>
      <g>
       <use style="stroke:#000000;" x="46.789687" xlink:href="#mf6efcd3e4f" y="218.88"/>
      </g>
     </g>
     <g id="text_8">
      <!-- 0 -->
      <g style="fill:#4d4d4d;" transform="translate(36.240687 221.30825)scale(0.088 -0.088)">
       <use xlink:href="#DejaVuSans-48"/>
      </g>
     </g>
    </g>
    <g id="ytick_2">
     <g id="line2d_25">
      <path clip-path="url(#p224b418efb)" d="M 46.789687 168.48 
L 493.189687 168.48 
" style="fill:none;stroke:#e5e5e5;stroke-width:0.8;"/>
     </g>
     <g id="line2d_26">
      <path d="M 46.789687 168.48 
" style="fill:none;stroke:#000000;stroke-width:1.5;"/>
      <g>
       <use style="stroke:#000000;" x="46.789687" xlink:href="#mf6efcd3e4f" y="168.48"/>
      </g>
     </g>
     <g id="text_9">
      <!-- 0.25 -->
      <defs>
       <path d="M 10.6875 12.40625 
L 21 12.40625 
L 21 0 
L 10.6875 0 
z
" id="DejaVuSans-46"/>
       <path d="M 10.796875 72.90625 
L 49.515625 72.90625 
L 49.515625 64.59375 
L 19.828125 64.59375 
L 19.828125 46.734375 
Q 21.96875 47.46875 24.109375 47.828125 
Q 26.265625 48.1875 28.421875 48.1875 
Q 40.625 48.1875 47.75 41.5 
Q 54.890625 34.8125 54.890625 23.390625 
Q 54.890625 11.625 47.5625 5.09375 
Q 40.234375 -1.421875 26.90625 -1.421875 
Q 22.3125 -1.421875 17.546875 -0.640625 
Q 12.796875 0.140625 7.71875 1.703125 
L 7.71875 11.625 
Q 12.109375 9.234375 16.796875 8.0625 
Q 21.484375 6.890625 26.703125 6.890625 
Q 35.15625 6.890625 40.078125 11.328125 
Q 45.015625 15.765625 45.015625 23.390625 
Q 45.015625 31 40.078125 35.4375 
Q 35.15625 39.890625 26.703125 39.890625 
Q 22.75 39.890625 18.8125 39.015625 
Q 14.890625 38.140625 10.796875 36.28125 
z
" id="DejaVuSans-53"/>
      </defs>
      <g style="fill:#4d4d4d;" transform="translate(22.245937 170.90825)scale(0.088 -0.088)">
       <use xlink:href="#DejaVuSans-48"/>
       <use x="63.623047" xlink:href="#DejaVuSans-46"/>
       <use x="95.410156" xlink:href="#DejaVuSans-50"/>
       <use x="159.033203" xlink:href="#DejaVuSans-53"/>
      </g>
     </g>
    </g>
    <g id="ytick_3">
     <g id="line2d_27">
      <path clip-path="url(#p224b418efb)" d="M 46.789687 118.08 
L 493.189687 118.08 
" style="fill:none;stroke:#e5e5e5;stroke-width:0.8;"/>
     </g>
     <g id="line2d_28">
      <path d="M 46.789687 118.08 
" style="fill:none;stroke:#000000;stroke-width:1.5;"/>
      <g>
       <use style="stroke:#000000;" x="46.789687" xlink:href="#mf6efcd3e4f" y="118.08"/>
      </g>
     </g>
     <g id="text_10">
      <!-- 0.50 -->
      <g style="fill:#4d4d4d;" transform="translate(22.245937 120.50825)scale(0.088 -0.088)">
       <use xlink:href="#DejaVuSans-48"/>
       <use x="63.623047" xlink:href="#DejaVuSans-46"/>
       <use x="95.410156" xlink:href="#DejaVuSans-53"/>
       <use x="159.033203" xlink:href="#DejaVuSans-48"/>
      </g>
     </g>
    </g>
    <g id="ytick_4">
     <g id="line2d_29">
      <path clip-path="url(#p224b418efb)" d="M 46.789687 67.68 
L 493.189687 67.68 
" style="fill:none;stroke:#e5e5e5;stroke-width:0.8;"/>
     </g>
     <g id="line2d_30">
      <path d="M 46.789687 67.68 
" style="fill:none;stroke:#000000;stroke-width:1.5;"/>
      <g>
       <use style="stroke:#000000;" x="46.789687" xlink:href="#mf6efcd3e4f" y="67.68"/>
      </g>
     </g>
     <g id="text_11">
      <!-- 0.75 -->
      <g style="fill:#4d4d4d;" transform="translate(22.245937 70.10825)scale(0.088 -0.088)">
       <use xlink:href="#DejaVuSans-48"/>
       <use x="63.623047" xlink:href="#DejaVuSans-46"/>
       <use x="95.410156" xlink:href="#DejaVuSans-55"/>
       <use x="159.033203" xlink:href="#DejaVuSans-53"/>
      </g>
     </g>
    </g>
    <g id="ytick_5">
     <g id="line2d_31">
      <path clip-path="url(#p224b418efb)" d="M 46.789687 17.28 
L 493.189687 17.28 
" style="fill:none;stroke:#e5e5e5;stroke-width:0.8;"/>
     </g>
     <g id="line2d_32">
      <path d="M 46.789687 17.28 
" style="fill:none;stroke:#000000;stroke-width:1.5;"/>
      <g>
       <use style="stroke:#000000;" x="46.789687" xlink:href="#mf6efcd3e4f" y="17.28"/>
      </g>
     </g>
     <g id="text_12">
      <!-- 1 -->
      <g style="fill:#4d4d4d;" transform="translate(36.240687 19.70825)scale(0.088 -0.088)">
       <use xlink:href="#DejaVuSans-49"/>
      </g>
     </g>
    </g>
    <g id="ytick_6">
     <g id="line2d_33">
      <path clip-path="url(#p224b418efb)" d="M 46.789687 193.68 
L 493.189687 193.68 
" style="fill:none;stroke:#fafafa;"/>
     </g>
     <g id="line2d_34">
      <path d="M 46.789687 193.68 
" style="fill:none;stroke:#000000;stroke-width:1.5;"/>
      <defs>
       <path d="M 0 0 
L -1.375 0 
" id="mc7f4ba26b6" style="stroke:#000000;"/>
      </defs>
      <g>
       <use style="stroke:#000000;" x="46.789687" xlink:href="#mc7f4ba26b6" y="193.68"/>
      </g>
     </g>
    </g>
    <g id="ytick_7">
     <g id="line2d_35">
      <path clip-path="url(#p224b418efb)" d="M 46.789687 143.28 
L 493.189687 143.28 
" style="fill:none;stroke:#fafafa;"/>
     </g>
     <g id="line2d_36">
      <path d="M 46.789687 143.28 
" style="fill:none;stroke:#000000;stroke-width:1.5;"/>
      <g>
       <use style="stroke:#000000;" x="46.789687" xlink:href="#mc7f4ba26b6" y="143.28"/>
      </g>
     </g>
    </g>
    <g id="ytick_8">
     <g id="line2d_37">
      <path clip-path="url(#p224b418efb)" d="M 46.789687 92.88 
L 493.189687 92.88 
" style="fill:none;stroke:#fafafa;"/>
     </g>
     <g id="line2d_38">
      <path d="M 46.789687 92.88 
" style="fill:none;stroke:#000000;stroke-width:1.5;"/>
      <g>
       <use style="stroke:#000000;" x="46.789687" xlink:href="#mc7f4ba26b6" y="92.88"/>
      </g>
     </g>
    </g>
    <g id="ytick_9">
     <g id="line2d_39">
      <path clip-path="url(#p224b418efb)" d="M 46.789687 42.48 
L 493.189687 42.48 
" style="fill:none;stroke:#fafafa;"/>
     </g>
     <g id="line2d_40">
      <path d="M 46.789687 42.48 
" style="fill:none;stroke:#000000;stroke-width:1.5;"/>
      <g>
       <use style="stroke:#000000;" x="46.789687" xlink:href="#mc7f4ba26b6" y="42.48"/>
      </g>
     </g>
    </g>
    <g id="text_13">
     <!-- Q1 percentile -->
     <defs>
      <path d="M 39.40625 66.21875 
Q 28.65625 66.21875 22.328125 58.203125 
Q 16.015625 50.203125 16.015625 36.375 
Q 16.015625 22.609375 22.328125 14.59375 
Q 28.65625 6.59375 39.40625 6.59375 
Q 50.140625 6.59375 56.421875 14.59375 
Q 62.703125 22.609375 62.703125 36.375 
Q 62.703125 50.203125 56.421875 58.203125 
Q 50.140625 66.21875 39.40625 66.21875 
z
M 53.21875 1.3125 
L 66.21875 -12.890625 
L 54.296875 -12.890625 
L 43.5 -1.21875 
Q 41.890625 -1.3125 41.03125 -1.359375 
Q 40.1875 -1.421875 39.40625 -1.421875 
Q 24.03125 -1.421875 14.8125 8.859375 
Q 5.609375 19.140625 5.609375 36.375 
Q 5.609375 53.65625 14.8125 63.9375 
Q 24.03125 74.21875 39.40625 74.21875 
Q 54.734375 74.21875 63.90625 63.9375 
Q 73.09375 53.65625 73.09375 36.375 
Q 73.09375 23.6875 67.984375 14.640625 
Q 62.890625 5.609375 53.21875 1.3125 
z
" id="DejaVuSans-81"/>
      <path id="DejaVuSans-32"/>
      <path d="M 18.109375 8.203125 
L 18.109375 -20.796875 
L 9.078125 -20.796875 
L 9.078125 54.6875 
L 18.109375 54.6875 
L 18.109375 46.390625 
Q 20.953125 51.265625 25.265625 53.625 
Q 29.59375 56 35.59375 56 
Q 45.5625 56 51.78125 48.09375 
Q 58.015625 40.1875 58.015625 27.296875 
Q 58.015625 14.40625 51.78125 6.484375 
Q 45.5625 -1.421875 35.59375 -1.421875 
Q 29.59375 -1.421875 25.265625 0.953125 
Q 20.953125 3.328125 18.109375 8.203125 
z
M 48.6875 27.296875 
Q 48.6875 37.203125 44.609375 42.84375 
Q 40.53125 48.484375 33.40625 48.484375 
Q 26.265625 48.484375 22.1875 42.84375 
Q 18.109375 37.203125 18.109375 27.296875 
Q 18.109375 17.390625 22.1875 11.75 
Q 26.265625 6.109375 33.40625 6.109375 
Q 40.53125 6.109375 44.609375 11.75 
Q 48.6875 17.390625 48.6875 27.296875 
z
" id="DejaVuSans-112"/>
      <path d="M 48.78125 52.59375 
L 48.78125 44.1875 
Q 44.96875 46.296875 41.140625 47.34375 
Q 37.3125 48.390625 33.40625 48.390625 
Q 24.65625 48.390625 19.8125 42.84375 
Q 14.984375 37.3125 14.984375 27.296875 
Q 14.984375 17.28125 19.8125 11.734375 
Q 24.65625 6.203125 33.40625 6.203125 
Q 37.3125 6.203125 41.140625 7.25 
Q 44.96875 8.296875 48.78125 10.40625 
L 48.78125 2.09375 
Q 45.015625 0.34375 40.984375 -0.53125 
Q 36.96875 -1.421875 32.421875 -1.421875 
Q 20.0625 -1.421875 12.78125 6.34375 
Q 5.515625 14.109375 5.515625 27.296875 
Q 5.515625 40.671875 12.859375 48.328125 
Q 20.21875 56 33.015625 56 
Q 37.15625 56 41.109375 55.140625 
Q 45.0625 54.296875 48.78125 52.59375 
z
" id="DejaVuSans-99"/>
      <path d="M 54.890625 33.015625 
L 54.890625 0 
L 45.90625 0 
L 45.90625 32.71875 
Q 45.90625 40.484375 42.875 44.328125 
Q 39.84375 48.1875 33.796875 48.1875 
Q 26.515625 48.1875 22.3125 43.546875 
Q 18.109375 38.921875 18.109375 30.90625 
L 18.109375 0 
L 9.078125 0 
L 9.078125 54.6875 
L 18.109375 54.6875 
L 18.109375 46.1875 
Q 21.34375 51.125 25.703125 53.5625 
Q 30.078125 56 35.796875 56 
Q 45.21875 56 50.046875 50.171875 
Q 54.890625 44.34375 54.890625 33.015625 
z
" id="DejaVuSans-110"/>
      <path d="M 18.3125 70.21875 
L 18.3125 54.6875 
L 36.8125 54.6875 
L 36.8125 47.703125 
L 18.3125 47.703125 
L 18.3125 18.015625 
Q 18.3125 11.328125 20.140625 9.421875 
Q 21.96875 7.515625 27.59375 7.515625 
L 36.8125 7.515625 
L 36.8125 0 
L 27.59375 0 
Q 17.1875 0 13.234375 3.875 
Q 9.28125 7.765625 9.28125 18.015625 
L 9.28125 47.703125 
L 2.6875 47.703125 
L 2.6875 54.6875 
L 9.28125 54.6875 
L 9.28125 70.21875 
z
" id="DejaVuSans-116"/>
      <path d="M 9.421875 54.6875 
L 18.40625 54.6875 
L 18.40625 0 
L 9.421875 0 
z
M 9.421875 75.984375 
L 18.40625 75.984375 
L 18.40625 64.59375 
L 9.421875 64.59375 
z
" id="DejaVuSans-105"/>
      <path d="M 9.421875 75.984375 
L 18.40625 75.984375 
L 18.40625 0 
L 9.421875 0 
z
" id="DejaVuSans-108"/>
     </defs>
     <g transform="translate(15.558281 153.842344)rotate(-90)scale(0.11 -0.11)">
      <use xlink:href="#DejaVuSans-81"/>
      <use x="78.710938" xlink:href="#DejaVuSans-49"/>
      <use x="142.333984" xlink:href="#DejaVuSans-32"/>
      <use x="174.121094" xlink:href="#DejaVuSans-112"/>
      <use x="237.597656" xlink:href="#DejaVuSans-101"/>
      <use x="299.121094" xlink:href="#DejaVuSans-114"/>
      <use x="340.203125" xlink:href="#DejaVuSans-99"/>
      <use x="395.183594" xlink:href="#DejaVuSans-101"/>
      <use x="456.707031" xlink:href="#DejaVuSans-110"/>
      <use x="520.085938" xlink:href="#DejaVuSans-116"/>
      <use x="559.294922" xlink:href="#DejaVuSans-105"/>
      <use x="587.078125" xlink:href="#DejaVuSans-108"/>
      <use x="614.861328" xlink:href="#DejaVuSans-101"/>
     </g>
    </g>
   </g>
   <g id="PathCollection_1">
    <path clip-path="url(#p224b418efb)" d="M 253.75696 45.19024 
C 254.22702 45.19024 254.677892 45.003483 255.010274 44.6711 
C 255.342657 44.338717 255.529414 43.887846 255.529414 43.417786 
C 255.529414 42.947725 255.342657 42.496854 255.010274 42.164472 
C 254.677892 41.832089 254.22702 41.645332 253.75696 41.645332 
C 253.2869 41.645332 252.836029 41.832089 252.503646 42.164472 
C 252.171263 42.496854 251.984506 42.947725 251.984506 43.417786 
C 251.984506 43.887846 252.171263 44.338717 252.503646 44.6711 
C 252.836029 45.003483 253.2869 45.19024 253.75696 45.19024 
z
" style="stroke:#000000;stroke-width:0.886227;"/>
    <path clip-path="url(#p224b418efb)" d="M 261.873324 133.095288 
C 262.343384 133.095288 262.794255 132.908531 263.126638 132.576148 
C 263.459021 132.243765 263.645778 131.792894 263.645778 131.322834 
C 263.645778 130.852774 263.459021 130.401903 263.126638 130.06952 
C 262.794255 129.737137 262.343384 129.55038 261.873324 129.55038 
C 261.403264 129.55038 260.952393 129.737137 260.62001 130.06952 
C 260.287627 130.401903 260.10087 130.852774 260.10087 131.322834 
C 260.10087 131.792894 260.287627 132.243765 260.62001 132.576148 
C 260.952393 132.908531 261.403264 133.095288 261.873324 133.095288 
z
" style="stroke:#000000;stroke-width:0.886227;"/>
    <path clip-path="url(#p224b418efb)" d="M 269.989687 132.974707 
C 270.459748 132.974707 270.910619 132.78795 271.243002 132.455567 
C 271.575384 132.123184 271.762141 131.672313 271.762141 131.202253 
C 271.762141 130.732193 271.575384 130.281321 271.243002 129.948939 
C 270.910619 129.616556 270.459748 129.429799 269.989687 129.429799 
C 269.519627 129.429799 269.068756 129.616556 268.736373 129.948939 
C 268.403991 130.281321 268.217234 130.732193 268.217234 131.202253 
C 268.217234 131.672313 268.403991 132.123184 268.736373 132.455567 
C 269.068756 132.78795 269.519627 132.974707 269.989687 132.974707 
z
" style="stroke:#000000;stroke-width:0.886227;"/>
    <path clip-path="url(#p224b418efb)" d="M 278.106051 143.03406 
C 278.576111 143.03406 279.026982 142.847303 279.359365 142.51492 
C 279.691748 142.182538 279.878505 141.731666 279.878505 141.261606 
C 279.878505 140.791546 279.691748 140.340675 279.359365 140.008292 
C 279.026982 139.675909 278.576111 139.489152 278.106051 139.489152 
C 277.635991 139.489152 277.18512 139.675909 276.852737 140.008292 
C 276.520354 140.340675 276.333597 140.791546 276.333597 141.261606 
C 276.333597 141.731666 276.520354 142.182538 276.852737 142.51492 
C 277.18512 142.847303 277.635991 143.03406 278.106051 143.03406 
z
" style="stroke:#000000;stroke-width:0.886227;"/>
    <path clip-path="url(#p224b418efb)" d="M 286.222415 147.665043 
C 286.692475 147.665043 287.143346 147.478286 287.475729 147.145903 
C 287.808112 146.81352 287.994869 146.362649 287.994869 145.892589 
C 287.994869 145.422528 287.808112 144.971657 287.475729 144.639275 
C 287.143346 144.306892 286.692475 144.120135 286.222415 144.120135 
C 285.752355 144.120135 285.301483 144.306892 284.969101 144.639275 
C 284.636718 144.971657 284.449961 145.422528 284.449961 145.892589 
C 284.449961 146.362649 284.636718 146.81352 284.969101 147.145903 
C 285.301483 147.478286 285.752355 147.665043 286.222415 147.665043 
z
" style="stroke:#000000;stroke-width:0.886227;"/>
    <path clip-path="url(#p224b418efb)" d="M 294.338778 136.584028 
C 294.808839 136.584028 295.25971 136.397271 295.592093 136.064889 
C 295.924475 135.732506 296.111232 135.281635 296.111232 134.811574 
C 296.111232 134.341514 295.924475 133.890643 295.592093 133.55826 
C 295.25971 133.225877 294.808839 133.039121 294.338778 133.039121 
C 293.868718 133.039121 293.417847 133.225877 293.085464 133.55826 
C 292.753081 133.890643 292.566325 134.341514 292.566325 134.811574 
C 292.566325 135.281635 292.753081 135.732506 293.085464 136.064889 
C 293.417847 136.397271 293.868718 136.584028 294.338778 136.584028 
z
" style="stroke:#000000;stroke-width:0.886227;"/>
    <path clip-path="url(#p224b418efb)" d="M 302.455142 142.223044 
C 302.925202 142.223044 303.376073 142.036287 303.708456 141.703904 
C 304.040839 141.371521 304.227596 140.92065 304.227596 140.45059 
C 304.227596 139.98053 304.040839 139.529659 303.708456 139.197276 
C 303.376073 138.864893 302.925202 138.678136 302.455142 138.678136 
C 301.985082 138.678136 301.534211 138.864893 301.201828 139.197276 
C 300.869445 139.529659 300.682688 139.98053 300.682688 140.45059 
C 300.682688 140.92065 300.869445 141.371521 301.201828 141.703904 
C 301.534211 142.036287 301.985082 142.223044 302.455142 142.223044 
z
" style="stroke:#000000;stroke-width:0.886227;"/>
    <path clip-path="url(#p224b418efb)" d="M 310.571506 149.098649 
C 311.041566 149.098649 311.492437 148.911892 311.82482 148.579509 
C 312.157203 148.247126 312.34396 147.796255 312.34396 147.326195 
C 312.34396 146.856135 312.157203 146.405264 311.82482 146.072881 
C 311.492437 145.740498 311.041566 145.553741 310.571506 145.553741 
C 310.101445 145.553741 309.650574 145.740498 309.318192 146.072881 
C 308.985809 146.405264 308.799052 146.856135 308.799052 147.326195 
C 308.799052 147.796255 308.985809 148.247126 309.318192 148.579509 
C 309.650574 148.911892 310.101445 149.098649 310.571506 149.098649 
z
" style="stroke:#000000;stroke-width:0.886227;"/>
    <path clip-path="url(#p224b418efb)" d="M 318.687869 146.274304 
C 319.15793 146.274304 319.608801 146.087547 319.941183 145.755165 
C 320.273566 145.422782 320.460323 144.971911 320.460323 144.50185 
C 320.460323 144.03179 320.273566 143.580919 319.941183 143.248536 
C 319.608801 142.916153 319.15793 142.729397 318.687869 142.729397 
C 318.217809 142.729397 317.766938 142.916153 317.434555 143.248536 
C 317.102172 143.580919 316.915415 144.03179 316.915415 144.50185 
C 316.915415 144.971911 317.102172 145.422782 317.434555 145.755165 
C 317.766938 146.087547 318.217809 146.274304 318.687869 146.274304 
z
" style="stroke:#000000;stroke-width:0.886227;"/>
    <path clip-path="url(#p224b418efb)" d="M 326.804233 143.524935 
C 327.274293 143.524935 327.725164 143.338178 328.057547 143.005795 
C 328.38993 142.673413 328.576687 142.222541 328.576687 141.752481 
C 328.576687 141.282421 328.38993 140.83155 328.057547 140.499167 
C 327.725164 140.166784 327.274293 139.980027 326.804233 139.980027 
C 326.334173 139.980027 325.883302 140.166784 325.550919 140.499167 
C 325.218536 140.83155 325.031779 141.282421 325.031779 141.752481 
C 325.031779 142.222541 325.218536 142.673413 325.550919 143.005795 
C 325.883302 143.338178 326.334173 143.524935 326.804233 143.524935 
z
" style="stroke:#000000;stroke-width:0.886227;"/>
    <path clip-path="url(#p224b418efb)" d="M 334.920597 143.155006 
C 335.390657 143.155006 335.841528 142.968249 336.173911 142.635866 
C 336.506294 142.303483 336.69305 141.852612 336.69305 141.382552 
C 336.69305 140.912492 336.506294 140.461621 336.173911 140.129238 
C 335.841528 139.796855 335.390657 139.610098 334.920597 139.610098 
C 334.450536 139.610098 333.999665 139.796855 333.667282 140.129238 
C 333.3349 140.461621 333.148143 140.912492 333.148143 141.382552 
C 333.148143 141.852612 333.3349 142.303483 333.667282 142.635866 
C 333.999665 142.968249 334.450536 143.155006 334.920597 143.155006 
z
" style="stroke:#000000;stroke-width:0.886227;"/>
    <path clip-path="url(#p224b418efb)" d="M 343.03696 142.189525 
C 343.50702 142.189525 343.957892 142.002768 344.290274 141.670386 
C 344.622657 141.338003 344.809414 140.887132 344.809414 140.417071 
C 344.809414 139.947011 344.622657 139.49614 344.290274 139.163757 
C 343.957892 138.831375 343.50702 138.644618 343.03696 138.644618 
C 342.5669 138.644618 342.116029 138.831375 341.783646 139.163757 
C 341.451263 139.49614 341.264506 139.947011 341.264506 140.417071 
C 341.264506 140.887132 341.451263 141.338003 341.783646 141.670386 
C 342.116029 142.002768 342.5669 142.189525 343.03696 142.189525 
z
" style="stroke:#000000;stroke-width:0.886227;"/>
    <path clip-path="url(#p224b418efb)" d="M 351.153324 142.289683 
C 351.623384 142.289683 352.074255 142.102926 352.406638 141.770543 
C 352.739021 141.438161 352.925778 140.987289 352.925778 140.517229 
C 352.925778 140.047169 352.739021 139.596298 352.406638 139.263915 
C 352.074255 138.931532 351.623384 138.744775 351.153324 138.744775 
C 350.683264 138.744775 350.232393 138.931532 349.90001 139.263915 
C 349.567627 139.596298 349.38087 140.047169 349.38087 140.517229 
C 349.38087 140.987289 349.567627 141.438161 349.90001 141.770543 
C 350.232393 142.102926 350.683264 142.289683 351.153324 142.289683 
z
" style="stroke:#000000;stroke-width:0.886227;"/>
    <path clip-path="url(#p224b418efb)" d="M 359.269688 141.321735 
C 359.739748 141.321735 360.190619 141.134978 360.523002 140.802595 
C 360.855384 140.470213 361.042141 140.019341 361.042141 139.549281 
C 361.042141 139.079221 360.855384 138.62835 360.523002 138.295967 
C 360.190619 137.963584 359.739748 137.776827 359.269688 137.776827 
C 358.799627 137.776827 358.348756 137.963584 358.016373 138.295967 
C 357.683991 138.62835 357.497234 139.079221 357.497234 139.549281 
C 357.497234 140.019341 357.683991 140.470213 358.016373 140.802595 
C 358.348756 141.134978 358.799627 141.321735 359.269688 141.321735 
z
" style="stroke:#000000;stroke-width:0.886227;"/>
    <path clip-path="url(#p224b418efb)" d="M 367.386051 138.501657 
C 367.856111 138.501657 368.306982 138.3149 368.639365 137.982517 
C 368.971748 137.650134 369.158505 137.199263 369.158505 136.729203 
C 369.158505 136.259143 368.971748 135.808272 368.639365 135.475889 
C 368.306982 135.143506 367.856111 134.956749 367.386051 134.956749 
C 366.915991 134.956749 366.46512 135.143506 366.132737 135.475889 
C 365.800354 135.808272 365.613597 136.259143 365.613597 136.729203 
C 365.613597 137.199263 365.800354 137.650134 366.132737 137.982517 
C 366.46512 138.3149 366.915991 138.501657 367.386051 138.501657 
z
" style="stroke:#000000;stroke-width:0.886227;"/>
    <path clip-path="url(#p224b418efb)" d="M 375.502415 139.767119 
C 375.972475 139.767119 376.423346 139.580362 376.755729 139.247979 
C 377.088112 138.915597 377.274869 138.464725 377.274869 137.994665 
C 377.274869 137.524605 377.088112 137.073734 376.755729 136.741351 
C 376.423346 136.408968 375.972475 136.222211 375.502415 136.222211 
C 375.032355 136.222211 374.581483 136.408968 374.249101 136.741351 
C 373.916718 137.073734 373.729961 137.524605 373.729961 137.994665 
C 373.729961 138.464725 373.916718 138.915597 374.249101 139.247979 
C 374.581483 139.580362 375.032355 139.767119 375.502415 139.767119 
z
" style="stroke:#000000;stroke-width:0.886227;"/>
    <path clip-path="url(#p224b418efb)" d="M 383.618778 136.822839 
C 384.088839 136.822839 384.53971 136.636082 384.872093 136.303699 
C 385.204475 135.971316 385.391232 135.520445 385.391232 135.050385 
C 385.391232 134.580325 385.204475 134.129454 384.872093 133.797071 
C 384.53971 133.464688 384.088839 133.277931 383.618778 133.277931 
C 383.148718 133.277931 382.697847 133.464688 382.365464 133.797071 
C 382.033081 134.129454 381.846325 134.580325 381.846325 135.050385 
C 381.846325 135.520445 382.033081 135.971316 382.365464 136.303699 
C 382.697847 136.636082 383.148718 136.822839 383.618778 136.822839 
z
" style="stroke:#000000;stroke-width:0.886227;"/>
    <path clip-path="url(#p224b418efb)" d="M 391.735142 127.972191 
C 392.205202 127.972191 392.656073 127.785434 392.988456 127.453051 
C 393.320839 127.120668 393.507596 126.669797 393.507596 126.199737 
C 393.507596 125.729677 393.320839 125.278805 392.988456 124.946423 
C 392.656073 124.61404 392.205202 124.427283 391.735142 124.427283 
C 391.265082 124.427283 390.814211 124.61404 390.481828 124.946423 
C 390.149445 125.278805 389.962688 125.729677 389.962688 126.199737 
C 389.962688 126.669797 390.149445 127.120668 390.481828 127.453051 
C 390.814211 127.785434 391.265082 127.972191 391.735142 127.972191 
z
" style="stroke:#000000;stroke-width:0.886227;"/>
    <path clip-path="url(#p224b418efb)" d="M 399.851506 123.662831 
C 400.321566 123.662831 400.772437 123.476074 401.10482 123.143691 
C 401.437203 122.811308 401.62396 122.360437 401.62396 121.890377 
C 401.62396 121.420317 401.437203 120.969446 401.10482 120.637063 
C 400.772437 120.30468 400.321566 120.117923 399.851506 120.117923 
C 399.381445 120.117923 398.930574 120.30468 398.598192 120.637063 
C 398.265809 120.969446 398.079052 121.420317 398.079052 121.890377 
C 398.079052 122.360437 398.265809 122.811308 398.598192 123.143691 
C 398.930574 123.476074 399.381445 123.662831 399.851506 123.662831 
z
" style="stroke:#000000;stroke-width:0.886227;"/>
    <path clip-path="url(#p224b418efb)" d="M 407.967869 118.784724 
C 408.43793 118.784724 408.888801 118.597967 409.221183 118.265585 
C 409.553566 117.933202 409.740323 117.482331 409.740323 117.01227 
C 409.740323 116.54221 409.553566 116.091339 409.221183 115.758956 
C 408.888801 115.426574 408.43793 115.239817 407.967869 115.239817 
C 407.497809 115.239817 407.046938 115.426574 406.714555 115.758956 
C 406.382172 116.091339 406.195415 116.54221 406.195415 117.01227 
C 406.195415 117.482331 406.382172 117.933202 406.714555 118.265585 
C 407.046938 118.597967 407.497809 118.784724 407.967869 118.784724 
z
" style="stroke:#000000;stroke-width:0.886227;"/>
    <path clip-path="url(#p224b418efb)" d="M 416.084233 112.589962 
C 416.554293 112.589962 417.005164 112.403205 417.337547 112.070822 
C 417.66993 111.73844 417.856687 111.287569 417.856687 110.817508 
C 417.856687 110.347448 417.66993 109.896577 417.337547 109.564194 
C 417.005164 109.231811 416.554293 109.045055 416.084233 109.045055 
C 415.614173 109.045055 415.163302 109.231811 414.830919 109.564194 
C 414.498536 109.896577 414.311779 110.347448 414.311779 110.817508 
C 414.311779 111.287569 414.498536 111.73844 414.830919 112.070822 
C 415.163302 112.403205 415.614173 112.589962 416.084233 112.589962 
z
" style="stroke:#000000;stroke-width:0.886227;"/>
    <path clip-path="url(#p224b418efb)" d="M 424.200597 106.581741 
C 424.670657 106.581741 425.121528 106.394984 425.453911 106.062601 
C 425.786294 105.730218 425.97305 105.279347 425.97305 104.809287 
C 425.97305 104.339227 425.786294 103.888356 425.453911 103.555973 
C 425.121528 103.22359 424.670657 103.036833 424.200597 103.036833 
C 423.730536 103.036833 423.279665 103.22359 422.947282 103.555973 
C 422.6149 103.888356 422.428143 104.339227 422.428143 104.809287 
C 422.428143 105.279347 422.6149 105.730218 422.947282 106.062601 
C 423.279665 106.394984 423.730536 106.581741 424.200597 106.581741 
z
" style="stroke:#000000;stroke-width:0.886227;"/>
    <path clip-path="url(#p224b418efb)" d="M 432.31696 103.338859 
C 432.78702 103.338859 433.237892 103.152102 433.570274 102.819719 
C 433.902657 102.487337 434.089414 102.036466 434.089414 101.566405 
C 434.089414 101.096345 433.902657 100.645474 433.570274 100.313091 
C 433.237892 99.980708 432.78702 99.793951 432.31696 99.793951 
C 431.8469 99.793951 431.396029 99.980708 431.063646 100.313091 
C 430.731263 100.645474 430.544506 101.096345 430.544506 101.566405 
C 430.544506 102.036466 430.731263 102.487337 431.063646 102.819719 
C 431.396029 103.152102 431.8469 103.338859 432.31696 103.338859 
z
" style="stroke:#000000;stroke-width:0.886227;"/>
    <path clip-path="url(#p224b418efb)" d="M 440.433324 96.952571 
C 440.903384 96.952571 441.354255 96.765814 441.686638 96.433431 
C 442.019021 96.101048 442.205778 95.650177 442.205778 95.180117 
C 442.205778 94.710057 442.019021 94.259186 441.686638 93.926803 
C 441.354255 93.59442 440.903384 93.407663 440.433324 93.407663 
C 439.963264 93.407663 439.512393 93.59442 439.18001 93.926803 
C 438.847627 94.259186 438.66087 94.710057 438.66087 95.180117 
C 438.66087 95.650177 438.847627 96.101048 439.18001 96.433431 
C 439.512393 96.765814 439.963264 96.952571 440.433324 96.952571 
z
" style="stroke:#000000;stroke-width:0.886227;"/>
    <path clip-path="url(#p224b418efb)" d="M 448.549687 101.583473 
C 449.019748 101.583473 449.470619 101.396716 449.803002 101.064334 
C 450.135384 100.731951 450.322141 100.28108 450.322141 99.81102 
C 450.322141 99.340959 450.135384 98.890088 449.803002 98.557705 
C 449.470619 98.225323 449.019748 98.038566 448.549687 98.038566 
C 448.079627 98.038566 447.628756 98.225323 447.296373 98.557705 
C 446.963991 98.890088 446.777234 99.340959 446.777234 99.81102 
C 446.777234 100.28108 446.963991 100.731951 447.296373 101.064334 
C 447.628756 101.396716 448.079627 101.583473 448.549687 101.583473 
z
" style="stroke:#000000;stroke-width:0.886227;"/>
    <path clip-path="url(#p224b418efb)" d="M 456.666051 103.844541 
C 457.136111 103.844541 457.586982 103.657784 457.919365 103.325401 
C 458.251748 102.993018 458.438505 102.542147 458.438505 102.072087 
C 458.438505 101.602027 458.251748 101.151155 457.919365 100.818773 
C 457.586982 100.48639 457.136111 100.299633 456.666051 100.299633 
C 456.195991 100.299633 455.74512 100.48639 455.412737 100.818773 
C 455.080354 101.151155 454.893597 101.602027 454.893597 102.072087 
C 454.893597 102.542147 455.080354 102.993018 455.412737 103.325401 
C 455.74512 103.657784 456.195991 103.844541 456.666051 103.844541 
z
" style="stroke:#000000;stroke-width:0.886227;"/>
    <path clip-path="url(#p224b418efb)" d="M 464.782415 104.068306 
C 465.252475 104.068306 465.703346 103.88155 466.035729 103.549167 
C 466.368112 103.216784 466.554869 102.765913 466.554869 102.295853 
C 466.554869 101.825792 466.368112 101.374921 466.035729 101.042538 
C 465.703346 100.710156 465.252475 100.523399 464.782415 100.523399 
C 464.312355 100.523399 463.861483 100.710156 463.529101 101.042538 
C 463.196718 101.374921 463.009961 101.825792 463.009961 102.295853 
C 463.009961 102.765913 463.196718 103.216784 463.529101 103.549167 
C 463.861483 103.88155 464.312355 104.068306 464.782415 104.068306 
z
" style="stroke:#000000;stroke-width:0.886227;"/>
   </g>
   <g id="line2d_41">
    <path clip-path="url(#p224b418efb)" d="M 253.75696 43.417786 
L 261.873324 131.322834 
L 269.989687 131.202253 
L 278.106051 141.261606 
L 286.222415 145.892589 
L 294.338778 134.811574 
L 302.455142 140.45059 
L 310.571506 147.326195 
L 318.687869 144.50185 
L 326.804233 141.752481 
L 334.920597 141.382552 
L 343.03696 140.417071 
L 351.153324 140.517229 
L 359.269688 139.549281 
L 367.386051 136.729203 
L 375.502415 137.994665 
L 383.618778 135.050385 
L 391.735142 126.199737 
L 399.851506 121.890377 
L 407.967869 117.01227 
L 416.084233 110.817508 
L 424.200597 104.809287 
L 432.31696 101.566405 
L 440.433324 95.180117 
L 448.549687 99.81102 
L 456.666051 102.072087 
L 464.782415 102.295853 
" style="fill:none;stroke:#000000;stroke-width:0.886227;"/>
   </g>
  </g>
 </g>
 <defs>
  <clipPath id="p224b418efb">
   <rect height="221.76" width="446.4" x="46.789687" y="7.2"/>
  </clipPath>
 </defs>
</svg>
