<?xml version="1.0" encoding="utf-8" standalone="no"?>
<!DOCTYPE svg PUBLIC "-//W3C//DTD SVG 1.1//EN"
  "http://www.w3.org/Graphics/SVG/1.1/DTD/svg11.dtd">
<!-- Created with matplotlib (https://matplotlib.org/) -->
<svg height="283.578058pt" version="1.1" viewBox="0 0 498.167 283.578058" width="498.167pt" xmlns="http://www.w3.org/2000/svg" xmlns:xlink="http://www.w3.org/1999/xlink">
 <defs>
  <style type="text/css">
*{stroke-linecap:butt;stroke-linejoin:round;}
  </style>
 </defs>
 <g id="figure_1">
  <g id="patch_1">
   <path d="M 0 283.578058 
L 498.167 283.578058 
L 498.167 0 
L 0 0 
z
" style="fill:#ffffff;stroke:#ffffff;stroke-linejoin:miter;"/>
  </g>
  <g id="axes_1">
   <g id="patch_2">
    <path d="M 44.567 247.865371 
L 490.967 247.865371 
L 490.967 26.105371 
L 44.567 26.105371 
z
" style="fill:#ffffff;stroke:#7f7f7f;stroke-linejoin:miter;"/>
   </g>
   <g id="matplotlib.axis_1">
    <g id="xtick_1">
     <g id="line2d_1">
      <path clip-path="url(#p9d7de51cf1)" d="M 64.857909 247.865371 
L 64.857909 26.105371 
" style="fill:none;stroke:#e5e5e5;stroke-width:0.8;"/>
     </g>
     <g id="line2d_2">
      <path d="M 64.857909 247.865371 
" style="fill:none;stroke:#000000;stroke-width:1.5;"/>
      <defs>
       <path d="M 0 0 
L 0 2.75 
" id="m78c2573ee8" style="stroke:#000000;"/>
      </defs>
      <g>
       <use style="stroke:#000000;" x="64.857909" xlink:href="#m78c2573ee8" y="247.865371"/>
      </g>
     </g>
     <g id="text_1">
      <!-- 1 -->
      <defs>
       <path d="M 12.40625 8.296875 
L 28.515625 8.296875 
L 28.515625 63.921875 
L 10.984375 60.40625 
L 10.984375 69.390625 
L 28.421875 72.90625 
L 38.28125 72.90625 
L 38.28125 8.296875 
L 54.390625 8.296875 
L 54.390625 0 
L 12.40625 0 
z
" id="DejaVuSans-49"/>
      </defs>
      <g style="fill:#4d4d4d;" transform="translate(62.058409 259.501996)scale(0.088 -0.088)">
       <use xlink:href="#DejaVuSans-49"/>
      </g>
     </g>
    </g>
    <g id="xtick_2">
     <g id="line2d_3">
      <path clip-path="url(#p9d7de51cf1)" d="M 200.130636 247.865371 
L 200.130636 26.105371 
" style="fill:none;stroke:#e5e5e5;stroke-width:0.8;"/>
     </g>
     <g id="line2d_4">
      <path d="M 200.130636 247.865371 
" style="fill:none;stroke:#000000;stroke-width:1.5;"/>
      <g>
       <use style="stroke:#000000;" x="200.130636" xlink:href="#m78c2573ee8" y="247.865371"/>
      </g>
     </g>
     <g id="text_2">
      <!-- 2 -->
      <defs>
       <path d="M 19.1875 8.296875 
L 53.609375 8.296875 
L 53.609375 0 
L 7.328125 0 
L 7.328125 8.296875 
Q 12.9375 14.109375 22.625 23.890625 
Q 32.328125 33.6875 34.8125 36.53125 
Q 39.546875 41.84375 41.421875 45.53125 
Q 43.3125 49.21875 43.3125 52.78125 
Q 43.3125 58.59375 39.234375 62.25 
Q 35.15625 65.921875 28.609375 65.921875 
Q 23.96875 65.921875 18.8125 64.3125 
Q 13.671875 62.703125 7.8125 59.421875 
L 7.8125 69.390625 
Q 13.765625 71.78125 18.9375 73 
Q 24.125 74.21875 28.421875 74.21875 
Q 39.75 74.21875 46.484375 68.546875 
Q 53.21875 62.890625 53.21875 53.421875 
Q 53.21875 48.921875 51.53125 44.890625 
Q 49.859375 40.875 45.40625 35.40625 
Q 44.1875 33.984375 37.640625 27.21875 
Q 31.109375 20.453125 19.1875 8.296875 
z
" id="DejaVuSans-50"/>
      </defs>
      <g style="fill:#4d4d4d;" transform="translate(197.331136 259.501996)scale(0.088 -0.088)">
       <use xlink:href="#DejaVuSans-50"/>
      </g>
     </g>
    </g>
    <g id="xtick_3">
     <g id="line2d_5">
      <path clip-path="url(#p9d7de51cf1)" d="M 335.403364 247.865371 
L 335.403364 26.105371 
" style="fill:none;stroke:#e5e5e5;stroke-width:0.8;"/>
     </g>
     <g id="line2d_6">
      <path d="M 335.403364 247.865371 
" style="fill:none;stroke:#000000;stroke-width:1.5;"/>
      <g>
       <use style="stroke:#000000;" x="335.403364" xlink:href="#m78c2573ee8" y="247.865371"/>
      </g>
     </g>
     <g id="text_3">
      <!-- 3 -->
      <defs>
       <path d="M 40.578125 39.3125 
Q 47.65625 37.796875 51.625 33 
Q 55.609375 28.21875 55.609375 21.1875 
Q 55.609375 10.40625 48.1875 4.484375 
Q 40.765625 -1.421875 27.09375 -1.421875 
Q 22.515625 -1.421875 17.65625 -0.515625 
Q 12.796875 0.390625 7.625 2.203125 
L 7.625 11.71875 
Q 11.71875 9.328125 16.59375 8.109375 
Q 21.484375 6.890625 26.8125 6.890625 
Q 36.078125 6.890625 40.9375 10.546875 
Q 45.796875 14.203125 45.796875 21.1875 
Q 45.796875 27.640625 41.28125 31.265625 
Q 36.765625 34.90625 28.71875 34.90625 
L 20.21875 34.90625 
L 20.21875 43.015625 
L 29.109375 43.015625 
Q 36.375 43.015625 40.234375 45.921875 
Q 44.09375 48.828125 44.09375 54.296875 
Q 44.09375 59.90625 40.109375 62.90625 
Q 36.140625 65.921875 28.71875 65.921875 
Q 24.65625 65.921875 20.015625 65.03125 
Q 15.375 64.15625 9.8125 62.3125 
L 9.8125 71.09375 
Q 15.4375 72.65625 20.34375 73.4375 
Q 25.25 74.21875 29.59375 74.21875 
Q 40.828125 74.21875 47.359375 69.109375 
Q 53.90625 64.015625 53.90625 55.328125 
Q 53.90625 49.265625 50.4375 45.09375 
Q 46.96875 40.921875 40.578125 39.3125 
z
" id="DejaVuSans-51"/>
      </defs>
      <g style="fill:#4d4d4d;" transform="translate(332.603864 259.501996)scale(0.088 -0.088)">
       <use xlink:href="#DejaVuSans-51"/>
      </g>
     </g>
    </g>
    <g id="xtick_4">
     <g id="line2d_7">
      <path clip-path="url(#p9d7de51cf1)" d="M 470.676091 247.865371 
L 470.676091 26.105371 
" style="fill:none;stroke:#e5e5e5;stroke-width:0.8;"/>
     </g>
     <g id="line2d_8">
      <path d="M 470.676091 247.865371 
" style="fill:none;stroke:#000000;stroke-width:1.5;"/>
      <g>
       <use style="stroke:#000000;" x="470.676091" xlink:href="#m78c2573ee8" y="247.865371"/>
      </g>
     </g>
     <g id="text_4">
      <!-- 4 -->
      <defs>
       <path d="M 37.796875 64.3125 
L 12.890625 25.390625 
L 37.796875 25.390625 
z
M 35.203125 72.90625 
L 47.609375 72.90625 
L 47.609375 25.390625 
L 58.015625 25.390625 
L 58.015625 17.1875 
L 47.609375 17.1875 
L 47.609375 0 
L 37.796875 0 
L 37.796875 17.1875 
L 4.890625 17.1875 
L 4.890625 26.703125 
z
" id="DejaVuSans-52"/>
      </defs>
      <g style="fill:#4d4d4d;" transform="translate(467.876591 259.501996)scale(0.088 -0.088)">
       <use xlink:href="#DejaVuSans-52"/>
      </g>
     </g>
    </g>
    <g id="xtick_5">
     <g id="line2d_9">
      <path clip-path="url(#p9d7de51cf1)" d="M 132.494273 247.865371 
L 132.494273 26.105371 
" style="fill:none;stroke:#fafafa;"/>
     </g>
     <g id="line2d_10">
      <path d="M 132.494273 247.865371 
" style="fill:none;stroke:#000000;stroke-width:1.5;"/>
      <defs>
       <path d="M 0 0 
L 0 1.375 
" id="m06d0675b1c" style="stroke:#000000;"/>
      </defs>
      <g>
       <use style="stroke:#000000;" x="132.494273" xlink:href="#m06d0675b1c" y="247.865371"/>
      </g>
     </g>
    </g>
    <g id="xtick_6">
     <g id="line2d_11">
      <path clip-path="url(#p9d7de51cf1)" d="M 267.767 247.865371 
L 267.767 26.105371 
" style="fill:none;stroke:#fafafa;"/>
     </g>
     <g id="line2d_12">
      <path d="M 267.767 247.865371 
" style="fill:none;stroke:#000000;stroke-width:1.5;"/>
      <g>
       <use style="stroke:#000000;" x="267.767" xlink:href="#m06d0675b1c" y="247.865371"/>
      </g>
     </g>
    </g>
    <g id="xtick_7">
     <g id="line2d_13">
      <path clip-path="url(#p9d7de51cf1)" d="M 403.039727 247.865371 
L 403.039727 26.105371 
" style="fill:none;stroke:#fafafa;"/>
     </g>
     <g id="line2d_14">
      <path d="M 403.039727 247.865371 
" style="fill:none;stroke:#000000;stroke-width:1.5;"/>
      <g>
       <use style="stroke:#000000;" x="403.039727" xlink:href="#m06d0675b1c" y="247.865371"/>
      </g>
     </g>
    </g>
    <g id="text_5">
     <!-- Resolution -->
     <defs>
      <path d="M 44.390625 34.1875 
Q 47.5625 33.109375 50.5625 29.59375 
Q 53.5625 26.078125 56.59375 19.921875 
L 66.609375 0 
L 56 0 
L 46.6875 18.703125 
Q 43.0625 26.03125 39.671875 28.421875 
Q 36.28125 30.8125 30.421875 30.8125 
L 19.671875 30.8125 
L 19.671875 0 
L 9.8125 0 
L 9.8125 72.90625 
L 32.078125 72.90625 
Q 44.578125 72.90625 50.734375 67.671875 
Q 56.890625 62.453125 56.890625 51.90625 
Q 56.890625 45.015625 53.6875 40.46875 
Q 50.484375 35.9375 44.390625 34.1875 
z
M 19.671875 64.796875 
L 19.671875 38.921875 
L 32.078125 38.921875 
Q 39.203125 38.921875 42.84375 42.21875 
Q 46.484375 45.515625 46.484375 51.90625 
Q 46.484375 58.296875 42.84375 61.546875 
Q 39.203125 64.796875 32.078125 64.796875 
z
" id="DejaVuSans-82"/>
      <path d="M 56.203125 29.59375 
L 56.203125 25.203125 
L 14.890625 25.203125 
Q 15.484375 15.921875 20.484375 11.0625 
Q 25.484375 6.203125 34.421875 6.203125 
Q 39.59375 6.203125 44.453125 7.46875 
Q 49.3125 8.734375 54.109375 11.28125 
L 54.109375 2.78125 
Q 49.265625 0.734375 44.1875 -0.34375 
Q 39.109375 -1.421875 33.890625 -1.421875 
Q 20.796875 -1.421875 13.15625 6.1875 
Q 5.515625 13.8125 5.515625 26.8125 
Q 5.515625 40.234375 12.765625 48.109375 
Q 20.015625 56 32.328125 56 
Q 43.359375 56 49.78125 48.890625 
Q 56.203125 41.796875 56.203125 29.59375 
z
M 47.21875 32.234375 
Q 47.125 39.59375 43.09375 43.984375 
Q 39.0625 48.390625 32.421875 48.390625 
Q 24.90625 48.390625 20.390625 44.140625 
Q 15.875 39.890625 15.1875 32.171875 
z
" id="DejaVuSans-101"/>
      <path d="M 44.28125 53.078125 
L 44.28125 44.578125 
Q 40.484375 46.53125 36.375 47.5 
Q 32.28125 48.484375 27.875 48.484375 
Q 21.1875 48.484375 17.84375 46.4375 
Q 14.5 44.390625 14.5 40.28125 
Q 14.5 37.15625 16.890625 35.375 
Q 19.28125 33.59375 26.515625 31.984375 
L 29.59375 31.296875 
Q 39.15625 29.25 43.1875 25.515625 
Q 47.21875 21.78125 47.21875 15.09375 
Q 47.21875 7.46875 41.1875 3.015625 
Q 35.15625 -1.421875 24.609375 -1.421875 
Q 20.21875 -1.421875 15.453125 -0.5625 
Q 10.6875 0.296875 5.421875 2 
L 5.421875 11.28125 
Q 10.40625 8.6875 15.234375 7.390625 
Q 20.0625 6.109375 24.8125 6.109375 
Q 31.15625 6.109375 34.5625 8.28125 
Q 37.984375 10.453125 37.984375 14.40625 
Q 37.984375 18.0625 35.515625 20.015625 
Q 33.0625 21.96875 24.703125 23.78125 
L 21.578125 24.515625 
Q 13.234375 26.265625 9.515625 29.90625 
Q 5.8125 33.546875 5.8125 39.890625 
Q 5.8125 47.609375 11.28125 51.796875 
Q 16.75 56 26.8125 56 
Q 31.78125 56 36.171875 55.265625 
Q 40.578125 54.546875 44.28125 53.078125 
z
" id="DejaVuSans-115"/>
      <path d="M 30.609375 48.390625 
Q 23.390625 48.390625 19.1875 42.75 
Q 14.984375 37.109375 14.984375 27.296875 
Q 14.984375 17.484375 19.15625 11.84375 
Q 23.34375 6.203125 30.609375 6.203125 
Q 37.796875 6.203125 41.984375 11.859375 
Q 46.1875 17.53125 46.1875 27.296875 
Q 46.1875 37.015625 41.984375 42.703125 
Q 37.796875 48.390625 30.609375 48.390625 
z
M 30.609375 56 
Q 42.328125 56 49.015625 48.375 
Q 55.71875 40.765625 55.71875 27.296875 
Q 55.71875 13.875 49.015625 6.21875 
Q 42.328125 -1.421875 30.609375 -1.421875 
Q 18.84375 -1.421875 12.171875 6.21875 
Q 5.515625 13.875 5.515625 27.296875 
Q 5.515625 40.765625 12.171875 48.375 
Q 18.84375 56 30.609375 56 
z
" id="DejaVuSans-111"/>
      <path d="M 9.421875 75.984375 
L 18.40625 75.984375 
L 18.40625 0 
L 9.421875 0 
z
" id="DejaVuSans-108"/>
      <path d="M 8.5 21.578125 
L 8.5 54.6875 
L 17.484375 54.6875 
L 17.484375 21.921875 
Q 17.484375 14.15625 20.5 10.265625 
Q 23.53125 6.390625 29.59375 6.390625 
Q 36.859375 6.390625 41.078125 11.03125 
Q 45.3125 15.671875 45.3125 23.6875 
L 45.3125 54.6875 
L 54.296875 54.6875 
L 54.296875 0 
L 45.3125 0 
L 45.3125 8.40625 
Q 42.046875 3.421875 37.71875 1 
Q 33.40625 -1.421875 27.6875 -1.421875 
Q 18.265625 -1.421875 13.375 4.4375 
Q 8.5 10.296875 8.5 21.578125 
z
M 31.109375 56 
z
" id="DejaVuSans-117"/>
      <path d="M 18.3125 70.21875 
L 18.3125 54.6875 
L 36.8125 54.6875 
L 36.8125 47.703125 
L 18.3125 47.703125 
L 18.3125 18.015625 
Q 18.3125 11.328125 20.140625 9.421875 
Q 21.96875 7.515625 27.59375 7.515625 
L 36.8125 7.515625 
L 36.8125 0 
L 27.59375 0 
Q 17.1875 0 13.234375 3.875 
Q 9.28125 7.765625 9.28125 18.015625 
L 9.28125 47.703125 
L 2.6875 47.703125 
L 2.6875 54.6875 
L 9.28125 54.6875 
L 9.28125 70.21875 
z
" id="DejaVuSans-116"/>
      <path d="M 9.421875 54.6875 
L 18.40625 54.6875 
L 18.40625 0 
L 9.421875 0 
z
M 9.421875 75.984375 
L 18.40625 75.984375 
L 18.40625 64.59375 
L 9.421875 64.59375 
z
" id="DejaVuSans-105"/>
      <path d="M 54.890625 33.015625 
L 54.890625 0 
L 45.90625 0 
L 45.90625 32.71875 
Q 45.90625 40.484375 42.875 44.328125 
Q 39.84375 48.1875 33.796875 48.1875 
Q 26.515625 48.1875 22.3125 43.546875 
Q 18.109375 38.921875 18.109375 30.90625 
L 18.109375 0 
L 9.078125 0 
L 9.078125 54.6875 
L 18.109375 54.6875 
L 18.109375 46.1875 
Q 21.34375 51.125 25.703125 53.5625 
Q 30.078125 56 35.796875 56 
Q 45.21875 56 50.046875 50.171875 
Q 54.890625 44.34375 54.890625 33.015625 
z
" id="DejaVuSans-110"/>
     </defs>
     <g transform="translate(231.585438 274.090402)scale(0.11 -0.11)">
      <use xlink:href="#DejaVuSans-82"/>
      <use x="69.419922" xlink:href="#DejaVuSans-101"/>
      <use x="130.943359" xlink:href="#DejaVuSans-115"/>
      <use x="183.042969" xlink:href="#DejaVuSans-111"/>
      <use x="244.224609" xlink:href="#DejaVuSans-108"/>
      <use x="272.007812" xlink:href="#DejaVuSans-117"/>
      <use x="335.386719" xlink:href="#DejaVuSans-116"/>
      <use x="374.595703" xlink:href="#DejaVuSans-105"/>
      <use x="402.378906" xlink:href="#DejaVuSans-111"/>
      <use x="463.560547" xlink:href="#DejaVuSans-110"/>
     </g>
    </g>
   </g>
   <g id="matplotlib.axis_2">
    <g id="ytick_1">
     <g id="line2d_15">
      <path clip-path="url(#p9d7de51cf1)" d="M 44.567 237.785371 
L 490.967 237.785371 
" style="fill:none;stroke:#e5e5e5;stroke-width:0.8;"/>
     </g>
     <g id="line2d_16">
      <path d="M 44.567 237.785371 
" style="fill:none;stroke:#000000;stroke-width:1.5;"/>
      <defs>
       <path d="M 0 0 
L -2.75 0 
" id="md3b833b6a9" style="stroke:#000000;"/>
      </defs>
      <g>
       <use style="stroke:#000000;" x="44.567" xlink:href="#md3b833b6a9" y="237.785371"/>
      </g>
     </g>
     <g id="text_6">
      <!-- 0 -->
      <defs>
       <path d="M 31.78125 66.40625 
Q 24.171875 66.40625 20.328125 58.90625 
Q 16.5 51.421875 16.5 36.375 
Q 16.5 21.390625 20.328125 13.890625 
Q 24.171875 6.390625 31.78125 6.390625 
Q 39.453125 6.390625 43.28125 13.890625 
Q 47.125 21.390625 47.125 36.375 
Q 47.125 51.421875 43.28125 58.90625 
Q 39.453125 66.40625 31.78125 66.40625 
z
M 31.78125 74.21875 
Q 44.046875 74.21875 50.515625 64.515625 
Q 56.984375 54.828125 56.984375 36.375 
Q 56.984375 17.96875 50.515625 8.265625 
Q 44.046875 -1.421875 31.78125 -1.421875 
Q 19.53125 -1.421875 13.0625 8.265625 
Q 6.59375 17.96875 6.59375 36.375 
Q 6.59375 54.828125 13.0625 64.515625 
Q 19.53125 74.21875 31.78125 74.21875 
z
" id="DejaVuSans-48"/>
      </defs>
      <g style="fill:#4d4d4d;" transform="translate(34.018 240.213621)scale(0.088 -0.088)">
       <use xlink:href="#DejaVuSans-48"/>
      </g>
     </g>
    </g>
    <g id="ytick_2">
     <g id="line2d_17">
      <path clip-path="url(#p9d7de51cf1)" d="M 44.567 187.385371 
L 490.967 187.385371 
" style="fill:none;stroke:#e5e5e5;stroke-width:0.8;"/>
     </g>
     <g id="line2d_18">
      <path d="M 44.567 187.385371 
" style="fill:none;stroke:#000000;stroke-width:1.5;"/>
      <g>
       <use style="stroke:#000000;" x="44.567" xlink:href="#md3b833b6a9" y="187.385371"/>
      </g>
     </g>
     <g id="text_7">
      <!-- 25 -->
      <defs>
       <path d="M 10.796875 72.90625 
L 49.515625 72.90625 
L 49.515625 64.59375 
L 19.828125 64.59375 
L 19.828125 46.734375 
Q 21.96875 47.46875 24.109375 47.828125 
Q 26.265625 48.1875 28.421875 48.1875 
Q 40.625 48.1875 47.75 41.5 
Q 54.890625 34.8125 54.890625 23.390625 
Q 54.890625 11.625 47.5625 5.09375 
Q 40.234375 -1.421875 26.90625 -1.421875 
Q 22.3125 -1.421875 17.546875 -0.640625 
Q 12.796875 0.140625 7.71875 1.703125 
L 7.71875 11.625 
Q 12.109375 9.234375 16.796875 8.0625 
Q 21.484375 6.890625 26.703125 6.890625 
Q 35.15625 6.890625 40.078125 11.328125 
Q 45.015625 15.765625 45.015625 23.390625 
Q 45.015625 31 40.078125 35.4375 
Q 35.15625 39.890625 26.703125 39.890625 
Q 22.75 39.890625 18.8125 39.015625 
Q 14.890625 38.140625 10.796875 36.28125 
z
" id="DejaVuSans-53"/>
      </defs>
      <g style="fill:#4d4d4d;" transform="translate(28.419 189.813621)scale(0.088 -0.088)">
       <use xlink:href="#DejaVuSans-50"/>
       <use x="63.623047" xlink:href="#DejaVuSans-53"/>
      </g>
     </g>
    </g>
    <g id="ytick_3">
     <g id="line2d_19">
      <path clip-path="url(#p9d7de51cf1)" d="M 44.567 136.985371 
L 490.967 136.985371 
" style="fill:none;stroke:#e5e5e5;stroke-width:0.8;"/>
     </g>
     <g id="line2d_20">
      <path d="M 44.567 136.985371 
" style="fill:none;stroke:#000000;stroke-width:1.5;"/>
      <g>
       <use style="stroke:#000000;" x="44.567" xlink:href="#md3b833b6a9" y="136.985371"/>
      </g>
     </g>
     <g id="text_8">
      <!-- 50 -->
      <g style="fill:#4d4d4d;" transform="translate(28.419 139.413621)scale(0.088 -0.088)">
       <use xlink:href="#DejaVuSans-53"/>
       <use x="63.623047" xlink:href="#DejaVuSans-48"/>
      </g>
     </g>
    </g>
    <g id="ytick_4">
     <g id="line2d_21">
      <path clip-path="url(#p9d7de51cf1)" d="M 44.567 86.585371 
L 490.967 86.585371 
" style="fill:none;stroke:#e5e5e5;stroke-width:0.8;"/>
     </g>
     <g id="line2d_22">
      <path d="M 44.567 86.585371 
" style="fill:none;stroke:#000000;stroke-width:1.5;"/>
      <g>
       <use style="stroke:#000000;" x="44.567" xlink:href="#md3b833b6a9" y="86.585371"/>
      </g>
     </g>
     <g id="text_9">
      <!-- 75 -->
      <defs>
       <path d="M 8.203125 72.90625 
L 55.078125 72.90625 
L 55.078125 68.703125 
L 28.609375 0 
L 18.3125 0 
L 43.21875 64.59375 
L 8.203125 64.59375 
z
" id="DejaVuSans-55"/>
      </defs>
      <g style="fill:#4d4d4d;" transform="translate(28.419 89.013621)scale(0.088 -0.088)">
       <use xlink:href="#DejaVuSans-55"/>
       <use x="63.623047" xlink:href="#DejaVuSans-53"/>
      </g>
     </g>
    </g>
    <g id="ytick_5">
     <g id="line2d_23">
      <path clip-path="url(#p9d7de51cf1)" d="M 44.567 36.185371 
L 490.967 36.185371 
" style="fill:none;stroke:#e5e5e5;stroke-width:0.8;"/>
     </g>
     <g id="line2d_24">
      <path d="M 44.567 36.185371 
" style="fill:none;stroke:#000000;stroke-width:1.5;"/>
      <g>
       <use style="stroke:#000000;" x="44.567" xlink:href="#md3b833b6a9" y="36.185371"/>
      </g>
     </g>
     <g id="text_10">
      <!-- 100 -->
      <g style="fill:#4d4d4d;" transform="translate(22.82 38.613621)scale(0.088 -0.088)">
       <use xlink:href="#DejaVuSans-49"/>
       <use x="63.623047" xlink:href="#DejaVuSans-48"/>
       <use x="127.246094" xlink:href="#DejaVuSans-48"/>
      </g>
     </g>
    </g>
    <g id="ytick_6">
     <g id="line2d_25">
      <path clip-path="url(#p9d7de51cf1)" d="M 44.567 212.585371 
L 490.967 212.585371 
" style="fill:none;stroke:#fafafa;"/>
     </g>
     <g id="line2d_26">
      <path d="M 44.567 212.585371 
" style="fill:none;stroke:#000000;stroke-width:1.5;"/>
      <defs>
       <path d="M 0 0 
L -1.375 0 
" id="m10e7461714" style="stroke:#000000;"/>
      </defs>
      <g>
       <use style="stroke:#000000;" x="44.567" xlink:href="#m10e7461714" y="212.585371"/>
      </g>
     </g>
    </g>
    <g id="ytick_7">
     <g id="line2d_27">
      <path clip-path="url(#p9d7de51cf1)" d="M 44.567 162.185371 
L 490.967 162.185371 
" style="fill:none;stroke:#fafafa;"/>
     </g>
     <g id="line2d_28">
      <path d="M 44.567 162.185371 
" style="fill:none;stroke:#000000;stroke-width:1.5;"/>
      <g>
       <use style="stroke:#000000;" x="44.567" xlink:href="#m10e7461714" y="162.185371"/>
      </g>
     </g>
    </g>
    <g id="ytick_8">
     <g id="line2d_29">
      <path clip-path="url(#p9d7de51cf1)" d="M 44.567 111.785371 
L 490.967 111.785371 
" style="fill:none;stroke:#fafafa;"/>
     </g>
     <g id="line2d_30">
      <path d="M 44.567 111.785371 
" style="fill:none;stroke:#000000;stroke-width:1.5;"/>
      <g>
       <use style="stroke:#000000;" x="44.567" xlink:href="#m10e7461714" y="111.785371"/>
      </g>
     </g>
    </g>
    <g id="ytick_9">
     <g id="line2d_31">
      <path clip-path="url(#p9d7de51cf1)" d="M 44.567 61.385371 
L 490.967 61.385371 
" style="fill:none;stroke:#fafafa;"/>
     </g>
     <g id="line2d_32">
      <path d="M 44.567 61.385371 
" style="fill:none;stroke:#000000;stroke-width:1.5;"/>
      <g>
       <use style="stroke:#000000;" x="44.567" xlink:href="#m10e7461714" y="61.385371"/>
      </g>
     </g>
    </g>
    <g id="text_11">
     <!-- $P_{Q1}$ [%] -->
     <defs>
      <path d="M 16.890625 72.90625 
L 39.703125 72.90625 
Q 49.65625 72.90625 54.875 68.265625 
Q 60.109375 63.625 60.109375 54.6875 
Q 60.109375 42.671875 52.390625 35.984375 
Q 44.671875 29.296875 30.71875 29.296875 
L 18.3125 29.296875 
L 12.59375 0 
L 2.6875 0 
z
M 25.203125 64.796875 
L 19.921875 37.40625 
L 32.328125 37.40625 
Q 40.71875 37.40625 45.203125 41.703125 
Q 49.703125 46 49.703125 54 
Q 49.703125 59.125 46.65625 61.953125 
Q 43.609375 64.796875 38.09375 64.796875 
z
" id="DejaVuSans-Oblique-80"/>
      <path d="M 36.078125 -1.3125 
Q 35.546875 -1.375 34.953125 -1.390625 
Q 34.375 -1.421875 33.203125 -1.421875 
Q 19.53125 -1.421875 11.8125 6.421875 
Q 4.109375 14.265625 4.109375 28.078125 
Q 4.109375 36.234375 7.0625 44.4375 
Q 10.015625 52.640625 15.28125 59.1875 
Q 21.390625 66.703125 29.03125 70.453125 
Q 36.671875 74.21875 45.90625 74.21875 
Q 59.28125 74.21875 66.984375 66.328125 
Q 74.703125 58.453125 74.703125 44.828125 
Q 74.703125 30.125 66.640625 17.921875 
Q 58.59375 5.71875 45.609375 0.6875 
L 55.515625 -12.890625 
L 44.484375 -12.890625 
z
M 45.609375 66.21875 
Q 37.5 66.21875 31.296875 62.28125 
Q 25.09375 58.34375 20.515625 50.296875 
Q 17.578125 45.171875 16.03125 39.40625 
Q 14.5 33.640625 14.5 27.78125 
Q 14.5 17.625 19.359375 12.109375 
Q 24.21875 6.59375 33.109375 6.59375 
Q 41.109375 6.59375 47.375 10.5625 
Q 53.65625 14.546875 58.109375 22.40625 
Q 61.078125 27.6875 62.640625 33.46875 
Q 64.203125 39.265625 64.203125 45.015625 
Q 64.203125 55.125 59.3125 60.671875 
Q 54.4375 66.21875 45.609375 66.21875 
z
" id="DejaVuSans-Oblique-81"/>
      <path id="DejaVuSans-32"/>
      <path d="M 8.59375 75.984375 
L 29.296875 75.984375 
L 29.296875 69 
L 17.578125 69 
L 17.578125 -6.203125 
L 29.296875 -6.203125 
L 29.296875 -13.1875 
L 8.59375 -13.1875 
z
" id="DejaVuSans-91"/>
      <path d="M 72.703125 32.078125 
Q 68.453125 32.078125 66.03125 28.46875 
Q 63.625 24.859375 63.625 18.40625 
Q 63.625 12.0625 66.03125 8.421875 
Q 68.453125 4.78125 72.703125 4.78125 
Q 76.859375 4.78125 79.265625 8.421875 
Q 81.6875 12.0625 81.6875 18.40625 
Q 81.6875 24.8125 79.265625 28.4375 
Q 76.859375 32.078125 72.703125 32.078125 
z
M 72.703125 38.28125 
Q 80.421875 38.28125 84.953125 32.90625 
Q 89.5 27.546875 89.5 18.40625 
Q 89.5 9.28125 84.9375 3.921875 
Q 80.375 -1.421875 72.703125 -1.421875 
Q 64.890625 -1.421875 60.34375 3.921875 
Q 55.8125 9.28125 55.8125 18.40625 
Q 55.8125 27.59375 60.375 32.9375 
Q 64.9375 38.28125 72.703125 38.28125 
z
M 22.3125 68.015625 
Q 18.109375 68.015625 15.6875 64.375 
Q 13.28125 60.75 13.28125 54.390625 
Q 13.28125 47.953125 15.671875 44.328125 
Q 18.0625 40.71875 22.3125 40.71875 
Q 26.5625 40.71875 28.96875 44.328125 
Q 31.390625 47.953125 31.390625 54.390625 
Q 31.390625 60.6875 28.953125 64.34375 
Q 26.515625 68.015625 22.3125 68.015625 
z
M 66.40625 74.21875 
L 74.21875 74.21875 
L 28.609375 -1.421875 
L 20.796875 -1.421875 
z
M 22.3125 74.21875 
Q 30.03125 74.21875 34.609375 68.875 
Q 39.203125 63.53125 39.203125 54.390625 
Q 39.203125 45.171875 34.640625 39.84375 
Q 30.078125 34.515625 22.3125 34.515625 
Q 14.546875 34.515625 10.03125 39.859375 
Q 5.515625 45.21875 5.515625 54.390625 
Q 5.515625 63.484375 10.046875 68.84375 
Q 14.59375 74.21875 22.3125 74.21875 
z
" id="DejaVuSans-37"/>
      <path d="M 30.421875 75.984375 
L 30.421875 -13.1875 
L 9.71875 -13.1875 
L 9.71875 -6.203125 
L 21.390625 -6.203125 
L 21.390625 69 
L 9.71875 69 
L 9.71875 75.984375 
z
" id="DejaVuSans-93"/>
     </defs>
     <g transform="translate(15.56 155.785371)rotate(-90)scale(0.11 -0.11)">
      <use transform="translate(0 0.015625)" xlink:href="#DejaVuSans-Oblique-80"/>
      <use transform="translate(60.302734 -16.390625)scale(0.7)" xlink:href="#DejaVuSans-Oblique-81"/>
      <use transform="translate(115.400391 -16.390625)scale(0.7)" xlink:href="#DejaVuSans-49"/>
      <use transform="translate(162.670898 0.015625)" xlink:href="#DejaVuSans-32"/>
      <use transform="translate(194.458008 0.015625)" xlink:href="#DejaVuSans-91"/>
      <use transform="translate(233.47168 0.015625)" xlink:href="#DejaVuSans-37"/>
      <use transform="translate(328.491211 0.015625)" xlink:href="#DejaVuSans-93"/>
     </g>
    </g>
   </g>
   <g id="PathCollection_1">
    <path clip-path="url(#p9d7de51cf1)" d="M 64.857909 73.457722 
C 65.327969 73.457722 65.77884 73.270965 66.111223 72.938582 
C 66.443606 72.606199 66.630363 72.155328 66.630363 71.685268 
C 66.630363 71.215208 66.443606 70.764336 66.111223 70.431954 
C 65.77884 70.099571 65.327969 69.912814 64.857909 69.912814 
C 64.387849 69.912814 63.936978 70.099571 63.604595 70.431954 
C 63.272212 70.764336 63.085455 71.215208 63.085455 71.685268 
C 63.085455 72.155328 63.272212 72.606199 63.604595 72.938582 
C 63.936978 73.270965 64.387849 73.457722 64.857909 73.457722 
z
" style="stroke:#000000;stroke-width:0.886227;"/>
    <path clip-path="url(#p9d7de51cf1)" d="M 78.385182 74.930836 
C 78.855242 74.930836 79.306113 74.744079 79.638496 74.411696 
C 79.970879 74.079314 80.157636 73.628442 80.157636 73.158382 
C 80.157636 72.688322 79.970879 72.237451 79.638496 71.905068 
C 79.306113 71.572685 78.855242 71.385928 78.385182 71.385928 
C 77.915122 71.385928 77.46425 71.572685 77.131868 71.905068 
C 76.799485 72.237451 76.612728 72.688322 76.612728 73.158382 
C 76.612728 73.628442 76.799485 74.079314 77.131868 74.411696 
C 77.46425 74.744079 77.915122 74.930836 78.385182 74.930836 
z
" style="stroke:#000000;stroke-width:0.886227;"/>
    <path clip-path="url(#p9d7de51cf1)" d="M 91.912455 81.661218 
C 92.382515 81.661218 92.833386 81.474461 93.165769 81.142078 
C 93.498151 80.809695 93.684908 80.358824 93.684908 79.888764 
C 93.684908 79.418704 93.498151 78.967833 93.165769 78.63545 
C 92.833386 78.303067 92.382515 78.11631 91.912455 78.11631 
C 91.442394 78.11631 90.991523 78.303067 90.65914 78.63545 
C 90.326758 78.967833 90.140001 79.418704 90.140001 79.888764 
C 90.140001 80.358824 90.326758 80.809695 90.65914 81.142078 
C 90.991523 81.474461 91.442394 81.661218 91.912455 81.661218 
z
" style="stroke:#000000;stroke-width:0.886227;"/>
    <path clip-path="url(#p9d7de51cf1)" d="M 105.439727 82.156662 
C 105.909788 82.156662 106.360659 81.969905 106.693041 81.637523 
C 107.025424 81.30514 107.212181 80.854269 107.212181 80.384208 
C 107.212181 79.914148 107.025424 79.463277 106.693041 79.130894 
C 106.360659 78.798511 105.909788 78.611755 105.439727 78.611755 
C 104.969667 78.611755 104.518796 78.798511 104.186413 79.130894 
C 103.85403 79.463277 103.667273 79.914148 103.667273 80.384208 
C 103.667273 80.854269 103.85403 81.30514 104.186413 81.637523 
C 104.518796 81.969905 104.969667 82.156662 105.439727 82.156662 
z
" style="stroke:#000000;stroke-width:0.886227;"/>
    <path clip-path="url(#p9d7de51cf1)" d="M 118.967 90.555264 
C 119.43706 90.555264 119.887931 90.368507 120.220314 90.036124 
C 120.552697 89.703741 120.739454 89.25287 120.739454 88.78281 
C 120.739454 88.31275 120.552697 87.861879 120.220314 87.529496 
C 119.887931 87.197113 119.43706 87.010356 118.967 87.010356 
C 118.49694 87.010356 118.046069 87.197113 117.713686 87.529496 
C 117.381303 87.861879 117.194546 88.31275 117.194546 88.78281 
C 117.194546 89.25287 117.381303 89.703741 117.713686 90.036124 
C 118.046069 90.368507 118.49694 90.555264 118.967 90.555264 
z
" style="stroke:#000000;stroke-width:0.886227;"/>
    <path clip-path="url(#p9d7de51cf1)" d="M 132.494273 97.703946 
C 132.964333 97.703946 133.415204 97.517189 133.747587 97.184807 
C 134.07997 96.852424 134.266727 96.401553 134.266727 95.931492 
C 134.266727 95.461432 134.07997 95.010561 133.747587 94.678178 
C 133.415204 94.345795 132.964333 94.159039 132.494273 94.159039 
C 132.024212 94.159039 131.573341 94.345795 131.240959 94.678178 
C 130.908576 95.010561 130.721819 95.461432 130.721819 95.931492 
C 130.721819 96.401553 130.908576 96.852424 131.240959 97.184807 
C 131.573341 97.517189 132.024212 97.703946 132.494273 97.703946 
z
" style="stroke:#000000;stroke-width:0.886227;"/>
    <path clip-path="url(#p9d7de51cf1)" d="M 146.021545 102.707729 
C 146.491606 102.707729 146.942477 102.520972 147.27486 102.18859 
C 147.607242 101.856207 147.793999 101.405336 147.793999 100.935275 
C 147.793999 100.465215 147.607242 100.014344 147.27486 99.681961 
C 146.942477 99.349578 146.491606 99.162822 146.021545 99.162822 
C 145.551485 99.162822 145.100614 99.349578 144.768231 99.681961 
C 144.435849 100.014344 144.249092 100.465215 144.249092 100.935275 
C 144.249092 101.405336 144.435849 101.856207 144.768231 102.18859 
C 145.100614 102.520972 145.551485 102.707729 146.021545 102.707729 
z
" style="stroke:#000000;stroke-width:0.886227;"/>
    <path clip-path="url(#p9d7de51cf1)" d="M 159.548818 111.261848 
C 160.018878 111.261848 160.46975 111.075091 160.802132 110.742708 
C 161.134515 110.410325 161.321272 109.959454 161.321272 109.489394 
C 161.321272 109.019334 161.134515 108.568463 160.802132 108.23608 
C 160.46975 107.903697 160.018878 107.71694 159.548818 107.71694 
C 159.078758 107.71694 158.627887 107.903697 158.295504 108.23608 
C 157.963121 108.568463 157.776364 109.019334 157.776364 109.489394 
C 157.776364 109.959454 157.963121 110.410325 158.295504 110.742708 
C 158.627887 111.075091 159.078758 111.261848 159.548818 111.261848 
z
" style="stroke:#000000;stroke-width:0.886227;"/>
    <path clip-path="url(#p9d7de51cf1)" d="M 173.076091 114.490989 
C 173.546151 114.490989 173.997022 114.304232 174.329405 113.971849 
C 174.661788 113.639466 174.848545 113.188595 174.848545 112.718535 
C 174.848545 112.248475 174.661788 111.797604 174.329405 111.465221 
C 173.997022 111.132838 173.546151 110.946081 173.076091 110.946081 
C 172.606031 110.946081 172.15516 111.132838 171.822777 111.465221 
C 171.490394 111.797604 171.303637 112.248475 171.303637 112.718535 
C 171.303637 113.188595 171.490394 113.639466 171.822777 113.971849 
C 172.15516 114.304232 172.606031 114.490989 173.076091 114.490989 
z
" style="stroke:#000000;stroke-width:0.886227;"/>
    <path clip-path="url(#p9d7de51cf1)" d="M 186.603364 126.529509 
C 187.073424 126.529509 187.524295 126.342752 187.856678 126.010369 
C 188.189061 125.677986 188.375817 125.227115 188.375817 124.757055 
C 188.375817 124.286995 188.189061 123.836123 187.856678 123.503741 
C 187.524295 123.171358 187.073424 122.984601 186.603364 122.984601 
C 186.133303 122.984601 185.682432 123.171358 185.350049 123.503741 
C 185.017667 123.836123 184.83091 124.286995 184.83091 124.757055 
C 184.83091 125.227115 185.017667 125.677986 185.350049 126.010369 
C 185.682432 126.342752 186.133303 126.529509 186.603364 126.529509 
z
" style="stroke:#000000;stroke-width:0.886227;"/>
    <path clip-path="url(#p9d7de51cf1)" d="M 200.130636 135.951946 
C 200.600697 135.951946 201.051568 135.765189 201.383951 135.432807 
C 201.716333 135.100424 201.90309 134.649553 201.90309 134.179492 
C 201.90309 133.709432 201.716333 133.258561 201.383951 132.926178 
C 201.051568 132.593795 200.600697 132.407039 200.130636 132.407039 
C 199.660576 132.407039 199.209705 132.593795 198.877322 132.926178 
C 198.544939 133.258561 198.358183 133.709432 198.358183 134.179492 
C 198.358183 134.649553 198.544939 135.100424 198.877322 135.432807 
C 199.209705 135.765189 199.660576 135.951946 200.130636 135.951946 
z
" style="stroke:#000000;stroke-width:0.886227;"/>
    <path clip-path="url(#p9d7de51cf1)" d="M 213.657909 143.268604 
C 214.127969 143.268604 214.57884 143.081847 214.911223 142.749464 
C 215.243606 142.417081 215.430363 141.96621 215.430363 141.49615 
C 215.430363 141.026089 215.243606 140.575218 214.911223 140.242836 
C 214.57884 139.910453 214.127969 139.723696 213.657909 139.723696 
C 213.187849 139.723696 212.736978 139.910453 212.404595 140.242836 
C 212.072212 140.575218 211.885455 141.026089 211.885455 141.49615 
C 211.885455 141.96621 212.072212 142.417081 212.404595 142.749464 
C 212.736978 143.081847 213.187849 143.268604 213.657909 143.268604 
z
" style="stroke:#000000;stroke-width:0.886227;"/>
    <path clip-path="url(#p9d7de51cf1)" d="M 227.185182 149.267417 
C 227.655242 149.267417 228.106113 149.08066 228.438496 148.748277 
C 228.770879 148.415895 228.957636 147.965024 228.957636 147.494963 
C 228.957636 147.024903 228.770879 146.574032 228.438496 146.241649 
C 228.106113 145.909266 227.655242 145.722509 227.185182 145.722509 
C 226.715122 145.722509 226.26425 145.909266 225.931868 146.241649 
C 225.599485 146.574032 225.412728 147.024903 225.412728 147.494963 
C 225.412728 147.965024 225.599485 148.415895 225.931868 148.748277 
C 226.26425 149.08066 226.715122 149.267417 227.185182 149.267417 
z
" style="stroke:#000000;stroke-width:0.886227;"/>
    <path clip-path="url(#p9d7de51cf1)" d="M 240.712455 160.660108 
C 241.182515 160.660108 241.633386 160.473351 241.965769 160.140968 
C 242.298151 159.808585 242.484908 159.357714 242.484908 158.887654 
C 242.484908 158.417594 242.298151 157.966722 241.965769 157.63434 
C 241.633386 157.301957 241.182515 157.1152 240.712455 157.1152 
C 240.242394 157.1152 239.791523 157.301957 239.45914 157.63434 
C 239.126758 157.966722 238.940001 158.417594 238.940001 158.887654 
C 238.940001 159.357714 239.126758 159.808585 239.45914 160.140968 
C 239.791523 160.473351 240.242394 160.660108 240.712455 160.660108 
z
" style="stroke:#000000;stroke-width:0.886227;"/>
    <path clip-path="url(#p9d7de51cf1)" d="M 254.239727 161.174707 
C 254.709788 161.174707 255.160659 160.98795 255.493041 160.655567 
C 255.825424 160.323184 256.012181 159.872313 256.012181 159.402253 
C 256.012181 158.932193 255.825424 158.481322 255.493041 158.148939 
C 255.160659 157.816556 254.709788 157.629799 254.239727 157.629799 
C 253.769667 157.629799 253.318796 157.816556 252.986413 158.148939 
C 252.65403 158.481322 252.467273 158.932193 252.467273 159.402253 
C 252.467273 159.872313 252.65403 160.323184 252.986413 160.655567 
C 253.318796 160.98795 253.769667 161.174707 254.239727 161.174707 
z
" style="stroke:#000000;stroke-width:0.886227;"/>
    <path clip-path="url(#p9d7de51cf1)" d="M 267.767 170.458518 
C 268.23706 170.458518 268.687931 170.271761 269.020314 169.939378 
C 269.352697 169.606995 269.539454 169.156124 269.539454 168.686064 
C 269.539454 168.216004 269.352697 167.765133 269.020314 167.43275 
C 268.687931 167.100367 268.23706 166.91361 267.767 166.91361 
C 267.29694 166.91361 266.846069 167.100367 266.513686 167.43275 
C 266.181303 167.765133 265.994546 168.216004 265.994546 168.686064 
C 265.994546 169.156124 266.181303 169.606995 266.513686 169.939378 
C 266.846069 170.271761 267.29694 170.458518 267.767 170.458518 
z
" style="stroke:#000000;stroke-width:0.886227;"/>
    <path clip-path="url(#p9d7de51cf1)" d="M 281.294273 168.451831 
C 281.764333 168.451831 282.215204 168.265074 282.547587 167.932691 
C 282.87997 167.600308 283.066727 167.149437 283.066727 166.679377 
C 283.066727 166.209317 282.87997 165.758446 282.547587 165.426063 
C 282.215204 165.09368 281.764333 164.906923 281.294273 164.906923 
C 280.824212 164.906923 280.373341 165.09368 280.040959 165.426063 
C 279.708576 165.758446 279.521819 166.209317 279.521819 166.679377 
C 279.521819 167.149437 279.708576 167.600308 280.040959 167.932691 
C 280.373341 168.265074 280.824212 168.451831 281.294273 168.451831 
z
" style="stroke:#000000;stroke-width:0.886227;"/>
    <path clip-path="url(#p9d7de51cf1)" d="M 294.821545 174.995324 
C 295.291606 174.995324 295.742477 174.808567 296.07486 174.476185 
C 296.407242 174.143802 296.593999 173.692931 296.593999 173.22287 
C 296.593999 172.75281 296.407242 172.301939 296.07486 171.969556 
C 295.742477 171.637173 295.291606 171.450417 294.821545 171.450417 
C 294.351485 171.450417 293.900614 171.637173 293.568231 171.969556 
C 293.235849 172.301939 293.049092 172.75281 293.049092 173.22287 
C 293.049092 173.692931 293.235849 174.143802 293.568231 174.476185 
C 293.900614 174.808567 294.351485 174.995324 294.821545 174.995324 
z
" style="stroke:#000000;stroke-width:0.886227;"/>
    <path clip-path="url(#p9d7de51cf1)" d="M 308.348818 177.012187 
C 308.818878 177.012187 309.26975 176.825431 309.602132 176.493048 
C 309.934515 176.160665 310.121272 175.709794 310.121272 175.239734 
C 310.121272 174.769673 309.934515 174.318802 309.602132 173.986419 
C 309.26975 173.654037 308.818878 173.46728 308.348818 173.46728 
C 307.878758 173.46728 307.427887 173.654037 307.095504 173.986419 
C 306.763121 174.318802 306.576364 174.769673 306.576364 175.239734 
C 306.576364 175.709794 306.763121 176.160665 307.095504 176.493048 
C 307.427887 176.825431 307.878758 177.012187 308.348818 177.012187 
z
" style="stroke:#000000;stroke-width:0.886227;"/>
    <path clip-path="url(#p9d7de51cf1)" d="M 321.876091 181.483671 
C 322.346151 181.483671 322.797022 181.296914 323.129405 180.964531 
C 323.461788 180.632148 323.648545 180.181277 323.648545 179.711217 
C 323.648545 179.241156 323.461788 178.790285 323.129405 178.457903 
C 322.797022 178.12552 322.346151 177.938763 321.876091 177.938763 
C 321.406031 177.938763 320.95516 178.12552 320.622777 178.457903 
C 320.290394 178.790285 320.103637 179.241156 320.103637 179.711217 
C 320.103637 180.181277 320.290394 180.632148 320.622777 180.964531 
C 320.95516 181.296914 321.406031 181.483671 321.876091 181.483671 
z
" style="stroke:#000000;stroke-width:0.886227;"/>
    <path clip-path="url(#p9d7de51cf1)" d="M 335.403364 175.616043 
C 335.873424 175.616043 336.324295 175.429286 336.656678 175.096903 
C 336.989061 174.764521 337.175817 174.31365 337.175817 173.843589 
C 337.175817 173.373529 336.989061 172.922658 336.656678 172.590275 
C 336.324295 172.257892 335.873424 172.071135 335.403364 172.071135 
C 334.933303 172.071135 334.482432 172.257892 334.150049 172.590275 
C 333.817667 172.922658 333.63091 173.373529 333.63091 173.843589 
C 333.63091 174.31365 333.817667 174.764521 334.150049 175.096903 
C 334.482432 175.429286 334.933303 175.616043 335.403364 175.616043 
z
" style="stroke:#000000;stroke-width:0.886227;"/>
    <path clip-path="url(#p9d7de51cf1)" d="M 348.930636 174.752566 
C 349.400697 174.752566 349.851568 174.565809 350.183951 174.233426 
C 350.516333 173.901044 350.70309 173.450173 350.70309 172.980112 
C 350.70309 172.510052 350.516333 172.059181 350.183951 171.726798 
C 349.851568 171.394415 349.400697 171.207658 348.930636 171.207658 
C 348.460576 171.207658 348.009705 171.394415 347.677322 171.726798 
C 347.344939 172.059181 347.158183 172.510052 347.158183 172.980112 
C 347.158183 173.450173 347.344939 173.901044 347.677322 174.233426 
C 348.009705 174.565809 348.460576 174.752566 348.930636 174.752566 
z
" style="stroke:#000000;stroke-width:0.886227;"/>
    <path clip-path="url(#p9d7de51cf1)" d="M 362.457909 181.128999 
C 362.927969 181.128999 363.37884 180.942242 363.711223 180.609859 
C 364.043606 180.277476 364.230363 179.826605 364.230363 179.356545 
C 364.230363 178.886485 364.043606 178.435614 363.711223 178.103231 
C 363.37884 177.770848 362.927969 177.584091 362.457909 177.584091 
C 361.987849 177.584091 361.536978 177.770848 361.204595 178.103231 
C 360.872212 178.435614 360.685455 178.886485 360.685455 179.356545 
C 360.685455 179.826605 360.872212 180.277476 361.204595 180.609859 
C 361.536978 180.942242 361.987849 181.128999 362.457909 181.128999 
z
" style="stroke:#000000;stroke-width:0.886227;"/>
    <path clip-path="url(#p9d7de51cf1)" d="M 375.985182 186.964042 
C 376.455242 186.964042 376.906113 186.777285 377.238496 186.444902 
C 377.570879 186.112519 377.757636 185.661648 377.757636 185.191588 
C 377.757636 184.721528 377.570879 184.270657 377.238496 183.938274 
C 376.906113 183.605891 376.455242 183.419134 375.985182 183.419134 
C 375.515122 183.419134 375.06425 183.605891 374.731868 183.938274 
C 374.399485 184.270657 374.212728 184.721528 374.212728 185.191588 
C 374.212728 185.661648 374.399485 186.112519 374.731868 186.444902 
C 375.06425 186.777285 375.515122 186.964042 375.985182 186.964042 
z
" style="stroke:#000000;stroke-width:0.886227;"/>
    <path clip-path="url(#p9d7de51cf1)" d="M 389.512455 195.300239 
C 389.982515 195.300239 390.433386 195.113482 390.765769 194.781099 
C 391.098151 194.448716 391.284908 193.997845 391.284908 193.527785 
C 391.284908 193.057725 391.098151 192.606854 390.765769 192.274471 
C 390.433386 191.942088 389.982515 191.755331 389.512455 191.755331 
C 389.042394 191.755331 388.591523 191.942088 388.25914 192.274471 
C 387.926758 192.606854 387.740001 193.057725 387.740001 193.527785 
C 387.740001 193.997845 387.926758 194.448716 388.25914 194.781099 
C 388.591523 195.113482 389.042394 195.300239 389.512455 195.300239 
z
" style="stroke:#000000;stroke-width:0.886227;"/>
    <path clip-path="url(#p9d7de51cf1)" d="M 403.039727 190.267882 
C 403.509788 190.267882 403.960659 190.081125 404.293041 189.748742 
C 404.625424 189.416359 404.812181 188.965488 404.812181 188.495428 
C 404.812181 188.025367 404.625424 187.574496 404.293041 187.242114 
C 403.960659 186.909731 403.509788 186.722974 403.039727 186.722974 
C 402.569667 186.722974 402.118796 186.909731 401.786413 187.242114 
C 401.45403 187.574496 401.267273 188.025367 401.267273 188.495428 
C 401.267273 188.965488 401.45403 189.416359 401.786413 189.748742 
C 402.118796 190.081125 402.569667 190.267882 403.039727 190.267882 
z
" style="stroke:#000000;stroke-width:0.886227;"/>
    <path clip-path="url(#p9d7de51cf1)" d="M 416.567 187.379455 
C 417.03706 187.379455 417.487931 187.192698 417.820314 186.860316 
C 418.152697 186.527933 418.339454 186.077062 418.339454 185.607001 
C 418.339454 185.136941 418.152697 184.68607 417.820314 184.353687 
C 417.487931 184.021304 417.03706 183.834548 416.567 183.834548 
C 416.09694 183.834548 415.646069 184.021304 415.313686 184.353687 
C 414.981303 184.68607 414.794546 185.136941 414.794546 185.607001 
C 414.794546 186.077062 414.981303 186.527933 415.313686 186.860316 
C 415.646069 187.192698 416.09694 187.379455 416.567 187.379455 
z
" style="stroke:#000000;stroke-width:0.886227;"/>
    <path clip-path="url(#p9d7de51cf1)" d="M 430.094273 193.178121 
C 430.564333 193.178121 431.015204 192.991364 431.347587 192.658982 
C 431.67997 192.326599 431.866727 191.875728 431.866727 191.405667 
C 431.866727 190.935607 431.67997 190.484736 431.347587 190.152353 
C 431.015204 189.819971 430.564333 189.633214 430.094273 189.633214 
C 429.624212 189.633214 429.173341 189.819971 428.840959 190.152353 
C 428.508576 190.484736 428.321819 190.935607 428.321819 191.405667 
C 428.321819 191.875728 428.508576 192.326599 428.840959 192.658982 
C 429.173341 192.991364 429.624212 193.178121 430.094273 193.178121 
z
" style="stroke:#000000;stroke-width:0.886227;"/>
    <path clip-path="url(#p9d7de51cf1)" d="M 443.621545 195.343373 
C 444.091606 195.343373 444.542477 195.156616 444.87486 194.824234 
C 445.207242 194.491851 445.393999 194.04098 445.393999 193.570919 
C 445.393999 193.100859 445.207242 192.649988 444.87486 192.317605 
C 444.542477 191.985222 444.091606 191.798466 443.621545 191.798466 
C 443.151485 191.798466 442.700614 191.985222 442.368231 192.317605 
C 442.035849 192.649988 441.849092 193.100859 441.849092 193.570919 
C 441.849092 194.04098 442.035849 194.491851 442.368231 194.824234 
C 442.700614 195.156616 443.151485 195.343373 443.621545 195.343373 
z
" style="stroke:#000000;stroke-width:0.886227;"/>
    <path clip-path="url(#p9d7de51cf1)" d="M 457.148818 200.452254 
C 457.618878 200.452254 458.06975 200.265497 458.402132 199.933114 
C 458.734515 199.600731 458.921272 199.14986 458.921272 198.6798 
C 458.921272 198.20974 458.734515 197.758869 458.402132 197.426486 
C 458.06975 197.094103 457.618878 196.907346 457.148818 196.907346 
C 456.678758 196.907346 456.227887 197.094103 455.895504 197.426486 
C 455.563121 197.758869 455.376364 198.20974 455.376364 198.6798 
C 455.376364 199.14986 455.563121 199.600731 455.895504 199.933114 
C 456.227887 200.265497 456.678758 200.452254 457.148818 200.452254 
z
" style="stroke:#000000;stroke-width:0.886227;"/>
    <path clip-path="url(#p9d7de51cf1)" d="M 470.676091 194.682425 
C 471.146151 194.682425 471.597022 194.495668 471.929405 194.163285 
C 472.261788 193.830902 472.448545 193.380031 472.448545 192.909971 
C 472.448545 192.439911 472.261788 191.98904 471.929405 191.656657 
C 471.597022 191.324274 471.146151 191.137517 470.676091 191.137517 
C 470.206031 191.137517 469.75516 191.324274 469.422777 191.656657 
C 469.090394 191.98904 468.903637 192.439911 468.903637 192.909971 
C 468.903637 193.380031 469.090394 193.830902 469.422777 194.163285 
C 469.75516 194.495668 470.206031 194.682425 470.676091 194.682425 
z
" style="stroke:#000000;stroke-width:0.886227;"/>
   </g>
   <g id="line2d_33">
    <path clip-path="url(#p9d7de51cf1)" d="M 64.857909 71.685268 
L 78.385182 73.158382 
L 91.912455 79.888764 
L 105.439727 80.384208 
L 118.967 88.78281 
L 132.494273 95.931492 
L 146.021545 100.935275 
L 159.548818 109.489394 
L 173.076091 112.718535 
L 186.603364 124.757055 
L 200.130636 134.179492 
L 213.657909 141.49615 
L 227.185182 147.494963 
L 240.712455 158.887654 
L 254.239727 159.402253 
L 267.767 168.686064 
L 281.294273 166.679377 
L 294.821545 173.22287 
L 308.348818 175.239734 
L 321.876091 179.711217 
L 335.403364 173.843589 
L 348.930636 172.980112 
L 362.457909 179.356545 
L 375.985182 185.191588 
L 389.512455 193.527785 
L 403.039727 188.495428 
L 416.567 185.607001 
L 430.094273 191.405667 
L 443.621545 193.570919 
L 457.148818 198.6798 
L 470.676091 192.909971 
" style="fill:none;stroke:#000000;stroke-width:0.886227;"/>
   </g>
  </g>
  <g id="text_12">
   <!-- Protein data with imputed missing values -->
   <defs>
    <path d="M 19.671875 64.796875 
L 19.671875 37.40625 
L 32.078125 37.40625 
Q 38.96875 37.40625 42.71875 40.96875 
Q 46.484375 44.53125 46.484375 51.125 
Q 46.484375 57.671875 42.71875 61.234375 
Q 38.96875 64.796875 32.078125 64.796875 
z
M 9.8125 72.90625 
L 32.078125 72.90625 
Q 44.34375 72.90625 50.609375 67.359375 
Q 56.890625 61.8125 56.890625 51.125 
Q 56.890625 40.328125 50.609375 34.8125 
Q 44.34375 29.296875 32.078125 29.296875 
L 19.671875 29.296875 
L 19.671875 0 
L 9.8125 0 
z
" id="DejaVuSans-80"/>
    <path d="M 41.109375 46.296875 
Q 39.59375 47.171875 37.8125 47.578125 
Q 36.03125 48 33.890625 48 
Q 26.265625 48 22.1875 43.046875 
Q 18.109375 38.09375 18.109375 28.8125 
L 18.109375 0 
L 9.078125 0 
L 9.078125 54.6875 
L 18.109375 54.6875 
L 18.109375 46.1875 
Q 20.953125 51.171875 25.484375 53.578125 
Q 30.03125 56 36.53125 56 
Q 37.453125 56 38.578125 55.875 
Q 39.703125 55.765625 41.0625 55.515625 
z
" id="DejaVuSans-114"/>
    <path d="M 45.40625 46.390625 
L 45.40625 75.984375 
L 54.390625 75.984375 
L 54.390625 0 
L 45.40625 0 
L 45.40625 8.203125 
Q 42.578125 3.328125 38.25 0.953125 
Q 33.9375 -1.421875 27.875 -1.421875 
Q 17.96875 -1.421875 11.734375 6.484375 
Q 5.515625 14.40625 5.515625 27.296875 
Q 5.515625 40.1875 11.734375 48.09375 
Q 17.96875 56 27.875 56 
Q 33.9375 56 38.25 53.625 
Q 42.578125 51.265625 45.40625 46.390625 
z
M 14.796875 27.296875 
Q 14.796875 17.390625 18.875 11.75 
Q 22.953125 6.109375 30.078125 6.109375 
Q 37.203125 6.109375 41.296875 11.75 
Q 45.40625 17.390625 45.40625 27.296875 
Q 45.40625 37.203125 41.296875 42.84375 
Q 37.203125 48.484375 30.078125 48.484375 
Q 22.953125 48.484375 18.875 42.84375 
Q 14.796875 37.203125 14.796875 27.296875 
z
" id="DejaVuSans-100"/>
    <path d="M 34.28125 27.484375 
Q 23.390625 27.484375 19.1875 25 
Q 14.984375 22.515625 14.984375 16.5 
Q 14.984375 11.71875 18.140625 8.90625 
Q 21.296875 6.109375 26.703125 6.109375 
Q 34.1875 6.109375 38.703125 11.40625 
Q 43.21875 16.703125 43.21875 25.484375 
L 43.21875 27.484375 
z
M 52.203125 31.203125 
L 52.203125 0 
L 43.21875 0 
L 43.21875 8.296875 
Q 40.140625 3.328125 35.546875 0.953125 
Q 30.953125 -1.421875 24.3125 -1.421875 
Q 15.921875 -1.421875 10.953125 3.296875 
Q 6 8.015625 6 15.921875 
Q 6 25.140625 12.171875 29.828125 
Q 18.359375 34.515625 30.609375 34.515625 
L 43.21875 34.515625 
L 43.21875 35.40625 
Q 43.21875 41.609375 39.140625 45 
Q 35.0625 48.390625 27.6875 48.390625 
Q 23 48.390625 18.546875 47.265625 
Q 14.109375 46.140625 10.015625 43.890625 
L 10.015625 52.203125 
Q 14.9375 54.109375 19.578125 55.046875 
Q 24.21875 56 28.609375 56 
Q 40.484375 56 46.34375 49.84375 
Q 52.203125 43.703125 52.203125 31.203125 
z
" id="DejaVuSans-97"/>
    <path d="M 4.203125 54.6875 
L 13.1875 54.6875 
L 24.421875 12.015625 
L 35.59375 54.6875 
L 46.1875 54.6875 
L 57.421875 12.015625 
L 68.609375 54.6875 
L 77.59375 54.6875 
L 63.28125 0 
L 52.6875 0 
L 40.921875 44.828125 
L 29.109375 0 
L 18.5 0 
z
" id="DejaVuSans-119"/>
    <path d="M 54.890625 33.015625 
L 54.890625 0 
L 45.90625 0 
L 45.90625 32.71875 
Q 45.90625 40.484375 42.875 44.328125 
Q 39.84375 48.1875 33.796875 48.1875 
Q 26.515625 48.1875 22.3125 43.546875 
Q 18.109375 38.921875 18.109375 30.90625 
L 18.109375 0 
L 9.078125 0 
L 9.078125 75.984375 
L 18.109375 75.984375 
L 18.109375 46.1875 
Q 21.34375 51.125 25.703125 53.5625 
Q 30.078125 56 35.796875 56 
Q 45.21875 56 50.046875 50.171875 
Q 54.890625 44.34375 54.890625 33.015625 
z
" id="DejaVuSans-104"/>
    <path d="M 52 44.1875 
Q 55.375 50.25 60.0625 53.125 
Q 64.75 56 71.09375 56 
Q 79.640625 56 84.28125 50.015625 
Q 88.921875 44.046875 88.921875 33.015625 
L 88.921875 0 
L 79.890625 0 
L 79.890625 32.71875 
Q 79.890625 40.578125 77.09375 44.375 
Q 74.3125 48.1875 68.609375 48.1875 
Q 61.625 48.1875 57.5625 43.546875 
Q 53.515625 38.921875 53.515625 30.90625 
L 53.515625 0 
L 44.484375 0 
L 44.484375 32.71875 
Q 44.484375 40.625 41.703125 44.40625 
Q 38.921875 48.1875 33.109375 48.1875 
Q 26.21875 48.1875 22.15625 43.53125 
Q 18.109375 38.875 18.109375 30.90625 
L 18.109375 0 
L 9.078125 0 
L 9.078125 54.6875 
L 18.109375 54.6875 
L 18.109375 46.1875 
Q 21.1875 51.21875 25.484375 53.609375 
Q 29.78125 56 35.6875 56 
Q 41.65625 56 45.828125 52.96875 
Q 50 49.953125 52 44.1875 
z
" id="DejaVuSans-109"/>
    <path d="M 18.109375 8.203125 
L 18.109375 -20.796875 
L 9.078125 -20.796875 
L 9.078125 54.6875 
L 18.109375 54.6875 
L 18.109375 46.390625 
Q 20.953125 51.265625 25.265625 53.625 
Q 29.59375 56 35.59375 56 
Q 45.5625 56 51.78125 48.09375 
Q 58.015625 40.1875 58.015625 27.296875 
Q 58.015625 14.40625 51.78125 6.484375 
Q 45.5625 -1.421875 35.59375 -1.421875 
Q 29.59375 -1.421875 25.265625 0.953125 
Q 20.953125 3.328125 18.109375 8.203125 
z
M 48.6875 27.296875 
Q 48.6875 37.203125 44.609375 42.84375 
Q 40.53125 48.484375 33.40625 48.484375 
Q 26.265625 48.484375 22.1875 42.84375 
Q 18.109375 37.203125 18.109375 27.296875 
Q 18.109375 17.390625 22.1875 11.75 
Q 26.265625 6.109375 33.40625 6.109375 
Q 40.53125 6.109375 44.609375 11.75 
Q 48.6875 17.390625 48.6875 27.296875 
z
" id="DejaVuSans-112"/>
    <path d="M 45.40625 27.984375 
Q 45.40625 37.75 41.375 43.109375 
Q 37.359375 48.484375 30.078125 48.484375 
Q 22.859375 48.484375 18.828125 43.109375 
Q 14.796875 37.75 14.796875 27.984375 
Q 14.796875 18.265625 18.828125 12.890625 
Q 22.859375 7.515625 30.078125 7.515625 
Q 37.359375 7.515625 41.375 12.890625 
Q 45.40625 18.265625 45.40625 27.984375 
z
M 54.390625 6.78125 
Q 54.390625 -7.171875 48.1875 -13.984375 
Q 42 -20.796875 29.203125 -20.796875 
Q 24.46875 -20.796875 20.265625 -20.09375 
Q 16.0625 -19.390625 12.109375 -17.921875 
L 12.109375 -9.1875 
Q 16.0625 -11.328125 19.921875 -12.34375 
Q 23.78125 -13.375 27.78125 -13.375 
Q 36.625 -13.375 41.015625 -8.765625 
Q 45.40625 -4.15625 45.40625 5.171875 
L 45.40625 9.625 
Q 42.625 4.78125 38.28125 2.390625 
Q 33.9375 0 27.875 0 
Q 17.828125 0 11.671875 7.65625 
Q 5.515625 15.328125 5.515625 27.984375 
Q 5.515625 40.671875 11.671875 48.328125 
Q 17.828125 56 27.875 56 
Q 33.9375 56 38.28125 53.609375 
Q 42.625 51.21875 45.40625 46.390625 
L 45.40625 54.6875 
L 54.390625 54.6875 
z
" id="DejaVuSans-103"/>
    <path d="M 2.984375 54.6875 
L 12.5 54.6875 
L 29.59375 8.796875 
L 46.6875 54.6875 
L 56.203125 54.6875 
L 35.6875 0 
L 23.484375 0 
z
" id="DejaVuSans-118"/>
   </defs>
   <g transform="translate(123.533469 17.229938)scale(0.132 -0.132)">
    <use xlink:href="#DejaVuSans-80"/>
    <use x="60.287109" xlink:href="#DejaVuSans-114"/>
    <use x="101.369141" xlink:href="#DejaVuSans-111"/>
    <use x="162.550781" xlink:href="#DejaVuSans-116"/>
    <use x="201.759766" xlink:href="#DejaVuSans-101"/>
    <use x="263.283203" xlink:href="#DejaVuSans-105"/>
    <use x="291.066406" xlink:href="#DejaVuSans-110"/>
    <use x="354.445312" xlink:href="#DejaVuSans-32"/>
    <use x="386.232422" xlink:href="#DejaVuSans-100"/>
    <use x="449.708984" xlink:href="#DejaVuSans-97"/>
    <use x="510.988281" xlink:href="#DejaVuSans-116"/>
    <use x="550.197266" xlink:href="#DejaVuSans-97"/>
    <use x="611.476562" xlink:href="#DejaVuSans-32"/>
    <use x="643.263672" xlink:href="#DejaVuSans-119"/>
    <use x="725.050781" xlink:href="#DejaVuSans-105"/>
    <use x="752.833984" xlink:href="#DejaVuSans-116"/>
    <use x="792.042969" xlink:href="#DejaVuSans-104"/>
    <use x="855.421875" xlink:href="#DejaVuSans-32"/>
    <use x="887.208984" xlink:href="#DejaVuSans-105"/>
    <use x="914.992188" xlink:href="#DejaVuSans-109"/>
    <use x="1012.404297" xlink:href="#DejaVuSans-112"/>
    <use x="1075.880859" xlink:href="#DejaVuSans-117"/>
    <use x="1139.259766" xlink:href="#DejaVuSans-116"/>
    <use x="1178.46875" xlink:href="#DejaVuSans-101"/>
    <use x="1239.992188" xlink:href="#DejaVuSans-100"/>
    <use x="1303.46875" xlink:href="#DejaVuSans-32"/>
    <use x="1335.255859" xlink:href="#DejaVuSans-109"/>
    <use x="1432.667969" xlink:href="#DejaVuSans-105"/>
    <use x="1460.451172" xlink:href="#DejaVuSans-115"/>
    <use x="1512.550781" xlink:href="#DejaVuSans-115"/>
    <use x="1564.650391" xlink:href="#DejaVuSans-105"/>
    <use x="1592.433594" xlink:href="#DejaVuSans-110"/>
    <use x="1655.8125" xlink:href="#DejaVuSans-103"/>
    <use x="1719.289062" xlink:href="#DejaVuSans-32"/>
    <use x="1751.076172" xlink:href="#DejaVuSans-118"/>
    <use x="1810.255859" xlink:href="#DejaVuSans-97"/>
    <use x="1871.535156" xlink:href="#DejaVuSans-108"/>
    <use x="1899.318359" xlink:href="#DejaVuSans-117"/>
    <use x="1962.697266" xlink:href="#DejaVuSans-101"/>
    <use x="2024.220703" xlink:href="#DejaVuSans-115"/>
   </g>
  </g>
 </g>
 <defs>
  <clipPath id="p9d7de51cf1">
   <rect height="221.76" width="446.4" x="44.567" y="26.105371"/>
  </clipPath>
 </defs>
</svg>
