<?xml version="1.0" encoding="utf-8" standalone="no"?>
<!DOCTYPE svg PUBLIC "-//W3C//DTD SVG 1.1//EN"
  "http://www.w3.org/Graphics/SVG/1.1/DTD/svg11.dtd">
<!-- Created with matplotlib (https://matplotlib.org/) -->
<svg height="264.672687pt" version="1.1" viewBox="0 0 500.389687 264.672687" width="500.389687pt" xmlns="http://www.w3.org/2000/svg" xmlns:xlink="http://www.w3.org/1999/xlink">
 <defs>
  <style type="text/css">
*{stroke-linecap:butt;stroke-linejoin:round;}
  </style>
 </defs>
 <g id="figure_1">
  <g id="patch_1">
   <path d="M 0 264.672687 
L 500.389687 264.672687 
L 500.389687 0 
L 0 0 
z
" style="fill:#ffffff;stroke:#ffffff;stroke-linejoin:miter;"/>
  </g>
  <g id="axes_1">
   <g id="patch_2">
    <path d="M 46.789687 228.96 
L 493.189687 228.96 
L 493.189687 7.2 
L 46.789687 7.2 
z
" style="fill:#ffffff;stroke:#7f7f7f;stroke-linejoin:miter;"/>
   </g>
   <g id="matplotlib.axis_1">
    <g id="xtick_1">
     <g id="line2d_1">
      <path clip-path="url(#p47ad1219c6)" d="M 67.080597 228.96 
L 67.080597 7.2 
" style="fill:none;stroke:#e5e5e5;stroke-width:0.8;"/>
     </g>
     <g id="line2d_2">
      <path d="M 67.080597 228.96 
" style="fill:none;stroke:#000000;stroke-width:1.5;"/>
      <defs>
       <path d="M 0 0 
L 0 2.75 
" id="mbba3abc2ae" style="stroke:#000000;"/>
      </defs>
      <g>
       <use style="stroke:#000000;" x="67.080597" xlink:href="#mbba3abc2ae" y="228.96"/>
      </g>
     </g>
     <g id="text_1">
      <!-- 1970 -->
      <defs>
       <path d="M 12.40625 8.296875 
L 28.515625 8.296875 
L 28.515625 63.921875 
L 10.984375 60.40625 
L 10.984375 69.390625 
L 28.421875 72.90625 
L 38.28125 72.90625 
L 38.28125 8.296875 
L 54.390625 8.296875 
L 54.390625 0 
L 12.40625 0 
z
" id="DejaVuSans-49"/>
       <path d="M 10.984375 1.515625 
L 10.984375 10.5 
Q 14.703125 8.734375 18.5 7.8125 
Q 22.3125 6.890625 25.984375 6.890625 
Q 35.75 6.890625 40.890625 13.453125 
Q 46.046875 20.015625 46.78125 33.40625 
Q 43.953125 29.203125 39.59375 26.953125 
Q 35.25 24.703125 29.984375 24.703125 
Q 19.046875 24.703125 12.671875 31.3125 
Q 6.296875 37.9375 6.296875 49.421875 
Q 6.296875 60.640625 12.9375 67.421875 
Q 19.578125 74.21875 30.609375 74.21875 
Q 43.265625 74.21875 49.921875 64.515625 
Q 56.59375 54.828125 56.59375 36.375 
Q 56.59375 19.140625 48.40625 8.859375 
Q 40.234375 -1.421875 26.421875 -1.421875 
Q 22.703125 -1.421875 18.890625 -0.6875 
Q 15.09375 0.046875 10.984375 1.515625 
z
M 30.609375 32.421875 
Q 37.25 32.421875 41.125 36.953125 
Q 45.015625 41.5 45.015625 49.421875 
Q 45.015625 57.28125 41.125 61.84375 
Q 37.25 66.40625 30.609375 66.40625 
Q 23.96875 66.40625 20.09375 61.84375 
Q 16.21875 57.28125 16.21875 49.421875 
Q 16.21875 41.5 20.09375 36.953125 
Q 23.96875 32.421875 30.609375 32.421875 
z
" id="DejaVuSans-57"/>
       <path d="M 8.203125 72.90625 
L 55.078125 72.90625 
L 55.078125 68.703125 
L 28.609375 0 
L 18.3125 0 
L 43.21875 64.59375 
L 8.203125 64.59375 
z
" id="DejaVuSans-55"/>
       <path d="M 31.78125 66.40625 
Q 24.171875 66.40625 20.328125 58.90625 
Q 16.5 51.421875 16.5 36.375 
Q 16.5 21.390625 20.328125 13.890625 
Q 24.171875 6.390625 31.78125 6.390625 
Q 39.453125 6.390625 43.28125 13.890625 
Q 47.125 21.390625 47.125 36.375 
Q 47.125 51.421875 43.28125 58.90625 
Q 39.453125 66.40625 31.78125 66.40625 
z
M 31.78125 74.21875 
Q 44.046875 74.21875 50.515625 64.515625 
Q 56.984375 54.828125 56.984375 36.375 
Q 56.984375 17.96875 50.515625 8.265625 
Q 44.046875 -1.421875 31.78125 -1.421875 
Q 19.53125 -1.421875 13.0625 8.265625 
Q 6.59375 17.96875 6.59375 36.375 
Q 6.59375 54.828125 13.0625 64.515625 
Q 19.53125 74.21875 31.78125 74.21875 
z
" id="DejaVuSans-48"/>
      </defs>
      <g style="fill:#4d4d4d;" transform="translate(55.882597 240.596625)scale(0.088 -0.088)">
       <use xlink:href="#DejaVuSans-49"/>
       <use x="63.623047" xlink:href="#DejaVuSans-57"/>
       <use x="127.246094" xlink:href="#DejaVuSans-55"/>
       <use x="190.869141" xlink:href="#DejaVuSans-48"/>
      </g>
     </g>
    </g>
    <g id="xtick_2">
     <g id="line2d_3">
      <path clip-path="url(#p47ad1219c6)" d="M 148.244233 228.96 
L 148.244233 7.2 
" style="fill:none;stroke:#e5e5e5;stroke-width:0.8;"/>
     </g>
     <g id="line2d_4">
      <path d="M 148.244233 228.96 
" style="fill:none;stroke:#000000;stroke-width:1.5;"/>
      <g>
       <use style="stroke:#000000;" x="148.244233" xlink:href="#mbba3abc2ae" y="228.96"/>
      </g>
     </g>
     <g id="text_2">
      <!-- 1980 -->
      <defs>
       <path d="M 31.78125 34.625 
Q 24.75 34.625 20.71875 30.859375 
Q 16.703125 27.09375 16.703125 20.515625 
Q 16.703125 13.921875 20.71875 10.15625 
Q 24.75 6.390625 31.78125 6.390625 
Q 38.8125 6.390625 42.859375 10.171875 
Q 46.921875 13.96875 46.921875 20.515625 
Q 46.921875 27.09375 42.890625 30.859375 
Q 38.875 34.625 31.78125 34.625 
z
M 21.921875 38.8125 
Q 15.578125 40.375 12.03125 44.71875 
Q 8.5 49.078125 8.5 55.328125 
Q 8.5 64.0625 14.71875 69.140625 
Q 20.953125 74.21875 31.78125 74.21875 
Q 42.671875 74.21875 48.875 69.140625 
Q 55.078125 64.0625 55.078125 55.328125 
Q 55.078125 49.078125 51.53125 44.71875 
Q 48 40.375 41.703125 38.8125 
Q 48.828125 37.15625 52.796875 32.3125 
Q 56.78125 27.484375 56.78125 20.515625 
Q 56.78125 9.90625 50.3125 4.234375 
Q 43.84375 -1.421875 31.78125 -1.421875 
Q 19.734375 -1.421875 13.25 4.234375 
Q 6.78125 9.90625 6.78125 20.515625 
Q 6.78125 27.484375 10.78125 32.3125 
Q 14.796875 37.15625 21.921875 38.8125 
z
M 18.3125 54.390625 
Q 18.3125 48.734375 21.84375 45.5625 
Q 25.390625 42.390625 31.78125 42.390625 
Q 38.140625 42.390625 41.71875 45.5625 
Q 45.3125 48.734375 45.3125 54.390625 
Q 45.3125 60.0625 41.71875 63.234375 
Q 38.140625 66.40625 31.78125 66.40625 
Q 25.390625 66.40625 21.84375 63.234375 
Q 18.3125 60.0625 18.3125 54.390625 
z
" id="DejaVuSans-56"/>
      </defs>
      <g style="fill:#4d4d4d;" transform="translate(137.046233 240.596625)scale(0.088 -0.088)">
       <use xlink:href="#DejaVuSans-49"/>
       <use x="63.623047" xlink:href="#DejaVuSans-57"/>
       <use x="127.246094" xlink:href="#DejaVuSans-56"/>
       <use x="190.869141" xlink:href="#DejaVuSans-48"/>
      </g>
     </g>
    </g>
    <g id="xtick_3">
     <g id="line2d_5">
      <path clip-path="url(#p47ad1219c6)" d="M 229.407869 228.96 
L 229.407869 7.2 
" style="fill:none;stroke:#e5e5e5;stroke-width:0.8;"/>
     </g>
     <g id="line2d_6">
      <path d="M 229.407869 228.96 
" style="fill:none;stroke:#000000;stroke-width:1.5;"/>
      <g>
       <use style="stroke:#000000;" x="229.407869" xlink:href="#mbba3abc2ae" y="228.96"/>
      </g>
     </g>
     <g id="text_3">
      <!-- 1990 -->
      <g style="fill:#4d4d4d;" transform="translate(218.209869 240.596625)scale(0.088 -0.088)">
       <use xlink:href="#DejaVuSans-49"/>
       <use x="63.623047" xlink:href="#DejaVuSans-57"/>
       <use x="127.246094" xlink:href="#DejaVuSans-57"/>
       <use x="190.869141" xlink:href="#DejaVuSans-48"/>
      </g>
     </g>
    </g>
    <g id="xtick_4">
     <g id="line2d_7">
      <path clip-path="url(#p47ad1219c6)" d="M 310.571506 228.96 
L 310.571506 7.2 
" style="fill:none;stroke:#e5e5e5;stroke-width:0.8;"/>
     </g>
     <g id="line2d_8">
      <path d="M 310.571506 228.96 
" style="fill:none;stroke:#000000;stroke-width:1.5;"/>
      <g>
       <use style="stroke:#000000;" x="310.571506" xlink:href="#mbba3abc2ae" y="228.96"/>
      </g>
     </g>
     <g id="text_4">
      <!-- 2000 -->
      <defs>
       <path d="M 19.1875 8.296875 
L 53.609375 8.296875 
L 53.609375 0 
L 7.328125 0 
L 7.328125 8.296875 
Q 12.9375 14.109375 22.625 23.890625 
Q 32.328125 33.6875 34.8125 36.53125 
Q 39.546875 41.84375 41.421875 45.53125 
Q 43.3125 49.21875 43.3125 52.78125 
Q 43.3125 58.59375 39.234375 62.25 
Q 35.15625 65.921875 28.609375 65.921875 
Q 23.96875 65.921875 18.8125 64.3125 
Q 13.671875 62.703125 7.8125 59.421875 
L 7.8125 69.390625 
Q 13.765625 71.78125 18.9375 73 
Q 24.125 74.21875 28.421875 74.21875 
Q 39.75 74.21875 46.484375 68.546875 
Q 53.21875 62.890625 53.21875 53.421875 
Q 53.21875 48.921875 51.53125 44.890625 
Q 49.859375 40.875 45.40625 35.40625 
Q 44.1875 33.984375 37.640625 27.21875 
Q 31.109375 20.453125 19.1875 8.296875 
z
" id="DejaVuSans-50"/>
      </defs>
      <g style="fill:#4d4d4d;" transform="translate(299.373506 240.596625)scale(0.088 -0.088)">
       <use xlink:href="#DejaVuSans-50"/>
       <use x="63.623047" xlink:href="#DejaVuSans-48"/>
       <use x="127.246094" xlink:href="#DejaVuSans-48"/>
       <use x="190.869141" xlink:href="#DejaVuSans-48"/>
      </g>
     </g>
    </g>
    <g id="xtick_5">
     <g id="line2d_9">
      <path clip-path="url(#p47ad1219c6)" d="M 391.735142 228.96 
L 391.735142 7.2 
" style="fill:none;stroke:#e5e5e5;stroke-width:0.8;"/>
     </g>
     <g id="line2d_10">
      <path d="M 391.735142 228.96 
" style="fill:none;stroke:#000000;stroke-width:1.5;"/>
      <g>
       <use style="stroke:#000000;" x="391.735142" xlink:href="#mbba3abc2ae" y="228.96"/>
      </g>
     </g>
     <g id="text_5">
      <!-- 2010 -->
      <g style="fill:#4d4d4d;" transform="translate(380.537142 240.596625)scale(0.088 -0.088)">
       <use xlink:href="#DejaVuSans-50"/>
       <use x="63.623047" xlink:href="#DejaVuSans-48"/>
       <use x="127.246094" xlink:href="#DejaVuSans-49"/>
       <use x="190.869141" xlink:href="#DejaVuSans-48"/>
      </g>
     </g>
    </g>
    <g id="xtick_6">
     <g id="line2d_11">
      <path clip-path="url(#p47ad1219c6)" d="M 472.898778 228.96 
L 472.898778 7.2 
" style="fill:none;stroke:#e5e5e5;stroke-width:0.8;"/>
     </g>
     <g id="line2d_12">
      <path d="M 472.898778 228.96 
" style="fill:none;stroke:#000000;stroke-width:1.5;"/>
      <g>
       <use style="stroke:#000000;" x="472.898778" xlink:href="#mbba3abc2ae" y="228.96"/>
      </g>
     </g>
     <g id="text_6">
      <!-- 2020 -->
      <g style="fill:#4d4d4d;" transform="translate(461.700778 240.596625)scale(0.088 -0.088)">
       <use xlink:href="#DejaVuSans-50"/>
       <use x="63.623047" xlink:href="#DejaVuSans-48"/>
       <use x="127.246094" xlink:href="#DejaVuSans-50"/>
       <use x="190.869141" xlink:href="#DejaVuSans-48"/>
      </g>
     </g>
    </g>
    <g id="xtick_7">
     <g id="line2d_13">
      <path clip-path="url(#p47ad1219c6)" d="M 107.662415 228.96 
L 107.662415 7.2 
" style="fill:none;stroke:#fafafa;"/>
     </g>
     <g id="line2d_14">
      <path d="M 107.662415 228.96 
" style="fill:none;stroke:#000000;stroke-width:1.5;"/>
      <defs>
       <path d="M 0 0 
L 0 1.375 
" id="m3ecc185d1d" style="stroke:#000000;"/>
      </defs>
      <g>
       <use style="stroke:#000000;" x="107.662415" xlink:href="#m3ecc185d1d" y="228.96"/>
      </g>
     </g>
    </g>
    <g id="xtick_8">
     <g id="line2d_15">
      <path clip-path="url(#p47ad1219c6)" d="M 188.826051 228.96 
L 188.826051 7.2 
" style="fill:none;stroke:#fafafa;"/>
     </g>
     <g id="line2d_16">
      <path d="M 188.826051 228.96 
" style="fill:none;stroke:#000000;stroke-width:1.5;"/>
      <g>
       <use style="stroke:#000000;" x="188.826051" xlink:href="#m3ecc185d1d" y="228.96"/>
      </g>
     </g>
    </g>
    <g id="xtick_9">
     <g id="line2d_17">
      <path clip-path="url(#p47ad1219c6)" d="M 269.989687 228.96 
L 269.989687 7.2 
" style="fill:none;stroke:#fafafa;"/>
     </g>
     <g id="line2d_18">
      <path d="M 269.989687 228.96 
" style="fill:none;stroke:#000000;stroke-width:1.5;"/>
      <g>
       <use style="stroke:#000000;" x="269.989687" xlink:href="#m3ecc185d1d" y="228.96"/>
      </g>
     </g>
    </g>
    <g id="xtick_10">
     <g id="line2d_19">
      <path clip-path="url(#p47ad1219c6)" d="M 351.153324 228.96 
L 351.153324 7.2 
" style="fill:none;stroke:#fafafa;"/>
     </g>
     <g id="line2d_20">
      <path d="M 351.153324 228.96 
" style="fill:none;stroke:#000000;stroke-width:1.5;"/>
      <g>
       <use style="stroke:#000000;" x="351.153324" xlink:href="#m3ecc185d1d" y="228.96"/>
      </g>
     </g>
    </g>
    <g id="xtick_11">
     <g id="line2d_21">
      <path clip-path="url(#p47ad1219c6)" d="M 432.31696 228.96 
L 432.31696 7.2 
" style="fill:none;stroke:#fafafa;"/>
     </g>
     <g id="line2d_22">
      <path d="M 432.31696 228.96 
" style="fill:none;stroke:#000000;stroke-width:1.5;"/>
      <g>
       <use style="stroke:#000000;" x="432.31696" xlink:href="#m3ecc185d1d" y="228.96"/>
      </g>
     </g>
    </g>
    <g id="text_7">
     <!-- Year -->
     <defs>
      <path d="M -0.203125 72.90625 
L 10.40625 72.90625 
L 30.609375 42.921875 
L 50.6875 72.90625 
L 61.28125 72.90625 
L 35.5 34.71875 
L 35.5 0 
L 25.59375 0 
L 25.59375 34.71875 
z
" id="DejaVuSans-89"/>
      <path d="M 56.203125 29.59375 
L 56.203125 25.203125 
L 14.890625 25.203125 
Q 15.484375 15.921875 20.484375 11.0625 
Q 25.484375 6.203125 34.421875 6.203125 
Q 39.59375 6.203125 44.453125 7.46875 
Q 49.3125 8.734375 54.109375 11.28125 
L 54.109375 2.78125 
Q 49.265625 0.734375 44.1875 -0.34375 
Q 39.109375 -1.421875 33.890625 -1.421875 
Q 20.796875 -1.421875 13.15625 6.1875 
Q 5.515625 13.8125 5.515625 26.8125 
Q 5.515625 40.234375 12.765625 48.109375 
Q 20.015625 56 32.328125 56 
Q 43.359375 56 49.78125 48.890625 
Q 56.203125 41.796875 56.203125 29.59375 
z
M 47.21875 32.234375 
Q 47.125 39.59375 43.09375 43.984375 
Q 39.0625 48.390625 32.421875 48.390625 
Q 24.90625 48.390625 20.390625 44.140625 
Q 15.875 39.890625 15.1875 32.171875 
z
" id="DejaVuSans-101"/>
      <path d="M 34.28125 27.484375 
Q 23.390625 27.484375 19.1875 25 
Q 14.984375 22.515625 14.984375 16.5 
Q 14.984375 11.71875 18.140625 8.90625 
Q 21.296875 6.109375 26.703125 6.109375 
Q 34.1875 6.109375 38.703125 11.40625 
Q 43.21875 16.703125 43.21875 25.484375 
L 43.21875 27.484375 
z
M 52.203125 31.203125 
L 52.203125 0 
L 43.21875 0 
L 43.21875 8.296875 
Q 40.140625 3.328125 35.546875 0.953125 
Q 30.953125 -1.421875 24.3125 -1.421875 
Q 15.921875 -1.421875 10.953125 3.296875 
Q 6 8.015625 6 15.921875 
Q 6 25.140625 12.171875 29.828125 
Q 18.359375 34.515625 30.609375 34.515625 
L 43.21875 34.515625 
L 43.21875 35.40625 
Q 43.21875 41.609375 39.140625 45 
Q 35.0625 48.390625 27.6875 48.390625 
Q 23 48.390625 18.546875 47.265625 
Q 14.109375 46.140625 10.015625 43.890625 
L 10.015625 52.203125 
Q 14.9375 54.109375 19.578125 55.046875 
Q 24.21875 56 28.609375 56 
Q 40.484375 56 46.34375 49.84375 
Q 52.203125 43.703125 52.203125 31.203125 
z
" id="DejaVuSans-97"/>
      <path d="M 41.109375 46.296875 
Q 39.59375 47.171875 37.8125 47.578125 
Q 36.03125 48 33.890625 48 
Q 26.265625 48 22.1875 43.046875 
Q 18.109375 38.09375 18.109375 28.8125 
L 18.109375 0 
L 9.078125 0 
L 9.078125 54.6875 
L 18.109375 54.6875 
L 18.109375 46.1875 
Q 20.953125 51.171875 25.484375 53.578125 
Q 30.03125 56 36.53125 56 
Q 37.453125 56 38.578125 55.875 
Q 39.703125 55.765625 41.0625 55.515625 
z
" id="DejaVuSans-114"/>
     </defs>
     <g transform="translate(250.425859 255.185031)scale(0.11 -0.11)">
      <use xlink:href="#DejaVuSans-89"/>
      <use x="60.880859" xlink:href="#DejaVuSans-101"/>
      <use x="122.404297" xlink:href="#DejaVuSans-97"/>
      <use x="183.683594" xlink:href="#DejaVuSans-114"/>
     </g>
    </g>
   </g>
   <g id="matplotlib.axis_2">
    <g id="ytick_1">
     <g id="line2d_23">
      <path clip-path="url(#p47ad1219c6)" d="M 46.789687 218.88 
L 493.189687 218.88 
" style="fill:none;stroke:#e5e5e5;stroke-width:0.8;"/>
     </g>
     <g id="line2d_24">
      <path d="M 46.789687 218.88 
" style="fill:none;stroke:#000000;stroke-width:1.5;"/>
      <defs>
       <path d="M 0 0 
L -2.75 0 
" id="mf17b8ae01d" style="stroke:#000000;"/>
      </defs>
      <g>
       <use style="stroke:#000000;" x="46.789687" xlink:href="#mf17b8ae01d" y="218.88"/>
      </g>
     </g>
     <g id="text_8">
      <!-- 0 -->
      <g style="fill:#4d4d4d;" transform="translate(36.240687 221.30825)scale(0.088 -0.088)">
       <use xlink:href="#DejaVuSans-48"/>
      </g>
     </g>
    </g>
    <g id="ytick_2">
     <g id="line2d_25">
      <path clip-path="url(#p47ad1219c6)" d="M 46.789687 168.48 
L 493.189687 168.48 
" style="fill:none;stroke:#e5e5e5;stroke-width:0.8;"/>
     </g>
     <g id="line2d_26">
      <path d="M 46.789687 168.48 
" style="fill:none;stroke:#000000;stroke-width:1.5;"/>
      <g>
       <use style="stroke:#000000;" x="46.789687" xlink:href="#mf17b8ae01d" y="168.48"/>
      </g>
     </g>
     <g id="text_9">
      <!-- 0.25 -->
      <defs>
       <path d="M 10.6875 12.40625 
L 21 12.40625 
L 21 0 
L 10.6875 0 
z
" id="DejaVuSans-46"/>
       <path d="M 10.796875 72.90625 
L 49.515625 72.90625 
L 49.515625 64.59375 
L 19.828125 64.59375 
L 19.828125 46.734375 
Q 21.96875 47.46875 24.109375 47.828125 
Q 26.265625 48.1875 28.421875 48.1875 
Q 40.625 48.1875 47.75 41.5 
Q 54.890625 34.8125 54.890625 23.390625 
Q 54.890625 11.625 47.5625 5.09375 
Q 40.234375 -1.421875 26.90625 -1.421875 
Q 22.3125 -1.421875 17.546875 -0.640625 
Q 12.796875 0.140625 7.71875 1.703125 
L 7.71875 11.625 
Q 12.109375 9.234375 16.796875 8.0625 
Q 21.484375 6.890625 26.703125 6.890625 
Q 35.15625 6.890625 40.078125 11.328125 
Q 45.015625 15.765625 45.015625 23.390625 
Q 45.015625 31 40.078125 35.4375 
Q 35.15625 39.890625 26.703125 39.890625 
Q 22.75 39.890625 18.8125 39.015625 
Q 14.890625 38.140625 10.796875 36.28125 
z
" id="DejaVuSans-53"/>
      </defs>
      <g style="fill:#4d4d4d;" transform="translate(22.245937 170.90825)scale(0.088 -0.088)">
       <use xlink:href="#DejaVuSans-48"/>
       <use x="63.623047" xlink:href="#DejaVuSans-46"/>
       <use x="95.410156" xlink:href="#DejaVuSans-50"/>
       <use x="159.033203" xlink:href="#DejaVuSans-53"/>
      </g>
     </g>
    </g>
    <g id="ytick_3">
     <g id="line2d_27">
      <path clip-path="url(#p47ad1219c6)" d="M 46.789687 118.08 
L 493.189687 118.08 
" style="fill:none;stroke:#e5e5e5;stroke-width:0.8;"/>
     </g>
     <g id="line2d_28">
      <path d="M 46.789687 118.08 
" style="fill:none;stroke:#000000;stroke-width:1.5;"/>
      <g>
       <use style="stroke:#000000;" x="46.789687" xlink:href="#mf17b8ae01d" y="118.08"/>
      </g>
     </g>
     <g id="text_10">
      <!-- 0.50 -->
      <g style="fill:#4d4d4d;" transform="translate(22.245937 120.50825)scale(0.088 -0.088)">
       <use xlink:href="#DejaVuSans-48"/>
       <use x="63.623047" xlink:href="#DejaVuSans-46"/>
       <use x="95.410156" xlink:href="#DejaVuSans-53"/>
       <use x="159.033203" xlink:href="#DejaVuSans-48"/>
      </g>
     </g>
    </g>
    <g id="ytick_4">
     <g id="line2d_29">
      <path clip-path="url(#p47ad1219c6)" d="M 46.789687 67.68 
L 493.189687 67.68 
" style="fill:none;stroke:#e5e5e5;stroke-width:0.8;"/>
     </g>
     <g id="line2d_30">
      <path d="M 46.789687 67.68 
" style="fill:none;stroke:#000000;stroke-width:1.5;"/>
      <g>
       <use style="stroke:#000000;" x="46.789687" xlink:href="#mf17b8ae01d" y="67.68"/>
      </g>
     </g>
     <g id="text_11">
      <!-- 0.75 -->
      <g style="fill:#4d4d4d;" transform="translate(22.245937 70.10825)scale(0.088 -0.088)">
       <use xlink:href="#DejaVuSans-48"/>
       <use x="63.623047" xlink:href="#DejaVuSans-46"/>
       <use x="95.410156" xlink:href="#DejaVuSans-55"/>
       <use x="159.033203" xlink:href="#DejaVuSans-53"/>
      </g>
     </g>
    </g>
    <g id="ytick_5">
     <g id="line2d_31">
      <path clip-path="url(#p47ad1219c6)" d="M 46.789687 17.28 
L 493.189687 17.28 
" style="fill:none;stroke:#e5e5e5;stroke-width:0.8;"/>
     </g>
     <g id="line2d_32">
      <path d="M 46.789687 17.28 
" style="fill:none;stroke:#000000;stroke-width:1.5;"/>
      <g>
       <use style="stroke:#000000;" x="46.789687" xlink:href="#mf17b8ae01d" y="17.28"/>
      </g>
     </g>
     <g id="text_12">
      <!-- 1 -->
      <g style="fill:#4d4d4d;" transform="translate(36.240687 19.70825)scale(0.088 -0.088)">
       <use xlink:href="#DejaVuSans-49"/>
      </g>
     </g>
    </g>
    <g id="ytick_6">
     <g id="line2d_33">
      <path clip-path="url(#p47ad1219c6)" d="M 46.789687 193.68 
L 493.189687 193.68 
" style="fill:none;stroke:#fafafa;"/>
     </g>
     <g id="line2d_34">
      <path d="M 46.789687 193.68 
" style="fill:none;stroke:#000000;stroke-width:1.5;"/>
      <defs>
       <path d="M 0 0 
L -1.375 0 
" id="mb3f430d34c" style="stroke:#000000;"/>
      </defs>
      <g>
       <use style="stroke:#000000;" x="46.789687" xlink:href="#mb3f430d34c" y="193.68"/>
      </g>
     </g>
    </g>
    <g id="ytick_7">
     <g id="line2d_35">
      <path clip-path="url(#p47ad1219c6)" d="M 46.789687 143.28 
L 493.189687 143.28 
" style="fill:none;stroke:#fafafa;"/>
     </g>
     <g id="line2d_36">
      <path d="M 46.789687 143.28 
" style="fill:none;stroke:#000000;stroke-width:1.5;"/>
      <g>
       <use style="stroke:#000000;" x="46.789687" xlink:href="#mb3f430d34c" y="143.28"/>
      </g>
     </g>
    </g>
    <g id="ytick_8">
     <g id="line2d_37">
      <path clip-path="url(#p47ad1219c6)" d="M 46.789687 92.88 
L 493.189687 92.88 
" style="fill:none;stroke:#fafafa;"/>
     </g>
     <g id="line2d_38">
      <path d="M 46.789687 92.88 
" style="fill:none;stroke:#000000;stroke-width:1.5;"/>
      <g>
       <use style="stroke:#000000;" x="46.789687" xlink:href="#mb3f430d34c" y="92.88"/>
      </g>
     </g>
    </g>
    <g id="ytick_9">
     <g id="line2d_39">
      <path clip-path="url(#p47ad1219c6)" d="M 46.789687 42.48 
L 493.189687 42.48 
" style="fill:none;stroke:#fafafa;"/>
     </g>
     <g id="line2d_40">
      <path d="M 46.789687 42.48 
" style="fill:none;stroke:#000000;stroke-width:1.5;"/>
      <g>
       <use style="stroke:#000000;" x="46.789687" xlink:href="#mb3f430d34c" y="42.48"/>
      </g>
     </g>
    </g>
    <g id="text_13">
     <!-- Q1 percentile -->
     <defs>
      <path d="M 39.40625 66.21875 
Q 28.65625 66.21875 22.328125 58.203125 
Q 16.015625 50.203125 16.015625 36.375 
Q 16.015625 22.609375 22.328125 14.59375 
Q 28.65625 6.59375 39.40625 6.59375 
Q 50.140625 6.59375 56.421875 14.59375 
Q 62.703125 22.609375 62.703125 36.375 
Q 62.703125 50.203125 56.421875 58.203125 
Q 50.140625 66.21875 39.40625 66.21875 
z
M 53.21875 1.3125 
L 66.21875 -12.890625 
L 54.296875 -12.890625 
L 43.5 -1.21875 
Q 41.890625 -1.3125 41.03125 -1.359375 
Q 40.1875 -1.421875 39.40625 -1.421875 
Q 24.03125 -1.421875 14.8125 8.859375 
Q 5.609375 19.140625 5.609375 36.375 
Q 5.609375 53.65625 14.8125 63.9375 
Q 24.03125 74.21875 39.40625 74.21875 
Q 54.734375 74.21875 63.90625 63.9375 
Q 73.09375 53.65625 73.09375 36.375 
Q 73.09375 23.6875 67.984375 14.640625 
Q 62.890625 5.609375 53.21875 1.3125 
z
" id="DejaVuSans-81"/>
      <path id="DejaVuSans-32"/>
      <path d="M 18.109375 8.203125 
L 18.109375 -20.796875 
L 9.078125 -20.796875 
L 9.078125 54.6875 
L 18.109375 54.6875 
L 18.109375 46.390625 
Q 20.953125 51.265625 25.265625 53.625 
Q 29.59375 56 35.59375 56 
Q 45.5625 56 51.78125 48.09375 
Q 58.015625 40.1875 58.015625 27.296875 
Q 58.015625 14.40625 51.78125 6.484375 
Q 45.5625 -1.421875 35.59375 -1.421875 
Q 29.59375 -1.421875 25.265625 0.953125 
Q 20.953125 3.328125 18.109375 8.203125 
z
M 48.6875 27.296875 
Q 48.6875 37.203125 44.609375 42.84375 
Q 40.53125 48.484375 33.40625 48.484375 
Q 26.265625 48.484375 22.1875 42.84375 
Q 18.109375 37.203125 18.109375 27.296875 
Q 18.109375 17.390625 22.1875 11.75 
Q 26.265625 6.109375 33.40625 6.109375 
Q 40.53125 6.109375 44.609375 11.75 
Q 48.6875 17.390625 48.6875 27.296875 
z
" id="DejaVuSans-112"/>
      <path d="M 48.78125 52.59375 
L 48.78125 44.1875 
Q 44.96875 46.296875 41.140625 47.34375 
Q 37.3125 48.390625 33.40625 48.390625 
Q 24.65625 48.390625 19.8125 42.84375 
Q 14.984375 37.3125 14.984375 27.296875 
Q 14.984375 17.28125 19.8125 11.734375 
Q 24.65625 6.203125 33.40625 6.203125 
Q 37.3125 6.203125 41.140625 7.25 
Q 44.96875 8.296875 48.78125 10.40625 
L 48.78125 2.09375 
Q 45.015625 0.34375 40.984375 -0.53125 
Q 36.96875 -1.421875 32.421875 -1.421875 
Q 20.0625 -1.421875 12.78125 6.34375 
Q 5.515625 14.109375 5.515625 27.296875 
Q 5.515625 40.671875 12.859375 48.328125 
Q 20.21875 56 33.015625 56 
Q 37.15625 56 41.109375 55.140625 
Q 45.0625 54.296875 48.78125 52.59375 
z
" id="DejaVuSans-99"/>
      <path d="M 54.890625 33.015625 
L 54.890625 0 
L 45.90625 0 
L 45.90625 32.71875 
Q 45.90625 40.484375 42.875 44.328125 
Q 39.84375 48.1875 33.796875 48.1875 
Q 26.515625 48.1875 22.3125 43.546875 
Q 18.109375 38.921875 18.109375 30.90625 
L 18.109375 0 
L 9.078125 0 
L 9.078125 54.6875 
L 18.109375 54.6875 
L 18.109375 46.1875 
Q 21.34375 51.125 25.703125 53.5625 
Q 30.078125 56 35.796875 56 
Q 45.21875 56 50.046875 50.171875 
Q 54.890625 44.34375 54.890625 33.015625 
z
" id="DejaVuSans-110"/>
      <path d="M 18.3125 70.21875 
L 18.3125 54.6875 
L 36.8125 54.6875 
L 36.8125 47.703125 
L 18.3125 47.703125 
L 18.3125 18.015625 
Q 18.3125 11.328125 20.140625 9.421875 
Q 21.96875 7.515625 27.59375 7.515625 
L 36.8125 7.515625 
L 36.8125 0 
L 27.59375 0 
Q 17.1875 0 13.234375 3.875 
Q 9.28125 7.765625 9.28125 18.015625 
L 9.28125 47.703125 
L 2.6875 47.703125 
L 2.6875 54.6875 
L 9.28125 54.6875 
L 9.28125 70.21875 
z
" id="DejaVuSans-116"/>
      <path d="M 9.421875 54.6875 
L 18.40625 54.6875 
L 18.40625 0 
L 9.421875 0 
z
M 9.421875 75.984375 
L 18.40625 75.984375 
L 18.40625 64.59375 
L 9.421875 64.59375 
z
" id="DejaVuSans-105"/>
      <path d="M 9.421875 75.984375 
L 18.40625 75.984375 
L 18.40625 0 
L 9.421875 0 
z
" id="DejaVuSans-108"/>
     </defs>
     <g transform="translate(15.558281 153.842344)rotate(-90)scale(0.11 -0.11)">
      <use xlink:href="#DejaVuSans-81"/>
      <use x="78.710938" xlink:href="#DejaVuSans-49"/>
      <use x="142.333984" xlink:href="#DejaVuSans-32"/>
      <use x="174.121094" xlink:href="#DejaVuSans-112"/>
      <use x="237.597656" xlink:href="#DejaVuSans-101"/>
      <use x="299.121094" xlink:href="#DejaVuSans-114"/>
      <use x="340.203125" xlink:href="#DejaVuSans-99"/>
      <use x="395.183594" xlink:href="#DejaVuSans-101"/>
      <use x="456.707031" xlink:href="#DejaVuSans-110"/>
      <use x="520.085938" xlink:href="#DejaVuSans-116"/>
      <use x="559.294922" xlink:href="#DejaVuSans-105"/>
      <use x="587.078125" xlink:href="#DejaVuSans-108"/>
      <use x="614.861328" xlink:href="#DejaVuSans-101"/>
     </g>
    </g>
   </g>
   <g id="PathCollection_1">
    <path clip-path="url(#p47ad1219c6)" d="M 83.313324 218.245281 
C 83.783384 218.245281 84.234255 218.058524 84.566638 217.726141 
C 84.899021 217.393758 85.085778 216.942887 85.085778 216.472827 
C 85.085778 216.002767 84.899021 215.551896 84.566638 215.219513 
C 84.234255 214.88713 83.783384 214.700373 83.313324 214.700373 
C 82.843264 214.700373 82.392393 214.88713 82.06001 215.219513 
C 81.727627 215.551896 81.54087 216.002767 81.54087 216.472827 
C 81.54087 216.942887 81.727627 217.393758 82.06001 217.726141 
C 82.392393 218.058524 82.843264 218.245281 83.313324 218.245281 
z
" style="stroke:#000000;stroke-width:0.886227;"/>
    <path clip-path="url(#p47ad1219c6)" d="M 91.429688 212.747642 
C 91.899748 212.747642 92.350619 212.560885 92.683002 212.228502 
C 93.015384 211.896119 93.202141 211.445248 93.202141 210.975188 
C 93.202141 210.505128 93.015384 210.054256 92.683002 209.721874 
C 92.350619 209.389491 91.899748 209.202734 91.429688 209.202734 
C 90.959627 209.202734 90.508756 209.389491 90.176373 209.721874 
C 89.843991 210.054256 89.657234 210.505128 89.657234 210.975188 
C 89.657234 211.445248 89.843991 211.896119 90.176373 212.228502 
C 90.508756 212.560885 90.959627 212.747642 91.429688 212.747642 
z
" style="stroke:#000000;stroke-width:0.886227;"/>
    <path clip-path="url(#p47ad1219c6)" d="M 99.546051 220.351193 
C 100.016111 220.351193 100.466982 220.164436 100.799365 219.832054 
C 101.131748 219.499671 101.318505 219.0488 101.318505 218.57874 
C 101.318505 218.108679 101.131748 217.657808 100.799365 217.325425 
C 100.466982 216.993043 100.016111 216.806286 99.546051 216.806286 
C 99.075991 216.806286 98.62512 216.993043 98.292737 217.325425 
C 97.960354 217.657808 97.773597 218.108679 97.773597 218.57874 
C 97.773597 219.0488 97.960354 219.499671 98.292737 219.832054 
C 98.62512 220.164436 99.075991 220.351193 99.546051 220.351193 
z
" style="stroke:#000000;stroke-width:0.886227;"/>
    <path clip-path="url(#p47ad1219c6)" d="M 107.662415 212.222652 
C 108.132475 212.222652 108.583346 212.035895 108.915729 211.703512 
C 109.248112 211.371129 109.434869 210.920258 109.434869 210.450198 
C 109.434869 209.980138 109.248112 209.529267 108.915729 209.196884 
C 108.583346 208.864501 108.132475 208.677744 107.662415 208.677744 
C 107.192355 208.677744 106.741483 208.864501 106.409101 209.196884 
C 106.076718 209.529267 105.889961 209.980138 105.889961 210.450198 
C 105.889961 210.920258 106.076718 211.371129 106.409101 211.703512 
C 106.741483 212.035895 107.192355 212.222652 107.662415 212.222652 
z
" style="stroke:#000000;stroke-width:0.886227;"/>
    <path clip-path="url(#p47ad1219c6)" d="M 115.778778 211.330673 
C 116.248839 211.330673 116.69971 211.143916 117.032093 210.811533 
C 117.364475 210.479151 117.551232 210.028279 117.551232 209.558219 
C 117.551232 209.088159 117.364475 208.637288 117.032093 208.304905 
C 116.69971 207.972522 116.248839 207.785765 115.778778 207.785765 
C 115.308718 207.785765 114.857847 207.972522 114.525464 208.304905 
C 114.193081 208.637288 114.006325 209.088159 114.006325 209.558219 
C 114.006325 210.028279 114.193081 210.479151 114.525464 210.811533 
C 114.857847 211.143916 115.308718 211.330673 115.778778 211.330673 
z
" style="stroke:#000000;stroke-width:0.886227;"/>
    <path clip-path="url(#p47ad1219c6)" d="M 123.895142 212.246684 
C 124.365202 212.246684 124.816073 212.059927 125.148456 211.727545 
C 125.480839 211.395162 125.667596 210.944291 125.667596 210.474231 
C 125.667596 210.00417 125.480839 209.553299 125.148456 209.220916 
C 124.816073 208.888534 124.365202 208.701777 123.895142 208.701777 
C 123.425082 208.701777 122.974211 208.888534 122.641828 209.220916 
C 122.309445 209.553299 122.122688 210.00417 122.122688 210.474231 
C 122.122688 210.944291 122.309445 211.395162 122.641828 211.727545 
C 122.974211 212.059927 123.425082 212.246684 123.895142 212.246684 
z
" style="stroke:#000000;stroke-width:0.886227;"/>
    <path clip-path="url(#p47ad1219c6)" d="M 132.011506 208.852359 
C 132.481566 208.852359 132.932437 208.665602 133.26482 208.333219 
C 133.597203 208.000836 133.78396 207.549965 133.78396 207.079905 
C 133.78396 206.609844 133.597203 206.158973 133.26482 205.826591 
C 132.932437 205.494208 132.481566 205.307451 132.011506 205.307451 
C 131.541445 205.307451 131.090574 205.494208 130.758192 205.826591 
C 130.425809 206.158973 130.239052 206.609844 130.239052 207.079905 
C 130.239052 207.549965 130.425809 208.000836 130.758192 208.333219 
C 131.090574 208.665602 131.541445 208.852359 132.011506 208.852359 
z
" style="stroke:#000000;stroke-width:0.886227;"/>
    <path clip-path="url(#p47ad1219c6)" d="M 140.127869 164.858873 
C 140.59793 164.858873 141.048801 164.672116 141.381183 164.339733 
C 141.713566 164.007351 141.900323 163.556479 141.900323 163.086419 
C 141.900323 162.616359 141.713566 162.165488 141.381183 161.833105 
C 141.048801 161.500722 140.59793 161.313965 140.127869 161.313965 
C 139.657809 161.313965 139.206938 161.500722 138.874555 161.833105 
C 138.542172 162.165488 138.355415 162.616359 138.355415 163.086419 
C 138.355415 163.556479 138.542172 164.007351 138.874555 164.339733 
C 139.206938 164.672116 139.657809 164.858873 140.127869 164.858873 
z
" style="stroke:#000000;stroke-width:0.886227;"/>
    <path clip-path="url(#p47ad1219c6)" d="M 148.244233 199.560493 
C 148.714293 199.560493 149.165164 199.373736 149.497547 199.041353 
C 149.82993 198.70897 150.016687 198.258099 150.016687 197.788039 
C 150.016687 197.317979 149.82993 196.867108 149.497547 196.534725 
C 149.165164 196.202342 148.714293 196.015585 148.244233 196.015585 
C 147.774173 196.015585 147.323302 196.202342 146.990919 196.534725 
C 146.658536 196.867108 146.471779 197.317979 146.471779 197.788039 
C 146.471779 198.258099 146.658536 198.70897 146.990919 199.041353 
C 147.323302 199.373736 147.774173 199.560493 148.244233 199.560493 
z
" style="stroke:#000000;stroke-width:0.886227;"/>
    <path clip-path="url(#p47ad1219c6)" d="M 156.360597 151.981378 
C 156.830657 151.981378 157.281528 151.794621 157.613911 151.462238 
C 157.946294 151.129856 158.13305 150.678984 158.13305 150.208924 
C 158.13305 149.738864 157.946294 149.287993 157.613911 148.95561 
C 157.281528 148.623227 156.830657 148.43647 156.360597 148.43647 
C 155.890536 148.43647 155.439665 148.623227 155.107282 148.95561 
C 154.7749 149.287993 154.588143 149.738864 154.588143 150.208924 
C 154.588143 150.678984 154.7749 151.129856 155.107282 151.462238 
C 155.439665 151.794621 155.890536 151.981378 156.360597 151.981378 
z
" style="stroke:#000000;stroke-width:0.886227;"/>
    <path clip-path="url(#p47ad1219c6)" d="M 164.47696 156.293027 
C 164.94702 156.293027 165.397892 156.10627 165.730274 155.773887 
C 166.062657 155.441504 166.249414 154.990633 166.249414 154.520573 
C 166.249414 154.050513 166.062657 153.599642 165.730274 153.267259 
C 165.397892 152.934876 164.94702 152.748119 164.47696 152.748119 
C 164.0069 152.748119 163.556029 152.934876 163.223646 153.267259 
C 162.891263 153.599642 162.704506 154.050513 162.704506 154.520573 
C 162.704506 154.990633 162.891263 155.441504 163.223646 155.773887 
C 163.556029 156.10627 164.0069 156.293027 164.47696 156.293027 
z
" style="stroke:#000000;stroke-width:0.886227;"/>
    <path clip-path="url(#p47ad1219c6)" d="M 172.593324 140.042083 
C 173.063384 140.042083 173.514255 139.855326 173.846638 139.522944 
C 174.179021 139.190561 174.365778 138.73969 174.365778 138.26963 
C 174.365778 137.799569 174.179021 137.348698 173.846638 137.016315 
C 173.514255 136.683933 173.063384 136.497176 172.593324 136.497176 
C 172.123264 136.497176 171.672393 136.683933 171.34001 137.016315 
C 171.007627 137.348698 170.82087 137.799569 170.82087 138.26963 
C 170.82087 138.73969 171.007627 139.190561 171.34001 139.522944 
C 171.672393 139.855326 172.123264 140.042083 172.593324 140.042083 
z
" style="stroke:#000000;stroke-width:0.886227;"/>
    <path clip-path="url(#p47ad1219c6)" d="M 180.709687 165.881463 
C 181.179748 165.881463 181.630619 165.694706 181.963002 165.362323 
C 182.295384 165.02994 182.482141 164.579069 182.482141 164.109009 
C 182.482141 163.638948 182.295384 163.188077 181.963002 162.855695 
C 181.630619 162.523312 181.179748 162.336555 180.709687 162.336555 
C 180.239627 162.336555 179.788756 162.523312 179.456373 162.855695 
C 179.123991 163.188077 178.937234 163.638948 178.937234 164.109009 
C 178.937234 164.579069 179.123991 165.02994 179.456373 165.362323 
C 179.788756 165.694706 180.239627 165.881463 180.709687 165.881463 
z
" style="stroke:#000000;stroke-width:0.886227;"/>
    <path clip-path="url(#p47ad1219c6)" d="M 188.826051 139.986246 
C 189.296111 139.986246 189.746982 139.799489 190.079365 139.467106 
C 190.411748 139.134724 190.598505 138.683852 190.598505 138.213792 
C 190.598505 137.743732 190.411748 137.292861 190.079365 136.960478 
C 189.746982 136.628095 189.296111 136.441338 188.826051 136.441338 
C 188.355991 136.441338 187.90512 136.628095 187.572737 136.960478 
C 187.240354 137.292861 187.053597 137.743732 187.053597 138.213792 
C 187.053597 138.683852 187.240354 139.134724 187.572737 139.467106 
C 187.90512 139.799489 188.355991 139.986246 188.826051 139.986246 
z
" style="stroke:#000000;stroke-width:0.886227;"/>
    <path clip-path="url(#p47ad1219c6)" d="M 196.942415 164.20199 
C 197.412475 164.20199 197.863346 164.015233 198.195729 163.68285 
C 198.528112 163.350467 198.714869 162.899596 198.714869 162.429536 
C 198.714869 161.959476 198.528112 161.508605 198.195729 161.176222 
C 197.863346 160.843839 197.412475 160.657082 196.942415 160.657082 
C 196.472355 160.657082 196.021483 160.843839 195.689101 161.176222 
C 195.356718 161.508605 195.169961 161.959476 195.169961 162.429536 
C 195.169961 162.899596 195.356718 163.350467 195.689101 163.68285 
C 196.021483 164.015233 196.472355 164.20199 196.942415 164.20199 
z
" style="stroke:#000000;stroke-width:0.886227;"/>
    <path clip-path="url(#p47ad1219c6)" d="M 205.058778 142.633365 
C 205.528839 142.633365 205.97971 142.446608 206.312093 142.114225 
C 206.644475 141.781843 206.831232 141.330972 206.831232 140.860911 
C 206.831232 140.390851 206.644475 139.93998 206.312093 139.607597 
C 205.97971 139.275214 205.528839 139.088457 205.058778 139.088457 
C 204.588718 139.088457 204.137847 139.275214 203.805464 139.607597 
C 203.473081 139.93998 203.286325 140.390851 203.286325 140.860911 
C 203.286325 141.330972 203.473081 141.781843 203.805464 142.114225 
C 204.137847 142.446608 204.588718 142.633365 205.058778 142.633365 
z
" style="stroke:#000000;stroke-width:0.886227;"/>
    <path clip-path="url(#p47ad1219c6)" d="M 213.175142 170.600727 
C 213.645202 170.600727 214.096073 170.41397 214.428456 170.081587 
C 214.760839 169.749204 214.947596 169.298333 214.947596 168.828273 
C 214.947596 168.358213 214.760839 167.907341 214.428456 167.574959 
C 214.096073 167.242576 213.645202 167.055819 213.175142 167.055819 
C 212.705082 167.055819 212.254211 167.242576 211.921828 167.574959 
C 211.589445 167.907341 211.402688 168.358213 211.402688 168.828273 
C 211.402688 169.298333 211.589445 169.749204 211.921828 170.081587 
C 212.254211 170.41397 212.705082 170.600727 213.175142 170.600727 
z
" style="stroke:#000000;stroke-width:0.886227;"/>
    <path clip-path="url(#p47ad1219c6)" d="M 221.291506 166.560535 
C 221.761566 166.560535 222.212437 166.373778 222.54482 166.041395 
C 222.877203 165.709012 223.06396 165.258141 223.06396 164.788081 
C 223.06396 164.318021 222.877203 163.86715 222.54482 163.534767 
C 222.212437 163.202384 221.761566 163.015627 221.291506 163.015627 
C 220.821445 163.015627 220.370574 163.202384 220.038192 163.534767 
C 219.705809 163.86715 219.519052 164.318021 219.519052 164.788081 
C 219.519052 165.258141 219.705809 165.709012 220.038192 166.041395 
C 220.370574 166.373778 220.821445 166.560535 221.291506 166.560535 
z
" style="stroke:#000000;stroke-width:0.886227;"/>
    <path clip-path="url(#p47ad1219c6)" d="M 229.407869 154.736458 
C 229.87793 154.736458 230.328801 154.549701 230.661183 154.217318 
C 230.993566 153.884936 231.180323 153.434064 231.180323 152.964004 
C 231.180323 152.493944 230.993566 152.043073 230.661183 151.71069 
C 230.328801 151.378307 229.87793 151.19155 229.407869 151.19155 
C 228.937809 151.19155 228.486938 151.378307 228.154555 151.71069 
C 227.822172 152.043073 227.635415 152.493944 227.635415 152.964004 
C 227.635415 153.434064 227.822172 153.884936 228.154555 154.217318 
C 228.486938 154.549701 228.937809 154.736458 229.407869 154.736458 
z
" style="stroke:#000000;stroke-width:0.886227;"/>
    <path clip-path="url(#p47ad1219c6)" d="M 237.524233 146.763352 
C 237.994293 146.763352 238.445164 146.576595 238.777547 146.244212 
C 239.10993 145.911829 239.296687 145.460958 239.296687 144.990898 
C 239.296687 144.520838 239.10993 144.069966 238.777547 143.737584 
C 238.445164 143.405201 237.994293 143.218444 237.524233 143.218444 
C 237.054173 143.218444 236.603302 143.405201 236.270919 143.737584 
C 235.938536 144.069966 235.751779 144.520838 235.751779 144.990898 
C 235.751779 145.460958 235.938536 145.911829 236.270919 146.244212 
C 236.603302 146.576595 237.054173 146.763352 237.524233 146.763352 
z
" style="stroke:#000000;stroke-width:0.886227;"/>
    <path clip-path="url(#p47ad1219c6)" d="M 245.640597 141.300931 
C 246.110657 141.300931 246.561528 141.114174 246.893911 140.781792 
C 247.226294 140.449409 247.41305 139.998538 247.41305 139.528477 
C 247.41305 139.058417 247.226294 138.607546 246.893911 138.275163 
C 246.561528 137.942781 246.110657 137.756024 245.640597 137.756024 
C 245.170536 137.756024 244.719665 137.942781 244.387282 138.275163 
C 244.0549 138.607546 243.868143 139.058417 243.868143 139.528477 
C 243.868143 139.998538 244.0549 140.449409 244.387282 140.781792 
C 244.719665 141.114174 245.170536 141.300931 245.640597 141.300931 
z
" style="stroke:#000000;stroke-width:0.886227;"/>
    <path clip-path="url(#p47ad1219c6)" d="M 253.75696 145.785569 
C 254.22702 145.785569 254.677892 145.598812 255.010274 145.266429 
C 255.342657 144.934046 255.529414 144.483175 255.529414 144.013115 
C 255.529414 143.543055 255.342657 143.092184 255.010274 142.759801 
C 254.677892 142.427418 254.22702 142.240661 253.75696 142.240661 
C 253.2869 142.240661 252.836029 142.427418 252.503646 142.759801 
C 252.171263 143.092184 251.984506 143.543055 251.984506 144.013115 
C 251.984506 144.483175 252.171263 144.934046 252.503646 145.266429 
C 252.836029 145.598812 253.2869 145.785569 253.75696 145.785569 
z
" style="stroke:#000000;stroke-width:0.886227;"/>
    <path clip-path="url(#p47ad1219c6)" d="M 261.873324 144.309648 
C 262.343384 144.309648 262.794255 144.122891 263.126638 143.790509 
C 263.459021 143.458126 263.645778 143.007255 263.645778 142.537194 
C 263.645778 142.067134 263.459021 141.616263 263.126638 141.28388 
C 262.794255 140.951497 262.343384 140.764741 261.873324 140.764741 
C 261.403264 140.764741 260.952393 140.951497 260.62001 141.28388 
C 260.287627 141.616263 260.10087 142.067134 260.10087 142.537194 
C 260.10087 143.007255 260.287627 143.458126 260.62001 143.790509 
C 260.952393 144.122891 261.403264 144.309648 261.873324 144.309648 
z
" style="stroke:#000000;stroke-width:0.886227;"/>
    <path clip-path="url(#p47ad1219c6)" d="M 269.989687 137.089009 
C 270.459748 137.089009 270.910619 136.902252 271.243002 136.569869 
C 271.575384 136.237486 271.762141 135.786615 271.762141 135.316555 
C 271.762141 134.846495 271.575384 134.395624 271.243002 134.063241 
C 270.910619 133.730858 270.459748 133.544101 269.989687 133.544101 
C 269.519627 133.544101 269.068756 133.730858 268.736373 134.063241 
C 268.403991 134.395624 268.217234 134.846495 268.217234 135.316555 
C 268.217234 135.786615 268.403991 136.237486 268.736373 136.569869 
C 269.068756 136.902252 269.519627 137.089009 269.989687 137.089009 
z
" style="stroke:#000000;stroke-width:0.886227;"/>
    <path clip-path="url(#p47ad1219c6)" d="M 278.106051 147.56784 
C 278.576111 147.56784 279.026982 147.381083 279.359365 147.0487 
C 279.691748 146.716317 279.878505 146.265446 279.878505 145.795386 
C 279.878505 145.325325 279.691748 144.874454 279.359365 144.542072 
C 279.026982 144.209689 278.576111 144.022932 278.106051 144.022932 
C 277.635991 144.022932 277.18512 144.209689 276.852737 144.542072 
C 276.520354 144.874454 276.333597 145.325325 276.333597 145.795386 
C 276.333597 146.265446 276.520354 146.716317 276.852737 147.0487 
C 277.18512 147.381083 277.635991 147.56784 278.106051 147.56784 
z
" style="stroke:#000000;stroke-width:0.886227;"/>
    <path clip-path="url(#p47ad1219c6)" d="M 286.222415 145.647057 
C 286.692475 145.647057 287.143346 145.4603 287.475729 145.127917 
C 287.808112 144.795534 287.994869 144.344663 287.994869 143.874603 
C 287.994869 143.404543 287.808112 142.953672 287.475729 142.621289 
C 287.143346 142.288906 286.692475 142.102149 286.222415 142.102149 
C 285.752355 142.102149 285.301483 142.288906 284.969101 142.621289 
C 284.636718 142.953672 284.449961 143.404543 284.449961 143.874603 
C 284.449961 144.344663 284.636718 144.795534 284.969101 145.127917 
C 285.301483 145.4603 285.752355 145.647057 286.222415 145.647057 
z
" style="stroke:#000000;stroke-width:0.886227;"/>
    <path clip-path="url(#p47ad1219c6)" d="M 294.338778 145.207054 
C 294.808839 145.207054 295.25971 145.020297 295.592093 144.687914 
C 295.924475 144.355531 296.111232 143.90466 296.111232 143.4346 
C 296.111232 142.964539 295.924475 142.513668 295.592093 142.181286 
C 295.25971 141.848903 294.808839 141.662146 294.338778 141.662146 
C 293.868718 141.662146 293.417847 141.848903 293.085464 142.181286 
C 292.753081 142.513668 292.566325 142.964539 292.566325 143.4346 
C 292.566325 143.90466 292.753081 144.355531 293.085464 144.687914 
C 293.417847 145.020297 293.868718 145.207054 294.338778 145.207054 
z
" style="stroke:#000000;stroke-width:0.886227;"/>
    <path clip-path="url(#p47ad1219c6)" d="M 302.455142 145.922519 
C 302.925202 145.922519 303.376073 145.735762 303.708456 145.403379 
C 304.040839 145.070996 304.227596 144.620125 304.227596 144.150065 
C 304.227596 143.680004 304.040839 143.229133 303.708456 142.896751 
C 303.376073 142.564368 302.925202 142.377611 302.455142 142.377611 
C 301.985082 142.377611 301.534211 142.564368 301.201828 142.896751 
C 300.869445 143.229133 300.682688 143.680004 300.682688 144.150065 
C 300.682688 144.620125 300.869445 145.070996 301.201828 145.403379 
C 301.534211 145.735762 301.985082 145.922519 302.455142 145.922519 
z
" style="stroke:#000000;stroke-width:0.886227;"/>
    <path clip-path="url(#p47ad1219c6)" d="M 310.571506 150.143658 
C 311.041566 150.143658 311.492437 149.956901 311.82482 149.624518 
C 312.157203 149.292135 312.34396 148.841264 312.34396 148.371204 
C 312.34396 147.901144 312.157203 147.450273 311.82482 147.11789 
C 311.492437 146.785507 311.041566 146.59875 310.571506 146.59875 
C 310.101445 146.59875 309.650574 146.785507 309.318192 147.11789 
C 308.985809 147.450273 308.799052 147.901144 308.799052 148.371204 
C 308.799052 148.841264 308.985809 149.292135 309.318192 149.624518 
C 309.650574 149.956901 310.101445 150.143658 310.571506 150.143658 
z
" style="stroke:#000000;stroke-width:0.886227;"/>
    <path clip-path="url(#p47ad1219c6)" d="M 318.687869 147.081549 
C 319.15793 147.081549 319.608801 146.894792 319.941183 146.562409 
C 320.273566 146.230026 320.460323 145.779155 320.460323 145.309095 
C 320.460323 144.839034 320.273566 144.388163 319.941183 144.055781 
C 319.608801 143.723398 319.15793 143.536641 318.687869 143.536641 
C 318.217809 143.536641 317.766938 143.723398 317.434555 144.055781 
C 317.102172 144.388163 316.915415 144.839034 316.915415 145.309095 
C 316.915415 145.779155 317.102172 146.230026 317.434555 146.562409 
C 317.766938 146.894792 318.217809 147.081549 318.687869 147.081549 
z
" style="stroke:#000000;stroke-width:0.886227;"/>
    <path clip-path="url(#p47ad1219c6)" d="M 326.804233 145.418809 
C 327.274293 145.418809 327.725164 145.232052 328.057547 144.89967 
C 328.38993 144.567287 328.576687 144.116416 328.576687 143.646355 
C 328.576687 143.176295 328.38993 142.725424 328.057547 142.393041 
C 327.725164 142.060658 327.274293 141.873902 326.804233 141.873902 
C 326.334173 141.873902 325.883302 142.060658 325.550919 142.393041 
C 325.218536 142.725424 325.031779 143.176295 325.031779 143.646355 
C 325.031779 144.116416 325.218536 144.567287 325.550919 144.89967 
C 325.883302 145.232052 326.334173 145.418809 326.804233 145.418809 
z
" style="stroke:#000000;stroke-width:0.886227;"/>
    <path clip-path="url(#p47ad1219c6)" d="M 334.920597 143.788243 
C 335.390657 143.788243 335.841528 143.601486 336.173911 143.269103 
C 336.506294 142.93672 336.69305 142.485849 336.69305 142.015789 
C 336.69305 141.545729 336.506294 141.094857 336.173911 140.762475 
C 335.841528 140.430092 335.390657 140.243335 334.920597 140.243335 
C 334.450536 140.243335 333.999665 140.430092 333.667282 140.762475 
C 333.3349 141.094857 333.148143 141.545729 333.148143 142.015789 
C 333.148143 142.485849 333.3349 142.93672 333.667282 143.269103 
C 333.999665 143.601486 334.450536 143.788243 334.920597 143.788243 
z
" style="stroke:#000000;stroke-width:0.886227;"/>
    <path clip-path="url(#p47ad1219c6)" d="M 343.03696 141.748069 
C 343.50702 141.748069 343.957892 141.561312 344.290274 141.22893 
C 344.622657 140.896547 344.809414 140.445676 344.809414 139.975615 
C 344.809414 139.505555 344.622657 139.054684 344.290274 138.722301 
C 343.957892 138.389918 343.50702 138.203162 343.03696 138.203162 
C 342.5669 138.203162 342.116029 138.389918 341.783646 138.722301 
C 341.451263 139.054684 341.264506 139.505555 341.264506 139.975615 
C 341.264506 140.445676 341.451263 140.896547 341.783646 141.22893 
C 342.116029 141.561312 342.5669 141.748069 343.03696 141.748069 
z
" style="stroke:#000000;stroke-width:0.886227;"/>
    <path clip-path="url(#p47ad1219c6)" d="M 351.153324 140.344926 
C 351.623384 140.344926 352.074255 140.158169 352.406638 139.825786 
C 352.739021 139.493404 352.925778 139.042533 352.925778 138.572472 
C 352.925778 138.102412 352.739021 137.651541 352.406638 137.319158 
C 352.074255 136.986775 351.623384 136.800019 351.153324 136.800019 
C 350.683264 136.800019 350.232393 136.986775 349.90001 137.319158 
C 349.567627 137.651541 349.38087 138.102412 349.38087 138.572472 
C 349.38087 139.042533 349.567627 139.493404 349.90001 139.825786 
C 350.232393 140.158169 350.683264 140.344926 351.153324 140.344926 
z
" style="stroke:#000000;stroke-width:0.886227;"/>
    <path clip-path="url(#p47ad1219c6)" d="M 359.269688 138.528334 
C 359.739748 138.528334 360.190619 138.341578 360.523002 138.009195 
C 360.855384 137.676812 361.042141 137.225941 361.042141 136.755881 
C 361.042141 136.28582 360.855384 135.834949 360.523002 135.502566 
C 360.190619 135.170184 359.739748 134.983427 359.269688 134.983427 
C 358.799627 134.983427 358.348756 135.170184 358.016373 135.502566 
C 357.683991 135.834949 357.497234 136.28582 357.497234 136.755881 
C 357.497234 137.225941 357.683991 137.676812 358.016373 138.009195 
C 358.348756 138.341578 358.799627 138.528334 359.269688 138.528334 
z
" style="stroke:#000000;stroke-width:0.886227;"/>
    <path clip-path="url(#p47ad1219c6)" d="M 367.386051 135.885019 
C 367.856111 135.885019 368.306982 135.698262 368.639365 135.36588 
C 368.971748 135.033497 369.158505 134.582626 369.158505 134.112566 
C 369.158505 133.642505 368.971748 133.191634 368.639365 132.859251 
C 368.306982 132.526869 367.856111 132.340112 367.386051 132.340112 
C 366.915991 132.340112 366.46512 132.526869 366.132737 132.859251 
C 365.800354 133.191634 365.613597 133.642505 365.613597 134.112566 
C 365.613597 134.582626 365.800354 135.033497 366.132737 135.36588 
C 366.46512 135.698262 366.915991 135.885019 367.386051 135.885019 
z
" style="stroke:#000000;stroke-width:0.886227;"/>
    <path clip-path="url(#p47ad1219c6)" d="M 375.502415 136.199644 
C 375.972475 136.199644 376.423346 136.012887 376.755729 135.680504 
C 377.088112 135.348121 377.274869 134.89725 377.274869 134.42719 
C 377.274869 133.957129 377.088112 133.506258 376.755729 133.173876 
C 376.423346 132.841493 375.972475 132.654736 375.502415 132.654736 
C 375.032355 132.654736 374.581483 132.841493 374.249101 133.173876 
C 373.916718 133.506258 373.729961 133.957129 373.729961 134.42719 
C 373.729961 134.89725 373.916718 135.348121 374.249101 135.680504 
C 374.581483 136.012887 375.032355 136.199644 375.502415 136.199644 
z
" style="stroke:#000000;stroke-width:0.886227;"/>
    <path clip-path="url(#p47ad1219c6)" d="M 383.618778 132.975015 
C 384.088839 132.975015 384.53971 132.788258 384.872093 132.455875 
C 385.204475 132.123492 385.391232 131.672621 385.391232 131.202561 
C 385.391232 130.732501 385.204475 130.28163 384.872093 129.949247 
C 384.53971 129.616864 384.088839 129.430107 383.618778 129.430107 
C 383.148718 129.430107 382.697847 129.616864 382.365464 129.949247 
C 382.033081 130.28163 381.846325 130.732501 381.846325 131.202561 
C 381.846325 131.672621 382.033081 132.123492 382.365464 132.455875 
C 382.697847 132.788258 383.148718 132.975015 383.618778 132.975015 
z
" style="stroke:#000000;stroke-width:0.886227;"/>
    <path clip-path="url(#p47ad1219c6)" d="M 391.735142 124.098815 
C 392.205202 124.098815 392.656073 123.912058 392.988456 123.579675 
C 393.320839 123.247293 393.507596 122.796422 393.507596 122.326361 
C 393.507596 121.856301 393.320839 121.40543 392.988456 121.073047 
C 392.656073 120.740664 392.205202 120.553907 391.735142 120.553907 
C 391.265082 120.553907 390.814211 120.740664 390.481828 121.073047 
C 390.149445 121.40543 389.962688 121.856301 389.962688 122.326361 
C 389.962688 122.796422 390.149445 123.247293 390.481828 123.579675 
C 390.814211 123.912058 391.265082 124.098815 391.735142 124.098815 
z
" style="stroke:#000000;stroke-width:0.886227;"/>
    <path clip-path="url(#p47ad1219c6)" d="M 399.851506 119.805216 
C 400.321566 119.805216 400.772437 119.618459 401.10482 119.286076 
C 401.437203 118.953693 401.62396 118.502822 401.62396 118.032762 
C 401.62396 117.562702 401.437203 117.111831 401.10482 116.779448 
C 400.772437 116.447065 400.321566 116.260308 399.851506 116.260308 
C 399.381445 116.260308 398.930574 116.447065 398.598192 116.779448 
C 398.265809 117.111831 398.079052 117.562702 398.079052 118.032762 
C 398.079052 118.502822 398.265809 118.953693 398.598192 119.286076 
C 398.930574 119.618459 399.381445 119.805216 399.851506 119.805216 
z
" style="stroke:#000000;stroke-width:0.886227;"/>
    <path clip-path="url(#p47ad1219c6)" d="M 407.967869 115.249311 
C 408.43793 115.249311 408.888801 115.062554 409.221183 114.730172 
C 409.553566 114.397789 409.740323 113.946918 409.740323 113.476858 
C 409.740323 113.006797 409.553566 112.555926 409.221183 112.223543 
C 408.888801 111.891161 408.43793 111.704404 407.967869 111.704404 
C 407.497809 111.704404 407.046938 111.891161 406.714555 112.223543 
C 406.382172 112.555926 406.195415 113.006797 406.195415 113.476858 
C 406.195415 113.946918 406.382172 114.397789 406.714555 114.730172 
C 407.046938 115.062554 407.497809 115.249311 407.967869 115.249311 
z
" style="stroke:#000000;stroke-width:0.886227;"/>
    <path clip-path="url(#p47ad1219c6)" d="M 416.084233 109.154136 
C 416.554293 109.154136 417.005164 108.967379 417.337547 108.634996 
C 417.66993 108.302613 417.856687 107.851742 417.856687 107.381682 
C 417.856687 106.911622 417.66993 106.460751 417.337547 106.128368 
C 417.005164 105.795985 416.554293 105.609228 416.084233 105.609228 
C 415.614173 105.609228 415.163302 105.795985 414.830919 106.128368 
C 414.498536 106.460751 414.311779 106.911622 414.311779 107.381682 
C 414.311779 107.851742 414.498536 108.302613 414.830919 108.634996 
C 415.163302 108.967379 415.614173 109.154136 416.084233 109.154136 
z
" style="stroke:#000000;stroke-width:0.886227;"/>
    <path clip-path="url(#p47ad1219c6)" d="M 424.200597 103.637112 
C 424.670657 103.637112 425.121528 103.450355 425.453911 103.117972 
C 425.786294 102.78559 425.97305 102.334718 425.97305 101.864658 
C 425.97305 101.394598 425.786294 100.943727 425.453911 100.611344 
C 425.121528 100.278961 424.670657 100.092204 424.200597 100.092204 
C 423.730536 100.092204 423.279665 100.278961 422.947282 100.611344 
C 422.6149 100.943727 422.428143 101.394598 422.428143 101.864658 
C 422.428143 102.334718 422.6149 102.78559 422.947282 103.117972 
C 423.279665 103.450355 423.730536 103.637112 424.200597 103.637112 
z
" style="stroke:#000000;stroke-width:0.886227;"/>
    <path clip-path="url(#p47ad1219c6)" d="M 432.31696 100.565732 
C 432.78702 100.565732 433.237892 100.378975 433.570274 100.046593 
C 433.902657 99.71421 434.089414 99.263339 434.089414 98.793278 
C 434.089414 98.323218 433.902657 97.872347 433.570274 97.539964 
C 433.237892 97.207581 432.78702 97.020825 432.31696 97.020825 
C 431.8469 97.020825 431.396029 97.207581 431.063646 97.539964 
C 430.731263 97.872347 430.544506 98.323218 430.544506 98.793278 
C 430.544506 99.263339 430.731263 99.71421 431.063646 100.046593 
C 431.396029 100.378975 431.8469 100.565732 432.31696 100.565732 
z
" style="stroke:#000000;stroke-width:0.886227;"/>
    <path clip-path="url(#p47ad1219c6)" d="M 440.433324 94.311236 
C 440.903384 94.311236 441.354255 94.124479 441.686638 93.792096 
C 442.019021 93.459713 442.205778 93.008842 442.205778 92.538782 
C 442.205778 92.068721 442.019021 91.61785 441.686638 91.285468 
C 441.354255 90.953085 440.903384 90.766328 440.433324 90.766328 
C 439.963264 90.766328 439.512393 90.953085 439.18001 91.285468 
C 438.847627 91.61785 438.66087 92.068721 438.66087 92.538782 
C 438.66087 93.008842 438.847627 93.459713 439.18001 93.792096 
C 439.512393 94.124479 439.963264 94.311236 440.433324 94.311236 
z
" style="stroke:#000000;stroke-width:0.886227;"/>
    <path clip-path="url(#p47ad1219c6)" d="M 448.549687 98.455839 
C 449.019748 98.455839 449.470619 98.269082 449.803002 97.936699 
C 450.135384 97.604316 450.322141 97.153445 450.322141 96.683385 
C 450.322141 96.213325 450.135384 95.762454 449.803002 95.430071 
C 449.470619 95.097688 449.019748 94.910931 448.549687 94.910931 
C 448.079627 94.910931 447.628756 95.097688 447.296373 95.430071 
C 446.963991 95.762454 446.777234 96.213325 446.777234 96.683385 
C 446.777234 97.153445 446.963991 97.604316 447.296373 97.936699 
C 447.628756 98.269082 448.079627 98.455839 448.549687 98.455839 
z
" style="stroke:#000000;stroke-width:0.886227;"/>
    <path clip-path="url(#p47ad1219c6)" d="M 456.666051 100.93814 
C 457.136111 100.93814 457.586982 100.751383 457.919365 100.419 
C 458.251748 100.086617 458.438505 99.635746 458.438505 99.165686 
C 458.438505 98.695626 458.251748 98.244755 457.919365 97.912372 
C 457.586982 97.579989 457.136111 97.393232 456.666051 97.393232 
C 456.195991 97.393232 455.74512 97.579989 455.412737 97.912372 
C 455.080354 98.244755 454.893597 98.695626 454.893597 99.165686 
C 454.893597 99.635746 455.080354 100.086617 455.412737 100.419 
C 455.74512 100.751383 456.195991 100.93814 456.666051 100.93814 
z
" style="stroke:#000000;stroke-width:0.886227;"/>
    <path clip-path="url(#p47ad1219c6)" d="M 464.782415 100.933222 
C 465.252475 100.933222 465.703346 100.746465 466.035729 100.414083 
C 466.368112 100.0817 466.554869 99.630829 466.554869 99.160768 
C 466.554869 98.690708 466.368112 98.239837 466.035729 97.907454 
C 465.703346 97.575071 465.252475 97.388315 464.782415 97.388315 
C 464.312355 97.388315 463.861483 97.575071 463.529101 97.907454 
C 463.196718 98.239837 463.009961 98.690708 463.009961 99.160768 
C 463.009961 99.630829 463.196718 100.0817 463.529101 100.414083 
C 463.861483 100.746465 464.312355 100.933222 464.782415 100.933222 
z
" style="stroke:#000000;stroke-width:0.886227;"/>
   </g>
   <g id="line2d_41">
    <path clip-path="url(#p47ad1219c6)" d="M 83.313324 216.472827 
L 91.429688 210.975188 
L 99.546051 218.57874 
L 107.662415 210.450198 
L 115.778778 209.558219 
L 123.895142 210.474231 
L 132.011506 207.079905 
L 140.127869 163.086419 
L 148.244233 197.788039 
L 156.360597 150.208924 
L 164.47696 154.520573 
L 172.593324 138.26963 
L 180.709687 164.109009 
L 188.826051 138.213792 
L 196.942415 162.429536 
L 205.058778 140.860911 
L 213.175142 168.828273 
L 221.291506 164.788081 
L 229.407869 152.964004 
L 237.524233 144.990898 
L 245.640597 139.528477 
L 253.75696 144.013115 
L 261.873324 142.537194 
L 269.989687 135.316555 
L 278.106051 145.795386 
L 286.222415 143.874603 
L 294.338778 143.4346 
L 302.455142 144.150065 
L 310.571506 148.371204 
L 318.687869 145.309095 
L 326.804233 143.646355 
L 334.920597 142.015789 
L 343.03696 139.975615 
L 351.153324 138.572472 
L 359.269688 136.755881 
L 367.386051 134.112566 
L 375.502415 134.42719 
L 383.618778 131.202561 
L 391.735142 122.326361 
L 399.851506 118.032762 
L 407.967869 113.476858 
L 416.084233 107.381682 
L 424.200597 101.864658 
L 432.31696 98.793278 
L 440.433324 92.538782 
L 448.549687 96.683385 
L 456.666051 99.165686 
L 464.782415 99.160768 
" style="fill:none;stroke:#000000;stroke-width:0.886227;"/>
   </g>
  </g>
 </g>
 <defs>
  <clipPath id="p47ad1219c6">
   <rect height="221.76" width="446.4" x="46.789687" y="7.2"/>
  </clipPath>
 </defs>
</svg>
