<?xml version="1.0" encoding="utf-8" standalone="no"?>
<!DOCTYPE svg PUBLIC "-//W3C//DTD SVG 1.1//EN"
  "http://www.w3.org/Graphics/SVG/1.1/DTD/svg11.dtd">
<!-- Created with matplotlib (https://matplotlib.org/) -->
<svg height="283.578058pt" version="1.1" viewBox="0 0 498.167 283.578058" width="498.167pt" xmlns="http://www.w3.org/2000/svg" xmlns:xlink="http://www.w3.org/1999/xlink">
 <defs>
  <style type="text/css">
*{stroke-linecap:butt;stroke-linejoin:round;}
  </style>
 </defs>
 <g id="figure_1">
  <g id="patch_1">
   <path d="M 0 283.578058 
L 498.167 283.578058 
L 498.167 0 
L 0 0 
z
" style="fill:#ffffff;stroke:#ffffff;stroke-linejoin:miter;"/>
  </g>
  <g id="axes_1">
   <g id="patch_2">
    <path d="M 44.567 247.865371 
L 490.967 247.865371 
L 490.967 26.105371 
L 44.567 26.105371 
z
" style="fill:#ffffff;stroke:#7f7f7f;stroke-linejoin:miter;"/>
   </g>
   <g id="matplotlib.axis_1">
    <g id="xtick_1">
     <g id="line2d_1">
      <path clip-path="url(#p83f8dc34f9)" d="M 64.857909 247.865371 
L 64.857909 26.105371 
" style="fill:none;stroke:#e5e5e5;stroke-width:0.8;"/>
     </g>
     <g id="line2d_2">
      <path d="M 64.857909 247.865371 
" style="fill:none;stroke:#000000;stroke-width:1.5;"/>
      <defs>
       <path d="M 0 0 
L 0 2.75 
" id="m9caccdc6ad" style="stroke:#000000;"/>
      </defs>
      <g>
       <use style="stroke:#000000;" x="64.857909" xlink:href="#m9caccdc6ad" y="247.865371"/>
      </g>
     </g>
     <g id="text_1">
      <!-- 1 -->
      <defs>
       <path d="M 12.40625 8.296875 
L 28.515625 8.296875 
L 28.515625 63.921875 
L 10.984375 60.40625 
L 10.984375 69.390625 
L 28.421875 72.90625 
L 38.28125 72.90625 
L 38.28125 8.296875 
L 54.390625 8.296875 
L 54.390625 0 
L 12.40625 0 
z
" id="DejaVuSans-49"/>
      </defs>
      <g style="fill:#4d4d4d;" transform="translate(62.058409 259.501996)scale(0.088 -0.088)">
       <use xlink:href="#DejaVuSans-49"/>
      </g>
     </g>
    </g>
    <g id="xtick_2">
     <g id="line2d_3">
      <path clip-path="url(#p83f8dc34f9)" d="M 200.130636 247.865371 
L 200.130636 26.105371 
" style="fill:none;stroke:#e5e5e5;stroke-width:0.8;"/>
     </g>
     <g id="line2d_4">
      <path d="M 200.130636 247.865371 
" style="fill:none;stroke:#000000;stroke-width:1.5;"/>
      <g>
       <use style="stroke:#000000;" x="200.130636" xlink:href="#m9caccdc6ad" y="247.865371"/>
      </g>
     </g>
     <g id="text_2">
      <!-- 2 -->
      <defs>
       <path d="M 19.1875 8.296875 
L 53.609375 8.296875 
L 53.609375 0 
L 7.328125 0 
L 7.328125 8.296875 
Q 12.9375 14.109375 22.625 23.890625 
Q 32.328125 33.6875 34.8125 36.53125 
Q 39.546875 41.84375 41.421875 45.53125 
Q 43.3125 49.21875 43.3125 52.78125 
Q 43.3125 58.59375 39.234375 62.25 
Q 35.15625 65.921875 28.609375 65.921875 
Q 23.96875 65.921875 18.8125 64.3125 
Q 13.671875 62.703125 7.8125 59.421875 
L 7.8125 69.390625 
Q 13.765625 71.78125 18.9375 73 
Q 24.125 74.21875 28.421875 74.21875 
Q 39.75 74.21875 46.484375 68.546875 
Q 53.21875 62.890625 53.21875 53.421875 
Q 53.21875 48.921875 51.53125 44.890625 
Q 49.859375 40.875 45.40625 35.40625 
Q 44.1875 33.984375 37.640625 27.21875 
Q 31.109375 20.453125 19.1875 8.296875 
z
" id="DejaVuSans-50"/>
      </defs>
      <g style="fill:#4d4d4d;" transform="translate(197.331136 259.501996)scale(0.088 -0.088)">
       <use xlink:href="#DejaVuSans-50"/>
      </g>
     </g>
    </g>
    <g id="xtick_3">
     <g id="line2d_5">
      <path clip-path="url(#p83f8dc34f9)" d="M 335.403364 247.865371 
L 335.403364 26.105371 
" style="fill:none;stroke:#e5e5e5;stroke-width:0.8;"/>
     </g>
     <g id="line2d_6">
      <path d="M 335.403364 247.865371 
" style="fill:none;stroke:#000000;stroke-width:1.5;"/>
      <g>
       <use style="stroke:#000000;" x="335.403364" xlink:href="#m9caccdc6ad" y="247.865371"/>
      </g>
     </g>
     <g id="text_3">
      <!-- 3 -->
      <defs>
       <path d="M 40.578125 39.3125 
Q 47.65625 37.796875 51.625 33 
Q 55.609375 28.21875 55.609375 21.1875 
Q 55.609375 10.40625 48.1875 4.484375 
Q 40.765625 -1.421875 27.09375 -1.421875 
Q 22.515625 -1.421875 17.65625 -0.515625 
Q 12.796875 0.390625 7.625 2.203125 
L 7.625 11.71875 
Q 11.71875 9.328125 16.59375 8.109375 
Q 21.484375 6.890625 26.8125 6.890625 
Q 36.078125 6.890625 40.9375 10.546875 
Q 45.796875 14.203125 45.796875 21.1875 
Q 45.796875 27.640625 41.28125 31.265625 
Q 36.765625 34.90625 28.71875 34.90625 
L 20.21875 34.90625 
L 20.21875 43.015625 
L 29.109375 43.015625 
Q 36.375 43.015625 40.234375 45.921875 
Q 44.09375 48.828125 44.09375 54.296875 
Q 44.09375 59.90625 40.109375 62.90625 
Q 36.140625 65.921875 28.71875 65.921875 
Q 24.65625 65.921875 20.015625 65.03125 
Q 15.375 64.15625 9.8125 62.3125 
L 9.8125 71.09375 
Q 15.4375 72.65625 20.34375 73.4375 
Q 25.25 74.21875 29.59375 74.21875 
Q 40.828125 74.21875 47.359375 69.109375 
Q 53.90625 64.015625 53.90625 55.328125 
Q 53.90625 49.265625 50.4375 45.09375 
Q 46.96875 40.921875 40.578125 39.3125 
z
" id="DejaVuSans-51"/>
      </defs>
      <g style="fill:#4d4d4d;" transform="translate(332.603864 259.501996)scale(0.088 -0.088)">
       <use xlink:href="#DejaVuSans-51"/>
      </g>
     </g>
    </g>
    <g id="xtick_4">
     <g id="line2d_7">
      <path clip-path="url(#p83f8dc34f9)" d="M 470.676091 247.865371 
L 470.676091 26.105371 
" style="fill:none;stroke:#e5e5e5;stroke-width:0.8;"/>
     </g>
     <g id="line2d_8">
      <path d="M 470.676091 247.865371 
" style="fill:none;stroke:#000000;stroke-width:1.5;"/>
      <g>
       <use style="stroke:#000000;" x="470.676091" xlink:href="#m9caccdc6ad" y="247.865371"/>
      </g>
     </g>
     <g id="text_4">
      <!-- 4 -->
      <defs>
       <path d="M 37.796875 64.3125 
L 12.890625 25.390625 
L 37.796875 25.390625 
z
M 35.203125 72.90625 
L 47.609375 72.90625 
L 47.609375 25.390625 
L 58.015625 25.390625 
L 58.015625 17.1875 
L 47.609375 17.1875 
L 47.609375 0 
L 37.796875 0 
L 37.796875 17.1875 
L 4.890625 17.1875 
L 4.890625 26.703125 
z
" id="DejaVuSans-52"/>
      </defs>
      <g style="fill:#4d4d4d;" transform="translate(467.876591 259.501996)scale(0.088 -0.088)">
       <use xlink:href="#DejaVuSans-52"/>
      </g>
     </g>
    </g>
    <g id="xtick_5">
     <g id="line2d_9">
      <path clip-path="url(#p83f8dc34f9)" d="M 132.494273 247.865371 
L 132.494273 26.105371 
" style="fill:none;stroke:#fafafa;"/>
     </g>
     <g id="line2d_10">
      <path d="M 132.494273 247.865371 
" style="fill:none;stroke:#000000;stroke-width:1.5;"/>
      <defs>
       <path d="M 0 0 
L 0 1.375 
" id="mb6b54870b6" style="stroke:#000000;"/>
      </defs>
      <g>
       <use style="stroke:#000000;" x="132.494273" xlink:href="#mb6b54870b6" y="247.865371"/>
      </g>
     </g>
    </g>
    <g id="xtick_6">
     <g id="line2d_11">
      <path clip-path="url(#p83f8dc34f9)" d="M 267.767 247.865371 
L 267.767 26.105371 
" style="fill:none;stroke:#fafafa;"/>
     </g>
     <g id="line2d_12">
      <path d="M 267.767 247.865371 
" style="fill:none;stroke:#000000;stroke-width:1.5;"/>
      <g>
       <use style="stroke:#000000;" x="267.767" xlink:href="#mb6b54870b6" y="247.865371"/>
      </g>
     </g>
    </g>
    <g id="xtick_7">
     <g id="line2d_13">
      <path clip-path="url(#p83f8dc34f9)" d="M 403.039727 247.865371 
L 403.039727 26.105371 
" style="fill:none;stroke:#fafafa;"/>
     </g>
     <g id="line2d_14">
      <path d="M 403.039727 247.865371 
" style="fill:none;stroke:#000000;stroke-width:1.5;"/>
      <g>
       <use style="stroke:#000000;" x="403.039727" xlink:href="#mb6b54870b6" y="247.865371"/>
      </g>
     </g>
    </g>
    <g id="text_5">
     <!-- Resolution -->
     <defs>
      <path d="M 44.390625 34.1875 
Q 47.5625 33.109375 50.5625 29.59375 
Q 53.5625 26.078125 56.59375 19.921875 
L 66.609375 0 
L 56 0 
L 46.6875 18.703125 
Q 43.0625 26.03125 39.671875 28.421875 
Q 36.28125 30.8125 30.421875 30.8125 
L 19.671875 30.8125 
L 19.671875 0 
L 9.8125 0 
L 9.8125 72.90625 
L 32.078125 72.90625 
Q 44.578125 72.90625 50.734375 67.671875 
Q 56.890625 62.453125 56.890625 51.90625 
Q 56.890625 45.015625 53.6875 40.46875 
Q 50.484375 35.9375 44.390625 34.1875 
z
M 19.671875 64.796875 
L 19.671875 38.921875 
L 32.078125 38.921875 
Q 39.203125 38.921875 42.84375 42.21875 
Q 46.484375 45.515625 46.484375 51.90625 
Q 46.484375 58.296875 42.84375 61.546875 
Q 39.203125 64.796875 32.078125 64.796875 
z
" id="DejaVuSans-82"/>
      <path d="M 56.203125 29.59375 
L 56.203125 25.203125 
L 14.890625 25.203125 
Q 15.484375 15.921875 20.484375 11.0625 
Q 25.484375 6.203125 34.421875 6.203125 
Q 39.59375 6.203125 44.453125 7.46875 
Q 49.3125 8.734375 54.109375 11.28125 
L 54.109375 2.78125 
Q 49.265625 0.734375 44.1875 -0.34375 
Q 39.109375 -1.421875 33.890625 -1.421875 
Q 20.796875 -1.421875 13.15625 6.1875 
Q 5.515625 13.8125 5.515625 26.8125 
Q 5.515625 40.234375 12.765625 48.109375 
Q 20.015625 56 32.328125 56 
Q 43.359375 56 49.78125 48.890625 
Q 56.203125 41.796875 56.203125 29.59375 
z
M 47.21875 32.234375 
Q 47.125 39.59375 43.09375 43.984375 
Q 39.0625 48.390625 32.421875 48.390625 
Q 24.90625 48.390625 20.390625 44.140625 
Q 15.875 39.890625 15.1875 32.171875 
z
" id="DejaVuSans-101"/>
      <path d="M 44.28125 53.078125 
L 44.28125 44.578125 
Q 40.484375 46.53125 36.375 47.5 
Q 32.28125 48.484375 27.875 48.484375 
Q 21.1875 48.484375 17.84375 46.4375 
Q 14.5 44.390625 14.5 40.28125 
Q 14.5 37.15625 16.890625 35.375 
Q 19.28125 33.59375 26.515625 31.984375 
L 29.59375 31.296875 
Q 39.15625 29.25 43.1875 25.515625 
Q 47.21875 21.78125 47.21875 15.09375 
Q 47.21875 7.46875 41.1875 3.015625 
Q 35.15625 -1.421875 24.609375 -1.421875 
Q 20.21875 -1.421875 15.453125 -0.5625 
Q 10.6875 0.296875 5.421875 2 
L 5.421875 11.28125 
Q 10.40625 8.6875 15.234375 7.390625 
Q 20.0625 6.109375 24.8125 6.109375 
Q 31.15625 6.109375 34.5625 8.28125 
Q 37.984375 10.453125 37.984375 14.40625 
Q 37.984375 18.0625 35.515625 20.015625 
Q 33.0625 21.96875 24.703125 23.78125 
L 21.578125 24.515625 
Q 13.234375 26.265625 9.515625 29.90625 
Q 5.8125 33.546875 5.8125 39.890625 
Q 5.8125 47.609375 11.28125 51.796875 
Q 16.75 56 26.8125 56 
Q 31.78125 56 36.171875 55.265625 
Q 40.578125 54.546875 44.28125 53.078125 
z
" id="DejaVuSans-115"/>
      <path d="M 30.609375 48.390625 
Q 23.390625 48.390625 19.1875 42.75 
Q 14.984375 37.109375 14.984375 27.296875 
Q 14.984375 17.484375 19.15625 11.84375 
Q 23.34375 6.203125 30.609375 6.203125 
Q 37.796875 6.203125 41.984375 11.859375 
Q 46.1875 17.53125 46.1875 27.296875 
Q 46.1875 37.015625 41.984375 42.703125 
Q 37.796875 48.390625 30.609375 48.390625 
z
M 30.609375 56 
Q 42.328125 56 49.015625 48.375 
Q 55.71875 40.765625 55.71875 27.296875 
Q 55.71875 13.875 49.015625 6.21875 
Q 42.328125 -1.421875 30.609375 -1.421875 
Q 18.84375 -1.421875 12.171875 6.21875 
Q 5.515625 13.875 5.515625 27.296875 
Q 5.515625 40.765625 12.171875 48.375 
Q 18.84375 56 30.609375 56 
z
" id="DejaVuSans-111"/>
      <path d="M 9.421875 75.984375 
L 18.40625 75.984375 
L 18.40625 0 
L 9.421875 0 
z
" id="DejaVuSans-108"/>
      <path d="M 8.5 21.578125 
L 8.5 54.6875 
L 17.484375 54.6875 
L 17.484375 21.921875 
Q 17.484375 14.15625 20.5 10.265625 
Q 23.53125 6.390625 29.59375 6.390625 
Q 36.859375 6.390625 41.078125 11.03125 
Q 45.3125 15.671875 45.3125 23.6875 
L 45.3125 54.6875 
L 54.296875 54.6875 
L 54.296875 0 
L 45.3125 0 
L 45.3125 8.40625 
Q 42.046875 3.421875 37.71875 1 
Q 33.40625 -1.421875 27.6875 -1.421875 
Q 18.265625 -1.421875 13.375 4.4375 
Q 8.5 10.296875 8.5 21.578125 
z
M 31.109375 56 
z
" id="DejaVuSans-117"/>
      <path d="M 18.3125 70.21875 
L 18.3125 54.6875 
L 36.8125 54.6875 
L 36.8125 47.703125 
L 18.3125 47.703125 
L 18.3125 18.015625 
Q 18.3125 11.328125 20.140625 9.421875 
Q 21.96875 7.515625 27.59375 7.515625 
L 36.8125 7.515625 
L 36.8125 0 
L 27.59375 0 
Q 17.1875 0 13.234375 3.875 
Q 9.28125 7.765625 9.28125 18.015625 
L 9.28125 47.703125 
L 2.6875 47.703125 
L 2.6875 54.6875 
L 9.28125 54.6875 
L 9.28125 70.21875 
z
" id="DejaVuSans-116"/>
      <path d="M 9.421875 54.6875 
L 18.40625 54.6875 
L 18.40625 0 
L 9.421875 0 
z
M 9.421875 75.984375 
L 18.40625 75.984375 
L 18.40625 64.59375 
L 9.421875 64.59375 
z
" id="DejaVuSans-105"/>
      <path d="M 54.890625 33.015625 
L 54.890625 0 
L 45.90625 0 
L 45.90625 32.71875 
Q 45.90625 40.484375 42.875 44.328125 
Q 39.84375 48.1875 33.796875 48.1875 
Q 26.515625 48.1875 22.3125 43.546875 
Q 18.109375 38.921875 18.109375 30.90625 
L 18.109375 0 
L 9.078125 0 
L 9.078125 54.6875 
L 18.109375 54.6875 
L 18.109375 46.1875 
Q 21.34375 51.125 25.703125 53.5625 
Q 30.078125 56 35.796875 56 
Q 45.21875 56 50.046875 50.171875 
Q 54.890625 44.34375 54.890625 33.015625 
z
" id="DejaVuSans-110"/>
     </defs>
     <g transform="translate(231.585438 274.090402)scale(0.11 -0.11)">
      <use xlink:href="#DejaVuSans-82"/>
      <use x="69.419922" xlink:href="#DejaVuSans-101"/>
      <use x="130.943359" xlink:href="#DejaVuSans-115"/>
      <use x="183.042969" xlink:href="#DejaVuSans-111"/>
      <use x="244.224609" xlink:href="#DejaVuSans-108"/>
      <use x="272.007812" xlink:href="#DejaVuSans-117"/>
      <use x="335.386719" xlink:href="#DejaVuSans-116"/>
      <use x="374.595703" xlink:href="#DejaVuSans-105"/>
      <use x="402.378906" xlink:href="#DejaVuSans-111"/>
      <use x="463.560547" xlink:href="#DejaVuSans-110"/>
     </g>
    </g>
   </g>
   <g id="matplotlib.axis_2">
    <g id="ytick_1">
     <g id="line2d_15">
      <path clip-path="url(#p83f8dc34f9)" d="M 44.567 237.785371 
L 490.967 237.785371 
" style="fill:none;stroke:#e5e5e5;stroke-width:0.8;"/>
     </g>
     <g id="line2d_16">
      <path d="M 44.567 237.785371 
" style="fill:none;stroke:#000000;stroke-width:1.5;"/>
      <defs>
       <path d="M 0 0 
L -2.75 0 
" id="mf779d2dc20" style="stroke:#000000;"/>
      </defs>
      <g>
       <use style="stroke:#000000;" x="44.567" xlink:href="#mf779d2dc20" y="237.785371"/>
      </g>
     </g>
     <g id="text_6">
      <!-- 0 -->
      <defs>
       <path d="M 31.78125 66.40625 
Q 24.171875 66.40625 20.328125 58.90625 
Q 16.5 51.421875 16.5 36.375 
Q 16.5 21.390625 20.328125 13.890625 
Q 24.171875 6.390625 31.78125 6.390625 
Q 39.453125 6.390625 43.28125 13.890625 
Q 47.125 21.390625 47.125 36.375 
Q 47.125 51.421875 43.28125 58.90625 
Q 39.453125 66.40625 31.78125 66.40625 
z
M 31.78125 74.21875 
Q 44.046875 74.21875 50.515625 64.515625 
Q 56.984375 54.828125 56.984375 36.375 
Q 56.984375 17.96875 50.515625 8.265625 
Q 44.046875 -1.421875 31.78125 -1.421875 
Q 19.53125 -1.421875 13.0625 8.265625 
Q 6.59375 17.96875 6.59375 36.375 
Q 6.59375 54.828125 13.0625 64.515625 
Q 19.53125 74.21875 31.78125 74.21875 
z
" id="DejaVuSans-48"/>
      </defs>
      <g style="fill:#4d4d4d;" transform="translate(34.018 240.213621)scale(0.088 -0.088)">
       <use xlink:href="#DejaVuSans-48"/>
      </g>
     </g>
    </g>
    <g id="ytick_2">
     <g id="line2d_17">
      <path clip-path="url(#p83f8dc34f9)" d="M 44.567 187.385371 
L 490.967 187.385371 
" style="fill:none;stroke:#e5e5e5;stroke-width:0.8;"/>
     </g>
     <g id="line2d_18">
      <path d="M 44.567 187.385371 
" style="fill:none;stroke:#000000;stroke-width:1.5;"/>
      <g>
       <use style="stroke:#000000;" x="44.567" xlink:href="#mf779d2dc20" y="187.385371"/>
      </g>
     </g>
     <g id="text_7">
      <!-- 25 -->
      <defs>
       <path d="M 10.796875 72.90625 
L 49.515625 72.90625 
L 49.515625 64.59375 
L 19.828125 64.59375 
L 19.828125 46.734375 
Q 21.96875 47.46875 24.109375 47.828125 
Q 26.265625 48.1875 28.421875 48.1875 
Q 40.625 48.1875 47.75 41.5 
Q 54.890625 34.8125 54.890625 23.390625 
Q 54.890625 11.625 47.5625 5.09375 
Q 40.234375 -1.421875 26.90625 -1.421875 
Q 22.3125 -1.421875 17.546875 -0.640625 
Q 12.796875 0.140625 7.71875 1.703125 
L 7.71875 11.625 
Q 12.109375 9.234375 16.796875 8.0625 
Q 21.484375 6.890625 26.703125 6.890625 
Q 35.15625 6.890625 40.078125 11.328125 
Q 45.015625 15.765625 45.015625 23.390625 
Q 45.015625 31 40.078125 35.4375 
Q 35.15625 39.890625 26.703125 39.890625 
Q 22.75 39.890625 18.8125 39.015625 
Q 14.890625 38.140625 10.796875 36.28125 
z
" id="DejaVuSans-53"/>
      </defs>
      <g style="fill:#4d4d4d;" transform="translate(28.419 189.813621)scale(0.088 -0.088)">
       <use xlink:href="#DejaVuSans-50"/>
       <use x="63.623047" xlink:href="#DejaVuSans-53"/>
      </g>
     </g>
    </g>
    <g id="ytick_3">
     <g id="line2d_19">
      <path clip-path="url(#p83f8dc34f9)" d="M 44.567 136.985371 
L 490.967 136.985371 
" style="fill:none;stroke:#e5e5e5;stroke-width:0.8;"/>
     </g>
     <g id="line2d_20">
      <path d="M 44.567 136.985371 
" style="fill:none;stroke:#000000;stroke-width:1.5;"/>
      <g>
       <use style="stroke:#000000;" x="44.567" xlink:href="#mf779d2dc20" y="136.985371"/>
      </g>
     </g>
     <g id="text_8">
      <!-- 50 -->
      <g style="fill:#4d4d4d;" transform="translate(28.419 139.413621)scale(0.088 -0.088)">
       <use xlink:href="#DejaVuSans-53"/>
       <use x="63.623047" xlink:href="#DejaVuSans-48"/>
      </g>
     </g>
    </g>
    <g id="ytick_4">
     <g id="line2d_21">
      <path clip-path="url(#p83f8dc34f9)" d="M 44.567 86.585371 
L 490.967 86.585371 
" style="fill:none;stroke:#e5e5e5;stroke-width:0.8;"/>
     </g>
     <g id="line2d_22">
      <path d="M 44.567 86.585371 
" style="fill:none;stroke:#000000;stroke-width:1.5;"/>
      <g>
       <use style="stroke:#000000;" x="44.567" xlink:href="#mf779d2dc20" y="86.585371"/>
      </g>
     </g>
     <g id="text_9">
      <!-- 75 -->
      <defs>
       <path d="M 8.203125 72.90625 
L 55.078125 72.90625 
L 55.078125 68.703125 
L 28.609375 0 
L 18.3125 0 
L 43.21875 64.59375 
L 8.203125 64.59375 
z
" id="DejaVuSans-55"/>
      </defs>
      <g style="fill:#4d4d4d;" transform="translate(28.419 89.013621)scale(0.088 -0.088)">
       <use xlink:href="#DejaVuSans-55"/>
       <use x="63.623047" xlink:href="#DejaVuSans-53"/>
      </g>
     </g>
    </g>
    <g id="ytick_5">
     <g id="line2d_23">
      <path clip-path="url(#p83f8dc34f9)" d="M 44.567 36.185371 
L 490.967 36.185371 
" style="fill:none;stroke:#e5e5e5;stroke-width:0.8;"/>
     </g>
     <g id="line2d_24">
      <path d="M 44.567 36.185371 
" style="fill:none;stroke:#000000;stroke-width:1.5;"/>
      <g>
       <use style="stroke:#000000;" x="44.567" xlink:href="#mf779d2dc20" y="36.185371"/>
      </g>
     </g>
     <g id="text_10">
      <!-- 100 -->
      <g style="fill:#4d4d4d;" transform="translate(22.82 38.613621)scale(0.088 -0.088)">
       <use xlink:href="#DejaVuSans-49"/>
       <use x="63.623047" xlink:href="#DejaVuSans-48"/>
       <use x="127.246094" xlink:href="#DejaVuSans-48"/>
      </g>
     </g>
    </g>
    <g id="ytick_6">
     <g id="line2d_25">
      <path clip-path="url(#p83f8dc34f9)" d="M 44.567 212.585371 
L 490.967 212.585371 
" style="fill:none;stroke:#fafafa;"/>
     </g>
     <g id="line2d_26">
      <path d="M 44.567 212.585371 
" style="fill:none;stroke:#000000;stroke-width:1.5;"/>
      <defs>
       <path d="M 0 0 
L -1.375 0 
" id="mf462448e0d" style="stroke:#000000;"/>
      </defs>
      <g>
       <use style="stroke:#000000;" x="44.567" xlink:href="#mf462448e0d" y="212.585371"/>
      </g>
     </g>
    </g>
    <g id="ytick_7">
     <g id="line2d_27">
      <path clip-path="url(#p83f8dc34f9)" d="M 44.567 162.185371 
L 490.967 162.185371 
" style="fill:none;stroke:#fafafa;"/>
     </g>
     <g id="line2d_28">
      <path d="M 44.567 162.185371 
" style="fill:none;stroke:#000000;stroke-width:1.5;"/>
      <g>
       <use style="stroke:#000000;" x="44.567" xlink:href="#mf462448e0d" y="162.185371"/>
      </g>
     </g>
    </g>
    <g id="ytick_8">
     <g id="line2d_29">
      <path clip-path="url(#p83f8dc34f9)" d="M 44.567 111.785371 
L 490.967 111.785371 
" style="fill:none;stroke:#fafafa;"/>
     </g>
     <g id="line2d_30">
      <path d="M 44.567 111.785371 
" style="fill:none;stroke:#000000;stroke-width:1.5;"/>
      <g>
       <use style="stroke:#000000;" x="44.567" xlink:href="#mf462448e0d" y="111.785371"/>
      </g>
     </g>
    </g>
    <g id="ytick_9">
     <g id="line2d_31">
      <path clip-path="url(#p83f8dc34f9)" d="M 44.567 61.385371 
L 490.967 61.385371 
" style="fill:none;stroke:#fafafa;"/>
     </g>
     <g id="line2d_32">
      <path d="M 44.567 61.385371 
" style="fill:none;stroke:#000000;stroke-width:1.5;"/>
      <g>
       <use style="stroke:#000000;" x="44.567" xlink:href="#mf462448e0d" y="61.385371"/>
      </g>
     </g>
    </g>
    <g id="text_11">
     <!-- $P_{Q1}$ [%] -->
     <defs>
      <path d="M 16.890625 72.90625 
L 39.703125 72.90625 
Q 49.65625 72.90625 54.875 68.265625 
Q 60.109375 63.625 60.109375 54.6875 
Q 60.109375 42.671875 52.390625 35.984375 
Q 44.671875 29.296875 30.71875 29.296875 
L 18.3125 29.296875 
L 12.59375 0 
L 2.6875 0 
z
M 25.203125 64.796875 
L 19.921875 37.40625 
L 32.328125 37.40625 
Q 40.71875 37.40625 45.203125 41.703125 
Q 49.703125 46 49.703125 54 
Q 49.703125 59.125 46.65625 61.953125 
Q 43.609375 64.796875 38.09375 64.796875 
z
" id="DejaVuSans-Oblique-80"/>
      <path d="M 36.078125 -1.3125 
Q 35.546875 -1.375 34.953125 -1.390625 
Q 34.375 -1.421875 33.203125 -1.421875 
Q 19.53125 -1.421875 11.8125 6.421875 
Q 4.109375 14.265625 4.109375 28.078125 
Q 4.109375 36.234375 7.0625 44.4375 
Q 10.015625 52.640625 15.28125 59.1875 
Q 21.390625 66.703125 29.03125 70.453125 
Q 36.671875 74.21875 45.90625 74.21875 
Q 59.28125 74.21875 66.984375 66.328125 
Q 74.703125 58.453125 74.703125 44.828125 
Q 74.703125 30.125 66.640625 17.921875 
Q 58.59375 5.71875 45.609375 0.6875 
L 55.515625 -12.890625 
L 44.484375 -12.890625 
z
M 45.609375 66.21875 
Q 37.5 66.21875 31.296875 62.28125 
Q 25.09375 58.34375 20.515625 50.296875 
Q 17.578125 45.171875 16.03125 39.40625 
Q 14.5 33.640625 14.5 27.78125 
Q 14.5 17.625 19.359375 12.109375 
Q 24.21875 6.59375 33.109375 6.59375 
Q 41.109375 6.59375 47.375 10.5625 
Q 53.65625 14.546875 58.109375 22.40625 
Q 61.078125 27.6875 62.640625 33.46875 
Q 64.203125 39.265625 64.203125 45.015625 
Q 64.203125 55.125 59.3125 60.671875 
Q 54.4375 66.21875 45.609375 66.21875 
z
" id="DejaVuSans-Oblique-81"/>
      <path id="DejaVuSans-32"/>
      <path d="M 8.59375 75.984375 
L 29.296875 75.984375 
L 29.296875 69 
L 17.578125 69 
L 17.578125 -6.203125 
L 29.296875 -6.203125 
L 29.296875 -13.1875 
L 8.59375 -13.1875 
z
" id="DejaVuSans-91"/>
      <path d="M 72.703125 32.078125 
Q 68.453125 32.078125 66.03125 28.46875 
Q 63.625 24.859375 63.625 18.40625 
Q 63.625 12.0625 66.03125 8.421875 
Q 68.453125 4.78125 72.703125 4.78125 
Q 76.859375 4.78125 79.265625 8.421875 
Q 81.6875 12.0625 81.6875 18.40625 
Q 81.6875 24.8125 79.265625 28.4375 
Q 76.859375 32.078125 72.703125 32.078125 
z
M 72.703125 38.28125 
Q 80.421875 38.28125 84.953125 32.90625 
Q 89.5 27.546875 89.5 18.40625 
Q 89.5 9.28125 84.9375 3.921875 
Q 80.375 -1.421875 72.703125 -1.421875 
Q 64.890625 -1.421875 60.34375 3.921875 
Q 55.8125 9.28125 55.8125 18.40625 
Q 55.8125 27.59375 60.375 32.9375 
Q 64.9375 38.28125 72.703125 38.28125 
z
M 22.3125 68.015625 
Q 18.109375 68.015625 15.6875 64.375 
Q 13.28125 60.75 13.28125 54.390625 
Q 13.28125 47.953125 15.671875 44.328125 
Q 18.0625 40.71875 22.3125 40.71875 
Q 26.5625 40.71875 28.96875 44.328125 
Q 31.390625 47.953125 31.390625 54.390625 
Q 31.390625 60.6875 28.953125 64.34375 
Q 26.515625 68.015625 22.3125 68.015625 
z
M 66.40625 74.21875 
L 74.21875 74.21875 
L 28.609375 -1.421875 
L 20.796875 -1.421875 
z
M 22.3125 74.21875 
Q 30.03125 74.21875 34.609375 68.875 
Q 39.203125 63.53125 39.203125 54.390625 
Q 39.203125 45.171875 34.640625 39.84375 
Q 30.078125 34.515625 22.3125 34.515625 
Q 14.546875 34.515625 10.03125 39.859375 
Q 5.515625 45.21875 5.515625 54.390625 
Q 5.515625 63.484375 10.046875 68.84375 
Q 14.59375 74.21875 22.3125 74.21875 
z
" id="DejaVuSans-37"/>
      <path d="M 30.421875 75.984375 
L 30.421875 -13.1875 
L 9.71875 -13.1875 
L 9.71875 -6.203125 
L 21.390625 -6.203125 
L 21.390625 69 
L 9.71875 69 
L 9.71875 75.984375 
z
" id="DejaVuSans-93"/>
     </defs>
     <g transform="translate(15.56 155.785371)rotate(-90)scale(0.11 -0.11)">
      <use transform="translate(0 0.015625)" xlink:href="#DejaVuSans-Oblique-80"/>
      <use transform="translate(60.302734 -16.390625)scale(0.7)" xlink:href="#DejaVuSans-Oblique-81"/>
      <use transform="translate(115.400391 -16.390625)scale(0.7)" xlink:href="#DejaVuSans-49"/>
      <use transform="translate(162.670898 0.015625)" xlink:href="#DejaVuSans-32"/>
      <use transform="translate(194.458008 0.015625)" xlink:href="#DejaVuSans-91"/>
      <use transform="translate(233.47168 0.015625)" xlink:href="#DejaVuSans-37"/>
      <use transform="translate(328.491211 0.015625)" xlink:href="#DejaVuSans-93"/>
     </g>
    </g>
   </g>
   <g id="PathCollection_1">
    <path clip-path="url(#p83f8dc34f9)" d="M 64.857909 74.577969 
C 65.327969 74.577969 65.77884 74.391212 66.111223 74.058829 
C 66.443606 73.726446 66.630363 73.275575 66.630363 72.805515 
C 66.630363 72.335455 66.443606 71.884584 66.111223 71.552201 
C 65.77884 71.219818 65.327969 71.033061 64.857909 71.033061 
C 64.387849 71.033061 63.936978 71.219818 63.604595 71.552201 
C 63.272212 71.884584 63.085455 72.335455 63.085455 72.805515 
C 63.085455 73.275575 63.272212 73.726446 63.604595 74.058829 
C 63.936978 74.391212 64.387849 74.577969 64.857909 74.577969 
z
" style="stroke:#000000;stroke-width:0.886227;"/>
    <path clip-path="url(#p83f8dc34f9)" d="M 78.385182 75.512865 
C 78.855242 75.512865 79.306113 75.326108 79.638496 74.993725 
C 79.970879 74.661342 80.157636 74.210471 80.157636 73.740411 
C 80.157636 73.27035 79.970879 72.819479 79.638496 72.487097 
C 79.306113 72.154714 78.855242 71.967957 78.385182 71.967957 
C 77.915122 71.967957 77.46425 72.154714 77.131868 72.487097 
C 76.799485 72.819479 76.612728 73.27035 76.612728 73.740411 
C 76.612728 74.210471 76.799485 74.661342 77.131868 74.993725 
C 77.46425 75.326108 77.915122 75.512865 78.385182 75.512865 
z
" style="stroke:#000000;stroke-width:0.886227;"/>
    <path clip-path="url(#p83f8dc34f9)" d="M 91.912455 81.902109 
C 92.382515 81.902109 92.833386 81.715352 93.165769 81.382969 
C 93.498151 81.050587 93.684908 80.599715 93.684908 80.129655 
C 93.684908 79.659595 93.498151 79.208724 93.165769 78.876341 
C 92.833386 78.543958 92.382515 78.357201 91.912455 78.357201 
C 91.442394 78.357201 90.991523 78.543958 90.65914 78.876341 
C 90.326758 79.208724 90.140001 79.659595 90.140001 80.129655 
C 90.140001 80.599715 90.326758 81.050587 90.65914 81.382969 
C 90.991523 81.715352 91.442394 81.902109 91.912455 81.902109 
z
" style="stroke:#000000;stroke-width:0.886227;"/>
    <path clip-path="url(#p83f8dc34f9)" d="M 105.439727 83.535343 
C 105.909788 83.535343 106.360659 83.348586 106.693041 83.016204 
C 107.025424 82.683821 107.212181 82.23295 107.212181 81.762889 
C 107.212181 81.292829 107.025424 80.841958 106.693041 80.509575 
C 106.360659 80.177193 105.909788 79.990436 105.439727 79.990436 
C 104.969667 79.990436 104.518796 80.177193 104.186413 80.509575 
C 103.85403 80.841958 103.667273 81.292829 103.667273 81.762889 
C 103.667273 82.23295 103.85403 82.683821 104.186413 83.016204 
C 104.518796 83.348586 104.969667 83.535343 105.439727 83.535343 
z
" style="stroke:#000000;stroke-width:0.886227;"/>
    <path clip-path="url(#p83f8dc34f9)" d="M 118.967 91.608899 
C 119.43706 91.608899 119.887931 91.422142 120.220314 91.089759 
C 120.552697 90.757376 120.739454 90.306505 120.739454 89.836445 
C 120.739454 89.366384 120.552697 88.915513 120.220314 88.583131 
C 119.887931 88.250748 119.43706 88.063991 118.967 88.063991 
C 118.49694 88.063991 118.046069 88.250748 117.713686 88.583131 
C 117.381303 88.915513 117.194546 89.366384 117.194546 89.836445 
C 117.194546 90.306505 117.381303 90.757376 117.713686 91.089759 
C 118.046069 91.422142 118.49694 91.608899 118.967 91.608899 
z
" style="stroke:#000000;stroke-width:0.886227;"/>
    <path clip-path="url(#p83f8dc34f9)" d="M 132.494273 98.143592 
C 132.964333 98.143592 133.415204 97.956835 133.747587 97.624452 
C 134.07997 97.292069 134.266727 96.841198 134.266727 96.371138 
C 134.266727 95.901078 134.07997 95.450206 133.747587 95.117824 
C 133.415204 94.785441 132.964333 94.598684 132.494273 94.598684 
C 132.024212 94.598684 131.573341 94.785441 131.240959 95.117824 
C 130.908576 95.450206 130.721819 95.901078 130.721819 96.371138 
C 130.721819 96.841198 130.908576 97.292069 131.240959 97.624452 
C 131.573341 97.956835 132.024212 98.143592 132.494273 98.143592 
z
" style="stroke:#000000;stroke-width:0.886227;"/>
    <path clip-path="url(#p83f8dc34f9)" d="M 146.021545 103.06354 
C 146.491606 103.06354 146.942477 102.876783 147.27486 102.544401 
C 147.607242 102.212018 147.793999 101.761147 147.793999 101.291086 
C 147.793999 100.821026 147.607242 100.370155 147.27486 100.037772 
C 146.942477 99.70539 146.491606 99.518633 146.021545 99.518633 
C 145.551485 99.518633 145.100614 99.70539 144.768231 100.037772 
C 144.435849 100.370155 144.249092 100.821026 144.249092 101.291086 
C 144.249092 101.761147 144.435849 102.212018 144.768231 102.544401 
C 145.100614 102.876783 145.551485 103.06354 146.021545 103.06354 
z
" style="stroke:#000000;stroke-width:0.886227;"/>
    <path clip-path="url(#p83f8dc34f9)" d="M 159.548818 111.156981 
C 160.018878 111.156981 160.46975 110.970224 160.802132 110.637842 
C 161.134515 110.305459 161.321272 109.854588 161.321272 109.384528 
C 161.321272 108.914467 161.134515 108.463596 160.802132 108.131213 
C 160.46975 107.798831 160.018878 107.612074 159.548818 107.612074 
C 159.078758 107.612074 158.627887 107.798831 158.295504 108.131213 
C 157.963121 108.463596 157.776364 108.914467 157.776364 109.384528 
C 157.776364 109.854588 157.963121 110.305459 158.295504 110.637842 
C 158.627887 110.970224 159.078758 111.156981 159.548818 111.156981 
z
" style="stroke:#000000;stroke-width:0.886227;"/>
    <path clip-path="url(#p83f8dc34f9)" d="M 173.076091 114.450062 
C 173.546151 114.450062 173.997022 114.263305 174.329405 113.930923 
C 174.661788 113.59854 174.848545 113.147669 174.848545 112.677608 
C 174.848545 112.207548 174.661788 111.756677 174.329405 111.424294 
C 173.997022 111.091912 173.546151 110.905155 173.076091 110.905155 
C 172.606031 110.905155 172.15516 111.091912 171.822777 111.424294 
C 171.490394 111.756677 171.303637 112.207548 171.303637 112.677608 
C 171.303637 113.147669 171.490394 113.59854 171.822777 113.930923 
C 172.15516 114.263305 172.606031 114.450062 173.076091 114.450062 
z
" style="stroke:#000000;stroke-width:0.886227;"/>
    <path clip-path="url(#p83f8dc34f9)" d="M 186.603364 126.623704 
C 187.073424 126.623704 187.524295 126.436947 187.856678 126.104565 
C 188.189061 125.772182 188.375817 125.321311 188.375817 124.85125 
C 188.375817 124.38119 188.189061 123.930319 187.856678 123.597936 
C 187.524295 123.265554 187.073424 123.078797 186.603364 123.078797 
C 186.133303 123.078797 185.682432 123.265554 185.350049 123.597936 
C 185.017667 123.930319 184.83091 124.38119 184.83091 124.85125 
C 184.83091 125.321311 185.017667 125.772182 185.350049 126.104565 
C 185.682432 126.436947 186.133303 126.623704 186.603364 126.623704 
z
" style="stroke:#000000;stroke-width:0.886227;"/>
    <path clip-path="url(#p83f8dc34f9)" d="M 200.130636 136.220611 
C 200.600697 136.220611 201.051568 136.033854 201.383951 135.701471 
C 201.716333 135.369088 201.90309 134.918217 201.90309 134.448157 
C 201.90309 133.978097 201.716333 133.527226 201.383951 133.194843 
C 201.051568 132.86246 200.600697 132.675703 200.130636 132.675703 
C 199.660576 132.675703 199.209705 132.86246 198.877322 133.194843 
C 198.544939 133.527226 198.358183 133.978097 198.358183 134.448157 
C 198.358183 134.918217 198.544939 135.369088 198.877322 135.701471 
C 199.209705 136.033854 199.660576 136.220611 200.130636 136.220611 
z
" style="stroke:#000000;stroke-width:0.886227;"/>
    <path clip-path="url(#p83f8dc34f9)" d="M 213.657909 143.975327 
C 214.127969 143.975327 214.57884 143.78857 214.911223 143.456187 
C 215.243606 143.123804 215.430363 142.672933 215.430363 142.202873 
C 215.430363 141.732813 215.243606 141.281942 214.911223 140.949559 
C 214.57884 140.617176 214.127969 140.430419 213.657909 140.430419 
C 213.187849 140.430419 212.736978 140.617176 212.404595 140.949559 
C 212.072212 141.281942 211.885455 141.732813 211.885455 142.202873 
C 211.885455 142.672933 212.072212 143.123804 212.404595 143.456187 
C 212.736978 143.78857 213.187849 143.975327 213.657909 143.975327 
z
" style="stroke:#000000;stroke-width:0.886227;"/>
    <path clip-path="url(#p83f8dc34f9)" d="M 227.185182 149.809225 
C 227.655242 149.809225 228.106113 149.622468 228.438496 149.290085 
C 228.770879 148.957702 228.957636 148.506831 228.957636 148.036771 
C 228.957636 147.566711 228.770879 147.11584 228.438496 146.783457 
C 228.106113 146.451074 227.655242 146.264317 227.185182 146.264317 
C 226.715122 146.264317 226.26425 146.451074 225.931868 146.783457 
C 225.599485 147.11584 225.412728 147.566711 225.412728 148.036771 
C 225.412728 148.506831 225.599485 148.957702 225.931868 149.290085 
C 226.26425 149.622468 226.715122 149.809225 227.185182 149.809225 
z
" style="stroke:#000000;stroke-width:0.886227;"/>
    <path clip-path="url(#p83f8dc34f9)" d="M 240.712455 161.812914 
C 241.182515 161.812914 241.633386 161.626157 241.965769 161.293774 
C 242.298151 160.961391 242.484908 160.51052 242.484908 160.04046 
C 242.484908 159.5704 242.298151 159.119529 241.965769 158.787146 
C 241.633386 158.454763 241.182515 158.268006 240.712455 158.268006 
C 240.242394 158.268006 239.791523 158.454763 239.45914 158.787146 
C 239.126758 159.119529 238.940001 159.5704 238.940001 160.04046 
C 238.940001 160.51052 239.126758 160.961391 239.45914 161.293774 
C 239.791523 161.626157 240.242394 161.812914 240.712455 161.812914 
z
" style="stroke:#000000;stroke-width:0.886227;"/>
    <path clip-path="url(#p83f8dc34f9)" d="M 254.239727 162.222894 
C 254.709788 162.222894 255.160659 162.036138 255.493041 161.703755 
C 255.825424 161.371372 256.012181 160.920501 256.012181 160.450441 
C 256.012181 159.98038 255.825424 159.529509 255.493041 159.197126 
C 255.160659 158.864744 254.709788 158.677987 254.239727 158.677987 
C 253.769667 158.677987 253.318796 158.864744 252.986413 159.197126 
C 252.65403 159.529509 252.467273 159.98038 252.467273 160.450441 
C 252.467273 160.920501 252.65403 161.371372 252.986413 161.703755 
C 253.318796 162.036138 253.769667 162.222894 254.239727 162.222894 
z
" style="stroke:#000000;stroke-width:0.886227;"/>
    <path clip-path="url(#p83f8dc34f9)" d="M 267.767 171.646269 
C 268.23706 171.646269 268.687931 171.459512 269.020314 171.12713 
C 269.352697 170.794747 269.539454 170.343876 269.539454 169.873815 
C 269.539454 169.403755 269.352697 168.952884 269.020314 168.620501 
C 268.687931 168.288119 268.23706 168.101362 267.767 168.101362 
C 267.29694 168.101362 266.846069 168.288119 266.513686 168.620501 
C 266.181303 168.952884 265.994546 169.403755 265.994546 169.873815 
C 265.994546 170.343876 266.181303 170.794747 266.513686 171.12713 
C 266.846069 171.459512 267.29694 171.646269 267.767 171.646269 
z
" style="stroke:#000000;stroke-width:0.886227;"/>
    <path clip-path="url(#p83f8dc34f9)" d="M 281.294273 169.982559 
C 281.764333 169.982559 282.215204 169.795802 282.547587 169.463419 
C 282.87997 169.131037 283.066727 168.680165 283.066727 168.210105 
C 283.066727 167.740045 282.87997 167.289174 282.547587 166.956791 
C 282.215204 166.624408 281.764333 166.437651 281.294273 166.437651 
C 280.824212 166.437651 280.373341 166.624408 280.040959 166.956791 
C 279.708576 167.289174 279.521819 167.740045 279.521819 168.210105 
C 279.521819 168.680165 279.708576 169.131037 280.040959 169.463419 
C 280.373341 169.795802 280.824212 169.982559 281.294273 169.982559 
z
" style="stroke:#000000;stroke-width:0.886227;"/>
    <path clip-path="url(#p83f8dc34f9)" d="M 294.821545 175.740524 
C 295.291606 175.740524 295.742477 175.553767 296.07486 175.221384 
C 296.407242 174.889001 296.593999 174.43813 296.593999 173.96807 
C 296.593999 173.49801 296.407242 173.047139 296.07486 172.714756 
C 295.742477 172.382373 295.291606 172.195616 294.821545 172.195616 
C 294.351485 172.195616 293.900614 172.382373 293.568231 172.714756 
C 293.235849 173.047139 293.049092 173.49801 293.049092 173.96807 
C 293.049092 174.43813 293.235849 174.889001 293.568231 175.221384 
C 293.900614 175.553767 294.351485 175.740524 294.821545 175.740524 
z
" style="stroke:#000000;stroke-width:0.886227;"/>
    <path clip-path="url(#p83f8dc34f9)" d="M 308.348818 177.858886 
C 308.818878 177.858886 309.26975 177.67213 309.602132 177.339747 
C 309.934515 177.007364 310.121272 176.556493 310.121272 176.086433 
C 310.121272 175.616372 309.934515 175.165501 309.602132 174.833118 
C 309.26975 174.500736 308.818878 174.313979 308.348818 174.313979 
C 307.878758 174.313979 307.427887 174.500736 307.095504 174.833118 
C 306.763121 175.165501 306.576364 175.616372 306.576364 176.086433 
C 306.576364 176.556493 306.763121 177.007364 307.095504 177.339747 
C 307.427887 177.67213 307.878758 177.858886 308.348818 177.858886 
z
" style="stroke:#000000;stroke-width:0.886227;"/>
    <path clip-path="url(#p83f8dc34f9)" d="M 321.876091 182.326435 
C 322.346151 182.326435 322.797022 182.139679 323.129405 181.807296 
C 323.461788 181.474913 323.648545 181.024042 323.648545 180.553982 
C 323.648545 180.083921 323.461788 179.63305 323.129405 179.300668 
C 322.797022 178.968285 322.346151 178.781528 321.876091 178.781528 
C 321.406031 178.781528 320.95516 178.968285 320.622777 179.300668 
C 320.290394 179.63305 320.103637 180.083921 320.103637 180.553982 
C 320.103637 181.024042 320.290394 181.474913 320.622777 181.807296 
C 320.95516 182.139679 321.406031 182.326435 321.876091 182.326435 
z
" style="stroke:#000000;stroke-width:0.886227;"/>
    <path clip-path="url(#p83f8dc34f9)" d="M 335.403364 174.368691 
C 335.873424 174.368691 336.324295 174.181934 336.656678 173.849551 
C 336.989061 173.517169 337.175817 173.066298 337.175817 172.596237 
C 337.175817 172.126177 336.989061 171.675306 336.656678 171.342923 
C 336.324295 171.01054 335.873424 170.823783 335.403364 170.823783 
C 334.933303 170.823783 334.482432 171.01054 334.150049 171.342923 
C 333.817667 171.675306 333.63091 172.126177 333.63091 172.596237 
C 333.63091 173.066298 333.817667 173.517169 334.150049 173.849551 
C 334.482432 174.181934 334.933303 174.368691 335.403364 174.368691 
z
" style="stroke:#000000;stroke-width:0.886227;"/>
    <path clip-path="url(#p83f8dc34f9)" d="M 348.930636 175.640515 
C 349.400697 175.640515 349.851568 175.453758 350.183951 175.121375 
C 350.516333 174.788992 350.70309 174.338121 350.70309 173.868061 
C 350.70309 173.398001 350.516333 172.94713 350.183951 172.614747 
C 349.851568 172.282364 349.400697 172.095607 348.930636 172.095607 
C 348.460576 172.095607 348.009705 172.282364 347.677322 172.614747 
C 347.344939 172.94713 347.158183 173.398001 347.158183 173.868061 
C 347.158183 174.338121 347.344939 174.788992 347.677322 175.121375 
C 348.009705 175.453758 348.460576 175.640515 348.930636 175.640515 
z
" style="stroke:#000000;stroke-width:0.886227;"/>
    <path clip-path="url(#p83f8dc34f9)" d="M 362.457909 181.045886 
C 362.927969 181.045886 363.37884 180.859129 363.711223 180.526746 
C 364.043606 180.194364 364.230363 179.743492 364.230363 179.273432 
C 364.230363 178.803372 364.043606 178.352501 363.711223 178.020118 
C 363.37884 177.687735 362.927969 177.500978 362.457909 177.500978 
C 361.987849 177.500978 361.536978 177.687735 361.204595 178.020118 
C 360.872212 178.352501 360.685455 178.803372 360.685455 179.273432 
C 360.685455 179.743492 360.872212 180.194364 361.204595 180.526746 
C 361.536978 180.859129 361.987849 181.045886 362.457909 181.045886 
z
" style="stroke:#000000;stroke-width:0.886227;"/>
    <path clip-path="url(#p83f8dc34f9)" d="M 375.985182 188.486625 
C 376.455242 188.486625 376.906113 188.299868 377.238496 187.967485 
C 377.570879 187.635102 377.757636 187.184231 377.757636 186.714171 
C 377.757636 186.244111 377.570879 185.79324 377.238496 185.460857 
C 376.906113 185.128474 376.455242 184.941717 375.985182 184.941717 
C 375.515122 184.941717 375.06425 185.128474 374.731868 185.460857 
C 374.399485 185.79324 374.212728 186.244111 374.212728 186.714171 
C 374.212728 187.184231 374.399485 187.635102 374.731868 187.967485 
C 375.06425 188.299868 375.515122 188.486625 375.985182 188.486625 
z
" style="stroke:#000000;stroke-width:0.886227;"/>
    <path clip-path="url(#p83f8dc34f9)" d="M 389.512455 197.304733 
C 389.982515 197.304733 390.433386 197.117976 390.765769 196.785593 
C 391.098151 196.45321 391.284908 196.002339 391.284908 195.532279 
C 391.284908 195.062219 391.098151 194.611347 390.765769 194.278965 
C 390.433386 193.946582 389.982515 193.759825 389.512455 193.759825 
C 389.042394 193.759825 388.591523 193.946582 388.25914 194.278965 
C 387.926758 194.611347 387.740001 195.062219 387.740001 195.532279 
C 387.740001 196.002339 387.926758 196.45321 388.25914 196.785593 
C 388.591523 197.117976 389.042394 197.304733 389.512455 197.304733 
z
" style="stroke:#000000;stroke-width:0.886227;"/>
    <path clip-path="url(#p83f8dc34f9)" d="M 403.039727 188.853948 
C 403.509788 188.853948 403.960659 188.667191 404.293041 188.334808 
C 404.625424 188.002425 404.812181 187.551554 404.812181 187.081494 
C 404.812181 186.611434 404.625424 186.160563 404.293041 185.82818 
C 403.960659 185.495797 403.509788 185.30904 403.039727 185.30904 
C 402.569667 185.30904 402.118796 185.495797 401.786413 185.82818 
C 401.45403 186.160563 401.267273 186.611434 401.267273 187.081494 
C 401.267273 187.551554 401.45403 188.002425 401.786413 188.334808 
C 402.118796 188.667191 402.569667 188.853948 403.039727 188.853948 
z
" style="stroke:#000000;stroke-width:0.886227;"/>
    <path clip-path="url(#p83f8dc34f9)" d="M 416.567 187.904156 
C 417.03706 187.904156 417.487931 187.717399 417.820314 187.385017 
C 418.152697 187.052634 418.339454 186.601763 418.339454 186.131703 
C 418.339454 185.661642 418.152697 185.210771 417.820314 184.878388 
C 417.487931 184.546006 417.03706 184.359249 416.567 184.359249 
C 416.09694 184.359249 415.646069 184.546006 415.313686 184.878388 
C 414.981303 185.210771 414.794546 185.661642 414.794546 186.131703 
C 414.794546 186.601763 414.981303 187.052634 415.313686 187.385017 
C 415.646069 187.717399 416.09694 187.904156 416.567 187.904156 
z
" style="stroke:#000000;stroke-width:0.886227;"/>
    <path clip-path="url(#p83f8dc34f9)" d="M 430.094273 195.393948 
C 430.564333 195.393948 431.015204 195.207191 431.347587 194.874808 
C 431.67997 194.542425 431.866727 194.091554 431.866727 193.621494 
C 431.866727 193.151434 431.67997 192.700563 431.347587 192.36818 
C 431.015204 192.035797 430.564333 191.84904 430.094273 191.84904 
C 429.624212 191.84904 429.173341 192.035797 428.840959 192.36818 
C 428.508576 192.700563 428.321819 193.151434 428.321819 193.621494 
C 428.321819 194.091554 428.508576 194.542425 428.840959 194.874808 
C 429.173341 195.207191 429.624212 195.393948 430.094273 195.393948 
z
" style="stroke:#000000;stroke-width:0.886227;"/>
    <path clip-path="url(#p83f8dc34f9)" d="M 443.621545 194.559681 
C 444.091606 194.559681 444.542477 194.372924 444.87486 194.040541 
C 445.207242 193.708158 445.393999 193.257287 445.393999 192.787227 
C 445.393999 192.317167 445.207242 191.866296 444.87486 191.533913 
C 444.542477 191.20153 444.091606 191.014773 443.621545 191.014773 
C 443.151485 191.014773 442.700614 191.20153 442.368231 191.533913 
C 442.035849 191.866296 441.849092 192.317167 441.849092 192.787227 
C 441.849092 193.257287 442.035849 193.708158 442.368231 194.040541 
C 442.700614 194.372924 443.151485 194.559681 443.621545 194.559681 
z
" style="stroke:#000000;stroke-width:0.886227;"/>
    <path clip-path="url(#p83f8dc34f9)" d="M 457.148818 201.643973 
C 457.618878 201.643973 458.06975 201.457217 458.402132 201.124834 
C 458.734515 200.792451 458.921272 200.34158 458.921272 199.87152 
C 458.921272 199.401459 458.734515 198.950588 458.402132 198.618205 
C 458.06975 198.285823 457.618878 198.099066 457.148818 198.099066 
C 456.678758 198.099066 456.227887 198.285823 455.895504 198.618205 
C 455.563121 198.950588 455.376364 199.401459 455.376364 199.87152 
C 455.376364 200.34158 455.563121 200.792451 455.895504 201.124834 
C 456.227887 201.457217 456.678758 201.643973 457.148818 201.643973 
z
" style="stroke:#000000;stroke-width:0.886227;"/>
    <path clip-path="url(#p83f8dc34f9)" d="M 470.676091 195.58531 
C 471.146151 195.58531 471.597022 195.398553 471.929405 195.066171 
C 472.261788 194.733788 472.448545 194.282917 472.448545 193.812856 
C 472.448545 193.342796 472.261788 192.891925 471.929405 192.559542 
C 471.597022 192.227159 471.146151 192.040403 470.676091 192.040403 
C 470.206031 192.040403 469.75516 192.227159 469.422777 192.559542 
C 469.090394 192.891925 468.903637 193.342796 468.903637 193.812856 
C 468.903637 194.282917 469.090394 194.733788 469.422777 195.066171 
C 469.75516 195.398553 470.206031 195.58531 470.676091 195.58531 
z
" style="stroke:#000000;stroke-width:0.886227;"/>
   </g>
   <g id="line2d_33">
    <path clip-path="url(#p83f8dc34f9)" d="M 64.857909 72.805515 
L 78.385182 73.740411 
L 91.912455 80.129655 
L 105.439727 81.762889 
L 118.967 89.836445 
L 132.494273 96.371138 
L 146.021545 101.291086 
L 159.548818 109.384528 
L 173.076091 112.677608 
L 186.603364 124.85125 
L 200.130636 134.448157 
L 213.657909 142.202873 
L 227.185182 148.036771 
L 240.712455 160.04046 
L 254.239727 160.450441 
L 267.767 169.873815 
L 281.294273 168.210105 
L 294.821545 173.96807 
L 308.348818 176.086433 
L 321.876091 180.553982 
L 335.403364 172.596237 
L 348.930636 173.868061 
L 362.457909 179.273432 
L 375.985182 186.714171 
L 389.512455 195.532279 
L 403.039727 187.081494 
L 416.567 186.131703 
L 430.094273 193.621494 
L 443.621545 192.787227 
L 457.148818 199.87152 
L 470.676091 193.812856 
" style="fill:none;stroke:#000000;stroke-width:0.886227;"/>
   </g>
  </g>
  <g id="text_12">
   <!-- Protein data without missing values -->
   <defs>
    <path d="M 19.671875 64.796875 
L 19.671875 37.40625 
L 32.078125 37.40625 
Q 38.96875 37.40625 42.71875 40.96875 
Q 46.484375 44.53125 46.484375 51.125 
Q 46.484375 57.671875 42.71875 61.234375 
Q 38.96875 64.796875 32.078125 64.796875 
z
M 9.8125 72.90625 
L 32.078125 72.90625 
Q 44.34375 72.90625 50.609375 67.359375 
Q 56.890625 61.8125 56.890625 51.125 
Q 56.890625 40.328125 50.609375 34.8125 
Q 44.34375 29.296875 32.078125 29.296875 
L 19.671875 29.296875 
L 19.671875 0 
L 9.8125 0 
z
" id="DejaVuSans-80"/>
    <path d="M 41.109375 46.296875 
Q 39.59375 47.171875 37.8125 47.578125 
Q 36.03125 48 33.890625 48 
Q 26.265625 48 22.1875 43.046875 
Q 18.109375 38.09375 18.109375 28.8125 
L 18.109375 0 
L 9.078125 0 
L 9.078125 54.6875 
L 18.109375 54.6875 
L 18.109375 46.1875 
Q 20.953125 51.171875 25.484375 53.578125 
Q 30.03125 56 36.53125 56 
Q 37.453125 56 38.578125 55.875 
Q 39.703125 55.765625 41.0625 55.515625 
z
" id="DejaVuSans-114"/>
    <path d="M 45.40625 46.390625 
L 45.40625 75.984375 
L 54.390625 75.984375 
L 54.390625 0 
L 45.40625 0 
L 45.40625 8.203125 
Q 42.578125 3.328125 38.25 0.953125 
Q 33.9375 -1.421875 27.875 -1.421875 
Q 17.96875 -1.421875 11.734375 6.484375 
Q 5.515625 14.40625 5.515625 27.296875 
Q 5.515625 40.1875 11.734375 48.09375 
Q 17.96875 56 27.875 56 
Q 33.9375 56 38.25 53.625 
Q 42.578125 51.265625 45.40625 46.390625 
z
M 14.796875 27.296875 
Q 14.796875 17.390625 18.875 11.75 
Q 22.953125 6.109375 30.078125 6.109375 
Q 37.203125 6.109375 41.296875 11.75 
Q 45.40625 17.390625 45.40625 27.296875 
Q 45.40625 37.203125 41.296875 42.84375 
Q 37.203125 48.484375 30.078125 48.484375 
Q 22.953125 48.484375 18.875 42.84375 
Q 14.796875 37.203125 14.796875 27.296875 
z
" id="DejaVuSans-100"/>
    <path d="M 34.28125 27.484375 
Q 23.390625 27.484375 19.1875 25 
Q 14.984375 22.515625 14.984375 16.5 
Q 14.984375 11.71875 18.140625 8.90625 
Q 21.296875 6.109375 26.703125 6.109375 
Q 34.1875 6.109375 38.703125 11.40625 
Q 43.21875 16.703125 43.21875 25.484375 
L 43.21875 27.484375 
z
M 52.203125 31.203125 
L 52.203125 0 
L 43.21875 0 
L 43.21875 8.296875 
Q 40.140625 3.328125 35.546875 0.953125 
Q 30.953125 -1.421875 24.3125 -1.421875 
Q 15.921875 -1.421875 10.953125 3.296875 
Q 6 8.015625 6 15.921875 
Q 6 25.140625 12.171875 29.828125 
Q 18.359375 34.515625 30.609375 34.515625 
L 43.21875 34.515625 
L 43.21875 35.40625 
Q 43.21875 41.609375 39.140625 45 
Q 35.0625 48.390625 27.6875 48.390625 
Q 23 48.390625 18.546875 47.265625 
Q 14.109375 46.140625 10.015625 43.890625 
L 10.015625 52.203125 
Q 14.9375 54.109375 19.578125 55.046875 
Q 24.21875 56 28.609375 56 
Q 40.484375 56 46.34375 49.84375 
Q 52.203125 43.703125 52.203125 31.203125 
z
" id="DejaVuSans-97"/>
    <path d="M 4.203125 54.6875 
L 13.1875 54.6875 
L 24.421875 12.015625 
L 35.59375 54.6875 
L 46.1875 54.6875 
L 57.421875 12.015625 
L 68.609375 54.6875 
L 77.59375 54.6875 
L 63.28125 0 
L 52.6875 0 
L 40.921875 44.828125 
L 29.109375 0 
L 18.5 0 
z
" id="DejaVuSans-119"/>
    <path d="M 54.890625 33.015625 
L 54.890625 0 
L 45.90625 0 
L 45.90625 32.71875 
Q 45.90625 40.484375 42.875 44.328125 
Q 39.84375 48.1875 33.796875 48.1875 
Q 26.515625 48.1875 22.3125 43.546875 
Q 18.109375 38.921875 18.109375 30.90625 
L 18.109375 0 
L 9.078125 0 
L 9.078125 75.984375 
L 18.109375 75.984375 
L 18.109375 46.1875 
Q 21.34375 51.125 25.703125 53.5625 
Q 30.078125 56 35.796875 56 
Q 45.21875 56 50.046875 50.171875 
Q 54.890625 44.34375 54.890625 33.015625 
z
" id="DejaVuSans-104"/>
    <path d="M 52 44.1875 
Q 55.375 50.25 60.0625 53.125 
Q 64.75 56 71.09375 56 
Q 79.640625 56 84.28125 50.015625 
Q 88.921875 44.046875 88.921875 33.015625 
L 88.921875 0 
L 79.890625 0 
L 79.890625 32.71875 
Q 79.890625 40.578125 77.09375 44.375 
Q 74.3125 48.1875 68.609375 48.1875 
Q 61.625 48.1875 57.5625 43.546875 
Q 53.515625 38.921875 53.515625 30.90625 
L 53.515625 0 
L 44.484375 0 
L 44.484375 32.71875 
Q 44.484375 40.625 41.703125 44.40625 
Q 38.921875 48.1875 33.109375 48.1875 
Q 26.21875 48.1875 22.15625 43.53125 
Q 18.109375 38.875 18.109375 30.90625 
L 18.109375 0 
L 9.078125 0 
L 9.078125 54.6875 
L 18.109375 54.6875 
L 18.109375 46.1875 
Q 21.1875 51.21875 25.484375 53.609375 
Q 29.78125 56 35.6875 56 
Q 41.65625 56 45.828125 52.96875 
Q 50 49.953125 52 44.1875 
z
" id="DejaVuSans-109"/>
    <path d="M 45.40625 27.984375 
Q 45.40625 37.75 41.375 43.109375 
Q 37.359375 48.484375 30.078125 48.484375 
Q 22.859375 48.484375 18.828125 43.109375 
Q 14.796875 37.75 14.796875 27.984375 
Q 14.796875 18.265625 18.828125 12.890625 
Q 22.859375 7.515625 30.078125 7.515625 
Q 37.359375 7.515625 41.375 12.890625 
Q 45.40625 18.265625 45.40625 27.984375 
z
M 54.390625 6.78125 
Q 54.390625 -7.171875 48.1875 -13.984375 
Q 42 -20.796875 29.203125 -20.796875 
Q 24.46875 -20.796875 20.265625 -20.09375 
Q 16.0625 -19.390625 12.109375 -17.921875 
L 12.109375 -9.1875 
Q 16.0625 -11.328125 19.921875 -12.34375 
Q 23.78125 -13.375 27.78125 -13.375 
Q 36.625 -13.375 41.015625 -8.765625 
Q 45.40625 -4.15625 45.40625 5.171875 
L 45.40625 9.625 
Q 42.625 4.78125 38.28125 2.390625 
Q 33.9375 0 27.875 0 
Q 17.828125 0 11.671875 7.65625 
Q 5.515625 15.328125 5.515625 27.984375 
Q 5.515625 40.671875 11.671875 48.328125 
Q 17.828125 56 27.875 56 
Q 33.9375 56 38.28125 53.609375 
Q 42.625 51.21875 45.40625 46.390625 
L 45.40625 54.6875 
L 54.390625 54.6875 
z
" id="DejaVuSans-103"/>
    <path d="M 2.984375 54.6875 
L 12.5 54.6875 
L 29.59375 8.796875 
L 46.6875 54.6875 
L 56.203125 54.6875 
L 35.6875 0 
L 23.484375 0 
z
" id="DejaVuSans-118"/>
   </defs>
   <g transform="translate(142.296031 17.229938)scale(0.132 -0.132)">
    <use xlink:href="#DejaVuSans-80"/>
    <use x="60.287109" xlink:href="#DejaVuSans-114"/>
    <use x="101.369141" xlink:href="#DejaVuSans-111"/>
    <use x="162.550781" xlink:href="#DejaVuSans-116"/>
    <use x="201.759766" xlink:href="#DejaVuSans-101"/>
    <use x="263.283203" xlink:href="#DejaVuSans-105"/>
    <use x="291.066406" xlink:href="#DejaVuSans-110"/>
    <use x="354.445312" xlink:href="#DejaVuSans-32"/>
    <use x="386.232422" xlink:href="#DejaVuSans-100"/>
    <use x="449.708984" xlink:href="#DejaVuSans-97"/>
    <use x="510.988281" xlink:href="#DejaVuSans-116"/>
    <use x="550.197266" xlink:href="#DejaVuSans-97"/>
    <use x="611.476562" xlink:href="#DejaVuSans-32"/>
    <use x="643.263672" xlink:href="#DejaVuSans-119"/>
    <use x="725.050781" xlink:href="#DejaVuSans-105"/>
    <use x="752.833984" xlink:href="#DejaVuSans-116"/>
    <use x="792.042969" xlink:href="#DejaVuSans-104"/>
    <use x="855.421875" xlink:href="#DejaVuSans-111"/>
    <use x="916.603516" xlink:href="#DejaVuSans-117"/>
    <use x="979.982422" xlink:href="#DejaVuSans-116"/>
    <use x="1019.191406" xlink:href="#DejaVuSans-32"/>
    <use x="1050.978516" xlink:href="#DejaVuSans-109"/>
    <use x="1148.390625" xlink:href="#DejaVuSans-105"/>
    <use x="1176.173828" xlink:href="#DejaVuSans-115"/>
    <use x="1228.273438" xlink:href="#DejaVuSans-115"/>
    <use x="1280.373047" xlink:href="#DejaVuSans-105"/>
    <use x="1308.15625" xlink:href="#DejaVuSans-110"/>
    <use x="1371.535156" xlink:href="#DejaVuSans-103"/>
    <use x="1435.011719" xlink:href="#DejaVuSans-32"/>
    <use x="1466.798828" xlink:href="#DejaVuSans-118"/>
    <use x="1525.978516" xlink:href="#DejaVuSans-97"/>
    <use x="1587.257812" xlink:href="#DejaVuSans-108"/>
    <use x="1615.041016" xlink:href="#DejaVuSans-117"/>
    <use x="1678.419922" xlink:href="#DejaVuSans-101"/>
    <use x="1739.943359" xlink:href="#DejaVuSans-115"/>
   </g>
  </g>
 </g>
 <defs>
  <clipPath id="p83f8dc34f9">
   <rect height="221.76" width="446.4" x="44.567" y="26.105371"/>
  </clipPath>
 </defs>
</svg>
