<?xml version="1.0" encoding="utf-8" standalone="no"?>
<!DOCTYPE svg PUBLIC "-//W3C//DTD SVG 1.1//EN"
  "http://www.w3.org/Graphics/SVG/1.1/DTD/svg11.dtd">
<!-- Created with matplotlib (https://matplotlib.org/) -->
<svg height="283.578058pt" version="1.1" viewBox="0 0 500.389687 283.578058" width="500.389687pt" xmlns="http://www.w3.org/2000/svg" xmlns:xlink="http://www.w3.org/1999/xlink">
 <defs>
  <style type="text/css">
*{stroke-linecap:butt;stroke-linejoin:round;}
  </style>
 </defs>
 <g id="figure_1">
  <g id="patch_1">
   <path d="M 0 283.578058 
L 500.389687 283.578058 
L 500.389687 0 
L 0 0 
z
" style="fill:#ffffff;stroke:#ffffff;stroke-linejoin:miter;"/>
  </g>
  <g id="axes_1">
   <g id="patch_2">
    <path d="M 46.789687 247.865371 
L 493.189687 247.865371 
L 493.189687 26.105371 
L 46.789687 26.105371 
z
" style="fill:#ffffff;stroke:#7f7f7f;stroke-linejoin:miter;"/>
   </g>
   <g id="matplotlib.axis_1">
    <g id="xtick_1">
     <g id="line2d_1">
      <path clip-path="url(#p06653a803d)" d="M 67.080597 247.865371 
L 67.080597 26.105371 
" style="fill:none;stroke:#e5e5e5;stroke-width:0.8;"/>
     </g>
     <g id="line2d_2">
      <path d="M 67.080597 247.865371 
" style="fill:none;stroke:#000000;stroke-width:1.5;"/>
      <defs>
       <path d="M 0 0 
L 0 2.75 
" id="m823d00694b" style="stroke:#000000;"/>
      </defs>
      <g>
       <use style="stroke:#000000;" x="67.080597" xlink:href="#m823d00694b" y="247.865371"/>
      </g>
     </g>
     <g id="text_1">
      <!-- 1 -->
      <defs>
       <path d="M 12.40625 8.296875 
L 28.515625 8.296875 
L 28.515625 63.921875 
L 10.984375 60.40625 
L 10.984375 69.390625 
L 28.421875 72.90625 
L 38.28125 72.90625 
L 38.28125 8.296875 
L 54.390625 8.296875 
L 54.390625 0 
L 12.40625 0 
z
" id="DejaVuSans-49"/>
      </defs>
      <g style="fill:#4d4d4d;" transform="translate(64.281097 259.501996)scale(0.088 -0.088)">
       <use xlink:href="#DejaVuSans-49"/>
      </g>
     </g>
    </g>
    <g id="xtick_2">
     <g id="line2d_3">
      <path clip-path="url(#p06653a803d)" d="M 202.353324 247.865371 
L 202.353324 26.105371 
" style="fill:none;stroke:#e5e5e5;stroke-width:0.8;"/>
     </g>
     <g id="line2d_4">
      <path d="M 202.353324 247.865371 
" style="fill:none;stroke:#000000;stroke-width:1.5;"/>
      <g>
       <use style="stroke:#000000;" x="202.353324" xlink:href="#m823d00694b" y="247.865371"/>
      </g>
     </g>
     <g id="text_2">
      <!-- 2 -->
      <defs>
       <path d="M 19.1875 8.296875 
L 53.609375 8.296875 
L 53.609375 0 
L 7.328125 0 
L 7.328125 8.296875 
Q 12.9375 14.109375 22.625 23.890625 
Q 32.328125 33.6875 34.8125 36.53125 
Q 39.546875 41.84375 41.421875 45.53125 
Q 43.3125 49.21875 43.3125 52.78125 
Q 43.3125 58.59375 39.234375 62.25 
Q 35.15625 65.921875 28.609375 65.921875 
Q 23.96875 65.921875 18.8125 64.3125 
Q 13.671875 62.703125 7.8125 59.421875 
L 7.8125 69.390625 
Q 13.765625 71.78125 18.9375 73 
Q 24.125 74.21875 28.421875 74.21875 
Q 39.75 74.21875 46.484375 68.546875 
Q 53.21875 62.890625 53.21875 53.421875 
Q 53.21875 48.921875 51.53125 44.890625 
Q 49.859375 40.875 45.40625 35.40625 
Q 44.1875 33.984375 37.640625 27.21875 
Q 31.109375 20.453125 19.1875 8.296875 
z
" id="DejaVuSans-50"/>
      </defs>
      <g style="fill:#4d4d4d;" transform="translate(199.553824 259.501996)scale(0.088 -0.088)">
       <use xlink:href="#DejaVuSans-50"/>
      </g>
     </g>
    </g>
    <g id="xtick_3">
     <g id="line2d_5">
      <path clip-path="url(#p06653a803d)" d="M 337.626051 247.865371 
L 337.626051 26.105371 
" style="fill:none;stroke:#e5e5e5;stroke-width:0.8;"/>
     </g>
     <g id="line2d_6">
      <path d="M 337.626051 247.865371 
" style="fill:none;stroke:#000000;stroke-width:1.5;"/>
      <g>
       <use style="stroke:#000000;" x="337.626051" xlink:href="#m823d00694b" y="247.865371"/>
      </g>
     </g>
     <g id="text_3">
      <!-- 3 -->
      <defs>
       <path d="M 40.578125 39.3125 
Q 47.65625 37.796875 51.625 33 
Q 55.609375 28.21875 55.609375 21.1875 
Q 55.609375 10.40625 48.1875 4.484375 
Q 40.765625 -1.421875 27.09375 -1.421875 
Q 22.515625 -1.421875 17.65625 -0.515625 
Q 12.796875 0.390625 7.625 2.203125 
L 7.625 11.71875 
Q 11.71875 9.328125 16.59375 8.109375 
Q 21.484375 6.890625 26.8125 6.890625 
Q 36.078125 6.890625 40.9375 10.546875 
Q 45.796875 14.203125 45.796875 21.1875 
Q 45.796875 27.640625 41.28125 31.265625 
Q 36.765625 34.90625 28.71875 34.90625 
L 20.21875 34.90625 
L 20.21875 43.015625 
L 29.109375 43.015625 
Q 36.375 43.015625 40.234375 45.921875 
Q 44.09375 48.828125 44.09375 54.296875 
Q 44.09375 59.90625 40.109375 62.90625 
Q 36.140625 65.921875 28.71875 65.921875 
Q 24.65625 65.921875 20.015625 65.03125 
Q 15.375 64.15625 9.8125 62.3125 
L 9.8125 71.09375 
Q 15.4375 72.65625 20.34375 73.4375 
Q 25.25 74.21875 29.59375 74.21875 
Q 40.828125 74.21875 47.359375 69.109375 
Q 53.90625 64.015625 53.90625 55.328125 
Q 53.90625 49.265625 50.4375 45.09375 
Q 46.96875 40.921875 40.578125 39.3125 
z
" id="DejaVuSans-51"/>
      </defs>
      <g style="fill:#4d4d4d;" transform="translate(334.826551 259.501996)scale(0.088 -0.088)">
       <use xlink:href="#DejaVuSans-51"/>
      </g>
     </g>
    </g>
    <g id="xtick_4">
     <g id="line2d_7">
      <path clip-path="url(#p06653a803d)" d="M 472.898778 247.865371 
L 472.898778 26.105371 
" style="fill:none;stroke:#e5e5e5;stroke-width:0.8;"/>
     </g>
     <g id="line2d_8">
      <path d="M 472.898778 247.865371 
" style="fill:none;stroke:#000000;stroke-width:1.5;"/>
      <g>
       <use style="stroke:#000000;" x="472.898778" xlink:href="#m823d00694b" y="247.865371"/>
      </g>
     </g>
     <g id="text_4">
      <!-- 4 -->
      <defs>
       <path d="M 37.796875 64.3125 
L 12.890625 25.390625 
L 37.796875 25.390625 
z
M 35.203125 72.90625 
L 47.609375 72.90625 
L 47.609375 25.390625 
L 58.015625 25.390625 
L 58.015625 17.1875 
L 47.609375 17.1875 
L 47.609375 0 
L 37.796875 0 
L 37.796875 17.1875 
L 4.890625 17.1875 
L 4.890625 26.703125 
z
" id="DejaVuSans-52"/>
      </defs>
      <g style="fill:#4d4d4d;" transform="translate(470.099278 259.501996)scale(0.088 -0.088)">
       <use xlink:href="#DejaVuSans-52"/>
      </g>
     </g>
    </g>
    <g id="xtick_5">
     <g id="line2d_9">
      <path clip-path="url(#p06653a803d)" d="M 134.71696 247.865371 
L 134.71696 26.105371 
" style="fill:none;stroke:#fafafa;"/>
     </g>
     <g id="line2d_10">
      <path d="M 134.71696 247.865371 
" style="fill:none;stroke:#000000;stroke-width:1.5;"/>
      <defs>
       <path d="M 0 0 
L 0 1.375 
" id="m0308153eb5" style="stroke:#000000;"/>
      </defs>
      <g>
       <use style="stroke:#000000;" x="134.71696" xlink:href="#m0308153eb5" y="247.865371"/>
      </g>
     </g>
    </g>
    <g id="xtick_6">
     <g id="line2d_11">
      <path clip-path="url(#p06653a803d)" d="M 269.989688 247.865371 
L 269.989688 26.105371 
" style="fill:none;stroke:#fafafa;"/>
     </g>
     <g id="line2d_12">
      <path d="M 269.989688 247.865371 
" style="fill:none;stroke:#000000;stroke-width:1.5;"/>
      <g>
       <use style="stroke:#000000;" x="269.989688" xlink:href="#m0308153eb5" y="247.865371"/>
      </g>
     </g>
    </g>
    <g id="xtick_7">
     <g id="line2d_13">
      <path clip-path="url(#p06653a803d)" d="M 405.262415 247.865371 
L 405.262415 26.105371 
" style="fill:none;stroke:#fafafa;"/>
     </g>
     <g id="line2d_14">
      <path d="M 405.262415 247.865371 
" style="fill:none;stroke:#000000;stroke-width:1.5;"/>
      <g>
       <use style="stroke:#000000;" x="405.262415" xlink:href="#m0308153eb5" y="247.865371"/>
      </g>
     </g>
    </g>
    <g id="text_5">
     <!-- Resolution -->
     <defs>
      <path d="M 44.390625 34.1875 
Q 47.5625 33.109375 50.5625 29.59375 
Q 53.5625 26.078125 56.59375 19.921875 
L 66.609375 0 
L 56 0 
L 46.6875 18.703125 
Q 43.0625 26.03125 39.671875 28.421875 
Q 36.28125 30.8125 30.421875 30.8125 
L 19.671875 30.8125 
L 19.671875 0 
L 9.8125 0 
L 9.8125 72.90625 
L 32.078125 72.90625 
Q 44.578125 72.90625 50.734375 67.671875 
Q 56.890625 62.453125 56.890625 51.90625 
Q 56.890625 45.015625 53.6875 40.46875 
Q 50.484375 35.9375 44.390625 34.1875 
z
M 19.671875 64.796875 
L 19.671875 38.921875 
L 32.078125 38.921875 
Q 39.203125 38.921875 42.84375 42.21875 
Q 46.484375 45.515625 46.484375 51.90625 
Q 46.484375 58.296875 42.84375 61.546875 
Q 39.203125 64.796875 32.078125 64.796875 
z
" id="DejaVuSans-82"/>
      <path d="M 56.203125 29.59375 
L 56.203125 25.203125 
L 14.890625 25.203125 
Q 15.484375 15.921875 20.484375 11.0625 
Q 25.484375 6.203125 34.421875 6.203125 
Q 39.59375 6.203125 44.453125 7.46875 
Q 49.3125 8.734375 54.109375 11.28125 
L 54.109375 2.78125 
Q 49.265625 0.734375 44.1875 -0.34375 
Q 39.109375 -1.421875 33.890625 -1.421875 
Q 20.796875 -1.421875 13.15625 6.1875 
Q 5.515625 13.8125 5.515625 26.8125 
Q 5.515625 40.234375 12.765625 48.109375 
Q 20.015625 56 32.328125 56 
Q 43.359375 56 49.78125 48.890625 
Q 56.203125 41.796875 56.203125 29.59375 
z
M 47.21875 32.234375 
Q 47.125 39.59375 43.09375 43.984375 
Q 39.0625 48.390625 32.421875 48.390625 
Q 24.90625 48.390625 20.390625 44.140625 
Q 15.875 39.890625 15.1875 32.171875 
z
" id="DejaVuSans-101"/>
      <path d="M 44.28125 53.078125 
L 44.28125 44.578125 
Q 40.484375 46.53125 36.375 47.5 
Q 32.28125 48.484375 27.875 48.484375 
Q 21.1875 48.484375 17.84375 46.4375 
Q 14.5 44.390625 14.5 40.28125 
Q 14.5 37.15625 16.890625 35.375 
Q 19.28125 33.59375 26.515625 31.984375 
L 29.59375 31.296875 
Q 39.15625 29.25 43.1875 25.515625 
Q 47.21875 21.78125 47.21875 15.09375 
Q 47.21875 7.46875 41.1875 3.015625 
Q 35.15625 -1.421875 24.609375 -1.421875 
Q 20.21875 -1.421875 15.453125 -0.5625 
Q 10.6875 0.296875 5.421875 2 
L 5.421875 11.28125 
Q 10.40625 8.6875 15.234375 7.390625 
Q 20.0625 6.109375 24.8125 6.109375 
Q 31.15625 6.109375 34.5625 8.28125 
Q 37.984375 10.453125 37.984375 14.40625 
Q 37.984375 18.0625 35.515625 20.015625 
Q 33.0625 21.96875 24.703125 23.78125 
L 21.578125 24.515625 
Q 13.234375 26.265625 9.515625 29.90625 
Q 5.8125 33.546875 5.8125 39.890625 
Q 5.8125 47.609375 11.28125 51.796875 
Q 16.75 56 26.8125 56 
Q 31.78125 56 36.171875 55.265625 
Q 40.578125 54.546875 44.28125 53.078125 
z
" id="DejaVuSans-115"/>
      <path d="M 30.609375 48.390625 
Q 23.390625 48.390625 19.1875 42.75 
Q 14.984375 37.109375 14.984375 27.296875 
Q 14.984375 17.484375 19.15625 11.84375 
Q 23.34375 6.203125 30.609375 6.203125 
Q 37.796875 6.203125 41.984375 11.859375 
Q 46.1875 17.53125 46.1875 27.296875 
Q 46.1875 37.015625 41.984375 42.703125 
Q 37.796875 48.390625 30.609375 48.390625 
z
M 30.609375 56 
Q 42.328125 56 49.015625 48.375 
Q 55.71875 40.765625 55.71875 27.296875 
Q 55.71875 13.875 49.015625 6.21875 
Q 42.328125 -1.421875 30.609375 -1.421875 
Q 18.84375 -1.421875 12.171875 6.21875 
Q 5.515625 13.875 5.515625 27.296875 
Q 5.515625 40.765625 12.171875 48.375 
Q 18.84375 56 30.609375 56 
z
" id="DejaVuSans-111"/>
      <path d="M 9.421875 75.984375 
L 18.40625 75.984375 
L 18.40625 0 
L 9.421875 0 
z
" id="DejaVuSans-108"/>
      <path d="M 8.5 21.578125 
L 8.5 54.6875 
L 17.484375 54.6875 
L 17.484375 21.921875 
Q 17.484375 14.15625 20.5 10.265625 
Q 23.53125 6.390625 29.59375 6.390625 
Q 36.859375 6.390625 41.078125 11.03125 
Q 45.3125 15.671875 45.3125 23.6875 
L 45.3125 54.6875 
L 54.296875 54.6875 
L 54.296875 0 
L 45.3125 0 
L 45.3125 8.40625 
Q 42.046875 3.421875 37.71875 1 
Q 33.40625 -1.421875 27.6875 -1.421875 
Q 18.265625 -1.421875 13.375 4.4375 
Q 8.5 10.296875 8.5 21.578125 
z
M 31.109375 56 
z
" id="DejaVuSans-117"/>
      <path d="M 18.3125 70.21875 
L 18.3125 54.6875 
L 36.8125 54.6875 
L 36.8125 47.703125 
L 18.3125 47.703125 
L 18.3125 18.015625 
Q 18.3125 11.328125 20.140625 9.421875 
Q 21.96875 7.515625 27.59375 7.515625 
L 36.8125 7.515625 
L 36.8125 0 
L 27.59375 0 
Q 17.1875 0 13.234375 3.875 
Q 9.28125 7.765625 9.28125 18.015625 
L 9.28125 47.703125 
L 2.6875 47.703125 
L 2.6875 54.6875 
L 9.28125 54.6875 
L 9.28125 70.21875 
z
" id="DejaVuSans-116"/>
      <path d="M 9.421875 54.6875 
L 18.40625 54.6875 
L 18.40625 0 
L 9.421875 0 
z
M 9.421875 75.984375 
L 18.40625 75.984375 
L 18.40625 64.59375 
L 9.421875 64.59375 
z
" id="DejaVuSans-105"/>
      <path d="M 54.890625 33.015625 
L 54.890625 0 
L 45.90625 0 
L 45.90625 32.71875 
Q 45.90625 40.484375 42.875 44.328125 
Q 39.84375 48.1875 33.796875 48.1875 
Q 26.515625 48.1875 22.3125 43.546875 
Q 18.109375 38.921875 18.109375 30.90625 
L 18.109375 0 
L 9.078125 0 
L 9.078125 54.6875 
L 18.109375 54.6875 
L 18.109375 46.1875 
Q 21.34375 51.125 25.703125 53.5625 
Q 30.078125 56 35.796875 56 
Q 45.21875 56 50.046875 50.171875 
Q 54.890625 44.34375 54.890625 33.015625 
z
" id="DejaVuSans-110"/>
     </defs>
     <g transform="translate(233.808125 274.090402)scale(0.11 -0.11)">
      <use xlink:href="#DejaVuSans-82"/>
      <use x="69.419922" xlink:href="#DejaVuSans-101"/>
      <use x="130.943359" xlink:href="#DejaVuSans-115"/>
      <use x="183.042969" xlink:href="#DejaVuSans-111"/>
      <use x="244.224609" xlink:href="#DejaVuSans-108"/>
      <use x="272.007812" xlink:href="#DejaVuSans-117"/>
      <use x="335.386719" xlink:href="#DejaVuSans-116"/>
      <use x="374.595703" xlink:href="#DejaVuSans-105"/>
      <use x="402.378906" xlink:href="#DejaVuSans-111"/>
      <use x="463.560547" xlink:href="#DejaVuSans-110"/>
     </g>
    </g>
   </g>
   <g id="matplotlib.axis_2">
    <g id="ytick_1">
     <g id="line2d_15">
      <path clip-path="url(#p06653a803d)" d="M 46.789687 237.785371 
L 493.189687 237.785371 
" style="fill:none;stroke:#e5e5e5;stroke-width:0.8;"/>
     </g>
     <g id="line2d_16">
      <path d="M 46.789687 237.785371 
" style="fill:none;stroke:#000000;stroke-width:1.5;"/>
      <defs>
       <path d="M 0 0 
L -2.75 0 
" id="m45398bffc6" style="stroke:#000000;"/>
      </defs>
      <g>
       <use style="stroke:#000000;" x="46.789687" xlink:href="#m45398bffc6" y="237.785371"/>
      </g>
     </g>
     <g id="text_6">
      <!-- 0 -->
      <defs>
       <path d="M 31.78125 66.40625 
Q 24.171875 66.40625 20.328125 58.90625 
Q 16.5 51.421875 16.5 36.375 
Q 16.5 21.390625 20.328125 13.890625 
Q 24.171875 6.390625 31.78125 6.390625 
Q 39.453125 6.390625 43.28125 13.890625 
Q 47.125 21.390625 47.125 36.375 
Q 47.125 51.421875 43.28125 58.90625 
Q 39.453125 66.40625 31.78125 66.40625 
z
M 31.78125 74.21875 
Q 44.046875 74.21875 50.515625 64.515625 
Q 56.984375 54.828125 56.984375 36.375 
Q 56.984375 17.96875 50.515625 8.265625 
Q 44.046875 -1.421875 31.78125 -1.421875 
Q 19.53125 -1.421875 13.0625 8.265625 
Q 6.59375 17.96875 6.59375 36.375 
Q 6.59375 54.828125 13.0625 64.515625 
Q 19.53125 74.21875 31.78125 74.21875 
z
" id="DejaVuSans-48"/>
      </defs>
      <g style="fill:#4d4d4d;" transform="translate(36.240687 240.213621)scale(0.088 -0.088)">
       <use xlink:href="#DejaVuSans-48"/>
      </g>
     </g>
    </g>
    <g id="ytick_2">
     <g id="line2d_17">
      <path clip-path="url(#p06653a803d)" d="M 46.789687 187.385371 
L 493.189687 187.385371 
" style="fill:none;stroke:#e5e5e5;stroke-width:0.8;"/>
     </g>
     <g id="line2d_18">
      <path d="M 46.789687 187.385371 
" style="fill:none;stroke:#000000;stroke-width:1.5;"/>
      <g>
       <use style="stroke:#000000;" x="46.789687" xlink:href="#m45398bffc6" y="187.385371"/>
      </g>
     </g>
     <g id="text_7">
      <!-- 0.25 -->
      <defs>
       <path d="M 10.6875 12.40625 
L 21 12.40625 
L 21 0 
L 10.6875 0 
z
" id="DejaVuSans-46"/>
       <path d="M 10.796875 72.90625 
L 49.515625 72.90625 
L 49.515625 64.59375 
L 19.828125 64.59375 
L 19.828125 46.734375 
Q 21.96875 47.46875 24.109375 47.828125 
Q 26.265625 48.1875 28.421875 48.1875 
Q 40.625 48.1875 47.75 41.5 
Q 54.890625 34.8125 54.890625 23.390625 
Q 54.890625 11.625 47.5625 5.09375 
Q 40.234375 -1.421875 26.90625 -1.421875 
Q 22.3125 -1.421875 17.546875 -0.640625 
Q 12.796875 0.140625 7.71875 1.703125 
L 7.71875 11.625 
Q 12.109375 9.234375 16.796875 8.0625 
Q 21.484375 6.890625 26.703125 6.890625 
Q 35.15625 6.890625 40.078125 11.328125 
Q 45.015625 15.765625 45.015625 23.390625 
Q 45.015625 31 40.078125 35.4375 
Q 35.15625 39.890625 26.703125 39.890625 
Q 22.75 39.890625 18.8125 39.015625 
Q 14.890625 38.140625 10.796875 36.28125 
z
" id="DejaVuSans-53"/>
      </defs>
      <g style="fill:#4d4d4d;" transform="translate(22.245937 189.813621)scale(0.088 -0.088)">
       <use xlink:href="#DejaVuSans-48"/>
       <use x="63.623047" xlink:href="#DejaVuSans-46"/>
       <use x="95.410156" xlink:href="#DejaVuSans-50"/>
       <use x="159.033203" xlink:href="#DejaVuSans-53"/>
      </g>
     </g>
    </g>
    <g id="ytick_3">
     <g id="line2d_19">
      <path clip-path="url(#p06653a803d)" d="M 46.789687 136.985371 
L 493.189687 136.985371 
" style="fill:none;stroke:#e5e5e5;stroke-width:0.8;"/>
     </g>
     <g id="line2d_20">
      <path d="M 46.789687 136.985371 
" style="fill:none;stroke:#000000;stroke-width:1.5;"/>
      <g>
       <use style="stroke:#000000;" x="46.789687" xlink:href="#m45398bffc6" y="136.985371"/>
      </g>
     </g>
     <g id="text_8">
      <!-- 0.50 -->
      <g style="fill:#4d4d4d;" transform="translate(22.245937 139.413621)scale(0.088 -0.088)">
       <use xlink:href="#DejaVuSans-48"/>
       <use x="63.623047" xlink:href="#DejaVuSans-46"/>
       <use x="95.410156" xlink:href="#DejaVuSans-53"/>
       <use x="159.033203" xlink:href="#DejaVuSans-48"/>
      </g>
     </g>
    </g>
    <g id="ytick_4">
     <g id="line2d_21">
      <path clip-path="url(#p06653a803d)" d="M 46.789687 86.585371 
L 493.189687 86.585371 
" style="fill:none;stroke:#e5e5e5;stroke-width:0.8;"/>
     </g>
     <g id="line2d_22">
      <path d="M 46.789687 86.585371 
" style="fill:none;stroke:#000000;stroke-width:1.5;"/>
      <g>
       <use style="stroke:#000000;" x="46.789687" xlink:href="#m45398bffc6" y="86.585371"/>
      </g>
     </g>
     <g id="text_9">
      <!-- 0.75 -->
      <defs>
       <path d="M 8.203125 72.90625 
L 55.078125 72.90625 
L 55.078125 68.703125 
L 28.609375 0 
L 18.3125 0 
L 43.21875 64.59375 
L 8.203125 64.59375 
z
" id="DejaVuSans-55"/>
      </defs>
      <g style="fill:#4d4d4d;" transform="translate(22.245937 89.013621)scale(0.088 -0.088)">
       <use xlink:href="#DejaVuSans-48"/>
       <use x="63.623047" xlink:href="#DejaVuSans-46"/>
       <use x="95.410156" xlink:href="#DejaVuSans-55"/>
       <use x="159.033203" xlink:href="#DejaVuSans-53"/>
      </g>
     </g>
    </g>
    <g id="ytick_5">
     <g id="line2d_23">
      <path clip-path="url(#p06653a803d)" d="M 46.789687 36.185371 
L 493.189687 36.185371 
" style="fill:none;stroke:#e5e5e5;stroke-width:0.8;"/>
     </g>
     <g id="line2d_24">
      <path d="M 46.789687 36.185371 
" style="fill:none;stroke:#000000;stroke-width:1.5;"/>
      <g>
       <use style="stroke:#000000;" x="46.789687" xlink:href="#m45398bffc6" y="36.185371"/>
      </g>
     </g>
     <g id="text_10">
      <!-- 1 -->
      <g style="fill:#4d4d4d;" transform="translate(36.240687 38.613621)scale(0.088 -0.088)">
       <use xlink:href="#DejaVuSans-49"/>
      </g>
     </g>
    </g>
    <g id="ytick_6">
     <g id="line2d_25">
      <path clip-path="url(#p06653a803d)" d="M 46.789687 212.585371 
L 493.189687 212.585371 
" style="fill:none;stroke:#fafafa;"/>
     </g>
     <g id="line2d_26">
      <path d="M 46.789687 212.585371 
" style="fill:none;stroke:#000000;stroke-width:1.5;"/>
      <defs>
       <path d="M 0 0 
L -1.375 0 
" id="mce05a40a6e" style="stroke:#000000;"/>
      </defs>
      <g>
       <use style="stroke:#000000;" x="46.789687" xlink:href="#mce05a40a6e" y="212.585371"/>
      </g>
     </g>
    </g>
    <g id="ytick_7">
     <g id="line2d_27">
      <path clip-path="url(#p06653a803d)" d="M 46.789687 162.185371 
L 493.189687 162.185371 
" style="fill:none;stroke:#fafafa;"/>
     </g>
     <g id="line2d_28">
      <path d="M 46.789687 162.185371 
" style="fill:none;stroke:#000000;stroke-width:1.5;"/>
      <g>
       <use style="stroke:#000000;" x="46.789687" xlink:href="#mce05a40a6e" y="162.185371"/>
      </g>
     </g>
    </g>
    <g id="ytick_8">
     <g id="line2d_29">
      <path clip-path="url(#p06653a803d)" d="M 46.789687 111.785371 
L 493.189687 111.785371 
" style="fill:none;stroke:#fafafa;"/>
     </g>
     <g id="line2d_30">
      <path d="M 46.789687 111.785371 
" style="fill:none;stroke:#000000;stroke-width:1.5;"/>
      <g>
       <use style="stroke:#000000;" x="46.789687" xlink:href="#mce05a40a6e" y="111.785371"/>
      </g>
     </g>
    </g>
    <g id="ytick_9">
     <g id="line2d_31">
      <path clip-path="url(#p06653a803d)" d="M 46.789687 61.385371 
L 493.189687 61.385371 
" style="fill:none;stroke:#fafafa;"/>
     </g>
     <g id="line2d_32">
      <path d="M 46.789687 61.385371 
" style="fill:none;stroke:#000000;stroke-width:1.5;"/>
      <g>
       <use style="stroke:#000000;" x="46.789687" xlink:href="#mce05a40a6e" y="61.385371"/>
      </g>
     </g>
    </g>
    <g id="text_11">
     <!-- Q1 percentile -->
     <defs>
      <path d="M 39.40625 66.21875 
Q 28.65625 66.21875 22.328125 58.203125 
Q 16.015625 50.203125 16.015625 36.375 
Q 16.015625 22.609375 22.328125 14.59375 
Q 28.65625 6.59375 39.40625 6.59375 
Q 50.140625 6.59375 56.421875 14.59375 
Q 62.703125 22.609375 62.703125 36.375 
Q 62.703125 50.203125 56.421875 58.203125 
Q 50.140625 66.21875 39.40625 66.21875 
z
M 53.21875 1.3125 
L 66.21875 -12.890625 
L 54.296875 -12.890625 
L 43.5 -1.21875 
Q 41.890625 -1.3125 41.03125 -1.359375 
Q 40.1875 -1.421875 39.40625 -1.421875 
Q 24.03125 -1.421875 14.8125 8.859375 
Q 5.609375 19.140625 5.609375 36.375 
Q 5.609375 53.65625 14.8125 63.9375 
Q 24.03125 74.21875 39.40625 74.21875 
Q 54.734375 74.21875 63.90625 63.9375 
Q 73.09375 53.65625 73.09375 36.375 
Q 73.09375 23.6875 67.984375 14.640625 
Q 62.890625 5.609375 53.21875 1.3125 
z
" id="DejaVuSans-81"/>
      <path id="DejaVuSans-32"/>
      <path d="M 18.109375 8.203125 
L 18.109375 -20.796875 
L 9.078125 -20.796875 
L 9.078125 54.6875 
L 18.109375 54.6875 
L 18.109375 46.390625 
Q 20.953125 51.265625 25.265625 53.625 
Q 29.59375 56 35.59375 56 
Q 45.5625 56 51.78125 48.09375 
Q 58.015625 40.1875 58.015625 27.296875 
Q 58.015625 14.40625 51.78125 6.484375 
Q 45.5625 -1.421875 35.59375 -1.421875 
Q 29.59375 -1.421875 25.265625 0.953125 
Q 20.953125 3.328125 18.109375 8.203125 
z
M 48.6875 27.296875 
Q 48.6875 37.203125 44.609375 42.84375 
Q 40.53125 48.484375 33.40625 48.484375 
Q 26.265625 48.484375 22.1875 42.84375 
Q 18.109375 37.203125 18.109375 27.296875 
Q 18.109375 17.390625 22.1875 11.75 
Q 26.265625 6.109375 33.40625 6.109375 
Q 40.53125 6.109375 44.609375 11.75 
Q 48.6875 17.390625 48.6875 27.296875 
z
" id="DejaVuSans-112"/>
      <path d="M 41.109375 46.296875 
Q 39.59375 47.171875 37.8125 47.578125 
Q 36.03125 48 33.890625 48 
Q 26.265625 48 22.1875 43.046875 
Q 18.109375 38.09375 18.109375 28.8125 
L 18.109375 0 
L 9.078125 0 
L 9.078125 54.6875 
L 18.109375 54.6875 
L 18.109375 46.1875 
Q 20.953125 51.171875 25.484375 53.578125 
Q 30.03125 56 36.53125 56 
Q 37.453125 56 38.578125 55.875 
Q 39.703125 55.765625 41.0625 55.515625 
z
" id="DejaVuSans-114"/>
      <path d="M 48.78125 52.59375 
L 48.78125 44.1875 
Q 44.96875 46.296875 41.140625 47.34375 
Q 37.3125 48.390625 33.40625 48.390625 
Q 24.65625 48.390625 19.8125 42.84375 
Q 14.984375 37.3125 14.984375 27.296875 
Q 14.984375 17.28125 19.8125 11.734375 
Q 24.65625 6.203125 33.40625 6.203125 
Q 37.3125 6.203125 41.140625 7.25 
Q 44.96875 8.296875 48.78125 10.40625 
L 48.78125 2.09375 
Q 45.015625 0.34375 40.984375 -0.53125 
Q 36.96875 -1.421875 32.421875 -1.421875 
Q 20.0625 -1.421875 12.78125 6.34375 
Q 5.515625 14.109375 5.515625 27.296875 
Q 5.515625 40.671875 12.859375 48.328125 
Q 20.21875 56 33.015625 56 
Q 37.15625 56 41.109375 55.140625 
Q 45.0625 54.296875 48.78125 52.59375 
z
" id="DejaVuSans-99"/>
     </defs>
     <g transform="translate(15.558281 172.747714)rotate(-90)scale(0.11 -0.11)">
      <use xlink:href="#DejaVuSans-81"/>
      <use x="78.710938" xlink:href="#DejaVuSans-49"/>
      <use x="142.333984" xlink:href="#DejaVuSans-32"/>
      <use x="174.121094" xlink:href="#DejaVuSans-112"/>
      <use x="237.597656" xlink:href="#DejaVuSans-101"/>
      <use x="299.121094" xlink:href="#DejaVuSans-114"/>
      <use x="340.203125" xlink:href="#DejaVuSans-99"/>
      <use x="395.183594" xlink:href="#DejaVuSans-101"/>
      <use x="456.707031" xlink:href="#DejaVuSans-110"/>
      <use x="520.085938" xlink:href="#DejaVuSans-116"/>
      <use x="559.294922" xlink:href="#DejaVuSans-105"/>
      <use x="587.078125" xlink:href="#DejaVuSans-108"/>
      <use x="614.861328" xlink:href="#DejaVuSans-101"/>
     </g>
    </g>
   </g>
   <g id="PathCollection_1">
    <path clip-path="url(#p06653a803d)" d="M 67.080597 74.577969 
C 67.550657 74.577969 68.001528 74.391212 68.333911 74.058829 
C 68.666294 73.726446 68.85305 73.275575 68.85305 72.805515 
C 68.85305 72.335455 68.666294 71.884584 68.333911 71.552201 
C 68.001528 71.219818 67.550657 71.033061 67.080597 71.033061 
C 66.610536 71.033061 66.159665 71.219818 65.827282 71.552201 
C 65.4949 71.884584 65.308143 72.335455 65.308143 72.805515 
C 65.308143 73.275575 65.4949 73.726446 65.827282 74.058829 
C 66.159665 74.391212 66.610536 74.577969 67.080597 74.577969 
z
" style="stroke:#000000;stroke-width:0.886227;"/>
    <path clip-path="url(#p06653a803d)" d="M 80.607869 75.512865 
C 81.07793 75.512865 81.528801 75.326108 81.861183 74.993725 
C 82.193566 74.661342 82.380323 74.210471 82.380323 73.740411 
C 82.380323 73.27035 82.193566 72.819479 81.861183 72.487097 
C 81.528801 72.154714 81.07793 71.967957 80.607869 71.967957 
C 80.137809 71.967957 79.686938 72.154714 79.354555 72.487097 
C 79.022172 72.819479 78.835415 73.27035 78.835415 73.740411 
C 78.835415 74.210471 79.022172 74.661342 79.354555 74.993725 
C 79.686938 75.326108 80.137809 75.512865 80.607869 75.512865 
z
" style="stroke:#000000;stroke-width:0.886227;"/>
    <path clip-path="url(#p06653a803d)" d="M 94.135142 81.902109 
C 94.605202 81.902109 95.056073 81.715352 95.388456 81.382969 
C 95.720839 81.050587 95.907596 80.599715 95.907596 80.129655 
C 95.907596 79.659595 95.720839 79.208724 95.388456 78.876341 
C 95.056073 78.543958 94.605202 78.357201 94.135142 78.357201 
C 93.665082 78.357201 93.214211 78.543958 92.881828 78.876341 
C 92.549445 79.208724 92.362688 79.659595 92.362688 80.129655 
C 92.362688 80.599715 92.549445 81.050587 92.881828 81.382969 
C 93.214211 81.715352 93.665082 81.902109 94.135142 81.902109 
z
" style="stroke:#000000;stroke-width:0.886227;"/>
    <path clip-path="url(#p06653a803d)" d="M 107.662415 83.535343 
C 108.132475 83.535343 108.583346 83.348586 108.915729 83.016204 
C 109.248112 82.683821 109.434869 82.23295 109.434869 81.762889 
C 109.434869 81.292829 109.248112 80.841958 108.915729 80.509575 
C 108.583346 80.177193 108.132475 79.990436 107.662415 79.990436 
C 107.192355 79.990436 106.741483 80.177193 106.409101 80.509575 
C 106.076718 80.841958 105.889961 81.292829 105.889961 81.762889 
C 105.889961 82.23295 106.076718 82.683821 106.409101 83.016204 
C 106.741483 83.348586 107.192355 83.535343 107.662415 83.535343 
z
" style="stroke:#000000;stroke-width:0.886227;"/>
    <path clip-path="url(#p06653a803d)" d="M 121.189688 91.608899 
C 121.659748 91.608899 122.110619 91.422142 122.443002 91.089759 
C 122.775384 90.757376 122.962141 90.306505 122.962141 89.836445 
C 122.962141 89.366384 122.775384 88.915513 122.443002 88.583131 
C 122.110619 88.250748 121.659748 88.063991 121.189688 88.063991 
C 120.719627 88.063991 120.268756 88.250748 119.936373 88.583131 
C 119.603991 88.915513 119.417234 89.366384 119.417234 89.836445 
C 119.417234 90.306505 119.603991 90.757376 119.936373 91.089759 
C 120.268756 91.422142 120.719627 91.608899 121.189688 91.608899 
z
" style="stroke:#000000;stroke-width:0.886227;"/>
    <path clip-path="url(#p06653a803d)" d="M 134.71696 98.143592 
C 135.18702 98.143592 135.637892 97.956835 135.970274 97.624452 
C 136.302657 97.292069 136.489414 96.841198 136.489414 96.371138 
C 136.489414 95.901078 136.302657 95.450206 135.970274 95.117824 
C 135.637892 94.785441 135.18702 94.598684 134.71696 94.598684 
C 134.2469 94.598684 133.796029 94.785441 133.463646 95.117824 
C 133.131263 95.450206 132.944506 95.901078 132.944506 96.371138 
C 132.944506 96.841198 133.131263 97.292069 133.463646 97.624452 
C 133.796029 97.956835 134.2469 98.143592 134.71696 98.143592 
z
" style="stroke:#000000;stroke-width:0.886227;"/>
    <path clip-path="url(#p06653a803d)" d="M 148.244233 103.06354 
C 148.714293 103.06354 149.165164 102.876783 149.497547 102.544401 
C 149.82993 102.212018 150.016687 101.761147 150.016687 101.291086 
C 150.016687 100.821026 149.82993 100.370155 149.497547 100.037772 
C 149.165164 99.70539 148.714293 99.518633 148.244233 99.518633 
C 147.774173 99.518633 147.323302 99.70539 146.990919 100.037772 
C 146.658536 100.370155 146.471779 100.821026 146.471779 101.291086 
C 146.471779 101.761147 146.658536 102.212018 146.990919 102.544401 
C 147.323302 102.876783 147.774173 103.06354 148.244233 103.06354 
z
" style="stroke:#000000;stroke-width:0.886227;"/>
    <path clip-path="url(#p06653a803d)" d="M 161.771506 111.156981 
C 162.241566 111.156981 162.692437 110.970224 163.02482 110.637842 
C 163.357203 110.305459 163.54396 109.854588 163.54396 109.384528 
C 163.54396 108.914467 163.357203 108.463596 163.02482 108.131213 
C 162.692437 107.798831 162.241566 107.612074 161.771506 107.612074 
C 161.301445 107.612074 160.850574 107.798831 160.518192 108.131213 
C 160.185809 108.463596 159.999052 108.914467 159.999052 109.384528 
C 159.999052 109.854588 160.185809 110.305459 160.518192 110.637842 
C 160.850574 110.970224 161.301445 111.156981 161.771506 111.156981 
z
" style="stroke:#000000;stroke-width:0.886227;"/>
    <path clip-path="url(#p06653a803d)" d="M 175.298778 114.450062 
C 175.768839 114.450062 176.21971 114.263305 176.552093 113.930923 
C 176.884475 113.59854 177.071232 113.147669 177.071232 112.677608 
C 177.071232 112.207548 176.884475 111.756677 176.552093 111.424294 
C 176.21971 111.091912 175.768839 110.905155 175.298778 110.905155 
C 174.828718 110.905155 174.377847 111.091912 174.045464 111.424294 
C 173.713081 111.756677 173.526325 112.207548 173.526325 112.677608 
C 173.526325 113.147669 173.713081 113.59854 174.045464 113.930923 
C 174.377847 114.263305 174.828718 114.450062 175.298778 114.450062 
z
" style="stroke:#000000;stroke-width:0.886227;"/>
    <path clip-path="url(#p06653a803d)" d="M 188.826051 126.623704 
C 189.296111 126.623704 189.746982 126.436947 190.079365 126.104565 
C 190.411748 125.772182 190.598505 125.321311 190.598505 124.85125 
C 190.598505 124.38119 190.411748 123.930319 190.079365 123.597936 
C 189.746982 123.265554 189.296111 123.078797 188.826051 123.078797 
C 188.355991 123.078797 187.90512 123.265554 187.572737 123.597936 
C 187.240354 123.930319 187.053597 124.38119 187.053597 124.85125 
C 187.053597 125.321311 187.240354 125.772182 187.572737 126.104565 
C 187.90512 126.436947 188.355991 126.623704 188.826051 126.623704 
z
" style="stroke:#000000;stroke-width:0.886227;"/>
    <path clip-path="url(#p06653a803d)" d="M 202.353324 136.220611 
C 202.823384 136.220611 203.274255 136.033854 203.606638 135.701471 
C 203.939021 135.369088 204.125778 134.918217 204.125778 134.448157 
C 204.125778 133.978097 203.939021 133.527226 203.606638 133.194843 
C 203.274255 132.86246 202.823384 132.675703 202.353324 132.675703 
C 201.883264 132.675703 201.432393 132.86246 201.10001 133.194843 
C 200.767627 133.527226 200.58087 133.978097 200.58087 134.448157 
C 200.58087 134.918217 200.767627 135.369088 201.10001 135.701471 
C 201.432393 136.033854 201.883264 136.220611 202.353324 136.220611 
z
" style="stroke:#000000;stroke-width:0.886227;"/>
    <path clip-path="url(#p06653a803d)" d="M 215.880597 143.975327 
C 216.350657 143.975327 216.801528 143.78857 217.133911 143.456187 
C 217.466294 143.123804 217.65305 142.672933 217.65305 142.202873 
C 217.65305 141.732813 217.466294 141.281942 217.133911 140.949559 
C 216.801528 140.617176 216.350657 140.430419 215.880597 140.430419 
C 215.410536 140.430419 214.959665 140.617176 214.627282 140.949559 
C 214.2949 141.281942 214.108143 141.732813 214.108143 142.202873 
C 214.108143 142.672933 214.2949 143.123804 214.627282 143.456187 
C 214.959665 143.78857 215.410536 143.975327 215.880597 143.975327 
z
" style="stroke:#000000;stroke-width:0.886227;"/>
    <path clip-path="url(#p06653a803d)" d="M 229.407869 149.809225 
C 229.87793 149.809225 230.328801 149.622468 230.661183 149.290085 
C 230.993566 148.957702 231.180323 148.506831 231.180323 148.036771 
C 231.180323 147.566711 230.993566 147.11584 230.661183 146.783457 
C 230.328801 146.451074 229.87793 146.264317 229.407869 146.264317 
C 228.937809 146.264317 228.486938 146.451074 228.154555 146.783457 
C 227.822172 147.11584 227.635415 147.566711 227.635415 148.036771 
C 227.635415 148.506831 227.822172 148.957702 228.154555 149.290085 
C 228.486938 149.622468 228.937809 149.809225 229.407869 149.809225 
z
" style="stroke:#000000;stroke-width:0.886227;"/>
    <path clip-path="url(#p06653a803d)" d="M 242.935142 161.812914 
C 243.405202 161.812914 243.856073 161.626157 244.188456 161.293774 
C 244.520839 160.961391 244.707596 160.51052 244.707596 160.04046 
C 244.707596 159.5704 244.520839 159.119529 244.188456 158.787146 
C 243.856073 158.454763 243.405202 158.268006 242.935142 158.268006 
C 242.465082 158.268006 242.014211 158.454763 241.681828 158.787146 
C 241.349445 159.119529 241.162688 159.5704 241.162688 160.04046 
C 241.162688 160.51052 241.349445 160.961391 241.681828 161.293774 
C 242.014211 161.626157 242.465082 161.812914 242.935142 161.812914 
z
" style="stroke:#000000;stroke-width:0.886227;"/>
    <path clip-path="url(#p06653a803d)" d="M 256.462415 162.222894 
C 256.932475 162.222894 257.383346 162.036138 257.715729 161.703755 
C 258.048112 161.371372 258.234869 160.920501 258.234869 160.450441 
C 258.234869 159.98038 258.048112 159.529509 257.715729 159.197126 
C 257.383346 158.864744 256.932475 158.677987 256.462415 158.677987 
C 255.992355 158.677987 255.541483 158.864744 255.209101 159.197126 
C 254.876718 159.529509 254.689961 159.98038 254.689961 160.450441 
C 254.689961 160.920501 254.876718 161.371372 255.209101 161.703755 
C 255.541483 162.036138 255.992355 162.222894 256.462415 162.222894 
z
" style="stroke:#000000;stroke-width:0.886227;"/>
    <path clip-path="url(#p06653a803d)" d="M 269.989688 171.646269 
C 270.459748 171.646269 270.910619 171.459512 271.243002 171.12713 
C 271.575384 170.794747 271.762141 170.343876 271.762141 169.873815 
C 271.762141 169.403755 271.575384 168.952884 271.243002 168.620501 
C 270.910619 168.288119 270.459748 168.101362 269.989688 168.101362 
C 269.519627 168.101362 269.068756 168.288119 268.736373 168.620501 
C 268.403991 168.952884 268.217234 169.403755 268.217234 169.873815 
C 268.217234 170.343876 268.403991 170.794747 268.736373 171.12713 
C 269.068756 171.459512 269.519627 171.646269 269.989688 171.646269 
z
" style="stroke:#000000;stroke-width:0.886227;"/>
    <path clip-path="url(#p06653a803d)" d="M 283.51696 169.982559 
C 283.98702 169.982559 284.437892 169.795802 284.770274 169.463419 
C 285.102657 169.131037 285.289414 168.680165 285.289414 168.210105 
C 285.289414 167.740045 285.102657 167.289174 284.770274 166.956791 
C 284.437892 166.624408 283.98702 166.437651 283.51696 166.437651 
C 283.0469 166.437651 282.596029 166.624408 282.263646 166.956791 
C 281.931263 167.289174 281.744506 167.740045 281.744506 168.210105 
C 281.744506 168.680165 281.931263 169.131037 282.263646 169.463419 
C 282.596029 169.795802 283.0469 169.982559 283.51696 169.982559 
z
" style="stroke:#000000;stroke-width:0.886227;"/>
    <path clip-path="url(#p06653a803d)" d="M 297.044233 175.740524 
C 297.514293 175.740524 297.965164 175.553767 298.297547 175.221384 
C 298.62993 174.889001 298.816687 174.43813 298.816687 173.96807 
C 298.816687 173.49801 298.62993 173.047139 298.297547 172.714756 
C 297.965164 172.382373 297.514293 172.195616 297.044233 172.195616 
C 296.574173 172.195616 296.123302 172.382373 295.790919 172.714756 
C 295.458536 173.047139 295.271779 173.49801 295.271779 173.96807 
C 295.271779 174.43813 295.458536 174.889001 295.790919 175.221384 
C 296.123302 175.553767 296.574173 175.740524 297.044233 175.740524 
z
" style="stroke:#000000;stroke-width:0.886227;"/>
    <path clip-path="url(#p06653a803d)" d="M 310.571506 177.858886 
C 311.041566 177.858886 311.492437 177.67213 311.82482 177.339747 
C 312.157203 177.007364 312.34396 176.556493 312.34396 176.086433 
C 312.34396 175.616372 312.157203 175.165501 311.82482 174.833118 
C 311.492437 174.500736 311.041566 174.313979 310.571506 174.313979 
C 310.101445 174.313979 309.650574 174.500736 309.318192 174.833118 
C 308.985809 175.165501 308.799052 175.616372 308.799052 176.086433 
C 308.799052 176.556493 308.985809 177.007364 309.318192 177.339747 
C 309.650574 177.67213 310.101445 177.858886 310.571506 177.858886 
z
" style="stroke:#000000;stroke-width:0.886227;"/>
    <path clip-path="url(#p06653a803d)" d="M 324.098778 182.326435 
C 324.568839 182.326435 325.01971 182.139679 325.352093 181.807296 
C 325.684475 181.474913 325.871232 181.024042 325.871232 180.553982 
C 325.871232 180.083921 325.684475 179.63305 325.352093 179.300668 
C 325.01971 178.968285 324.568839 178.781528 324.098778 178.781528 
C 323.628718 178.781528 323.177847 178.968285 322.845464 179.300668 
C 322.513081 179.63305 322.326325 180.083921 322.326325 180.553982 
C 322.326325 181.024042 322.513081 181.474913 322.845464 181.807296 
C 323.177847 182.139679 323.628718 182.326435 324.098778 182.326435 
z
" style="stroke:#000000;stroke-width:0.886227;"/>
    <path clip-path="url(#p06653a803d)" d="M 337.626051 174.368691 
C 338.096111 174.368691 338.546982 174.181934 338.879365 173.849551 
C 339.211748 173.517169 339.398505 173.066298 339.398505 172.596237 
C 339.398505 172.126177 339.211748 171.675306 338.879365 171.342923 
C 338.546982 171.01054 338.096111 170.823783 337.626051 170.823783 
C 337.155991 170.823783 336.70512 171.01054 336.372737 171.342923 
C 336.040354 171.675306 335.853597 172.126177 335.853597 172.596237 
C 335.853597 173.066298 336.040354 173.517169 336.372737 173.849551 
C 336.70512 174.181934 337.155991 174.368691 337.626051 174.368691 
z
" style="stroke:#000000;stroke-width:0.886227;"/>
    <path clip-path="url(#p06653a803d)" d="M 351.153324 175.640515 
C 351.623384 175.640515 352.074255 175.453758 352.406638 175.121375 
C 352.739021 174.788992 352.925778 174.338121 352.925778 173.868061 
C 352.925778 173.398001 352.739021 172.94713 352.406638 172.614747 
C 352.074255 172.282364 351.623384 172.095607 351.153324 172.095607 
C 350.683264 172.095607 350.232393 172.282364 349.90001 172.614747 
C 349.567627 172.94713 349.38087 173.398001 349.38087 173.868061 
C 349.38087 174.338121 349.567627 174.788992 349.90001 175.121375 
C 350.232393 175.453758 350.683264 175.640515 351.153324 175.640515 
z
" style="stroke:#000000;stroke-width:0.886227;"/>
    <path clip-path="url(#p06653a803d)" d="M 364.680597 181.045886 
C 365.150657 181.045886 365.601528 180.859129 365.933911 180.526746 
C 366.266294 180.194364 366.45305 179.743492 366.45305 179.273432 
C 366.45305 178.803372 366.266294 178.352501 365.933911 178.020118 
C 365.601528 177.687735 365.150657 177.500978 364.680597 177.500978 
C 364.210536 177.500978 363.759665 177.687735 363.427282 178.020118 
C 363.0949 178.352501 362.908143 178.803372 362.908143 179.273432 
C 362.908143 179.743492 363.0949 180.194364 363.427282 180.526746 
C 363.759665 180.859129 364.210536 181.045886 364.680597 181.045886 
z
" style="stroke:#000000;stroke-width:0.886227;"/>
    <path clip-path="url(#p06653a803d)" d="M 378.207869 188.486625 
C 378.67793 188.486625 379.128801 188.299868 379.461183 187.967485 
C 379.793566 187.635102 379.980323 187.184231 379.980323 186.714171 
C 379.980323 186.244111 379.793566 185.79324 379.461183 185.460857 
C 379.128801 185.128474 378.67793 184.941717 378.207869 184.941717 
C 377.737809 184.941717 377.286938 185.128474 376.954555 185.460857 
C 376.622172 185.79324 376.435415 186.244111 376.435415 186.714171 
C 376.435415 187.184231 376.622172 187.635102 376.954555 187.967485 
C 377.286938 188.299868 377.737809 188.486625 378.207869 188.486625 
z
" style="stroke:#000000;stroke-width:0.886227;"/>
    <path clip-path="url(#p06653a803d)" d="M 391.735142 197.304733 
C 392.205202 197.304733 392.656073 197.117976 392.988456 196.785593 
C 393.320839 196.45321 393.507596 196.002339 393.507596 195.532279 
C 393.507596 195.062219 393.320839 194.611347 392.988456 194.278965 
C 392.656073 193.946582 392.205202 193.759825 391.735142 193.759825 
C 391.265082 193.759825 390.814211 193.946582 390.481828 194.278965 
C 390.149445 194.611347 389.962688 195.062219 389.962688 195.532279 
C 389.962688 196.002339 390.149445 196.45321 390.481828 196.785593 
C 390.814211 197.117976 391.265082 197.304733 391.735142 197.304733 
z
" style="stroke:#000000;stroke-width:0.886227;"/>
    <path clip-path="url(#p06653a803d)" d="M 405.262415 188.853948 
C 405.732475 188.853948 406.183346 188.667191 406.515729 188.334808 
C 406.848112 188.002425 407.034869 187.551554 407.034869 187.081494 
C 407.034869 186.611434 406.848112 186.160563 406.515729 185.82818 
C 406.183346 185.495797 405.732475 185.30904 405.262415 185.30904 
C 404.792355 185.30904 404.341483 185.495797 404.009101 185.82818 
C 403.676718 186.160563 403.489961 186.611434 403.489961 187.081494 
C 403.489961 187.551554 403.676718 188.002425 404.009101 188.334808 
C 404.341483 188.667191 404.792355 188.853948 405.262415 188.853948 
z
" style="stroke:#000000;stroke-width:0.886227;"/>
    <path clip-path="url(#p06653a803d)" d="M 418.789688 187.904156 
C 419.259748 187.904156 419.710619 187.717399 420.043002 187.385017 
C 420.375384 187.052634 420.562141 186.601763 420.562141 186.131703 
C 420.562141 185.661642 420.375384 185.210771 420.043002 184.878388 
C 419.710619 184.546006 419.259748 184.359249 418.789688 184.359249 
C 418.319627 184.359249 417.868756 184.546006 417.536373 184.878388 
C 417.203991 185.210771 417.017234 185.661642 417.017234 186.131703 
C 417.017234 186.601763 417.203991 187.052634 417.536373 187.385017 
C 417.868756 187.717399 418.319627 187.904156 418.789688 187.904156 
z
" style="stroke:#000000;stroke-width:0.886227;"/>
    <path clip-path="url(#p06653a803d)" d="M 432.31696 195.393948 
C 432.78702 195.393948 433.237892 195.207191 433.570274 194.874808 
C 433.902657 194.542425 434.089414 194.091554 434.089414 193.621494 
C 434.089414 193.151434 433.902657 192.700563 433.570274 192.36818 
C 433.237892 192.035797 432.78702 191.84904 432.31696 191.84904 
C 431.8469 191.84904 431.396029 192.035797 431.063646 192.36818 
C 430.731263 192.700563 430.544506 193.151434 430.544506 193.621494 
C 430.544506 194.091554 430.731263 194.542425 431.063646 194.874808 
C 431.396029 195.207191 431.8469 195.393948 432.31696 195.393948 
z
" style="stroke:#000000;stroke-width:0.886227;"/>
    <path clip-path="url(#p06653a803d)" d="M 445.844233 194.559681 
C 446.314293 194.559681 446.765164 194.372924 447.097547 194.040541 
C 447.42993 193.708158 447.616687 193.257287 447.616687 192.787227 
C 447.616687 192.317167 447.42993 191.866296 447.097547 191.533913 
C 446.765164 191.20153 446.314293 191.014773 445.844233 191.014773 
C 445.374173 191.014773 444.923302 191.20153 444.590919 191.533913 
C 444.258536 191.866296 444.071779 192.317167 444.071779 192.787227 
C 444.071779 193.257287 444.258536 193.708158 444.590919 194.040541 
C 444.923302 194.372924 445.374173 194.559681 445.844233 194.559681 
z
" style="stroke:#000000;stroke-width:0.886227;"/>
    <path clip-path="url(#p06653a803d)" d="M 459.371506 201.643973 
C 459.841566 201.643973 460.292437 201.457217 460.62482 201.124834 
C 460.957203 200.792451 461.14396 200.34158 461.14396 199.87152 
C 461.14396 199.401459 460.957203 198.950588 460.62482 198.618205 
C 460.292437 198.285823 459.841566 198.099066 459.371506 198.099066 
C 458.901445 198.099066 458.450574 198.285823 458.118192 198.618205 
C 457.785809 198.950588 457.599052 199.401459 457.599052 199.87152 
C 457.599052 200.34158 457.785809 200.792451 458.118192 201.124834 
C 458.450574 201.457217 458.901445 201.643973 459.371506 201.643973 
z
" style="stroke:#000000;stroke-width:0.886227;"/>
    <path clip-path="url(#p06653a803d)" d="M 472.898778 195.58531 
C 473.368839 195.58531 473.81971 195.398553 474.152093 195.066171 
C 474.484475 194.733788 474.671232 194.282917 474.671232 193.812856 
C 474.671232 193.342796 474.484475 192.891925 474.152093 192.559542 
C 473.81971 192.227159 473.368839 192.040403 472.898778 192.040403 
C 472.428718 192.040403 471.977847 192.227159 471.645464 192.559542 
C 471.313081 192.891925 471.126325 193.342796 471.126325 193.812856 
C 471.126325 194.282917 471.313081 194.733788 471.645464 195.066171 
C 471.977847 195.398553 472.428718 195.58531 472.898778 195.58531 
z
" style="stroke:#000000;stroke-width:0.886227;"/>
   </g>
   <g id="line2d_33">
    <path clip-path="url(#p06653a803d)" d="M 67.080597 72.805515 
L 80.607869 73.740411 
L 94.135142 80.129655 
L 107.662415 81.762889 
L 121.189688 89.836445 
L 134.71696 96.371138 
L 148.244233 101.291086 
L 161.771506 109.384528 
L 175.298778 112.677608 
L 188.826051 124.85125 
L 202.353324 134.448157 
L 215.880597 142.202873 
L 229.407869 148.036771 
L 242.935142 160.04046 
L 256.462415 160.450441 
L 269.989688 169.873815 
L 283.51696 168.210105 
L 297.044233 173.96807 
L 310.571506 176.086433 
L 324.098778 180.553982 
L 337.626051 172.596237 
L 351.153324 173.868061 
L 364.680597 179.273432 
L 378.207869 186.714171 
L 391.735142 195.532279 
L 405.262415 187.081494 
L 418.789688 186.131703 
L 432.31696 193.621494 
L 445.844233 192.787227 
L 459.371506 199.87152 
L 472.898778 193.812856 
" style="fill:none;stroke:#000000;stroke-width:0.886227;"/>
   </g>
  </g>
  <g id="text_12">
   <!-- Protein data without missing values -->
   <defs>
    <path d="M 19.671875 64.796875 
L 19.671875 37.40625 
L 32.078125 37.40625 
Q 38.96875 37.40625 42.71875 40.96875 
Q 46.484375 44.53125 46.484375 51.125 
Q 46.484375 57.671875 42.71875 61.234375 
Q 38.96875 64.796875 32.078125 64.796875 
z
M 9.8125 72.90625 
L 32.078125 72.90625 
Q 44.34375 72.90625 50.609375 67.359375 
Q 56.890625 61.8125 56.890625 51.125 
Q 56.890625 40.328125 50.609375 34.8125 
Q 44.34375 29.296875 32.078125 29.296875 
L 19.671875 29.296875 
L 19.671875 0 
L 9.8125 0 
z
" id="DejaVuSans-80"/>
    <path d="M 45.40625 46.390625 
L 45.40625 75.984375 
L 54.390625 75.984375 
L 54.390625 0 
L 45.40625 0 
L 45.40625 8.203125 
Q 42.578125 3.328125 38.25 0.953125 
Q 33.9375 -1.421875 27.875 -1.421875 
Q 17.96875 -1.421875 11.734375 6.484375 
Q 5.515625 14.40625 5.515625 27.296875 
Q 5.515625 40.1875 11.734375 48.09375 
Q 17.96875 56 27.875 56 
Q 33.9375 56 38.25 53.625 
Q 42.578125 51.265625 45.40625 46.390625 
z
M 14.796875 27.296875 
Q 14.796875 17.390625 18.875 11.75 
Q 22.953125 6.109375 30.078125 6.109375 
Q 37.203125 6.109375 41.296875 11.75 
Q 45.40625 17.390625 45.40625 27.296875 
Q 45.40625 37.203125 41.296875 42.84375 
Q 37.203125 48.484375 30.078125 48.484375 
Q 22.953125 48.484375 18.875 42.84375 
Q 14.796875 37.203125 14.796875 27.296875 
z
" id="DejaVuSans-100"/>
    <path d="M 34.28125 27.484375 
Q 23.390625 27.484375 19.1875 25 
Q 14.984375 22.515625 14.984375 16.5 
Q 14.984375 11.71875 18.140625 8.90625 
Q 21.296875 6.109375 26.703125 6.109375 
Q 34.1875 6.109375 38.703125 11.40625 
Q 43.21875 16.703125 43.21875 25.484375 
L 43.21875 27.484375 
z
M 52.203125 31.203125 
L 52.203125 0 
L 43.21875 0 
L 43.21875 8.296875 
Q 40.140625 3.328125 35.546875 0.953125 
Q 30.953125 -1.421875 24.3125 -1.421875 
Q 15.921875 -1.421875 10.953125 3.296875 
Q 6 8.015625 6 15.921875 
Q 6 25.140625 12.171875 29.828125 
Q 18.359375 34.515625 30.609375 34.515625 
L 43.21875 34.515625 
L 43.21875 35.40625 
Q 43.21875 41.609375 39.140625 45 
Q 35.0625 48.390625 27.6875 48.390625 
Q 23 48.390625 18.546875 47.265625 
Q 14.109375 46.140625 10.015625 43.890625 
L 10.015625 52.203125 
Q 14.9375 54.109375 19.578125 55.046875 
Q 24.21875 56 28.609375 56 
Q 40.484375 56 46.34375 49.84375 
Q 52.203125 43.703125 52.203125 31.203125 
z
" id="DejaVuSans-97"/>
    <path d="M 4.203125 54.6875 
L 13.1875 54.6875 
L 24.421875 12.015625 
L 35.59375 54.6875 
L 46.1875 54.6875 
L 57.421875 12.015625 
L 68.609375 54.6875 
L 77.59375 54.6875 
L 63.28125 0 
L 52.6875 0 
L 40.921875 44.828125 
L 29.109375 0 
L 18.5 0 
z
" id="DejaVuSans-119"/>
    <path d="M 54.890625 33.015625 
L 54.890625 0 
L 45.90625 0 
L 45.90625 32.71875 
Q 45.90625 40.484375 42.875 44.328125 
Q 39.84375 48.1875 33.796875 48.1875 
Q 26.515625 48.1875 22.3125 43.546875 
Q 18.109375 38.921875 18.109375 30.90625 
L 18.109375 0 
L 9.078125 0 
L 9.078125 75.984375 
L 18.109375 75.984375 
L 18.109375 46.1875 
Q 21.34375 51.125 25.703125 53.5625 
Q 30.078125 56 35.796875 56 
Q 45.21875 56 50.046875 50.171875 
Q 54.890625 44.34375 54.890625 33.015625 
z
" id="DejaVuSans-104"/>
    <path d="M 52 44.1875 
Q 55.375 50.25 60.0625 53.125 
Q 64.75 56 71.09375 56 
Q 79.640625 56 84.28125 50.015625 
Q 88.921875 44.046875 88.921875 33.015625 
L 88.921875 0 
L 79.890625 0 
L 79.890625 32.71875 
Q 79.890625 40.578125 77.09375 44.375 
Q 74.3125 48.1875 68.609375 48.1875 
Q 61.625 48.1875 57.5625 43.546875 
Q 53.515625 38.921875 53.515625 30.90625 
L 53.515625 0 
L 44.484375 0 
L 44.484375 32.71875 
Q 44.484375 40.625 41.703125 44.40625 
Q 38.921875 48.1875 33.109375 48.1875 
Q 26.21875 48.1875 22.15625 43.53125 
Q 18.109375 38.875 18.109375 30.90625 
L 18.109375 0 
L 9.078125 0 
L 9.078125 54.6875 
L 18.109375 54.6875 
L 18.109375 46.1875 
Q 21.1875 51.21875 25.484375 53.609375 
Q 29.78125 56 35.6875 56 
Q 41.65625 56 45.828125 52.96875 
Q 50 49.953125 52 44.1875 
z
" id="DejaVuSans-109"/>
    <path d="M 45.40625 27.984375 
Q 45.40625 37.75 41.375 43.109375 
Q 37.359375 48.484375 30.078125 48.484375 
Q 22.859375 48.484375 18.828125 43.109375 
Q 14.796875 37.75 14.796875 27.984375 
Q 14.796875 18.265625 18.828125 12.890625 
Q 22.859375 7.515625 30.078125 7.515625 
Q 37.359375 7.515625 41.375 12.890625 
Q 45.40625 18.265625 45.40625 27.984375 
z
M 54.390625 6.78125 
Q 54.390625 -7.171875 48.1875 -13.984375 
Q 42 -20.796875 29.203125 -20.796875 
Q 24.46875 -20.796875 20.265625 -20.09375 
Q 16.0625 -19.390625 12.109375 -17.921875 
L 12.109375 -9.1875 
Q 16.0625 -11.328125 19.921875 -12.34375 
Q 23.78125 -13.375 27.78125 -13.375 
Q 36.625 -13.375 41.015625 -8.765625 
Q 45.40625 -4.15625 45.40625 5.171875 
L 45.40625 9.625 
Q 42.625 4.78125 38.28125 2.390625 
Q 33.9375 0 27.875 0 
Q 17.828125 0 11.671875 7.65625 
Q 5.515625 15.328125 5.515625 27.984375 
Q 5.515625 40.671875 11.671875 48.328125 
Q 17.828125 56 27.875 56 
Q 33.9375 56 38.28125 53.609375 
Q 42.625 51.21875 45.40625 46.390625 
L 45.40625 54.6875 
L 54.390625 54.6875 
z
" id="DejaVuSans-103"/>
    <path d="M 2.984375 54.6875 
L 12.5 54.6875 
L 29.59375 8.796875 
L 46.6875 54.6875 
L 56.203125 54.6875 
L 35.6875 0 
L 23.484375 0 
z
" id="DejaVuSans-118"/>
   </defs>
   <g transform="translate(144.518719 17.229938)scale(0.132 -0.132)">
    <use xlink:href="#DejaVuSans-80"/>
    <use x="60.287109" xlink:href="#DejaVuSans-114"/>
    <use x="101.369141" xlink:href="#DejaVuSans-111"/>
    <use x="162.550781" xlink:href="#DejaVuSans-116"/>
    <use x="201.759766" xlink:href="#DejaVuSans-101"/>
    <use x="263.283203" xlink:href="#DejaVuSans-105"/>
    <use x="291.066406" xlink:href="#DejaVuSans-110"/>
    <use x="354.445312" xlink:href="#DejaVuSans-32"/>
    <use x="386.232422" xlink:href="#DejaVuSans-100"/>
    <use x="449.708984" xlink:href="#DejaVuSans-97"/>
    <use x="510.988281" xlink:href="#DejaVuSans-116"/>
    <use x="550.197266" xlink:href="#DejaVuSans-97"/>
    <use x="611.476562" xlink:href="#DejaVuSans-32"/>
    <use x="643.263672" xlink:href="#DejaVuSans-119"/>
    <use x="725.050781" xlink:href="#DejaVuSans-105"/>
    <use x="752.833984" xlink:href="#DejaVuSans-116"/>
    <use x="792.042969" xlink:href="#DejaVuSans-104"/>
    <use x="855.421875" xlink:href="#DejaVuSans-111"/>
    <use x="916.603516" xlink:href="#DejaVuSans-117"/>
    <use x="979.982422" xlink:href="#DejaVuSans-116"/>
    <use x="1019.191406" xlink:href="#DejaVuSans-32"/>
    <use x="1050.978516" xlink:href="#DejaVuSans-109"/>
    <use x="1148.390625" xlink:href="#DejaVuSans-105"/>
    <use x="1176.173828" xlink:href="#DejaVuSans-115"/>
    <use x="1228.273438" xlink:href="#DejaVuSans-115"/>
    <use x="1280.373047" xlink:href="#DejaVuSans-105"/>
    <use x="1308.15625" xlink:href="#DejaVuSans-110"/>
    <use x="1371.535156" xlink:href="#DejaVuSans-103"/>
    <use x="1435.011719" xlink:href="#DejaVuSans-32"/>
    <use x="1466.798828" xlink:href="#DejaVuSans-118"/>
    <use x="1525.978516" xlink:href="#DejaVuSans-97"/>
    <use x="1587.257812" xlink:href="#DejaVuSans-108"/>
    <use x="1615.041016" xlink:href="#DejaVuSans-117"/>
    <use x="1678.419922" xlink:href="#DejaVuSans-101"/>
    <use x="1739.943359" xlink:href="#DejaVuSans-115"/>
   </g>
  </g>
 </g>
 <defs>
  <clipPath id="p06653a803d">
   <rect height="221.76" width="446.4" x="46.789687" y="26.105371"/>
  </clipPath>
 </defs>
</svg>
