<?xml version="1.0" encoding="utf-8" standalone="no"?>
<!DOCTYPE svg PUBLIC "-//W3C//DTD SVG 1.1//EN"
  "http://www.w3.org/Graphics/SVG/1.1/DTD/svg11.dtd">
<!-- Created with matplotlib (https://matplotlib.org/) -->
<svg height="283.578058pt" version="1.1" viewBox="0 0 500.389687 283.578058" width="500.389687pt" xmlns="http://www.w3.org/2000/svg" xmlns:xlink="http://www.w3.org/1999/xlink">
 <defs>
  <style type="text/css">
*{stroke-linecap:butt;stroke-linejoin:round;}
  </style>
 </defs>
 <g id="figure_1">
  <g id="patch_1">
   <path d="M 0 283.578058 
L 500.389687 283.578058 
L 500.389687 0 
L 0 0 
z
" style="fill:#ffffff;stroke:#ffffff;stroke-linejoin:miter;"/>
  </g>
  <g id="axes_1">
   <g id="patch_2">
    <path d="M 46.789687 247.865371 
L 493.189687 247.865371 
L 493.189687 26.105371 
L 46.789687 26.105371 
z
" style="fill:#ffffff;stroke:#7f7f7f;stroke-linejoin:miter;"/>
   </g>
   <g id="matplotlib.axis_1">
    <g id="xtick_1">
     <g id="line2d_1">
      <path clip-path="url(#p7abac22989)" d="M 67.080597 247.865371 
L 67.080597 26.105371 
" style="fill:none;stroke:#e5e5e5;stroke-width:0.8;"/>
     </g>
     <g id="line2d_2">
      <path d="M 67.080597 247.865371 
" style="fill:none;stroke:#000000;stroke-width:1.5;"/>
      <defs>
       <path d="M 0 0 
L 0 2.75 
" id="mdd607eeb12" style="stroke:#000000;"/>
      </defs>
      <g>
       <use style="stroke:#000000;" x="67.080597" xlink:href="#mdd607eeb12" y="247.865371"/>
      </g>
     </g>
     <g id="text_1">
      <!-- 1 -->
      <defs>
       <path d="M 12.40625 8.296875 
L 28.515625 8.296875 
L 28.515625 63.921875 
L 10.984375 60.40625 
L 10.984375 69.390625 
L 28.421875 72.90625 
L 38.28125 72.90625 
L 38.28125 8.296875 
L 54.390625 8.296875 
L 54.390625 0 
L 12.40625 0 
z
" id="DejaVuSans-49"/>
      </defs>
      <g style="fill:#4d4d4d;" transform="translate(64.281097 259.501996)scale(0.088 -0.088)">
       <use xlink:href="#DejaVuSans-49"/>
      </g>
     </g>
    </g>
    <g id="xtick_2">
     <g id="line2d_3">
      <path clip-path="url(#p7abac22989)" d="M 202.353324 247.865371 
L 202.353324 26.105371 
" style="fill:none;stroke:#e5e5e5;stroke-width:0.8;"/>
     </g>
     <g id="line2d_4">
      <path d="M 202.353324 247.865371 
" style="fill:none;stroke:#000000;stroke-width:1.5;"/>
      <g>
       <use style="stroke:#000000;" x="202.353324" xlink:href="#mdd607eeb12" y="247.865371"/>
      </g>
     </g>
     <g id="text_2">
      <!-- 2 -->
      <defs>
       <path d="M 19.1875 8.296875 
L 53.609375 8.296875 
L 53.609375 0 
L 7.328125 0 
L 7.328125 8.296875 
Q 12.9375 14.109375 22.625 23.890625 
Q 32.328125 33.6875 34.8125 36.53125 
Q 39.546875 41.84375 41.421875 45.53125 
Q 43.3125 49.21875 43.3125 52.78125 
Q 43.3125 58.59375 39.234375 62.25 
Q 35.15625 65.921875 28.609375 65.921875 
Q 23.96875 65.921875 18.8125 64.3125 
Q 13.671875 62.703125 7.8125 59.421875 
L 7.8125 69.390625 
Q 13.765625 71.78125 18.9375 73 
Q 24.125 74.21875 28.421875 74.21875 
Q 39.75 74.21875 46.484375 68.546875 
Q 53.21875 62.890625 53.21875 53.421875 
Q 53.21875 48.921875 51.53125 44.890625 
Q 49.859375 40.875 45.40625 35.40625 
Q 44.1875 33.984375 37.640625 27.21875 
Q 31.109375 20.453125 19.1875 8.296875 
z
" id="DejaVuSans-50"/>
      </defs>
      <g style="fill:#4d4d4d;" transform="translate(199.553824 259.501996)scale(0.088 -0.088)">
       <use xlink:href="#DejaVuSans-50"/>
      </g>
     </g>
    </g>
    <g id="xtick_3">
     <g id="line2d_5">
      <path clip-path="url(#p7abac22989)" d="M 337.626051 247.865371 
L 337.626051 26.105371 
" style="fill:none;stroke:#e5e5e5;stroke-width:0.8;"/>
     </g>
     <g id="line2d_6">
      <path d="M 337.626051 247.865371 
" style="fill:none;stroke:#000000;stroke-width:1.5;"/>
      <g>
       <use style="stroke:#000000;" x="337.626051" xlink:href="#mdd607eeb12" y="247.865371"/>
      </g>
     </g>
     <g id="text_3">
      <!-- 3 -->
      <defs>
       <path d="M 40.578125 39.3125 
Q 47.65625 37.796875 51.625 33 
Q 55.609375 28.21875 55.609375 21.1875 
Q 55.609375 10.40625 48.1875 4.484375 
Q 40.765625 -1.421875 27.09375 -1.421875 
Q 22.515625 -1.421875 17.65625 -0.515625 
Q 12.796875 0.390625 7.625 2.203125 
L 7.625 11.71875 
Q 11.71875 9.328125 16.59375 8.109375 
Q 21.484375 6.890625 26.8125 6.890625 
Q 36.078125 6.890625 40.9375 10.546875 
Q 45.796875 14.203125 45.796875 21.1875 
Q 45.796875 27.640625 41.28125 31.265625 
Q 36.765625 34.90625 28.71875 34.90625 
L 20.21875 34.90625 
L 20.21875 43.015625 
L 29.109375 43.015625 
Q 36.375 43.015625 40.234375 45.921875 
Q 44.09375 48.828125 44.09375 54.296875 
Q 44.09375 59.90625 40.109375 62.90625 
Q 36.140625 65.921875 28.71875 65.921875 
Q 24.65625 65.921875 20.015625 65.03125 
Q 15.375 64.15625 9.8125 62.3125 
L 9.8125 71.09375 
Q 15.4375 72.65625 20.34375 73.4375 
Q 25.25 74.21875 29.59375 74.21875 
Q 40.828125 74.21875 47.359375 69.109375 
Q 53.90625 64.015625 53.90625 55.328125 
Q 53.90625 49.265625 50.4375 45.09375 
Q 46.96875 40.921875 40.578125 39.3125 
z
" id="DejaVuSans-51"/>
      </defs>
      <g style="fill:#4d4d4d;" transform="translate(334.826551 259.501996)scale(0.088 -0.088)">
       <use xlink:href="#DejaVuSans-51"/>
      </g>
     </g>
    </g>
    <g id="xtick_4">
     <g id="line2d_7">
      <path clip-path="url(#p7abac22989)" d="M 472.898778 247.865371 
L 472.898778 26.105371 
" style="fill:none;stroke:#e5e5e5;stroke-width:0.8;"/>
     </g>
     <g id="line2d_8">
      <path d="M 472.898778 247.865371 
" style="fill:none;stroke:#000000;stroke-width:1.5;"/>
      <g>
       <use style="stroke:#000000;" x="472.898778" xlink:href="#mdd607eeb12" y="247.865371"/>
      </g>
     </g>
     <g id="text_4">
      <!-- 4 -->
      <defs>
       <path d="M 37.796875 64.3125 
L 12.890625 25.390625 
L 37.796875 25.390625 
z
M 35.203125 72.90625 
L 47.609375 72.90625 
L 47.609375 25.390625 
L 58.015625 25.390625 
L 58.015625 17.1875 
L 47.609375 17.1875 
L 47.609375 0 
L 37.796875 0 
L 37.796875 17.1875 
L 4.890625 17.1875 
L 4.890625 26.703125 
z
" id="DejaVuSans-52"/>
      </defs>
      <g style="fill:#4d4d4d;" transform="translate(470.099278 259.501996)scale(0.088 -0.088)">
       <use xlink:href="#DejaVuSans-52"/>
      </g>
     </g>
    </g>
    <g id="xtick_5">
     <g id="line2d_9">
      <path clip-path="url(#p7abac22989)" d="M 134.71696 247.865371 
L 134.71696 26.105371 
" style="fill:none;stroke:#fafafa;"/>
     </g>
     <g id="line2d_10">
      <path d="M 134.71696 247.865371 
" style="fill:none;stroke:#000000;stroke-width:1.5;"/>
      <defs>
       <path d="M 0 0 
L 0 1.375 
" id="m0adc1b818c" style="stroke:#000000;"/>
      </defs>
      <g>
       <use style="stroke:#000000;" x="134.71696" xlink:href="#m0adc1b818c" y="247.865371"/>
      </g>
     </g>
    </g>
    <g id="xtick_6">
     <g id="line2d_11">
      <path clip-path="url(#p7abac22989)" d="M 269.989688 247.865371 
L 269.989688 26.105371 
" style="fill:none;stroke:#fafafa;"/>
     </g>
     <g id="line2d_12">
      <path d="M 269.989688 247.865371 
" style="fill:none;stroke:#000000;stroke-width:1.5;"/>
      <g>
       <use style="stroke:#000000;" x="269.989688" xlink:href="#m0adc1b818c" y="247.865371"/>
      </g>
     </g>
    </g>
    <g id="xtick_7">
     <g id="line2d_13">
      <path clip-path="url(#p7abac22989)" d="M 405.262415 247.865371 
L 405.262415 26.105371 
" style="fill:none;stroke:#fafafa;"/>
     </g>
     <g id="line2d_14">
      <path d="M 405.262415 247.865371 
" style="fill:none;stroke:#000000;stroke-width:1.5;"/>
      <g>
       <use style="stroke:#000000;" x="405.262415" xlink:href="#m0adc1b818c" y="247.865371"/>
      </g>
     </g>
    </g>
    <g id="text_5">
     <!-- Resolution -->
     <defs>
      <path d="M 44.390625 34.1875 
Q 47.5625 33.109375 50.5625 29.59375 
Q 53.5625 26.078125 56.59375 19.921875 
L 66.609375 0 
L 56 0 
L 46.6875 18.703125 
Q 43.0625 26.03125 39.671875 28.421875 
Q 36.28125 30.8125 30.421875 30.8125 
L 19.671875 30.8125 
L 19.671875 0 
L 9.8125 0 
L 9.8125 72.90625 
L 32.078125 72.90625 
Q 44.578125 72.90625 50.734375 67.671875 
Q 56.890625 62.453125 56.890625 51.90625 
Q 56.890625 45.015625 53.6875 40.46875 
Q 50.484375 35.9375 44.390625 34.1875 
z
M 19.671875 64.796875 
L 19.671875 38.921875 
L 32.078125 38.921875 
Q 39.203125 38.921875 42.84375 42.21875 
Q 46.484375 45.515625 46.484375 51.90625 
Q 46.484375 58.296875 42.84375 61.546875 
Q 39.203125 64.796875 32.078125 64.796875 
z
" id="DejaVuSans-82"/>
      <path d="M 56.203125 29.59375 
L 56.203125 25.203125 
L 14.890625 25.203125 
Q 15.484375 15.921875 20.484375 11.0625 
Q 25.484375 6.203125 34.421875 6.203125 
Q 39.59375 6.203125 44.453125 7.46875 
Q 49.3125 8.734375 54.109375 11.28125 
L 54.109375 2.78125 
Q 49.265625 0.734375 44.1875 -0.34375 
Q 39.109375 -1.421875 33.890625 -1.421875 
Q 20.796875 -1.421875 13.15625 6.1875 
Q 5.515625 13.8125 5.515625 26.8125 
Q 5.515625 40.234375 12.765625 48.109375 
Q 20.015625 56 32.328125 56 
Q 43.359375 56 49.78125 48.890625 
Q 56.203125 41.796875 56.203125 29.59375 
z
M 47.21875 32.234375 
Q 47.125 39.59375 43.09375 43.984375 
Q 39.0625 48.390625 32.421875 48.390625 
Q 24.90625 48.390625 20.390625 44.140625 
Q 15.875 39.890625 15.1875 32.171875 
z
" id="DejaVuSans-101"/>
      <path d="M 44.28125 53.078125 
L 44.28125 44.578125 
Q 40.484375 46.53125 36.375 47.5 
Q 32.28125 48.484375 27.875 48.484375 
Q 21.1875 48.484375 17.84375 46.4375 
Q 14.5 44.390625 14.5 40.28125 
Q 14.5 37.15625 16.890625 35.375 
Q 19.28125 33.59375 26.515625 31.984375 
L 29.59375 31.296875 
Q 39.15625 29.25 43.1875 25.515625 
Q 47.21875 21.78125 47.21875 15.09375 
Q 47.21875 7.46875 41.1875 3.015625 
Q 35.15625 -1.421875 24.609375 -1.421875 
Q 20.21875 -1.421875 15.453125 -0.5625 
Q 10.6875 0.296875 5.421875 2 
L 5.421875 11.28125 
Q 10.40625 8.6875 15.234375 7.390625 
Q 20.0625 6.109375 24.8125 6.109375 
Q 31.15625 6.109375 34.5625 8.28125 
Q 37.984375 10.453125 37.984375 14.40625 
Q 37.984375 18.0625 35.515625 20.015625 
Q 33.0625 21.96875 24.703125 23.78125 
L 21.578125 24.515625 
Q 13.234375 26.265625 9.515625 29.90625 
Q 5.8125 33.546875 5.8125 39.890625 
Q 5.8125 47.609375 11.28125 51.796875 
Q 16.75 56 26.8125 56 
Q 31.78125 56 36.171875 55.265625 
Q 40.578125 54.546875 44.28125 53.078125 
z
" id="DejaVuSans-115"/>
      <path d="M 30.609375 48.390625 
Q 23.390625 48.390625 19.1875 42.75 
Q 14.984375 37.109375 14.984375 27.296875 
Q 14.984375 17.484375 19.15625 11.84375 
Q 23.34375 6.203125 30.609375 6.203125 
Q 37.796875 6.203125 41.984375 11.859375 
Q 46.1875 17.53125 46.1875 27.296875 
Q 46.1875 37.015625 41.984375 42.703125 
Q 37.796875 48.390625 30.609375 48.390625 
z
M 30.609375 56 
Q 42.328125 56 49.015625 48.375 
Q 55.71875 40.765625 55.71875 27.296875 
Q 55.71875 13.875 49.015625 6.21875 
Q 42.328125 -1.421875 30.609375 -1.421875 
Q 18.84375 -1.421875 12.171875 6.21875 
Q 5.515625 13.875 5.515625 27.296875 
Q 5.515625 40.765625 12.171875 48.375 
Q 18.84375 56 30.609375 56 
z
" id="DejaVuSans-111"/>
      <path d="M 9.421875 75.984375 
L 18.40625 75.984375 
L 18.40625 0 
L 9.421875 0 
z
" id="DejaVuSans-108"/>
      <path d="M 8.5 21.578125 
L 8.5 54.6875 
L 17.484375 54.6875 
L 17.484375 21.921875 
Q 17.484375 14.15625 20.5 10.265625 
Q 23.53125 6.390625 29.59375 6.390625 
Q 36.859375 6.390625 41.078125 11.03125 
Q 45.3125 15.671875 45.3125 23.6875 
L 45.3125 54.6875 
L 54.296875 54.6875 
L 54.296875 0 
L 45.3125 0 
L 45.3125 8.40625 
Q 42.046875 3.421875 37.71875 1 
Q 33.40625 -1.421875 27.6875 -1.421875 
Q 18.265625 -1.421875 13.375 4.4375 
Q 8.5 10.296875 8.5 21.578125 
z
M 31.109375 56 
z
" id="DejaVuSans-117"/>
      <path d="M 18.3125 70.21875 
L 18.3125 54.6875 
L 36.8125 54.6875 
L 36.8125 47.703125 
L 18.3125 47.703125 
L 18.3125 18.015625 
Q 18.3125 11.328125 20.140625 9.421875 
Q 21.96875 7.515625 27.59375 7.515625 
L 36.8125 7.515625 
L 36.8125 0 
L 27.59375 0 
Q 17.1875 0 13.234375 3.875 
Q 9.28125 7.765625 9.28125 18.015625 
L 9.28125 47.703125 
L 2.6875 47.703125 
L 2.6875 54.6875 
L 9.28125 54.6875 
L 9.28125 70.21875 
z
" id="DejaVuSans-116"/>
      <path d="M 9.421875 54.6875 
L 18.40625 54.6875 
L 18.40625 0 
L 9.421875 0 
z
M 9.421875 75.984375 
L 18.40625 75.984375 
L 18.40625 64.59375 
L 9.421875 64.59375 
z
" id="DejaVuSans-105"/>
      <path d="M 54.890625 33.015625 
L 54.890625 0 
L 45.90625 0 
L 45.90625 32.71875 
Q 45.90625 40.484375 42.875 44.328125 
Q 39.84375 48.1875 33.796875 48.1875 
Q 26.515625 48.1875 22.3125 43.546875 
Q 18.109375 38.921875 18.109375 30.90625 
L 18.109375 0 
L 9.078125 0 
L 9.078125 54.6875 
L 18.109375 54.6875 
L 18.109375 46.1875 
Q 21.34375 51.125 25.703125 53.5625 
Q 30.078125 56 35.796875 56 
Q 45.21875 56 50.046875 50.171875 
Q 54.890625 44.34375 54.890625 33.015625 
z
" id="DejaVuSans-110"/>
     </defs>
     <g transform="translate(233.808125 274.090402)scale(0.11 -0.11)">
      <use xlink:href="#DejaVuSans-82"/>
      <use x="69.419922" xlink:href="#DejaVuSans-101"/>
      <use x="130.943359" xlink:href="#DejaVuSans-115"/>
      <use x="183.042969" xlink:href="#DejaVuSans-111"/>
      <use x="244.224609" xlink:href="#DejaVuSans-108"/>
      <use x="272.007812" xlink:href="#DejaVuSans-117"/>
      <use x="335.386719" xlink:href="#DejaVuSans-116"/>
      <use x="374.595703" xlink:href="#DejaVuSans-105"/>
      <use x="402.378906" xlink:href="#DejaVuSans-111"/>
      <use x="463.560547" xlink:href="#DejaVuSans-110"/>
     </g>
    </g>
   </g>
   <g id="matplotlib.axis_2">
    <g id="ytick_1">
     <g id="line2d_15">
      <path clip-path="url(#p7abac22989)" d="M 46.789687 237.785371 
L 493.189687 237.785371 
" style="fill:none;stroke:#e5e5e5;stroke-width:0.8;"/>
     </g>
     <g id="line2d_16">
      <path d="M 46.789687 237.785371 
" style="fill:none;stroke:#000000;stroke-width:1.5;"/>
      <defs>
       <path d="M 0 0 
L -2.75 0 
" id="m654db07a8b" style="stroke:#000000;"/>
      </defs>
      <g>
       <use style="stroke:#000000;" x="46.789687" xlink:href="#m654db07a8b" y="237.785371"/>
      </g>
     </g>
     <g id="text_6">
      <!-- 0 -->
      <defs>
       <path d="M 31.78125 66.40625 
Q 24.171875 66.40625 20.328125 58.90625 
Q 16.5 51.421875 16.5 36.375 
Q 16.5 21.390625 20.328125 13.890625 
Q 24.171875 6.390625 31.78125 6.390625 
Q 39.453125 6.390625 43.28125 13.890625 
Q 47.125 21.390625 47.125 36.375 
Q 47.125 51.421875 43.28125 58.90625 
Q 39.453125 66.40625 31.78125 66.40625 
z
M 31.78125 74.21875 
Q 44.046875 74.21875 50.515625 64.515625 
Q 56.984375 54.828125 56.984375 36.375 
Q 56.984375 17.96875 50.515625 8.265625 
Q 44.046875 -1.421875 31.78125 -1.421875 
Q 19.53125 -1.421875 13.0625 8.265625 
Q 6.59375 17.96875 6.59375 36.375 
Q 6.59375 54.828125 13.0625 64.515625 
Q 19.53125 74.21875 31.78125 74.21875 
z
" id="DejaVuSans-48"/>
      </defs>
      <g style="fill:#4d4d4d;" transform="translate(36.240687 240.213621)scale(0.088 -0.088)">
       <use xlink:href="#DejaVuSans-48"/>
      </g>
     </g>
    </g>
    <g id="ytick_2">
     <g id="line2d_17">
      <path clip-path="url(#p7abac22989)" d="M 46.789687 187.385371 
L 493.189687 187.385371 
" style="fill:none;stroke:#e5e5e5;stroke-width:0.8;"/>
     </g>
     <g id="line2d_18">
      <path d="M 46.789687 187.385371 
" style="fill:none;stroke:#000000;stroke-width:1.5;"/>
      <g>
       <use style="stroke:#000000;" x="46.789687" xlink:href="#m654db07a8b" y="187.385371"/>
      </g>
     </g>
     <g id="text_7">
      <!-- 0.25 -->
      <defs>
       <path d="M 10.6875 12.40625 
L 21 12.40625 
L 21 0 
L 10.6875 0 
z
" id="DejaVuSans-46"/>
       <path d="M 10.796875 72.90625 
L 49.515625 72.90625 
L 49.515625 64.59375 
L 19.828125 64.59375 
L 19.828125 46.734375 
Q 21.96875 47.46875 24.109375 47.828125 
Q 26.265625 48.1875 28.421875 48.1875 
Q 40.625 48.1875 47.75 41.5 
Q 54.890625 34.8125 54.890625 23.390625 
Q 54.890625 11.625 47.5625 5.09375 
Q 40.234375 -1.421875 26.90625 -1.421875 
Q 22.3125 -1.421875 17.546875 -0.640625 
Q 12.796875 0.140625 7.71875 1.703125 
L 7.71875 11.625 
Q 12.109375 9.234375 16.796875 8.0625 
Q 21.484375 6.890625 26.703125 6.890625 
Q 35.15625 6.890625 40.078125 11.328125 
Q 45.015625 15.765625 45.015625 23.390625 
Q 45.015625 31 40.078125 35.4375 
Q 35.15625 39.890625 26.703125 39.890625 
Q 22.75 39.890625 18.8125 39.015625 
Q 14.890625 38.140625 10.796875 36.28125 
z
" id="DejaVuSans-53"/>
      </defs>
      <g style="fill:#4d4d4d;" transform="translate(22.245937 189.813621)scale(0.088 -0.088)">
       <use xlink:href="#DejaVuSans-48"/>
       <use x="63.623047" xlink:href="#DejaVuSans-46"/>
       <use x="95.410156" xlink:href="#DejaVuSans-50"/>
       <use x="159.033203" xlink:href="#DejaVuSans-53"/>
      </g>
     </g>
    </g>
    <g id="ytick_3">
     <g id="line2d_19">
      <path clip-path="url(#p7abac22989)" d="M 46.789687 136.985371 
L 493.189687 136.985371 
" style="fill:none;stroke:#e5e5e5;stroke-width:0.8;"/>
     </g>
     <g id="line2d_20">
      <path d="M 46.789687 136.985371 
" style="fill:none;stroke:#000000;stroke-width:1.5;"/>
      <g>
       <use style="stroke:#000000;" x="46.789687" xlink:href="#m654db07a8b" y="136.985371"/>
      </g>
     </g>
     <g id="text_8">
      <!-- 0.50 -->
      <g style="fill:#4d4d4d;" transform="translate(22.245937 139.413621)scale(0.088 -0.088)">
       <use xlink:href="#DejaVuSans-48"/>
       <use x="63.623047" xlink:href="#DejaVuSans-46"/>
       <use x="95.410156" xlink:href="#DejaVuSans-53"/>
       <use x="159.033203" xlink:href="#DejaVuSans-48"/>
      </g>
     </g>
    </g>
    <g id="ytick_4">
     <g id="line2d_21">
      <path clip-path="url(#p7abac22989)" d="M 46.789687 86.585371 
L 493.189687 86.585371 
" style="fill:none;stroke:#e5e5e5;stroke-width:0.8;"/>
     </g>
     <g id="line2d_22">
      <path d="M 46.789687 86.585371 
" style="fill:none;stroke:#000000;stroke-width:1.5;"/>
      <g>
       <use style="stroke:#000000;" x="46.789687" xlink:href="#m654db07a8b" y="86.585371"/>
      </g>
     </g>
     <g id="text_9">
      <!-- 0.75 -->
      <defs>
       <path d="M 8.203125 72.90625 
L 55.078125 72.90625 
L 55.078125 68.703125 
L 28.609375 0 
L 18.3125 0 
L 43.21875 64.59375 
L 8.203125 64.59375 
z
" id="DejaVuSans-55"/>
      </defs>
      <g style="fill:#4d4d4d;" transform="translate(22.245937 89.013621)scale(0.088 -0.088)">
       <use xlink:href="#DejaVuSans-48"/>
       <use x="63.623047" xlink:href="#DejaVuSans-46"/>
       <use x="95.410156" xlink:href="#DejaVuSans-55"/>
       <use x="159.033203" xlink:href="#DejaVuSans-53"/>
      </g>
     </g>
    </g>
    <g id="ytick_5">
     <g id="line2d_23">
      <path clip-path="url(#p7abac22989)" d="M 46.789687 36.185371 
L 493.189687 36.185371 
" style="fill:none;stroke:#e5e5e5;stroke-width:0.8;"/>
     </g>
     <g id="line2d_24">
      <path d="M 46.789687 36.185371 
" style="fill:none;stroke:#000000;stroke-width:1.5;"/>
      <g>
       <use style="stroke:#000000;" x="46.789687" xlink:href="#m654db07a8b" y="36.185371"/>
      </g>
     </g>
     <g id="text_10">
      <!-- 1 -->
      <g style="fill:#4d4d4d;" transform="translate(36.240687 38.613621)scale(0.088 -0.088)">
       <use xlink:href="#DejaVuSans-49"/>
      </g>
     </g>
    </g>
    <g id="ytick_6">
     <g id="line2d_25">
      <path clip-path="url(#p7abac22989)" d="M 46.789687 212.585371 
L 493.189687 212.585371 
" style="fill:none;stroke:#fafafa;"/>
     </g>
     <g id="line2d_26">
      <path d="M 46.789687 212.585371 
" style="fill:none;stroke:#000000;stroke-width:1.5;"/>
      <defs>
       <path d="M 0 0 
L -1.375 0 
" id="m6df7655e49" style="stroke:#000000;"/>
      </defs>
      <g>
       <use style="stroke:#000000;" x="46.789687" xlink:href="#m6df7655e49" y="212.585371"/>
      </g>
     </g>
    </g>
    <g id="ytick_7">
     <g id="line2d_27">
      <path clip-path="url(#p7abac22989)" d="M 46.789687 162.185371 
L 493.189687 162.185371 
" style="fill:none;stroke:#fafafa;"/>
     </g>
     <g id="line2d_28">
      <path d="M 46.789687 162.185371 
" style="fill:none;stroke:#000000;stroke-width:1.5;"/>
      <g>
       <use style="stroke:#000000;" x="46.789687" xlink:href="#m6df7655e49" y="162.185371"/>
      </g>
     </g>
    </g>
    <g id="ytick_8">
     <g id="line2d_29">
      <path clip-path="url(#p7abac22989)" d="M 46.789687 111.785371 
L 493.189687 111.785371 
" style="fill:none;stroke:#fafafa;"/>
     </g>
     <g id="line2d_30">
      <path d="M 46.789687 111.785371 
" style="fill:none;stroke:#000000;stroke-width:1.5;"/>
      <g>
       <use style="stroke:#000000;" x="46.789687" xlink:href="#m6df7655e49" y="111.785371"/>
      </g>
     </g>
    </g>
    <g id="ytick_9">
     <g id="line2d_31">
      <path clip-path="url(#p7abac22989)" d="M 46.789687 61.385371 
L 493.189687 61.385371 
" style="fill:none;stroke:#fafafa;"/>
     </g>
     <g id="line2d_32">
      <path d="M 46.789687 61.385371 
" style="fill:none;stroke:#000000;stroke-width:1.5;"/>
      <g>
       <use style="stroke:#000000;" x="46.789687" xlink:href="#m6df7655e49" y="61.385371"/>
      </g>
     </g>
    </g>
    <g id="text_11">
     <!-- Q1 percentile -->
     <defs>
      <path d="M 39.40625 66.21875 
Q 28.65625 66.21875 22.328125 58.203125 
Q 16.015625 50.203125 16.015625 36.375 
Q 16.015625 22.609375 22.328125 14.59375 
Q 28.65625 6.59375 39.40625 6.59375 
Q 50.140625 6.59375 56.421875 14.59375 
Q 62.703125 22.609375 62.703125 36.375 
Q 62.703125 50.203125 56.421875 58.203125 
Q 50.140625 66.21875 39.40625 66.21875 
z
M 53.21875 1.3125 
L 66.21875 -12.890625 
L 54.296875 -12.890625 
L 43.5 -1.21875 
Q 41.890625 -1.3125 41.03125 -1.359375 
Q 40.1875 -1.421875 39.40625 -1.421875 
Q 24.03125 -1.421875 14.8125 8.859375 
Q 5.609375 19.140625 5.609375 36.375 
Q 5.609375 53.65625 14.8125 63.9375 
Q 24.03125 74.21875 39.40625 74.21875 
Q 54.734375 74.21875 63.90625 63.9375 
Q 73.09375 53.65625 73.09375 36.375 
Q 73.09375 23.6875 67.984375 14.640625 
Q 62.890625 5.609375 53.21875 1.3125 
z
" id="DejaVuSans-81"/>
      <path id="DejaVuSans-32"/>
      <path d="M 18.109375 8.203125 
L 18.109375 -20.796875 
L 9.078125 -20.796875 
L 9.078125 54.6875 
L 18.109375 54.6875 
L 18.109375 46.390625 
Q 20.953125 51.265625 25.265625 53.625 
Q 29.59375 56 35.59375 56 
Q 45.5625 56 51.78125 48.09375 
Q 58.015625 40.1875 58.015625 27.296875 
Q 58.015625 14.40625 51.78125 6.484375 
Q 45.5625 -1.421875 35.59375 -1.421875 
Q 29.59375 -1.421875 25.265625 0.953125 
Q 20.953125 3.328125 18.109375 8.203125 
z
M 48.6875 27.296875 
Q 48.6875 37.203125 44.609375 42.84375 
Q 40.53125 48.484375 33.40625 48.484375 
Q 26.265625 48.484375 22.1875 42.84375 
Q 18.109375 37.203125 18.109375 27.296875 
Q 18.109375 17.390625 22.1875 11.75 
Q 26.265625 6.109375 33.40625 6.109375 
Q 40.53125 6.109375 44.609375 11.75 
Q 48.6875 17.390625 48.6875 27.296875 
z
" id="DejaVuSans-112"/>
      <path d="M 41.109375 46.296875 
Q 39.59375 47.171875 37.8125 47.578125 
Q 36.03125 48 33.890625 48 
Q 26.265625 48 22.1875 43.046875 
Q 18.109375 38.09375 18.109375 28.8125 
L 18.109375 0 
L 9.078125 0 
L 9.078125 54.6875 
L 18.109375 54.6875 
L 18.109375 46.1875 
Q 20.953125 51.171875 25.484375 53.578125 
Q 30.03125 56 36.53125 56 
Q 37.453125 56 38.578125 55.875 
Q 39.703125 55.765625 41.0625 55.515625 
z
" id="DejaVuSans-114"/>
      <path d="M 48.78125 52.59375 
L 48.78125 44.1875 
Q 44.96875 46.296875 41.140625 47.34375 
Q 37.3125 48.390625 33.40625 48.390625 
Q 24.65625 48.390625 19.8125 42.84375 
Q 14.984375 37.3125 14.984375 27.296875 
Q 14.984375 17.28125 19.8125 11.734375 
Q 24.65625 6.203125 33.40625 6.203125 
Q 37.3125 6.203125 41.140625 7.25 
Q 44.96875 8.296875 48.78125 10.40625 
L 48.78125 2.09375 
Q 45.015625 0.34375 40.984375 -0.53125 
Q 36.96875 -1.421875 32.421875 -1.421875 
Q 20.0625 -1.421875 12.78125 6.34375 
Q 5.515625 14.109375 5.515625 27.296875 
Q 5.515625 40.671875 12.859375 48.328125 
Q 20.21875 56 33.015625 56 
Q 37.15625 56 41.109375 55.140625 
Q 45.0625 54.296875 48.78125 52.59375 
z
" id="DejaVuSans-99"/>
     </defs>
     <g transform="translate(15.558281 172.747714)rotate(-90)scale(0.11 -0.11)">
      <use xlink:href="#DejaVuSans-81"/>
      <use x="78.710938" xlink:href="#DejaVuSans-49"/>
      <use x="142.333984" xlink:href="#DejaVuSans-32"/>
      <use x="174.121094" xlink:href="#DejaVuSans-112"/>
      <use x="237.597656" xlink:href="#DejaVuSans-101"/>
      <use x="299.121094" xlink:href="#DejaVuSans-114"/>
      <use x="340.203125" xlink:href="#DejaVuSans-99"/>
      <use x="395.183594" xlink:href="#DejaVuSans-101"/>
      <use x="456.707031" xlink:href="#DejaVuSans-110"/>
      <use x="520.085938" xlink:href="#DejaVuSans-116"/>
      <use x="559.294922" xlink:href="#DejaVuSans-105"/>
      <use x="587.078125" xlink:href="#DejaVuSans-108"/>
      <use x="614.861328" xlink:href="#DejaVuSans-101"/>
     </g>
    </g>
   </g>
   <g id="PathCollection_1">
    <path clip-path="url(#p7abac22989)" d="M 67.080597 73.457722 
C 67.550657 73.457722 68.001528 73.270965 68.333911 72.938582 
C 68.666294 72.606199 68.85305 72.155328 68.85305 71.685268 
C 68.85305 71.215208 68.666294 70.764336 68.333911 70.431954 
C 68.001528 70.099571 67.550657 69.912814 67.080597 69.912814 
C 66.610536 69.912814 66.159665 70.099571 65.827282 70.431954 
C 65.4949 70.764336 65.308143 71.215208 65.308143 71.685268 
C 65.308143 72.155328 65.4949 72.606199 65.827282 72.938582 
C 66.159665 73.270965 66.610536 73.457722 67.080597 73.457722 
z
" style="stroke:#000000;stroke-width:0.886227;"/>
    <path clip-path="url(#p7abac22989)" d="M 80.607869 74.930836 
C 81.07793 74.930836 81.528801 74.744079 81.861183 74.411696 
C 82.193566 74.079314 82.380323 73.628442 82.380323 73.158382 
C 82.380323 72.688322 82.193566 72.237451 81.861183 71.905068 
C 81.528801 71.572685 81.07793 71.385928 80.607869 71.385928 
C 80.137809 71.385928 79.686938 71.572685 79.354555 71.905068 
C 79.022172 72.237451 78.835415 72.688322 78.835415 73.158382 
C 78.835415 73.628442 79.022172 74.079314 79.354555 74.411696 
C 79.686938 74.744079 80.137809 74.930836 80.607869 74.930836 
z
" style="stroke:#000000;stroke-width:0.886227;"/>
    <path clip-path="url(#p7abac22989)" d="M 94.135142 81.661218 
C 94.605202 81.661218 95.056073 81.474461 95.388456 81.142078 
C 95.720839 80.809695 95.907596 80.358824 95.907596 79.888764 
C 95.907596 79.418704 95.720839 78.967833 95.388456 78.63545 
C 95.056073 78.303067 94.605202 78.11631 94.135142 78.11631 
C 93.665082 78.11631 93.214211 78.303067 92.881828 78.63545 
C 92.549445 78.967833 92.362688 79.418704 92.362688 79.888764 
C 92.362688 80.358824 92.549445 80.809695 92.881828 81.142078 
C 93.214211 81.474461 93.665082 81.661218 94.135142 81.661218 
z
" style="stroke:#000000;stroke-width:0.886227;"/>
    <path clip-path="url(#p7abac22989)" d="M 107.662415 82.156662 
C 108.132475 82.156662 108.583346 81.969905 108.915729 81.637523 
C 109.248112 81.30514 109.434869 80.854269 109.434869 80.384208 
C 109.434869 79.914148 109.248112 79.463277 108.915729 79.130894 
C 108.583346 78.798511 108.132475 78.611755 107.662415 78.611755 
C 107.192355 78.611755 106.741483 78.798511 106.409101 79.130894 
C 106.076718 79.463277 105.889961 79.914148 105.889961 80.384208 
C 105.889961 80.854269 106.076718 81.30514 106.409101 81.637523 
C 106.741483 81.969905 107.192355 82.156662 107.662415 82.156662 
z
" style="stroke:#000000;stroke-width:0.886227;"/>
    <path clip-path="url(#p7abac22989)" d="M 121.189688 90.555264 
C 121.659748 90.555264 122.110619 90.368507 122.443002 90.036124 
C 122.775384 89.703741 122.962141 89.25287 122.962141 88.78281 
C 122.962141 88.31275 122.775384 87.861879 122.443002 87.529496 
C 122.110619 87.197113 121.659748 87.010356 121.189688 87.010356 
C 120.719627 87.010356 120.268756 87.197113 119.936373 87.529496 
C 119.603991 87.861879 119.417234 88.31275 119.417234 88.78281 
C 119.417234 89.25287 119.603991 89.703741 119.936373 90.036124 
C 120.268756 90.368507 120.719627 90.555264 121.189688 90.555264 
z
" style="stroke:#000000;stroke-width:0.886227;"/>
    <path clip-path="url(#p7abac22989)" d="M 134.71696 97.703946 
C 135.18702 97.703946 135.637892 97.517189 135.970274 97.184807 
C 136.302657 96.852424 136.489414 96.401553 136.489414 95.931492 
C 136.489414 95.461432 136.302657 95.010561 135.970274 94.678178 
C 135.637892 94.345795 135.18702 94.159039 134.71696 94.159039 
C 134.2469 94.159039 133.796029 94.345795 133.463646 94.678178 
C 133.131263 95.010561 132.944506 95.461432 132.944506 95.931492 
C 132.944506 96.401553 133.131263 96.852424 133.463646 97.184807 
C 133.796029 97.517189 134.2469 97.703946 134.71696 97.703946 
z
" style="stroke:#000000;stroke-width:0.886227;"/>
    <path clip-path="url(#p7abac22989)" d="M 148.244233 102.707729 
C 148.714293 102.707729 149.165164 102.520972 149.497547 102.18859 
C 149.82993 101.856207 150.016687 101.405336 150.016687 100.935275 
C 150.016687 100.465215 149.82993 100.014344 149.497547 99.681961 
C 149.165164 99.349578 148.714293 99.162822 148.244233 99.162822 
C 147.774173 99.162822 147.323302 99.349578 146.990919 99.681961 
C 146.658536 100.014344 146.471779 100.465215 146.471779 100.935275 
C 146.471779 101.405336 146.658536 101.856207 146.990919 102.18859 
C 147.323302 102.520972 147.774173 102.707729 148.244233 102.707729 
z
" style="stroke:#000000;stroke-width:0.886227;"/>
    <path clip-path="url(#p7abac22989)" d="M 161.771506 111.261848 
C 162.241566 111.261848 162.692437 111.075091 163.02482 110.742708 
C 163.357203 110.410325 163.54396 109.959454 163.54396 109.489394 
C 163.54396 109.019334 163.357203 108.568463 163.02482 108.23608 
C 162.692437 107.903697 162.241566 107.71694 161.771506 107.71694 
C 161.301445 107.71694 160.850574 107.903697 160.518192 108.23608 
C 160.185809 108.568463 159.999052 109.019334 159.999052 109.489394 
C 159.999052 109.959454 160.185809 110.410325 160.518192 110.742708 
C 160.850574 111.075091 161.301445 111.261848 161.771506 111.261848 
z
" style="stroke:#000000;stroke-width:0.886227;"/>
    <path clip-path="url(#p7abac22989)" d="M 175.298778 114.490989 
C 175.768839 114.490989 176.21971 114.304232 176.552093 113.971849 
C 176.884475 113.639466 177.071232 113.188595 177.071232 112.718535 
C 177.071232 112.248475 176.884475 111.797604 176.552093 111.465221 
C 176.21971 111.132838 175.768839 110.946081 175.298778 110.946081 
C 174.828718 110.946081 174.377847 111.132838 174.045464 111.465221 
C 173.713081 111.797604 173.526325 112.248475 173.526325 112.718535 
C 173.526325 113.188595 173.713081 113.639466 174.045464 113.971849 
C 174.377847 114.304232 174.828718 114.490989 175.298778 114.490989 
z
" style="stroke:#000000;stroke-width:0.886227;"/>
    <path clip-path="url(#p7abac22989)" d="M 188.826051 126.529509 
C 189.296111 126.529509 189.746982 126.342752 190.079365 126.010369 
C 190.411748 125.677986 190.598505 125.227115 190.598505 124.757055 
C 190.598505 124.286995 190.411748 123.836123 190.079365 123.503741 
C 189.746982 123.171358 189.296111 122.984601 188.826051 122.984601 
C 188.355991 122.984601 187.90512 123.171358 187.572737 123.503741 
C 187.240354 123.836123 187.053597 124.286995 187.053597 124.757055 
C 187.053597 125.227115 187.240354 125.677986 187.572737 126.010369 
C 187.90512 126.342752 188.355991 126.529509 188.826051 126.529509 
z
" style="stroke:#000000;stroke-width:0.886227;"/>
    <path clip-path="url(#p7abac22989)" d="M 202.353324 135.951946 
C 202.823384 135.951946 203.274255 135.765189 203.606638 135.432807 
C 203.939021 135.100424 204.125778 134.649553 204.125778 134.179492 
C 204.125778 133.709432 203.939021 133.258561 203.606638 132.926178 
C 203.274255 132.593795 202.823384 132.407039 202.353324 132.407039 
C 201.883264 132.407039 201.432393 132.593795 201.10001 132.926178 
C 200.767627 133.258561 200.58087 133.709432 200.58087 134.179492 
C 200.58087 134.649553 200.767627 135.100424 201.10001 135.432807 
C 201.432393 135.765189 201.883264 135.951946 202.353324 135.951946 
z
" style="stroke:#000000;stroke-width:0.886227;"/>
    <path clip-path="url(#p7abac22989)" d="M 215.880597 143.268604 
C 216.350657 143.268604 216.801528 143.081847 217.133911 142.749464 
C 217.466294 142.417081 217.65305 141.96621 217.65305 141.49615 
C 217.65305 141.026089 217.466294 140.575218 217.133911 140.242836 
C 216.801528 139.910453 216.350657 139.723696 215.880597 139.723696 
C 215.410536 139.723696 214.959665 139.910453 214.627282 140.242836 
C 214.2949 140.575218 214.108143 141.026089 214.108143 141.49615 
C 214.108143 141.96621 214.2949 142.417081 214.627282 142.749464 
C 214.959665 143.081847 215.410536 143.268604 215.880597 143.268604 
z
" style="stroke:#000000;stroke-width:0.886227;"/>
    <path clip-path="url(#p7abac22989)" d="M 229.407869 149.267417 
C 229.87793 149.267417 230.328801 149.08066 230.661183 148.748277 
C 230.993566 148.415895 231.180323 147.965024 231.180323 147.494963 
C 231.180323 147.024903 230.993566 146.574032 230.661183 146.241649 
C 230.328801 145.909266 229.87793 145.722509 229.407869 145.722509 
C 228.937809 145.722509 228.486938 145.909266 228.154555 146.241649 
C 227.822172 146.574032 227.635415 147.024903 227.635415 147.494963 
C 227.635415 147.965024 227.822172 148.415895 228.154555 148.748277 
C 228.486938 149.08066 228.937809 149.267417 229.407869 149.267417 
z
" style="stroke:#000000;stroke-width:0.886227;"/>
    <path clip-path="url(#p7abac22989)" d="M 242.935142 160.660108 
C 243.405202 160.660108 243.856073 160.473351 244.188456 160.140968 
C 244.520839 159.808585 244.707596 159.357714 244.707596 158.887654 
C 244.707596 158.417594 244.520839 157.966722 244.188456 157.63434 
C 243.856073 157.301957 243.405202 157.1152 242.935142 157.1152 
C 242.465082 157.1152 242.014211 157.301957 241.681828 157.63434 
C 241.349445 157.966722 241.162688 158.417594 241.162688 158.887654 
C 241.162688 159.357714 241.349445 159.808585 241.681828 160.140968 
C 242.014211 160.473351 242.465082 160.660108 242.935142 160.660108 
z
" style="stroke:#000000;stroke-width:0.886227;"/>
    <path clip-path="url(#p7abac22989)" d="M 256.462415 161.174707 
C 256.932475 161.174707 257.383346 160.98795 257.715729 160.655567 
C 258.048112 160.323184 258.234869 159.872313 258.234869 159.402253 
C 258.234869 158.932193 258.048112 158.481322 257.715729 158.148939 
C 257.383346 157.816556 256.932475 157.629799 256.462415 157.629799 
C 255.992355 157.629799 255.541483 157.816556 255.209101 158.148939 
C 254.876718 158.481322 254.689961 158.932193 254.689961 159.402253 
C 254.689961 159.872313 254.876718 160.323184 255.209101 160.655567 
C 255.541483 160.98795 255.992355 161.174707 256.462415 161.174707 
z
" style="stroke:#000000;stroke-width:0.886227;"/>
    <path clip-path="url(#p7abac22989)" d="M 269.989688 170.458518 
C 270.459748 170.458518 270.910619 170.271761 271.243002 169.939378 
C 271.575384 169.606995 271.762141 169.156124 271.762141 168.686064 
C 271.762141 168.216004 271.575384 167.765133 271.243002 167.43275 
C 270.910619 167.100367 270.459748 166.91361 269.989688 166.91361 
C 269.519627 166.91361 269.068756 167.100367 268.736373 167.43275 
C 268.403991 167.765133 268.217234 168.216004 268.217234 168.686064 
C 268.217234 169.156124 268.403991 169.606995 268.736373 169.939378 
C 269.068756 170.271761 269.519627 170.458518 269.989688 170.458518 
z
" style="stroke:#000000;stroke-width:0.886227;"/>
    <path clip-path="url(#p7abac22989)" d="M 283.51696 168.451831 
C 283.98702 168.451831 284.437892 168.265074 284.770274 167.932691 
C 285.102657 167.600308 285.289414 167.149437 285.289414 166.679377 
C 285.289414 166.209317 285.102657 165.758446 284.770274 165.426063 
C 284.437892 165.09368 283.98702 164.906923 283.51696 164.906923 
C 283.0469 164.906923 282.596029 165.09368 282.263646 165.426063 
C 281.931263 165.758446 281.744506 166.209317 281.744506 166.679377 
C 281.744506 167.149437 281.931263 167.600308 282.263646 167.932691 
C 282.596029 168.265074 283.0469 168.451831 283.51696 168.451831 
z
" style="stroke:#000000;stroke-width:0.886227;"/>
    <path clip-path="url(#p7abac22989)" d="M 297.044233 174.995324 
C 297.514293 174.995324 297.965164 174.808567 298.297547 174.476185 
C 298.62993 174.143802 298.816687 173.692931 298.816687 173.22287 
C 298.816687 172.75281 298.62993 172.301939 298.297547 171.969556 
C 297.965164 171.637173 297.514293 171.450417 297.044233 171.450417 
C 296.574173 171.450417 296.123302 171.637173 295.790919 171.969556 
C 295.458536 172.301939 295.271779 172.75281 295.271779 173.22287 
C 295.271779 173.692931 295.458536 174.143802 295.790919 174.476185 
C 296.123302 174.808567 296.574173 174.995324 297.044233 174.995324 
z
" style="stroke:#000000;stroke-width:0.886227;"/>
    <path clip-path="url(#p7abac22989)" d="M 310.571506 177.012187 
C 311.041566 177.012187 311.492437 176.825431 311.82482 176.493048 
C 312.157203 176.160665 312.34396 175.709794 312.34396 175.239734 
C 312.34396 174.769673 312.157203 174.318802 311.82482 173.986419 
C 311.492437 173.654037 311.041566 173.46728 310.571506 173.46728 
C 310.101445 173.46728 309.650574 173.654037 309.318192 173.986419 
C 308.985809 174.318802 308.799052 174.769673 308.799052 175.239734 
C 308.799052 175.709794 308.985809 176.160665 309.318192 176.493048 
C 309.650574 176.825431 310.101445 177.012187 310.571506 177.012187 
z
" style="stroke:#000000;stroke-width:0.886227;"/>
    <path clip-path="url(#p7abac22989)" d="M 324.098778 181.483671 
C 324.568839 181.483671 325.01971 181.296914 325.352093 180.964531 
C 325.684475 180.632148 325.871232 180.181277 325.871232 179.711217 
C 325.871232 179.241156 325.684475 178.790285 325.352093 178.457903 
C 325.01971 178.12552 324.568839 177.938763 324.098778 177.938763 
C 323.628718 177.938763 323.177847 178.12552 322.845464 178.457903 
C 322.513081 178.790285 322.326325 179.241156 322.326325 179.711217 
C 322.326325 180.181277 322.513081 180.632148 322.845464 180.964531 
C 323.177847 181.296914 323.628718 181.483671 324.098778 181.483671 
z
" style="stroke:#000000;stroke-width:0.886227;"/>
    <path clip-path="url(#p7abac22989)" d="M 337.626051 175.616043 
C 338.096111 175.616043 338.546982 175.429286 338.879365 175.096903 
C 339.211748 174.764521 339.398505 174.31365 339.398505 173.843589 
C 339.398505 173.373529 339.211748 172.922658 338.879365 172.590275 
C 338.546982 172.257892 338.096111 172.071135 337.626051 172.071135 
C 337.155991 172.071135 336.70512 172.257892 336.372737 172.590275 
C 336.040354 172.922658 335.853597 173.373529 335.853597 173.843589 
C 335.853597 174.31365 336.040354 174.764521 336.372737 175.096903 
C 336.70512 175.429286 337.155991 175.616043 337.626051 175.616043 
z
" style="stroke:#000000;stroke-width:0.886227;"/>
    <path clip-path="url(#p7abac22989)" d="M 351.153324 174.752566 
C 351.623384 174.752566 352.074255 174.565809 352.406638 174.233426 
C 352.739021 173.901044 352.925778 173.450173 352.925778 172.980112 
C 352.925778 172.510052 352.739021 172.059181 352.406638 171.726798 
C 352.074255 171.394415 351.623384 171.207658 351.153324 171.207658 
C 350.683264 171.207658 350.232393 171.394415 349.90001 171.726798 
C 349.567627 172.059181 349.38087 172.510052 349.38087 172.980112 
C 349.38087 173.450173 349.567627 173.901044 349.90001 174.233426 
C 350.232393 174.565809 350.683264 174.752566 351.153324 174.752566 
z
" style="stroke:#000000;stroke-width:0.886227;"/>
    <path clip-path="url(#p7abac22989)" d="M 364.680597 181.128999 
C 365.150657 181.128999 365.601528 180.942242 365.933911 180.609859 
C 366.266294 180.277476 366.45305 179.826605 366.45305 179.356545 
C 366.45305 178.886485 366.266294 178.435614 365.933911 178.103231 
C 365.601528 177.770848 365.150657 177.584091 364.680597 177.584091 
C 364.210536 177.584091 363.759665 177.770848 363.427282 178.103231 
C 363.0949 178.435614 362.908143 178.886485 362.908143 179.356545 
C 362.908143 179.826605 363.0949 180.277476 363.427282 180.609859 
C 363.759665 180.942242 364.210536 181.128999 364.680597 181.128999 
z
" style="stroke:#000000;stroke-width:0.886227;"/>
    <path clip-path="url(#p7abac22989)" d="M 378.207869 186.964042 
C 378.67793 186.964042 379.128801 186.777285 379.461183 186.444902 
C 379.793566 186.112519 379.980323 185.661648 379.980323 185.191588 
C 379.980323 184.721528 379.793566 184.270657 379.461183 183.938274 
C 379.128801 183.605891 378.67793 183.419134 378.207869 183.419134 
C 377.737809 183.419134 377.286938 183.605891 376.954555 183.938274 
C 376.622172 184.270657 376.435415 184.721528 376.435415 185.191588 
C 376.435415 185.661648 376.622172 186.112519 376.954555 186.444902 
C 377.286938 186.777285 377.737809 186.964042 378.207869 186.964042 
z
" style="stroke:#000000;stroke-width:0.886227;"/>
    <path clip-path="url(#p7abac22989)" d="M 391.735142 195.300239 
C 392.205202 195.300239 392.656073 195.113482 392.988456 194.781099 
C 393.320839 194.448716 393.507596 193.997845 393.507596 193.527785 
C 393.507596 193.057725 393.320839 192.606854 392.988456 192.274471 
C 392.656073 191.942088 392.205202 191.755331 391.735142 191.755331 
C 391.265082 191.755331 390.814211 191.942088 390.481828 192.274471 
C 390.149445 192.606854 389.962688 193.057725 389.962688 193.527785 
C 389.962688 193.997845 390.149445 194.448716 390.481828 194.781099 
C 390.814211 195.113482 391.265082 195.300239 391.735142 195.300239 
z
" style="stroke:#000000;stroke-width:0.886227;"/>
    <path clip-path="url(#p7abac22989)" d="M 405.262415 190.267882 
C 405.732475 190.267882 406.183346 190.081125 406.515729 189.748742 
C 406.848112 189.416359 407.034869 188.965488 407.034869 188.495428 
C 407.034869 188.025367 406.848112 187.574496 406.515729 187.242114 
C 406.183346 186.909731 405.732475 186.722974 405.262415 186.722974 
C 404.792355 186.722974 404.341483 186.909731 404.009101 187.242114 
C 403.676718 187.574496 403.489961 188.025367 403.489961 188.495428 
C 403.489961 188.965488 403.676718 189.416359 404.009101 189.748742 
C 404.341483 190.081125 404.792355 190.267882 405.262415 190.267882 
z
" style="stroke:#000000;stroke-width:0.886227;"/>
    <path clip-path="url(#p7abac22989)" d="M 418.789688 187.379455 
C 419.259748 187.379455 419.710619 187.192698 420.043002 186.860316 
C 420.375384 186.527933 420.562141 186.077062 420.562141 185.607001 
C 420.562141 185.136941 420.375384 184.68607 420.043002 184.353687 
C 419.710619 184.021304 419.259748 183.834548 418.789688 183.834548 
C 418.319627 183.834548 417.868756 184.021304 417.536373 184.353687 
C 417.203991 184.68607 417.017234 185.136941 417.017234 185.607001 
C 417.017234 186.077062 417.203991 186.527933 417.536373 186.860316 
C 417.868756 187.192698 418.319627 187.379455 418.789688 187.379455 
z
" style="stroke:#000000;stroke-width:0.886227;"/>
    <path clip-path="url(#p7abac22989)" d="M 432.31696 193.178121 
C 432.78702 193.178121 433.237892 192.991364 433.570274 192.658982 
C 433.902657 192.326599 434.089414 191.875728 434.089414 191.405667 
C 434.089414 190.935607 433.902657 190.484736 433.570274 190.152353 
C 433.237892 189.819971 432.78702 189.633214 432.31696 189.633214 
C 431.8469 189.633214 431.396029 189.819971 431.063646 190.152353 
C 430.731263 190.484736 430.544506 190.935607 430.544506 191.405667 
C 430.544506 191.875728 430.731263 192.326599 431.063646 192.658982 
C 431.396029 192.991364 431.8469 193.178121 432.31696 193.178121 
z
" style="stroke:#000000;stroke-width:0.886227;"/>
    <path clip-path="url(#p7abac22989)" d="M 445.844233 195.343373 
C 446.314293 195.343373 446.765164 195.156616 447.097547 194.824234 
C 447.42993 194.491851 447.616687 194.04098 447.616687 193.570919 
C 447.616687 193.100859 447.42993 192.649988 447.097547 192.317605 
C 446.765164 191.985222 446.314293 191.798466 445.844233 191.798466 
C 445.374173 191.798466 444.923302 191.985222 444.590919 192.317605 
C 444.258536 192.649988 444.071779 193.100859 444.071779 193.570919 
C 444.071779 194.04098 444.258536 194.491851 444.590919 194.824234 
C 444.923302 195.156616 445.374173 195.343373 445.844233 195.343373 
z
" style="stroke:#000000;stroke-width:0.886227;"/>
    <path clip-path="url(#p7abac22989)" d="M 459.371506 200.452254 
C 459.841566 200.452254 460.292437 200.265497 460.62482 199.933114 
C 460.957203 199.600731 461.14396 199.14986 461.14396 198.6798 
C 461.14396 198.20974 460.957203 197.758869 460.62482 197.426486 
C 460.292437 197.094103 459.841566 196.907346 459.371506 196.907346 
C 458.901445 196.907346 458.450574 197.094103 458.118192 197.426486 
C 457.785809 197.758869 457.599052 198.20974 457.599052 198.6798 
C 457.599052 199.14986 457.785809 199.600731 458.118192 199.933114 
C 458.450574 200.265497 458.901445 200.452254 459.371506 200.452254 
z
" style="stroke:#000000;stroke-width:0.886227;"/>
    <path clip-path="url(#p7abac22989)" d="M 472.898778 194.682425 
C 473.368839 194.682425 473.81971 194.495668 474.152093 194.163285 
C 474.484475 193.830902 474.671232 193.380031 474.671232 192.909971 
C 474.671232 192.439911 474.484475 191.98904 474.152093 191.656657 
C 473.81971 191.324274 473.368839 191.137517 472.898778 191.137517 
C 472.428718 191.137517 471.977847 191.324274 471.645464 191.656657 
C 471.313081 191.98904 471.126325 192.439911 471.126325 192.909971 
C 471.126325 193.380031 471.313081 193.830902 471.645464 194.163285 
C 471.977847 194.495668 472.428718 194.682425 472.898778 194.682425 
z
" style="stroke:#000000;stroke-width:0.886227;"/>
   </g>
   <g id="line2d_33">
    <path clip-path="url(#p7abac22989)" d="M 67.080597 71.685268 
L 80.607869 73.158382 
L 94.135142 79.888764 
L 107.662415 80.384208 
L 121.189688 88.78281 
L 134.71696 95.931492 
L 148.244233 100.935275 
L 161.771506 109.489394 
L 175.298778 112.718535 
L 188.826051 124.757055 
L 202.353324 134.179492 
L 215.880597 141.49615 
L 229.407869 147.494963 
L 242.935142 158.887654 
L 256.462415 159.402253 
L 269.989688 168.686064 
L 283.51696 166.679377 
L 297.044233 173.22287 
L 310.571506 175.239734 
L 324.098778 179.711217 
L 337.626051 173.843589 
L 351.153324 172.980112 
L 364.680597 179.356545 
L 378.207869 185.191588 
L 391.735142 193.527785 
L 405.262415 188.495428 
L 418.789688 185.607001 
L 432.31696 191.405667 
L 445.844233 193.570919 
L 459.371506 198.6798 
L 472.898778 192.909971 
" style="fill:none;stroke:#000000;stroke-width:0.886227;"/>
   </g>
  </g>
  <g id="text_12">
   <!-- Protein data with imputed missing values -->
   <defs>
    <path d="M 19.671875 64.796875 
L 19.671875 37.40625 
L 32.078125 37.40625 
Q 38.96875 37.40625 42.71875 40.96875 
Q 46.484375 44.53125 46.484375 51.125 
Q 46.484375 57.671875 42.71875 61.234375 
Q 38.96875 64.796875 32.078125 64.796875 
z
M 9.8125 72.90625 
L 32.078125 72.90625 
Q 44.34375 72.90625 50.609375 67.359375 
Q 56.890625 61.8125 56.890625 51.125 
Q 56.890625 40.328125 50.609375 34.8125 
Q 44.34375 29.296875 32.078125 29.296875 
L 19.671875 29.296875 
L 19.671875 0 
L 9.8125 0 
z
" id="DejaVuSans-80"/>
    <path d="M 45.40625 46.390625 
L 45.40625 75.984375 
L 54.390625 75.984375 
L 54.390625 0 
L 45.40625 0 
L 45.40625 8.203125 
Q 42.578125 3.328125 38.25 0.953125 
Q 33.9375 -1.421875 27.875 -1.421875 
Q 17.96875 -1.421875 11.734375 6.484375 
Q 5.515625 14.40625 5.515625 27.296875 
Q 5.515625 40.1875 11.734375 48.09375 
Q 17.96875 56 27.875 56 
Q 33.9375 56 38.25 53.625 
Q 42.578125 51.265625 45.40625 46.390625 
z
M 14.796875 27.296875 
Q 14.796875 17.390625 18.875 11.75 
Q 22.953125 6.109375 30.078125 6.109375 
Q 37.203125 6.109375 41.296875 11.75 
Q 45.40625 17.390625 45.40625 27.296875 
Q 45.40625 37.203125 41.296875 42.84375 
Q 37.203125 48.484375 30.078125 48.484375 
Q 22.953125 48.484375 18.875 42.84375 
Q 14.796875 37.203125 14.796875 27.296875 
z
" id="DejaVuSans-100"/>
    <path d="M 34.28125 27.484375 
Q 23.390625 27.484375 19.1875 25 
Q 14.984375 22.515625 14.984375 16.5 
Q 14.984375 11.71875 18.140625 8.90625 
Q 21.296875 6.109375 26.703125 6.109375 
Q 34.1875 6.109375 38.703125 11.40625 
Q 43.21875 16.703125 43.21875 25.484375 
L 43.21875 27.484375 
z
M 52.203125 31.203125 
L 52.203125 0 
L 43.21875 0 
L 43.21875 8.296875 
Q 40.140625 3.328125 35.546875 0.953125 
Q 30.953125 -1.421875 24.3125 -1.421875 
Q 15.921875 -1.421875 10.953125 3.296875 
Q 6 8.015625 6 15.921875 
Q 6 25.140625 12.171875 29.828125 
Q 18.359375 34.515625 30.609375 34.515625 
L 43.21875 34.515625 
L 43.21875 35.40625 
Q 43.21875 41.609375 39.140625 45 
Q 35.0625 48.390625 27.6875 48.390625 
Q 23 48.390625 18.546875 47.265625 
Q 14.109375 46.140625 10.015625 43.890625 
L 10.015625 52.203125 
Q 14.9375 54.109375 19.578125 55.046875 
Q 24.21875 56 28.609375 56 
Q 40.484375 56 46.34375 49.84375 
Q 52.203125 43.703125 52.203125 31.203125 
z
" id="DejaVuSans-97"/>
    <path d="M 4.203125 54.6875 
L 13.1875 54.6875 
L 24.421875 12.015625 
L 35.59375 54.6875 
L 46.1875 54.6875 
L 57.421875 12.015625 
L 68.609375 54.6875 
L 77.59375 54.6875 
L 63.28125 0 
L 52.6875 0 
L 40.921875 44.828125 
L 29.109375 0 
L 18.5 0 
z
" id="DejaVuSans-119"/>
    <path d="M 54.890625 33.015625 
L 54.890625 0 
L 45.90625 0 
L 45.90625 32.71875 
Q 45.90625 40.484375 42.875 44.328125 
Q 39.84375 48.1875 33.796875 48.1875 
Q 26.515625 48.1875 22.3125 43.546875 
Q 18.109375 38.921875 18.109375 30.90625 
L 18.109375 0 
L 9.078125 0 
L 9.078125 75.984375 
L 18.109375 75.984375 
L 18.109375 46.1875 
Q 21.34375 51.125 25.703125 53.5625 
Q 30.078125 56 35.796875 56 
Q 45.21875 56 50.046875 50.171875 
Q 54.890625 44.34375 54.890625 33.015625 
z
" id="DejaVuSans-104"/>
    <path d="M 52 44.1875 
Q 55.375 50.25 60.0625 53.125 
Q 64.75 56 71.09375 56 
Q 79.640625 56 84.28125 50.015625 
Q 88.921875 44.046875 88.921875 33.015625 
L 88.921875 0 
L 79.890625 0 
L 79.890625 32.71875 
Q 79.890625 40.578125 77.09375 44.375 
Q 74.3125 48.1875 68.609375 48.1875 
Q 61.625 48.1875 57.5625 43.546875 
Q 53.515625 38.921875 53.515625 30.90625 
L 53.515625 0 
L 44.484375 0 
L 44.484375 32.71875 
Q 44.484375 40.625 41.703125 44.40625 
Q 38.921875 48.1875 33.109375 48.1875 
Q 26.21875 48.1875 22.15625 43.53125 
Q 18.109375 38.875 18.109375 30.90625 
L 18.109375 0 
L 9.078125 0 
L 9.078125 54.6875 
L 18.109375 54.6875 
L 18.109375 46.1875 
Q 21.1875 51.21875 25.484375 53.609375 
Q 29.78125 56 35.6875 56 
Q 41.65625 56 45.828125 52.96875 
Q 50 49.953125 52 44.1875 
z
" id="DejaVuSans-109"/>
    <path d="M 45.40625 27.984375 
Q 45.40625 37.75 41.375 43.109375 
Q 37.359375 48.484375 30.078125 48.484375 
Q 22.859375 48.484375 18.828125 43.109375 
Q 14.796875 37.75 14.796875 27.984375 
Q 14.796875 18.265625 18.828125 12.890625 
Q 22.859375 7.515625 30.078125 7.515625 
Q 37.359375 7.515625 41.375 12.890625 
Q 45.40625 18.265625 45.40625 27.984375 
z
M 54.390625 6.78125 
Q 54.390625 -7.171875 48.1875 -13.984375 
Q 42 -20.796875 29.203125 -20.796875 
Q 24.46875 -20.796875 20.265625 -20.09375 
Q 16.0625 -19.390625 12.109375 -17.921875 
L 12.109375 -9.1875 
Q 16.0625 -11.328125 19.921875 -12.34375 
Q 23.78125 -13.375 27.78125 -13.375 
Q 36.625 -13.375 41.015625 -8.765625 
Q 45.40625 -4.15625 45.40625 5.171875 
L 45.40625 9.625 
Q 42.625 4.78125 38.28125 2.390625 
Q 33.9375 0 27.875 0 
Q 17.828125 0 11.671875 7.65625 
Q 5.515625 15.328125 5.515625 27.984375 
Q 5.515625 40.671875 11.671875 48.328125 
Q 17.828125 56 27.875 56 
Q 33.9375 56 38.28125 53.609375 
Q 42.625 51.21875 45.40625 46.390625 
L 45.40625 54.6875 
L 54.390625 54.6875 
z
" id="DejaVuSans-103"/>
    <path d="M 2.984375 54.6875 
L 12.5 54.6875 
L 29.59375 8.796875 
L 46.6875 54.6875 
L 56.203125 54.6875 
L 35.6875 0 
L 23.484375 0 
z
" id="DejaVuSans-118"/>
   </defs>
   <g transform="translate(125.756156 17.229938)scale(0.132 -0.132)">
    <use xlink:href="#DejaVuSans-80"/>
    <use x="60.287109" xlink:href="#DejaVuSans-114"/>
    <use x="101.369141" xlink:href="#DejaVuSans-111"/>
    <use x="162.550781" xlink:href="#DejaVuSans-116"/>
    <use x="201.759766" xlink:href="#DejaVuSans-101"/>
    <use x="263.283203" xlink:href="#DejaVuSans-105"/>
    <use x="291.066406" xlink:href="#DejaVuSans-110"/>
    <use x="354.445312" xlink:href="#DejaVuSans-32"/>
    <use x="386.232422" xlink:href="#DejaVuSans-100"/>
    <use x="449.708984" xlink:href="#DejaVuSans-97"/>
    <use x="510.988281" xlink:href="#DejaVuSans-116"/>
    <use x="550.197266" xlink:href="#DejaVuSans-97"/>
    <use x="611.476562" xlink:href="#DejaVuSans-32"/>
    <use x="643.263672" xlink:href="#DejaVuSans-119"/>
    <use x="725.050781" xlink:href="#DejaVuSans-105"/>
    <use x="752.833984" xlink:href="#DejaVuSans-116"/>
    <use x="792.042969" xlink:href="#DejaVuSans-104"/>
    <use x="855.421875" xlink:href="#DejaVuSans-32"/>
    <use x="887.208984" xlink:href="#DejaVuSans-105"/>
    <use x="914.992188" xlink:href="#DejaVuSans-109"/>
    <use x="1012.404297" xlink:href="#DejaVuSans-112"/>
    <use x="1075.880859" xlink:href="#DejaVuSans-117"/>
    <use x="1139.259766" xlink:href="#DejaVuSans-116"/>
    <use x="1178.46875" xlink:href="#DejaVuSans-101"/>
    <use x="1239.992188" xlink:href="#DejaVuSans-100"/>
    <use x="1303.46875" xlink:href="#DejaVuSans-32"/>
    <use x="1335.255859" xlink:href="#DejaVuSans-109"/>
    <use x="1432.667969" xlink:href="#DejaVuSans-105"/>
    <use x="1460.451172" xlink:href="#DejaVuSans-115"/>
    <use x="1512.550781" xlink:href="#DejaVuSans-115"/>
    <use x="1564.650391" xlink:href="#DejaVuSans-105"/>
    <use x="1592.433594" xlink:href="#DejaVuSans-110"/>
    <use x="1655.8125" xlink:href="#DejaVuSans-103"/>
    <use x="1719.289062" xlink:href="#DejaVuSans-32"/>
    <use x="1751.076172" xlink:href="#DejaVuSans-118"/>
    <use x="1810.255859" xlink:href="#DejaVuSans-97"/>
    <use x="1871.535156" xlink:href="#DejaVuSans-108"/>
    <use x="1899.318359" xlink:href="#DejaVuSans-117"/>
    <use x="1962.697266" xlink:href="#DejaVuSans-101"/>
    <use x="2024.220703" xlink:href="#DejaVuSans-115"/>
   </g>
  </g>
 </g>
 <defs>
  <clipPath id="p7abac22989">
   <rect height="221.76" width="446.4" x="46.789687" y="26.105371"/>
  </clipPath>
 </defs>
</svg>
