<?xml version="1.0" encoding="utf-8" standalone="no"?>
<!DOCTYPE svg PUBLIC "-//W3C//DTD SVG 1.1//EN"
  "http://www.w3.org/Graphics/SVG/1.1/DTD/svg11.dtd">
<!-- Created with matplotlib (https://matplotlib.org/) -->
<svg height="264.672687pt" version="1.1" viewBox="0 0 498.167 264.672687" width="498.167pt" xmlns="http://www.w3.org/2000/svg" xmlns:xlink="http://www.w3.org/1999/xlink">
 <defs>
  <style type="text/css">
*{stroke-linecap:butt;stroke-linejoin:round;}
  </style>
 </defs>
 <g id="figure_1">
  <g id="patch_1">
   <path d="M 0 264.672687 
L 498.167 264.672687 
L 498.167 0 
L 0 0 
z
" style="fill:#ffffff;stroke:#ffffff;stroke-linejoin:miter;"/>
  </g>
  <g id="axes_1">
   <g id="patch_2">
    <path d="M 44.567 228.96 
L 490.967 228.96 
L 490.967 7.2 
L 44.567 7.2 
z
" style="fill:#ffffff;stroke:#7f7f7f;stroke-linejoin:miter;"/>
   </g>
   <g id="matplotlib.axis_1">
    <g id="xtick_1">
     <g id="line2d_1">
      <path clip-path="url(#pe0e28cf7a2)" d="M 64.857909 228.96 
L 64.857909 7.2 
" style="fill:none;stroke:#e5e5e5;stroke-width:0.8;"/>
     </g>
     <g id="line2d_2">
      <path d="M 64.857909 228.96 
" style="fill:none;stroke:#000000;stroke-width:1.5;"/>
      <defs>
       <path d="M 0 0 
L 0 2.75 
" id="m5c28064456" style="stroke:#000000;"/>
      </defs>
      <g>
       <use style="stroke:#000000;" x="64.857909" xlink:href="#m5c28064456" y="228.96"/>
      </g>
     </g>
     <g id="text_1">
      <!-- 1 -->
      <defs>
       <path d="M 12.40625 8.296875 
L 28.515625 8.296875 
L 28.515625 63.921875 
L 10.984375 60.40625 
L 10.984375 69.390625 
L 28.421875 72.90625 
L 38.28125 72.90625 
L 38.28125 8.296875 
L 54.390625 8.296875 
L 54.390625 0 
L 12.40625 0 
z
" id="DejaVuSans-49"/>
      </defs>
      <g transform="translate(62.058409 240.596625)scale(0.088 -0.088)">
       <use xlink:href="#DejaVuSans-49"/>
      </g>
     </g>
    </g>
    <g id="xtick_2">
     <g id="line2d_3">
      <path clip-path="url(#pe0e28cf7a2)" d="M 200.130636 228.96 
L 200.130636 7.2 
" style="fill:none;stroke:#e5e5e5;stroke-width:0.8;"/>
     </g>
     <g id="line2d_4">
      <path d="M 200.130636 228.96 
" style="fill:none;stroke:#000000;stroke-width:1.5;"/>
      <g>
       <use style="stroke:#000000;" x="200.130636" xlink:href="#m5c28064456" y="228.96"/>
      </g>
     </g>
     <g id="text_2">
      <!-- 2 -->
      <defs>
       <path d="M 19.1875 8.296875 
L 53.609375 8.296875 
L 53.609375 0 
L 7.328125 0 
L 7.328125 8.296875 
Q 12.9375 14.109375 22.625 23.890625 
Q 32.328125 33.6875 34.8125 36.53125 
Q 39.546875 41.84375 41.421875 45.53125 
Q 43.3125 49.21875 43.3125 52.78125 
Q 43.3125 58.59375 39.234375 62.25 
Q 35.15625 65.921875 28.609375 65.921875 
Q 23.96875 65.921875 18.8125 64.3125 
Q 13.671875 62.703125 7.8125 59.421875 
L 7.8125 69.390625 
Q 13.765625 71.78125 18.9375 73 
Q 24.125 74.21875 28.421875 74.21875 
Q 39.75 74.21875 46.484375 68.546875 
Q 53.21875 62.890625 53.21875 53.421875 
Q 53.21875 48.921875 51.53125 44.890625 
Q 49.859375 40.875 45.40625 35.40625 
Q 44.1875 33.984375 37.640625 27.21875 
Q 31.109375 20.453125 19.1875 8.296875 
z
" id="DejaVuSans-50"/>
      </defs>
      <g transform="translate(197.331136 240.596625)scale(0.088 -0.088)">
       <use xlink:href="#DejaVuSans-50"/>
      </g>
     </g>
    </g>
    <g id="xtick_3">
     <g id="line2d_5">
      <path clip-path="url(#pe0e28cf7a2)" d="M 335.403364 228.96 
L 335.403364 7.2 
" style="fill:none;stroke:#e5e5e5;stroke-width:0.8;"/>
     </g>
     <g id="line2d_6">
      <path d="M 335.403364 228.96 
" style="fill:none;stroke:#000000;stroke-width:1.5;"/>
      <g>
       <use style="stroke:#000000;" x="335.403364" xlink:href="#m5c28064456" y="228.96"/>
      </g>
     </g>
     <g id="text_3">
      <!-- 3 -->
      <defs>
       <path d="M 40.578125 39.3125 
Q 47.65625 37.796875 51.625 33 
Q 55.609375 28.21875 55.609375 21.1875 
Q 55.609375 10.40625 48.1875 4.484375 
Q 40.765625 -1.421875 27.09375 -1.421875 
Q 22.515625 -1.421875 17.65625 -0.515625 
Q 12.796875 0.390625 7.625 2.203125 
L 7.625 11.71875 
Q 11.71875 9.328125 16.59375 8.109375 
Q 21.484375 6.890625 26.8125 6.890625 
Q 36.078125 6.890625 40.9375 10.546875 
Q 45.796875 14.203125 45.796875 21.1875 
Q 45.796875 27.640625 41.28125 31.265625 
Q 36.765625 34.90625 28.71875 34.90625 
L 20.21875 34.90625 
L 20.21875 43.015625 
L 29.109375 43.015625 
Q 36.375 43.015625 40.234375 45.921875 
Q 44.09375 48.828125 44.09375 54.296875 
Q 44.09375 59.90625 40.109375 62.90625 
Q 36.140625 65.921875 28.71875 65.921875 
Q 24.65625 65.921875 20.015625 65.03125 
Q 15.375 64.15625 9.8125 62.3125 
L 9.8125 71.09375 
Q 15.4375 72.65625 20.34375 73.4375 
Q 25.25 74.21875 29.59375 74.21875 
Q 40.828125 74.21875 47.359375 69.109375 
Q 53.90625 64.015625 53.90625 55.328125 
Q 53.90625 49.265625 50.4375 45.09375 
Q 46.96875 40.921875 40.578125 39.3125 
z
" id="DejaVuSans-51"/>
      </defs>
      <g transform="translate(332.603864 240.596625)scale(0.088 -0.088)">
       <use xlink:href="#DejaVuSans-51"/>
      </g>
     </g>
    </g>
    <g id="xtick_4">
     <g id="line2d_7">
      <path clip-path="url(#pe0e28cf7a2)" d="M 470.676091 228.96 
L 470.676091 7.2 
" style="fill:none;stroke:#e5e5e5;stroke-width:0.8;"/>
     </g>
     <g id="line2d_8">
      <path d="M 470.676091 228.96 
" style="fill:none;stroke:#000000;stroke-width:1.5;"/>
      <g>
       <use style="stroke:#000000;" x="470.676091" xlink:href="#m5c28064456" y="228.96"/>
      </g>
     </g>
     <g id="text_4">
      <!-- 4 -->
      <defs>
       <path d="M 37.796875 64.3125 
L 12.890625 25.390625 
L 37.796875 25.390625 
z
M 35.203125 72.90625 
L 47.609375 72.90625 
L 47.609375 25.390625 
L 58.015625 25.390625 
L 58.015625 17.1875 
L 47.609375 17.1875 
L 47.609375 0 
L 37.796875 0 
L 37.796875 17.1875 
L 4.890625 17.1875 
L 4.890625 26.703125 
z
" id="DejaVuSans-52"/>
      </defs>
      <g transform="translate(467.876591 240.596625)scale(0.088 -0.088)">
       <use xlink:href="#DejaVuSans-52"/>
      </g>
     </g>
    </g>
    <g id="xtick_5">
     <g id="line2d_9">
      <path clip-path="url(#pe0e28cf7a2)" d="M 132.494273 228.96 
L 132.494273 7.2 
" style="fill:none;stroke:#fafafa;"/>
     </g>
     <g id="line2d_10">
      <path d="M 132.494273 228.96 
" style="fill:none;stroke:#000000;stroke-width:1.5;"/>
      <defs>
       <path d="M 0 0 
L 0 1.375 
" id="me5021961e6" style="stroke:#000000;"/>
      </defs>
      <g>
       <use style="stroke:#000000;" x="132.494273" xlink:href="#me5021961e6" y="228.96"/>
      </g>
     </g>
    </g>
    <g id="xtick_6">
     <g id="line2d_11">
      <path clip-path="url(#pe0e28cf7a2)" d="M 267.767 228.96 
L 267.767 7.2 
" style="fill:none;stroke:#fafafa;"/>
     </g>
     <g id="line2d_12">
      <path d="M 267.767 228.96 
" style="fill:none;stroke:#000000;stroke-width:1.5;"/>
      <g>
       <use style="stroke:#000000;" x="267.767" xlink:href="#me5021961e6" y="228.96"/>
      </g>
     </g>
    </g>
    <g id="xtick_7">
     <g id="line2d_13">
      <path clip-path="url(#pe0e28cf7a2)" d="M 403.039727 228.96 
L 403.039727 7.2 
" style="fill:none;stroke:#fafafa;"/>
     </g>
     <g id="line2d_14">
      <path d="M 403.039727 228.96 
" style="fill:none;stroke:#000000;stroke-width:1.5;"/>
      <g>
       <use style="stroke:#000000;" x="403.039727" xlink:href="#me5021961e6" y="228.96"/>
      </g>
     </g>
    </g>
    <g id="text_5">
     <!-- Resolution -->
     <defs>
      <path d="M 44.390625 34.1875 
Q 47.5625 33.109375 50.5625 29.59375 
Q 53.5625 26.078125 56.59375 19.921875 
L 66.609375 0 
L 56 0 
L 46.6875 18.703125 
Q 43.0625 26.03125 39.671875 28.421875 
Q 36.28125 30.8125 30.421875 30.8125 
L 19.671875 30.8125 
L 19.671875 0 
L 9.8125 0 
L 9.8125 72.90625 
L 32.078125 72.90625 
Q 44.578125 72.90625 50.734375 67.671875 
Q 56.890625 62.453125 56.890625 51.90625 
Q 56.890625 45.015625 53.6875 40.46875 
Q 50.484375 35.9375 44.390625 34.1875 
z
M 19.671875 64.796875 
L 19.671875 38.921875 
L 32.078125 38.921875 
Q 39.203125 38.921875 42.84375 42.21875 
Q 46.484375 45.515625 46.484375 51.90625 
Q 46.484375 58.296875 42.84375 61.546875 
Q 39.203125 64.796875 32.078125 64.796875 
z
" id="DejaVuSans-82"/>
      <path d="M 56.203125 29.59375 
L 56.203125 25.203125 
L 14.890625 25.203125 
Q 15.484375 15.921875 20.484375 11.0625 
Q 25.484375 6.203125 34.421875 6.203125 
Q 39.59375 6.203125 44.453125 7.46875 
Q 49.3125 8.734375 54.109375 11.28125 
L 54.109375 2.78125 
Q 49.265625 0.734375 44.1875 -0.34375 
Q 39.109375 -1.421875 33.890625 -1.421875 
Q 20.796875 -1.421875 13.15625 6.1875 
Q 5.515625 13.8125 5.515625 26.8125 
Q 5.515625 40.234375 12.765625 48.109375 
Q 20.015625 56 32.328125 56 
Q 43.359375 56 49.78125 48.890625 
Q 56.203125 41.796875 56.203125 29.59375 
z
M 47.21875 32.234375 
Q 47.125 39.59375 43.09375 43.984375 
Q 39.0625 48.390625 32.421875 48.390625 
Q 24.90625 48.390625 20.390625 44.140625 
Q 15.875 39.890625 15.1875 32.171875 
z
" id="DejaVuSans-101"/>
      <path d="M 44.28125 53.078125 
L 44.28125 44.578125 
Q 40.484375 46.53125 36.375 47.5 
Q 32.28125 48.484375 27.875 48.484375 
Q 21.1875 48.484375 17.84375 46.4375 
Q 14.5 44.390625 14.5 40.28125 
Q 14.5 37.15625 16.890625 35.375 
Q 19.28125 33.59375 26.515625 31.984375 
L 29.59375 31.296875 
Q 39.15625 29.25 43.1875 25.515625 
Q 47.21875 21.78125 47.21875 15.09375 
Q 47.21875 7.46875 41.1875 3.015625 
Q 35.15625 -1.421875 24.609375 -1.421875 
Q 20.21875 -1.421875 15.453125 -0.5625 
Q 10.6875 0.296875 5.421875 2 
L 5.421875 11.28125 
Q 10.40625 8.6875 15.234375 7.390625 
Q 20.0625 6.109375 24.8125 6.109375 
Q 31.15625 6.109375 34.5625 8.28125 
Q 37.984375 10.453125 37.984375 14.40625 
Q 37.984375 18.0625 35.515625 20.015625 
Q 33.0625 21.96875 24.703125 23.78125 
L 21.578125 24.515625 
Q 13.234375 26.265625 9.515625 29.90625 
Q 5.8125 33.546875 5.8125 39.890625 
Q 5.8125 47.609375 11.28125 51.796875 
Q 16.75 56 26.8125 56 
Q 31.78125 56 36.171875 55.265625 
Q 40.578125 54.546875 44.28125 53.078125 
z
" id="DejaVuSans-115"/>
      <path d="M 30.609375 48.390625 
Q 23.390625 48.390625 19.1875 42.75 
Q 14.984375 37.109375 14.984375 27.296875 
Q 14.984375 17.484375 19.15625 11.84375 
Q 23.34375 6.203125 30.609375 6.203125 
Q 37.796875 6.203125 41.984375 11.859375 
Q 46.1875 17.53125 46.1875 27.296875 
Q 46.1875 37.015625 41.984375 42.703125 
Q 37.796875 48.390625 30.609375 48.390625 
z
M 30.609375 56 
Q 42.328125 56 49.015625 48.375 
Q 55.71875 40.765625 55.71875 27.296875 
Q 55.71875 13.875 49.015625 6.21875 
Q 42.328125 -1.421875 30.609375 -1.421875 
Q 18.84375 -1.421875 12.171875 6.21875 
Q 5.515625 13.875 5.515625 27.296875 
Q 5.515625 40.765625 12.171875 48.375 
Q 18.84375 56 30.609375 56 
z
" id="DejaVuSans-111"/>
      <path d="M 9.421875 75.984375 
L 18.40625 75.984375 
L 18.40625 0 
L 9.421875 0 
z
" id="DejaVuSans-108"/>
      <path d="M 8.5 21.578125 
L 8.5 54.6875 
L 17.484375 54.6875 
L 17.484375 21.921875 
Q 17.484375 14.15625 20.5 10.265625 
Q 23.53125 6.390625 29.59375 6.390625 
Q 36.859375 6.390625 41.078125 11.03125 
Q 45.3125 15.671875 45.3125 23.6875 
L 45.3125 54.6875 
L 54.296875 54.6875 
L 54.296875 0 
L 45.3125 0 
L 45.3125 8.40625 
Q 42.046875 3.421875 37.71875 1 
Q 33.40625 -1.421875 27.6875 -1.421875 
Q 18.265625 -1.421875 13.375 4.4375 
Q 8.5 10.296875 8.5 21.578125 
z
M 31.109375 56 
z
" id="DejaVuSans-117"/>
      <path d="M 18.3125 70.21875 
L 18.3125 54.6875 
L 36.8125 54.6875 
L 36.8125 47.703125 
L 18.3125 47.703125 
L 18.3125 18.015625 
Q 18.3125 11.328125 20.140625 9.421875 
Q 21.96875 7.515625 27.59375 7.515625 
L 36.8125 7.515625 
L 36.8125 0 
L 27.59375 0 
Q 17.1875 0 13.234375 3.875 
Q 9.28125 7.765625 9.28125 18.015625 
L 9.28125 47.703125 
L 2.6875 47.703125 
L 2.6875 54.6875 
L 9.28125 54.6875 
L 9.28125 70.21875 
z
" id="DejaVuSans-116"/>
      <path d="M 9.421875 54.6875 
L 18.40625 54.6875 
L 18.40625 0 
L 9.421875 0 
z
M 9.421875 75.984375 
L 18.40625 75.984375 
L 18.40625 64.59375 
L 9.421875 64.59375 
z
" id="DejaVuSans-105"/>
      <path d="M 54.890625 33.015625 
L 54.890625 0 
L 45.90625 0 
L 45.90625 32.71875 
Q 45.90625 40.484375 42.875 44.328125 
Q 39.84375 48.1875 33.796875 48.1875 
Q 26.515625 48.1875 22.3125 43.546875 
Q 18.109375 38.921875 18.109375 30.90625 
L 18.109375 0 
L 9.078125 0 
L 9.078125 54.6875 
L 18.109375 54.6875 
L 18.109375 46.1875 
Q 21.34375 51.125 25.703125 53.5625 
Q 30.078125 56 35.796875 56 
Q 45.21875 56 50.046875 50.171875 
Q 54.890625 44.34375 54.890625 33.015625 
z
" id="DejaVuSans-110"/>
     </defs>
     <g transform="translate(231.585438 255.185031)scale(0.11 -0.11)">
      <use xlink:href="#DejaVuSans-82"/>
      <use x="69.419922" xlink:href="#DejaVuSans-101"/>
      <use x="130.943359" xlink:href="#DejaVuSans-115"/>
      <use x="183.042969" xlink:href="#DejaVuSans-111"/>
      <use x="244.224609" xlink:href="#DejaVuSans-108"/>
      <use x="272.007812" xlink:href="#DejaVuSans-117"/>
      <use x="335.386719" xlink:href="#DejaVuSans-116"/>
      <use x="374.595703" xlink:href="#DejaVuSans-105"/>
      <use x="402.378906" xlink:href="#DejaVuSans-111"/>
      <use x="463.560547" xlink:href="#DejaVuSans-110"/>
     </g>
    </g>
   </g>
   <g id="matplotlib.axis_2">
    <g id="ytick_1">
     <g id="line2d_15">
      <path clip-path="url(#pe0e28cf7a2)" d="M 44.567 218.88 
L 490.967 218.88 
" style="fill:none;stroke:#e5e5e5;stroke-width:0.8;"/>
     </g>
     <g id="line2d_16">
      <path d="M 44.567 218.88 
" style="fill:none;stroke:#000000;stroke-width:1.5;"/>
      <defs>
       <path d="M 0 0 
L -2.75 0 
" id="m9ef16cae41" style="stroke:#000000;"/>
      </defs>
      <g>
       <use style="stroke:#000000;" x="44.567" xlink:href="#m9ef16cae41" y="218.88"/>
      </g>
     </g>
     <g id="text_6">
      <!-- 0 -->
      <defs>
       <path d="M 31.78125 66.40625 
Q 24.171875 66.40625 20.328125 58.90625 
Q 16.5 51.421875 16.5 36.375 
Q 16.5 21.390625 20.328125 13.890625 
Q 24.171875 6.390625 31.78125 6.390625 
Q 39.453125 6.390625 43.28125 13.890625 
Q 47.125 21.390625 47.125 36.375 
Q 47.125 51.421875 43.28125 58.90625 
Q 39.453125 66.40625 31.78125 66.40625 
z
M 31.78125 74.21875 
Q 44.046875 74.21875 50.515625 64.515625 
Q 56.984375 54.828125 56.984375 36.375 
Q 56.984375 17.96875 50.515625 8.265625 
Q 44.046875 -1.421875 31.78125 -1.421875 
Q 19.53125 -1.421875 13.0625 8.265625 
Q 6.59375 17.96875 6.59375 36.375 
Q 6.59375 54.828125 13.0625 64.515625 
Q 19.53125 74.21875 31.78125 74.21875 
z
" id="DejaVuSans-48"/>
      </defs>
      <g transform="translate(34.018 221.30825)scale(0.088 -0.088)">
       <use xlink:href="#DejaVuSans-48"/>
      </g>
     </g>
    </g>
    <g id="ytick_2">
     <g id="line2d_17">
      <path clip-path="url(#pe0e28cf7a2)" d="M 44.567 168.48 
L 490.967 168.48 
" style="fill:none;stroke:#e5e5e5;stroke-width:0.8;"/>
     </g>
     <g id="line2d_18">
      <path d="M 44.567 168.48 
" style="fill:none;stroke:#000000;stroke-width:1.5;"/>
      <g>
       <use style="stroke:#000000;" x="44.567" xlink:href="#m9ef16cae41" y="168.48"/>
      </g>
     </g>
     <g id="text_7">
      <!-- 25 -->
      <defs>
       <path d="M 10.796875 72.90625 
L 49.515625 72.90625 
L 49.515625 64.59375 
L 19.828125 64.59375 
L 19.828125 46.734375 
Q 21.96875 47.46875 24.109375 47.828125 
Q 26.265625 48.1875 28.421875 48.1875 
Q 40.625 48.1875 47.75 41.5 
Q 54.890625 34.8125 54.890625 23.390625 
Q 54.890625 11.625 47.5625 5.09375 
Q 40.234375 -1.421875 26.90625 -1.421875 
Q 22.3125 -1.421875 17.546875 -0.640625 
Q 12.796875 0.140625 7.71875 1.703125 
L 7.71875 11.625 
Q 12.109375 9.234375 16.796875 8.0625 
Q 21.484375 6.890625 26.703125 6.890625 
Q 35.15625 6.890625 40.078125 11.328125 
Q 45.015625 15.765625 45.015625 23.390625 
Q 45.015625 31 40.078125 35.4375 
Q 35.15625 39.890625 26.703125 39.890625 
Q 22.75 39.890625 18.8125 39.015625 
Q 14.890625 38.140625 10.796875 36.28125 
z
" id="DejaVuSans-53"/>
      </defs>
      <g transform="translate(28.419 170.90825)scale(0.088 -0.088)">
       <use xlink:href="#DejaVuSans-50"/>
       <use x="63.623047" xlink:href="#DejaVuSans-53"/>
      </g>
     </g>
    </g>
    <g id="ytick_3">
     <g id="line2d_19">
      <path clip-path="url(#pe0e28cf7a2)" d="M 44.567 118.08 
L 490.967 118.08 
" style="fill:none;stroke:#e5e5e5;stroke-width:0.8;"/>
     </g>
     <g id="line2d_20">
      <path d="M 44.567 118.08 
" style="fill:none;stroke:#000000;stroke-width:1.5;"/>
      <g>
       <use style="stroke:#000000;" x="44.567" xlink:href="#m9ef16cae41" y="118.08"/>
      </g>
     </g>
     <g id="text_8">
      <!-- 50 -->
      <g transform="translate(28.419 120.50825)scale(0.088 -0.088)">
       <use xlink:href="#DejaVuSans-53"/>
       <use x="63.623047" xlink:href="#DejaVuSans-48"/>
      </g>
     </g>
    </g>
    <g id="ytick_4">
     <g id="line2d_21">
      <path clip-path="url(#pe0e28cf7a2)" d="M 44.567 67.68 
L 490.967 67.68 
" style="fill:none;stroke:#e5e5e5;stroke-width:0.8;"/>
     </g>
     <g id="line2d_22">
      <path d="M 44.567 67.68 
" style="fill:none;stroke:#000000;stroke-width:1.5;"/>
      <g>
       <use style="stroke:#000000;" x="44.567" xlink:href="#m9ef16cae41" y="67.68"/>
      </g>
     </g>
     <g id="text_9">
      <!-- 75 -->
      <defs>
       <path d="M 8.203125 72.90625 
L 55.078125 72.90625 
L 55.078125 68.703125 
L 28.609375 0 
L 18.3125 0 
L 43.21875 64.59375 
L 8.203125 64.59375 
z
" id="DejaVuSans-55"/>
      </defs>
      <g transform="translate(28.419 70.10825)scale(0.088 -0.088)">
       <use xlink:href="#DejaVuSans-55"/>
       <use x="63.623047" xlink:href="#DejaVuSans-53"/>
      </g>
     </g>
    </g>
    <g id="ytick_5">
     <g id="line2d_23">
      <path clip-path="url(#pe0e28cf7a2)" d="M 44.567 17.28 
L 490.967 17.28 
" style="fill:none;stroke:#e5e5e5;stroke-width:0.8;"/>
     </g>
     <g id="line2d_24">
      <path d="M 44.567 17.28 
" style="fill:none;stroke:#000000;stroke-width:1.5;"/>
      <g>
       <use style="stroke:#000000;" x="44.567" xlink:href="#m9ef16cae41" y="17.28"/>
      </g>
     </g>
     <g id="text_10">
      <!-- 100 -->
      <g transform="translate(22.82 19.70825)scale(0.088 -0.088)">
       <use xlink:href="#DejaVuSans-49"/>
       <use x="63.623047" xlink:href="#DejaVuSans-48"/>
       <use x="127.246094" xlink:href="#DejaVuSans-48"/>
      </g>
     </g>
    </g>
    <g id="ytick_6">
     <g id="line2d_25">
      <path clip-path="url(#pe0e28cf7a2)" d="M 44.567 193.68 
L 490.967 193.68 
" style="fill:none;stroke:#fafafa;"/>
     </g>
     <g id="line2d_26">
      <path d="M 44.567 193.68 
" style="fill:none;stroke:#000000;stroke-width:1.5;"/>
      <defs>
       <path d="M 0 0 
L -1.375 0 
" id="md55f7241ce" style="stroke:#000000;"/>
      </defs>
      <g>
       <use style="stroke:#000000;" x="44.567" xlink:href="#md55f7241ce" y="193.68"/>
      </g>
     </g>
    </g>
    <g id="ytick_7">
     <g id="line2d_27">
      <path clip-path="url(#pe0e28cf7a2)" d="M 44.567 143.28 
L 490.967 143.28 
" style="fill:none;stroke:#fafafa;"/>
     </g>
     <g id="line2d_28">
      <path d="M 44.567 143.28 
" style="fill:none;stroke:#000000;stroke-width:1.5;"/>
      <g>
       <use style="stroke:#000000;" x="44.567" xlink:href="#md55f7241ce" y="143.28"/>
      </g>
     </g>
    </g>
    <g id="ytick_8">
     <g id="line2d_29">
      <path clip-path="url(#pe0e28cf7a2)" d="M 44.567 92.88 
L 490.967 92.88 
" style="fill:none;stroke:#fafafa;"/>
     </g>
     <g id="line2d_30">
      <path d="M 44.567 92.88 
" style="fill:none;stroke:#000000;stroke-width:1.5;"/>
      <g>
       <use style="stroke:#000000;" x="44.567" xlink:href="#md55f7241ce" y="92.88"/>
      </g>
     </g>
    </g>
    <g id="ytick_9">
     <g id="line2d_31">
      <path clip-path="url(#pe0e28cf7a2)" d="M 44.567 42.48 
L 490.967 42.48 
" style="fill:none;stroke:#fafafa;"/>
     </g>
     <g id="line2d_32">
      <path d="M 44.567 42.48 
" style="fill:none;stroke:#000000;stroke-width:1.5;"/>
      <g>
       <use style="stroke:#000000;" x="44.567" xlink:href="#md55f7241ce" y="42.48"/>
      </g>
     </g>
    </g>
    <g id="text_11">
     <!-- $P_{Q1}(t)$ [%] -->
     <defs>
      <path d="M 16.890625 72.90625 
L 39.703125 72.90625 
Q 49.65625 72.90625 54.875 68.265625 
Q 60.109375 63.625 60.109375 54.6875 
Q 60.109375 42.671875 52.390625 35.984375 
Q 44.671875 29.296875 30.71875 29.296875 
L 18.3125 29.296875 
L 12.59375 0 
L 2.6875 0 
z
M 25.203125 64.796875 
L 19.921875 37.40625 
L 32.328125 37.40625 
Q 40.71875 37.40625 45.203125 41.703125 
Q 49.703125 46 49.703125 54 
Q 49.703125 59.125 46.65625 61.953125 
Q 43.609375 64.796875 38.09375 64.796875 
z
" id="DejaVuSans-Oblique-80"/>
      <path d="M 36.078125 -1.3125 
Q 35.546875 -1.375 34.953125 -1.390625 
Q 34.375 -1.421875 33.203125 -1.421875 
Q 19.53125 -1.421875 11.8125 6.421875 
Q 4.109375 14.265625 4.109375 28.078125 
Q 4.109375 36.234375 7.0625 44.4375 
Q 10.015625 52.640625 15.28125 59.1875 
Q 21.390625 66.703125 29.03125 70.453125 
Q 36.671875 74.21875 45.90625 74.21875 
Q 59.28125 74.21875 66.984375 66.328125 
Q 74.703125 58.453125 74.703125 44.828125 
Q 74.703125 30.125 66.640625 17.921875 
Q 58.59375 5.71875 45.609375 0.6875 
L 55.515625 -12.890625 
L 44.484375 -12.890625 
z
M 45.609375 66.21875 
Q 37.5 66.21875 31.296875 62.28125 
Q 25.09375 58.34375 20.515625 50.296875 
Q 17.578125 45.171875 16.03125 39.40625 
Q 14.5 33.640625 14.5 27.78125 
Q 14.5 17.625 19.359375 12.109375 
Q 24.21875 6.59375 33.109375 6.59375 
Q 41.109375 6.59375 47.375 10.5625 
Q 53.65625 14.546875 58.109375 22.40625 
Q 61.078125 27.6875 62.640625 33.46875 
Q 64.203125 39.265625 64.203125 45.015625 
Q 64.203125 55.125 59.3125 60.671875 
Q 54.4375 66.21875 45.609375 66.21875 
z
" id="DejaVuSans-Oblique-81"/>
      <path d="M 31 75.875 
Q 24.46875 64.65625 21.28125 53.65625 
Q 18.109375 42.671875 18.109375 31.390625 
Q 18.109375 20.125 21.3125 9.0625 
Q 24.515625 -2 31 -13.1875 
L 23.1875 -13.1875 
Q 15.875 -1.703125 12.234375 9.375 
Q 8.59375 20.453125 8.59375 31.390625 
Q 8.59375 42.28125 12.203125 53.3125 
Q 15.828125 64.359375 23.1875 75.875 
z
" id="DejaVuSans-40"/>
      <path d="M 42.28125 54.6875 
L 40.921875 47.703125 
L 23 47.703125 
L 17.1875 18.015625 
Q 16.890625 16.359375 16.75 15.234375 
Q 16.609375 14.109375 16.609375 13.484375 
Q 16.609375 10.359375 18.484375 8.9375 
Q 20.359375 7.515625 24.515625 7.515625 
L 33.59375 7.515625 
L 32.078125 0 
L 23.484375 0 
Q 15.484375 0 11.546875 3.125 
Q 7.625 6.25 7.625 12.59375 
Q 7.625 13.71875 7.765625 15.0625 
Q 7.90625 16.40625 8.203125 18.015625 
L 14.015625 47.703125 
L 6.390625 47.703125 
L 7.8125 54.6875 
L 15.28125 54.6875 
L 18.3125 70.21875 
L 27.296875 70.21875 
L 24.3125 54.6875 
z
" id="DejaVuSans-Oblique-116"/>
      <path d="M 8.015625 75.875 
L 15.828125 75.875 
Q 23.140625 64.359375 26.78125 53.3125 
Q 30.421875 42.28125 30.421875 31.390625 
Q 30.421875 20.453125 26.78125 9.375 
Q 23.140625 -1.703125 15.828125 -13.1875 
L 8.015625 -13.1875 
Q 14.5 -2 17.703125 9.0625 
Q 20.90625 20.125 20.90625 31.390625 
Q 20.90625 42.671875 17.703125 53.65625 
Q 14.5 64.65625 8.015625 75.875 
z
" id="DejaVuSans-41"/>
      <path id="DejaVuSans-32"/>
      <path d="M 8.59375 75.984375 
L 29.296875 75.984375 
L 29.296875 69 
L 17.578125 69 
L 17.578125 -6.203125 
L 29.296875 -6.203125 
L 29.296875 -13.1875 
L 8.59375 -13.1875 
z
" id="DejaVuSans-91"/>
      <path d="M 72.703125 32.078125 
Q 68.453125 32.078125 66.03125 28.46875 
Q 63.625 24.859375 63.625 18.40625 
Q 63.625 12.0625 66.03125 8.421875 
Q 68.453125 4.78125 72.703125 4.78125 
Q 76.859375 4.78125 79.265625 8.421875 
Q 81.6875 12.0625 81.6875 18.40625 
Q 81.6875 24.8125 79.265625 28.4375 
Q 76.859375 32.078125 72.703125 32.078125 
z
M 72.703125 38.28125 
Q 80.421875 38.28125 84.953125 32.90625 
Q 89.5 27.546875 89.5 18.40625 
Q 89.5 9.28125 84.9375 3.921875 
Q 80.375 -1.421875 72.703125 -1.421875 
Q 64.890625 -1.421875 60.34375 3.921875 
Q 55.8125 9.28125 55.8125 18.40625 
Q 55.8125 27.59375 60.375 32.9375 
Q 64.9375 38.28125 72.703125 38.28125 
z
M 22.3125 68.015625 
Q 18.109375 68.015625 15.6875 64.375 
Q 13.28125 60.75 13.28125 54.390625 
Q 13.28125 47.953125 15.671875 44.328125 
Q 18.0625 40.71875 22.3125 40.71875 
Q 26.5625 40.71875 28.96875 44.328125 
Q 31.390625 47.953125 31.390625 54.390625 
Q 31.390625 60.6875 28.953125 64.34375 
Q 26.515625 68.015625 22.3125 68.015625 
z
M 66.40625 74.21875 
L 74.21875 74.21875 
L 28.609375 -1.421875 
L 20.796875 -1.421875 
z
M 22.3125 74.21875 
Q 30.03125 74.21875 34.609375 68.875 
Q 39.203125 63.53125 39.203125 54.390625 
Q 39.203125 45.171875 34.640625 39.84375 
Q 30.078125 34.515625 22.3125 34.515625 
Q 14.546875 34.515625 10.03125 39.859375 
Q 5.515625 45.21875 5.515625 54.390625 
Q 5.515625 63.484375 10.046875 68.84375 
Q 14.59375 74.21875 22.3125 74.21875 
z
" id="DejaVuSans-37"/>
      <path d="M 30.421875 75.984375 
L 30.421875 -13.1875 
L 9.71875 -13.1875 
L 9.71875 -6.203125 
L 21.390625 -6.203125 
L 21.390625 69 
L 9.71875 69 
L 9.71875 75.984375 
z
" id="DejaVuSans-93"/>
     </defs>
     <g transform="translate(15.56 143.315)rotate(-90)scale(0.11 -0.11)">
      <use transform="translate(0 0.015625)" xlink:href="#DejaVuSans-Oblique-80"/>
      <use transform="translate(60.302734 -16.390625)scale(0.7)" xlink:href="#DejaVuSans-Oblique-81"/>
      <use transform="translate(115.400391 -16.390625)scale(0.7)" xlink:href="#DejaVuSans-49"/>
      <use transform="translate(162.670898 0.015625)" xlink:href="#DejaVuSans-40"/>
      <use transform="translate(201.68457 0.015625)" xlink:href="#DejaVuSans-Oblique-116"/>
      <use transform="translate(240.893555 0.015625)" xlink:href="#DejaVuSans-41"/>
      <use transform="translate(279.907227 0.015625)" xlink:href="#DejaVuSans-32"/>
      <use transform="translate(311.694336 0.015625)" xlink:href="#DejaVuSans-91"/>
      <use transform="translate(350.708008 0.015625)" xlink:href="#DejaVuSans-37"/>
      <use transform="translate(445.727539 0.015625)" xlink:href="#DejaVuSans-93"/>
     </g>
    </g>
   </g>
   <g id="PathCollection_1">
    <path clip-path="url(#pe0e28cf7a2)" d="M 64.857909 45.096067 
C 65.327969 45.096067 65.77884 44.90931 66.111223 44.576928 
C 66.443606 44.244545 66.630363 43.793674 66.630363 43.323613 
C 66.630363 42.853553 66.443606 42.402682 66.111223 42.070299 
C 65.77884 41.737917 65.327969 41.55116 64.857909 41.55116 
C 64.387849 41.55116 63.936978 41.737917 63.604595 42.070299 
C 63.272212 42.402682 63.085455 42.853553 63.085455 43.323613 
C 63.085455 43.793674 63.272212 44.244545 63.604595 44.576928 
C 63.936978 44.90931 64.387849 45.096067 64.857909 45.096067 
z
" style="stroke:#000000;stroke-width:0.886227;"/>
    <path clip-path="url(#pe0e28cf7a2)" d="M 78.385182 46.66613 
C 78.855242 46.66613 79.306113 46.479373 79.638496 46.14699 
C 79.970879 45.814607 80.157636 45.363736 80.157636 44.893676 
C 80.157636 44.423615 79.970879 43.972744 79.638496 43.640362 
C 79.306113 43.307979 78.855242 43.121222 78.385182 43.121222 
C 77.915122 43.121222 77.46425 43.307979 77.131868 43.640362 
C 76.799485 43.972744 76.612728 44.423615 76.612728 44.893676 
C 76.612728 45.363736 76.799485 45.814607 77.131868 46.14699 
C 77.46425 46.479373 77.915122 46.66613 78.385182 46.66613 
z
" style="stroke:#000000;stroke-width:0.886227;"/>
    <path clip-path="url(#pe0e28cf7a2)" d="M 91.912455 51.16929 
C 92.382515 51.16929 92.833386 50.982533 93.165769 50.65015 
C 93.498151 50.317767 93.684908 49.866896 93.684908 49.396836 
C 93.684908 48.926776 93.498151 48.475905 93.165769 48.143522 
C 92.833386 47.811139 92.382515 47.624382 91.912455 47.624382 
C 91.442394 47.624382 90.991523 47.811139 90.65914 48.143522 
C 90.326758 48.475905 90.140001 48.926776 90.140001 49.396836 
C 90.140001 49.866896 90.326758 50.317767 90.65914 50.65015 
C 90.991523 50.982533 91.442394 51.16929 91.912455 51.16929 
z
" style="stroke:#000000;stroke-width:0.886227;"/>
    <path clip-path="url(#pe0e28cf7a2)" d="M 105.439727 52.447186 
C 105.909788 52.447186 106.360659 52.260429 106.693041 51.928046 
C 107.025424 51.595663 107.212181 51.144792 107.212181 50.674732 
C 107.212181 50.204672 107.025424 49.753801 106.693041 49.421418 
C 106.360659 49.089035 105.909788 48.902278 105.439727 48.902278 
C 104.969667 48.902278 104.518796 49.089035 104.186413 49.421418 
C 103.85403 49.753801 103.667273 50.204672 103.667273 50.674732 
C 103.667273 51.144792 103.85403 51.595663 104.186413 51.928046 
C 104.518796 52.260429 104.969667 52.447186 105.439727 52.447186 
z
" style="stroke:#000000;stroke-width:0.886227;"/>
    <path clip-path="url(#pe0e28cf7a2)" d="M 118.967 58.916299 
C 119.43706 58.916299 119.887931 58.729542 120.220314 58.39716 
C 120.552697 58.064777 120.739454 57.613906 120.739454 57.143845 
C 120.739454 56.673785 120.552697 56.222914 120.220314 55.890531 
C 119.887931 55.558149 119.43706 55.371392 118.967 55.371392 
C 118.49694 55.371392 118.046069 55.558149 117.713686 55.890531 
C 117.381303 56.222914 117.194546 56.673785 117.194546 57.143845 
C 117.194546 57.613906 117.381303 58.064777 117.713686 58.39716 
C 118.046069 58.729542 118.49694 58.916299 118.967 58.916299 
z
" style="stroke:#000000;stroke-width:0.886227;"/>
    <path clip-path="url(#pe0e28cf7a2)" d="M 132.494273 65.06989 
C 132.964333 65.06989 133.415204 64.883133 133.747587 64.55075 
C 134.07997 64.218367 134.266727 63.767496 134.266727 63.297436 
C 134.266727 62.827376 134.07997 62.376505 133.747587 62.044122 
C 133.415204 61.711739 132.964333 61.524982 132.494273 61.524982 
C 132.024212 61.524982 131.573341 61.711739 131.240959 62.044122 
C 130.908576 62.376505 130.721819 62.827376 130.721819 63.297436 
C 130.721819 63.767496 130.908576 64.218367 131.240959 64.55075 
C 131.573341 64.883133 132.024212 65.06989 132.494273 65.06989 
z
" style="stroke:#000000;stroke-width:0.886227;"/>
    <path clip-path="url(#pe0e28cf7a2)" d="M 146.021545 68.955414 
C 146.491606 68.955414 146.942477 68.768657 147.27486 68.436274 
C 147.607242 68.103891 147.793999 67.65302 147.793999 67.18296 
C 147.793999 66.7129 147.607242 66.262029 147.27486 65.929646 
C 146.942477 65.597263 146.491606 65.410506 146.021545 65.410506 
C 145.551485 65.410506 145.100614 65.597263 144.768231 65.929646 
C 144.435849 66.262029 144.249092 66.7129 144.249092 67.18296 
C 144.249092 67.65302 144.435849 68.103891 144.768231 68.436274 
C 145.100614 68.768657 145.551485 68.955414 146.021545 68.955414 
z
" style="stroke:#000000;stroke-width:0.886227;"/>
    <path clip-path="url(#pe0e28cf7a2)" d="M 159.548818 76.17193 
C 160.018878 76.17193 160.46975 75.985173 160.802132 75.65279 
C 161.134515 75.320407 161.321272 74.869536 161.321272 74.399476 
C 161.321272 73.929416 161.134515 73.478544 160.802132 73.146162 
C 160.46975 72.813779 160.018878 72.627022 159.548818 72.627022 
C 159.078758 72.627022 158.627887 72.813779 158.295504 73.146162 
C 157.963121 73.478544 157.776364 73.929416 157.776364 74.399476 
C 157.776364 74.869536 157.963121 75.320407 158.295504 75.65279 
C 158.627887 75.985173 159.078758 76.17193 159.548818 76.17193 
z
" style="stroke:#000000;stroke-width:0.886227;"/>
    <path clip-path="url(#pe0e28cf7a2)" d="M 173.076091 78.562572 
C 173.546151 78.562572 173.997022 78.375815 174.329405 78.043432 
C 174.661788 77.711049 174.848545 77.260178 174.848545 76.790118 
C 174.848545 76.320058 174.661788 75.869186 174.329405 75.536804 
C 173.997022 75.204421 173.546151 75.017664 173.076091 75.017664 
C 172.606031 75.017664 172.15516 75.204421 171.822777 75.536804 
C 171.490394 75.869186 171.303637 76.320058 171.303637 76.790118 
C 171.303637 77.260178 171.490394 77.711049 171.822777 78.043432 
C 172.15516 78.375815 172.606031 78.562572 173.076091 78.562572 
z
" style="stroke:#000000;stroke-width:0.886227;"/>
    <path clip-path="url(#pe0e28cf7a2)" d="M 186.603364 90.316603 
C 187.073424 90.316603 187.524295 90.129846 187.856678 89.797463 
C 188.189061 89.46508 188.375817 89.014209 188.375817 88.544149 
C 188.375817 88.074088 188.189061 87.623217 187.856678 87.290835 
C 187.524295 86.958452 187.073424 86.771695 186.603364 86.771695 
C 186.133303 86.771695 185.682432 86.958452 185.350049 87.290835 
C 185.017667 87.623217 184.83091 88.074088 184.83091 88.544149 
C 184.83091 89.014209 185.017667 89.46508 185.350049 89.797463 
C 185.682432 90.129846 186.133303 90.316603 186.603364 90.316603 
z
" style="stroke:#000000;stroke-width:0.886227;"/>
    <path clip-path="url(#pe0e28cf7a2)" d="M 200.130636 99.20546 
C 200.600697 99.20546 201.051568 99.018703 201.383951 98.686321 
C 201.716333 98.353938 201.90309 97.903067 201.90309 97.433007 
C 201.90309 96.962946 201.716333 96.512075 201.383951 96.179692 
C 201.051568 95.84731 200.600697 95.660553 200.130636 95.660553 
C 199.660576 95.660553 199.209705 95.84731 198.877322 96.179692 
C 198.544939 96.512075 198.358183 96.962946 198.358183 97.433007 
C 198.358183 97.903067 198.544939 98.353938 198.877322 98.686321 
C 199.209705 99.018703 199.660576 99.20546 200.130636 99.20546 
z
" style="stroke:#000000;stroke-width:0.886227;"/>
    <path clip-path="url(#pe0e28cf7a2)" d="M 213.657909 107.454601 
C 214.127969 107.454601 214.57884 107.267844 214.911223 106.935461 
C 215.243606 106.603078 215.430363 106.152207 215.430363 105.682147 
C 215.430363 105.212087 215.243606 104.761216 214.911223 104.428833 
C 214.57884 104.09645 214.127969 103.909693 213.657909 103.909693 
C 213.187849 103.909693 212.736978 104.09645 212.404595 104.428833 
C 212.072212 104.761216 211.885455 105.212087 211.885455 105.682147 
C 211.885455 106.152207 212.072212 106.603078 212.404595 106.935461 
C 212.736978 107.267844 213.187849 107.454601 213.657909 107.454601 
z
" style="stroke:#000000;stroke-width:0.886227;"/>
    <path clip-path="url(#pe0e28cf7a2)" d="M 227.185182 112.878127 
C 227.655242 112.878127 228.106113 112.69137 228.438496 112.358987 
C 228.770879 112.026604 228.957636 111.575733 228.957636 111.105673 
C 228.957636 110.635612 228.770879 110.184741 228.438496 109.852359 
C 228.106113 109.519976 227.655242 109.333219 227.185182 109.333219 
C 226.715122 109.333219 226.26425 109.519976 225.931868 109.852359 
C 225.599485 110.184741 225.412728 110.635612 225.412728 111.105673 
C 225.412728 111.575733 225.599485 112.026604 225.931868 112.358987 
C 226.26425 112.69137 226.715122 112.878127 227.185182 112.878127 
z
" style="stroke:#000000;stroke-width:0.886227;"/>
    <path clip-path="url(#pe0e28cf7a2)" d="M 240.712455 125.384545 
C 241.182515 125.384545 241.633386 125.197789 241.965769 124.865406 
C 242.298151 124.533023 242.484908 124.082152 242.484908 123.612092 
C 242.484908 123.142031 242.298151 122.69116 241.965769 122.358777 
C 241.633386 122.026395 241.182515 121.839638 240.712455 121.839638 
C 240.242394 121.839638 239.791523 122.026395 239.45914 122.358777 
C 239.126758 122.69116 238.940001 123.142031 238.940001 123.612092 
C 238.940001 124.082152 239.126758 124.533023 239.45914 124.865406 
C 239.791523 125.197789 240.242394 125.384545 240.712455 125.384545 
z
" style="stroke:#000000;stroke-width:0.886227;"/>
    <path clip-path="url(#pe0e28cf7a2)" d="M 254.239727 126.29021 
C 254.709788 126.29021 255.160659 126.103453 255.493041 125.77107 
C 255.825424 125.438687 256.012181 124.987816 256.012181 124.517756 
C 256.012181 124.047696 255.825424 123.596825 255.493041 123.264442 
C 255.160659 122.932059 254.709788 122.745302 254.239727 122.745302 
C 253.769667 122.745302 253.318796 122.932059 252.986413 123.264442 
C 252.65403 123.596825 252.467273 124.047696 252.467273 124.517756 
C 252.467273 124.987816 252.65403 125.438687 252.986413 125.77107 
C 253.318796 126.103453 253.769667 126.29021 254.239727 126.29021 
z
" style="stroke:#000000;stroke-width:0.886227;"/>
    <path clip-path="url(#pe0e28cf7a2)" d="M 267.767 135.1058 
C 268.23706 135.1058 268.687931 134.919043 269.020314 134.58666 
C 269.352697 134.254277 269.539454 133.803406 269.539454 133.333346 
C 269.539454 132.863285 269.352697 132.412414 269.020314 132.080032 
C 268.687931 131.747649 268.23706 131.560892 267.767 131.560892 
C 267.29694 131.560892 266.846069 131.747649 266.513686 132.080032 
C 266.181303 132.412414 265.994546 132.863285 265.994546 133.333346 
C 265.994546 133.803406 266.181303 134.254277 266.513686 134.58666 
C 266.846069 134.919043 267.29694 135.1058 267.767 135.1058 
z
" style="stroke:#000000;stroke-width:0.886227;"/>
    <path clip-path="url(#pe0e28cf7a2)" d="M 281.294273 134.46842 
C 281.764333 134.46842 282.215204 134.281663 282.547587 133.94928 
C 282.87997 133.616897 283.066727 133.166026 283.066727 132.695966 
C 283.066727 132.225906 282.87997 131.775034 282.547587 131.442652 
C 282.215204 131.110269 281.764333 130.923512 281.294273 130.923512 
C 280.824212 130.923512 280.373341 131.110269 280.040959 131.442652 
C 279.708576 131.775034 279.521819 132.225906 279.521819 132.695966 
C 279.521819 133.166026 279.708576 133.616897 280.040959 133.94928 
C 280.373341 134.281663 280.824212 134.46842 281.294273 134.46842 
z
" style="stroke:#000000;stroke-width:0.886227;"/>
    <path clip-path="url(#pe0e28cf7a2)" d="M 294.821545 141.580878 
C 295.291606 141.580878 295.742477 141.394121 296.07486 141.061739 
C 296.407242 140.729356 296.593999 140.278485 296.593999 139.808424 
C 296.593999 139.338364 296.407242 138.887493 296.07486 138.55511 
C 295.742477 138.222727 295.291606 138.035971 294.821545 138.035971 
C 294.351485 138.035971 293.900614 138.222727 293.568231 138.55511 
C 293.235849 138.887493 293.049092 139.338364 293.049092 139.808424 
C 293.049092 140.278485 293.235849 140.729356 293.568231 141.061739 
C 293.900614 141.394121 294.351485 141.580878 294.821545 141.580878 
z
" style="stroke:#000000;stroke-width:0.886227;"/>
    <path clip-path="url(#pe0e28cf7a2)" d="M 308.348818 142.746239 
C 308.818878 142.746239 309.26975 142.559482 309.602132 142.227099 
C 309.934515 141.894716 310.121272 141.443845 310.121272 140.973785 
C 310.121272 140.503725 309.934515 140.052853 309.602132 139.720471 
C 309.26975 139.388088 308.818878 139.201331 308.348818 139.201331 
C 307.878758 139.201331 307.427887 139.388088 307.095504 139.720471 
C 306.763121 140.052853 306.576364 140.503725 306.576364 140.973785 
C 306.576364 141.443845 306.763121 141.894716 307.095504 142.227099 
C 307.427887 142.559482 307.878758 142.746239 308.348818 142.746239 
z
" style="stroke:#000000;stroke-width:0.886227;"/>
    <path clip-path="url(#pe0e28cf7a2)" d="M 321.876091 148.726459 
C 322.346151 148.726459 322.797022 148.539702 323.129405 148.207319 
C 323.461788 147.874936 323.648545 147.424065 323.648545 146.954005 
C 323.648545 146.483945 323.461788 146.033074 323.129405 145.700691 
C 322.797022 145.368308 322.346151 145.181551 321.876091 145.181551 
C 321.406031 145.181551 320.95516 145.368308 320.622777 145.700691 
C 320.290394 146.033074 320.103637 146.483945 320.103637 146.954005 
C 320.103637 147.424065 320.290394 147.874936 320.622777 148.207319 
C 320.95516 148.539702 321.406031 148.726459 321.876091 148.726459 
z
" style="stroke:#000000;stroke-width:0.886227;"/>
    <path clip-path="url(#pe0e28cf7a2)" d="M 335.403364 141.145679 
C 335.873424 141.145679 336.324295 140.958922 336.656678 140.626539 
C 336.989061 140.294156 337.175817 139.843285 337.175817 139.373225 
C 337.175817 138.903165 336.989061 138.452294 336.656678 138.119911 
C 336.324295 137.787528 335.873424 137.600771 335.403364 137.600771 
C 334.933303 137.600771 334.482432 137.787528 334.150049 138.119911 
C 333.817667 138.452294 333.63091 138.903165 333.63091 139.373225 
C 333.63091 139.843285 333.817667 140.294156 334.150049 140.626539 
C 334.482432 140.958922 334.933303 141.145679 335.403364 141.145679 
z
" style="stroke:#000000;stroke-width:0.886227;"/>
    <path clip-path="url(#pe0e28cf7a2)" d="M 348.930636 141.62196 
C 349.400697 141.62196 349.851568 141.435203 350.183951 141.10282 
C 350.516333 140.770437 350.70309 140.319566 350.70309 139.849506 
C 350.70309 139.379445 350.516333 138.928574 350.183951 138.596192 
C 349.851568 138.263809 349.400697 138.077052 348.930636 138.077052 
C 348.460576 138.077052 348.009705 138.263809 347.677322 138.596192 
C 347.344939 138.928574 347.158183 139.379445 347.158183 139.849506 
C 347.158183 140.319566 347.344939 140.770437 347.677322 141.10282 
C 348.009705 141.435203 348.460576 141.62196 348.930636 141.62196 
z
" style="stroke:#000000;stroke-width:0.886227;"/>
    <path clip-path="url(#pe0e28cf7a2)" d="M 362.457909 149.477514 
C 362.927969 149.477514 363.37884 149.290757 363.711223 148.958374 
C 364.043606 148.625991 364.230363 148.17512 364.230363 147.70506 
C 364.230363 147.235 364.043606 146.784129 363.711223 146.451746 
C 363.37884 146.119363 362.927969 145.932606 362.457909 145.932606 
C 361.987849 145.932606 361.536978 146.119363 361.204595 146.451746 
C 360.872212 146.784129 360.685455 147.235 360.685455 147.70506 
C 360.685455 148.17512 360.872212 148.625991 361.204595 148.958374 
C 361.536978 149.290757 361.987849 149.477514 362.457909 149.477514 
z
" style="stroke:#000000;stroke-width:0.886227;"/>
    <path clip-path="url(#pe0e28cf7a2)" d="M 375.985182 157.003068 
C 376.455242 157.003068 376.906113 156.816311 377.238496 156.483928 
C 377.570879 156.151546 377.757636 155.700675 377.757636 155.230614 
C 377.757636 154.760554 377.570879 154.309683 377.238496 153.9773 
C 376.906113 153.644917 376.455242 153.458161 375.985182 153.458161 
C 375.515122 153.458161 375.06425 153.644917 374.731868 153.9773 
C 374.399485 154.309683 374.212728 154.760554 374.212728 155.230614 
C 374.212728 155.700675 374.399485 156.151546 374.731868 156.483928 
C 375.06425 156.816311 375.515122 157.003068 375.985182 157.003068 
z
" style="stroke:#000000;stroke-width:0.886227;"/>
    <path clip-path="url(#pe0e28cf7a2)" d="M 389.512455 167.003038 
C 389.982515 167.003038 390.433386 166.816281 390.765769 166.483898 
C 391.098151 166.151516 391.284908 165.700645 391.284908 165.230584 
C 391.284908 164.760524 391.098151 164.309653 390.765769 163.97727 
C 390.433386 163.644887 389.982515 163.458131 389.512455 163.458131 
C 389.042394 163.458131 388.591523 163.644887 388.25914 163.97727 
C 387.926758 164.309653 387.740001 164.760524 387.740001 165.230584 
C 387.740001 165.700645 387.926758 166.151516 388.25914 166.483898 
C 388.591523 166.816281 389.042394 167.003038 389.512455 167.003038 
z
" style="stroke:#000000;stroke-width:0.886227;"/>
    <path clip-path="url(#pe0e28cf7a2)" d="M 403.039727 159.217014 
C 403.509788 159.217014 403.960659 159.030257 404.293041 158.697874 
C 404.625424 158.365492 404.812181 157.914621 404.812181 157.44456 
C 404.812181 156.9745 404.625424 156.523629 404.293041 156.191246 
C 403.960659 155.858863 403.509788 155.672107 403.039727 155.672107 
C 402.569667 155.672107 402.118796 155.858863 401.786413 156.191246 
C 401.45403 156.523629 401.267273 156.9745 401.267273 157.44456 
C 401.267273 157.914621 401.45403 158.365492 401.786413 158.697874 
C 402.118796 159.030257 402.569667 159.217014 403.039727 159.217014 
z
" style="stroke:#000000;stroke-width:0.886227;"/>
    <path clip-path="url(#pe0e28cf7a2)" d="M 416.567 158.552981 
C 417.03706 158.552981 417.487931 158.366225 417.820314 158.033842 
C 418.152697 157.701459 418.339454 157.250588 418.339454 156.780528 
C 418.339454 156.310467 418.152697 155.859596 417.820314 155.527213 
C 417.487931 155.194831 417.03706 155.008074 416.567 155.008074 
C 416.09694 155.008074 415.646069 155.194831 415.313686 155.527213 
C 414.981303 155.859596 414.794546 156.310467 414.794546 156.780528 
C 414.794546 157.250588 414.981303 157.701459 415.313686 158.033842 
C 415.646069 158.366225 416.09694 158.552981 416.567 158.552981 
z
" style="stroke:#000000;stroke-width:0.886227;"/>
    <path clip-path="url(#pe0e28cf7a2)" d="M 430.094273 166.616828 
C 430.564333 166.616828 431.015204 166.430071 431.347587 166.097689 
C 431.67997 165.765306 431.866727 165.314435 431.866727 164.844374 
C 431.866727 164.374314 431.67997 163.923443 431.347587 163.59106 
C 431.015204 163.258678 430.564333 163.071921 430.094273 163.071921 
C 429.624212 163.071921 429.173341 163.258678 428.840959 163.59106 
C 428.508576 163.923443 428.321819 164.374314 428.321819 164.844374 
C 428.321819 165.314435 428.508576 165.765306 428.840959 166.097689 
C 429.173341 166.430071 429.624212 166.616828 430.094273 166.616828 
z
" style="stroke:#000000;stroke-width:0.886227;"/>
    <path clip-path="url(#pe0e28cf7a2)" d="M 443.621545 166.698218 
C 444.091606 166.698218 444.542477 166.511462 444.87486 166.179079 
C 445.207242 165.846696 445.393999 165.395825 445.393999 164.925765 
C 445.393999 164.455704 445.207242 164.004833 444.87486 163.67245 
C 444.542477 163.340068 444.091606 163.153311 443.621545 163.153311 
C 443.151485 163.153311 442.700614 163.340068 442.368231 163.67245 
C 442.035849 164.004833 441.849092 164.455704 441.849092 164.925765 
C 441.849092 165.395825 442.035849 165.846696 442.368231 166.179079 
C 442.700614 166.511462 443.151485 166.698218 443.621545 166.698218 
z
" style="stroke:#000000;stroke-width:0.886227;"/>
    <path clip-path="url(#pe0e28cf7a2)" d="M 457.148818 172.749787 
C 457.618878 172.749787 458.06975 172.56303 458.402132 172.230647 
C 458.734515 171.898264 458.921272 171.447393 458.921272 170.977333 
C 458.921272 170.507273 458.734515 170.056402 458.402132 169.724019 
C 458.06975 169.391636 457.618878 169.204879 457.148818 169.204879 
C 456.678758 169.204879 456.227887 169.391636 455.895504 169.724019 
C 455.563121 170.056402 455.376364 170.507273 455.376364 170.977333 
C 455.376364 171.447393 455.563121 171.898264 455.895504 172.230647 
C 456.227887 172.56303 456.678758 172.749787 457.148818 172.749787 
z
" style="stroke:#000000;stroke-width:0.886227;"/>
    <path clip-path="url(#pe0e28cf7a2)" d="M 470.676091 164.670083 
C 471.146151 164.670083 471.597022 164.483326 471.929405 164.150944 
C 472.261788 163.818561 472.448545 163.36769 472.448545 162.897629 
C 472.448545 162.427569 472.261788 161.976698 471.929405 161.644315 
C 471.597022 161.311933 471.146151 161.125176 470.676091 161.125176 
C 470.206031 161.125176 469.75516 161.311933 469.422777 161.644315 
C 469.090394 161.976698 468.903637 162.427569 468.903637 162.897629 
C 468.903637 163.36769 469.090394 163.818561 469.422777 164.150944 
C 469.75516 164.483326 470.206031 164.670083 470.676091 164.670083 
z
" style="stroke:#000000;stroke-width:0.886227;"/>
   </g>
   <g id="line2d_33">
    <path clip-path="url(#pe0e28cf7a2)" d="M 64.857909 43.323613 
L 78.385182 44.893676 
L 91.912455 49.396836 
L 105.439727 50.674732 
L 118.967 57.143845 
L 132.494273 63.297436 
L 146.021545 67.18296 
L 159.548818 74.399476 
L 173.076091 76.790118 
L 186.603364 88.544149 
L 200.130636 97.433007 
L 213.657909 105.682147 
L 227.185182 111.105673 
L 240.712455 123.612092 
L 254.239727 124.517756 
L 267.767 133.333346 
L 281.294273 132.695966 
L 294.821545 139.808424 
L 308.348818 140.973785 
L 321.876091 146.954005 
L 335.403364 139.373225 
L 348.930636 139.849506 
L 362.457909 147.70506 
L 375.985182 155.230614 
L 389.512455 165.230584 
L 403.039727 157.44456 
L 416.567 156.780528 
L 430.094273 164.844374 
L 443.621545 164.925765 
L 457.148818 170.977333 
L 470.676091 162.897629 
" style="fill:none;stroke:#000000;stroke-width:0.886227;"/>
   </g>
  </g>
 </g>
 <defs>
  <clipPath id="pe0e28cf7a2">
   <rect height="221.76" width="446.4" x="44.567" y="7.2"/>
  </clipPath>
 </defs>
</svg>
