<?xml version="1.0" encoding="utf-8" standalone="no"?>
<!DOCTYPE svg PUBLIC "-//W3C//DTD SVG 1.1//EN"
  "http://www.w3.org/Graphics/SVG/1.1/DTD/svg11.dtd">
<!-- Created with matplotlib (https://matplotlib.org/) -->
<svg height="264.672687pt" version="1.1" viewBox="0 0 498.167 264.672687" width="498.167pt" xmlns="http://www.w3.org/2000/svg" xmlns:xlink="http://www.w3.org/1999/xlink">
 <defs>
  <style type="text/css">
*{stroke-linecap:butt;stroke-linejoin:round;}
  </style>
 </defs>
 <g id="figure_1">
  <g id="patch_1">
   <path d="M 0 264.672687 
L 498.167 264.672687 
L 498.167 0 
L 0 0 
z
" style="fill:#ffffff;stroke:#ffffff;stroke-linejoin:miter;"/>
  </g>
  <g id="axes_1">
   <g id="patch_2">
    <path d="M 44.567 228.96 
L 490.967 228.96 
L 490.967 7.2 
L 44.567 7.2 
z
" style="fill:#ffffff;stroke:#7f7f7f;stroke-linejoin:miter;"/>
   </g>
   <g id="matplotlib.axis_1">
    <g id="xtick_1">
     <g id="line2d_1">
      <path clip-path="url(#pb56f280f06)" d="M 64.857909 228.96 
L 64.857909 7.2 
" style="fill:none;stroke:#e5e5e5;stroke-width:0.8;"/>
     </g>
     <g id="line2d_2">
      <path d="M 64.857909 228.96 
" style="fill:none;stroke:#000000;stroke-width:1.5;"/>
      <defs>
       <path d="M 0 0 
L 0 2.75 
" id="mf6808d9a9d" style="stroke:#000000;"/>
      </defs>
      <g>
       <use style="stroke:#000000;" x="64.857909" xlink:href="#mf6808d9a9d" y="228.96"/>
      </g>
     </g>
     <g id="text_1">
      <!-- 1970 -->
      <defs>
       <path d="M 12.40625 8.296875 
L 28.515625 8.296875 
L 28.515625 63.921875 
L 10.984375 60.40625 
L 10.984375 69.390625 
L 28.421875 72.90625 
L 38.28125 72.90625 
L 38.28125 8.296875 
L 54.390625 8.296875 
L 54.390625 0 
L 12.40625 0 
z
" id="DejaVuSans-49"/>
       <path d="M 10.984375 1.515625 
L 10.984375 10.5 
Q 14.703125 8.734375 18.5 7.8125 
Q 22.3125 6.890625 25.984375 6.890625 
Q 35.75 6.890625 40.890625 13.453125 
Q 46.046875 20.015625 46.78125 33.40625 
Q 43.953125 29.203125 39.59375 26.953125 
Q 35.25 24.703125 29.984375 24.703125 
Q 19.046875 24.703125 12.671875 31.3125 
Q 6.296875 37.9375 6.296875 49.421875 
Q 6.296875 60.640625 12.9375 67.421875 
Q 19.578125 74.21875 30.609375 74.21875 
Q 43.265625 74.21875 49.921875 64.515625 
Q 56.59375 54.828125 56.59375 36.375 
Q 56.59375 19.140625 48.40625 8.859375 
Q 40.234375 -1.421875 26.421875 -1.421875 
Q 22.703125 -1.421875 18.890625 -0.6875 
Q 15.09375 0.046875 10.984375 1.515625 
z
M 30.609375 32.421875 
Q 37.25 32.421875 41.125 36.953125 
Q 45.015625 41.5 45.015625 49.421875 
Q 45.015625 57.28125 41.125 61.84375 
Q 37.25 66.40625 30.609375 66.40625 
Q 23.96875 66.40625 20.09375 61.84375 
Q 16.21875 57.28125 16.21875 49.421875 
Q 16.21875 41.5 20.09375 36.953125 
Q 23.96875 32.421875 30.609375 32.421875 
z
" id="DejaVuSans-57"/>
       <path d="M 8.203125 72.90625 
L 55.078125 72.90625 
L 55.078125 68.703125 
L 28.609375 0 
L 18.3125 0 
L 43.21875 64.59375 
L 8.203125 64.59375 
z
" id="DejaVuSans-55"/>
       <path d="M 31.78125 66.40625 
Q 24.171875 66.40625 20.328125 58.90625 
Q 16.5 51.421875 16.5 36.375 
Q 16.5 21.390625 20.328125 13.890625 
Q 24.171875 6.390625 31.78125 6.390625 
Q 39.453125 6.390625 43.28125 13.890625 
Q 47.125 21.390625 47.125 36.375 
Q 47.125 51.421875 43.28125 58.90625 
Q 39.453125 66.40625 31.78125 66.40625 
z
M 31.78125 74.21875 
Q 44.046875 74.21875 50.515625 64.515625 
Q 56.984375 54.828125 56.984375 36.375 
Q 56.984375 17.96875 50.515625 8.265625 
Q 44.046875 -1.421875 31.78125 -1.421875 
Q 19.53125 -1.421875 13.0625 8.265625 
Q 6.59375 17.96875 6.59375 36.375 
Q 6.59375 54.828125 13.0625 64.515625 
Q 19.53125 74.21875 31.78125 74.21875 
z
" id="DejaVuSans-48"/>
      </defs>
      <g transform="translate(53.659909 240.596625)scale(0.088 -0.088)">
       <use xlink:href="#DejaVuSans-49"/>
       <use x="63.623047" xlink:href="#DejaVuSans-57"/>
       <use x="127.246094" xlink:href="#DejaVuSans-55"/>
       <use x="190.869141" xlink:href="#DejaVuSans-48"/>
      </g>
     </g>
    </g>
    <g id="xtick_2">
     <g id="line2d_3">
      <path clip-path="url(#pb56f280f06)" d="M 146.021545 228.96 
L 146.021545 7.2 
" style="fill:none;stroke:#e5e5e5;stroke-width:0.8;"/>
     </g>
     <g id="line2d_4">
      <path d="M 146.021545 228.96 
" style="fill:none;stroke:#000000;stroke-width:1.5;"/>
      <g>
       <use style="stroke:#000000;" x="146.021545" xlink:href="#mf6808d9a9d" y="228.96"/>
      </g>
     </g>
     <g id="text_2">
      <!-- 1980 -->
      <defs>
       <path d="M 31.78125 34.625 
Q 24.75 34.625 20.71875 30.859375 
Q 16.703125 27.09375 16.703125 20.515625 
Q 16.703125 13.921875 20.71875 10.15625 
Q 24.75 6.390625 31.78125 6.390625 
Q 38.8125 6.390625 42.859375 10.171875 
Q 46.921875 13.96875 46.921875 20.515625 
Q 46.921875 27.09375 42.890625 30.859375 
Q 38.875 34.625 31.78125 34.625 
z
M 21.921875 38.8125 
Q 15.578125 40.375 12.03125 44.71875 
Q 8.5 49.078125 8.5 55.328125 
Q 8.5 64.0625 14.71875 69.140625 
Q 20.953125 74.21875 31.78125 74.21875 
Q 42.671875 74.21875 48.875 69.140625 
Q 55.078125 64.0625 55.078125 55.328125 
Q 55.078125 49.078125 51.53125 44.71875 
Q 48 40.375 41.703125 38.8125 
Q 48.828125 37.15625 52.796875 32.3125 
Q 56.78125 27.484375 56.78125 20.515625 
Q 56.78125 9.90625 50.3125 4.234375 
Q 43.84375 -1.421875 31.78125 -1.421875 
Q 19.734375 -1.421875 13.25 4.234375 
Q 6.78125 9.90625 6.78125 20.515625 
Q 6.78125 27.484375 10.78125 32.3125 
Q 14.796875 37.15625 21.921875 38.8125 
z
M 18.3125 54.390625 
Q 18.3125 48.734375 21.84375 45.5625 
Q 25.390625 42.390625 31.78125 42.390625 
Q 38.140625 42.390625 41.71875 45.5625 
Q 45.3125 48.734375 45.3125 54.390625 
Q 45.3125 60.0625 41.71875 63.234375 
Q 38.140625 66.40625 31.78125 66.40625 
Q 25.390625 66.40625 21.84375 63.234375 
Q 18.3125 60.0625 18.3125 54.390625 
z
" id="DejaVuSans-56"/>
      </defs>
      <g transform="translate(134.823545 240.596625)scale(0.088 -0.088)">
       <use xlink:href="#DejaVuSans-49"/>
       <use x="63.623047" xlink:href="#DejaVuSans-57"/>
       <use x="127.246094" xlink:href="#DejaVuSans-56"/>
       <use x="190.869141" xlink:href="#DejaVuSans-48"/>
      </g>
     </g>
    </g>
    <g id="xtick_3">
     <g id="line2d_5">
      <path clip-path="url(#pb56f280f06)" d="M 227.185182 228.96 
L 227.185182 7.2 
" style="fill:none;stroke:#e5e5e5;stroke-width:0.8;"/>
     </g>
     <g id="line2d_6">
      <path d="M 227.185182 228.96 
" style="fill:none;stroke:#000000;stroke-width:1.5;"/>
      <g>
       <use style="stroke:#000000;" x="227.185182" xlink:href="#mf6808d9a9d" y="228.96"/>
      </g>
     </g>
     <g id="text_3">
      <!-- 1990 -->
      <g transform="translate(215.987182 240.596625)scale(0.088 -0.088)">
       <use xlink:href="#DejaVuSans-49"/>
       <use x="63.623047" xlink:href="#DejaVuSans-57"/>
       <use x="127.246094" xlink:href="#DejaVuSans-57"/>
       <use x="190.869141" xlink:href="#DejaVuSans-48"/>
      </g>
     </g>
    </g>
    <g id="xtick_4">
     <g id="line2d_7">
      <path clip-path="url(#pb56f280f06)" d="M 308.348818 228.96 
L 308.348818 7.2 
" style="fill:none;stroke:#e5e5e5;stroke-width:0.8;"/>
     </g>
     <g id="line2d_8">
      <path d="M 308.348818 228.96 
" style="fill:none;stroke:#000000;stroke-width:1.5;"/>
      <g>
       <use style="stroke:#000000;" x="308.348818" xlink:href="#mf6808d9a9d" y="228.96"/>
      </g>
     </g>
     <g id="text_4">
      <!-- 2000 -->
      <defs>
       <path d="M 19.1875 8.296875 
L 53.609375 8.296875 
L 53.609375 0 
L 7.328125 0 
L 7.328125 8.296875 
Q 12.9375 14.109375 22.625 23.890625 
Q 32.328125 33.6875 34.8125 36.53125 
Q 39.546875 41.84375 41.421875 45.53125 
Q 43.3125 49.21875 43.3125 52.78125 
Q 43.3125 58.59375 39.234375 62.25 
Q 35.15625 65.921875 28.609375 65.921875 
Q 23.96875 65.921875 18.8125 64.3125 
Q 13.671875 62.703125 7.8125 59.421875 
L 7.8125 69.390625 
Q 13.765625 71.78125 18.9375 73 
Q 24.125 74.21875 28.421875 74.21875 
Q 39.75 74.21875 46.484375 68.546875 
Q 53.21875 62.890625 53.21875 53.421875 
Q 53.21875 48.921875 51.53125 44.890625 
Q 49.859375 40.875 45.40625 35.40625 
Q 44.1875 33.984375 37.640625 27.21875 
Q 31.109375 20.453125 19.1875 8.296875 
z
" id="DejaVuSans-50"/>
      </defs>
      <g transform="translate(297.150818 240.596625)scale(0.088 -0.088)">
       <use xlink:href="#DejaVuSans-50"/>
       <use x="63.623047" xlink:href="#DejaVuSans-48"/>
       <use x="127.246094" xlink:href="#DejaVuSans-48"/>
       <use x="190.869141" xlink:href="#DejaVuSans-48"/>
      </g>
     </g>
    </g>
    <g id="xtick_5">
     <g id="line2d_9">
      <path clip-path="url(#pb56f280f06)" d="M 389.512455 228.96 
L 389.512455 7.2 
" style="fill:none;stroke:#e5e5e5;stroke-width:0.8;"/>
     </g>
     <g id="line2d_10">
      <path d="M 389.512455 228.96 
" style="fill:none;stroke:#000000;stroke-width:1.5;"/>
      <g>
       <use style="stroke:#000000;" x="389.512455" xlink:href="#mf6808d9a9d" y="228.96"/>
      </g>
     </g>
     <g id="text_5">
      <!-- 2010 -->
      <g transform="translate(378.314455 240.596625)scale(0.088 -0.088)">
       <use xlink:href="#DejaVuSans-50"/>
       <use x="63.623047" xlink:href="#DejaVuSans-48"/>
       <use x="127.246094" xlink:href="#DejaVuSans-49"/>
       <use x="190.869141" xlink:href="#DejaVuSans-48"/>
      </g>
     </g>
    </g>
    <g id="xtick_6">
     <g id="line2d_11">
      <path clip-path="url(#pb56f280f06)" d="M 470.676091 228.96 
L 470.676091 7.2 
" style="fill:none;stroke:#e5e5e5;stroke-width:0.8;"/>
     </g>
     <g id="line2d_12">
      <path d="M 470.676091 228.96 
" style="fill:none;stroke:#000000;stroke-width:1.5;"/>
      <g>
       <use style="stroke:#000000;" x="470.676091" xlink:href="#mf6808d9a9d" y="228.96"/>
      </g>
     </g>
     <g id="text_6">
      <!-- 2020 -->
      <g transform="translate(459.478091 240.596625)scale(0.088 -0.088)">
       <use xlink:href="#DejaVuSans-50"/>
       <use x="63.623047" xlink:href="#DejaVuSans-48"/>
       <use x="127.246094" xlink:href="#DejaVuSans-50"/>
       <use x="190.869141" xlink:href="#DejaVuSans-48"/>
      </g>
     </g>
    </g>
    <g id="xtick_7">
     <g id="line2d_13">
      <path clip-path="url(#pb56f280f06)" d="M 105.439727 228.96 
L 105.439727 7.2 
" style="fill:none;stroke:#fafafa;"/>
     </g>
     <g id="line2d_14">
      <path d="M 105.439727 228.96 
" style="fill:none;stroke:#000000;stroke-width:1.5;"/>
      <defs>
       <path d="M 0 0 
L 0 1.375 
" id="m5bf7f35520" style="stroke:#000000;"/>
      </defs>
      <g>
       <use style="stroke:#000000;" x="105.439727" xlink:href="#m5bf7f35520" y="228.96"/>
      </g>
     </g>
    </g>
    <g id="xtick_8">
     <g id="line2d_15">
      <path clip-path="url(#pb56f280f06)" d="M 186.603364 228.96 
L 186.603364 7.2 
" style="fill:none;stroke:#fafafa;"/>
     </g>
     <g id="line2d_16">
      <path d="M 186.603364 228.96 
" style="fill:none;stroke:#000000;stroke-width:1.5;"/>
      <g>
       <use style="stroke:#000000;" x="186.603364" xlink:href="#m5bf7f35520" y="228.96"/>
      </g>
     </g>
    </g>
    <g id="xtick_9">
     <g id="line2d_17">
      <path clip-path="url(#pb56f280f06)" d="M 267.767 228.96 
L 267.767 7.2 
" style="fill:none;stroke:#fafafa;"/>
     </g>
     <g id="line2d_18">
      <path d="M 267.767 228.96 
" style="fill:none;stroke:#000000;stroke-width:1.5;"/>
      <g>
       <use style="stroke:#000000;" x="267.767" xlink:href="#m5bf7f35520" y="228.96"/>
      </g>
     </g>
    </g>
    <g id="xtick_10">
     <g id="line2d_19">
      <path clip-path="url(#pb56f280f06)" d="M 348.930636 228.96 
L 348.930636 7.2 
" style="fill:none;stroke:#fafafa;"/>
     </g>
     <g id="line2d_20">
      <path d="M 348.930636 228.96 
" style="fill:none;stroke:#000000;stroke-width:1.5;"/>
      <g>
       <use style="stroke:#000000;" x="348.930636" xlink:href="#m5bf7f35520" y="228.96"/>
      </g>
     </g>
    </g>
    <g id="xtick_11">
     <g id="line2d_21">
      <path clip-path="url(#pb56f280f06)" d="M 430.094273 228.96 
L 430.094273 7.2 
" style="fill:none;stroke:#fafafa;"/>
     </g>
     <g id="line2d_22">
      <path d="M 430.094273 228.96 
" style="fill:none;stroke:#000000;stroke-width:1.5;"/>
      <g>
       <use style="stroke:#000000;" x="430.094273" xlink:href="#m5bf7f35520" y="228.96"/>
      </g>
     </g>
    </g>
    <g id="text_7">
     <!-- Year -->
     <defs>
      <path d="M -0.203125 72.90625 
L 10.40625 72.90625 
L 30.609375 42.921875 
L 50.6875 72.90625 
L 61.28125 72.90625 
L 35.5 34.71875 
L 35.5 0 
L 25.59375 0 
L 25.59375 34.71875 
z
" id="DejaVuSans-89"/>
      <path d="M 56.203125 29.59375 
L 56.203125 25.203125 
L 14.890625 25.203125 
Q 15.484375 15.921875 20.484375 11.0625 
Q 25.484375 6.203125 34.421875 6.203125 
Q 39.59375 6.203125 44.453125 7.46875 
Q 49.3125 8.734375 54.109375 11.28125 
L 54.109375 2.78125 
Q 49.265625 0.734375 44.1875 -0.34375 
Q 39.109375 -1.421875 33.890625 -1.421875 
Q 20.796875 -1.421875 13.15625 6.1875 
Q 5.515625 13.8125 5.515625 26.8125 
Q 5.515625 40.234375 12.765625 48.109375 
Q 20.015625 56 32.328125 56 
Q 43.359375 56 49.78125 48.890625 
Q 56.203125 41.796875 56.203125 29.59375 
z
M 47.21875 32.234375 
Q 47.125 39.59375 43.09375 43.984375 
Q 39.0625 48.390625 32.421875 48.390625 
Q 24.90625 48.390625 20.390625 44.140625 
Q 15.875 39.890625 15.1875 32.171875 
z
" id="DejaVuSans-101"/>
      <path d="M 34.28125 27.484375 
Q 23.390625 27.484375 19.1875 25 
Q 14.984375 22.515625 14.984375 16.5 
Q 14.984375 11.71875 18.140625 8.90625 
Q 21.296875 6.109375 26.703125 6.109375 
Q 34.1875 6.109375 38.703125 11.40625 
Q 43.21875 16.703125 43.21875 25.484375 
L 43.21875 27.484375 
z
M 52.203125 31.203125 
L 52.203125 0 
L 43.21875 0 
L 43.21875 8.296875 
Q 40.140625 3.328125 35.546875 0.953125 
Q 30.953125 -1.421875 24.3125 -1.421875 
Q 15.921875 -1.421875 10.953125 3.296875 
Q 6 8.015625 6 15.921875 
Q 6 25.140625 12.171875 29.828125 
Q 18.359375 34.515625 30.609375 34.515625 
L 43.21875 34.515625 
L 43.21875 35.40625 
Q 43.21875 41.609375 39.140625 45 
Q 35.0625 48.390625 27.6875 48.390625 
Q 23 48.390625 18.546875 47.265625 
Q 14.109375 46.140625 10.015625 43.890625 
L 10.015625 52.203125 
Q 14.9375 54.109375 19.578125 55.046875 
Q 24.21875 56 28.609375 56 
Q 40.484375 56 46.34375 49.84375 
Q 52.203125 43.703125 52.203125 31.203125 
z
" id="DejaVuSans-97"/>
      <path d="M 41.109375 46.296875 
Q 39.59375 47.171875 37.8125 47.578125 
Q 36.03125 48 33.890625 48 
Q 26.265625 48 22.1875 43.046875 
Q 18.109375 38.09375 18.109375 28.8125 
L 18.109375 0 
L 9.078125 0 
L 9.078125 54.6875 
L 18.109375 54.6875 
L 18.109375 46.1875 
Q 20.953125 51.171875 25.484375 53.578125 
Q 30.03125 56 36.53125 56 
Q 37.453125 56 38.578125 55.875 
Q 39.703125 55.765625 41.0625 55.515625 
z
" id="DejaVuSans-114"/>
     </defs>
     <g transform="translate(248.203172 255.185031)scale(0.11 -0.11)">
      <use xlink:href="#DejaVuSans-89"/>
      <use x="60.880859" xlink:href="#DejaVuSans-101"/>
      <use x="122.404297" xlink:href="#DejaVuSans-97"/>
      <use x="183.683594" xlink:href="#DejaVuSans-114"/>
     </g>
    </g>
   </g>
   <g id="matplotlib.axis_2">
    <g id="ytick_1">
     <g id="line2d_23">
      <path clip-path="url(#pb56f280f06)" d="M 44.567 218.88 
L 490.967 218.88 
" style="fill:none;stroke:#e5e5e5;stroke-width:0.8;"/>
     </g>
     <g id="line2d_24">
      <path d="M 44.567 218.88 
" style="fill:none;stroke:#000000;stroke-width:1.5;"/>
      <defs>
       <path d="M 0 0 
L -2.75 0 
" id="m050ec3c0e1" style="stroke:#000000;"/>
      </defs>
      <g>
       <use style="stroke:#000000;" x="44.567" xlink:href="#m050ec3c0e1" y="218.88"/>
      </g>
     </g>
     <g id="text_8">
      <!-- 0 -->
      <g transform="translate(34.018 221.30825)scale(0.088 -0.088)">
       <use xlink:href="#DejaVuSans-48"/>
      </g>
     </g>
    </g>
    <g id="ytick_2">
     <g id="line2d_25">
      <path clip-path="url(#pb56f280f06)" d="M 44.567 168.48 
L 490.967 168.48 
" style="fill:none;stroke:#e5e5e5;stroke-width:0.8;"/>
     </g>
     <g id="line2d_26">
      <path d="M 44.567 168.48 
" style="fill:none;stroke:#000000;stroke-width:1.5;"/>
      <g>
       <use style="stroke:#000000;" x="44.567" xlink:href="#m050ec3c0e1" y="168.48"/>
      </g>
     </g>
     <g id="text_9">
      <!-- 25 -->
      <defs>
       <path d="M 10.796875 72.90625 
L 49.515625 72.90625 
L 49.515625 64.59375 
L 19.828125 64.59375 
L 19.828125 46.734375 
Q 21.96875 47.46875 24.109375 47.828125 
Q 26.265625 48.1875 28.421875 48.1875 
Q 40.625 48.1875 47.75 41.5 
Q 54.890625 34.8125 54.890625 23.390625 
Q 54.890625 11.625 47.5625 5.09375 
Q 40.234375 -1.421875 26.90625 -1.421875 
Q 22.3125 -1.421875 17.546875 -0.640625 
Q 12.796875 0.140625 7.71875 1.703125 
L 7.71875 11.625 
Q 12.109375 9.234375 16.796875 8.0625 
Q 21.484375 6.890625 26.703125 6.890625 
Q 35.15625 6.890625 40.078125 11.328125 
Q 45.015625 15.765625 45.015625 23.390625 
Q 45.015625 31 40.078125 35.4375 
Q 35.15625 39.890625 26.703125 39.890625 
Q 22.75 39.890625 18.8125 39.015625 
Q 14.890625 38.140625 10.796875 36.28125 
z
" id="DejaVuSans-53"/>
      </defs>
      <g transform="translate(28.419 170.90825)scale(0.088 -0.088)">
       <use xlink:href="#DejaVuSans-50"/>
       <use x="63.623047" xlink:href="#DejaVuSans-53"/>
      </g>
     </g>
    </g>
    <g id="ytick_3">
     <g id="line2d_27">
      <path clip-path="url(#pb56f280f06)" d="M 44.567 118.08 
L 490.967 118.08 
" style="fill:none;stroke:#e5e5e5;stroke-width:0.8;"/>
     </g>
     <g id="line2d_28">
      <path d="M 44.567 118.08 
" style="fill:none;stroke:#000000;stroke-width:1.5;"/>
      <g>
       <use style="stroke:#000000;" x="44.567" xlink:href="#m050ec3c0e1" y="118.08"/>
      </g>
     </g>
     <g id="text_10">
      <!-- 50 -->
      <g transform="translate(28.419 120.50825)scale(0.088 -0.088)">
       <use xlink:href="#DejaVuSans-53"/>
       <use x="63.623047" xlink:href="#DejaVuSans-48"/>
      </g>
     </g>
    </g>
    <g id="ytick_4">
     <g id="line2d_29">
      <path clip-path="url(#pb56f280f06)" d="M 44.567 67.68 
L 490.967 67.68 
" style="fill:none;stroke:#e5e5e5;stroke-width:0.8;"/>
     </g>
     <g id="line2d_30">
      <path d="M 44.567 67.68 
" style="fill:none;stroke:#000000;stroke-width:1.5;"/>
      <g>
       <use style="stroke:#000000;" x="44.567" xlink:href="#m050ec3c0e1" y="67.68"/>
      </g>
     </g>
     <g id="text_11">
      <!-- 75 -->
      <g transform="translate(28.419 70.10825)scale(0.088 -0.088)">
       <use xlink:href="#DejaVuSans-55"/>
       <use x="63.623047" xlink:href="#DejaVuSans-53"/>
      </g>
     </g>
    </g>
    <g id="ytick_5">
     <g id="line2d_31">
      <path clip-path="url(#pb56f280f06)" d="M 44.567 17.28 
L 490.967 17.28 
" style="fill:none;stroke:#e5e5e5;stroke-width:0.8;"/>
     </g>
     <g id="line2d_32">
      <path d="M 44.567 17.28 
" style="fill:none;stroke:#000000;stroke-width:1.5;"/>
      <g>
       <use style="stroke:#000000;" x="44.567" xlink:href="#m050ec3c0e1" y="17.28"/>
      </g>
     </g>
     <g id="text_12">
      <!-- 100 -->
      <g transform="translate(22.82 19.70825)scale(0.088 -0.088)">
       <use xlink:href="#DejaVuSans-49"/>
       <use x="63.623047" xlink:href="#DejaVuSans-48"/>
       <use x="127.246094" xlink:href="#DejaVuSans-48"/>
      </g>
     </g>
    </g>
    <g id="ytick_6">
     <g id="line2d_33">
      <path clip-path="url(#pb56f280f06)" d="M 44.567 193.68 
L 490.967 193.68 
" style="fill:none;stroke:#fafafa;"/>
     </g>
     <g id="line2d_34">
      <path d="M 44.567 193.68 
" style="fill:none;stroke:#000000;stroke-width:1.5;"/>
      <defs>
       <path d="M 0 0 
L -1.375 0 
" id="m1cc0e4c2cd" style="stroke:#000000;"/>
      </defs>
      <g>
       <use style="stroke:#000000;" x="44.567" xlink:href="#m1cc0e4c2cd" y="193.68"/>
      </g>
     </g>
    </g>
    <g id="ytick_7">
     <g id="line2d_35">
      <path clip-path="url(#pb56f280f06)" d="M 44.567 143.28 
L 490.967 143.28 
" style="fill:none;stroke:#fafafa;"/>
     </g>
     <g id="line2d_36">
      <path d="M 44.567 143.28 
" style="fill:none;stroke:#000000;stroke-width:1.5;"/>
      <g>
       <use style="stroke:#000000;" x="44.567" xlink:href="#m1cc0e4c2cd" y="143.28"/>
      </g>
     </g>
    </g>
    <g id="ytick_8">
     <g id="line2d_37">
      <path clip-path="url(#pb56f280f06)" d="M 44.567 92.88 
L 490.967 92.88 
" style="fill:none;stroke:#fafafa;"/>
     </g>
     <g id="line2d_38">
      <path d="M 44.567 92.88 
" style="fill:none;stroke:#000000;stroke-width:1.5;"/>
      <g>
       <use style="stroke:#000000;" x="44.567" xlink:href="#m1cc0e4c2cd" y="92.88"/>
      </g>
     </g>
    </g>
    <g id="ytick_9">
     <g id="line2d_39">
      <path clip-path="url(#pb56f280f06)" d="M 44.567 42.48 
L 490.967 42.48 
" style="fill:none;stroke:#fafafa;"/>
     </g>
     <g id="line2d_40">
      <path d="M 44.567 42.48 
" style="fill:none;stroke:#000000;stroke-width:1.5;"/>
      <g>
       <use style="stroke:#000000;" x="44.567" xlink:href="#m1cc0e4c2cd" y="42.48"/>
      </g>
     </g>
    </g>
    <g id="text_13">
     <!-- $P_{Q1}(t)$ [%] -->
     <defs>
      <path d="M 16.890625 72.90625 
L 39.703125 72.90625 
Q 49.65625 72.90625 54.875 68.265625 
Q 60.109375 63.625 60.109375 54.6875 
Q 60.109375 42.671875 52.390625 35.984375 
Q 44.671875 29.296875 30.71875 29.296875 
L 18.3125 29.296875 
L 12.59375 0 
L 2.6875 0 
z
M 25.203125 64.796875 
L 19.921875 37.40625 
L 32.328125 37.40625 
Q 40.71875 37.40625 45.203125 41.703125 
Q 49.703125 46 49.703125 54 
Q 49.703125 59.125 46.65625 61.953125 
Q 43.609375 64.796875 38.09375 64.796875 
z
" id="DejaVuSans-Oblique-80"/>
      <path d="M 36.078125 -1.3125 
Q 35.546875 -1.375 34.953125 -1.390625 
Q 34.375 -1.421875 33.203125 -1.421875 
Q 19.53125 -1.421875 11.8125 6.421875 
Q 4.109375 14.265625 4.109375 28.078125 
Q 4.109375 36.234375 7.0625 44.4375 
Q 10.015625 52.640625 15.28125 59.1875 
Q 21.390625 66.703125 29.03125 70.453125 
Q 36.671875 74.21875 45.90625 74.21875 
Q 59.28125 74.21875 66.984375 66.328125 
Q 74.703125 58.453125 74.703125 44.828125 
Q 74.703125 30.125 66.640625 17.921875 
Q 58.59375 5.71875 45.609375 0.6875 
L 55.515625 -12.890625 
L 44.484375 -12.890625 
z
M 45.609375 66.21875 
Q 37.5 66.21875 31.296875 62.28125 
Q 25.09375 58.34375 20.515625 50.296875 
Q 17.578125 45.171875 16.03125 39.40625 
Q 14.5 33.640625 14.5 27.78125 
Q 14.5 17.625 19.359375 12.109375 
Q 24.21875 6.59375 33.109375 6.59375 
Q 41.109375 6.59375 47.375 10.5625 
Q 53.65625 14.546875 58.109375 22.40625 
Q 61.078125 27.6875 62.640625 33.46875 
Q 64.203125 39.265625 64.203125 45.015625 
Q 64.203125 55.125 59.3125 60.671875 
Q 54.4375 66.21875 45.609375 66.21875 
z
" id="DejaVuSans-Oblique-81"/>
      <path d="M 31 75.875 
Q 24.46875 64.65625 21.28125 53.65625 
Q 18.109375 42.671875 18.109375 31.390625 
Q 18.109375 20.125 21.3125 9.0625 
Q 24.515625 -2 31 -13.1875 
L 23.1875 -13.1875 
Q 15.875 -1.703125 12.234375 9.375 
Q 8.59375 20.453125 8.59375 31.390625 
Q 8.59375 42.28125 12.203125 53.3125 
Q 15.828125 64.359375 23.1875 75.875 
z
" id="DejaVuSans-40"/>
      <path d="M 42.28125 54.6875 
L 40.921875 47.703125 
L 23 47.703125 
L 17.1875 18.015625 
Q 16.890625 16.359375 16.75 15.234375 
Q 16.609375 14.109375 16.609375 13.484375 
Q 16.609375 10.359375 18.484375 8.9375 
Q 20.359375 7.515625 24.515625 7.515625 
L 33.59375 7.515625 
L 32.078125 0 
L 23.484375 0 
Q 15.484375 0 11.546875 3.125 
Q 7.625 6.25 7.625 12.59375 
Q 7.625 13.71875 7.765625 15.0625 
Q 7.90625 16.40625 8.203125 18.015625 
L 14.015625 47.703125 
L 6.390625 47.703125 
L 7.8125 54.6875 
L 15.28125 54.6875 
L 18.3125 70.21875 
L 27.296875 70.21875 
L 24.3125 54.6875 
z
" id="DejaVuSans-Oblique-116"/>
      <path d="M 8.015625 75.875 
L 15.828125 75.875 
Q 23.140625 64.359375 26.78125 53.3125 
Q 30.421875 42.28125 30.421875 31.390625 
Q 30.421875 20.453125 26.78125 9.375 
Q 23.140625 -1.703125 15.828125 -13.1875 
L 8.015625 -13.1875 
Q 14.5 -2 17.703125 9.0625 
Q 20.90625 20.125 20.90625 31.390625 
Q 20.90625 42.671875 17.703125 53.65625 
Q 14.5 64.65625 8.015625 75.875 
z
" id="DejaVuSans-41"/>
      <path id="DejaVuSans-32"/>
      <path d="M 8.59375 75.984375 
L 29.296875 75.984375 
L 29.296875 69 
L 17.578125 69 
L 17.578125 -6.203125 
L 29.296875 -6.203125 
L 29.296875 -13.1875 
L 8.59375 -13.1875 
z
" id="DejaVuSans-91"/>
      <path d="M 72.703125 32.078125 
Q 68.453125 32.078125 66.03125 28.46875 
Q 63.625 24.859375 63.625 18.40625 
Q 63.625 12.0625 66.03125 8.421875 
Q 68.453125 4.78125 72.703125 4.78125 
Q 76.859375 4.78125 79.265625 8.421875 
Q 81.6875 12.0625 81.6875 18.40625 
Q 81.6875 24.8125 79.265625 28.4375 
Q 76.859375 32.078125 72.703125 32.078125 
z
M 72.703125 38.28125 
Q 80.421875 38.28125 84.953125 32.90625 
Q 89.5 27.546875 89.5 18.40625 
Q 89.5 9.28125 84.9375 3.921875 
Q 80.375 -1.421875 72.703125 -1.421875 
Q 64.890625 -1.421875 60.34375 3.921875 
Q 55.8125 9.28125 55.8125 18.40625 
Q 55.8125 27.59375 60.375 32.9375 
Q 64.9375 38.28125 72.703125 38.28125 
z
M 22.3125 68.015625 
Q 18.109375 68.015625 15.6875 64.375 
Q 13.28125 60.75 13.28125 54.390625 
Q 13.28125 47.953125 15.671875 44.328125 
Q 18.0625 40.71875 22.3125 40.71875 
Q 26.5625 40.71875 28.96875 44.328125 
Q 31.390625 47.953125 31.390625 54.390625 
Q 31.390625 60.6875 28.953125 64.34375 
Q 26.515625 68.015625 22.3125 68.015625 
z
M 66.40625 74.21875 
L 74.21875 74.21875 
L 28.609375 -1.421875 
L 20.796875 -1.421875 
z
M 22.3125 74.21875 
Q 30.03125 74.21875 34.609375 68.875 
Q 39.203125 63.53125 39.203125 54.390625 
Q 39.203125 45.171875 34.640625 39.84375 
Q 30.078125 34.515625 22.3125 34.515625 
Q 14.546875 34.515625 10.03125 39.859375 
Q 5.515625 45.21875 5.515625 54.390625 
Q 5.515625 63.484375 10.046875 68.84375 
Q 14.59375 74.21875 22.3125 74.21875 
z
" id="DejaVuSans-37"/>
      <path d="M 30.421875 75.984375 
L 30.421875 -13.1875 
L 9.71875 -13.1875 
L 9.71875 -6.203125 
L 21.390625 -6.203125 
L 21.390625 69 
L 9.71875 69 
L 9.71875 75.984375 
z
" id="DejaVuSans-93"/>
     </defs>
     <g transform="translate(15.56 143.315)rotate(-90)scale(0.11 -0.11)">
      <use transform="translate(0 0.015625)" xlink:href="#DejaVuSans-Oblique-80"/>
      <use transform="translate(60.302734 -16.390625)scale(0.7)" xlink:href="#DejaVuSans-Oblique-81"/>
      <use transform="translate(115.400391 -16.390625)scale(0.7)" xlink:href="#DejaVuSans-49"/>
      <use transform="translate(162.670898 0.015625)" xlink:href="#DejaVuSans-40"/>
      <use transform="translate(201.68457 0.015625)" xlink:href="#DejaVuSans-Oblique-116"/>
      <use transform="translate(240.893555 0.015625)" xlink:href="#DejaVuSans-41"/>
      <use transform="translate(279.907227 0.015625)" xlink:href="#DejaVuSans-32"/>
      <use transform="translate(311.694336 0.015625)" xlink:href="#DejaVuSans-91"/>
      <use transform="translate(350.708008 0.015625)" xlink:href="#DejaVuSans-37"/>
      <use transform="translate(445.727539 0.015625)" xlink:href="#DejaVuSans-93"/>
     </g>
    </g>
   </g>
   <g id="PathCollection_1">
    <path clip-path="url(#pb56f280f06)" d="M 81.090636 19.052454 
C 81.560697 19.052454 82.011568 18.865697 82.343951 18.533314 
C 82.676333 18.200931 82.86309 17.75006 82.86309 17.28 
C 82.86309 16.80994 82.676333 16.359069 82.343951 16.026686 
C 82.011568 15.694303 81.560697 15.507546 81.090636 15.507546 
C 80.620576 15.507546 80.169705 15.694303 79.837322 16.026686 
C 79.504939 16.359069 79.318183 16.80994 79.318183 17.28 
C 79.318183 17.75006 79.504939 18.200931 79.837322 18.533314 
C 80.169705 18.865697 80.620576 19.052454 81.090636 19.052454 
z
" style="stroke:#000000;stroke-width:0.886227;"/>
    <path clip-path="url(#pb56f280f06)" d="M 89.207 52.652454 
C 89.67706 52.652454 90.127931 52.465697 90.460314 52.133314 
C 90.792697 51.800931 90.979454 51.35006 90.979454 50.88 
C 90.979454 50.40994 90.792697 49.959069 90.460314 49.626686 
C 90.127931 49.294303 89.67706 49.107546 89.207 49.107546 
C 88.73694 49.107546 88.286069 49.294303 87.953686 49.626686 
C 87.621303 49.959069 87.434546 50.40994 87.434546 50.88 
C 87.434546 51.35006 87.621303 51.800931 87.953686 52.133314 
C 88.286069 52.465697 88.73694 52.652454 89.207 52.652454 
z
" style="stroke:#000000;stroke-width:0.886227;"/>
    <path clip-path="url(#pb56f280f06)" d="M 97.323364 170.252454 
C 97.793424 170.252454 98.244295 170.065697 98.576678 169.733314 
C 98.909061 169.400931 99.095817 168.95006 99.095817 168.48 
C 99.095817 168.00994 98.909061 167.559069 98.576678 167.226686 
C 98.244295 166.894303 97.793424 166.707546 97.323364 166.707546 
C 96.853303 166.707546 96.402432 166.894303 96.070049 167.226686 
C 95.737667 167.559069 95.55091 168.00994 95.55091 168.48 
C 95.55091 168.95006 95.737667 169.400931 96.070049 169.733314 
C 96.402432 170.065697 96.853303 170.252454 97.323364 170.252454 
z
" style="stroke:#000000;stroke-width:0.886227;"/>
    <path clip-path="url(#pb56f280f06)" d="M 105.439727 110.656268 
C 105.909788 110.656268 106.360659 110.469511 106.693041 110.137129 
C 107.025424 109.804746 107.212181 109.353875 107.212181 108.883814 
C 107.212181 108.413754 107.025424 107.962883 106.693041 107.6305 
C 106.360659 107.298117 105.909788 107.111361 105.439727 107.111361 
C 104.969667 107.111361 104.518796 107.298117 104.186413 107.6305 
C 103.85403 107.962883 103.667273 108.413754 103.667273 108.883814 
C 103.667273 109.353875 103.85403 109.804746 104.186413 110.137129 
C 104.518796 110.469511 104.969667 110.656268 105.439727 110.656268 
z
" style="stroke:#000000;stroke-width:0.886227;"/>
    <path clip-path="url(#pb56f280f06)" d="M 113.556091 121.207422 
C 114.026151 121.207422 114.477022 121.020665 114.809405 120.688282 
C 115.141788 120.355899 115.328545 119.905028 115.328545 119.434968 
C 115.328545 118.964908 115.141788 118.514036 114.809405 118.181654 
C 114.477022 117.849271 114.026151 117.662514 113.556091 117.662514 
C 113.086031 117.662514 112.63516 117.849271 112.302777 118.181654 
C 111.970394 118.514036 111.783637 118.964908 111.783637 119.434968 
C 111.783637 119.905028 111.970394 120.355899 112.302777 120.688282 
C 112.63516 121.020665 113.086031 121.207422 113.556091 121.207422 
z
" style="stroke:#000000;stroke-width:0.886227;"/>
    <path clip-path="url(#pb56f280f06)" d="M 121.672455 96.371114 
C 122.142515 96.371114 122.593386 96.184357 122.925769 95.851974 
C 123.258151 95.519591 123.444908 95.06872 123.444908 94.59866 
C 123.444908 94.128599 123.258151 93.677728 122.925769 93.345346 
C 122.593386 93.012963 122.142515 92.826206 121.672455 92.826206 
C 121.202394 92.826206 120.751523 93.012963 120.41914 93.345346 
C 120.086758 93.677728 119.900001 94.128599 119.900001 94.59866 
C 119.900001 95.06872 120.086758 95.519591 120.41914 95.851974 
C 120.751523 96.184357 121.202394 96.371114 121.672455 96.371114 
z
" style="stroke:#000000;stroke-width:0.886227;"/>
    <path clip-path="url(#pb56f280f06)" d="M 129.788818 119.340259 
C 130.258878 119.340259 130.70975 119.153502 131.042132 118.821119 
C 131.374515 118.488736 131.561272 118.037865 131.561272 117.567805 
C 131.561272 117.097745 131.374515 116.646874 131.042132 116.314491 
C 130.70975 115.982108 130.258878 115.795351 129.788818 115.795351 
C 129.318758 115.795351 128.867887 115.982108 128.535504 116.314491 
C 128.203121 116.646874 128.016364 117.097745 128.016364 117.567805 
C 128.016364 118.037865 128.203121 118.488736 128.535504 118.821119 
C 128.867887 119.153502 129.318758 119.340259 129.788818 119.340259 
z
" style="stroke:#000000;stroke-width:0.886227;"/>
    <path clip-path="url(#pb56f280f06)" d="M 137.905182 76.381358 
C 138.375242 76.381358 138.826113 76.194601 139.158496 75.862218 
C 139.490879 75.529836 139.677636 75.078964 139.677636 74.608904 
C 139.677636 74.138844 139.490879 73.687973 139.158496 73.35559 
C 138.826113 73.023207 138.375242 72.83645 137.905182 72.83645 
C 137.435122 72.83645 136.98425 73.023207 136.651868 73.35559 
C 136.319485 73.687973 136.132728 74.138844 136.132728 74.608904 
C 136.132728 75.078964 136.319485 75.529836 136.651868 75.862218 
C 136.98425 76.194601 137.435122 76.381358 137.905182 76.381358 
z
" style="stroke:#000000;stroke-width:0.886227;"/>
    <path clip-path="url(#pb56f280f06)" d="M 146.021545 130.65544 
C 146.491606 130.65544 146.942477 130.468683 147.27486 130.1363 
C 147.607242 129.803918 147.793999 129.353047 147.793999 128.882986 
C 147.793999 128.412926 147.607242 127.962055 147.27486 127.629672 
C 146.942477 127.297289 146.491606 127.110532 146.021545 127.110532 
C 145.551485 127.110532 145.100614 127.297289 144.768231 127.629672 
C 144.435849 127.962055 144.249092 128.412926 144.249092 128.882986 
C 144.249092 129.353047 144.435849 129.803918 144.768231 130.1363 
C 145.100614 130.468683 145.551485 130.65544 146.021545 130.65544 
z
" style="stroke:#000000;stroke-width:0.886227;"/>
    <path clip-path="url(#pb56f280f06)" d="M 154.137909 65.820707 
C 154.607969 65.820707 155.05884 65.63395 155.391223 65.301567 
C 155.723606 64.969184 155.910363 64.518313 155.910363 64.048253 
C 155.910363 63.578192 155.723606 63.127321 155.391223 62.794939 
C 155.05884 62.462556 154.607969 62.275799 154.137909 62.275799 
C 153.667849 62.275799 153.216978 62.462556 152.884595 62.794939 
C 152.552212 63.127321 152.365455 63.578192 152.365455 64.048253 
C 152.365455 64.518313 152.552212 64.969184 152.884595 65.301567 
C 153.216978 65.63395 153.667849 65.820707 154.137909 65.820707 
z
" style="stroke:#000000;stroke-width:0.886227;"/>
    <path clip-path="url(#pb56f280f06)" d="M 162.254273 85.274861 
C 162.724333 85.274861 163.175204 85.088104 163.507587 84.755721 
C 163.83997 84.423339 164.026727 83.972468 164.026727 83.502407 
C 164.026727 83.032347 163.83997 82.581476 163.507587 82.249093 
C 163.175204 81.91671 162.724333 81.729953 162.254273 81.729953 
C 161.784212 81.729953 161.333341 81.91671 161.000959 82.249093 
C 160.668576 82.581476 160.481819 83.032347 160.481819 83.502407 
C 160.481819 83.972468 160.668576 84.423339 161.000959 84.755721 
C 161.333341 85.088104 161.784212 85.274861 162.254273 85.274861 
z
" style="stroke:#000000;stroke-width:0.886227;"/>
    <path clip-path="url(#pb56f280f06)" d="M 170.370636 90.657459 
C 170.840697 90.657459 171.291568 90.470702 171.623951 90.138319 
C 171.956333 89.805936 172.14309 89.355065 172.14309 88.885005 
C 172.14309 88.414944 171.956333 87.964073 171.623951 87.631691 
C 171.291568 87.299308 170.840697 87.112551 170.370636 87.112551 
C 169.900576 87.112551 169.449705 87.299308 169.117322 87.631691 
C 168.784939 87.964073 168.598183 88.414944 168.598183 88.885005 
C 168.598183 89.355065 168.784939 89.805936 169.117322 90.138319 
C 169.449705 90.470702 169.900576 90.657459 170.370636 90.657459 
z
" style="stroke:#000000;stroke-width:0.886227;"/>
    <path clip-path="url(#pb56f280f06)" d="M 178.487 101.922897 
C 178.95706 101.922897 179.407931 101.73614 179.740314 101.403757 
C 180.072697 101.071374 180.259454 100.620503 180.259454 100.150443 
C 180.259454 99.680383 180.072697 99.229512 179.740314 98.897129 
C 179.407931 98.564746 178.95706 98.377989 178.487 98.377989 
C 178.01694 98.377989 177.566069 98.564746 177.233686 98.897129 
C 176.901303 99.229512 176.714546 99.680383 176.714546 100.150443 
C 176.714546 100.620503 176.901303 101.071374 177.233686 101.403757 
C 177.566069 101.73614 178.01694 101.922897 178.487 101.922897 
z
" style="stroke:#000000;stroke-width:0.886227;"/>
    <path clip-path="url(#pb56f280f06)" d="M 186.603364 87.743744 
C 187.073424 87.743744 187.524295 87.556987 187.856678 87.224604 
C 188.189061 86.892221 188.375817 86.44135 188.375817 85.97129 
C 188.375817 85.501229 188.189061 85.050358 187.856678 84.717976 
C 187.524295 84.385593 187.073424 84.198836 186.603364 84.198836 
C 186.133303 84.198836 185.682432 84.385593 185.350049 84.717976 
C 185.017667 85.050358 184.83091 85.501229 184.83091 85.97129 
C 184.83091 86.44135 185.017667 86.892221 185.350049 87.224604 
C 185.682432 87.556987 186.133303 87.743744 186.603364 87.743744 
z
" style="stroke:#000000;stroke-width:0.886227;"/>
    <path clip-path="url(#pb56f280f06)" d="M 194.719727 111.338338 
C 195.189788 111.338338 195.640659 111.151581 195.973041 110.819198 
C 196.305424 110.486815 196.492181 110.035944 196.492181 109.565884 
C 196.492181 109.095823 196.305424 108.644952 195.973041 108.31257 
C 195.640659 107.980187 195.189788 107.79343 194.719727 107.79343 
C 194.249667 107.79343 193.798796 107.980187 193.466413 108.31257 
C 193.13403 108.644952 192.947273 109.095823 192.947273 109.565884 
C 192.947273 110.035944 193.13403 110.486815 193.466413 110.819198 
C 193.798796 111.151581 194.249667 111.338338 194.719727 111.338338 
z
" style="stroke:#000000;stroke-width:0.886227;"/>
    <path clip-path="url(#pb56f280f06)" d="M 202.836091 97.697689 
C 203.306151 97.697689 203.757022 97.510932 204.089405 97.178549 
C 204.421788 96.846166 204.608545 96.395295 204.608545 95.925235 
C 204.608545 95.455175 204.421788 95.004304 204.089405 94.671921 
C 203.757022 94.339538 203.306151 94.152781 202.836091 94.152781 
C 202.366031 94.152781 201.91516 94.339538 201.582777 94.671921 
C 201.250394 95.004304 201.063637 95.455175 201.063637 95.925235 
C 201.063637 96.395295 201.250394 96.846166 201.582777 97.178549 
C 201.91516 97.510932 202.366031 97.697689 202.836091 97.697689 
z
" style="stroke:#000000;stroke-width:0.886227;"/>
    <path clip-path="url(#pb56f280f06)" d="M 210.952455 118.734492 
C 211.422515 118.734492 211.873386 118.547735 212.205769 118.215352 
C 212.538151 117.882969 212.724908 117.432098 212.724908 116.962038 
C 212.724908 116.491978 212.538151 116.041107 212.205769 115.708724 
C 211.873386 115.376341 211.422515 115.189584 210.952455 115.189584 
C 210.482394 115.189584 210.031523 115.376341 209.69914 115.708724 
C 209.366758 116.041107 209.180001 116.491978 209.180001 116.962038 
C 209.180001 117.432098 209.366758 117.882969 209.69914 118.215352 
C 210.031523 118.547735 210.482394 118.734492 210.952455 118.734492 
z
" style="stroke:#000000;stroke-width:0.886227;"/>
    <path clip-path="url(#pb56f280f06)" d="M 219.068818 112.452182 
C 219.538878 112.452182 219.98975 112.265425 220.322132 111.933042 
C 220.654515 111.600659 220.841272 111.149788 220.841272 110.679728 
C 220.841272 110.209668 220.654515 109.758797 220.322132 109.426414 
C 219.98975 109.094031 219.538878 108.907274 219.068818 108.907274 
C 218.598758 108.907274 218.147887 109.094031 217.815504 109.426414 
C 217.483121 109.758797 217.296364 110.209668 217.296364 110.679728 
C 217.296364 111.149788 217.483121 111.600659 217.815504 111.933042 
C 218.147887 112.265425 218.598758 112.452182 219.068818 112.452182 
z
" style="stroke:#000000;stroke-width:0.886227;"/>
    <path clip-path="url(#pb56f280f06)" d="M 227.185182 105.984605 
C 227.655242 105.984605 228.106113 105.797848 228.438496 105.465465 
C 228.770879 105.133082 228.957636 104.682211 228.957636 104.212151 
C 228.957636 103.742091 228.770879 103.291219 228.438496 102.958837 
C 228.106113 102.626454 227.655242 102.439697 227.185182 102.439697 
C 226.715122 102.439697 226.26425 102.626454 225.931868 102.958837 
C 225.599485 103.291219 225.412728 103.742091 225.412728 104.212151 
C 225.412728 104.682211 225.599485 105.133082 225.931868 105.465465 
C 226.26425 105.797848 226.715122 105.984605 227.185182 105.984605 
z
" style="stroke:#000000;stroke-width:0.886227;"/>
    <path clip-path="url(#pb56f280f06)" d="M 235.301545 102.380548 
C 235.771606 102.380548 236.222477 102.193791 236.55486 101.861408 
C 236.887242 101.529025 237.073999 101.078154 237.073999 100.608094 
C 237.073999 100.138034 236.887242 99.687163 236.55486 99.35478 
C 236.222477 99.022397 235.771606 98.83564 235.301545 98.83564 
C 234.831485 98.83564 234.380614 99.022397 234.048231 99.35478 
C 233.715849 99.687163 233.529092 100.138034 233.529092 100.608094 
C 233.529092 101.078154 233.715849 101.529025 234.048231 101.861408 
C 234.380614 102.193791 234.831485 102.380548 235.301545 102.380548 
z
" style="stroke:#000000;stroke-width:0.886227;"/>
    <path clip-path="url(#pb56f280f06)" d="M 243.417909 105.55936 
C 243.887969 105.55936 244.33884 105.372604 244.671223 105.040221 
C 245.003606 104.707838 245.190363 104.256967 245.190363 103.786907 
C 245.190363 103.316846 245.003606 102.865975 244.671223 102.533592 
C 244.33884 102.20121 243.887969 102.014453 243.417909 102.014453 
C 242.947849 102.014453 242.496978 102.20121 242.164595 102.533592 
C 241.832212 102.865975 241.645455 103.316846 241.645455 103.786907 
C 241.645455 104.256967 241.832212 104.707838 242.164595 105.040221 
C 242.496978 105.372604 242.947849 105.55936 243.417909 105.55936 
z
" style="stroke:#000000;stroke-width:0.886227;"/>
    <path clip-path="url(#pb56f280f06)" d="M 251.534273 113.168223 
C 252.004333 113.168223 252.455204 112.981466 252.787587 112.649083 
C 253.11997 112.3167 253.306727 111.865829 253.306727 111.395769 
C 253.306727 110.925709 253.11997 110.474838 252.787587 110.142455 
C 252.455204 109.810072 252.004333 109.623315 251.534273 109.623315 
C 251.064212 109.623315 250.613341 109.810072 250.280959 110.142455 
C 249.948576 110.474838 249.761819 110.925709 249.761819 111.395769 
C 249.761819 111.865829 249.948576 112.3167 250.280959 112.649083 
C 250.613341 112.981466 251.064212 113.168223 251.534273 113.168223 
z
" style="stroke:#000000;stroke-width:0.886227;"/>
    <path clip-path="url(#pb56f280f06)" d="M 259.650636 112.372391 
C 260.120697 112.372391 260.571568 112.185635 260.903951 111.853252 
C 261.236333 111.520869 261.42309 111.069998 261.42309 110.599938 
C 261.42309 110.129877 261.236333 109.679006 260.903951 109.346623 
C 260.571568 109.014241 260.120697 108.827484 259.650636 108.827484 
C 259.180576 108.827484 258.729705 109.014241 258.397322 109.346623 
C 258.064939 109.679006 257.878183 110.129877 257.878183 110.599938 
C 257.878183 111.069998 258.064939 111.520869 258.397322 111.853252 
C 258.729705 112.185635 259.180576 112.372391 259.650636 112.372391 
z
" style="stroke:#000000;stroke-width:0.886227;"/>
    <path clip-path="url(#pb56f280f06)" d="M 267.767 108.394995 
C 268.23706 108.394995 268.687931 108.208238 269.020314 107.875856 
C 269.352697 107.543473 269.539454 107.092602 269.539454 106.622542 
C 269.539454 106.152481 269.352697 105.70161 269.020314 105.369227 
C 268.687931 105.036845 268.23706 104.850088 267.767 104.850088 
C 267.29694 104.850088 266.846069 105.036845 266.513686 105.369227 
C 266.181303 105.70161 265.994546 106.152481 265.994546 106.622542 
C 265.994546 107.092602 266.181303 107.543473 266.513686 107.875856 
C 266.846069 108.208238 267.29694 108.394995 267.767 108.394995 
z
" style="stroke:#000000;stroke-width:0.886227;"/>
    <path clip-path="url(#pb56f280f06)" d="M 275.883364 119.753679 
C 276.353424 119.753679 276.804295 119.566922 277.136678 119.23454 
C 277.469061 118.902157 277.655817 118.451286 277.655817 117.981226 
C 277.655817 117.511165 277.469061 117.060294 277.136678 116.727911 
C 276.804295 116.395529 276.353424 116.208772 275.883364 116.208772 
C 275.413303 116.208772 274.962432 116.395529 274.630049 116.727911 
C 274.297667 117.060294 274.11091 117.511165 274.11091 117.981226 
C 274.11091 118.451286 274.297667 118.902157 274.630049 119.23454 
C 274.962432 119.566922 275.413303 119.753679 275.883364 119.753679 
z
" style="stroke:#000000;stroke-width:0.886227;"/>
    <path clip-path="url(#pb56f280f06)" d="M 283.999727 118.506805 
C 284.469788 118.506805 284.920659 118.320048 285.253041 117.987665 
C 285.585424 117.655282 285.772181 117.204411 285.772181 116.734351 
C 285.772181 116.264291 285.585424 115.813419 285.253041 115.481037 
C 284.920659 115.148654 284.469788 114.961897 283.999727 114.961897 
C 283.529667 114.961897 283.078796 115.148654 282.746413 115.481037 
C 282.41403 115.813419 282.227273 116.264291 282.227273 116.734351 
C 282.227273 117.204411 282.41403 117.655282 282.746413 117.987665 
C 283.078796 118.320048 283.529667 118.506805 283.999727 118.506805 
z
" style="stroke:#000000;stroke-width:0.886227;"/>
    <path clip-path="url(#pb56f280f06)" d="M 292.116091 119.876649 
C 292.586151 119.876649 293.037022 119.689892 293.369405 119.35751 
C 293.701788 119.025127 293.888545 118.574256 293.888545 118.104195 
C 293.888545 117.634135 293.701788 117.183264 293.369405 116.850881 
C 293.037022 116.518499 292.586151 116.331742 292.116091 116.331742 
C 291.646031 116.331742 291.19516 116.518499 290.862777 116.850881 
C 290.530394 117.183264 290.343637 117.634135 290.343637 118.104195 
C 290.343637 118.574256 290.530394 119.025127 290.862777 119.35751 
C 291.19516 119.689892 291.646031 119.876649 292.116091 119.876649 
z
" style="stroke:#000000;stroke-width:0.886227;"/>
    <path clip-path="url(#pb56f280f06)" d="M 300.232455 120.997408 
C 300.702515 120.997408 301.153386 120.810651 301.485769 120.478269 
C 301.818151 120.145886 302.004908 119.695015 302.004908 119.224954 
C 302.004908 118.754894 301.818151 118.304023 301.485769 117.97164 
C 301.153386 117.639257 300.702515 117.452501 300.232455 117.452501 
C 299.762394 117.452501 299.311523 117.639257 298.97914 117.97164 
C 298.646758 118.304023 298.460001 118.754894 298.460001 119.224954 
C 298.460001 119.695015 298.646758 120.145886 298.97914 120.478269 
C 299.311523 120.810651 299.762394 120.997408 300.232455 120.997408 
z
" style="stroke:#000000;stroke-width:0.886227;"/>
    <path clip-path="url(#pb56f280f06)" d="M 308.348818 125.096349 
C 308.818878 125.096349 309.26975 124.909592 309.602132 124.57721 
C 309.934515 124.244827 310.121272 123.793956 310.121272 123.323895 
C 310.121272 122.853835 309.934515 122.402964 309.602132 122.070581 
C 309.26975 121.738198 308.818878 121.551442 308.348818 121.551442 
C 307.878758 121.551442 307.427887 121.738198 307.095504 122.070581 
C 306.763121 122.402964 306.576364 122.853835 306.576364 123.323895 
C 306.576364 123.793956 306.763121 124.244827 307.095504 124.57721 
C 307.427887 124.909592 307.878758 125.096349 308.348818 125.096349 
z
" style="stroke:#000000;stroke-width:0.886227;"/>
    <path clip-path="url(#pb56f280f06)" d="M 316.465182 120.723165 
C 316.935242 120.723165 317.386113 120.536408 317.718496 120.204026 
C 318.050879 119.871643 318.237636 119.420772 318.237636 118.950712 
C 318.237636 118.480651 318.050879 118.02978 317.718496 117.697397 
C 317.386113 117.365015 316.935242 117.178258 316.465182 117.178258 
C 315.995122 117.178258 315.54425 117.365015 315.211868 117.697397 
C 314.879485 118.02978 314.692728 118.480651 314.692728 118.950712 
C 314.692728 119.420772 314.879485 119.871643 315.211868 120.204026 
C 315.54425 120.536408 315.995122 120.723165 316.465182 120.723165 
z
" style="stroke:#000000;stroke-width:0.886227;"/>
    <path clip-path="url(#pb56f280f06)" d="M 324.581545 119.585963 
C 325.051606 119.585963 325.502477 119.399206 325.83486 119.066823 
C 326.167242 118.73444 326.353999 118.283569 326.353999 117.813509 
C 326.353999 117.343449 326.167242 116.892578 325.83486 116.560195 
C 325.502477 116.227812 325.051606 116.041055 324.581545 116.041055 
C 324.111485 116.041055 323.660614 116.227812 323.328231 116.560195 
C 322.995849 116.892578 322.809092 117.343449 322.809092 117.813509 
C 322.809092 118.283569 322.995849 118.73444 323.328231 119.066823 
C 323.660614 119.399206 324.111485 119.585963 324.581545 119.585963 
z
" style="stroke:#000000;stroke-width:0.886227;"/>
    <path clip-path="url(#pb56f280f06)" d="M 332.697909 117.751642 
C 333.167969 117.751642 333.61884 117.564885 333.951223 117.232502 
C 334.283606 116.90012 334.470363 116.449248 334.470363 115.979188 
C 334.470363 115.509128 334.283606 115.058257 333.951223 114.725874 
C 333.61884 114.393491 333.167969 114.206734 332.697909 114.206734 
C 332.227849 114.206734 331.776978 114.393491 331.444595 114.725874 
C 331.112212 115.058257 330.925455 115.509128 330.925455 115.979188 
C 330.925455 116.449248 331.112212 116.90012 331.444595 117.232502 
C 331.776978 117.564885 332.227849 117.751642 332.697909 117.751642 
z
" style="stroke:#000000;stroke-width:0.886227;"/>
    <path clip-path="url(#pb56f280f06)" d="M 340.814273 116.381734 
C 341.284333 116.381734 341.735204 116.194978 342.067587 115.862595 
C 342.39997 115.530212 342.586727 115.079341 342.586727 114.609281 
C 342.586727 114.13922 342.39997 113.688349 342.067587 113.355966 
C 341.735204 113.023584 341.284333 112.836827 340.814273 112.836827 
C 340.344212 112.836827 339.893341 113.023584 339.560959 113.355966 
C 339.228576 113.688349 339.041819 114.13922 339.041819 114.609281 
C 339.041819 115.079341 339.228576 115.530212 339.560959 115.862595 
C 339.893341 116.194978 340.344212 116.381734 340.814273 116.381734 
z
" style="stroke:#000000;stroke-width:0.886227;"/>
    <path clip-path="url(#pb56f280f06)" d="M 348.930636 115.596494 
C 349.400697 115.596494 349.851568 115.409737 350.183951 115.077354 
C 350.516333 114.744971 350.70309 114.2941 350.70309 113.82404 
C 350.70309 113.35398 350.516333 112.903109 350.183951 112.570726 
C 349.851568 112.238343 349.400697 112.051586 348.930636 112.051586 
C 348.460576 112.051586 348.009705 112.238343 347.677322 112.570726 
C 347.344939 112.903109 347.158183 113.35398 347.158183 113.82404 
C 347.158183 114.2941 347.344939 114.744971 347.677322 115.077354 
C 348.009705 115.409737 348.460576 115.596494 348.930636 115.596494 
z
" style="stroke:#000000;stroke-width:0.886227;"/>
    <path clip-path="url(#pb56f280f06)" d="M 357.047 114.401937 
C 357.51706 114.401937 357.967931 114.21518 358.300314 113.882797 
C 358.632697 113.550414 358.819454 113.099543 358.819454 112.629483 
C 358.819454 112.159423 358.632697 111.708552 358.300314 111.376169 
C 357.967931 111.043786 357.51706 110.857029 357.047 110.857029 
C 356.57694 110.857029 356.126069 111.043786 355.793686 111.376169 
C 355.461303 111.708552 355.274546 112.159423 355.274546 112.629483 
C 355.274546 113.099543 355.461303 113.550414 355.793686 113.882797 
C 356.126069 114.21518 356.57694 114.401937 357.047 114.401937 
z
" style="stroke:#000000;stroke-width:0.886227;"/>
    <path clip-path="url(#pb56f280f06)" d="M 365.163364 112.157333 
C 365.633424 112.157333 366.084295 111.970576 366.416678 111.638193 
C 366.749061 111.30581 366.935817 110.854939 366.935817 110.384879 
C 366.935817 109.914819 366.749061 109.463948 366.416678 109.131565 
C 366.084295 108.799182 365.633424 108.612425 365.163364 108.612425 
C 364.693303 108.612425 364.242432 108.799182 363.910049 109.131565 
C 363.577667 109.463948 363.39091 109.914819 363.39091 110.384879 
C 363.39091 110.854939 363.577667 111.30581 363.910049 111.638193 
C 364.242432 111.970576 364.693303 112.157333 365.163364 112.157333 
z
" style="stroke:#000000;stroke-width:0.886227;"/>
    <path clip-path="url(#pb56f280f06)" d="M 373.279727 113.374503 
C 373.749788 113.374503 374.200659 113.187747 374.533041 112.855364 
C 374.865424 112.522981 375.052181 112.07211 375.052181 111.60205 
C 375.052181 111.131989 374.865424 110.681118 374.533041 110.348735 
C 374.200659 110.016353 373.749788 109.829596 373.279727 109.829596 
C 372.809667 109.829596 372.358796 110.016353 372.026413 110.348735 
C 371.69403 110.681118 371.507273 111.131989 371.507273 111.60205 
C 371.507273 112.07211 371.69403 112.522981 372.026413 112.855364 
C 372.358796 113.187747 372.809667 113.374503 373.279727 113.374503 
z
" style="stroke:#000000;stroke-width:0.886227;"/>
    <path clip-path="url(#pb56f280f06)" d="M 381.396091 111.406658 
C 381.866151 111.406658 382.317022 111.219901 382.649405 110.887518 
C 382.981788 110.555136 383.168545 110.104265 383.168545 109.634204 
C 383.168545 109.164144 382.981788 108.713273 382.649405 108.38089 
C 382.317022 108.048507 381.866151 107.86175 381.396091 107.86175 
C 380.926031 107.86175 380.47516 108.048507 380.142777 108.38089 
C 379.810394 108.713273 379.623637 109.164144 379.623637 109.634204 
C 379.623637 110.104265 379.810394 110.555136 380.142777 110.887518 
C 380.47516 111.219901 380.926031 111.406658 381.396091 111.406658 
z
" style="stroke:#000000;stroke-width:0.886227;"/>
    <path clip-path="url(#pb56f280f06)" d="M 389.512455 103.8084 
C 389.982515 103.8084 390.433386 103.621643 390.765769 103.289261 
C 391.098151 102.956878 391.284908 102.506007 391.284908 102.035947 
C 391.284908 101.565886 391.098151 101.115015 390.765769 100.782632 
C 390.433386 100.45025 389.982515 100.263493 389.512455 100.263493 
C 389.042394 100.263493 388.591523 100.45025 388.25914 100.782632 
C 387.926758 101.115015 387.740001 101.565886 387.740001 102.035947 
C 387.740001 102.506007 387.926758 102.956878 388.25914 103.289261 
C 388.591523 103.621643 389.042394 103.8084 389.512455 103.8084 
z
" style="stroke:#000000;stroke-width:0.886227;"/>
    <path clip-path="url(#pb56f280f06)" d="M 397.628818 101.878807 
C 398.098878 101.878807 398.54975 101.69205 398.882132 101.359667 
C 399.214515 101.027284 399.401272 100.576413 399.401272 100.106353 
C 399.401272 99.636293 399.214515 99.185422 398.882132 98.853039 
C 398.54975 98.520656 398.098878 98.333899 397.628818 98.333899 
C 397.158758 98.333899 396.707887 98.520656 396.375504 98.853039 
C 396.043121 99.185422 395.856364 99.636293 395.856364 100.106353 
C 395.856364 100.576413 396.043121 101.027284 396.375504 101.359667 
C 396.707887 101.69205 397.158758 101.878807 397.628818 101.878807 
z
" style="stroke:#000000;stroke-width:0.886227;"/>
    <path clip-path="url(#pb56f280f06)" d="M 405.745182 99.409691 
C 406.215242 99.409691 406.666113 99.222934 406.998496 98.890552 
C 407.330879 98.558169 407.517636 98.107298 407.517636 97.637238 
C 407.517636 97.167177 407.330879 96.716306 406.998496 96.383923 
C 406.666113 96.051541 406.215242 95.864784 405.745182 95.864784 
C 405.275122 95.864784 404.82425 96.051541 404.491868 96.383923 
C 404.159485 96.716306 403.972728 97.167177 403.972728 97.637238 
C 403.972728 98.107298 404.159485 98.558169 404.491868 98.890552 
C 404.82425 99.222934 405.275122 99.409691 405.745182 99.409691 
z
" style="stroke:#000000;stroke-width:0.886227;"/>
    <path clip-path="url(#pb56f280f06)" d="M 413.861545 95.923352 
C 414.331606 95.923352 414.782477 95.736595 415.11486 95.404212 
C 415.447242 95.071829 415.633999 94.620958 415.633999 94.150898 
C 415.633999 93.680838 415.447242 93.229967 415.11486 92.897584 
C 414.782477 92.565201 414.331606 92.378444 413.861545 92.378444 
C 413.391485 92.378444 412.940614 92.565201 412.608231 92.897584 
C 412.275849 93.229967 412.089092 93.680838 412.089092 94.150898 
C 412.089092 94.620958 412.275849 95.071829 412.608231 95.404212 
C 412.940614 95.736595 413.391485 95.923352 413.861545 95.923352 
z
" style="stroke:#000000;stroke-width:0.886227;"/>
    <path clip-path="url(#pb56f280f06)" d="M 421.977909 92.925195 
C 422.447969 92.925195 422.89884 92.738438 423.231223 92.406056 
C 423.563606 92.073673 423.750363 91.622802 423.750363 91.152741 
C 423.750363 90.682681 423.563606 90.23181 423.231223 89.899427 
C 422.89884 89.567044 422.447969 89.380288 421.977909 89.380288 
C 421.507849 89.380288 421.056978 89.567044 420.724595 89.899427 
C 420.392212 90.23181 420.205455 90.682681 420.205455 91.152741 
C 420.205455 91.622802 420.392212 92.073673 420.724595 92.406056 
C 421.056978 92.738438 421.507849 92.925195 421.977909 92.925195 
z
" style="stroke:#000000;stroke-width:0.886227;"/>
    <path clip-path="url(#pb56f280f06)" d="M 430.094273 92.910407 
C 430.564333 92.910407 431.015204 92.72365 431.347587 92.391267 
C 431.67997 92.058884 431.866727 91.608013 431.866727 91.137953 
C 431.866727 90.667893 431.67997 90.217022 431.347587 89.884639 
C 431.015204 89.552256 430.564333 89.365499 430.094273 89.365499 
C 429.624212 89.365499 429.173341 89.552256 428.840959 89.884639 
C 428.508576 90.217022 428.321819 90.667893 428.321819 91.137953 
C 428.321819 91.608013 428.508576 92.058884 428.840959 92.391267 
C 429.173341 92.72365 429.624212 92.910407 430.094273 92.910407 
z
" style="stroke:#000000;stroke-width:0.886227;"/>
    <path clip-path="url(#pb56f280f06)" d="M 438.210636 89.17904 
C 438.680697 89.17904 439.131568 88.992283 439.463951 88.659901 
C 439.796333 88.327518 439.98309 87.876647 439.98309 87.406586 
C 439.98309 86.936526 439.796333 86.485655 439.463951 86.153272 
C 439.131568 85.820889 438.680697 85.634133 438.210636 85.634133 
C 437.740576 85.634133 437.289705 85.820889 436.957322 86.153272 
C 436.624939 86.485655 436.438183 86.936526 436.438183 87.406586 
C 436.438183 87.876647 436.624939 88.327518 436.957322 88.659901 
C 437.289705 88.992283 437.740576 89.17904 438.210636 89.17904 
z
" style="stroke:#000000;stroke-width:0.886227;"/>
    <path clip-path="url(#pb56f280f06)" d="M 446.327 95.566238 
C 446.79706 95.566238 447.247931 95.379481 447.580314 95.047098 
C 447.912697 94.714715 448.099454 94.263844 448.099454 93.793784 
C 448.099454 93.323724 447.912697 92.872853 447.580314 92.54047 
C 447.247931 92.208087 446.79706 92.02133 446.327 92.02133 
C 445.85694 92.02133 445.406069 92.208087 445.073686 92.54047 
C 444.741303 92.872853 444.554546 93.323724 444.554546 93.793784 
C 444.554546 94.263844 444.741303 94.714715 445.073686 95.047098 
C 445.406069 95.379481 445.85694 95.566238 446.327 95.566238 
z
" style="stroke:#000000;stroke-width:0.886227;"/>
    <path clip-path="url(#pb56f280f06)" d="M 454.443364 99.975189 
C 454.913424 99.975189 455.364295 99.788432 455.696678 99.456049 
C 456.029061 99.123667 456.215817 98.672795 456.215817 98.202735 
C 456.215817 97.732675 456.029061 97.281804 455.696678 96.949421 
C 455.364295 96.617038 454.913424 96.430281 454.443364 96.430281 
C 453.973303 96.430281 453.522432 96.617038 453.190049 96.949421 
C 452.857667 97.281804 452.67091 97.732675 452.67091 98.202735 
C 452.67091 98.672795 452.857667 99.123667 453.190049 99.456049 
C 453.522432 99.788432 453.973303 99.975189 454.443364 99.975189 
z
" style="stroke:#000000;stroke-width:0.886227;"/>
    <path clip-path="url(#pb56f280f06)" d="M 462.559727 100.4426 
C 463.029788 100.4426 463.480659 100.255843 463.813041 99.92346 
C 464.145424 99.591077 464.332181 99.140206 464.332181 98.670146 
C 464.332181 98.200086 464.145424 97.749215 463.813041 97.416832 
C 463.480659 97.084449 463.029788 96.897692 462.559727 96.897692 
C 462.089667 96.897692 461.638796 97.084449 461.306413 97.416832 
C 460.97403 97.749215 460.787273 98.200086 460.787273 98.670146 
C 460.787273 99.140206 460.97403 99.591077 461.306413 99.92346 
C 461.638796 100.255843 462.089667 100.4426 462.559727 100.4426 
z
" style="stroke:#000000;stroke-width:0.886227;"/>
   </g>
   <g id="line2d_41">
    <path clip-path="url(#pb56f280f06)" d="M 81.090636 17.28 
L 89.207 50.88 
L 97.323364 168.48 
L 105.439727 108.883814 
L 113.556091 119.434968 
L 121.672455 94.59866 
L 129.788818 117.567805 
L 137.905182 74.608904 
L 146.021545 128.882986 
L 154.137909 64.048253 
L 162.254273 83.502407 
L 170.370636 88.885005 
L 178.487 100.150443 
L 186.603364 85.97129 
L 194.719727 109.565884 
L 202.836091 95.925235 
L 210.952455 116.962038 
L 219.068818 110.679728 
L 227.185182 104.212151 
L 235.301545 100.608094 
L 243.417909 103.786907 
L 251.534273 111.395769 
L 259.650636 110.599938 
L 267.767 106.622542 
L 275.883364 117.981226 
L 283.999727 116.734351 
L 292.116091 118.104195 
L 300.232455 119.224954 
L 308.348818 123.323895 
L 316.465182 118.950712 
L 324.581545 117.813509 
L 332.697909 115.979188 
L 340.814273 114.609281 
L 348.930636 113.82404 
L 357.047 112.629483 
L 365.163364 110.384879 
L 373.279727 111.60205 
L 381.396091 109.634204 
L 389.512455 102.035947 
L 397.628818 100.106353 
L 405.745182 97.637238 
L 413.861545 94.150898 
L 421.977909 91.152741 
L 430.094273 91.137953 
L 438.210636 87.406586 
L 446.327 93.793784 
L 454.443364 98.202735 
L 462.559727 98.670146 
" style="fill:none;stroke:#000000;stroke-width:0.886227;"/>
   </g>
  </g>
 </g>
 <defs>
  <clipPath id="pb56f280f06">
   <rect height="221.76" width="446.4" x="44.567" y="7.2"/>
  </clipPath>
 </defs>
</svg>
