<?xml version="1.0" encoding="utf-8" standalone="no"?>
<!DOCTYPE svg PUBLIC "-//W3C//DTD SVG 1.1//EN"
  "http://www.w3.org/Graphics/SVG/1.1/DTD/svg11.dtd">
<!-- Created with matplotlib (https://matplotlib.org/) -->
<svg height="276.021875pt" version="1.1" viewBox="0 0 513.1925 276.021875" width="513.1925pt" xmlns="http://www.w3.org/2000/svg" xmlns:xlink="http://www.w3.org/1999/xlink">
 <defs>
  <style type="text/css">
*{stroke-linecap:butt;stroke-linejoin:round;}
  </style>
 </defs>
 <g id="figure_1">
  <g id="patch_1">
   <path d="M 0 276.021875 
L 513.1925 276.021875 
L 513.1925 0 
L 0 0 
z
" style="fill:#ffffff;stroke:#ffffff;stroke-linejoin:miter;"/>
  </g>
  <g id="axes_1">
   <g id="patch_2">
    <path d="M 59.5925 228.96 
L 505.9925 228.96 
L 505.9925 7.2 
L 59.5925 7.2 
z
" style="fill:#ffffff;"/>
   </g>
   <g id="matplotlib.axis_1">
    <g id="xtick_1">
     <g id="line2d_1">
      <path d="M 79.88341 228.96 
" style="fill:none;stroke:#000000;stroke-width:1.5;"/>
      <defs>
       <path d="M 0 0 
L 0 2.75 
" id="m30f967f17e" style="stroke:#000000;"/>
      </defs>
      <g>
       <use style="stroke:#000000;" x="79.88341" xlink:href="#m30f967f17e" y="228.96"/>
      </g>
     </g>
     <g id="text_1">
      <!-- 1 -->
      <defs>
       <path d="M 12.40625 8.296875 
L 28.515625 8.296875 
L 28.515625 63.921875 
L 10.984375 60.40625 
L 10.984375 69.390625 
L 28.421875 72.90625 
L 38.28125 72.90625 
L 38.28125 8.296875 
L 54.390625 8.296875 
L 54.390625 0 
L 12.40625 0 
z
" id="DejaVuSans-49"/>
      </defs>
      <g transform="translate(75.42966 244.547812)scale(0.14 -0.14)">
       <use xlink:href="#DejaVuSans-49"/>
      </g>
     </g>
    </g>
    <g id="xtick_2">
     <g id="line2d_2">
      <path d="M 215.156137 228.96 
" style="fill:none;stroke:#000000;stroke-width:1.5;"/>
      <g>
       <use style="stroke:#000000;" x="215.156137" xlink:href="#m30f967f17e" y="228.96"/>
      </g>
     </g>
     <g id="text_2">
      <!-- 2 -->
      <defs>
       <path d="M 19.1875 8.296875 
L 53.609375 8.296875 
L 53.609375 0 
L 7.328125 0 
L 7.328125 8.296875 
Q 12.9375 14.109375 22.625 23.890625 
Q 32.328125 33.6875 34.8125 36.53125 
Q 39.546875 41.84375 41.421875 45.53125 
Q 43.3125 49.21875 43.3125 52.78125 
Q 43.3125 58.59375 39.234375 62.25 
Q 35.15625 65.921875 28.609375 65.921875 
Q 23.96875 65.921875 18.8125 64.3125 
Q 13.671875 62.703125 7.8125 59.421875 
L 7.8125 69.390625 
Q 13.765625 71.78125 18.9375 73 
Q 24.125 74.21875 28.421875 74.21875 
Q 39.75 74.21875 46.484375 68.546875 
Q 53.21875 62.890625 53.21875 53.421875 
Q 53.21875 48.921875 51.53125 44.890625 
Q 49.859375 40.875 45.40625 35.40625 
Q 44.1875 33.984375 37.640625 27.21875 
Q 31.109375 20.453125 19.1875 8.296875 
z
" id="DejaVuSans-50"/>
      </defs>
      <g transform="translate(210.702387 244.547812)scale(0.14 -0.14)">
       <use xlink:href="#DejaVuSans-50"/>
      </g>
     </g>
    </g>
    <g id="xtick_3">
     <g id="line2d_3">
      <path d="M 350.428863 228.96 
" style="fill:none;stroke:#000000;stroke-width:1.5;"/>
      <g>
       <use style="stroke:#000000;" x="350.428863" xlink:href="#m30f967f17e" y="228.96"/>
      </g>
     </g>
     <g id="text_3">
      <!-- 3 -->
      <defs>
       <path d="M 40.578125 39.3125 
Q 47.65625 37.796875 51.625 33 
Q 55.609375 28.21875 55.609375 21.1875 
Q 55.609375 10.40625 48.1875 4.484375 
Q 40.765625 -1.421875 27.09375 -1.421875 
Q 22.515625 -1.421875 17.65625 -0.515625 
Q 12.796875 0.390625 7.625 2.203125 
L 7.625 11.71875 
Q 11.71875 9.328125 16.59375 8.109375 
Q 21.484375 6.890625 26.8125 6.890625 
Q 36.078125 6.890625 40.9375 10.546875 
Q 45.796875 14.203125 45.796875 21.1875 
Q 45.796875 27.640625 41.28125 31.265625 
Q 36.765625 34.90625 28.71875 34.90625 
L 20.21875 34.90625 
L 20.21875 43.015625 
L 29.109375 43.015625 
Q 36.375 43.015625 40.234375 45.921875 
Q 44.09375 48.828125 44.09375 54.296875 
Q 44.09375 59.90625 40.109375 62.90625 
Q 36.140625 65.921875 28.71875 65.921875 
Q 24.65625 65.921875 20.015625 65.03125 
Q 15.375 64.15625 9.8125 62.3125 
L 9.8125 71.09375 
Q 15.4375 72.65625 20.34375 73.4375 
Q 25.25 74.21875 29.59375 74.21875 
Q 40.828125 74.21875 47.359375 69.109375 
Q 53.90625 64.015625 53.90625 55.328125 
Q 53.90625 49.265625 50.4375 45.09375 
Q 46.96875 40.921875 40.578125 39.3125 
z
" id="DejaVuSans-51"/>
      </defs>
      <g transform="translate(345.975113 244.547812)scale(0.14 -0.14)">
       <use xlink:href="#DejaVuSans-51"/>
      </g>
     </g>
    </g>
    <g id="xtick_4">
     <g id="line2d_4">
      <path d="M 485.70159 228.96 
" style="fill:none;stroke:#000000;stroke-width:1.5;"/>
      <g>
       <use style="stroke:#000000;" x="485.70159" xlink:href="#m30f967f17e" y="228.96"/>
      </g>
     </g>
     <g id="text_4">
      <!-- 4 -->
      <defs>
       <path d="M 37.796875 64.3125 
L 12.890625 25.390625 
L 37.796875 25.390625 
z
M 35.203125 72.90625 
L 47.609375 72.90625 
L 47.609375 25.390625 
L 58.015625 25.390625 
L 58.015625 17.1875 
L 47.609375 17.1875 
L 47.609375 0 
L 37.796875 0 
L 37.796875 17.1875 
L 4.890625 17.1875 
L 4.890625 26.703125 
z
" id="DejaVuSans-52"/>
      </defs>
      <g transform="translate(481.24784 244.547812)scale(0.14 -0.14)">
       <use xlink:href="#DejaVuSans-52"/>
      </g>
     </g>
    </g>
    <g id="xtick_5">
     <g id="line2d_5">
      <path d="M 147.519773 228.96 
" style="fill:none;stroke:#000000;stroke-width:1.5;"/>
      <defs>
       <path d="M 0 0 
L 0 1.375 
" id="m8329cafc84" style="stroke:#000000;"/>
      </defs>
      <g>
       <use style="stroke:#000000;" x="147.519773" xlink:href="#m8329cafc84" y="228.96"/>
      </g>
     </g>
    </g>
    <g id="xtick_6">
     <g id="line2d_6">
      <path d="M 282.7925 228.96 
" style="fill:none;stroke:#000000;stroke-width:1.5;"/>
      <g>
       <use style="stroke:#000000;" x="282.7925" xlink:href="#m8329cafc84" y="228.96"/>
      </g>
     </g>
    </g>
    <g id="xtick_7">
     <g id="line2d_7">
      <path d="M 418.065227 228.96 
" style="fill:none;stroke:#000000;stroke-width:1.5;"/>
      <g>
       <use style="stroke:#000000;" x="418.065227" xlink:href="#m8329cafc84" y="228.96"/>
      </g>
     </g>
    </g>
    <g id="text_5">
     <!-- Resolution [Å] -->
     <defs>
      <path d="M 44.390625 34.1875 
Q 47.5625 33.109375 50.5625 29.59375 
Q 53.5625 26.078125 56.59375 19.921875 
L 66.609375 0 
L 56 0 
L 46.6875 18.703125 
Q 43.0625 26.03125 39.671875 28.421875 
Q 36.28125 30.8125 30.421875 30.8125 
L 19.671875 30.8125 
L 19.671875 0 
L 9.8125 0 
L 9.8125 72.90625 
L 32.078125 72.90625 
Q 44.578125 72.90625 50.734375 67.671875 
Q 56.890625 62.453125 56.890625 51.90625 
Q 56.890625 45.015625 53.6875 40.46875 
Q 50.484375 35.9375 44.390625 34.1875 
z
M 19.671875 64.796875 
L 19.671875 38.921875 
L 32.078125 38.921875 
Q 39.203125 38.921875 42.84375 42.21875 
Q 46.484375 45.515625 46.484375 51.90625 
Q 46.484375 58.296875 42.84375 61.546875 
Q 39.203125 64.796875 32.078125 64.796875 
z
" id="DejaVuSans-82"/>
      <path d="M 56.203125 29.59375 
L 56.203125 25.203125 
L 14.890625 25.203125 
Q 15.484375 15.921875 20.484375 11.0625 
Q 25.484375 6.203125 34.421875 6.203125 
Q 39.59375 6.203125 44.453125 7.46875 
Q 49.3125 8.734375 54.109375 11.28125 
L 54.109375 2.78125 
Q 49.265625 0.734375 44.1875 -0.34375 
Q 39.109375 -1.421875 33.890625 -1.421875 
Q 20.796875 -1.421875 13.15625 6.1875 
Q 5.515625 13.8125 5.515625 26.8125 
Q 5.515625 40.234375 12.765625 48.109375 
Q 20.015625 56 32.328125 56 
Q 43.359375 56 49.78125 48.890625 
Q 56.203125 41.796875 56.203125 29.59375 
z
M 47.21875 32.234375 
Q 47.125 39.59375 43.09375 43.984375 
Q 39.0625 48.390625 32.421875 48.390625 
Q 24.90625 48.390625 20.390625 44.140625 
Q 15.875 39.890625 15.1875 32.171875 
z
" id="DejaVuSans-101"/>
      <path d="M 44.28125 53.078125 
L 44.28125 44.578125 
Q 40.484375 46.53125 36.375 47.5 
Q 32.28125 48.484375 27.875 48.484375 
Q 21.1875 48.484375 17.84375 46.4375 
Q 14.5 44.390625 14.5 40.28125 
Q 14.5 37.15625 16.890625 35.375 
Q 19.28125 33.59375 26.515625 31.984375 
L 29.59375 31.296875 
Q 39.15625 29.25 43.1875 25.515625 
Q 47.21875 21.78125 47.21875 15.09375 
Q 47.21875 7.46875 41.1875 3.015625 
Q 35.15625 -1.421875 24.609375 -1.421875 
Q 20.21875 -1.421875 15.453125 -0.5625 
Q 10.6875 0.296875 5.421875 2 
L 5.421875 11.28125 
Q 10.40625 8.6875 15.234375 7.390625 
Q 20.0625 6.109375 24.8125 6.109375 
Q 31.15625 6.109375 34.5625 8.28125 
Q 37.984375 10.453125 37.984375 14.40625 
Q 37.984375 18.0625 35.515625 20.015625 
Q 33.0625 21.96875 24.703125 23.78125 
L 21.578125 24.515625 
Q 13.234375 26.265625 9.515625 29.90625 
Q 5.8125 33.546875 5.8125 39.890625 
Q 5.8125 47.609375 11.28125 51.796875 
Q 16.75 56 26.8125 56 
Q 31.78125 56 36.171875 55.265625 
Q 40.578125 54.546875 44.28125 53.078125 
z
" id="DejaVuSans-115"/>
      <path d="M 30.609375 48.390625 
Q 23.390625 48.390625 19.1875 42.75 
Q 14.984375 37.109375 14.984375 27.296875 
Q 14.984375 17.484375 19.15625 11.84375 
Q 23.34375 6.203125 30.609375 6.203125 
Q 37.796875 6.203125 41.984375 11.859375 
Q 46.1875 17.53125 46.1875 27.296875 
Q 46.1875 37.015625 41.984375 42.703125 
Q 37.796875 48.390625 30.609375 48.390625 
z
M 30.609375 56 
Q 42.328125 56 49.015625 48.375 
Q 55.71875 40.765625 55.71875 27.296875 
Q 55.71875 13.875 49.015625 6.21875 
Q 42.328125 -1.421875 30.609375 -1.421875 
Q 18.84375 -1.421875 12.171875 6.21875 
Q 5.515625 13.875 5.515625 27.296875 
Q 5.515625 40.765625 12.171875 48.375 
Q 18.84375 56 30.609375 56 
z
" id="DejaVuSans-111"/>
      <path d="M 9.421875 75.984375 
L 18.40625 75.984375 
L 18.40625 0 
L 9.421875 0 
z
" id="DejaVuSans-108"/>
      <path d="M 8.5 21.578125 
L 8.5 54.6875 
L 17.484375 54.6875 
L 17.484375 21.921875 
Q 17.484375 14.15625 20.5 10.265625 
Q 23.53125 6.390625 29.59375 6.390625 
Q 36.859375 6.390625 41.078125 11.03125 
Q 45.3125 15.671875 45.3125 23.6875 
L 45.3125 54.6875 
L 54.296875 54.6875 
L 54.296875 0 
L 45.3125 0 
L 45.3125 8.40625 
Q 42.046875 3.421875 37.71875 1 
Q 33.40625 -1.421875 27.6875 -1.421875 
Q 18.265625 -1.421875 13.375 4.4375 
Q 8.5 10.296875 8.5 21.578125 
z
M 31.109375 56 
z
" id="DejaVuSans-117"/>
      <path d="M 18.3125 70.21875 
L 18.3125 54.6875 
L 36.8125 54.6875 
L 36.8125 47.703125 
L 18.3125 47.703125 
L 18.3125 18.015625 
Q 18.3125 11.328125 20.140625 9.421875 
Q 21.96875 7.515625 27.59375 7.515625 
L 36.8125 7.515625 
L 36.8125 0 
L 27.59375 0 
Q 17.1875 0 13.234375 3.875 
Q 9.28125 7.765625 9.28125 18.015625 
L 9.28125 47.703125 
L 2.6875 47.703125 
L 2.6875 54.6875 
L 9.28125 54.6875 
L 9.28125 70.21875 
z
" id="DejaVuSans-116"/>
      <path d="M 9.421875 54.6875 
L 18.40625 54.6875 
L 18.40625 0 
L 9.421875 0 
z
M 9.421875 75.984375 
L 18.40625 75.984375 
L 18.40625 64.59375 
L 9.421875 64.59375 
z
" id="DejaVuSans-105"/>
      <path d="M 54.890625 33.015625 
L 54.890625 0 
L 45.90625 0 
L 45.90625 32.71875 
Q 45.90625 40.484375 42.875 44.328125 
Q 39.84375 48.1875 33.796875 48.1875 
Q 26.515625 48.1875 22.3125 43.546875 
Q 18.109375 38.921875 18.109375 30.90625 
L 18.109375 0 
L 9.078125 0 
L 9.078125 54.6875 
L 18.109375 54.6875 
L 18.109375 46.1875 
Q 21.34375 51.125 25.703125 53.5625 
Q 30.078125 56 35.796875 56 
Q 45.21875 56 50.046875 50.171875 
Q 54.890625 44.34375 54.890625 33.015625 
z
" id="DejaVuSans-110"/>
      <path id="DejaVuSans-32"/>
      <path d="M 8.59375 75.984375 
L 29.296875 75.984375 
L 29.296875 69 
L 17.578125 69 
L 17.578125 -6.203125 
L 29.296875 -6.203125 
L 29.296875 -13.1875 
L 8.59375 -13.1875 
z
" id="DejaVuSans-91"/>
      <path d="M 41.609375 79.390625 
Q 41.609375 82.46875 39.421875 84.640625 
Q 37.25 86.8125 34.1875 86.8125 
Q 31.0625 86.8125 28.9375 84.6875 
Q 26.8125 82.5625 26.8125 79.390625 
Q 26.8125 76.3125 28.953125 74.15625 
Q 31.109375 72.015625 34.1875 72.015625 
Q 37.25 72.015625 39.421875 74.15625 
Q 41.609375 76.3125 41.609375 79.390625 
z
M 34.1875 63.1875 
L 20.90625 26.90625 
L 47.515625 26.90625 
z
M 26.8125 68.21875 
Q 23.828125 70.21875 22.3125 73.015625 
Q 20.796875 75.828125 20.796875 79.390625 
Q 20.796875 85.015625 24.671875 88.921875 
Q 28.5625 92.828125 34.1875 92.828125 
Q 39.75 92.828125 43.671875 88.890625 
Q 47.609375 84.96875 47.609375 79.390625 
Q 47.609375 75.984375 46.0625 73.09375 
Q 44.53125 70.21875 41.609375 68.21875 
L 67.578125 0 
L 57.328125 0 
L 50.6875 18.703125 
L 17.828125 18.703125 
L 11.1875 0 
L 0.78125 0 
z
" id="DejaVuSans-197"/>
      <path d="M 30.421875 75.984375 
L 30.421875 -13.1875 
L 9.71875 -13.1875 
L 9.71875 -6.203125 
L 21.390625 -6.203125 
L 21.390625 69 
L 9.71875 69 
L 9.71875 75.984375 
z
" id="DejaVuSans-93"/>
     </defs>
     <g transform="translate(219.18 265.494375)scale(0.16 -0.16)">
      <use xlink:href="#DejaVuSans-82"/>
      <use x="69.419922" xlink:href="#DejaVuSans-101"/>
      <use x="130.943359" xlink:href="#DejaVuSans-115"/>
      <use x="183.042969" xlink:href="#DejaVuSans-111"/>
      <use x="244.224609" xlink:href="#DejaVuSans-108"/>
      <use x="272.007812" xlink:href="#DejaVuSans-117"/>
      <use x="335.386719" xlink:href="#DejaVuSans-116"/>
      <use x="374.595703" xlink:href="#DejaVuSans-105"/>
      <use x="402.378906" xlink:href="#DejaVuSans-111"/>
      <use x="463.560547" xlink:href="#DejaVuSans-110"/>
      <use x="526.939453" xlink:href="#DejaVuSans-32"/>
      <use x="558.726562" xlink:href="#DejaVuSans-91"/>
      <use x="597.740234" xlink:href="#DejaVuSans-197"/>
      <use x="666.148438" xlink:href="#DejaVuSans-93"/>
     </g>
    </g>
   </g>
   <g id="matplotlib.axis_2">
    <g id="ytick_1">
     <g id="line2d_8">
      <path d="M 59.5925 218.88 
" style="fill:none;stroke:#000000;stroke-width:1.5;"/>
      <defs>
       <path d="M 0 0 
L -2.75 0 
" id="m5afdebda7b" style="stroke:#000000;"/>
      </defs>
      <g>
       <use style="stroke:#000000;" x="59.5925" xlink:href="#m5afdebda7b" y="218.88"/>
      </g>
     </g>
     <g id="text_6">
      <!-- 0 -->
      <defs>
       <path d="M 31.78125 66.40625 
Q 24.171875 66.40625 20.328125 58.90625 
Q 16.5 51.421875 16.5 36.375 
Q 16.5 21.390625 20.328125 13.890625 
Q 24.171875 6.390625 31.78125 6.390625 
Q 39.453125 6.390625 43.28125 13.890625 
Q 47.125 21.390625 47.125 36.375 
Q 47.125 51.421875 43.28125 58.90625 
Q 39.453125 66.40625 31.78125 66.40625 
z
M 31.78125 74.21875 
Q 44.046875 74.21875 50.515625 64.515625 
Q 56.984375 54.828125 56.984375 36.375 
Q 56.984375 17.96875 50.515625 8.265625 
Q 44.046875 -1.421875 31.78125 -1.421875 
Q 19.53125 -1.421875 13.0625 8.265625 
Q 6.59375 17.96875 6.59375 36.375 
Q 6.59375 54.828125 13.0625 64.515625 
Q 19.53125 74.21875 31.78125 74.21875 
z
" id="DejaVuSans-48"/>
      </defs>
      <g transform="translate(45.735 222.743125)scale(0.14 -0.14)">
       <use xlink:href="#DejaVuSans-48"/>
      </g>
     </g>
    </g>
    <g id="ytick_2">
     <g id="line2d_9">
      <path d="M 59.5925 168.48 
" style="fill:none;stroke:#000000;stroke-width:1.5;"/>
      <g>
       <use style="stroke:#000000;" x="59.5925" xlink:href="#m5afdebda7b" y="168.48"/>
      </g>
     </g>
     <g id="text_7">
      <!-- 25 -->
      <defs>
       <path d="M 10.796875 72.90625 
L 49.515625 72.90625 
L 49.515625 64.59375 
L 19.828125 64.59375 
L 19.828125 46.734375 
Q 21.96875 47.46875 24.109375 47.828125 
Q 26.265625 48.1875 28.421875 48.1875 
Q 40.625 48.1875 47.75 41.5 
Q 54.890625 34.8125 54.890625 23.390625 
Q 54.890625 11.625 47.5625 5.09375 
Q 40.234375 -1.421875 26.90625 -1.421875 
Q 22.3125 -1.421875 17.546875 -0.640625 
Q 12.796875 0.140625 7.71875 1.703125 
L 7.71875 11.625 
Q 12.109375 9.234375 16.796875 8.0625 
Q 21.484375 6.890625 26.703125 6.890625 
Q 35.15625 6.890625 40.078125 11.328125 
Q 45.015625 15.765625 45.015625 23.390625 
Q 45.015625 31 40.078125 35.4375 
Q 35.15625 39.890625 26.703125 39.890625 
Q 22.75 39.890625 18.8125 39.015625 
Q 14.890625 38.140625 10.796875 36.28125 
z
" id="DejaVuSans-53"/>
      </defs>
      <g transform="translate(36.8275 172.343125)scale(0.14 -0.14)">
       <use xlink:href="#DejaVuSans-50"/>
       <use x="63.623047" xlink:href="#DejaVuSans-53"/>
      </g>
     </g>
    </g>
    <g id="ytick_3">
     <g id="line2d_10">
      <path d="M 59.5925 118.08 
" style="fill:none;stroke:#000000;stroke-width:1.5;"/>
      <g>
       <use style="stroke:#000000;" x="59.5925" xlink:href="#m5afdebda7b" y="118.08"/>
      </g>
     </g>
     <g id="text_8">
      <!-- 50 -->
      <g transform="translate(36.8275 121.943125)scale(0.14 -0.14)">
       <use xlink:href="#DejaVuSans-53"/>
       <use x="63.623047" xlink:href="#DejaVuSans-48"/>
      </g>
     </g>
    </g>
    <g id="ytick_4">
     <g id="line2d_11">
      <path d="M 59.5925 67.68 
" style="fill:none;stroke:#000000;stroke-width:1.5;"/>
      <g>
       <use style="stroke:#000000;" x="59.5925" xlink:href="#m5afdebda7b" y="67.68"/>
      </g>
     </g>
     <g id="text_9">
      <!-- 75 -->
      <defs>
       <path d="M 8.203125 72.90625 
L 55.078125 72.90625 
L 55.078125 68.703125 
L 28.609375 0 
L 18.3125 0 
L 43.21875 64.59375 
L 8.203125 64.59375 
z
" id="DejaVuSans-55"/>
      </defs>
      <g transform="translate(36.8275 71.543125)scale(0.14 -0.14)">
       <use xlink:href="#DejaVuSans-55"/>
       <use x="63.623047" xlink:href="#DejaVuSans-53"/>
      </g>
     </g>
    </g>
    <g id="ytick_5">
     <g id="line2d_12">
      <path d="M 59.5925 17.28 
" style="fill:none;stroke:#000000;stroke-width:1.5;"/>
      <g>
       <use style="stroke:#000000;" x="59.5925" xlink:href="#m5afdebda7b" y="17.28"/>
      </g>
     </g>
     <g id="text_10">
      <!-- 100 -->
      <g transform="translate(27.92 21.143125)scale(0.14 -0.14)">
       <use xlink:href="#DejaVuSans-49"/>
       <use x="63.623047" xlink:href="#DejaVuSans-48"/>
       <use x="127.246094" xlink:href="#DejaVuSans-48"/>
      </g>
     </g>
    </g>
    <g id="ytick_6">
     <g id="line2d_13">
      <path d="M 59.5925 193.68 
" style="fill:none;stroke:#000000;stroke-width:1.5;"/>
      <defs>
       <path d="M 0 0 
L -1.375 0 
" id="m254b226de6" style="stroke:#000000;"/>
      </defs>
      <g>
       <use style="stroke:#000000;" x="59.5925" xlink:href="#m254b226de6" y="193.68"/>
      </g>
     </g>
    </g>
    <g id="ytick_7">
     <g id="line2d_14">
      <path d="M 59.5925 143.28 
" style="fill:none;stroke:#000000;stroke-width:1.5;"/>
      <g>
       <use style="stroke:#000000;" x="59.5925" xlink:href="#m254b226de6" y="143.28"/>
      </g>
     </g>
    </g>
    <g id="ytick_8">
     <g id="line2d_15">
      <path d="M 59.5925 92.88 
" style="fill:none;stroke:#000000;stroke-width:1.5;"/>
      <g>
       <use style="stroke:#000000;" x="59.5925" xlink:href="#m254b226de6" y="92.88"/>
      </g>
     </g>
    </g>
    <g id="ytick_9">
     <g id="line2d_16">
      <path d="M 59.5925 42.48 
" style="fill:none;stroke:#000000;stroke-width:1.5;"/>
      <g>
       <use style="stroke:#000000;" x="59.5925" xlink:href="#m254b226de6" y="42.48"/>
      </g>
     </g>
    </g>
    <g id="text_11">
     <!-- $P_{Q1n}$ [%] -->
     <defs>
      <path d="M 16.890625 72.90625 
L 39.703125 72.90625 
Q 49.65625 72.90625 54.875 68.265625 
Q 60.109375 63.625 60.109375 54.6875 
Q 60.109375 42.671875 52.390625 35.984375 
Q 44.671875 29.296875 30.71875 29.296875 
L 18.3125 29.296875 
L 12.59375 0 
L 2.6875 0 
z
M 25.203125 64.796875 
L 19.921875 37.40625 
L 32.328125 37.40625 
Q 40.71875 37.40625 45.203125 41.703125 
Q 49.703125 46 49.703125 54 
Q 49.703125 59.125 46.65625 61.953125 
Q 43.609375 64.796875 38.09375 64.796875 
z
" id="DejaVuSans-Oblique-80"/>
      <path d="M 36.078125 -1.3125 
Q 35.546875 -1.375 34.953125 -1.390625 
Q 34.375 -1.421875 33.203125 -1.421875 
Q 19.53125 -1.421875 11.8125 6.421875 
Q 4.109375 14.265625 4.109375 28.078125 
Q 4.109375 36.234375 7.0625 44.4375 
Q 10.015625 52.640625 15.28125 59.1875 
Q 21.390625 66.703125 29.03125 70.453125 
Q 36.671875 74.21875 45.90625 74.21875 
Q 59.28125 74.21875 66.984375 66.328125 
Q 74.703125 58.453125 74.703125 44.828125 
Q 74.703125 30.125 66.640625 17.921875 
Q 58.59375 5.71875 45.609375 0.6875 
L 55.515625 -12.890625 
L 44.484375 -12.890625 
z
M 45.609375 66.21875 
Q 37.5 66.21875 31.296875 62.28125 
Q 25.09375 58.34375 20.515625 50.296875 
Q 17.578125 45.171875 16.03125 39.40625 
Q 14.5 33.640625 14.5 27.78125 
Q 14.5 17.625 19.359375 12.109375 
Q 24.21875 6.59375 33.109375 6.59375 
Q 41.109375 6.59375 47.375 10.5625 
Q 53.65625 14.546875 58.109375 22.40625 
Q 61.078125 27.6875 62.640625 33.46875 
Q 64.203125 39.265625 64.203125 45.015625 
Q 64.203125 55.125 59.3125 60.671875 
Q 54.4375 66.21875 45.609375 66.21875 
z
" id="DejaVuSans-Oblique-81"/>
      <path d="M 55.71875 33.015625 
L 49.3125 0 
L 40.28125 0 
L 46.6875 32.671875 
Q 47.125 34.96875 47.359375 36.71875 
Q 47.609375 38.484375 47.609375 39.5 
Q 47.609375 43.609375 45.015625 45.890625 
Q 42.4375 48.1875 37.796875 48.1875 
Q 30.5625 48.1875 25.34375 43.375 
Q 20.125 38.578125 18.5 30.328125 
L 12.5 0 
L 3.515625 0 
L 14.109375 54.6875 
L 23.09375 54.6875 
L 21.296875 46.09375 
Q 25.046875 50.828125 30.3125 53.40625 
Q 35.59375 56 41.40625 56 
Q 48.640625 56 52.609375 52.09375 
Q 56.59375 48.1875 56.59375 41.109375 
Q 56.59375 39.359375 56.375 37.359375 
Q 56.15625 35.359375 55.71875 33.015625 
z
" id="DejaVuSans-Oblique-110"/>
      <path d="M 72.703125 32.078125 
Q 68.453125 32.078125 66.03125 28.46875 
Q 63.625 24.859375 63.625 18.40625 
Q 63.625 12.0625 66.03125 8.421875 
Q 68.453125 4.78125 72.703125 4.78125 
Q 76.859375 4.78125 79.265625 8.421875 
Q 81.6875 12.0625 81.6875 18.40625 
Q 81.6875 24.8125 79.265625 28.4375 
Q 76.859375 32.078125 72.703125 32.078125 
z
M 72.703125 38.28125 
Q 80.421875 38.28125 84.953125 32.90625 
Q 89.5 27.546875 89.5 18.40625 
Q 89.5 9.28125 84.9375 3.921875 
Q 80.375 -1.421875 72.703125 -1.421875 
Q 64.890625 -1.421875 60.34375 3.921875 
Q 55.8125 9.28125 55.8125 18.40625 
Q 55.8125 27.59375 60.375 32.9375 
Q 64.9375 38.28125 72.703125 38.28125 
z
M 22.3125 68.015625 
Q 18.109375 68.015625 15.6875 64.375 
Q 13.28125 60.75 13.28125 54.390625 
Q 13.28125 47.953125 15.671875 44.328125 
Q 18.0625 40.71875 22.3125 40.71875 
Q 26.5625 40.71875 28.96875 44.328125 
Q 31.390625 47.953125 31.390625 54.390625 
Q 31.390625 60.6875 28.953125 64.34375 
Q 26.515625 68.015625 22.3125 68.015625 
z
M 66.40625 74.21875 
L 74.21875 74.21875 
L 28.609375 -1.421875 
L 20.796875 -1.421875 
z
M 22.3125 74.21875 
Q 30.03125 74.21875 34.609375 68.875 
Q 39.203125 63.53125 39.203125 54.390625 
Q 39.203125 45.171875 34.640625 39.84375 
Q 30.078125 34.515625 22.3125 34.515625 
Q 14.546875 34.515625 10.03125 39.859375 
Q 5.515625 45.21875 5.515625 54.390625 
Q 5.515625 63.484375 10.046875 68.84375 
Q 14.59375 74.21875 22.3125 74.21875 
z
" id="DejaVuSans-37"/>
     </defs>
     <g transform="translate(19.36 149.6)rotate(-90)scale(0.16 -0.16)">
      <use transform="translate(0 0.015625)" xlink:href="#DejaVuSans-Oblique-80"/>
      <use transform="translate(60.302734 -16.390625)scale(0.7)" xlink:href="#DejaVuSans-Oblique-81"/>
      <use transform="translate(115.400391 -16.390625)scale(0.7)" xlink:href="#DejaVuSans-49"/>
      <use transform="translate(159.936523 -16.390625)scale(0.7)" xlink:href="#DejaVuSans-Oblique-110"/>
      <use transform="translate(207.036133 0.015625)" xlink:href="#DejaVuSans-32"/>
      <use transform="translate(238.823242 0.015625)" xlink:href="#DejaVuSans-91"/>
      <use transform="translate(277.836914 0.015625)" xlink:href="#DejaVuSans-37"/>
      <use transform="translate(372.856445 0.015625)" xlink:href="#DejaVuSans-93"/>
     </g>
    </g>
   </g>
   <g id="LineCollection_1">
    <path clip-path="url(#p1df0e9b725)" d="M 79.883409 83.26683 
L 79.88341 83.26683 
" style="fill:none;stroke:#9da0a2;stroke-width:1.32934;"/>
    <path clip-path="url(#p1df0e9b725)" d="M 93.410682 87.006085 
L 93.410683 87.006085 
" style="fill:none;stroke:#9da0a2;stroke-width:1.32934;"/>
    <path clip-path="url(#p1df0e9b725)" d="M 106.937954 74.409368 
L 106.937956 74.409368 
" style="fill:none;stroke:#9da0a2;stroke-width:1.32934;"/>
    <path clip-path="url(#p1df0e9b725)" d="M 120.465227 90.184046 
L 120.465228 90.184046 
" style="fill:none;stroke:#9da0a2;stroke-width:1.32934;"/>
    <path clip-path="url(#p1df0e9b725)" d="M 133.9925 77.603586 
L 133.992501 77.603586 
" style="fill:none;stroke:#9da0a2;stroke-width:1.32934;"/>
    <path clip-path="url(#p1df0e9b725)" d="M 147.519773 91.109457 
L 147.519774 91.109457 
" style="fill:none;stroke:#9da0a2;stroke-width:1.32934;"/>
    <path clip-path="url(#p1df0e9b725)" d="M 161.047045 93.249144 
L 161.047047 93.249144 
" style="fill:none;stroke:#9da0a2;stroke-width:1.32934;"/>
    <path clip-path="url(#p1df0e9b725)" d="M 174.574318 107.324357 
L 174.574319 107.324357 
" style="fill:none;stroke:#9da0a2;stroke-width:1.32934;"/>
    <path clip-path="url(#p1df0e9b725)" d="M 188.101591 112.157206 
L 188.101592 112.157206 
" style="fill:none;stroke:#9da0a2;stroke-width:1.32934;"/>
    <path clip-path="url(#p1df0e9b725)" d="M 201.628863 111.845999 
L 201.628865 111.845999 
" style="fill:none;stroke:#9da0a2;stroke-width:1.32934;"/>
    <path clip-path="url(#p1df0e9b725)" d="M 215.156136 138.025308 
L 215.156137 138.025308 
" style="fill:none;stroke:#9da0a2;stroke-width:1.32934;"/>
    <path clip-path="url(#p1df0e9b725)" d="M 228.683409 125.905072 
L 228.68341 125.905072 
" style="fill:none;stroke:#9da0a2;stroke-width:1.32934;"/>
    <path clip-path="url(#p1df0e9b725)" d="M 242.210681 136.212542 
L 242.210683 136.212542 
" style="fill:none;stroke:#9da0a2;stroke-width:1.32934;"/>
    <path clip-path="url(#p1df0e9b725)" d="M 255.737954 134.140749 
L 255.737955 134.140749 
" style="fill:none;stroke:#9da0a2;stroke-width:1.32934;"/>
    <path clip-path="url(#p1df0e9b725)" d="M 269.265227 148.841565 
L 269.265228 148.841565 
" style="fill:none;stroke:#9da0a2;stroke-width:1.32934;"/>
    <path clip-path="url(#p1df0e9b725)" d="M 282.792499 158.605442 
L 282.792501 158.605442 
" style="fill:none;stroke:#9da0a2;stroke-width:1.32934;"/>
    <path clip-path="url(#p1df0e9b725)" d="M 296.319772 146.209746 
L 296.319773 146.209746 
" style="fill:none;stroke:#9da0a2;stroke-width:1.32934;"/>
    <path clip-path="url(#p1df0e9b725)" d="M 309.847045 157.598313 
L 309.847046 157.598313 
" style="fill:none;stroke:#9da0a2;stroke-width:1.32934;"/>
    <path clip-path="url(#p1df0e9b725)" d="M 323.374317 147.276288 
L 323.374319 147.276288 
" style="fill:none;stroke:#9da0a2;stroke-width:1.32934;"/>
    <path clip-path="url(#p1df0e9b725)" d="M 336.90159 146.751907 
L 336.901591 146.751907 
" style="fill:none;stroke:#9da0a2;stroke-width:1.32934;"/>
    <path clip-path="url(#p1df0e9b725)" d="M 350.428863 148.644043 
L 350.428864 148.644043 
" style="fill:none;stroke:#9da0a2;stroke-width:1.32934;"/>
    <path clip-path="url(#p1df0e9b725)" d="M 363.956135 153.498108 
L 363.956137 153.498108 
" style="fill:none;stroke:#9da0a2;stroke-width:1.32934;"/>
    <path clip-path="url(#p1df0e9b725)" d="M 377.483408 161.279598 
L 377.483409 161.279598 
" style="fill:none;stroke:#9da0a2;stroke-width:1.32934;"/>
    <path clip-path="url(#p1df0e9b725)" d="M 391.010681 174.666458 
L 391.010682 174.666458 
" style="fill:none;stroke:#9da0a2;stroke-width:1.32934;"/>
    <path clip-path="url(#p1df0e9b725)" d="M 404.537953 183.986923 
L 404.537955 183.986923 
" style="fill:none;stroke:#9da0a2;stroke-width:1.32934;"/>
    <path clip-path="url(#p1df0e9b725)" d="M 418.065226 185.972645 
L 418.065227 185.972645 
" style="fill:none;stroke:#9da0a2;stroke-width:1.32934;"/>
    <path clip-path="url(#p1df0e9b725)" d="M 431.592499 205.419072 
L 431.5925 205.419072 
" style="fill:none;stroke:#9da0a2;stroke-width:1.32934;"/>
    <path clip-path="url(#p1df0e9b725)" d="M 445.119772 202.025241 
L 445.119773 202.025241 
" style="fill:none;stroke:#9da0a2;stroke-width:1.32934;"/>
    <path clip-path="url(#p1df0e9b725)" d="M 458.647044 217.156982 
L 458.647046 217.156982 
" style="fill:none;stroke:#9da0a2;stroke-width:1.32934;"/>
    <path clip-path="url(#p1df0e9b725)" d="M 472.174317 139.535034 
L 472.174318 139.535034 
" style="fill:none;stroke:#9da0a2;stroke-width:1.32934;"/>
    <path clip-path="url(#p1df0e9b725)" d="M 485.70159 167.430687 
L 485.701591 167.430687 
" style="fill:none;stroke:#9da0a2;stroke-width:1.32934;"/>
    <path clip-path="url(#p1df0e9b725)" d="M 79.883409 73.134966 
L 79.88341 73.134966 
" style="fill:none;stroke:#9da0a2;stroke-width:1.32934;"/>
    <path clip-path="url(#p1df0e9b725)" d="M 93.410682 69.30962 
L 93.410683 69.30962 
" style="fill:none;stroke:#9da0a2;stroke-width:1.32934;"/>
    <path clip-path="url(#p1df0e9b725)" d="M 106.937954 63.632842 
L 106.937956 63.632842 
" style="fill:none;stroke:#9da0a2;stroke-width:1.32934;"/>
    <path clip-path="url(#p1df0e9b725)" d="M 120.465227 74.548526 
L 120.465228 74.548526 
" style="fill:none;stroke:#9da0a2;stroke-width:1.32934;"/>
    <path clip-path="url(#p1df0e9b725)" d="M 133.9925 65.802613 
L 133.992501 65.802613 
" style="fill:none;stroke:#9da0a2;stroke-width:1.32934;"/>
    <path clip-path="url(#p1df0e9b725)" d="M 147.519773 79.94716 
L 147.519774 79.94716 
" style="fill:none;stroke:#9da0a2;stroke-width:1.32934;"/>
    <path clip-path="url(#p1df0e9b725)" d="M 161.047045 85.35368 
L 161.047047 85.35368 
" style="fill:none;stroke:#9da0a2;stroke-width:1.32934;"/>
    <path clip-path="url(#p1df0e9b725)" d="M 174.574318 96.364177 
L 174.574319 96.364177 
" style="fill:none;stroke:#9da0a2;stroke-width:1.32934;"/>
    <path clip-path="url(#p1df0e9b725)" d="M 188.101591 103.247381 
L 188.101592 103.247381 
" style="fill:none;stroke:#9da0a2;stroke-width:1.32934;"/>
    <path clip-path="url(#p1df0e9b725)" d="M 201.628863 101.771941 
L 201.628865 101.771941 
" style="fill:none;stroke:#9da0a2;stroke-width:1.32934;"/>
    <path clip-path="url(#p1df0e9b725)" d="M 215.156136 129.536601 
L 215.156137 129.536601 
" style="fill:none;stroke:#9da0a2;stroke-width:1.32934;"/>
    <path clip-path="url(#p1df0e9b725)" d="M 228.683409 113.504773 
L 228.68341 113.504773 
" style="fill:none;stroke:#9da0a2;stroke-width:1.32934;"/>
    <path clip-path="url(#p1df0e9b725)" d="M 242.210681 127.327581 
L 242.210683 127.327581 
" style="fill:none;stroke:#9da0a2;stroke-width:1.32934;"/>
    <path clip-path="url(#p1df0e9b725)" d="M 255.737954 120.538895 
L 255.737955 120.538895 
" style="fill:none;stroke:#9da0a2;stroke-width:1.32934;"/>
    <path clip-path="url(#p1df0e9b725)" d="M 269.265227 139.294157 
L 269.265228 139.294157 
" style="fill:none;stroke:#9da0a2;stroke-width:1.32934;"/>
    <path clip-path="url(#p1df0e9b725)" d="M 282.792499 149.30504 
L 282.792501 149.30504 
" style="fill:none;stroke:#9da0a2;stroke-width:1.32934;"/>
    <path clip-path="url(#p1df0e9b725)" d="M 296.319772 134.091882 
L 296.319773 134.091882 
" style="fill:none;stroke:#9da0a2;stroke-width:1.32934;"/>
    <path clip-path="url(#p1df0e9b725)" d="M 309.847045 145.863288 
L 309.847046 145.863288 
" style="fill:none;stroke:#9da0a2;stroke-width:1.32934;"/>
    <path clip-path="url(#p1df0e9b725)" d="M 323.374317 136.47334 
L 323.374319 136.47334 
" style="fill:none;stroke:#9da0a2;stroke-width:1.32934;"/>
    <path clip-path="url(#p1df0e9b725)" d="M 336.90159 133.989804 
L 336.901591 133.989804 
" style="fill:none;stroke:#9da0a2;stroke-width:1.32934;"/>
    <path clip-path="url(#p1df0e9b725)" d="M 350.428863 138.60701 
L 350.428864 138.60701 
" style="fill:none;stroke:#9da0a2;stroke-width:1.32934;"/>
    <path clip-path="url(#p1df0e9b725)" d="M 363.956135 140.642894 
L 363.956137 140.642894 
" style="fill:none;stroke:#9da0a2;stroke-width:1.32934;"/>
    <path clip-path="url(#p1df0e9b725)" d="M 377.483408 140.110908 
L 377.483409 140.110908 
" style="fill:none;stroke:#9da0a2;stroke-width:1.32934;"/>
    <path clip-path="url(#p1df0e9b725)" d="M 391.010681 154.755287 
L 391.010682 154.755287 
" style="fill:none;stroke:#9da0a2;stroke-width:1.32934;"/>
    <path clip-path="url(#p1df0e9b725)" d="M 404.537953 147.560997 
L 404.537955 147.560997 
" style="fill:none;stroke:#9da0a2;stroke-width:1.32934;"/>
    <path clip-path="url(#p1df0e9b725)" d="M 418.065226 141.585246 
L 418.065227 141.585246 
" style="fill:none;stroke:#9da0a2;stroke-width:1.32934;"/>
    <path clip-path="url(#p1df0e9b725)" d="M 431.592499 178.244283 
L 431.5925 178.244283 
" style="fill:none;stroke:#9da0a2;stroke-width:1.32934;"/>
    <path clip-path="url(#p1df0e9b725)" d="M 445.119772 183.629678 
L 445.119773 183.629678 
" style="fill:none;stroke:#9da0a2;stroke-width:1.32934;"/>
    <path clip-path="url(#p1df0e9b725)" d="M 458.647044 210.004361 
L 458.647046 210.004361 
" style="fill:none;stroke:#9da0a2;stroke-width:1.32934;"/>
    <path clip-path="url(#p1df0e9b725)" d="M 472.174317 127.647785 
L 472.174318 127.647785 
" style="fill:none;stroke:#9da0a2;stroke-width:1.32934;"/>
    <path clip-path="url(#p1df0e9b725)" d="M 485.70159 133.798536 
L 485.701591 133.798536 
" style="fill:none;stroke:#9da0a2;stroke-width:1.32934;"/>
    <path clip-path="url(#p1df0e9b725)" d="M 79.88341 73.134966 
L 79.88341 83.26683 
" style="fill:none;stroke:#9da0a2;stroke-width:1.32934;"/>
    <path clip-path="url(#p1df0e9b725)" d="M 93.410682 69.30962 
L 93.410682 87.006085 
" style="fill:none;stroke:#9da0a2;stroke-width:1.32934;"/>
    <path clip-path="url(#p1df0e9b725)" d="M 106.937955 63.632842 
L 106.937955 74.409368 
" style="fill:none;stroke:#9da0a2;stroke-width:1.32934;"/>
    <path clip-path="url(#p1df0e9b725)" d="M 120.465228 74.548526 
L 120.465228 90.184046 
" style="fill:none;stroke:#9da0a2;stroke-width:1.32934;"/>
    <path clip-path="url(#p1df0e9b725)" d="M 133.9925 65.802613 
L 133.9925 77.603586 
" style="fill:none;stroke:#9da0a2;stroke-width:1.32934;"/>
    <path clip-path="url(#p1df0e9b725)" d="M 147.519773 79.94716 
L 147.519773 91.109457 
" style="fill:none;stroke:#9da0a2;stroke-width:1.32934;"/>
    <path clip-path="url(#p1df0e9b725)" d="M 161.047046 85.35368 
L 161.047046 93.249144 
" style="fill:none;stroke:#9da0a2;stroke-width:1.32934;"/>
    <path clip-path="url(#p1df0e9b725)" d="M 174.574319 96.364177 
L 174.574319 107.324357 
" style="fill:none;stroke:#9da0a2;stroke-width:1.32934;"/>
    <path clip-path="url(#p1df0e9b725)" d="M 188.101591 103.247381 
L 188.101591 112.157206 
" style="fill:none;stroke:#9da0a2;stroke-width:1.32934;"/>
    <path clip-path="url(#p1df0e9b725)" d="M 201.628864 101.771941 
L 201.628864 111.845999 
" style="fill:none;stroke:#9da0a2;stroke-width:1.32934;"/>
    <path clip-path="url(#p1df0e9b725)" d="M 215.156137 129.536601 
L 215.156137 138.025308 
" style="fill:none;stroke:#9da0a2;stroke-width:1.32934;"/>
    <path clip-path="url(#p1df0e9b725)" d="M 228.683409 113.504773 
L 228.683409 125.905072 
" style="fill:none;stroke:#9da0a2;stroke-width:1.32934;"/>
    <path clip-path="url(#p1df0e9b725)" d="M 242.210682 127.327581 
L 242.210682 136.212542 
" style="fill:none;stroke:#9da0a2;stroke-width:1.32934;"/>
    <path clip-path="url(#p1df0e9b725)" d="M 255.737955 120.538895 
L 255.737955 134.140749 
" style="fill:none;stroke:#9da0a2;stroke-width:1.32934;"/>
    <path clip-path="url(#p1df0e9b725)" d="M 269.265227 139.294157 
L 269.265227 148.841565 
" style="fill:none;stroke:#9da0a2;stroke-width:1.32934;"/>
    <path clip-path="url(#p1df0e9b725)" d="M 282.7925 149.30504 
L 282.7925 158.605442 
" style="fill:none;stroke:#9da0a2;stroke-width:1.32934;"/>
    <path clip-path="url(#p1df0e9b725)" d="M 296.319773 134.091882 
L 296.319773 146.209746 
" style="fill:none;stroke:#9da0a2;stroke-width:1.32934;"/>
    <path clip-path="url(#p1df0e9b725)" d="M 309.847045 145.863288 
L 309.847045 157.598313 
" style="fill:none;stroke:#9da0a2;stroke-width:1.32934;"/>
    <path clip-path="url(#p1df0e9b725)" d="M 323.374318 136.47334 
L 323.374318 147.276288 
" style="fill:none;stroke:#9da0a2;stroke-width:1.32934;"/>
    <path clip-path="url(#p1df0e9b725)" d="M 336.901591 133.989804 
L 336.901591 146.751907 
" style="fill:none;stroke:#9da0a2;stroke-width:1.32934;"/>
    <path clip-path="url(#p1df0e9b725)" d="M 350.428863 138.60701 
L 350.428863 148.644043 
" style="fill:none;stroke:#9da0a2;stroke-width:1.32934;"/>
    <path clip-path="url(#p1df0e9b725)" d="M 363.956136 140.642894 
L 363.956136 153.498108 
" style="fill:none;stroke:#9da0a2;stroke-width:1.32934;"/>
    <path clip-path="url(#p1df0e9b725)" d="M 377.483409 140.110908 
L 377.483409 161.279598 
" style="fill:none;stroke:#9da0a2;stroke-width:1.32934;"/>
    <path clip-path="url(#p1df0e9b725)" d="M 391.010681 154.755287 
L 391.010681 174.666458 
" style="fill:none;stroke:#9da0a2;stroke-width:1.32934;"/>
    <path clip-path="url(#p1df0e9b725)" d="M 404.537954 147.560997 
L 404.537954 183.986923 
" style="fill:none;stroke:#9da0a2;stroke-width:1.32934;"/>
    <path clip-path="url(#p1df0e9b725)" d="M 418.065227 141.585246 
L 418.065227 185.972645 
" style="fill:none;stroke:#9da0a2;stroke-width:1.32934;"/>
    <path clip-path="url(#p1df0e9b725)" d="M 431.5925 178.244283 
L 431.5925 205.419072 
" style="fill:none;stroke:#9da0a2;stroke-width:1.32934;"/>
    <path clip-path="url(#p1df0e9b725)" d="M 445.119772 183.629678 
L 445.119772 202.025241 
" style="fill:none;stroke:#9da0a2;stroke-width:1.32934;"/>
    <path clip-path="url(#p1df0e9b725)" d="M 458.647045 210.004361 
L 458.647045 217.156982 
" style="fill:none;stroke:#9da0a2;stroke-width:1.32934;"/>
    <path clip-path="url(#p1df0e9b725)" d="M 472.174318 127.647785 
L 472.174318 139.535034 
" style="fill:none;stroke:#9da0a2;stroke-width:1.32934;"/>
    <path clip-path="url(#p1df0e9b725)" d="M 485.70159 133.798536 
L 485.70159 167.430687 
" style="fill:none;stroke:#9da0a2;stroke-width:1.32934;"/>
   </g>
   <g id="line2d_17">
    <path clip-path="url(#p1df0e9b725)" d="M 79.88341 78.200898 
L 93.410682 78.157852 
L 106.937955 69.021105 
L 120.465228 82.366286 
L 133.9925 71.7031 
L 147.519773 85.528308 
L 161.047046 89.301412 
L 174.574319 101.844267 
L 188.101591 107.702294 
L 201.628864 106.80897 
L 215.156137 133.780955 
L 228.683409 119.704922 
L 242.210682 131.770062 
L 255.737955 127.339822 
L 269.265227 144.067861 
L 282.7925 153.955241 
L 296.319773 140.150814 
L 309.847045 151.7308 
L 323.374318 141.874814 
L 336.901591 140.370856 
L 350.428863 143.625527 
L 363.956136 147.070501 
L 377.483409 150.695253 
L 391.010681 164.710872 
L 404.537954 165.77396 
L 418.065227 163.778945 
L 431.5925 191.831678 
L 445.119772 192.827459 
L 458.647045 213.580671 
L 472.174318 133.591409 
L 485.70159 150.614612 
" style="fill:none;stroke:#0077bb;stroke-width:0.886227;"/>
   </g>
   <g id="patch_3">
    <path d="M 59.5925 228.96 
L 59.5925 7.2 
" style="fill:none;stroke:#000000;stroke-linecap:square;stroke-linejoin:miter;"/>
   </g>
   <g id="patch_4">
    <path d="M 59.5925 228.96 
L 505.9925 228.96 
" style="fill:none;stroke:#000000;stroke-linecap:square;stroke-linejoin:miter;"/>
   </g>
   <g id="PathCollection_1">
    <path clip-path="url(#p1df0e9b725)" d="M 79.88341 79.973352 
C 80.35347 79.973352 80.804341 79.786595 81.136724 79.454212 
C 81.469107 79.121829 81.655864 78.670958 81.655864 78.200898 
C 81.655864 77.730838 81.469107 77.279967 81.136724 76.947584 
C 80.804341 76.615201 80.35347 76.428444 79.88341 76.428444 
C 79.41335 76.428444 78.962478 76.615201 78.630096 76.947584 
C 78.297713 77.279967 78.110956 77.730838 78.110956 78.200898 
C 78.110956 78.670958 78.297713 79.121829 78.630096 79.454212 
C 78.962478 79.786595 79.41335 79.973352 79.88341 79.973352 
z
" style="fill:#0077bb;stroke:#0077bb;stroke-width:0.886227;"/>
    <path clip-path="url(#p1df0e9b725)" d="M 93.410682 79.930306 
C 93.880743 79.930306 94.331614 79.743549 94.663997 79.411166 
C 94.996379 79.078784 95.183136 78.627913 95.183136 78.157852 
C 95.183136 77.687792 94.996379 77.236921 94.663997 76.904538 
C 94.331614 76.572155 93.880743 76.385398 93.410682 76.385398 
C 92.940622 76.385398 92.489751 76.572155 92.157368 76.904538 
C 91.824986 77.236921 91.638229 77.687792 91.638229 78.157852 
C 91.638229 78.627913 91.824986 79.078784 92.157368 79.411166 
C 92.489751 79.743549 92.940622 79.930306 93.410682 79.930306 
z
" style="fill:#0077bb;stroke:#0077bb;stroke-width:0.886227;"/>
    <path clip-path="url(#p1df0e9b725)" d="M 106.937955 70.793559 
C 107.408015 70.793559 107.858886 70.606802 108.191269 70.274419 
C 108.523652 69.942036 108.710409 69.491165 108.710409 69.021105 
C 108.710409 68.551045 108.523652 68.100174 108.191269 67.767791 
C 107.858886 67.435408 107.408015 67.248651 106.937955 67.248651 
C 106.467895 67.248651 106.017024 67.435408 105.684641 67.767791 
C 105.352258 68.100174 105.165501 68.551045 105.165501 69.021105 
C 105.165501 69.491165 105.352258 69.942036 105.684641 70.274419 
C 106.017024 70.606802 106.467895 70.793559 106.937955 70.793559 
z
" style="fill:#0077bb;stroke:#0077bb;stroke-width:0.886227;"/>
    <path clip-path="url(#p1df0e9b725)" d="M 120.465228 84.13874 
C 120.935288 84.13874 121.386159 83.951983 121.718542 83.6196 
C 122.050925 83.287217 122.237682 82.836346 122.237682 82.366286 
C 122.237682 81.896226 122.050925 81.445355 121.718542 81.112972 
C 121.386159 80.780589 120.935288 80.593832 120.465228 80.593832 
C 119.995168 80.593832 119.544296 80.780589 119.211914 81.112972 
C 118.879531 81.445355 118.692774 81.896226 118.692774 82.366286 
C 118.692774 82.836346 118.879531 83.287217 119.211914 83.6196 
C 119.544296 83.951983 119.995168 84.13874 120.465228 84.13874 
z
" style="fill:#0077bb;stroke:#0077bb;stroke-width:0.886227;"/>
    <path clip-path="url(#p1df0e9b725)" d="M 133.9925 73.475554 
C 134.462561 73.475554 134.913432 73.288797 135.245815 72.956414 
C 135.578197 72.624031 135.764954 72.17316 135.764954 71.7031 
C 135.764954 71.233039 135.578197 70.782168 135.245815 70.449786 
C 134.913432 70.117403 134.462561 69.930646 133.9925 69.930646 
C 133.52244 69.930646 133.071569 70.117403 132.739186 70.449786 
C 132.406804 70.782168 132.220047 71.233039 132.220047 71.7031 
C 132.220047 72.17316 132.406804 72.624031 132.739186 72.956414 
C 133.071569 73.288797 133.52244 73.475554 133.9925 73.475554 
z
" style="fill:#0077bb;stroke:#0077bb;stroke-width:0.886227;"/>
    <path clip-path="url(#p1df0e9b725)" d="M 147.519773 87.300762 
C 147.989833 87.300762 148.440705 87.114005 148.773087 86.781622 
C 149.10547 86.44924 149.292227 85.998369 149.292227 85.528308 
C 149.292227 85.058248 149.10547 84.607377 148.773087 84.274994 
C 148.440705 83.942611 147.989833 83.755854 147.519773 83.755854 
C 147.049713 83.755854 146.598842 83.942611 146.266459 84.274994 
C 145.934076 84.607377 145.747319 85.058248 145.747319 85.528308 
C 145.747319 85.998369 145.934076 86.44924 146.266459 86.781622 
C 146.598842 87.114005 147.049713 87.300762 147.519773 87.300762 
z
" style="fill:#0077bb;stroke:#0077bb;stroke-width:0.886227;"/>
    <path clip-path="url(#p1df0e9b725)" d="M 161.047046 91.073866 
C 161.517106 91.073866 161.967977 90.887109 162.30036 90.554726 
C 162.632743 90.222344 162.8195 89.771472 162.8195 89.301412 
C 162.8195 88.831352 162.632743 88.380481 162.30036 88.048098 
C 161.967977 87.715715 161.517106 87.528958 161.047046 87.528958 
C 160.576986 87.528958 160.126115 87.715715 159.793732 88.048098 
C 159.461349 88.380481 159.274592 88.831352 159.274592 89.301412 
C 159.274592 89.771472 159.461349 90.222344 159.793732 90.554726 
C 160.126115 90.887109 160.576986 91.073866 161.047046 91.073866 
z
" style="fill:#0077bb;stroke:#0077bb;stroke-width:0.886227;"/>
    <path clip-path="url(#p1df0e9b725)" d="M 174.574319 103.616721 
C 175.044379 103.616721 175.49525 103.429964 175.827633 103.097581 
C 176.160015 102.765198 176.346772 102.314327 176.346772 101.844267 
C 176.346772 101.374207 176.160015 100.923336 175.827633 100.590953 
C 175.49525 100.25857 175.044379 100.071813 174.574319 100.071813 
C 174.104258 100.071813 173.653387 100.25857 173.321004 100.590953 
C 172.988622 100.923336 172.801865 101.374207 172.801865 101.844267 
C 172.801865 102.314327 172.988622 102.765198 173.321004 103.097581 
C 173.653387 103.429964 174.104258 103.616721 174.574319 103.616721 
z
" style="fill:#0077bb;stroke:#0077bb;stroke-width:0.886227;"/>
    <path clip-path="url(#p1df0e9b725)" d="M 188.101591 109.474747 
C 188.571651 109.474747 189.022523 109.28799 189.354905 108.955608 
C 189.687288 108.623225 189.874045 108.172354 189.874045 107.702294 
C 189.874045 107.232233 189.687288 106.781362 189.354905 106.448979 
C 189.022523 106.116597 188.571651 105.92984 188.101591 105.92984 
C 187.631531 105.92984 187.18066 106.116597 186.848277 106.448979 
C 186.515894 106.781362 186.329137 107.232233 186.329137 107.702294 
C 186.329137 108.172354 186.515894 108.623225 186.848277 108.955608 
C 187.18066 109.28799 187.631531 109.474747 188.101591 109.474747 
z
" style="fill:#0077bb;stroke:#0077bb;stroke-width:0.886227;"/>
    <path clip-path="url(#p1df0e9b725)" d="M 201.628864 108.581424 
C 202.098924 108.581424 202.549795 108.394667 202.882178 108.062284 
C 203.214561 107.729901 203.401318 107.27903 203.401318 106.80897 
C 203.401318 106.33891 203.214561 105.888039 202.882178 105.555656 
C 202.549795 105.223273 202.098924 105.036516 201.628864 105.036516 
C 201.158804 105.036516 200.707933 105.223273 200.37555 105.555656 
C 200.043167 105.888039 199.85641 106.33891 199.85641 106.80897 
C 199.85641 107.27903 200.043167 107.729901 200.37555 108.062284 
C 200.707933 108.394667 201.158804 108.581424 201.628864 108.581424 
z
" style="fill:#0077bb;stroke:#0077bb;stroke-width:0.886227;"/>
    <path clip-path="url(#p1df0e9b725)" d="M 215.156137 135.553409 
C 215.626197 135.553409 216.077068 135.366652 216.409451 135.034269 
C 216.741834 134.701886 216.92859 134.251015 216.92859 133.780955 
C 216.92859 133.310894 216.741834 132.860023 216.409451 132.527641 
C 216.077068 132.195258 215.626197 132.008501 215.156137 132.008501 
C 214.686076 132.008501 214.235205 132.195258 213.902822 132.527641 
C 213.57044 132.860023 213.383683 133.310894 213.383683 133.780955 
C 213.383683 134.251015 213.57044 134.701886 213.902822 135.034269 
C 214.235205 135.366652 214.686076 135.553409 215.156137 135.553409 
z
" style="fill:#0077bb;stroke:#0077bb;stroke-width:0.886227;"/>
    <path clip-path="url(#p1df0e9b725)" d="M 228.683409 121.477376 
C 229.15347 121.477376 229.604341 121.290619 229.936723 120.958237 
C 230.269106 120.625854 230.455863 120.174983 230.455863 119.704922 
C 230.455863 119.234862 230.269106 118.783991 229.936723 118.451608 
C 229.604341 118.119225 229.15347 117.932469 228.683409 117.932469 
C 228.213349 117.932469 227.762478 118.119225 227.430095 118.451608 
C 227.097712 118.783991 226.910955 119.234862 226.910955 119.704922 
C 226.910955 120.174983 227.097712 120.625854 227.430095 120.958237 
C 227.762478 121.290619 228.213349 121.477376 228.683409 121.477376 
z
" style="fill:#0077bb;stroke:#0077bb;stroke-width:0.886227;"/>
    <path clip-path="url(#p1df0e9b725)" d="M 242.210682 133.542515 
C 242.680742 133.542515 243.131613 133.355759 243.463996 133.023376 
C 243.796379 132.690993 243.983136 132.240122 243.983136 131.770062 
C 243.983136 131.300001 243.796379 130.84913 243.463996 130.516747 
C 243.131613 130.184365 242.680742 129.997608 242.210682 129.997608 
C 241.740622 129.997608 241.289751 130.184365 240.957368 130.516747 
C 240.624985 130.84913 240.438228 131.300001 240.438228 131.770062 
C 240.438228 132.240122 240.624985 132.690993 240.957368 133.023376 
C 241.289751 133.355759 241.740622 133.542515 242.210682 133.542515 
z
" style="fill:#0077bb;stroke:#0077bb;stroke-width:0.886227;"/>
    <path clip-path="url(#p1df0e9b725)" d="M 255.737955 129.112276 
C 256.208015 129.112276 256.658886 128.925519 256.991269 128.593136 
C 257.323652 128.260753 257.510408 127.809882 257.510408 127.339822 
C 257.510408 126.869761 257.323652 126.41889 256.991269 126.086508 
C 256.658886 125.754125 256.208015 125.567368 255.737955 125.567368 
C 255.267894 125.567368 254.817023 125.754125 254.48464 126.086508 
C 254.152258 126.41889 253.965501 126.869761 253.965501 127.339822 
C 253.965501 127.809882 254.152258 128.260753 254.48464 128.593136 
C 254.817023 128.925519 255.267894 129.112276 255.737955 129.112276 
z
" style="fill:#0077bb;stroke:#0077bb;stroke-width:0.886227;"/>
    <path clip-path="url(#p1df0e9b725)" d="M 269.265227 145.840315 
C 269.735288 145.840315 270.186159 145.653558 270.518541 145.321175 
C 270.850924 144.988792 271.037681 144.537921 271.037681 144.067861 
C 271.037681 143.597801 270.850924 143.14693 270.518541 142.814547 
C 270.186159 142.482164 269.735288 142.295407 269.265227 142.295407 
C 268.795167 142.295407 268.344296 142.482164 268.011913 142.814547 
C 267.67953 143.14693 267.492773 143.597801 267.492773 144.067861 
C 267.492773 144.537921 267.67953 144.988792 268.011913 145.321175 
C 268.344296 145.653558 268.795167 145.840315 269.265227 145.840315 
z
" style="fill:#0077bb;stroke:#0077bb;stroke-width:0.886227;"/>
    <path clip-path="url(#p1df0e9b725)" d="M 282.7925 155.727695 
C 283.26256 155.727695 283.713431 155.540938 284.045814 155.208555 
C 284.378197 154.876172 284.564954 154.425301 284.564954 153.955241 
C 284.564954 153.485181 284.378197 153.03431 284.045814 152.701927 
C 283.713431 152.369544 283.26256 152.182787 282.7925 152.182787 
C 282.32244 152.182787 281.871569 152.369544 281.539186 152.701927 
C 281.206803 153.03431 281.020046 153.485181 281.020046 153.955241 
C 281.020046 154.425301 281.206803 154.876172 281.539186 155.208555 
C 281.871569 155.540938 282.32244 155.727695 282.7925 155.727695 
z
" style="fill:#0077bb;stroke:#0077bb;stroke-width:0.886227;"/>
    <path clip-path="url(#p1df0e9b725)" d="M 296.319773 141.923268 
C 296.789833 141.923268 297.240704 141.736511 297.573087 141.404129 
C 297.90547 141.071746 298.092227 140.620875 298.092227 140.150814 
C 298.092227 139.680754 297.90547 139.229883 297.573087 138.8975 
C 297.240704 138.565118 296.789833 138.378361 296.319773 138.378361 
C 295.849712 138.378361 295.398841 138.565118 295.066459 138.8975 
C 294.734076 139.229883 294.547319 139.680754 294.547319 140.150814 
C 294.547319 140.620875 294.734076 141.071746 295.066459 141.404129 
C 295.398841 141.736511 295.849712 141.923268 296.319773 141.923268 
z
" style="fill:#0077bb;stroke:#0077bb;stroke-width:0.886227;"/>
    <path clip-path="url(#p1df0e9b725)" d="M 309.847045 153.503254 
C 310.317106 153.503254 310.767977 153.316497 311.10036 152.984114 
C 311.432742 152.651732 311.619499 152.20086 311.619499 151.7308 
C 311.619499 151.26074 311.432742 150.809869 311.10036 150.477486 
C 310.767977 150.145103 310.317106 149.958346 309.847045 149.958346 
C 309.376985 149.958346 308.926114 150.145103 308.593731 150.477486 
C 308.261348 150.809869 308.074592 151.26074 308.074592 151.7308 
C 308.074592 152.20086 308.261348 152.651732 308.593731 152.984114 
C 308.926114 153.316497 309.376985 153.503254 309.847045 153.503254 
z
" style="fill:#0077bb;stroke:#0077bb;stroke-width:0.886227;"/>
    <path clip-path="url(#p1df0e9b725)" d="M 323.374318 143.647268 
C 323.844378 143.647268 324.295249 143.460511 324.627632 143.128128 
C 324.960015 142.795745 325.146772 142.344874 325.146772 141.874814 
C 325.146772 141.404754 324.960015 140.953883 324.627632 140.6215 
C 324.295249 140.289117 323.844378 140.10236 323.374318 140.10236 
C 322.904258 140.10236 322.453387 140.289117 322.121004 140.6215 
C 321.788621 140.953883 321.601864 141.404754 321.601864 141.874814 
C 321.601864 142.344874 321.788621 142.795745 322.121004 143.128128 
C 322.453387 143.460511 322.904258 143.647268 323.374318 143.647268 
z
" style="fill:#0077bb;stroke:#0077bb;stroke-width:0.886227;"/>
    <path clip-path="url(#p1df0e9b725)" d="M 336.901591 142.14331 
C 337.371651 142.14331 337.822522 141.956553 338.154905 141.62417 
C 338.487288 141.291787 338.674045 140.840916 338.674045 140.370856 
C 338.674045 139.900795 338.487288 139.449924 338.154905 139.117542 
C 337.822522 138.785159 337.371651 138.598402 336.901591 138.598402 
C 336.43153 138.598402 335.980659 138.785159 335.648277 139.117542 
C 335.315894 139.449924 335.129137 139.900795 335.129137 140.370856 
C 335.129137 140.840916 335.315894 141.291787 335.648277 141.62417 
C 335.980659 141.956553 336.43153 142.14331 336.901591 142.14331 
z
" style="fill:#0077bb;stroke:#0077bb;stroke-width:0.886227;"/>
    <path clip-path="url(#p1df0e9b725)" d="M 350.428863 145.397981 
C 350.898924 145.397981 351.349795 145.211224 351.682178 144.878841 
C 352.01456 144.546458 352.201317 144.095587 352.201317 143.625527 
C 352.201317 143.155467 352.01456 142.704595 351.682178 142.372213 
C 351.349795 142.03983 350.898924 141.853073 350.428863 141.853073 
C 349.958803 141.853073 349.507932 142.03983 349.175549 142.372213 
C 348.843166 142.704595 348.65641 143.155467 348.65641 143.625527 
C 348.65641 144.095587 348.843166 144.546458 349.175549 144.878841 
C 349.507932 145.211224 349.958803 145.397981 350.428863 145.397981 
z
" style="fill:#0077bb;stroke:#0077bb;stroke-width:0.886227;"/>
    <path clip-path="url(#p1df0e9b725)" d="M 363.956136 148.842955 
C 364.426196 148.842955 364.877067 148.656198 365.20945 148.323815 
C 365.541833 147.991432 365.72859 147.540561 365.72859 147.070501 
C 365.72859 146.600441 365.541833 146.149569 365.20945 145.817187 
C 364.877067 145.484804 364.426196 145.298047 363.956136 145.298047 
C 363.486076 145.298047 363.035205 145.484804 362.702822 145.817187 
C 362.370439 146.149569 362.183682 146.600441 362.183682 147.070501 
C 362.183682 147.540561 362.370439 147.991432 362.702822 148.323815 
C 363.035205 148.656198 363.486076 148.842955 363.956136 148.842955 
z
" style="fill:#0077bb;stroke:#0077bb;stroke-width:0.886227;"/>
    <path clip-path="url(#p1df0e9b725)" d="M 377.483409 152.467707 
C 377.953469 152.467707 378.40434 152.28095 378.736723 151.948567 
C 379.069106 151.616185 379.255863 151.165313 379.255863 150.695253 
C 379.255863 150.225193 379.069106 149.774322 378.736723 149.441939 
C 378.40434 149.109556 377.953469 148.922799 377.483409 148.922799 
C 377.013349 148.922799 376.562477 149.109556 376.230095 149.441939 
C 375.897712 149.774322 375.710955 150.225193 375.710955 150.695253 
C 375.710955 151.165313 375.897712 151.616185 376.230095 151.948567 
C 376.562477 152.28095 377.013349 152.467707 377.483409 152.467707 
z
" style="fill:#0077bb;stroke:#0077bb;stroke-width:0.886227;"/>
    <path clip-path="url(#p1df0e9b725)" d="M 391.010681 166.483326 
C 391.480742 166.483326 391.931613 166.296569 392.263996 165.964187 
C 392.596378 165.631804 392.783135 165.180933 392.783135 164.710872 
C 392.783135 164.240812 392.596378 163.789941 392.263996 163.457558 
C 391.931613 163.125176 391.480742 162.938419 391.010681 162.938419 
C 390.540621 162.938419 390.08975 163.125176 389.757367 163.457558 
C 389.424985 163.789941 389.238228 164.240812 389.238228 164.710872 
C 389.238228 165.180933 389.424985 165.631804 389.757367 165.964187 
C 390.08975 166.296569 390.540621 166.483326 391.010681 166.483326 
z
" style="fill:#0077bb;stroke:#0077bb;stroke-width:0.886227;"/>
    <path clip-path="url(#p1df0e9b725)" d="M 404.537954 167.546414 
C 405.008014 167.546414 405.458885 167.359657 405.791268 167.027274 
C 406.123651 166.694891 406.310408 166.24402 406.310408 165.77396 
C 406.310408 165.303899 406.123651 164.853028 405.791268 164.520646 
C 405.458885 164.188263 405.008014 164.001506 404.537954 164.001506 
C 404.067894 164.001506 403.617023 164.188263 403.28464 164.520646 
C 402.952257 164.853028 402.7655 165.303899 402.7655 165.77396 
C 402.7655 166.24402 402.952257 166.694891 403.28464 167.027274 
C 403.617023 167.359657 404.067894 167.546414 404.537954 167.546414 
z
" style="fill:#0077bb;stroke:#0077bb;stroke-width:0.886227;"/>
    <path clip-path="url(#p1df0e9b725)" d="M 418.065227 165.551399 
C 418.535287 165.551399 418.986158 165.364642 419.318541 165.032259 
C 419.650924 164.699877 419.837681 164.249006 419.837681 163.778945 
C 419.837681 163.308885 419.650924 162.858014 419.318541 162.525631 
C 418.986158 162.193248 418.535287 162.006491 418.065227 162.006491 
C 417.595167 162.006491 417.144295 162.193248 416.811913 162.525631 
C 416.47953 162.858014 416.292773 163.308885 416.292773 163.778945 
C 416.292773 164.249006 416.47953 164.699877 416.811913 165.032259 
C 417.144295 165.364642 417.595167 165.551399 418.065227 165.551399 
z
" style="fill:#0077bb;stroke:#0077bb;stroke-width:0.886227;"/>
    <path clip-path="url(#p1df0e9b725)" d="M 431.5925 193.604132 
C 432.06256 193.604132 432.513431 193.417375 432.845814 193.084992 
C 433.178196 192.752609 433.364953 192.301738 433.364953 191.831678 
C 433.364953 191.361618 433.178196 190.910747 432.845814 190.578364 
C 432.513431 190.245981 432.06256 190.059224 431.5925 190.059224 
C 431.122439 190.059224 430.671568 190.245981 430.339185 190.578364 
C 430.006803 190.910747 429.820046 191.361618 429.820046 191.831678 
C 429.820046 192.301738 430.006803 192.752609 430.339185 193.084992 
C 430.671568 193.417375 431.122439 193.604132 431.5925 193.604132 
z
" style="fill:#0077bb;stroke:#0077bb;stroke-width:0.886227;"/>
    <path clip-path="url(#p1df0e9b725)" d="M 445.119772 194.599913 
C 445.589832 194.599913 446.040704 194.413156 446.373086 194.080773 
C 446.705469 193.748391 446.892226 193.29752 446.892226 192.827459 
C 446.892226 192.357399 446.705469 191.906528 446.373086 191.574145 
C 446.040704 191.241762 445.589832 191.055005 445.119772 191.055005 
C 444.649712 191.055005 444.198841 191.241762 443.866458 191.574145 
C 443.534075 191.906528 443.347318 192.357399 443.347318 192.827459 
C 443.347318 193.29752 443.534075 193.748391 443.866458 194.080773 
C 444.198841 194.413156 444.649712 194.599913 445.119772 194.599913 
z
" style="fill:#0077bb;stroke:#0077bb;stroke-width:0.886227;"/>
    <path clip-path="url(#p1df0e9b725)" d="M 458.647045 215.353125 
C 459.117105 215.353125 459.567976 215.166368 459.900359 214.833985 
C 460.232742 214.501602 460.419499 214.050731 460.419499 213.580671 
C 460.419499 213.110611 460.232742 212.65974 459.900359 212.327357 
C 459.567976 211.994974 459.117105 211.808217 458.647045 211.808217 
C 458.176985 211.808217 457.726114 211.994974 457.393731 212.327357 
C 457.061348 212.65974 456.874591 213.110611 456.874591 213.580671 
C 456.874591 214.050731 457.061348 214.501602 457.393731 214.833985 
C 457.726114 215.166368 458.176985 215.353125 458.647045 215.353125 
z
" style="fill:#0077bb;stroke:#0077bb;stroke-width:0.886227;"/>
    <path clip-path="url(#p1df0e9b725)" d="M 472.174318 135.363863 
C 472.644378 135.363863 473.095249 135.177106 473.427632 134.844724 
C 473.760014 134.512341 473.946771 134.06147 473.946771 133.591409 
C 473.946771 133.121349 473.760014 132.670478 473.427632 132.338095 
C 473.095249 132.005712 472.644378 131.818956 472.174318 131.818956 
C 471.704257 131.818956 471.253386 132.005712 470.921003 132.338095 
C 470.588621 132.670478 470.401864 133.121349 470.401864 133.591409 
C 470.401864 134.06147 470.588621 134.512341 470.921003 134.844724 
C 471.253386 135.177106 471.704257 135.363863 472.174318 135.363863 
z
" style="fill:#0077bb;stroke:#0077bb;stroke-width:0.886227;"/>
    <path clip-path="url(#p1df0e9b725)" d="M 485.70159 152.387066 
C 486.17165 152.387066 486.622522 152.200309 486.954904 151.867926 
C 487.287287 151.535543 487.474044 151.084672 487.474044 150.614612 
C 487.474044 150.144551 487.287287 149.69368 486.954904 149.361298 
C 486.622522 149.028915 486.17165 148.842158 485.70159 148.842158 
C 485.23153 148.842158 484.780659 149.028915 484.448276 149.361298 
C 484.115893 149.69368 483.929136 150.144551 483.929136 150.614612 
C 483.929136 151.084672 484.115893 151.535543 484.448276 151.867926 
C 484.780659 152.200309 485.23153 152.387066 485.70159 152.387066 
z
" style="fill:#0077bb;stroke:#0077bb;stroke-width:0.886227;"/>
   </g>
  </g>
 </g>
 <defs>
  <clipPath id="p1df0e9b725">
   <rect height="221.76" width="446.4" x="59.5925" y="7.2"/>
  </clipPath>
 </defs>
</svg>
