<?xml version="1.0" encoding="utf-8" standalone="no"?>
<!DOCTYPE svg PUBLIC "-//W3C//DTD SVG 1.1//EN"
  "http://www.w3.org/Graphics/SVG/1.1/DTD/svg11.dtd">
<!-- Created with matplotlib (https://matplotlib.org/) -->
<svg height="274.544375pt" version="1.1" viewBox="0 0 513.1925 274.544375" width="513.1925pt" xmlns="http://www.w3.org/2000/svg" xmlns:xlink="http://www.w3.org/1999/xlink">
 <defs>
  <style type="text/css">
*{stroke-linecap:butt;stroke-linejoin:round;}
  </style>
 </defs>
 <g id="figure_1">
  <g id="patch_1">
   <path d="M 0 274.544375 
L 513.1925 274.544375 
L 513.1925 0 
L 0 0 
z
" style="fill:#ffffff;stroke:#ffffff;stroke-linejoin:miter;"/>
  </g>
  <g id="axes_1">
   <g id="patch_2">
    <path d="M 59.5925 228.96 
L 505.9925 228.96 
L 505.9925 7.2 
L 59.5925 7.2 
z
" style="fill:#ffffff;"/>
   </g>
   <g id="matplotlib.axis_1">
    <g id="xtick_1">
     <g id="line2d_1">
      <path d="M 79.883409 228.96 
" style="fill:none;stroke:#000000;stroke-width:1.5;"/>
      <defs>
       <path d="M 0 0 
L 0 2.75 
" id="mbed247cebd" style="stroke:#000000;"/>
      </defs>
      <g>
       <use style="stroke:#000000;" x="79.883409" xlink:href="#mbed247cebd" y="228.96"/>
      </g>
     </g>
     <g id="text_1">
      <!-- 1970 -->
      <defs>
       <path d="M 12.40625 8.296875 
L 28.515625 8.296875 
L 28.515625 63.921875 
L 10.984375 60.40625 
L 10.984375 69.390625 
L 28.421875 72.90625 
L 38.28125 72.90625 
L 38.28125 8.296875 
L 54.390625 8.296875 
L 54.390625 0 
L 12.40625 0 
z
" id="DejaVuSans-49"/>
       <path d="M 10.984375 1.515625 
L 10.984375 10.5 
Q 14.703125 8.734375 18.5 7.8125 
Q 22.3125 6.890625 25.984375 6.890625 
Q 35.75 6.890625 40.890625 13.453125 
Q 46.046875 20.015625 46.78125 33.40625 
Q 43.953125 29.203125 39.59375 26.953125 
Q 35.25 24.703125 29.984375 24.703125 
Q 19.046875 24.703125 12.671875 31.3125 
Q 6.296875 37.9375 6.296875 49.421875 
Q 6.296875 60.640625 12.9375 67.421875 
Q 19.578125 74.21875 30.609375 74.21875 
Q 43.265625 74.21875 49.921875 64.515625 
Q 56.59375 54.828125 56.59375 36.375 
Q 56.59375 19.140625 48.40625 8.859375 
Q 40.234375 -1.421875 26.421875 -1.421875 
Q 22.703125 -1.421875 18.890625 -0.6875 
Q 15.09375 0.046875 10.984375 1.515625 
z
M 30.609375 32.421875 
Q 37.25 32.421875 41.125 36.953125 
Q 45.015625 41.5 45.015625 49.421875 
Q 45.015625 57.28125 41.125 61.84375 
Q 37.25 66.40625 30.609375 66.40625 
Q 23.96875 66.40625 20.09375 61.84375 
Q 16.21875 57.28125 16.21875 49.421875 
Q 16.21875 41.5 20.09375 36.953125 
Q 23.96875 32.421875 30.609375 32.421875 
z
" id="DejaVuSans-57"/>
       <path d="M 8.203125 72.90625 
L 55.078125 72.90625 
L 55.078125 68.703125 
L 28.609375 0 
L 18.3125 0 
L 43.21875 64.59375 
L 8.203125 64.59375 
z
" id="DejaVuSans-55"/>
       <path d="M 31.78125 66.40625 
Q 24.171875 66.40625 20.328125 58.90625 
Q 16.5 51.421875 16.5 36.375 
Q 16.5 21.390625 20.328125 13.890625 
Q 24.171875 6.390625 31.78125 6.390625 
Q 39.453125 6.390625 43.28125 13.890625 
Q 47.125 21.390625 47.125 36.375 
Q 47.125 51.421875 43.28125 58.90625 
Q 39.453125 66.40625 31.78125 66.40625 
z
M 31.78125 74.21875 
Q 44.046875 74.21875 50.515625 64.515625 
Q 56.984375 54.828125 56.984375 36.375 
Q 56.984375 17.96875 50.515625 8.265625 
Q 44.046875 -1.421875 31.78125 -1.421875 
Q 19.53125 -1.421875 13.0625 8.265625 
Q 6.59375 17.96875 6.59375 36.375 
Q 6.59375 54.828125 13.0625 64.515625 
Q 19.53125 74.21875 31.78125 74.21875 
z
" id="DejaVuSans-48"/>
      </defs>
      <g transform="translate(62.068409 244.547813)scale(0.14 -0.14)">
       <use xlink:href="#DejaVuSans-49"/>
       <use x="63.623047" xlink:href="#DejaVuSans-57"/>
       <use x="127.246094" xlink:href="#DejaVuSans-55"/>
       <use x="190.869141" xlink:href="#DejaVuSans-48"/>
      </g>
     </g>
    </g>
    <g id="xtick_2">
     <g id="line2d_2">
      <path d="M 161.047045 228.96 
" style="fill:none;stroke:#000000;stroke-width:1.5;"/>
      <g>
       <use style="stroke:#000000;" x="161.047045" xlink:href="#mbed247cebd" y="228.96"/>
      </g>
     </g>
     <g id="text_2">
      <!-- 1980 -->
      <defs>
       <path d="M 31.78125 34.625 
Q 24.75 34.625 20.71875 30.859375 
Q 16.703125 27.09375 16.703125 20.515625 
Q 16.703125 13.921875 20.71875 10.15625 
Q 24.75 6.390625 31.78125 6.390625 
Q 38.8125 6.390625 42.859375 10.171875 
Q 46.921875 13.96875 46.921875 20.515625 
Q 46.921875 27.09375 42.890625 30.859375 
Q 38.875 34.625 31.78125 34.625 
z
M 21.921875 38.8125 
Q 15.578125 40.375 12.03125 44.71875 
Q 8.5 49.078125 8.5 55.328125 
Q 8.5 64.0625 14.71875 69.140625 
Q 20.953125 74.21875 31.78125 74.21875 
Q 42.671875 74.21875 48.875 69.140625 
Q 55.078125 64.0625 55.078125 55.328125 
Q 55.078125 49.078125 51.53125 44.71875 
Q 48 40.375 41.703125 38.8125 
Q 48.828125 37.15625 52.796875 32.3125 
Q 56.78125 27.484375 56.78125 20.515625 
Q 56.78125 9.90625 50.3125 4.234375 
Q 43.84375 -1.421875 31.78125 -1.421875 
Q 19.734375 -1.421875 13.25 4.234375 
Q 6.78125 9.90625 6.78125 20.515625 
Q 6.78125 27.484375 10.78125 32.3125 
Q 14.796875 37.15625 21.921875 38.8125 
z
M 18.3125 54.390625 
Q 18.3125 48.734375 21.84375 45.5625 
Q 25.390625 42.390625 31.78125 42.390625 
Q 38.140625 42.390625 41.71875 45.5625 
Q 45.3125 48.734375 45.3125 54.390625 
Q 45.3125 60.0625 41.71875 63.234375 
Q 38.140625 66.40625 31.78125 66.40625 
Q 25.390625 66.40625 21.84375 63.234375 
Q 18.3125 60.0625 18.3125 54.390625 
z
" id="DejaVuSans-56"/>
      </defs>
      <g transform="translate(143.232045 244.547813)scale(0.14 -0.14)">
       <use xlink:href="#DejaVuSans-49"/>
       <use x="63.623047" xlink:href="#DejaVuSans-57"/>
       <use x="127.246094" xlink:href="#DejaVuSans-56"/>
       <use x="190.869141" xlink:href="#DejaVuSans-48"/>
      </g>
     </g>
    </g>
    <g id="xtick_3">
     <g id="line2d_3">
      <path d="M 242.210682 228.96 
" style="fill:none;stroke:#000000;stroke-width:1.5;"/>
      <g>
       <use style="stroke:#000000;" x="242.210682" xlink:href="#mbed247cebd" y="228.96"/>
      </g>
     </g>
     <g id="text_3">
      <!-- 1990 -->
      <g transform="translate(224.395682 244.547813)scale(0.14 -0.14)">
       <use xlink:href="#DejaVuSans-49"/>
       <use x="63.623047" xlink:href="#DejaVuSans-57"/>
       <use x="127.246094" xlink:href="#DejaVuSans-57"/>
       <use x="190.869141" xlink:href="#DejaVuSans-48"/>
      </g>
     </g>
    </g>
    <g id="xtick_4">
     <g id="line2d_4">
      <path d="M 323.374318 228.96 
" style="fill:none;stroke:#000000;stroke-width:1.5;"/>
      <g>
       <use style="stroke:#000000;" x="323.374318" xlink:href="#mbed247cebd" y="228.96"/>
      </g>
     </g>
     <g id="text_4">
      <!-- 2000 -->
      <defs>
       <path d="M 19.1875 8.296875 
L 53.609375 8.296875 
L 53.609375 0 
L 7.328125 0 
L 7.328125 8.296875 
Q 12.9375 14.109375 22.625 23.890625 
Q 32.328125 33.6875 34.8125 36.53125 
Q 39.546875 41.84375 41.421875 45.53125 
Q 43.3125 49.21875 43.3125 52.78125 
Q 43.3125 58.59375 39.234375 62.25 
Q 35.15625 65.921875 28.609375 65.921875 
Q 23.96875 65.921875 18.8125 64.3125 
Q 13.671875 62.703125 7.8125 59.421875 
L 7.8125 69.390625 
Q 13.765625 71.78125 18.9375 73 
Q 24.125 74.21875 28.421875 74.21875 
Q 39.75 74.21875 46.484375 68.546875 
Q 53.21875 62.890625 53.21875 53.421875 
Q 53.21875 48.921875 51.53125 44.890625 
Q 49.859375 40.875 45.40625 35.40625 
Q 44.1875 33.984375 37.640625 27.21875 
Q 31.109375 20.453125 19.1875 8.296875 
z
" id="DejaVuSans-50"/>
      </defs>
      <g transform="translate(305.559318 244.547813)scale(0.14 -0.14)">
       <use xlink:href="#DejaVuSans-50"/>
       <use x="63.623047" xlink:href="#DejaVuSans-48"/>
       <use x="127.246094" xlink:href="#DejaVuSans-48"/>
       <use x="190.869141" xlink:href="#DejaVuSans-48"/>
      </g>
     </g>
    </g>
    <g id="xtick_5">
     <g id="line2d_5">
      <path d="M 404.537955 228.96 
" style="fill:none;stroke:#000000;stroke-width:1.5;"/>
      <g>
       <use style="stroke:#000000;" x="404.537955" xlink:href="#mbed247cebd" y="228.96"/>
      </g>
     </g>
     <g id="text_5">
      <!-- 2010 -->
      <g transform="translate(386.722955 244.547813)scale(0.14 -0.14)">
       <use xlink:href="#DejaVuSans-50"/>
       <use x="63.623047" xlink:href="#DejaVuSans-48"/>
       <use x="127.246094" xlink:href="#DejaVuSans-49"/>
       <use x="190.869141" xlink:href="#DejaVuSans-48"/>
      </g>
     </g>
    </g>
    <g id="xtick_6">
     <g id="line2d_6">
      <path d="M 485.701591 228.96 
" style="fill:none;stroke:#000000;stroke-width:1.5;"/>
      <g>
       <use style="stroke:#000000;" x="485.701591" xlink:href="#mbed247cebd" y="228.96"/>
      </g>
     </g>
     <g id="text_6">
      <!-- 2020 -->
      <g transform="translate(467.886591 244.547813)scale(0.14 -0.14)">
       <use xlink:href="#DejaVuSans-50"/>
       <use x="63.623047" xlink:href="#DejaVuSans-48"/>
       <use x="127.246094" xlink:href="#DejaVuSans-50"/>
       <use x="190.869141" xlink:href="#DejaVuSans-48"/>
      </g>
     </g>
    </g>
    <g id="xtick_7">
     <g id="line2d_7">
      <path d="M 120.465227 228.96 
" style="fill:none;stroke:#000000;stroke-width:1.5;"/>
      <defs>
       <path d="M 0 0 
L 0 1.375 
" id="m16a8913003" style="stroke:#000000;"/>
      </defs>
      <g>
       <use style="stroke:#000000;" x="120.465227" xlink:href="#m16a8913003" y="228.96"/>
      </g>
     </g>
    </g>
    <g id="xtick_8">
     <g id="line2d_8">
      <path d="M 201.628864 228.96 
" style="fill:none;stroke:#000000;stroke-width:1.5;"/>
      <g>
       <use style="stroke:#000000;" x="201.628864" xlink:href="#m16a8913003" y="228.96"/>
      </g>
     </g>
    </g>
    <g id="xtick_9">
     <g id="line2d_9">
      <path d="M 282.7925 228.96 
" style="fill:none;stroke:#000000;stroke-width:1.5;"/>
      <g>
       <use style="stroke:#000000;" x="282.7925" xlink:href="#m16a8913003" y="228.96"/>
      </g>
     </g>
    </g>
    <g id="xtick_10">
     <g id="line2d_10">
      <path d="M 363.956136 228.96 
" style="fill:none;stroke:#000000;stroke-width:1.5;"/>
      <g>
       <use style="stroke:#000000;" x="363.956136" xlink:href="#m16a8913003" y="228.96"/>
      </g>
     </g>
    </g>
    <g id="xtick_11">
     <g id="line2d_11">
      <path d="M 445.119773 228.96 
" style="fill:none;stroke:#000000;stroke-width:1.5;"/>
      <g>
       <use style="stroke:#000000;" x="445.119773" xlink:href="#m16a8913003" y="228.96"/>
      </g>
     </g>
    </g>
    <g id="text_7">
     <!-- Year -->
     <defs>
      <path d="M -0.203125 72.90625 
L 10.40625 72.90625 
L 30.609375 42.921875 
L 50.6875 72.90625 
L 61.28125 72.90625 
L 35.5 34.71875 
L 35.5 0 
L 25.59375 0 
L 25.59375 34.71875 
z
" id="DejaVuSans-89"/>
      <path d="M 56.203125 29.59375 
L 56.203125 25.203125 
L 14.890625 25.203125 
Q 15.484375 15.921875 20.484375 11.0625 
Q 25.484375 6.203125 34.421875 6.203125 
Q 39.59375 6.203125 44.453125 7.46875 
Q 49.3125 8.734375 54.109375 11.28125 
L 54.109375 2.78125 
Q 49.265625 0.734375 44.1875 -0.34375 
Q 39.109375 -1.421875 33.890625 -1.421875 
Q 20.796875 -1.421875 13.15625 6.1875 
Q 5.515625 13.8125 5.515625 26.8125 
Q 5.515625 40.234375 12.765625 48.109375 
Q 20.015625 56 32.328125 56 
Q 43.359375 56 49.78125 48.890625 
Q 56.203125 41.796875 56.203125 29.59375 
z
M 47.21875 32.234375 
Q 47.125 39.59375 43.09375 43.984375 
Q 39.0625 48.390625 32.421875 48.390625 
Q 24.90625 48.390625 20.390625 44.140625 
Q 15.875 39.890625 15.1875 32.171875 
z
" id="DejaVuSans-101"/>
      <path d="M 34.28125 27.484375 
Q 23.390625 27.484375 19.1875 25 
Q 14.984375 22.515625 14.984375 16.5 
Q 14.984375 11.71875 18.140625 8.90625 
Q 21.296875 6.109375 26.703125 6.109375 
Q 34.1875 6.109375 38.703125 11.40625 
Q 43.21875 16.703125 43.21875 25.484375 
L 43.21875 27.484375 
z
M 52.203125 31.203125 
L 52.203125 0 
L 43.21875 0 
L 43.21875 8.296875 
Q 40.140625 3.328125 35.546875 0.953125 
Q 30.953125 -1.421875 24.3125 -1.421875 
Q 15.921875 -1.421875 10.953125 3.296875 
Q 6 8.015625 6 15.921875 
Q 6 25.140625 12.171875 29.828125 
Q 18.359375 34.515625 30.609375 34.515625 
L 43.21875 34.515625 
L 43.21875 35.40625 
Q 43.21875 41.609375 39.140625 45 
Q 35.0625 48.390625 27.6875 48.390625 
Q 23 48.390625 18.546875 47.265625 
Q 14.109375 46.140625 10.015625 43.890625 
L 10.015625 52.203125 
Q 14.9375 54.109375 19.578125 55.046875 
Q 24.21875 56 28.609375 56 
Q 40.484375 56 46.34375 49.84375 
Q 52.203125 43.703125 52.203125 31.203125 
z
" id="DejaVuSans-97"/>
      <path d="M 41.109375 46.296875 
Q 39.59375 47.171875 37.8125 47.578125 
Q 36.03125 48 33.890625 48 
Q 26.265625 48 22.1875 43.046875 
Q 18.109375 38.09375 18.109375 28.8125 
L 18.109375 0 
L 9.078125 0 
L 9.078125 54.6875 
L 18.109375 54.6875 
L 18.109375 46.1875 
Q 20.953125 51.171875 25.484375 53.578125 
Q 30.03125 56 36.53125 56 
Q 37.453125 56 38.578125 55.875 
Q 39.703125 55.765625 41.0625 55.515625 
z
" id="DejaVuSans-114"/>
     </defs>
     <g transform="translate(257.60875 264.016875)scale(0.16 -0.16)">
      <use xlink:href="#DejaVuSans-89"/>
      <use x="60.880859" xlink:href="#DejaVuSans-101"/>
      <use x="122.404297" xlink:href="#DejaVuSans-97"/>
      <use x="183.683594" xlink:href="#DejaVuSans-114"/>
     </g>
    </g>
   </g>
   <g id="matplotlib.axis_2">
    <g id="ytick_1">
     <g id="line2d_12">
      <path d="M 59.5925 218.88 
" style="fill:none;stroke:#000000;stroke-width:1.5;"/>
      <defs>
       <path d="M 0 0 
L -2.75 0 
" id="mba519952e0" style="stroke:#000000;"/>
      </defs>
      <g>
       <use style="stroke:#000000;" x="59.5925" xlink:href="#mba519952e0" y="218.88"/>
      </g>
     </g>
     <g id="text_8">
      <!-- 0 -->
      <g transform="translate(45.735 222.743125)scale(0.14 -0.14)">
       <use xlink:href="#DejaVuSans-48"/>
      </g>
     </g>
    </g>
    <g id="ytick_2">
     <g id="line2d_13">
      <path d="M 59.5925 168.48 
" style="fill:none;stroke:#000000;stroke-width:1.5;"/>
      <g>
       <use style="stroke:#000000;" x="59.5925" xlink:href="#mba519952e0" y="168.48"/>
      </g>
     </g>
     <g id="text_9">
      <!-- 25 -->
      <defs>
       <path d="M 10.796875 72.90625 
L 49.515625 72.90625 
L 49.515625 64.59375 
L 19.828125 64.59375 
L 19.828125 46.734375 
Q 21.96875 47.46875 24.109375 47.828125 
Q 26.265625 48.1875 28.421875 48.1875 
Q 40.625 48.1875 47.75 41.5 
Q 54.890625 34.8125 54.890625 23.390625 
Q 54.890625 11.625 47.5625 5.09375 
Q 40.234375 -1.421875 26.90625 -1.421875 
Q 22.3125 -1.421875 17.546875 -0.640625 
Q 12.796875 0.140625 7.71875 1.703125 
L 7.71875 11.625 
Q 12.109375 9.234375 16.796875 8.0625 
Q 21.484375 6.890625 26.703125 6.890625 
Q 35.15625 6.890625 40.078125 11.328125 
Q 45.015625 15.765625 45.015625 23.390625 
Q 45.015625 31 40.078125 35.4375 
Q 35.15625 39.890625 26.703125 39.890625 
Q 22.75 39.890625 18.8125 39.015625 
Q 14.890625 38.140625 10.796875 36.28125 
z
" id="DejaVuSans-53"/>
      </defs>
      <g transform="translate(36.8275 172.343125)scale(0.14 -0.14)">
       <use xlink:href="#DejaVuSans-50"/>
       <use x="63.623047" xlink:href="#DejaVuSans-53"/>
      </g>
     </g>
    </g>
    <g id="ytick_3">
     <g id="line2d_14">
      <path d="M 59.5925 118.08 
" style="fill:none;stroke:#000000;stroke-width:1.5;"/>
      <g>
       <use style="stroke:#000000;" x="59.5925" xlink:href="#mba519952e0" y="118.08"/>
      </g>
     </g>
     <g id="text_10">
      <!-- 50 -->
      <g transform="translate(36.8275 121.943125)scale(0.14 -0.14)">
       <use xlink:href="#DejaVuSans-53"/>
       <use x="63.623047" xlink:href="#DejaVuSans-48"/>
      </g>
     </g>
    </g>
    <g id="ytick_4">
     <g id="line2d_15">
      <path d="M 59.5925 67.68 
" style="fill:none;stroke:#000000;stroke-width:1.5;"/>
      <g>
       <use style="stroke:#000000;" x="59.5925" xlink:href="#mba519952e0" y="67.68"/>
      </g>
     </g>
     <g id="text_11">
      <!-- 75 -->
      <g transform="translate(36.8275 71.543125)scale(0.14 -0.14)">
       <use xlink:href="#DejaVuSans-55"/>
       <use x="63.623047" xlink:href="#DejaVuSans-53"/>
      </g>
     </g>
    </g>
    <g id="ytick_5">
     <g id="line2d_16">
      <path d="M 59.5925 17.28 
" style="fill:none;stroke:#000000;stroke-width:1.5;"/>
      <g>
       <use style="stroke:#000000;" x="59.5925" xlink:href="#mba519952e0" y="17.28"/>
      </g>
     </g>
     <g id="text_12">
      <!-- 100 -->
      <g transform="translate(27.92 21.143125)scale(0.14 -0.14)">
       <use xlink:href="#DejaVuSans-49"/>
       <use x="63.623047" xlink:href="#DejaVuSans-48"/>
       <use x="127.246094" xlink:href="#DejaVuSans-48"/>
      </g>
     </g>
    </g>
    <g id="ytick_6">
     <g id="line2d_17">
      <path d="M 59.5925 193.68 
" style="fill:none;stroke:#000000;stroke-width:1.5;"/>
      <defs>
       <path d="M 0 0 
L -1.375 0 
" id="m53adbc4860" style="stroke:#000000;"/>
      </defs>
      <g>
       <use style="stroke:#000000;" x="59.5925" xlink:href="#m53adbc4860" y="193.68"/>
      </g>
     </g>
    </g>
    <g id="ytick_7">
     <g id="line2d_18">
      <path d="M 59.5925 143.28 
" style="fill:none;stroke:#000000;stroke-width:1.5;"/>
      <g>
       <use style="stroke:#000000;" x="59.5925" xlink:href="#m53adbc4860" y="143.28"/>
      </g>
     </g>
    </g>
    <g id="ytick_8">
     <g id="line2d_19">
      <path d="M 59.5925 92.88 
" style="fill:none;stroke:#000000;stroke-width:1.5;"/>
      <g>
       <use style="stroke:#000000;" x="59.5925" xlink:href="#m53adbc4860" y="92.88"/>
      </g>
     </g>
    </g>
    <g id="ytick_9">
     <g id="line2d_20">
      <path d="M 59.5925 42.48 
" style="fill:none;stroke:#000000;stroke-width:1.5;"/>
      <g>
       <use style="stroke:#000000;" x="59.5925" xlink:href="#m53adbc4860" y="42.48"/>
      </g>
     </g>
    </g>
    <g id="text_13">
     <!-- $P_{Q1n}$ [%] -->
     <defs>
      <path d="M 16.890625 72.90625 
L 39.703125 72.90625 
Q 49.65625 72.90625 54.875 68.265625 
Q 60.109375 63.625 60.109375 54.6875 
Q 60.109375 42.671875 52.390625 35.984375 
Q 44.671875 29.296875 30.71875 29.296875 
L 18.3125 29.296875 
L 12.59375 0 
L 2.6875 0 
z
M 25.203125 64.796875 
L 19.921875 37.40625 
L 32.328125 37.40625 
Q 40.71875 37.40625 45.203125 41.703125 
Q 49.703125 46 49.703125 54 
Q 49.703125 59.125 46.65625 61.953125 
Q 43.609375 64.796875 38.09375 64.796875 
z
" id="DejaVuSans-Oblique-80"/>
      <path d="M 36.078125 -1.3125 
Q 35.546875 -1.375 34.953125 -1.390625 
Q 34.375 -1.421875 33.203125 -1.421875 
Q 19.53125 -1.421875 11.8125 6.421875 
Q 4.109375 14.265625 4.109375 28.078125 
Q 4.109375 36.234375 7.0625 44.4375 
Q 10.015625 52.640625 15.28125 59.1875 
Q 21.390625 66.703125 29.03125 70.453125 
Q 36.671875 74.21875 45.90625 74.21875 
Q 59.28125 74.21875 66.984375 66.328125 
Q 74.703125 58.453125 74.703125 44.828125 
Q 74.703125 30.125 66.640625 17.921875 
Q 58.59375 5.71875 45.609375 0.6875 
L 55.515625 -12.890625 
L 44.484375 -12.890625 
z
M 45.609375 66.21875 
Q 37.5 66.21875 31.296875 62.28125 
Q 25.09375 58.34375 20.515625 50.296875 
Q 17.578125 45.171875 16.03125 39.40625 
Q 14.5 33.640625 14.5 27.78125 
Q 14.5 17.625 19.359375 12.109375 
Q 24.21875 6.59375 33.109375 6.59375 
Q 41.109375 6.59375 47.375 10.5625 
Q 53.65625 14.546875 58.109375 22.40625 
Q 61.078125 27.6875 62.640625 33.46875 
Q 64.203125 39.265625 64.203125 45.015625 
Q 64.203125 55.125 59.3125 60.671875 
Q 54.4375 66.21875 45.609375 66.21875 
z
" id="DejaVuSans-Oblique-81"/>
      <path d="M 55.71875 33.015625 
L 49.3125 0 
L 40.28125 0 
L 46.6875 32.671875 
Q 47.125 34.96875 47.359375 36.71875 
Q 47.609375 38.484375 47.609375 39.5 
Q 47.609375 43.609375 45.015625 45.890625 
Q 42.4375 48.1875 37.796875 48.1875 
Q 30.5625 48.1875 25.34375 43.375 
Q 20.125 38.578125 18.5 30.328125 
L 12.5 0 
L 3.515625 0 
L 14.109375 54.6875 
L 23.09375 54.6875 
L 21.296875 46.09375 
Q 25.046875 50.828125 30.3125 53.40625 
Q 35.59375 56 41.40625 56 
Q 48.640625 56 52.609375 52.09375 
Q 56.59375 48.1875 56.59375 41.109375 
Q 56.59375 39.359375 56.375 37.359375 
Q 56.15625 35.359375 55.71875 33.015625 
z
" id="DejaVuSans-Oblique-110"/>
      <path id="DejaVuSans-32"/>
      <path d="M 8.59375 75.984375 
L 29.296875 75.984375 
L 29.296875 69 
L 17.578125 69 
L 17.578125 -6.203125 
L 29.296875 -6.203125 
L 29.296875 -13.1875 
L 8.59375 -13.1875 
z
" id="DejaVuSans-91"/>
      <path d="M 72.703125 32.078125 
Q 68.453125 32.078125 66.03125 28.46875 
Q 63.625 24.859375 63.625 18.40625 
Q 63.625 12.0625 66.03125 8.421875 
Q 68.453125 4.78125 72.703125 4.78125 
Q 76.859375 4.78125 79.265625 8.421875 
Q 81.6875 12.0625 81.6875 18.40625 
Q 81.6875 24.8125 79.265625 28.4375 
Q 76.859375 32.078125 72.703125 32.078125 
z
M 72.703125 38.28125 
Q 80.421875 38.28125 84.953125 32.90625 
Q 89.5 27.546875 89.5 18.40625 
Q 89.5 9.28125 84.9375 3.921875 
Q 80.375 -1.421875 72.703125 -1.421875 
Q 64.890625 -1.421875 60.34375 3.921875 
Q 55.8125 9.28125 55.8125 18.40625 
Q 55.8125 27.59375 60.375 32.9375 
Q 64.9375 38.28125 72.703125 38.28125 
z
M 22.3125 68.015625 
Q 18.109375 68.015625 15.6875 64.375 
Q 13.28125 60.75 13.28125 54.390625 
Q 13.28125 47.953125 15.671875 44.328125 
Q 18.0625 40.71875 22.3125 40.71875 
Q 26.5625 40.71875 28.96875 44.328125 
Q 31.390625 47.953125 31.390625 54.390625 
Q 31.390625 60.6875 28.953125 64.34375 
Q 26.515625 68.015625 22.3125 68.015625 
z
M 66.40625 74.21875 
L 74.21875 74.21875 
L 28.609375 -1.421875 
L 20.796875 -1.421875 
z
M 22.3125 74.21875 
Q 30.03125 74.21875 34.609375 68.875 
Q 39.203125 63.53125 39.203125 54.390625 
Q 39.203125 45.171875 34.640625 39.84375 
Q 30.078125 34.515625 22.3125 34.515625 
Q 14.546875 34.515625 10.03125 39.859375 
Q 5.515625 45.21875 5.515625 54.390625 
Q 5.515625 63.484375 10.046875 68.84375 
Q 14.59375 74.21875 22.3125 74.21875 
z
" id="DejaVuSans-37"/>
      <path d="M 30.421875 75.984375 
L 30.421875 -13.1875 
L 9.71875 -13.1875 
L 9.71875 -6.203125 
L 21.390625 -6.203125 
L 21.390625 69 
L 9.71875 69 
L 9.71875 75.984375 
z
" id="DejaVuSans-93"/>
     </defs>
     <g transform="translate(19.36 149.6)rotate(-90)scale(0.16 -0.16)">
      <use transform="translate(0 0.015625)" xlink:href="#DejaVuSans-Oblique-80"/>
      <use transform="translate(60.302734 -16.390625)scale(0.7)" xlink:href="#DejaVuSans-Oblique-81"/>
      <use transform="translate(115.400391 -16.390625)scale(0.7)" xlink:href="#DejaVuSans-49"/>
      <use transform="translate(159.936523 -16.390625)scale(0.7)" xlink:href="#DejaVuSans-Oblique-110"/>
      <use transform="translate(207.036133 0.015625)" xlink:href="#DejaVuSans-32"/>
      <use transform="translate(238.823242 0.015625)" xlink:href="#DejaVuSans-91"/>
      <use transform="translate(277.836914 0.015625)" xlink:href="#DejaVuSans-37"/>
      <use transform="translate(372.856445 0.015625)" xlink:href="#DejaVuSans-93"/>
     </g>
    </g>
   </g>
   <g id="LineCollection_1">
    <path clip-path="url(#p018d695679)" d="M 274.676136 141.486054 
L 274.676136 141.486054 
" style="fill:none;stroke:#9da0a2;stroke-width:1.32934;"/>
    <path clip-path="url(#p018d695679)" d="M 282.7925 181.49877 
L 282.7925 181.49877 
" style="fill:none;stroke:#9da0a2;stroke-width:1.32934;"/>
    <path clip-path="url(#p018d695679)" d="M 290.908864 168.460735 
L 290.908864 168.460735 
" style="fill:none;stroke:#9da0a2;stroke-width:1.32934;"/>
    <path clip-path="url(#p018d695679)" d="M 299.025227 124.162607 
L 299.025227 124.162607 
" style="fill:none;stroke:#9da0a2;stroke-width:1.32934;"/>
    <path clip-path="url(#p018d695679)" d="M 307.141591 129.222579 
L 307.141591 129.222579 
" style="fill:none;stroke:#9da0a2;stroke-width:1.32934;"/>
    <path clip-path="url(#p018d695679)" d="M 315.257955 121.84331 
L 315.257955 121.84331 
" style="fill:none;stroke:#9da0a2;stroke-width:1.32934;"/>
    <path clip-path="url(#p018d695679)" d="M 323.374318 142.205052 
L 323.374318 142.205052 
" style="fill:none;stroke:#9da0a2;stroke-width:1.32934;"/>
    <path clip-path="url(#p018d695679)" d="M 331.490682 120.10672 
L 331.490682 120.10672 
" style="fill:none;stroke:#9da0a2;stroke-width:1.32934;"/>
    <path clip-path="url(#p018d695679)" d="M 339.607045 123.722864 
L 339.607045 123.722864 
" style="fill:none;stroke:#9da0a2;stroke-width:1.32934;"/>
    <path clip-path="url(#p018d695679)" d="M 347.723409 119.507998 
L 347.723409 119.507998 
" style="fill:none;stroke:#9da0a2;stroke-width:1.32934;"/>
    <path clip-path="url(#p018d695679)" d="M 355.839773 134.297374 
L 355.839773 134.297374 
" style="fill:none;stroke:#9da0a2;stroke-width:1.32934;"/>
    <path clip-path="url(#p018d695679)" d="M 363.956136 154.331138 
L 363.956136 154.331138 
" style="fill:none;stroke:#9da0a2;stroke-width:1.32934;"/>
    <path clip-path="url(#p018d695679)" d="M 372.0725 150.942237 
L 372.0725 150.942237 
" style="fill:none;stroke:#9da0a2;stroke-width:1.32934;"/>
    <path clip-path="url(#p018d695679)" d="M 380.188864 134.650344 
L 380.188864 134.650344 
" style="fill:none;stroke:#9da0a2;stroke-width:1.32934;"/>
    <path clip-path="url(#p018d695679)" d="M 388.305227 126.394791 
L 388.305227 126.394791 
" style="fill:none;stroke:#9da0a2;stroke-width:1.32934;"/>
    <path clip-path="url(#p018d695679)" d="M 396.421591 138.278003 
L 396.421591 138.278003 
" style="fill:none;stroke:#9da0a2;stroke-width:1.32934;"/>
    <path clip-path="url(#p018d695679)" d="M 404.537955 112.402984 
L 404.537955 112.402984 
" style="fill:none;stroke:#9da0a2;stroke-width:1.32934;"/>
    <path clip-path="url(#p018d695679)" d="M 412.654318 129.151867 
L 412.654318 129.151867 
" style="fill:none;stroke:#9da0a2;stroke-width:1.32934;"/>
    <path clip-path="url(#p018d695679)" d="M 420.770682 129.794404 
L 420.770682 129.794404 
" style="fill:none;stroke:#9da0a2;stroke-width:1.32934;"/>
    <path clip-path="url(#p018d695679)" d="M 428.887045 111.683878 
L 428.887045 111.683878 
" style="fill:none;stroke:#9da0a2;stroke-width:1.32934;"/>
    <path clip-path="url(#p018d695679)" d="M 437.003409 102.303862 
L 437.003409 102.303862 
" style="fill:none;stroke:#9da0a2;stroke-width:1.32934;"/>
    <path clip-path="url(#p018d695679)" d="M 445.119773 125.162664 
L 445.119773 125.162664 
" style="fill:none;stroke:#9da0a2;stroke-width:1.32934;"/>
    <path clip-path="url(#p018d695679)" d="M 453.236136 105.465715 
L 453.236136 105.465715 
" style="fill:none;stroke:#9da0a2;stroke-width:1.32934;"/>
    <path clip-path="url(#p018d695679)" d="M 461.3525 99.916616 
L 461.3525 99.916616 
" style="fill:none;stroke:#9da0a2;stroke-width:1.32934;"/>
    <path clip-path="url(#p018d695679)" d="M 469.468864 118.555022 
L 469.468864 118.555022 
" style="fill:none;stroke:#9da0a2;stroke-width:1.32934;"/>
    <path clip-path="url(#p018d695679)" d="M 477.585227 147.84318 
L 477.585227 147.84318 
" style="fill:none;stroke:#9da0a2;stroke-width:1.32934;"/>
    <path clip-path="url(#p018d695679)" d="M 274.676136 55.447795 
L 274.676136 55.447795 
" style="fill:none;stroke:#9da0a2;stroke-width:1.32934;"/>
    <path clip-path="url(#p018d695679)" d="M 282.7925 150.014399 
L 282.7925 150.014399 
" style="fill:none;stroke:#9da0a2;stroke-width:1.32934;"/>
    <path clip-path="url(#p018d695679)" d="M 290.908864 126.538491 
L 290.908864 126.538491 
" style="fill:none;stroke:#9da0a2;stroke-width:1.32934;"/>
    <path clip-path="url(#p018d695679)" d="M 299.025227 94.408484 
L 299.025227 94.408484 
" style="fill:none;stroke:#9da0a2;stroke-width:1.32934;"/>
    <path clip-path="url(#p018d695679)" d="M 307.141591 107.133983 
L 307.141591 107.133983 
" style="fill:none;stroke:#9da0a2;stroke-width:1.32934;"/>
    <path clip-path="url(#p018d695679)" d="M 315.257955 108.055767 
L 315.257955 108.055767 
" style="fill:none;stroke:#9da0a2;stroke-width:1.32934;"/>
    <path clip-path="url(#p018d695679)" d="M 323.374318 123.850583 
L 323.374318 123.850583 
" style="fill:none;stroke:#9da0a2;stroke-width:1.32934;"/>
    <path clip-path="url(#p018d695679)" d="M 331.490682 100.676629 
L 331.490682 100.676629 
" style="fill:none;stroke:#9da0a2;stroke-width:1.32934;"/>
    <path clip-path="url(#p018d695679)" d="M 339.607045 97.348677 
L 339.607045 97.348677 
" style="fill:none;stroke:#9da0a2;stroke-width:1.32934;"/>
    <path clip-path="url(#p018d695679)" d="M 347.723409 101.345625 
L 347.723409 101.345625 
" style="fill:none;stroke:#9da0a2;stroke-width:1.32934;"/>
    <path clip-path="url(#p018d695679)" d="M 355.839773 116.793668 
L 355.839773 116.793668 
" style="fill:none;stroke:#9da0a2;stroke-width:1.32934;"/>
    <path clip-path="url(#p018d695679)" d="M 363.956136 143.379756 
L 363.956136 143.379756 
" style="fill:none;stroke:#9da0a2;stroke-width:1.32934;"/>
    <path clip-path="url(#p018d695679)" d="M 372.0725 137.012834 
L 372.0725 137.012834 
" style="fill:none;stroke:#9da0a2;stroke-width:1.32934;"/>
    <path clip-path="url(#p018d695679)" d="M 380.188864 119.934739 
L 380.188864 119.934739 
" style="fill:none;stroke:#9da0a2;stroke-width:1.32934;"/>
    <path clip-path="url(#p018d695679)" d="M 388.305227 114.16571 
L 388.305227 114.16571 
" style="fill:none;stroke:#9da0a2;stroke-width:1.32934;"/>
    <path clip-path="url(#p018d695679)" d="M 396.421591 124.178981 
L 396.421591 124.178981 
" style="fill:none;stroke:#9da0a2;stroke-width:1.32934;"/>
    <path clip-path="url(#p018d695679)" d="M 404.537955 97.370145 
L 404.537955 97.370145 
" style="fill:none;stroke:#9da0a2;stroke-width:1.32934;"/>
    <path clip-path="url(#p018d695679)" d="M 412.654318 114.009624 
L 412.654318 114.009624 
" style="fill:none;stroke:#9da0a2;stroke-width:1.32934;"/>
    <path clip-path="url(#p018d695679)" d="M 420.770682 119.272686 
L 420.770682 119.272686 
" style="fill:none;stroke:#9da0a2;stroke-width:1.32934;"/>
    <path clip-path="url(#p018d695679)" d="M 428.887045 98.623465 
L 428.887045 98.623465 
" style="fill:none;stroke:#9da0a2;stroke-width:1.32934;"/>
    <path clip-path="url(#p018d695679)" d="M 437.003409 90.854839 
L 437.003409 90.854839 
" style="fill:none;stroke:#9da0a2;stroke-width:1.32934;"/>
    <path clip-path="url(#p018d695679)" d="M 445.119773 114.499095 
L 445.119773 114.499095 
" style="fill:none;stroke:#9da0a2;stroke-width:1.32934;"/>
    <path clip-path="url(#p018d695679)" d="M 453.236136 93.416471 
L 453.236136 93.416471 
" style="fill:none;stroke:#9da0a2;stroke-width:1.32934;"/>
    <path clip-path="url(#p018d695679)" d="M 461.3525 87.872991 
L 461.3525 87.872991 
" style="fill:none;stroke:#9da0a2;stroke-width:1.32934;"/>
    <path clip-path="url(#p018d695679)" d="M 469.468864 108.388343 
L 469.468864 108.388343 
" style="fill:none;stroke:#9da0a2;stroke-width:1.32934;"/>
    <path clip-path="url(#p018d695679)" d="M 477.585227 128.92149 
L 477.585227 128.92149 
" style="fill:none;stroke:#9da0a2;stroke-width:1.32934;"/>
    <path clip-path="url(#p018d695679)" d="M 274.676136 55.447795 
L 274.676136 141.486054 
" style="fill:none;stroke:#9da0a2;stroke-width:1.32934;"/>
    <path clip-path="url(#p018d695679)" d="M 282.7925 150.014399 
L 282.7925 181.49877 
" style="fill:none;stroke:#9da0a2;stroke-width:1.32934;"/>
    <path clip-path="url(#p018d695679)" d="M 290.908864 126.538491 
L 290.908864 168.460735 
" style="fill:none;stroke:#9da0a2;stroke-width:1.32934;"/>
    <path clip-path="url(#p018d695679)" d="M 299.025227 94.408484 
L 299.025227 124.162607 
" style="fill:none;stroke:#9da0a2;stroke-width:1.32934;"/>
    <path clip-path="url(#p018d695679)" d="M 307.141591 107.133983 
L 307.141591 129.222579 
" style="fill:none;stroke:#9da0a2;stroke-width:1.32934;"/>
    <path clip-path="url(#p018d695679)" d="M 315.257955 108.055767 
L 315.257955 121.84331 
" style="fill:none;stroke:#9da0a2;stroke-width:1.32934;"/>
    <path clip-path="url(#p018d695679)" d="M 323.374318 123.850583 
L 323.374318 142.205052 
" style="fill:none;stroke:#9da0a2;stroke-width:1.32934;"/>
    <path clip-path="url(#p018d695679)" d="M 331.490682 100.676629 
L 331.490682 120.10672 
" style="fill:none;stroke:#9da0a2;stroke-width:1.32934;"/>
    <path clip-path="url(#p018d695679)" d="M 339.607045 97.348677 
L 339.607045 123.722864 
" style="fill:none;stroke:#9da0a2;stroke-width:1.32934;"/>
    <path clip-path="url(#p018d695679)" d="M 347.723409 101.345625 
L 347.723409 119.507998 
" style="fill:none;stroke:#9da0a2;stroke-width:1.32934;"/>
    <path clip-path="url(#p018d695679)" d="M 355.839773 116.793668 
L 355.839773 134.297374 
" style="fill:none;stroke:#9da0a2;stroke-width:1.32934;"/>
    <path clip-path="url(#p018d695679)" d="M 363.956136 143.379756 
L 363.956136 154.331138 
" style="fill:none;stroke:#9da0a2;stroke-width:1.32934;"/>
    <path clip-path="url(#p018d695679)" d="M 372.0725 137.012834 
L 372.0725 150.942237 
" style="fill:none;stroke:#9da0a2;stroke-width:1.32934;"/>
    <path clip-path="url(#p018d695679)" d="M 380.188864 119.934739 
L 380.188864 134.650344 
" style="fill:none;stroke:#9da0a2;stroke-width:1.32934;"/>
    <path clip-path="url(#p018d695679)" d="M 388.305227 114.16571 
L 388.305227 126.394791 
" style="fill:none;stroke:#9da0a2;stroke-width:1.32934;"/>
    <path clip-path="url(#p018d695679)" d="M 396.421591 124.178981 
L 396.421591 138.278003 
" style="fill:none;stroke:#9da0a2;stroke-width:1.32934;"/>
    <path clip-path="url(#p018d695679)" d="M 404.537955 97.370145 
L 404.537955 112.402984 
" style="fill:none;stroke:#9da0a2;stroke-width:1.32934;"/>
    <path clip-path="url(#p018d695679)" d="M 412.654318 114.009624 
L 412.654318 129.151867 
" style="fill:none;stroke:#9da0a2;stroke-width:1.32934;"/>
    <path clip-path="url(#p018d695679)" d="M 420.770682 119.272686 
L 420.770682 129.794404 
" style="fill:none;stroke:#9da0a2;stroke-width:1.32934;"/>
    <path clip-path="url(#p018d695679)" d="M 428.887045 98.623465 
L 428.887045 111.683878 
" style="fill:none;stroke:#9da0a2;stroke-width:1.32934;"/>
    <path clip-path="url(#p018d695679)" d="M 437.003409 90.854839 
L 437.003409 102.303862 
" style="fill:none;stroke:#9da0a2;stroke-width:1.32934;"/>
    <path clip-path="url(#p018d695679)" d="M 445.119773 114.499095 
L 445.119773 125.162664 
" style="fill:none;stroke:#9da0a2;stroke-width:1.32934;"/>
    <path clip-path="url(#p018d695679)" d="M 453.236136 93.416471 
L 453.236136 105.465715 
" style="fill:none;stroke:#9da0a2;stroke-width:1.32934;"/>
    <path clip-path="url(#p018d695679)" d="M 461.3525 87.872991 
L 461.3525 99.916616 
" style="fill:none;stroke:#9da0a2;stroke-width:1.32934;"/>
    <path clip-path="url(#p018d695679)" d="M 469.468864 108.388343 
L 469.468864 118.555022 
" style="fill:none;stroke:#9da0a2;stroke-width:1.32934;"/>
    <path clip-path="url(#p018d695679)" d="M 477.585227 128.92149 
L 477.585227 147.84318 
" style="fill:none;stroke:#9da0a2;stroke-width:1.32934;"/>
   </g>
   <g id="line2d_21">
    <path clip-path="url(#p018d695679)" d="M 274.676136 98.466925 
L 282.7925 165.756584 
L 290.908864 147.499613 
L 299.025227 109.285546 
L 307.141591 118.178281 
L 315.257955 114.949539 
L 323.374318 133.027818 
L 331.490682 110.391674 
L 339.607045 110.535771 
L 347.723409 110.426811 
L 355.839773 125.545521 
L 363.956136 148.855447 
L 372.0725 143.977536 
L 380.188864 127.292542 
L 388.305227 120.280251 
L 396.421591 131.228492 
L 404.537955 104.886564 
L 412.654318 121.580746 
L 420.770682 124.533545 
L 428.887045 105.153671 
L 437.003409 96.57935 
L 445.119773 119.830879 
L 453.236136 99.441093 
L 461.3525 93.894804 
L 469.468864 113.471683 
L 477.585227 138.382335 
" style="fill:none;stroke:#0077bb;stroke-width:0.886227;"/>
   </g>
   <g id="patch_3">
    <path d="M 59.5925 228.96 
L 59.5925 7.2 
" style="fill:none;stroke:#000000;stroke-linecap:square;stroke-linejoin:miter;"/>
   </g>
   <g id="patch_4">
    <path d="M 59.5925 228.96 
L 505.9925 228.96 
" style="fill:none;stroke:#000000;stroke-linecap:square;stroke-linejoin:miter;"/>
   </g>
   <g id="PathCollection_1">
    <path clip-path="url(#p018d695679)" d="M 274.676136 100.239378 
C 275.146197 100.239378 275.597068 100.052622 275.929451 99.720239 
C 276.261833 99.387856 276.44859 98.936985 276.44859 98.466925 
C 276.44859 97.996864 276.261833 97.545993 275.929451 97.21361 
C 275.597068 96.881228 275.146197 96.694471 274.676136 96.694471 
C 274.206076 96.694471 273.755205 96.881228 273.422822 97.21361 
C 273.090439 97.545993 272.903683 97.996864 272.903683 98.466925 
C 272.903683 98.936985 273.090439 99.387856 273.422822 99.720239 
C 273.755205 100.052622 274.206076 100.239378 274.676136 100.239378 
z
" style="fill:#0077bb;stroke:#0077bb;stroke-width:0.886227;"/>
    <path clip-path="url(#p018d695679)" d="M 282.7925 167.529038 
C 283.26256 167.529038 283.713431 167.342281 284.045814 167.009899 
C 284.378197 166.677516 284.564954 166.226645 284.564954 165.756584 
C 284.564954 165.286524 284.378197 164.835653 284.045814 164.50327 
C 283.713431 164.170887 283.26256 163.984131 282.7925 163.984131 
C 282.32244 163.984131 281.871569 164.170887 281.539186 164.50327 
C 281.206803 164.835653 281.020046 165.286524 281.020046 165.756584 
C 281.020046 166.226645 281.206803 166.677516 281.539186 167.009899 
C 281.871569 167.342281 282.32244 167.529038 282.7925 167.529038 
z
" style="fill:#0077bb;stroke:#0077bb;stroke-width:0.886227;"/>
    <path clip-path="url(#p018d695679)" d="M 290.908864 149.272067 
C 291.378924 149.272067 291.829795 149.08531 292.162178 148.752927 
C 292.494561 148.420544 292.681317 147.969673 292.681317 147.499613 
C 292.681317 147.029553 292.494561 146.578682 292.162178 146.246299 
C 291.829795 145.913916 291.378924 145.727159 290.908864 145.727159 
C 290.438803 145.727159 289.987932 145.913916 289.655549 146.246299 
C 289.323167 146.578682 289.13641 147.029553 289.13641 147.499613 
C 289.13641 147.969673 289.323167 148.420544 289.655549 148.752927 
C 289.987932 149.08531 290.438803 149.272067 290.908864 149.272067 
z
" style="fill:#0077bb;stroke:#0077bb;stroke-width:0.886227;"/>
    <path clip-path="url(#p018d695679)" d="M 299.025227 111.058 
C 299.495288 111.058 299.946159 110.871243 300.278541 110.53886 
C 300.610924 110.206477 300.797681 109.755606 300.797681 109.285546 
C 300.797681 108.815485 300.610924 108.364614 300.278541 108.032232 
C 299.946159 107.699849 299.495288 107.513092 299.025227 107.513092 
C 298.555167 107.513092 298.104296 107.699849 297.771913 108.032232 
C 297.43953 108.364614 297.252773 108.815485 297.252773 109.285546 
C 297.252773 109.755606 297.43953 110.206477 297.771913 110.53886 
C 298.104296 110.871243 298.555167 111.058 299.025227 111.058 
z
" style="fill:#0077bb;stroke:#0077bb;stroke-width:0.886227;"/>
    <path clip-path="url(#p018d695679)" d="M 307.141591 119.950735 
C 307.611651 119.950735 308.062522 119.763978 308.394905 119.431595 
C 308.727288 119.099212 308.914045 118.648341 308.914045 118.178281 
C 308.914045 117.708221 308.727288 117.25735 308.394905 116.924967 
C 308.062522 116.592584 307.611651 116.405827 307.141591 116.405827 
C 306.671531 116.405827 306.22066 116.592584 305.888277 116.924967 
C 305.555894 117.25735 305.369137 117.708221 305.369137 118.178281 
C 305.369137 118.648341 305.555894 119.099212 305.888277 119.431595 
C 306.22066 119.763978 306.671531 119.950735 307.141591 119.950735 
z
" style="fill:#0077bb;stroke:#0077bb;stroke-width:0.886227;"/>
    <path clip-path="url(#p018d695679)" d="M 315.257955 116.721992 
C 315.728015 116.721992 316.178886 116.535235 316.511269 116.202853 
C 316.843651 115.87047 317.030408 115.419599 317.030408 114.949539 
C 317.030408 114.479478 316.843651 114.028607 316.511269 113.696224 
C 316.178886 113.363842 315.728015 113.177085 315.257955 113.177085 
C 314.787894 113.177085 314.337023 113.363842 314.00464 113.696224 
C 313.672258 114.028607 313.485501 114.479478 313.485501 114.949539 
C 313.485501 115.419599 313.672258 115.87047 314.00464 116.202853 
C 314.337023 116.535235 314.787894 116.721992 315.257955 116.721992 
z
" style="fill:#0077bb;stroke:#0077bb;stroke-width:0.886227;"/>
    <path clip-path="url(#p018d695679)" d="M 323.374318 134.800272 
C 323.844378 134.800272 324.29525 134.613515 324.627632 134.281132 
C 324.960015 133.948749 325.146772 133.497878 325.146772 133.027818 
C 325.146772 132.557758 324.960015 132.106887 324.627632 131.774504 
C 324.29525 131.442121 323.844378 131.255364 323.374318 131.255364 
C 322.904258 131.255364 322.453387 131.442121 322.121004 131.774504 
C 321.788621 132.106887 321.601864 132.557758 321.601864 133.027818 
C 321.601864 133.497878 321.788621 133.948749 322.121004 134.281132 
C 322.453387 134.613515 322.904258 134.800272 323.374318 134.800272 
z
" style="fill:#0077bb;stroke:#0077bb;stroke-width:0.886227;"/>
    <path clip-path="url(#p018d695679)" d="M 331.490682 112.164128 
C 331.960742 112.164128 332.411613 111.977371 332.743996 111.644989 
C 333.076379 111.312606 333.263136 110.861735 333.263136 110.391674 
C 333.263136 109.921614 333.076379 109.470743 332.743996 109.13836 
C 332.411613 108.805978 331.960742 108.619221 331.490682 108.619221 
C 331.020622 108.619221 330.56975 108.805978 330.237368 109.13836 
C 329.904985 109.470743 329.718228 109.921614 329.718228 110.391674 
C 329.718228 110.861735 329.904985 111.312606 330.237368 111.644989 
C 330.56975 111.977371 331.020622 112.164128 331.490682 112.164128 
z
" style="fill:#0077bb;stroke:#0077bb;stroke-width:0.886227;"/>
    <path clip-path="url(#p018d695679)" d="M 339.607045 112.308224 
C 340.077106 112.308224 340.527977 112.121467 340.86036 111.789085 
C 341.192742 111.456702 341.379499 111.005831 341.379499 110.535771 
C 341.379499 110.06571 341.192742 109.614839 340.86036 109.282456 
C 340.527977 108.950074 340.077106 108.763317 339.607045 108.763317 
C 339.136985 108.763317 338.686114 108.950074 338.353731 109.282456 
C 338.021349 109.614839 337.834592 110.06571 337.834592 110.535771 
C 337.834592 111.005831 338.021349 111.456702 338.353731 111.789085 
C 338.686114 112.121467 339.136985 112.308224 339.607045 112.308224 
z
" style="fill:#0077bb;stroke:#0077bb;stroke-width:0.886227;"/>
    <path clip-path="url(#p018d695679)" d="M 347.723409 112.199265 
C 348.193469 112.199265 348.64434 112.012508 348.976723 111.680126 
C 349.309106 111.347743 349.495863 110.896872 349.495863 110.426811 
C 349.495863 109.956751 349.309106 109.50588 348.976723 109.173497 
C 348.64434 108.841114 348.193469 108.654358 347.723409 108.654358 
C 347.253349 108.654358 346.802478 108.841114 346.470095 109.173497 
C 346.137712 109.50588 345.950955 109.956751 345.950955 110.426811 
C 345.950955 110.896872 346.137712 111.347743 346.470095 111.680126 
C 346.802478 112.012508 347.253349 112.199265 347.723409 112.199265 
z
" style="fill:#0077bb;stroke:#0077bb;stroke-width:0.886227;"/>
    <path clip-path="url(#p018d695679)" d="M 355.839773 127.317975 
C 356.309833 127.317975 356.760704 127.131218 357.093087 126.798835 
C 357.42547 126.466452 357.612227 126.015581 357.612227 125.545521 
C 357.612227 125.075461 357.42547 124.62459 357.093087 124.292207 
C 356.760704 123.959824 356.309833 123.773067 355.839773 123.773067 
C 355.369712 123.773067 354.918841 123.959824 354.586459 124.292207 
C 354.254076 124.62459 354.067319 125.075461 354.067319 125.545521 
C 354.067319 126.015581 354.254076 126.466452 354.586459 126.798835 
C 354.918841 127.131218 355.369712 127.317975 355.839773 127.317975 
z
" style="fill:#0077bb;stroke:#0077bb;stroke-width:0.886227;"/>
    <path clip-path="url(#p018d695679)" d="M 363.956136 150.627901 
C 364.426197 150.627901 364.877068 150.441144 365.209451 150.108761 
C 365.541833 149.776378 365.72859 149.325507 365.72859 148.855447 
C 365.72859 148.385387 365.541833 147.934516 365.209451 147.602133 
C 364.877068 147.26975 364.426197 147.082993 363.956136 147.082993 
C 363.486076 147.082993 363.035205 147.26975 362.702822 147.602133 
C 362.370439 147.934516 362.183683 148.385387 362.183683 148.855447 
C 362.183683 149.325507 362.370439 149.776378 362.702822 150.108761 
C 363.035205 150.441144 363.486076 150.627901 363.956136 150.627901 
z
" style="fill:#0077bb;stroke:#0077bb;stroke-width:0.886227;"/>
    <path clip-path="url(#p018d695679)" d="M 372.0725 145.74999 
C 372.54256 145.74999 372.993431 145.563233 373.325814 145.23085 
C 373.658197 144.898467 373.844954 144.447596 373.844954 143.977536 
C 373.844954 143.507476 373.658197 143.056604 373.325814 142.724222 
C 372.993431 142.391839 372.54256 142.205082 372.0725 142.205082 
C 371.60244 142.205082 371.151569 142.391839 370.819186 142.724222 
C 370.486803 143.056604 370.300046 143.507476 370.300046 143.977536 
C 370.300046 144.447596 370.486803 144.898467 370.819186 145.23085 
C 371.151569 145.563233 371.60244 145.74999 372.0725 145.74999 
z
" style="fill:#0077bb;stroke:#0077bb;stroke-width:0.886227;"/>
    <path clip-path="url(#p018d695679)" d="M 380.188864 129.064996 
C 380.658924 129.064996 381.109795 128.878239 381.442178 128.545856 
C 381.774561 128.213473 381.961317 127.762602 381.961317 127.292542 
C 381.961317 126.822481 381.774561 126.37161 381.442178 126.039228 
C 381.109795 125.706845 380.658924 125.520088 380.188864 125.520088 
C 379.718803 125.520088 379.267932 125.706845 378.935549 126.039228 
C 378.603167 126.37161 378.41641 126.822481 378.41641 127.292542 
C 378.41641 127.762602 378.603167 128.213473 378.935549 128.545856 
C 379.267932 128.878239 379.718803 129.064996 380.188864 129.064996 
z
" style="fill:#0077bb;stroke:#0077bb;stroke-width:0.886227;"/>
    <path clip-path="url(#p018d695679)" d="M 388.305227 122.052705 
C 388.775288 122.052705 389.226159 121.865948 389.558541 121.533565 
C 389.890924 121.201182 390.077681 120.750311 390.077681 120.280251 
C 390.077681 119.810191 389.890924 119.359319 389.558541 119.026937 
C 389.226159 118.694554 388.775288 118.507797 388.305227 118.507797 
C 387.835167 118.507797 387.384296 118.694554 387.051913 119.026937 
C 386.71953 119.359319 386.532773 119.810191 386.532773 120.280251 
C 386.532773 120.750311 386.71953 121.201182 387.051913 121.533565 
C 387.384296 121.865948 387.835167 122.052705 388.305227 122.052705 
z
" style="fill:#0077bb;stroke:#0077bb;stroke-width:0.886227;"/>
    <path clip-path="url(#p018d695679)" d="M 396.421591 133.000946 
C 396.891651 133.000946 397.342522 132.814189 397.674905 132.481806 
C 398.007288 132.149424 398.194045 131.698552 398.194045 131.228492 
C 398.194045 130.758432 398.007288 130.307561 397.674905 129.975178 
C 397.342522 129.642795 396.891651 129.456038 396.421591 129.456038 
C 395.951531 129.456038 395.50066 129.642795 395.168277 129.975178 
C 394.835894 130.307561 394.649137 130.758432 394.649137 131.228492 
C 394.649137 131.698552 394.835894 132.149424 395.168277 132.481806 
C 395.50066 132.814189 395.951531 133.000946 396.421591 133.000946 
z
" style="fill:#0077bb;stroke:#0077bb;stroke-width:0.886227;"/>
    <path clip-path="url(#p018d695679)" d="M 404.537955 106.659018 
C 405.008015 106.659018 405.458886 106.472261 405.791269 106.139879 
C 406.123651 105.807496 406.310408 105.356625 406.310408 104.886564 
C 406.310408 104.416504 406.123651 103.965633 405.791269 103.63325 
C 405.458886 103.300867 405.008015 103.114111 404.537955 103.114111 
C 404.067894 103.114111 403.617023 103.300867 403.28464 103.63325 
C 402.952258 103.965633 402.765501 104.416504 402.765501 104.886564 
C 402.765501 105.356625 402.952258 105.807496 403.28464 106.139879 
C 403.617023 106.472261 404.067894 106.659018 404.537955 106.659018 
z
" style="fill:#0077bb;stroke:#0077bb;stroke-width:0.886227;"/>
    <path clip-path="url(#p018d695679)" d="M 412.654318 123.3532 
C 413.124378 123.3532 413.57525 123.166443 413.907632 122.83406 
C 414.240015 122.501677 414.426772 122.050806 414.426772 121.580746 
C 414.426772 121.110686 414.240015 120.659814 413.907632 120.327432 
C 413.57525 119.995049 413.124378 119.808292 412.654318 119.808292 
C 412.184258 119.808292 411.733387 119.995049 411.401004 120.327432 
C 411.068621 120.659814 410.881864 121.110686 410.881864 121.580746 
C 410.881864 122.050806 411.068621 122.501677 411.401004 122.83406 
C 411.733387 123.166443 412.184258 123.3532 412.654318 123.3532 
z
" style="fill:#0077bb;stroke:#0077bb;stroke-width:0.886227;"/>
    <path clip-path="url(#p018d695679)" d="M 420.770682 126.305999 
C 421.240742 126.305999 421.691613 126.119242 422.023996 125.786859 
C 422.356379 125.454476 422.543136 125.003605 422.543136 124.533545 
C 422.543136 124.063485 422.356379 123.612614 422.023996 123.280231 
C 421.691613 122.947848 421.240742 122.761091 420.770682 122.761091 
C 420.300622 122.761091 419.84975 122.947848 419.517368 123.280231 
C 419.184985 123.612614 418.998228 124.063485 418.998228 124.533545 
C 418.998228 125.003605 419.184985 125.454476 419.517368 125.786859 
C 419.84975 126.119242 420.300622 126.305999 420.770682 126.305999 
z
" style="fill:#0077bb;stroke:#0077bb;stroke-width:0.886227;"/>
    <path clip-path="url(#p018d695679)" d="M 428.887045 106.926125 
C 429.357106 106.926125 429.807977 106.739368 430.14036 106.406985 
C 430.472742 106.074602 430.659499 105.623731 430.659499 105.153671 
C 430.659499 104.683611 430.472742 104.23274 430.14036 103.900357 
C 429.807977 103.567974 429.357106 103.381217 428.887045 103.381217 
C 428.416985 103.381217 427.966114 103.567974 427.633731 103.900357 
C 427.301349 104.23274 427.114592 104.683611 427.114592 105.153671 
C 427.114592 105.623731 427.301349 106.074602 427.633731 106.406985 
C 427.966114 106.739368 428.416985 106.926125 428.887045 106.926125 
z
" style="fill:#0077bb;stroke:#0077bb;stroke-width:0.886227;"/>
    <path clip-path="url(#p018d695679)" d="M 437.003409 98.351804 
C 437.473469 98.351804 437.92434 98.165047 438.256723 97.832665 
C 438.589106 97.500282 438.775863 97.049411 438.775863 96.57935 
C 438.775863 96.10929 438.589106 95.658419 438.256723 95.326036 
C 437.92434 94.993654 437.473469 94.806897 437.003409 94.806897 
C 436.533349 94.806897 436.082478 94.993654 435.750095 95.326036 
C 435.417712 95.658419 435.230955 96.10929 435.230955 96.57935 
C 435.230955 97.049411 435.417712 97.500282 435.750095 97.832665 
C 436.082478 98.165047 436.533349 98.351804 437.003409 98.351804 
z
" style="fill:#0077bb;stroke:#0077bb;stroke-width:0.886227;"/>
    <path clip-path="url(#p018d695679)" d="M 445.119773 121.603333 
C 445.589833 121.603333 446.040704 121.416576 446.373087 121.084194 
C 446.70547 120.751811 446.892227 120.30094 446.892227 119.830879 
C 446.892227 119.360819 446.70547 118.909948 446.373087 118.577565 
C 446.040704 118.245182 445.589833 118.058426 445.119773 118.058426 
C 444.649712 118.058426 444.198841 118.245182 443.866459 118.577565 
C 443.534076 118.909948 443.347319 119.360819 443.347319 119.830879 
C 443.347319 120.30094 443.534076 120.751811 443.866459 121.084194 
C 444.198841 121.416576 444.649712 121.603333 445.119773 121.603333 
z
" style="fill:#0077bb;stroke:#0077bb;stroke-width:0.886227;"/>
    <path clip-path="url(#p018d695679)" d="M 453.236136 101.213547 
C 453.706197 101.213547 454.157068 101.02679 454.489451 100.694407 
C 454.821833 100.362025 455.00859 99.911153 455.00859 99.441093 
C 455.00859 98.971033 454.821833 98.520162 454.489451 98.187779 
C 454.157068 97.855396 453.706197 97.668639 453.236136 97.668639 
C 452.766076 97.668639 452.315205 97.855396 451.982822 98.187779 
C 451.650439 98.520162 451.463683 98.971033 451.463683 99.441093 
C 451.463683 99.911153 451.650439 100.362025 451.982822 100.694407 
C 452.315205 101.02679 452.766076 101.213547 453.236136 101.213547 
z
" style="fill:#0077bb;stroke:#0077bb;stroke-width:0.886227;"/>
    <path clip-path="url(#p018d695679)" d="M 461.3525 95.667257 
C 461.82256 95.667257 462.273431 95.480501 462.605814 95.148118 
C 462.938197 94.815735 463.124954 94.364864 463.124954 93.894804 
C 463.124954 93.424743 462.938197 92.973872 462.605814 92.641489 
C 462.273431 92.309107 461.82256 92.12235 461.3525 92.12235 
C 460.88244 92.12235 460.431569 92.309107 460.099186 92.641489 
C 459.766803 92.973872 459.580046 93.424743 459.580046 93.894804 
C 459.580046 94.364864 459.766803 94.815735 460.099186 95.148118 
C 460.431569 95.480501 460.88244 95.667257 461.3525 95.667257 
z
" style="fill:#0077bb;stroke:#0077bb;stroke-width:0.886227;"/>
    <path clip-path="url(#p018d695679)" d="M 469.468864 115.244136 
C 469.938924 115.244136 470.389795 115.05738 470.722178 114.724997 
C 471.054561 114.392614 471.241317 113.941743 471.241317 113.471683 
C 471.241317 113.001622 471.054561 112.550751 470.722178 112.218368 
C 470.389795 111.885986 469.938924 111.699229 469.468864 111.699229 
C 468.998803 111.699229 468.547932 111.885986 468.215549 112.218368 
C 467.883167 112.550751 467.69641 113.001622 467.69641 113.471683 
C 467.69641 113.941743 467.883167 114.392614 468.215549 114.724997 
C 468.547932 115.05738 468.998803 115.244136 469.468864 115.244136 
z
" style="fill:#0077bb;stroke:#0077bb;stroke-width:0.886227;"/>
    <path clip-path="url(#p018d695679)" d="M 477.585227 140.154789 
C 478.055288 140.154789 478.506159 139.968032 478.838541 139.635649 
C 479.170924 139.303266 479.357681 138.852395 479.357681 138.382335 
C 479.357681 137.912275 479.170924 137.461404 478.838541 137.129021 
C 478.506159 136.796638 478.055288 136.609881 477.585227 136.609881 
C 477.115167 136.609881 476.664296 136.796638 476.331913 137.129021 
C 475.99953 137.461404 475.812773 137.912275 475.812773 138.382335 
C 475.812773 138.852395 475.99953 139.303266 476.331913 139.635649 
C 476.664296 139.968032 477.115167 140.154789 477.585227 140.154789 
z
" style="fill:#0077bb;stroke:#0077bb;stroke-width:0.886227;"/>
   </g>
  </g>
 </g>
 <defs>
  <clipPath id="p018d695679">
   <rect height="221.76" width="446.4" x="59.5925" y="7.2"/>
  </clipPath>
 </defs>
</svg>
