<?xml version="1.0" encoding="utf-8" standalone="no"?>
<!DOCTYPE svg PUBLIC "-//W3C//DTD SVG 1.1//EN"
  "http://www.w3.org/Graphics/SVG/1.1/DTD/svg11.dtd">
<!-- Created with matplotlib (https://matplotlib.org/) -->
<svg height="276.021875pt" version="1.1" viewBox="0 0 513.9925 276.021875" width="513.9925pt" xmlns="http://www.w3.org/2000/svg" xmlns:xlink="http://www.w3.org/1999/xlink">
 <defs>
  <style type="text/css">
*{stroke-linecap:butt;stroke-linejoin:round;}
  </style>
 </defs>
 <g id="figure_1">
  <g id="patch_1">
   <path d="M 0 276.021875 
L 513.9925 276.021875 
L 513.9925 0 
L 0 0 
z
" style="fill:#ffffff;stroke:#ffffff;stroke-linejoin:miter;"/>
  </g>
  <g id="axes_1">
   <g id="patch_2">
    <path d="M 60.3925 228.96 
L 506.7925 228.96 
L 506.7925 7.2 
L 60.3925 7.2 
z
" style="fill:#ffffff;"/>
   </g>
   <g id="matplotlib.axis_1">
    <g id="xtick_1">
     <g id="line2d_1">
      <path d="M 80.68341 228.96 
" style="fill:none;stroke:#000000;stroke-width:1.5;"/>
      <defs>
       <path d="M 0 0 
L 0 2.75 
" id="m6efa11720d" style="stroke:#000000;"/>
      </defs>
      <g>
       <use style="stroke:#000000;" x="80.68341" xlink:href="#m6efa11720d" y="228.96"/>
      </g>
     </g>
     <g id="text_1">
      <!-- 1 -->
      <defs>
       <path d="M 12.40625 8.296875 
L 28.515625 8.296875 
L 28.515625 63.921875 
L 10.984375 60.40625 
L 10.984375 69.390625 
L 28.421875 72.90625 
L 38.28125 72.90625 
L 38.28125 8.296875 
L 54.390625 8.296875 
L 54.390625 0 
L 12.40625 0 
z
" id="DejaVuSans-49"/>
      </defs>
      <g transform="translate(76.22966 244.547812)scale(0.14 -0.14)">
       <use xlink:href="#DejaVuSans-49"/>
      </g>
     </g>
    </g>
    <g id="xtick_2">
     <g id="line2d_2">
      <path d="M 215.956137 228.96 
" style="fill:none;stroke:#000000;stroke-width:1.5;"/>
      <g>
       <use style="stroke:#000000;" x="215.956137" xlink:href="#m6efa11720d" y="228.96"/>
      </g>
     </g>
     <g id="text_2">
      <!-- 2 -->
      <defs>
       <path d="M 19.1875 8.296875 
L 53.609375 8.296875 
L 53.609375 0 
L 7.328125 0 
L 7.328125 8.296875 
Q 12.9375 14.109375 22.625 23.890625 
Q 32.328125 33.6875 34.8125 36.53125 
Q 39.546875 41.84375 41.421875 45.53125 
Q 43.3125 49.21875 43.3125 52.78125 
Q 43.3125 58.59375 39.234375 62.25 
Q 35.15625 65.921875 28.609375 65.921875 
Q 23.96875 65.921875 18.8125 64.3125 
Q 13.671875 62.703125 7.8125 59.421875 
L 7.8125 69.390625 
Q 13.765625 71.78125 18.9375 73 
Q 24.125 74.21875 28.421875 74.21875 
Q 39.75 74.21875 46.484375 68.546875 
Q 53.21875 62.890625 53.21875 53.421875 
Q 53.21875 48.921875 51.53125 44.890625 
Q 49.859375 40.875 45.40625 35.40625 
Q 44.1875 33.984375 37.640625 27.21875 
Q 31.109375 20.453125 19.1875 8.296875 
z
" id="DejaVuSans-50"/>
      </defs>
      <g transform="translate(211.502387 244.547812)scale(0.14 -0.14)">
       <use xlink:href="#DejaVuSans-50"/>
      </g>
     </g>
    </g>
    <g id="xtick_3">
     <g id="line2d_3">
      <path d="M 351.228863 228.96 
" style="fill:none;stroke:#000000;stroke-width:1.5;"/>
      <g>
       <use style="stroke:#000000;" x="351.228863" xlink:href="#m6efa11720d" y="228.96"/>
      </g>
     </g>
     <g id="text_3">
      <!-- 3 -->
      <defs>
       <path d="M 40.578125 39.3125 
Q 47.65625 37.796875 51.625 33 
Q 55.609375 28.21875 55.609375 21.1875 
Q 55.609375 10.40625 48.1875 4.484375 
Q 40.765625 -1.421875 27.09375 -1.421875 
Q 22.515625 -1.421875 17.65625 -0.515625 
Q 12.796875 0.390625 7.625 2.203125 
L 7.625 11.71875 
Q 11.71875 9.328125 16.59375 8.109375 
Q 21.484375 6.890625 26.8125 6.890625 
Q 36.078125 6.890625 40.9375 10.546875 
Q 45.796875 14.203125 45.796875 21.1875 
Q 45.796875 27.640625 41.28125 31.265625 
Q 36.765625 34.90625 28.71875 34.90625 
L 20.21875 34.90625 
L 20.21875 43.015625 
L 29.109375 43.015625 
Q 36.375 43.015625 40.234375 45.921875 
Q 44.09375 48.828125 44.09375 54.296875 
Q 44.09375 59.90625 40.109375 62.90625 
Q 36.140625 65.921875 28.71875 65.921875 
Q 24.65625 65.921875 20.015625 65.03125 
Q 15.375 64.15625 9.8125 62.3125 
L 9.8125 71.09375 
Q 15.4375 72.65625 20.34375 73.4375 
Q 25.25 74.21875 29.59375 74.21875 
Q 40.828125 74.21875 47.359375 69.109375 
Q 53.90625 64.015625 53.90625 55.328125 
Q 53.90625 49.265625 50.4375 45.09375 
Q 46.96875 40.921875 40.578125 39.3125 
z
" id="DejaVuSans-51"/>
      </defs>
      <g transform="translate(346.775113 244.547812)scale(0.14 -0.14)">
       <use xlink:href="#DejaVuSans-51"/>
      </g>
     </g>
    </g>
    <g id="xtick_4">
     <g id="line2d_4">
      <path d="M 486.50159 228.96 
" style="fill:none;stroke:#000000;stroke-width:1.5;"/>
      <g>
       <use style="stroke:#000000;" x="486.50159" xlink:href="#m6efa11720d" y="228.96"/>
      </g>
     </g>
     <g id="text_4">
      <!-- 4 -->
      <defs>
       <path d="M 37.796875 64.3125 
L 12.890625 25.390625 
L 37.796875 25.390625 
z
M 35.203125 72.90625 
L 47.609375 72.90625 
L 47.609375 25.390625 
L 58.015625 25.390625 
L 58.015625 17.1875 
L 47.609375 17.1875 
L 47.609375 0 
L 37.796875 0 
L 37.796875 17.1875 
L 4.890625 17.1875 
L 4.890625 26.703125 
z
" id="DejaVuSans-52"/>
      </defs>
      <g transform="translate(482.04784 244.547812)scale(0.14 -0.14)">
       <use xlink:href="#DejaVuSans-52"/>
      </g>
     </g>
    </g>
    <g id="xtick_5">
     <g id="line2d_5">
      <path d="M 148.319773 228.96 
" style="fill:none;stroke:#000000;stroke-width:1.5;"/>
      <defs>
       <path d="M 0 0 
L 0 1.375 
" id="m1f7d272a67" style="stroke:#000000;"/>
      </defs>
      <g>
       <use style="stroke:#000000;" x="148.319773" xlink:href="#m1f7d272a67" y="228.96"/>
      </g>
     </g>
    </g>
    <g id="xtick_6">
     <g id="line2d_6">
      <path d="M 283.5925 228.96 
" style="fill:none;stroke:#000000;stroke-width:1.5;"/>
      <g>
       <use style="stroke:#000000;" x="283.5925" xlink:href="#m1f7d272a67" y="228.96"/>
      </g>
     </g>
    </g>
    <g id="xtick_7">
     <g id="line2d_7">
      <path d="M 418.865227 228.96 
" style="fill:none;stroke:#000000;stroke-width:1.5;"/>
      <g>
       <use style="stroke:#000000;" x="418.865227" xlink:href="#m1f7d272a67" y="228.96"/>
      </g>
     </g>
    </g>
    <g id="text_5">
     <!-- Resolution [Å] -->
     <defs>
      <path d="M 44.390625 34.1875 
Q 47.5625 33.109375 50.5625 29.59375 
Q 53.5625 26.078125 56.59375 19.921875 
L 66.609375 0 
L 56 0 
L 46.6875 18.703125 
Q 43.0625 26.03125 39.671875 28.421875 
Q 36.28125 30.8125 30.421875 30.8125 
L 19.671875 30.8125 
L 19.671875 0 
L 9.8125 0 
L 9.8125 72.90625 
L 32.078125 72.90625 
Q 44.578125 72.90625 50.734375 67.671875 
Q 56.890625 62.453125 56.890625 51.90625 
Q 56.890625 45.015625 53.6875 40.46875 
Q 50.484375 35.9375 44.390625 34.1875 
z
M 19.671875 64.796875 
L 19.671875 38.921875 
L 32.078125 38.921875 
Q 39.203125 38.921875 42.84375 42.21875 
Q 46.484375 45.515625 46.484375 51.90625 
Q 46.484375 58.296875 42.84375 61.546875 
Q 39.203125 64.796875 32.078125 64.796875 
z
" id="DejaVuSans-82"/>
      <path d="M 56.203125 29.59375 
L 56.203125 25.203125 
L 14.890625 25.203125 
Q 15.484375 15.921875 20.484375 11.0625 
Q 25.484375 6.203125 34.421875 6.203125 
Q 39.59375 6.203125 44.453125 7.46875 
Q 49.3125 8.734375 54.109375 11.28125 
L 54.109375 2.78125 
Q 49.265625 0.734375 44.1875 -0.34375 
Q 39.109375 -1.421875 33.890625 -1.421875 
Q 20.796875 -1.421875 13.15625 6.1875 
Q 5.515625 13.8125 5.515625 26.8125 
Q 5.515625 40.234375 12.765625 48.109375 
Q 20.015625 56 32.328125 56 
Q 43.359375 56 49.78125 48.890625 
Q 56.203125 41.796875 56.203125 29.59375 
z
M 47.21875 32.234375 
Q 47.125 39.59375 43.09375 43.984375 
Q 39.0625 48.390625 32.421875 48.390625 
Q 24.90625 48.390625 20.390625 44.140625 
Q 15.875 39.890625 15.1875 32.171875 
z
" id="DejaVuSans-101"/>
      <path d="M 44.28125 53.078125 
L 44.28125 44.578125 
Q 40.484375 46.53125 36.375 47.5 
Q 32.28125 48.484375 27.875 48.484375 
Q 21.1875 48.484375 17.84375 46.4375 
Q 14.5 44.390625 14.5 40.28125 
Q 14.5 37.15625 16.890625 35.375 
Q 19.28125 33.59375 26.515625 31.984375 
L 29.59375 31.296875 
Q 39.15625 29.25 43.1875 25.515625 
Q 47.21875 21.78125 47.21875 15.09375 
Q 47.21875 7.46875 41.1875 3.015625 
Q 35.15625 -1.421875 24.609375 -1.421875 
Q 20.21875 -1.421875 15.453125 -0.5625 
Q 10.6875 0.296875 5.421875 2 
L 5.421875 11.28125 
Q 10.40625 8.6875 15.234375 7.390625 
Q 20.0625 6.109375 24.8125 6.109375 
Q 31.15625 6.109375 34.5625 8.28125 
Q 37.984375 10.453125 37.984375 14.40625 
Q 37.984375 18.0625 35.515625 20.015625 
Q 33.0625 21.96875 24.703125 23.78125 
L 21.578125 24.515625 
Q 13.234375 26.265625 9.515625 29.90625 
Q 5.8125 33.546875 5.8125 39.890625 
Q 5.8125 47.609375 11.28125 51.796875 
Q 16.75 56 26.8125 56 
Q 31.78125 56 36.171875 55.265625 
Q 40.578125 54.546875 44.28125 53.078125 
z
" id="DejaVuSans-115"/>
      <path d="M 30.609375 48.390625 
Q 23.390625 48.390625 19.1875 42.75 
Q 14.984375 37.109375 14.984375 27.296875 
Q 14.984375 17.484375 19.15625 11.84375 
Q 23.34375 6.203125 30.609375 6.203125 
Q 37.796875 6.203125 41.984375 11.859375 
Q 46.1875 17.53125 46.1875 27.296875 
Q 46.1875 37.015625 41.984375 42.703125 
Q 37.796875 48.390625 30.609375 48.390625 
z
M 30.609375 56 
Q 42.328125 56 49.015625 48.375 
Q 55.71875 40.765625 55.71875 27.296875 
Q 55.71875 13.875 49.015625 6.21875 
Q 42.328125 -1.421875 30.609375 -1.421875 
Q 18.84375 -1.421875 12.171875 6.21875 
Q 5.515625 13.875 5.515625 27.296875 
Q 5.515625 40.765625 12.171875 48.375 
Q 18.84375 56 30.609375 56 
z
" id="DejaVuSans-111"/>
      <path d="M 9.421875 75.984375 
L 18.40625 75.984375 
L 18.40625 0 
L 9.421875 0 
z
" id="DejaVuSans-108"/>
      <path d="M 8.5 21.578125 
L 8.5 54.6875 
L 17.484375 54.6875 
L 17.484375 21.921875 
Q 17.484375 14.15625 20.5 10.265625 
Q 23.53125 6.390625 29.59375 6.390625 
Q 36.859375 6.390625 41.078125 11.03125 
Q 45.3125 15.671875 45.3125 23.6875 
L 45.3125 54.6875 
L 54.296875 54.6875 
L 54.296875 0 
L 45.3125 0 
L 45.3125 8.40625 
Q 42.046875 3.421875 37.71875 1 
Q 33.40625 -1.421875 27.6875 -1.421875 
Q 18.265625 -1.421875 13.375 4.4375 
Q 8.5 10.296875 8.5 21.578125 
z
M 31.109375 56 
z
" id="DejaVuSans-117"/>
      <path d="M 18.3125 70.21875 
L 18.3125 54.6875 
L 36.8125 54.6875 
L 36.8125 47.703125 
L 18.3125 47.703125 
L 18.3125 18.015625 
Q 18.3125 11.328125 20.140625 9.421875 
Q 21.96875 7.515625 27.59375 7.515625 
L 36.8125 7.515625 
L 36.8125 0 
L 27.59375 0 
Q 17.1875 0 13.234375 3.875 
Q 9.28125 7.765625 9.28125 18.015625 
L 9.28125 47.703125 
L 2.6875 47.703125 
L 2.6875 54.6875 
L 9.28125 54.6875 
L 9.28125 70.21875 
z
" id="DejaVuSans-116"/>
      <path d="M 9.421875 54.6875 
L 18.40625 54.6875 
L 18.40625 0 
L 9.421875 0 
z
M 9.421875 75.984375 
L 18.40625 75.984375 
L 18.40625 64.59375 
L 9.421875 64.59375 
z
" id="DejaVuSans-105"/>
      <path d="M 54.890625 33.015625 
L 54.890625 0 
L 45.90625 0 
L 45.90625 32.71875 
Q 45.90625 40.484375 42.875 44.328125 
Q 39.84375 48.1875 33.796875 48.1875 
Q 26.515625 48.1875 22.3125 43.546875 
Q 18.109375 38.921875 18.109375 30.90625 
L 18.109375 0 
L 9.078125 0 
L 9.078125 54.6875 
L 18.109375 54.6875 
L 18.109375 46.1875 
Q 21.34375 51.125 25.703125 53.5625 
Q 30.078125 56 35.796875 56 
Q 45.21875 56 50.046875 50.171875 
Q 54.890625 44.34375 54.890625 33.015625 
z
" id="DejaVuSans-110"/>
      <path id="DejaVuSans-32"/>
      <path d="M 8.59375 75.984375 
L 29.296875 75.984375 
L 29.296875 69 
L 17.578125 69 
L 17.578125 -6.203125 
L 29.296875 -6.203125 
L 29.296875 -13.1875 
L 8.59375 -13.1875 
z
" id="DejaVuSans-91"/>
      <path d="M 41.609375 79.390625 
Q 41.609375 82.46875 39.421875 84.640625 
Q 37.25 86.8125 34.1875 86.8125 
Q 31.0625 86.8125 28.9375 84.6875 
Q 26.8125 82.5625 26.8125 79.390625 
Q 26.8125 76.3125 28.953125 74.15625 
Q 31.109375 72.015625 34.1875 72.015625 
Q 37.25 72.015625 39.421875 74.15625 
Q 41.609375 76.3125 41.609375 79.390625 
z
M 34.1875 63.1875 
L 20.90625 26.90625 
L 47.515625 26.90625 
z
M 26.8125 68.21875 
Q 23.828125 70.21875 22.3125 73.015625 
Q 20.796875 75.828125 20.796875 79.390625 
Q 20.796875 85.015625 24.671875 88.921875 
Q 28.5625 92.828125 34.1875 92.828125 
Q 39.75 92.828125 43.671875 88.890625 
Q 47.609375 84.96875 47.609375 79.390625 
Q 47.609375 75.984375 46.0625 73.09375 
Q 44.53125 70.21875 41.609375 68.21875 
L 67.578125 0 
L 57.328125 0 
L 50.6875 18.703125 
L 17.828125 18.703125 
L 11.1875 0 
L 0.78125 0 
z
" id="DejaVuSans-197"/>
      <path d="M 30.421875 75.984375 
L 30.421875 -13.1875 
L 9.71875 -13.1875 
L 9.71875 -6.203125 
L 21.390625 -6.203125 
L 21.390625 69 
L 9.71875 69 
L 9.71875 75.984375 
z
" id="DejaVuSans-93"/>
     </defs>
     <g transform="translate(219.98 265.494375)scale(0.16 -0.16)">
      <use xlink:href="#DejaVuSans-82"/>
      <use x="69.419922" xlink:href="#DejaVuSans-101"/>
      <use x="130.943359" xlink:href="#DejaVuSans-115"/>
      <use x="183.042969" xlink:href="#DejaVuSans-111"/>
      <use x="244.224609" xlink:href="#DejaVuSans-108"/>
      <use x="272.007812" xlink:href="#DejaVuSans-117"/>
      <use x="335.386719" xlink:href="#DejaVuSans-116"/>
      <use x="374.595703" xlink:href="#DejaVuSans-105"/>
      <use x="402.378906" xlink:href="#DejaVuSans-111"/>
      <use x="463.560547" xlink:href="#DejaVuSans-110"/>
      <use x="526.939453" xlink:href="#DejaVuSans-32"/>
      <use x="558.726562" xlink:href="#DejaVuSans-91"/>
      <use x="597.740234" xlink:href="#DejaVuSans-197"/>
      <use x="666.148438" xlink:href="#DejaVuSans-93"/>
     </g>
    </g>
   </g>
   <g id="matplotlib.axis_2">
    <g id="ytick_1">
     <g id="line2d_8">
      <path d="M 60.3925 218.88 
" style="fill:none;stroke:#000000;stroke-width:1.5;"/>
      <defs>
       <path d="M 0 0 
L -2.75 0 
" id="m848a939e55" style="stroke:#000000;"/>
      </defs>
      <g>
       <use style="stroke:#000000;" x="60.3925" xlink:href="#m848a939e55" y="218.88"/>
      </g>
     </g>
     <g id="text_6">
      <!-- 0 -->
      <defs>
       <path d="M 31.78125 66.40625 
Q 24.171875 66.40625 20.328125 58.90625 
Q 16.5 51.421875 16.5 36.375 
Q 16.5 21.390625 20.328125 13.890625 
Q 24.171875 6.390625 31.78125 6.390625 
Q 39.453125 6.390625 43.28125 13.890625 
Q 47.125 21.390625 47.125 36.375 
Q 47.125 51.421875 43.28125 58.90625 
Q 39.453125 66.40625 31.78125 66.40625 
z
M 31.78125 74.21875 
Q 44.046875 74.21875 50.515625 64.515625 
Q 56.984375 54.828125 56.984375 36.375 
Q 56.984375 17.96875 50.515625 8.265625 
Q 44.046875 -1.421875 31.78125 -1.421875 
Q 19.53125 -1.421875 13.0625 8.265625 
Q 6.59375 17.96875 6.59375 36.375 
Q 6.59375 54.828125 13.0625 64.515625 
Q 19.53125 74.21875 31.78125 74.21875 
z
" id="DejaVuSans-48"/>
      </defs>
      <g transform="translate(46.535 222.743125)scale(0.14 -0.14)">
       <use xlink:href="#DejaVuSans-48"/>
      </g>
     </g>
    </g>
    <g id="ytick_2">
     <g id="line2d_9">
      <path d="M 60.3925 168.48 
" style="fill:none;stroke:#000000;stroke-width:1.5;"/>
      <g>
       <use style="stroke:#000000;" x="60.3925" xlink:href="#m848a939e55" y="168.48"/>
      </g>
     </g>
     <g id="text_7">
      <!-- 25 -->
      <defs>
       <path d="M 10.796875 72.90625 
L 49.515625 72.90625 
L 49.515625 64.59375 
L 19.828125 64.59375 
L 19.828125 46.734375 
Q 21.96875 47.46875 24.109375 47.828125 
Q 26.265625 48.1875 28.421875 48.1875 
Q 40.625 48.1875 47.75 41.5 
Q 54.890625 34.8125 54.890625 23.390625 
Q 54.890625 11.625 47.5625 5.09375 
Q 40.234375 -1.421875 26.90625 -1.421875 
Q 22.3125 -1.421875 17.546875 -0.640625 
Q 12.796875 0.140625 7.71875 1.703125 
L 7.71875 11.625 
Q 12.109375 9.234375 16.796875 8.0625 
Q 21.484375 6.890625 26.703125 6.890625 
Q 35.15625 6.890625 40.078125 11.328125 
Q 45.015625 15.765625 45.015625 23.390625 
Q 45.015625 31 40.078125 35.4375 
Q 35.15625 39.890625 26.703125 39.890625 
Q 22.75 39.890625 18.8125 39.015625 
Q 14.890625 38.140625 10.796875 36.28125 
z
" id="DejaVuSans-53"/>
      </defs>
      <g transform="translate(37.6275 172.343125)scale(0.14 -0.14)">
       <use xlink:href="#DejaVuSans-50"/>
       <use x="63.623047" xlink:href="#DejaVuSans-53"/>
      </g>
     </g>
    </g>
    <g id="ytick_3">
     <g id="line2d_10">
      <path d="M 60.3925 118.08 
" style="fill:none;stroke:#000000;stroke-width:1.5;"/>
      <g>
       <use style="stroke:#000000;" x="60.3925" xlink:href="#m848a939e55" y="118.08"/>
      </g>
     </g>
     <g id="text_8">
      <!-- 50 -->
      <g transform="translate(37.6275 121.943125)scale(0.14 -0.14)">
       <use xlink:href="#DejaVuSans-53"/>
       <use x="63.623047" xlink:href="#DejaVuSans-48"/>
      </g>
     </g>
    </g>
    <g id="ytick_4">
     <g id="line2d_11">
      <path d="M 60.3925 67.68 
" style="fill:none;stroke:#000000;stroke-width:1.5;"/>
      <g>
       <use style="stroke:#000000;" x="60.3925" xlink:href="#m848a939e55" y="67.68"/>
      </g>
     </g>
     <g id="text_9">
      <!-- 75 -->
      <defs>
       <path d="M 8.203125 72.90625 
L 55.078125 72.90625 
L 55.078125 68.703125 
L 28.609375 0 
L 18.3125 0 
L 43.21875 64.59375 
L 8.203125 64.59375 
z
" id="DejaVuSans-55"/>
      </defs>
      <g transform="translate(37.6275 71.543125)scale(0.14 -0.14)">
       <use xlink:href="#DejaVuSans-55"/>
       <use x="63.623047" xlink:href="#DejaVuSans-53"/>
      </g>
     </g>
    </g>
    <g id="ytick_5">
     <g id="line2d_12">
      <path d="M 60.3925 17.28 
" style="fill:none;stroke:#000000;stroke-width:1.5;"/>
      <g>
       <use style="stroke:#000000;" x="60.3925" xlink:href="#m848a939e55" y="17.28"/>
      </g>
     </g>
     <g id="text_10">
      <!-- 100 -->
      <g transform="translate(28.72 21.143125)scale(0.14 -0.14)">
       <use xlink:href="#DejaVuSans-49"/>
       <use x="63.623047" xlink:href="#DejaVuSans-48"/>
       <use x="127.246094" xlink:href="#DejaVuSans-48"/>
      </g>
     </g>
    </g>
    <g id="ytick_6">
     <g id="line2d_13">
      <path d="M 60.3925 193.68 
" style="fill:none;stroke:#000000;stroke-width:1.5;"/>
      <defs>
       <path d="M 0 0 
L -1.375 0 
" id="md3b7e68cec" style="stroke:#000000;"/>
      </defs>
      <g>
       <use style="stroke:#000000;" x="60.3925" xlink:href="#md3b7e68cec" y="193.68"/>
      </g>
     </g>
    </g>
    <g id="ytick_7">
     <g id="line2d_14">
      <path d="M 60.3925 143.28 
" style="fill:none;stroke:#000000;stroke-width:1.5;"/>
      <g>
       <use style="stroke:#000000;" x="60.3925" xlink:href="#md3b7e68cec" y="143.28"/>
      </g>
     </g>
    </g>
    <g id="ytick_8">
     <g id="line2d_15">
      <path d="M 60.3925 92.88 
" style="fill:none;stroke:#000000;stroke-width:1.5;"/>
      <g>
       <use style="stroke:#000000;" x="60.3925" xlink:href="#md3b7e68cec" y="92.88"/>
      </g>
     </g>
    </g>
    <g id="ytick_9">
     <g id="line2d_16">
      <path d="M 60.3925 42.48 
" style="fill:none;stroke:#000000;stroke-width:1.5;"/>
      <g>
       <use style="stroke:#000000;" x="60.3925" xlink:href="#md3b7e68cec" y="42.48"/>
      </g>
     </g>
    </g>
    <g id="text_11">
     <!-- $P_{Q1p_{min}}$ [%] -->
     <defs>
      <path d="M 16.890625 72.90625 
L 39.703125 72.90625 
Q 49.65625 72.90625 54.875 68.265625 
Q 60.109375 63.625 60.109375 54.6875 
Q 60.109375 42.671875 52.390625 35.984375 
Q 44.671875 29.296875 30.71875 29.296875 
L 18.3125 29.296875 
L 12.59375 0 
L 2.6875 0 
z
M 25.203125 64.796875 
L 19.921875 37.40625 
L 32.328125 37.40625 
Q 40.71875 37.40625 45.203125 41.703125 
Q 49.703125 46 49.703125 54 
Q 49.703125 59.125 46.65625 61.953125 
Q 43.609375 64.796875 38.09375 64.796875 
z
" id="DejaVuSans-Oblique-80"/>
      <path d="M 36.078125 -1.3125 
Q 35.546875 -1.375 34.953125 -1.390625 
Q 34.375 -1.421875 33.203125 -1.421875 
Q 19.53125 -1.421875 11.8125 6.421875 
Q 4.109375 14.265625 4.109375 28.078125 
Q 4.109375 36.234375 7.0625 44.4375 
Q 10.015625 52.640625 15.28125 59.1875 
Q 21.390625 66.703125 29.03125 70.453125 
Q 36.671875 74.21875 45.90625 74.21875 
Q 59.28125 74.21875 66.984375 66.328125 
Q 74.703125 58.453125 74.703125 44.828125 
Q 74.703125 30.125 66.640625 17.921875 
Q 58.59375 5.71875 45.609375 0.6875 
L 55.515625 -12.890625 
L 44.484375 -12.890625 
z
M 45.609375 66.21875 
Q 37.5 66.21875 31.296875 62.28125 
Q 25.09375 58.34375 20.515625 50.296875 
Q 17.578125 45.171875 16.03125 39.40625 
Q 14.5 33.640625 14.5 27.78125 
Q 14.5 17.625 19.359375 12.109375 
Q 24.21875 6.59375 33.109375 6.59375 
Q 41.109375 6.59375 47.375 10.5625 
Q 53.65625 14.546875 58.109375 22.40625 
Q 61.078125 27.6875 62.640625 33.46875 
Q 64.203125 39.265625 64.203125 45.015625 
Q 64.203125 55.125 59.3125 60.671875 
Q 54.4375 66.21875 45.609375 66.21875 
z
" id="DejaVuSans-Oblique-81"/>
      <path d="M 49.609375 33.6875 
Q 49.609375 40.875 46.484375 44.671875 
Q 43.359375 48.484375 37.5 48.484375 
Q 33.5 48.484375 29.859375 46.4375 
Q 26.21875 44.390625 23.390625 40.484375 
Q 20.609375 36.625 18.9375 31.15625 
Q 17.28125 25.6875 17.28125 20.3125 
Q 17.28125 13.484375 20.40625 9.796875 
Q 23.53125 6.109375 29.296875 6.109375 
Q 33.546875 6.109375 37.1875 8.109375 
Q 40.828125 10.109375 43.40625 13.921875 
Q 46.1875 17.921875 47.890625 23.34375 
Q 49.609375 28.765625 49.609375 33.6875 
z
M 21.78125 46.390625 
Q 25.390625 51.125 30.296875 53.5625 
Q 35.203125 56 41.21875 56 
Q 49.609375 56 54.25 50.5 
Q 58.890625 45.015625 58.890625 35.109375 
Q 58.890625 27 56 19.65625 
Q 53.125 12.3125 47.703125 6.5 
Q 44.09375 2.640625 39.546875 0.609375 
Q 35.015625 -1.421875 29.984375 -1.421875 
Q 24.171875 -1.421875 20.21875 1 
Q 16.265625 3.421875 14.3125 8.203125 
L 8.6875 -20.796875 
L -0.296875 -20.796875 
L 14.40625 54.6875 
L 23.390625 54.6875 
z
" id="DejaVuSans-Oblique-112"/>
      <path d="M 89.796875 33.015625 
L 83.40625 0 
L 74.421875 0 
L 80.71875 32.71875 
Q 81.109375 34.8125 81.296875 36.328125 
Q 81.5 37.84375 81.5 38.921875 
Q 81.5 43.3125 79.046875 45.75 
Q 76.609375 48.1875 72.21875 48.1875 
Q 65.671875 48.1875 60.546875 43.28125 
Q 55.421875 38.375 53.90625 30.515625 
L 47.90625 0 
L 38.921875 0 
L 45.3125 32.71875 
Q 45.703125 34.515625 45.890625 36.046875 
Q 46.09375 37.59375 46.09375 38.8125 
Q 46.09375 43.265625 43.65625 45.71875 
Q 41.21875 48.1875 36.921875 48.1875 
Q 30.28125 48.1875 25.140625 43.28125 
Q 20.015625 38.375 18.5 30.515625 
L 12.5 0 
L 3.515625 0 
L 14.203125 54.6875 
L 23.1875 54.6875 
L 21.484375 46.1875 
Q 25.140625 50.984375 30.046875 53.484375 
Q 34.96875 56 40.578125 56 
Q 46.53125 56 50.359375 52.875 
Q 54.203125 49.75 54.984375 44.1875 
Q 59.078125 49.953125 64.46875 52.96875 
Q 69.875 56 75.875 56 
Q 82.90625 56 86.734375 51.953125 
Q 90.578125 47.90625 90.578125 40.484375 
Q 90.578125 38.875 90.375 36.9375 
Q 90.1875 35.015625 89.796875 33.015625 
z
" id="DejaVuSans-Oblique-109"/>
      <path d="M 18.3125 75.984375 
L 27.296875 75.984375 
L 25.09375 64.59375 
L 16.109375 64.59375 
z
M 14.203125 54.6875 
L 23.1875 54.6875 
L 12.5 0 
L 3.515625 0 
z
" id="DejaVuSans-Oblique-105"/>
      <path d="M 55.71875 33.015625 
L 49.3125 0 
L 40.28125 0 
L 46.6875 32.671875 
Q 47.125 34.96875 47.359375 36.71875 
Q 47.609375 38.484375 47.609375 39.5 
Q 47.609375 43.609375 45.015625 45.890625 
Q 42.4375 48.1875 37.796875 48.1875 
Q 30.5625 48.1875 25.34375 43.375 
Q 20.125 38.578125 18.5 30.328125 
L 12.5 0 
L 3.515625 0 
L 14.109375 54.6875 
L 23.09375 54.6875 
L 21.296875 46.09375 
Q 25.046875 50.828125 30.3125 53.40625 
Q 35.59375 56 41.40625 56 
Q 48.640625 56 52.609375 52.09375 
Q 56.59375 48.1875 56.59375 41.109375 
Q 56.59375 39.359375 56.375 37.359375 
Q 56.15625 35.359375 55.71875 33.015625 
z
" id="DejaVuSans-Oblique-110"/>
      <path d="M 72.703125 32.078125 
Q 68.453125 32.078125 66.03125 28.46875 
Q 63.625 24.859375 63.625 18.40625 
Q 63.625 12.0625 66.03125 8.421875 
Q 68.453125 4.78125 72.703125 4.78125 
Q 76.859375 4.78125 79.265625 8.421875 
Q 81.6875 12.0625 81.6875 18.40625 
Q 81.6875 24.8125 79.265625 28.4375 
Q 76.859375 32.078125 72.703125 32.078125 
z
M 72.703125 38.28125 
Q 80.421875 38.28125 84.953125 32.90625 
Q 89.5 27.546875 89.5 18.40625 
Q 89.5 9.28125 84.9375 3.921875 
Q 80.375 -1.421875 72.703125 -1.421875 
Q 64.890625 -1.421875 60.34375 3.921875 
Q 55.8125 9.28125 55.8125 18.40625 
Q 55.8125 27.59375 60.375 32.9375 
Q 64.9375 38.28125 72.703125 38.28125 
z
M 22.3125 68.015625 
Q 18.109375 68.015625 15.6875 64.375 
Q 13.28125 60.75 13.28125 54.390625 
Q 13.28125 47.953125 15.671875 44.328125 
Q 18.0625 40.71875 22.3125 40.71875 
Q 26.5625 40.71875 28.96875 44.328125 
Q 31.390625 47.953125 31.390625 54.390625 
Q 31.390625 60.6875 28.953125 64.34375 
Q 26.515625 68.015625 22.3125 68.015625 
z
M 66.40625 74.21875 
L 74.21875 74.21875 
L 28.609375 -1.421875 
L 20.796875 -1.421875 
z
M 22.3125 74.21875 
Q 30.03125 74.21875 34.609375 68.875 
Q 39.203125 63.53125 39.203125 54.390625 
Q 39.203125 45.171875 34.640625 39.84375 
Q 30.078125 34.515625 22.3125 34.515625 
Q 14.546875 34.515625 10.03125 39.859375 
Q 5.515625 45.21875 5.515625 54.390625 
Q 5.515625 63.484375 10.046875 68.84375 
Q 14.59375 74.21875 22.3125 74.21875 
z
" id="DejaVuSans-37"/>
     </defs>
     <g transform="translate(19.36 157.2)rotate(-90)scale(0.16 -0.16)">
      <use transform="translate(0 0.015625)" xlink:href="#DejaVuSans-Oblique-80"/>
      <use transform="translate(60.302734 -16.390625)scale(0.7)" xlink:href="#DejaVuSans-Oblique-81"/>
      <use transform="translate(115.400391 -16.390625)scale(0.7)" xlink:href="#DejaVuSans-49"/>
      <use transform="translate(159.936523 -16.390625)scale(0.7)" xlink:href="#DejaVuSans-Oblique-112"/>
      <use transform="translate(204.370117 -27.875)scale(0.49)" xlink:href="#DejaVuSans-Oblique-109"/>
      <use transform="translate(252.102051 -27.875)scale(0.49)" xlink:href="#DejaVuSans-Oblique-105"/>
      <use transform="translate(265.71582 -27.875)scale(0.49)" xlink:href="#DejaVuSans-Oblique-110"/>
      <use transform="translate(301.419922 0.015625)" xlink:href="#DejaVuSans-32"/>
      <use transform="translate(333.207031 0.015625)" xlink:href="#DejaVuSans-91"/>
      <use transform="translate(372.220703 0.015625)" xlink:href="#DejaVuSans-37"/>
      <use transform="translate(467.240234 0.015625)" xlink:href="#DejaVuSans-93"/>
     </g>
    </g>
   </g>
   <g id="LineCollection_1">
    <path clip-path="url(#p5bf86bf4c1)" d="M 80.683409 127.488018 
L 80.68341 127.488018 
" style="fill:none;stroke:#9da0a2;stroke-width:1.32934;"/>
    <path clip-path="url(#p5bf86bf4c1)" d="M 94.210682 123.918773 
L 94.210683 123.918773 
" style="fill:none;stroke:#9da0a2;stroke-width:1.32934;"/>
    <path clip-path="url(#p5bf86bf4c1)" d="M 107.737954 93.381122 
L 107.737956 93.381122 
" style="fill:none;stroke:#9da0a2;stroke-width:1.32934;"/>
    <path clip-path="url(#p5bf86bf4c1)" d="M 121.265227 99.697709 
L 121.265228 99.697709 
" style="fill:none;stroke:#9da0a2;stroke-width:1.32934;"/>
    <path clip-path="url(#p5bf86bf4c1)" d="M 134.7925 85.106513 
L 134.792501 85.106513 
" style="fill:none;stroke:#9da0a2;stroke-width:1.32934;"/>
    <path clip-path="url(#p5bf86bf4c1)" d="M 148.319773 93.216326 
L 148.319774 93.216326 
" style="fill:none;stroke:#9da0a2;stroke-width:1.32934;"/>
    <path clip-path="url(#p5bf86bf4c1)" d="M 161.847045 94.361798 
L 161.847047 94.361798 
" style="fill:none;stroke:#9da0a2;stroke-width:1.32934;"/>
    <path clip-path="url(#p5bf86bf4c1)" d="M 175.374318 112.346639 
L 175.374319 112.346639 
" style="fill:none;stroke:#9da0a2;stroke-width:1.32934;"/>
    <path clip-path="url(#p5bf86bf4c1)" d="M 188.901591 114.506973 
L 188.901592 114.506973 
" style="fill:none;stroke:#9da0a2;stroke-width:1.32934;"/>
    <path clip-path="url(#p5bf86bf4c1)" d="M 202.428863 116.473739 
L 202.428865 116.473739 
" style="fill:none;stroke:#9da0a2;stroke-width:1.32934;"/>
    <path clip-path="url(#p5bf86bf4c1)" d="M 215.956136 132.350823 
L 215.956137 132.350823 
" style="fill:none;stroke:#9da0a2;stroke-width:1.32934;"/>
    <path clip-path="url(#p5bf86bf4c1)" d="M 229.483409 121.319401 
L 229.48341 121.319401 
" style="fill:none;stroke:#9da0a2;stroke-width:1.32934;"/>
    <path clip-path="url(#p5bf86bf4c1)" d="M 243.010681 127.366824 
L 243.010683 127.366824 
" style="fill:none;stroke:#9da0a2;stroke-width:1.32934;"/>
    <path clip-path="url(#p5bf86bf4c1)" d="M 256.537954 137.791187 
L 256.537955 137.791187 
" style="fill:none;stroke:#9da0a2;stroke-width:1.32934;"/>
    <path clip-path="url(#p5bf86bf4c1)" d="M 270.065227 140.786702 
L 270.065228 140.786702 
" style="fill:none;stroke:#9da0a2;stroke-width:1.32934;"/>
    <path clip-path="url(#p5bf86bf4c1)" d="M 283.592499 144.189686 
L 283.592501 144.189686 
" style="fill:none;stroke:#9da0a2;stroke-width:1.32934;"/>
    <path clip-path="url(#p5bf86bf4c1)" d="M 297.119772 135.81771 
L 297.119773 135.81771 
" style="fill:none;stroke:#9da0a2;stroke-width:1.32934;"/>
    <path clip-path="url(#p5bf86bf4c1)" d="M 310.647045 154.311103 
L 310.647046 154.311103 
" style="fill:none;stroke:#9da0a2;stroke-width:1.32934;"/>
    <path clip-path="url(#p5bf86bf4c1)" d="M 324.174317 138.896327 
L 324.174319 138.896327 
" style="fill:none;stroke:#9da0a2;stroke-width:1.32934;"/>
    <path clip-path="url(#p5bf86bf4c1)" d="M 337.70159 133.744639 
L 337.701591 133.744639 
" style="fill:none;stroke:#9da0a2;stroke-width:1.32934;"/>
    <path clip-path="url(#p5bf86bf4c1)" d="M 351.228863 140.074291 
L 351.228864 140.074291 
" style="fill:none;stroke:#9da0a2;stroke-width:1.32934;"/>
    <path clip-path="url(#p5bf86bf4c1)" d="M 364.756135 147.584769 
L 364.756137 147.584769 
" style="fill:none;stroke:#9da0a2;stroke-width:1.32934;"/>
    <path clip-path="url(#p5bf86bf4c1)" d="M 378.283408 148.066835 
L 378.283409 148.066835 
" style="fill:none;stroke:#9da0a2;stroke-width:1.32934;"/>
    <path clip-path="url(#p5bf86bf4c1)" d="M 391.810681 160.76637 
L 391.810682 160.76637 
" style="fill:none;stroke:#9da0a2;stroke-width:1.32934;"/>
    <path clip-path="url(#p5bf86bf4c1)" d="M 405.337953 179.879354 
L 405.337955 179.879354 
" style="fill:none;stroke:#9da0a2;stroke-width:1.32934;"/>
    <path clip-path="url(#p5bf86bf4c1)" d="M 418.865226 180.543266 
L 418.865227 180.543266 
" style="fill:none;stroke:#9da0a2;stroke-width:1.32934;"/>
    <path clip-path="url(#p5bf86bf4c1)" d="M 432.392499 193.233508 
L 432.3925 193.233508 
" style="fill:none;stroke:#9da0a2;stroke-width:1.32934;"/>
    <path clip-path="url(#p5bf86bf4c1)" d="M 445.919772 180.084263 
L 445.919773 180.084263 
" style="fill:none;stroke:#9da0a2;stroke-width:1.32934;"/>
    <path clip-path="url(#p5bf86bf4c1)" d="M 459.447044 215.540862 
L 459.447046 215.540862 
" style="fill:none;stroke:#9da0a2;stroke-width:1.32934;"/>
    <path clip-path="url(#p5bf86bf4c1)" d="M 472.974317 186.069262 
L 472.974318 186.069262 
" style="fill:none;stroke:#9da0a2;stroke-width:1.32934;"/>
    <path clip-path="url(#p5bf86bf4c1)" d="M 486.50159 195.361263 
L 486.501591 195.361263 
" style="fill:none;stroke:#9da0a2;stroke-width:1.32934;"/>
    <path clip-path="url(#p5bf86bf4c1)" d="M 80.683409 113.306465 
L 80.68341 113.306465 
" style="fill:none;stroke:#9da0a2;stroke-width:1.32934;"/>
    <path clip-path="url(#p5bf86bf4c1)" d="M 94.210682 98.163375 
L 94.210683 98.163375 
" style="fill:none;stroke:#9da0a2;stroke-width:1.32934;"/>
    <path clip-path="url(#p5bf86bf4c1)" d="M 107.737954 79.036007 
L 107.737956 79.036007 
" style="fill:none;stroke:#9da0a2;stroke-width:1.32934;"/>
    <path clip-path="url(#p5bf86bf4c1)" d="M 121.265227 83.222225 
L 121.265228 83.222225 
" style="fill:none;stroke:#9da0a2;stroke-width:1.32934;"/>
    <path clip-path="url(#p5bf86bf4c1)" d="M 134.7925 72.186123 
L 134.792501 72.186123 
" style="fill:none;stroke:#9da0a2;stroke-width:1.32934;"/>
    <path clip-path="url(#p5bf86bf4c1)" d="M 148.319773 81.635323 
L 148.319774 81.635323 
" style="fill:none;stroke:#9da0a2;stroke-width:1.32934;"/>
    <path clip-path="url(#p5bf86bf4c1)" d="M 161.847045 86.280395 
L 161.847047 86.280395 
" style="fill:none;stroke:#9da0a2;stroke-width:1.32934;"/>
    <path clip-path="url(#p5bf86bf4c1)" d="M 175.374318 100.705202 
L 175.374319 100.705202 
" style="fill:none;stroke:#9da0a2;stroke-width:1.32934;"/>
    <path clip-path="url(#p5bf86bf4c1)" d="M 188.901591 104.892945 
L 188.901592 104.892945 
" style="fill:none;stroke:#9da0a2;stroke-width:1.32934;"/>
    <path clip-path="url(#p5bf86bf4c1)" d="M 202.428863 105.804062 
L 202.428865 105.804062 
" style="fill:none;stroke:#9da0a2;stroke-width:1.32934;"/>
    <path clip-path="url(#p5bf86bf4c1)" d="M 215.956136 123.60016 
L 215.956137 123.60016 
" style="fill:none;stroke:#9da0a2;stroke-width:1.32934;"/>
    <path clip-path="url(#p5bf86bf4c1)" d="M 229.483409 107.625453 
L 229.48341 107.625453 
" style="fill:none;stroke:#9da0a2;stroke-width:1.32934;"/>
    <path clip-path="url(#p5bf86bf4c1)" d="M 243.010681 118.415241 
L 243.010683 118.415241 
" style="fill:none;stroke:#9da0a2;stroke-width:1.32934;"/>
    <path clip-path="url(#p5bf86bf4c1)" d="M 256.537954 123.373721 
L 256.537955 123.373721 
" style="fill:none;stroke:#9da0a2;stroke-width:1.32934;"/>
    <path clip-path="url(#p5bf86bf4c1)" d="M 270.065227 130.544468 
L 270.065228 130.544468 
" style="fill:none;stroke:#9da0a2;stroke-width:1.32934;"/>
    <path clip-path="url(#p5bf86bf4c1)" d="M 283.592499 135.283651 
L 283.592501 135.283651 
" style="fill:none;stroke:#9da0a2;stroke-width:1.32934;"/>
    <path clip-path="url(#p5bf86bf4c1)" d="M 297.119772 123.15165 
L 297.119773 123.15165 
" style="fill:none;stroke:#9da0a2;stroke-width:1.32934;"/>
    <path clip-path="url(#p5bf86bf4c1)" d="M 310.647045 142.056435 
L 310.647046 142.056435 
" style="fill:none;stroke:#9da0a2;stroke-width:1.32934;"/>
    <path clip-path="url(#p5bf86bf4c1)" d="M 324.174317 128.644515 
L 324.174319 128.644515 
" style="fill:none;stroke:#9da0a2;stroke-width:1.32934;"/>
    <path clip-path="url(#p5bf86bf4c1)" d="M 337.70159 121.892206 
L 337.701591 121.892206 
" style="fill:none;stroke:#9da0a2;stroke-width:1.32934;"/>
    <path clip-path="url(#p5bf86bf4c1)" d="M 351.228863 129.821136 
L 351.228864 129.821136 
" style="fill:none;stroke:#9da0a2;stroke-width:1.32934;"/>
    <path clip-path="url(#p5bf86bf4c1)" d="M 364.756135 133.914415 
L 364.756137 133.914415 
" style="fill:none;stroke:#9da0a2;stroke-width:1.32934;"/>
    <path clip-path="url(#p5bf86bf4c1)" d="M 378.283408 126.078766 
L 378.283409 126.078766 
" style="fill:none;stroke:#9da0a2;stroke-width:1.32934;"/>
    <path clip-path="url(#p5bf86bf4c1)" d="M 391.810681 138.183997 
L 391.810682 138.183997 
" style="fill:none;stroke:#9da0a2;stroke-width:1.32934;"/>
    <path clip-path="url(#p5bf86bf4c1)" d="M 405.337953 150.702122 
L 405.337955 150.702122 
" style="fill:none;stroke:#9da0a2;stroke-width:1.32934;"/>
    <path clip-path="url(#p5bf86bf4c1)" d="M 418.865226 136.438977 
L 418.865227 136.438977 
" style="fill:none;stroke:#9da0a2;stroke-width:1.32934;"/>
    <path clip-path="url(#p5bf86bf4c1)" d="M 432.392499 159.056693 
L 432.3925 159.056693 
" style="fill:none;stroke:#9da0a2;stroke-width:1.32934;"/>
    <path clip-path="url(#p5bf86bf4c1)" d="M 445.919772 152.374874 
L 445.919773 152.374874 
" style="fill:none;stroke:#9da0a2;stroke-width:1.32934;"/>
    <path clip-path="url(#p5bf86bf4c1)" d="M 459.447044 209.204373 
L 459.447046 209.204373 
" style="fill:none;stroke:#9da0a2;stroke-width:1.32934;"/>
    <path clip-path="url(#p5bf86bf4c1)" d="M 472.974317 129.145772 
L 472.974318 129.145772 
" style="fill:none;stroke:#9da0a2;stroke-width:1.32934;"/>
    <path clip-path="url(#p5bf86bf4c1)" d="M 486.50159 168.058564 
L 486.501591 168.058564 
" style="fill:none;stroke:#9da0a2;stroke-width:1.32934;"/>
    <path clip-path="url(#p5bf86bf4c1)" d="M 80.68341 113.306465 
L 80.68341 127.488018 
" style="fill:none;stroke:#9da0a2;stroke-width:1.32934;"/>
    <path clip-path="url(#p5bf86bf4c1)" d="M 94.210682 98.163375 
L 94.210682 123.918773 
" style="fill:none;stroke:#9da0a2;stroke-width:1.32934;"/>
    <path clip-path="url(#p5bf86bf4c1)" d="M 107.737955 79.036007 
L 107.737955 93.381122 
" style="fill:none;stroke:#9da0a2;stroke-width:1.32934;"/>
    <path clip-path="url(#p5bf86bf4c1)" d="M 121.265228 83.222225 
L 121.265228 99.697709 
" style="fill:none;stroke:#9da0a2;stroke-width:1.32934;"/>
    <path clip-path="url(#p5bf86bf4c1)" d="M 134.7925 72.186123 
L 134.7925 85.106513 
" style="fill:none;stroke:#9da0a2;stroke-width:1.32934;"/>
    <path clip-path="url(#p5bf86bf4c1)" d="M 148.319773 81.635323 
L 148.319773 93.216326 
" style="fill:none;stroke:#9da0a2;stroke-width:1.32934;"/>
    <path clip-path="url(#p5bf86bf4c1)" d="M 161.847046 86.280395 
L 161.847046 94.361798 
" style="fill:none;stroke:#9da0a2;stroke-width:1.32934;"/>
    <path clip-path="url(#p5bf86bf4c1)" d="M 175.374319 100.705202 
L 175.374319 112.346639 
" style="fill:none;stroke:#9da0a2;stroke-width:1.32934;"/>
    <path clip-path="url(#p5bf86bf4c1)" d="M 188.901591 104.892945 
L 188.901591 114.506973 
" style="fill:none;stroke:#9da0a2;stroke-width:1.32934;"/>
    <path clip-path="url(#p5bf86bf4c1)" d="M 202.428864 105.804062 
L 202.428864 116.473739 
" style="fill:none;stroke:#9da0a2;stroke-width:1.32934;"/>
    <path clip-path="url(#p5bf86bf4c1)" d="M 215.956137 123.60016 
L 215.956137 132.350823 
" style="fill:none;stroke:#9da0a2;stroke-width:1.32934;"/>
    <path clip-path="url(#p5bf86bf4c1)" d="M 229.483409 107.625453 
L 229.483409 121.319401 
" style="fill:none;stroke:#9da0a2;stroke-width:1.32934;"/>
    <path clip-path="url(#p5bf86bf4c1)" d="M 243.010682 118.415241 
L 243.010682 127.366824 
" style="fill:none;stroke:#9da0a2;stroke-width:1.32934;"/>
    <path clip-path="url(#p5bf86bf4c1)" d="M 256.537955 123.373721 
L 256.537955 137.791187 
" style="fill:none;stroke:#9da0a2;stroke-width:1.32934;"/>
    <path clip-path="url(#p5bf86bf4c1)" d="M 270.065227 130.544468 
L 270.065227 140.786702 
" style="fill:none;stroke:#9da0a2;stroke-width:1.32934;"/>
    <path clip-path="url(#p5bf86bf4c1)" d="M 283.5925 135.283651 
L 283.5925 144.189686 
" style="fill:none;stroke:#9da0a2;stroke-width:1.32934;"/>
    <path clip-path="url(#p5bf86bf4c1)" d="M 297.119773 123.15165 
L 297.119773 135.81771 
" style="fill:none;stroke:#9da0a2;stroke-width:1.32934;"/>
    <path clip-path="url(#p5bf86bf4c1)" d="M 310.647045 142.056435 
L 310.647045 154.311103 
" style="fill:none;stroke:#9da0a2;stroke-width:1.32934;"/>
    <path clip-path="url(#p5bf86bf4c1)" d="M 324.174318 128.644515 
L 324.174318 138.896327 
" style="fill:none;stroke:#9da0a2;stroke-width:1.32934;"/>
    <path clip-path="url(#p5bf86bf4c1)" d="M 337.701591 121.892206 
L 337.701591 133.744639 
" style="fill:none;stroke:#9da0a2;stroke-width:1.32934;"/>
    <path clip-path="url(#p5bf86bf4c1)" d="M 351.228863 129.821136 
L 351.228863 140.074291 
" style="fill:none;stroke:#9da0a2;stroke-width:1.32934;"/>
    <path clip-path="url(#p5bf86bf4c1)" d="M 364.756136 133.914415 
L 364.756136 147.584769 
" style="fill:none;stroke:#9da0a2;stroke-width:1.32934;"/>
    <path clip-path="url(#p5bf86bf4c1)" d="M 378.283409 126.078766 
L 378.283409 148.066835 
" style="fill:none;stroke:#9da0a2;stroke-width:1.32934;"/>
    <path clip-path="url(#p5bf86bf4c1)" d="M 391.810681 138.183997 
L 391.810681 160.76637 
" style="fill:none;stroke:#9da0a2;stroke-width:1.32934;"/>
    <path clip-path="url(#p5bf86bf4c1)" d="M 405.337954 150.702122 
L 405.337954 179.879354 
" style="fill:none;stroke:#9da0a2;stroke-width:1.32934;"/>
    <path clip-path="url(#p5bf86bf4c1)" d="M 418.865227 136.438977 
L 418.865227 180.543266 
" style="fill:none;stroke:#9da0a2;stroke-width:1.32934;"/>
    <path clip-path="url(#p5bf86bf4c1)" d="M 432.3925 159.056693 
L 432.3925 193.233508 
" style="fill:none;stroke:#9da0a2;stroke-width:1.32934;"/>
    <path clip-path="url(#p5bf86bf4c1)" d="M 445.919772 152.374874 
L 445.919772 180.084263 
" style="fill:none;stroke:#9da0a2;stroke-width:1.32934;"/>
    <path clip-path="url(#p5bf86bf4c1)" d="M 459.447045 209.204373 
L 459.447045 215.540862 
" style="fill:none;stroke:#9da0a2;stroke-width:1.32934;"/>
    <path clip-path="url(#p5bf86bf4c1)" d="M 472.974318 129.145772 
L 472.974318 186.069262 
" style="fill:none;stroke:#9da0a2;stroke-width:1.32934;"/>
    <path clip-path="url(#p5bf86bf4c1)" d="M 486.50159 168.058564 
L 486.50159 195.361263 
" style="fill:none;stroke:#9da0a2;stroke-width:1.32934;"/>
   </g>
   <g id="line2d_17">
    <path clip-path="url(#p5bf86bf4c1)" d="M 80.68341 120.397241 
L 94.210682 111.041074 
L 107.737955 86.208565 
L 121.265228 91.459967 
L 134.7925 78.646318 
L 148.319773 87.425824 
L 161.847046 90.321096 
L 175.374319 106.52592 
L 188.901591 109.699959 
L 202.428864 111.1389 
L 215.956137 127.975491 
L 229.483409 114.472427 
L 243.010682 122.891032 
L 256.537955 130.582454 
L 270.065227 135.665585 
L 283.5925 139.736669 
L 297.119773 129.48468 
L 310.647045 148.183769 
L 324.174318 133.770421 
L 337.701591 127.818423 
L 351.228863 134.947714 
L 364.756136 140.749592 
L 378.283409 137.0728 
L 391.810681 149.475184 
L 405.337954 165.290738 
L 418.865227 158.491122 
L 432.3925 176.145101 
L 445.919772 166.229569 
L 459.447045 212.372617 
L 472.974318 157.607517 
L 486.50159 181.709914 
" style="fill:none;stroke:#0077bb;stroke-width:0.886227;"/>
   </g>
   <g id="patch_3">
    <path d="M 60.3925 228.96 
L 60.3925 7.2 
" style="fill:none;stroke:#000000;stroke-linecap:square;stroke-linejoin:miter;"/>
   </g>
   <g id="patch_4">
    <path d="M 60.3925 228.96 
L 506.7925 228.96 
" style="fill:none;stroke:#000000;stroke-linecap:square;stroke-linejoin:miter;"/>
   </g>
   <g id="PathCollection_1">
    <path clip-path="url(#p5bf86bf4c1)" d="M 80.68341 122.169695 
C 81.15347 122.169695 81.604341 121.982938 81.936724 121.650556 
C 82.269107 121.318173 82.455864 120.867302 82.455864 120.397241 
C 82.455864 119.927181 82.269107 119.47631 81.936724 119.143927 
C 81.604341 118.811544 81.15347 118.624788 80.68341 118.624788 
C 80.21335 118.624788 79.762478 118.811544 79.430096 119.143927 
C 79.097713 119.47631 78.910956 119.927181 78.910956 120.397241 
C 78.910956 120.867302 79.097713 121.318173 79.430096 121.650556 
C 79.762478 121.982938 80.21335 122.169695 80.68341 122.169695 
z
" style="fill:#0077bb;stroke:#0077bb;stroke-width:0.886227;"/>
    <path clip-path="url(#p5bf86bf4c1)" d="M 94.210682 112.813528 
C 94.680743 112.813528 95.131614 112.626771 95.463997 112.294388 
C 95.796379 111.962005 95.983136 111.511134 95.983136 111.041074 
C 95.983136 110.571014 95.796379 110.120142 95.463997 109.78776 
C 95.131614 109.455377 94.680743 109.26862 94.210682 109.26862 
C 93.740622 109.26862 93.289751 109.455377 92.957368 109.78776 
C 92.624986 110.120142 92.438229 110.571014 92.438229 111.041074 
C 92.438229 111.511134 92.624986 111.962005 92.957368 112.294388 
C 93.289751 112.626771 93.740622 112.813528 94.210682 112.813528 
z
" style="fill:#0077bb;stroke:#0077bb;stroke-width:0.886227;"/>
    <path clip-path="url(#p5bf86bf4c1)" d="M 107.737955 87.981019 
C 108.208015 87.981019 108.658886 87.794262 108.991269 87.461879 
C 109.323652 87.129496 109.510409 86.678625 109.510409 86.208565 
C 109.510409 85.738505 109.323652 85.287634 108.991269 84.955251 
C 108.658886 84.622868 108.208015 84.436111 107.737955 84.436111 
C 107.267895 84.436111 106.817024 84.622868 106.484641 84.955251 
C 106.152258 85.287634 105.965501 85.738505 105.965501 86.208565 
C 105.965501 86.678625 106.152258 87.129496 106.484641 87.461879 
C 106.817024 87.794262 107.267895 87.981019 107.737955 87.981019 
z
" style="fill:#0077bb;stroke:#0077bb;stroke-width:0.886227;"/>
    <path clip-path="url(#p5bf86bf4c1)" d="M 121.265228 93.232421 
C 121.735288 93.232421 122.186159 93.045664 122.518542 92.713281 
C 122.850925 92.380898 123.037682 91.930027 123.037682 91.459967 
C 123.037682 90.989907 122.850925 90.539036 122.518542 90.206653 
C 122.186159 89.87427 121.735288 89.687513 121.265228 89.687513 
C 120.795168 89.687513 120.344296 89.87427 120.011914 90.206653 
C 119.679531 90.539036 119.492774 90.989907 119.492774 91.459967 
C 119.492774 91.930027 119.679531 92.380898 120.011914 92.713281 
C 120.344296 93.045664 120.795168 93.232421 121.265228 93.232421 
z
" style="fill:#0077bb;stroke:#0077bb;stroke-width:0.886227;"/>
    <path clip-path="url(#p5bf86bf4c1)" d="M 134.7925 80.418772 
C 135.262561 80.418772 135.713432 80.232015 136.045815 79.899632 
C 136.378197 79.567249 136.564954 79.116378 136.564954 78.646318 
C 136.564954 78.176258 136.378197 77.725387 136.045815 77.393004 
C 135.713432 77.060621 135.262561 76.873864 134.7925 76.873864 
C 134.32244 76.873864 133.871569 77.060621 133.539186 77.393004 
C 133.206804 77.725387 133.020047 78.176258 133.020047 78.646318 
C 133.020047 79.116378 133.206804 79.567249 133.539186 79.899632 
C 133.871569 80.232015 134.32244 80.418772 134.7925 80.418772 
z
" style="fill:#0077bb;stroke:#0077bb;stroke-width:0.886227;"/>
    <path clip-path="url(#p5bf86bf4c1)" d="M 148.319773 89.198278 
C 148.789833 89.198278 149.240705 89.011521 149.573087 88.679139 
C 149.90547 88.346756 150.092227 87.895885 150.092227 87.425824 
C 150.092227 86.955764 149.90547 86.504893 149.573087 86.17251 
C 149.240705 85.840127 148.789833 85.653371 148.319773 85.653371 
C 147.849713 85.653371 147.398842 85.840127 147.066459 86.17251 
C 146.734076 86.504893 146.547319 86.955764 146.547319 87.425824 
C 146.547319 87.895885 146.734076 88.346756 147.066459 88.679139 
C 147.398842 89.011521 147.849713 89.198278 148.319773 89.198278 
z
" style="fill:#0077bb;stroke:#0077bb;stroke-width:0.886227;"/>
    <path clip-path="url(#p5bf86bf4c1)" d="M 161.847046 92.09355 
C 162.317106 92.09355 162.767977 91.906793 163.10036 91.57441 
C 163.432743 91.242028 163.6195 90.791157 163.6195 90.321096 
C 163.6195 89.851036 163.432743 89.400165 163.10036 89.067782 
C 162.767977 88.735399 162.317106 88.548642 161.847046 88.548642 
C 161.376986 88.548642 160.926115 88.735399 160.593732 89.067782 
C 160.261349 89.400165 160.074592 89.851036 160.074592 90.321096 
C 160.074592 90.791157 160.261349 91.242028 160.593732 91.57441 
C 160.926115 91.906793 161.376986 92.09355 161.847046 92.09355 
z
" style="fill:#0077bb;stroke:#0077bb;stroke-width:0.886227;"/>
    <path clip-path="url(#p5bf86bf4c1)" d="M 175.374319 108.298374 
C 175.844379 108.298374 176.29525 108.111617 176.627633 107.779234 
C 176.960015 107.446852 177.146772 106.99598 177.146772 106.52592 
C 177.146772 106.05586 176.960015 105.604989 176.627633 105.272606 
C 176.29525 104.940223 175.844379 104.753466 175.374319 104.753466 
C 174.904258 104.753466 174.453387 104.940223 174.121004 105.272606 
C 173.788622 105.604989 173.601865 106.05586 173.601865 106.52592 
C 173.601865 106.99598 173.788622 107.446852 174.121004 107.779234 
C 174.453387 108.111617 174.904258 108.298374 175.374319 108.298374 
z
" style="fill:#0077bb;stroke:#0077bb;stroke-width:0.886227;"/>
    <path clip-path="url(#p5bf86bf4c1)" d="M 188.901591 111.472413 
C 189.371651 111.472413 189.822523 111.285656 190.154905 110.953273 
C 190.487288 110.62089 190.674045 110.170019 190.674045 109.699959 
C 190.674045 109.229899 190.487288 108.779028 190.154905 108.446645 
C 189.822523 108.114262 189.371651 107.927505 188.901591 107.927505 
C 188.431531 107.927505 187.98066 108.114262 187.648277 108.446645 
C 187.315894 108.779028 187.129137 109.229899 187.129137 109.699959 
C 187.129137 110.170019 187.315894 110.62089 187.648277 110.953273 
C 187.98066 111.285656 188.431531 111.472413 188.901591 111.472413 
z
" style="fill:#0077bb;stroke:#0077bb;stroke-width:0.886227;"/>
    <path clip-path="url(#p5bf86bf4c1)" d="M 202.428864 112.911354 
C 202.898924 112.911354 203.349795 112.724597 203.682178 112.392214 
C 204.014561 112.059832 204.201318 111.608961 204.201318 111.1389 
C 204.201318 110.66884 204.014561 110.217969 203.682178 109.885586 
C 203.349795 109.553203 202.898924 109.366446 202.428864 109.366446 
C 201.958804 109.366446 201.507933 109.553203 201.17555 109.885586 
C 200.843167 110.217969 200.65641 110.66884 200.65641 111.1389 
C 200.65641 111.608961 200.843167 112.059832 201.17555 112.392214 
C 201.507933 112.724597 201.958804 112.911354 202.428864 112.911354 
z
" style="fill:#0077bb;stroke:#0077bb;stroke-width:0.886227;"/>
    <path clip-path="url(#p5bf86bf4c1)" d="M 215.956137 129.747945 
C 216.426197 129.747945 216.877068 129.561188 217.209451 129.228805 
C 217.541834 128.896422 217.72859 128.445551 217.72859 127.975491 
C 217.72859 127.505431 217.541834 127.05456 217.209451 126.722177 
C 216.877068 126.389794 216.426197 126.203037 215.956137 126.203037 
C 215.486076 126.203037 215.035205 126.389794 214.702822 126.722177 
C 214.37044 127.05456 214.183683 127.505431 214.183683 127.975491 
C 214.183683 128.445551 214.37044 128.896422 214.702822 129.228805 
C 215.035205 129.561188 215.486076 129.747945 215.956137 129.747945 
z
" style="fill:#0077bb;stroke:#0077bb;stroke-width:0.886227;"/>
    <path clip-path="url(#p5bf86bf4c1)" d="M 229.483409 116.244881 
C 229.95347 116.244881 230.404341 116.058124 230.736723 115.725741 
C 231.069106 115.393358 231.255863 114.942487 231.255863 114.472427 
C 231.255863 114.002367 231.069106 113.551496 230.736723 113.219113 
C 230.404341 112.88673 229.95347 112.699973 229.483409 112.699973 
C 229.013349 112.699973 228.562478 112.88673 228.230095 113.219113 
C 227.897712 113.551496 227.710955 114.002367 227.710955 114.472427 
C 227.710955 114.942487 227.897712 115.393358 228.230095 115.725741 
C 228.562478 116.058124 229.013349 116.244881 229.483409 116.244881 
z
" style="fill:#0077bb;stroke:#0077bb;stroke-width:0.886227;"/>
    <path clip-path="url(#p5bf86bf4c1)" d="M 243.010682 124.663486 
C 243.480742 124.663486 243.931613 124.476729 244.263996 124.144347 
C 244.596379 123.811964 244.783136 123.361093 244.783136 122.891032 
C 244.783136 122.420972 244.596379 121.970101 244.263996 121.637718 
C 243.931613 121.305336 243.480742 121.118579 243.010682 121.118579 
C 242.540622 121.118579 242.089751 121.305336 241.757368 121.637718 
C 241.424985 121.970101 241.238228 122.420972 241.238228 122.891032 
C 241.238228 123.361093 241.424985 123.811964 241.757368 124.144347 
C 242.089751 124.476729 242.540622 124.663486 243.010682 124.663486 
z
" style="fill:#0077bb;stroke:#0077bb;stroke-width:0.886227;"/>
    <path clip-path="url(#p5bf86bf4c1)" d="M 256.537955 132.354908 
C 257.008015 132.354908 257.458886 132.168151 257.791269 131.835768 
C 258.123652 131.503386 258.310408 131.052514 258.310408 130.582454 
C 258.310408 130.112394 258.123652 129.661523 257.791269 129.32914 
C 257.458886 128.996757 257.008015 128.81 256.537955 128.81 
C 256.067894 128.81 255.617023 128.996757 255.28464 129.32914 
C 254.952258 129.661523 254.765501 130.112394 254.765501 130.582454 
C 254.765501 131.052514 254.952258 131.503386 255.28464 131.835768 
C 255.617023 132.168151 256.067894 132.354908 256.537955 132.354908 
z
" style="fill:#0077bb;stroke:#0077bb;stroke-width:0.886227;"/>
    <path clip-path="url(#p5bf86bf4c1)" d="M 270.065227 137.438039 
C 270.535288 137.438039 270.986159 137.251282 271.318541 136.918899 
C 271.650924 136.586516 271.837681 136.135645 271.837681 135.665585 
C 271.837681 135.195525 271.650924 134.744654 271.318541 134.412271 
C 270.986159 134.079888 270.535288 133.893131 270.065227 133.893131 
C 269.595167 133.893131 269.144296 134.079888 268.811913 134.412271 
C 268.47953 134.744654 268.292773 135.195525 268.292773 135.665585 
C 268.292773 136.135645 268.47953 136.586516 268.811913 136.918899 
C 269.144296 137.251282 269.595167 137.438039 270.065227 137.438039 
z
" style="fill:#0077bb;stroke:#0077bb;stroke-width:0.886227;"/>
    <path clip-path="url(#p5bf86bf4c1)" d="M 283.5925 141.509123 
C 284.06256 141.509123 284.513431 141.322366 284.845814 140.989983 
C 285.178197 140.6576 285.364954 140.206729 285.364954 139.736669 
C 285.364954 139.266608 285.178197 138.815737 284.845814 138.483355 
C 284.513431 138.150972 284.06256 137.964215 283.5925 137.964215 
C 283.12244 137.964215 282.671569 138.150972 282.339186 138.483355 
C 282.006803 138.815737 281.820046 139.266608 281.820046 139.736669 
C 281.820046 140.206729 282.006803 140.6576 282.339186 140.989983 
C 282.671569 141.322366 283.12244 141.509123 283.5925 141.509123 
z
" style="fill:#0077bb;stroke:#0077bb;stroke-width:0.886227;"/>
    <path clip-path="url(#p5bf86bf4c1)" d="M 297.119773 131.257134 
C 297.589833 131.257134 298.040704 131.070377 298.373087 130.737994 
C 298.70547 130.405611 298.892227 129.95474 298.892227 129.48468 
C 298.892227 129.01462 298.70547 128.563749 298.373087 128.231366 
C 298.040704 127.898983 297.589833 127.712226 297.119773 127.712226 
C 296.649712 127.712226 296.198841 127.898983 295.866459 128.231366 
C 295.534076 128.563749 295.347319 129.01462 295.347319 129.48468 
C 295.347319 129.95474 295.534076 130.405611 295.866459 130.737994 
C 296.198841 131.070377 296.649712 131.257134 297.119773 131.257134 
z
" style="fill:#0077bb;stroke:#0077bb;stroke-width:0.886227;"/>
    <path clip-path="url(#p5bf86bf4c1)" d="M 310.647045 149.956223 
C 311.117106 149.956223 311.567977 149.769466 311.90036 149.437083 
C 312.232742 149.1047 312.419499 148.653829 312.419499 148.183769 
C 312.419499 147.713708 312.232742 147.262837 311.90036 146.930455 
C 311.567977 146.598072 311.117106 146.411315 310.647045 146.411315 
C 310.176985 146.411315 309.726114 146.598072 309.393731 146.930455 
C 309.061348 147.262837 308.874592 147.713708 308.874592 148.183769 
C 308.874592 148.653829 309.061348 149.1047 309.393731 149.437083 
C 309.726114 149.769466 310.176985 149.956223 310.647045 149.956223 
z
" style="fill:#0077bb;stroke:#0077bb;stroke-width:0.886227;"/>
    <path clip-path="url(#p5bf86bf4c1)" d="M 324.174318 135.542875 
C 324.644378 135.542875 325.095249 135.356118 325.427632 135.023735 
C 325.760015 134.691352 325.946772 134.240481 325.946772 133.770421 
C 325.946772 133.300361 325.760015 132.84949 325.427632 132.517107 
C 325.095249 132.184724 324.644378 131.997967 324.174318 131.997967 
C 323.704258 131.997967 323.253387 132.184724 322.921004 132.517107 
C 322.588621 132.84949 322.401864 133.300361 322.401864 133.770421 
C 322.401864 134.240481 322.588621 134.691352 322.921004 135.023735 
C 323.253387 135.356118 323.704258 135.542875 324.174318 135.542875 
z
" style="fill:#0077bb;stroke:#0077bb;stroke-width:0.886227;"/>
    <path clip-path="url(#p5bf86bf4c1)" d="M 337.701591 129.590877 
C 338.171651 129.590877 338.622522 129.40412 338.954905 129.071737 
C 339.287288 128.739354 339.474045 128.288483 339.474045 127.818423 
C 339.474045 127.348363 339.287288 126.897491 338.954905 126.565109 
C 338.622522 126.232726 338.171651 126.045969 337.701591 126.045969 
C 337.23153 126.045969 336.780659 126.232726 336.448277 126.565109 
C 336.115894 126.897491 335.929137 127.348363 335.929137 127.818423 
C 335.929137 128.288483 336.115894 128.739354 336.448277 129.071737 
C 336.780659 129.40412 337.23153 129.590877 337.701591 129.590877 
z
" style="fill:#0077bb;stroke:#0077bb;stroke-width:0.886227;"/>
    <path clip-path="url(#p5bf86bf4c1)" d="M 351.228863 136.720167 
C 351.698924 136.720167 352.149795 136.53341 352.482178 136.201028 
C 352.81456 135.868645 353.001317 135.417774 353.001317 134.947714 
C 353.001317 134.477653 352.81456 134.026782 352.482178 133.694399 
C 352.149795 133.362017 351.698924 133.17526 351.228863 133.17526 
C 350.758803 133.17526 350.307932 133.362017 349.975549 133.694399 
C 349.643166 134.026782 349.45641 134.477653 349.45641 134.947714 
C 349.45641 135.417774 349.643166 135.868645 349.975549 136.201028 
C 350.307932 136.53341 350.758803 136.720167 351.228863 136.720167 
z
" style="fill:#0077bb;stroke:#0077bb;stroke-width:0.886227;"/>
    <path clip-path="url(#p5bf86bf4c1)" d="M 364.756136 142.522046 
C 365.226196 142.522046 365.677067 142.335289 366.00945 142.002906 
C 366.341833 141.670523 366.52859 141.219652 366.52859 140.749592 
C 366.52859 140.279532 366.341833 139.828661 366.00945 139.496278 
C 365.677067 139.163895 365.226196 138.977138 364.756136 138.977138 
C 364.286076 138.977138 363.835205 139.163895 363.502822 139.496278 
C 363.170439 139.828661 362.983682 140.279532 362.983682 140.749592 
C 362.983682 141.219652 363.170439 141.670523 363.502822 142.002906 
C 363.835205 142.335289 364.286076 142.522046 364.756136 142.522046 
z
" style="fill:#0077bb;stroke:#0077bb;stroke-width:0.886227;"/>
    <path clip-path="url(#p5bf86bf4c1)" d="M 378.283409 138.845254 
C 378.753469 138.845254 379.20434 138.658497 379.536723 138.326115 
C 379.869106 137.993732 380.055863 137.542861 380.055863 137.0728 
C 380.055863 136.60274 379.869106 136.151869 379.536723 135.819486 
C 379.20434 135.487104 378.753469 135.300347 378.283409 135.300347 
C 377.813349 135.300347 377.362477 135.487104 377.030095 135.819486 
C 376.697712 136.151869 376.510955 136.60274 376.510955 137.0728 
C 376.510955 137.542861 376.697712 137.993732 377.030095 138.326115 
C 377.362477 138.658497 377.813349 138.845254 378.283409 138.845254 
z
" style="fill:#0077bb;stroke:#0077bb;stroke-width:0.886227;"/>
    <path clip-path="url(#p5bf86bf4c1)" d="M 391.810681 151.247637 
C 392.280742 151.247637 392.731613 151.060881 393.063996 150.728498 
C 393.396378 150.396115 393.583135 149.945244 393.583135 149.475184 
C 393.583135 149.005123 393.396378 148.554252 393.063996 148.221869 
C 392.731613 147.889487 392.280742 147.70273 391.810681 147.70273 
C 391.340621 147.70273 390.88975 147.889487 390.557367 148.221869 
C 390.224985 148.554252 390.038228 149.005123 390.038228 149.475184 
C 390.038228 149.945244 390.224985 150.396115 390.557367 150.728498 
C 390.88975 151.060881 391.340621 151.247637 391.810681 151.247637 
z
" style="fill:#0077bb;stroke:#0077bb;stroke-width:0.886227;"/>
    <path clip-path="url(#p5bf86bf4c1)" d="M 405.337954 167.063192 
C 405.808014 167.063192 406.258885 166.876435 406.591268 166.544052 
C 406.923651 166.21167 407.110408 165.760799 407.110408 165.290738 
C 407.110408 164.820678 406.923651 164.369807 406.591268 164.037424 
C 406.258885 163.705041 405.808014 163.518284 405.337954 163.518284 
C 404.867894 163.518284 404.417023 163.705041 404.08464 164.037424 
C 403.752257 164.369807 403.5655 164.820678 403.5655 165.290738 
C 403.5655 165.760799 403.752257 166.21167 404.08464 166.544052 
C 404.417023 166.876435 404.867894 167.063192 405.337954 167.063192 
z
" style="fill:#0077bb;stroke:#0077bb;stroke-width:0.886227;"/>
    <path clip-path="url(#p5bf86bf4c1)" d="M 418.865227 160.263576 
C 419.335287 160.263576 419.786158 160.076819 420.118541 159.744436 
C 420.450924 159.412053 420.637681 158.961182 420.637681 158.491122 
C 420.637681 158.021062 420.450924 157.57019 420.118541 157.237808 
C 419.786158 156.905425 419.335287 156.718668 418.865227 156.718668 
C 418.395167 156.718668 417.944295 156.905425 417.611913 157.237808 
C 417.27953 157.57019 417.092773 158.021062 417.092773 158.491122 
C 417.092773 158.961182 417.27953 159.412053 417.611913 159.744436 
C 417.944295 160.076819 418.395167 160.263576 418.865227 160.263576 
z
" style="fill:#0077bb;stroke:#0077bb;stroke-width:0.886227;"/>
    <path clip-path="url(#p5bf86bf4c1)" d="M 432.3925 177.917555 
C 432.86256 177.917555 433.313431 177.730798 433.645814 177.398415 
C 433.978196 177.066032 434.164953 176.615161 434.164953 176.145101 
C 434.164953 175.67504 433.978196 175.224169 433.645814 174.891787 
C 433.313431 174.559404 432.86256 174.372647 432.3925 174.372647 
C 431.922439 174.372647 431.471568 174.559404 431.139185 174.891787 
C 430.806803 175.224169 430.620046 175.67504 430.620046 176.145101 
C 430.620046 176.615161 430.806803 177.066032 431.139185 177.398415 
C 431.471568 177.730798 431.922439 177.917555 432.3925 177.917555 
z
" style="fill:#0077bb;stroke:#0077bb;stroke-width:0.886227;"/>
    <path clip-path="url(#p5bf86bf4c1)" d="M 445.919772 168.002022 
C 446.389832 168.002022 446.840704 167.815265 447.173086 167.482883 
C 447.505469 167.1505 447.692226 166.699629 447.692226 166.229569 
C 447.692226 165.759508 447.505469 165.308637 447.173086 164.976254 
C 446.840704 164.643872 446.389832 164.457115 445.919772 164.457115 
C 445.449712 164.457115 444.998841 164.643872 444.666458 164.976254 
C 444.334075 165.308637 444.147318 165.759508 444.147318 166.229569 
C 444.147318 166.699629 444.334075 167.1505 444.666458 167.482883 
C 444.998841 167.815265 445.449712 168.002022 445.919772 168.002022 
z
" style="fill:#0077bb;stroke:#0077bb;stroke-width:0.886227;"/>
    <path clip-path="url(#p5bf86bf4c1)" d="M 459.447045 214.145071 
C 459.917105 214.145071 460.367976 213.958314 460.700359 213.625932 
C 461.032742 213.293549 461.219499 212.842678 461.219499 212.372617 
C 461.219499 211.902557 461.032742 211.451686 460.700359 211.119303 
C 460.367976 210.786921 459.917105 210.600164 459.447045 210.600164 
C 458.976985 210.600164 458.526114 210.786921 458.193731 211.119303 
C 457.861348 211.451686 457.674591 211.902557 457.674591 212.372617 
C 457.674591 212.842678 457.861348 213.293549 458.193731 213.625932 
C 458.526114 213.958314 458.976985 214.145071 459.447045 214.145071 
z
" style="fill:#0077bb;stroke:#0077bb;stroke-width:0.886227;"/>
    <path clip-path="url(#p5bf86bf4c1)" d="M 472.974318 159.379971 
C 473.444378 159.379971 473.895249 159.193214 474.227632 158.860831 
C 474.560014 158.528448 474.746771 158.077577 474.746771 157.607517 
C 474.746771 157.137457 474.560014 156.686585 474.227632 156.354203 
C 473.895249 156.02182 473.444378 155.835063 472.974318 155.835063 
C 472.504257 155.835063 472.053386 156.02182 471.721003 156.354203 
C 471.388621 156.686585 471.201864 157.137457 471.201864 157.607517 
C 471.201864 158.077577 471.388621 158.528448 471.721003 158.860831 
C 472.053386 159.193214 472.504257 159.379971 472.974318 159.379971 
z
" style="fill:#0077bb;stroke:#0077bb;stroke-width:0.886227;"/>
    <path clip-path="url(#p5bf86bf4c1)" d="M 486.50159 183.482368 
C 486.97165 183.482368 487.422522 183.295611 487.754904 182.963228 
C 488.087287 182.630845 488.274044 182.179974 488.274044 181.709914 
C 488.274044 181.239853 488.087287 180.788982 487.754904 180.4566 
C 487.422522 180.124217 486.97165 179.93746 486.50159 179.93746 
C 486.03153 179.93746 485.580659 180.124217 485.248276 180.4566 
C 484.915893 180.788982 484.729136 181.239853 484.729136 181.709914 
C 484.729136 182.179974 484.915893 182.630845 485.248276 182.963228 
C 485.580659 183.295611 486.03153 183.482368 486.50159 183.482368 
z
" style="fill:#0077bb;stroke:#0077bb;stroke-width:0.886227;"/>
   </g>
  </g>
 </g>
 <defs>
  <clipPath id="p5bf86bf4c1">
   <rect height="221.76" width="446.4" x="60.3925" y="7.2"/>
  </clipPath>
 </defs>
</svg>
