<?xml version="1.0" encoding="utf-8" standalone="no"?>
<!DOCTYPE svg PUBLIC "-//W3C//DTD SVG 1.1//EN"
  "http://www.w3.org/Graphics/SVG/1.1/DTD/svg11.dtd">
<!-- Created with matplotlib (https://matplotlib.org/) -->
<svg height="276.021875pt" version="1.1" viewBox="0 0 513.9925 276.021875" width="513.9925pt" xmlns="http://www.w3.org/2000/svg" xmlns:xlink="http://www.w3.org/1999/xlink">
 <defs>
  <style type="text/css">
*{stroke-linecap:butt;stroke-linejoin:round;}
  </style>
 </defs>
 <g id="figure_1">
  <g id="patch_1">
   <path d="M 0 276.021875 
L 513.9925 276.021875 
L 513.9925 0 
L 0 0 
z
" style="fill:#ffffff;stroke:#ffffff;stroke-linejoin:miter;"/>
  </g>
  <g id="axes_1">
   <g id="patch_2">
    <path d="M 60.3925 228.96 
L 506.7925 228.96 
L 506.7925 7.2 
L 60.3925 7.2 
z
" style="fill:#ffffff;"/>
   </g>
   <g id="matplotlib.axis_1">
    <g id="xtick_1">
     <g id="line2d_1">
      <path d="M 80.68341 228.96 
" style="fill:none;stroke:#000000;stroke-width:1.5;"/>
      <defs>
       <path d="M 0 0 
L 0 2.75 
" id="m270c10599a" style="stroke:#000000;"/>
      </defs>
      <g>
       <use style="stroke:#000000;" x="80.68341" xlink:href="#m270c10599a" y="228.96"/>
      </g>
     </g>
     <g id="text_1">
      <!-- 1 -->
      <defs>
       <path d="M 12.40625 8.296875 
L 28.515625 8.296875 
L 28.515625 63.921875 
L 10.984375 60.40625 
L 10.984375 69.390625 
L 28.421875 72.90625 
L 38.28125 72.90625 
L 38.28125 8.296875 
L 54.390625 8.296875 
L 54.390625 0 
L 12.40625 0 
z
" id="DejaVuSans-49"/>
      </defs>
      <g transform="translate(76.22966 244.547812)scale(0.14 -0.14)">
       <use xlink:href="#DejaVuSans-49"/>
      </g>
     </g>
    </g>
    <g id="xtick_2">
     <g id="line2d_2">
      <path d="M 215.956137 228.96 
" style="fill:none;stroke:#000000;stroke-width:1.5;"/>
      <g>
       <use style="stroke:#000000;" x="215.956137" xlink:href="#m270c10599a" y="228.96"/>
      </g>
     </g>
     <g id="text_2">
      <!-- 2 -->
      <defs>
       <path d="M 19.1875 8.296875 
L 53.609375 8.296875 
L 53.609375 0 
L 7.328125 0 
L 7.328125 8.296875 
Q 12.9375 14.109375 22.625 23.890625 
Q 32.328125 33.6875 34.8125 36.53125 
Q 39.546875 41.84375 41.421875 45.53125 
Q 43.3125 49.21875 43.3125 52.78125 
Q 43.3125 58.59375 39.234375 62.25 
Q 35.15625 65.921875 28.609375 65.921875 
Q 23.96875 65.921875 18.8125 64.3125 
Q 13.671875 62.703125 7.8125 59.421875 
L 7.8125 69.390625 
Q 13.765625 71.78125 18.9375 73 
Q 24.125 74.21875 28.421875 74.21875 
Q 39.75 74.21875 46.484375 68.546875 
Q 53.21875 62.890625 53.21875 53.421875 
Q 53.21875 48.921875 51.53125 44.890625 
Q 49.859375 40.875 45.40625 35.40625 
Q 44.1875 33.984375 37.640625 27.21875 
Q 31.109375 20.453125 19.1875 8.296875 
z
" id="DejaVuSans-50"/>
      </defs>
      <g transform="translate(211.502387 244.547812)scale(0.14 -0.14)">
       <use xlink:href="#DejaVuSans-50"/>
      </g>
     </g>
    </g>
    <g id="xtick_3">
     <g id="line2d_3">
      <path d="M 351.228863 228.96 
" style="fill:none;stroke:#000000;stroke-width:1.5;"/>
      <g>
       <use style="stroke:#000000;" x="351.228863" xlink:href="#m270c10599a" y="228.96"/>
      </g>
     </g>
     <g id="text_3">
      <!-- 3 -->
      <defs>
       <path d="M 40.578125 39.3125 
Q 47.65625 37.796875 51.625 33 
Q 55.609375 28.21875 55.609375 21.1875 
Q 55.609375 10.40625 48.1875 4.484375 
Q 40.765625 -1.421875 27.09375 -1.421875 
Q 22.515625 -1.421875 17.65625 -0.515625 
Q 12.796875 0.390625 7.625 2.203125 
L 7.625 11.71875 
Q 11.71875 9.328125 16.59375 8.109375 
Q 21.484375 6.890625 26.8125 6.890625 
Q 36.078125 6.890625 40.9375 10.546875 
Q 45.796875 14.203125 45.796875 21.1875 
Q 45.796875 27.640625 41.28125 31.265625 
Q 36.765625 34.90625 28.71875 34.90625 
L 20.21875 34.90625 
L 20.21875 43.015625 
L 29.109375 43.015625 
Q 36.375 43.015625 40.234375 45.921875 
Q 44.09375 48.828125 44.09375 54.296875 
Q 44.09375 59.90625 40.109375 62.90625 
Q 36.140625 65.921875 28.71875 65.921875 
Q 24.65625 65.921875 20.015625 65.03125 
Q 15.375 64.15625 9.8125 62.3125 
L 9.8125 71.09375 
Q 15.4375 72.65625 20.34375 73.4375 
Q 25.25 74.21875 29.59375 74.21875 
Q 40.828125 74.21875 47.359375 69.109375 
Q 53.90625 64.015625 53.90625 55.328125 
Q 53.90625 49.265625 50.4375 45.09375 
Q 46.96875 40.921875 40.578125 39.3125 
z
" id="DejaVuSans-51"/>
      </defs>
      <g transform="translate(346.775113 244.547812)scale(0.14 -0.14)">
       <use xlink:href="#DejaVuSans-51"/>
      </g>
     </g>
    </g>
    <g id="xtick_4">
     <g id="line2d_4">
      <path d="M 486.50159 228.96 
" style="fill:none;stroke:#000000;stroke-width:1.5;"/>
      <g>
       <use style="stroke:#000000;" x="486.50159" xlink:href="#m270c10599a" y="228.96"/>
      </g>
     </g>
     <g id="text_4">
      <!-- 4 -->
      <defs>
       <path d="M 37.796875 64.3125 
L 12.890625 25.390625 
L 37.796875 25.390625 
z
M 35.203125 72.90625 
L 47.609375 72.90625 
L 47.609375 25.390625 
L 58.015625 25.390625 
L 58.015625 17.1875 
L 47.609375 17.1875 
L 47.609375 0 
L 37.796875 0 
L 37.796875 17.1875 
L 4.890625 17.1875 
L 4.890625 26.703125 
z
" id="DejaVuSans-52"/>
      </defs>
      <g transform="translate(482.04784 244.547812)scale(0.14 -0.14)">
       <use xlink:href="#DejaVuSans-52"/>
      </g>
     </g>
    </g>
    <g id="xtick_5">
     <g id="line2d_5">
      <path d="M 148.319773 228.96 
" style="fill:none;stroke:#000000;stroke-width:1.5;"/>
      <defs>
       <path d="M 0 0 
L 0 1.375 
" id="m4bec25c9a5" style="stroke:#000000;"/>
      </defs>
      <g>
       <use style="stroke:#000000;" x="148.319773" xlink:href="#m4bec25c9a5" y="228.96"/>
      </g>
     </g>
    </g>
    <g id="xtick_6">
     <g id="line2d_6">
      <path d="M 283.5925 228.96 
" style="fill:none;stroke:#000000;stroke-width:1.5;"/>
      <g>
       <use style="stroke:#000000;" x="283.5925" xlink:href="#m4bec25c9a5" y="228.96"/>
      </g>
     </g>
    </g>
    <g id="xtick_7">
     <g id="line2d_7">
      <path d="M 418.865227 228.96 
" style="fill:none;stroke:#000000;stroke-width:1.5;"/>
      <g>
       <use style="stroke:#000000;" x="418.865227" xlink:href="#m4bec25c9a5" y="228.96"/>
      </g>
     </g>
    </g>
    <g id="text_5">
     <!-- Resolution [Å] -->
     <defs>
      <path d="M 44.390625 34.1875 
Q 47.5625 33.109375 50.5625 29.59375 
Q 53.5625 26.078125 56.59375 19.921875 
L 66.609375 0 
L 56 0 
L 46.6875 18.703125 
Q 43.0625 26.03125 39.671875 28.421875 
Q 36.28125 30.8125 30.421875 30.8125 
L 19.671875 30.8125 
L 19.671875 0 
L 9.8125 0 
L 9.8125 72.90625 
L 32.078125 72.90625 
Q 44.578125 72.90625 50.734375 67.671875 
Q 56.890625 62.453125 56.890625 51.90625 
Q 56.890625 45.015625 53.6875 40.46875 
Q 50.484375 35.9375 44.390625 34.1875 
z
M 19.671875 64.796875 
L 19.671875 38.921875 
L 32.078125 38.921875 
Q 39.203125 38.921875 42.84375 42.21875 
Q 46.484375 45.515625 46.484375 51.90625 
Q 46.484375 58.296875 42.84375 61.546875 
Q 39.203125 64.796875 32.078125 64.796875 
z
" id="DejaVuSans-82"/>
      <path d="M 56.203125 29.59375 
L 56.203125 25.203125 
L 14.890625 25.203125 
Q 15.484375 15.921875 20.484375 11.0625 
Q 25.484375 6.203125 34.421875 6.203125 
Q 39.59375 6.203125 44.453125 7.46875 
Q 49.3125 8.734375 54.109375 11.28125 
L 54.109375 2.78125 
Q 49.265625 0.734375 44.1875 -0.34375 
Q 39.109375 -1.421875 33.890625 -1.421875 
Q 20.796875 -1.421875 13.15625 6.1875 
Q 5.515625 13.8125 5.515625 26.8125 
Q 5.515625 40.234375 12.765625 48.109375 
Q 20.015625 56 32.328125 56 
Q 43.359375 56 49.78125 48.890625 
Q 56.203125 41.796875 56.203125 29.59375 
z
M 47.21875 32.234375 
Q 47.125 39.59375 43.09375 43.984375 
Q 39.0625 48.390625 32.421875 48.390625 
Q 24.90625 48.390625 20.390625 44.140625 
Q 15.875 39.890625 15.1875 32.171875 
z
" id="DejaVuSans-101"/>
      <path d="M 44.28125 53.078125 
L 44.28125 44.578125 
Q 40.484375 46.53125 36.375 47.5 
Q 32.28125 48.484375 27.875 48.484375 
Q 21.1875 48.484375 17.84375 46.4375 
Q 14.5 44.390625 14.5 40.28125 
Q 14.5 37.15625 16.890625 35.375 
Q 19.28125 33.59375 26.515625 31.984375 
L 29.59375 31.296875 
Q 39.15625 29.25 43.1875 25.515625 
Q 47.21875 21.78125 47.21875 15.09375 
Q 47.21875 7.46875 41.1875 3.015625 
Q 35.15625 -1.421875 24.609375 -1.421875 
Q 20.21875 -1.421875 15.453125 -0.5625 
Q 10.6875 0.296875 5.421875 2 
L 5.421875 11.28125 
Q 10.40625 8.6875 15.234375 7.390625 
Q 20.0625 6.109375 24.8125 6.109375 
Q 31.15625 6.109375 34.5625 8.28125 
Q 37.984375 10.453125 37.984375 14.40625 
Q 37.984375 18.0625 35.515625 20.015625 
Q 33.0625 21.96875 24.703125 23.78125 
L 21.578125 24.515625 
Q 13.234375 26.265625 9.515625 29.90625 
Q 5.8125 33.546875 5.8125 39.890625 
Q 5.8125 47.609375 11.28125 51.796875 
Q 16.75 56 26.8125 56 
Q 31.78125 56 36.171875 55.265625 
Q 40.578125 54.546875 44.28125 53.078125 
z
" id="DejaVuSans-115"/>
      <path d="M 30.609375 48.390625 
Q 23.390625 48.390625 19.1875 42.75 
Q 14.984375 37.109375 14.984375 27.296875 
Q 14.984375 17.484375 19.15625 11.84375 
Q 23.34375 6.203125 30.609375 6.203125 
Q 37.796875 6.203125 41.984375 11.859375 
Q 46.1875 17.53125 46.1875 27.296875 
Q 46.1875 37.015625 41.984375 42.703125 
Q 37.796875 48.390625 30.609375 48.390625 
z
M 30.609375 56 
Q 42.328125 56 49.015625 48.375 
Q 55.71875 40.765625 55.71875 27.296875 
Q 55.71875 13.875 49.015625 6.21875 
Q 42.328125 -1.421875 30.609375 -1.421875 
Q 18.84375 -1.421875 12.171875 6.21875 
Q 5.515625 13.875 5.515625 27.296875 
Q 5.515625 40.765625 12.171875 48.375 
Q 18.84375 56 30.609375 56 
z
" id="DejaVuSans-111"/>
      <path d="M 9.421875 75.984375 
L 18.40625 75.984375 
L 18.40625 0 
L 9.421875 0 
z
" id="DejaVuSans-108"/>
      <path d="M 8.5 21.578125 
L 8.5 54.6875 
L 17.484375 54.6875 
L 17.484375 21.921875 
Q 17.484375 14.15625 20.5 10.265625 
Q 23.53125 6.390625 29.59375 6.390625 
Q 36.859375 6.390625 41.078125 11.03125 
Q 45.3125 15.671875 45.3125 23.6875 
L 45.3125 54.6875 
L 54.296875 54.6875 
L 54.296875 0 
L 45.3125 0 
L 45.3125 8.40625 
Q 42.046875 3.421875 37.71875 1 
Q 33.40625 -1.421875 27.6875 -1.421875 
Q 18.265625 -1.421875 13.375 4.4375 
Q 8.5 10.296875 8.5 21.578125 
z
M 31.109375 56 
z
" id="DejaVuSans-117"/>
      <path d="M 18.3125 70.21875 
L 18.3125 54.6875 
L 36.8125 54.6875 
L 36.8125 47.703125 
L 18.3125 47.703125 
L 18.3125 18.015625 
Q 18.3125 11.328125 20.140625 9.421875 
Q 21.96875 7.515625 27.59375 7.515625 
L 36.8125 7.515625 
L 36.8125 0 
L 27.59375 0 
Q 17.1875 0 13.234375 3.875 
Q 9.28125 7.765625 9.28125 18.015625 
L 9.28125 47.703125 
L 2.6875 47.703125 
L 2.6875 54.6875 
L 9.28125 54.6875 
L 9.28125 70.21875 
z
" id="DejaVuSans-116"/>
      <path d="M 9.421875 54.6875 
L 18.40625 54.6875 
L 18.40625 0 
L 9.421875 0 
z
M 9.421875 75.984375 
L 18.40625 75.984375 
L 18.40625 64.59375 
L 9.421875 64.59375 
z
" id="DejaVuSans-105"/>
      <path d="M 54.890625 33.015625 
L 54.890625 0 
L 45.90625 0 
L 45.90625 32.71875 
Q 45.90625 40.484375 42.875 44.328125 
Q 39.84375 48.1875 33.796875 48.1875 
Q 26.515625 48.1875 22.3125 43.546875 
Q 18.109375 38.921875 18.109375 30.90625 
L 18.109375 0 
L 9.078125 0 
L 9.078125 54.6875 
L 18.109375 54.6875 
L 18.109375 46.1875 
Q 21.34375 51.125 25.703125 53.5625 
Q 30.078125 56 35.796875 56 
Q 45.21875 56 50.046875 50.171875 
Q 54.890625 44.34375 54.890625 33.015625 
z
" id="DejaVuSans-110"/>
      <path id="DejaVuSans-32"/>
      <path d="M 8.59375 75.984375 
L 29.296875 75.984375 
L 29.296875 69 
L 17.578125 69 
L 17.578125 -6.203125 
L 29.296875 -6.203125 
L 29.296875 -13.1875 
L 8.59375 -13.1875 
z
" id="DejaVuSans-91"/>
      <path d="M 41.609375 79.390625 
Q 41.609375 82.46875 39.421875 84.640625 
Q 37.25 86.8125 34.1875 86.8125 
Q 31.0625 86.8125 28.9375 84.6875 
Q 26.8125 82.5625 26.8125 79.390625 
Q 26.8125 76.3125 28.953125 74.15625 
Q 31.109375 72.015625 34.1875 72.015625 
Q 37.25 72.015625 39.421875 74.15625 
Q 41.609375 76.3125 41.609375 79.390625 
z
M 34.1875 63.1875 
L 20.90625 26.90625 
L 47.515625 26.90625 
z
M 26.8125 68.21875 
Q 23.828125 70.21875 22.3125 73.015625 
Q 20.796875 75.828125 20.796875 79.390625 
Q 20.796875 85.015625 24.671875 88.921875 
Q 28.5625 92.828125 34.1875 92.828125 
Q 39.75 92.828125 43.671875 88.890625 
Q 47.609375 84.96875 47.609375 79.390625 
Q 47.609375 75.984375 46.0625 73.09375 
Q 44.53125 70.21875 41.609375 68.21875 
L 67.578125 0 
L 57.328125 0 
L 50.6875 18.703125 
L 17.828125 18.703125 
L 11.1875 0 
L 0.78125 0 
z
" id="DejaVuSans-197"/>
      <path d="M 30.421875 75.984375 
L 30.421875 -13.1875 
L 9.71875 -13.1875 
L 9.71875 -6.203125 
L 21.390625 -6.203125 
L 21.390625 69 
L 9.71875 69 
L 9.71875 75.984375 
z
" id="DejaVuSans-93"/>
     </defs>
     <g transform="translate(219.98 265.494375)scale(0.16 -0.16)">
      <use xlink:href="#DejaVuSans-82"/>
      <use x="69.419922" xlink:href="#DejaVuSans-101"/>
      <use x="130.943359" xlink:href="#DejaVuSans-115"/>
      <use x="183.042969" xlink:href="#DejaVuSans-111"/>
      <use x="244.224609" xlink:href="#DejaVuSans-108"/>
      <use x="272.007812" xlink:href="#DejaVuSans-117"/>
      <use x="335.386719" xlink:href="#DejaVuSans-116"/>
      <use x="374.595703" xlink:href="#DejaVuSans-105"/>
      <use x="402.378906" xlink:href="#DejaVuSans-111"/>
      <use x="463.560547" xlink:href="#DejaVuSans-110"/>
      <use x="526.939453" xlink:href="#DejaVuSans-32"/>
      <use x="558.726562" xlink:href="#DejaVuSans-91"/>
      <use x="597.740234" xlink:href="#DejaVuSans-197"/>
      <use x="666.148438" xlink:href="#DejaVuSans-93"/>
     </g>
    </g>
   </g>
   <g id="matplotlib.axis_2">
    <g id="ytick_1">
     <g id="line2d_8">
      <path d="M 60.3925 218.88 
" style="fill:none;stroke:#000000;stroke-width:1.5;"/>
      <defs>
       <path d="M 0 0 
L -2.75 0 
" id="m143697ff7d" style="stroke:#000000;"/>
      </defs>
      <g>
       <use style="stroke:#000000;" x="60.3925" xlink:href="#m143697ff7d" y="218.88"/>
      </g>
     </g>
     <g id="text_6">
      <!-- 0 -->
      <defs>
       <path d="M 31.78125 66.40625 
Q 24.171875 66.40625 20.328125 58.90625 
Q 16.5 51.421875 16.5 36.375 
Q 16.5 21.390625 20.328125 13.890625 
Q 24.171875 6.390625 31.78125 6.390625 
Q 39.453125 6.390625 43.28125 13.890625 
Q 47.125 21.390625 47.125 36.375 
Q 47.125 51.421875 43.28125 58.90625 
Q 39.453125 66.40625 31.78125 66.40625 
z
M 31.78125 74.21875 
Q 44.046875 74.21875 50.515625 64.515625 
Q 56.984375 54.828125 56.984375 36.375 
Q 56.984375 17.96875 50.515625 8.265625 
Q 44.046875 -1.421875 31.78125 -1.421875 
Q 19.53125 -1.421875 13.0625 8.265625 
Q 6.59375 17.96875 6.59375 36.375 
Q 6.59375 54.828125 13.0625 64.515625 
Q 19.53125 74.21875 31.78125 74.21875 
z
" id="DejaVuSans-48"/>
      </defs>
      <g transform="translate(46.535 222.743125)scale(0.14 -0.14)">
       <use xlink:href="#DejaVuSans-48"/>
      </g>
     </g>
    </g>
    <g id="ytick_2">
     <g id="line2d_9">
      <path d="M 60.3925 168.48 
" style="fill:none;stroke:#000000;stroke-width:1.5;"/>
      <g>
       <use style="stroke:#000000;" x="60.3925" xlink:href="#m143697ff7d" y="168.48"/>
      </g>
     </g>
     <g id="text_7">
      <!-- 25 -->
      <defs>
       <path d="M 10.796875 72.90625 
L 49.515625 72.90625 
L 49.515625 64.59375 
L 19.828125 64.59375 
L 19.828125 46.734375 
Q 21.96875 47.46875 24.109375 47.828125 
Q 26.265625 48.1875 28.421875 48.1875 
Q 40.625 48.1875 47.75 41.5 
Q 54.890625 34.8125 54.890625 23.390625 
Q 54.890625 11.625 47.5625 5.09375 
Q 40.234375 -1.421875 26.90625 -1.421875 
Q 22.3125 -1.421875 17.546875 -0.640625 
Q 12.796875 0.140625 7.71875 1.703125 
L 7.71875 11.625 
Q 12.109375 9.234375 16.796875 8.0625 
Q 21.484375 6.890625 26.703125 6.890625 
Q 35.15625 6.890625 40.078125 11.328125 
Q 45.015625 15.765625 45.015625 23.390625 
Q 45.015625 31 40.078125 35.4375 
Q 35.15625 39.890625 26.703125 39.890625 
Q 22.75 39.890625 18.8125 39.015625 
Q 14.890625 38.140625 10.796875 36.28125 
z
" id="DejaVuSans-53"/>
      </defs>
      <g transform="translate(37.6275 172.343125)scale(0.14 -0.14)">
       <use xlink:href="#DejaVuSans-50"/>
       <use x="63.623047" xlink:href="#DejaVuSans-53"/>
      </g>
     </g>
    </g>
    <g id="ytick_3">
     <g id="line2d_10">
      <path d="M 60.3925 118.08 
" style="fill:none;stroke:#000000;stroke-width:1.5;"/>
      <g>
       <use style="stroke:#000000;" x="60.3925" xlink:href="#m143697ff7d" y="118.08"/>
      </g>
     </g>
     <g id="text_8">
      <!-- 50 -->
      <g transform="translate(37.6275 121.943125)scale(0.14 -0.14)">
       <use xlink:href="#DejaVuSans-53"/>
       <use x="63.623047" xlink:href="#DejaVuSans-48"/>
      </g>
     </g>
    </g>
    <g id="ytick_4">
     <g id="line2d_11">
      <path d="M 60.3925 67.68 
" style="fill:none;stroke:#000000;stroke-width:1.5;"/>
      <g>
       <use style="stroke:#000000;" x="60.3925" xlink:href="#m143697ff7d" y="67.68"/>
      </g>
     </g>
     <g id="text_9">
      <!-- 75 -->
      <defs>
       <path d="M 8.203125 72.90625 
L 55.078125 72.90625 
L 55.078125 68.703125 
L 28.609375 0 
L 18.3125 0 
L 43.21875 64.59375 
L 8.203125 64.59375 
z
" id="DejaVuSans-55"/>
      </defs>
      <g transform="translate(37.6275 71.543125)scale(0.14 -0.14)">
       <use xlink:href="#DejaVuSans-55"/>
       <use x="63.623047" xlink:href="#DejaVuSans-53"/>
      </g>
     </g>
    </g>
    <g id="ytick_5">
     <g id="line2d_12">
      <path d="M 60.3925 17.28 
" style="fill:none;stroke:#000000;stroke-width:1.5;"/>
      <g>
       <use style="stroke:#000000;" x="60.3925" xlink:href="#m143697ff7d" y="17.28"/>
      </g>
     </g>
     <g id="text_10">
      <!-- 100 -->
      <g transform="translate(28.72 21.143125)scale(0.14 -0.14)">
       <use xlink:href="#DejaVuSans-49"/>
       <use x="63.623047" xlink:href="#DejaVuSans-48"/>
       <use x="127.246094" xlink:href="#DejaVuSans-48"/>
      </g>
     </g>
    </g>
    <g id="ytick_6">
     <g id="line2d_13">
      <path d="M 60.3925 193.68 
" style="fill:none;stroke:#000000;stroke-width:1.5;"/>
      <defs>
       <path d="M 0 0 
L -1.375 0 
" id="ma7efab73a3" style="stroke:#000000;"/>
      </defs>
      <g>
       <use style="stroke:#000000;" x="60.3925" xlink:href="#ma7efab73a3" y="193.68"/>
      </g>
     </g>
    </g>
    <g id="ytick_7">
     <g id="line2d_14">
      <path d="M 60.3925 143.28 
" style="fill:none;stroke:#000000;stroke-width:1.5;"/>
      <g>
       <use style="stroke:#000000;" x="60.3925" xlink:href="#ma7efab73a3" y="143.28"/>
      </g>
     </g>
    </g>
    <g id="ytick_8">
     <g id="line2d_15">
      <path d="M 60.3925 92.88 
" style="fill:none;stroke:#000000;stroke-width:1.5;"/>
      <g>
       <use style="stroke:#000000;" x="60.3925" xlink:href="#ma7efab73a3" y="92.88"/>
      </g>
     </g>
    </g>
    <g id="ytick_9">
     <g id="line2d_16">
      <path d="M 60.3925 42.48 
" style="fill:none;stroke:#000000;stroke-width:1.5;"/>
      <g>
       <use style="stroke:#000000;" x="60.3925" xlink:href="#ma7efab73a3" y="42.48"/>
      </g>
     </g>
    </g>
    <g id="text_11">
     <!-- $P_{Q1p_{min}}$ [%] -->
     <defs>
      <path d="M 16.890625 72.90625 
L 39.703125 72.90625 
Q 49.65625 72.90625 54.875 68.265625 
Q 60.109375 63.625 60.109375 54.6875 
Q 60.109375 42.671875 52.390625 35.984375 
Q 44.671875 29.296875 30.71875 29.296875 
L 18.3125 29.296875 
L 12.59375 0 
L 2.6875 0 
z
M 25.203125 64.796875 
L 19.921875 37.40625 
L 32.328125 37.40625 
Q 40.71875 37.40625 45.203125 41.703125 
Q 49.703125 46 49.703125 54 
Q 49.703125 59.125 46.65625 61.953125 
Q 43.609375 64.796875 38.09375 64.796875 
z
" id="DejaVuSans-Oblique-80"/>
      <path d="M 36.078125 -1.3125 
Q 35.546875 -1.375 34.953125 -1.390625 
Q 34.375 -1.421875 33.203125 -1.421875 
Q 19.53125 -1.421875 11.8125 6.421875 
Q 4.109375 14.265625 4.109375 28.078125 
Q 4.109375 36.234375 7.0625 44.4375 
Q 10.015625 52.640625 15.28125 59.1875 
Q 21.390625 66.703125 29.03125 70.453125 
Q 36.671875 74.21875 45.90625 74.21875 
Q 59.28125 74.21875 66.984375 66.328125 
Q 74.703125 58.453125 74.703125 44.828125 
Q 74.703125 30.125 66.640625 17.921875 
Q 58.59375 5.71875 45.609375 0.6875 
L 55.515625 -12.890625 
L 44.484375 -12.890625 
z
M 45.609375 66.21875 
Q 37.5 66.21875 31.296875 62.28125 
Q 25.09375 58.34375 20.515625 50.296875 
Q 17.578125 45.171875 16.03125 39.40625 
Q 14.5 33.640625 14.5 27.78125 
Q 14.5 17.625 19.359375 12.109375 
Q 24.21875 6.59375 33.109375 6.59375 
Q 41.109375 6.59375 47.375 10.5625 
Q 53.65625 14.546875 58.109375 22.40625 
Q 61.078125 27.6875 62.640625 33.46875 
Q 64.203125 39.265625 64.203125 45.015625 
Q 64.203125 55.125 59.3125 60.671875 
Q 54.4375 66.21875 45.609375 66.21875 
z
" id="DejaVuSans-Oblique-81"/>
      <path d="M 49.609375 33.6875 
Q 49.609375 40.875 46.484375 44.671875 
Q 43.359375 48.484375 37.5 48.484375 
Q 33.5 48.484375 29.859375 46.4375 
Q 26.21875 44.390625 23.390625 40.484375 
Q 20.609375 36.625 18.9375 31.15625 
Q 17.28125 25.6875 17.28125 20.3125 
Q 17.28125 13.484375 20.40625 9.796875 
Q 23.53125 6.109375 29.296875 6.109375 
Q 33.546875 6.109375 37.1875 8.109375 
Q 40.828125 10.109375 43.40625 13.921875 
Q 46.1875 17.921875 47.890625 23.34375 
Q 49.609375 28.765625 49.609375 33.6875 
z
M 21.78125 46.390625 
Q 25.390625 51.125 30.296875 53.5625 
Q 35.203125 56 41.21875 56 
Q 49.609375 56 54.25 50.5 
Q 58.890625 45.015625 58.890625 35.109375 
Q 58.890625 27 56 19.65625 
Q 53.125 12.3125 47.703125 6.5 
Q 44.09375 2.640625 39.546875 0.609375 
Q 35.015625 -1.421875 29.984375 -1.421875 
Q 24.171875 -1.421875 20.21875 1 
Q 16.265625 3.421875 14.3125 8.203125 
L 8.6875 -20.796875 
L -0.296875 -20.796875 
L 14.40625 54.6875 
L 23.390625 54.6875 
z
" id="DejaVuSans-Oblique-112"/>
      <path d="M 89.796875 33.015625 
L 83.40625 0 
L 74.421875 0 
L 80.71875 32.71875 
Q 81.109375 34.8125 81.296875 36.328125 
Q 81.5 37.84375 81.5 38.921875 
Q 81.5 43.3125 79.046875 45.75 
Q 76.609375 48.1875 72.21875 48.1875 
Q 65.671875 48.1875 60.546875 43.28125 
Q 55.421875 38.375 53.90625 30.515625 
L 47.90625 0 
L 38.921875 0 
L 45.3125 32.71875 
Q 45.703125 34.515625 45.890625 36.046875 
Q 46.09375 37.59375 46.09375 38.8125 
Q 46.09375 43.265625 43.65625 45.71875 
Q 41.21875 48.1875 36.921875 48.1875 
Q 30.28125 48.1875 25.140625 43.28125 
Q 20.015625 38.375 18.5 30.515625 
L 12.5 0 
L 3.515625 0 
L 14.203125 54.6875 
L 23.1875 54.6875 
L 21.484375 46.1875 
Q 25.140625 50.984375 30.046875 53.484375 
Q 34.96875 56 40.578125 56 
Q 46.53125 56 50.359375 52.875 
Q 54.203125 49.75 54.984375 44.1875 
Q 59.078125 49.953125 64.46875 52.96875 
Q 69.875 56 75.875 56 
Q 82.90625 56 86.734375 51.953125 
Q 90.578125 47.90625 90.578125 40.484375 
Q 90.578125 38.875 90.375 36.9375 
Q 90.1875 35.015625 89.796875 33.015625 
z
" id="DejaVuSans-Oblique-109"/>
      <path d="M 18.3125 75.984375 
L 27.296875 75.984375 
L 25.09375 64.59375 
L 16.109375 64.59375 
z
M 14.203125 54.6875 
L 23.1875 54.6875 
L 12.5 0 
L 3.515625 0 
z
" id="DejaVuSans-Oblique-105"/>
      <path d="M 55.71875 33.015625 
L 49.3125 0 
L 40.28125 0 
L 46.6875 32.671875 
Q 47.125 34.96875 47.359375 36.71875 
Q 47.609375 38.484375 47.609375 39.5 
Q 47.609375 43.609375 45.015625 45.890625 
Q 42.4375 48.1875 37.796875 48.1875 
Q 30.5625 48.1875 25.34375 43.375 
Q 20.125 38.578125 18.5 30.328125 
L 12.5 0 
L 3.515625 0 
L 14.109375 54.6875 
L 23.09375 54.6875 
L 21.296875 46.09375 
Q 25.046875 50.828125 30.3125 53.40625 
Q 35.59375 56 41.40625 56 
Q 48.640625 56 52.609375 52.09375 
Q 56.59375 48.1875 56.59375 41.109375 
Q 56.59375 39.359375 56.375 37.359375 
Q 56.15625 35.359375 55.71875 33.015625 
z
" id="DejaVuSans-Oblique-110"/>
      <path d="M 72.703125 32.078125 
Q 68.453125 32.078125 66.03125 28.46875 
Q 63.625 24.859375 63.625 18.40625 
Q 63.625 12.0625 66.03125 8.421875 
Q 68.453125 4.78125 72.703125 4.78125 
Q 76.859375 4.78125 79.265625 8.421875 
Q 81.6875 12.0625 81.6875 18.40625 
Q 81.6875 24.8125 79.265625 28.4375 
Q 76.859375 32.078125 72.703125 32.078125 
z
M 72.703125 38.28125 
Q 80.421875 38.28125 84.953125 32.90625 
Q 89.5 27.546875 89.5 18.40625 
Q 89.5 9.28125 84.9375 3.921875 
Q 80.375 -1.421875 72.703125 -1.421875 
Q 64.890625 -1.421875 60.34375 3.921875 
Q 55.8125 9.28125 55.8125 18.40625 
Q 55.8125 27.59375 60.375 32.9375 
Q 64.9375 38.28125 72.703125 38.28125 
z
M 22.3125 68.015625 
Q 18.109375 68.015625 15.6875 64.375 
Q 13.28125 60.75 13.28125 54.390625 
Q 13.28125 47.953125 15.671875 44.328125 
Q 18.0625 40.71875 22.3125 40.71875 
Q 26.5625 40.71875 28.96875 44.328125 
Q 31.390625 47.953125 31.390625 54.390625 
Q 31.390625 60.6875 28.953125 64.34375 
Q 26.515625 68.015625 22.3125 68.015625 
z
M 66.40625 74.21875 
L 74.21875 74.21875 
L 28.609375 -1.421875 
L 20.796875 -1.421875 
z
M 22.3125 74.21875 
Q 30.03125 74.21875 34.609375 68.875 
Q 39.203125 63.53125 39.203125 54.390625 
Q 39.203125 45.171875 34.640625 39.84375 
Q 30.078125 34.515625 22.3125 34.515625 
Q 14.546875 34.515625 10.03125 39.859375 
Q 5.515625 45.21875 5.515625 54.390625 
Q 5.515625 63.484375 10.046875 68.84375 
Q 14.59375 74.21875 22.3125 74.21875 
z
" id="DejaVuSans-37"/>
     </defs>
     <g transform="translate(19.36 157.2)rotate(-90)scale(0.16 -0.16)">
      <use transform="translate(0 0.015625)" xlink:href="#DejaVuSans-Oblique-80"/>
      <use transform="translate(60.302734 -16.390625)scale(0.7)" xlink:href="#DejaVuSans-Oblique-81"/>
      <use transform="translate(115.400391 -16.390625)scale(0.7)" xlink:href="#DejaVuSans-49"/>
      <use transform="translate(159.936523 -16.390625)scale(0.7)" xlink:href="#DejaVuSans-Oblique-112"/>
      <use transform="translate(204.370117 -27.875)scale(0.49)" xlink:href="#DejaVuSans-Oblique-109"/>
      <use transform="translate(252.102051 -27.875)scale(0.49)" xlink:href="#DejaVuSans-Oblique-105"/>
      <use transform="translate(265.71582 -27.875)scale(0.49)" xlink:href="#DejaVuSans-Oblique-110"/>
      <use transform="translate(301.419922 0.015625)" xlink:href="#DejaVuSans-32"/>
      <use transform="translate(333.207031 0.015625)" xlink:href="#DejaVuSans-91"/>
      <use transform="translate(372.220703 0.015625)" xlink:href="#DejaVuSans-37"/>
      <use transform="translate(467.240234 0.015625)" xlink:href="#DejaVuSans-93"/>
     </g>
    </g>
   </g>
   <g id="LineCollection_1">
    <path clip-path="url(#p5d236f155d)" d="M 80.683409 78.597518 
L 80.68341 78.597518 
" style="fill:none;stroke:#9da0a2;stroke-width:1.32934;"/>
    <path clip-path="url(#p5d236f155d)" d="M 94.210682 80.090827 
L 94.210683 80.090827 
" style="fill:none;stroke:#9da0a2;stroke-width:1.32934;"/>
    <path clip-path="url(#p5d236f155d)" d="M 107.737954 83.741788 
L 107.737956 83.741788 
" style="fill:none;stroke:#9da0a2;stroke-width:1.32934;"/>
    <path clip-path="url(#p5d236f155d)" d="M 121.265227 81.467054 
L 121.265228 81.467054 
" style="fill:none;stroke:#9da0a2;stroke-width:1.32934;"/>
    <path clip-path="url(#p5d236f155d)" d="M 134.7925 87.124007 
L 134.792501 87.124007 
" style="fill:none;stroke:#9da0a2;stroke-width:1.32934;"/>
    <path clip-path="url(#p5d236f155d)" d="M 148.319773 91.059975 
L 148.319774 91.059975 
" style="fill:none;stroke:#9da0a2;stroke-width:1.32934;"/>
    <path clip-path="url(#p5d236f155d)" d="M 161.847045 89.181929 
L 161.847047 89.181929 
" style="fill:none;stroke:#9da0a2;stroke-width:1.32934;"/>
    <path clip-path="url(#p5d236f155d)" d="M 175.374318 95.790604 
L 175.374319 95.790604 
" style="fill:none;stroke:#9da0a2;stroke-width:1.32934;"/>
    <path clip-path="url(#p5d236f155d)" d="M 188.901591 93.567204 
L 188.901592 93.567204 
" style="fill:none;stroke:#9da0a2;stroke-width:1.32934;"/>
    <path clip-path="url(#p5d236f155d)" d="M 202.428863 103.370355 
L 202.428865 103.370355 
" style="fill:none;stroke:#9da0a2;stroke-width:1.32934;"/>
    <path clip-path="url(#p5d236f155d)" d="M 215.956136 110.055381 
L 215.956137 110.055381 
" style="fill:none;stroke:#9da0a2;stroke-width:1.32934;"/>
    <path clip-path="url(#p5d236f155d)" d="M 229.483409 116.552236 
L 229.48341 116.552236 
" style="fill:none;stroke:#9da0a2;stroke-width:1.32934;"/>
    <path clip-path="url(#p5d236f155d)" d="M 243.010681 120.820584 
L 243.010683 120.820584 
" style="fill:none;stroke:#9da0a2;stroke-width:1.32934;"/>
    <path clip-path="url(#p5d236f155d)" d="M 256.537954 131.462754 
L 256.537955 131.462754 
" style="fill:none;stroke:#9da0a2;stroke-width:1.32934;"/>
    <path clip-path="url(#p5d236f155d)" d="M 270.065227 133.752414 
L 270.065228 133.752414 
" style="fill:none;stroke:#9da0a2;stroke-width:1.32934;"/>
    <path clip-path="url(#p5d236f155d)" d="M 283.592499 142.313273 
L 283.592501 142.313273 
" style="fill:none;stroke:#9da0a2;stroke-width:1.32934;"/>
    <path clip-path="url(#p5d236f155d)" d="M 297.119772 143.203372 
L 297.119773 143.203372 
" style="fill:none;stroke:#9da0a2;stroke-width:1.32934;"/>
    <path clip-path="url(#p5d236f155d)" d="M 310.647045 149.744051 
L 310.647046 149.744051 
" style="fill:none;stroke:#9da0a2;stroke-width:1.32934;"/>
    <path clip-path="url(#p5d236f155d)" d="M 324.174317 155.396562 
L 324.174319 155.396562 
" style="fill:none;stroke:#9da0a2;stroke-width:1.32934;"/>
    <path clip-path="url(#p5d236f155d)" d="M 337.70159 160.430633 
L 337.701591 160.430633 
" style="fill:none;stroke:#9da0a2;stroke-width:1.32934;"/>
    <path clip-path="url(#p5d236f155d)" d="M 351.228863 164.466197 
L 351.228864 164.466197 
" style="fill:none;stroke:#9da0a2;stroke-width:1.32934;"/>
    <path clip-path="url(#p5d236f155d)" d="M 364.756135 165.149008 
L 364.756137 165.149008 
" style="fill:none;stroke:#9da0a2;stroke-width:1.32934;"/>
    <path clip-path="url(#p5d236f155d)" d="M 378.283408 169.627084 
L 378.283409 169.627084 
" style="fill:none;stroke:#9da0a2;stroke-width:1.32934;"/>
    <path clip-path="url(#p5d236f155d)" d="M 391.810681 172.383876 
L 391.810682 172.383876 
" style="fill:none;stroke:#9da0a2;stroke-width:1.32934;"/>
    <path clip-path="url(#p5d236f155d)" d="M 405.337953 178.423511 
L 405.337955 178.423511 
" style="fill:none;stroke:#9da0a2;stroke-width:1.32934;"/>
    <path clip-path="url(#p5d236f155d)" d="M 418.865226 185.995472 
L 418.865227 185.995472 
" style="fill:none;stroke:#9da0a2;stroke-width:1.32934;"/>
    <path clip-path="url(#p5d236f155d)" d="M 432.392499 186.225856 
L 432.3925 186.225856 
" style="fill:none;stroke:#9da0a2;stroke-width:1.32934;"/>
    <path clip-path="url(#p5d236f155d)" d="M 445.919772 190.094565 
L 445.919773 190.094565 
" style="fill:none;stroke:#9da0a2;stroke-width:1.32934;"/>
    <path clip-path="url(#p5d236f155d)" d="M 459.447044 192.478683 
L 459.447046 192.478683 
" style="fill:none;stroke:#9da0a2;stroke-width:1.32934;"/>
    <path clip-path="url(#p5d236f155d)" d="M 472.974317 192.922856 
L 472.974318 192.922856 
" style="fill:none;stroke:#9da0a2;stroke-width:1.32934;"/>
    <path clip-path="url(#p5d236f155d)" d="M 486.50159 198.628577 
L 486.501591 198.628577 
" style="fill:none;stroke:#9da0a2;stroke-width:1.32934;"/>
    <path clip-path="url(#p5d236f155d)" d="M 80.683409 75.403396 
L 80.68341 75.403396 
" style="fill:none;stroke:#9da0a2;stroke-width:1.32934;"/>
    <path clip-path="url(#p5d236f155d)" d="M 94.210682 76.739631 
L 94.210683 76.739631 
" style="fill:none;stroke:#9da0a2;stroke-width:1.32934;"/>
    <path clip-path="url(#p5d236f155d)" d="M 107.737954 81.360178 
L 107.737956 81.360178 
" style="fill:none;stroke:#9da0a2;stroke-width:1.32934;"/>
    <path clip-path="url(#p5d236f155d)" d="M 121.265227 79.04704 
L 121.265228 79.04704 
" style="fill:none;stroke:#9da0a2;stroke-width:1.32934;"/>
    <path clip-path="url(#p5d236f155d)" d="M 134.7925 85.497231 
L 134.792501 85.497231 
" style="fill:none;stroke:#9da0a2;stroke-width:1.32934;"/>
    <path clip-path="url(#p5d236f155d)" d="M 148.319773 89.482872 
L 148.319774 89.482872 
" style="fill:none;stroke:#9da0a2;stroke-width:1.32934;"/>
    <path clip-path="url(#p5d236f155d)" d="M 161.847045 87.988868 
L 161.847047 87.988868 
" style="fill:none;stroke:#9da0a2;stroke-width:1.32934;"/>
    <path clip-path="url(#p5d236f155d)" d="M 175.374318 94.484016 
L 175.374319 94.484016 
" style="fill:none;stroke:#9da0a2;stroke-width:1.32934;"/>
    <path clip-path="url(#p5d236f155d)" d="M 188.901591 92.649145 
L 188.901592 92.649145 
" style="fill:none;stroke:#9da0a2;stroke-width:1.32934;"/>
    <path clip-path="url(#p5d236f155d)" d="M 202.428863 102.282335 
L 202.428865 102.282335 
" style="fill:none;stroke:#9da0a2;stroke-width:1.32934;"/>
    <path clip-path="url(#p5d236f155d)" d="M 215.956136 109.193865 
L 215.956137 109.193865 
" style="fill:none;stroke:#9da0a2;stroke-width:1.32934;"/>
    <path clip-path="url(#p5d236f155d)" d="M 229.483409 115.34965 
L 229.48341 115.34965 
" style="fill:none;stroke:#9da0a2;stroke-width:1.32934;"/>
    <path clip-path="url(#p5d236f155d)" d="M 243.010681 119.787011 
L 243.010683 119.787011 
" style="fill:none;stroke:#9da0a2;stroke-width:1.32934;"/>
    <path clip-path="url(#p5d236f155d)" d="M 256.537954 130.29073 
L 256.537955 130.29073 
" style="fill:none;stroke:#9da0a2;stroke-width:1.32934;"/>
    <path clip-path="url(#p5d236f155d)" d="M 270.065227 132.602823 
L 270.065228 132.602823 
" style="fill:none;stroke:#9da0a2;stroke-width:1.32934;"/>
    <path clip-path="url(#p5d236f155d)" d="M 283.592499 141.12669 
L 283.592501 141.12669 
" style="fill:none;stroke:#9da0a2;stroke-width:1.32934;"/>
    <path clip-path="url(#p5d236f155d)" d="M 297.119772 141.970343 
L 297.119773 141.970343 
" style="fill:none;stroke:#9da0a2;stroke-width:1.32934;"/>
    <path clip-path="url(#p5d236f155d)" d="M 310.647045 148.28822 
L 310.647046 148.28822 
" style="fill:none;stroke:#9da0a2;stroke-width:1.32934;"/>
    <path clip-path="url(#p5d236f155d)" d="M 324.174317 154.13495 
L 324.174319 154.13495 
" style="fill:none;stroke:#9da0a2;stroke-width:1.32934;"/>
    <path clip-path="url(#p5d236f155d)" d="M 337.70159 158.697843 
L 337.701591 158.697843 
" style="fill:none;stroke:#9da0a2;stroke-width:1.32934;"/>
    <path clip-path="url(#p5d236f155d)" d="M 351.228863 162.928431 
L 351.228864 162.928431 
" style="fill:none;stroke:#9da0a2;stroke-width:1.32934;"/>
    <path clip-path="url(#p5d236f155d)" d="M 364.756135 162.826131 
L 364.756137 162.826131 
" style="fill:none;stroke:#9da0a2;stroke-width:1.32934;"/>
    <path clip-path="url(#p5d236f155d)" d="M 378.283408 167.578863 
L 378.283409 167.578863 
" style="fill:none;stroke:#9da0a2;stroke-width:1.32934;"/>
    <path clip-path="url(#p5d236f155d)" d="M 391.810681 169.647314 
L 391.810682 169.647314 
" style="fill:none;stroke:#9da0a2;stroke-width:1.32934;"/>
    <path clip-path="url(#p5d236f155d)" d="M 405.337953 175.542222 
L 405.337955 175.542222 
" style="fill:none;stroke:#9da0a2;stroke-width:1.32934;"/>
    <path clip-path="url(#p5d236f155d)" d="M 418.865226 183.219035 
L 418.865227 183.219035 
" style="fill:none;stroke:#9da0a2;stroke-width:1.32934;"/>
    <path clip-path="url(#p5d236f155d)" d="M 432.392499 182.535782 
L 432.3925 182.535782 
" style="fill:none;stroke:#9da0a2;stroke-width:1.32934;"/>
    <path clip-path="url(#p5d236f155d)" d="M 445.919772 185.073771 
L 445.919773 185.073771 
" style="fill:none;stroke:#9da0a2;stroke-width:1.32934;"/>
    <path clip-path="url(#p5d236f155d)" d="M 459.447044 188.66111 
L 459.447046 188.66111 
" style="fill:none;stroke:#9da0a2;stroke-width:1.32934;"/>
    <path clip-path="url(#p5d236f155d)" d="M 472.974317 187.420535 
L 472.974318 187.420535 
" style="fill:none;stroke:#9da0a2;stroke-width:1.32934;"/>
    <path clip-path="url(#p5d236f155d)" d="M 486.50159 196.545715 
L 486.501591 196.545715 
" style="fill:none;stroke:#9da0a2;stroke-width:1.32934;"/>
    <path clip-path="url(#p5d236f155d)" d="M 80.68341 75.403396 
L 80.68341 78.597518 
" style="fill:none;stroke:#9da0a2;stroke-width:1.32934;"/>
    <path clip-path="url(#p5d236f155d)" d="M 94.210682 76.739631 
L 94.210682 80.090827 
" style="fill:none;stroke:#9da0a2;stroke-width:1.32934;"/>
    <path clip-path="url(#p5d236f155d)" d="M 107.737955 81.360178 
L 107.737955 83.741788 
" style="fill:none;stroke:#9da0a2;stroke-width:1.32934;"/>
    <path clip-path="url(#p5d236f155d)" d="M 121.265228 79.04704 
L 121.265228 81.467054 
" style="fill:none;stroke:#9da0a2;stroke-width:1.32934;"/>
    <path clip-path="url(#p5d236f155d)" d="M 134.7925 85.497231 
L 134.7925 87.124007 
" style="fill:none;stroke:#9da0a2;stroke-width:1.32934;"/>
    <path clip-path="url(#p5d236f155d)" d="M 148.319773 89.482872 
L 148.319773 91.059975 
" style="fill:none;stroke:#9da0a2;stroke-width:1.32934;"/>
    <path clip-path="url(#p5d236f155d)" d="M 161.847046 87.988868 
L 161.847046 89.181929 
" style="fill:none;stroke:#9da0a2;stroke-width:1.32934;"/>
    <path clip-path="url(#p5d236f155d)" d="M 175.374319 94.484016 
L 175.374319 95.790604 
" style="fill:none;stroke:#9da0a2;stroke-width:1.32934;"/>
    <path clip-path="url(#p5d236f155d)" d="M 188.901591 92.649145 
L 188.901591 93.567204 
" style="fill:none;stroke:#9da0a2;stroke-width:1.32934;"/>
    <path clip-path="url(#p5d236f155d)" d="M 202.428864 102.282335 
L 202.428864 103.370355 
" style="fill:none;stroke:#9da0a2;stroke-width:1.32934;"/>
    <path clip-path="url(#p5d236f155d)" d="M 215.956137 109.193865 
L 215.956137 110.055381 
" style="fill:none;stroke:#9da0a2;stroke-width:1.32934;"/>
    <path clip-path="url(#p5d236f155d)" d="M 229.483409 115.34965 
L 229.483409 116.552236 
" style="fill:none;stroke:#9da0a2;stroke-width:1.32934;"/>
    <path clip-path="url(#p5d236f155d)" d="M 243.010682 119.787011 
L 243.010682 120.820584 
" style="fill:none;stroke:#9da0a2;stroke-width:1.32934;"/>
    <path clip-path="url(#p5d236f155d)" d="M 256.537955 130.29073 
L 256.537955 131.462754 
" style="fill:none;stroke:#9da0a2;stroke-width:1.32934;"/>
    <path clip-path="url(#p5d236f155d)" d="M 270.065227 132.602823 
L 270.065227 133.752414 
" style="fill:none;stroke:#9da0a2;stroke-width:1.32934;"/>
    <path clip-path="url(#p5d236f155d)" d="M 283.5925 141.12669 
L 283.5925 142.313273 
" style="fill:none;stroke:#9da0a2;stroke-width:1.32934;"/>
    <path clip-path="url(#p5d236f155d)" d="M 297.119773 141.970343 
L 297.119773 143.203372 
" style="fill:none;stroke:#9da0a2;stroke-width:1.32934;"/>
    <path clip-path="url(#p5d236f155d)" d="M 310.647045 148.28822 
L 310.647045 149.744051 
" style="fill:none;stroke:#9da0a2;stroke-width:1.32934;"/>
    <path clip-path="url(#p5d236f155d)" d="M 324.174318 154.13495 
L 324.174318 155.396562 
" style="fill:none;stroke:#9da0a2;stroke-width:1.32934;"/>
    <path clip-path="url(#p5d236f155d)" d="M 337.701591 158.697843 
L 337.701591 160.430633 
" style="fill:none;stroke:#9da0a2;stroke-width:1.32934;"/>
    <path clip-path="url(#p5d236f155d)" d="M 351.228863 162.928431 
L 351.228863 164.466197 
" style="fill:none;stroke:#9da0a2;stroke-width:1.32934;"/>
    <path clip-path="url(#p5d236f155d)" d="M 364.756136 162.826131 
L 364.756136 165.149008 
" style="fill:none;stroke:#9da0a2;stroke-width:1.32934;"/>
    <path clip-path="url(#p5d236f155d)" d="M 378.283409 167.578863 
L 378.283409 169.627084 
" style="fill:none;stroke:#9da0a2;stroke-width:1.32934;"/>
    <path clip-path="url(#p5d236f155d)" d="M 391.810681 169.647314 
L 391.810681 172.383876 
" style="fill:none;stroke:#9da0a2;stroke-width:1.32934;"/>
    <path clip-path="url(#p5d236f155d)" d="M 405.337954 175.542222 
L 405.337954 178.423511 
" style="fill:none;stroke:#9da0a2;stroke-width:1.32934;"/>
    <path clip-path="url(#p5d236f155d)" d="M 418.865227 183.219035 
L 418.865227 185.995472 
" style="fill:none;stroke:#9da0a2;stroke-width:1.32934;"/>
    <path clip-path="url(#p5d236f155d)" d="M 432.3925 182.535782 
L 432.3925 186.225856 
" style="fill:none;stroke:#9da0a2;stroke-width:1.32934;"/>
    <path clip-path="url(#p5d236f155d)" d="M 445.919772 185.073771 
L 445.919772 190.094565 
" style="fill:none;stroke:#9da0a2;stroke-width:1.32934;"/>
    <path clip-path="url(#p5d236f155d)" d="M 459.447045 188.66111 
L 459.447045 192.478683 
" style="fill:none;stroke:#9da0a2;stroke-width:1.32934;"/>
    <path clip-path="url(#p5d236f155d)" d="M 472.974318 187.420535 
L 472.974318 192.922856 
" style="fill:none;stroke:#9da0a2;stroke-width:1.32934;"/>
    <path clip-path="url(#p5d236f155d)" d="M 486.50159 196.545715 
L 486.50159 198.628577 
" style="fill:none;stroke:#9da0a2;stroke-width:1.32934;"/>
   </g>
   <g id="line2d_17">
    <path clip-path="url(#p5d236f155d)" d="M 80.68341 77.000457 
L 94.210682 78.415229 
L 107.737955 82.550983 
L 121.265228 80.257047 
L 134.7925 86.310619 
L 148.319773 90.271423 
L 161.847046 88.585398 
L 175.374319 95.13731 
L 188.901591 93.108175 
L 202.428864 102.826345 
L 215.956137 109.624623 
L 229.483409 115.950943 
L 243.010682 120.303797 
L 256.537955 130.876742 
L 270.065227 133.177619 
L 283.5925 141.719982 
L 297.119773 142.586857 
L 310.647045 149.016135 
L 324.174318 154.765756 
L 337.701591 159.564238 
L 351.228863 163.697314 
L 364.756136 163.98757 
L 378.283409 168.602973 
L 391.810681 171.015595 
L 405.337954 176.982866 
L 418.865227 184.607254 
L 432.3925 184.380819 
L 445.919772 187.584168 
L 459.447045 190.569896 
L 472.974318 190.171696 
L 486.50159 197.587146 
" style="fill:none;stroke:#ee7733;stroke-width:0.886227;"/>
   </g>
   <g id="patch_3">
    <path d="M 60.3925 228.96 
L 60.3925 7.2 
" style="fill:none;stroke:#000000;stroke-linecap:square;stroke-linejoin:miter;"/>
   </g>
   <g id="patch_4">
    <path d="M 60.3925 228.96 
L 506.7925 228.96 
" style="fill:none;stroke:#000000;stroke-linecap:square;stroke-linejoin:miter;"/>
   </g>
   <g id="PathCollection_1">
    <path clip-path="url(#p5d236f155d)" d="M 80.68341 78.772911 
C 81.15347 78.772911 81.604341 78.586154 81.936724 78.253771 
C 82.269107 77.921388 82.455864 77.470517 82.455864 77.000457 
C 82.455864 76.530397 82.269107 76.079525 81.936724 75.747143 
C 81.604341 75.41476 81.15347 75.228003 80.68341 75.228003 
C 80.21335 75.228003 79.762478 75.41476 79.430096 75.747143 
C 79.097713 76.079525 78.910956 76.530397 78.910956 77.000457 
C 78.910956 77.470517 79.097713 77.921388 79.430096 78.253771 
C 79.762478 78.586154 80.21335 78.772911 80.68341 78.772911 
z
" style="fill:#ee7733;stroke:#ee7733;stroke-width:0.886227;"/>
    <path clip-path="url(#p5d236f155d)" d="M 94.210682 80.187683 
C 94.680743 80.187683 95.131614 80.000926 95.463997 79.668543 
C 95.796379 79.336161 95.983136 78.885289 95.983136 78.415229 
C 95.983136 77.945169 95.796379 77.494298 95.463997 77.161915 
C 95.131614 76.829532 94.680743 76.642775 94.210682 76.642775 
C 93.740622 76.642775 93.289751 76.829532 92.957368 77.161915 
C 92.624986 77.494298 92.438229 77.945169 92.438229 78.415229 
C 92.438229 78.885289 92.624986 79.336161 92.957368 79.668543 
C 93.289751 80.000926 93.740622 80.187683 94.210682 80.187683 
z
" style="fill:#ee7733;stroke:#ee7733;stroke-width:0.886227;"/>
    <path clip-path="url(#p5d236f155d)" d="M 107.737955 84.323437 
C 108.208015 84.323437 108.658886 84.13668 108.991269 83.804297 
C 109.323652 83.471914 109.510409 83.021043 109.510409 82.550983 
C 109.510409 82.080923 109.323652 81.630052 108.991269 81.297669 
C 108.658886 80.965286 108.208015 80.778529 107.737955 80.778529 
C 107.267895 80.778529 106.817024 80.965286 106.484641 81.297669 
C 106.152258 81.630052 105.965501 82.080923 105.965501 82.550983 
C 105.965501 83.021043 106.152258 83.471914 106.484641 83.804297 
C 106.817024 84.13668 107.267895 84.323437 107.737955 84.323437 
z
" style="fill:#ee7733;stroke:#ee7733;stroke-width:0.886227;"/>
    <path clip-path="url(#p5d236f155d)" d="M 121.265228 82.029501 
C 121.735288 82.029501 122.186159 81.842744 122.518542 81.510361 
C 122.850925 81.177978 123.037682 80.727107 123.037682 80.257047 
C 123.037682 79.786987 122.850925 79.336116 122.518542 79.003733 
C 122.186159 78.67135 121.735288 78.484593 121.265228 78.484593 
C 120.795168 78.484593 120.344296 78.67135 120.011914 79.003733 
C 119.679531 79.336116 119.492774 79.786987 119.492774 80.257047 
C 119.492774 80.727107 119.679531 81.177978 120.011914 81.510361 
C 120.344296 81.842744 120.795168 82.029501 121.265228 82.029501 
z
" style="fill:#ee7733;stroke:#ee7733;stroke-width:0.886227;"/>
    <path clip-path="url(#p5d236f155d)" d="M 134.7925 88.083073 
C 135.262561 88.083073 135.713432 87.896316 136.045815 87.563933 
C 136.378197 87.23155 136.564954 86.780679 136.564954 86.310619 
C 136.564954 85.840558 136.378197 85.389687 136.045815 85.057305 
C 135.713432 84.724922 135.262561 84.538165 134.7925 84.538165 
C 134.32244 84.538165 133.871569 84.724922 133.539186 85.057305 
C 133.206804 85.389687 133.020047 85.840558 133.020047 86.310619 
C 133.020047 86.780679 133.206804 87.23155 133.539186 87.563933 
C 133.871569 87.896316 134.32244 88.083073 134.7925 88.083073 
z
" style="fill:#ee7733;stroke:#ee7733;stroke-width:0.886227;"/>
    <path clip-path="url(#p5d236f155d)" d="M 148.319773 92.043877 
C 148.789833 92.043877 149.240705 91.85712 149.573087 91.524738 
C 149.90547 91.192355 150.092227 90.741484 150.092227 90.271423 
C 150.092227 89.801363 149.90547 89.350492 149.573087 89.018109 
C 149.240705 88.685727 148.789833 88.49897 148.319773 88.49897 
C 147.849713 88.49897 147.398842 88.685727 147.066459 89.018109 
C 146.734076 89.350492 146.547319 89.801363 146.547319 90.271423 
C 146.547319 90.741484 146.734076 91.192355 147.066459 91.524738 
C 147.398842 91.85712 147.849713 92.043877 148.319773 92.043877 
z
" style="fill:#ee7733;stroke:#ee7733;stroke-width:0.886227;"/>
    <path clip-path="url(#p5d236f155d)" d="M 161.847046 90.357852 
C 162.317106 90.357852 162.767977 90.171095 163.10036 89.838713 
C 163.432743 89.50633 163.6195 89.055459 163.6195 88.585398 
C 163.6195 88.115338 163.432743 87.664467 163.10036 87.332084 
C 162.767977 86.999702 162.317106 86.812945 161.847046 86.812945 
C 161.376986 86.812945 160.926115 86.999702 160.593732 87.332084 
C 160.261349 87.664467 160.074592 88.115338 160.074592 88.585398 
C 160.074592 89.055459 160.261349 89.50633 160.593732 89.838713 
C 160.926115 90.171095 161.376986 90.357852 161.847046 90.357852 
z
" style="fill:#ee7733;stroke:#ee7733;stroke-width:0.886227;"/>
    <path clip-path="url(#p5d236f155d)" d="M 175.374319 96.909764 
C 175.844379 96.909764 176.29525 96.723007 176.627633 96.390624 
C 176.960015 96.058241 177.146772 95.60737 177.146772 95.13731 
C 177.146772 94.667249 176.960015 94.216378 176.627633 93.883996 
C 176.29525 93.551613 175.844379 93.364856 175.374319 93.364856 
C 174.904258 93.364856 174.453387 93.551613 174.121004 93.883996 
C 173.788622 94.216378 173.601865 94.667249 173.601865 95.13731 
C 173.601865 95.60737 173.788622 96.058241 174.121004 96.390624 
C 174.453387 96.723007 174.904258 96.909764 175.374319 96.909764 
z
" style="fill:#ee7733;stroke:#ee7733;stroke-width:0.886227;"/>
    <path clip-path="url(#p5d236f155d)" d="M 188.901591 94.880628 
C 189.371651 94.880628 189.822523 94.693871 190.154905 94.361489 
C 190.487288 94.029106 190.674045 93.578235 190.674045 93.108175 
C 190.674045 92.638114 190.487288 92.187243 190.154905 91.85486 
C 189.822523 91.522478 189.371651 91.335721 188.901591 91.335721 
C 188.431531 91.335721 187.98066 91.522478 187.648277 91.85486 
C 187.315894 92.187243 187.129137 92.638114 187.129137 93.108175 
C 187.129137 93.578235 187.315894 94.029106 187.648277 94.361489 
C 187.98066 94.693871 188.431531 94.880628 188.901591 94.880628 
z
" style="fill:#ee7733;stroke:#ee7733;stroke-width:0.886227;"/>
    <path clip-path="url(#p5d236f155d)" d="M 202.428864 104.598799 
C 202.898924 104.598799 203.349795 104.412042 203.682178 104.079659 
C 204.014561 103.747276 204.201318 103.296405 204.201318 102.826345 
C 204.201318 102.356285 204.014561 101.905413 203.682178 101.573031 
C 203.349795 101.240648 202.898924 101.053891 202.428864 101.053891 
C 201.958804 101.053891 201.507933 101.240648 201.17555 101.573031 
C 200.843167 101.905413 200.65641 102.356285 200.65641 102.826345 
C 200.65641 103.296405 200.843167 103.747276 201.17555 104.079659 
C 201.507933 104.412042 201.958804 104.598799 202.428864 104.598799 
z
" style="fill:#ee7733;stroke:#ee7733;stroke-width:0.886227;"/>
    <path clip-path="url(#p5d236f155d)" d="M 215.956137 111.397077 
C 216.426197 111.397077 216.877068 111.21032 217.209451 110.877937 
C 217.541834 110.545555 217.72859 110.094683 217.72859 109.624623 
C 217.72859 109.154563 217.541834 108.703692 217.209451 108.371309 
C 216.877068 108.038926 216.426197 107.852169 215.956137 107.852169 
C 215.486076 107.852169 215.035205 108.038926 214.702822 108.371309 
C 214.37044 108.703692 214.183683 109.154563 214.183683 109.624623 
C 214.183683 110.094683 214.37044 110.545555 214.702822 110.877937 
C 215.035205 111.21032 215.486076 111.397077 215.956137 111.397077 
z
" style="fill:#ee7733;stroke:#ee7733;stroke-width:0.886227;"/>
    <path clip-path="url(#p5d236f155d)" d="M 229.483409 117.723397 
C 229.95347 117.723397 230.404341 117.53664 230.736723 117.204257 
C 231.069106 116.871874 231.255863 116.421003 231.255863 115.950943 
C 231.255863 115.480883 231.069106 115.030012 230.736723 114.697629 
C 230.404341 114.365246 229.95347 114.178489 229.483409 114.178489 
C 229.013349 114.178489 228.562478 114.365246 228.230095 114.697629 
C 227.897712 115.030012 227.710955 115.480883 227.710955 115.950943 
C 227.710955 116.421003 227.897712 116.871874 228.230095 117.204257 
C 228.562478 117.53664 229.013349 117.723397 229.483409 117.723397 
z
" style="fill:#ee7733;stroke:#ee7733;stroke-width:0.886227;"/>
    <path clip-path="url(#p5d236f155d)" d="M 243.010682 122.076251 
C 243.480742 122.076251 243.931613 121.889494 244.263996 121.557112 
C 244.596379 121.224729 244.783136 120.773858 244.783136 120.303797 
C 244.783136 119.833737 244.596379 119.382866 244.263996 119.050483 
C 243.931613 118.718101 243.480742 118.531344 243.010682 118.531344 
C 242.540622 118.531344 242.089751 118.718101 241.757368 119.050483 
C 241.424985 119.382866 241.238228 119.833737 241.238228 120.303797 
C 241.238228 120.773858 241.424985 121.224729 241.757368 121.557112 
C 242.089751 121.889494 242.540622 122.076251 243.010682 122.076251 
z
" style="fill:#ee7733;stroke:#ee7733;stroke-width:0.886227;"/>
    <path clip-path="url(#p5d236f155d)" d="M 256.537955 132.649196 
C 257.008015 132.649196 257.458886 132.462439 257.791269 132.130056 
C 258.123652 131.797673 258.310408 131.346802 258.310408 130.876742 
C 258.310408 130.406682 258.123652 129.955811 257.791269 129.623428 
C 257.458886 129.291045 257.008015 129.104288 256.537955 129.104288 
C 256.067894 129.104288 255.617023 129.291045 255.28464 129.623428 
C 254.952258 129.955811 254.765501 130.406682 254.765501 130.876742 
C 254.765501 131.346802 254.952258 131.797673 255.28464 132.130056 
C 255.617023 132.462439 256.067894 132.649196 256.537955 132.649196 
z
" style="fill:#ee7733;stroke:#ee7733;stroke-width:0.886227;"/>
    <path clip-path="url(#p5d236f155d)" d="M 270.065227 134.950073 
C 270.535288 134.950073 270.986159 134.763316 271.318541 134.430933 
C 271.650924 134.09855 271.837681 133.647679 271.837681 133.177619 
C 271.837681 132.707559 271.650924 132.256687 271.318541 131.924305 
C 270.986159 131.591922 270.535288 131.405165 270.065227 131.405165 
C 269.595167 131.405165 269.144296 131.591922 268.811913 131.924305 
C 268.47953 132.256687 268.292773 132.707559 268.292773 133.177619 
C 268.292773 133.647679 268.47953 134.09855 268.811913 134.430933 
C 269.144296 134.763316 269.595167 134.950073 270.065227 134.950073 
z
" style="fill:#ee7733;stroke:#ee7733;stroke-width:0.886227;"/>
    <path clip-path="url(#p5d236f155d)" d="M 283.5925 143.492435 
C 284.06256 143.492435 284.513431 143.305679 284.845814 142.973296 
C 285.178197 142.640913 285.364954 142.190042 285.364954 141.719982 
C 285.364954 141.249921 285.178197 140.79905 284.845814 140.466667 
C 284.513431 140.134285 284.06256 139.947528 283.5925 139.947528 
C 283.12244 139.947528 282.671569 140.134285 282.339186 140.466667 
C 282.006803 140.79905 281.820046 141.249921 281.820046 141.719982 
C 281.820046 142.190042 282.006803 142.640913 282.339186 142.973296 
C 282.671569 143.305679 283.12244 143.492435 283.5925 143.492435 
z
" style="fill:#ee7733;stroke:#ee7733;stroke-width:0.886227;"/>
    <path clip-path="url(#p5d236f155d)" d="M 297.119773 144.359311 
C 297.589833 144.359311 298.040704 144.172554 298.373087 143.840172 
C 298.70547 143.507789 298.892227 143.056918 298.892227 142.586857 
C 298.892227 142.116797 298.70547 141.665926 298.373087 141.333543 
C 298.040704 141.00116 297.589833 140.814404 297.119773 140.814404 
C 296.649712 140.814404 296.198841 141.00116 295.866459 141.333543 
C 295.534076 141.665926 295.347319 142.116797 295.347319 142.586857 
C 295.347319 143.056918 295.534076 143.507789 295.866459 143.840172 
C 296.198841 144.172554 296.649712 144.359311 297.119773 144.359311 
z
" style="fill:#ee7733;stroke:#ee7733;stroke-width:0.886227;"/>
    <path clip-path="url(#p5d236f155d)" d="M 310.647045 150.788589 
C 311.117106 150.788589 311.567977 150.601832 311.90036 150.269449 
C 312.232742 149.937067 312.419499 149.486196 312.419499 149.016135 
C 312.419499 148.546075 312.232742 148.095204 311.90036 147.762821 
C 311.567977 147.430438 311.117106 147.243681 310.647045 147.243681 
C 310.176985 147.243681 309.726114 147.430438 309.393731 147.762821 
C 309.061348 148.095204 308.874592 148.546075 308.874592 149.016135 
C 308.874592 149.486196 309.061348 149.937067 309.393731 150.269449 
C 309.726114 150.601832 310.176985 150.788589 310.647045 150.788589 
z
" style="fill:#ee7733;stroke:#ee7733;stroke-width:0.886227;"/>
    <path clip-path="url(#p5d236f155d)" d="M 324.174318 156.53821 
C 324.644378 156.53821 325.095249 156.351453 325.427632 156.01907 
C 325.760015 155.686687 325.946772 155.235816 325.946772 154.765756 
C 325.946772 154.295696 325.760015 153.844825 325.427632 153.512442 
C 325.095249 153.180059 324.644378 152.993302 324.174318 152.993302 
C 323.704258 152.993302 323.253387 153.180059 322.921004 153.512442 
C 322.588621 153.844825 322.401864 154.295696 322.401864 154.765756 
C 322.401864 155.235816 322.588621 155.686687 322.921004 156.01907 
C 323.253387 156.351453 323.704258 156.53821 324.174318 156.53821 
z
" style="fill:#ee7733;stroke:#ee7733;stroke-width:0.886227;"/>
    <path clip-path="url(#p5d236f155d)" d="M 337.701591 161.336692 
C 338.171651 161.336692 338.622522 161.149935 338.954905 160.817552 
C 339.287288 160.48517 339.474045 160.034299 339.474045 159.564238 
C 339.474045 159.094178 339.287288 158.643307 338.954905 158.310924 
C 338.622522 157.978541 338.171651 157.791784 337.701591 157.791784 
C 337.23153 157.791784 336.780659 157.978541 336.448277 158.310924 
C 336.115894 158.643307 335.929137 159.094178 335.929137 159.564238 
C 335.929137 160.034299 336.115894 160.48517 336.448277 160.817552 
C 336.780659 161.149935 337.23153 161.336692 337.701591 161.336692 
z
" style="fill:#ee7733;stroke:#ee7733;stroke-width:0.886227;"/>
    <path clip-path="url(#p5d236f155d)" d="M 351.228863 165.469768 
C 351.698924 165.469768 352.149795 165.283011 352.482178 164.950628 
C 352.81456 164.618245 353.001317 164.167374 353.001317 163.697314 
C 353.001317 163.227254 352.81456 162.776383 352.482178 162.444 
C 352.149795 162.111617 351.698924 161.92486 351.228863 161.92486 
C 350.758803 161.92486 350.307932 162.111617 349.975549 162.444 
C 349.643166 162.776383 349.45641 163.227254 349.45641 163.697314 
C 349.45641 164.167374 349.643166 164.618245 349.975549 164.950628 
C 350.307932 165.283011 350.758803 165.469768 351.228863 165.469768 
z
" style="fill:#ee7733;stroke:#ee7733;stroke-width:0.886227;"/>
    <path clip-path="url(#p5d236f155d)" d="M 364.756136 165.760023 
C 365.226196 165.760023 365.677067 165.573266 366.00945 165.240884 
C 366.341833 164.908501 366.52859 164.45763 366.52859 163.98757 
C 366.52859 163.517509 366.341833 163.066638 366.00945 162.734255 
C 365.677067 162.401873 365.226196 162.215116 364.756136 162.215116 
C 364.286076 162.215116 363.835205 162.401873 363.502822 162.734255 
C 363.170439 163.066638 362.983682 163.517509 362.983682 163.98757 
C 362.983682 164.45763 363.170439 164.908501 363.502822 165.240884 
C 363.835205 165.573266 364.286076 165.760023 364.756136 165.760023 
z
" style="fill:#ee7733;stroke:#ee7733;stroke-width:0.886227;"/>
    <path clip-path="url(#p5d236f155d)" d="M 378.283409 170.375427 
C 378.753469 170.375427 379.20434 170.18867 379.536723 169.856287 
C 379.869106 169.523905 380.055863 169.073033 380.055863 168.602973 
C 380.055863 168.132913 379.869106 167.682042 379.536723 167.349659 
C 379.20434 167.017276 378.753469 166.830519 378.283409 166.830519 
C 377.813349 166.830519 377.362477 167.017276 377.030095 167.349659 
C 376.697712 167.682042 376.510955 168.132913 376.510955 168.602973 
C 376.510955 169.073033 376.697712 169.523905 377.030095 169.856287 
C 377.362477 170.18867 377.813349 170.375427 378.283409 170.375427 
z
" style="fill:#ee7733;stroke:#ee7733;stroke-width:0.886227;"/>
    <path clip-path="url(#p5d236f155d)" d="M 391.810681 172.788049 
C 392.280742 172.788049 392.731613 172.601292 393.063996 172.268909 
C 393.396378 171.936527 393.583135 171.485656 393.583135 171.015595 
C 393.583135 170.545535 393.396378 170.094664 393.063996 169.762281 
C 392.731613 169.429898 392.280742 169.243141 391.810681 169.243141 
C 391.340621 169.243141 390.88975 169.429898 390.557367 169.762281 
C 390.224985 170.094664 390.038228 170.545535 390.038228 171.015595 
C 390.038228 171.485656 390.224985 171.936527 390.557367 172.268909 
C 390.88975 172.601292 391.340621 172.788049 391.810681 172.788049 
z
" style="fill:#ee7733;stroke:#ee7733;stroke-width:0.886227;"/>
    <path clip-path="url(#p5d236f155d)" d="M 405.337954 178.75532 
C 405.808014 178.75532 406.258885 178.568563 406.591268 178.236181 
C 406.923651 177.903798 407.110408 177.452927 407.110408 176.982866 
C 407.110408 176.512806 406.923651 176.061935 406.591268 175.729552 
C 406.258885 175.397169 405.808014 175.210413 405.337954 175.210413 
C 404.867894 175.210413 404.417023 175.397169 404.08464 175.729552 
C 403.752257 176.061935 403.5655 176.512806 403.5655 176.982866 
C 403.5655 177.452927 403.752257 177.903798 404.08464 178.236181 
C 404.417023 178.568563 404.867894 178.75532 405.337954 178.75532 
z
" style="fill:#ee7733;stroke:#ee7733;stroke-width:0.886227;"/>
    <path clip-path="url(#p5d236f155d)" d="M 418.865227 186.379707 
C 419.335287 186.379707 419.786158 186.19295 420.118541 185.860568 
C 420.450924 185.528185 420.637681 185.077314 420.637681 184.607254 
C 420.637681 184.137193 420.450924 183.686322 420.118541 183.353939 
C 419.786158 183.021557 419.335287 182.8348 418.865227 182.8348 
C 418.395167 182.8348 417.944295 183.021557 417.611913 183.353939 
C 417.27953 183.686322 417.092773 184.137193 417.092773 184.607254 
C 417.092773 185.077314 417.27953 185.528185 417.611913 185.860568 
C 417.944295 186.19295 418.395167 186.379707 418.865227 186.379707 
z
" style="fill:#ee7733;stroke:#ee7733;stroke-width:0.886227;"/>
    <path clip-path="url(#p5d236f155d)" d="M 432.3925 186.153273 
C 432.86256 186.153273 433.313431 185.966516 433.645814 185.634133 
C 433.978196 185.30175 434.164953 184.850879 434.164953 184.380819 
C 434.164953 183.910759 433.978196 183.459887 433.645814 183.127505 
C 433.313431 182.795122 432.86256 182.608365 432.3925 182.608365 
C 431.922439 182.608365 431.471568 182.795122 431.139185 183.127505 
C 430.806803 183.459887 430.620046 183.910759 430.620046 184.380819 
C 430.620046 184.850879 430.806803 185.30175 431.139185 185.634133 
C 431.471568 185.966516 431.922439 186.153273 432.3925 186.153273 
z
" style="fill:#ee7733;stroke:#ee7733;stroke-width:0.886227;"/>
    <path clip-path="url(#p5d236f155d)" d="M 445.919772 189.356622 
C 446.389832 189.356622 446.840704 189.169865 447.173086 188.837482 
C 447.505469 188.505099 447.692226 188.054228 447.692226 187.584168 
C 447.692226 187.114108 447.505469 186.663237 447.173086 186.330854 
C 446.840704 185.998471 446.389832 185.811714 445.919772 185.811714 
C 445.449712 185.811714 444.998841 185.998471 444.666458 186.330854 
C 444.334075 186.663237 444.147318 187.114108 444.147318 187.584168 
C 444.147318 188.054228 444.334075 188.505099 444.666458 188.837482 
C 444.998841 189.169865 445.449712 189.356622 445.919772 189.356622 
z
" style="fill:#ee7733;stroke:#ee7733;stroke-width:0.886227;"/>
    <path clip-path="url(#p5d236f155d)" d="M 459.447045 192.34235 
C 459.917105 192.34235 460.367976 192.155593 460.700359 191.823211 
C 461.032742 191.490828 461.219499 191.039957 461.219499 190.569896 
C 461.219499 190.099836 461.032742 189.648965 460.700359 189.316582 
C 460.367976 188.984199 459.917105 188.797443 459.447045 188.797443 
C 458.976985 188.797443 458.526114 188.984199 458.193731 189.316582 
C 457.861348 189.648965 457.674591 190.099836 457.674591 190.569896 
C 457.674591 191.039957 457.861348 191.490828 458.193731 191.823211 
C 458.526114 192.155593 458.976985 192.34235 459.447045 192.34235 
z
" style="fill:#ee7733;stroke:#ee7733;stroke-width:0.886227;"/>
    <path clip-path="url(#p5d236f155d)" d="M 472.974318 191.944149 
C 473.444378 191.944149 473.895249 191.757393 474.227632 191.42501 
C 474.560014 191.092627 474.746771 190.641756 474.746771 190.171696 
C 474.746771 189.701635 474.560014 189.250764 474.227632 188.918381 
C 473.895249 188.585999 473.444378 188.399242 472.974318 188.399242 
C 472.504257 188.399242 472.053386 188.585999 471.721003 188.918381 
C 471.388621 189.250764 471.201864 189.701635 471.201864 190.171696 
C 471.201864 190.641756 471.388621 191.092627 471.721003 191.42501 
C 472.053386 191.757393 472.504257 191.944149 472.974318 191.944149 
z
" style="fill:#ee7733;stroke:#ee7733;stroke-width:0.886227;"/>
    <path clip-path="url(#p5d236f155d)" d="M 486.50159 199.3596 
C 486.97165 199.3596 487.422522 199.172843 487.754904 198.84046 
C 488.087287 198.508077 488.274044 198.057206 488.274044 197.587146 
C 488.274044 197.117086 488.087287 196.666215 487.754904 196.333832 
C 487.422522 196.001449 486.97165 195.814692 486.50159 195.814692 
C 486.03153 195.814692 485.580659 196.001449 485.248276 196.333832 
C 484.915893 196.666215 484.729136 197.117086 484.729136 197.587146 
C 484.729136 198.057206 484.915893 198.508077 485.248276 198.84046 
C 485.580659 199.172843 486.03153 199.3596 486.50159 199.3596 
z
" style="fill:#ee7733;stroke:#ee7733;stroke-width:0.886227;"/>
   </g>
  </g>
 </g>
 <defs>
  <clipPath id="p5d236f155d">
   <rect height="221.76" width="446.4" x="60.3925" y="7.2"/>
  </clipPath>
 </defs>
</svg>
